<?xml version="1.0" encoding="utf-8"?>
<!-- Generator: Adobe Illustrator 16.0.4, SVG Export Plug-In . SVG Version: 6.00 Build 0)  -->
<!DOCTYPE svg PUBLIC "-//W3C//DTD SVG 1.1//EN" "http://www.w3.org/Graphics/SVG/1.1/DTD/svg11.dtd">
<svg version="1.1" id="Layer_1" xmlns="http://www.w3.org/2000/svg" xmlns:xlink="http://www.w3.org/1999/xlink" x="0px" y="0px"
	 width="1366px" height="768px" viewBox="0 0 1366 768" enable-background="new 0 0 1366 768" xml:space="preserve">
<g>
	<rect y="-0.211" fill="#FFFFFF" width="1367.039" height="768.96"/>
	<g>
		<rect x="833.99" y="149.154" fill="none" width="224.992" height="27.056"/>
		<path fill="#010101" d="M899.539,162.504V149.85h4.25c0.689,0,1.316,0.07,1.881,0.208c0.566,0.139,1.049,0.351,1.447,0.635
			c0.4,0.284,0.709,0.643,0.926,1.078s0.326,0.947,0.326,1.539c-0.006,0.591-0.164,1.121-0.475,1.59
			c-0.309,0.469-0.766,0.826-1.367,1.069c0.365,0.093,0.68,0.232,0.947,0.417c0.266,0.186,0.488,0.404,0.664,0.656
			c0.178,0.252,0.307,0.527,0.391,0.826s0.127,0.607,0.127,0.925c0,0.608-0.105,1.145-0.312,1.608
			c-0.209,0.464-0.508,0.852-0.896,1.165c-0.387,0.312-0.859,0.547-1.416,0.704c-0.557,0.157-1.182,0.235-1.877,0.235H899.539z
			 M901.99,155.16h1.816c0.678-0.006,1.199-0.148,1.564-0.426c0.365-0.278,0.551-0.687,0.557-1.226c0-0.591-0.184-1.016-0.549-1.273
			s-0.893-0.39-1.582-0.396h-1.807V155.16z M901.99,156.924v3.607h2.172c0.666-0.005,1.176-0.169,1.525-0.491
			c0.352-0.322,0.525-0.743,0.525-1.265c0.006-0.58-0.15-1.031-0.469-1.356c-0.318-0.324-0.811-0.49-1.477-0.496H901.99z"/>
		<path fill="#010101" d="M916.199,162.504c-0.057-0.116-0.107-0.249-0.146-0.4c-0.041-0.15-0.076-0.31-0.105-0.478
			c-0.133,0.145-0.287,0.281-0.461,0.409s-0.365,0.239-0.576,0.334c-0.213,0.096-0.445,0.171-0.701,0.226
			c-0.254,0.055-0.529,0.083-0.824,0.083c-0.482,0-0.924-0.069-1.326-0.208s-0.748-0.333-1.039-0.583
			c-0.289-0.249-0.516-0.546-0.678-0.891s-0.244-0.72-0.244-1.125c0-0.991,0.371-1.757,1.109-2.299
			c0.738-0.542,1.842-0.812,3.307-0.812h1.348v-0.556c0-0.452-0.148-0.81-0.443-1.073s-0.721-0.396-1.277-0.396
			c-0.492,0-0.852,0.105-1.078,0.317c-0.227,0.211-0.34,0.494-0.34,0.847h-2.416c0-0.4,0.088-0.779,0.266-1.139
			c0.176-0.359,0.436-0.675,0.773-0.947c0.34-0.272,0.754-0.488,1.242-0.647c0.49-0.159,1.051-0.239,1.684-0.239
			c0.566,0,1.096,0.07,1.586,0.209c0.488,0.139,0.914,0.345,1.273,0.617c0.357,0.272,0.639,0.616,0.842,1.03
			c0.203,0.414,0.305,0.894,0.305,1.438v4.033c0,0.504,0.031,0.921,0.096,1.251s0.156,0.614,0.277,0.852v0.148H916.199z
			 M913.896,160.81c0.244,0,0.469-0.029,0.678-0.087c0.209-0.058,0.396-0.133,0.564-0.226c0.17-0.092,0.314-0.198,0.436-0.317
			c0.121-0.119,0.217-0.239,0.287-0.36v-1.617h-1.234c-0.377,0-0.699,0.036-0.965,0.109c-0.266,0.072-0.484,0.174-0.652,0.304
			s-0.293,0.287-0.373,0.469c-0.082,0.183-0.121,0.381-0.121,0.595c0,0.325,0.113,0.594,0.342,0.808
			C913.088,160.703,913.434,160.81,913.896,160.81z"/>
		<path fill="#010101" d="M921.51,149.154h5.26v11.386h2.693v1.964h-7.953v-1.964h2.816v-9.413h-2.816V149.154z"/>
		<path fill="#010101" d="M937.562,162.504c-0.057-0.116-0.107-0.249-0.146-0.4c-0.041-0.15-0.076-0.31-0.105-0.478
			c-0.133,0.145-0.287,0.281-0.461,0.409s-0.365,0.239-0.576,0.334c-0.213,0.096-0.445,0.171-0.701,0.226
			c-0.254,0.055-0.529,0.083-0.824,0.083c-0.482,0-0.924-0.069-1.326-0.208s-0.748-0.333-1.039-0.583
			c-0.289-0.249-0.516-0.546-0.678-0.891s-0.244-0.72-0.244-1.125c0-0.991,0.371-1.757,1.109-2.299
			c0.738-0.542,1.842-0.812,3.307-0.812h1.348v-0.556c0-0.452-0.148-0.81-0.443-1.073s-0.721-0.396-1.277-0.396
			c-0.492,0-0.852,0.105-1.078,0.317c-0.227,0.211-0.34,0.494-0.34,0.847h-2.416c0-0.4,0.088-0.779,0.266-1.139
			c0.176-0.359,0.436-0.675,0.773-0.947c0.34-0.272,0.754-0.488,1.242-0.647c0.49-0.159,1.051-0.239,1.684-0.239
			c0.566,0,1.096,0.07,1.586,0.209c0.488,0.139,0.914,0.345,1.273,0.617c0.357,0.272,0.639,0.616,0.842,1.03
			c0.203,0.414,0.305,0.894,0.305,1.438v4.033c0,0.504,0.031,0.921,0.096,1.251s0.156,0.614,0.277,0.852v0.148H937.562z
			 M935.26,160.81c0.244,0,0.469-0.029,0.678-0.087c0.209-0.058,0.396-0.133,0.564-0.226c0.17-0.092,0.314-0.198,0.436-0.317
			c0.121-0.119,0.217-0.239,0.287-0.36v-1.617h-1.234c-0.377,0-0.699,0.036-0.965,0.109c-0.266,0.072-0.484,0.174-0.652,0.304
			s-0.293,0.287-0.373,0.469c-0.082,0.183-0.121,0.381-0.121,0.595c0,0.325,0.113,0.594,0.342,0.808
			C934.451,160.703,934.797,160.81,935.26,160.81z"/>
		<path fill="#010101" d="M944.561,153.1l0.146,1.304c0.336-0.469,0.744-0.833,1.227-1.091c0.48-0.257,1.014-0.387,1.598-0.387
			c0.477,0,0.91,0.07,1.305,0.209c0.395,0.139,0.734,0.36,1.021,0.665s0.51,0.695,0.67,1.173c0.158,0.478,0.238,1.059,0.238,1.743
			v5.789h-2.416v-5.754c0-0.371-0.043-0.676-0.127-0.917c-0.084-0.241-0.203-0.431-0.359-0.569
			c-0.158-0.139-0.346-0.236-0.566-0.292c-0.219-0.055-0.469-0.083-0.746-0.083c-0.412,0-0.762,0.083-1.053,0.248
			c-0.289,0.165-0.523,0.393-0.703,0.682v6.684h-2.426V153.1H944.561z"/>
		<path fill="#010101" d="M957.215,160.749c0.236,0,0.463-0.035,0.678-0.104c0.215-0.07,0.402-0.168,0.564-0.295
			s0.289-0.281,0.379-0.461c0.09-0.179,0.129-0.379,0.117-0.6h2.277c0.012,0.487-0.09,0.938-0.301,1.356
			c-0.211,0.417-0.5,0.776-0.865,1.078s-0.789,0.538-1.273,0.708c-0.482,0.171-0.994,0.256-1.533,0.256
			c-0.73,0-1.371-0.123-1.92-0.37c-0.551-0.246-1.01-0.583-1.379-1.012c-0.367-0.429-0.646-0.932-0.834-1.508
			c-0.188-0.576-0.283-1.195-0.283-1.855v-0.261c0-0.661,0.094-1.279,0.279-1.855s0.463-1.079,0.834-1.508
			c0.371-0.429,0.83-0.768,1.377-1.017c0.549-0.249,1.184-0.374,1.908-0.374c0.58,0,1.115,0.087,1.607,0.261
			s0.918,0.419,1.273,0.734c0.357,0.316,0.633,0.699,0.83,1.147c0.197,0.449,0.291,0.952,0.279,1.508h-2.277
			c0.012-0.231-0.023-0.452-0.105-0.66c-0.08-0.209-0.199-0.388-0.355-0.539c-0.156-0.15-0.346-0.271-0.564-0.361
			c-0.221-0.09-0.461-0.135-0.723-0.135c-0.381,0-0.697,0.079-0.947,0.235c-0.248,0.156-0.447,0.365-0.596,0.626
			c-0.146,0.261-0.252,0.559-0.312,0.895s-0.092,0.684-0.092,1.043v0.261c0,0.365,0.029,0.717,0.088,1.056s0.16,0.637,0.309,0.895
			s0.348,0.465,0.6,0.622C956.506,160.67,956.826,160.749,957.215,160.749z"/>
		<path fill="#010101" d="M968.295,162.678c-0.723,0-1.381-0.119-1.973-0.356c-0.59-0.237-1.098-0.561-1.52-0.969
			c-0.424-0.409-0.75-0.89-0.979-1.443s-0.344-1.146-0.344-1.777v-0.348c0-0.719,0.113-1.375,0.34-1.969
			c0.225-0.594,0.541-1.105,0.947-1.534c0.404-0.429,0.887-0.762,1.441-1c0.557-0.237,1.162-0.356,1.818-0.356
			c0.678,0,1.281,0.112,1.811,0.335c0.531,0.223,0.98,0.538,1.348,0.943c0.367,0.406,0.648,0.894,0.84,1.464
			c0.189,0.571,0.285,1.201,0.285,1.891v1.025h-6.379c0.047,0.319,0.141,0.61,0.283,0.874c0.141,0.264,0.322,0.491,0.543,0.682
			c0.221,0.191,0.473,0.339,0.756,0.443c0.283,0.104,0.594,0.157,0.93,0.157c0.238,0,0.475-0.023,0.709-0.07
			s0.459-0.114,0.674-0.204c0.213-0.09,0.414-0.201,0.6-0.334s0.348-0.29,0.486-0.47l1.207,1.304
			c-0.15,0.215-0.346,0.425-0.586,0.63s-0.523,0.388-0.852,0.547c-0.328,0.16-0.691,0.289-1.092,0.387
			C969.191,162.629,968.76,162.678,968.295,162.678z M968.01,154.882c-0.273,0-0.521,0.048-0.748,0.144s-0.424,0.233-0.596,0.413
			c-0.17,0.18-0.314,0.394-0.43,0.643c-0.117,0.249-0.203,0.527-0.262,0.834h3.963v-0.191c-0.01-0.255-0.061-0.496-0.146-0.721
			c-0.088-0.226-0.211-0.422-0.375-0.587c-0.162-0.165-0.359-0.295-0.594-0.391S968.316,154.882,968.01,154.882z"/>
		<path fill="#010101" d="M993.371,162.504h-8.631v-1.651l4.094-4.398c0.318-0.348,0.588-0.663,0.809-0.947
			c0.219-0.284,0.396-0.543,0.533-0.778s0.234-0.453,0.297-0.656c0.061-0.203,0.09-0.4,0.09-0.591c0-0.284-0.041-0.536-0.121-0.756
			c-0.082-0.22-0.195-0.407-0.344-0.561c-0.146-0.153-0.324-0.271-0.529-0.352c-0.207-0.081-0.434-0.122-0.684-0.122
			c-0.666,0-1.162,0.186-1.49,0.556c-0.326,0.371-0.49,0.89-0.49,1.556h-2.426c0-0.562,0.107-1.094,0.322-1.595
			s0.518-0.94,0.908-1.317c0.391-0.376,0.863-0.673,1.416-0.891c0.555-0.217,1.166-0.326,1.838-0.326c0.645,0,1.213,0.09,1.709,0.27
			s0.91,0.432,1.242,0.756c0.334,0.324,0.588,0.714,0.762,1.169c0.174,0.455,0.26,0.958,0.26,1.508c0,0.417-0.064,0.815-0.195,1.195
			c-0.131,0.379-0.316,0.754-0.557,1.125c-0.24,0.371-0.529,0.749-0.865,1.134c-0.336,0.385-0.709,0.79-1.121,1.212l-2.381,2.521
			h5.555V162.504z"/>
	</g>
	<rect x="952.27" y="235.426" fill="#C8D7E2" enable-background="new    " width="59.971" height="148.797"/>
	<g>
		<rect x="954.002" y="392.878" fill="none" width="58.238" height="25.372"/>
		<path fill="#010101" d="M978.609,407.149v-13.528h4.545c0.736,0,1.406,0.074,2.012,0.223c0.604,0.149,1.119,0.375,1.547,0.679
			s0.756,0.688,0.988,1.152c0.232,0.464,0.35,1.013,0.35,1.645c-0.006,0.632-0.176,1.198-0.508,1.7
			c-0.33,0.502-0.818,0.883-1.463,1.143c0.391,0.1,0.729,0.248,1.014,0.446s0.521,0.432,0.711,0.701
			c0.188,0.27,0.328,0.563,0.418,0.883s0.135,0.649,0.135,0.989c0,0.65-0.111,1.224-0.336,1.72c-0.223,0.495-0.541,0.91-0.957,1.244
			c-0.414,0.335-0.918,0.586-1.514,0.753c-0.594,0.167-1.264,0.251-2.006,0.251H978.609z M981.23,399.298h1.941
			c0.725-0.006,1.283-0.157,1.674-0.455c0.389-0.297,0.588-0.734,0.594-1.31c0-0.632-0.195-1.086-0.586-1.361
			s-0.953-0.417-1.691-0.423h-1.932V399.298z M981.23,401.185v3.855h2.322c0.713-0.006,1.256-0.181,1.631-0.524
			s0.562-0.795,0.562-1.353c0.006-0.619-0.162-1.103-0.502-1.449s-0.867-0.523-1.58-0.529H981.23z"/>
	</g>
	<g>
		<rect x="870.965" y="392.878" fill="none" width="58.242" height="25.372"/>
		<path fill="#010101" d="M902.246,404.325h-4.061l-0.799,2.824h-2.752l4.434-13.528h2.369l4.348,13.528h-2.75L902.246,404.325z
			 M898.826,402.104h2.807l-1.385-4.98L898.826,402.104z"/>
	</g>
	<rect x="869.236" y="283.916" fill="#C8D7E2" enable-background="new    " width="59.969" height="100.307"/>
	
		<rect x="952.27" y="211.182" fill="none" stroke="#010101" stroke-width="1.068" stroke-miterlimit="10" stroke-dasharray="6.9196" width="59.971" height="24.244"/>
	
		<rect x="869.236" y="283.916" fill="none" stroke="#010101" stroke-width="1.068" stroke-miterlimit="10" stroke-dasharray="6.9196" width="59.969" height="24.245"/>
	<g>
		<g>
			<path fill="none" stroke="#010101" stroke-width="0.8649" stroke-miterlimit="10" d="M983.01,223.304h-78.022
				c-3.172,0-5.767,2.595-5.767,5.766v60.861"/>
			<g>
				<circle fill="#010101" cx="982.848" cy="223.304" r="3.252"/>
			</g>
			<g>
				<polygon fill="#010101" points="899.221,296.038 895.704,287.433 899.221,289.475 902.736,287.433 				"/>
			</g>
		</g>
	</g>
	<g>
		<rect x="884.66" y="339.273" fill="none" width="29.119" height="25.37"/>
		<path fill="#010101" d="M892.953,346.277h1.189v1.583h-1.189v2.225h-1.957v-2.225h-4.258l-0.078-1.225l4.307-6.8h1.986V346.277z
			 M888.582,346.277h2.414v-3.809l-0.189,0.338L888.582,346.277z"/>
		<path fill="#010101" d="M902.561,346.186c0,0.661-0.076,1.245-0.229,1.749c-0.152,0.505-0.373,0.927-0.658,1.267
			c-0.287,0.341-0.637,0.598-1.049,0.771c-0.414,0.173-0.877,0.26-1.395,0.26c-0.512,0-0.973-0.087-1.387-0.26
			c-0.412-0.174-0.764-0.431-1.051-0.771c-0.289-0.34-0.512-0.762-0.67-1.267c-0.156-0.504-0.236-1.088-0.236-1.749v-2.45
			c0-0.661,0.078-1.244,0.232-1.749c0.156-0.504,0.377-0.927,0.666-1.267s0.639-0.598,1.049-0.771
			c0.41-0.174,0.871-0.261,1.383-0.261c0.516,0,0.98,0.087,1.395,0.261c0.412,0.173,0.764,0.431,1.051,0.771
			c0.289,0.34,0.512,0.763,0.666,1.267c0.154,0.505,0.232,1.088,0.232,1.749V346.186z M897.859,345.341l2.73-2.034
			c-0.014-0.69-0.135-1.201-0.359-1.534c-0.225-0.334-0.562-0.5-1.014-0.5c-0.455,0-0.795,0.176-1.021,0.527
			c-0.225,0.353-0.336,0.895-0.336,1.626V345.341z M900.59,344.637l-2.73,2.027c0.023,0.676,0.146,1.177,0.373,1.503
			c0.225,0.326,0.557,0.489,0.998,0.489c0.461,0,0.803-0.179,1.025-0.535s0.334-0.903,0.334-1.64V344.637z"/>
		<path fill="#010101" d="M911.211,346.186c0,0.661-0.076,1.245-0.229,1.749c-0.152,0.505-0.373,0.927-0.658,1.267
			c-0.287,0.341-0.637,0.598-1.049,0.771c-0.414,0.173-0.877,0.26-1.395,0.26c-0.512,0-0.973-0.087-1.387-0.26
			c-0.412-0.174-0.764-0.431-1.051-0.771c-0.289-0.34-0.512-0.762-0.67-1.267c-0.156-0.504-0.236-1.088-0.236-1.749v-2.45
			c0-0.661,0.078-1.244,0.232-1.749c0.156-0.504,0.377-0.927,0.666-1.267s0.639-0.598,1.049-0.771
			c0.41-0.174,0.871-0.261,1.383-0.261c0.516,0,0.98,0.087,1.395,0.261c0.412,0.173,0.764,0.431,1.051,0.771
			c0.289,0.34,0.512,0.763,0.666,1.267c0.154,0.505,0.232,1.088,0.232,1.749V346.186z M906.51,345.341l2.73-2.034
			c-0.014-0.69-0.135-1.201-0.359-1.534c-0.225-0.334-0.562-0.5-1.014-0.5c-0.455,0-0.795,0.176-1.021,0.527
			c-0.225,0.353-0.336,0.895-0.336,1.626V345.341z M909.24,344.637l-2.73,2.027c0.023,0.676,0.146,1.177,0.373,1.503
			c0.225,0.326,0.557,0.489,0.998,0.489c0.461,0,0.803-0.179,1.025-0.535s0.334-0.903,0.334-1.64V344.637z"/>
	</g>
	<g>
		<rect x="967.695" y="339.273" fill="none" width="29.121" height="25.37"/>
		<path fill="#010101" d="M975.467,339.752v1.626h-0.113c-0.516,0-0.973,0.068-1.369,0.204s-0.734,0.328-1.012,0.577
			c-0.279,0.249-0.5,0.547-0.662,0.894c-0.162,0.348-0.264,0.734-0.307,1.162c0.107-0.117,0.232-0.233,0.373-0.349
			s0.299-0.219,0.475-0.31c0.176-0.092,0.367-0.166,0.574-0.222c0.207-0.057,0.43-0.085,0.668-0.085
			c0.488,0,0.914,0.093,1.277,0.278c0.365,0.186,0.668,0.437,0.912,0.753s0.426,0.686,0.545,1.105c0.121,0.42,0.18,0.862,0.18,1.326
			c0,0.498-0.08,0.96-0.238,1.387c-0.16,0.428-0.387,0.798-0.684,1.112c-0.295,0.314-0.654,0.562-1.076,0.743
			s-0.896,0.271-1.422,0.271c-0.549,0-1.045-0.102-1.486-0.306c-0.439-0.204-0.814-0.487-1.121-0.849
			c-0.309-0.361-0.545-0.789-0.711-1.284c-0.168-0.495-0.25-1.036-0.25-1.623v-0.753c0-0.812,0.109-1.563,0.33-2.256
			s0.549-1.291,0.986-1.795c0.436-0.505,0.979-0.898,1.625-1.183c0.648-0.284,1.396-0.426,2.246-0.426H975.467z M973.523,344.82
			c-0.352,0-0.662,0.094-0.932,0.281s-0.473,0.43-0.609,0.725v0.577c0,0.376,0.039,0.704,0.117,0.985
			c0.076,0.282,0.186,0.516,0.326,0.701c0.141,0.185,0.309,0.324,0.5,0.418c0.193,0.095,0.402,0.142,0.627,0.142
			c0.23,0,0.438-0.049,0.627-0.145c0.188-0.097,0.346-0.229,0.479-0.397c0.131-0.169,0.232-0.37,0.303-0.603
			s0.105-0.486,0.105-0.764c0-0.276-0.035-0.532-0.105-0.767c-0.07-0.235-0.172-0.438-0.303-0.609
			c-0.133-0.171-0.293-0.305-0.482-0.401C973.984,344.868,973.768,344.82,973.523,344.82z"/>
		<path fill="#010101" d="M985.596,346.186c0,0.661-0.076,1.245-0.229,1.749c-0.152,0.505-0.373,0.927-0.658,1.267
			c-0.287,0.341-0.637,0.598-1.049,0.771c-0.414,0.173-0.877,0.26-1.395,0.26c-0.512,0-0.973-0.087-1.387-0.26
			c-0.412-0.174-0.764-0.431-1.051-0.771c-0.289-0.34-0.512-0.762-0.67-1.267c-0.156-0.504-0.236-1.088-0.236-1.749v-2.45
			c0-0.661,0.078-1.244,0.232-1.749c0.156-0.504,0.377-0.927,0.666-1.267s0.639-0.598,1.049-0.771
			c0.41-0.174,0.871-0.261,1.383-0.261c0.516,0,0.98,0.087,1.395,0.261c0.412,0.173,0.764,0.431,1.051,0.771
			c0.289,0.34,0.512,0.763,0.666,1.267c0.154,0.505,0.232,1.088,0.232,1.749V346.186z M980.895,345.341l2.73-2.034
			c-0.014-0.69-0.135-1.201-0.359-1.534c-0.225-0.334-0.562-0.5-1.014-0.5c-0.455,0-0.795,0.176-1.021,0.527
			c-0.225,0.353-0.336,0.895-0.336,1.626V345.341z M983.625,344.637l-2.73,2.027c0.023,0.676,0.146,1.177,0.373,1.503
			c0.225,0.326,0.557,0.489,0.998,0.489c0.461,0,0.803-0.179,1.025-0.535s0.334-0.903,0.334-1.64V344.637z"/>
		<path fill="#010101" d="M994.246,346.186c0,0.661-0.076,1.245-0.229,1.749c-0.152,0.505-0.373,0.927-0.658,1.267
			c-0.287,0.341-0.637,0.598-1.049,0.771c-0.414,0.173-0.877,0.26-1.395,0.26c-0.512,0-0.973-0.087-1.387-0.26
			c-0.412-0.174-0.764-0.431-1.051-0.771c-0.289-0.34-0.512-0.762-0.67-1.267c-0.156-0.504-0.236-1.088-0.236-1.749v-2.45
			c0-0.661,0.078-1.244,0.232-1.749c0.156-0.504,0.377-0.927,0.666-1.267s0.639-0.598,1.049-0.771
			c0.41-0.174,0.871-0.261,1.383-0.261c0.516,0,0.98,0.087,1.395,0.261c0.412,0.173,0.764,0.431,1.051,0.771
			c0.289,0.34,0.512,0.763,0.666,1.267c0.154,0.505,0.232,1.088,0.232,1.749V346.186z M989.545,345.341l2.73-2.034
			c-0.014-0.69-0.135-1.201-0.359-1.534c-0.225-0.334-0.562-0.5-1.014-0.5c-0.455,0-0.795,0.176-1.021,0.527
			c-0.225,0.353-0.336,0.895-0.336,1.626V345.341z M992.275,344.637l-2.73,2.027c0.023,0.676,0.146,1.177,0.373,1.503
			c0.225,0.326,0.557,0.489,0.998,0.489c0.461,0,0.803-0.179,1.025-0.535s0.334-0.903,0.334-1.64V344.637z"/>
	</g>
	<rect x="696.564" y="211.146" fill="#C8D7E2" enable-background="new    " width="59.971" height="173.041"/>
	<g>
		<rect x="571.024" y="149.154" fill="none" width="224.992" height="27.056"/>
		<path fill="#010101" d="M636.574,162.504V149.85h4.25c0.689,0,1.317,0.07,1.882,0.208c0.565,0.139,1.048,0.351,1.447,0.635
			s0.708,0.643,0.926,1.078c0.217,0.435,0.325,0.947,0.325,1.539c-0.005,0.591-0.163,1.121-0.474,1.59
			c-0.31,0.469-0.766,0.826-1.368,1.069c0.365,0.093,0.681,0.232,0.947,0.417s0.488,0.404,0.665,0.656s0.307,0.527,0.391,0.826
			s0.126,0.607,0.126,0.925c0,0.608-0.104,1.145-0.312,1.608c-0.209,0.464-0.507,0.852-0.896,1.165
			c-0.388,0.312-0.86,0.547-1.417,0.704c-0.556,0.157-1.182,0.235-1.877,0.235H636.574z M639.025,155.16h1.816
			c0.678-0.006,1.199-0.148,1.564-0.426c0.365-0.278,0.551-0.687,0.557-1.226c0-0.591-0.183-1.016-0.548-1.273
			s-0.893-0.39-1.582-0.396h-1.808V155.16z M639.025,156.924v3.607h2.173c0.666-0.005,1.175-0.169,1.525-0.491
			c0.351-0.322,0.525-0.743,0.525-1.265c0.006-0.58-0.15-1.031-0.469-1.356c-0.319-0.324-0.812-0.49-1.478-0.496H639.025z"/>
		<path fill="#010101" d="M653.235,162.504c-0.058-0.116-0.107-0.249-0.147-0.4c-0.041-0.15-0.075-0.31-0.104-0.478
			c-0.133,0.145-0.287,0.281-0.461,0.409s-0.366,0.239-0.577,0.334c-0.212,0.096-0.445,0.171-0.7,0.226s-0.53,0.083-0.825,0.083
			c-0.481,0-0.923-0.069-1.326-0.208c-0.402-0.139-0.748-0.333-1.038-0.583c-0.29-0.249-0.516-0.546-0.678-0.891
			s-0.244-0.72-0.244-1.125c0-0.991,0.37-1.757,1.108-2.299c0.739-0.542,1.842-0.812,3.308-0.812h1.347v-0.556
			c0-0.452-0.147-0.81-0.443-1.073c-0.295-0.264-0.721-0.396-1.277-0.396c-0.492,0-0.852,0.105-1.078,0.317
			c-0.226,0.211-0.339,0.494-0.339,0.847h-2.416c0-0.4,0.088-0.779,0.266-1.139c0.176-0.359,0.435-0.675,0.773-0.947
			s0.753-0.488,1.242-0.647c0.49-0.159,1.051-0.239,1.683-0.239c0.567,0,1.096,0.07,1.586,0.209
			c0.489,0.139,0.914,0.345,1.273,0.617c0.358,0.272,0.64,0.616,0.843,1.03c0.203,0.414,0.304,0.894,0.304,1.438v4.033
			c0,0.504,0.032,0.921,0.096,1.251c0.064,0.33,0.156,0.614,0.278,0.852v0.148H653.235z M650.932,160.81
			c0.243,0,0.469-0.029,0.678-0.087c0.209-0.058,0.396-0.133,0.564-0.226c0.169-0.092,0.313-0.198,0.435-0.317
			c0.122-0.119,0.218-0.239,0.287-0.36v-1.617h-1.234c-0.376,0-0.698,0.036-0.965,0.109c-0.266,0.072-0.483,0.174-0.651,0.304
			s-0.293,0.287-0.374,0.469s-0.121,0.381-0.121,0.595c0,0.325,0.114,0.594,0.343,0.808
			C650.123,160.703,650.468,160.81,650.932,160.81z"/>
		<path fill="#010101" d="M658.545,149.154h5.259v11.386h2.694v1.964h-7.953v-1.964h2.816v-9.413h-2.816V149.154z"/>
		<path fill="#010101" d="M674.598,162.504c-0.058-0.116-0.107-0.249-0.147-0.4c-0.041-0.15-0.075-0.31-0.104-0.478
			c-0.133,0.145-0.287,0.281-0.461,0.409s-0.366,0.239-0.577,0.334c-0.212,0.096-0.445,0.171-0.7,0.226s-0.53,0.083-0.825,0.083
			c-0.481,0-0.923-0.069-1.326-0.208c-0.402-0.139-0.748-0.333-1.038-0.583c-0.29-0.249-0.516-0.546-0.678-0.891
			s-0.244-0.72-0.244-1.125c0-0.991,0.37-1.757,1.108-2.299c0.739-0.542,1.842-0.812,3.308-0.812h1.347v-0.556
			c0-0.452-0.147-0.81-0.443-1.073c-0.295-0.264-0.721-0.396-1.277-0.396c-0.492,0-0.852,0.105-1.078,0.317
			c-0.226,0.211-0.339,0.494-0.339,0.847h-2.416c0-0.4,0.088-0.779,0.266-1.139c0.176-0.359,0.435-0.675,0.773-0.947
			s0.753-0.488,1.242-0.647c0.49-0.159,1.051-0.239,1.683-0.239c0.567,0,1.096,0.07,1.586,0.209
			c0.489,0.139,0.914,0.345,1.273,0.617c0.358,0.272,0.64,0.616,0.843,1.03c0.203,0.414,0.304,0.894,0.304,1.438v4.033
			c0,0.504,0.032,0.921,0.096,1.251c0.064,0.33,0.156,0.614,0.278,0.852v0.148H674.598z M672.295,160.81
			c0.243,0,0.469-0.029,0.678-0.087c0.209-0.058,0.396-0.133,0.564-0.226c0.169-0.092,0.313-0.198,0.435-0.317
			c0.122-0.119,0.218-0.239,0.287-0.36v-1.617h-1.234c-0.376,0-0.698,0.036-0.965,0.109c-0.266,0.072-0.483,0.174-0.651,0.304
			s-0.293,0.287-0.374,0.469s-0.121,0.381-0.121,0.595c0,0.325,0.114,0.594,0.343,0.808
			C671.486,160.703,671.832,160.81,672.295,160.81z"/>
		<path fill="#010101" d="M681.595,153.1l0.147,1.304c0.336-0.469,0.744-0.833,1.226-1.091c0.48-0.257,1.014-0.387,1.598-0.387
			c0.477,0,0.91,0.07,1.305,0.209c0.395,0.139,0.734,0.36,1.021,0.665s0.51,0.695,0.67,1.173c0.158,0.478,0.238,1.059,0.238,1.743
			v5.789h-2.416v-5.754c0-0.371-0.043-0.676-0.127-0.917c-0.084-0.241-0.203-0.431-0.359-0.569
			c-0.158-0.139-0.346-0.236-0.566-0.292c-0.219-0.055-0.468-0.083-0.747-0.083c-0.412,0-0.762,0.083-1.052,0.248
			c-0.29,0.165-0.524,0.393-0.704,0.682v6.684h-2.425V153.1H681.595z"/>
		<path fill="#010101" d="M694.25,160.749c0.236,0,0.463-0.035,0.678-0.104c0.215-0.07,0.402-0.168,0.564-0.295
			s0.289-0.281,0.379-0.461c0.09-0.179,0.129-0.379,0.117-0.6h2.277c0.012,0.487-0.09,0.938-0.301,1.356
			c-0.211,0.417-0.5,0.776-0.865,1.078s-0.789,0.538-1.273,0.708c-0.482,0.171-0.994,0.256-1.533,0.256
			c-0.73,0-1.371-0.123-1.92-0.37c-0.551-0.246-1.01-0.583-1.379-1.012c-0.367-0.429-0.646-0.932-0.834-1.508
			c-0.188-0.576-0.283-1.195-0.283-1.855v-0.261c0-0.661,0.094-1.279,0.279-1.855s0.463-1.079,0.834-1.508
			c0.371-0.429,0.83-0.768,1.377-1.017c0.549-0.249,1.184-0.374,1.908-0.374c0.58,0,1.115,0.087,1.607,0.261
			s0.918,0.419,1.273,0.734c0.357,0.316,0.633,0.699,0.83,1.147c0.197,0.449,0.291,0.952,0.279,1.508h-2.277
			c0.012-0.231-0.023-0.452-0.105-0.66c-0.08-0.209-0.199-0.388-0.355-0.539c-0.156-0.15-0.346-0.271-0.564-0.361
			c-0.221-0.09-0.461-0.135-0.723-0.135c-0.381,0-0.697,0.079-0.947,0.235c-0.248,0.156-0.447,0.365-0.596,0.626
			c-0.146,0.261-0.252,0.559-0.312,0.895s-0.092,0.684-0.092,1.043v0.261c0,0.365,0.029,0.717,0.088,1.056s0.16,0.637,0.309,0.895
			s0.348,0.465,0.6,0.622C693.541,160.67,693.861,160.749,694.25,160.749z"/>
		<path fill="#010101" d="M705.33,162.678c-0.723,0-1.381-0.119-1.973-0.356c-0.59-0.237-1.098-0.561-1.52-0.969
			c-0.424-0.409-0.75-0.89-0.979-1.443s-0.344-1.146-0.344-1.777v-0.348c0-0.719,0.113-1.375,0.34-1.969
			c0.225-0.594,0.541-1.105,0.947-1.534c0.404-0.429,0.887-0.762,1.441-1c0.557-0.237,1.162-0.356,1.818-0.356
			c0.678,0,1.281,0.112,1.811,0.335c0.531,0.223,0.98,0.538,1.348,0.943c0.367,0.406,0.648,0.894,0.84,1.464
			c0.189,0.571,0.285,1.201,0.285,1.891v1.025h-6.379c0.047,0.319,0.141,0.61,0.283,0.874c0.141,0.264,0.322,0.491,0.543,0.682
			c0.221,0.191,0.473,0.339,0.756,0.443c0.283,0.104,0.594,0.157,0.93,0.157c0.238,0,0.475-0.023,0.709-0.07
			s0.459-0.114,0.674-0.204c0.213-0.09,0.414-0.201,0.6-0.334s0.348-0.29,0.486-0.47l1.207,1.304
			c-0.15,0.215-0.346,0.425-0.586,0.63s-0.523,0.388-0.852,0.547c-0.328,0.16-0.691,0.289-1.092,0.387
			C706.227,162.629,705.795,162.678,705.33,162.678z M705.045,154.882c-0.273,0-0.521,0.048-0.748,0.144s-0.424,0.233-0.596,0.413
			c-0.17,0.18-0.314,0.394-0.43,0.643c-0.117,0.249-0.203,0.527-0.262,0.834h3.963v-0.191c-0.01-0.255-0.061-0.496-0.146-0.721
			c-0.088-0.226-0.211-0.422-0.375-0.587c-0.162-0.165-0.359-0.295-0.594-0.391S705.352,154.882,705.045,154.882z"/>
		<path fill="#010101" d="M728.051,162.504h-2.443v-9.708l-3.197,1.147v-2.104l5.51-1.99h0.131V162.504z"/>
	</g>
	
		<rect x="696.564" y="211.146" fill="none" stroke="#010101" stroke-width="1.068" stroke-miterlimit="10" stroke-dasharray="6.9196" width="59.971" height="48.489"/>
	<g>
		<rect x="614.396" y="392.878" fill="none" width="58.239" height="25.372"/>
		<path fill="#010101" d="M645.676,404.324h-4.061l-0.799,2.824h-2.751l4.433-13.528h2.369l4.349,13.528h-2.751L645.676,404.324z
			 M642.256,402.104h2.807l-1.385-4.98L642.256,402.104z"/>
	</g>
	<g>
		<rect x="697.432" y="392.878" fill="none" width="58.238" height="25.372"/>
		<path fill="#010101" d="M722.039,407.148V393.62h4.545c0.736,0,1.406,0.074,2.012,0.223c0.604,0.149,1.119,0.375,1.547,0.679
			s0.756,0.688,0.988,1.152c0.232,0.464,0.35,1.013,0.35,1.645c-0.006,0.632-0.176,1.198-0.508,1.7
			c-0.33,0.502-0.818,0.883-1.463,1.143c0.391,0.1,0.729,0.248,1.014,0.446s0.521,0.432,0.711,0.701
			c0.188,0.27,0.328,0.563,0.418,0.883s0.135,0.649,0.135,0.989c0,0.65-0.111,1.224-0.336,1.72c-0.223,0.495-0.541,0.91-0.957,1.244
			c-0.414,0.335-0.918,0.586-1.514,0.753c-0.594,0.167-1.264,0.251-2.006,0.251H722.039z M724.66,399.297h1.941
			c0.725-0.006,1.283-0.157,1.674-0.455c0.389-0.297,0.588-0.734,0.594-1.31c0-0.632-0.195-1.086-0.586-1.361
			s-0.953-0.417-1.691-0.423h-1.932V399.297z M724.66,401.184v3.855h2.322c0.713-0.006,1.256-0.181,1.631-0.524
			s0.562-0.795,0.562-1.353c0.006-0.619-0.162-1.103-0.502-1.449s-0.867-0.523-1.58-0.529H724.66z"/>
	</g>
	<g>
		<g>
			<polyline fill="none" stroke="#010101" stroke-width="1.068" stroke-miterlimit="10" points="673.5,304.665 673.5,308.125 
				670.041,308.125 			"/>
			
				<line fill="none" stroke="#010101" stroke-width="1.068" stroke-miterlimit="10" stroke-dasharray="7.5786,7.5786" x1="662.462" y1="308.125" x2="620.78" y2="308.125"/>
			<polyline fill="none" stroke="#010101" stroke-width="1.068" stroke-miterlimit="10" points="616.991,308.125 613.531,308.125 
				613.531,304.665 			"/>
			
				<line fill="none" stroke="#010101" stroke-width="1.068" stroke-miterlimit="10" stroke-dasharray="5.9387,5.9387" x1="613.531" y1="298.727" x2="613.531" y2="266.064"/>
			<polyline fill="none" stroke="#010101" stroke-width="1.068" stroke-miterlimit="10" points="613.531,263.095 613.531,259.635 
				616.991,259.635 			"/>
			
				<line fill="none" stroke="#010101" stroke-width="1.068" stroke-miterlimit="10" stroke-dasharray="7.5786,7.5786" x1="624.569" y1="259.635" x2="666.251" y2="259.635"/>
			<polyline fill="none" stroke="#010101" stroke-width="1.068" stroke-miterlimit="10" points="670.041,259.635 673.5,259.635 
				673.5,263.095 			"/>
			
				<line fill="none" stroke="#010101" stroke-width="1.068" stroke-miterlimit="10" stroke-dasharray="5.9387,5.9387" x1="673.5" y1="269.033" x2="673.5" y2="301.696"/>
		</g>
	</g>
	<rect x="613.531" y="308.125" fill="#C8D7E2" enable-background="new    " width="59.97" height="76.062"/>
	<g>
		<g>
			<path fill="none" stroke="#010101" stroke-width="0.8649" stroke-miterlimit="10" d="M720.441,233.11h-71.159
				c-3.171,0-5.766,2.595-5.766,5.766v41.914"/>
			<g>
				<polygon fill="#010101" points="726.549,233.11 717.943,229.594 719.985,233.11 717.943,236.626 				"/>
			</g>
			<g>
				<circle fill="#010101" cx="643.516" cy="280.628" r="3.252"/>
			</g>
		</g>
	</g>
	<g>
		<rect x="629.205" y="339.237" fill="none" width="29.12" height="25.371"/>
		<path fill="#010101" d="M633.752,344.064h1.062c0.535,0,0.932-0.135,1.189-0.404s0.387-0.623,0.387-1.06
			c0-0.201-0.029-0.386-0.088-0.553c-0.059-0.166-0.146-0.31-0.264-0.429c-0.117-0.12-0.267-0.213-0.447-0.278
			s-0.391-0.099-0.63-0.099c-0.197,0-0.381,0.028-0.553,0.084c-0.171,0.057-0.321,0.138-0.45,0.243s-0.23,0.233-0.307,0.384
			c-0.074,0.15-0.111,0.319-0.111,0.507h-1.958c0-0.418,0.085-0.798,0.257-1.141c0.171-0.342,0.407-0.637,0.708-0.883
			c0.3-0.247,0.653-0.438,1.06-0.574c0.405-0.136,0.843-0.204,1.312-0.204c0.507,0,0.972,0.062,1.394,0.187
			c0.423,0.125,0.784,0.31,1.084,0.557c0.301,0.246,0.534,0.551,0.7,0.915c0.167,0.363,0.25,0.784,0.25,1.263
			c0,0.221-0.032,0.438-0.099,0.651c-0.065,0.214-0.161,0.417-0.288,0.609s-0.284,0.369-0.472,0.531s-0.403,0.302-0.647,0.419
			c0.286,0.103,0.533,0.234,0.742,0.394c0.209,0.16,0.382,0.342,0.518,0.546s0.237,0.429,0.303,0.672
			c0.065,0.244,0.099,0.503,0.099,0.774c0,0.479-0.092,0.906-0.274,1.281c-0.184,0.376-0.435,0.691-0.754,0.946
			c-0.318,0.256-0.697,0.451-1.137,0.585c-0.438,0.134-0.911,0.2-1.418,0.2c-0.437,0-0.862-0.06-1.277-0.18
			c-0.416-0.119-0.785-0.3-1.109-0.542c-0.324-0.241-0.583-0.545-0.778-0.911s-0.292-0.798-0.292-1.295h1.957
			c0,0.197,0.038,0.379,0.113,0.545c0.075,0.167,0.182,0.31,0.32,0.43s0.302,0.214,0.489,0.281c0.188,0.068,0.395,0.103,0.619,0.103
			c0.498,0,0.887-0.132,1.169-0.395c0.281-0.263,0.422-0.619,0.422-1.069c0-0.277-0.04-0.515-0.119-0.711
			c-0.08-0.197-0.196-0.359-0.349-0.486s-0.336-0.221-0.549-0.281c-0.214-0.061-0.454-0.092-0.722-0.092h-1.062V344.064z"/>
		<path fill="#010101" d="M647.104,346.148c0,0.661-0.076,1.245-0.229,1.749c-0.152,0.505-0.372,0.927-0.658,1.267
			c-0.286,0.341-0.636,0.598-1.049,0.771c-0.413,0.173-0.877,0.26-1.394,0.26c-0.512,0-0.974-0.087-1.387-0.26
			c-0.413-0.174-0.764-0.431-1.052-0.771c-0.289-0.34-0.512-0.762-0.669-1.267c-0.157-0.504-0.236-1.088-0.236-1.749v-2.45
			c0-0.661,0.078-1.244,0.232-1.749c0.155-0.504,0.377-0.927,0.665-1.267c0.289-0.34,0.639-0.598,1.049-0.771
			c0.411-0.174,0.872-0.261,1.384-0.261c0.516,0,0.98,0.087,1.394,0.261c0.413,0.173,0.764,0.431,1.052,0.771
			c0.289,0.34,0.511,0.763,0.666,1.267c0.154,0.505,0.231,1.088,0.231,1.749V346.148z M642.403,345.304l2.73-2.034
			c-0.014-0.69-0.134-1.201-0.358-1.534c-0.226-0.334-0.563-0.5-1.014-0.5c-0.456,0-0.796,0.176-1.021,0.527
			c-0.225,0.353-0.337,0.895-0.337,1.626V345.304z M645.133,344.6l-2.73,2.027c0.023,0.676,0.147,1.177,0.373,1.503
			c0.225,0.326,0.558,0.489,0.999,0.489c0.46,0,0.802-0.179,1.024-0.535s0.334-0.903,0.334-1.64V344.6z"/>
		<path fill="#010101" d="M655.754,346.148c0,0.661-0.076,1.245-0.229,1.749c-0.152,0.505-0.372,0.927-0.658,1.267
			c-0.286,0.341-0.636,0.598-1.049,0.771c-0.413,0.173-0.877,0.26-1.394,0.26c-0.512,0-0.974-0.087-1.387-0.26
			c-0.413-0.174-0.764-0.431-1.052-0.771c-0.289-0.34-0.512-0.762-0.669-1.267c-0.157-0.504-0.236-1.088-0.236-1.749v-2.45
			c0-0.661,0.078-1.244,0.232-1.749c0.155-0.504,0.377-0.927,0.665-1.267c0.289-0.34,0.639-0.598,1.049-0.771
			c0.411-0.174,0.872-0.261,1.384-0.261c0.516,0,0.98,0.087,1.394,0.261c0.413,0.173,0.764,0.431,1.052,0.771
			c0.289,0.34,0.511,0.763,0.666,1.267c0.154,0.505,0.231,1.088,0.231,1.749V346.148z M651.053,345.304l2.73-2.034
			c-0.014-0.69-0.134-1.201-0.358-1.534c-0.226-0.334-0.563-0.5-1.014-0.5c-0.456,0-0.796,0.176-1.021,0.527
			c-0.225,0.353-0.337,0.895-0.337,1.626V345.304z M653.784,344.6l-2.73,2.027c0.023,0.676,0.147,1.177,0.373,1.503
			c0.225,0.326,0.558,0.489,0.999,0.489c0.46,0,0.802-0.179,1.024-0.535s0.334-0.903,0.334-1.64V344.6z"/>
	</g>
	<g>
		<rect x="711.99" y="339.237" fill="none" width="29.119" height="25.371"/>
		<path fill="#010101" d="M721.26,340.891l-3.99,9.157h-2.062l3.998-8.65h-5.146v-1.599h7.201V340.891z"/>
		<path fill="#010101" d="M729.889,346.148c0,0.661-0.076,1.245-0.229,1.749c-0.152,0.505-0.371,0.927-0.658,1.267
			c-0.285,0.341-0.635,0.598-1.049,0.771c-0.412,0.173-0.877,0.26-1.393,0.26c-0.512,0-0.975-0.087-1.387-0.26
			c-0.414-0.174-0.764-0.431-1.053-0.771c-0.289-0.34-0.512-0.762-0.668-1.267c-0.158-0.504-0.236-1.088-0.236-1.749v-2.45
			c0-0.661,0.078-1.244,0.232-1.749c0.154-0.504,0.377-0.927,0.664-1.267c0.289-0.34,0.639-0.598,1.049-0.771
			c0.412-0.174,0.873-0.261,1.385-0.261c0.516,0,0.98,0.087,1.393,0.261c0.414,0.173,0.764,0.431,1.053,0.771
			s0.51,0.763,0.666,1.267c0.154,0.505,0.23,1.088,0.23,1.749V346.148z M725.188,345.304l2.73-2.034
			c-0.014-0.69-0.133-1.201-0.357-1.534c-0.227-0.334-0.564-0.5-1.014-0.5c-0.457,0-0.797,0.176-1.021,0.527
			c-0.225,0.353-0.338,0.895-0.338,1.626V345.304z M727.918,344.6l-2.73,2.027c0.023,0.676,0.148,1.177,0.373,1.503
			s0.559,0.489,1,0.489c0.459,0,0.801-0.179,1.023-0.535s0.334-0.903,0.334-1.64V344.6z"/>
		<path fill="#010101" d="M738.539,346.148c0,0.661-0.076,1.245-0.229,1.749c-0.152,0.505-0.371,0.927-0.658,1.267
			c-0.285,0.341-0.635,0.598-1.049,0.771c-0.412,0.173-0.877,0.26-1.393,0.26c-0.512,0-0.975-0.087-1.387-0.26
			c-0.414-0.174-0.764-0.431-1.053-0.771c-0.289-0.34-0.512-0.762-0.668-1.267c-0.158-0.504-0.236-1.088-0.236-1.749v-2.45
			c0-0.661,0.078-1.244,0.232-1.749c0.154-0.504,0.377-0.927,0.664-1.267c0.289-0.34,0.639-0.598,1.049-0.771
			c0.412-0.174,0.873-0.261,1.385-0.261c0.516,0,0.98,0.087,1.393,0.261c0.414,0.173,0.764,0.431,1.053,0.771
			s0.51,0.763,0.666,1.267c0.154,0.505,0.23,1.088,0.23,1.749V346.148z M733.838,345.304l2.73-2.034
			c-0.014-0.69-0.133-1.201-0.357-1.534c-0.227-0.334-0.564-0.5-1.014-0.5c-0.457,0-0.797,0.176-1.021,0.527
			c-0.225,0.353-0.338,0.895-0.338,1.626V345.304z M736.568,344.6l-2.73,2.027c0.023,0.676,0.148,1.177,0.373,1.503
			s0.559,0.489,1,0.489c0.459,0,0.801-0.179,1.023-0.535s0.334-0.903,0.334-1.64V344.6z"/>
	</g>
	<rect x="357.168" y="259.671" fill="#C8D7E2" enable-background="new    " width="59.97" height="124.552"/>
	<rect x="440.203" y="259.671" fill="#C8D7E2" enable-background="new    " width="59.969" height="124.552"/>
	<g>
		<rect x="358.898" y="392.878" fill="none" width="58.239" height="25.372"/>
		<path fill="#010101" d="M390.179,404.325h-4.06l-0.799,2.824h-2.75l4.432-13.528h2.369l4.348,13.528h-2.75L390.179,404.325z
			 M386.76,402.104h2.806l-1.384-4.98L386.76,402.104z"/>
	</g>
	<g>
		<rect x="441.067" y="392.878" fill="none" width="58.24" height="25.372"/>
		<path fill="#010101" d="M465.677,407.149v-13.528h4.543c0.737,0,1.408,0.074,2.012,0.223c0.604,0.149,1.119,0.375,1.547,0.679
			c0.427,0.304,0.757,0.688,0.989,1.152c0.232,0.464,0.349,1.013,0.349,1.645c-0.006,0.632-0.175,1.198-0.506,1.7
			c-0.332,0.502-0.819,0.883-1.463,1.143c0.39,0.1,0.728,0.248,1.013,0.446c0.285,0.198,0.522,0.432,0.711,0.701
			s0.328,0.563,0.418,0.883s0.135,0.649,0.135,0.989c0,0.65-0.111,1.224-0.334,1.72c-0.223,0.495-0.542,0.91-0.957,1.244
			c-0.415,0.335-0.92,0.586-1.515,0.753s-1.264,0.251-2.007,0.251H465.677z M468.297,399.298h1.942
			c0.725-0.006,1.282-0.157,1.672-0.455c0.39-0.297,0.588-0.734,0.595-1.31c0-0.632-0.195-1.086-0.585-1.361
			s-0.954-0.417-1.691-0.423h-1.933V399.298z M468.297,401.185v3.855h2.323c0.712-0.006,1.256-0.181,1.631-0.524
			c0.375-0.344,0.562-0.795,0.562-1.353c0.006-0.619-0.161-1.103-0.502-1.449s-0.867-0.523-1.58-0.529H468.297z"/>
	</g>
	<g>
		<rect x="372.305" y="339.273" fill="none" width="29.119" height="25.37"/>
		<path fill="#010101" d="M374.979,345.038l0.584-5.202h5.688v1.661h-4.076l-0.246,2.253c0.145-0.085,0.352-0.171,0.619-0.261
			c0.268-0.089,0.575-0.134,0.922-0.134c0.493,0,0.933,0.079,1.32,0.236c0.387,0.157,0.713,0.384,0.978,0.679
			c0.265,0.296,0.468,0.657,0.609,1.084c0.141,0.428,0.211,0.911,0.211,1.45c0,0.46-0.068,0.896-0.204,1.31
			c-0.136,0.413-0.345,0.776-0.626,1.091c-0.282,0.314-0.636,0.563-1.063,0.746c-0.427,0.183-0.932,0.274-1.513,0.274
			c-0.441,0-0.867-0.065-1.278-0.197c-0.411-0.131-0.775-0.323-1.095-0.577c-0.319-0.253-0.578-0.563-0.777-0.933
			c-0.2-0.368-0.307-0.789-0.32-1.264h1.929c0.047,0.446,0.208,0.791,0.482,1.035s0.625,0.366,1.052,0.366
			c0.263,0,0.487-0.05,0.672-0.148c0.185-0.098,0.335-0.234,0.451-0.408c0.115-0.173,0.199-0.38,0.253-0.619
			c0.054-0.239,0.081-0.497,0.081-0.774c0-0.271-0.034-0.521-0.102-0.749s-0.172-0.424-0.313-0.588
			c-0.141-0.164-0.317-0.291-0.528-0.381c-0.211-0.089-0.46-0.133-0.747-0.133c-0.192,0-0.359,0.016-0.5,0.049
			s-0.265,0.075-0.373,0.127s-0.204,0.111-0.289,0.18c-0.084,0.067-0.165,0.14-0.239,0.214L374.979,345.038z"/>
		<path fill="#010101" d="M390.205,346.186c0,0.661-0.077,1.245-0.229,1.749c-0.152,0.505-0.372,0.927-0.658,1.267
			c-0.286,0.341-0.636,0.598-1.049,0.771c-0.413,0.173-0.877,0.26-1.394,0.26c-0.512,0-0.974-0.087-1.387-0.26
			c-0.413-0.174-0.764-0.431-1.052-0.771c-0.289-0.34-0.512-0.762-0.668-1.267c-0.158-0.504-0.236-1.088-0.236-1.749v-2.45
			c0-0.661,0.077-1.244,0.232-1.749c0.155-0.504,0.377-0.927,0.666-1.267s0.638-0.598,1.049-0.771
			c0.41-0.174,0.872-0.261,1.383-0.261c0.516,0,0.981,0.087,1.394,0.261c0.413,0.173,0.764,0.431,1.052,0.771
			s0.51,0.763,0.665,1.267c0.155,0.505,0.232,1.088,0.232,1.749V346.186z M385.503,345.341l2.731-2.034
			c-0.014-0.69-0.134-1.201-0.359-1.534c-0.225-0.334-0.563-0.5-1.014-0.5c-0.455,0-0.795,0.176-1.021,0.527
			c-0.225,0.353-0.338,0.895-0.338,1.626V345.341z M388.234,344.637l-2.731,2.027c0.023,0.676,0.148,1.177,0.373,1.503
			s0.559,0.489,1,0.489c0.46,0,0.801-0.179,1.024-0.535c0.223-0.356,0.334-0.903,0.334-1.64V344.637z"/>
		<path fill="#010101" d="M398.856,346.186c0,0.661-0.077,1.245-0.229,1.749c-0.152,0.505-0.372,0.927-0.658,1.267
			c-0.286,0.341-0.636,0.598-1.049,0.771c-0.413,0.173-0.877,0.26-1.394,0.26c-0.512,0-0.974-0.087-1.387-0.26
			c-0.413-0.174-0.764-0.431-1.052-0.771c-0.289-0.34-0.512-0.762-0.668-1.267c-0.158-0.504-0.236-1.088-0.236-1.749v-2.45
			c0-0.661,0.077-1.244,0.232-1.749c0.155-0.504,0.377-0.927,0.666-1.267s0.638-0.598,1.049-0.771
			c0.41-0.174,0.872-0.261,1.383-0.261c0.516,0,0.981,0.087,1.394,0.261c0.413,0.173,0.764,0.431,1.052,0.771
			s0.51,0.763,0.665,1.267c0.155,0.505,0.232,1.088,0.232,1.749V346.186z M394.154,345.341l2.731-2.034
			c-0.014-0.69-0.134-1.201-0.359-1.534c-0.225-0.334-0.563-0.5-1.014-0.5c-0.455,0-0.795,0.176-1.021,0.527
			c-0.225,0.353-0.338,0.895-0.338,1.626V345.341z M396.885,344.637l-2.731,2.027c0.023,0.676,0.148,1.177,0.373,1.503
			s0.559,0.489,1,0.489c0.46,0,0.801-0.179,1.024-0.535c0.223-0.356,0.334-0.903,0.334-1.64V344.637z"/>
	</g>
	<g>
		<rect x="455.339" y="339.273" fill="none" width="29.12" height="25.37"/>
		<path fill="#010101" d="M458.014,345.038l0.584-5.202h5.688v1.661h-4.076l-0.246,2.253c0.145-0.085,0.352-0.171,0.619-0.261
			c0.268-0.089,0.575-0.134,0.922-0.134c0.493,0,0.933,0.079,1.32,0.236c0.387,0.157,0.713,0.384,0.978,0.679
			c0.265,0.296,0.468,0.657,0.609,1.084c0.141,0.428,0.211,0.911,0.211,1.45c0,0.46-0.068,0.896-0.204,1.31
			c-0.136,0.413-0.345,0.776-0.626,1.091c-0.282,0.314-0.636,0.563-1.063,0.746c-0.427,0.183-0.932,0.274-1.513,0.274
			c-0.441,0-0.867-0.065-1.278-0.197c-0.411-0.131-0.775-0.323-1.095-0.577c-0.319-0.253-0.578-0.563-0.777-0.933
			c-0.2-0.368-0.307-0.789-0.32-1.264h1.929c0.047,0.446,0.208,0.791,0.482,1.035s0.625,0.366,1.052,0.366
			c0.263,0,0.487-0.05,0.672-0.148c0.185-0.098,0.335-0.234,0.451-0.408c0.115-0.173,0.199-0.38,0.253-0.619
			c0.054-0.239,0.081-0.497,0.081-0.774c0-0.271-0.034-0.521-0.102-0.749s-0.172-0.424-0.313-0.588
			c-0.141-0.164-0.317-0.291-0.528-0.381c-0.211-0.089-0.46-0.133-0.747-0.133c-0.192,0-0.359,0.016-0.5,0.049
			s-0.265,0.075-0.373,0.127s-0.204,0.111-0.289,0.18c-0.084,0.067-0.165,0.14-0.239,0.214L458.014,345.038z"/>
		<path fill="#010101" d="M473.24,346.186c0,0.661-0.077,1.245-0.229,1.749c-0.152,0.505-0.372,0.927-0.658,1.267
			c-0.286,0.341-0.636,0.598-1.049,0.771c-0.413,0.173-0.877,0.26-1.394,0.26c-0.512,0-0.974-0.087-1.387-0.26
			c-0.413-0.174-0.764-0.431-1.052-0.771c-0.289-0.34-0.512-0.762-0.668-1.267c-0.158-0.504-0.236-1.088-0.236-1.749v-2.45
			c0-0.661,0.077-1.244,0.232-1.749c0.155-0.504,0.377-0.927,0.666-1.267s0.638-0.598,1.049-0.771
			c0.41-0.174,0.872-0.261,1.383-0.261c0.516,0,0.981,0.087,1.394,0.261c0.413,0.173,0.764,0.431,1.052,0.771
			s0.51,0.763,0.665,1.267c0.155,0.505,0.232,1.088,0.232,1.749V346.186z M468.538,345.341l2.731-2.034
			c-0.014-0.69-0.134-1.201-0.359-1.534c-0.225-0.334-0.563-0.5-1.014-0.5c-0.455,0-0.795,0.176-1.021,0.527
			c-0.225,0.353-0.338,0.895-0.338,1.626V345.341z M471.269,344.637l-2.731,2.027c0.023,0.676,0.148,1.177,0.373,1.503
			s0.559,0.489,1,0.489c0.46,0,0.801-0.179,1.024-0.535c0.223-0.356,0.334-0.903,0.334-1.64V344.637z"/>
		<path fill="#010101" d="M481.891,346.186c0,0.661-0.077,1.245-0.229,1.749c-0.152,0.505-0.372,0.927-0.658,1.267
			c-0.286,0.341-0.636,0.598-1.049,0.771c-0.413,0.173-0.877,0.26-1.394,0.26c-0.512,0-0.974-0.087-1.387-0.26
			c-0.413-0.174-0.764-0.431-1.052-0.771c-0.289-0.34-0.512-0.762-0.668-1.267c-0.158-0.504-0.236-1.088-0.236-1.749v-2.45
			c0-0.661,0.077-1.244,0.232-1.749c0.155-0.504,0.377-0.927,0.666-1.267s0.638-0.598,1.049-0.771
			c0.41-0.174,0.872-0.261,1.383-0.261c0.516,0,0.981,0.087,1.394,0.261c0.413,0.173,0.764,0.431,1.052,0.771
			s0.51,0.763,0.665,1.267c0.155,0.505,0.232,1.088,0.232,1.749V346.186z M477.188,345.341l2.731-2.034
			c-0.014-0.69-0.134-1.201-0.359-1.534c-0.225-0.334-0.563-0.5-1.014-0.5c-0.455,0-0.795,0.176-1.021,0.527
			c-0.225,0.353-0.338,0.895-0.338,1.626V345.341z M479.919,344.637l-2.731,2.027c0.023,0.676,0.148,1.177,0.373,1.503
			s0.559,0.489,1,0.489c0.46,0,0.801-0.179,1.024-0.535c0.223-0.356,0.334-0.903,0.334-1.64V344.637z"/>
	</g>
	
		<line fill="none" stroke="#010101" stroke-width="1.424" stroke-miterlimit="10" x1="53.756" y1="456.026" x2="1315.775" y2="456.026"/>
	<g>
		<rect x="1111.432" y="419.935" fill="none" width="203.633" height="27.056"/>
		<path fill="#010101" d="M1164.764,429.32c-0.041,0.637-0.178,1.211-0.412,1.721s-0.549,0.944-0.943,1.304s-0.863,0.636-1.408,0.83
			c-0.545,0.193-1.146,0.291-1.809,0.291c-0.746,0-1.41-0.138-1.99-0.413c-0.578-0.275-1.064-0.66-1.459-1.156
			c-0.395-0.495-0.695-1.09-0.904-1.785s-0.312-1.461-0.312-2.295v-1.703c0-0.841,0.109-1.608,0.33-2.304s0.533-1.292,0.938-1.79
			c0.406-0.499,0.898-0.886,1.475-1.161c0.576-0.274,1.223-0.412,1.941-0.412c0.695,0,1.314,0.099,1.855,0.295
			c0.543,0.197,1.004,0.479,1.387,0.844c0.383,0.364,0.684,0.811,0.904,1.338s0.359,1.121,0.418,1.782h-2.434
			c-0.023-0.377-0.08-0.707-0.17-0.991s-0.221-0.52-0.391-0.708c-0.172-0.188-0.387-0.33-0.645-0.426s-0.566-0.144-0.926-0.144
			c-0.377,0-0.703,0.081-0.982,0.243c-0.277,0.162-0.508,0.399-0.689,0.713c-0.184,0.312-0.318,0.696-0.404,1.151
			c-0.088,0.455-0.131,0.972-0.131,1.552v1.721c0,1.246,0.176,2.167,0.525,2.764c0.352,0.597,0.906,0.896,1.664,0.896
			c0.639,0,1.143-0.17,1.514-0.509s0.576-0.888,0.617-1.646H1164.764z"/>
		<path fill="#010101" d="M1169.162,425.174c0.312-0.457,0.693-0.816,1.143-1.077s0.951-0.392,1.508-0.392
			c0.492,0,0.945,0.074,1.355,0.222c0.412,0.147,0.766,0.378,1.061,0.691c0.295,0.312,0.525,0.714,0.691,1.203
			c0.164,0.49,0.248,1.079,0.248,1.77v5.692h-2.416v-5.71c0-0.336-0.043-0.626-0.127-0.869s-0.203-0.44-0.361-0.591
			c-0.156-0.151-0.344-0.263-0.564-0.335s-0.469-0.108-0.748-0.108c-0.404,0-0.756,0.072-1.055,0.217s-0.543,0.348-0.734,0.608
			v6.788h-2.416v-13.35h2.416V425.174z"/>
		<path fill="#010101" d="M1183.303,433.283c-0.059-0.116-0.107-0.249-0.148-0.399c-0.041-0.151-0.074-0.311-0.104-0.479
			c-0.133,0.145-0.287,0.281-0.461,0.408c-0.174,0.128-0.367,0.239-0.578,0.335s-0.445,0.171-0.699,0.226
			c-0.256,0.056-0.531,0.083-0.826,0.083c-0.48,0-0.922-0.069-1.326-0.209c-0.402-0.139-0.748-0.333-1.037-0.582
			c-0.291-0.249-0.516-0.546-0.678-0.891s-0.244-0.72-0.244-1.126c0-0.99,0.369-1.757,1.107-2.299
			c0.74-0.541,1.842-0.812,3.309-0.812h1.346v-0.556c0-0.452-0.146-0.811-0.443-1.074c-0.295-0.264-0.721-0.396-1.277-0.396
			c-0.492,0-0.852,0.106-1.078,0.317c-0.225,0.212-0.338,0.494-0.338,0.848h-2.416c0-0.399,0.088-0.779,0.266-1.139
			c0.176-0.359,0.434-0.675,0.773-0.947c0.338-0.272,0.752-0.488,1.242-0.647s1.051-0.239,1.682-0.239
			c0.568,0,1.096,0.069,1.586,0.209c0.49,0.139,0.914,0.345,1.273,0.617s0.641,0.615,0.844,1.029
			c0.203,0.415,0.303,0.895,0.303,1.438v4.033c0,0.504,0.033,0.921,0.096,1.252c0.064,0.33,0.156,0.613,0.279,0.852v0.147H1183.303z
			 M1181,431.589c0.242,0,0.469-0.029,0.678-0.087c0.209-0.059,0.396-0.134,0.564-0.227s0.312-0.198,0.434-0.317
			c0.123-0.118,0.219-0.239,0.287-0.36v-1.617h-1.234c-0.375,0-0.697,0.037-0.965,0.109c-0.266,0.072-0.482,0.174-0.65,0.304
			c-0.168,0.131-0.293,0.287-0.375,0.47c-0.08,0.183-0.121,0.381-0.121,0.596c0,0.324,0.115,0.594,0.344,0.808
			C1180.189,431.481,1180.535,431.589,1181,431.589z"/>
		<path fill="#010101" d="M1190.299,423.879l0.148,1.304c0.336-0.469,0.744-0.833,1.225-1.091s1.014-0.387,1.6-0.387
			c0.475,0,0.91,0.069,1.303,0.209c0.395,0.139,0.736,0.36,1.021,0.665c0.287,0.304,0.51,0.695,0.67,1.173
			c0.16,0.479,0.238,1.06,0.238,1.743v5.788h-2.416v-5.754c0-0.37-0.041-0.676-0.125-0.917c-0.084-0.24-0.205-0.43-0.361-0.569
			c-0.156-0.139-0.344-0.235-0.564-0.291c-0.221-0.055-0.469-0.082-0.748-0.082c-0.412,0-0.762,0.082-1.051,0.247
			c-0.291,0.165-0.525,0.393-0.705,0.683v6.684h-2.424v-9.404H1190.299z"/>
		<path fill="#010101" d="M1200.98,423.879l0.148,1.304c0.336-0.469,0.744-0.833,1.225-1.091s1.014-0.387,1.6-0.387
			c0.475,0,0.91,0.069,1.303,0.209c0.395,0.139,0.736,0.36,1.021,0.665c0.287,0.304,0.51,0.695,0.67,1.173
			c0.16,0.479,0.238,1.06,0.238,1.743v5.788h-2.416v-5.754c0-0.37-0.041-0.676-0.125-0.917c-0.084-0.24-0.205-0.43-0.361-0.569
			c-0.156-0.139-0.344-0.235-0.564-0.291c-0.221-0.055-0.469-0.082-0.748-0.082c-0.412,0-0.762,0.082-1.051,0.247
			c-0.291,0.165-0.525,0.393-0.705,0.683v6.684h-2.424v-9.404H1200.98z"/>
		<path fill="#010101" d="M1214.035,433.457c-0.725,0-1.383-0.119-1.973-0.356c-0.592-0.237-1.098-0.561-1.521-0.969
			c-0.424-0.409-0.748-0.89-0.979-1.443c-0.229-0.553-0.342-1.146-0.342-1.777v-0.348c0-0.718,0.111-1.374,0.338-1.969
			c0.227-0.594,0.543-1.104,0.947-1.533c0.406-0.429,0.887-0.763,1.443-1s1.162-0.356,1.816-0.356c0.678,0,1.281,0.112,1.812,0.335
			c0.529,0.223,0.979,0.537,1.348,0.942c0.367,0.406,0.646,0.895,0.838,1.465c0.191,0.571,0.287,1.201,0.287,1.891v1.025h-6.379
			c0.045,0.318,0.139,0.61,0.281,0.874s0.324,0.49,0.543,0.682c0.221,0.191,0.473,0.339,0.756,0.443
			c0.285,0.104,0.596,0.156,0.932,0.156c0.236,0,0.473-0.022,0.707-0.069c0.234-0.046,0.459-0.114,0.674-0.204
			s0.414-0.201,0.6-0.335c0.186-0.133,0.348-0.289,0.486-0.469l1.209,1.304c-0.15,0.214-0.346,0.424-0.586,0.63
			c-0.242,0.206-0.525,0.389-0.854,0.548c-0.326,0.159-0.689,0.288-1.09,0.387S1214.498,433.457,1214.035,433.457z
			 M1213.748,425.661c-0.271,0-0.521,0.048-0.748,0.144c-0.225,0.095-0.424,0.232-0.594,0.412c-0.172,0.18-0.314,0.395-0.432,0.644
			c-0.115,0.249-0.203,0.527-0.26,0.834h3.963v-0.19c-0.012-0.256-0.061-0.496-0.148-0.722c-0.086-0.227-0.211-0.422-0.373-0.587
			s-0.361-0.296-0.596-0.391C1214.326,425.709,1214.055,425.661,1213.748,425.661z"/>
		<path fill="#010101" d="M1220.658,419.934h5.258v11.386h2.695v1.964h-7.953v-1.964h2.816v-9.413h-2.816V419.934z"/>
		<path fill="#010101" d="M1241.412,433.283v-12.654h4.25c0.689,0,1.318,0.069,1.883,0.208c0.564,0.14,1.047,0.351,1.447,0.635
			c0.398,0.284,0.707,0.644,0.926,1.077c0.217,0.436,0.324,0.948,0.324,1.539c-0.004,0.591-0.162,1.121-0.473,1.591
			c-0.311,0.469-0.766,0.825-1.369,1.068c0.365,0.093,0.682,0.232,0.947,0.417c0.268,0.186,0.488,0.404,0.666,0.656
			c0.176,0.252,0.307,0.527,0.391,0.826s0.125,0.606,0.125,0.926c0,0.608-0.104,1.145-0.312,1.607
			c-0.209,0.464-0.506,0.852-0.895,1.165c-0.389,0.312-0.861,0.548-1.418,0.704c-0.555,0.156-1.182,0.234-1.877,0.234H1241.412z
			 M1243.863,425.939h1.816c0.678-0.006,1.199-0.148,1.564-0.427c0.365-0.277,0.551-0.687,0.557-1.226
			c0-0.591-0.182-1.015-0.547-1.272s-0.893-0.39-1.582-0.396h-1.809V425.939z M1243.863,427.703v3.607h2.174
			c0.666-0.006,1.174-0.17,1.525-0.491c0.35-0.321,0.525-0.743,0.525-1.265c0.006-0.579-0.15-1.031-0.469-1.355
			c-0.32-0.325-0.812-0.49-1.479-0.496H1243.863z"/>
		<path fill="#010101" d="M1258.074,433.283c-0.059-0.116-0.107-0.249-0.148-0.399c-0.041-0.151-0.074-0.311-0.104-0.479
			c-0.133,0.145-0.287,0.281-0.461,0.408c-0.174,0.128-0.367,0.239-0.578,0.335s-0.445,0.171-0.699,0.226
			c-0.256,0.056-0.531,0.083-0.826,0.083c-0.48,0-0.922-0.069-1.326-0.209c-0.402-0.139-0.748-0.333-1.037-0.582
			c-0.291-0.249-0.516-0.546-0.678-0.891s-0.244-0.72-0.244-1.126c0-0.99,0.369-1.757,1.107-2.299
			c0.74-0.541,1.842-0.812,3.309-0.812h1.346v-0.556c0-0.452-0.146-0.811-0.443-1.074c-0.295-0.264-0.721-0.396-1.277-0.396
			c-0.492,0-0.852,0.106-1.078,0.317c-0.225,0.212-0.338,0.494-0.338,0.848h-2.416c0-0.399,0.088-0.779,0.266-1.139
			c0.176-0.359,0.434-0.675,0.773-0.947c0.338-0.272,0.752-0.488,1.242-0.647s1.051-0.239,1.682-0.239
			c0.568,0,1.096,0.069,1.586,0.209c0.49,0.139,0.914,0.345,1.273,0.617s0.641,0.615,0.844,1.029
			c0.203,0.415,0.303,0.895,0.303,1.438v4.033c0,0.504,0.033,0.921,0.096,1.252c0.064,0.33,0.156,0.613,0.279,0.852v0.147H1258.074z
			 M1255.771,431.589c0.242,0,0.469-0.029,0.678-0.087c0.209-0.059,0.396-0.134,0.564-0.227s0.312-0.198,0.434-0.317
			c0.123-0.118,0.219-0.239,0.287-0.36v-1.617h-1.234c-0.375,0-0.697,0.037-0.965,0.109c-0.266,0.072-0.482,0.174-0.65,0.304
			c-0.168,0.131-0.293,0.287-0.375,0.47c-0.08,0.183-0.121,0.381-0.121,0.596c0,0.324,0.115,0.594,0.344,0.808
			C1254.961,431.481,1255.307,431.589,1255.771,431.589z"/>
		<path fill="#010101" d="M1263.385,419.934h5.258v11.386h2.695v1.964h-7.953v-1.964h2.816v-9.413h-2.816V419.934z"/>
		<path fill="#010101" d="M1279.438,433.283c-0.059-0.116-0.107-0.249-0.148-0.399c-0.041-0.151-0.074-0.311-0.104-0.479
			c-0.133,0.145-0.287,0.281-0.461,0.408c-0.174,0.128-0.367,0.239-0.578,0.335s-0.445,0.171-0.699,0.226
			c-0.256,0.056-0.531,0.083-0.826,0.083c-0.48,0-0.922-0.069-1.326-0.209c-0.402-0.139-0.748-0.333-1.037-0.582
			c-0.291-0.249-0.516-0.546-0.678-0.891s-0.244-0.72-0.244-1.126c0-0.99,0.369-1.757,1.107-2.299
			c0.74-0.541,1.842-0.812,3.309-0.812h1.346v-0.556c0-0.452-0.146-0.811-0.443-1.074c-0.295-0.264-0.721-0.396-1.277-0.396
			c-0.492,0-0.852,0.106-1.078,0.317c-0.225,0.212-0.338,0.494-0.338,0.848h-2.416c0-0.399,0.088-0.779,0.266-1.139
			c0.176-0.359,0.434-0.675,0.773-0.947c0.338-0.272,0.752-0.488,1.242-0.647s1.051-0.239,1.682-0.239
			c0.568,0,1.096,0.069,1.586,0.209c0.49,0.139,0.914,0.345,1.273,0.617s0.641,0.615,0.844,1.029
			c0.203,0.415,0.303,0.895,0.303,1.438v4.033c0,0.504,0.033,0.921,0.096,1.252c0.064,0.33,0.156,0.613,0.279,0.852v0.147H1279.438z
			 M1277.135,431.589c0.242,0,0.469-0.029,0.678-0.087c0.209-0.059,0.396-0.134,0.564-0.227s0.312-0.198,0.434-0.317
			c0.123-0.118,0.219-0.239,0.287-0.36v-1.617h-1.234c-0.375,0-0.697,0.037-0.965,0.109c-0.266,0.072-0.482,0.174-0.65,0.304
			c-0.168,0.131-0.293,0.287-0.375,0.47c-0.08,0.183-0.121,0.381-0.121,0.596c0,0.324,0.115,0.594,0.344,0.808
			C1276.324,431.481,1276.67,431.589,1277.135,431.589z"/>
		<path fill="#010101" d="M1286.434,423.879l0.148,1.304c0.336-0.469,0.744-0.833,1.225-1.091s1.014-0.387,1.6-0.387
			c0.475,0,0.91,0.069,1.303,0.209c0.395,0.139,0.736,0.36,1.021,0.665c0.287,0.304,0.51,0.695,0.67,1.173
			c0.16,0.479,0.238,1.06,0.238,1.743v5.788h-2.416v-5.754c0-0.37-0.041-0.676-0.125-0.917c-0.084-0.24-0.205-0.43-0.361-0.569
			c-0.156-0.139-0.344-0.235-0.564-0.291c-0.221-0.055-0.469-0.082-0.748-0.082c-0.412,0-0.762,0.082-1.051,0.247
			c-0.291,0.165-0.525,0.393-0.705,0.683v6.684h-2.424v-9.404H1286.434z"/>
		<path fill="#010101" d="M1299.088,431.527c0.238,0,0.465-0.034,0.678-0.104c0.215-0.069,0.404-0.168,0.566-0.295
			c0.162-0.128,0.287-0.281,0.377-0.461s0.129-0.379,0.117-0.6h2.277c0.012,0.486-0.088,0.938-0.299,1.355
			c-0.213,0.418-0.5,0.777-0.865,1.078c-0.365,0.302-0.789,0.537-1.273,0.708s-0.996,0.257-1.535,0.257
			c-0.729,0-1.369-0.123-1.92-0.369s-1.01-0.584-1.377-1.013c-0.369-0.429-0.646-0.932-0.834-1.508
			c-0.189-0.577-0.283-1.195-0.283-1.855v-0.262c0-0.66,0.092-1.278,0.277-1.855c0.186-0.576,0.465-1.079,0.834-1.508
			c0.371-0.429,0.83-0.768,1.379-1.017c0.547-0.249,1.184-0.374,1.908-0.374c0.578,0,1.115,0.087,1.607,0.261
			s0.916,0.419,1.273,0.734c0.355,0.316,0.633,0.698,0.83,1.147s0.289,0.952,0.277,1.508h-2.277c0.012-0.231-0.023-0.452-0.104-0.66
			c-0.082-0.209-0.201-0.389-0.357-0.539s-0.344-0.271-0.564-0.36s-0.461-0.135-0.721-0.135c-0.383,0-0.699,0.078-0.947,0.234
			c-0.25,0.156-0.447,0.365-0.596,0.626s-0.252,0.559-0.312,0.896c-0.061,0.336-0.092,0.684-0.092,1.042v0.262
			c0,0.364,0.029,0.717,0.086,1.056c0.059,0.339,0.162,0.638,0.309,0.896c0.148,0.258,0.348,0.465,0.602,0.621
			C1298.381,431.449,1298.699,431.527,1299.088,431.527z"/>
		<path fill="#010101" d="M1310.17,433.457c-0.725,0-1.383-0.119-1.973-0.356c-0.592-0.237-1.098-0.561-1.521-0.969
			c-0.424-0.409-0.748-0.89-0.979-1.443c-0.229-0.553-0.342-1.146-0.342-1.777v-0.348c0-0.718,0.111-1.374,0.338-1.969
			c0.227-0.594,0.543-1.104,0.947-1.533c0.406-0.429,0.887-0.763,1.443-1s1.162-0.356,1.816-0.356c0.678,0,1.281,0.112,1.812,0.335
			c0.529,0.223,0.979,0.537,1.348,0.942c0.367,0.406,0.646,0.895,0.838,1.465c0.191,0.571,0.287,1.201,0.287,1.891v1.025h-6.379
			c0.045,0.318,0.139,0.61,0.281,0.874s0.324,0.49,0.543,0.682c0.221,0.191,0.473,0.339,0.756,0.443
			c0.285,0.104,0.596,0.156,0.932,0.156c0.236,0,0.473-0.022,0.707-0.069c0.234-0.046,0.459-0.114,0.674-0.204
			s0.414-0.201,0.6-0.335c0.186-0.133,0.348-0.289,0.486-0.469l1.209,1.304c-0.15,0.214-0.346,0.424-0.586,0.63
			c-0.242,0.206-0.525,0.389-0.854,0.548c-0.326,0.159-0.689,0.288-1.09,0.387S1310.633,433.457,1310.17,433.457z M1309.883,425.661
			c-0.271,0-0.521,0.048-0.748,0.144c-0.225,0.095-0.424,0.232-0.594,0.412c-0.172,0.18-0.314,0.395-0.432,0.644
			c-0.115,0.249-0.203,0.527-0.26,0.834h3.963v-0.19c-0.012-0.256-0.061-0.496-0.148-0.722c-0.086-0.227-0.211-0.422-0.373-0.587
			s-0.361-0.296-0.596-0.391C1310.461,425.709,1310.189,425.661,1309.883,425.661z"/>
	</g>
	<g>
		<rect x="317.552" y="149.154" fill="none" width="224.992" height="27.056"/>
		<path fill="#010101" d="M383.101,162.504V149.85h4.25c0.689,0,1.317,0.07,1.882,0.208c0.565,0.139,1.047,0.351,1.447,0.635
			s0.708,0.643,0.926,1.078c0.217,0.435,0.326,0.947,0.326,1.539c-0.006,0.591-0.164,1.121-0.474,1.59s-0.767,0.826-1.369,1.069
			c0.365,0.093,0.681,0.232,0.948,0.417c0.266,0.186,0.488,0.404,0.665,0.656s0.307,0.527,0.391,0.826s0.126,0.607,0.126,0.925
			c0,0.608-0.104,1.145-0.312,1.608c-0.209,0.464-0.507,0.852-0.896,1.165c-0.388,0.312-0.86,0.547-1.417,0.704
			c-0.556,0.157-1.182,0.235-1.877,0.235H383.101z M385.552,155.16h1.816c0.678-0.006,1.199-0.148,1.564-0.426
			c0.365-0.278,0.55-0.687,0.556-1.226c0-0.591-0.183-1.016-0.547-1.273c-0.365-0.258-0.893-0.39-1.582-0.396h-1.808V155.16z
			 M385.552,156.924v3.607h2.173c0.666-0.005,1.175-0.169,1.525-0.491c0.351-0.322,0.526-0.743,0.526-1.265
			c0.005-0.58-0.151-1.031-0.47-1.356c-0.318-0.324-0.811-0.49-1.478-0.496H385.552z"/>
		<path fill="#010101" d="M399.763,162.504c-0.058-0.116-0.107-0.249-0.148-0.4c-0.041-0.15-0.075-0.31-0.104-0.478
			c-0.133,0.145-0.287,0.281-0.46,0.409s-0.367,0.239-0.578,0.334s-0.445,0.171-0.7,0.226s-0.53,0.083-0.826,0.083
			c-0.481,0-0.922-0.069-1.325-0.208s-0.749-0.333-1.039-0.583c-0.29-0.249-0.516-0.546-0.678-0.891s-0.243-0.72-0.243-1.125
			c0-0.991,0.37-1.757,1.108-2.299c0.739-0.542,1.841-0.812,3.307-0.812h1.347v-0.556c0-0.452-0.147-0.81-0.443-1.073
			c-0.296-0.264-0.722-0.396-1.278-0.396c-0.493,0-0.852,0.105-1.078,0.317c-0.226,0.211-0.339,0.494-0.339,0.847h-2.417
			c0-0.4,0.088-0.779,0.265-1.139c0.177-0.359,0.435-0.675,0.773-0.947c0.339-0.272,0.753-0.488,1.243-0.647
			c0.489-0.159,1.05-0.239,1.682-0.239c0.568,0,1.097,0.07,1.586,0.209c0.49,0.139,0.914,0.345,1.273,0.617
			c0.359,0.272,0.64,0.616,0.843,1.03c0.203,0.414,0.304,0.894,0.304,1.438v4.033c0,0.504,0.032,0.921,0.096,1.251
			c0.063,0.33,0.156,0.614,0.278,0.852v0.148H399.763z M397.459,160.81c0.243,0,0.469-0.029,0.678-0.087
			c0.208-0.058,0.397-0.133,0.565-0.226c0.168-0.092,0.313-0.198,0.435-0.317c0.122-0.119,0.217-0.239,0.287-0.36v-1.617h-1.234
			c-0.377,0-0.698,0.036-0.965,0.109c-0.267,0.072-0.484,0.174-0.652,0.304s-0.292,0.287-0.374,0.469
			c-0.082,0.183-0.122,0.381-0.122,0.595c0,0.325,0.115,0.594,0.343,0.808C396.649,160.703,396.996,160.81,397.459,160.81z"/>
		<path fill="#010101" d="M405.073,149.154h5.258v11.386h2.694v1.964h-7.953v-1.964h2.816v-9.413h-2.816V149.154z"/>
		<path fill="#010101" d="M421.126,162.504c-0.058-0.116-0.107-0.249-0.148-0.4c-0.041-0.15-0.075-0.31-0.104-0.478
			c-0.133,0.145-0.287,0.281-0.46,0.409s-0.367,0.239-0.578,0.334s-0.445,0.171-0.7,0.226s-0.53,0.083-0.826,0.083
			c-0.481,0-0.922-0.069-1.325-0.208s-0.749-0.333-1.039-0.583c-0.29-0.249-0.516-0.546-0.678-0.891s-0.243-0.72-0.243-1.125
			c0-0.991,0.37-1.757,1.108-2.299c0.739-0.542,1.841-0.812,3.307-0.812h1.347v-0.556c0-0.452-0.147-0.81-0.443-1.073
			c-0.296-0.264-0.722-0.396-1.278-0.396c-0.493,0-0.852,0.105-1.078,0.317c-0.226,0.211-0.339,0.494-0.339,0.847h-2.417
			c0-0.4,0.088-0.779,0.265-1.139c0.177-0.359,0.435-0.675,0.773-0.947c0.339-0.272,0.753-0.488,1.243-0.647
			c0.489-0.159,1.05-0.239,1.682-0.239c0.568,0,1.097,0.07,1.586,0.209c0.49,0.139,0.914,0.345,1.273,0.617
			c0.359,0.272,0.64,0.616,0.843,1.03c0.203,0.414,0.304,0.894,0.304,1.438v4.033c0,0.504,0.032,0.921,0.096,1.251
			c0.063,0.33,0.156,0.614,0.278,0.852v0.148H421.126z M418.823,160.81c0.243,0,0.469-0.029,0.678-0.087
			c0.208-0.058,0.397-0.133,0.565-0.226c0.168-0.092,0.313-0.198,0.435-0.317c0.122-0.119,0.217-0.239,0.287-0.36v-1.617h-1.234
			c-0.377,0-0.698,0.036-0.965,0.109c-0.267,0.072-0.484,0.174-0.652,0.304s-0.292,0.287-0.374,0.469
			c-0.082,0.183-0.122,0.381-0.122,0.595c0,0.325,0.115,0.594,0.343,0.808C418.013,160.703,418.359,160.81,418.823,160.81z"/>
		<path fill="#010101" d="M428.122,153.1l0.148,1.304c0.336-0.469,0.745-0.833,1.226-1.091c0.481-0.257,1.014-0.387,1.599-0.387
			c0.475,0,0.91,0.07,1.304,0.209c0.394,0.139,0.734,0.36,1.021,0.665c0.287,0.304,0.51,0.695,0.669,1.173s0.239,1.059,0.239,1.743
			v5.789h-2.417v-5.754c0-0.371-0.042-0.676-0.126-0.917c-0.084-0.241-0.204-0.431-0.361-0.569
			c-0.156-0.139-0.345-0.236-0.565-0.292c-0.22-0.055-0.469-0.083-0.747-0.083c-0.412,0-0.762,0.083-1.052,0.248
			c-0.29,0.165-0.524,0.393-0.704,0.682v6.684h-2.425V153.1H428.122z"/>
		<path fill="#010101" d="M440.777,160.749c0.237,0,0.463-0.035,0.678-0.104c0.214-0.07,0.403-0.168,0.565-0.295
			s0.289-0.281,0.378-0.461c0.09-0.179,0.129-0.379,0.117-0.6h2.277c0.011,0.487-0.088,0.938-0.3,1.356
			c-0.212,0.417-0.5,0.776-0.865,1.078c-0.365,0.301-0.79,0.538-1.273,0.708c-0.484,0.171-0.995,0.256-1.534,0.256
			c-0.73,0-1.371-0.123-1.921-0.37c-0.55-0.246-1.01-0.583-1.377-1.012c-0.368-0.429-0.646-0.932-0.834-1.508
			c-0.188-0.576-0.282-1.195-0.282-1.855v-0.261c0-0.661,0.092-1.279,0.278-1.855s0.463-1.079,0.834-1.508
			c0.371-0.429,0.83-0.768,1.377-1.017c0.548-0.249,1.184-0.374,1.908-0.374c0.58,0,1.116,0.087,1.608,0.261
			c0.493,0.174,0.917,0.419,1.273,0.734c0.356,0.316,0.633,0.699,0.83,1.147c0.197,0.449,0.29,0.952,0.278,1.508h-2.277
			c0.012-0.231-0.023-0.452-0.104-0.66c-0.081-0.209-0.2-0.388-0.356-0.539c-0.157-0.15-0.345-0.271-0.565-0.361
			c-0.221-0.09-0.461-0.135-0.722-0.135c-0.382,0-0.698,0.079-0.947,0.235s-0.448,0.365-0.595,0.626
			c-0.148,0.261-0.252,0.559-0.313,0.895c-0.061,0.336-0.091,0.684-0.091,1.043v0.261c0,0.365,0.029,0.717,0.087,1.056
			c0.058,0.339,0.161,0.637,0.309,0.895c0.147,0.258,0.348,0.465,0.6,0.622C440.068,160.67,440.389,160.749,440.777,160.749z"/>
		<path fill="#010101" d="M451.858,162.678c-0.725,0-1.382-0.119-1.973-0.356c-0.591-0.237-1.098-0.561-1.521-0.969
			c-0.423-0.409-0.749-0.89-0.978-1.443c-0.229-0.553-0.343-1.146-0.343-1.777v-0.348c0-0.719,0.113-1.375,0.339-1.969
			s0.542-1.105,0.947-1.534c0.405-0.429,0.887-0.762,1.443-1c0.556-0.237,1.162-0.356,1.816-0.356c0.678,0,1.282,0.112,1.812,0.335
			s0.979,0.538,1.347,0.943c0.368,0.406,0.647,0.894,0.839,1.464c0.191,0.571,0.287,1.201,0.287,1.891v1.025h-6.379
			c0.046,0.319,0.141,0.61,0.283,0.874c0.142,0.264,0.323,0.491,0.543,0.682c0.22,0.191,0.472,0.339,0.756,0.443
			c0.284,0.104,0.594,0.157,0.93,0.157c0.238,0,0.474-0.023,0.708-0.07s0.459-0.114,0.674-0.204c0.214-0.09,0.414-0.201,0.6-0.334
			c0.185-0.133,0.348-0.29,0.487-0.47l1.208,1.304c-0.151,0.215-0.346,0.425-0.587,0.63c-0.24,0.206-0.524,0.388-0.852,0.547
			c-0.328,0.16-0.691,0.289-1.091,0.387C452.753,162.629,452.322,162.678,451.858,162.678z M451.571,154.882
			c-0.272,0-0.521,0.048-0.747,0.144c-0.226,0.096-0.425,0.233-0.596,0.413s-0.314,0.394-0.43,0.643s-0.203,0.527-0.261,0.834h3.963
			v-0.191c-0.012-0.255-0.061-0.496-0.148-0.721c-0.087-0.226-0.211-0.422-0.374-0.587s-0.361-0.295-0.595-0.391
			C452.149,154.93,451.878,154.882,451.571,154.882z"/>
		<path fill="#010101" d="M476.898,157.689c0,0.817-0.094,1.537-0.282,2.16c-0.188,0.623-0.459,1.145-0.813,1.564
			c-0.354,0.42-0.785,0.737-1.295,0.952s-1.083,0.322-1.721,0.322c-0.632,0-1.203-0.107-1.712-0.322s-0.943-0.531-1.299-0.952
			c-0.356-0.42-0.631-0.941-0.826-1.564c-0.194-0.623-0.291-1.343-0.291-2.16v-3.025c0-0.817,0.096-1.537,0.287-2.16
			c0.191-0.623,0.465-1.144,0.821-1.564c0.356-0.42,0.788-0.737,1.295-0.952c0.507-0.214,1.077-0.322,1.708-0.322
			c0.637,0,1.211,0.107,1.721,0.322c0.51,0.214,0.943,0.532,1.299,0.952c0.356,0.42,0.63,0.942,0.821,1.564
			c0.191,0.623,0.287,1.343,0.287,2.16V157.689z M471.092,156.646l3.372-2.512c-0.017-0.852-0.165-1.483-0.443-1.895
			c-0.278-0.411-0.695-0.617-1.251-0.617c-0.562,0-0.982,0.217-1.26,0.652c-0.278,0.435-0.417,1.104-0.417,2.008V156.646z
			 M474.464,155.777l-3.372,2.503c0.029,0.834,0.183,1.453,0.46,1.856c0.278,0.402,0.689,0.604,1.234,0.604
			c0.568,0,0.989-0.22,1.265-0.661c0.275-0.44,0.413-1.115,0.413-2.025V155.777z"/>
	</g>
	<g>
		<path fill="none" stroke="#010101" stroke-width="1.424" stroke-miterlimit="10" d="M869.236,419.935v9.968
			c0,1.958,1.602,3.56,3.56,3.56h135.885c1.958,0,3.56-1.602,3.56-3.56v-9.968"/>
	</g>
	<g>
		<g>
			
				<line fill="none" stroke="#010101" stroke-width="1.424" stroke-miterlimit="10" x1="940.738" y1="477.872" x2="940.738" y2="433.462"/>
			<g>
				<polygon fill="#010101" points="940.738,487.927 946.527,473.759 940.738,477.121 934.95,473.759 				"/>
			</g>
		</g>
	</g>
	<g opacity="0.44">
		<rect x="836.602" y="505.351" fill="none" width="99.639" height="17.938"/>
		<path fill="#010101" d="M863.318,505.913h6.006l-0.203,1.131h-2.375l-1.385,7.973h2.383l-0.197,1.124h-6.006l0.197-1.124h2.324
			l1.385-7.973h-2.332L863.318,505.913z"/>
		<path fill="#010101" d="M872.436,508.533l-0.162,1.131c0.156-0.188,0.324-0.36,0.506-0.52c0.184-0.159,0.377-0.295,0.584-0.407
			c0.205-0.113,0.424-0.198,0.652-0.257c0.23-0.059,0.471-0.085,0.725-0.081c0.426,0.01,0.783,0.094,1.074,0.253
			s0.521,0.371,0.691,0.636c0.172,0.265,0.287,0.572,0.346,0.924c0.057,0.352,0.066,0.719,0.023,1.103l-0.807,4.826h-1.271
			l0.807-4.805c0.029-0.258,0.029-0.496,0.004-0.717c-0.025-0.22-0.09-0.412-0.189-0.576c-0.102-0.163-0.242-0.293-0.426-0.39
			c-0.182-0.096-0.414-0.146-0.695-0.15c-0.221-0.005-0.43,0.021-0.629,0.08s-0.385,0.141-0.559,0.246
			c-0.172,0.105-0.336,0.231-0.488,0.379c-0.152,0.148-0.291,0.306-0.418,0.475l-0.947,5.458h-1.271l1.32-7.601L872.436,508.533z"/>
		<path fill="#010101" d="M885.305,512.376c-0.057,0.468-0.168,0.938-0.334,1.408s-0.391,0.893-0.674,1.268
			s-0.629,0.677-1.037,0.906c-0.406,0.229-0.879,0.34-1.418,0.33c-0.385-0.01-0.748-0.083-1.09-0.222
			c-0.342-0.138-0.637-0.358-0.885-0.663l-0.682,3.659h-1.271l1.826-10.522l1.152-0.007l-0.133,0.836
			c0.295-0.323,0.627-0.567,0.994-0.734c0.367-0.166,0.773-0.244,1.219-0.235c0.346,0.01,0.648,0.07,0.906,0.183
			s0.479,0.264,0.664,0.453c0.184,0.189,0.334,0.409,0.449,0.657s0.201,0.513,0.26,0.794c0.059,0.28,0.092,0.569,0.102,0.867
			s-0.002,0.589-0.035,0.874L885.305,512.376z M884.047,512.228c0.033-0.285,0.041-0.586,0.025-0.902
			c-0.018-0.316-0.078-0.607-0.188-0.874c-0.107-0.268-0.268-0.489-0.484-0.668c-0.215-0.178-0.506-0.271-0.871-0.28
			c-0.398-0.01-0.748,0.083-1.053,0.277s-0.574,0.445-0.809,0.755l-0.639,3.674c0.281,0.655,0.779,0.995,1.496,1.019
			c0.393,0.01,0.736-0.07,1.029-0.239c0.293-0.168,0.541-0.391,0.744-0.667s0.365-0.585,0.484-0.927s0.203-0.682,0.25-1.019
			L884.047,512.228z"/>
		<path fill="#010101" d="M891.9,515.094c-0.299,0.37-0.645,0.663-1.033,0.878c-0.389,0.216-0.828,0.318-1.32,0.31
			c-0.453-0.01-0.824-0.109-1.113-0.299c-0.287-0.189-0.51-0.437-0.668-0.741c-0.156-0.304-0.254-0.647-0.295-1.028
			c-0.039-0.382-0.037-0.768,0.004-1.156l0.76-4.517h1.271l-0.752,4.538c-0.029,0.234-0.045,0.474-0.049,0.72
			c-0.006,0.246,0.025,0.47,0.094,0.671s0.182,0.368,0.342,0.499c0.158,0.131,0.385,0.201,0.68,0.211
			c0.469,0.014,0.883-0.084,1.244-0.292s0.664-0.505,0.914-0.889l0.947-5.458h1.279l-1.32,7.601h-1.146L891.9,515.094z"/>
		<path fill="#010101" d="M899.951,506.7l-0.324,1.84h2.811l-0.176,1.005h-2.811l-0.688,4.137c-0.023,0.207-0.023,0.398,0.004,0.576
			c0.025,0.179,0.078,0.333,0.158,0.464c0.078,0.131,0.191,0.236,0.34,0.316c0.146,0.079,0.334,0.121,0.559,0.126
			c0.258,0.01,0.514-0.009,0.77-0.056c0.254-0.047,0.508-0.099,0.762-0.155l0.119,0.935c-0.295,0.164-0.623,0.271-0.982,0.323
			c-0.361,0.052-0.709,0.072-1.041,0.063c-0.379-0.005-0.699-0.079-0.961-0.222c-0.264-0.143-0.475-0.332-0.633-0.569
			c-0.16-0.236-0.268-0.51-0.326-0.821s-0.072-0.641-0.039-0.987l0.688-4.13h-1.938l0.176-1.005h1.932l0.322-1.84H899.951z"/>
		<path fill="#010101" d="M909.055,514.075c0.027-0.215-0.008-0.394-0.105-0.533c-0.1-0.141-0.229-0.256-0.391-0.345
			s-0.338-0.16-0.529-0.214c-0.193-0.054-0.365-0.1-0.521-0.138c-0.279-0.069-0.572-0.156-0.877-0.26
			c-0.305-0.103-0.584-0.236-0.836-0.4c-0.254-0.163-0.457-0.368-0.615-0.614c-0.156-0.246-0.229-0.545-0.213-0.896
			c0.008-0.258,0.061-0.493,0.156-0.706c0.098-0.213,0.223-0.405,0.377-0.576s0.334-0.319,0.537-0.446
			c0.203-0.126,0.42-0.23,0.646-0.312s0.459-0.143,0.695-0.183c0.236-0.039,0.469-0.057,0.699-0.053
			c0.355,0.01,0.699,0.065,1.029,0.169c0.33,0.103,0.619,0.254,0.867,0.453s0.445,0.444,0.59,0.737s0.215,0.634,0.211,1.022
			l-1.258-0.007c0-0.211-0.039-0.396-0.119-0.556s-0.189-0.294-0.326-0.403c-0.139-0.11-0.299-0.193-0.479-0.25
			c-0.18-0.056-0.369-0.086-0.564-0.091c-0.188-0.005-0.381,0.014-0.58,0.056c-0.199,0.043-0.385,0.109-0.559,0.2
			c-0.174,0.092-0.32,0.211-0.443,0.358c-0.121,0.147-0.195,0.327-0.225,0.537c-0.027,0.211,0.006,0.383,0.102,0.517
			c0.098,0.134,0.223,0.24,0.377,0.319c0.154,0.08,0.324,0.144,0.51,0.19c0.184,0.047,0.354,0.086,0.508,0.119
			c0.193,0.047,0.393,0.101,0.598,0.161c0.207,0.062,0.408,0.134,0.604,0.218c0.197,0.085,0.383,0.182,0.559,0.292
			s0.328,0.238,0.453,0.386c0.127,0.148,0.225,0.317,0.295,0.51s0.102,0.407,0.092,0.646c-0.02,0.407-0.131,0.759-0.338,1.054
			c-0.205,0.295-0.463,0.535-0.771,0.72s-0.65,0.32-1.025,0.407s-0.74,0.125-1.096,0.116c-0.375-0.005-0.736-0.062-1.086-0.169
			s-0.658-0.266-0.932-0.474c-0.271-0.209-0.486-0.466-0.648-0.773c-0.162-0.307-0.238-0.663-0.229-1.07l1.264,0.007
			c0.006,0.243,0.053,0.454,0.141,0.632c0.09,0.178,0.209,0.324,0.359,0.439c0.148,0.114,0.324,0.201,0.525,0.26
			s0.418,0.088,0.646,0.088c0.188,0.005,0.387-0.012,0.598-0.05c0.211-0.037,0.41-0.099,0.598-0.186s0.348-0.205,0.48-0.355
			C908.938,514.48,909.021,514.296,909.055,514.075z"/>
	</g>
	<g>
		<rect x="946.814" y="505.351" fill="none" width="99.637" height="17.938"/>
		<path fill="#010101" d="M974.787,511.609c-0.061,0.361-0.146,0.728-0.256,1.1c-0.111,0.372-0.248,0.733-0.414,1.082
			s-0.363,0.678-0.588,0.987c-0.225,0.309-0.48,0.575-0.768,0.801c-0.289,0.225-0.609,0.4-0.963,0.526
			c-0.354,0.127-0.742,0.185-1.162,0.176c-0.404-0.01-0.758-0.086-1.064-0.229s-0.57-0.331-0.791-0.565s-0.4-0.506-0.541-0.814
			c-0.141-0.31-0.246-0.635-0.316-0.977s-0.107-0.69-0.115-1.047c-0.008-0.355,0.014-0.7,0.061-1.032l0.182-1.166
			c0.061-0.361,0.146-0.728,0.256-1.1c0.111-0.372,0.248-0.733,0.416-1.082c0.166-0.349,0.361-0.678,0.59-0.986
			c0.227-0.31,0.484-0.577,0.771-0.805c0.289-0.228,0.609-0.404,0.963-0.53c0.354-0.127,0.74-0.185,1.162-0.176
			c0.408,0.01,0.766,0.086,1.072,0.229s0.57,0.331,0.789,0.565c0.221,0.234,0.4,0.506,0.537,0.814
			c0.139,0.31,0.242,0.636,0.311,0.98c0.066,0.344,0.105,0.695,0.111,1.054c0.008,0.358-0.012,0.703-0.059,1.036L974.787,511.609z
			 M973.713,510.423c0.027-0.216,0.051-0.449,0.066-0.702s0.014-0.507-0.008-0.763c-0.02-0.255-0.064-0.503-0.129-0.744
			c-0.066-0.241-0.162-0.456-0.291-0.644c-0.129-0.187-0.293-0.339-0.492-0.456s-0.443-0.181-0.734-0.189
			c-0.305-0.01-0.58,0.036-0.826,0.137c-0.244,0.101-0.465,0.241-0.66,0.422c-0.193,0.18-0.365,0.389-0.512,0.625
			c-0.148,0.236-0.275,0.487-0.383,0.751c-0.107,0.265-0.197,0.533-0.268,0.805s-0.127,0.529-0.168,0.772l-0.197,1.188
			c-0.027,0.211-0.049,0.442-0.062,0.695s-0.01,0.508,0.014,0.766s0.068,0.508,0.133,0.752c0.066,0.243,0.164,0.46,0.295,0.649
			s0.297,0.344,0.496,0.464c0.199,0.119,0.443,0.184,0.734,0.193c0.305,0.009,0.58-0.037,0.828-0.138s0.469-0.241,0.66-0.421
			c0.191-0.181,0.361-0.39,0.506-0.629s0.271-0.49,0.377-0.755s0.191-0.533,0.262-0.805s0.127-0.531,0.17-0.779L973.713,510.423z"/>
		<path fill="#010101" d="M981.004,515.094c-0.299,0.37-0.645,0.663-1.033,0.878c-0.389,0.216-0.828,0.318-1.32,0.31
			c-0.453-0.01-0.824-0.109-1.113-0.299c-0.287-0.189-0.51-0.437-0.668-0.741c-0.156-0.304-0.254-0.647-0.295-1.028
			c-0.039-0.382-0.037-0.768,0.004-1.156l0.76-4.517h1.271l-0.752,4.538c-0.029,0.234-0.045,0.474-0.049,0.72
			c-0.006,0.246,0.025,0.47,0.094,0.671s0.182,0.368,0.342,0.499c0.158,0.131,0.385,0.201,0.68,0.211
			c0.469,0.014,0.883-0.084,1.244-0.292s0.664-0.505,0.914-0.889l0.947-5.458h1.279l-1.32,7.601h-1.146L981.004,515.094z"/>
		<path fill="#010101" d="M989.055,506.7l-0.324,1.84h2.811l-0.176,1.005h-2.811l-0.688,4.137c-0.023,0.207-0.023,0.398,0.004,0.576
			c0.025,0.179,0.078,0.333,0.158,0.464c0.078,0.131,0.191,0.236,0.34,0.316c0.146,0.079,0.334,0.121,0.559,0.126
			c0.258,0.01,0.514-0.009,0.77-0.056c0.254-0.047,0.508-0.099,0.762-0.155l0.119,0.935c-0.295,0.164-0.623,0.271-0.982,0.323
			c-0.361,0.052-0.709,0.072-1.041,0.063c-0.379-0.005-0.699-0.079-0.961-0.222c-0.264-0.143-0.475-0.332-0.633-0.569
			c-0.16-0.236-0.268-0.51-0.326-0.821s-0.072-0.641-0.039-0.987l0.688-4.13h-1.938l0.176-1.005h1.932l0.322-1.84H989.055z"/>
		<path fill="#010101" d="M999.738,512.376c-0.057,0.468-0.168,0.938-0.334,1.408s-0.391,0.893-0.674,1.268
			s-0.629,0.677-1.037,0.906c-0.406,0.229-0.879,0.34-1.418,0.33c-0.385-0.01-0.748-0.083-1.09-0.222
			c-0.342-0.138-0.637-0.358-0.885-0.663l-0.682,3.659h-1.271l1.826-10.522l1.152-0.007l-0.133,0.836
			c0.295-0.323,0.627-0.567,0.994-0.734c0.367-0.166,0.773-0.244,1.219-0.235c0.346,0.01,0.648,0.07,0.906,0.183
			s0.479,0.264,0.664,0.453c0.184,0.189,0.334,0.409,0.449,0.657s0.201,0.513,0.26,0.794c0.059,0.28,0.092,0.569,0.102,0.867
			s-0.002,0.589-0.035,0.874L999.738,512.376z M998.48,512.228c0.033-0.285,0.041-0.586,0.025-0.902
			c-0.018-0.316-0.078-0.607-0.188-0.874c-0.107-0.268-0.268-0.489-0.484-0.668c-0.215-0.178-0.506-0.271-0.871-0.28
			c-0.398-0.01-0.748,0.083-1.053,0.277s-0.574,0.445-0.809,0.755l-0.639,3.674c0.281,0.655,0.779,0.995,1.496,1.019
			c0.393,0.01,0.736-0.07,1.029-0.239c0.293-0.168,0.541-0.391,0.744-0.667s0.365-0.585,0.484-0.927s0.203-0.682,0.25-1.019
			L998.48,512.228z"/>
		<path fill="#010101" d="M1006.334,515.094c-0.299,0.37-0.645,0.663-1.033,0.878c-0.389,0.216-0.828,0.318-1.32,0.31
			c-0.453-0.01-0.824-0.109-1.113-0.299c-0.287-0.189-0.51-0.437-0.668-0.741c-0.156-0.304-0.254-0.647-0.295-1.028
			c-0.039-0.382-0.037-0.768,0.004-1.156l0.76-4.517h1.271l-0.752,4.538c-0.029,0.234-0.045,0.474-0.049,0.72
			c-0.006,0.246,0.025,0.47,0.094,0.671s0.182,0.368,0.342,0.499c0.158,0.131,0.385,0.201,0.68,0.211
			c0.469,0.014,0.883-0.084,1.244-0.292s0.664-0.505,0.914-0.889l0.947-5.458h1.279l-1.32,7.601h-1.146L1006.334,515.094z"/>
		<path fill="#010101" d="M1014.385,506.7l-0.324,1.84h2.811l-0.176,1.005h-2.811l-0.688,4.137
			c-0.023,0.207-0.023,0.398,0.004,0.576c0.025,0.179,0.078,0.333,0.158,0.464c0.078,0.131,0.191,0.236,0.34,0.316
			c0.146,0.079,0.334,0.121,0.559,0.126c0.258,0.01,0.514-0.009,0.77-0.056c0.254-0.047,0.508-0.099,0.762-0.155l0.119,0.935
			c-0.295,0.164-0.623,0.271-0.982,0.323c-0.361,0.052-0.709,0.072-1.041,0.063c-0.379-0.005-0.699-0.079-0.961-0.222
			c-0.264-0.143-0.475-0.332-0.633-0.569c-0.16-0.236-0.268-0.51-0.326-0.821s-0.072-0.641-0.039-0.987l0.688-4.13h-1.938
			l0.176-1.005h1.932l0.322-1.84H1014.385z"/>
		<path fill="#010101" d="M1023.488,514.075c0.027-0.215-0.008-0.394-0.105-0.533c-0.1-0.141-0.229-0.256-0.391-0.345
			s-0.338-0.16-0.529-0.214c-0.193-0.054-0.365-0.1-0.521-0.138c-0.279-0.069-0.572-0.156-0.877-0.26
			c-0.305-0.103-0.584-0.236-0.836-0.4c-0.254-0.163-0.457-0.368-0.615-0.614c-0.156-0.246-0.229-0.545-0.213-0.896
			c0.008-0.258,0.061-0.493,0.156-0.706c0.098-0.213,0.223-0.405,0.377-0.576s0.334-0.319,0.537-0.446
			c0.203-0.126,0.42-0.23,0.646-0.312s0.459-0.143,0.695-0.183c0.236-0.039,0.469-0.057,0.699-0.053
			c0.355,0.01,0.699,0.065,1.029,0.169c0.33,0.103,0.619,0.254,0.867,0.453s0.445,0.444,0.59,0.737s0.215,0.634,0.211,1.022
			l-1.258-0.007c0-0.211-0.039-0.396-0.119-0.556s-0.189-0.294-0.326-0.403c-0.139-0.11-0.299-0.193-0.479-0.25
			c-0.18-0.056-0.369-0.086-0.564-0.091c-0.188-0.005-0.381,0.014-0.58,0.056c-0.199,0.043-0.385,0.109-0.559,0.2
			c-0.174,0.092-0.32,0.211-0.443,0.358c-0.121,0.147-0.195,0.327-0.225,0.537c-0.027,0.211,0.006,0.383,0.102,0.517
			c0.098,0.134,0.223,0.24,0.377,0.319c0.154,0.08,0.324,0.144,0.51,0.19c0.184,0.047,0.354,0.086,0.508,0.119
			c0.193,0.047,0.393,0.101,0.598,0.161c0.207,0.062,0.408,0.134,0.604,0.218c0.197,0.085,0.383,0.182,0.559,0.292
			s0.328,0.238,0.453,0.386c0.127,0.148,0.225,0.317,0.295,0.51s0.102,0.407,0.092,0.646c-0.02,0.407-0.131,0.759-0.338,1.054
			c-0.205,0.295-0.463,0.535-0.771,0.72s-0.65,0.32-1.025,0.407s-0.74,0.125-1.096,0.116c-0.375-0.005-0.736-0.062-1.086-0.169
			s-0.658-0.266-0.932-0.474c-0.271-0.209-0.486-0.466-0.648-0.773c-0.162-0.307-0.238-0.663-0.229-1.07l1.264,0.007
			c0.006,0.243,0.053,0.454,0.141,0.632c0.09,0.178,0.209,0.324,0.359,0.439c0.148,0.114,0.324,0.201,0.525,0.26
			s0.418,0.088,0.646,0.088c0.188,0.005,0.387-0.012,0.598-0.05c0.211-0.037,0.41-0.099,0.598-0.186s0.348-0.205,0.48-0.355
			C1023.371,514.48,1023.455,514.296,1023.488,514.075z"/>
	</g>
	<g>
		<rect x="951.117" y="532.479" fill="none" width="40.361" height="35.166"/>
		<path fill="#010101" d="M957.068,541.134h-3.07l-0.604,2.136h-2.08l3.352-10.228h1.791l3.287,10.228h-2.078L957.068,541.134z
			 M954.482,539.455h2.123l-1.047-3.765L954.482,539.455z"/>
	</g>
	<g>
		<rect x="951.117" y="572.161" fill="none" width="40.361" height="28.832"/>
		<path fill="#010101" d="M952.025,582.951v-10.228h3.434c0.559,0,1.064,0.056,1.521,0.169c0.457,0.112,0.846,0.283,1.17,0.513
			c0.322,0.229,0.572,0.52,0.748,0.871c0.176,0.351,0.264,0.766,0.264,1.243c-0.006,0.478-0.133,0.906-0.383,1.285
			c-0.252,0.38-0.619,0.667-1.107,0.864c0.295,0.075,0.551,0.188,0.766,0.337c0.217,0.15,0.395,0.327,0.537,0.53
			c0.145,0.204,0.25,0.427,0.316,0.668c0.068,0.241,0.102,0.49,0.102,0.748c0,0.491-0.084,0.925-0.252,1.299
			c-0.168,0.375-0.41,0.688-0.723,0.941c-0.314,0.253-0.697,0.442-1.146,0.569c-0.449,0.126-0.955,0.189-1.518,0.189H952.025z
			 M954.006,577.016h1.469c0.547-0.005,0.969-0.119,1.264-0.345c0.295-0.225,0.445-0.555,0.449-0.99c0-0.478-0.146-0.82-0.441-1.029
			c-0.295-0.208-0.723-0.314-1.279-0.319h-1.461V577.016z M954.006,578.441v2.915h1.756c0.539-0.005,0.949-0.137,1.232-0.396
			s0.426-0.601,0.426-1.022c0.004-0.468-0.123-0.833-0.379-1.096c-0.258-0.262-0.656-0.396-1.195-0.4H954.006z"/>
	</g>
	<g>
		<rect x="1001.869" y="532.479" fill="none" width="40.361" height="35.166"/>
		<path fill="#010101" d="M1023.025,539.47h1.188v1.58h-1.188v2.22h-1.953v-2.22h-4.25l-0.078-1.223l4.301-6.785h1.98V539.47z
			 M1018.662,539.47h2.41v-3.801l-0.189,0.337L1018.662,539.47z"/>
		<path fill="#010101" d="M1032.613,539.378c0,0.66-0.076,1.242-0.229,1.746c-0.152,0.503-0.371,0.925-0.656,1.264
			c-0.287,0.34-0.635,0.597-1.047,0.77s-0.877,0.26-1.391,0.26c-0.512,0-0.973-0.087-1.385-0.26s-0.762-0.43-1.049-0.77
			c-0.289-0.339-0.512-0.761-0.668-1.264c-0.158-0.504-0.236-1.086-0.236-1.746v-2.444c0-0.66,0.078-1.242,0.232-1.746
			c0.154-0.503,0.375-0.925,0.664-1.264c0.287-0.34,0.637-0.597,1.047-0.77s0.869-0.26,1.381-0.26c0.514,0,0.979,0.087,1.391,0.26
			s0.762,0.43,1.049,0.77c0.289,0.339,0.51,0.761,0.664,1.264c0.154,0.504,0.232,1.086,0.232,1.746V539.378z M1027.92,538.535
			l2.727-2.03c-0.014-0.688-0.133-1.198-0.359-1.531c-0.225-0.332-0.561-0.499-1.01-0.499c-0.455,0-0.795,0.176-1.02,0.527
			c-0.225,0.351-0.338,0.892-0.338,1.622V538.535z M1030.646,537.833l-2.727,2.022c0.023,0.675,0.148,1.175,0.373,1.5
			s0.557,0.488,0.998,0.488c0.459,0,0.799-0.178,1.021-0.534c0.223-0.355,0.334-0.901,0.334-1.637V537.833z"/>
		<path fill="#010101" d="M1041.246,539.378c0,0.66-0.076,1.242-0.229,1.746c-0.152,0.503-0.371,0.925-0.656,1.264
			c-0.287,0.34-0.635,0.597-1.047,0.77s-0.877,0.26-1.391,0.26c-0.512,0-0.973-0.087-1.385-0.26s-0.762-0.43-1.049-0.77
			c-0.289-0.339-0.512-0.761-0.668-1.264c-0.158-0.504-0.236-1.086-0.236-1.746v-2.444c0-0.66,0.078-1.242,0.232-1.746
			c0.154-0.503,0.375-0.925,0.664-1.264c0.287-0.34,0.637-0.597,1.047-0.77s0.869-0.26,1.381-0.26c0.514,0,0.979,0.087,1.391,0.26
			s0.762,0.43,1.049,0.77c0.289,0.339,0.51,0.761,0.664,1.264c0.154,0.504,0.232,1.086,0.232,1.746V539.378z M1036.553,538.535
			l2.727-2.03c-0.014-0.688-0.133-1.198-0.359-1.531c-0.225-0.332-0.561-0.499-1.01-0.499c-0.455,0-0.795,0.176-1.02,0.527
			c-0.225,0.351-0.338,0.892-0.338,1.622V538.535z M1039.279,537.833l-2.727,2.022c0.023,0.675,0.148,1.175,0.373,1.5
			s0.557,0.488,0.998,0.488c0.459,0,0.799-0.178,1.021-0.534c0.223-0.355,0.334-0.901,0.334-1.637V537.833z"/>
	</g>
	<g>
		<rect x="1001.869" y="572.161" fill="none" width="40.361" height="28.832"/>
		<path fill="#010101" d="M1022.506,572.64v1.622h-0.113c-0.516,0-0.971,0.068-1.365,0.204c-0.396,0.136-0.734,0.328-1.012,0.576
			c-0.279,0.248-0.5,0.545-0.66,0.892c-0.162,0.347-0.264,0.733-0.307,1.159c0.107-0.117,0.232-0.232,0.373-0.348
			s0.299-0.218,0.473-0.31c0.176-0.091,0.367-0.165,0.574-0.221c0.205-0.057,0.428-0.084,0.666-0.084
			c0.488,0,0.912,0.092,1.275,0.277c0.363,0.185,0.666,0.436,0.91,0.751c0.242,0.316,0.424,0.685,0.545,1.104
			c0.119,0.419,0.178,0.86,0.178,1.324c0,0.496-0.08,0.957-0.238,1.384c-0.16,0.426-0.387,0.796-0.682,1.109
			s-0.652,0.561-1.074,0.741c-0.422,0.18-0.895,0.271-1.42,0.271c-0.547,0-1.041-0.102-1.482-0.306
			c-0.439-0.204-0.812-0.485-1.119-0.847c-0.307-0.36-0.543-0.788-0.709-1.282c-0.168-0.493-0.25-1.033-0.25-1.619v-0.751
			c0-0.811,0.109-1.561,0.33-2.252c0.221-0.69,0.547-1.287,0.982-1.791c0.436-0.503,0.977-0.896,1.623-1.18s1.395-0.425,2.242-0.425
			H1022.506z M1020.566,577.697c-0.352,0-0.662,0.094-0.932,0.28c-0.268,0.188-0.471,0.429-0.607,0.724v0.576
			c0,0.375,0.039,0.702,0.117,0.983c0.076,0.281,0.186,0.514,0.326,0.699c0.141,0.185,0.307,0.324,0.498,0.418
			c0.193,0.094,0.4,0.141,0.625,0.141c0.23,0,0.439-0.048,0.625-0.145c0.188-0.096,0.348-0.229,0.479-0.396
			c0.131-0.169,0.232-0.369,0.303-0.601c0.07-0.232,0.105-0.486,0.105-0.763s-0.035-0.531-0.105-0.766
			c-0.07-0.233-0.172-0.437-0.303-0.607s-0.291-0.305-0.48-0.4S1020.811,577.697,1020.566,577.697z"/>
		<path fill="#010101" d="M1032.613,579.06c0,0.66-0.076,1.242-0.229,1.746c-0.152,0.503-0.371,0.925-0.656,1.264
			c-0.287,0.34-0.635,0.597-1.047,0.77s-0.877,0.26-1.391,0.26c-0.512,0-0.973-0.087-1.385-0.26s-0.762-0.43-1.049-0.77
			c-0.289-0.339-0.512-0.761-0.668-1.264c-0.158-0.504-0.236-1.086-0.236-1.746v-2.444c0-0.66,0.078-1.242,0.232-1.746
			c0.154-0.503,0.375-0.925,0.664-1.264c0.287-0.34,0.637-0.597,1.047-0.77s0.869-0.26,1.381-0.26c0.514,0,0.979,0.087,1.391,0.26
			s0.762,0.43,1.049,0.77c0.289,0.339,0.51,0.761,0.664,1.264c0.154,0.504,0.232,1.086,0.232,1.746V579.06z M1027.92,578.217
			l2.727-2.03c-0.014-0.688-0.133-1.198-0.359-1.531c-0.225-0.332-0.561-0.499-1.01-0.499c-0.455,0-0.795,0.176-1.02,0.527
			c-0.225,0.351-0.338,0.892-0.338,1.622V578.217z M1030.646,577.515l-2.727,2.022c0.023,0.675,0.148,1.175,0.373,1.5
			s0.557,0.488,0.998,0.488c0.459,0,0.799-0.178,1.021-0.534c0.223-0.355,0.334-0.901,0.334-1.637V577.515z"/>
		<path fill="#010101" d="M1041.246,579.06c0,0.66-0.076,1.242-0.229,1.746c-0.152,0.503-0.371,0.925-0.656,1.264
			c-0.287,0.34-0.635,0.597-1.047,0.77s-0.877,0.26-1.391,0.26c-0.512,0-0.973-0.087-1.385-0.26s-0.762-0.43-1.049-0.77
			c-0.289-0.339-0.512-0.761-0.668-1.264c-0.158-0.504-0.236-1.086-0.236-1.746v-2.444c0-0.66,0.078-1.242,0.232-1.746
			c0.154-0.503,0.375-0.925,0.664-1.264c0.287-0.34,0.637-0.597,1.047-0.77s0.869-0.26,1.381-0.26c0.514,0,0.979,0.087,1.391,0.26
			s0.762,0.43,1.049,0.77c0.289,0.339,0.51,0.761,0.664,1.264c0.154,0.504,0.232,1.086,0.232,1.746V579.06z M1036.553,578.217
			l2.727-2.03c-0.014-0.688-0.133-1.198-0.359-1.531c-0.225-0.332-0.561-0.499-1.01-0.499c-0.455,0-0.795,0.176-1.02,0.527
			c-0.225,0.351-0.338,0.892-0.338,1.622V578.217z M1039.279,577.515l-2.727,2.022c0.023,0.675,0.148,1.175,0.373,1.5
			s0.557,0.488,0.998,0.488c0.459,0,0.799-0.178,1.021-0.534c0.223-0.355,0.334-0.901,0.334-1.637V577.515z"/>
	</g>
	<g enable-background="new    ">
		<path fill="none" stroke="#2C5070" stroke-width="2.136" stroke-miterlimit="10" d="M1057.416,599.031
			c0,1.958-1.603,3.56-3.56,3.56H832.396c-1.958,0-3.56-1.602-3.56-3.56v-97.049c0-1.958,1.602-3.56,3.56-3.56h221.461
			c1.957,0,3.56,1.602,3.56,3.56V599.031z"/>
	</g>
	
		<rect x="836.377" y="524.087" fill="none" stroke="#010101" stroke-width="0.2567" stroke-miterlimit="10" stroke-dasharray="9.5907" width="100.09" height="31.246"/>
	
		<rect x="836.377" y="562.349" fill="none" stroke="#010101" stroke-width="0.2567" stroke-miterlimit="10" stroke-dasharray="9.5907" width="100.09" height="31.246"/>
	
		<rect x="943.393" y="524.087" fill="none" stroke="#2C5070" stroke-width="1.068" stroke-miterlimit="10" enable-background="new    " width="106.482" height="31.246"/>
	
		<rect x="943.393" y="562.376" fill="none" stroke="#2C5070" stroke-width="1.068" stroke-miterlimit="10" enable-background="new    " width="106.482" height="31.246"/>
	<g>
		<rect x="829.113" y="616.544" fill="none" width="228.559" height="27.056"/>
		<path fill="#010101" d="M846.501,625.93c-0.041,0.637-0.179,1.211-0.413,1.721s-0.549,0.944-0.943,1.304
			c-0.394,0.359-0.863,0.636-1.407,0.83c-0.545,0.193-1.147,0.291-1.809,0.291c-0.747,0-1.41-0.138-1.99-0.413
			c-0.579-0.275-1.065-0.66-1.46-1.156c-0.394-0.495-0.695-1.09-0.904-1.785c-0.208-0.695-0.312-1.461-0.312-2.295v-1.703
			c0-0.841,0.11-1.608,0.33-2.304c0.221-0.695,0.533-1.292,0.938-1.79c0.406-0.499,0.897-0.886,1.474-1.161
			c0.576-0.274,1.224-0.412,1.942-0.412c0.695,0,1.313,0.099,1.855,0.295c0.542,0.197,1.004,0.479,1.387,0.844
			c0.383,0.364,0.684,0.811,0.904,1.338c0.22,0.527,0.358,1.121,0.417,1.782h-2.434c-0.023-0.377-0.08-0.707-0.17-0.991
			s-0.22-0.52-0.391-0.708s-0.386-0.33-0.644-0.426s-0.566-0.144-0.926-0.144c-0.377,0-0.704,0.081-0.982,0.243
			c-0.277,0.162-0.508,0.399-0.69,0.713c-0.183,0.312-0.317,0.696-0.404,1.151s-0.13,0.972-0.13,1.552v1.721
			c0,1.246,0.175,2.167,0.525,2.764s0.905,0.896,1.664,0.896c0.638,0,1.142-0.17,1.513-0.509s0.576-0.888,0.617-1.646H846.501z"/>
		<path fill="#010101" d="M848.152,625.104c0-0.684,0.099-1.316,0.295-1.899c0.197-0.582,0.485-1.087,0.865-1.517
			c0.379-0.429,0.843-0.765,1.391-1.008s1.175-0.365,1.882-0.365s1.335,0.122,1.886,0.365s1.016,0.579,1.395,1.008
			c0.38,0.43,0.668,0.935,0.865,1.517c0.197,0.583,0.296,1.216,0.296,1.899v0.183c0,0.689-0.099,1.325-0.296,1.908
			c-0.197,0.582-0.483,1.088-0.86,1.517s-0.84,0.763-1.391,1.004c-0.551,0.24-1.177,0.36-1.877,0.36c-0.707,0-1.338-0.12-1.891-0.36
			c-0.554-0.241-1.021-0.575-1.399-1.004c-0.38-0.429-0.668-0.935-0.865-1.517c-0.196-0.583-0.295-1.219-0.295-1.908V625.104z
			 M850.568,625.286c0,0.395,0.037,0.764,0.113,1.108c0.075,0.345,0.193,0.646,0.355,0.903c0.163,0.258,0.373,0.463,0.631,0.613
			s0.569,0.226,0.935,0.226c0.353,0,0.657-0.075,0.912-0.226s0.462-0.355,0.621-0.613s0.277-0.559,0.353-0.903
			s0.112-0.714,0.112-1.108v-0.183c0-0.383-0.037-0.744-0.112-1.086s-0.193-0.644-0.353-0.904s-0.366-0.467-0.621-0.617
			s-0.565-0.226-0.93-0.226c-0.359,0-0.667,0.075-0.922,0.226s-0.463,0.356-0.626,0.617c-0.162,0.261-0.28,0.562-0.355,0.904
			c-0.076,0.342-0.113,0.703-0.113,1.086V625.286z"/>
		<path fill="#010101" d="M861.354,620.488l0.147,1.304c0.336-0.469,0.744-0.833,1.226-1.091c0.48-0.258,1.014-0.387,1.599-0.387
			c0.476,0,0.91,0.069,1.304,0.209c0.395,0.139,0.735,0.36,1.021,0.665c0.287,0.304,0.51,0.695,0.67,1.173
			c0.159,0.479,0.238,1.06,0.238,1.743v5.788h-2.416v-5.754c0-0.37-0.042-0.676-0.126-0.917c-0.084-0.24-0.204-0.43-0.36-0.569
			c-0.157-0.139-0.345-0.235-0.565-0.291c-0.22-0.055-0.469-0.082-0.747-0.082c-0.412,0-0.762,0.082-1.052,0.247
			s-0.524,0.393-0.704,0.683v6.684h-2.425v-9.404H861.354z"/>
		<path fill="#010101" d="M872.184,629.893v-7.622h-2.469v-1.782h2.469v-0.513c0-0.62,0.099-1.167,0.296-1.643
			c0.196-0.475,0.478-0.875,0.843-1.199s0.809-0.569,1.33-0.734s1.104-0.248,1.746-0.248c0.203,0,0.398,0.008,0.587,0.021
			c0.188,0.015,0.372,0.034,0.552,0.057c0.18,0.023,0.361,0.05,0.544,0.078c0.183,0.029,0.372,0.062,0.569,0.096l-0.157,1.895
			c-0.22-0.046-0.469-0.087-0.747-0.121c-0.278-0.035-0.605-0.053-0.982-0.053c-0.753,0-1.301,0.16-1.643,0.479
			s-0.513,0.776-0.513,1.373v0.513h3.39v1.782h-3.39v7.622H872.184z"/>
		<path fill="#010101" d="M881.17,620.488h5.12v7.44h2.546v1.964h-7.666v-1.964h2.678v-5.467h-2.678V620.488z M883.674,618.081
			c0-0.186,0.033-0.357,0.1-0.518c0.066-0.159,0.161-0.295,0.282-0.408c0.122-0.113,0.269-0.201,0.439-0.265
			c0.171-0.064,0.36-0.096,0.569-0.096c0.429,0,0.769,0.12,1.021,0.36c0.253,0.24,0.379,0.549,0.379,0.926s-0.126,0.686-0.379,0.926
			c-0.252,0.24-0.592,0.36-1.021,0.36c-0.209,0-0.398-0.031-0.569-0.096c-0.171-0.063-0.317-0.152-0.439-0.265
			c-0.121-0.113-0.216-0.249-0.282-0.409C883.707,618.438,883.674,618.267,883.674,618.081z"/>
		<path fill="#010101" d="M897.962,620.314c0.365,0,0.703,0.025,1.013,0.074s0.561,0.103,0.752,0.16l-0.356,2.408
			c-0.318-0.075-0.645-0.132-0.978-0.17c-0.334-0.037-0.65-0.057-0.952-0.057c-0.678,0-1.221,0.131-1.63,0.392
			c-0.408,0.261-0.714,0.635-0.917,1.121v5.649h-2.416v-9.404h2.251l0.113,1.539c0.383-0.533,0.84-0.952,1.373-1.257
			C896.748,620.467,897.33,620.314,897.962,620.314z"/>
		<path fill="#010101" d="M903.395,620.488l0.069,1.139c0.18-0.405,0.427-0.726,0.743-0.96c0.315-0.235,0.699-0.353,1.151-0.353
			c0.759,0,1.255,0.333,1.486,1c0.186-0.313,0.422-0.558,0.708-0.734c0.287-0.177,0.633-0.266,1.039-0.266
			c0.283,0,0.549,0.053,0.795,0.156c0.246,0.104,0.461,0.271,0.644,0.5c0.183,0.229,0.324,0.524,0.426,0.887
			s0.152,0.804,0.152,1.325v6.71h-2.199v-6.719c0-0.18-0.019-0.327-0.057-0.443c-0.038-0.115-0.088-0.207-0.152-0.273
			c-0.063-0.066-0.138-0.113-0.222-0.139c-0.084-0.026-0.169-0.039-0.256-0.039c-0.168,0-0.311,0.039-0.426,0.117
			c-0.116,0.078-0.206,0.184-0.27,0.317v7.179h-2.13v-6.728c0-0.179-0.018-0.327-0.052-0.442c-0.035-0.116-0.083-0.206-0.144-0.27
			c-0.061-0.064-0.132-0.109-0.213-0.135c-0.081-0.026-0.168-0.039-0.261-0.039c-0.186,0-0.335,0.052-0.447,0.156
			c-0.113,0.104-0.202,0.243-0.266,0.417v7.04h-2.198v-9.404H903.395z"/>
		<path fill="#010101" d="M917.135,630.066c-0.724,0-1.382-0.119-1.973-0.356s-1.098-0.561-1.521-0.969
			c-0.424-0.409-0.749-0.89-0.979-1.443c-0.229-0.553-0.343-1.146-0.343-1.777v-0.348c0-0.718,0.112-1.374,0.339-1.969
			c0.226-0.594,0.542-1.104,0.947-1.533s0.887-0.763,1.442-1c0.557-0.237,1.162-0.356,1.817-0.356c0.678,0,1.281,0.112,1.812,0.335
			s0.979,0.537,1.348,0.942c0.367,0.406,0.647,0.895,0.839,1.465c0.19,0.571,0.286,1.201,0.286,1.891v1.025h-6.379
			c0.046,0.318,0.14,0.61,0.282,0.874c0.142,0.264,0.323,0.49,0.543,0.682c0.221,0.191,0.473,0.339,0.756,0.443
			c0.284,0.104,0.595,0.156,0.931,0.156c0.237,0,0.474-0.022,0.708-0.069c0.234-0.046,0.459-0.114,0.674-0.204
			c0.214-0.09,0.414-0.201,0.6-0.335c0.186-0.133,0.348-0.289,0.486-0.469l1.208,1.304c-0.15,0.214-0.346,0.424-0.586,0.63
			c-0.241,0.206-0.524,0.389-0.853,0.548c-0.327,0.159-0.69,0.288-1.091,0.387C918.03,630.018,917.599,630.066,917.135,630.066z
			 M916.849,622.271c-0.272,0-0.521,0.048-0.748,0.144c-0.226,0.095-0.424,0.232-0.595,0.412s-0.314,0.395-0.431,0.644
			s-0.203,0.527-0.261,0.834h3.963v-0.19c-0.011-0.256-0.061-0.496-0.147-0.722c-0.087-0.227-0.211-0.422-0.374-0.587
			c-0.162-0.165-0.36-0.296-0.595-0.391C917.427,622.318,917.155,622.271,916.849,622.271z"/>
		<path fill="#010101" d="M923.002,625.121c0-0.713,0.082-1.364,0.247-1.956c0.166-0.591,0.407-1.098,0.727-1.521
			c0.318-0.423,0.705-0.75,1.16-0.982c0.454-0.231,0.975-0.348,1.56-0.348c0.493,0,0.926,0.089,1.3,0.266s0.705,0.427,0.995,0.752
			v-4.789h2.425v13.35h-2.182l-0.122-0.982c-0.295,0.365-0.643,0.649-1.043,0.852c-0.399,0.203-0.863,0.305-1.39,0.305
			c-0.574,0-1.089-0.12-1.543-0.36c-0.455-0.24-0.841-0.572-1.156-0.995s-0.558-0.926-0.726-1.509
			c-0.168-0.582-0.252-1.215-0.252-1.898V625.121z M925.418,625.304c0,0.394,0.033,0.761,0.1,1.1s0.176,0.634,0.326,0.886
			c0.15,0.253,0.345,0.451,0.582,0.596c0.238,0.145,0.527,0.218,0.869,0.218c0.418,0,0.764-0.09,1.039-0.27s0.494-0.426,0.656-0.739
			v-3.807c-0.162-0.318-0.38-0.566-0.652-0.743s-0.614-0.265-1.025-0.265c-0.342,0-0.633,0.073-0.873,0.222
			c-0.241,0.147-0.437,0.351-0.587,0.608s-0.261,0.559-0.33,0.903s-0.104,0.714-0.104,1.108V625.304z"/>
		<path fill="#010101" d="M944.513,629.893v-12.654h4.25c0.689,0,1.317,0.069,1.882,0.208c0.565,0.14,1.048,0.351,1.447,0.635
			s0.708,0.644,0.926,1.077c0.217,0.436,0.325,0.948,0.325,1.539c-0.005,0.591-0.163,1.121-0.474,1.591
			c-0.31,0.469-0.766,0.825-1.368,1.068c0.365,0.093,0.681,0.232,0.947,0.417c0.267,0.186,0.488,0.404,0.665,0.656
			s0.307,0.527,0.391,0.826s0.126,0.606,0.126,0.926c0,0.608-0.104,1.145-0.312,1.607c-0.209,0.464-0.507,0.852-0.896,1.165
			c-0.388,0.312-0.86,0.548-1.417,0.704c-0.556,0.156-1.182,0.234-1.877,0.234H944.513z M946.964,622.549h1.816
			c0.678-0.006,1.199-0.148,1.564-0.427c0.365-0.277,0.551-0.687,0.557-1.226c0-0.591-0.183-1.015-0.548-1.272
			s-0.893-0.39-1.582-0.396h-1.808V622.549z M946.964,624.312v3.607h2.173c0.666-0.006,1.175-0.17,1.525-0.491
			s0.525-0.743,0.525-1.265c0.006-0.579-0.15-1.031-0.469-1.355c-0.319-0.325-0.812-0.49-1.478-0.496H946.964z"/>
		<path fill="#010101" d="M955.941,620.488h5.12v7.44h2.546v1.964h-7.666v-1.964h2.678v-5.467h-2.678V620.488z M958.445,618.081
			c0-0.186,0.033-0.357,0.1-0.518c0.066-0.159,0.161-0.295,0.282-0.408c0.122-0.113,0.269-0.201,0.439-0.265
			c0.171-0.064,0.36-0.096,0.569-0.096c0.429,0,0.769,0.12,1.021,0.36c0.253,0.24,0.379,0.549,0.379,0.926s-0.126,0.686-0.379,0.926
			c-0.252,0.24-0.592,0.36-1.021,0.36c-0.209,0-0.398-0.031-0.569-0.096c-0.171-0.063-0.317-0.152-0.439-0.265
			c-0.121-0.113-0.216-0.249-0.282-0.409C958.479,618.438,958.445,618.267,958.445,618.081z"/>
		<path fill="#010101" d="M970.413,618.186v2.303h3.512v1.782h-3.512v4.041c0,0.342,0.039,0.628,0.117,0.856
			s0.189,0.411,0.335,0.548c0.145,0.136,0.319,0.232,0.525,0.291c0.206,0.058,0.437,0.087,0.691,0.087
			c0.186,0,0.375-0.009,0.569-0.026c0.193-0.018,0.379-0.039,0.556-0.065c0.177-0.025,0.342-0.054,0.496-0.082
			c0.153-0.029,0.285-0.059,0.396-0.087l0.234,1.66c-0.168,0.099-0.365,0.184-0.591,0.256c-0.227,0.072-0.467,0.132-0.722,0.179
			c-0.255,0.046-0.521,0.082-0.795,0.108c-0.275,0.026-0.547,0.039-0.813,0.039c-0.516,0-0.983-0.068-1.403-0.204
			c-0.42-0.137-0.779-0.348-1.078-0.635c-0.298-0.287-0.528-0.651-0.69-1.095s-0.243-0.976-0.243-1.595v-4.276h-2.147v-1.782h2.147
			v-2.303H970.413z"/>
		<path fill="#010101" d="M980.825,628.137c0.237,0,0.464-0.034,0.678-0.104c0.215-0.069,0.403-0.168,0.565-0.295
			c0.162-0.128,0.288-0.281,0.378-0.461s0.129-0.379,0.117-0.6h2.277c0.012,0.486-0.089,0.938-0.3,1.355
			c-0.212,0.418-0.5,0.777-0.865,1.078c-0.365,0.302-0.789,0.537-1.273,0.708c-0.483,0.171-0.995,0.257-1.534,0.257
			c-0.729,0-1.37-0.123-1.92-0.369c-0.551-0.246-1.01-0.584-1.378-1.013s-0.646-0.932-0.834-1.508
			c-0.188-0.577-0.283-1.195-0.283-1.855v-0.262c0-0.66,0.093-1.278,0.278-1.855c0.186-0.576,0.464-1.079,0.834-1.508
			c0.371-0.429,0.83-0.768,1.378-1.017s1.184-0.374,1.908-0.374c0.579,0,1.115,0.087,1.607,0.261s0.917,0.419,1.273,0.734
			c0.356,0.316,0.633,0.698,0.83,1.147s0.29,0.952,0.278,1.508h-2.277c0.012-0.231-0.023-0.452-0.104-0.66
			c-0.081-0.209-0.2-0.389-0.356-0.539s-0.345-0.271-0.564-0.36c-0.221-0.09-0.461-0.135-0.722-0.135
			c-0.382,0-0.698,0.078-0.947,0.234s-0.447,0.365-0.596,0.626c-0.147,0.261-0.252,0.559-0.312,0.896
			c-0.061,0.336-0.092,0.684-0.092,1.042v0.262c0,0.364,0.029,0.717,0.087,1.056c0.059,0.339,0.161,0.638,0.309,0.896
			c0.148,0.258,0.348,0.465,0.601,0.621C980.117,628.059,980.437,628.137,980.825,628.137z"/>
		<path fill="#010101" d="M987.014,625.104c0-0.684,0.099-1.316,0.295-1.899c0.197-0.582,0.485-1.087,0.865-1.517
			c0.379-0.429,0.843-0.765,1.391-1.008s1.175-0.365,1.882-0.365s1.335,0.122,1.886,0.365s1.016,0.579,1.395,1.008
			c0.38,0.43,0.668,0.935,0.865,1.517c0.197,0.583,0.296,1.216,0.296,1.899v0.183c0,0.689-0.099,1.325-0.296,1.908
			c-0.197,0.582-0.483,1.088-0.86,1.517s-0.84,0.763-1.391,1.004c-0.551,0.24-1.177,0.36-1.877,0.36c-0.707,0-1.338-0.12-1.891-0.36
			c-0.554-0.241-1.021-0.575-1.399-1.004c-0.38-0.429-0.668-0.935-0.865-1.517c-0.196-0.583-0.295-1.219-0.295-1.908V625.104z
			 M989.43,625.286c0,0.395,0.037,0.764,0.113,1.108c0.075,0.345,0.193,0.646,0.355,0.903c0.163,0.258,0.373,0.463,0.631,0.613
			s0.569,0.226,0.935,0.226c0.353,0,0.657-0.075,0.912-0.226s0.462-0.355,0.621-0.613s0.277-0.559,0.353-0.903
			s0.112-0.714,0.112-1.108v-0.183c0-0.383-0.037-0.744-0.112-1.086s-0.193-0.644-0.353-0.904s-0.366-0.467-0.621-0.617
			s-0.565-0.226-0.93-0.226c-0.359,0-0.667,0.075-0.922,0.226s-0.463,0.356-0.626,0.617c-0.162,0.261-0.28,0.562-0.355,0.904
			c-0.076,0.342-0.113,0.703-0.113,1.086V625.286z"/>
		<path fill="#010101" d="M998.668,620.488h5.12v7.44h2.546v1.964h-7.666v-1.964h2.678v-5.467h-2.678V620.488z M1001.172,618.081
			c0-0.186,0.033-0.357,0.1-0.518c0.066-0.159,0.161-0.295,0.282-0.408c0.122-0.113,0.269-0.201,0.439-0.265
			c0.171-0.064,0.36-0.096,0.569-0.096c0.429,0,0.769,0.12,1.021,0.36c0.253,0.24,0.379,0.549,0.379,0.926s-0.126,0.686-0.379,0.926
			c-0.252,0.24-0.592,0.36-1.021,0.36c-0.209,0-0.398-0.031-0.569-0.096c-0.171-0.063-0.317-0.152-0.439-0.265
			c-0.121-0.113-0.216-0.249-0.282-0.409C1001.205,618.438,1001.172,618.267,1001.172,618.081z"/>
		<path fill="#010101" d="M1010.897,620.488l0.147,1.304c0.336-0.469,0.744-0.833,1.226-1.091c0.48-0.258,1.014-0.387,1.599-0.387
			c0.476,0,0.91,0.069,1.304,0.209c0.395,0.139,0.735,0.36,1.021,0.665c0.287,0.304,0.51,0.695,0.67,1.173
			c0.159,0.479,0.238,1.06,0.238,1.743v5.788h-2.416v-5.754c0-0.37-0.042-0.676-0.126-0.917c-0.084-0.24-0.204-0.43-0.36-0.569
			c-0.157-0.139-0.345-0.235-0.565-0.291c-0.22-0.055-0.469-0.082-0.747-0.082c-0.412,0-0.762,0.082-1.052,0.247
			s-0.524,0.393-0.704,0.683v6.684h-2.425v-9.404H1010.897z"/>
		<path fill="#010101" d="M1039.283,619.229h-3.902v10.664h-2.451v-10.664h-3.851v-1.99h10.204V619.229z"/>
		<path fill="#010101" d="M1044.95,621.774l2.251-4.536h2.868l-3.563,6.274l3.65,6.38h-2.852l-2.32-4.606l-2.312,4.606h-2.886
			l3.65-6.38l-3.555-6.274h2.851L1044.95,621.774z"/>
	</g>
</g>
<g>
</g>
<g>
</g>
<g>
</g>
<g>
</g>
<g>
</g>
<g>
</g>
<g>
</g>
<g>
</g>
</svg>
