<?xml version="1.0" encoding="utf-8"?>
<!-- Generator: Adobe Illustrator 16.0.4, SVG Export Plug-In . SVG Version: 6.00 Build 0)  -->
<!DOCTYPE svg PUBLIC "-//W3C//DTD SVG 1.1//EN" "http://www.w3.org/Graphics/SVG/1.1/DTD/svg11.dtd">
<svg version="1.1" id="Layer_1" xmlns="http://www.w3.org/2000/svg" xmlns:xlink="http://www.w3.org/1999/xlink" x="0px" y="0px"
	 width="1366px" height="768px" viewBox="0 0 1366 768" enable-background="new 0 0 1366 768" xml:space="preserve">
<g>
	<rect y="-0.211" fill="#FFFFFF" width="1367.038" height="768.96"/>
	<rect x="696.565" y="211.501" fill="#C8D7E2" enable-background="new    " width="59.971" height="173.041"/>
	<g>
		<rect x="571.024" y="149.51" fill="none" width="224.991" height="27.056"/>
		<path fill="#010101" d="M636.574,162.86v-12.655h4.25c0.689,0,1.317,0.07,1.882,0.208c0.565,0.139,1.047,0.351,1.447,0.635
			s0.708,0.643,0.926,1.078c0.217,0.435,0.326,0.947,0.326,1.539c-0.006,0.591-0.164,1.121-0.474,1.59s-0.767,0.826-1.369,1.069
			c0.365,0.093,0.681,0.232,0.948,0.417c0.266,0.186,0.488,0.404,0.665,0.656s0.307,0.527,0.391,0.826s0.126,0.607,0.126,0.925
			c0,0.608-0.104,1.145-0.312,1.608c-0.209,0.464-0.507,0.852-0.896,1.165c-0.388,0.312-0.86,0.547-1.417,0.704
			c-0.556,0.157-1.182,0.235-1.877,0.235H636.574z M639.025,155.516h1.816c0.678-0.006,1.199-0.148,1.564-0.426
			c0.365-0.278,0.55-0.687,0.556-1.226c0-0.591-0.183-1.016-0.547-1.273c-0.365-0.258-0.893-0.39-1.582-0.396h-1.808V155.516z
			 M639.025,157.28v3.607h2.173c0.666-0.005,1.175-0.169,1.525-0.491c0.351-0.322,0.526-0.743,0.526-1.265
			c0.005-0.58-0.151-1.031-0.47-1.356c-0.318-0.324-0.811-0.49-1.478-0.496H639.025z"/>
		<path fill="#010101" d="M653.235,162.86c-0.058-0.116-0.107-0.249-0.148-0.4c-0.041-0.15-0.075-0.31-0.104-0.478
			c-0.133,0.145-0.287,0.281-0.46,0.409s-0.367,0.239-0.578,0.334s-0.445,0.171-0.7,0.226s-0.53,0.083-0.826,0.083
			c-0.481,0-0.922-0.069-1.325-0.208s-0.749-0.333-1.039-0.583c-0.29-0.249-0.516-0.546-0.678-0.891s-0.243-0.72-0.243-1.125
			c0-0.991,0.37-1.757,1.108-2.299c0.739-0.542,1.841-0.812,3.307-0.812h1.347v-0.556c0-0.452-0.147-0.81-0.443-1.073
			c-0.296-0.264-0.722-0.396-1.278-0.396c-0.493,0-0.852,0.105-1.078,0.317c-0.226,0.211-0.339,0.494-0.339,0.847h-2.417
			c0-0.4,0.088-0.779,0.265-1.139c0.177-0.359,0.435-0.675,0.773-0.947c0.339-0.272,0.753-0.488,1.243-0.647
			c0.489-0.159,1.05-0.239,1.682-0.239c0.568,0,1.097,0.07,1.586,0.209c0.49,0.139,0.914,0.345,1.273,0.617
			c0.359,0.272,0.64,0.616,0.843,1.03c0.203,0.414,0.304,0.894,0.304,1.438v4.033c0,0.504,0.032,0.921,0.096,1.251
			c0.063,0.33,0.156,0.614,0.278,0.852v0.148H653.235z M650.932,161.165c0.243,0,0.469-0.029,0.678-0.087
			c0.208-0.058,0.397-0.133,0.565-0.226c0.168-0.092,0.313-0.198,0.435-0.317c0.122-0.119,0.217-0.239,0.287-0.36v-1.617h-1.234
			c-0.377,0-0.698,0.036-0.965,0.109c-0.267,0.072-0.484,0.174-0.652,0.304s-0.292,0.287-0.374,0.469
			c-0.082,0.183-0.122,0.381-0.122,0.595c0,0.325,0.115,0.594,0.343,0.808C650.122,161.058,650.468,161.165,650.932,161.165z"/>
		<path fill="#010101" d="M658.545,149.51h5.258v11.386h2.694v1.964h-7.953v-1.964h2.816v-9.413h-2.816V149.51z"/>
		<path fill="#010101" d="M674.599,162.86c-0.058-0.116-0.107-0.249-0.148-0.4c-0.041-0.15-0.075-0.31-0.104-0.478
			c-0.133,0.145-0.287,0.281-0.46,0.409s-0.367,0.239-0.578,0.334s-0.445,0.171-0.7,0.226s-0.53,0.083-0.826,0.083
			c-0.481,0-0.922-0.069-1.325-0.208s-0.749-0.333-1.039-0.583c-0.29-0.249-0.516-0.546-0.678-0.891s-0.243-0.72-0.243-1.125
			c0-0.991,0.37-1.757,1.108-2.299c0.739-0.542,1.841-0.812,3.307-0.812h1.347v-0.556c0-0.452-0.147-0.81-0.443-1.073
			c-0.296-0.264-0.722-0.396-1.278-0.396c-0.493,0-0.852,0.105-1.078,0.317c-0.226,0.211-0.339,0.494-0.339,0.847h-2.417
			c0-0.4,0.088-0.779,0.265-1.139c0.177-0.359,0.435-0.675,0.773-0.947c0.339-0.272,0.753-0.488,1.243-0.647
			c0.489-0.159,1.05-0.239,1.682-0.239c0.568,0,1.097,0.07,1.586,0.209c0.49,0.139,0.914,0.345,1.273,0.617
			c0.359,0.272,0.64,0.616,0.843,1.03c0.203,0.414,0.304,0.894,0.304,1.438v4.033c0,0.504,0.032,0.921,0.096,1.251
			c0.063,0.33,0.156,0.614,0.278,0.852v0.148H674.599z M672.295,161.165c0.243,0,0.469-0.029,0.678-0.087
			c0.208-0.058,0.397-0.133,0.565-0.226c0.168-0.092,0.313-0.198,0.435-0.317c0.122-0.119,0.217-0.239,0.287-0.36v-1.617h-1.234
			c-0.377,0-0.698,0.036-0.965,0.109c-0.267,0.072-0.484,0.174-0.652,0.304s-0.292,0.287-0.374,0.469
			c-0.082,0.183-0.122,0.381-0.122,0.595c0,0.325,0.115,0.594,0.343,0.808C671.485,161.058,671.832,161.165,672.295,161.165z"/>
		<path fill="#010101" d="M681.595,153.456l0.148,1.304c0.336-0.469,0.745-0.833,1.226-1.091c0.481-0.257,1.014-0.387,1.599-0.387
			c0.476,0,0.909,0.07,1.304,0.209c0.395,0.139,0.734,0.36,1.021,0.665s0.51,0.695,0.669,1.173s0.239,1.059,0.239,1.743v5.789
			h-2.416v-5.754c0-0.371-0.043-0.676-0.127-0.917c-0.084-0.241-0.203-0.431-0.36-0.569c-0.156-0.139-0.345-0.236-0.565-0.292
			c-0.22-0.055-0.469-0.083-0.747-0.083c-0.412,0-0.762,0.083-1.052,0.248c-0.29,0.165-0.524,0.393-0.704,0.682v6.684h-2.425v-9.404
			H681.595z"/>
		<path fill="#010101" d="M694.25,161.104c0.236,0,0.463-0.035,0.678-0.104c0.214-0.07,0.402-0.168,0.564-0.295
			s0.289-0.281,0.379-0.461c0.09-0.179,0.129-0.379,0.117-0.6h2.277c0.011,0.487-0.089,0.938-0.301,1.356
			c-0.211,0.417-0.5,0.776-0.865,1.078c-0.364,0.301-0.789,0.538-1.272,0.708s-0.995,0.256-1.534,0.256
			c-0.73,0-1.371-0.123-1.921-0.37c-0.55-0.246-1.01-0.583-1.378-1.012c-0.367-0.429-0.646-0.932-0.834-1.508
			c-0.188-0.576-0.282-1.195-0.282-1.855v-0.261c0-0.661,0.093-1.279,0.278-1.855s0.463-1.079,0.834-1.508
			c0.371-0.429,0.83-0.768,1.377-1.017c0.549-0.249,1.184-0.374,1.908-0.374c0.58,0,1.115,0.087,1.607,0.261
			c0.493,0.174,0.918,0.419,1.273,0.734c0.357,0.316,0.633,0.699,0.83,1.147c0.197,0.449,0.29,0.952,0.279,1.508h-2.277
			c0.012-0.231-0.023-0.452-0.105-0.66c-0.08-0.209-0.199-0.388-0.355-0.539c-0.156-0.15-0.346-0.271-0.564-0.361
			c-0.221-0.09-0.461-0.135-0.723-0.135c-0.382,0-0.697,0.079-0.947,0.235c-0.248,0.156-0.447,0.365-0.595,0.626
			s-0.253,0.559-0.313,0.895s-0.091,0.684-0.091,1.043v0.261c0,0.365,0.028,0.717,0.087,1.056c0.058,0.339,0.16,0.637,0.309,0.895
			c0.147,0.258,0.348,0.465,0.6,0.622C693.541,161.026,693.861,161.104,694.25,161.104z"/>
		<path fill="#010101" d="M705.331,163.034c-0.725,0-1.382-0.119-1.974-0.356c-0.59-0.237-1.098-0.561-1.521-0.969
			c-0.423-0.409-0.749-0.89-0.978-1.443s-0.344-1.146-0.344-1.777v-0.348c0-0.719,0.113-1.375,0.34-1.969
			c0.226-0.594,0.541-1.105,0.947-1.534c0.404-0.429,0.887-0.762,1.442-1c0.556-0.237,1.161-0.356,1.816-0.356
			c0.678,0,1.282,0.112,1.812,0.335c0.531,0.223,0.979,0.538,1.349,0.943c0.367,0.406,0.646,0.894,0.838,1.464
			c0.191,0.571,0.287,1.201,0.287,1.891v1.025h-6.38c0.047,0.319,0.141,0.61,0.283,0.874c0.141,0.264,0.322,0.491,0.543,0.682
			c0.22,0.191,0.472,0.339,0.756,0.443c0.283,0.104,0.594,0.157,0.93,0.157c0.238,0,0.474-0.023,0.709-0.07
			c0.234-0.046,0.459-0.114,0.674-0.204c0.213-0.09,0.414-0.201,0.6-0.334c0.185-0.133,0.347-0.29,0.485-0.47l1.209,1.304
			c-0.15,0.215-0.346,0.425-0.586,0.63c-0.242,0.206-0.525,0.388-0.854,0.547c-0.327,0.16-0.69,0.289-1.09,0.387
			C706.227,162.984,705.795,163.034,705.331,163.034z M705.044,155.237c-0.272,0-0.521,0.048-0.747,0.144
			c-0.227,0.096-0.425,0.233-0.596,0.413s-0.314,0.394-0.43,0.643c-0.116,0.249-0.203,0.527-0.262,0.834h3.964v-0.191
			c-0.012-0.255-0.062-0.496-0.147-0.721c-0.088-0.226-0.212-0.422-0.374-0.587s-0.36-0.295-0.595-0.391
			C705.622,155.285,705.352,155.237,705.044,155.237z"/>
		<path fill="#010101" d="M728.051,162.86h-2.442v-9.708l-3.198,1.147v-2.104l5.51-1.99h0.131V162.86z"/>
	</g>
	
		<rect x="696.565" y="211.501" fill="none" stroke="#010101" stroke-width="1.068" stroke-miterlimit="10" stroke-dasharray="6.9196" width="59.971" height="48.49"/>
	<g>
		<rect x="614.396" y="393.233" fill="none" width="58.239" height="25.373"/>
		<path fill="#010101" d="M645.676,404.681h-4.06l-0.799,2.824h-2.75l4.432-13.528h2.369l4.348,13.528h-2.75L645.676,404.681z
			 M642.257,402.46h2.806l-1.384-4.98L642.257,402.46z"/>
	</g>
	<g>
		<rect x="697.431" y="393.233" fill="none" width="58.238" height="25.373"/>
		<path fill="#010101" d="M722.039,407.505v-13.528h4.545c0.736,0,1.406,0.074,2.012,0.223c0.604,0.149,1.119,0.375,1.547,0.679
			s0.756,0.688,0.988,1.152c0.232,0.464,0.35,1.013,0.35,1.645c-0.006,0.632-0.176,1.198-0.508,1.7
			c-0.33,0.502-0.818,0.883-1.463,1.143c0.391,0.1,0.729,0.248,1.014,0.446s0.521,0.432,0.711,0.701
			c0.188,0.27,0.328,0.563,0.418,0.883s0.135,0.649,0.135,0.989c0,0.65-0.111,1.224-0.336,1.72c-0.223,0.495-0.541,0.91-0.957,1.244
			c-0.414,0.335-0.918,0.586-1.514,0.753c-0.594,0.167-1.264,0.251-2.006,0.251H722.039z M724.66,399.653h1.941
			c0.725-0.006,1.283-0.157,1.674-0.455c0.389-0.297,0.588-0.734,0.594-1.31c0-0.632-0.195-1.086-0.586-1.361
			s-0.953-0.417-1.691-0.423h-1.932V399.653z M724.66,401.54v3.855h2.322c0.713-0.006,1.256-0.181,1.631-0.524
			s0.562-0.795,0.562-1.353c0.006-0.619-0.162-1.103-0.502-1.449s-0.867-0.523-1.58-0.529H724.66z"/>
	</g>
	<g>
		<g>
			<polyline fill="none" stroke="#010101" stroke-width="1.068" stroke-miterlimit="10" points="673.5,305.021 673.5,308.48 
				670.041,308.48 			"/>
			
				<line fill="none" stroke="#010101" stroke-width="1.068" stroke-miterlimit="10" stroke-dasharray="7.5786,7.5786" x1="662.462" y1="308.48" x2="620.78" y2="308.48"/>
			<polyline fill="none" stroke="#010101" stroke-width="1.068" stroke-miterlimit="10" points="616.991,308.48 613.531,308.48 
				613.531,305.021 			"/>
			
				<line fill="none" stroke="#010101" stroke-width="1.068" stroke-miterlimit="10" stroke-dasharray="5.9385,5.9385" x1="613.531" y1="299.082" x2="613.531" y2="266.42"/>
			<polyline fill="none" stroke="#010101" stroke-width="1.068" stroke-miterlimit="10" points="613.531,263.451 613.531,259.991 
				616.991,259.991 			"/>
			
				<line fill="none" stroke="#010101" stroke-width="1.068" stroke-miterlimit="10" stroke-dasharray="7.5786,7.5786" x1="624.569" y1="259.991" x2="666.251" y2="259.991"/>
			<polyline fill="none" stroke="#010101" stroke-width="1.068" stroke-miterlimit="10" points="670.041,259.991 673.5,259.991 
				673.5,263.451 			"/>
			
				<line fill="none" stroke="#010101" stroke-width="1.068" stroke-miterlimit="10" stroke-dasharray="5.9385,5.9385" x1="673.5" y1="269.39" x2="673.5" y2="302.051"/>
		</g>
	</g>
	<rect x="613.531" y="308.48" fill="#C8D7E2" enable-background="new    " width="59.97" height="76.062"/>
	<g>
		<g>
			<path fill="none" stroke="#010101" stroke-width="0.8649" stroke-miterlimit="10" d="M720.442,233.466h-71.161
				c-3.171,0-5.766,2.595-5.766,5.766v41.915"/>
			<g>
				<polygon fill="#010101" points="726.55,233.466 717.944,229.949 719.986,233.466 717.944,236.981 				"/>
			</g>
			<g>
				<circle fill="#010101" cx="643.516" cy="280.984" r="3.252"/>
			</g>
		</g>
	</g>
	<g>
		<rect x="629.205" y="339.593" fill="none" width="29.12" height="25.371"/>
		<path fill="#010101" d="M633.752,344.422h1.063c0.535,0,0.931-0.135,1.189-0.405c0.258-0.27,0.387-0.623,0.387-1.06
			c0-0.202-0.029-0.386-0.088-0.552c-0.059-0.167-0.147-0.31-0.264-0.43s-0.266-0.212-0.447-0.278
			c-0.181-0.066-0.391-0.099-0.63-0.099c-0.197,0-0.381,0.028-0.553,0.084s-0.321,0.137-0.451,0.243
			c-0.129,0.105-0.231,0.233-0.306,0.384s-0.112,0.319-0.112,0.507h-1.957c0-0.417,0.085-0.798,0.257-1.141
			c0.171-0.342,0.407-0.637,0.708-0.883c0.3-0.246,0.653-0.438,1.06-0.574c0.406-0.136,0.843-0.204,1.312-0.204
			c0.507,0,0.971,0.062,1.394,0.187c0.422,0.125,0.784,0.31,1.084,0.556c0.3,0.247,0.534,0.552,0.701,0.915
			c0.167,0.364,0.25,0.785,0.25,1.264c0,0.221-0.033,0.438-0.099,0.651c-0.066,0.214-0.162,0.417-0.289,0.609
			c-0.127,0.192-0.284,0.37-0.472,0.532c-0.188,0.162-0.404,0.301-0.647,0.418c0.286,0.104,0.534,0.235,0.742,0.395
			c0.209,0.16,0.381,0.341,0.518,0.545s0.237,0.428,0.303,0.672c0.065,0.244,0.099,0.502,0.099,0.774
			c0,0.479-0.092,0.906-0.275,1.281c-0.183,0.375-0.434,0.691-0.753,0.947c-0.319,0.256-0.698,0.451-1.137,0.584
			c-0.439,0.134-0.912,0.201-1.418,0.201c-0.437,0-0.862-0.06-1.277-0.179c-0.416-0.12-0.785-0.3-1.109-0.542
			s-0.583-0.546-0.778-0.912c-0.195-0.366-0.292-0.798-0.292-1.295h1.957c0,0.197,0.038,0.379,0.113,0.546s0.182,0.31,0.32,0.429
			c0.138,0.12,0.301,0.213,0.489,0.282c0.188,0.068,0.394,0.102,0.62,0.102c0.497,0,0.887-0.131,1.168-0.395
			c0.281-0.263,0.422-0.619,0.422-1.07c0-0.277-0.04-0.514-0.12-0.711c-0.08-0.197-0.196-0.359-0.348-0.486
			c-0.153-0.126-0.335-0.22-0.549-0.281c-0.213-0.061-0.454-0.092-0.721-0.092h-1.063V344.422z"/>
		<path fill="#010101" d="M647.105,346.505c0,0.662-0.077,1.245-0.229,1.749s-0.372,0.927-0.658,1.267s-0.636,0.597-1.049,0.771
			c-0.413,0.174-0.877,0.261-1.394,0.261c-0.512,0-0.974-0.087-1.387-0.261c-0.413-0.173-0.764-0.43-1.052-0.771
			s-0.512-0.763-0.668-1.267c-0.158-0.504-0.236-1.087-0.236-1.749v-2.45c0-0.662,0.077-1.245,0.232-1.749s0.377-0.927,0.666-1.267
			s0.638-0.597,1.049-0.771c0.41-0.173,0.872-0.26,1.383-0.26c0.516,0,0.981,0.087,1.394,0.26c0.413,0.174,0.764,0.431,1.052,0.771
			s0.51,0.763,0.665,1.267s0.232,1.087,0.232,1.749V346.505z M642.403,345.661l2.731-2.034c-0.014-0.69-0.134-1.202-0.359-1.535
			s-0.563-0.5-1.014-0.5c-0.455,0-0.795,0.176-1.021,0.528c-0.225,0.352-0.338,0.894-0.338,1.626V345.661z M645.134,344.957
			l-2.731,2.027c0.023,0.676,0.148,1.177,0.373,1.503s0.559,0.489,1,0.489c0.46,0,0.801-0.179,1.024-0.535
			c0.223-0.356,0.334-0.903,0.334-1.64V344.957z"/>
		<path fill="#010101" d="M655.756,346.505c0,0.662-0.077,1.245-0.229,1.749s-0.372,0.927-0.658,1.267s-0.636,0.597-1.049,0.771
			c-0.413,0.174-0.877,0.261-1.394,0.261c-0.512,0-0.974-0.087-1.387-0.261c-0.413-0.173-0.764-0.43-1.052-0.771
			s-0.512-0.763-0.668-1.267c-0.158-0.504-0.236-1.087-0.236-1.749v-2.45c0-0.662,0.077-1.245,0.232-1.749s0.377-0.927,0.666-1.267
			s0.638-0.597,1.049-0.771c0.41-0.173,0.872-0.26,1.383-0.26c0.516,0,0.981,0.087,1.394,0.26c0.413,0.174,0.764,0.431,1.052,0.771
			s0.51,0.763,0.665,1.267s0.232,1.087,0.232,1.749V346.505z M651.054,345.661l2.731-2.034c-0.014-0.69-0.134-1.202-0.359-1.535
			s-0.563-0.5-1.014-0.5c-0.455,0-0.795,0.176-1.021,0.528c-0.225,0.352-0.338,0.894-0.338,1.626V345.661z M653.785,344.957
			l-2.731,2.027c0.023,0.676,0.148,1.177,0.373,1.503s0.559,0.489,1,0.489c0.46,0,0.801-0.179,1.024-0.535
			c0.223-0.356,0.334-0.903,0.334-1.64V344.957z"/>
	</g>
	<g>
		<rect x="711.989" y="339.593" fill="none" width="29.119" height="25.371"/>
		<path fill="#010101" d="M721.26,341.247l-3.99,9.158h-2.062l3.998-8.651h-5.146v-1.598h7.201V341.247z"/>
		<path fill="#010101" d="M729.889,346.505c0,0.662-0.076,1.245-0.229,1.749s-0.371,0.927-0.658,1.267
			c-0.285,0.34-0.635,0.597-1.049,0.771c-0.412,0.174-0.877,0.261-1.393,0.261c-0.512,0-0.975-0.087-1.387-0.261
			c-0.414-0.173-0.764-0.43-1.053-0.771s-0.512-0.763-0.668-1.267c-0.158-0.504-0.236-1.087-0.236-1.749v-2.45
			c0-0.662,0.078-1.245,0.232-1.749s0.377-0.927,0.664-1.267c0.289-0.34,0.639-0.597,1.049-0.771c0.412-0.173,0.873-0.26,1.385-0.26
			c0.516,0,0.98,0.087,1.393,0.26c0.414,0.174,0.764,0.431,1.053,0.771s0.51,0.763,0.666,1.267c0.154,0.504,0.23,1.087,0.23,1.749
			V346.505z M725.188,345.661l2.73-2.034c-0.014-0.69-0.133-1.202-0.357-1.535c-0.227-0.333-0.564-0.5-1.014-0.5
			c-0.457,0-0.797,0.176-1.021,0.528c-0.225,0.352-0.338,0.894-0.338,1.626V345.661z M727.918,344.957l-2.73,2.027
			c0.023,0.676,0.148,1.177,0.373,1.503s0.559,0.489,1,0.489c0.459,0,0.801-0.179,1.023-0.535s0.334-0.903,0.334-1.64V344.957z"/>
		<path fill="#010101" d="M738.539,346.505c0,0.662-0.076,1.245-0.229,1.749s-0.371,0.927-0.658,1.267
			c-0.285,0.34-0.635,0.597-1.049,0.771c-0.412,0.174-0.877,0.261-1.393,0.261c-0.512,0-0.975-0.087-1.387-0.261
			c-0.414-0.173-0.764-0.43-1.053-0.771s-0.512-0.763-0.668-1.267c-0.158-0.504-0.236-1.087-0.236-1.749v-2.45
			c0-0.662,0.078-1.245,0.232-1.749s0.377-0.927,0.664-1.267c0.289-0.34,0.639-0.597,1.049-0.771c0.412-0.173,0.873-0.26,1.385-0.26
			c0.516,0,0.98,0.087,1.393,0.26c0.414,0.174,0.764,0.431,1.053,0.771s0.51,0.763,0.666,1.267c0.154,0.504,0.23,1.087,0.23,1.749
			V346.505z M733.838,345.661l2.73-2.034c-0.014-0.69-0.133-1.202-0.357-1.535c-0.227-0.333-0.564-0.5-1.014-0.5
			c-0.457,0-0.797,0.176-1.021,0.528c-0.225,0.352-0.338,0.894-0.338,1.626V345.661z M736.568,344.957l-2.73,2.027
			c0.023,0.676,0.148,1.177,0.373,1.503s0.559,0.489,1,0.489c0.459,0,0.801-0.179,1.023-0.535s0.334-0.903,0.334-1.64V344.957z"/>
	</g>
	
		<rect x="952.271" y="235.782" fill="none" stroke="#010101" stroke-width="1.068" stroke-miterlimit="10" stroke-dasharray="6.9196" width="59.971" height="148.797"/>
	
		<rect x="869.237" y="284.271" fill="none" stroke="#010101" stroke-width="1.068" stroke-miterlimit="10" stroke-dasharray="6.9196" width="59.969" height="100.308"/>
	<rect x="357.168" y="260.027" fill="#C8D7E2" enable-background="new    " width="59.97" height="124.552"/>
	<rect x="440.203" y="260.027" fill="#C8D7E2" enable-background="new    " width="59.969" height="124.552"/>
	<g>
		<rect x="358.898" y="393.233" fill="none" width="58.239" height="25.373"/>
		<path fill="#010101" d="M390.179,404.681h-4.06l-0.799,2.824h-2.75l4.432-13.528h2.369l4.348,13.528h-2.75L390.179,404.681z
			 M386.76,402.46h2.806l-1.384-4.98L386.76,402.46z"/>
	</g>
	<g>
		<rect x="441.067" y="393.233" fill="none" width="58.24" height="25.373"/>
		<path fill="#010101" d="M465.677,407.505v-13.528h4.543c0.737,0,1.408,0.074,2.012,0.223c0.604,0.149,1.119,0.375,1.547,0.679
			c0.427,0.304,0.757,0.688,0.989,1.152c0.232,0.464,0.349,1.013,0.349,1.645c-0.006,0.632-0.175,1.198-0.506,1.7
			c-0.332,0.502-0.819,0.883-1.463,1.143c0.39,0.1,0.728,0.248,1.013,0.446c0.285,0.198,0.522,0.432,0.711,0.701
			s0.328,0.563,0.418,0.883s0.135,0.649,0.135,0.989c0,0.65-0.111,1.224-0.334,1.72c-0.223,0.495-0.542,0.91-0.957,1.244
			c-0.415,0.335-0.92,0.586-1.515,0.753s-1.264,0.251-2.007,0.251H465.677z M468.297,399.653h1.942
			c0.725-0.006,1.282-0.157,1.672-0.455c0.39-0.297,0.588-0.734,0.595-1.31c0-0.632-0.195-1.086-0.585-1.361
			s-0.954-0.417-1.691-0.423h-1.933V399.653z M468.297,401.54v3.855h2.323c0.712-0.006,1.256-0.181,1.631-0.524
			c0.375-0.344,0.562-0.795,0.562-1.353c0.006-0.619-0.161-1.103-0.502-1.449s-0.867-0.523-1.58-0.529H468.297z"/>
	</g>
	<g>
		<rect x="372.305" y="339.629" fill="none" width="29.119" height="25.37"/>
		<path fill="#010101" d="M374.979,345.394l0.584-5.202h5.688v1.661h-4.076l-0.246,2.252c0.145-0.084,0.352-0.171,0.619-0.261
			c0.268-0.089,0.575-0.133,0.922-0.133c0.493,0,0.933,0.079,1.32,0.235c0.387,0.158,0.713,0.384,0.978,0.68
			c0.265,0.295,0.468,0.657,0.609,1.084c0.141,0.427,0.211,0.91,0.211,1.45c0,0.46-0.068,0.896-0.204,1.31
			c-0.136,0.413-0.345,0.776-0.626,1.091c-0.282,0.314-0.636,0.563-1.063,0.746c-0.427,0.183-0.932,0.274-1.513,0.274
			c-0.441,0-0.867-0.065-1.278-0.197s-0.775-0.324-1.095-0.577c-0.319-0.253-0.578-0.564-0.777-0.933
			c-0.2-0.368-0.307-0.789-0.32-1.263h1.929c0.047,0.446,0.208,0.791,0.482,1.035s0.625,0.366,1.052,0.366
			c0.263,0,0.487-0.049,0.672-0.148c0.185-0.099,0.335-0.235,0.451-0.408c0.115-0.174,0.199-0.38,0.253-0.62
			c0.054-0.239,0.081-0.497,0.081-0.774c0-0.272-0.034-0.522-0.102-0.75s-0.172-0.423-0.313-0.588
			c-0.141-0.164-0.317-0.291-0.528-0.38c-0.211-0.089-0.46-0.134-0.747-0.134c-0.192,0-0.359,0.017-0.5,0.049
			s-0.265,0.075-0.373,0.126c-0.108,0.052-0.204,0.112-0.289,0.18c-0.084,0.068-0.165,0.14-0.239,0.215L374.979,345.394z"/>
		<path fill="#010101" d="M390.205,346.542c0,0.662-0.077,1.245-0.229,1.749s-0.372,0.927-0.658,1.267s-0.636,0.597-1.049,0.771
			c-0.413,0.174-0.877,0.261-1.394,0.261c-0.512,0-0.974-0.087-1.387-0.261c-0.413-0.173-0.764-0.43-1.052-0.771
			s-0.512-0.763-0.668-1.267c-0.158-0.504-0.236-1.087-0.236-1.749v-2.45c0-0.662,0.077-1.245,0.232-1.749s0.377-0.927,0.666-1.267
			s0.638-0.597,1.049-0.771c0.41-0.173,0.872-0.26,1.383-0.26c0.516,0,0.981,0.087,1.394,0.26c0.413,0.174,0.764,0.431,1.052,0.771
			s0.51,0.763,0.665,1.267s0.232,1.087,0.232,1.749V346.542z M385.503,345.697l2.731-2.034c-0.014-0.69-0.134-1.202-0.359-1.535
			s-0.563-0.5-1.014-0.5c-0.455,0-0.795,0.176-1.021,0.528c-0.225,0.352-0.338,0.894-0.338,1.626V345.697z M388.234,344.993
			l-2.731,2.027c0.023,0.676,0.148,1.177,0.373,1.503s0.559,0.489,1,0.489c0.46,0,0.801-0.179,1.024-0.535
			c0.223-0.356,0.334-0.903,0.334-1.64V344.993z"/>
		<path fill="#010101" d="M398.856,346.542c0,0.662-0.077,1.245-0.229,1.749s-0.372,0.927-0.658,1.267s-0.636,0.597-1.049,0.771
			c-0.413,0.174-0.877,0.261-1.394,0.261c-0.512,0-0.974-0.087-1.387-0.261c-0.413-0.173-0.764-0.43-1.052-0.771
			s-0.512-0.763-0.668-1.267c-0.158-0.504-0.236-1.087-0.236-1.749v-2.45c0-0.662,0.077-1.245,0.232-1.749s0.377-0.927,0.666-1.267
			s0.638-0.597,1.049-0.771c0.41-0.173,0.872-0.26,1.383-0.26c0.516,0,0.981,0.087,1.394,0.26c0.413,0.174,0.764,0.431,1.052,0.771
			s0.51,0.763,0.665,1.267s0.232,1.087,0.232,1.749V346.542z M394.154,345.697l2.731-2.034c-0.014-0.69-0.134-1.202-0.359-1.535
			s-0.563-0.5-1.014-0.5c-0.455,0-0.795,0.176-1.021,0.528c-0.225,0.352-0.338,0.894-0.338,1.626V345.697z M396.885,344.993
			l-2.731,2.027c0.023,0.676,0.148,1.177,0.373,1.503s0.559,0.489,1,0.489c0.46,0,0.801-0.179,1.024-0.535
			c0.223-0.356,0.334-0.903,0.334-1.64V344.993z"/>
	</g>
	<g>
		<rect x="455.339" y="339.629" fill="none" width="29.12" height="25.37"/>
		<path fill="#010101" d="M458.014,345.394l0.584-5.202h5.688v1.661h-4.076l-0.246,2.252c0.145-0.084,0.352-0.171,0.619-0.261
			c0.268-0.089,0.575-0.133,0.922-0.133c0.493,0,0.933,0.079,1.32,0.235c0.387,0.158,0.713,0.384,0.978,0.68
			c0.265,0.295,0.468,0.657,0.609,1.084c0.141,0.427,0.211,0.91,0.211,1.45c0,0.46-0.068,0.896-0.204,1.31
			c-0.136,0.413-0.345,0.776-0.626,1.091c-0.282,0.314-0.636,0.563-1.063,0.746c-0.427,0.183-0.932,0.274-1.513,0.274
			c-0.441,0-0.867-0.065-1.278-0.197s-0.775-0.324-1.095-0.577c-0.319-0.253-0.578-0.564-0.777-0.933
			c-0.2-0.368-0.307-0.789-0.32-1.263h1.929c0.047,0.446,0.208,0.791,0.482,1.035s0.625,0.366,1.052,0.366
			c0.263,0,0.487-0.049,0.672-0.148c0.185-0.099,0.335-0.235,0.451-0.408c0.115-0.174,0.199-0.38,0.253-0.62
			c0.054-0.239,0.081-0.497,0.081-0.774c0-0.272-0.034-0.522-0.102-0.75s-0.172-0.423-0.313-0.588
			c-0.141-0.164-0.317-0.291-0.528-0.38c-0.211-0.089-0.46-0.134-0.747-0.134c-0.192,0-0.359,0.017-0.5,0.049
			s-0.265,0.075-0.373,0.126c-0.108,0.052-0.204,0.112-0.289,0.18c-0.084,0.068-0.165,0.14-0.239,0.215L458.014,345.394z"/>
		<path fill="#010101" d="M473.24,346.542c0,0.662-0.077,1.245-0.229,1.749s-0.372,0.927-0.658,1.267s-0.636,0.597-1.049,0.771
			c-0.413,0.174-0.877,0.261-1.394,0.261c-0.512,0-0.974-0.087-1.387-0.261c-0.413-0.173-0.764-0.43-1.052-0.771
			s-0.512-0.763-0.668-1.267c-0.158-0.504-0.236-1.087-0.236-1.749v-2.45c0-0.662,0.077-1.245,0.232-1.749s0.377-0.927,0.666-1.267
			s0.638-0.597,1.049-0.771c0.41-0.173,0.872-0.26,1.383-0.26c0.516,0,0.981,0.087,1.394,0.26c0.413,0.174,0.764,0.431,1.052,0.771
			s0.51,0.763,0.665,1.267s0.232,1.087,0.232,1.749V346.542z M468.538,345.697l2.731-2.034c-0.014-0.69-0.134-1.202-0.359-1.535
			s-0.563-0.5-1.014-0.5c-0.455,0-0.795,0.176-1.021,0.528c-0.225,0.352-0.338,0.894-0.338,1.626V345.697z M471.269,344.993
			l-2.731,2.027c0.023,0.676,0.148,1.177,0.373,1.503s0.559,0.489,1,0.489c0.46,0,0.801-0.179,1.024-0.535
			c0.223-0.356,0.334-0.903,0.334-1.64V344.993z"/>
		<path fill="#010101" d="M481.891,346.542c0,0.662-0.077,1.245-0.229,1.749s-0.372,0.927-0.658,1.267s-0.636,0.597-1.049,0.771
			c-0.413,0.174-0.877,0.261-1.394,0.261c-0.512,0-0.974-0.087-1.387-0.261c-0.413-0.173-0.764-0.43-1.052-0.771
			s-0.512-0.763-0.668-1.267c-0.158-0.504-0.236-1.087-0.236-1.749v-2.45c0-0.662,0.077-1.245,0.232-1.749s0.377-0.927,0.666-1.267
			s0.638-0.597,1.049-0.771c0.41-0.173,0.872-0.26,1.383-0.26c0.516,0,0.981,0.087,1.394,0.26c0.413,0.174,0.764,0.431,1.052,0.771
			s0.51,0.763,0.665,1.267s0.232,1.087,0.232,1.749V346.542z M477.188,345.697l2.731-2.034c-0.014-0.69-0.134-1.202-0.359-1.535
			s-0.563-0.5-1.014-0.5c-0.455,0-0.795,0.176-1.021,0.528c-0.225,0.352-0.338,0.894-0.338,1.626V345.697z M479.919,344.993
			l-2.731,2.027c0.023,0.676,0.148,1.177,0.373,1.503s0.559,0.489,1,0.489c0.46,0,0.801-0.179,1.024-0.535
			c0.223-0.356,0.334-0.903,0.334-1.64V344.993z"/>
	</g>
	
		<line fill="none" stroke="#010101" stroke-width="1.424" stroke-miterlimit="10" x1="53.756" y1="456.382" x2="1315.774" y2="456.382"/>
	<g>
		<rect x="1111.431" y="420.29" fill="none" width="203.633" height="27.056"/>
		<path fill="#010101" d="M1164.765,429.677c-0.041,0.637-0.179,1.211-0.413,1.721s-0.549,0.944-0.943,1.304
			c-0.394,0.359-0.863,0.636-1.407,0.83c-0.545,0.193-1.147,0.291-1.809,0.291c-0.747,0-1.41-0.138-1.99-0.413
			c-0.579-0.275-1.065-0.66-1.46-1.156c-0.394-0.495-0.695-1.09-0.904-1.785c-0.208-0.695-0.312-1.461-0.312-2.295v-1.703
			c0-0.841,0.11-1.608,0.33-2.304c0.221-0.695,0.533-1.292,0.938-1.79c0.406-0.499,0.897-0.886,1.474-1.161
			c0.576-0.274,1.224-0.412,1.942-0.412c0.695,0,1.313,0.099,1.855,0.295c0.542,0.197,1.004,0.479,1.387,0.844
			c0.383,0.364,0.684,0.811,0.904,1.338c0.22,0.527,0.358,1.121,0.417,1.782h-2.434c-0.023-0.377-0.08-0.707-0.17-0.991
			s-0.22-0.52-0.391-0.708s-0.386-0.33-0.644-0.426s-0.566-0.144-0.926-0.144c-0.377,0-0.704,0.081-0.982,0.243
			c-0.277,0.162-0.508,0.399-0.69,0.713c-0.183,0.312-0.317,0.696-0.404,1.151s-0.13,0.972-0.13,1.552v1.721
			c0,1.246,0.175,2.167,0.525,2.764s0.905,0.896,1.664,0.896c0.638,0,1.142-0.17,1.513-0.509s0.576-0.888,0.617-1.646H1164.765z"/>
		<path fill="#010101" d="M1169.162,425.53c0.312-0.457,0.694-0.816,1.143-1.077c0.449-0.261,0.952-0.392,1.509-0.392
			c0.492,0,0.944,0.074,1.355,0.222s0.765,0.378,1.061,0.691c0.295,0.312,0.525,0.714,0.69,1.203c0.165,0.49,0.248,1.079,0.248,1.77
			v5.692h-2.416v-5.71c0-0.336-0.042-0.626-0.126-0.869s-0.204-0.44-0.361-0.591c-0.156-0.151-0.345-0.263-0.564-0.335
			c-0.221-0.072-0.47-0.108-0.748-0.108c-0.405,0-0.757,0.072-1.056,0.217s-0.543,0.348-0.734,0.608v6.788h-2.416v-13.35h2.416
			V425.53z"/>
		<path fill="#010101" d="M1183.303,433.64c-0.058-0.116-0.107-0.249-0.147-0.399c-0.041-0.151-0.075-0.311-0.104-0.479
			c-0.133,0.145-0.287,0.281-0.461,0.408c-0.174,0.128-0.366,0.239-0.577,0.335c-0.212,0.096-0.445,0.171-0.7,0.226
			c-0.255,0.056-0.53,0.083-0.825,0.083c-0.481,0-0.923-0.069-1.326-0.209c-0.402-0.139-0.748-0.333-1.038-0.582
			s-0.516-0.546-0.678-0.891s-0.244-0.72-0.244-1.126c0-0.99,0.37-1.757,1.108-2.299c0.739-0.541,1.842-0.812,3.308-0.812h1.347
			v-0.556c0-0.452-0.147-0.811-0.443-1.074c-0.295-0.264-0.721-0.396-1.277-0.396c-0.492,0-0.852,0.106-1.078,0.317
			c-0.226,0.212-0.339,0.494-0.339,0.848h-2.416c0-0.399,0.088-0.779,0.266-1.139c0.176-0.359,0.435-0.675,0.773-0.947
			s0.753-0.488,1.242-0.647c0.49-0.159,1.051-0.239,1.683-0.239c0.567,0,1.096,0.069,1.586,0.209
			c0.489,0.139,0.914,0.345,1.273,0.617c0.358,0.272,0.64,0.615,0.843,1.029c0.203,0.415,0.304,0.895,0.304,1.438v4.033
			c0,0.504,0.032,0.921,0.096,1.252c0.064,0.33,0.156,0.613,0.278,0.852v0.147H1183.303z M1181,431.945
			c0.243,0,0.469-0.029,0.678-0.087c0.209-0.059,0.396-0.134,0.564-0.227c0.169-0.093,0.313-0.198,0.435-0.317
			c0.122-0.118,0.218-0.239,0.287-0.36v-1.617h-1.234c-0.376,0-0.698,0.037-0.965,0.109c-0.266,0.072-0.483,0.174-0.651,0.304
			c-0.168,0.131-0.293,0.287-0.374,0.47s-0.121,0.381-0.121,0.596c0,0.324,0.114,0.594,0.343,0.808
			C1180.19,431.838,1180.536,431.945,1181,431.945z"/>
		<path fill="#010101" d="M1190.3,424.235l0.147,1.304c0.336-0.469,0.744-0.833,1.226-1.091c0.48-0.258,1.014-0.387,1.599-0.387
			c0.476,0,0.91,0.069,1.304,0.209c0.395,0.139,0.735,0.36,1.021,0.665c0.287,0.304,0.51,0.695,0.67,1.173
			c0.159,0.479,0.238,1.06,0.238,1.743v5.788h-2.416v-5.754c0-0.37-0.042-0.676-0.126-0.917c-0.084-0.24-0.204-0.43-0.36-0.569
			c-0.157-0.139-0.345-0.235-0.565-0.291c-0.22-0.055-0.469-0.082-0.747-0.082c-0.412,0-0.762,0.082-1.052,0.247
			s-0.524,0.393-0.704,0.683v6.684h-2.425v-9.404H1190.3z"/>
		<path fill="#010101" d="M1200.981,424.235l0.147,1.304c0.336-0.469,0.744-0.833,1.226-1.091c0.48-0.258,1.014-0.387,1.599-0.387
			c0.476,0,0.91,0.069,1.304,0.209c0.395,0.139,0.735,0.36,1.021,0.665c0.287,0.304,0.51,0.695,0.67,1.173
			c0.159,0.479,0.238,1.06,0.238,1.743v5.788h-2.416v-5.754c0-0.37-0.042-0.676-0.126-0.917c-0.084-0.24-0.204-0.43-0.36-0.569
			c-0.157-0.139-0.345-0.235-0.565-0.291c-0.22-0.055-0.469-0.082-0.747-0.082c-0.412,0-0.762,0.082-1.052,0.247
			s-0.524,0.393-0.704,0.683v6.684h-2.425v-9.404H1200.981z"/>
		<path fill="#010101" d="M1214.035,433.813c-0.724,0-1.382-0.119-1.973-0.356s-1.098-0.561-1.521-0.969
			c-0.424-0.409-0.749-0.89-0.979-1.443c-0.229-0.553-0.343-1.146-0.343-1.777v-0.348c0-0.718,0.112-1.374,0.339-1.969
			c0.226-0.594,0.542-1.104,0.947-1.533s0.887-0.763,1.442-1c0.557-0.237,1.162-0.356,1.817-0.356c0.678,0,1.281,0.112,1.812,0.335
			s0.979,0.537,1.348,0.942c0.367,0.406,0.647,0.895,0.839,1.465c0.19,0.571,0.286,1.201,0.286,1.891v1.025h-6.379
			c0.046,0.318,0.14,0.61,0.282,0.874c0.142,0.264,0.323,0.49,0.543,0.682c0.221,0.191,0.473,0.339,0.756,0.443
			c0.284,0.104,0.595,0.156,0.931,0.156c0.237,0,0.474-0.022,0.708-0.069c0.234-0.046,0.459-0.114,0.674-0.204
			c0.214-0.09,0.414-0.201,0.6-0.335c0.186-0.133,0.348-0.289,0.486-0.469l1.208,1.304c-0.15,0.214-0.346,0.424-0.586,0.63
			c-0.241,0.206-0.524,0.389-0.853,0.548c-0.327,0.159-0.69,0.288-1.091,0.387C1214.931,433.765,1214.499,433.813,1214.035,433.813z
			 M1213.749,426.018c-0.272,0-0.521,0.048-0.748,0.144c-0.226,0.095-0.424,0.232-0.595,0.412s-0.314,0.395-0.431,0.644
			s-0.203,0.527-0.261,0.834h3.963v-0.19c-0.011-0.256-0.061-0.496-0.147-0.722c-0.087-0.227-0.211-0.422-0.374-0.587
			c-0.162-0.165-0.36-0.296-0.595-0.391C1214.327,426.065,1214.056,426.018,1213.749,426.018z"/>
		<path fill="#010101" d="M1220.658,420.29h5.259v11.386h2.694v1.964h-7.953v-1.964h2.816v-9.413h-2.816V420.29z"/>
		<path fill="#010101" d="M1241.413,433.64v-12.654h4.25c0.689,0,1.317,0.069,1.882,0.208c0.565,0.14,1.048,0.351,1.447,0.635
			s0.708,0.644,0.926,1.077c0.217,0.436,0.325,0.948,0.325,1.539c-0.005,0.591-0.163,1.121-0.474,1.591
			c-0.31,0.469-0.766,0.825-1.368,1.068c0.365,0.093,0.681,0.232,0.947,0.417c0.267,0.186,0.488,0.404,0.665,0.656
			s0.307,0.527,0.391,0.826s0.126,0.606,0.126,0.926c0,0.608-0.104,1.145-0.312,1.607c-0.209,0.464-0.507,0.852-0.896,1.165
			c-0.388,0.312-0.86,0.548-1.417,0.704c-0.556,0.156-1.182,0.234-1.877,0.234H1241.413z M1243.864,426.296h1.816
			c0.678-0.006,1.199-0.148,1.564-0.427c0.365-0.277,0.551-0.687,0.557-1.226c0-0.591-0.183-1.015-0.548-1.272
			s-0.893-0.39-1.582-0.396h-1.808V426.296z M1243.864,428.06v3.607h2.173c0.666-0.006,1.175-0.17,1.525-0.491
			s0.525-0.743,0.525-1.265c0.006-0.579-0.15-1.031-0.469-1.355c-0.319-0.325-0.812-0.49-1.478-0.496H1243.864z"/>
		<path fill="#010101" d="M1258.074,433.64c-0.058-0.116-0.107-0.249-0.147-0.399c-0.041-0.151-0.075-0.311-0.104-0.479
			c-0.133,0.145-0.287,0.281-0.461,0.408c-0.174,0.128-0.366,0.239-0.577,0.335c-0.212,0.096-0.445,0.171-0.7,0.226
			c-0.255,0.056-0.53,0.083-0.825,0.083c-0.481,0-0.923-0.069-1.326-0.209c-0.402-0.139-0.748-0.333-1.038-0.582
			s-0.516-0.546-0.678-0.891s-0.244-0.72-0.244-1.126c0-0.99,0.37-1.757,1.108-2.299c0.739-0.541,1.842-0.812,3.308-0.812h1.347
			v-0.556c0-0.452-0.147-0.811-0.443-1.074c-0.295-0.264-0.721-0.396-1.277-0.396c-0.492,0-0.852,0.106-1.078,0.317
			c-0.226,0.212-0.339,0.494-0.339,0.848h-2.416c0-0.399,0.088-0.779,0.266-1.139c0.176-0.359,0.435-0.675,0.773-0.947
			s0.753-0.488,1.242-0.647c0.49-0.159,1.051-0.239,1.683-0.239c0.567,0,1.096,0.069,1.586,0.209
			c0.489,0.139,0.914,0.345,1.273,0.617c0.358,0.272,0.64,0.615,0.843,1.029c0.203,0.415,0.304,0.895,0.304,1.438v4.033
			c0,0.504,0.032,0.921,0.096,1.252c0.064,0.33,0.156,0.613,0.278,0.852v0.147H1258.074z M1255.771,431.945
			c0.243,0,0.469-0.029,0.678-0.087c0.209-0.059,0.396-0.134,0.564-0.227c0.169-0.093,0.313-0.198,0.435-0.317
			c0.122-0.118,0.218-0.239,0.287-0.36v-1.617h-1.234c-0.376,0-0.698,0.037-0.965,0.109c-0.266,0.072-0.483,0.174-0.651,0.304
			c-0.168,0.131-0.293,0.287-0.374,0.47s-0.121,0.381-0.121,0.596c0,0.324,0.114,0.594,0.343,0.808
			C1254.962,431.838,1255.308,431.945,1255.771,431.945z"/>
		<path fill="#010101" d="M1263.385,420.29h5.259v11.386h2.694v1.964h-7.953v-1.964h2.816v-9.413h-2.816V420.29z"/>
		<path fill="#010101" d="M1279.438,433.64c-0.058-0.116-0.107-0.249-0.147-0.399c-0.041-0.151-0.075-0.311-0.104-0.479
			c-0.133,0.145-0.287,0.281-0.461,0.408c-0.174,0.128-0.366,0.239-0.577,0.335c-0.212,0.096-0.445,0.171-0.7,0.226
			c-0.255,0.056-0.53,0.083-0.825,0.083c-0.481,0-0.923-0.069-1.326-0.209c-0.402-0.139-0.748-0.333-1.038-0.582
			s-0.516-0.546-0.678-0.891s-0.244-0.72-0.244-1.126c0-0.99,0.37-1.757,1.108-2.299c0.739-0.541,1.842-0.812,3.308-0.812h1.347
			v-0.556c0-0.452-0.147-0.811-0.443-1.074c-0.295-0.264-0.721-0.396-1.277-0.396c-0.492,0-0.852,0.106-1.078,0.317
			c-0.226,0.212-0.339,0.494-0.339,0.848h-2.416c0-0.399,0.088-0.779,0.266-1.139c0.176-0.359,0.435-0.675,0.773-0.947
			s0.753-0.488,1.242-0.647c0.49-0.159,1.051-0.239,1.683-0.239c0.567,0,1.096,0.069,1.586,0.209
			c0.489,0.139,0.914,0.345,1.273,0.617c0.358,0.272,0.64,0.615,0.843,1.029c0.203,0.415,0.304,0.895,0.304,1.438v4.033
			c0,0.504,0.032,0.921,0.096,1.252c0.064,0.33,0.156,0.613,0.278,0.852v0.147H1279.438z M1277.135,431.945
			c0.243,0,0.469-0.029,0.678-0.087c0.209-0.059,0.396-0.134,0.564-0.227c0.169-0.093,0.313-0.198,0.435-0.317
			c0.122-0.118,0.218-0.239,0.287-0.36v-1.617h-1.234c-0.376,0-0.698,0.037-0.965,0.109c-0.266,0.072-0.483,0.174-0.651,0.304
			c-0.168,0.131-0.293,0.287-0.374,0.47s-0.121,0.381-0.121,0.596c0,0.324,0.114,0.594,0.343,0.808
			C1276.325,431.838,1276.671,431.945,1277.135,431.945z"/>
		<path fill="#010101" d="M1286.435,424.235l0.147,1.304c0.336-0.469,0.744-0.833,1.226-1.091c0.48-0.258,1.014-0.387,1.599-0.387
			c0.476,0,0.91,0.069,1.304,0.209c0.395,0.139,0.735,0.36,1.021,0.665c0.287,0.304,0.51,0.695,0.67,1.173
			c0.159,0.479,0.238,1.06,0.238,1.743v5.788h-2.416v-5.754c0-0.37-0.042-0.676-0.126-0.917c-0.084-0.24-0.204-0.43-0.36-0.569
			c-0.157-0.139-0.345-0.235-0.565-0.291c-0.22-0.055-0.469-0.082-0.747-0.082c-0.412,0-0.762,0.082-1.052,0.247
			s-0.524,0.393-0.704,0.683v6.684h-2.425v-9.404H1286.435z"/>
		<path fill="#010101" d="M1299.089,431.884c0.237,0,0.464-0.034,0.678-0.104c0.215-0.069,0.403-0.168,0.565-0.295
			c0.162-0.128,0.288-0.281,0.378-0.461s0.129-0.379,0.117-0.6h2.277c0.012,0.486-0.089,0.938-0.3,1.355
			c-0.212,0.418-0.5,0.777-0.865,1.078c-0.365,0.302-0.789,0.537-1.273,0.708c-0.483,0.171-0.995,0.257-1.534,0.257
			c-0.729,0-1.37-0.123-1.92-0.369c-0.551-0.246-1.01-0.584-1.378-1.013s-0.646-0.932-0.834-1.508
			c-0.188-0.577-0.283-1.195-0.283-1.855v-0.262c0-0.66,0.093-1.278,0.278-1.855c0.186-0.576,0.464-1.079,0.834-1.508
			c0.371-0.429,0.83-0.768,1.378-1.017s1.184-0.374,1.908-0.374c0.579,0,1.115,0.087,1.607,0.261s0.917,0.419,1.273,0.734
			c0.356,0.316,0.633,0.698,0.83,1.147s0.29,0.952,0.278,1.508h-2.277c0.012-0.231-0.023-0.452-0.104-0.66
			c-0.081-0.209-0.2-0.389-0.356-0.539s-0.345-0.271-0.564-0.36c-0.221-0.09-0.461-0.135-0.722-0.135
			c-0.382,0-0.698,0.078-0.947,0.234s-0.447,0.365-0.596,0.626c-0.147,0.261-0.252,0.559-0.312,0.896
			c-0.061,0.336-0.092,0.684-0.092,1.042v0.262c0,0.364,0.029,0.717,0.087,1.056c0.059,0.339,0.161,0.638,0.309,0.896
			c0.148,0.258,0.348,0.465,0.601,0.621C1298.381,431.806,1298.7,431.884,1299.089,431.884z"/>
		<path fill="#010101" d="M1310.17,433.813c-0.724,0-1.382-0.119-1.973-0.356s-1.098-0.561-1.521-0.969
			c-0.424-0.409-0.749-0.89-0.979-1.443c-0.229-0.553-0.343-1.146-0.343-1.777v-0.348c0-0.718,0.112-1.374,0.339-1.969
			c0.226-0.594,0.542-1.104,0.947-1.533s0.887-0.763,1.442-1c0.557-0.237,1.162-0.356,1.817-0.356c0.678,0,1.281,0.112,1.812,0.335
			s0.979,0.537,1.348,0.942c0.367,0.406,0.647,0.895,0.839,1.465c0.19,0.571,0.286,1.201,0.286,1.891v1.025h-6.379
			c0.046,0.318,0.14,0.61,0.282,0.874c0.142,0.264,0.323,0.49,0.543,0.682c0.221,0.191,0.473,0.339,0.756,0.443
			c0.284,0.104,0.595,0.156,0.931,0.156c0.237,0,0.474-0.022,0.708-0.069c0.234-0.046,0.459-0.114,0.674-0.204
			c0.214-0.09,0.414-0.201,0.6-0.335c0.186-0.133,0.348-0.289,0.486-0.469l1.208,1.304c-0.15,0.214-0.346,0.424-0.586,0.63
			c-0.241,0.206-0.524,0.389-0.853,0.548c-0.327,0.159-0.69,0.288-1.091,0.387C1311.065,433.765,1310.634,433.813,1310.17,433.813z
			 M1309.884,426.018c-0.272,0-0.521,0.048-0.748,0.144c-0.226,0.095-0.424,0.232-0.595,0.412s-0.314,0.395-0.431,0.644
			s-0.203,0.527-0.261,0.834h3.963v-0.19c-0.011-0.256-0.061-0.496-0.147-0.722c-0.087-0.227-0.211-0.422-0.374-0.587
			c-0.162-0.165-0.36-0.296-0.595-0.391C1310.462,426.065,1310.19,426.018,1309.884,426.018z"/>
	</g>
	<g>
		<rect x="317.552" y="149.51" fill="none" width="224.992" height="27.056"/>
		<path fill="#010101" d="M383.102,162.86v-12.655h4.25c0.689,0,1.317,0.07,1.882,0.208c0.565,0.139,1.047,0.351,1.447,0.635
			s0.708,0.643,0.926,1.078c0.217,0.435,0.326,0.947,0.326,1.539c-0.006,0.591-0.164,1.121-0.474,1.59s-0.767,0.826-1.369,1.069
			c0.365,0.093,0.681,0.232,0.948,0.417c0.266,0.186,0.488,0.404,0.665,0.656s0.307,0.527,0.391,0.826s0.126,0.607,0.126,0.925
			c0,0.608-0.104,1.145-0.312,1.608c-0.209,0.464-0.507,0.852-0.896,1.165c-0.388,0.312-0.86,0.547-1.417,0.704
			c-0.556,0.157-1.182,0.235-1.877,0.235H383.102z M385.553,155.516h1.816c0.678-0.006,1.199-0.148,1.564-0.426
			c0.365-0.278,0.55-0.687,0.556-1.226c0-0.591-0.183-1.016-0.547-1.273c-0.365-0.258-0.893-0.39-1.582-0.396h-1.808V155.516z
			 M385.553,157.28v3.607h2.173c0.666-0.005,1.175-0.169,1.525-0.491c0.351-0.322,0.526-0.743,0.526-1.265
			c0.005-0.58-0.151-1.031-0.47-1.356c-0.318-0.324-0.811-0.49-1.478-0.496H385.553z"/>
		<path fill="#010101" d="M399.763,162.86c-0.058-0.116-0.107-0.249-0.148-0.4c-0.041-0.15-0.075-0.31-0.104-0.478
			c-0.133,0.145-0.287,0.281-0.46,0.409s-0.367,0.239-0.578,0.334s-0.445,0.171-0.7,0.226s-0.53,0.083-0.826,0.083
			c-0.481,0-0.922-0.069-1.325-0.208s-0.749-0.333-1.039-0.583c-0.29-0.249-0.516-0.546-0.678-0.891s-0.243-0.72-0.243-1.125
			c0-0.991,0.37-1.757,1.108-2.299c0.739-0.542,1.841-0.812,3.307-0.812h1.347v-0.556c0-0.452-0.147-0.81-0.443-1.073
			c-0.296-0.264-0.722-0.396-1.278-0.396c-0.493,0-0.852,0.105-1.078,0.317c-0.226,0.211-0.339,0.494-0.339,0.847h-2.417
			c0-0.4,0.088-0.779,0.265-1.139c0.177-0.359,0.435-0.675,0.773-0.947c0.339-0.272,0.753-0.488,1.243-0.647
			c0.489-0.159,1.05-0.239,1.682-0.239c0.568,0,1.097,0.07,1.586,0.209c0.49,0.139,0.914,0.345,1.273,0.617
			c0.359,0.272,0.64,0.616,0.843,1.03c0.203,0.414,0.304,0.894,0.304,1.438v4.033c0,0.504,0.032,0.921,0.096,1.251
			c0.063,0.33,0.156,0.614,0.278,0.852v0.148H399.763z M397.46,161.165c0.243,0,0.469-0.029,0.678-0.087
			c0.208-0.058,0.397-0.133,0.565-0.226c0.168-0.092,0.313-0.198,0.435-0.317c0.122-0.119,0.217-0.239,0.287-0.36v-1.617h-1.234
			c-0.377,0-0.698,0.036-0.965,0.109c-0.267,0.072-0.484,0.174-0.652,0.304s-0.292,0.287-0.374,0.469
			c-0.082,0.183-0.122,0.381-0.122,0.595c0,0.325,0.115,0.594,0.343,0.808C396.65,161.058,396.996,161.165,397.46,161.165z"/>
		<path fill="#010101" d="M405.073,149.51h5.258v11.386h2.694v1.964h-7.953v-1.964h2.816v-9.413h-2.816V149.51z"/>
		<path fill="#010101" d="M421.126,162.86c-0.058-0.116-0.107-0.249-0.148-0.4c-0.041-0.15-0.075-0.31-0.104-0.478
			c-0.133,0.145-0.287,0.281-0.46,0.409s-0.367,0.239-0.578,0.334s-0.445,0.171-0.7,0.226s-0.53,0.083-0.826,0.083
			c-0.481,0-0.922-0.069-1.325-0.208s-0.749-0.333-1.039-0.583c-0.29-0.249-0.516-0.546-0.678-0.891s-0.243-0.72-0.243-1.125
			c0-0.991,0.37-1.757,1.108-2.299c0.739-0.542,1.841-0.812,3.307-0.812h1.347v-0.556c0-0.452-0.147-0.81-0.443-1.073
			c-0.296-0.264-0.722-0.396-1.278-0.396c-0.493,0-0.852,0.105-1.078,0.317c-0.226,0.211-0.339,0.494-0.339,0.847h-2.417
			c0-0.4,0.088-0.779,0.265-1.139c0.177-0.359,0.435-0.675,0.773-0.947c0.339-0.272,0.753-0.488,1.243-0.647
			c0.489-0.159,1.05-0.239,1.682-0.239c0.568,0,1.097,0.07,1.586,0.209c0.49,0.139,0.914,0.345,1.273,0.617
			c0.359,0.272,0.64,0.616,0.843,1.03c0.203,0.414,0.304,0.894,0.304,1.438v4.033c0,0.504,0.032,0.921,0.096,1.251
			c0.063,0.33,0.156,0.614,0.278,0.852v0.148H421.126z M418.823,161.165c0.243,0,0.469-0.029,0.678-0.087
			c0.208-0.058,0.397-0.133,0.565-0.226c0.168-0.092,0.313-0.198,0.435-0.317c0.122-0.119,0.217-0.239,0.287-0.36v-1.617h-1.234
			c-0.377,0-0.698,0.036-0.965,0.109c-0.267,0.072-0.484,0.174-0.652,0.304s-0.292,0.287-0.374,0.469
			c-0.082,0.183-0.122,0.381-0.122,0.595c0,0.325,0.115,0.594,0.343,0.808C418.013,161.058,418.359,161.165,418.823,161.165z"/>
		<path fill="#010101" d="M428.123,153.456l0.148,1.304c0.336-0.469,0.745-0.833,1.226-1.091c0.481-0.257,1.014-0.387,1.599-0.387
			c0.475,0,0.91,0.07,1.304,0.209c0.394,0.139,0.734,0.36,1.021,0.665c0.287,0.304,0.51,0.695,0.669,1.173s0.239,1.059,0.239,1.743
			v5.789h-2.417v-5.754c0-0.371-0.042-0.676-0.126-0.917c-0.084-0.241-0.204-0.431-0.361-0.569
			c-0.156-0.139-0.345-0.236-0.565-0.292c-0.22-0.055-0.469-0.083-0.747-0.083c-0.412,0-0.762,0.083-1.052,0.248
			c-0.29,0.165-0.524,0.393-0.704,0.682v6.684h-2.425v-9.404H428.123z"/>
		<path fill="#010101" d="M440.777,161.104c0.237,0,0.463-0.035,0.678-0.104c0.214-0.07,0.403-0.168,0.565-0.295
			s0.289-0.281,0.378-0.461c0.09-0.179,0.129-0.379,0.117-0.6h2.277c0.011,0.487-0.088,0.938-0.3,1.356
			c-0.212,0.417-0.5,0.776-0.865,1.078c-0.365,0.301-0.79,0.538-1.273,0.708c-0.484,0.171-0.995,0.256-1.534,0.256
			c-0.73,0-1.371-0.123-1.921-0.37c-0.55-0.246-1.01-0.583-1.377-1.012c-0.368-0.429-0.646-0.932-0.834-1.508
			c-0.188-0.576-0.282-1.195-0.282-1.855v-0.261c0-0.661,0.092-1.279,0.278-1.855s0.463-1.079,0.834-1.508
			c0.371-0.429,0.83-0.768,1.377-1.017c0.548-0.249,1.184-0.374,1.908-0.374c0.58,0,1.116,0.087,1.608,0.261
			c0.493,0.174,0.917,0.419,1.273,0.734c0.356,0.316,0.633,0.699,0.83,1.147c0.197,0.449,0.29,0.952,0.278,1.508h-2.277
			c0.012-0.231-0.023-0.452-0.104-0.66c-0.081-0.209-0.2-0.388-0.356-0.539c-0.157-0.15-0.345-0.271-0.565-0.361
			c-0.221-0.09-0.461-0.135-0.722-0.135c-0.382,0-0.698,0.079-0.947,0.235s-0.448,0.365-0.595,0.626
			c-0.148,0.261-0.252,0.559-0.313,0.895c-0.061,0.336-0.091,0.684-0.091,1.043v0.261c0,0.365,0.029,0.717,0.087,1.056
			c0.058,0.339,0.161,0.637,0.309,0.895c0.147,0.258,0.348,0.465,0.6,0.622C440.069,161.026,440.389,161.104,440.777,161.104z"/>
		<path fill="#010101" d="M451.859,163.034c-0.725,0-1.382-0.119-1.973-0.356c-0.591-0.237-1.098-0.561-1.521-0.969
			c-0.423-0.409-0.749-0.89-0.978-1.443c-0.229-0.553-0.343-1.146-0.343-1.777v-0.348c0-0.719,0.113-1.375,0.339-1.969
			s0.542-1.105,0.947-1.534c0.405-0.429,0.887-0.762,1.443-1c0.556-0.237,1.162-0.356,1.816-0.356c0.678,0,1.282,0.112,1.812,0.335
			s0.979,0.538,1.347,0.943c0.368,0.406,0.647,0.894,0.839,1.464c0.191,0.571,0.287,1.201,0.287,1.891v1.025h-6.379
			c0.046,0.319,0.141,0.61,0.283,0.874c0.142,0.264,0.323,0.491,0.543,0.682c0.22,0.191,0.472,0.339,0.756,0.443
			c0.284,0.104,0.594,0.157,0.93,0.157c0.238,0,0.474-0.023,0.708-0.07s0.459-0.114,0.674-0.204c0.214-0.09,0.414-0.201,0.6-0.334
			c0.185-0.133,0.348-0.29,0.487-0.47l1.208,1.304c-0.151,0.215-0.346,0.425-0.587,0.63c-0.24,0.206-0.524,0.388-0.852,0.547
			c-0.328,0.16-0.691,0.289-1.091,0.387C452.754,162.984,452.322,163.034,451.859,163.034z M451.572,155.237
			c-0.272,0-0.521,0.048-0.747,0.144c-0.226,0.096-0.425,0.233-0.596,0.413s-0.314,0.394-0.43,0.643s-0.203,0.527-0.261,0.834h3.963
			v-0.191c-0.012-0.255-0.061-0.496-0.148-0.721c-0.087-0.226-0.211-0.422-0.374-0.587s-0.361-0.295-0.595-0.391
			C452.15,155.285,451.879,155.237,451.572,155.237z"/>
		<path fill="#010101" d="M476.898,158.045c0,0.817-0.094,1.537-0.282,2.16c-0.188,0.623-0.459,1.145-0.813,1.564
			c-0.354,0.42-0.785,0.737-1.295,0.952s-1.083,0.322-1.721,0.322c-0.632,0-1.203-0.107-1.712-0.322s-0.943-0.531-1.299-0.952
			c-0.356-0.42-0.631-0.941-0.826-1.564c-0.194-0.623-0.291-1.343-0.291-2.16v-3.025c0-0.817,0.096-1.537,0.287-2.16
			c0.191-0.623,0.465-1.144,0.821-1.564c0.356-0.42,0.788-0.737,1.295-0.952c0.507-0.214,1.077-0.322,1.708-0.322
			c0.637,0,1.211,0.107,1.721,0.322c0.51,0.214,0.943,0.532,1.299,0.952c0.356,0.42,0.63,0.942,0.821,1.564
			c0.191,0.623,0.287,1.343,0.287,2.16V158.045z M471.093,157.002l3.372-2.512c-0.017-0.852-0.165-1.483-0.443-1.895
			c-0.278-0.411-0.695-0.617-1.251-0.617c-0.562,0-0.982,0.217-1.26,0.652c-0.278,0.435-0.417,1.104-0.417,2.008V157.002z
			 M474.465,156.133l-3.372,2.503c0.029,0.834,0.183,1.453,0.46,1.856c0.278,0.402,0.689,0.604,1.234,0.604
			c0.568,0,0.989-0.22,1.265-0.661c0.275-0.44,0.413-1.115,0.413-2.025V156.133z"/>
	</g>
</g>
<g>
</g>
<g>
</g>
<g>
</g>
<g>
</g>
<g>
</g>
<g>
</g>
<g>
</g>
<g>
</g>
</svg>
