<?xml version="1.0" encoding="utf-8"?>
<!-- Generator: Adobe Illustrator 16.0.4, SVG Export Plug-In . SVG Version: 6.00 Build 0)  -->
<!DOCTYPE svg PUBLIC "-//W3C//DTD SVG 1.1//EN" "http://www.w3.org/Graphics/SVG/1.1/DTD/svg11.dtd">
<svg version="1.1" id="Layer_1" xmlns="http://www.w3.org/2000/svg" xmlns:xlink="http://www.w3.org/1999/xlink" x="0px" y="0px"
	 width="1366px" height="768px" viewBox="0 0 1366 768" enable-background="new 0 0 1366 768" xml:space="preserve">
<g>
	<rect y="-0.211" fill="#FFFFFF" width="1367.038" height="768.96"/>
	<g>
		<rect x="833.989" y="149.154" fill="none" width="224.992" height="27.056"/>
		<path fill="#010101" d="M899.539,162.504V149.85h4.25c0.689,0,1.318,0.07,1.883,0.208c0.564,0.139,1.047,0.351,1.447,0.635
			c0.398,0.284,0.707,0.643,0.926,1.078c0.217,0.435,0.324,0.947,0.324,1.539c-0.004,0.591-0.162,1.121-0.473,1.59
			s-0.766,0.826-1.369,1.069c0.365,0.093,0.682,0.232,0.947,0.417c0.268,0.186,0.488,0.404,0.666,0.656
			c0.176,0.252,0.307,0.527,0.391,0.826s0.125,0.607,0.125,0.925c0,0.608-0.104,1.145-0.312,1.608
			c-0.209,0.464-0.506,0.852-0.895,1.165c-0.389,0.312-0.861,0.547-1.418,0.704c-0.555,0.157-1.182,0.235-1.877,0.235H899.539z
			 M901.99,155.16h1.816c0.678-0.006,1.199-0.148,1.564-0.426c0.365-0.278,0.551-0.687,0.557-1.226c0-0.591-0.182-1.016-0.547-1.273
			s-0.893-0.39-1.582-0.396h-1.809V155.16z M901.99,156.924v3.607h2.174c0.666-0.005,1.174-0.169,1.525-0.491
			c0.35-0.322,0.525-0.743,0.525-1.265c0.006-0.58-0.15-1.031-0.469-1.356c-0.32-0.324-0.812-0.49-1.479-0.496H901.99z"/>
		<path fill="#010101" d="M916.201,162.504c-0.059-0.116-0.107-0.249-0.148-0.4c-0.041-0.15-0.074-0.31-0.104-0.478
			c-0.133,0.145-0.287,0.281-0.461,0.409s-0.367,0.239-0.578,0.334s-0.445,0.171-0.699,0.226c-0.256,0.055-0.531,0.083-0.826,0.083
			c-0.48,0-0.922-0.069-1.326-0.208c-0.402-0.139-0.748-0.333-1.037-0.583c-0.291-0.249-0.516-0.546-0.678-0.891
			s-0.244-0.72-0.244-1.125c0-0.991,0.369-1.757,1.107-2.299c0.74-0.542,1.842-0.812,3.309-0.812h1.346v-0.556
			c0-0.452-0.146-0.81-0.443-1.073c-0.295-0.264-0.721-0.396-1.277-0.396c-0.492,0-0.852,0.105-1.078,0.317
			c-0.225,0.211-0.338,0.494-0.338,0.847h-2.416c0-0.4,0.088-0.779,0.266-1.139c0.176-0.359,0.434-0.675,0.773-0.947
			c0.338-0.272,0.752-0.488,1.242-0.647s1.051-0.239,1.682-0.239c0.568,0,1.096,0.07,1.586,0.209
			c0.49,0.139,0.914,0.345,1.273,0.617c0.359,0.272,0.641,0.616,0.844,1.03c0.203,0.414,0.303,0.894,0.303,1.438v4.033
			c0,0.504,0.033,0.921,0.096,1.251c0.064,0.33,0.156,0.614,0.279,0.852v0.148H916.201z M913.898,160.81
			c0.242,0,0.469-0.029,0.678-0.087c0.209-0.058,0.396-0.133,0.564-0.226c0.168-0.092,0.312-0.198,0.434-0.317
			c0.123-0.119,0.219-0.239,0.287-0.36v-1.617h-1.234c-0.375,0-0.697,0.036-0.965,0.109c-0.266,0.072-0.482,0.174-0.65,0.304
			s-0.293,0.287-0.375,0.469c-0.08,0.183-0.121,0.381-0.121,0.595c0,0.325,0.115,0.594,0.344,0.808
			C913.088,160.703,913.434,160.81,913.898,160.81z"/>
		<path fill="#010101" d="M921.512,149.154h5.258v11.386h2.695v1.964h-7.953v-1.964h2.816v-9.413h-2.816V149.154z"/>
		<path fill="#010101" d="M937.564,162.504c-0.059-0.116-0.107-0.249-0.148-0.4c-0.041-0.15-0.074-0.31-0.104-0.478
			c-0.133,0.145-0.287,0.281-0.461,0.409s-0.367,0.239-0.578,0.334s-0.445,0.171-0.699,0.226c-0.256,0.055-0.531,0.083-0.826,0.083
			c-0.48,0-0.922-0.069-1.326-0.208c-0.402-0.139-0.748-0.333-1.037-0.583c-0.291-0.249-0.516-0.546-0.678-0.891
			s-0.244-0.72-0.244-1.125c0-0.991,0.369-1.757,1.107-2.299c0.74-0.542,1.842-0.812,3.309-0.812h1.346v-0.556
			c0-0.452-0.146-0.81-0.443-1.073c-0.295-0.264-0.721-0.396-1.277-0.396c-0.492,0-0.852,0.105-1.078,0.317
			c-0.225,0.211-0.338,0.494-0.338,0.847h-2.416c0-0.4,0.088-0.779,0.266-1.139c0.176-0.359,0.434-0.675,0.773-0.947
			c0.338-0.272,0.752-0.488,1.242-0.647s1.051-0.239,1.682-0.239c0.568,0,1.096,0.07,1.586,0.209
			c0.49,0.139,0.914,0.345,1.273,0.617c0.359,0.272,0.641,0.616,0.844,1.03c0.203,0.414,0.303,0.894,0.303,1.438v4.033
			c0,0.504,0.033,0.921,0.096,1.251c0.064,0.33,0.156,0.614,0.279,0.852v0.148H937.564z M935.262,160.81
			c0.242,0,0.469-0.029,0.678-0.087c0.209-0.058,0.396-0.133,0.564-0.226c0.168-0.092,0.312-0.198,0.434-0.317
			c0.123-0.119,0.219-0.239,0.287-0.36v-1.617h-1.234c-0.375,0-0.697,0.036-0.965,0.109c-0.266,0.072-0.482,0.174-0.65,0.304
			s-0.293,0.287-0.375,0.469c-0.08,0.183-0.121,0.381-0.121,0.595c0,0.325,0.115,0.594,0.344,0.808
			C934.451,160.703,934.797,160.81,935.262,160.81z"/>
		<path fill="#010101" d="M944.561,153.1l0.148,1.304c0.336-0.469,0.744-0.833,1.225-1.091c0.48-0.257,1.014-0.387,1.6-0.387
			c0.475,0,0.91,0.07,1.303,0.209c0.395,0.139,0.736,0.36,1.021,0.665c0.287,0.304,0.51,0.695,0.67,1.173s0.238,1.059,0.238,1.743
			v5.789h-2.416v-5.754c0-0.371-0.041-0.676-0.125-0.917c-0.084-0.241-0.205-0.431-0.361-0.569
			c-0.156-0.139-0.344-0.236-0.564-0.292c-0.221-0.055-0.469-0.083-0.748-0.083c-0.412,0-0.762,0.083-1.051,0.248
			c-0.291,0.165-0.525,0.393-0.705,0.682v6.684h-2.424V153.1H944.561z"/>
		<path fill="#010101" d="M957.215,160.749c0.238,0,0.465-0.035,0.678-0.104c0.215-0.07,0.404-0.168,0.566-0.295
			s0.287-0.281,0.377-0.461c0.09-0.179,0.129-0.379,0.117-0.6h2.277c0.012,0.487-0.088,0.938-0.299,1.356
			c-0.213,0.417-0.5,0.776-0.865,1.078s-0.789,0.538-1.273,0.708s-0.996,0.256-1.535,0.256c-0.729,0-1.369-0.123-1.92-0.37
			c-0.551-0.246-1.01-0.583-1.377-1.012c-0.369-0.429-0.646-0.932-0.834-1.508c-0.189-0.576-0.283-1.195-0.283-1.855v-0.261
			c0-0.661,0.092-1.279,0.277-1.855s0.465-1.079,0.834-1.508c0.371-0.429,0.83-0.768,1.379-1.017
			c0.547-0.249,1.184-0.374,1.908-0.374c0.578,0,1.115,0.087,1.607,0.261s0.916,0.419,1.273,0.734
			c0.355,0.316,0.633,0.699,0.83,1.147c0.197,0.449,0.289,0.952,0.277,1.508h-2.277c0.012-0.231-0.023-0.452-0.104-0.66
			c-0.082-0.209-0.201-0.388-0.357-0.539c-0.156-0.15-0.344-0.271-0.564-0.361s-0.461-0.135-0.721-0.135
			c-0.383,0-0.699,0.079-0.947,0.235c-0.25,0.156-0.447,0.365-0.596,0.626s-0.252,0.559-0.312,0.895s-0.092,0.684-0.092,1.043v0.261
			c0,0.365,0.029,0.717,0.086,1.056c0.059,0.339,0.162,0.637,0.309,0.895c0.148,0.258,0.348,0.465,0.602,0.622
			C956.508,160.67,956.826,160.749,957.215,160.749z"/>
		<path fill="#010101" d="M968.297,162.678c-0.725,0-1.383-0.119-1.973-0.356c-0.592-0.237-1.098-0.561-1.521-0.969
			c-0.424-0.409-0.748-0.89-0.979-1.443c-0.229-0.553-0.342-1.146-0.342-1.777v-0.348c0-0.719,0.111-1.375,0.338-1.969
			s0.543-1.105,0.947-1.534c0.406-0.429,0.887-0.762,1.443-1c0.557-0.237,1.162-0.356,1.816-0.356c0.678,0,1.281,0.112,1.812,0.335
			c0.529,0.223,0.979,0.538,1.348,0.943c0.367,0.406,0.646,0.894,0.838,1.464c0.191,0.571,0.287,1.201,0.287,1.891v1.025h-6.379
			c0.045,0.319,0.139,0.61,0.281,0.874s0.324,0.491,0.543,0.682c0.221,0.191,0.473,0.339,0.756,0.443
			c0.285,0.104,0.596,0.157,0.932,0.157c0.236,0,0.473-0.023,0.707-0.07s0.459-0.114,0.674-0.204s0.414-0.201,0.6-0.334
			s0.348-0.29,0.486-0.47l1.209,1.304c-0.15,0.215-0.346,0.425-0.586,0.63c-0.242,0.206-0.525,0.388-0.854,0.547
			c-0.326,0.16-0.689,0.289-1.09,0.387C969.191,162.629,968.76,162.678,968.297,162.678z M968.01,154.882
			c-0.271,0-0.521,0.048-0.748,0.144c-0.225,0.096-0.424,0.233-0.594,0.413c-0.172,0.18-0.314,0.394-0.432,0.643
			c-0.115,0.249-0.203,0.527-0.26,0.834h3.963v-0.191c-0.012-0.255-0.061-0.496-0.148-0.721c-0.086-0.226-0.211-0.422-0.373-0.587
			s-0.361-0.295-0.596-0.391S968.316,154.882,968.01,154.882z"/>
		<path fill="#010101" d="M993.371,162.504h-8.631v-1.651l4.094-4.398c0.318-0.348,0.588-0.663,0.809-0.947
			c0.221-0.284,0.398-0.543,0.535-0.778c0.135-0.235,0.234-0.453,0.295-0.656c0.061-0.203,0.092-0.4,0.092-0.591
			c0-0.284-0.041-0.536-0.123-0.756c-0.08-0.22-0.195-0.407-0.342-0.561c-0.148-0.153-0.326-0.271-0.531-0.352
			s-0.434-0.122-0.682-0.122c-0.666,0-1.164,0.186-1.49,0.556c-0.328,0.371-0.492,0.89-0.492,1.556h-2.424
			c0-0.562,0.107-1.094,0.32-1.595c0.215-0.501,0.518-0.94,0.908-1.317c0.393-0.376,0.863-0.673,1.418-0.891
			c0.553-0.217,1.166-0.326,1.838-0.326c0.643,0,1.213,0.09,1.707,0.27c0.496,0.18,0.91,0.432,1.244,0.756
			c0.332,0.324,0.586,0.714,0.76,1.169c0.174,0.455,0.262,0.958,0.262,1.508c0,0.417-0.066,0.815-0.197,1.195
			c-0.129,0.379-0.314,0.754-0.555,1.125c-0.24,0.371-0.529,0.749-0.865,1.134c-0.336,0.385-0.711,0.79-1.121,1.212l-2.381,2.521
			h5.553V162.504z"/>
	</g>
	<rect x="952.272" y="235.427" fill="#C8D7E2" enable-background="new    " width="59.969" height="148.796"/>
	<g>
		<rect x="954.001" y="392.878" fill="none" width="58.238" height="25.372"/>
		<path fill="#010101" d="M978.609,407.148v-13.527h4.545c0.736,0,1.406,0.074,2.012,0.223c0.604,0.148,1.119,0.375,1.547,0.678
			c0.428,0.305,0.756,0.688,0.988,1.152s0.35,1.014,0.35,1.645c-0.006,0.632-0.176,1.199-0.508,1.701
			c-0.33,0.501-0.818,0.883-1.463,1.143c0.391,0.099,0.729,0.248,1.014,0.445c0.285,0.199,0.521,0.433,0.711,0.701
			c0.188,0.27,0.328,0.564,0.418,0.883c0.09,0.32,0.135,0.649,0.135,0.99c0,0.65-0.111,1.223-0.336,1.719
			c-0.223,0.496-0.541,0.91-0.957,1.245c-0.414,0.335-0.918,0.585-1.514,0.753c-0.594,0.167-1.264,0.25-2.006,0.25H978.609z
			 M981.23,399.298h1.941c0.725-0.007,1.283-0.158,1.674-0.456c0.389-0.297,0.588-0.733,0.594-1.31c0-0.632-0.195-1.085-0.586-1.361
			c-0.391-0.275-0.953-0.417-1.691-0.423h-1.932V399.298z M981.23,401.184v3.855h2.322c0.713-0.006,1.256-0.181,1.631-0.524
			s0.562-0.794,0.562-1.352c0.006-0.62-0.162-1.103-0.502-1.45c-0.34-0.346-0.867-0.523-1.58-0.529H981.23z"/>
	</g>
	<g>
		<rect x="870.966" y="392.878" fill="none" width="58.24" height="25.372"/>
		<path fill="#010101" d="M902.246,404.324h-4.061l-0.799,2.824h-2.752l4.434-13.527h2.369l4.348,13.527h-2.75L902.246,404.324z
			 M898.826,402.104h2.807l-1.385-4.98L898.826,402.104z"/>
	</g>
	<rect x="869.237" y="283.916" fill="#C8D7E2" enable-background="new    " width="59.969" height="100.307"/>
	
		<rect x="952.272" y="211.182" fill="none" stroke="#010101" stroke-width="1.068" stroke-miterlimit="10" stroke-dasharray="6.9196" width="59.969" height="24.245"/>
	
		<rect x="869.237" y="283.916" fill="none" stroke="#010101" stroke-width="1.068" stroke-miterlimit="10" stroke-dasharray="6.9196" width="59.969" height="24.245"/>
	<g>
		<g>
			<path fill="none" stroke="#010101" stroke-width="0.8649" stroke-miterlimit="10" d="M983.011,223.304h-78.022
				c-3.172,0-5.767,2.595-5.767,5.766v60.861"/>
			<g>
				<circle fill="#010101" cx="982.849" cy="223.304" r="3.252"/>
			</g>
			<g>
				<polygon fill="#010101" points="899.222,296.038 895.705,287.433 899.222,289.475 902.737,287.433 				"/>
			</g>
		</g>
	</g>
	<g>
		<rect x="884.661" y="339.274" fill="none" width="29.119" height="25.37"/>
		<path fill="#010101" d="M892.953,346.277h1.189v1.584h-1.189v2.224h-1.957v-2.224h-4.258l-0.078-1.225l4.307-6.799h1.986V346.277z
			 M888.582,346.277h2.414v-3.808l-0.189,0.338L888.582,346.277z"/>
		<path fill="#010101" d="M902.561,346.186c0,0.662-0.076,1.245-0.229,1.749s-0.373,0.927-0.658,1.267
			c-0.287,0.34-0.637,0.597-1.049,0.771c-0.414,0.174-0.877,0.261-1.395,0.261c-0.512,0-0.973-0.087-1.387-0.261
			c-0.412-0.173-0.764-0.43-1.051-0.771c-0.289-0.34-0.512-0.763-0.67-1.267c-0.156-0.504-0.236-1.087-0.236-1.749v-2.45
			c0-0.662,0.078-1.245,0.232-1.749c0.156-0.504,0.377-0.927,0.666-1.267s0.639-0.597,1.049-0.771c0.41-0.173,0.871-0.26,1.383-0.26
			c0.516,0,0.98,0.087,1.395,0.26c0.412,0.174,0.764,0.431,1.051,0.771c0.289,0.34,0.512,0.763,0.666,1.267s0.232,1.087,0.232,1.749
			V346.186z M897.859,345.341l2.73-2.034c-0.014-0.69-0.135-1.202-0.359-1.535s-0.562-0.5-1.014-0.5
			c-0.455,0-0.795,0.176-1.021,0.528c-0.225,0.352-0.336,0.894-0.336,1.626V345.341z M900.59,344.637l-2.73,2.027
			c0.023,0.676,0.146,1.177,0.373,1.503c0.225,0.326,0.557,0.489,0.998,0.489c0.461,0,0.803-0.179,1.025-0.535
			s0.334-0.903,0.334-1.64V344.637z"/>
		<path fill="#010101" d="M911.211,346.186c0,0.662-0.076,1.245-0.229,1.749s-0.373,0.927-0.658,1.267
			c-0.287,0.34-0.637,0.597-1.049,0.771c-0.414,0.174-0.877,0.261-1.395,0.261c-0.512,0-0.973-0.087-1.387-0.261
			c-0.412-0.173-0.764-0.43-1.051-0.771c-0.289-0.34-0.512-0.763-0.67-1.267c-0.156-0.504-0.236-1.087-0.236-1.749v-2.45
			c0-0.662,0.078-1.245,0.232-1.749c0.156-0.504,0.377-0.927,0.666-1.267s0.639-0.597,1.049-0.771c0.41-0.173,0.871-0.26,1.383-0.26
			c0.516,0,0.98,0.087,1.395,0.26c0.412,0.174,0.764,0.431,1.051,0.771c0.289,0.34,0.512,0.763,0.666,1.267s0.232,1.087,0.232,1.749
			V346.186z M906.51,345.341l2.73-2.034c-0.014-0.69-0.135-1.202-0.359-1.535s-0.562-0.5-1.014-0.5
			c-0.455,0-0.795,0.176-1.021,0.528c-0.225,0.352-0.336,0.894-0.336,1.626V345.341z M909.24,344.637l-2.73,2.027
			c0.023,0.676,0.146,1.177,0.373,1.503c0.225,0.326,0.557,0.489,0.998,0.489c0.461,0,0.803-0.179,1.025-0.535
			s0.334-0.903,0.334-1.64V344.637z"/>
	</g>
	<g>
		<rect x="967.696" y="339.274" fill="none" width="29.119" height="25.37"/>
		<path fill="#010101" d="M975.467,339.752v1.626h-0.113c-0.516,0-0.973,0.068-1.369,0.204s-0.734,0.329-1.012,0.577
			c-0.279,0.249-0.5,0.547-0.662,0.894s-0.264,0.734-0.307,1.161c0.107-0.117,0.232-0.233,0.373-0.348
			c0.141-0.115,0.299-0.218,0.475-0.31c0.176-0.091,0.367-0.165,0.574-0.222c0.207-0.056,0.43-0.084,0.668-0.084
			c0.488,0,0.914,0.093,1.277,0.278c0.365,0.185,0.668,0.437,0.912,0.753c0.244,0.317,0.426,0.685,0.545,1.105
			c0.121,0.42,0.18,0.862,0.18,1.327c0,0.498-0.08,0.959-0.238,1.387c-0.16,0.427-0.387,0.798-0.684,1.112
			c-0.295,0.314-0.654,0.562-1.076,0.743s-0.896,0.271-1.422,0.271c-0.549,0-1.045-0.102-1.486-0.306
			c-0.439-0.204-0.814-0.487-1.121-0.848c-0.309-0.361-0.545-0.79-0.711-1.285c-0.168-0.495-0.25-1.036-0.25-1.623v-0.753
			c0-0.812,0.109-1.564,0.33-2.256c0.221-0.692,0.549-1.291,0.986-1.795c0.436-0.504,0.979-0.899,1.625-1.183
			c0.648-0.284,1.396-0.426,2.246-0.426H975.467z M973.523,344.82c-0.352,0-0.662,0.094-0.932,0.282
			c-0.27,0.188-0.473,0.429-0.609,0.725v0.578c0,0.375,0.039,0.704,0.117,0.985c0.076,0.281,0.186,0.515,0.326,0.7
			c0.141,0.186,0.309,0.325,0.5,0.419c0.193,0.094,0.402,0.141,0.627,0.141c0.23,0,0.438-0.048,0.627-0.144
			c0.188-0.096,0.346-0.229,0.479-0.398c0.131-0.169,0.232-0.37,0.303-0.602c0.07-0.232,0.105-0.487,0.105-0.764
			s-0.035-0.533-0.105-0.768c-0.07-0.234-0.172-0.438-0.303-0.609c-0.133-0.171-0.293-0.305-0.482-0.401
			C973.984,344.869,973.768,344.82,973.523,344.82z"/>
		<path fill="#010101" d="M985.596,346.186c0,0.662-0.076,1.245-0.229,1.749s-0.373,0.927-0.658,1.267
			c-0.287,0.34-0.637,0.597-1.049,0.771c-0.414,0.174-0.877,0.261-1.395,0.261c-0.512,0-0.973-0.087-1.387-0.261
			c-0.412-0.173-0.764-0.43-1.051-0.771c-0.289-0.34-0.512-0.763-0.67-1.267c-0.156-0.504-0.236-1.087-0.236-1.749v-2.45
			c0-0.662,0.078-1.245,0.232-1.749c0.156-0.504,0.377-0.927,0.666-1.267s0.639-0.597,1.049-0.771c0.41-0.173,0.871-0.26,1.383-0.26
			c0.516,0,0.98,0.087,1.395,0.26c0.412,0.174,0.764,0.431,1.051,0.771c0.289,0.34,0.512,0.763,0.666,1.267s0.232,1.087,0.232,1.749
			V346.186z M980.895,345.341l2.73-2.034c-0.014-0.69-0.135-1.202-0.359-1.535s-0.562-0.5-1.014-0.5
			c-0.455,0-0.795,0.176-1.021,0.528c-0.225,0.352-0.336,0.894-0.336,1.626V345.341z M983.625,344.637l-2.73,2.027
			c0.023,0.676,0.146,1.177,0.373,1.503c0.225,0.326,0.557,0.489,0.998,0.489c0.461,0,0.803-0.179,1.025-0.535
			s0.334-0.903,0.334-1.64V344.637z"/>
		<path fill="#010101" d="M994.246,346.186c0,0.662-0.076,1.245-0.229,1.749s-0.373,0.927-0.658,1.267
			c-0.287,0.34-0.637,0.597-1.049,0.771c-0.414,0.174-0.877,0.261-1.395,0.261c-0.512,0-0.973-0.087-1.387-0.261
			c-0.412-0.173-0.764-0.43-1.051-0.771c-0.289-0.34-0.512-0.763-0.67-1.267c-0.156-0.504-0.236-1.087-0.236-1.749v-2.45
			c0-0.662,0.078-1.245,0.232-1.749c0.156-0.504,0.377-0.927,0.666-1.267s0.639-0.597,1.049-0.771c0.41-0.173,0.871-0.26,1.383-0.26
			c0.516,0,0.98,0.087,1.395,0.26c0.412,0.174,0.764,0.431,1.051,0.771c0.289,0.34,0.512,0.763,0.666,1.267s0.232,1.087,0.232,1.749
			V346.186z M989.545,345.341l2.73-2.034c-0.014-0.69-0.135-1.202-0.359-1.535s-0.562-0.5-1.014-0.5
			c-0.455,0-0.795,0.176-1.021,0.528c-0.225,0.352-0.336,0.894-0.336,1.626V345.341z M992.275,344.637l-2.73,2.027
			c0.023,0.676,0.146,1.177,0.373,1.503c0.225,0.326,0.557,0.489,0.998,0.489c0.461,0,0.803-0.179,1.025-0.535
			s0.334-0.903,0.334-1.64V344.637z"/>
	</g>
	<rect x="696.567" y="211.146" fill="#C8D7E2" enable-background="new    " width="59.969" height="173.041"/>
	<g>
		<rect x="571.024" y="149.154" fill="none" width="224.991" height="27.056"/>
		<path fill="#010101" d="M636.573,162.504V149.85h4.25c0.689,0,1.317,0.07,1.882,0.208c0.565,0.139,1.047,0.351,1.447,0.635
			s0.708,0.643,0.926,1.078c0.217,0.435,0.326,0.947,0.326,1.539c-0.006,0.591-0.164,1.121-0.474,1.59s-0.767,0.826-1.369,1.069
			c0.365,0.093,0.681,0.232,0.948,0.417c0.266,0.186,0.488,0.404,0.665,0.656s0.307,0.527,0.391,0.826s0.126,0.607,0.126,0.925
			c0,0.608-0.104,1.145-0.312,1.608c-0.209,0.464-0.507,0.852-0.896,1.165c-0.388,0.312-0.86,0.547-1.417,0.704
			c-0.556,0.157-1.182,0.235-1.877,0.235H636.573z M639.024,155.16h1.816c0.678-0.006,1.199-0.148,1.564-0.426
			c0.365-0.278,0.55-0.687,0.556-1.226c0-0.591-0.183-1.016-0.547-1.273c-0.365-0.258-0.893-0.39-1.582-0.396h-1.808V155.16z
			 M639.024,156.924v3.607h2.173c0.666-0.005,1.175-0.169,1.525-0.491c0.351-0.322,0.526-0.743,0.526-1.265
			c0.005-0.58-0.151-1.031-0.47-1.356c-0.318-0.324-0.811-0.49-1.478-0.496H639.024z"/>
		<path fill="#010101" d="M653.234,162.504c-0.058-0.116-0.107-0.249-0.148-0.4c-0.041-0.15-0.075-0.31-0.104-0.478
			c-0.133,0.145-0.287,0.281-0.46,0.409s-0.367,0.239-0.578,0.334s-0.445,0.171-0.7,0.226s-0.53,0.083-0.826,0.083
			c-0.481,0-0.922-0.069-1.325-0.208s-0.749-0.333-1.039-0.583c-0.29-0.249-0.516-0.546-0.678-0.891s-0.243-0.72-0.243-1.125
			c0-0.991,0.37-1.757,1.108-2.299c0.739-0.542,1.841-0.812,3.307-0.812h1.347v-0.556c0-0.452-0.147-0.81-0.443-1.073
			c-0.296-0.264-0.722-0.396-1.278-0.396c-0.493,0-0.852,0.105-1.078,0.317c-0.226,0.211-0.339,0.494-0.339,0.847h-2.417
			c0-0.4,0.088-0.779,0.265-1.139c0.177-0.359,0.435-0.675,0.773-0.947c0.339-0.272,0.753-0.488,1.243-0.647
			c0.489-0.159,1.05-0.239,1.682-0.239c0.568,0,1.097,0.07,1.586,0.209c0.49,0.139,0.914,0.345,1.273,0.617
			c0.359,0.272,0.64,0.616,0.843,1.03c0.203,0.414,0.304,0.894,0.304,1.438v4.033c0,0.504,0.032,0.921,0.096,1.251
			c0.063,0.33,0.156,0.614,0.278,0.852v0.148H653.234z M650.931,160.81c0.243,0,0.469-0.029,0.678-0.087
			c0.208-0.058,0.397-0.133,0.565-0.226c0.168-0.092,0.313-0.198,0.435-0.317c0.122-0.119,0.217-0.239,0.287-0.36v-1.617h-1.234
			c-0.377,0-0.698,0.036-0.965,0.109c-0.267,0.072-0.484,0.174-0.652,0.304s-0.292,0.287-0.374,0.469
			c-0.082,0.183-0.122,0.381-0.122,0.595c0,0.325,0.115,0.594,0.343,0.808C650.121,160.703,650.467,160.81,650.931,160.81z"/>
		<path fill="#010101" d="M658.544,149.154h5.259v11.386h2.694v1.964h-7.953v-1.964h2.816v-9.413h-2.816V149.154z"/>
		<path fill="#010101" d="M674.597,162.504c-0.058-0.116-0.107-0.249-0.147-0.4c-0.041-0.15-0.075-0.31-0.104-0.478
			c-0.133,0.145-0.287,0.281-0.461,0.409s-0.366,0.239-0.577,0.334c-0.212,0.096-0.445,0.171-0.7,0.226s-0.53,0.083-0.825,0.083
			c-0.481,0-0.923-0.069-1.326-0.208c-0.402-0.139-0.748-0.333-1.038-0.583c-0.29-0.249-0.516-0.546-0.678-0.891
			s-0.244-0.72-0.244-1.125c0-0.991,0.37-1.757,1.108-2.299c0.739-0.542,1.842-0.812,3.308-0.812h1.347v-0.556
			c0-0.452-0.147-0.81-0.443-1.073c-0.295-0.264-0.721-0.396-1.277-0.396c-0.492,0-0.852,0.105-1.078,0.317
			c-0.226,0.211-0.339,0.494-0.339,0.847h-2.416c0-0.4,0.088-0.779,0.266-1.139c0.176-0.359,0.435-0.675,0.773-0.947
			s0.753-0.488,1.242-0.647c0.49-0.159,1.051-0.239,1.683-0.239c0.567,0,1.096,0.07,1.586,0.209
			c0.489,0.139,0.914,0.345,1.273,0.617c0.358,0.272,0.64,0.616,0.843,1.03c0.203,0.414,0.304,0.894,0.304,1.438v4.033
			c0,0.504,0.032,0.921,0.096,1.251c0.064,0.33,0.156,0.614,0.278,0.852v0.148H674.597z M672.294,160.81
			c0.243,0,0.469-0.029,0.678-0.087c0.209-0.058,0.396-0.133,0.564-0.226c0.169-0.092,0.313-0.198,0.435-0.317
			c0.122-0.119,0.218-0.239,0.287-0.36v-1.617h-1.234c-0.376,0-0.698,0.036-0.965,0.109c-0.266,0.072-0.483,0.174-0.651,0.304
			s-0.293,0.287-0.374,0.469s-0.121,0.381-0.121,0.595c0,0.325,0.114,0.594,0.343,0.808
			C671.485,160.703,671.831,160.81,672.294,160.81z"/>
		<path fill="#010101" d="M681.594,153.1l0.147,1.304c0.336-0.469,0.744-0.833,1.226-1.091c0.48-0.257,1.014-0.387,1.599-0.387
			c0.475,0,0.91,0.07,1.303,0.209c0.395,0.139,0.736,0.36,1.021,0.665c0.287,0.304,0.51,0.695,0.67,1.173s0.238,1.059,0.238,1.743
			v5.789h-2.416v-5.754c0-0.371-0.041-0.676-0.125-0.917c-0.084-0.241-0.205-0.431-0.361-0.569
			c-0.156-0.139-0.344-0.236-0.564-0.292c-0.221-0.055-0.469-0.083-0.748-0.083c-0.412,0-0.762,0.083-1.052,0.248
			c-0.29,0.165-0.524,0.393-0.704,0.682v6.684h-2.425V153.1H681.594z"/>
		<path fill="#010101" d="M694.248,160.749c0.238,0,0.465-0.035,0.678-0.104c0.215-0.07,0.404-0.168,0.566-0.295
			s0.287-0.281,0.377-0.461c0.09-0.179,0.129-0.379,0.117-0.6h2.277c0.012,0.487-0.088,0.938-0.299,1.356
			c-0.213,0.417-0.5,0.776-0.865,1.078s-0.789,0.538-1.273,0.708s-0.996,0.256-1.535,0.256c-0.729,0-1.369-0.123-1.92-0.37
			c-0.551-0.246-1.01-0.583-1.377-1.012c-0.369-0.429-0.646-0.932-0.834-1.508c-0.189-0.576-0.283-1.195-0.283-1.855v-0.261
			c0-0.661,0.092-1.279,0.277-1.855s0.465-1.079,0.834-1.508c0.371-0.429,0.83-0.768,1.379-1.017
			c0.547-0.249,1.184-0.374,1.908-0.374c0.578,0,1.115,0.087,1.607,0.261s0.916,0.419,1.273,0.734
			c0.355,0.316,0.633,0.699,0.83,1.147c0.197,0.449,0.289,0.952,0.277,1.508h-2.277c0.012-0.231-0.023-0.452-0.104-0.66
			c-0.082-0.209-0.201-0.388-0.357-0.539c-0.156-0.15-0.344-0.271-0.564-0.361s-0.461-0.135-0.721-0.135
			c-0.383,0-0.699,0.079-0.947,0.235c-0.25,0.156-0.447,0.365-0.596,0.626s-0.252,0.559-0.312,0.895s-0.092,0.684-0.092,1.043v0.261
			c0,0.365,0.029,0.717,0.086,1.056c0.059,0.339,0.162,0.637,0.309,0.895c0.148,0.258,0.348,0.465,0.602,0.622
			C693.541,160.67,693.859,160.749,694.248,160.749z"/>
		<path fill="#010101" d="M705.33,162.678c-0.725,0-1.383-0.119-1.973-0.356c-0.592-0.237-1.098-0.561-1.521-0.969
			c-0.424-0.409-0.748-0.89-0.979-1.443c-0.229-0.553-0.342-1.146-0.342-1.777v-0.348c0-0.719,0.111-1.375,0.338-1.969
			s0.543-1.105,0.947-1.534c0.406-0.429,0.887-0.762,1.443-1c0.557-0.237,1.162-0.356,1.816-0.356c0.678,0,1.281,0.112,1.812,0.335
			c0.529,0.223,0.979,0.538,1.348,0.943c0.367,0.406,0.646,0.894,0.838,1.464c0.191,0.571,0.287,1.201,0.287,1.891v1.025h-6.379
			c0.045,0.319,0.139,0.61,0.281,0.874s0.324,0.491,0.543,0.682c0.221,0.191,0.473,0.339,0.756,0.443
			c0.285,0.104,0.596,0.157,0.932,0.157c0.236,0,0.473-0.023,0.707-0.07s0.459-0.114,0.674-0.204s0.414-0.201,0.6-0.334
			s0.348-0.29,0.486-0.47l1.209,1.304c-0.15,0.215-0.346,0.425-0.586,0.63c-0.242,0.206-0.525,0.388-0.854,0.547
			c-0.326,0.16-0.689,0.289-1.09,0.387C706.225,162.629,705.793,162.678,705.33,162.678z M705.043,154.882
			c-0.271,0-0.521,0.048-0.748,0.144c-0.225,0.096-0.424,0.233-0.594,0.413c-0.172,0.18-0.314,0.394-0.432,0.643
			c-0.115,0.249-0.203,0.527-0.26,0.834h3.963v-0.191c-0.012-0.255-0.061-0.496-0.148-0.721c-0.086-0.226-0.211-0.422-0.373-0.587
			s-0.361-0.295-0.596-0.391S705.35,154.882,705.043,154.882z"/>
		<path fill="#010101" d="M728.049,162.504h-2.441v-9.708l-3.199,1.147v-2.104l5.51-1.99h0.131V162.504z"/>
	</g>
	
		<rect x="696.567" y="211.146" fill="none" stroke="#010101" stroke-width="1.068" stroke-miterlimit="10" stroke-dasharray="6.9196" width="59.969" height="48.489"/>
	<g>
		<rect x="614.396" y="392.878" fill="none" width="58.24" height="25.372"/>
		<path fill="#010101" d="M645.675,404.324h-4.06l-0.799,2.824h-2.75l4.432-13.528h2.369l4.348,13.528h-2.75L645.675,404.324z
			 M642.256,402.104h2.806l-1.384-4.98L642.256,402.104z"/>
	</g>
	<g>
		<rect x="697.431" y="392.878" fill="none" width="58.24" height="25.372"/>
		<path fill="#010101" d="M722.039,407.148V393.62h4.545c0.736,0,1.406,0.074,2.012,0.224c0.604,0.148,1.119,0.374,1.547,0.678
			s0.756,0.688,0.988,1.152s0.35,1.013,0.35,1.645c-0.006,0.631-0.176,1.198-0.508,1.7c-0.33,0.501-0.818,0.883-1.463,1.143
			c0.391,0.099,0.729,0.248,1.014,0.446s0.521,0.432,0.711,0.701c0.188,0.27,0.328,0.564,0.418,0.883
			c0.09,0.319,0.135,0.648,0.135,0.99c0,0.65-0.111,1.223-0.336,1.719c-0.223,0.495-0.541,0.91-0.957,1.244
			c-0.414,0.335-0.918,0.586-1.514,0.753c-0.594,0.167-1.264,0.251-2.006,0.251H722.039z M724.66,399.297h1.941
			c0.725-0.006,1.283-0.158,1.674-0.455c0.389-0.297,0.588-0.734,0.594-1.311c0-0.631-0.195-1.085-0.586-1.361
			c-0.391-0.275-0.953-0.416-1.691-0.422h-1.932V399.297z M724.66,401.184v3.855h2.322c0.713-0.006,1.256-0.182,1.631-0.525
			s0.562-0.794,0.562-1.352c0.006-0.619-0.162-1.102-0.502-1.449c-0.34-0.347-0.867-0.523-1.58-0.529H724.66z"/>
	</g>
	<g>
		<g>
			<polyline fill="none" stroke="#010101" stroke-width="1.068" stroke-miterlimit="10" points="673.5,304.665 673.5,308.125 
				670.041,308.125 			"/>
			
				<line fill="none" stroke="#010101" stroke-width="1.068" stroke-miterlimit="10" stroke-dasharray="7.5787,7.5787" x1="662.462" y1="308.125" x2="620.779" y2="308.125"/>
			<polyline fill="none" stroke="#010101" stroke-width="1.068" stroke-miterlimit="10" points="616.99,308.125 613.53,308.125 
				613.53,304.665 			"/>
			
				<line fill="none" stroke="#010101" stroke-width="1.068" stroke-miterlimit="10" stroke-dasharray="5.9387,5.9387" x1="613.53" y1="298.727" x2="613.53" y2="266.064"/>
			<polyline fill="none" stroke="#010101" stroke-width="1.068" stroke-miterlimit="10" points="613.53,263.095 613.53,259.635 
				616.99,259.635 			"/>
			
				<line fill="none" stroke="#010101" stroke-width="1.068" stroke-miterlimit="10" stroke-dasharray="7.5787,7.5787" x1="624.569" y1="259.635" x2="666.251" y2="259.635"/>
			<polyline fill="none" stroke="#010101" stroke-width="1.068" stroke-miterlimit="10" points="670.041,259.635 673.5,259.635 
				673.5,263.095 			"/>
			
				<line fill="none" stroke="#010101" stroke-width="1.068" stroke-miterlimit="10" stroke-dasharray="5.9387,5.9387" x1="673.5" y1="269.033" x2="673.5" y2="301.696"/>
		</g>
	</g>
	<rect x="613.53" y="308.125" fill="#C8D7E2" enable-background="new    " width="59.97" height="76.062"/>
	<g>
		<g>
			<path fill="none" stroke="#010101" stroke-width="0.8649" stroke-miterlimit="10" d="M720.444,233.11h-71.163
				c-3.171,0-5.766,2.595-5.766,5.766v41.914"/>
			<g>
				<polygon fill="#010101" points="726.552,233.11 717.946,229.594 719.988,233.11 717.946,236.626 				"/>
			</g>
			<g>
				<circle fill="#010101" cx="643.515" cy="280.628" r="3.252"/>
			</g>
		</g>
	</g>
	<g>
		<rect x="629.205" y="339.238" fill="none" width="29.119" height="25.37"/>
		<path fill="#010101" d="M633.752,344.065h1.063c0.535,0,0.931-0.135,1.189-0.405c0.258-0.27,0.387-0.623,0.387-1.06
			c0-0.202-0.029-0.386-0.088-0.552c-0.059-0.167-0.147-0.31-0.264-0.43s-0.266-0.212-0.447-0.278
			c-0.181-0.066-0.391-0.099-0.63-0.099c-0.197,0-0.381,0.028-0.553,0.084s-0.321,0.137-0.451,0.243
			c-0.129,0.105-0.231,0.233-0.306,0.384s-0.112,0.319-0.112,0.507h-1.957c0-0.417,0.085-0.798,0.257-1.141
			c0.171-0.342,0.407-0.637,0.708-0.883c0.3-0.246,0.653-0.438,1.06-0.574c0.406-0.136,0.843-0.204,1.312-0.204
			c0.507,0,0.971,0.062,1.394,0.187c0.422,0.125,0.784,0.31,1.084,0.556c0.3,0.247,0.534,0.552,0.701,0.915
			c0.167,0.364,0.25,0.785,0.25,1.264c0,0.221-0.033,0.438-0.099,0.651c-0.066,0.214-0.162,0.417-0.289,0.609
			c-0.127,0.192-0.284,0.37-0.472,0.532c-0.188,0.162-0.404,0.301-0.647,0.418c0.286,0.104,0.534,0.235,0.742,0.395
			c0.209,0.16,0.381,0.341,0.518,0.545s0.237,0.428,0.303,0.672c0.065,0.244,0.099,0.502,0.099,0.774
			c0,0.479-0.092,0.906-0.275,1.281c-0.183,0.375-0.434,0.691-0.753,0.947c-0.319,0.256-0.698,0.451-1.137,0.584
			c-0.439,0.134-0.912,0.201-1.418,0.201c-0.437,0-0.862-0.06-1.277-0.179c-0.416-0.12-0.785-0.3-1.109-0.542
			s-0.583-0.546-0.778-0.912c-0.195-0.366-0.292-0.798-0.292-1.295h1.957c0,0.197,0.038,0.379,0.113,0.546s0.182,0.31,0.32,0.429
			c0.138,0.12,0.301,0.213,0.489,0.282c0.188,0.068,0.394,0.102,0.62,0.102c0.497,0,0.887-0.131,1.168-0.395
			c0.281-0.263,0.422-0.619,0.422-1.07c0-0.277-0.04-0.514-0.12-0.711c-0.08-0.197-0.196-0.359-0.348-0.486
			c-0.153-0.126-0.335-0.22-0.549-0.281c-0.213-0.061-0.454-0.092-0.721-0.092h-1.063V344.065z"/>
		<path fill="#010101" d="M647.105,346.149c0,0.662-0.077,1.245-0.229,1.749s-0.372,0.927-0.658,1.267s-0.636,0.597-1.049,0.771
			c-0.413,0.174-0.877,0.261-1.394,0.261c-0.512,0-0.974-0.087-1.387-0.261c-0.413-0.173-0.764-0.43-1.052-0.771
			s-0.512-0.763-0.668-1.267c-0.158-0.504-0.236-1.087-0.236-1.749v-2.45c0-0.662,0.077-1.245,0.232-1.749s0.377-0.927,0.666-1.267
			s0.638-0.597,1.049-0.771c0.41-0.173,0.872-0.26,1.383-0.26c0.516,0,0.981,0.087,1.394,0.26c0.413,0.174,0.764,0.431,1.052,0.771
			s0.51,0.763,0.665,1.267s0.232,1.087,0.232,1.749V346.149z M642.403,345.304l2.731-2.034c-0.014-0.69-0.134-1.202-0.359-1.535
			s-0.563-0.5-1.014-0.5c-0.455,0-0.795,0.176-1.021,0.528c-0.225,0.352-0.338,0.894-0.338,1.626V345.304z M645.134,344.6
			l-2.731,2.027c0.023,0.676,0.148,1.177,0.373,1.503s0.559,0.489,1,0.489c0.46,0,0.801-0.179,1.024-0.535
			c0.223-0.356,0.334-0.903,0.334-1.64V344.6z"/>
		<path fill="#010101" d="M655.756,346.149c0,0.662-0.077,1.245-0.229,1.749s-0.372,0.927-0.658,1.267s-0.636,0.597-1.049,0.771
			c-0.413,0.174-0.877,0.261-1.394,0.261c-0.512,0-0.974-0.087-1.387-0.261c-0.413-0.173-0.764-0.43-1.052-0.771
			s-0.512-0.763-0.668-1.267c-0.158-0.504-0.236-1.087-0.236-1.749v-2.45c0-0.662,0.077-1.245,0.232-1.749s0.377-0.927,0.666-1.267
			s0.638-0.597,1.049-0.771c0.41-0.173,0.872-0.26,1.383-0.26c0.516,0,0.981,0.087,1.394,0.26c0.413,0.174,0.764,0.431,1.052,0.771
			s0.51,0.763,0.665,1.267s0.232,1.087,0.232,1.749V346.149z M651.054,345.304l2.731-2.034c-0.014-0.69-0.134-1.202-0.359-1.535
			s-0.563-0.5-1.014-0.5c-0.455,0-0.795,0.176-1.021,0.528c-0.225,0.352-0.338,0.894-0.338,1.626V345.304z M653.785,344.6
			l-2.731,2.027c0.023,0.676,0.148,1.177,0.373,1.503s0.559,0.489,1,0.489c0.46,0,0.801-0.179,1.024-0.535
			c0.223-0.356,0.334-0.903,0.334-1.64V344.6z"/>
	</g>
	<g>
		<rect x="711.989" y="339.238" fill="none" width="29.119" height="25.37"/>
		<path fill="#010101" d="M721.26,340.891l-3.99,9.158h-2.062l3.998-8.651h-5.146V339.8h7.201V340.891z"/>
		<path fill="#010101" d="M729.889,346.149c0,0.662-0.076,1.245-0.229,1.749s-0.371,0.927-0.658,1.267
			c-0.285,0.34-0.635,0.597-1.049,0.771c-0.412,0.174-0.877,0.261-1.393,0.261c-0.512,0-0.975-0.087-1.387-0.261
			c-0.414-0.173-0.764-0.43-1.053-0.771s-0.512-0.763-0.668-1.267c-0.158-0.504-0.236-1.087-0.236-1.749v-2.45
			c0-0.662,0.078-1.245,0.232-1.749s0.377-0.927,0.664-1.267c0.289-0.34,0.639-0.597,1.049-0.771c0.412-0.173,0.873-0.26,1.385-0.26
			c0.516,0,0.98,0.087,1.393,0.26c0.414,0.174,0.764,0.431,1.053,0.771s0.51,0.763,0.666,1.267c0.154,0.504,0.23,1.087,0.23,1.749
			V346.149z M725.188,345.304l2.73-2.034c-0.014-0.69-0.133-1.202-0.357-1.535c-0.227-0.333-0.564-0.5-1.014-0.5
			c-0.457,0-0.797,0.176-1.021,0.528c-0.225,0.352-0.338,0.894-0.338,1.626V345.304z M727.918,344.6l-2.73,2.027
			c0.023,0.676,0.148,1.177,0.373,1.503s0.559,0.489,1,0.489c0.459,0,0.801-0.179,1.023-0.535s0.334-0.903,0.334-1.64V344.6z"/>
		<path fill="#010101" d="M738.539,346.149c0,0.662-0.076,1.245-0.229,1.749s-0.371,0.927-0.658,1.267
			c-0.285,0.34-0.635,0.597-1.049,0.771c-0.412,0.174-0.877,0.261-1.393,0.261c-0.512,0-0.975-0.087-1.387-0.261
			c-0.414-0.173-0.764-0.43-1.053-0.771s-0.512-0.763-0.668-1.267c-0.158-0.504-0.236-1.087-0.236-1.749v-2.45
			c0-0.662,0.078-1.245,0.232-1.749s0.377-0.927,0.664-1.267c0.289-0.34,0.639-0.597,1.049-0.771c0.412-0.173,0.873-0.26,1.385-0.26
			c0.516,0,0.98,0.087,1.393,0.26c0.414,0.174,0.764,0.431,1.053,0.771s0.51,0.763,0.666,1.267c0.154,0.504,0.23,1.087,0.23,1.749
			V346.149z M733.838,345.304l2.73-2.034c-0.014-0.69-0.133-1.202-0.357-1.535c-0.227-0.333-0.564-0.5-1.014-0.5
			c-0.457,0-0.797,0.176-1.021,0.528c-0.225,0.352-0.338,0.894-0.338,1.626V345.304z M736.568,344.6l-2.73,2.027
			c0.023,0.676,0.148,1.177,0.373,1.503s0.559,0.489,1,0.489c0.459,0,0.801-0.179,1.023-0.535s0.334-0.903,0.334-1.64V344.6z"/>
	</g>
	<rect x="357.168" y="259.671" fill="#C8D7E2" enable-background="new    " width="59.97" height="124.552"/>
	<rect x="440.203" y="259.671" fill="#C8D7E2" enable-background="new    " width="59.97" height="124.552"/>
	<g>
		<rect x="358.898" y="392.878" fill="none" width="58.239" height="25.372"/>
		<path fill="#010101" d="M390.179,404.324h-4.06l-0.799,2.824h-2.75l4.432-13.527h2.369l4.348,13.527h-2.75L390.179,404.324z
			 M386.76,402.104h2.806l-1.384-4.98L386.76,402.104z"/>
	</g>
	<g>
		<rect x="441.067" y="392.878" fill="none" width="58.24" height="25.372"/>
		<path fill="#010101" d="M465.677,407.148v-13.527h4.543c0.737,0,1.408,0.074,2.012,0.223c0.604,0.148,1.119,0.375,1.547,0.678
			c0.427,0.305,0.757,0.688,0.989,1.152c0.232,0.465,0.349,1.014,0.349,1.645c-0.006,0.632-0.175,1.199-0.506,1.701
			c-0.332,0.501-0.819,0.883-1.463,1.143c0.39,0.099,0.728,0.248,1.013,0.445c0.285,0.199,0.522,0.433,0.711,0.701
			c0.189,0.27,0.328,0.564,0.418,0.883c0.09,0.32,0.135,0.649,0.135,0.99c0,0.65-0.111,1.223-0.334,1.719s-0.542,0.91-0.957,1.245
			s-0.92,0.585-1.515,0.753c-0.595,0.167-1.264,0.25-2.007,0.25H465.677z M468.297,399.298h1.942
			c0.725-0.007,1.282-0.158,1.672-0.456c0.39-0.297,0.588-0.733,0.595-1.31c0-0.632-0.195-1.085-0.585-1.361
			c-0.39-0.275-0.954-0.417-1.691-0.423h-1.933V399.298z M468.297,401.184v3.855h2.323c0.712-0.006,1.256-0.181,1.631-0.524
			c0.375-0.344,0.562-0.794,0.562-1.352c0.006-0.62-0.161-1.103-0.502-1.45c-0.341-0.346-0.867-0.523-1.58-0.529H468.297z"/>
	</g>
	<g>
		<rect x="372.305" y="339.274" fill="none" width="29.12" height="25.37"/>
		<path fill="#010101" d="M374.979,345.039l0.584-5.202h5.688v1.661h-4.076l-0.246,2.252c0.145-0.084,0.352-0.171,0.619-0.261
			c0.268-0.089,0.575-0.133,0.922-0.133c0.493,0,0.933,0.079,1.32,0.235c0.387,0.158,0.713,0.384,0.978,0.68
			c0.265,0.295,0.468,0.657,0.609,1.084c0.141,0.427,0.211,0.91,0.211,1.45c0,0.46-0.068,0.896-0.204,1.31
			c-0.136,0.413-0.345,0.776-0.626,1.091c-0.282,0.314-0.636,0.563-1.063,0.746c-0.427,0.183-0.932,0.274-1.513,0.274
			c-0.441,0-0.867-0.065-1.278-0.197s-0.775-0.324-1.095-0.577c-0.319-0.253-0.578-0.564-0.777-0.933
			c-0.2-0.368-0.307-0.789-0.32-1.263h1.929c0.047,0.446,0.208,0.791,0.482,1.035s0.625,0.366,1.052,0.366
			c0.263,0,0.487-0.049,0.672-0.148c0.185-0.099,0.335-0.235,0.451-0.408c0.115-0.174,0.199-0.38,0.253-0.62
			c0.054-0.239,0.081-0.497,0.081-0.774c0-0.272-0.034-0.522-0.102-0.75s-0.172-0.423-0.313-0.588
			c-0.141-0.164-0.317-0.291-0.528-0.38c-0.211-0.089-0.46-0.134-0.747-0.134c-0.192,0-0.359,0.017-0.5,0.049
			s-0.265,0.075-0.373,0.126c-0.108,0.052-0.204,0.112-0.289,0.18c-0.084,0.068-0.165,0.14-0.239,0.215L374.979,345.039z"/>
		<path fill="#010101" d="M390.205,346.186c0,0.662-0.077,1.245-0.229,1.749s-0.372,0.927-0.658,1.267s-0.636,0.597-1.049,0.771
			c-0.413,0.174-0.877,0.261-1.394,0.261c-0.512,0-0.974-0.087-1.387-0.261c-0.413-0.173-0.764-0.43-1.052-0.771
			s-0.512-0.763-0.668-1.267c-0.158-0.504-0.236-1.087-0.236-1.749v-2.45c0-0.662,0.077-1.245,0.232-1.749s0.377-0.927,0.666-1.267
			s0.638-0.597,1.049-0.771c0.41-0.173,0.872-0.26,1.383-0.26c0.516,0,0.981,0.087,1.394,0.26c0.413,0.174,0.764,0.431,1.052,0.771
			s0.51,0.763,0.665,1.267s0.232,1.087,0.232,1.749V346.186z M385.503,345.341l2.731-2.034c-0.014-0.69-0.134-1.202-0.359-1.535
			s-0.563-0.5-1.014-0.5c-0.455,0-0.795,0.176-1.021,0.528c-0.225,0.352-0.338,0.894-0.338,1.626V345.341z M388.234,344.637
			l-2.731,2.027c0.023,0.676,0.148,1.177,0.373,1.503s0.559,0.489,1,0.489c0.46,0,0.801-0.179,1.024-0.535
			c0.223-0.356,0.334-0.903,0.334-1.64V344.637z"/>
		<path fill="#010101" d="M398.856,346.186c0,0.662-0.077,1.245-0.229,1.749s-0.372,0.927-0.658,1.267s-0.636,0.597-1.049,0.771
			c-0.413,0.174-0.877,0.261-1.394,0.261c-0.512,0-0.974-0.087-1.387-0.261c-0.413-0.173-0.764-0.43-1.052-0.771
			s-0.512-0.763-0.668-1.267c-0.158-0.504-0.236-1.087-0.236-1.749v-2.45c0-0.662,0.077-1.245,0.232-1.749s0.377-0.927,0.666-1.267
			s0.638-0.597,1.049-0.771c0.41-0.173,0.872-0.26,1.383-0.26c0.516,0,0.981,0.087,1.394,0.26c0.413,0.174,0.764,0.431,1.052,0.771
			s0.51,0.763,0.665,1.267s0.232,1.087,0.232,1.749V346.186z M394.154,345.341l2.731-2.034c-0.014-0.69-0.134-1.202-0.359-1.535
			s-0.563-0.5-1.014-0.5c-0.455,0-0.795,0.176-1.021,0.528c-0.225,0.352-0.338,0.894-0.338,1.626V345.341z M396.885,344.637
			l-2.731,2.027c0.023,0.676,0.148,1.177,0.373,1.503s0.559,0.489,1,0.489c0.46,0,0.801-0.179,1.024-0.535
			c0.223-0.356,0.334-0.903,0.334-1.64V344.637z"/>
	</g>
	<g>
		<rect x="455.339" y="339.274" fill="none" width="29.12" height="25.37"/>
		<path fill="#010101" d="M458.014,345.039l0.584-5.202h5.688v1.661h-4.076l-0.246,2.252c0.145-0.084,0.352-0.171,0.619-0.261
			c0.268-0.089,0.575-0.133,0.922-0.133c0.493,0,0.933,0.079,1.32,0.235c0.387,0.158,0.713,0.384,0.978,0.68
			c0.265,0.295,0.468,0.657,0.609,1.084c0.141,0.427,0.211,0.91,0.211,1.45c0,0.46-0.068,0.896-0.204,1.31
			c-0.136,0.413-0.345,0.776-0.626,1.091c-0.282,0.314-0.636,0.563-1.063,0.746c-0.427,0.183-0.932,0.274-1.513,0.274
			c-0.441,0-0.867-0.065-1.278-0.197s-0.775-0.324-1.095-0.577c-0.319-0.253-0.578-0.564-0.777-0.933
			c-0.2-0.368-0.307-0.789-0.32-1.263h1.929c0.047,0.446,0.208,0.791,0.482,1.035s0.625,0.366,1.052,0.366
			c0.263,0,0.487-0.049,0.672-0.148c0.185-0.099,0.335-0.235,0.451-0.408c0.115-0.174,0.199-0.38,0.253-0.62
			c0.054-0.239,0.081-0.497,0.081-0.774c0-0.272-0.034-0.522-0.102-0.75s-0.172-0.423-0.313-0.588
			c-0.141-0.164-0.317-0.291-0.528-0.38c-0.211-0.089-0.46-0.134-0.747-0.134c-0.192,0-0.359,0.017-0.5,0.049
			s-0.265,0.075-0.373,0.126c-0.108,0.052-0.204,0.112-0.289,0.18c-0.084,0.068-0.165,0.14-0.239,0.215L458.014,345.039z"/>
		<path fill="#010101" d="M473.24,346.186c0,0.662-0.077,1.245-0.229,1.749s-0.372,0.927-0.658,1.267s-0.636,0.597-1.049,0.771
			c-0.413,0.174-0.877,0.261-1.394,0.261c-0.512,0-0.974-0.087-1.387-0.261c-0.413-0.173-0.764-0.43-1.052-0.771
			s-0.512-0.763-0.668-1.267c-0.158-0.504-0.236-1.087-0.236-1.749v-2.45c0-0.662,0.077-1.245,0.232-1.749s0.377-0.927,0.666-1.267
			s0.638-0.597,1.049-0.771c0.41-0.173,0.872-0.26,1.383-0.26c0.516,0,0.981,0.087,1.394,0.26c0.413,0.174,0.764,0.431,1.052,0.771
			s0.51,0.763,0.665,1.267s0.232,1.087,0.232,1.749V346.186z M468.538,345.341l2.731-2.034c-0.014-0.69-0.134-1.202-0.359-1.535
			s-0.563-0.5-1.014-0.5c-0.455,0-0.795,0.176-1.021,0.528c-0.225,0.352-0.338,0.894-0.338,1.626V345.341z M471.269,344.637
			l-2.731,2.027c0.023,0.676,0.148,1.177,0.373,1.503s0.559,0.489,1,0.489c0.46,0,0.801-0.179,1.024-0.535
			c0.223-0.356,0.334-0.903,0.334-1.64V344.637z"/>
		<path fill="#010101" d="M481.891,346.186c0,0.662-0.077,1.245-0.229,1.749s-0.372,0.927-0.658,1.267s-0.636,0.597-1.049,0.771
			c-0.413,0.174-0.877,0.261-1.394,0.261c-0.512,0-0.974-0.087-1.387-0.261c-0.413-0.173-0.764-0.43-1.052-0.771
			s-0.512-0.763-0.668-1.267c-0.158-0.504-0.236-1.087-0.236-1.749v-2.45c0-0.662,0.077-1.245,0.232-1.749s0.377-0.927,0.666-1.267
			s0.638-0.597,1.049-0.771c0.41-0.173,0.872-0.26,1.383-0.26c0.516,0,0.981,0.087,1.394,0.26c0.413,0.174,0.764,0.431,1.052,0.771
			s0.51,0.763,0.665,1.267s0.232,1.087,0.232,1.749V346.186z M477.188,345.341l2.731-2.034c-0.014-0.69-0.134-1.202-0.359-1.535
			s-0.563-0.5-1.014-0.5c-0.455,0-0.795,0.176-1.021,0.528c-0.225,0.352-0.338,0.894-0.338,1.626V345.341z M479.919,344.637
			l-2.731,2.027c0.023,0.676,0.148,1.177,0.373,1.503s0.559,0.489,1,0.489c0.46,0,0.801-0.179,1.024-0.535
			c0.223-0.356,0.334-0.903,0.334-1.64V344.637z"/>
	</g>
	
		<line fill="none" stroke="#010101" stroke-width="1.424" stroke-miterlimit="10" x1="53.756" y1="456.026" x2="1315.774" y2="456.026"/>
	<g>
		<rect x="1111.431" y="419.935" fill="none" width="203.633" height="27.056"/>
		<path fill="#010101" d="M1164.764,429.32c-0.041,0.638-0.178,1.211-0.412,1.721s-0.549,0.945-0.943,1.305s-0.863,0.635-1.408,0.83
			c-0.545,0.193-1.146,0.291-1.809,0.291c-0.746,0-1.41-0.139-1.99-0.414c-0.578-0.274-1.064-0.66-1.459-1.155
			s-0.695-1.091-0.904-1.786s-0.312-1.46-0.312-2.295v-1.703c0-0.84,0.109-1.607,0.33-2.303s0.533-1.293,0.938-1.791
			c0.406-0.498,0.898-0.885,1.475-1.16s1.223-0.413,1.941-0.413c0.695,0,1.314,0.099,1.855,0.296
			c0.543,0.197,1.004,0.479,1.387,0.843c0.383,0.365,0.684,0.812,0.904,1.339s0.359,1.121,0.418,1.781h-2.434
			c-0.023-0.377-0.08-0.707-0.17-0.99c-0.09-0.284-0.221-0.521-0.391-0.709c-0.172-0.188-0.387-0.33-0.645-0.426
			s-0.566-0.143-0.926-0.143c-0.377,0-0.703,0.08-0.982,0.242c-0.277,0.162-0.508,0.4-0.689,0.713
			c-0.184,0.312-0.318,0.697-0.404,1.152c-0.088,0.455-0.131,0.972-0.131,1.551v1.721c0,1.246,0.176,2.168,0.525,2.764
			c0.352,0.598,0.906,0.896,1.664,0.896c0.639,0,1.143-0.17,1.514-0.51c0.371-0.338,0.576-0.887,0.617-1.646H1164.764z"/>
		<path fill="#010101" d="M1169.162,425.175c0.312-0.458,0.693-0.817,1.143-1.078s0.951-0.392,1.508-0.392
			c0.492,0,0.945,0.074,1.355,0.223c0.412,0.147,0.766,0.378,1.061,0.69c0.295,0.313,0.525,0.714,0.691,1.204
			c0.164,0.49,0.248,1.079,0.248,1.769v5.692h-2.416v-5.71c0-0.336-0.043-0.626-0.127-0.869s-0.203-0.44-0.361-0.591
			c-0.156-0.15-0.344-0.262-0.564-0.334c-0.221-0.073-0.469-0.109-0.748-0.109c-0.404,0-0.756,0.072-1.055,0.217
			c-0.299,0.146-0.543,0.348-0.734,0.609v6.787h-2.416v-13.35h2.416V425.175z"/>
		<path fill="#010101" d="M1183.303,433.283c-0.059-0.115-0.107-0.248-0.148-0.399c-0.041-0.15-0.074-0.31-0.104-0.478
			c-0.133,0.145-0.287,0.281-0.461,0.408s-0.367,0.238-0.578,0.334s-0.445,0.172-0.699,0.227c-0.256,0.055-0.531,0.082-0.826,0.082
			c-0.48,0-0.922-0.068-1.326-0.208c-0.402-0.14-0.748-0.333-1.037-0.583c-0.291-0.248-0.516-0.545-0.678-0.891
			c-0.162-0.344-0.244-0.72-0.244-1.125c0-0.991,0.369-1.758,1.107-2.299c0.74-0.542,1.842-0.812,3.309-0.812h1.346v-0.557
			c0-0.452-0.146-0.81-0.443-1.073c-0.295-0.264-0.721-0.396-1.277-0.396c-0.492,0-0.852,0.105-1.078,0.317
			c-0.225,0.212-0.338,0.493-0.338,0.847h-2.416c0-0.399,0.088-0.779,0.266-1.139c0.176-0.358,0.434-0.674,0.773-0.947
			c0.338-0.271,0.752-0.488,1.242-0.646c0.49-0.16,1.051-0.24,1.682-0.24c0.568,0,1.096,0.07,1.586,0.209s0.914,0.346,1.273,0.617
			c0.359,0.272,0.641,0.615,0.844,1.03c0.203,0.414,0.303,0.894,0.303,1.438v4.033c0,0.504,0.033,0.921,0.096,1.251
			c0.064,0.33,0.156,0.614,0.279,0.852v0.147H1183.303z M1181,431.589c0.242,0,0.469-0.028,0.678-0.087
			c0.209-0.058,0.396-0.133,0.564-0.227c0.168-0.092,0.312-0.197,0.434-0.316c0.123-0.119,0.219-0.239,0.287-0.361v-1.616h-1.234
			c-0.375,0-0.697,0.036-0.965,0.108c-0.266,0.072-0.482,0.174-0.65,0.305s-0.293,0.287-0.375,0.469
			c-0.08,0.184-0.121,0.381-0.121,0.596c0,0.324,0.115,0.594,0.344,0.809S1180.535,431.589,1181,431.589z"/>
		<path fill="#010101" d="M1190.299,423.879l0.148,1.305c0.336-0.47,0.744-0.833,1.225-1.092c0.48-0.257,1.014-0.387,1.6-0.387
			c0.475,0,0.91,0.07,1.303,0.209c0.395,0.139,0.736,0.361,1.021,0.665c0.287,0.304,0.51,0.695,0.67,1.173
			c0.16,0.479,0.238,1.06,0.238,1.743v5.788h-2.416v-5.754c0-0.37-0.041-0.676-0.125-0.916s-0.205-0.431-0.361-0.569
			c-0.156-0.14-0.344-0.236-0.564-0.292c-0.221-0.055-0.469-0.082-0.748-0.082c-0.412,0-0.762,0.082-1.051,0.248
			c-0.291,0.165-0.525,0.393-0.705,0.682v6.684h-2.424v-9.404H1190.299z"/>
		<path fill="#010101" d="M1200.98,423.879l0.148,1.305c0.336-0.47,0.744-0.833,1.225-1.092c0.48-0.257,1.014-0.387,1.6-0.387
			c0.475,0,0.91,0.07,1.303,0.209c0.395,0.139,0.736,0.361,1.021,0.665c0.287,0.304,0.51,0.695,0.67,1.173
			c0.16,0.479,0.238,1.06,0.238,1.743v5.788h-2.416v-5.754c0-0.37-0.041-0.676-0.125-0.916s-0.205-0.431-0.361-0.569
			c-0.156-0.14-0.344-0.236-0.564-0.292c-0.221-0.055-0.469-0.082-0.748-0.082c-0.412,0-0.762,0.082-1.051,0.248
			c-0.291,0.165-0.525,0.393-0.705,0.682v6.684h-2.424v-9.404H1200.98z"/>
		<path fill="#010101" d="M1214.035,433.457c-0.725,0-1.383-0.118-1.973-0.355c-0.592-0.238-1.098-0.561-1.521-0.969
			c-0.424-0.409-0.748-0.891-0.979-1.443c-0.229-0.553-0.342-1.146-0.342-1.777v-0.348c0-0.719,0.111-1.375,0.338-1.969
			s0.543-1.105,0.947-1.534c0.406-0.429,0.887-0.762,1.443-0.999c0.557-0.238,1.162-0.357,1.816-0.357
			c0.678,0,1.281,0.112,1.812,0.336c0.529,0.223,0.979,0.537,1.348,0.942c0.367,0.405,0.646,0.894,0.838,1.464
			c0.191,0.571,0.287,1.201,0.287,1.891v1.025h-6.379c0.045,0.319,0.139,0.61,0.281,0.874s0.324,0.491,0.543,0.683
			c0.221,0.191,0.473,0.339,0.756,0.443c0.285,0.104,0.596,0.156,0.932,0.156c0.236,0,0.473-0.023,0.707-0.07
			c0.234-0.046,0.459-0.113,0.674-0.203s0.414-0.201,0.6-0.335s0.348-0.29,0.486-0.47l1.209,1.304
			c-0.15,0.215-0.346,0.425-0.586,0.63c-0.242,0.206-0.525,0.389-0.854,0.548c-0.326,0.159-0.689,0.288-1.09,0.387
			S1214.498,433.457,1214.035,433.457z M1213.748,425.661c-0.271,0-0.521,0.048-0.748,0.144c-0.225,0.096-0.424,0.233-0.594,0.413
			c-0.172,0.18-0.314,0.394-0.432,0.644c-0.115,0.248-0.203,0.527-0.26,0.834h3.963v-0.191c-0.012-0.255-0.061-0.496-0.148-0.721
			c-0.086-0.227-0.211-0.422-0.373-0.588c-0.162-0.164-0.361-0.295-0.596-0.391S1214.055,425.661,1213.748,425.661z"/>
		<path fill="#010101" d="M1220.658,419.934h5.258v11.386h2.695v1.964h-7.953v-1.964h2.816v-9.413h-2.816V419.934z"/>
		<path fill="#010101" d="M1241.412,433.283v-12.654h4.25c0.689,0,1.318,0.07,1.883,0.209s1.047,0.351,1.447,0.635
			c0.398,0.283,0.707,0.643,0.926,1.077c0.217,0.435,0.324,0.947,0.324,1.538c-0.004,0.592-0.162,1.121-0.473,1.591
			s-0.766,0.825-1.369,1.069c0.365,0.092,0.682,0.231,0.947,0.417c0.268,0.186,0.488,0.404,0.666,0.656
			c0.176,0.252,0.307,0.527,0.391,0.825c0.084,0.299,0.125,0.607,0.125,0.926c0,0.608-0.104,1.145-0.312,1.607
			c-0.209,0.465-0.506,0.853-0.895,1.166c-0.389,0.312-0.861,0.547-1.418,0.703c-0.555,0.156-1.182,0.234-1.877,0.234H1241.412z
			 M1243.863,425.939h1.816c0.678-0.006,1.199-0.148,1.564-0.426c0.365-0.278,0.551-0.687,0.557-1.226
			c0-0.591-0.182-1.016-0.547-1.273s-0.893-0.39-1.582-0.396h-1.809V425.939z M1243.863,427.703v3.607h2.174
			c0.666-0.006,1.174-0.17,1.525-0.49c0.35-0.322,0.525-0.744,0.525-1.266c0.006-0.579-0.15-1.031-0.469-1.355
			c-0.32-0.324-0.812-0.49-1.479-0.496H1243.863z"/>
		<path fill="#010101" d="M1258.074,433.283c-0.059-0.115-0.107-0.248-0.148-0.399c-0.041-0.15-0.074-0.31-0.104-0.478
			c-0.133,0.145-0.287,0.281-0.461,0.408s-0.367,0.238-0.578,0.334s-0.445,0.172-0.699,0.227c-0.256,0.055-0.531,0.082-0.826,0.082
			c-0.48,0-0.922-0.068-1.326-0.208c-0.402-0.14-0.748-0.333-1.037-0.583c-0.291-0.248-0.516-0.545-0.678-0.891
			c-0.162-0.344-0.244-0.72-0.244-1.125c0-0.991,0.369-1.758,1.107-2.299c0.74-0.542,1.842-0.812,3.309-0.812h1.346v-0.557
			c0-0.452-0.146-0.81-0.443-1.073c-0.295-0.264-0.721-0.396-1.277-0.396c-0.492,0-0.852,0.105-1.078,0.317
			c-0.225,0.212-0.338,0.493-0.338,0.847h-2.416c0-0.399,0.088-0.779,0.266-1.139c0.176-0.358,0.434-0.674,0.773-0.947
			c0.338-0.271,0.752-0.488,1.242-0.646c0.49-0.16,1.051-0.24,1.682-0.24c0.568,0,1.096,0.07,1.586,0.209s0.914,0.346,1.273,0.617
			c0.359,0.272,0.641,0.615,0.844,1.03c0.203,0.414,0.303,0.894,0.303,1.438v4.033c0,0.504,0.033,0.921,0.096,1.251
			c0.064,0.33,0.156,0.614,0.279,0.852v0.147H1258.074z M1255.771,431.589c0.242,0,0.469-0.028,0.678-0.087
			c0.209-0.058,0.396-0.133,0.564-0.227c0.168-0.092,0.312-0.197,0.434-0.316c0.123-0.119,0.219-0.239,0.287-0.361v-1.616h-1.234
			c-0.375,0-0.697,0.036-0.965,0.108c-0.266,0.072-0.482,0.174-0.65,0.305s-0.293,0.287-0.375,0.469
			c-0.08,0.184-0.121,0.381-0.121,0.596c0,0.324,0.115,0.594,0.344,0.809S1255.307,431.589,1255.771,431.589z"/>
		<path fill="#010101" d="M1263.385,419.934h5.258v11.386h2.695v1.964h-7.953v-1.964h2.816v-9.413h-2.816V419.934z"/>
		<path fill="#010101" d="M1279.438,433.283c-0.059-0.115-0.107-0.248-0.148-0.399c-0.041-0.15-0.074-0.31-0.104-0.478
			c-0.133,0.145-0.287,0.281-0.461,0.408s-0.367,0.238-0.578,0.334s-0.445,0.172-0.699,0.227c-0.256,0.055-0.531,0.082-0.826,0.082
			c-0.48,0-0.922-0.068-1.326-0.208c-0.402-0.14-0.748-0.333-1.037-0.583c-0.291-0.248-0.516-0.545-0.678-0.891
			c-0.162-0.344-0.244-0.72-0.244-1.125c0-0.991,0.369-1.758,1.107-2.299c0.74-0.542,1.842-0.812,3.309-0.812h1.346v-0.557
			c0-0.452-0.146-0.81-0.443-1.073c-0.295-0.264-0.721-0.396-1.277-0.396c-0.492,0-0.852,0.105-1.078,0.317
			c-0.225,0.212-0.338,0.493-0.338,0.847h-2.416c0-0.399,0.088-0.779,0.266-1.139c0.176-0.358,0.434-0.674,0.773-0.947
			c0.338-0.271,0.752-0.488,1.242-0.646c0.49-0.16,1.051-0.24,1.682-0.24c0.568,0,1.096,0.07,1.586,0.209s0.914,0.346,1.273,0.617
			c0.359,0.272,0.641,0.615,0.844,1.03c0.203,0.414,0.303,0.894,0.303,1.438v4.033c0,0.504,0.033,0.921,0.096,1.251
			c0.064,0.33,0.156,0.614,0.279,0.852v0.147H1279.438z M1277.135,431.589c0.242,0,0.469-0.028,0.678-0.087
			c0.209-0.058,0.396-0.133,0.564-0.227c0.168-0.092,0.312-0.197,0.434-0.316c0.123-0.119,0.219-0.239,0.287-0.361v-1.616h-1.234
			c-0.375,0-0.697,0.036-0.965,0.108c-0.266,0.072-0.482,0.174-0.65,0.305s-0.293,0.287-0.375,0.469
			c-0.08,0.184-0.121,0.381-0.121,0.596c0,0.324,0.115,0.594,0.344,0.809S1276.67,431.589,1277.135,431.589z"/>
		<path fill="#010101" d="M1286.434,423.879l0.148,1.305c0.336-0.47,0.744-0.833,1.225-1.092c0.48-0.257,1.014-0.387,1.6-0.387
			c0.475,0,0.91,0.07,1.303,0.209c0.395,0.139,0.736,0.361,1.021,0.665c0.287,0.304,0.51,0.695,0.67,1.173
			c0.16,0.479,0.238,1.06,0.238,1.743v5.788h-2.416v-5.754c0-0.37-0.041-0.676-0.125-0.916s-0.205-0.431-0.361-0.569
			c-0.156-0.14-0.344-0.236-0.564-0.292c-0.221-0.055-0.469-0.082-0.748-0.082c-0.412,0-0.762,0.082-1.051,0.248
			c-0.291,0.165-0.525,0.393-0.705,0.682v6.684h-2.424v-9.404H1286.434z"/>
		<path fill="#010101" d="M1299.088,431.527c0.238,0,0.465-0.034,0.678-0.104c0.215-0.07,0.404-0.168,0.566-0.295
			c0.162-0.128,0.287-0.281,0.377-0.461s0.129-0.38,0.117-0.6h2.277c0.012,0.486-0.088,0.938-0.299,1.355
			c-0.213,0.417-0.5,0.776-0.865,1.078c-0.365,0.301-0.789,0.537-1.273,0.708s-0.996,0.257-1.535,0.257
			c-0.729,0-1.369-0.123-1.92-0.37c-0.551-0.246-1.01-0.583-1.377-1.013c-0.369-0.428-0.646-0.932-0.834-1.508
			c-0.189-0.576-0.283-1.195-0.283-1.855v-0.261c0-0.661,0.092-1.278,0.277-1.855s0.465-1.079,0.834-1.509
			c0.371-0.428,0.83-0.768,1.379-1.016c0.547-0.25,1.184-0.375,1.908-0.375c0.578,0,1.115,0.088,1.607,0.262
			s0.916,0.418,1.273,0.734c0.355,0.315,0.633,0.698,0.83,1.146c0.197,0.449,0.289,0.952,0.277,1.508h-2.277
			c0.012-0.23-0.023-0.451-0.104-0.66c-0.082-0.209-0.201-0.388-0.357-0.539c-0.156-0.15-0.344-0.271-0.564-0.36
			s-0.461-0.135-0.721-0.135c-0.383,0-0.699,0.079-0.947,0.235c-0.25,0.156-0.447,0.365-0.596,0.625
			c-0.148,0.262-0.252,0.56-0.312,0.896s-0.092,0.684-0.092,1.043v0.261c0,0.365,0.029,0.717,0.086,1.057
			c0.059,0.338,0.162,0.637,0.309,0.895c0.148,0.258,0.348,0.465,0.602,0.621C1298.381,431.449,1298.699,431.527,1299.088,431.527z"
			/>
		<path fill="#010101" d="M1310.17,433.457c-0.725,0-1.383-0.118-1.973-0.355c-0.592-0.238-1.098-0.561-1.521-0.969
			c-0.424-0.409-0.748-0.891-0.979-1.443c-0.229-0.553-0.342-1.146-0.342-1.777v-0.348c0-0.719,0.111-1.375,0.338-1.969
			s0.543-1.105,0.947-1.534c0.406-0.429,0.887-0.762,1.443-0.999c0.557-0.238,1.162-0.357,1.816-0.357
			c0.678,0,1.281,0.112,1.812,0.336c0.529,0.223,0.979,0.537,1.348,0.942c0.367,0.405,0.646,0.894,0.838,1.464
			c0.191,0.571,0.287,1.201,0.287,1.891v1.025h-6.379c0.045,0.319,0.139,0.61,0.281,0.874s0.324,0.491,0.543,0.683
			c0.221,0.191,0.473,0.339,0.756,0.443c0.285,0.104,0.596,0.156,0.932,0.156c0.236,0,0.473-0.023,0.707-0.07
			c0.234-0.046,0.459-0.113,0.674-0.203s0.414-0.201,0.6-0.335s0.348-0.29,0.486-0.47l1.209,1.304
			c-0.15,0.215-0.346,0.425-0.586,0.63c-0.242,0.206-0.525,0.389-0.854,0.548c-0.326,0.159-0.689,0.288-1.09,0.387
			S1310.633,433.457,1310.17,433.457z M1309.883,425.661c-0.271,0-0.521,0.048-0.748,0.144c-0.225,0.096-0.424,0.233-0.594,0.413
			c-0.172,0.18-0.314,0.394-0.432,0.644c-0.115,0.248-0.203,0.527-0.26,0.834h3.963v-0.191c-0.012-0.255-0.061-0.496-0.148-0.721
			c-0.086-0.227-0.211-0.422-0.373-0.588c-0.162-0.164-0.361-0.295-0.596-0.391S1310.189,425.661,1309.883,425.661z"/>
	</g>
	<g>
		<rect x="317.552" y="149.154" fill="none" width="224.992" height="27.056"/>
		<path fill="#010101" d="M383.101,162.504V149.85h4.25c0.689,0,1.317,0.07,1.882,0.208c0.565,0.139,1.047,0.351,1.447,0.635
			s0.708,0.643,0.926,1.078c0.217,0.435,0.326,0.947,0.326,1.539c-0.006,0.591-0.164,1.121-0.474,1.59s-0.767,0.826-1.369,1.069
			c0.365,0.093,0.681,0.232,0.948,0.417c0.266,0.186,0.488,0.404,0.665,0.656s0.307,0.527,0.391,0.826s0.126,0.607,0.126,0.925
			c0,0.608-0.104,1.145-0.312,1.608c-0.209,0.464-0.507,0.852-0.896,1.165c-0.388,0.312-0.86,0.547-1.417,0.704
			c-0.556,0.157-1.182,0.235-1.877,0.235H383.101z M385.552,155.16h1.816c0.678-0.006,1.199-0.148,1.564-0.426
			c0.365-0.278,0.55-0.687,0.556-1.226c0-0.591-0.183-1.016-0.547-1.273c-0.365-0.258-0.893-0.39-1.582-0.396h-1.808V155.16z
			 M385.552,156.924v3.607h2.173c0.666-0.005,1.175-0.169,1.525-0.491c0.351-0.322,0.526-0.743,0.526-1.265
			c0.005-0.58-0.151-1.031-0.47-1.356c-0.318-0.324-0.811-0.49-1.478-0.496H385.552z"/>
		<path fill="#010101" d="M399.763,162.504c-0.058-0.116-0.107-0.249-0.148-0.4c-0.041-0.15-0.075-0.31-0.104-0.478
			c-0.133,0.145-0.287,0.281-0.46,0.409s-0.367,0.239-0.578,0.334s-0.445,0.171-0.7,0.226s-0.53,0.083-0.826,0.083
			c-0.481,0-0.922-0.069-1.325-0.208s-0.749-0.333-1.039-0.583c-0.29-0.249-0.516-0.546-0.678-0.891s-0.243-0.72-0.243-1.125
			c0-0.991,0.37-1.757,1.108-2.299c0.739-0.542,1.841-0.812,3.307-0.812h1.347v-0.556c0-0.452-0.147-0.81-0.443-1.073
			c-0.296-0.264-0.722-0.396-1.278-0.396c-0.493,0-0.852,0.105-1.078,0.317c-0.226,0.211-0.339,0.494-0.339,0.847h-2.417
			c0-0.4,0.088-0.779,0.265-1.139c0.177-0.359,0.435-0.675,0.773-0.947c0.339-0.272,0.753-0.488,1.243-0.647
			c0.489-0.159,1.05-0.239,1.682-0.239c0.568,0,1.097,0.07,1.586,0.209c0.49,0.139,0.914,0.345,1.273,0.617
			c0.359,0.272,0.64,0.616,0.843,1.03c0.203,0.414,0.304,0.894,0.304,1.438v4.033c0,0.504,0.032,0.921,0.096,1.251
			c0.063,0.33,0.156,0.614,0.278,0.852v0.148H399.763z M397.459,160.81c0.243,0,0.469-0.029,0.678-0.087
			c0.208-0.058,0.397-0.133,0.565-0.226c0.168-0.092,0.313-0.198,0.435-0.317c0.122-0.119,0.217-0.239,0.287-0.36v-1.617h-1.234
			c-0.377,0-0.698,0.036-0.965,0.109c-0.267,0.072-0.484,0.174-0.652,0.304s-0.292,0.287-0.374,0.469
			c-0.082,0.183-0.122,0.381-0.122,0.595c0,0.325,0.115,0.594,0.343,0.808C396.649,160.703,396.996,160.81,397.459,160.81z"/>
		<path fill="#010101" d="M405.073,149.154h5.258v11.386h2.694v1.964h-7.953v-1.964h2.816v-9.413h-2.816V149.154z"/>
		<path fill="#010101" d="M421.126,162.504c-0.058-0.116-0.107-0.249-0.148-0.4c-0.041-0.15-0.075-0.31-0.104-0.478
			c-0.133,0.145-0.287,0.281-0.46,0.409s-0.367,0.239-0.578,0.334s-0.445,0.171-0.7,0.226s-0.53,0.083-0.826,0.083
			c-0.481,0-0.922-0.069-1.325-0.208s-0.749-0.333-1.039-0.583c-0.29-0.249-0.516-0.546-0.678-0.891s-0.243-0.72-0.243-1.125
			c0-0.991,0.37-1.757,1.108-2.299c0.739-0.542,1.841-0.812,3.307-0.812h1.347v-0.556c0-0.452-0.147-0.81-0.443-1.073
			c-0.296-0.264-0.722-0.396-1.278-0.396c-0.493,0-0.852,0.105-1.078,0.317c-0.226,0.211-0.339,0.494-0.339,0.847h-2.417
			c0-0.4,0.088-0.779,0.265-1.139c0.177-0.359,0.435-0.675,0.773-0.947c0.339-0.272,0.753-0.488,1.243-0.647
			c0.489-0.159,1.05-0.239,1.682-0.239c0.568,0,1.097,0.07,1.586,0.209c0.49,0.139,0.914,0.345,1.273,0.617
			c0.359,0.272,0.64,0.616,0.843,1.03c0.203,0.414,0.304,0.894,0.304,1.438v4.033c0,0.504,0.032,0.921,0.096,1.251
			c0.063,0.33,0.156,0.614,0.278,0.852v0.148H421.126z M418.823,160.81c0.243,0,0.469-0.029,0.678-0.087
			c0.208-0.058,0.397-0.133,0.565-0.226c0.168-0.092,0.313-0.198,0.435-0.317c0.122-0.119,0.217-0.239,0.287-0.36v-1.617h-1.234
			c-0.377,0-0.698,0.036-0.965,0.109c-0.267,0.072-0.484,0.174-0.652,0.304s-0.292,0.287-0.374,0.469
			c-0.082,0.183-0.122,0.381-0.122,0.595c0,0.325,0.115,0.594,0.343,0.808C418.013,160.703,418.359,160.81,418.823,160.81z"/>
		<path fill="#010101" d="M428.122,153.1l0.148,1.304c0.336-0.469,0.745-0.833,1.226-1.091c0.481-0.257,1.014-0.387,1.599-0.387
			c0.475,0,0.91,0.07,1.304,0.209c0.394,0.139,0.734,0.36,1.021,0.665c0.287,0.304,0.51,0.695,0.669,1.173s0.239,1.059,0.239,1.743
			v5.789h-2.417v-5.754c0-0.371-0.042-0.676-0.126-0.917c-0.084-0.241-0.204-0.431-0.361-0.569
			c-0.156-0.139-0.345-0.236-0.565-0.292c-0.22-0.055-0.469-0.083-0.747-0.083c-0.412,0-0.762,0.083-1.052,0.248
			c-0.29,0.165-0.524,0.393-0.704,0.682v6.684h-2.425V153.1H428.122z"/>
		<path fill="#010101" d="M440.777,160.749c0.237,0,0.463-0.035,0.678-0.104c0.214-0.07,0.403-0.168,0.565-0.295
			s0.289-0.281,0.378-0.461c0.09-0.179,0.129-0.379,0.117-0.6h2.277c0.011,0.487-0.088,0.938-0.3,1.356
			c-0.212,0.417-0.5,0.776-0.865,1.078c-0.365,0.301-0.79,0.538-1.273,0.708c-0.484,0.171-0.995,0.256-1.534,0.256
			c-0.73,0-1.371-0.123-1.921-0.37c-0.55-0.246-1.01-0.583-1.377-1.012c-0.368-0.429-0.646-0.932-0.834-1.508
			c-0.188-0.576-0.282-1.195-0.282-1.855v-0.261c0-0.661,0.092-1.279,0.278-1.855s0.463-1.079,0.834-1.508
			c0.371-0.429,0.83-0.768,1.377-1.017c0.548-0.249,1.184-0.374,1.908-0.374c0.58,0,1.116,0.087,1.608,0.261
			c0.493,0.174,0.917,0.419,1.273,0.734c0.356,0.316,0.633,0.699,0.83,1.147c0.197,0.449,0.29,0.952,0.278,1.508h-2.277
			c0.012-0.231-0.023-0.452-0.104-0.66c-0.081-0.209-0.2-0.388-0.356-0.539c-0.157-0.15-0.345-0.271-0.565-0.361
			c-0.221-0.09-0.461-0.135-0.722-0.135c-0.382,0-0.698,0.079-0.947,0.235s-0.448,0.365-0.595,0.626
			c-0.148,0.261-0.252,0.559-0.313,0.895c-0.061,0.336-0.091,0.684-0.091,1.043v0.261c0,0.365,0.029,0.717,0.087,1.056
			c0.058,0.339,0.161,0.637,0.309,0.895c0.147,0.258,0.348,0.465,0.6,0.622C440.068,160.67,440.389,160.749,440.777,160.749z"/>
		<path fill="#010101" d="M451.858,162.678c-0.725,0-1.382-0.119-1.973-0.356c-0.591-0.237-1.098-0.561-1.521-0.969
			c-0.423-0.409-0.749-0.89-0.978-1.443c-0.229-0.553-0.343-1.146-0.343-1.777v-0.348c0-0.719,0.113-1.375,0.339-1.969
			s0.542-1.105,0.947-1.534c0.405-0.429,0.887-0.762,1.443-1c0.556-0.237,1.162-0.356,1.816-0.356c0.678,0,1.282,0.112,1.812,0.335
			s0.979,0.538,1.347,0.943c0.368,0.406,0.647,0.894,0.839,1.464c0.191,0.571,0.287,1.201,0.287,1.891v1.025h-6.379
			c0.046,0.319,0.141,0.61,0.283,0.874c0.142,0.264,0.323,0.491,0.543,0.682c0.22,0.191,0.472,0.339,0.756,0.443
			c0.284,0.104,0.594,0.157,0.93,0.157c0.238,0,0.474-0.023,0.708-0.07s0.459-0.114,0.674-0.204c0.214-0.09,0.414-0.201,0.6-0.334
			c0.185-0.133,0.348-0.29,0.487-0.47l1.208,1.304c-0.151,0.215-0.346,0.425-0.587,0.63c-0.24,0.206-0.524,0.388-0.852,0.547
			c-0.328,0.16-0.691,0.289-1.091,0.387C452.753,162.629,452.322,162.678,451.858,162.678z M451.571,154.882
			c-0.272,0-0.521,0.048-0.747,0.144c-0.226,0.096-0.425,0.233-0.596,0.413s-0.314,0.394-0.43,0.643s-0.203,0.527-0.261,0.834h3.963
			v-0.191c-0.012-0.255-0.061-0.496-0.148-0.721c-0.087-0.226-0.211-0.422-0.374-0.587s-0.361-0.295-0.595-0.391
			C452.149,154.93,451.878,154.882,451.571,154.882z"/>
		<path fill="#010101" d="M476.898,157.689c0,0.817-0.094,1.537-0.282,2.16c-0.188,0.623-0.459,1.145-0.813,1.564
			c-0.354,0.42-0.785,0.737-1.295,0.952s-1.083,0.322-1.721,0.322c-0.632,0-1.203-0.107-1.712-0.322s-0.943-0.531-1.299-0.952
			c-0.356-0.42-0.631-0.941-0.826-1.564c-0.194-0.623-0.291-1.343-0.291-2.16v-3.025c0-0.817,0.096-1.537,0.287-2.16
			c0.191-0.623,0.465-1.144,0.821-1.564c0.356-0.42,0.788-0.737,1.295-0.952c0.507-0.214,1.077-0.322,1.708-0.322
			c0.637,0,1.211,0.107,1.721,0.322c0.51,0.214,0.943,0.532,1.299,0.952c0.356,0.42,0.63,0.942,0.821,1.564
			c0.191,0.623,0.287,1.343,0.287,2.16V157.689z M471.092,156.646l3.372-2.512c-0.017-0.852-0.165-1.483-0.443-1.895
			c-0.278-0.411-0.695-0.617-1.251-0.617c-0.562,0-0.982,0.217-1.26,0.652c-0.278,0.435-0.417,1.104-0.417,2.008V156.646z
			 M474.464,155.777l-3.372,2.503c0.029,0.834,0.183,1.453,0.46,1.856c0.278,0.402,0.689,0.604,1.234,0.604
			c0.568,0,0.989-0.22,1.265-0.661c0.275-0.44,0.413-1.115,0.413-2.025V155.777z"/>
	</g>
</g>
<g>
</g>
<g>
</g>
<g>
</g>
<g>
</g>
<g>
</g>
<g>
</g>
<g>
</g>
<g>
</g>
</svg>
