<?xml version="1.0" encoding="utf-8"?>
<!-- Generator: Adobe Illustrator 16.0.4, SVG Export Plug-In . SVG Version: 6.00 Build 0)  -->
<!DOCTYPE svg PUBLIC "-//W3C//DTD SVG 1.1//EN" "http://www.w3.org/Graphics/SVG/1.1/DTD/svg11.dtd">
<svg version="1.1" id="Layer_1" xmlns="http://www.w3.org/2000/svg" xmlns:xlink="http://www.w3.org/1999/xlink" x="0px" y="0px"
	 width="1366px" height="768px" viewBox="0 0 1366 768" enable-background="new 0 0 1366 768" xml:space="preserve">
<rect fill="#FFFFFF" width="1366" height="768"/>
<g>
	<g>
		<rect x="317.552" y="149.51" fill="none" width="224.992" height="27.056"/>
		<path fill="#010101" d="M383.101,162.86v-12.655h4.25c0.689,0,1.317,0.07,1.882,0.208c0.565,0.139,1.047,0.351,1.447,0.635
			c0.4,0.284,0.708,0.643,0.926,1.078c0.217,0.435,0.326,0.947,0.326,1.539c-0.006,0.591-0.164,1.121-0.474,1.59
			c-0.31,0.469-0.767,0.826-1.369,1.069c0.365,0.093,0.681,0.232,0.948,0.417c0.266,0.186,0.488,0.404,0.665,0.656
			c0.177,0.252,0.307,0.527,0.391,0.826c0.084,0.299,0.126,0.607,0.126,0.925c0,0.608-0.104,1.145-0.312,1.608
			c-0.209,0.464-0.507,0.852-0.896,1.165c-0.388,0.312-0.86,0.547-1.417,0.704c-0.556,0.157-1.182,0.235-1.877,0.235H383.101z
			 M385.552,155.516h1.816c0.678-0.006,1.199-0.148,1.564-0.426c0.365-0.278,0.55-0.687,0.556-1.226
			c0-0.591-0.183-1.016-0.547-1.273c-0.365-0.258-0.893-0.39-1.582-0.396h-1.808L385.552,155.516L385.552,155.516z M385.552,157.28
			v3.606h2.173c0.666-0.005,1.175-0.169,1.525-0.491c0.351-0.322,0.526-0.743,0.526-1.265c0.005-0.58-0.151-1.031-0.47-1.356
			c-0.318-0.324-0.811-0.49-1.478-0.496h-2.276V157.28z"/>
		<path fill="#010101" d="M399.763,162.86c-0.058-0.116-0.106-0.249-0.147-0.4c-0.041-0.15-0.075-0.31-0.104-0.478
			c-0.133,0.145-0.287,0.281-0.46,0.409s-0.367,0.239-0.578,0.334c-0.211,0.095-0.444,0.171-0.699,0.226
			c-0.256,0.055-0.53,0.083-0.826,0.083c-0.481,0-0.922-0.069-1.325-0.208c-0.403-0.139-0.749-0.333-1.039-0.583
			c-0.29-0.249-0.516-0.546-0.678-0.891c-0.162-0.345-0.243-0.72-0.243-1.125c0-0.991,0.37-1.757,1.108-2.299
			c0.739-0.542,1.841-0.812,3.307-0.812h1.347v-0.556c0-0.452-0.146-0.81-0.443-1.073c-0.296-0.264-0.722-0.396-1.277-0.396
			c-0.493,0-0.853,0.105-1.078,0.317c-0.227,0.211-0.339,0.494-0.339,0.847h-2.417c0-0.4,0.088-0.779,0.265-1.139
			c0.177-0.359,0.435-0.675,0.773-0.947c0.339-0.272,0.753-0.488,1.243-0.647c0.488-0.159,1.05-0.239,1.682-0.239
			c0.568,0,1.097,0.07,1.586,0.209c0.49,0.139,0.914,0.345,1.273,0.617c0.358,0.272,0.64,0.616,0.843,1.03
			c0.203,0.414,0.304,0.894,0.304,1.438v4.033c0,0.504,0.032,0.921,0.096,1.251c0.063,0.33,0.156,0.614,0.278,0.852v0.148
			L399.763,162.86L399.763,162.86z M397.459,161.166c0.243,0,0.469-0.029,0.678-0.087c0.208-0.058,0.397-0.133,0.565-0.226
			c0.168-0.092,0.312-0.198,0.435-0.317s0.217-0.239,0.287-0.36v-1.617h-1.233c-0.378,0-0.698,0.036-0.966,0.109
			c-0.267,0.072-0.483,0.174-0.651,0.304c-0.168,0.13-0.292,0.287-0.374,0.469c-0.082,0.183-0.122,0.381-0.122,0.595
			c0,0.325,0.115,0.594,0.343,0.808C396.649,161.059,396.996,161.166,397.459,161.166z"/>
		<path fill="#010101" d="M405.073,149.51h5.258v11.386h2.694v1.964h-7.953v-1.964h2.815v-9.413h-2.815L405.073,149.51
			L405.073,149.51z"/>
		<path fill="#010101" d="M421.126,162.86c-0.058-0.116-0.106-0.249-0.147-0.4c-0.041-0.15-0.075-0.31-0.104-0.478
			c-0.133,0.145-0.287,0.281-0.46,0.409s-0.367,0.239-0.578,0.334c-0.211,0.095-0.445,0.171-0.7,0.226
			c-0.255,0.055-0.53,0.083-0.826,0.083c-0.48,0-0.922-0.069-1.324-0.208c-0.403-0.139-0.749-0.333-1.039-0.583
			c-0.29-0.249-0.517-0.546-0.679-0.891s-0.242-0.72-0.242-1.125c0-0.991,0.369-1.757,1.107-2.299
			c0.739-0.542,1.841-0.812,3.307-0.812h1.348v-0.556c0-0.452-0.147-0.81-0.443-1.073c-0.296-0.264-0.722-0.396-1.277-0.396
			c-0.493,0-0.853,0.105-1.078,0.317c-0.227,0.211-0.34,0.494-0.34,0.847h-2.416c0-0.4,0.088-0.779,0.265-1.139
			c0.177-0.359,0.435-0.675,0.772-0.947c0.34-0.272,0.754-0.488,1.243-0.647c0.489-0.159,1.05-0.239,1.683-0.239
			c0.567,0,1.097,0.07,1.586,0.209c0.49,0.139,0.914,0.345,1.272,0.617c0.359,0.272,0.641,0.616,0.843,1.03
			c0.203,0.414,0.305,0.894,0.305,1.438v4.033c0,0.504,0.032,0.921,0.096,1.251c0.063,0.33,0.156,0.614,0.278,0.852v0.148
			L421.126,162.86L421.126,162.86z M418.823,161.166c0.243,0,0.469-0.029,0.678-0.087c0.208-0.058,0.397-0.133,0.565-0.226
			c0.168-0.092,0.312-0.198,0.435-0.317s0.217-0.239,0.287-0.36v-1.617h-1.234c-0.377,0-0.698,0.036-0.965,0.109
			c-0.267,0.072-0.483,0.174-0.651,0.304c-0.169,0.13-0.293,0.287-0.375,0.469c-0.082,0.183-0.121,0.381-0.121,0.595
			c0,0.325,0.114,0.594,0.343,0.808C418.013,161.059,418.359,161.166,418.823,161.166z"/>
		<path fill="#010101" d="M428.122,153.456l0.147,1.304c0.337-0.469,0.745-0.833,1.227-1.091c0.48-0.257,1.014-0.387,1.599-0.387
			c0.476,0,0.91,0.07,1.305,0.209c0.394,0.139,0.733,0.36,1.021,0.665c0.287,0.304,0.51,0.695,0.669,1.173s0.239,1.059,0.239,1.743
			v5.789h-2.417v-5.754c0-0.371-0.042-0.676-0.126-0.917c-0.084-0.241-0.204-0.431-0.361-0.569
			c-0.156-0.139-0.345-0.236-0.564-0.292c-0.221-0.055-0.47-0.083-0.747-0.083c-0.412,0-0.763,0.083-1.052,0.248
			c-0.291,0.165-0.524,0.393-0.704,0.682v6.684h-2.426v-9.404H428.122z"/>
		<path fill="#010101" d="M440.777,161.104c0.236,0,0.463-0.035,0.678-0.104c0.214-0.07,0.403-0.168,0.564-0.295
			c0.162-0.127,0.289-0.281,0.379-0.461c0.09-0.179,0.129-0.379,0.116-0.6h2.277c0.011,0.487-0.088,0.938-0.3,1.356
			c-0.212,0.417-0.5,0.776-0.865,1.078c-0.365,0.301-0.79,0.538-1.273,0.708c-0.483,0.171-0.994,0.256-1.533,0.256
			c-0.73,0-1.371-0.123-1.921-0.37c-0.551-0.246-1.011-0.583-1.377-1.012c-0.368-0.429-0.646-0.932-0.835-1.508
			c-0.188-0.576-0.281-1.195-0.281-1.855v-0.261c0-0.661,0.092-1.279,0.277-1.855c0.187-0.576,0.464-1.079,0.834-1.508
			c0.371-0.429,0.83-0.768,1.377-1.017c0.549-0.249,1.185-0.374,1.908-0.374c0.58,0,1.116,0.087,1.608,0.261
			c0.493,0.174,0.917,0.419,1.272,0.734c0.356,0.316,0.634,0.699,0.83,1.147c0.197,0.449,0.29,0.952,0.278,1.508h-2.277
			c0.013-0.231-0.022-0.452-0.104-0.66c-0.081-0.209-0.2-0.388-0.356-0.539c-0.156-0.15-0.345-0.271-0.564-0.361
			c-0.221-0.09-0.461-0.135-0.723-0.135c-0.382,0-0.697,0.079-0.946,0.235c-0.249,0.156-0.448,0.365-0.595,0.626
			c-0.148,0.261-0.253,0.559-0.313,0.895c-0.062,0.336-0.091,0.684-0.091,1.043v0.261c0,0.365,0.029,0.717,0.087,1.056
			s0.161,0.637,0.309,0.895s0.349,0.465,0.601,0.622C440.068,161.026,440.389,161.104,440.777,161.104z"/>
		<path fill="#010101" d="M451.858,163.034c-0.726,0-1.383-0.119-1.974-0.356c-0.591-0.237-1.098-0.561-1.521-0.969
			c-0.423-0.409-0.749-0.89-0.979-1.443c-0.229-0.553-0.343-1.146-0.343-1.777v-0.348c0-0.719,0.113-1.375,0.339-1.969
			c0.227-0.594,0.542-1.105,0.947-1.534c0.405-0.429,0.887-0.762,1.442-1c0.557-0.237,1.162-0.356,1.816-0.356
			c0.678,0,1.282,0.112,1.812,0.335c0.529,0.223,0.979,0.538,1.347,0.943c0.368,0.406,0.647,0.894,0.839,1.464
			c0.191,0.571,0.287,1.201,0.287,1.891v1.025h-6.379c0.046,0.319,0.141,0.61,0.283,0.874c0.142,0.264,0.322,0.491,0.543,0.682
			c0.22,0.191,0.472,0.339,0.756,0.443s0.594,0.157,0.93,0.157c0.238,0,0.475-0.023,0.708-0.07c0.234-0.047,0.459-0.114,0.674-0.204
			c0.214-0.09,0.414-0.201,0.601-0.334c0.185-0.133,0.348-0.29,0.486-0.47l1.208,1.304c-0.15,0.215-0.346,0.425-0.587,0.63
			c-0.239,0.206-0.523,0.388-0.852,0.547c-0.328,0.16-0.691,0.289-1.091,0.387C452.753,162.985,452.322,163.034,451.858,163.034z
			 M451.571,155.238c-0.272,0-0.521,0.048-0.747,0.144c-0.227,0.096-0.425,0.233-0.596,0.413c-0.172,0.18-0.314,0.394-0.431,0.643
			s-0.203,0.527-0.261,0.834h3.963v-0.191c-0.012-0.255-0.061-0.496-0.148-0.721c-0.087-0.226-0.211-0.422-0.373-0.587
			c-0.163-0.165-0.361-0.295-0.596-0.391C452.149,155.286,451.878,155.238,451.571,155.238z"/>
		<path fill="#010101" d="M476.898,158.045c0,0.817-0.095,1.537-0.282,2.16c-0.188,0.623-0.459,1.145-0.813,1.564
			c-0.354,0.42-0.785,0.737-1.295,0.952c-0.51,0.215-1.083,0.322-1.721,0.322c-0.632,0-1.203-0.107-1.712-0.322
			c-0.509-0.215-0.943-0.531-1.299-0.952c-0.356-0.42-0.632-0.941-0.826-1.564s-0.291-1.343-0.291-2.16v-3.025
			c0-0.817,0.096-1.537,0.287-2.16c0.19-0.623,0.465-1.144,0.82-1.564c0.356-0.42,0.788-0.737,1.296-0.952
			c0.507-0.214,1.076-0.322,1.707-0.322c0.638,0,1.212,0.107,1.722,0.322c0.51,0.214,0.942,0.532,1.299,0.952
			s0.63,0.942,0.821,1.564c0.19,0.623,0.287,1.343,0.287,2.16V158.045L476.898,158.045z M471.092,157.002l3.372-2.512
			c-0.017-0.852-0.165-1.483-0.442-1.896c-0.278-0.411-0.695-0.617-1.252-0.617c-0.562,0-0.981,0.217-1.26,0.652
			c-0.277,0.435-0.417,1.104-0.417,2.008L471.092,157.002L471.092,157.002z M474.464,156.133l-3.372,2.503
			c0.029,0.834,0.184,1.453,0.46,1.856c0.278,0.402,0.689,0.604,1.234,0.604c0.567,0,0.989-0.22,1.265-0.661
			c0.275-0.44,0.413-1.115,0.413-2.025V156.133z"/>
	</g>
	<rect x="357.168" y="260.027" fill="#C8D7E2" width="59.97" height="124.552"/>
	<rect x="440.203" y="260.027" fill="#C8D7E2" width="59.969" height="124.552"/>
	<g>
		<rect x="358.898" y="393.234" fill="none" width="58.24" height="25.372"/>
		<path fill="#010101" d="M390.178,404.68h-4.06l-0.799,2.825h-2.75l4.432-13.528h2.369l4.348,13.528h-2.75L390.178,404.68z
			 M386.759,402.459h2.806l-1.384-4.979L386.759,402.459z"/>
	</g>
	<g>
		<rect x="441.067" y="393.234" fill="none" width="58.239" height="25.372"/>
		<path fill="#010101" d="M465.677,407.505v-13.528h4.543c0.737,0,1.408,0.074,2.013,0.224c0.604,0.147,1.118,0.375,1.547,0.679
			c0.427,0.304,0.757,0.688,0.988,1.151c0.232,0.465,0.35,1.014,0.35,1.646c-0.006,0.632-0.175,1.198-0.506,1.7
			c-0.332,0.502-0.819,0.883-1.463,1.143c0.39,0.101,0.728,0.248,1.013,0.446s0.521,0.434,0.711,0.701
			c0.188,0.27,0.328,0.562,0.418,0.883s0.135,0.649,0.135,0.989c0,0.649-0.11,1.224-0.334,1.719
			c-0.223,0.496-0.542,0.911-0.957,1.246c-0.415,0.334-0.92,0.585-1.515,0.752c-0.596,0.168-1.264,0.251-2.007,0.251
			L465.677,407.505L465.677,407.505z M468.297,399.654h1.942c0.725-0.007,1.282-0.158,1.672-0.456s0.588-0.733,0.595-1.311
			c0-0.633-0.195-1.086-0.585-1.36c-0.39-0.275-0.954-0.417-1.69-0.424h-1.934V399.654z M468.297,401.54v3.854h2.323
			c0.712-0.006,1.256-0.181,1.631-0.523c0.375-0.344,0.562-0.795,0.562-1.352c0.007-0.62-0.16-1.104-0.502-1.45
			c-0.341-0.347-0.866-0.523-1.579-0.529H468.297L468.297,401.54z"/>
	</g>
	<g>
		<rect x="372.305" y="339.629" fill="none" width="29.12" height="25.371"/>
		<path fill="#010101" d="M374.979,345.394l0.584-5.201h5.688v1.661h-4.076l-0.246,2.252c0.145-0.084,0.352-0.172,0.619-0.262
			c0.268-0.089,0.575-0.133,0.922-0.133c0.493,0,0.933,0.079,1.32,0.235c0.387,0.158,0.713,0.384,0.978,0.68
			c0.265,0.295,0.468,0.657,0.609,1.084s0.211,0.91,0.211,1.45c0,0.46-0.068,0.896-0.204,1.31c-0.136,0.413-0.345,0.776-0.626,1.092
			c-0.282,0.313-0.636,0.562-1.063,0.745c-0.427,0.184-0.932,0.274-1.513,0.274c-0.441,0-0.867-0.065-1.278-0.197
			c-0.411-0.132-0.775-0.323-1.095-0.577c-0.319-0.253-0.578-0.563-0.777-0.933c-0.2-0.368-0.307-0.789-0.32-1.263h1.929
			c0.047,0.445,0.208,0.791,0.482,1.035c0.274,0.243,0.625,0.365,1.052,0.365c0.263,0,0.487-0.049,0.672-0.147
			c0.186-0.1,0.335-0.235,0.451-0.408c0.115-0.174,0.199-0.38,0.253-0.62c0.054-0.239,0.081-0.497,0.081-0.773
			c0-0.272-0.034-0.522-0.102-0.75c-0.068-0.229-0.172-0.424-0.313-0.589c-0.141-0.163-0.317-0.291-0.528-0.38
			s-0.46-0.134-0.747-0.134c-0.192,0-0.359,0.017-0.5,0.049s-0.265,0.075-0.373,0.126c-0.108,0.053-0.204,0.112-0.289,0.181
			c-0.084,0.067-0.165,0.14-0.239,0.215L374.979,345.394z"/>
		<path fill="#010101" d="M390.205,346.542c0,0.662-0.077,1.245-0.229,1.749s-0.372,0.927-0.658,1.267
			c-0.286,0.341-0.636,0.598-1.049,0.771s-0.877,0.261-1.394,0.261c-0.512,0-0.974-0.087-1.387-0.261
			c-0.413-0.173-0.764-0.43-1.052-0.771c-0.288-0.341-0.512-0.763-0.668-1.267c-0.158-0.504-0.236-1.087-0.236-1.749v-2.45
			c0-0.662,0.077-1.245,0.232-1.749c0.155-0.504,0.377-0.927,0.666-1.267c0.289-0.34,0.638-0.598,1.049-0.771
			c0.41-0.173,0.872-0.26,1.383-0.26c0.516,0,0.981,0.087,1.394,0.26c0.413,0.174,0.764,0.432,1.052,0.771
			c0.288,0.34,0.51,0.763,0.665,1.267c0.155,0.504,0.232,1.087,0.232,1.749V346.542z M385.503,345.697l2.731-2.034
			c-0.014-0.69-0.134-1.202-0.359-1.535s-0.563-0.5-1.014-0.5c-0.455,0-0.795,0.176-1.021,0.528
			c-0.225,0.352-0.338,0.894-0.338,1.626L385.503,345.697L385.503,345.697z M388.234,344.993l-2.731,2.026
			c0.023,0.677,0.148,1.178,0.373,1.504c0.225,0.325,0.559,0.488,1,0.488c0.46,0,0.801-0.179,1.024-0.535
			c0.223-0.355,0.334-0.902,0.334-1.64V344.993z"/>
		<path fill="#010101" d="M398.855,346.542c0,0.662-0.076,1.245-0.229,1.749s-0.372,0.927-0.658,1.267
			c-0.286,0.341-0.636,0.598-1.049,0.771s-0.877,0.261-1.394,0.261c-0.512,0-0.974-0.087-1.387-0.261
			c-0.413-0.173-0.764-0.43-1.052-0.771c-0.288-0.341-0.512-0.763-0.668-1.267c-0.158-0.504-0.236-1.087-0.236-1.749v-2.45
			c0-0.662,0.077-1.245,0.232-1.749c0.155-0.504,0.377-0.927,0.666-1.267s0.638-0.598,1.049-0.771c0.41-0.173,0.872-0.26,1.383-0.26
			c0.517,0,0.981,0.087,1.395,0.26c0.413,0.174,0.764,0.432,1.052,0.771s0.51,0.763,0.665,1.267s0.231,1.087,0.231,1.749V346.542z
			 M394.154,345.697l2.731-2.034c-0.014-0.69-0.134-1.202-0.358-1.535c-0.226-0.333-0.563-0.5-1.015-0.5
			c-0.455,0-0.795,0.176-1.021,0.528c-0.225,0.352-0.338,0.894-0.338,1.626L394.154,345.697L394.154,345.697z M396.885,344.993
			l-2.73,2.026c0.022,0.677,0.147,1.178,0.373,1.504c0.225,0.325,0.559,0.488,1,0.488c0.46,0,0.801-0.179,1.024-0.535
			c0.224-0.355,0.334-0.902,0.334-1.64V344.993z"/>
	</g>
	<g>
		<rect x="455.339" y="339.629" fill="none" width="29.12" height="25.371"/>
		<path fill="#010101" d="M458.014,345.394l0.584-5.201h5.688v1.661h-4.076l-0.246,2.252c0.146-0.084,0.353-0.172,0.619-0.262
			c0.268-0.089,0.575-0.133,0.922-0.133c0.493,0,0.933,0.079,1.32,0.235c0.387,0.158,0.713,0.384,0.978,0.68
			c0.266,0.295,0.469,0.657,0.609,1.084s0.211,0.91,0.211,1.45c0,0.46-0.068,0.896-0.204,1.31c-0.136,0.413-0.345,0.776-0.626,1.092
			c-0.282,0.313-0.636,0.562-1.062,0.745c-0.428,0.184-0.933,0.274-1.514,0.274c-0.44,0-0.867-0.065-1.277-0.197
			c-0.411-0.132-0.775-0.323-1.096-0.577c-0.318-0.253-0.578-0.563-0.776-0.933c-0.2-0.368-0.308-0.789-0.32-1.263h1.929
			c0.047,0.445,0.208,0.791,0.482,1.035c0.273,0.243,0.625,0.365,1.052,0.365c0.263,0,0.487-0.049,0.672-0.147
			c0.186-0.1,0.335-0.235,0.451-0.408c0.115-0.174,0.199-0.38,0.253-0.62c0.054-0.239,0.081-0.497,0.081-0.773
			c0-0.272-0.034-0.522-0.103-0.75c-0.067-0.229-0.172-0.424-0.312-0.589c-0.141-0.163-0.317-0.291-0.528-0.38
			s-0.46-0.134-0.747-0.134c-0.191,0-0.358,0.017-0.5,0.049c-0.141,0.032-0.265,0.075-0.373,0.126
			c-0.107,0.053-0.203,0.112-0.289,0.181c-0.084,0.067-0.164,0.14-0.238,0.215L458.014,345.394z"/>
		<path fill="#010101" d="M473.24,346.542c0,0.662-0.077,1.245-0.229,1.749c-0.151,0.504-0.372,0.927-0.657,1.267
			c-0.286,0.341-0.637,0.598-1.05,0.771s-0.877,0.261-1.394,0.261c-0.512,0-0.975-0.087-1.387-0.261
			c-0.413-0.173-0.765-0.43-1.053-0.771c-0.288-0.341-0.512-0.763-0.668-1.267c-0.158-0.504-0.235-1.087-0.235-1.749v-2.45
			c0-0.662,0.076-1.245,0.231-1.749s0.377-0.927,0.666-1.267s0.638-0.598,1.049-0.771c0.41-0.173,0.872-0.26,1.383-0.26
			c0.517,0,0.981,0.087,1.395,0.26c0.413,0.174,0.764,0.432,1.052,0.771s0.511,0.763,0.665,1.267
			c0.155,0.504,0.232,1.087,0.232,1.749V346.542z M468.538,345.697l2.73-2.034c-0.014-0.69-0.134-1.202-0.358-1.535
			c-0.226-0.333-0.563-0.5-1.014-0.5c-0.455,0-0.796,0.176-1.021,0.528c-0.225,0.352-0.338,0.894-0.338,1.626L468.538,345.697
			L468.538,345.697z M471.27,344.993l-2.731,2.026c0.022,0.677,0.147,1.178,0.373,1.504c0.225,0.325,0.559,0.488,1,0.488
			c0.46,0,0.801-0.179,1.023-0.535c0.224-0.355,0.335-0.902,0.335-1.64V344.993z"/>
		<path fill="#010101" d="M481.891,346.542c0,0.662-0.076,1.245-0.229,1.749s-0.372,0.927-0.658,1.267
			c-0.286,0.341-0.636,0.598-1.049,0.771s-0.877,0.261-1.395,0.261c-0.512,0-0.974-0.087-1.387-0.261
			c-0.413-0.173-0.764-0.43-1.052-0.771c-0.288-0.341-0.512-0.763-0.668-1.267c-0.158-0.504-0.236-1.087-0.236-1.749v-2.45
			c0-0.662,0.077-1.245,0.232-1.749s0.377-0.927,0.666-1.267s0.638-0.598,1.049-0.771c0.41-0.173,0.872-0.26,1.383-0.26
			c0.517,0,0.981,0.087,1.395,0.26c0.413,0.174,0.764,0.432,1.052,0.771s0.51,0.763,0.665,1.267s0.231,1.087,0.231,1.749V346.542z
			 M477.188,345.697l2.731-2.034c-0.014-0.69-0.134-1.202-0.359-1.535c-0.225-0.333-0.562-0.5-1.014-0.5
			c-0.455,0-0.795,0.176-1.021,0.528c-0.226,0.352-0.339,0.894-0.339,1.626L477.188,345.697L477.188,345.697z M479.919,344.993
			l-2.731,2.026c0.023,0.677,0.148,1.178,0.373,1.504c0.226,0.325,0.56,0.488,1,0.488c0.461,0,0.802-0.179,1.024-0.535
			c0.223-0.355,0.334-0.902,0.334-1.64V344.993z"/>
	</g>
	
		<line fill="none" stroke="#010101" stroke-width="1.424" stroke-miterlimit="10" x1="53.756" y1="456.382" x2="1315.775" y2="456.382"/>
	<g>
		<rect x="1111.432" y="420.29" fill="none" width="203.631" height="27.057"/>
		<path fill="#010101" d="M1164.764,429.677c-0.041,0.639-0.179,1.212-0.412,1.723c-0.234,0.51-0.55,0.942-0.943,1.303
			c-0.395,0.358-0.863,0.637-1.407,0.83c-0.545,0.193-1.146,0.291-1.809,0.291c-0.747,0-1.41-0.138-1.99-0.412
			c-0.579-0.275-1.065-0.66-1.46-1.156s-0.695-1.091-0.904-1.786c-0.208-0.694-0.312-1.46-0.312-2.294v-1.704
			c0-0.84,0.109-1.607,0.33-2.304c0.221-0.695,0.532-1.291,0.938-1.79c0.406-0.498,0.897-0.885,1.474-1.16
			c0.577-0.274,1.225-0.413,1.942-0.413c0.695,0,1.313,0.1,1.855,0.296s1.004,0.479,1.387,0.844
			c0.383,0.364,0.684,0.812,0.904,1.338c0.22,0.526,0.357,1.122,0.417,1.781h-2.435c-0.022-0.376-0.08-0.705-0.17-0.99
			c-0.09-0.283-0.22-0.521-0.391-0.707c-0.171-0.189-0.386-0.331-0.645-0.428c-0.258-0.095-0.565-0.144-0.926-0.144
			c-0.377,0-0.704,0.082-0.982,0.244c-0.276,0.162-0.508,0.398-0.689,0.713c-0.183,0.312-0.317,0.696-0.404,1.15
			s-0.13,0.973-0.13,1.552v1.722c0,1.245,0.175,2.166,0.525,2.764s0.904,0.896,1.664,0.896c0.638,0,1.142-0.169,1.513-0.508
			c0.371-0.34,0.576-0.89,0.616-1.647h2.443V429.677z"/>
		<path fill="#010101" d="M1169.161,425.531c0.312-0.458,0.694-0.817,1.143-1.078c0.449-0.261,0.952-0.391,1.509-0.391
			c0.492,0,0.944,0.073,1.355,0.221s0.765,0.379,1.061,0.69c0.296,0.312,0.525,0.716,0.69,1.204c0.165,0.489,0.248,1.079,0.248,1.77
			v5.692h-2.416v-5.711c0-0.336-0.042-0.625-0.126-0.868s-0.204-0.439-0.361-0.592c-0.155-0.149-0.345-0.263-0.563-0.335
			c-0.221-0.071-0.47-0.107-0.748-0.107c-0.405,0-0.757,0.072-1.056,0.218c-0.3,0.145-0.543,0.348-0.734,0.606v6.789h-2.416v-13.35
			h2.416L1169.161,425.531L1169.161,425.531z"/>
		<path fill="#010101" d="M1183.302,433.641c-0.058-0.115-0.106-0.25-0.146-0.399c-0.041-0.15-0.075-0.311-0.104-0.479
			c-0.133,0.146-0.287,0.281-0.461,0.409s-0.366,0.239-0.577,0.335c-0.212,0.096-0.444,0.17-0.7,0.227
			c-0.255,0.056-0.529,0.083-0.824,0.083c-0.481,0-0.923-0.07-1.326-0.209c-0.402-0.14-0.748-0.333-1.038-0.582
			c-0.29-0.25-0.516-0.548-0.678-0.892c-0.162-0.346-0.244-0.721-0.244-1.126c0-0.991,0.37-1.757,1.108-2.3
			c0.738-0.541,1.842-0.812,3.308-0.812h1.347v-0.556c0-0.452-0.146-0.81-0.442-1.073s-0.722-0.396-1.277-0.396
			c-0.492,0-0.853,0.104-1.078,0.316s-0.339,0.494-0.339,0.849h-2.416c0-0.4,0.088-0.779,0.266-1.14
			c0.177-0.358,0.436-0.676,0.773-0.946c0.339-0.273,0.753-0.488,1.242-0.648c0.489-0.158,1.051-0.238,1.683-0.238
			c0.567,0,1.096,0.069,1.586,0.209c0.489,0.14,0.914,0.345,1.273,0.616c0.357,0.272,0.64,0.616,0.843,1.03s0.304,0.894,0.304,1.438
			v4.032c0,0.504,0.032,0.922,0.096,1.252c0.064,0.33,0.156,0.614,0.278,0.853v0.147L1183.302,433.641L1183.302,433.641z
			 M1180.999,431.945c0.243,0,0.469-0.029,0.678-0.087c0.209-0.059,0.396-0.135,0.564-0.227c0.169-0.093,0.312-0.199,0.435-0.317
			s0.219-0.238,0.287-0.359v-1.617h-1.234c-0.375,0-0.697,0.036-0.965,0.109c-0.266,0.071-0.482,0.174-0.65,0.304
			s-0.293,0.286-0.374,0.47c-0.081,0.183-0.121,0.381-0.121,0.596c0,0.324,0.114,0.595,0.343,0.808
			C1180.189,431.838,1180.535,431.945,1180.999,431.945z"/>
		<path fill="#010101" d="M1190.299,424.236l0.147,1.303c0.336-0.469,0.743-0.832,1.226-1.09c0.48-0.258,1.014-0.387,1.599-0.387
			c0.477,0,0.91,0.068,1.305,0.209c0.395,0.139,0.734,0.358,1.021,0.663c0.287,0.306,0.51,0.695,0.67,1.175
			c0.159,0.478,0.238,1.059,0.238,1.741v5.789h-2.416v-5.754c0-0.371-0.042-0.677-0.126-0.917s-0.204-0.431-0.36-0.568
			c-0.156-0.14-0.345-0.236-0.564-0.291c-0.22-0.056-0.469-0.083-0.747-0.083c-0.412,0-0.762,0.083-1.052,0.248
			s-0.524,0.393-0.704,0.683v6.684h-2.425v-9.403L1190.299,424.236L1190.299,424.236z"/>
		<path fill="#010101" d="M1200.98,424.236l0.146,1.303c0.336-0.469,0.744-0.832,1.226-1.09c0.48-0.258,1.015-0.387,1.6-0.387
			c0.476,0,0.91,0.068,1.304,0.209c0.395,0.139,0.735,0.358,1.021,0.663c0.286,0.306,0.51,0.695,0.67,1.175
			c0.158,0.478,0.237,1.059,0.237,1.741v5.789h-2.416v-5.754c0-0.371-0.042-0.677-0.126-0.917s-0.203-0.431-0.359-0.568
			c-0.157-0.14-0.346-0.236-0.565-0.291c-0.22-0.056-0.469-0.083-0.747-0.083c-0.412,0-0.762,0.083-1.052,0.248
			s-0.524,0.393-0.704,0.683v6.684h-2.425v-9.403L1200.98,424.236L1200.98,424.236z"/>
		<path fill="#010101" d="M1214.034,433.814c-0.724,0-1.382-0.119-1.974-0.357c-0.591-0.236-1.098-0.561-1.521-0.969
			c-0.424-0.408-0.749-0.89-0.979-1.442c-0.229-0.554-0.343-1.146-0.343-1.777v-0.348c0-0.719,0.112-1.375,0.339-1.969
			s0.542-1.104,0.947-1.534c0.405-0.429,0.887-0.762,1.442-1c0.557-0.236,1.162-0.354,1.816-0.354c0.679,0,1.281,0.11,1.812,0.334
			c0.53,0.224,0.979,0.537,1.348,0.942c0.367,0.406,0.647,0.896,0.839,1.465c0.19,0.57,0.286,1.201,0.286,1.892v1.024h-6.379
			c0.046,0.318,0.14,0.609,0.282,0.873c0.142,0.265,0.323,0.491,0.543,0.683c0.221,0.19,0.473,0.34,0.756,0.442
			c0.284,0.105,0.595,0.157,0.931,0.157c0.237,0,0.475-0.023,0.708-0.069c0.234-0.047,0.459-0.114,0.674-0.205
			c0.215-0.09,0.414-0.2,0.601-0.334c0.186-0.133,0.348-0.29,0.485-0.47l1.209,1.304c-0.15,0.216-0.347,0.426-0.587,0.632
			c-0.24,0.204-0.523,0.388-0.853,0.547c-0.327,0.16-0.69,0.289-1.091,0.387C1214.93,433.765,1214.498,433.814,1214.034,433.814z
			 M1213.748,426.018c-0.271,0-0.521,0.049-0.748,0.145c-0.226,0.096-0.424,0.232-0.595,0.413c-0.171,0.18-0.314,0.395-0.432,0.643
			c-0.115,0.25-0.202,0.527-0.261,0.835h3.963v-0.19c-0.011-0.255-0.061-0.495-0.146-0.723c-0.087-0.226-0.211-0.422-0.374-0.586
			c-0.162-0.166-0.36-0.296-0.595-0.392C1214.325,426.066,1214.055,426.018,1213.748,426.018z"/>
		<path fill="#010101" d="M1220.657,420.29h5.259v11.386h2.694v1.965h-7.953v-1.965h2.815v-9.412h-2.815V420.29z"/>
		<path fill="#010101" d="M1241.412,433.641v-12.654h4.25c0.688,0,1.316,0.068,1.882,0.208s1.048,0.352,1.447,0.635
			c0.398,0.284,0.708,0.644,0.926,1.078c0.217,0.435,0.325,0.946,0.325,1.539c-0.005,0.59-0.163,1.121-0.475,1.59
			c-0.31,0.469-0.766,0.826-1.367,1.067c0.364,0.095,0.681,0.232,0.946,0.419c0.267,0.186,0.488,0.403,0.665,0.655
			c0.178,0.252,0.308,0.527,0.392,0.826c0.084,0.298,0.126,0.606,0.126,0.925c0,0.608-0.104,1.146-0.312,1.608
			c-0.209,0.463-0.507,0.852-0.896,1.164c-0.389,0.312-0.86,0.548-1.417,0.704c-0.557,0.157-1.183,0.234-1.877,0.234
			L1241.412,433.641L1241.412,433.641z M1243.863,426.296h1.815c0.679-0.006,1.199-0.146,1.564-0.426s0.551-0.688,0.557-1.227
			c0-0.591-0.183-1.016-0.548-1.272s-0.893-0.391-1.582-0.396h-1.808L1243.863,426.296L1243.863,426.296z M1243.863,428.061v3.606
			h2.173c0.666-0.005,1.175-0.169,1.524-0.491c0.352-0.32,0.525-0.742,0.525-1.264c0.006-0.58-0.15-1.031-0.469-1.356
			c-0.319-0.323-0.812-0.488-1.479-0.495H1243.863z"/>
		<path fill="#010101" d="M1258.073,433.641c-0.059-0.115-0.107-0.25-0.147-0.399c-0.041-0.15-0.074-0.311-0.104-0.479
			c-0.133,0.146-0.287,0.281-0.461,0.409c-0.175,0.128-0.366,0.239-0.577,0.335c-0.212,0.096-0.445,0.17-0.7,0.227
			c-0.255,0.056-0.53,0.083-0.825,0.083c-0.48,0-0.923-0.07-1.326-0.209c-0.401-0.14-0.748-0.333-1.038-0.582
			c-0.289-0.25-0.516-0.548-0.678-0.892c-0.162-0.346-0.244-0.721-0.244-1.126c0-0.991,0.37-1.757,1.108-2.3
			c0.739-0.541,1.842-0.812,3.308-0.812h1.348v-0.556c0-0.452-0.147-0.81-0.443-1.073c-0.295-0.264-0.721-0.396-1.277-0.396
			c-0.491,0-0.852,0.104-1.077,0.316c-0.227,0.212-0.339,0.494-0.339,0.849h-2.416c0-0.4,0.088-0.779,0.266-1.14
			c0.176-0.358,0.435-0.676,0.772-0.946c0.339-0.273,0.753-0.488,1.242-0.648c0.49-0.158,1.051-0.238,1.683-0.238
			c0.567,0,1.097,0.069,1.587,0.209c0.488,0.14,0.913,0.345,1.272,0.616c0.358,0.272,0.641,0.616,0.843,1.03
			c0.203,0.414,0.305,0.894,0.305,1.438v4.032c0,0.504,0.031,0.922,0.096,1.252c0.063,0.33,0.156,0.614,0.278,0.853v0.147
			L1258.073,433.641L1258.073,433.641z M1255.771,431.945c0.242,0,0.469-0.029,0.678-0.087c0.209-0.059,0.396-0.135,0.563-0.227
			c0.169-0.093,0.313-0.199,0.436-0.317s0.218-0.238,0.287-0.359v-1.617h-1.234c-0.376,0-0.698,0.036-0.965,0.109
			c-0.267,0.071-0.483,0.174-0.651,0.304s-0.293,0.286-0.374,0.47c-0.081,0.183-0.121,0.381-0.121,0.596
			c0,0.324,0.114,0.595,0.344,0.808C1254.961,431.838,1255.307,431.945,1255.771,431.945z"/>
		<path fill="#010101" d="M1263.384,420.29h5.259v11.386h2.694v1.965h-7.953v-1.965h2.816v-9.412h-2.816V420.29z"/>
		<path fill="#010101" d="M1279.438,433.641c-0.059-0.115-0.107-0.25-0.147-0.399c-0.041-0.15-0.075-0.311-0.104-0.479
			c-0.133,0.146-0.286,0.281-0.461,0.409c-0.174,0.128-0.365,0.239-0.576,0.335c-0.213,0.096-0.445,0.17-0.7,0.227
			c-0.255,0.056-0.53,0.083-0.825,0.083c-0.48,0-0.923-0.07-1.326-0.209c-0.402-0.14-0.748-0.333-1.038-0.582
			c-0.29-0.25-0.516-0.548-0.678-0.892c-0.162-0.346-0.244-0.721-0.244-1.126c0-0.991,0.37-1.757,1.108-2.3
			c0.738-0.541,1.842-0.812,3.308-0.812h1.347v-0.556c0-0.452-0.146-0.81-0.442-1.073c-0.295-0.264-0.721-0.396-1.277-0.396
			c-0.491,0-0.852,0.104-1.078,0.316c-0.226,0.212-0.339,0.494-0.339,0.849h-2.416c0-0.4,0.088-0.779,0.267-1.14
			c0.176-0.358,0.435-0.676,0.772-0.946c0.339-0.273,0.753-0.488,1.242-0.648c0.49-0.158,1.051-0.238,1.683-0.238
			c0.567,0,1.097,0.069,1.586,0.209s0.914,0.345,1.273,0.616c0.358,0.272,0.64,0.616,0.843,1.03s0.304,0.894,0.304,1.438v4.032
			c0,0.504,0.032,0.922,0.097,1.252c0.063,0.33,0.155,0.614,0.277,0.853v0.147L1279.438,433.641L1279.438,433.641z
			 M1277.134,431.945c0.243,0,0.47-0.029,0.679-0.087c0.209-0.059,0.396-0.135,0.563-0.227c0.169-0.093,0.313-0.199,0.435-0.317
			c0.122-0.118,0.219-0.238,0.287-0.359v-1.617h-1.233c-0.376,0-0.698,0.036-0.965,0.109c-0.267,0.071-0.483,0.174-0.651,0.304
			s-0.293,0.286-0.374,0.47c-0.081,0.183-0.121,0.381-0.121,0.596c0,0.324,0.114,0.595,0.343,0.808
			C1276.324,431.838,1276.67,431.945,1277.134,431.945z"/>
		<path fill="#010101" d="M1286.434,424.236l0.147,1.303c0.336-0.469,0.744-0.832,1.226-1.09c0.48-0.258,1.015-0.387,1.6-0.387
			c0.476,0,0.91,0.068,1.304,0.209c0.395,0.139,0.735,0.358,1.021,0.663c0.287,0.306,0.511,0.695,0.67,1.175
			c0.159,0.478,0.238,1.059,0.238,1.741v5.789h-2.416v-5.754c0-0.371-0.042-0.677-0.126-0.917s-0.204-0.431-0.359-0.568
			c-0.157-0.14-0.346-0.236-0.565-0.291c-0.22-0.056-0.469-0.083-0.747-0.083c-0.412,0-0.762,0.083-1.052,0.248
			s-0.524,0.393-0.704,0.683v6.684h-2.425v-9.403L1286.434,424.236L1286.434,424.236z"/>
		<path fill="#010101" d="M1299.088,431.885c0.237,0,0.464-0.035,0.678-0.104c0.215-0.069,0.403-0.168,0.565-0.296
			c0.162-0.127,0.288-0.281,0.378-0.461s0.129-0.38,0.117-0.601h2.276c0.013,0.487-0.089,0.939-0.3,1.356
			c-0.212,0.417-0.5,0.775-0.865,1.077c-0.364,0.302-0.789,0.537-1.272,0.709c-0.483,0.171-0.995,0.256-1.534,0.256
			c-0.729,0-1.37-0.123-1.92-0.369c-0.551-0.246-1.01-0.584-1.378-1.012c-0.368-0.431-0.646-0.933-0.834-1.51
			c-0.188-0.575-0.283-1.193-0.283-1.854v-0.261c0-0.66,0.093-1.279,0.278-1.855c0.185-0.576,0.464-1.079,0.834-1.508
			c0.371-0.43,0.83-0.769,1.378-1.019c0.548-0.247,1.184-0.372,1.907-0.372c0.579,0,1.115,0.086,1.607,0.26s0.917,0.42,1.273,0.733
			c0.355,0.316,0.633,0.699,0.83,1.148c0.196,0.449,0.289,0.951,0.277,1.508h-2.277c0.013-0.231-0.022-0.452-0.104-0.66
			c-0.081-0.209-0.2-0.389-0.355-0.539c-0.156-0.149-0.346-0.271-0.564-0.36c-0.221-0.09-0.461-0.136-0.722-0.136
			c-0.382,0-0.698,0.078-0.947,0.234s-0.447,0.365-0.596,0.627c-0.147,0.26-0.252,0.56-0.312,0.896
			c-0.06,0.336-0.092,0.684-0.092,1.043v0.261c0,0.365,0.029,0.718,0.087,1.056c0.059,0.34,0.161,0.639,0.309,0.896
			c0.148,0.258,0.349,0.465,0.602,0.622C1298.38,431.807,1298.699,431.885,1299.088,431.885z"/>
		<path fill="#010101" d="M1310.169,433.814c-0.724,0-1.382-0.119-1.973-0.357c-0.591-0.236-1.099-0.561-1.521-0.969
			c-0.424-0.408-0.749-0.89-0.979-1.442c-0.229-0.554-0.344-1.146-0.344-1.777v-0.348c0-0.719,0.112-1.375,0.339-1.969
			s0.543-1.104,0.947-1.534c0.405-0.429,0.887-0.762,1.442-1c0.557-0.236,1.162-0.354,1.817-0.354c0.678,0,1.28,0.11,1.812,0.334
			c0.53,0.224,0.979,0.537,1.348,0.942c0.367,0.406,0.647,0.896,0.839,1.465c0.19,0.57,0.286,1.201,0.286,1.892v1.024h-6.379
			c0.046,0.318,0.141,0.609,0.282,0.873c0.142,0.265,0.323,0.491,0.543,0.683c0.221,0.19,0.473,0.34,0.756,0.442
			c0.284,0.105,0.595,0.157,0.932,0.157c0.236,0,0.474-0.023,0.707-0.069c0.234-0.047,0.459-0.114,0.675-0.205
			c0.214-0.09,0.413-0.2,0.6-0.334c0.187-0.133,0.348-0.29,0.486-0.47l1.208,1.304c-0.15,0.216-0.347,0.426-0.586,0.632
			c-0.241,0.204-0.524,0.388-0.854,0.547c-0.327,0.16-0.689,0.289-1.091,0.387C1311.064,433.765,1310.633,433.814,1310.169,433.814z
			 M1309.883,426.018c-0.271,0-0.521,0.049-0.748,0.145c-0.226,0.096-0.424,0.232-0.595,0.413c-0.171,0.18-0.313,0.395-0.431,0.643
			c-0.116,0.25-0.203,0.527-0.262,0.835h3.963v-0.19c-0.011-0.255-0.061-0.495-0.146-0.723c-0.087-0.226-0.211-0.422-0.374-0.586
			c-0.162-0.166-0.36-0.296-0.595-0.392C1310.46,426.066,1310.189,426.018,1309.883,426.018z"/>
	</g>
	
		<rect x="696.564" y="211.501" fill="none" stroke="#010101" stroke-width="1.068" stroke-miterlimit="10" stroke-dasharray="6.9196" width="59.969" height="173.042"/>
	
		<rect x="613.531" y="308.481" fill="none" stroke="#010101" stroke-width="1.068" stroke-miterlimit="10" stroke-dasharray="6.9196" width="59.97" height="76.062"/>
	
		<rect x="952.27" y="235.782" fill="none" stroke="#010101" stroke-width="1.068" stroke-miterlimit="10" stroke-dasharray="6.9196" width="59.972" height="148.797"/>
	
		<rect x="869.236" y="284.271" fill="none" stroke="#010101" stroke-width="1.068" stroke-miterlimit="10" stroke-dasharray="6.9196" width="59.969" height="100.308"/>
</g>
</svg>
