<?xml version="1.0" encoding="utf-8"?>
<!-- Generator: Adobe Illustrator 16.0.4, SVG Export Plug-In . SVG Version: 6.00 Build 0)  -->
<!DOCTYPE svg PUBLIC "-//W3C//DTD SVG 1.1//EN" "http://www.w3.org/Graphics/SVG/1.1/DTD/svg11.dtd">
<svg version="1.1" id="Layer_1" xmlns="http://www.w3.org/2000/svg" xmlns:xlink="http://www.w3.org/1999/xlink" x="0px" y="0px"
	 width="1366px" height="768px" viewBox="0 0 1366 768" enable-background="new 0 0 1366 768" xml:space="preserve">
<g>
	<rect x="-0.493" y="-0.402" fill="#FFFFFF" width="1367.478" height="769.206"/>
	<circle fill="#010101" cx="488.808" cy="414.01" r="7.032"/>
	<circle fill="#010101" cx="98.683" cy="414.01" r="7.032"/>
	<circle fill="#010101" cx="879.158" cy="414.01" r="7.033"/>
	<path fill="none" stroke="#010101" stroke-width="2.2258" stroke-miterlimit="10" d="M582.853,414.01"/>
	<circle fill="#010101" cx="1268.799" cy="414.01" r="7.031"/>
	<g>
		<rect x="15.352" y="450.307" fill="none" width="166.661" height="39.884"/>
		<path fill="#010101" d="M101.512,465.303h-5.319l-1.046,3.7h-3.603l5.806-17.723h3.104l5.697,17.723h-3.603L101.512,465.303z
			 M97.033,462.394h3.676l-1.814-6.524L97.033,462.394z"/>
	</g>
	<g>
		<rect x="405.912" y="450.307" fill="none" width="166.661" height="21.366"/>
		<path fill="#010101" d="M483.333,469.003V451.28h5.952c0.966,0,1.844,0.098,2.635,0.293c0.792,0.194,1.467,0.49,2.027,0.888
			c0.56,0.398,0.992,0.901,1.296,1.51s0.457,1.327,0.457,2.154c-0.008,0.828-0.229,1.57-0.664,2.228s-1.073,1.156-1.917,1.497
			c0.511,0.13,0.953,0.325,1.327,0.584c0.373,0.26,0.684,0.566,0.931,0.919c0.248,0.354,0.43,0.739,0.548,1.156
			c0.117,0.419,0.176,0.851,0.176,1.297c0,0.852-0.146,1.603-0.438,2.252c-0.292,0.649-0.71,1.192-1.254,1.631
			s-1.205,0.767-1.984,0.985c-0.779,0.22-1.655,0.329-2.629,0.329H483.333z M486.765,458.718h2.544
			c0.95-0.008,1.68-0.207,2.191-0.597s0.771-0.961,0.779-1.716c0-0.828-0.256-1.422-0.767-1.783s-1.25-0.546-2.215-0.554h-2.532
			V458.718z M486.765,461.188v5.052h3.043c0.933-0.009,1.646-0.237,2.136-0.688c0.491-0.45,0.736-1.04,0.736-1.771
			c0.008-0.812-0.211-1.444-0.657-1.898c-0.446-0.455-1.136-0.687-2.069-0.694H486.765z"/>
	</g>
	<g>
		<rect x="795.961" y="450.307" fill="none" width="166.662" height="21.366"/>
		<path fill="#010101" d="M885.713,463.452c-0.057,0.894-0.25,1.696-0.578,2.41c-0.33,0.715-0.77,1.323-1.322,1.826
			c-0.551,0.503-1.209,0.891-1.971,1.162c-0.764,0.271-1.607,0.408-2.531,0.408c-1.047,0-1.977-0.193-2.787-0.578
			c-0.812-0.386-1.494-0.926-2.045-1.619c-0.553-0.693-0.975-1.527-1.268-2.501c-0.291-0.974-0.438-2.045-0.438-3.214v-2.386
			c0-1.177,0.154-2.252,0.463-3.226s0.746-1.81,1.314-2.507c0.568-0.698,1.256-1.24,2.062-1.625
			c0.809-0.386,1.715-0.578,2.721-0.578c0.975,0,1.84,0.138,2.6,0.413c0.758,0.276,1.404,0.67,1.941,1.181
			c0.535,0.512,0.957,1.137,1.266,1.875s0.502,1.57,0.584,2.495h-3.408c-0.033-0.527-0.111-0.99-0.238-1.388
			c-0.125-0.397-0.309-0.729-0.547-0.992c-0.24-0.264-0.539-0.462-0.9-0.596c-0.361-0.135-0.793-0.201-1.297-0.201
			c-0.527,0-0.986,0.113-1.375,0.341c-0.391,0.228-0.713,0.56-0.969,0.998c-0.254,0.438-0.443,0.976-0.564,1.612
			c-0.123,0.638-0.184,1.361-0.184,2.173v2.41c0,1.745,0.246,3.035,0.736,3.871c0.492,0.836,1.268,1.253,2.332,1.253
			c0.893,0,1.598-0.237,2.117-0.712s0.807-1.243,0.863-2.307H885.713z"/>
	</g>
	<g>
		<rect x="1185.469" y="450.307" fill="none" width="166.662" height="39.884"/>
		<path fill="#010101" d="M1262.842,469.003V451.28h4.588c1.178,0,2.242,0.201,3.195,0.603c0.953,0.402,1.77,0.962,2.447,1.68
			c0.678,0.719,1.201,1.577,1.57,2.575s0.553,2.093,0.553,3.286v1.461c0,1.192-0.184,2.286-0.553,3.28s-0.887,1.85-1.553,2.567
			c-0.666,0.719-1.465,1.276-2.398,1.674c-0.932,0.397-1.963,0.597-3.092,0.597H1262.842z M1266.285,454.056v12.196h1.314
			c0.643,0,1.217-0.122,1.723-0.365c0.508-0.243,0.938-0.597,1.291-1.059c0.354-0.463,0.623-1.024,0.809-1.686
			c0.188-0.662,0.281-1.414,0.281-2.258v-1.485c0-0.795-0.092-1.52-0.275-2.173c-0.182-0.653-0.453-1.215-0.814-1.686
			s-0.809-0.836-1.34-1.096s-1.146-0.39-1.844-0.39H1266.285z"/>
	</g>
	<rect x="1085.414" y="237.417" fill="#C8D7E2" enable-background="new    " width="59.989" height="107.656"/>
	<rect x="1002.352" y="244.152" fill="#C8D7E2" enable-background="new    " width="59.989" height="100.921"/>
	<rect x="696.296" y="216.05" fill="#C8D7E2" enable-background="new    " width="59.989" height="128.987"/>
	<rect x="613.234" y="256.859" fill="#C8D7E2" enable-background="new    " width="59.989" height="88.177"/>
	<g>
		<rect x="1087.145" y="353.728" fill="none" width="58.26" height="25.381"/>
		<path fill="#010101" d="M1111.725,368.004v-13.533h3.504c0.898,0,1.711,0.153,2.439,0.46c0.729,0.307,1.352,0.734,1.869,1.283
			s0.916,1.204,1.199,1.966c0.281,0.762,0.422,1.599,0.422,2.51v1.115c0,0.911-0.141,1.746-0.422,2.505
			c-0.283,0.759-0.678,1.413-1.186,1.961s-1.119,0.975-1.832,1.278c-0.711,0.304-1.498,0.456-2.359,0.456H1111.725z
			 M1114.355,356.59v9.313h1.004c0.488,0,0.928-0.093,1.314-0.279s0.717-0.456,0.986-0.809s0.475-0.782,0.617-1.287
			s0.213-1.08,0.213-1.724v-1.134c0-0.607-0.068-1.16-0.209-1.659c-0.139-0.499-0.346-0.928-0.621-1.288
			c-0.277-0.359-0.617-0.638-1.023-0.836c-0.406-0.198-0.875-0.297-1.408-0.297H1114.355z"/>
	</g>
	<g>
		<rect x="1004.08" y="353.728" fill="none" width="58.262" height="25.381"/>
		<path fill="#010101" d="M1038.113,363.766c-0.043,0.682-0.189,1.295-0.441,1.84c-0.25,0.545-0.586,1.01-1.008,1.394
			c-0.422,0.384-0.924,0.68-1.506,0.888s-1.227,0.312-1.934,0.312c-0.799,0-1.508-0.147-2.129-0.441
			c-0.619-0.294-1.139-0.707-1.561-1.236s-0.744-1.167-0.967-1.91s-0.334-1.562-0.334-2.454v-1.822c0-0.898,0.117-1.719,0.354-2.463
			c0.234-0.744,0.568-1.382,1.002-1.915s0.959-0.946,1.576-1.241s1.309-0.442,2.078-0.442c0.742,0,1.404,0.105,1.984,0.316
			c0.578,0.21,1.072,0.511,1.482,0.901c0.408,0.391,0.73,0.868,0.967,1.431c0.234,0.564,0.383,1.199,0.445,1.906h-2.602
			c-0.025-0.403-0.086-0.756-0.182-1.06s-0.236-0.556-0.418-0.758c-0.184-0.201-0.412-0.353-0.689-0.455
			c-0.275-0.103-0.605-0.154-0.988-0.154c-0.404,0-0.754,0.087-1.051,0.26c-0.297,0.174-0.543,0.428-0.738,0.762
			c-0.195,0.335-0.34,0.745-0.434,1.231c-0.092,0.487-0.139,1.04-0.139,1.659v1.84c0,1.333,0.188,2.317,0.562,2.956
			s0.967,0.958,1.779,0.958c0.682,0,1.221-0.181,1.617-0.544c0.396-0.362,0.617-0.949,0.66-1.761H1038.113z"/>
	</g>
	<g>
		<rect x="614.1" y="353.728" fill="none" width="58.257" height="25.381"/>
		<path fill="#010101" d="M638.715,368.004v-13.533h4.545c0.737,0,1.408,0.074,2.012,0.223c0.604,0.149,1.12,0.375,1.547,0.679
			s0.757,0.688,0.99,1.152s0.349,1.013,0.349,1.645c-0.006,0.632-0.175,1.199-0.506,1.701c-0.332,0.502-0.82,0.883-1.464,1.144
			c0.39,0.099,0.728,0.248,1.013,0.446c0.285,0.199,0.522,0.433,0.711,0.702c0.188,0.27,0.328,0.563,0.418,0.883
			s0.135,0.649,0.135,0.99c0,0.651-0.111,1.224-0.334,1.72c-0.223,0.496-0.542,0.911-0.958,1.245s-0.92,0.585-1.515,0.753
			c-0.595,0.167-1.264,0.251-2.008,0.251H638.715z M641.336,360.15h1.943c0.725-0.006,1.282-0.158,1.673-0.456
			c0.39-0.297,0.588-0.734,0.595-1.311c0-0.632-0.195-1.086-0.585-1.362c-0.391-0.275-0.954-0.417-1.691-0.423h-1.934V360.15z
			 M641.336,362.037v3.857h2.324c0.712-0.006,1.256-0.181,1.631-0.525c0.375-0.344,0.562-0.795,0.562-1.353
			c0.006-0.62-0.161-1.103-0.502-1.45c-0.341-0.347-0.867-0.524-1.58-0.53H641.336z"/>
	</g>
	<g>
		<rect x="697.16" y="353.728" fill="none" width="58.26" height="25.381"/>
		<path fill="#010101" d="M731.193,363.766c-0.045,0.682-0.191,1.295-0.441,1.84c-0.252,0.545-0.588,1.01-1.01,1.394
			c-0.42,0.384-0.922,0.68-1.506,0.888c-0.582,0.208-1.227,0.312-1.932,0.312c-0.801,0-1.51-0.147-2.129-0.441
			c-0.619-0.294-1.141-0.707-1.562-1.236c-0.42-0.53-0.742-1.167-0.965-1.91c-0.225-0.744-0.336-1.562-0.336-2.454v-1.822
			c0-0.898,0.117-1.719,0.354-2.463s0.57-1.382,1.004-1.915s0.959-0.946,1.576-1.241c0.615-0.294,1.309-0.442,2.076-0.442
			c0.744,0,1.404,0.105,1.984,0.316c0.58,0.21,1.074,0.511,1.482,0.901c0.41,0.391,0.73,0.868,0.967,1.431
			c0.236,0.564,0.385,1.199,0.445,1.906H728.6c-0.025-0.403-0.086-0.756-0.182-1.06s-0.234-0.556-0.418-0.758
			c-0.184-0.201-0.412-0.353-0.688-0.455c-0.275-0.103-0.605-0.154-0.99-0.154c-0.402,0-0.752,0.087-1.051,0.26
			c-0.297,0.174-0.543,0.428-0.738,0.762c-0.195,0.335-0.34,0.745-0.432,1.231c-0.094,0.487-0.141,1.04-0.141,1.659v1.84
			c0,1.333,0.188,2.317,0.562,2.956s0.969,0.958,1.781,0.958c0.682,0,1.221-0.181,1.617-0.544c0.396-0.362,0.615-0.949,0.66-1.761
			H731.193z"/>
	</g>
	<rect x="222.709" y="220.48" fill="#C8D7E2" enable-background="new    " width="59.989" height="124.592"/>
	<rect x="305.771" y="265.133" fill="#C8D7E2" enable-background="new    " width="59.989" height="79.94"/>
	<g>
		<rect x="224.44" y="353.728" fill="none" width="58.258" height="25.381"/>
		<path fill="#010101" d="M255.73,365.178h-4.062l-0.799,2.826h-2.751l4.434-13.533h2.37l4.35,13.533h-2.751L255.73,365.178z
			 M252.31,362.957h2.807l-1.385-4.982L252.31,362.957z"/>
	</g>
	<g>
		<rect x="306.635" y="353.728" fill="none" width="58.259" height="25.381"/>
		<path fill="#010101" d="M331.251,368.004v-13.533h4.545c0.737,0,1.408,0.074,2.012,0.223c0.604,0.149,1.12,0.375,1.547,0.679
			s0.757,0.688,0.99,1.152s0.349,1.013,0.349,1.645c-0.006,0.632-0.175,1.199-0.506,1.701c-0.332,0.502-0.82,0.883-1.464,1.144
			c0.39,0.099,0.728,0.248,1.013,0.446c0.285,0.199,0.522,0.433,0.711,0.702c0.188,0.27,0.328,0.563,0.418,0.883
			s0.135,0.649,0.135,0.99c0,0.651-0.111,1.224-0.334,1.72c-0.223,0.496-0.542,0.911-0.958,1.245s-0.92,0.585-1.515,0.753
			c-0.595,0.167-1.264,0.251-2.008,0.251H331.251z M333.873,360.15h1.943c0.725-0.006,1.282-0.158,1.673-0.456
			c0.39-0.297,0.588-0.734,0.595-1.311c0-0.632-0.195-1.086-0.585-1.362c-0.391-0.275-0.954-0.417-1.691-0.423h-1.934V360.15z
			 M333.873,362.037v3.857h2.324c0.712-0.006,1.256-0.181,1.631-0.525c0.375-0.344,0.562-0.795,0.562-1.353
			c0.006-0.62-0.161-1.103-0.502-1.45c-0.341-0.347-0.867-0.524-1.58-0.53H333.873z"/>
	</g>
	
		<line fill="#010101" stroke="#010101" stroke-width="1.4245" stroke-miterlimit="10" x1="481.776" y1="414.01" x2="105.715" y2="414.01"/>
	
		<line fill="#010101" stroke="#010101" stroke-width="1.4245" stroke-miterlimit="10" x1="495.839" y1="414.01" x2="872.125" y2="414.01"/>
	
		<line fill="#010101" stroke="#010101" stroke-width="1.4245" stroke-miterlimit="10" x1="885.535" y1="414.01" x2="1261.768" y2="414.01"/>
	<g>
		<line fill="#010101" x1="481.776" y1="414.01" x2="105.715" y2="414.01"/>
		<g>
			
				<line fill="none" stroke="#010101" stroke-width="2.8489" stroke-miterlimit="10" x1="470.713" y1="414.01" x2="105.715" y2="414.01"/>
			<g>
				<polygon fill="#010101" points="481.776,414.01 466.187,407.64 469.886,414.01 466.187,420.378 				"/>
			</g>
		</g>
	</g>
	<g>
		<line fill="#010101" x1="495.839" y1="414.01" x2="872.125" y2="414.01"/>
		<g>
			
				<line fill="none" stroke="#010101" stroke-width="2.8489" stroke-miterlimit="10" x1="495.839" y1="414.01" x2="861.062" y2="414.01"/>
			<g>
				<polygon fill="#010101" points="872.125,414.01 856.535,420.38 860.234,414.01 856.535,407.642 				"/>
			</g>
		</g>
	</g>
	<g>
		<line fill="#010101" x1="885.535" y1="414.01" x2="1261.768" y2="414.01"/>
		<g>
			
				<line fill="none" stroke="#010101" stroke-width="2.8489" stroke-miterlimit="10" x1="885.535" y1="414.01" x2="1250.704" y2="414.01"/>
			<g>
				<polygon fill="#010101" points="1261.768,414.01 1246.178,420.38 1249.877,414.01 1246.178,407.642 				"/>
			</g>
		</g>
	</g>
	<g>
		<g>
			<polyline fill="none" stroke="#010101" stroke-width="0.9964" stroke-miterlimit="10" points="673.472,279.548 673.472,282.776 
				670.244,282.776 			"/>
			
				<line fill="none" stroke="#010101" stroke-width="0.9964" stroke-miterlimit="10" stroke-dasharray="5.9481,5.9481" x1="664.296" y1="282.776" x2="619.686" y2="282.776"/>
			<polyline fill="none" stroke="#010101" stroke-width="0.9964" stroke-miterlimit="10" points="616.712,282.776 613.484,282.776 
				613.484,279.548 			"/>
			
				<line fill="none" stroke="#010101" stroke-width="0.9964" stroke-miterlimit="10" stroke-dasharray="6.487,6.487" x1="613.484" y1="273.062" x2="613.484" y2="263.331"/>
			<polyline fill="none" stroke="#010101" stroke-width="0.9964" stroke-miterlimit="10" points="613.484,260.087 613.484,256.859 
				616.712,256.859 			"/>
			
				<line fill="none" stroke="#010101" stroke-width="0.9964" stroke-miterlimit="10" stroke-dasharray="5.9481,5.9481" x1="622.66" y1="256.859" x2="667.27" y2="256.859"/>
			<polyline fill="none" stroke="#010101" stroke-width="0.9964" stroke-miterlimit="10" points="670.244,256.859 673.472,256.859 
				673.472,260.087 			"/>
			
				<line fill="none" stroke="#010101" stroke-width="0.9964" stroke-miterlimit="10" stroke-dasharray="6.487,6.487" x1="673.472" y1="266.574" x2="673.472" y2="276.305"/>
		</g>
	</g>
	<g>
		<g>
			<polyline fill="none" stroke="#010101" stroke-width="0.9964" stroke-miterlimit="10" points="756.285,212.822 756.285,216.05 
				753.058,216.05 			"/>
			
				<line fill="none" stroke="#010101" stroke-width="0.9964" stroke-miterlimit="10" stroke-dasharray="5.9481,5.9481" x1="747.109" y1="216.05" x2="702.498" y2="216.05"/>
			<polyline fill="none" stroke="#010101" stroke-width="0.9964" stroke-miterlimit="10" points="699.523,216.05 696.296,216.05 
				696.296,212.822 			"/>
			
				<line fill="none" stroke="#010101" stroke-width="0.9964" stroke-miterlimit="10" stroke-dasharray="6.487,6.487" x1="696.296" y1="206.335" x2="696.296" y2="196.604"/>
			<polyline fill="none" stroke="#010101" stroke-width="0.9964" stroke-miterlimit="10" points="696.296,193.361 696.296,190.133 
				699.523,190.133 			"/>
			
				<line fill="none" stroke="#010101" stroke-width="0.9964" stroke-miterlimit="10" stroke-dasharray="5.9481,5.9481" x1="705.472" y1="190.133" x2="750.083" y2="190.133"/>
			<polyline fill="none" stroke="#010101" stroke-width="0.9964" stroke-miterlimit="10" points="753.058,190.133 756.285,190.133 
				756.285,193.361 			"/>
			
				<line fill="none" stroke="#010101" stroke-width="0.9964" stroke-miterlimit="10" stroke-dasharray="6.487,6.487" x1="756.285" y1="199.848" x2="756.285" y2="209.578"/>
		</g>
	</g>
	<g>
		<g>
			<polyline fill="none" stroke="#010101" stroke-width="0.9523" stroke-miterlimit="10" points="1062.341,264.738 
				1062.341,267.823 1059.256,267.823 			"/>
			
				<line fill="none" stroke="#010101" stroke-width="0.9523" stroke-miterlimit="10" stroke-dasharray="5.9799,5.9799" x1="1053.275" y1="267.823" x2="1008.427" y2="267.823"/>
			<polyline fill="none" stroke="#010101" stroke-width="0.9523" stroke-miterlimit="10" points="1005.437,267.823 
				1002.352,267.823 1002.352,264.738 			"/>
			
				<line fill="none" stroke="#010101" stroke-width="0.9523" stroke-miterlimit="10" stroke-dasharray="5.8338,5.8338" x1="1002.352" y1="258.904" x2="1002.352" y2="250.154"/>
			<polyline fill="none" stroke="#010101" stroke-width="0.9523" stroke-miterlimit="10" points="1002.352,247.237 
				1002.352,244.152 1005.437,244.152 			"/>
			
				<line fill="none" stroke="#010101" stroke-width="0.9523" stroke-miterlimit="10" stroke-dasharray="5.9799,5.9799" x1="1011.416" y1="244.152" x2="1056.266" y2="244.152"/>
			<polyline fill="none" stroke="#010101" stroke-width="0.9523" stroke-miterlimit="10" points="1059.256,244.152 
				1062.341,244.152 1062.341,247.237 			"/>
			
				<line fill="none" stroke="#010101" stroke-width="0.9523" stroke-miterlimit="10" stroke-dasharray="5.8338,5.8338" x1="1062.341" y1="253.071" x2="1062.341" y2="261.821"/>
		</g>
	</g>
	<g>
		<g>
			<polyline fill="none" stroke="#010101" stroke-width="0.9523" stroke-miterlimit="10" points="1145.402,234.332 
				1145.402,237.417 1142.317,237.417 			"/>
			
				<line fill="none" stroke="#010101" stroke-width="0.9523" stroke-miterlimit="10" stroke-dasharray="5.9798,5.9798" x1="1136.338" y1="237.417" x2="1091.489" y2="237.417"/>
			<polyline fill="none" stroke="#010101" stroke-width="0.9523" stroke-miterlimit="10" points="1088.499,237.417 
				1085.414,237.417 1085.414,234.332 			"/>
			
				<line fill="none" stroke="#010101" stroke-width="0.9523" stroke-miterlimit="10" stroke-dasharray="5.8341,5.8341" x1="1085.414" y1="228.498" x2="1085.414" y2="219.747"/>
			<polyline fill="none" stroke="#010101" stroke-width="0.9523" stroke-miterlimit="10" points="1085.414,216.83 1085.414,213.745 
				1088.499,213.745 			"/>
			
				<line fill="none" stroke="#010101" stroke-width="0.9523" stroke-miterlimit="10" stroke-dasharray="5.9798,5.9798" x1="1094.479" y1="213.745" x2="1139.327" y2="213.745"/>
			<polyline fill="none" stroke="#010101" stroke-width="0.9523" stroke-miterlimit="10" points="1142.317,213.745 
				1145.402,213.745 1145.402,216.83 			"/>
			
				<line fill="none" stroke="#010101" stroke-width="0.9523" stroke-miterlimit="10" stroke-dasharray="5.8341,5.8341" x1="1145.402" y1="222.664" x2="1145.402" y2="231.415"/>
		</g>
	</g>
	<g>
		<g>
			<polyline fill="none" stroke="#010101" stroke-width="1.0683" stroke-miterlimit="10" points="282.41,246.776 282.41,250.237 
				278.949,250.237 			"/>
			
				<line fill="none" stroke="#010101" stroke-width="1.0683" stroke-miterlimit="10" stroke-dasharray="7.581,7.581" x1="271.368" y1="250.237" x2="229.672" y2="250.237"/>
			<polyline fill="none" stroke="#010101" stroke-width="1.0683" stroke-miterlimit="10" points="225.882,250.237 222.421,250.237 
				222.421,246.776 			"/>
			
				<line fill="none" stroke="#010101" stroke-width="1.0683" stroke-miterlimit="10" stroke-dasharray="7.6237,7.6237" x1="222.421" y1="239.152" x2="222.421" y2="227.717"/>
			<polyline fill="none" stroke="#010101" stroke-width="1.0683" stroke-miterlimit="10" points="222.421,223.905 222.421,220.444 
				225.882,220.444 			"/>
			
				<line fill="none" stroke="#010101" stroke-width="1.0683" stroke-miterlimit="10" stroke-dasharray="7.581,7.581" x1="233.463" y1="220.444" x2="275.158" y2="220.444"/>
			<polyline fill="none" stroke="#010101" stroke-width="1.0683" stroke-miterlimit="10" points="278.949,220.444 282.41,220.444 
				282.41,223.905 			"/>
			
				<line fill="none" stroke="#010101" stroke-width="1.0683" stroke-miterlimit="10" stroke-dasharray="7.6237,7.6237" x1="282.41" y1="231.528" x2="282.41" y2="242.964"/>
		</g>
	</g>
	<g>
		<g>
			<polyline fill="none" stroke="#010101" stroke-width="1.0683" stroke-miterlimit="10" points="365.471,261.672 365.471,265.133 
				362.01,265.133 			"/>
			
				<line fill="none" stroke="#010101" stroke-width="1.0683" stroke-miterlimit="10" stroke-dasharray="7.5809,7.5809" x1="354.429" y1="265.133" x2="312.734" y2="265.133"/>
			<polyline fill="none" stroke="#010101" stroke-width="1.0683" stroke-miterlimit="10" points="308.944,265.133 305.483,265.133 
				305.483,261.672 			"/>
			
				<line fill="none" stroke="#010101" stroke-width="1.0683" stroke-miterlimit="10" stroke-dasharray="7.6236,7.6236" x1="305.483" y1="254.048" x2="305.483" y2="242.613"/>
			<polyline fill="none" stroke="#010101" stroke-width="1.0683" stroke-miterlimit="10" points="305.483,238.801 305.483,235.34 
				308.944,235.34 			"/>
			
				<line fill="none" stroke="#010101" stroke-width="1.0683" stroke-miterlimit="10" stroke-dasharray="7.5809,7.5809" x1="316.525" y1="235.34" x2="358.22" y2="235.34"/>
			<polyline fill="none" stroke="#010101" stroke-width="1.0683" stroke-miterlimit="10" points="362.01,235.34 365.471,235.34 
				365.471,238.801 			"/>
			
				<line fill="none" stroke="#010101" stroke-width="1.0683" stroke-miterlimit="10" stroke-dasharray="7.6236,7.6236" x1="365.471" y1="246.425" x2="365.471" y2="257.86"/>
		</g>
	</g>
	<g>
		<g>
			<path fill="none" stroke="#010101" stroke-width="0.8652" stroke-miterlimit="10" d="M336.785,244.885l-0.001-32.52
				c0-3.172-2.596-5.768-5.768-5.768h-71.524c-3.172,0-5.768,2.596-5.768,5.768v23.692"/>
			<g>
				<polygon fill="#010101" points="336.785,250.994 340.302,242.386 336.785,244.429 333.268,242.386 				"/>
			</g>
			<g>
				<circle fill="#010101" cx="253.723" cy="235.896" r="3.253"/>
			</g>
		</g>
	</g>
	<g>
		<g>
			<path fill="none" stroke="#010101" stroke-width="0.8652" stroke-miterlimit="10" d="M720.236,203.091h-71.185
				c-3.172,0-5.768,2.596-5.768,5.768l0,61.34"/>
			<g>
				<polygon fill="#010101" points="726.346,203.091 717.737,199.574 719.78,203.091 717.737,206.608 				"/>
			</g>
			<g>
				<circle fill="#010101" cx="643.283" cy="270.037" r="3.253"/>
			</g>
		</g>
	</g>
	<g>
		<g>
			<path fill="none" stroke="#010101" stroke-width="0.8652" stroke-miterlimit="10" d="M1109.682,225.113h-71.186
				c-3.172,0-5.768,2.596-5.768,5.768v24.945"/>
			<g>
				<polygon fill="#010101" points="1115.791,225.113 1107.183,221.596 1109.226,225.113 1107.183,228.63 				"/>
			</g>
			<g>
				<circle fill="#010101" cx="1032.729" cy="255.664" r="3.253"/>
			</g>
		</g>
	</g>
</g>
<g>
</g>
<g>
</g>
<g>
</g>
<g>
</g>
<g>
</g>
<g>
</g>
<g>
</g>
<g>
</g>
</svg>
