<?xml version="1.0" encoding="utf-8"?>
<!-- Generator: Adobe Illustrator 16.0.4, SVG Export Plug-In . SVG Version: 6.00 Build 0)  -->
<!DOCTYPE svg PUBLIC "-//W3C//DTD SVG 1.1//EN" "http://www.w3.org/Graphics/SVG/1.1/DTD/svg11.dtd">
<svg version="1.1" id="Layer_1" xmlns="http://www.w3.org/2000/svg" xmlns:xlink="http://www.w3.org/1999/xlink" x="0px" y="0px"
	 width="1366px" height="768px" viewBox="0 0 1366 768" enable-background="new 0 0 1366 768" xml:space="preserve">
<g>
	<rect x="0.579" y="0.201" fill="#FFFFFF" width="1365.334" height="768"/>
	<circle fill="#010101" cx="489.112" cy="413.964" r="7.021"/>
	<circle fill="#010101" cx="99.6" cy="413.964" r="7.021"/>
	<circle fill="#010101" cx="878.851" cy="413.964" r="7.021"/>
	<path fill="none" stroke="#010101" stroke-width="2.2223" stroke-miterlimit="10" d="M583.011,413.964"/>
	<circle fill="#010101" cx="1267.881" cy="413.964" r="7.021"/>
	<g>
		<rect x="16.399" y="450.204" fill="none" width="166.4" height="39.823"/>
		<path fill="#010101" d="M102.424,465.177h-5.311l-1.045,3.694h-3.597l5.797-17.694h3.099l5.688,17.694h-3.598L102.424,465.177z
			 M97.952,462.272h3.67l-1.811-6.515L97.952,462.272z"/>
	</g>
	<g>
		<rect x="406.347" y="450.204" fill="none" width="166.4" height="21.334"/>
		<path fill="#010101" d="M483.646,468.871v-17.694h5.942c0.964,0,1.841,0.097,2.631,0.292c0.79,0.194,1.464,0.49,2.023,0.887
			c0.559,0.397,0.99,0.899,1.294,1.507c0.304,0.607,0.456,1.325,0.456,2.151c-0.008,0.826-0.229,1.567-0.663,2.224
			c-0.433,0.656-1.071,1.154-1.914,1.495c0.511,0.13,0.952,0.324,1.325,0.583c0.373,0.26,0.683,0.565,0.93,0.918
			s0.43,0.737,0.547,1.154c0.118,0.417,0.176,0.849,0.176,1.294c0,0.851-0.146,1.601-0.438,2.248
			c-0.292,0.648-0.709,1.191-1.251,1.629c-0.543,0.438-1.203,0.766-1.981,0.984s-1.653,0.328-2.625,0.328H483.646z M487.073,458.602
			h2.54c0.948-0.008,1.677-0.206,2.188-0.595c0.51-0.39,0.77-0.96,0.778-1.714c0-0.826-0.255-1.42-0.766-1.78
			s-1.248-0.545-2.212-0.553h-2.528V458.602z M487.073,461.069v5.043h3.039c0.931-0.008,1.642-0.237,2.133-0.687
			c0.49-0.449,0.735-1.039,0.735-1.769c0.008-0.81-0.21-1.441-0.656-1.896c-0.445-0.454-1.134-0.685-2.066-0.692H487.073z"/>
	</g>
	<g>
		<rect x="795.783" y="450.204" fill="none" width="166.4" height="21.334"/>
		<path fill="#010101" d="M885.395,463.329c-0.057,0.892-0.25,1.693-0.578,2.406s-0.768,1.321-1.318,1.823s-1.207,0.89-1.969,1.16
			c-0.762,0.271-1.604,0.407-2.527,0.407c-1.045,0-1.973-0.192-2.783-0.577s-1.49-0.924-2.041-1.616
			c-0.552-0.692-0.973-1.525-1.265-2.497c-0.292-0.973-0.438-2.042-0.438-3.209v-2.382c0-1.175,0.153-2.248,0.462-3.22
			c0.308-0.973,0.745-1.807,1.312-2.504c0.566-0.696,1.254-1.237,2.061-1.622c0.806-0.385,1.711-0.577,2.715-0.577
			c0.973,0,1.838,0.138,2.596,0.413c0.757,0.275,1.403,0.668,1.938,1.179c0.535,0.51,0.957,1.134,1.264,1.871
			c0.309,0.737,0.503,1.568,0.584,2.491h-3.402c-0.033-0.526-0.111-0.988-0.237-1.385c-0.126-0.397-0.308-0.728-0.547-0.991
			c-0.239-0.263-0.539-0.461-0.899-0.595s-0.792-0.201-1.295-0.201c-0.525,0-0.984,0.114-1.373,0.341s-0.711,0.559-0.966,0.996
			s-0.443,0.975-0.565,1.61c-0.121,0.636-0.182,1.359-0.182,2.169v2.406c0,1.742,0.244,3.03,0.734,3.865
			c0.49,0.834,1.267,1.252,2.328,1.252c0.891,0,1.596-0.237,2.114-0.711c0.519-0.475,0.806-1.242,0.862-2.304H885.395z"/>
	</g>
	<g>
		<rect x="1184.68" y="450.204" fill="none" width="166.4" height="39.823"/>
		<path fill="#010101" d="M1261.933,468.871v-17.694h4.581c1.175,0,2.238,0.2,3.19,0.602s1.766,0.96,2.442,1.677
			s1.199,1.574,1.567,2.57c0.369,0.997,0.554,2.091,0.554,3.281v1.459c0,1.19-0.185,2.282-0.554,3.274
			c-0.368,0.993-0.885,1.848-1.549,2.564c-0.665,0.717-1.463,1.274-2.395,1.671c-0.932,0.397-1.961,0.596-3.087,0.596H1261.933z
			 M1265.371,453.947v12.178h1.312c0.641,0,1.214-0.122,1.72-0.365c0.507-0.243,0.936-0.596,1.288-1.057
			c0.353-0.462,0.622-1.023,0.809-1.684s0.279-1.412,0.279-2.254v-1.483c0-0.794-0.091-1.517-0.273-2.169s-0.454-1.213-0.814-1.684
			c-0.36-0.47-0.806-0.834-1.337-1.094c-0.53-0.259-1.144-0.389-1.841-0.389H1265.371z"/>
	</g>
	<rect x="1084.782" y="237.647" fill="#C8D7E2" enable-background="new    " width="59.896" height="107.487"/>
	<rect x="1001.853" y="244.372" fill="#C8D7E2" enable-background="new    " width="59.894" height="100.762"/>
	<rect x="696.275" y="216.313" fill="#C8D7E2" enable-background="new    " width="59.895" height="128.784"/>
	<rect x="613.345" y="257.059" fill="#C8D7E2" enable-background="new    " width="59.895" height="88.039"/>
	<g>
		<rect x="1086.512" y="353.777" fill="none" width="58.166" height="25.34"/>
		<path fill="#010101" d="M1111.053,368.031V354.52h3.498c0.897,0,1.709,0.153,2.437,0.459c0.727,0.307,1.349,0.733,1.865,1.281
			s0.915,1.202,1.197,1.963c0.281,0.761,0.422,1.596,0.422,2.505v1.114c0,0.909-0.141,1.743-0.422,2.501
			c-0.282,0.758-0.677,1.41-1.184,1.958c-0.508,0.547-1.117,0.973-1.828,1.276c-0.712,0.303-1.497,0.455-2.357,0.455H1111.053z
			 M1113.679,356.636v9.298h1.002c0.489,0,0.927-0.093,1.313-0.278s0.715-0.455,0.983-0.808c0.27-0.353,0.475-0.781,0.617-1.285
			c0.143-0.504,0.214-1.078,0.214-1.721v-1.132c0-0.606-0.07-1.158-0.209-1.656c-0.14-0.498-0.347-0.927-0.622-1.286
			c-0.275-0.358-0.615-0.637-1.021-0.835c-0.405-0.198-0.874-0.297-1.406-0.297H1113.679z"/>
	</g>
	<g>
		<rect x="1003.578" y="353.777" fill="none" width="58.17" height="25.34"/>
		<path fill="#010101" d="M1037.56,363.8c-0.044,0.681-0.19,1.293-0.44,1.837c-0.251,0.544-0.587,1.008-1.008,1.392
			c-0.42,0.384-0.922,0.679-1.503,0.886c-0.581,0.208-1.225,0.311-1.93,0.311c-0.799,0-1.507-0.147-2.126-0.441
			c-0.618-0.293-1.138-0.705-1.559-1.234c-0.421-0.529-0.742-1.165-0.965-1.907c-0.223-0.742-0.334-1.559-0.334-2.45v-1.819
			c0-0.897,0.117-1.717,0.353-2.459c0.234-0.743,0.569-1.38,1.002-1.912c0.433-0.532,0.957-0.945,1.573-1.239
			c0.615-0.293,1.307-0.44,2.074-0.44c0.742,0,1.402,0.105,1.98,0.315c0.579,0.21,1.072,0.51,1.48,0.9s0.729,0.866,0.965,1.429
			s0.384,1.197,0.445,1.902h-2.598c-0.025-0.402-0.085-0.755-0.182-1.058c-0.096-0.303-0.234-0.555-0.417-0.756
			c-0.183-0.201-0.412-0.353-0.687-0.455c-0.275-0.102-0.605-0.153-0.988-0.153c-0.402,0-0.752,0.086-1.049,0.26
			s-0.543,0.427-0.738,0.761c-0.194,0.334-0.339,0.744-0.432,1.229c-0.093,0.486-0.139,1.038-0.139,1.657v1.837
			c0,1.33,0.187,2.314,0.562,2.951c0.374,0.638,0.967,0.956,1.777,0.956c0.68,0,1.218-0.181,1.614-0.543
			c0.396-0.362,0.615-0.948,0.659-1.758H1037.56z"/>
	</g>
	<g>
		<rect x="614.208" y="353.777" fill="none" width="58.167" height="25.34"/>
		<path fill="#010101" d="M638.786,368.031V354.52h4.538c0.736,0,1.406,0.074,2.009,0.223c0.603,0.148,1.118,0.375,1.545,0.677
			c0.427,0.303,0.756,0.687,0.988,1.151s0.348,1.011,0.348,1.643c-0.006,0.631-0.175,1.197-0.506,1.698
			c-0.331,0.501-0.818,0.881-1.461,1.141c0.39,0.099,0.727,0.248,1.011,0.445c0.285,0.198,0.521,0.432,0.71,0.701
			c0.188,0.269,0.328,0.563,0.417,0.882c0.09,0.319,0.135,0.648,0.135,0.988c0,0.649-0.111,1.222-0.334,1.717
			s-0.542,0.909-0.956,1.243c-0.415,0.334-0.918,0.585-1.513,0.752c-0.594,0.167-1.262,0.25-2.004,0.25H638.786z M641.402,360.19
			h1.939c0.724-0.006,1.281-0.158,1.67-0.455c0.39-0.297,0.588-0.733,0.594-1.309c0-0.631-0.195-1.084-0.584-1.359
			c-0.39-0.275-0.953-0.416-1.689-0.422h-1.93V360.19z M641.402,362.074v3.851h2.32c0.711-0.006,1.254-0.181,1.629-0.524
			c0.374-0.343,0.562-0.793,0.562-1.35c0.006-0.619-0.161-1.101-0.501-1.448c-0.34-0.346-0.866-0.522-1.578-0.529H641.402z"/>
	</g>
	<g>
		<rect x="697.139" y="353.777" fill="none" width="58.168" height="25.34"/>
		<path fill="#010101" d="M731.118,363.8c-0.044,0.681-0.19,1.293-0.44,1.837c-0.251,0.544-0.587,1.008-1.008,1.392
			c-0.42,0.384-0.922,0.679-1.503,0.886c-0.581,0.208-1.226,0.311-1.931,0.311c-0.797,0-1.506-0.147-2.125-0.441
			c-0.618-0.293-1.138-0.705-1.559-1.234c-0.421-0.529-0.742-1.165-0.965-1.907c-0.223-0.742-0.334-1.559-0.334-2.45v-1.819
			c0-0.897,0.117-1.717,0.353-2.459c0.235-0.743,0.569-1.38,1.002-1.912c0.433-0.532,0.958-0.945,1.573-1.239
			c0.615-0.293,1.307-0.44,2.074-0.44c0.742,0,1.402,0.105,1.98,0.315s1.072,0.51,1.48,0.9s0.73,0.866,0.965,1.429
			c0.235,0.563,0.384,1.197,0.445,1.902h-2.598c-0.025-0.402-0.086-0.755-0.182-1.058c-0.096-0.303-0.234-0.555-0.417-0.756
			c-0.183-0.201-0.411-0.353-0.687-0.455s-0.605-0.153-0.988-0.153c-0.402,0-0.752,0.086-1.049,0.26s-0.543,0.427-0.738,0.761
			c-0.194,0.334-0.338,0.744-0.432,1.229c-0.092,0.486-0.139,1.038-0.139,1.657v1.837c0,1.33,0.188,2.314,0.562,2.951
			c0.374,0.638,0.966,0.956,1.776,0.956c0.682,0,1.219-0.181,1.615-0.543s0.615-0.948,0.658-1.758H731.118z"/>
	</g>
	<rect x="223.431" y="220.737" fill="#C8D7E2" enable-background="new    " width="59.895" height="124.397"/>
	<rect x="306.362" y="265.32" fill="#C8D7E2" enable-background="new    " width="59.895" height="79.814"/>
	<g>
		<rect x="225.159" y="353.777" fill="none" width="58.167" height="25.34"/>
		<path fill="#010101" d="M256.399,365.21h-4.055l-0.798,2.821h-2.747l4.427-13.511h2.366l4.343,13.511h-2.747L256.399,365.21z
			 M252.984,362.992h2.803l-1.383-4.974L252.984,362.992z"/>
	</g>
	<g>
		<rect x="307.226" y="353.777" fill="none" width="58.167" height="25.34"/>
		<path fill="#010101" d="M331.804,368.031V354.52h4.538c0.736,0,1.406,0.074,2.009,0.223c0.603,0.148,1.118,0.375,1.545,0.677
			c0.427,0.303,0.756,0.687,0.988,1.151s0.348,1.011,0.348,1.643c-0.006,0.631-0.175,1.197-0.506,1.698
			c-0.331,0.501-0.818,0.881-1.461,1.141c0.39,0.099,0.727,0.248,1.011,0.445c0.285,0.198,0.521,0.432,0.71,0.701
			c0.188,0.269,0.328,0.563,0.417,0.882c0.09,0.319,0.135,0.648,0.135,0.988c0,0.649-0.111,1.222-0.334,1.717
			s-0.542,0.909-0.956,1.243c-0.415,0.334-0.918,0.585-1.513,0.752c-0.594,0.167-1.262,0.25-2.004,0.25H331.804z M334.42,360.19
			h1.939c0.724-0.006,1.281-0.158,1.67-0.455c0.39-0.297,0.588-0.733,0.594-1.309c0-0.631-0.195-1.084-0.584-1.359
			c-0.39-0.275-0.953-0.416-1.689-0.422h-1.93V360.19z M334.42,362.074v3.851h2.32c0.711-0.006,1.254-0.181,1.629-0.524
			c0.374-0.343,0.562-0.793,0.562-1.35c0.006-0.619-0.161-1.101-0.501-1.448c-0.34-0.346-0.866-0.522-1.578-0.529H334.42z"/>
	</g>
	
		<line fill="#010101" stroke="#010101" stroke-width="1.4222" stroke-miterlimit="10" x1="482.091" y1="413.964" x2="106.621" y2="413.964"/>
	
		<line fill="#010101" stroke="#010101" stroke-width="1.4222" stroke-miterlimit="10" x1="496.133" y1="413.964" x2="871.83" y2="413.964"/>
	
		<line fill="#010101" stroke="#010101" stroke-width="1.4222" stroke-miterlimit="10" x1="885.217" y1="413.964" x2="1260.859" y2="413.964"/>
</g>
<g>
</g>
<g>
</g>
<g>
</g>
<g>
</g>
<g>
</g>
<g>
</g>
</svg>
