<?xml version="1.0" encoding="utf-8"?>
<!-- Generator: Adobe Illustrator 16.0.4, SVG Export Plug-In . SVG Version: 6.00 Build 0)  -->
<!DOCTYPE svg PUBLIC "-//W3C//DTD SVG 1.1//EN" "http://www.w3.org/Graphics/SVG/1.1/DTD/svg11.dtd">
<svg version="1.1" id="Layer_1" xmlns="http://www.w3.org/2000/svg" xmlns:xlink="http://www.w3.org/1999/xlink" x="0px" y="0px"
	 width="1366px" height="768px" viewBox="0 0 1366 768" enable-background="new 0 0 1366 768" xml:space="preserve">
<rect x="0.1" fill="#FFFFFF" width="1365.9" height="768"/>
<g>
	<rect x="599.263" y="307.384" fill="none" width="160" height="35.333"/>
	<path fill="#010101" d="M603.882,318.147v5.736h-3.019v-15.641h5.35c0.853,0,1.622,0.123,2.31,0.371
		c0.688,0.246,1.273,0.59,1.756,1.031c0.484,0.439,0.856,0.968,1.117,1.584c0.262,0.616,0.393,1.3,0.393,2.052
		c0,0.702-0.131,1.35-0.393,1.944c-0.261,0.595-0.633,1.108-1.117,1.541c-0.482,0.434-1.068,0.772-1.756,1.016
		s-1.457,0.365-2.31,0.365H603.882z M603.882,315.698h2.331c0.43,0,0.802-0.064,1.117-0.193s0.578-0.305,0.79-0.526
		c0.211-0.222,0.368-0.478,0.473-0.769c0.104-0.289,0.155-0.592,0.155-0.907c0-0.365-0.052-0.705-0.155-1.021
		c-0.104-0.315-0.262-0.591-0.473-0.827c-0.212-0.236-0.475-0.423-0.79-0.559s-0.688-0.204-1.117-0.204h-2.331V315.698z"/>
	<path fill="#010101" d="M619.619,324.099c-0.896,0-1.708-0.146-2.438-0.44s-1.357-0.692-1.88-1.198
		c-0.522-0.504-0.926-1.099-1.209-1.783c-0.282-0.684-0.424-1.416-0.424-2.196v-0.43c0-0.888,0.14-1.699,0.419-2.433
		c0.279-0.734,0.67-1.366,1.171-1.896s1.096-0.941,1.783-1.235s1.436-0.44,2.245-0.44c0.838,0,1.585,0.138,2.239,0.414
		c0.656,0.275,1.211,0.664,1.666,1.165c0.454,0.501,0.8,1.104,1.036,1.81c0.236,0.706,0.354,1.484,0.354,2.337v1.268h-7.885
		c0.058,0.394,0.174,0.754,0.35,1.079c0.175,0.326,0.398,0.607,0.671,0.844s0.584,0.419,0.935,0.548s0.734,0.193,1.149,0.193
		c0.294,0,0.585-0.028,0.876-0.086c0.289-0.058,0.567-0.142,0.832-0.253c0.265-0.11,0.512-0.248,0.741-0.413s0.43-0.358,0.602-0.58
		l1.493,1.611c-0.187,0.265-0.428,0.524-0.725,0.778c-0.298,0.255-0.648,0.48-1.053,0.678c-0.405,0.196-0.854,0.355-1.349,0.478
		S620.192,324.099,619.619,324.099z M619.265,314.463c-0.337,0-0.645,0.06-0.924,0.177c-0.279,0.119-0.524,0.289-0.735,0.511
		c-0.212,0.222-0.389,0.487-0.532,0.795s-0.251,0.651-0.322,1.031h4.898v-0.236c-0.015-0.315-0.075-0.612-0.183-0.892
		s-0.262-0.521-0.462-0.725c-0.2-0.205-0.446-0.365-0.735-0.484C619.979,314.522,619.645,314.463,619.265,314.463z"/>
	<path fill="#010101" d="M632.821,324.099c-0.896,0-1.708-0.146-2.438-0.44s-1.357-0.692-1.88-1.198
		c-0.522-0.504-0.926-1.099-1.209-1.783c-0.282-0.684-0.424-1.416-0.424-2.196v-0.43c0-0.888,0.14-1.699,0.419-2.433
		c0.279-0.734,0.67-1.366,1.171-1.896s1.096-0.941,1.783-1.235s1.436-0.44,2.245-0.44c0.838,0,1.585,0.138,2.239,0.414
		c0.656,0.275,1.211,0.664,1.666,1.165c0.454,0.501,0.8,1.104,1.036,1.81c0.236,0.706,0.354,1.484,0.354,2.337v1.268h-7.885
		c0.058,0.394,0.174,0.754,0.35,1.079c0.175,0.326,0.398,0.607,0.671,0.844s0.584,0.419,0.935,0.548s0.734,0.193,1.149,0.193
		c0.294,0,0.585-0.028,0.876-0.086c0.289-0.058,0.567-0.142,0.832-0.253c0.265-0.11,0.512-0.248,0.741-0.413s0.43-0.358,0.602-0.58
		l1.493,1.611c-0.187,0.265-0.428,0.524-0.725,0.778c-0.298,0.255-0.648,0.48-1.053,0.678c-0.405,0.196-0.854,0.355-1.349,0.478
		S633.395,324.099,632.821,324.099z M632.467,314.463c-0.337,0-0.645,0.06-0.924,0.177c-0.279,0.119-0.524,0.289-0.735,0.511
		c-0.212,0.222-0.389,0.487-0.532,0.795s-0.251,0.651-0.322,1.031h4.898v-0.236c-0.015-0.315-0.075-0.612-0.183-0.892
		s-0.262-0.521-0.462-0.725c-0.2-0.205-0.446-0.365-0.735-0.484C633.181,314.522,632.847,314.463,632.467,314.463z"/>
	<path fill="#010101" d="M648.73,312.046c0.451,0,0.868,0.03,1.252,0.092c0.383,0.061,0.692,0.127,0.929,0.198l-0.44,2.976
		c-0.394-0.093-0.797-0.163-1.209-0.209c-0.411-0.047-0.804-0.07-1.176-0.07c-0.838,0-1.51,0.161-2.014,0.483
		c-0.506,0.322-0.883,0.784-1.134,1.386v6.982h-2.986v-11.623h2.782l0.14,1.901c0.473-0.659,1.038-1.177,1.697-1.552
		C647.23,312.233,647.95,312.046,648.73,312.046z"/>
	<path fill="#010101" d="M674.372,320.618h-4.694l-0.924,3.266h-3.18l5.124-15.641h2.739l5.027,15.641h-3.18L674.372,320.618z
		 M670.419,318.051h3.244l-1.601-5.758L670.419,318.051z"/>
</g>
<g>
	<rect x="599.263" y="465.276" fill="none" width="160" height="35.333"/>
	<path fill="#010101" d="M603.882,476.04v5.736h-3.019v-15.641h5.35c0.853,0,1.622,0.123,2.31,0.371
		c0.688,0.246,1.273,0.59,1.756,1.031c0.484,0.439,0.856,0.968,1.117,1.584c0.262,0.616,0.393,1.3,0.393,2.052
		c0,0.702-0.131,1.35-0.393,1.944c-0.261,0.595-0.633,1.108-1.117,1.541c-0.482,0.434-1.068,0.772-1.756,1.016
		s-1.457,0.365-2.31,0.365H603.882z M603.882,473.591h2.331c0.43,0,0.802-0.064,1.117-0.193s0.578-0.305,0.79-0.526
		c0.211-0.222,0.368-0.478,0.473-0.769c0.104-0.289,0.155-0.592,0.155-0.907c0-0.365-0.052-0.705-0.155-1.021
		c-0.104-0.315-0.262-0.591-0.473-0.827c-0.212-0.236-0.475-0.423-0.79-0.559s-0.688-0.204-1.117-0.204h-2.331V473.591z"/>
	<path fill="#010101" d="M619.619,481.991c-0.896,0-1.708-0.146-2.438-0.44s-1.357-0.692-1.88-1.198
		c-0.522-0.504-0.926-1.099-1.209-1.783c-0.282-0.684-0.424-1.416-0.424-2.196v-0.43c0-0.888,0.14-1.699,0.419-2.433
		c0.279-0.734,0.67-1.366,1.171-1.896s1.096-0.941,1.783-1.235s1.436-0.44,2.245-0.44c0.838,0,1.585,0.138,2.239,0.414
		c0.656,0.275,1.211,0.664,1.666,1.165c0.454,0.501,0.8,1.104,1.036,1.81c0.236,0.706,0.354,1.484,0.354,2.337v1.268h-7.885
		c0.058,0.394,0.174,0.754,0.35,1.079c0.175,0.326,0.398,0.607,0.671,0.844s0.584,0.419,0.935,0.548s0.734,0.193,1.149,0.193
		c0.294,0,0.585-0.028,0.876-0.086c0.289-0.058,0.567-0.142,0.832-0.253c0.265-0.11,0.512-0.248,0.741-0.413s0.43-0.358,0.602-0.58
		l1.493,1.611c-0.187,0.265-0.428,0.524-0.725,0.778c-0.298,0.255-0.648,0.48-1.053,0.678c-0.405,0.196-0.854,0.355-1.349,0.478
		S620.192,481.991,619.619,481.991z M619.265,472.355c-0.337,0-0.645,0.06-0.924,0.177c-0.279,0.119-0.524,0.289-0.735,0.511
		c-0.212,0.222-0.389,0.487-0.532,0.795s-0.251,0.651-0.322,1.031h4.898v-0.236c-0.015-0.315-0.075-0.612-0.183-0.892
		s-0.262-0.521-0.462-0.725c-0.2-0.205-0.446-0.365-0.735-0.484C619.979,472.415,619.645,472.355,619.265,472.355z"/>
	<path fill="#010101" d="M632.821,481.991c-0.896,0-1.708-0.146-2.438-0.44s-1.357-0.692-1.88-1.198
		c-0.522-0.504-0.926-1.099-1.209-1.783c-0.282-0.684-0.424-1.416-0.424-2.196v-0.43c0-0.888,0.14-1.699,0.419-2.433
		c0.279-0.734,0.67-1.366,1.171-1.896s1.096-0.941,1.783-1.235s1.436-0.44,2.245-0.44c0.838,0,1.585,0.138,2.239,0.414
		c0.656,0.275,1.211,0.664,1.666,1.165c0.454,0.501,0.8,1.104,1.036,1.81c0.236,0.706,0.354,1.484,0.354,2.337v1.268h-7.885
		c0.058,0.394,0.174,0.754,0.35,1.079c0.175,0.326,0.398,0.607,0.671,0.844s0.584,0.419,0.935,0.548s0.734,0.193,1.149,0.193
		c0.294,0,0.585-0.028,0.876-0.086c0.289-0.058,0.567-0.142,0.832-0.253c0.265-0.11,0.512-0.248,0.741-0.413s0.43-0.358,0.602-0.58
		l1.493,1.611c-0.187,0.265-0.428,0.524-0.725,0.778c-0.298,0.255-0.648,0.48-1.053,0.678c-0.405,0.196-0.854,0.355-1.349,0.478
		S633.395,481.991,632.821,481.991z M632.467,472.355c-0.337,0-0.645,0.06-0.924,0.177c-0.279,0.119-0.524,0.289-0.735,0.511
		c-0.212,0.222-0.389,0.487-0.532,0.795s-0.251,0.651-0.322,1.031h4.898v-0.236c-0.015-0.315-0.075-0.612-0.183-0.892
		s-0.262-0.521-0.462-0.725c-0.2-0.205-0.446-0.365-0.735-0.484C633.181,472.415,632.847,472.355,632.467,472.355z"/>
	<path fill="#010101" d="M648.73,469.938c0.451,0,0.868,0.03,1.252,0.092c0.383,0.061,0.692,0.127,0.929,0.198l-0.44,2.976
		c-0.394-0.093-0.797-0.163-1.209-0.209c-0.411-0.047-0.804-0.07-1.176-0.07c-0.838,0-1.51,0.161-2.014,0.483
		c-0.506,0.322-0.883,0.784-1.134,1.386v6.982h-2.986v-11.623h2.782l0.14,1.901c0.473-0.659,1.038-1.177,1.697-1.552
		C647.23,470.126,647.95,469.938,648.73,469.938z"/>
	<path fill="#010101" d="M666.659,481.776v-15.641h5.253c0.853,0,1.627,0.086,2.326,0.258c0.697,0.172,1.294,0.434,1.788,0.784
		s0.876,0.795,1.144,1.332c0.27,0.537,0.403,1.171,0.403,1.901c-0.007,0.73-0.202,1.386-0.585,1.966
		c-0.384,0.58-0.947,1.021-1.692,1.321c0.451,0.114,0.842,0.286,1.171,0.516s0.604,0.5,0.822,0.811
		c0.218,0.312,0.379,0.652,0.482,1.021c0.104,0.368,0.156,0.75,0.156,1.144c0,0.752-0.129,1.414-0.387,1.987
		s-0.627,1.053-1.106,1.439s-1.063,0.677-1.751,0.87s-1.461,0.29-2.32,0.29H666.659z M669.688,472.699h2.245
		c0.838-0.007,1.482-0.183,1.934-0.526s0.681-0.849,0.688-1.515c0-0.73-0.226-1.255-0.677-1.573
		c-0.451-0.319-1.103-0.482-1.955-0.489h-2.234V472.699z M669.688,474.88v4.458h2.686c0.823-0.007,1.452-0.21,1.886-0.606
		c0.433-0.398,0.649-0.919,0.649-1.563c0.007-0.716-0.187-1.274-0.58-1.676s-1.003-0.605-1.826-0.612H669.688z"/>
</g>
<g>
	<rect x="599.263" y="623.421" fill="none" width="160.001" height="35.333"/>
	<path fill="#010101" d="M611.53,635.022c-0.05,0.788-0.221,1.497-0.51,2.127c-0.291,0.63-0.679,1.167-1.166,1.611
		s-1.067,0.786-1.74,1.025c-0.673,0.24-1.418,0.36-2.234,0.36c-0.924,0-1.744-0.17-2.46-0.511c-0.716-0.34-1.317-0.816-1.805-1.428
		c-0.487-0.613-0.859-1.349-1.117-2.208s-0.387-1.805-0.387-2.836v-2.105c0-1.038,0.136-1.987,0.408-2.847s0.659-1.597,1.16-2.213
		s1.108-1.094,1.821-1.434c0.712-0.341,1.513-0.511,2.4-0.511c0.859,0,1.624,0.122,2.293,0.365c0.67,0.243,1.241,0.591,1.714,1.042
		s0.845,1.003,1.117,1.654s0.444,1.386,0.516,2.202h-3.008c-0.028-0.466-0.099-0.874-0.21-1.225
		c-0.11-0.351-0.271-0.643-0.482-0.876c-0.212-0.232-0.477-0.408-0.795-0.525c-0.319-0.119-0.7-0.178-1.145-0.178
		c-0.466,0-0.87,0.101-1.214,0.301s-0.628,0.494-0.854,0.881c-0.225,0.387-0.392,0.861-0.499,1.424
		c-0.107,0.562-0.161,1.201-0.161,1.917v2.127c0,1.54,0.217,2.679,0.65,3.416c0.433,0.737,1.118,1.106,2.057,1.106
		c0.788,0,1.411-0.209,1.869-0.629c0.458-0.418,0.713-1.097,0.763-2.035H611.53z"/>
	<path fill="#010101" d="M613.571,634.002c0-0.845,0.122-1.628,0.365-2.347c0.243-0.721,0.6-1.345,1.069-1.875
		c0.469-0.53,1.041-0.945,1.719-1.246c0.676-0.301,1.451-0.451,2.325-0.451s1.65,0.15,2.331,0.451s1.255,0.716,1.725,1.246
		c0.469,0.53,0.825,1.154,1.068,1.875c0.243,0.719,0.365,1.502,0.365,2.347v0.226c0,0.853-0.122,1.639-0.365,2.357
		c-0.243,0.721-0.598,1.345-1.063,1.875s-1.038,0.943-1.719,1.24c-0.681,0.298-1.454,0.446-2.32,0.446
		c-0.874,0-1.652-0.148-2.337-0.446c-0.684-0.297-1.26-0.71-1.729-1.24c-0.47-0.53-0.826-1.154-1.069-1.875
		c-0.243-0.719-0.365-1.505-0.365-2.357V634.002z M616.558,634.228c0,0.487,0.047,0.943,0.14,1.369
		c0.093,0.427,0.24,0.799,0.44,1.117c0.2,0.319,0.46,0.571,0.778,0.758c0.319,0.187,0.704,0.279,1.155,0.279
		c0.437,0,0.812-0.093,1.128-0.279s0.571-0.438,0.768-0.758c0.197-0.318,0.343-0.69,0.436-1.117c0.093-0.426,0.14-0.882,0.14-1.369
		v-0.226c0-0.473-0.047-0.92-0.14-1.343s-0.238-0.795-0.436-1.117c-0.196-0.322-0.452-0.576-0.768-0.763s-0.698-0.279-1.149-0.279
		c-0.444,0-0.823,0.093-1.139,0.279s-0.573,0.44-0.773,0.763s-0.348,0.694-0.44,1.117s-0.14,0.87-0.14,1.343V634.228z"/>
	<path fill="#010101" d="M629.889,628.298l0.183,1.611c0.415-0.58,0.92-1.029,1.515-1.348c0.595-0.319,1.253-0.479,1.977-0.479
		c0.587,0,1.124,0.086,1.611,0.258s0.907,0.445,1.263,0.822c0.354,0.375,0.63,0.859,0.826,1.449c0.197,0.592,0.296,1.31,0.296,2.154
		v7.154h-2.986v-7.111c0-0.458-0.052-0.836-0.155-1.133c-0.104-0.298-0.253-0.532-0.446-0.704s-0.426-0.292-0.698-0.36
		c-0.272-0.067-0.58-0.102-0.924-0.102c-0.509,0-0.941,0.102-1.3,0.307c-0.358,0.203-0.648,0.484-0.87,0.843v8.261h-2.997v-11.623
		H629.889z"/>
	<path fill="#010101" d="M643.273,639.921V630.5h-3.051v-2.202h3.051v-0.634c0-0.767,0.122-1.443,0.365-2.03
		s0.591-1.081,1.042-1.482s0.999-0.703,1.644-0.908c0.645-0.203,1.364-0.306,2.159-0.306c0.251,0,0.492,0.009,0.726,0.026
		c0.232,0.019,0.46,0.042,0.682,0.07s0.445,0.061,0.672,0.097c0.225,0.036,0.46,0.075,0.703,0.118l-0.193,2.342
		c-0.272-0.058-0.58-0.107-0.924-0.15s-0.748-0.064-1.214-0.064c-0.931,0-1.607,0.197-2.03,0.591s-0.634,0.96-0.634,1.697v0.634
		h4.189v2.202h-4.189v9.421H643.273z"/>
	<path fill="#010101" d="M654.381,628.298h6.327v9.195h3.147v2.428h-9.475v-2.428h3.309v-6.757h-3.309V628.298z M657.475,625.322
		c0-0.229,0.041-0.442,0.124-0.64c0.082-0.196,0.198-0.365,0.349-0.504c0.15-0.141,0.331-0.249,0.542-0.328
		c0.212-0.079,0.446-0.118,0.704-0.118c0.53,0,0.95,0.148,1.263,0.446c0.311,0.297,0.467,0.678,0.467,1.144
		s-0.156,0.847-0.467,1.144c-0.312,0.298-0.732,0.446-1.263,0.446c-0.258,0-0.492-0.039-0.704-0.118
		c-0.211-0.079-0.392-0.188-0.542-0.328c-0.15-0.139-0.267-0.308-0.349-0.504C657.516,625.765,657.475,625.552,657.475,625.322z"/>
	<path fill="#010101" d="M675.135,628.083c0.451,0,0.868,0.03,1.252,0.092c0.383,0.061,0.692,0.127,0.929,0.198l-0.44,2.976
		c-0.394-0.093-0.797-0.163-1.209-0.209c-0.411-0.047-0.804-0.07-1.176-0.07c-0.838,0-1.51,0.161-2.014,0.483
		c-0.506,0.322-0.883,0.784-1.134,1.386v6.982h-2.986v-11.623h2.782l0.14,1.901c0.473-0.659,1.038-1.177,1.697-1.552
		C673.635,628.271,674.354,628.083,675.135,628.083z"/>
	<path fill="#010101" d="M681.849,628.298l0.086,1.407c0.222-0.501,0.528-0.897,0.918-1.187c0.391-0.291,0.865-0.436,1.424-0.436
		c0.938,0,1.551,0.412,1.837,1.235c0.229-0.387,0.521-0.689,0.876-0.907c0.354-0.219,0.782-0.328,1.283-0.328
		c0.351,0,0.679,0.064,0.982,0.193c0.305,0.129,0.57,0.335,0.795,0.617c0.227,0.283,0.401,0.648,0.527,1.096
		c0.125,0.448,0.188,0.994,0.188,1.639v8.293h-2.718v-8.304c0-0.222-0.023-0.404-0.069-0.548c-0.047-0.144-0.109-0.256-0.188-0.338
		c-0.079-0.083-0.17-0.141-0.274-0.172c-0.104-0.033-0.209-0.049-0.316-0.049c-0.208,0-0.383,0.049-0.526,0.145
		c-0.144,0.098-0.254,0.228-0.333,0.393v8.873h-2.632v-8.314c0-0.222-0.021-0.404-0.064-0.548s-0.103-0.254-0.177-0.333
		c-0.076-0.079-0.163-0.135-0.264-0.166c-0.101-0.033-0.208-0.049-0.322-0.049c-0.229,0-0.414,0.064-0.553,0.193
		c-0.141,0.129-0.249,0.301-0.328,0.516v8.701h-2.718v-11.623H681.849z"/>
	<path fill="#010101" d="M698.832,640.136c-0.896,0-1.708-0.146-2.438-0.44s-1.357-0.692-1.88-1.198
		c-0.522-0.504-0.926-1.099-1.209-1.783c-0.282-0.684-0.424-1.416-0.424-2.196v-0.43c0-0.888,0.14-1.699,0.419-2.433
		c0.279-0.734,0.67-1.366,1.171-1.896s1.096-0.941,1.783-1.235s1.436-0.44,2.245-0.44c0.838,0,1.585,0.138,2.239,0.414
		c0.656,0.275,1.211,0.664,1.666,1.165c0.454,0.501,0.8,1.104,1.036,1.81c0.236,0.706,0.354,1.484,0.354,2.337v1.268h-7.885
		c0.058,0.394,0.174,0.754,0.35,1.079c0.175,0.326,0.398,0.607,0.671,0.844s0.584,0.419,0.935,0.548s0.734,0.193,1.149,0.193
		c0.294,0,0.585-0.028,0.876-0.086c0.289-0.058,0.567-0.142,0.832-0.253c0.265-0.11,0.512-0.248,0.741-0.413s0.43-0.358,0.602-0.58
		l1.493,1.611c-0.187,0.265-0.428,0.524-0.725,0.778c-0.298,0.255-0.648,0.48-1.053,0.678c-0.405,0.196-0.854,0.355-1.349,0.478
		S699.405,640.136,698.832,640.136z M698.478,630.5c-0.337,0-0.645,0.06-0.924,0.177c-0.279,0.119-0.524,0.289-0.735,0.511
		c-0.212,0.222-0.389,0.487-0.532,0.795s-0.251,0.651-0.322,1.031h4.898v-0.236c-0.015-0.315-0.075-0.612-0.183-0.892
		s-0.262-0.521-0.462-0.725c-0.2-0.205-0.446-0.365-0.735-0.484C699.191,630.56,698.857,630.5,698.478,630.5z"/>
	<path fill="#010101" d="M706.083,634.023c0-0.881,0.102-1.687,0.307-2.417c0.203-0.73,0.503-1.357,0.896-1.88
		s0.872-0.928,1.434-1.214c0.562-0.286,1.205-0.43,1.929-0.43c0.608,0,1.144,0.109,1.606,0.328c0.461,0.218,0.871,0.527,1.229,0.929
		v-5.919h2.997v16.5h-2.696l-0.15-1.214c-0.365,0.451-0.795,0.802-1.289,1.053s-1.067,0.376-1.719,0.376
		c-0.709,0-1.345-0.148-1.907-0.445c-0.562-0.298-1.038-0.708-1.428-1.23c-0.391-0.522-0.689-1.145-0.897-1.863
		c-0.208-0.721-0.312-1.503-0.312-2.348V634.023z M709.069,634.249c0,0.487,0.041,0.939,0.123,1.359
		c0.083,0.418,0.217,0.783,0.403,1.096c0.187,0.311,0.426,0.557,0.72,0.735s0.651,0.269,1.074,0.269
		c0.516,0,0.943-0.111,1.283-0.333c0.341-0.222,0.611-0.526,0.812-0.913v-4.705c-0.2-0.394-0.469-0.7-0.806-0.918
		c-0.337-0.219-0.759-0.328-1.268-0.328c-0.423,0-0.782,0.092-1.08,0.273c-0.297,0.184-0.538,0.434-0.725,0.752
		c-0.187,0.319-0.322,0.691-0.408,1.117c-0.086,0.427-0.129,0.883-0.129,1.37V634.249z"/>
</g>
<line fill="#010101" stroke="#2C5070" stroke-miterlimit="10" x1="599.263" y1="500.811" x2="1261.158" y2="500.811"/>
<line fill="#010101" stroke="#2C5070" stroke-width="2" stroke-miterlimit="10" x1="599.263" y1="654.756" x2="1261.158" y2="654.756"/>
<line fill="#010101" stroke="#2C5070" stroke-width="0.5" stroke-miterlimit="10" x1="599.263" y1="340.811" x2="1261.158" y2="340.811"/>
<g>
	<rect x="769.379" y="273.076" fill="none" width="89.316" height="17.541"/>
	<path fill="#010101" d="M817.748,278.57c0,0.378-0.053,0.729-0.158,1.051c-0.105,0.322-0.252,0.599-0.441,0.83
		c-0.189,0.231-0.417,0.413-0.684,0.543c-0.266,0.131-0.559,0.196-0.875,0.196c-0.206,0-0.398-0.019-0.578-0.056
		c-0.181-0.037-0.357-0.094-0.529-0.171c-0.174-0.077-0.344-0.174-0.512-0.291s-0.342-0.257-0.519-0.42
		c-0.229-0.187-0.448-0.332-0.659-0.435c-0.21-0.103-0.425-0.154-0.645-0.154c-0.126,0-0.248,0.031-0.364,0.094
		c-0.116,0.063-0.221,0.147-0.312,0.252c-0.092,0.105-0.164,0.226-0.218,0.361c-0.054,0.136-0.081,0.276-0.081,0.42l-1.261-0.154
		c0-0.378,0.052-0.725,0.154-1.041s0.249-0.586,0.438-0.812c0.188-0.227,0.415-0.403,0.68-0.529
		c0.264-0.126,0.555-0.189,0.872-0.189c0.406,0,0.781,0.079,1.124,0.238c0.344,0.159,0.688,0.39,1.034,0.694
		c0.229,0.196,0.447,0.343,0.655,0.441c0.207,0.098,0.417,0.147,0.627,0.147c0.126,0,0.245-0.033,0.357-0.098
		s0.211-0.152,0.295-0.259s0.151-0.23,0.203-0.368c0.051-0.138,0.076-0.279,0.076-0.424L817.748,278.57z"/>
</g>
<g>
	<rect x="1045.919" y="432.375" fill="none" width="89.316" height="17.54"/>
	<path fill="#010101" d="M1094.287,437.869c0,0.379-0.053,0.729-0.157,1.051s-0.253,0.6-0.441,0.83
		c-0.189,0.232-0.417,0.413-0.683,0.543c-0.268,0.131-0.559,0.197-0.877,0.197c-0.205,0-0.398-0.02-0.578-0.057
		s-0.355-0.094-0.529-0.172c-0.172-0.076-0.343-0.174-0.511-0.291c-0.169-0.116-0.341-0.256-0.519-0.42
		c-0.229-0.187-0.449-0.332-0.658-0.435c-0.211-0.103-0.426-0.153-0.646-0.153c-0.126,0-0.247,0.031-0.364,0.094
		c-0.117,0.063-0.221,0.147-0.312,0.252c-0.09,0.105-0.163,0.227-0.217,0.361c-0.054,0.136-0.08,0.275-0.08,0.42l-1.262-0.154
		c0-0.378,0.051-0.725,0.154-1.04c0.103-0.315,0.248-0.586,0.438-0.812s0.416-0.403,0.68-0.529s0.555-0.188,0.873-0.188
		c0.406,0,0.781,0.078,1.125,0.237c0.343,0.159,0.688,0.39,1.033,0.694c0.229,0.195,0.447,0.343,0.655,0.441
		c0.208,0.098,0.417,0.146,0.627,0.146c0.126,0,0.245-0.032,0.357-0.098s0.21-0.152,0.294-0.26s0.152-0.229,0.203-0.367
		c0.052-0.139,0.078-0.279,0.078-0.424L1094.287,437.869z"/>
</g>
<rect x="765.114" y="265.715" fill="none" stroke="#010101" stroke-width="0.7103" stroke-miterlimit="10" width="99.846" height="26.281"/>
<g enable-background="new    ">
	<path fill="none" stroke="#2C5070" stroke-width="2.1308" stroke-miterlimit="10" d="M985.686,326.753
		c0,1.953-1.598,3.551-3.551,3.551H761.211c-1.953,0-3.551-1.598-3.551-3.551V229.94c0-1.953,1.598-3.551,3.551-3.551h220.924
		c1.953,0,3.551,1.598,3.551,3.551V326.753z"/>
</g>
<g>
	<rect x="879.843" y="273.075" fill="none" width="51.778" height="17.588"/>
	<path fill="#010101" d="M885.779,281.709h-3.062l-0.603,2.13h-2.074l3.343-10.203h1.787l3.279,10.203h-2.074L885.779,281.709z
		 M883.2,280.034h2.116l-1.044-3.756L883.2,280.034z"/>
	<path fill="#010101" d="M893.578,278.149h2.564v1.78h-2.564v2.887h-1.856v-2.887h-2.571v-1.78h2.571v-2.761h1.856V278.149z"/>
	<path fill="#010101" d="M897.973,283.839v-10.203h3.426c0.557,0,1.062,0.056,1.518,0.168s0.844,0.283,1.167,0.512
		c0.322,0.229,0.571,0.519,0.746,0.869c0.175,0.351,0.263,0.764,0.263,1.24c-0.004,0.477-0.132,0.904-0.382,1.283
		s-0.618,0.666-1.104,0.862c0.294,0.075,0.549,0.187,0.764,0.336s0.394,0.326,0.536,0.529s0.248,0.425,0.315,0.666
		c0.067,0.24,0.102,0.489,0.102,0.746c0,0.491-0.084,0.923-0.253,1.296c-0.168,0.374-0.408,0.687-0.721,0.939
		c-0.313,0.252-0.694,0.441-1.143,0.568c-0.449,0.126-0.953,0.189-1.514,0.189H897.973z M899.948,277.918h1.465
		c0.546-0.004,0.967-0.119,1.261-0.343c0.295-0.224,0.444-0.554,0.449-0.988c0-0.476-0.147-0.818-0.441-1.026
		c-0.295-0.208-0.72-0.314-1.275-0.319h-1.458V277.918z M899.948,279.34v2.908h1.752c0.537-0.004,0.947-0.137,1.229-0.396
		c0.283-0.259,0.424-0.599,0.424-1.02c0.006-0.467-0.121-0.832-0.378-1.093c-0.257-0.262-0.653-0.395-1.191-0.4H899.948z"/>
</g>
<g>
	<rect x="879.646" y="332.017" fill="none" width="66.439" height="17.588"/>
</g>
<g>
	<rect x="879.843" y="303.137" fill="none" width="85.903" height="28.762"/>
	<path fill="#010101" d="M885.778,311.771h-3.062l-0.603,2.13h-2.074l3.342-10.203h1.787l3.279,10.203h-2.074L885.778,311.771z
		 M883.199,310.096h2.116l-1.044-3.756L883.199,310.096z"/>
	<path fill="#010101" d="M890.957,309.759c0-0.668,0.053-1.296,0.157-1.885c0.105-0.589,0.247-1.134,0.425-1.636
		c0.177-0.502,0.381-0.961,0.612-1.377s0.474-0.785,0.729-1.107c0.254-0.322,0.51-0.598,0.767-0.827s0.503-0.409,0.735-0.54
		l0.273,0.855c-0.289,0.22-0.578,0.519-0.865,0.897s-0.544,0.837-0.771,1.377s-0.411,1.161-0.554,1.864s-0.214,1.492-0.214,2.365
		v0.098c0,0.874,0.071,1.663,0.214,2.368c0.143,0.706,0.327,1.329,0.554,1.871s0.483,1.006,0.771,1.391s0.576,0.695,0.865,0.928
		l-0.273,0.792c-0.232-0.131-0.479-0.31-0.738-0.536c-0.26-0.227-0.517-0.502-0.771-0.827c-0.254-0.325-0.497-0.694-0.729-1.107
		c-0.231-0.413-0.435-0.871-0.609-1.374c-0.176-0.502-0.315-1.047-0.421-1.636c-0.104-0.588-0.157-1.217-0.157-1.885V309.759z"/>
	<path fill="#010101" d="M901.518,312.99c0.232,0,0.461-0.037,0.683-0.112s0.419-0.179,0.593-0.312
		c0.172-0.133,0.312-0.29,0.416-0.469c0.105-0.18,0.16-0.375,0.165-0.585h1.227c-0.005,0.336-0.093,0.658-0.263,0.964
		c-0.171,0.306-0.398,0.574-0.684,0.806s-0.611,0.416-0.98,0.554s-0.755,0.207-1.156,0.207c-0.575,0-1.077-0.103-1.507-0.308
		c-0.431-0.206-0.788-0.482-1.075-0.831c-0.288-0.348-0.504-0.75-0.648-1.205c-0.146-0.456-0.218-0.936-0.218-1.44v-0.294
		c0-0.5,0.072-0.979,0.218-1.437c0.145-0.458,0.36-0.861,0.648-1.209c0.287-0.348,0.645-0.625,1.075-0.831
		c0.43-0.206,0.932-0.308,1.507-0.308c0.448,0,0.86,0.071,1.236,0.214s0.701,0.336,0.975,0.582c0.273,0.245,0.486,0.536,0.641,0.872
		c0.154,0.336,0.231,0.696,0.231,1.08h-1.227c-0.005-0.229-0.055-0.445-0.15-0.648c-0.097-0.203-0.226-0.382-0.39-0.536
		c-0.163-0.154-0.357-0.275-0.584-0.364s-0.471-0.133-0.732-0.133c-0.402,0-0.74,0.081-1.014,0.242
		c-0.272,0.161-0.493,0.372-0.662,0.631c-0.168,0.259-0.288,0.55-0.36,0.873s-0.108,0.647-0.108,0.974v0.294
		c0,0.332,0.036,0.66,0.108,0.985s0.191,0.617,0.357,0.876c0.165,0.259,0.386,0.469,0.659,0.63S901.111,312.99,901.518,312.99z"/>
	<path fill="#010101" d="M908.195,307.447c0.271-0.397,0.605-0.707,1.002-0.928s0.844-0.335,1.338-0.34
		c0.398,0,0.759,0.057,1.084,0.171c0.324,0.115,0.601,0.293,0.83,0.536c0.229,0.243,0.404,0.55,0.529,0.922
		c0.123,0.371,0.186,0.812,0.186,1.321v4.772h-1.297v-4.786c0-0.621-0.148-1.083-0.445-1.387s-0.721-0.453-1.271-0.449
		c-0.416,0-0.793,0.102-1.132,0.305c-0.339,0.204-0.612,0.473-0.823,0.81v5.508h-1.297v-10.764h1.297V307.447z"/>
	<path fill="#010101" d="M920.494,313.901c-0.053-0.098-0.093-0.221-0.123-0.368c-0.031-0.147-0.053-0.3-0.066-0.459
		c-0.131,0.131-0.277,0.254-0.438,0.371s-0.339,0.22-0.532,0.309c-0.193,0.088-0.4,0.159-0.62,0.21s-0.453,0.077-0.7,0.077
		c-0.402,0-0.766-0.059-1.09-0.175c-0.325-0.117-0.602-0.274-0.828-0.473c-0.227-0.199-0.401-0.435-0.525-0.708
		c-0.123-0.273-0.186-0.569-0.186-0.886c0-0.416,0.084-0.78,0.249-1.093c0.166-0.313,0.401-0.574,0.704-0.781
		c0.304-0.208,0.67-0.363,1.098-0.466c0.427-0.103,0.904-0.154,1.432-0.154h1.416v-0.596c0-0.229-0.042-0.435-0.126-0.617
		s-0.203-0.337-0.357-0.466c-0.154-0.128-0.343-0.228-0.563-0.298c-0.223-0.07-0.471-0.105-0.747-0.105
		c-0.257,0-0.487,0.033-0.69,0.098s-0.375,0.152-0.515,0.259s-0.249,0.235-0.325,0.382c-0.078,0.147-0.116,0.3-0.116,0.459h-1.304
		c0.005-0.275,0.076-0.546,0.214-0.812c0.138-0.267,0.337-0.506,0.596-0.718c0.259-0.213,0.575-0.384,0.946-0.515
		s0.793-0.196,1.265-0.196c0.43,0,0.829,0.053,1.198,0.158s0.688,0.264,0.957,0.477c0.268,0.212,0.479,0.478,0.634,0.795
		c0.153,0.317,0.231,0.689,0.231,1.114v3.525c0,0.252,0.023,0.52,0.07,0.802c0.046,0.283,0.111,0.529,0.195,0.739v0.112H920.494z
		 M918.202,312.913c0.253,0,0.488-0.032,0.708-0.098c0.219-0.065,0.419-0.152,0.6-0.259c0.18-0.107,0.334-0.23,0.465-0.368
		s0.234-0.281,0.309-0.431v-1.535h-1.205c-0.757,0-1.346,0.112-1.766,0.336c-0.421,0.225-0.631,0.577-0.631,1.058
		c0,0.187,0.031,0.36,0.095,0.519c0.063,0.159,0.157,0.296,0.284,0.41c0.125,0.115,0.284,0.205,0.477,0.27
		C917.729,312.88,917.949,312.913,918.202,312.913z"/>
	<path fill="#010101" d="M925.287,306.319l0.091,1.121c0.275-0.393,0.614-0.7,1.017-0.921c0.401-0.222,0.85-0.335,1.345-0.34
		c0.397,0,0.759,0.056,1.083,0.168c0.324,0.112,0.602,0.288,0.83,0.526s0.405,0.541,0.529,0.907
		c0.123,0.367,0.186,0.802,0.186,1.307v4.814h-1.297v-4.786c0-0.336-0.037-0.621-0.111-0.855c-0.075-0.233-0.186-0.423-0.333-0.567
		c-0.147-0.145-0.327-0.25-0.54-0.315s-0.457-0.098-0.732-0.098c-0.434,0-0.816,0.108-1.145,0.326
		c-0.33,0.217-0.593,0.503-0.789,0.858v5.438h-1.297v-7.582H925.287z"/>
	<path fill="#010101" d="M932.498,310.047c0-0.565,0.068-1.085,0.207-1.559c0.137-0.474,0.337-0.882,0.599-1.223
		c0.261-0.341,0.579-0.607,0.952-0.799c0.375-0.191,0.797-0.287,1.27-0.287c0.467,0,0.877,0.083,1.229,0.249
		c0.353,0.166,0.652,0.405,0.9,0.718l0.063-0.827h1.177v7.421c0,0.5-0.078,0.943-0.235,1.332c-0.156,0.388-0.375,0.717-0.658,0.988
		s-0.62,0.477-1.013,0.617c-0.392,0.14-0.827,0.21-1.304,0.21c-0.195,0-0.42-0.022-0.672-0.067s-0.508-0.117-0.768-0.217
		c-0.26-0.1-0.51-0.234-0.75-0.403c-0.24-0.168-0.447-0.376-0.62-0.624l0.673-0.778c0.158,0.191,0.322,0.354,0.49,0.487
		c0.168,0.133,0.339,0.24,0.512,0.319c0.173,0.08,0.346,0.137,0.519,0.172s0.346,0.053,0.519,0.053c0.309,0,0.586-0.044,0.834-0.133
		s0.459-0.218,0.635-0.389c0.174-0.17,0.309-0.382,0.402-0.634c0.094-0.252,0.141-0.542,0.141-0.869v-0.652
		c-0.253,0.29-0.551,0.511-0.895,0.663c-0.343,0.151-0.741,0.228-1.194,0.228c-0.462,0-0.88-0.098-1.255-0.294
		c-0.373-0.196-0.689-0.467-0.949-0.812c-0.259-0.346-0.459-0.753-0.599-1.223c-0.14-0.469-0.21-0.975-0.21-1.517V310.047z
		 M933.794,310.194c0,0.369,0.038,0.72,0.116,1.051c0.076,0.332,0.198,0.624,0.363,0.876c0.166,0.252,0.378,0.452,0.635,0.599
		c0.257,0.147,0.565,0.221,0.925,0.221c0.225,0,0.427-0.027,0.606-0.081s0.341-0.13,0.483-0.228c0.143-0.098,0.271-0.215,0.382-0.35
		c0.112-0.136,0.211-0.285,0.295-0.449v-3.476c-0.084-0.159-0.183-0.304-0.295-0.435c-0.111-0.13-0.24-0.244-0.385-0.34
		c-0.146-0.096-0.307-0.17-0.484-0.224s-0.373-0.081-0.588-0.081c-0.365,0-0.677,0.075-0.936,0.224
		c-0.26,0.15-0.473,0.352-0.639,0.606c-0.165,0.254-0.287,0.549-0.363,0.883c-0.078,0.334-0.116,0.686-0.116,1.055V310.194z"/>
	<path fill="#010101" d="M944.697,314.041c-0.532,0-1.021-0.091-1.468-0.273s-0.827-0.437-1.146-0.764s-0.565-0.715-0.742-1.163
		c-0.178-0.449-0.268-0.937-0.268-1.465v-0.294c0-0.612,0.099-1.16,0.295-1.644s0.457-0.892,0.781-1.226s0.693-0.59,1.107-0.768
		c0.414-0.177,0.838-0.266,1.271-0.266c0.547,0,1.024,0.095,1.434,0.284c0.408,0.189,0.748,0.451,1.02,0.785
		c0.271,0.334,0.473,0.728,0.605,1.181c0.134,0.453,0.2,0.943,0.2,1.471v0.582h-5.417c0.014,0.346,0.08,0.67,0.199,0.974
		c0.119,0.304,0.283,0.569,0.491,0.795s0.456,0.405,0.746,0.536s0.61,0.196,0.96,0.196c0.463,0,0.874-0.093,1.233-0.28
		c0.36-0.187,0.659-0.435,0.897-0.743l0.791,0.617c-0.125,0.191-0.283,0.375-0.473,0.55s-0.408,0.331-0.655,0.466
		c-0.247,0.135-0.528,0.244-0.841,0.326S945.066,314.041,944.697,314.041z M944.529,307.244c-0.262,0-0.509,0.048-0.742,0.144
		c-0.234,0.096-0.444,0.236-0.631,0.421c-0.188,0.185-0.345,0.411-0.473,0.68c-0.129,0.269-0.219,0.578-0.27,0.928h4.078v-0.098
		c-0.015-0.252-0.062-0.502-0.145-0.75s-0.201-0.47-0.36-0.666s-0.358-0.355-0.599-0.477
		C945.147,307.305,944.861,307.244,944.529,307.244z"/>
	<path fill="#010101" d="M954.69,309.83c0,0.668-0.052,1.296-0.157,1.885c-0.105,0.589-0.246,1.134-0.424,1.636
		c-0.178,0.502-0.383,0.96-0.613,1.374c-0.231,0.414-0.475,0.783-0.729,1.107c-0.256,0.325-0.512,0.6-0.771,0.827
		s-0.506,0.405-0.739,0.536l-0.273-0.792c0.29-0.215,0.578-0.515,0.866-0.9c0.287-0.385,0.543-0.851,0.77-1.398
		c0.227-0.546,0.412-1.175,0.555-1.885s0.213-1.502,0.213-2.375v-0.098c0-0.874-0.074-1.667-0.224-2.379
		c-0.149-0.712-0.343-1.343-0.578-1.892c-0.236-0.549-0.495-1.015-0.778-1.398c-0.282-0.383-0.557-0.682-0.823-0.897l0.273-0.792
		c0.233,0.131,0.479,0.311,0.739,0.54s0.516,0.504,0.771,0.827c0.254,0.323,0.497,0.691,0.729,1.107
		c0.23,0.416,0.436,0.875,0.613,1.377s0.318,1.047,0.424,1.636c0.105,0.588,0.157,1.217,0.157,1.885V309.83z"/>
</g>
<g>
	<rect x="1152.429" y="272.679" fill="none" width="51.778" height="17.588"/>
	<path fill="#010101" d="M1156.81,279.631h-1.493v3.812h-1.969V273.24h3.42c0.564,0,1.076,0.066,1.534,0.2
		c0.458,0.133,0.849,0.328,1.174,0.585s0.575,0.577,0.75,0.96c0.175,0.383,0.263,0.827,0.263,1.332c0,0.364-0.043,0.692-0.13,0.984
		s-0.21,0.554-0.371,0.785c-0.161,0.231-0.354,0.434-0.581,0.606s-0.48,0.322-0.761,0.448l2.193,4.211v0.091h-2.109L1156.81,279.631
		z M1155.316,278.033h1.458c0.556,0,0.984-0.141,1.286-0.424c0.301-0.283,0.451-0.669,0.451-1.16c0-0.509-0.146-0.905-0.441-1.188
		c-0.294-0.283-0.729-0.424-1.303-0.424h-1.451V278.033z"/>
	<path fill="#010101" d="M1167.258,280.78c0-0.183-0.031-0.353-0.095-0.512s-0.171-0.307-0.322-0.445
		c-0.151-0.138-0.351-0.264-0.596-0.378c-0.245-0.115-0.55-0.221-0.915-0.319c-0.443-0.122-0.867-0.273-1.271-0.456
		s-0.76-0.402-1.068-0.659s-0.555-0.556-0.739-0.897s-0.276-0.733-0.276-1.177c0-0.43,0.09-0.82,0.272-1.17
		c0.183-0.35,0.435-0.649,0.757-0.897s0.703-0.438,1.143-0.571c0.439-0.133,0.916-0.2,1.43-0.2c0.532,0,1.02,0.077,1.461,0.231
		s0.82,0.37,1.139,0.648c0.317,0.278,0.564,0.608,0.742,0.991c0.178,0.383,0.267,0.804,0.267,1.262h-1.92
		c-0.009-0.229-0.05-0.439-0.122-0.631c-0.073-0.191-0.181-0.356-0.322-0.494c-0.143-0.138-0.32-0.245-0.533-0.322
		s-0.461-0.116-0.746-0.116c-0.262,0-0.494,0.032-0.697,0.095s-0.375,0.152-0.516,0.266c-0.14,0.115-0.246,0.25-0.318,0.407
		c-0.072,0.156-0.109,0.326-0.109,0.508c0,0.192,0.049,0.364,0.145,0.519s0.234,0.293,0.416,0.417
		c0.184,0.124,0.404,0.237,0.663,0.34c0.259,0.103,0.552,0.199,0.88,0.287c0.467,0.136,0.896,0.302,1.289,0.498
		c0.393,0.196,0.729,0.429,1.012,0.697c0.283,0.269,0.502,0.575,0.659,0.918c0.157,0.344,0.235,0.726,0.235,1.146
		c0,0.448-0.09,0.847-0.271,1.195c-0.18,0.348-0.429,0.642-0.746,0.883s-0.696,0.423-1.136,0.546
		c-0.438,0.124-0.918,0.186-1.436,0.186c-0.322,0-0.645-0.029-0.964-0.088c-0.32-0.058-0.626-0.148-0.918-0.27
		s-0.564-0.273-0.816-0.456c-0.253-0.182-0.471-0.395-0.655-0.638c-0.185-0.243-0.33-0.519-0.435-0.827
		c-0.104-0.309-0.157-0.649-0.157-1.023h1.934c0.01,0.309,0.062,0.572,0.161,0.792s0.235,0.399,0.41,0.54s0.386,0.243,0.63,0.308
		c0.246,0.066,0.516,0.098,0.811,0.098c0.262,0,0.494-0.03,0.697-0.091s0.375-0.145,0.515-0.252s0.247-0.237,0.322-0.389
		S1167.258,280.962,1167.258,280.78z"/>
	<path fill="#010101" d="M1172.99,273.24l0.967,3.833l1.1-3.833h2.445v10.203h-1.807v-3.02l0.084-4.772l-1.339,4.429h-0.974
		l-1.199-4.239l0.084,4.583v3.02h-1.807V273.24H1172.99z"/>
	<path fill="#010101" d="M1186.27,280.248c-0.033,0.514-0.145,0.977-0.334,1.387c-0.188,0.411-0.441,0.762-0.76,1.051
		c-0.317,0.29-0.695,0.513-1.135,0.669c-0.439,0.156-0.926,0.234-1.458,0.234c-0.603,0-1.138-0.111-1.604-0.333
		c-0.467-0.222-0.859-0.533-1.178-0.932c-0.317-0.399-0.561-0.879-0.729-1.44s-0.252-1.177-0.252-1.85v-1.374
		c0-0.677,0.088-1.296,0.266-1.857s0.43-1.042,0.758-1.443c0.326-0.402,0.723-0.714,1.188-0.936s0.986-0.333,1.566-0.333
		c0.561,0,1.059,0.08,1.496,0.238c0.437,0.159,0.809,0.385,1.117,0.68s0.551,0.654,0.729,1.079c0.178,0.425,0.29,0.904,0.337,1.437
		h-1.962c-0.02-0.304-0.064-0.57-0.137-0.799c-0.072-0.229-0.178-0.419-0.316-0.571c-0.137-0.152-0.311-0.267-0.518-0.344
		c-0.208-0.077-0.457-0.115-0.746-0.115c-0.305,0-0.568,0.065-0.793,0.196c-0.224,0.131-0.409,0.323-0.557,0.575
		c-0.146,0.252-0.256,0.562-0.326,0.929c-0.069,0.367-0.104,0.784-0.104,1.25v1.388c0,1.004,0.142,1.747,0.424,2.229
		c0.282,0.481,0.729,0.722,1.342,0.722c0.515,0,0.921-0.137,1.22-0.41c0.299-0.273,0.465-0.716,0.497-1.328H1186.27z"/>
	<path fill="#010101" d="M1194.307,284.963h-6.391v-1.521h6.391V284.963z"/>
	<path fill="#010101" d="M1201.427,281.312h-3.062l-0.603,2.13h-2.074l3.342-10.203h1.787l3.279,10.203h-2.074L1201.427,281.312z
		 M1198.848,279.638h2.116l-1.044-3.756L1198.848,279.638z"/>
</g>
<rect x="872.136" y="295.124" fill="none" stroke="#2C5070" stroke-width="0.9839" stroke-miterlimit="10" enable-background="new    " width="106.224" height="26.583"/>
<rect x="872.136" y="265.714" fill="none" stroke="#2C5070" stroke-width="0.9839" stroke-miterlimit="10" enable-background="new    " width="106.224" height="26.583"/>
<g>
	<g>
		<path fill="#010101" d="M1038.986,208.764v4.63h-2.437V200.77h4.317c0.688,0,1.31,0.1,1.864,0.299
			c0.556,0.199,1.028,0.477,1.418,0.832s0.69,0.782,0.901,1.279c0.211,0.498,0.316,1.049,0.316,1.656
			c0,0.566-0.105,1.089-0.316,1.569s-0.512,0.895-0.901,1.244s-0.862,0.623-1.418,0.819c-0.555,0.197-1.177,0.295-1.864,0.295
			H1038.986z M1038.986,206.787h1.881c0.348,0,0.647-0.052,0.902-0.156c0.254-0.104,0.467-0.246,0.637-0.425
			c0.171-0.179,0.298-0.386,0.382-0.62c0.083-0.234,0.126-0.479,0.126-0.733c0-0.294-0.043-0.569-0.126-0.823
			c-0.084-0.254-0.211-0.477-0.382-0.668c-0.17-0.19-0.383-0.341-0.637-0.451c-0.255-0.11-0.555-0.165-0.902-0.165h-1.881V206.787z"
			/>
		<path fill="#010101" d="M1051.688,213.567c-0.723,0-1.378-0.119-1.968-0.355c-0.589-0.237-1.095-0.559-1.517-0.967
			c-0.422-0.407-0.748-0.887-0.977-1.439c-0.229-0.552-0.342-1.143-0.342-1.773v-0.347c0-0.717,0.113-1.371,0.338-1.964
			c0.226-0.592,0.541-1.103,0.945-1.53s0.885-0.76,1.439-0.997s1.158-0.355,1.812-0.355c0.676,0,1.278,0.111,1.807,0.333
			c0.529,0.223,0.977,0.537,1.344,0.941c0.367,0.405,0.646,0.892,0.838,1.461c0.19,0.569,0.285,1.198,0.285,1.886v1.023h-6.363
			c0.046,0.318,0.14,0.608,0.281,0.871c0.142,0.263,0.322,0.49,0.542,0.681s0.472,0.338,0.755,0.442s0.592,0.156,0.928,0.156
			c0.236,0,0.473-0.023,0.706-0.069c0.234-0.046,0.458-0.114,0.672-0.204c0.214-0.089,0.413-0.201,0.599-0.334
			c0.185-0.133,0.347-0.289,0.485-0.468l1.205,1.301c-0.15,0.214-0.345,0.423-0.585,0.628c-0.24,0.206-0.523,0.388-0.85,0.546
			c-0.327,0.159-0.689,0.288-1.088,0.386C1052.581,213.518,1052.15,213.567,1051.688,213.567z M1051.402,205.79
			c-0.271,0-0.521,0.048-0.746,0.143s-0.424,0.233-0.594,0.412c-0.171,0.179-0.314,0.393-0.43,0.642s-0.202,0.526-0.26,0.832h3.953
			v-0.19c-0.012-0.254-0.061-0.495-0.146-0.72c-0.087-0.226-0.211-0.42-0.373-0.585c-0.162-0.165-0.359-0.295-0.594-0.39
			S1051.708,205.79,1051.402,205.79z"/>
		<path fill="#010101" d="M1062.344,213.567c-0.723,0-1.379-0.119-1.969-0.355c-0.589-0.237-1.095-0.559-1.517-0.967
			c-0.422-0.407-0.747-0.887-0.976-1.439c-0.229-0.552-0.342-1.143-0.342-1.773v-0.347c0-0.717,0.112-1.371,0.338-1.964
			c0.225-0.592,0.54-1.103,0.945-1.53c0.404-0.428,0.884-0.76,1.438-0.997c0.556-0.237,1.159-0.355,1.812-0.355
			c0.677,0,1.278,0.111,1.808,0.333c0.529,0.223,0.977,0.537,1.344,0.941c0.367,0.405,0.646,0.892,0.837,1.461
			s0.286,1.198,0.286,1.886v1.023h-6.364c0.046,0.318,0.14,0.608,0.282,0.871c0.141,0.263,0.322,0.49,0.541,0.681
			c0.221,0.191,0.472,0.338,0.755,0.442s0.593,0.156,0.928,0.156c0.237,0,0.473-0.023,0.706-0.069
			c0.234-0.046,0.459-0.114,0.672-0.204c0.215-0.089,0.414-0.201,0.6-0.334c0.184-0.133,0.346-0.289,0.484-0.468l1.205,1.301
			c-0.15,0.214-0.345,0.423-0.584,0.628c-0.24,0.206-0.523,0.388-0.851,0.546c-0.327,0.159-0.688,0.288-1.088,0.386
			S1062.807,213.567,1062.344,213.567z M1062.058,205.79c-0.271,0-0.521,0.048-0.745,0.143c-0.227,0.095-0.424,0.233-0.594,0.412
			c-0.172,0.179-0.314,0.393-0.43,0.642s-0.203,0.526-0.26,0.832h3.953v-0.19c-0.012-0.254-0.061-0.495-0.147-0.72
			c-0.087-0.226-0.211-0.42-0.372-0.585c-0.162-0.165-0.36-0.295-0.595-0.39C1062.635,205.837,1062.363,205.79,1062.058,205.79z"/>
		<path fill="#010101" d="M1075.185,203.839c0.364,0,0.7,0.024,1.011,0.074c0.309,0.049,0.559,0.103,0.75,0.16l-0.356,2.402
			c-0.317-0.075-0.644-0.131-0.976-0.169s-0.648-0.057-0.949-0.057c-0.676,0-1.218,0.13-1.625,0.39
			c-0.408,0.26-0.713,0.633-0.915,1.119v5.636h-2.411v-9.381h2.246l0.113,1.535c0.381-0.532,0.838-0.949,1.369-1.253
			C1073.974,203.991,1074.555,203.839,1075.185,203.839z"/>
		<path fill="#010101" d="M1095.881,210.758h-3.789l-0.746,2.636h-2.566l4.136-12.624h2.211l4.058,12.624h-2.566L1095.881,210.758z
			 M1092.689,208.686h2.619l-1.293-4.647L1092.689,208.686z"/>
		<path fill="#010101" d="M1106.831,208.452c0,0.792-0.063,1.542-0.19,2.25c-0.127,0.708-0.301,1.369-0.521,1.981
			s-0.476,1.172-0.768,1.678s-0.603,0.957-0.933,1.353c-0.328,0.396-0.667,0.732-1.014,1.01c-0.347,0.277-0.686,0.488-1.015,0.633
			l-0.46-1.301c0.318-0.243,0.639-0.575,0.963-0.997s0.615-0.942,0.876-1.561c0.26-0.618,0.471-1.344,0.633-2.176
			c0.161-0.833,0.243-1.783,0.243-2.853v-0.226c0-1.063-0.084-2.011-0.252-2.844s-0.381-1.561-0.642-2.185
			c-0.261-0.624-0.55-1.147-0.871-1.569c-0.321-0.422-0.638-0.754-0.95-0.997l0.46-1.292c0.329,0.145,0.668,0.355,1.015,0.633
			s0.686,0.614,1.014,1.01c0.33,0.396,0.641,0.847,0.933,1.353s0.548,1.065,0.768,1.678c0.22,0.612,0.394,1.273,0.521,1.981
			s0.19,1.458,0.19,2.25V208.452z"/>
		<path fill="#010101" d="M1130.189,209.596c-0.076,0.584-0.227,1.12-0.451,1.608c-0.227,0.489-0.52,0.908-0.881,1.257
			c-0.361,0.35-0.789,0.622-1.283,0.815c-0.494,0.194-1.045,0.291-1.651,0.291c-0.521,0-0.993-0.074-1.417-0.221
			c-0.426-0.147-0.805-0.351-1.137-0.611c-0.332-0.26-0.618-0.566-0.857-0.919c-0.24-0.353-0.439-0.737-0.599-1.153
			c-0.159-0.417-0.278-0.853-0.356-1.31c-0.077-0.457-0.119-0.919-0.125-1.387v-1.76c0.006-0.468,0.048-0.93,0.125-1.387
			c0.078-0.457,0.197-0.893,0.356-1.309s0.358-0.802,0.599-1.157c0.239-0.355,0.525-0.664,0.857-0.924
			c0.332-0.26,0.71-0.464,1.132-0.611c0.422-0.147,0.896-0.221,1.422-0.221c0.63,0,1.193,0.097,1.69,0.291
			c0.498,0.193,0.926,0.468,1.283,0.824c0.359,0.355,0.646,0.782,0.863,1.279s0.359,1.046,0.43,1.647h-1.605
			c-0.051-0.381-0.141-0.737-0.268-1.066c-0.128-0.329-0.299-0.618-0.512-0.867c-0.215-0.249-0.477-0.444-0.785-0.585
			s-0.675-0.212-1.097-0.212c-0.382,0-0.718,0.062-1.011,0.187c-0.291,0.125-0.543,0.293-0.754,0.507s-0.387,0.462-0.529,0.746
			c-0.141,0.283-0.255,0.584-0.342,0.901c-0.087,0.318-0.148,0.643-0.187,0.976s-0.056,0.655-0.056,0.967v1.777
			c0,0.312,0.018,0.634,0.056,0.967s0.1,0.659,0.187,0.98s0.199,0.623,0.338,0.906s0.315,0.533,0.529,0.75
			c0.213,0.217,0.465,0.387,0.754,0.512s0.627,0.187,1.015,0.187c0.422,0,0.788-0.066,1.097-0.2c0.309-0.133,0.57-0.319,0.785-0.559
			c0.213-0.24,0.384-0.523,0.512-0.85c0.127-0.327,0.217-0.681,0.268-1.062H1130.189z"/>
		<path fill="#010101" d="M1132.217,208.616c0-0.676,0.099-1.305,0.295-1.886c0.197-0.581,0.479-1.085,0.846-1.513
			s0.813-0.764,1.34-1.01c0.525-0.246,1.118-0.369,1.777-0.369c0.664,0,1.262,0.123,1.791,0.369c0.528,0.246,0.977,0.582,1.344,1.01
			s0.648,0.932,0.845,1.513s0.295,1.209,0.295,1.886v0.191c0,0.676-0.099,1.303-0.295,1.881s-0.478,1.081-0.845,1.509
			s-0.814,0.763-1.34,1.005c-0.526,0.243-1.119,0.364-1.777,0.364c-0.665,0-1.262-0.121-1.791-0.364
			c-0.528-0.243-0.977-0.578-1.344-1.005s-0.648-0.931-0.846-1.509c-0.196-0.578-0.295-1.205-0.295-1.881V208.616z
			 M1133.821,208.807c0,0.462,0.056,0.903,0.165,1.322c0.109,0.419,0.275,0.788,0.498,1.105s0.502,0.569,0.837,0.754
			c0.335,0.185,0.726,0.278,1.171,0.278c0.439,0,0.824-0.093,1.157-0.278c0.333-0.185,0.61-0.436,0.833-0.754
			c0.222-0.318,0.389-0.687,0.498-1.105c0.109-0.419,0.164-0.86,0.164-1.322v-0.191c0-0.457-0.056-0.895-0.168-1.313
			c-0.113-0.419-0.281-0.788-0.504-1.105s-0.5-0.571-0.832-0.759s-0.721-0.282-1.166-0.282s-0.832,0.094-1.162,0.282
			c-0.329,0.188-0.605,0.441-0.828,0.759s-0.389,0.687-0.498,1.105s-0.165,0.857-0.165,1.313V208.807z"/>
		<path fill="#010101" d="M1144.061,204.012l0.044,0.884c0.19-0.33,0.44-0.586,0.75-0.771s0.684-0.28,1.122-0.286
			c0.861,0,1.438,0.335,1.727,1.006c0.185-0.301,0.429-0.542,0.732-0.724c0.303-0.182,0.672-0.276,1.105-0.282
			c0.688,0,1.217,0.211,1.586,0.633c0.37,0.422,0.555,1.061,0.555,1.916v7.006h-1.525v-7.023c0-0.786-0.361-1.176-1.084-1.17
			c-0.19,0-0.355,0.026-0.494,0.078c-0.139,0.052-0.254,0.123-0.347,0.212c-0.093,0.089-0.165,0.193-0.217,0.312
			s-0.087,0.241-0.104,0.368v7.223h-1.525v-7.032c0-0.375-0.084-0.665-0.252-0.867c-0.168-0.202-0.434-0.3-0.797-0.294
			c-0.336,0-0.596,0.066-0.781,0.199c-0.185,0.133-0.32,0.31-0.406,0.529v7.465h-1.527v-9.381H1144.061z"/>
		<path fill="#010101" d="M1154.717,204.012l0.043,0.884c0.191-0.33,0.441-0.586,0.75-0.771c0.31-0.185,0.684-0.28,1.123-0.286
			c0.861,0,1.437,0.335,1.726,1.006c0.185-0.301,0.429-0.542,0.732-0.724s0.673-0.276,1.105-0.282c0.688,0,1.217,0.211,1.587,0.633
			c0.369,0.422,0.555,1.061,0.555,1.916v7.006h-1.525v-7.023c0-0.786-0.361-1.176-1.084-1.17c-0.191,0-0.355,0.026-0.494,0.078
			c-0.139,0.052-0.255,0.123-0.348,0.212c-0.092,0.089-0.164,0.193-0.217,0.312c-0.051,0.119-0.086,0.241-0.104,0.368v7.223h-1.525
			v-7.032c0-0.375-0.084-0.665-0.252-0.867c-0.168-0.202-0.434-0.3-0.798-0.294c-0.335,0-0.595,0.066-0.78,0.199
			c-0.186,0.133-0.32,0.31-0.407,0.529v7.465h-1.526v-9.381H1154.717z"/>
		<path fill="#010101" d="M1164.887,204.012h4.795v7.994h3.061v1.387h-7.855v-1.387h3.191v-6.598h-3.191V204.012z M1167.869,201.55
			c0-0.266,0.08-0.49,0.238-0.672c0.16-0.182,0.4-0.273,0.725-0.273c0.318,0,0.558,0.091,0.72,0.273
			c0.161,0.182,0.243,0.406,0.243,0.672c0,0.26-0.082,0.477-0.243,0.65c-0.162,0.173-0.401,0.26-0.72,0.26
			c-0.324,0-0.564-0.086-0.725-0.26C1167.949,202.027,1167.869,201.81,1167.869,201.55z"/>
		<path fill="#010101" d="M1179.089,201.741v2.271h3.572v1.24h-3.572v5.098c0,0.364,0.046,0.665,0.139,0.902
			c0.093,0.237,0.22,0.426,0.382,0.568s0.348,0.242,0.559,0.299s0.436,0.086,0.672,0.086c0.174,0,0.354-0.01,0.538-0.03
			c0.185-0.02,0.366-0.044,0.542-0.074c0.176-0.029,0.341-0.059,0.494-0.091s0.279-0.059,0.377-0.083l0.226,1.136
			c-0.133,0.081-0.295,0.152-0.485,0.212c-0.191,0.061-0.398,0.113-0.625,0.156c-0.225,0.043-0.463,0.077-0.715,0.1
			s-0.502,0.035-0.75,0.035c-0.416,0-0.805-0.059-1.166-0.178c-0.361-0.118-0.675-0.306-0.941-0.563
			c-0.266-0.257-0.475-0.59-0.628-0.997c-0.153-0.408-0.229-0.9-0.229-1.479v-5.098h-2.463v-1.24h2.463v-2.271H1179.089z"/>
		<path fill="#010101" d="M1186.684,204.012l0.044,0.884c0.19-0.33,0.44-0.586,0.75-0.771s0.684-0.28,1.122-0.286
			c0.861,0,1.438,0.335,1.727,1.006c0.185-0.301,0.429-0.542,0.732-0.724c0.303-0.182,0.672-0.276,1.105-0.282
			c0.688,0,1.217,0.211,1.586,0.633c0.37,0.422,0.555,1.061,0.555,1.916v7.006h-1.525v-7.023c0-0.786-0.361-1.176-1.084-1.17
			c-0.19,0-0.355,0.026-0.494,0.078c-0.139,0.052-0.254,0.123-0.347,0.212c-0.093,0.089-0.165,0.193-0.217,0.312
			s-0.087,0.241-0.104,0.368v7.223h-1.525v-7.032c0-0.375-0.084-0.665-0.252-0.867c-0.168-0.202-0.434-0.3-0.797-0.294
			c-0.336,0-0.596,0.066-0.781,0.199c-0.185,0.133-0.32,0.31-0.406,0.529v7.465h-1.527v-9.381H1186.684z"/>
		<path fill="#010101" d="M1200.748,213.567c-0.66,0-1.266-0.113-1.817-0.338c-0.552-0.226-1.024-0.541-1.417-0.945
			c-0.394-0.404-0.699-0.884-0.92-1.439c-0.219-0.555-0.329-1.159-0.329-1.812v-0.364c0-0.757,0.122-1.435,0.364-2.033
			c0.242-0.598,0.564-1.104,0.967-1.517c0.402-0.413,0.858-0.729,1.369-0.949c0.512-0.22,1.037-0.33,1.574-0.33
			c0.676,0,1.268,0.117,1.773,0.351s0.926,0.558,1.262,0.971c0.335,0.413,0.585,0.9,0.75,1.461c0.164,0.561,0.246,1.167,0.246,1.821
			v0.72h-6.701c0.018,0.428,0.1,0.829,0.246,1.205c0.148,0.375,0.35,0.704,0.607,0.984c0.258,0.281,0.564,0.501,0.924,0.664
			c0.357,0.162,0.754,0.243,1.188,0.243c0.572,0,1.081-0.116,1.525-0.347c0.445-0.231,0.815-0.538,1.11-0.919l0.979,0.763
			c-0.156,0.237-0.351,0.464-0.585,0.681c-0.233,0.217-0.505,0.409-0.811,0.577c-0.307,0.167-0.653,0.302-1.04,0.403
			C1201.626,213.516,1201.204,213.567,1200.748,213.567z M1200.539,205.157c-0.324,0-0.63,0.059-0.919,0.178s-0.55,0.292-0.78,0.52
			c-0.231,0.229-0.426,0.509-0.586,0.841c-0.158,0.333-0.27,0.715-0.333,1.149h5.046v-0.122c-0.018-0.312-0.076-0.621-0.178-0.928
			c-0.102-0.306-0.25-0.581-0.446-0.824s-0.444-0.439-0.741-0.589C1201.304,205.232,1200.949,205.157,1200.539,205.157z"/>
		<path fill="#010101" d="M1208.697,204.012l0.113,1.387c0.342-0.485,0.76-0.866,1.258-1.14c0.496-0.274,1.051-0.415,1.664-0.42
			c0.491,0,0.938,0.069,1.34,0.208c0.401,0.139,0.744,0.355,1.027,0.65s0.502,0.669,0.654,1.123c0.153,0.454,0.23,0.993,0.23,1.617
			v5.957h-1.604v-5.922c0-0.416-0.046-0.769-0.139-1.058s-0.229-0.523-0.411-0.703c-0.183-0.179-0.405-0.309-0.668-0.39
			c-0.264-0.081-0.565-0.121-0.906-0.121c-0.537,0-1.01,0.134-1.418,0.403c-0.407,0.269-0.732,0.623-0.975,1.062v6.728h-1.604
			v-9.381H1208.697z"/>
		<path fill="#010101" d="M1221.712,201.741v2.271h3.572v1.24h-3.572v5.098c0,0.364,0.046,0.665,0.139,0.902
			c0.093,0.237,0.22,0.426,0.382,0.568s0.348,0.242,0.559,0.299s0.436,0.086,0.672,0.086c0.174,0,0.354-0.01,0.538-0.03
			c0.185-0.02,0.366-0.044,0.542-0.074c0.176-0.029,0.341-0.059,0.494-0.091s0.279-0.059,0.377-0.083l0.226,1.136
			c-0.133,0.081-0.295,0.152-0.485,0.212c-0.191,0.061-0.398,0.113-0.625,0.156c-0.225,0.043-0.463,0.077-0.715,0.1
			s-0.502,0.035-0.75,0.035c-0.416,0-0.805-0.059-1.166-0.178c-0.361-0.118-0.675-0.306-0.941-0.563
			c-0.266-0.257-0.475-0.59-0.628-0.997c-0.153-0.408-0.229-0.9-0.229-1.479v-5.098h-2.463v-1.24h2.463v-2.271H1221.712z"/>
		<path fill="#010101" d="M1247.74,202.139h-3.902v11.254h-1.561v-11.254h-3.9v-1.37h9.363V202.139z"/>
		<path fill="#010101" d="M1253.792,205.72l2.723-4.951h1.89l-3.667,6.26l3.754,6.364h-1.872l-2.793-5.046l-2.8,5.046h-1.899
			l3.764-6.364l-3.668-6.26h1.881L1253.792,205.72z"/>
	</g>
</g>
<g>
	<rect x="1155.117" y="303.338" fill="none" width="40.263" height="17.586"/>
</g>
<g enable-background="new    ">
	<path fill="none" stroke="#2C5070" stroke-width="2.1308" stroke-miterlimit="10" d="M1261.157,328.031
		c0,1.953-1.598,3.551-3.551,3.551h-220.924c-1.953,0-3.551-1.598-3.551-3.551v-96.814c0-1.953,1.598-3.552,3.551-3.552h220.924
		c1.953,0,3.551,1.599,3.551,3.552V328.031z"/>
</g>
<rect x="1040.654" y="265.65" fill="none" stroke="#010101" stroke-width="0.7103" stroke-miterlimit="10" width="99.846" height="26.583"/>
<rect x="1147.41" y="265.65" fill="none" stroke="#2C5070" stroke-width="0.9839" stroke-miterlimit="10" enable-background="new    " width="106.224" height="26.583"/>
<g>
	<rect x="879.646" y="643.961" fill="none" width="66.439" height="17.589"/>
</g>
<g enable-background="new    ">
	<g>
		
			<line fill="none" stroke="#010101" stroke-width="2.136" stroke-miterlimit="10" x1="986.654" y1="279.624" x2="1040.654" y2="279.624"/>
		<g>
			<polygon fill="#010101" points="978.359,279.624 990.048,284.4 987.274,279.624 990.048,274.849 			"/>
		</g>
	</g>
</g>
<g>
	<rect x="1045.919" y="272.678" fill="none" width="89.316" height="35.08"/>
	<path fill="#010101" d="M1079.568,280.779c0-0.182-0.031-0.353-0.095-0.512c-0.063-0.158-0.171-0.307-0.322-0.444
		s-0.351-0.264-0.596-0.379c-0.245-0.114-0.55-0.221-0.915-0.318c-0.443-0.122-0.867-0.273-1.271-0.456
		c-0.404-0.182-0.76-0.401-1.068-0.658s-0.555-0.556-0.739-0.897c-0.185-0.341-0.276-0.733-0.276-1.177c0-0.43,0.09-0.82,0.272-1.17
		c0.183-0.351,0.435-0.649,0.757-0.897c0.322-0.247,0.703-0.438,1.143-0.571c0.439-0.133,0.916-0.199,1.43-0.199
		c0.532,0,1.02,0.077,1.461,0.231c0.441,0.153,0.82,0.37,1.139,0.647c0.317,0.278,0.564,0.608,0.742,0.992
		c0.178,0.383,0.267,0.803,0.267,1.261h-1.92c-0.009-0.229-0.05-0.438-0.122-0.631c-0.073-0.191-0.181-0.355-0.322-0.493
		c-0.143-0.138-0.32-0.246-0.533-0.323c-0.213-0.076-0.461-0.115-0.746-0.115c-0.262,0-0.494,0.031-0.697,0.095
		s-0.375,0.151-0.516,0.267c-0.14,0.114-0.246,0.25-0.318,0.406s-0.109,0.325-0.109,0.508c0,0.191,0.049,0.364,0.145,0.519
		s0.234,0.293,0.416,0.417c0.184,0.124,0.404,0.237,0.663,0.34s0.552,0.198,0.88,0.287c0.467,0.136,0.896,0.302,1.289,0.498
		s0.729,0.429,1.012,0.697c0.283,0.269,0.502,0.574,0.659,0.918c0.157,0.343,0.235,0.725,0.235,1.146
		c0,0.448-0.09,0.847-0.271,1.194c-0.18,0.349-0.429,0.643-0.746,0.883c-0.317,0.241-0.696,0.423-1.136,0.547
		c-0.438,0.124-0.918,0.186-1.436,0.186c-0.322,0-0.645-0.029-0.964-0.087c-0.32-0.059-0.626-0.148-0.918-0.271
		c-0.292-0.121-0.564-0.272-0.816-0.455c-0.253-0.183-0.471-0.395-0.655-0.638s-0.33-0.519-0.435-0.827
		c-0.104-0.308-0.157-0.649-0.157-1.022h1.934c0.01,0.308,0.062,0.572,0.161,0.791c0.099,0.22,0.235,0.399,0.41,0.54
		c0.175,0.14,0.386,0.243,0.63,0.309c0.246,0.065,0.516,0.098,0.811,0.098c0.262,0,0.494-0.03,0.697-0.091s0.375-0.145,0.515-0.252
		s0.247-0.237,0.322-0.39C1079.531,281.129,1079.568,280.962,1079.568,280.779z"/>
	<path fill="#010101" d="M1083.472,275.86h4.127v5.998h2.054v1.584h-6.181v-1.584h2.158v-4.407h-2.158V275.86z M1085.49,273.919
		c0-0.149,0.026-0.288,0.08-0.417c0.054-0.128,0.129-0.238,0.228-0.329s0.216-0.162,0.354-0.214c0.137-0.051,0.29-0.077,0.459-0.077
		c0.346,0,0.619,0.098,0.822,0.291c0.203,0.194,0.305,0.442,0.305,0.746s-0.102,0.553-0.305,0.747
		c-0.203,0.193-0.477,0.29-0.822,0.29c-0.169,0-0.322-0.025-0.459-0.077c-0.139-0.051-0.256-0.122-0.354-0.213
		c-0.099-0.092-0.174-0.201-0.228-0.33C1085.517,274.208,1085.49,274.068,1085.49,273.919z"/>
	<path fill="#010101" d="M1091.369,279.596c0-0.575,0.07-1.101,0.213-1.577s0.348-0.885,0.613-1.227
		c0.267-0.341,0.59-0.604,0.968-0.792c0.378-0.187,0.806-0.28,1.282-0.28c0.443,0,0.824,0.075,1.143,0.225
		c0.317,0.149,0.588,0.362,0.812,0.638l0.077-0.722h1.772v7.337c0,0.514-0.088,0.972-0.263,1.373
		c-0.175,0.402-0.421,0.74-0.735,1.017c-0.315,0.275-0.693,0.484-1.135,0.627s-0.93,0.214-1.462,0.214
		c-0.229,0-0.474-0.023-0.735-0.07s-0.521-0.119-0.777-0.217c-0.258-0.099-0.5-0.224-0.729-0.375
		c-0.229-0.152-0.425-0.333-0.589-0.543l0.876-1.185c0.247,0.28,0.528,0.494,0.841,0.642c0.312,0.146,0.652,0.221,1.017,0.221
		c0.546,0,0.973-0.146,1.278-0.438c0.307-0.292,0.459-0.707,0.459-1.244v-0.435c-0.229,0.253-0.496,0.449-0.803,0.589
		c-0.305,0.141-0.659,0.211-1.061,0.211c-0.473,0-0.896-0.098-1.272-0.291c-0.376-0.194-0.697-0.462-0.964-0.803
		c-0.266-0.341-0.471-0.746-0.613-1.216s-0.213-0.979-0.213-1.531V279.596z M1093.324,279.742c0,0.318,0.031,0.613,0.094,0.887
		c0.064,0.273,0.16,0.512,0.291,0.715s0.297,0.363,0.498,0.479c0.201,0.117,0.439,0.176,0.715,0.176
		c0.341,0,0.623-0.065,0.844-0.196c0.223-0.131,0.398-0.313,0.529-0.547v-3.209c-0.131-0.238-0.307-0.422-0.529-0.551
		c-0.221-0.128-0.498-0.192-0.83-0.192c-0.275,0-0.514,0.06-0.715,0.179s-0.367,0.283-0.5,0.49
		c-0.134,0.208-0.233,0.451-0.299,0.729c-0.064,0.277-0.098,0.575-0.098,0.894V279.742z"/>
	<path fill="#010101" d="M1105.125,281.312h-3.062l-0.603,2.13h-2.074l3.343-10.203h1.787l3.279,10.203h-2.074L1105.125,281.312z
		 M1102.546,279.638h2.116l-1.044-3.757L1102.546,279.638z"/>
</g>
<g enable-background="new    ">
	<g>
		
			<line fill="none" stroke="#010101" stroke-width="1.5" stroke-miterlimit="10" x1="85.266" y1="229.051" x2="480.98" y2="229.051"/>
		<g>
			<polygon fill="#010101" points="478.008,233.409 494.269,229.051 478.008,224.693 			"/>
		</g>
	</g>
</g>
<g enable-background="new    ">
	<g>
		
			<line fill="none" stroke="#010101" stroke-width="1.5" stroke-miterlimit="10" x1="494.269" y1="265.715" x2="98.555" y2="265.715"/>
		<g>
			<polygon fill="#010101" points="101.527,261.357 85.266,265.715 101.527,270.073 			"/>
		</g>
	</g>
</g>
<line fill="none" stroke="#010101" stroke-width="2" stroke-miterlimit="10" x1="68.5" y1="727.074" x2="68.5" y2="193.551"/>
<line fill="none" stroke="#010101" stroke-width="2" stroke-miterlimit="10" x1="511.345" y1="727.074" x2="511.345" y2="193.551"/>
<g>
	<rect x="471.345" y="160" fill="none" width="80" height="41.101"/>
	<path fill="#010101" d="M505.418,178.75v-17.773h5.97c0.969,0,1.85,0.098,2.643,0.293c0.794,0.195,1.472,0.492,2.032,0.891
		c0.562,0.399,0.995,0.904,1.301,1.514c0.305,0.611,0.457,1.331,0.457,2.161c-0.008,0.83-0.229,1.575-0.665,2.233
		c-0.436,0.66-1.076,1.16-1.923,1.502c0.514,0.13,0.957,0.325,1.331,0.586s0.686,0.567,0.934,0.922
		c0.248,0.354,0.432,0.74,0.55,1.159c0.117,0.42,0.177,0.853,0.177,1.3c0,0.855-0.146,1.607-0.439,2.259s-0.712,1.196-1.257,1.636
		c-0.546,0.439-1.209,0.77-1.99,0.988c-0.781,0.221-1.66,0.33-2.637,0.33H505.418z M508.862,168.436h2.551
		c0.952-0.009,1.685-0.208,2.197-0.599s0.773-0.964,0.781-1.722c0-0.83-0.256-1.426-0.77-1.788
		c-0.512-0.361-1.253-0.547-2.221-0.556h-2.539V168.436z M508.862,170.913v5.065h3.051c0.937-0.008,1.65-0.237,2.143-0.689
		c0.492-0.451,0.738-1.043,0.738-1.775c0.009-0.814-0.211-1.449-0.658-1.904c-0.448-0.456-1.14-0.688-2.076-0.696H508.862z"/>
</g>
<g>
	<rect x="28.5" y="160" fill="none" width="80" height="41.101"/>
	<path fill="#010101" d="M71.339,175.039h-5.335l-1.05,3.711h-3.613l5.822-17.773h3.113l5.713,17.773h-3.613L71.339,175.039z
		 M66.847,172.121h3.686l-1.818-6.543L66.847,172.121z"/>
</g>
<g>
	<g>
		<path fill="#010101" d="M232.197,214.746c0-0.614,0.089-1.184,0.266-1.707s0.437-0.978,0.777-1.363s0.758-0.688,1.25-0.906
			s1.056-0.328,1.691-0.328s1.2,0.109,1.695,0.328s0.913,0.521,1.254,0.906s0.601,0.84,0.777,1.363s0.266,1.093,0.266,1.707v0.164
			c0,0.62-0.089,1.191-0.266,1.715s-0.435,0.978-0.773,1.363s-0.755,0.687-1.25,0.902s-1.058,0.324-1.688,0.324
			c-0.636,0-1.202-0.108-1.699-0.324s-0.917-0.517-1.258-0.902s-0.601-0.84-0.777-1.363s-0.266-1.095-0.266-1.715V214.746z
			 M234.369,214.91c0,0.354,0.034,0.687,0.102,0.996s0.175,0.581,0.32,0.812s0.335,0.415,0.566,0.551s0.512,0.203,0.84,0.203
			c0.317,0,0.591-0.067,0.82-0.203s0.415-0.319,0.559-0.551s0.249-0.503,0.316-0.812s0.102-0.642,0.102-0.996v-0.164
			c0-0.344-0.034-0.669-0.102-0.977s-0.173-0.578-0.316-0.812s-0.329-0.419-0.559-0.555s-0.508-0.203-0.836-0.203
			c-0.323,0-0.599,0.067-0.828,0.203s-0.417,0.32-0.562,0.555s-0.253,0.505-0.32,0.812s-0.102,0.633-0.102,0.977V214.91z"/>
		<path fill="#010101" d="M249.689,214.902c0,0.614-0.071,1.185-0.215,1.711s-0.354,0.98-0.633,1.363s-0.624,0.684-1.035,0.902
			s-0.883,0.328-1.414,0.328c-0.453,0-0.852-0.078-1.195-0.234s-0.644-0.375-0.898-0.656v3.984h-2.172v-11.703h2.008l0.078,0.828
			c0.261-0.312,0.567-0.555,0.922-0.727s0.769-0.258,1.242-0.258c0.536,0,1.011,0.103,1.422,0.309s0.758,0.497,1.039,0.875
			s0.493,0.831,0.637,1.359s0.215,1.113,0.215,1.754V214.902z M247.518,214.738c0-0.354-0.032-0.687-0.098-0.996
			s-0.167-0.578-0.305-0.805s-0.315-0.405-0.531-0.535s-0.478-0.195-0.785-0.195c-0.38,0-0.691,0.074-0.934,0.223
			s-0.431,0.358-0.566,0.629v3.531c0.136,0.266,0.324,0.478,0.566,0.637s0.559,0.238,0.949,0.238c0.308,0,0.569-0.067,0.785-0.203
			s0.392-0.32,0.527-0.555s0.234-0.507,0.297-0.816s0.094-0.64,0.094-0.988V214.738z"/>
		<path fill="#010101" d="M255.799,219.207c-0.651,0-1.242-0.106-1.773-0.32s-0.987-0.504-1.367-0.871s-0.673-0.8-0.879-1.297
			s-0.309-1.03-0.309-1.598v-0.312c0-0.646,0.102-1.235,0.305-1.77s0.487-0.993,0.852-1.379s0.797-0.685,1.297-0.898
			s1.044-0.32,1.633-0.32c0.609,0,1.152,0.101,1.629,0.301s0.88,0.483,1.211,0.848s0.582,0.804,0.754,1.316s0.258,1.079,0.258,1.699
			v0.922h-5.734c0.042,0.286,0.126,0.548,0.254,0.785s0.29,0.441,0.488,0.613s0.425,0.305,0.68,0.398s0.534,0.141,0.836,0.141
			c0.214,0,0.426-0.021,0.637-0.062s0.413-0.103,0.605-0.184s0.372-0.181,0.539-0.301s0.312-0.261,0.438-0.422l1.086,1.172
			c-0.136,0.192-0.312,0.382-0.527,0.566s-0.472,0.349-0.766,0.492s-0.621,0.259-0.98,0.348S256.216,219.207,255.799,219.207z
			 M255.541,212.199c-0.245,0-0.469,0.043-0.672,0.129s-0.382,0.21-0.535,0.371s-0.282,0.354-0.387,0.578s-0.183,0.474-0.234,0.75
			h3.562v-0.172c-0.011-0.229-0.055-0.445-0.133-0.648s-0.19-0.379-0.336-0.527s-0.324-0.266-0.535-0.352
			S255.817,212.199,255.541,212.199z"/>
		<path fill="#010101" d="M263.268,210.598l0.133,1.172c0.302-0.422,0.669-0.749,1.102-0.98s0.911-0.348,1.438-0.348
			c0.427,0,0.817,0.062,1.172,0.188s0.66,0.324,0.918,0.598s0.458,0.625,0.602,1.055s0.215,0.952,0.215,1.566v5.203h-2.172v-5.172
			c0-0.333-0.038-0.608-0.113-0.824s-0.184-0.387-0.324-0.512s-0.31-0.212-0.508-0.262s-0.422-0.074-0.672-0.074
			c-0.37,0-0.685,0.074-0.945,0.223s-0.472,0.353-0.633,0.613v6.008h-2.18v-8.453H263.268z"/>
		<path fill="#010101" d="M278.08,220.746h-7.125v-1.695h7.125V220.746z"/>
		<path fill="#010101" d="M284.244,217.473c0.214,0,0.417-0.031,0.609-0.094s0.362-0.151,0.508-0.266s0.259-0.253,0.34-0.414
			s0.116-0.341,0.105-0.539h2.047c0.011,0.438-0.079,0.844-0.27,1.219s-0.449,0.698-0.777,0.969s-0.71,0.483-1.145,0.637
			s-0.895,0.23-1.379,0.23c-0.656,0-1.231-0.11-1.727-0.332s-0.907-0.524-1.238-0.91s-0.581-0.837-0.75-1.355
			s-0.254-1.074-0.254-1.668v-0.234c0-0.594,0.083-1.149,0.25-1.668s0.417-0.97,0.75-1.355s0.746-0.69,1.238-0.914
			s1.063-0.336,1.715-0.336c0.521,0,1.003,0.078,1.445,0.234s0.824,0.376,1.145,0.66s0.569,0.628,0.746,1.031
			s0.261,0.855,0.25,1.355h-2.047c0.011-0.208-0.021-0.406-0.094-0.594s-0.18-0.349-0.32-0.484s-0.31-0.243-0.508-0.324
			s-0.414-0.121-0.648-0.121c-0.344,0-0.628,0.07-0.852,0.211s-0.402,0.328-0.535,0.562s-0.227,0.503-0.281,0.805
			s-0.082,0.614-0.082,0.938v0.234c0,0.328,0.026,0.645,0.078,0.949s0.145,0.573,0.277,0.805s0.312,0.418,0.539,0.559
			S283.896,217.473,284.244,217.473z"/>
		<path fill="#010101" d="M292.275,211.762c0.281-0.411,0.624-0.734,1.027-0.969s0.855-0.352,1.355-0.352
			c0.442,0,0.849,0.066,1.219,0.199s0.688,0.34,0.953,0.621s0.473,0.642,0.621,1.082s0.223,0.97,0.223,1.59v5.117h-2.172v-5.133
			c0-0.302-0.038-0.562-0.113-0.781s-0.184-0.396-0.324-0.531s-0.31-0.235-0.508-0.301s-0.422-0.098-0.672-0.098
			c-0.364,0-0.681,0.065-0.949,0.195s-0.488,0.312-0.66,0.547v6.102h-2.172v-12h2.172V211.762z"/>
		<path fill="#010101" d="M304.986,219.051c-0.052-0.104-0.097-0.224-0.133-0.359s-0.067-0.278-0.094-0.43
			c-0.12,0.13-0.258,0.253-0.414,0.367s-0.329,0.215-0.52,0.301s-0.399,0.153-0.629,0.203s-0.477,0.074-0.742,0.074
			c-0.433,0-0.829-0.062-1.191-0.188s-0.673-0.3-0.934-0.523s-0.464-0.491-0.609-0.801s-0.219-0.647-0.219-1.012
			c0-0.891,0.332-1.579,0.996-2.066s1.655-0.73,2.973-0.73h1.211v-0.5c0-0.406-0.133-0.728-0.398-0.965s-0.648-0.355-1.148-0.355
			c-0.442,0-0.766,0.095-0.969,0.285s-0.305,0.444-0.305,0.762h-2.172c0-0.359,0.079-0.7,0.238-1.023s0.391-0.606,0.695-0.852
			s0.677-0.438,1.117-0.582s0.944-0.215,1.512-0.215c0.511,0,0.985,0.062,1.426,0.188s0.821,0.31,1.145,0.555
			s0.575,0.554,0.758,0.926s0.273,0.804,0.273,1.293v3.625c0,0.453,0.028,0.828,0.086,1.125s0.141,0.552,0.25,0.766v0.133H304.986z
			 M302.916,217.527c0.219,0,0.422-0.026,0.609-0.078s0.356-0.12,0.508-0.203s0.281-0.179,0.391-0.285s0.195-0.215,0.258-0.324
			v-1.453h-1.109c-0.339,0-0.628,0.032-0.867,0.098s-0.435,0.156-0.586,0.273s-0.263,0.258-0.336,0.422s-0.109,0.343-0.109,0.535
			c0,0.292,0.103,0.534,0.309,0.727S302.499,217.527,302.916,217.527z"/>
		<path fill="#010101" d="M311.275,210.598l0.133,1.172c0.302-0.422,0.669-0.749,1.102-0.98s0.911-0.348,1.438-0.348
			c0.427,0,0.817,0.062,1.172,0.188s0.66,0.324,0.918,0.598s0.458,0.625,0.602,1.055s0.215,0.952,0.215,1.566v5.203h-2.172v-5.172
			c0-0.333-0.038-0.608-0.113-0.824s-0.184-0.387-0.324-0.512s-0.31-0.212-0.508-0.262s-0.422-0.074-0.672-0.074
			c-0.37,0-0.685,0.074-0.945,0.223s-0.472,0.353-0.633,0.613v6.008h-2.18v-8.453H311.275z"/>
		<path fill="#010101" d="M320.877,210.598l0.133,1.172c0.302-0.422,0.669-0.749,1.102-0.98s0.911-0.348,1.438-0.348
			c0.427,0,0.817,0.062,1.172,0.188s0.66,0.324,0.918,0.598s0.458,0.625,0.602,1.055s0.215,0.952,0.215,1.566v5.203h-2.172v-5.172
			c0-0.333-0.038-0.608-0.113-0.824s-0.184-0.387-0.324-0.512s-0.31-0.212-0.508-0.262s-0.422-0.074-0.672-0.074
			c-0.37,0-0.685,0.074-0.945,0.223s-0.472,0.353-0.633,0.613v6.008h-2.18v-8.453H320.877z"/>
		<path fill="#010101" d="M332.611,219.207c-0.651,0-1.242-0.106-1.773-0.32s-0.987-0.504-1.367-0.871s-0.673-0.8-0.879-1.297
			s-0.309-1.03-0.309-1.598v-0.312c0-0.646,0.102-1.235,0.305-1.77s0.487-0.993,0.852-1.379s0.797-0.685,1.297-0.898
			s1.044-0.32,1.633-0.32c0.609,0,1.152,0.101,1.629,0.301s0.88,0.483,1.211,0.848s0.582,0.804,0.754,1.316s0.258,1.079,0.258,1.699
			v0.922h-5.734c0.042,0.286,0.126,0.548,0.254,0.785s0.29,0.441,0.488,0.613s0.425,0.305,0.68,0.398s0.534,0.141,0.836,0.141
			c0.214,0,0.426-0.021,0.637-0.062s0.413-0.103,0.605-0.184s0.372-0.181,0.539-0.301s0.312-0.261,0.438-0.422l1.086,1.172
			c-0.136,0.192-0.312,0.382-0.527,0.566s-0.472,0.349-0.766,0.492s-0.621,0.259-0.98,0.348S333.028,219.207,332.611,219.207z
			 M332.354,212.199c-0.245,0-0.469,0.043-0.672,0.129s-0.382,0.21-0.535,0.371s-0.282,0.354-0.387,0.578s-0.183,0.474-0.234,0.75
			h3.562v-0.172c-0.011-0.229-0.055-0.445-0.133-0.648s-0.19-0.379-0.336-0.527s-0.324-0.266-0.535-0.352
			S332.63,212.199,332.354,212.199z"/>
		<path fill="#010101" d="M338.564,207.051h4.727v10.234h2.422v1.766h-7.148v-1.766h2.531v-8.461h-2.531V207.051z"/>
	</g>
</g>
<g>
	<g>
		<path fill="#010101" d="M228.174,256.051c-0.052-0.104-0.097-0.224-0.133-0.359s-0.067-0.278-0.094-0.43
			c-0.12,0.13-0.258,0.253-0.414,0.367s-0.329,0.215-0.52,0.301s-0.399,0.153-0.629,0.203s-0.477,0.074-0.742,0.074
			c-0.433,0-0.829-0.062-1.191-0.188s-0.673-0.3-0.934-0.523s-0.464-0.491-0.609-0.801s-0.219-0.647-0.219-1.012
			c0-0.891,0.332-1.579,0.996-2.066s1.655-0.73,2.973-0.73h1.211v-0.5c0-0.406-0.133-0.728-0.398-0.965s-0.648-0.355-1.148-0.355
			c-0.442,0-0.766,0.095-0.969,0.285s-0.305,0.444-0.305,0.762h-2.172c0-0.359,0.079-0.7,0.238-1.023s0.391-0.606,0.695-0.852
			s0.677-0.438,1.117-0.582s0.944-0.215,1.512-0.215c0.511,0,0.985,0.062,1.426,0.188s0.821,0.31,1.145,0.555
			s0.575,0.554,0.758,0.926s0.273,0.804,0.273,1.293v3.625c0,0.453,0.028,0.828,0.086,1.125s0.141,0.552,0.25,0.766v0.133H228.174z
			 M226.104,254.527c0.219,0,0.422-0.026,0.609-0.078s0.356-0.12,0.508-0.203s0.281-0.179,0.391-0.285s0.195-0.215,0.258-0.324
			v-1.453h-1.109c-0.339,0-0.628,0.032-0.867,0.098s-0.435,0.156-0.586,0.273s-0.263,0.258-0.336,0.422s-0.109,0.343-0.109,0.535
			c0,0.292,0.103,0.534,0.309,0.727S225.687,254.527,226.104,254.527z"/>
		<path fill="#010101" d="M236.236,254.473c0.214,0,0.417-0.031,0.609-0.094s0.362-0.151,0.508-0.266s0.259-0.253,0.34-0.414
			s0.116-0.341,0.105-0.539h2.047c0.011,0.438-0.079,0.844-0.27,1.219s-0.449,0.698-0.777,0.969s-0.71,0.483-1.145,0.637
			s-0.895,0.23-1.379,0.23c-0.656,0-1.231-0.11-1.727-0.332s-0.907-0.524-1.238-0.91s-0.581-0.837-0.75-1.355
			s-0.254-1.074-0.254-1.668v-0.234c0-0.594,0.083-1.149,0.25-1.668s0.417-0.97,0.75-1.355s0.746-0.69,1.238-0.914
			s1.063-0.336,1.715-0.336c0.521,0,1.003,0.078,1.445,0.234s0.824,0.376,1.145,0.66s0.569,0.628,0.746,1.031
			s0.261,0.855,0.25,1.355h-2.047c0.011-0.208-0.021-0.406-0.094-0.594s-0.18-0.349-0.32-0.484s-0.31-0.243-0.508-0.324
			s-0.414-0.121-0.648-0.121c-0.344,0-0.628,0.07-0.852,0.211s-0.402,0.328-0.535,0.562s-0.227,0.503-0.281,0.805
			s-0.082,0.614-0.082,0.938v0.234c0,0.328,0.026,0.645,0.078,0.949s0.145,0.573,0.277,0.805s0.312,0.418,0.539,0.559
			S235.888,254.473,236.236,254.473z"/>
		<path fill="#010101" d="M245.838,254.473c0.214,0,0.417-0.031,0.609-0.094s0.362-0.151,0.508-0.266s0.259-0.253,0.34-0.414
			s0.116-0.341,0.105-0.539h2.047c0.011,0.438-0.079,0.844-0.27,1.219s-0.449,0.698-0.777,0.969s-0.71,0.483-1.145,0.637
			s-0.895,0.23-1.379,0.23c-0.656,0-1.231-0.11-1.727-0.332s-0.907-0.524-1.238-0.91s-0.581-0.837-0.75-1.355
			s-0.254-1.074-0.254-1.668v-0.234c0-0.594,0.083-1.149,0.25-1.668s0.417-0.97,0.75-1.355s0.746-0.69,1.238-0.914
			s1.063-0.336,1.715-0.336c0.521,0,1.003,0.078,1.445,0.234s0.824,0.376,1.145,0.66s0.569,0.628,0.746,1.031
			s0.261,0.855,0.25,1.355H247.4c0.011-0.208-0.021-0.406-0.094-0.594s-0.18-0.349-0.32-0.484s-0.31-0.243-0.508-0.324
			s-0.414-0.121-0.648-0.121c-0.344,0-0.628,0.07-0.852,0.211s-0.402,0.328-0.535,0.562s-0.227,0.503-0.281,0.805
			s-0.082,0.614-0.082,0.938v0.234c0,0.328,0.026,0.645,0.078,0.949s0.145,0.573,0.277,0.805s0.312,0.418,0.539,0.559
			S245.489,254.473,245.838,254.473z"/>
		<path fill="#010101" d="M255.799,256.207c-0.651,0-1.242-0.106-1.773-0.32s-0.987-0.504-1.367-0.871s-0.673-0.8-0.879-1.297
			s-0.309-1.03-0.309-1.598v-0.312c0-0.646,0.102-1.235,0.305-1.77s0.487-0.993,0.852-1.379s0.797-0.685,1.297-0.898
			s1.044-0.32,1.633-0.32c0.609,0,1.152,0.101,1.629,0.301s0.88,0.483,1.211,0.848s0.582,0.804,0.754,1.316s0.258,1.079,0.258,1.699
			v0.922h-5.734c0.042,0.286,0.126,0.548,0.254,0.785s0.29,0.441,0.488,0.613s0.425,0.305,0.68,0.398s0.534,0.141,0.836,0.141
			c0.214,0,0.426-0.021,0.637-0.062s0.413-0.103,0.605-0.184s0.372-0.181,0.539-0.301s0.312-0.261,0.438-0.422l1.086,1.172
			c-0.136,0.192-0.312,0.382-0.527,0.566s-0.472,0.349-0.766,0.492s-0.621,0.259-0.98,0.348S256.216,256.207,255.799,256.207z
			 M255.541,249.199c-0.245,0-0.469,0.043-0.672,0.129s-0.382,0.21-0.535,0.371s-0.282,0.354-0.387,0.578s-0.183,0.474-0.234,0.75
			h3.562v-0.172c-0.011-0.229-0.055-0.445-0.133-0.648s-0.19-0.379-0.336-0.527s-0.324-0.266-0.535-0.352
			S255.817,249.199,255.541,249.199z"/>
		<path fill="#010101" d="M268.893,251.902c0,0.614-0.071,1.185-0.215,1.711s-0.354,0.98-0.633,1.363s-0.624,0.684-1.035,0.902
			s-0.883,0.328-1.414,0.328c-0.453,0-0.852-0.078-1.195-0.234s-0.644-0.375-0.898-0.656v3.984h-2.172v-11.703h2.008l0.078,0.828
			c0.261-0.312,0.567-0.555,0.922-0.727s0.769-0.258,1.242-0.258c0.536,0,1.011,0.103,1.422,0.309s0.758,0.497,1.039,0.875
			s0.493,0.831,0.637,1.359s0.215,1.113,0.215,1.754V251.902z M266.721,251.738c0-0.354-0.032-0.687-0.098-0.996
			s-0.167-0.578-0.305-0.805s-0.315-0.405-0.531-0.535s-0.478-0.195-0.785-0.195c-0.38,0-0.691,0.074-0.934,0.223
			s-0.431,0.358-0.566,0.629v3.531c0.136,0.266,0.324,0.478,0.566,0.637s0.559,0.238,0.949,0.238c0.308,0,0.569-0.067,0.785-0.203
			s0.392-0.32,0.527-0.555s0.234-0.507,0.297-0.816s0.094-0.64,0.094-0.988V251.738z"/>
		<path fill="#010101" d="M274.885,245.527v2.07h3.156v1.602h-3.156v3.633c0,0.308,0.035,0.563,0.105,0.77s0.171,0.37,0.301,0.492
			s0.288,0.21,0.473,0.262s0.392,0.078,0.621,0.078c0.167,0,0.337-0.008,0.512-0.023s0.341-0.035,0.5-0.059s0.308-0.048,0.445-0.074
			s0.257-0.052,0.355-0.078l0.211,1.492c-0.151,0.089-0.328,0.165-0.531,0.23s-0.419,0.118-0.648,0.16s-0.468,0.074-0.715,0.098
			s-0.491,0.035-0.73,0.035c-0.464,0-0.884-0.062-1.262-0.184s-0.7-0.312-0.969-0.57s-0.476-0.586-0.621-0.984
			s-0.219-0.876-0.219-1.434v-3.844h-1.93v-1.602h1.93v-2.07H274.885z"/>
		<path fill="#010101" d="M287.682,257.746h-7.125v-1.695h7.125V257.746z"/>
		<path fill="#010101" d="M293.846,254.473c0.214,0,0.417-0.031,0.609-0.094s0.362-0.151,0.508-0.266s0.259-0.253,0.34-0.414
			s0.116-0.341,0.105-0.539h2.047c0.011,0.438-0.079,0.844-0.27,1.219s-0.449,0.698-0.777,0.969s-0.71,0.483-1.145,0.637
			s-0.895,0.23-1.379,0.23c-0.656,0-1.231-0.11-1.727-0.332s-0.907-0.524-1.238-0.91s-0.581-0.837-0.75-1.355
			s-0.254-1.074-0.254-1.668v-0.234c0-0.594,0.083-1.149,0.25-1.668s0.417-0.97,0.75-1.355s0.746-0.69,1.238-0.914
			s1.063-0.336,1.715-0.336c0.521,0,1.003,0.078,1.445,0.234s0.824,0.376,1.145,0.66s0.569,0.628,0.746,1.031
			s0.261,0.855,0.25,1.355h-2.047c0.011-0.208-0.021-0.406-0.094-0.594s-0.18-0.349-0.32-0.484s-0.31-0.243-0.508-0.324
			s-0.414-0.121-0.648-0.121c-0.344,0-0.628,0.07-0.852,0.211s-0.402,0.328-0.535,0.562s-0.227,0.503-0.281,0.805
			s-0.082,0.614-0.082,0.938v0.234c0,0.328,0.026,0.645,0.078,0.949s0.145,0.573,0.277,0.805s0.312,0.418,0.539,0.559
			S293.497,254.473,293.846,254.473z"/>
		<path fill="#010101" d="M301.877,248.762c0.281-0.411,0.624-0.734,1.027-0.969s0.855-0.352,1.355-0.352
			c0.442,0,0.849,0.066,1.219,0.199s0.688,0.34,0.953,0.621s0.473,0.642,0.621,1.082s0.223,0.97,0.223,1.59v5.117h-2.172v-5.133
			c0-0.302-0.038-0.562-0.113-0.781s-0.184-0.396-0.324-0.531s-0.31-0.235-0.508-0.301s-0.422-0.098-0.672-0.098
			c-0.364,0-0.681,0.065-0.949,0.195s-0.488,0.312-0.66,0.547v6.102h-2.172v-12h2.172V248.762z"/>
		<path fill="#010101" d="M314.588,256.051c-0.052-0.104-0.097-0.224-0.133-0.359s-0.067-0.278-0.094-0.43
			c-0.12,0.13-0.258,0.253-0.414,0.367s-0.329,0.215-0.52,0.301s-0.399,0.153-0.629,0.203s-0.477,0.074-0.742,0.074
			c-0.433,0-0.829-0.062-1.191-0.188s-0.673-0.3-0.934-0.523s-0.464-0.491-0.609-0.801s-0.219-0.647-0.219-1.012
			c0-0.891,0.332-1.579,0.996-2.066s1.655-0.73,2.973-0.73h1.211v-0.5c0-0.406-0.133-0.728-0.398-0.965s-0.648-0.355-1.148-0.355
			c-0.442,0-0.766,0.095-0.969,0.285s-0.305,0.444-0.305,0.762h-2.172c0-0.359,0.079-0.7,0.238-1.023s0.391-0.606,0.695-0.852
			s0.677-0.438,1.117-0.582s0.944-0.215,1.512-0.215c0.511,0,0.985,0.062,1.426,0.188s0.821,0.31,1.145,0.555
			s0.575,0.554,0.758,0.926s0.273,0.804,0.273,1.293v3.625c0,0.453,0.028,0.828,0.086,1.125s0.141,0.552,0.25,0.766v0.133H314.588z
			 M312.518,254.527c0.219,0,0.422-0.026,0.609-0.078s0.356-0.12,0.508-0.203s0.281-0.179,0.391-0.285s0.195-0.215,0.258-0.324
			v-1.453h-1.109c-0.339,0-0.628,0.032-0.867,0.098s-0.435,0.156-0.586,0.273s-0.263,0.258-0.336,0.422s-0.109,0.343-0.109,0.535
			c0,0.292,0.103,0.534,0.309,0.727S312.101,254.527,312.518,254.527z"/>
		<path fill="#010101" d="M320.877,247.598l0.133,1.172c0.302-0.422,0.669-0.749,1.102-0.98s0.911-0.348,1.438-0.348
			c0.427,0,0.817,0.062,1.172,0.188s0.66,0.324,0.918,0.598s0.458,0.625,0.602,1.055s0.215,0.952,0.215,1.566v5.203h-2.172v-5.172
			c0-0.333-0.038-0.608-0.113-0.824s-0.184-0.387-0.324-0.512s-0.31-0.212-0.508-0.262s-0.422-0.074-0.672-0.074
			c-0.37,0-0.685,0.074-0.945,0.223s-0.472,0.353-0.633,0.613v6.008h-2.18v-8.453H320.877z"/>
		<path fill="#010101" d="M330.479,247.598l0.133,1.172c0.302-0.422,0.669-0.749,1.102-0.98s0.911-0.348,1.438-0.348
			c0.427,0,0.817,0.062,1.172,0.188s0.66,0.324,0.918,0.598s0.458,0.625,0.602,1.055s0.215,0.952,0.215,1.566v5.203h-2.172v-5.172
			c0-0.333-0.038-0.608-0.113-0.824s-0.184-0.387-0.324-0.512s-0.31-0.212-0.508-0.262s-0.422-0.074-0.672-0.074
			c-0.37,0-0.685,0.074-0.945,0.223s-0.472,0.353-0.633,0.613v6.008h-2.18v-8.453H330.479z"/>
		<path fill="#010101" d="M342.213,256.207c-0.651,0-1.242-0.106-1.773-0.32s-0.987-0.504-1.367-0.871s-0.673-0.8-0.879-1.297
			s-0.309-1.03-0.309-1.598v-0.312c0-0.646,0.102-1.235,0.305-1.77s0.487-0.993,0.852-1.379s0.797-0.685,1.297-0.898
			s1.044-0.32,1.633-0.32c0.609,0,1.152,0.101,1.629,0.301s0.88,0.483,1.211,0.848s0.582,0.804,0.754,1.316s0.258,1.079,0.258,1.699
			v0.922h-5.734c0.042,0.286,0.126,0.548,0.254,0.785s0.29,0.441,0.488,0.613s0.425,0.305,0.68,0.398s0.534,0.141,0.836,0.141
			c0.214,0,0.426-0.021,0.637-0.062s0.413-0.103,0.605-0.184s0.372-0.181,0.539-0.301s0.312-0.261,0.438-0.422l1.086,1.172
			c-0.136,0.192-0.312,0.382-0.527,0.566s-0.472,0.349-0.766,0.492s-0.621,0.259-0.98,0.348S342.63,256.207,342.213,256.207z
			 M341.955,249.199c-0.245,0-0.469,0.043-0.672,0.129s-0.382,0.21-0.535,0.371s-0.282,0.354-0.387,0.578s-0.183,0.474-0.234,0.75
			h3.562v-0.172c-0.011-0.229-0.055-0.445-0.133-0.648s-0.19-0.379-0.336-0.527s-0.324-0.266-0.535-0.352
			S342.231,249.199,341.955,249.199z"/>
		<path fill="#010101" d="M348.166,244.051h4.727v10.234h2.422v1.766h-7.148v-1.766h2.531v-8.461h-2.531V244.051z"/>
	</g>
</g>
<g>
	<g>
		<path fill="#010101" d="M1038.986,370.546v4.63h-2.437v-12.624h4.317c0.688,0,1.31,0.1,1.864,0.299
			c0.556,0.199,1.028,0.477,1.418,0.832s0.69,0.782,0.901,1.279c0.211,0.498,0.316,1.049,0.316,1.656
			c0,0.566-0.105,1.089-0.316,1.569s-0.512,0.895-0.901,1.244s-0.862,0.623-1.418,0.819c-0.555,0.197-1.177,0.295-1.864,0.295
			H1038.986z M1038.986,368.569h1.881c0.348,0,0.647-0.052,0.902-0.156c0.254-0.104,0.467-0.246,0.637-0.425
			c0.171-0.179,0.298-0.386,0.382-0.62c0.083-0.234,0.126-0.479,0.126-0.733c0-0.294-0.043-0.569-0.126-0.823
			c-0.084-0.254-0.211-0.477-0.382-0.668c-0.17-0.19-0.383-0.341-0.637-0.451c-0.255-0.11-0.555-0.165-0.902-0.165h-1.881V368.569z"
			/>
		<path fill="#010101" d="M1051.688,375.349c-0.723,0-1.378-0.119-1.968-0.355c-0.589-0.237-1.095-0.559-1.517-0.967
			c-0.422-0.407-0.748-0.887-0.977-1.439c-0.229-0.552-0.342-1.143-0.342-1.773v-0.347c0-0.717,0.113-1.371,0.338-1.964
			c0.226-0.592,0.541-1.103,0.945-1.53s0.885-0.76,1.439-0.997s1.158-0.355,1.812-0.355c0.676,0,1.278,0.111,1.807,0.333
			c0.529,0.223,0.977,0.537,1.344,0.941c0.367,0.405,0.646,0.892,0.838,1.461c0.19,0.569,0.285,1.198,0.285,1.886v1.023h-6.363
			c0.046,0.318,0.14,0.608,0.281,0.871c0.142,0.263,0.322,0.49,0.542,0.681s0.472,0.338,0.755,0.442s0.592,0.156,0.928,0.156
			c0.236,0,0.473-0.023,0.706-0.069c0.234-0.046,0.458-0.114,0.672-0.204c0.214-0.089,0.413-0.201,0.599-0.334
			c0.185-0.133,0.347-0.289,0.485-0.468l1.205,1.301c-0.15,0.214-0.345,0.423-0.585,0.628c-0.24,0.206-0.523,0.388-0.85,0.546
			c-0.327,0.159-0.689,0.288-1.088,0.386C1052.581,375.3,1052.15,375.349,1051.688,375.349z M1051.402,367.572
			c-0.271,0-0.521,0.048-0.746,0.143s-0.424,0.233-0.594,0.412c-0.171,0.179-0.314,0.393-0.43,0.642s-0.202,0.526-0.26,0.832h3.953
			v-0.19c-0.012-0.254-0.061-0.495-0.146-0.72c-0.087-0.226-0.211-0.42-0.373-0.585c-0.162-0.165-0.359-0.295-0.594-0.39
			S1051.708,367.572,1051.402,367.572z"/>
		<path fill="#010101" d="M1062.344,375.349c-0.723,0-1.379-0.119-1.969-0.355c-0.589-0.237-1.095-0.559-1.517-0.967
			c-0.422-0.407-0.747-0.887-0.976-1.439c-0.229-0.552-0.342-1.143-0.342-1.773v-0.347c0-0.717,0.112-1.371,0.338-1.964
			c0.225-0.592,0.54-1.103,0.945-1.53c0.404-0.428,0.884-0.76,1.438-0.997c0.556-0.237,1.159-0.355,1.812-0.355
			c0.677,0,1.278,0.111,1.808,0.333c0.529,0.223,0.977,0.537,1.344,0.941c0.367,0.405,0.646,0.892,0.837,1.461
			s0.286,1.198,0.286,1.886v1.023h-6.364c0.046,0.318,0.14,0.608,0.282,0.871c0.141,0.263,0.322,0.49,0.541,0.681
			c0.221,0.191,0.472,0.338,0.755,0.442s0.593,0.156,0.928,0.156c0.237,0,0.473-0.023,0.706-0.069
			c0.234-0.046,0.459-0.114,0.672-0.204c0.215-0.089,0.414-0.201,0.6-0.334c0.184-0.133,0.346-0.289,0.484-0.468l1.205,1.301
			c-0.15,0.214-0.345,0.423-0.584,0.628c-0.24,0.206-0.523,0.388-0.851,0.546c-0.327,0.159-0.688,0.288-1.088,0.386
			S1062.807,375.349,1062.344,375.349z M1062.058,367.572c-0.271,0-0.521,0.048-0.745,0.143c-0.227,0.095-0.424,0.233-0.594,0.412
			c-0.172,0.179-0.314,0.393-0.43,0.642s-0.203,0.526-0.26,0.832h3.953v-0.19c-0.012-0.254-0.061-0.495-0.147-0.72
			c-0.087-0.226-0.211-0.42-0.372-0.585c-0.162-0.165-0.36-0.295-0.595-0.39C1062.635,367.62,1062.363,367.572,1062.058,367.572z"/>
		<path fill="#010101" d="M1075.185,365.621c0.364,0,0.7,0.024,1.011,0.074c0.309,0.049,0.559,0.103,0.75,0.16l-0.356,2.402
			c-0.317-0.075-0.644-0.131-0.976-0.169s-0.648-0.057-0.949-0.057c-0.676,0-1.218,0.13-1.625,0.39
			c-0.408,0.26-0.713,0.633-0.915,1.119v5.636h-2.411v-9.381h2.246l0.113,1.535c0.381-0.532,0.838-0.949,1.369-1.253
			C1073.974,365.773,1074.555,365.621,1075.185,365.621z"/>
		<path fill="#010101" d="M1089.655,375.176v-12.624h4.239c0.688,0,1.314,0.069,1.877,0.208c0.564,0.139,1.045,0.35,1.444,0.633
			s0.706,0.642,0.923,1.075s0.326,0.945,0.326,1.535c-0.006,0.59-0.164,1.119-0.473,1.587c-0.31,0.468-0.766,0.824-1.366,1.066
			c0.364,0.092,0.679,0.231,0.945,0.416c0.266,0.185,0.487,0.403,0.663,0.655s0.307,0.526,0.391,0.824s0.125,0.605,0.125,0.923
			c0,0.607-0.104,1.142-0.312,1.604c-0.207,0.462-0.506,0.85-0.893,1.162c-0.387,0.312-0.857,0.546-1.413,0.703
			c-0.555,0.156-1.179,0.234-1.872,0.234H1089.655z M1092.1,367.849h1.812c0.676-0.005,1.197-0.147,1.561-0.425
			c0.364-0.277,0.549-0.685,0.555-1.222c0-0.59-0.182-1.013-0.546-1.271c-0.364-0.257-0.89-0.389-1.577-0.395h-1.805V367.849z
			 M1092.1,369.609v3.598h2.168c0.665-0.005,1.172-0.169,1.521-0.49s0.525-0.741,0.525-1.262c0.006-0.578-0.15-1.029-0.469-1.353
			s-0.809-0.488-1.475-0.494H1092.1z"/>
		<path fill="#010101" d="M1106.831,370.234c0,0.792-0.063,1.542-0.19,2.25c-0.127,0.708-0.301,1.369-0.521,1.981
			s-0.476,1.172-0.768,1.678s-0.603,0.957-0.933,1.353c-0.328,0.396-0.667,0.732-1.014,1.01c-0.347,0.277-0.686,0.488-1.015,0.633
			l-0.46-1.301c0.318-0.243,0.639-0.575,0.963-0.997s0.615-0.942,0.876-1.561c0.26-0.618,0.471-1.344,0.633-2.176
			c0.161-0.833,0.243-1.783,0.243-2.853v-0.226c0-1.063-0.084-2.011-0.252-2.844s-0.381-1.561-0.642-2.185
			c-0.261-0.624-0.55-1.147-0.871-1.569c-0.321-0.422-0.638-0.754-0.95-0.997l0.46-1.292c0.329,0.145,0.668,0.355,1.015,0.633
			s0.686,0.614,1.014,1.01c0.33,0.396,0.641,0.847,0.933,1.353s0.548,1.065,0.768,1.678c0.22,0.612,0.394,1.273,0.521,1.981
			s0.19,1.458,0.19,2.25V370.234z"/>
		<path fill="#010101" d="M1130.189,371.378c-0.076,0.584-0.227,1.12-0.451,1.608c-0.227,0.489-0.52,0.908-0.881,1.257
			c-0.361,0.35-0.789,0.622-1.283,0.815c-0.494,0.194-1.045,0.291-1.651,0.291c-0.521,0-0.993-0.074-1.417-0.221
			c-0.426-0.147-0.805-0.351-1.137-0.611c-0.332-0.26-0.618-0.566-0.857-0.919c-0.24-0.353-0.439-0.737-0.599-1.153
			c-0.159-0.417-0.278-0.853-0.356-1.31c-0.077-0.457-0.119-0.919-0.125-1.387v-1.76c0.006-0.468,0.048-0.93,0.125-1.387
			c0.078-0.457,0.197-0.893,0.356-1.309s0.358-0.802,0.599-1.157c0.239-0.355,0.525-0.664,0.857-0.924
			c0.332-0.26,0.71-0.464,1.132-0.611c0.422-0.147,0.896-0.221,1.422-0.221c0.63,0,1.193,0.097,1.69,0.291
			c0.498,0.193,0.926,0.468,1.283,0.824c0.359,0.355,0.646,0.782,0.863,1.279s0.359,1.046,0.43,1.647h-1.605
			c-0.051-0.381-0.141-0.737-0.268-1.066c-0.128-0.329-0.299-0.618-0.512-0.867c-0.215-0.249-0.477-0.444-0.785-0.585
			s-0.675-0.212-1.097-0.212c-0.382,0-0.718,0.062-1.011,0.187c-0.291,0.125-0.543,0.293-0.754,0.507s-0.387,0.462-0.529,0.746
			c-0.141,0.283-0.255,0.584-0.342,0.901c-0.087,0.318-0.148,0.643-0.187,0.976s-0.056,0.655-0.056,0.967v1.777
			c0,0.312,0.018,0.634,0.056,0.967s0.1,0.659,0.187,0.98s0.199,0.623,0.338,0.906s0.315,0.533,0.529,0.75
			c0.213,0.217,0.465,0.387,0.754,0.512s0.627,0.187,1.015,0.187c0.422,0,0.788-0.066,1.097-0.2c0.309-0.133,0.57-0.319,0.785-0.559
			c0.213-0.24,0.384-0.523,0.512-0.85c0.127-0.327,0.217-0.681,0.268-1.062H1130.189z"/>
		<path fill="#010101" d="M1132.217,370.398c0-0.676,0.099-1.305,0.295-1.886c0.197-0.581,0.479-1.085,0.846-1.513
			s0.813-0.764,1.34-1.01c0.525-0.246,1.118-0.369,1.777-0.369c0.664,0,1.262,0.123,1.791,0.369c0.528,0.246,0.977,0.582,1.344,1.01
			s0.648,0.932,0.845,1.513s0.295,1.209,0.295,1.886v0.191c0,0.676-0.099,1.303-0.295,1.881s-0.478,1.081-0.845,1.509
			s-0.814,0.763-1.34,1.005c-0.526,0.243-1.119,0.364-1.777,0.364c-0.665,0-1.262-0.121-1.791-0.364
			c-0.528-0.243-0.977-0.578-1.344-1.005s-0.648-0.931-0.846-1.509c-0.196-0.578-0.295-1.205-0.295-1.881V370.398z
			 M1133.821,370.589c0,0.462,0.056,0.903,0.165,1.322c0.109,0.419,0.275,0.788,0.498,1.105s0.502,0.569,0.837,0.754
			c0.335,0.185,0.726,0.278,1.171,0.278c0.439,0,0.824-0.093,1.157-0.278c0.333-0.185,0.61-0.436,0.833-0.754
			c0.222-0.318,0.389-0.687,0.498-1.105c0.109-0.419,0.164-0.86,0.164-1.322v-0.191c0-0.457-0.056-0.895-0.168-1.313
			c-0.113-0.419-0.281-0.788-0.504-1.105s-0.5-0.571-0.832-0.759s-0.721-0.282-1.166-0.282s-0.832,0.094-1.162,0.282
			c-0.329,0.188-0.605,0.441-0.828,0.759s-0.389,0.687-0.498,1.105s-0.165,0.857-0.165,1.313V370.589z"/>
		<path fill="#010101" d="M1144.061,365.794l0.044,0.884c0.19-0.33,0.44-0.586,0.75-0.771s0.684-0.28,1.122-0.286
			c0.861,0,1.438,0.335,1.727,1.006c0.185-0.301,0.429-0.542,0.732-0.724c0.303-0.182,0.672-0.276,1.105-0.282
			c0.688,0,1.217,0.211,1.586,0.633c0.37,0.422,0.555,1.061,0.555,1.916v7.006h-1.525v-7.023c0-0.786-0.361-1.176-1.084-1.17
			c-0.19,0-0.355,0.026-0.494,0.078c-0.139,0.052-0.254,0.123-0.347,0.212c-0.093,0.089-0.165,0.193-0.217,0.312
			s-0.087,0.241-0.104,0.368v7.223h-1.525v-7.032c0-0.375-0.084-0.665-0.252-0.867c-0.168-0.202-0.434-0.3-0.797-0.294
			c-0.336,0-0.596,0.066-0.781,0.199c-0.185,0.133-0.32,0.31-0.406,0.529v7.465h-1.527v-9.381H1144.061z"/>
		<path fill="#010101" d="M1154.717,365.794l0.043,0.884c0.191-0.33,0.441-0.586,0.75-0.771c0.31-0.185,0.684-0.28,1.123-0.286
			c0.861,0,1.437,0.335,1.726,1.006c0.185-0.301,0.429-0.542,0.732-0.724s0.673-0.276,1.105-0.282c0.688,0,1.217,0.211,1.587,0.633
			c0.369,0.422,0.555,1.061,0.555,1.916v7.006h-1.525v-7.023c0-0.786-0.361-1.176-1.084-1.17c-0.191,0-0.355,0.026-0.494,0.078
			c-0.139,0.052-0.255,0.123-0.348,0.212c-0.092,0.089-0.164,0.193-0.217,0.312c-0.051,0.119-0.086,0.241-0.104,0.368v7.223h-1.525
			v-7.032c0-0.375-0.084-0.665-0.252-0.867c-0.168-0.202-0.434-0.3-0.798-0.294c-0.335,0-0.595,0.066-0.78,0.199
			c-0.186,0.133-0.32,0.31-0.407,0.529v7.465h-1.526v-9.381H1154.717z"/>
		<path fill="#010101" d="M1164.887,365.794h4.795v7.994h3.061v1.387h-7.855v-1.387h3.191v-6.598h-3.191V365.794z M1167.869,363.332
			c0-0.266,0.08-0.49,0.238-0.672c0.16-0.182,0.4-0.273,0.725-0.273c0.318,0,0.558,0.091,0.72,0.273
			c0.161,0.182,0.243,0.406,0.243,0.672c0,0.26-0.082,0.477-0.243,0.65c-0.162,0.173-0.401,0.26-0.72,0.26
			c-0.324,0-0.564-0.086-0.725-0.26C1167.949,363.809,1167.869,363.592,1167.869,363.332z"/>
		<path fill="#010101" d="M1179.089,363.523v2.271h3.572v1.24h-3.572v5.098c0,0.364,0.046,0.665,0.139,0.902
			c0.093,0.237,0.22,0.426,0.382,0.568s0.348,0.242,0.559,0.299s0.436,0.086,0.672,0.086c0.174,0,0.354-0.01,0.538-0.03
			c0.185-0.02,0.366-0.044,0.542-0.074c0.176-0.029,0.341-0.059,0.494-0.091s0.279-0.059,0.377-0.083l0.226,1.136
			c-0.133,0.081-0.295,0.152-0.485,0.212c-0.191,0.061-0.398,0.113-0.625,0.156c-0.225,0.043-0.463,0.077-0.715,0.1
			s-0.502,0.035-0.75,0.035c-0.416,0-0.805-0.059-1.166-0.178c-0.361-0.118-0.675-0.306-0.941-0.563
			c-0.266-0.257-0.475-0.59-0.628-0.997c-0.153-0.408-0.229-0.9-0.229-1.479v-5.098h-2.463v-1.24h2.463v-2.271H1179.089z"/>
		<path fill="#010101" d="M1186.684,365.794l0.044,0.884c0.19-0.33,0.44-0.586,0.75-0.771s0.684-0.28,1.122-0.286
			c0.861,0,1.438,0.335,1.727,1.006c0.185-0.301,0.429-0.542,0.732-0.724c0.303-0.182,0.672-0.276,1.105-0.282
			c0.688,0,1.217,0.211,1.586,0.633c0.37,0.422,0.555,1.061,0.555,1.916v7.006h-1.525v-7.023c0-0.786-0.361-1.176-1.084-1.17
			c-0.19,0-0.355,0.026-0.494,0.078c-0.139,0.052-0.254,0.123-0.347,0.212c-0.093,0.089-0.165,0.193-0.217,0.312
			s-0.087,0.241-0.104,0.368v7.223h-1.525v-7.032c0-0.375-0.084-0.665-0.252-0.867c-0.168-0.202-0.434-0.3-0.797-0.294
			c-0.336,0-0.596,0.066-0.781,0.199c-0.185,0.133-0.32,0.31-0.406,0.529v7.465h-1.527v-9.381H1186.684z"/>
		<path fill="#010101" d="M1200.748,375.349c-0.66,0-1.266-0.113-1.817-0.338c-0.552-0.226-1.024-0.541-1.417-0.945
			c-0.394-0.404-0.699-0.884-0.92-1.439c-0.219-0.555-0.329-1.159-0.329-1.812v-0.364c0-0.757,0.122-1.435,0.364-2.033
			c0.242-0.598,0.564-1.104,0.967-1.517c0.402-0.413,0.858-0.729,1.369-0.949c0.512-0.22,1.037-0.33,1.574-0.33
			c0.676,0,1.268,0.117,1.773,0.351s0.926,0.558,1.262,0.971c0.335,0.413,0.585,0.9,0.75,1.461c0.164,0.561,0.246,1.167,0.246,1.821
			v0.72h-6.701c0.018,0.428,0.1,0.829,0.246,1.205c0.148,0.375,0.35,0.704,0.607,0.984c0.258,0.281,0.564,0.501,0.924,0.664
			c0.357,0.162,0.754,0.243,1.188,0.243c0.572,0,1.081-0.116,1.525-0.347c0.445-0.231,0.815-0.538,1.11-0.919l0.979,0.763
			c-0.156,0.237-0.351,0.464-0.585,0.681c-0.233,0.217-0.505,0.409-0.811,0.577c-0.307,0.167-0.653,0.302-1.04,0.403
			C1201.626,375.298,1201.204,375.349,1200.748,375.349z M1200.539,366.939c-0.324,0-0.63,0.059-0.919,0.178s-0.55,0.292-0.78,0.52
			c-0.231,0.229-0.426,0.509-0.586,0.841c-0.158,0.333-0.27,0.715-0.333,1.149h5.046v-0.122c-0.018-0.312-0.076-0.621-0.178-0.928
			c-0.102-0.306-0.25-0.581-0.446-0.824s-0.444-0.439-0.741-0.589C1201.304,367.014,1200.949,366.939,1200.539,366.939z"/>
		<path fill="#010101" d="M1208.697,365.794l0.113,1.387c0.342-0.485,0.76-0.866,1.258-1.14c0.496-0.274,1.051-0.415,1.664-0.42
			c0.491,0,0.938,0.069,1.34,0.208c0.401,0.139,0.744,0.355,1.027,0.65s0.502,0.669,0.654,1.123c0.153,0.454,0.23,0.993,0.23,1.617
			v5.957h-1.604v-5.922c0-0.416-0.046-0.769-0.139-1.058s-0.229-0.523-0.411-0.703c-0.183-0.179-0.405-0.309-0.668-0.39
			c-0.264-0.081-0.565-0.121-0.906-0.121c-0.537,0-1.01,0.134-1.418,0.403c-0.407,0.269-0.732,0.623-0.975,1.062v6.728h-1.604
			v-9.381H1208.697z"/>
		<path fill="#010101" d="M1221.712,363.523v2.271h3.572v1.24h-3.572v5.098c0,0.364,0.046,0.665,0.139,0.902
			c0.093,0.237,0.22,0.426,0.382,0.568s0.348,0.242,0.559,0.299s0.436,0.086,0.672,0.086c0.174,0,0.354-0.01,0.538-0.03
			c0.185-0.02,0.366-0.044,0.542-0.074c0.176-0.029,0.341-0.059,0.494-0.091s0.279-0.059,0.377-0.083l0.226,1.136
			c-0.133,0.081-0.295,0.152-0.485,0.212c-0.191,0.061-0.398,0.113-0.625,0.156c-0.225,0.043-0.463,0.077-0.715,0.1
			s-0.502,0.035-0.75,0.035c-0.416,0-0.805-0.059-1.166-0.178c-0.361-0.118-0.675-0.306-0.941-0.563
			c-0.266-0.257-0.475-0.59-0.628-0.997c-0.153-0.408-0.229-0.9-0.229-1.479v-5.098h-2.463v-1.24h2.463v-2.271H1221.712z"/>
		<path fill="#010101" d="M1247.74,363.921h-3.902v11.254h-1.561v-11.254h-3.9v-1.37h9.363V363.921z"/>
		<path fill="#010101" d="M1253.792,367.502l2.723-4.951h1.89l-3.667,6.26l3.754,6.364h-1.872l-2.793-5.046l-2.8,5.046h-1.899
			l3.764-6.364l-3.668-6.26h1.881L1253.792,367.502z"/>
	</g>
</g>
<g enable-background="new    ">
	<path fill="none" stroke="#2C5070" stroke-width="2.1308" stroke-miterlimit="10" d="M1261.157,487.958
		c0,1.953-1.598,3.551-3.551,3.551h-220.924c-1.953,0-3.551-1.598-3.551-3.551v-96.813c0-1.953,1.598-3.553,3.551-3.553h220.924
		c1.953,0,3.551,1.6,3.551,3.553V487.958z"/>
</g>
<g>
	<rect x="1152.429" y="432.351" fill="none" width="51.778" height="17.588"/>
	<path fill="#010101" d="M1158.365,440.984h-3.062l-0.603,2.131h-2.074l3.343-10.203h1.787l3.279,10.203h-2.074L1158.365,440.984z
		 M1155.786,439.31h2.116l-1.044-3.756L1155.786,439.31z"/>
</g>
<rect x="1040.654" y="425.322" fill="none" stroke="#010101" stroke-width="0.7103" stroke-miterlimit="10" width="99.846" height="26.584"/>
<rect x="1147.41" y="425.322" fill="none" stroke="#2C5070" stroke-width="0.9839" stroke-miterlimit="10" enable-background="new    " width="106.224" height="26.584"/>
<g>
	<g>
		<path fill="#010101" d="M827.191,207.818h-5.254v5.575h-1.621V200.77h7.751v1.37h-6.13v4.318h5.254V207.818z"/>
		<path fill="#010101" d="M836.911,212.102c-0.312,0.462-0.702,0.822-1.171,1.08c-0.468,0.257-1.008,0.386-1.621,0.386
			c-0.491,0-0.936-0.077-1.335-0.229c-0.399-0.153-0.74-0.392-1.023-0.715s-0.501-0.736-0.654-1.236s-0.229-1.1-0.229-1.799v-5.575
			h1.604v5.592c0,0.509,0.041,0.931,0.121,1.266c0.082,0.335,0.203,0.603,0.365,0.802c0.161,0.2,0.359,0.34,0.594,0.42
			c0.233,0.081,0.504,0.122,0.811,0.122c0.652,0,1.18-0.133,1.582-0.399c0.402-0.266,0.701-0.624,0.897-1.075v-6.728h1.612v9.381
			h-1.457L836.911,212.102z"/>
		<path fill="#010101" d="M842.92,204.012l0.112,1.387c0.341-0.485,0.761-0.866,1.257-1.14c0.498-0.274,1.053-0.415,1.665-0.42
			c0.491,0,0.938,0.069,1.34,0.208s0.744,0.355,1.027,0.65s0.501,0.669,0.655,1.123c0.152,0.454,0.229,0.993,0.229,1.617v5.957
			h-1.604v-5.922c0-0.416-0.047-0.769-0.139-1.058c-0.093-0.289-0.23-0.523-0.412-0.703c-0.182-0.179-0.404-0.309-0.668-0.39
			c-0.263-0.081-0.564-0.121-0.905-0.121c-0.538,0-1.011,0.134-1.418,0.403c-0.407,0.269-0.732,0.623-0.976,1.062v6.728h-1.604
			v-9.381H842.92z"/>
		<path fill="#010101" d="M851.832,208.625c0-0.7,0.089-1.343,0.266-1.929c0.176-0.587,0.428-1.091,0.754-1.513
			s0.721-0.751,1.184-0.988c0.462-0.237,0.979-0.355,1.552-0.355c0.561,0,1.05,0.094,1.47,0.282
			c0.419,0.188,0.781,0.461,1.088,0.819v-4.864h1.604v13.318h-1.473l-0.07-0.988c-0.312,0.381-0.685,0.67-1.118,0.867
			c-0.434,0.197-0.939,0.295-1.518,0.295c-0.566,0-1.079-0.121-1.538-0.364c-0.461-0.243-0.852-0.578-1.176-1.005
			s-0.575-0.932-0.754-1.513c-0.18-0.581-0.27-1.207-0.27-1.877V208.625z M853.437,208.807c0,0.457,0.05,0.89,0.147,1.3
			c0.098,0.411,0.25,0.771,0.455,1.084c0.205,0.312,0.467,0.559,0.785,0.741c0.317,0.182,0.699,0.273,1.145,0.273
			c0.271,0,0.518-0.032,0.736-0.095c0.22-0.063,0.42-0.155,0.599-0.273c0.179-0.119,0.338-0.26,0.477-0.425
			c0.14-0.165,0.261-0.349,0.364-0.551v-4.353c-0.208-0.381-0.488-0.695-0.841-0.941c-0.353-0.246-0.792-0.368-1.317-0.368
			c-0.451,0-0.838,0.092-1.158,0.277s-0.584,0.435-0.789,0.75s-0.357,0.679-0.455,1.092c-0.098,0.414-0.147,0.849-0.147,1.305
			V208.807z"/>
		<path fill="#010101" d="M863.043,204.012h4.795v7.994h3.061v1.387h-7.855v-1.387h3.191v-6.598h-3.191V204.012z M866.025,201.55
			c0-0.266,0.08-0.49,0.238-0.672c0.16-0.182,0.4-0.273,0.725-0.273c0.318,0,0.558,0.091,0.72,0.273
			c0.161,0.182,0.243,0.406,0.243,0.672c0,0.26-0.082,0.477-0.243,0.65c-0.162,0.173-0.401,0.26-0.72,0.26
			c-0.324,0-0.564-0.086-0.725-0.26C866.105,202.027,866.025,201.81,866.025,201.55z"/>
		<path fill="#010101" d="M874.887,204.012l0.113,1.387c0.341-0.485,0.76-0.866,1.257-1.14s1.052-0.415,1.665-0.42
			c0.49,0,0.938,0.069,1.34,0.208c0.4,0.139,0.744,0.355,1.027,0.65s0.501,0.669,0.654,1.123c0.152,0.454,0.229,0.993,0.229,1.617
			v5.957h-1.604v-5.922c0-0.416-0.046-0.769-0.139-1.058c-0.092-0.289-0.229-0.523-0.411-0.703c-0.183-0.179-0.405-0.309-0.668-0.39
			c-0.263-0.081-0.565-0.121-0.905-0.121c-0.538,0-1.011,0.134-1.418,0.403c-0.408,0.269-0.732,0.623-0.976,1.062v6.728h-1.604
			v-9.381H874.887z"/>
		<path fill="#010101" d="M883.809,208.625c0-0.7,0.085-1.343,0.256-1.929c0.17-0.587,0.418-1.091,0.741-1.513
			s0.717-0.751,1.179-0.988c0.463-0.237,0.986-0.355,1.57-0.355c0.578,0,1.084,0.103,1.521,0.308
			c0.436,0.206,0.807,0.501,1.113,0.889l0.078-1.023h1.457v9.182c0,0.618-0.097,1.167-0.291,1.647
			c-0.193,0.48-0.465,0.887-0.814,1.223s-0.768,0.59-1.253,0.763s-1.022,0.26-1.612,0.26c-0.243,0-0.521-0.027-0.832-0.082
			c-0.312-0.055-0.629-0.145-0.95-0.269c-0.321-0.124-0.63-0.291-0.928-0.499s-0.554-0.465-0.767-0.771l0.832-0.962
			c0.196,0.237,0.398,0.438,0.606,0.603s0.419,0.296,0.634,0.395c0.213,0.098,0.428,0.169,0.641,0.212
			c0.215,0.043,0.428,0.065,0.643,0.065c0.381,0,0.725-0.055,1.031-0.165s0.568-0.271,0.785-0.481s0.383-0.472,0.498-0.785
			c0.115-0.312,0.174-0.67,0.174-1.075v-0.806c-0.312,0.358-0.682,0.631-1.105,0.819c-0.426,0.188-0.918,0.282-1.479,0.282
			c-0.572,0-1.09-0.121-1.553-0.364c-0.462-0.243-0.854-0.578-1.174-1.005c-0.321-0.428-0.568-0.932-0.742-1.513
			c-0.173-0.581-0.26-1.207-0.26-1.877V208.625z M885.412,208.807c0,0.457,0.049,0.89,0.144,1.3c0.095,0.411,0.245,0.771,0.45,1.084
			c0.205,0.312,0.467,0.559,0.785,0.741s0.699,0.273,1.145,0.273c0.277,0,0.527-0.033,0.75-0.1s0.422-0.16,0.598-0.282
			c0.177-0.122,0.334-0.266,0.473-0.434c0.139-0.167,0.261-0.353,0.365-0.555v-4.301c-0.104-0.196-0.227-0.375-0.365-0.538
			c-0.139-0.162-0.297-0.302-0.477-0.42c-0.179-0.118-0.379-0.211-0.598-0.277c-0.221-0.066-0.463-0.1-0.729-0.1
			c-0.451,0-0.837,0.092-1.158,0.277c-0.32,0.185-0.584,0.435-0.789,0.75s-0.355,0.679-0.45,1.092
			c-0.095,0.414-0.144,0.849-0.144,1.305V208.807z"/>
		<path fill="#010101" d="M913.93,202.139h-3.902v11.254h-1.561v-11.254h-3.901v-1.37h9.364V202.139z"/>
		<path fill="#010101" d="M919.98,205.72l2.723-4.951h1.891l-3.668,6.26l3.754,6.364h-1.872l-2.792-5.046l-2.801,5.046h-1.898
			l3.763-6.364l-3.667-6.26h1.881L919.98,205.72z"/>
	</g>
</g>
<g>
</g>
<g>
</g>
<g>
</g>
<g>
</g>
<g>
</g>
<g>
</g>
<g>
</g>
<g>
</g>
</svg>
