<?xml version="1.0" encoding="utf-8"?>
<!-- Generator: Adobe Illustrator 16.0.4, SVG Export Plug-In . SVG Version: 6.00 Build 0)  -->
<!DOCTYPE svg PUBLIC "-//W3C//DTD SVG 1.1//EN" "http://www.w3.org/Graphics/SVG/1.1/DTD/svg11.dtd">
<svg version="1.1" id="Layer_1" xmlns="http://www.w3.org/2000/svg" xmlns:xlink="http://www.w3.org/1999/xlink" x="0px" y="0px"
	 width="1366px" height="768px" viewBox="0 0 1366 768" enable-background="new 0 0 1366 768" xml:space="preserve">
<g>
	<g>
		<circle fill="#2D4E6E" cx="207.929" cy="324.957" r="9.929"/>
		<g>
			<rect x="194.929" y="319.64" fill="none" width="26" height="11.746"/>
			<g enable-background="new    ">
				<path fill="#FFFFFF" d="M211.415,329.602h-6.75v-1.213l2.568-2.581c0.758-0.777,1.261-1.327,1.509-1.652
					c0.248-0.324,0.428-0.63,0.542-0.916c0.113-0.286,0.17-0.593,0.17-0.92c0-0.449-0.135-0.804-0.405-1.062
					s-0.644-0.389-1.121-0.389c-0.381,0-0.75,0.07-1.107,0.212c-0.356,0.141-0.769,0.395-1.236,0.763l-0.865-1.056
					c0.554-0.468,1.092-0.8,1.615-0.995c0.522-0.195,1.079-0.293,1.669-0.293c0.926,0,1.669,0.242,2.228,0.726
					s0.838,1.135,0.838,1.952c0,0.449-0.081,0.876-0.242,1.28c-0.161,0.404-0.409,0.821-0.742,1.25
					c-0.334,0.429-0.889,1.01-1.666,1.74l-1.73,1.676v0.068h4.728V329.602z"/>
			</g>
		</g>
	</g>
	<g enable-background="new    ">
		<g>
			<path fill="none" stroke="#97B2C3" stroke-miterlimit="10" d="M139.047,312.139c22.655-8.926,44.512-4.896,58.953,4.695"/>
			<g>
				<polygon fill="#97B2C3" points="132.601,315.027 143.346,314.783 139.558,311.998 140.101,307.329 				"/>
			</g>
		</g>
	</g>
	
		<line fill="none" stroke="#000000" stroke-width="1.4487" stroke-linecap="round" stroke-miterlimit="10" x1="361.243" y1="402.349" x2="130.002" y2="316.989"/>
</g>
</svg>
