<?xml version="1.0" encoding="utf-8"?>
<!-- Generator: Adobe Illustrator 16.0.4, SVG Export Plug-In . SVG Version: 6.00 Build 0)  -->
<!DOCTYPE svg PUBLIC "-//W3C//DTD SVG 1.1//EN" "http://www.w3.org/Graphics/SVG/1.1/DTD/svg11.dtd">
<svg version="1.1" id="Layer_1" xmlns="http://www.w3.org/2000/svg" xmlns:xlink="http://www.w3.org/1999/xlink" x="0px" y="0px"
	 width="1366px" height="768px" viewBox="0 0 1366 768" enable-background="new 0 0 1366 768" xml:space="preserve">
<rect fill="#FFFFFF" width="1366" height="768"/>
<line opacity="0.22" fill="none" stroke="#000000" stroke-width="1.4487" stroke-miterlimit="10" x1="148.697" y1="402.112" x2="578.551" y2="402.112"/>
<line opacity="0.15" fill="none" stroke="#000000" stroke-width="1.4487" stroke-miterlimit="10" x1="148.697" y1="205.5" x2="578.551" y2="205.5"/>
<line opacity="0.15" fill="none" stroke="#000000" stroke-width="1.4487" stroke-miterlimit="10" x1="148.697" y1="599.626" x2="578.551" y2="599.626"/>
<line opacity="0.15" fill="none" stroke="#000000" stroke-width="1.4487" stroke-miterlimit="10" x1="148.697" y1="560.196" x2="578.551" y2="560.196"/>
<line opacity="0.15" fill="none" stroke="#000000" stroke-width="1.4487" stroke-miterlimit="10" x1="148.697" y1="520.766" x2="578.551" y2="520.766"/>
<line opacity="0.15" fill="none" stroke="#000000" stroke-width="1.4487" stroke-miterlimit="10" x1="148.697" y1="481.336" x2="578.551" y2="481.336"/>
<line opacity="0.15" fill="none" stroke="#000000" stroke-width="1.4487" stroke-miterlimit="10" x1="148.697" y1="441.905" x2="578.551" y2="441.905"/>
<line opacity="0.15" fill="none" stroke="#000000" stroke-width="1.4487" stroke-miterlimit="10" x1="148.697" y1="363.221" x2="578.551" y2="363.221"/>
<line opacity="0.15" fill="none" stroke="#000000" stroke-width="1.4487" stroke-miterlimit="10" x1="148.697" y1="323.79" x2="578.551" y2="323.79"/>
<line opacity="0.15" fill="none" stroke="#000000" stroke-width="1.4487" stroke-miterlimit="10" x1="148.697" y1="284.36" x2="578.551" y2="284.36"/>
<line opacity="0.15" fill="none" stroke="#000000" stroke-width="1.4487" stroke-miterlimit="10" x1="148.697" y1="244.93" x2="578.551" y2="244.93"/>
<line opacity="0.22" fill="none" stroke="#000000" stroke-width="1.4487" stroke-miterlimit="10" x1="309.105" y1="617.401" x2="309.105" y2="187.548"/>
<line opacity="0.15" fill="none" stroke="#000000" stroke-width="1.4487" stroke-miterlimit="10" x1="184.281" y1="617.401" x2="184.281" y2="187.548"/>
<line opacity="0.15" fill="none" stroke="#000000" stroke-width="1.4487" stroke-miterlimit="10" x1="246.693" y1="617.401" x2="246.693" y2="187.548"/>
<line opacity="0.15" fill="none" stroke="#000000" stroke-width="1.4487" stroke-miterlimit="10" x1="371.517" y1="617.401" x2="371.517" y2="187.548"/>
<line opacity="0.15" fill="none" stroke="#000000" stroke-width="1.4487" stroke-miterlimit="10" x1="433.929" y1="617.401" x2="433.929" y2="187.548"/>
<line opacity="0.15" fill="none" stroke="#000000" stroke-width="1.4487" stroke-miterlimit="10" x1="496.341" y1="617.401" x2="496.341" y2="187.548"/>
<line opacity="0.15" fill="none" stroke="#000000" stroke-width="1.4487" stroke-miterlimit="10" x1="558.753" y1="617.401" x2="558.753" y2="187.548"/>
<g opacity="0.44">
	<rect x="294.619" y="637.88" fill="none" width="28.973" height="20.279"/>
	<path d="M303.455,644.76c0.032-0.676,0.112-1.336,0.241-1.979s0.314-1.256,0.556-1.835c0.241-0.58,0.571-1.087,0.99-1.521
		c0.418-0.435,0.945-0.78,1.582-1.038c0.636-0.258,1.396-0.387,2.282-0.387c0.885,0,1.646,0.129,2.282,0.387
		c0.636,0.258,1.163,0.604,1.582,1.038c0.418,0.435,0.749,0.941,0.99,1.521c0.242,0.579,0.426,1.191,0.555,1.835
		s0.209,1.304,0.242,1.979s0.048,1.328,0.048,1.956s-0.016,1.279-0.048,1.956c-0.032,0.676-0.113,1.336-0.242,1.979
		s-0.313,1.252-0.555,1.823c-0.241,0.571-0.571,1.074-0.99,1.509c-0.419,0.435-0.942,0.776-1.569,1.026
		c-0.628,0.249-1.393,0.374-2.294,0.374c-0.886,0-1.646-0.125-2.282-0.374c-0.636-0.25-1.163-0.592-1.582-1.026
		c-0.419-0.435-0.749-0.938-0.99-1.509c-0.242-0.571-0.427-1.18-0.556-1.823s-0.209-1.304-0.241-1.979
		c-0.033-0.677-0.048-1.328-0.048-1.956S303.422,645.436,303.455,644.76z M305.64,648.853c0.04,0.797,0.169,1.545,0.386,2.245
		s0.567,1.292,1.05,1.775c0.483,0.482,1.159,0.724,2.028,0.724s1.545-0.241,2.028-0.724c0.483-0.483,0.833-1.075,1.05-1.775
		s0.346-1.448,0.386-2.245c0.04-0.797,0.06-1.517,0.06-2.161c0-0.418-0.004-0.881-0.012-1.389c-0.008-0.507-0.048-1.014-0.121-1.521
		c-0.072-0.507-0.177-1.002-0.313-1.485c-0.137-0.482-0.338-0.905-0.604-1.268s-0.6-0.655-1.002-0.881s-0.893-0.338-1.473-0.338
		s-1.071,0.112-1.473,0.338s-0.736,0.519-1.002,0.881s-0.467,0.785-0.604,1.268c-0.137,0.483-0.241,0.979-0.314,1.485
		c-0.072,0.507-0.113,1.014-0.121,1.521c-0.008,0.508-0.012,0.971-0.012,1.389C305.58,647.336,305.6,648.056,305.64,648.853z"/>
</g>
<g opacity="0.44">
	<rect x="232.207" y="637.88" fill="none" width="28.973" height="20.279"/>
	<path d="M243.469,647.44v1.932h-6.978v-1.932H243.469z"/>
	<path d="M251.22,655.118v-12.266h-4.443v-1.642c0.58,0,1.143-0.045,1.69-0.133c0.547-0.089,1.042-0.254,1.485-0.495
		c0.442-0.241,0.816-0.571,1.123-0.99c0.306-0.418,0.515-0.949,0.628-1.594h1.569v17.119H251.22z"/>
</g>
<g opacity="0.44">
	<rect x="169.794" y="637.88" fill="none" width="28.973" height="20.279"/>
	<path d="M181.058,647.44v1.932h-6.978v-1.932H181.058z"/>
	<path d="M183.593,641.646c0.225-0.74,0.575-1.38,1.05-1.92c0.475-0.539,1.066-0.962,1.774-1.268s1.513-0.459,2.415-0.459
		c0.74,0,1.437,0.109,2.089,0.326c0.652,0.218,1.219,0.531,1.702,0.941c0.483,0.411,0.865,0.922,1.147,1.533
		c0.281,0.612,0.422,1.32,0.422,2.125c0,0.757-0.117,1.425-0.35,2.004c-0.233,0.58-0.543,1.099-0.93,1.558s-0.829,0.873-1.328,1.243
		c-0.499,0.371-1.014,0.725-1.545,1.062c-0.531,0.322-1.062,0.64-1.594,0.954c-0.531,0.313-1.018,0.647-1.461,1.002
		s-0.821,0.736-1.135,1.146c-0.314,0.411-0.519,0.882-0.616,1.413h8.789v1.811h-11.179c0.08-1.014,0.261-1.879,0.543-2.596
		c0.282-0.716,0.64-1.34,1.075-1.871s0.925-0.998,1.473-1.4s1.119-0.78,1.714-1.135c0.725-0.45,1.36-0.865,1.908-1.243
		c0.547-0.379,1.002-0.761,1.364-1.147c0.362-0.386,0.635-0.805,0.821-1.256c0.185-0.45,0.277-0.974,0.277-1.569
		c0-0.467-0.088-0.889-0.265-1.268c-0.178-0.378-0.415-0.704-0.712-0.978c-0.298-0.273-0.648-0.483-1.05-0.628
		c-0.403-0.145-0.83-0.217-1.28-0.217c-0.596,0-1.107,0.124-1.533,0.374c-0.427,0.25-0.777,0.575-1.05,0.978
		c-0.274,0.402-0.471,0.857-0.592,1.364c-0.121,0.507-0.173,1.019-0.157,1.533h-2.052
		C183.279,643.19,183.367,642.386,183.593,641.646z"/>
</g>
<g opacity="0.44">
	<rect x="87.032" y="589.359" fill="none" width="52.973" height="20.281"/>
	<path d="M125.373,598.921v1.932h-6.978v-1.932H125.373z"/>
	<path d="M131.023,591.58l-0.917,4.926l0.048,0.049c0.37-0.419,0.849-0.729,1.437-0.93c0.587-0.201,1.171-0.302,1.75-0.302
		c0.756,0,1.473,0.12,2.149,0.361c0.676,0.242,1.263,0.608,1.763,1.099c0.499,0.491,0.893,1.104,1.183,1.836
		c0.29,0.732,0.435,1.589,0.435,2.571c0,0.724-0.125,1.429-0.375,2.112c-0.25,0.685-0.624,1.292-1.123,1.823
		c-0.499,0.531-1.123,0.953-1.872,1.268c-0.748,0.313-1.622,0.471-2.62,0.471c-0.74,0-1.437-0.108-2.088-0.326
		c-0.652-0.217-1.228-0.531-1.727-0.941s-0.893-0.921-1.183-1.533c-0.29-0.611-0.443-1.304-0.458-2.076h2.052
		c0.032,0.435,0.141,0.841,0.326,1.219c0.185,0.379,0.435,0.709,0.749,0.99c0.314,0.281,0.684,0.499,1.111,0.651
		c0.426,0.153,0.897,0.229,1.413,0.229c0.483,0,0.945-0.084,1.388-0.253c0.442-0.169,0.829-0.423,1.159-0.761
		c0.33-0.338,0.591-0.761,0.785-1.268c0.193-0.507,0.29-1.099,0.29-1.774c0-0.563-0.093-1.083-0.277-1.558
		c-0.186-0.475-0.447-0.885-0.785-1.231c-0.338-0.346-0.745-0.616-1.219-0.809c-0.475-0.193-1.002-0.29-1.582-0.29
		c-0.676,0-1.276,0.149-1.799,0.446c-0.523,0.299-0.986,0.688-1.388,1.172l-1.763-0.097l1.594-8.886h8.451v1.811H131.023z"/>
</g>
<g opacity="0.44">
	<rect x="87.032" y="431.765" fill="none" width="52.973" height="20.281"/>
	<path d="M125.373,441.326v1.932h-6.978v-1.932H125.373z"/>
	<path d="M133.124,449.004v-12.266h-4.443v-1.642c0.58,0,1.143-0.045,1.69-0.133c0.547-0.089,1.042-0.254,1.485-0.495
		c0.442-0.241,0.816-0.571,1.123-0.99c0.306-0.418,0.515-0.949,0.628-1.594h1.569v17.119H133.124z"/>
</g>
<g opacity="0.44">
	<rect x="87.032" y="351.966" fill="none" width="52.973" height="20.281"/>
	<path d="M133.124,369.205v-12.266h-4.443v-1.642c0.58,0,1.143-0.045,1.69-0.133c0.547-0.089,1.042-0.254,1.485-0.495
		c0.442-0.241,0.816-0.571,1.123-0.99c0.306-0.418,0.515-0.949,0.628-1.594h1.569v17.119H133.124z"/>
</g>
<g opacity="0.44">
	<rect x="87.032" y="313.649" fill="none" width="52.973" height="20.281"/>
	<path d="M127.908,317.416c0.225-0.74,0.575-1.38,1.05-1.92c0.475-0.539,1.066-0.962,1.774-1.268s1.513-0.459,2.415-0.459
		c0.74,0,1.437,0.109,2.089,0.326c0.652,0.218,1.219,0.531,1.702,0.941c0.483,0.411,0.865,0.922,1.147,1.533
		c0.281,0.612,0.422,1.32,0.422,2.125c0,0.757-0.117,1.425-0.35,2.004c-0.233,0.58-0.543,1.099-0.93,1.558s-0.829,0.873-1.328,1.243
		c-0.499,0.371-1.014,0.725-1.545,1.062c-0.531,0.322-1.062,0.64-1.594,0.954c-0.531,0.313-1.018,0.647-1.461,1.002
		s-0.821,0.736-1.135,1.146c-0.314,0.411-0.519,0.882-0.616,1.413h8.789v1.811H127.16c0.08-1.014,0.261-1.879,0.543-2.596
		c0.282-0.716,0.64-1.34,1.075-1.871s0.925-0.998,1.473-1.4s1.119-0.78,1.714-1.135c0.725-0.45,1.36-0.865,1.908-1.243
		c0.547-0.379,1.002-0.761,1.364-1.147c0.362-0.386,0.635-0.805,0.821-1.256c0.185-0.45,0.277-0.974,0.277-1.569
		c0-0.467-0.088-0.889-0.265-1.268c-0.178-0.378-0.415-0.704-0.712-0.978c-0.298-0.273-0.648-0.483-1.05-0.628
		c-0.403-0.145-0.83-0.217-1.28-0.217c-0.596,0-1.107,0.124-1.533,0.374c-0.427,0.25-0.777,0.575-1.05,0.978
		c-0.274,0.402-0.471,0.857-0.592,1.364c-0.121,0.507-0.173,1.019-0.157,1.533h-2.052
		C127.594,318.961,127.683,318.156,127.908,317.416z"/>
</g>
<g opacity="0.44">
	<rect x="87.032" y="274.22" fill="none" width="52.973" height="20.281"/>
	<path d="M132.061,281.704c0.081,0,0.161,0,0.241,0h0.435c0.435,0,0.849-0.061,1.243-0.181c0.395-0.121,0.74-0.298,1.038-0.531
		s0.535-0.527,0.712-0.882c0.177-0.354,0.266-0.756,0.266-1.207c0-0.917-0.29-1.605-0.869-2.064s-1.304-0.688-2.173-0.688
		c-0.548,0-1.026,0.101-1.437,0.302c-0.41,0.201-0.749,0.471-1.014,0.809c-0.265,0.338-0.463,0.732-0.591,1.183
		c-0.129,0.451-0.193,0.926-0.193,1.425h-2.052c0.032-0.82,0.165-1.569,0.398-2.245s0.567-1.256,1.002-1.738
		c0.435-0.483,0.978-0.861,1.63-1.135c0.652-0.274,1.404-0.411,2.258-0.411c0.74,0,1.428,0.093,2.064,0.278
		c0.636,0.185,1.187,0.463,1.654,0.833c0.467,0.37,0.833,0.845,1.099,1.424c0.266,0.58,0.398,1.265,0.398,2.053
		c0,0.772-0.226,1.457-0.676,2.053s-1.014,1.046-1.69,1.352v0.049c1.046,0.226,1.823,0.716,2.33,1.473
		c0.507,0.757,0.761,1.65,0.761,2.68c0,0.854-0.157,1.605-0.471,2.258c-0.314,0.651-0.736,1.195-1.268,1.63
		s-1.155,0.761-1.872,0.978c-0.716,0.218-1.477,0.326-2.282,0.326c-0.869,0-1.658-0.121-2.366-0.362s-1.312-0.6-1.811-1.074
		c-0.499-0.475-0.881-1.059-1.147-1.751c-0.266-0.691-0.391-1.48-0.375-2.366h2.053c0.032,1.111,0.354,2.017,0.966,2.717
		c0.611,0.7,1.505,1.05,2.68,1.05c0.499,0,0.974-0.076,1.425-0.229c0.451-0.152,0.845-0.37,1.183-0.651s0.607-0.628,0.809-1.038
		c0.201-0.411,0.302-0.873,0.302-1.389c0-0.531-0.097-1.002-0.29-1.412c-0.193-0.411-0.451-0.757-0.772-1.038
		c-0.322-0.282-0.705-0.491-1.147-0.628c-0.443-0.137-0.922-0.205-1.437-0.205c-0.435,0-0.845,0.023-1.231,0.072v-1.738
		C131.924,281.696,131.997,281.704,132.061,281.704z"/>
</g>
<g opacity="0.44">
	<rect x="87.032" y="234.789" fill="none" width="52.973" height="20.281"/>
	<path d="M139.015,246.209v1.812h-2.318v4.008h-1.932v-4.008h-7.509v-1.98l7.799-11.131h1.642v11.3H139.015z M134.765,237.831
		h-0.048l-5.698,8.378h5.747V237.831z"/>
</g>
<g opacity="0.44">
	<rect x="87.032" y="471.163" fill="none" width="52.973" height="20.281"/>
	<path d="M125.373,480.725v1.932h-6.978v-1.932H125.373z"/>
	<path d="M127.908,474.93c0.225-0.74,0.575-1.38,1.05-1.92c0.475-0.539,1.066-0.962,1.774-1.268s1.513-0.459,2.415-0.459
		c0.74,0,1.437,0.109,2.089,0.326c0.652,0.218,1.219,0.531,1.702,0.941c0.483,0.411,0.865,0.922,1.147,1.533
		c0.281,0.612,0.422,1.32,0.422,2.125c0,0.757-0.117,1.425-0.35,2.004c-0.233,0.58-0.543,1.099-0.93,1.558s-0.829,0.873-1.328,1.243
		c-0.499,0.371-1.014,0.725-1.545,1.062c-0.531,0.322-1.062,0.64-1.594,0.954c-0.531,0.313-1.018,0.647-1.461,1.002
		s-0.821,0.736-1.135,1.146c-0.314,0.411-0.519,0.882-0.616,1.413h8.789v1.811H127.16c0.08-1.014,0.261-1.879,0.543-2.596
		c0.282-0.716,0.64-1.34,1.075-1.871s0.925-0.998,1.473-1.4s1.119-0.78,1.714-1.135c0.725-0.45,1.36-0.865,1.908-1.243
		c0.547-0.379,1.002-0.761,1.364-1.147c0.362-0.386,0.635-0.805,0.821-1.256c0.185-0.45,0.277-0.974,0.277-1.569
		c0-0.467-0.088-0.889-0.265-1.268c-0.178-0.378-0.415-0.704-0.712-0.978c-0.298-0.273-0.648-0.483-1.05-0.628
		c-0.403-0.145-0.83-0.217-1.28-0.217c-0.596,0-1.107,0.124-1.533,0.374c-0.427,0.25-0.777,0.575-1.05,0.978
		c-0.274,0.402-0.471,0.857-0.592,1.364c-0.121,0.507-0.173,1.019-0.157,1.533h-2.052
		C127.594,476.475,127.683,475.67,127.908,474.93z"/>
</g>
<g opacity="0.44">
	<rect x="87.032" y="510.562" fill="none" width="52.973" height="20.281"/>
	<path d="M125.373,520.124v1.932h-6.978v-1.932H125.373z"/>
	<path d="M132.061,518.047c0.081,0,0.161,0,0.241,0h0.435c0.435,0,0.849-0.061,1.243-0.181c0.395-0.121,0.74-0.298,1.038-0.531
		s0.535-0.527,0.712-0.882c0.177-0.354,0.266-0.756,0.266-1.207c0-0.917-0.29-1.605-0.869-2.064s-1.304-0.688-2.173-0.688
		c-0.548,0-1.026,0.101-1.437,0.302c-0.41,0.201-0.749,0.471-1.014,0.809c-0.265,0.338-0.463,0.732-0.591,1.183
		c-0.129,0.451-0.193,0.926-0.193,1.425h-2.052c0.032-0.82,0.165-1.569,0.398-2.245s0.567-1.256,1.002-1.738
		c0.435-0.483,0.978-0.861,1.63-1.135c0.652-0.274,1.404-0.411,2.258-0.411c0.74,0,1.428,0.093,2.064,0.278
		c0.636,0.185,1.187,0.463,1.654,0.833c0.467,0.37,0.833,0.845,1.099,1.424c0.266,0.58,0.398,1.265,0.398,2.053
		c0,0.772-0.226,1.457-0.676,2.053s-1.014,1.046-1.69,1.352v0.049c1.046,0.226,1.823,0.716,2.33,1.473
		c0.507,0.757,0.761,1.65,0.761,2.68c0,0.854-0.157,1.605-0.471,2.258c-0.314,0.651-0.736,1.195-1.268,1.63
		s-1.155,0.761-1.872,0.978c-0.716,0.218-1.477,0.326-2.282,0.326c-0.869,0-1.658-0.121-2.366-0.362s-1.312-0.6-1.811-1.074
		c-0.499-0.475-0.881-1.059-1.147-1.751c-0.266-0.691-0.391-1.48-0.375-2.366h2.053c0.032,1.111,0.354,2.017,0.966,2.717
		c0.611,0.7,1.505,1.05,2.68,1.05c0.499,0,0.974-0.076,1.425-0.229c0.451-0.152,0.845-0.37,1.183-0.651s0.607-0.628,0.809-1.038
		c0.201-0.411,0.302-0.873,0.302-1.389c0-0.531-0.097-1.002-0.29-1.412c-0.193-0.411-0.451-0.757-0.772-1.038
		c-0.322-0.282-0.705-0.491-1.147-0.628c-0.443-0.137-0.922-0.205-1.437-0.205c-0.435,0-0.845,0.023-1.231,0.072v-1.738
		C131.924,518.039,131.997,518.047,132.061,518.047z"/>
</g>
<g opacity="0.44">
	<rect x="87.032" y="549.961" fill="none" width="52.973" height="20.281"/>
	<path d="M125.373,559.522v1.932h-6.978v-1.932H125.373z"/>
	<path d="M139.015,561.381v1.812h-2.318v4.008h-1.932v-4.008h-7.509v-1.98l7.799-11.131h1.642v11.3H139.015z M134.765,553.003
		h-0.048l-5.698,8.378h5.747V553.003z"/>
</g>
<g opacity="0.44">
	<rect x="111.032" y="392.573" fill="none" width="28.973" height="20.279"/>
	<path d="M125.373,402.134v1.932h-6.978v-1.932H125.373z"/>
	<path d="M127.643,399.453c0.032-0.676,0.112-1.336,0.241-1.979s0.314-1.255,0.556-1.835c0.241-0.579,0.571-1.086,0.99-1.521
		c0.418-0.434,0.945-0.78,1.582-1.037c0.636-0.258,1.396-0.387,2.282-0.387c0.885,0,1.646,0.129,2.282,0.387
		c0.636,0.257,1.163,0.604,1.582,1.037c0.418,0.436,0.749,0.942,0.99,1.521c0.242,0.58,0.426,1.191,0.555,1.835
		s0.209,1.304,0.242,1.979c0.032,0.677,0.048,1.328,0.048,1.957c0,0.627-0.016,1.279-0.048,1.955s-0.113,1.336-0.242,1.98
		c-0.129,0.644-0.313,1.252-0.555,1.822c-0.241,0.572-0.571,1.074-0.99,1.51c-0.419,0.434-0.942,0.776-1.569,1.025
		c-0.628,0.25-1.393,0.375-2.294,0.375c-0.886,0-1.646-0.125-2.282-0.375c-0.636-0.249-1.163-0.592-1.582-1.025
		c-0.419-0.436-0.749-0.938-0.99-1.51c-0.242-0.57-0.427-1.179-0.556-1.822c-0.129-0.645-0.209-1.305-0.241-1.98
		c-0.033-0.676-0.048-1.328-0.048-1.955C127.594,400.781,127.61,400.13,127.643,399.453z M129.828,403.547
		c0.04,0.797,0.169,1.545,0.386,2.245s0.567,1.292,1.05,1.774s1.159,0.725,2.028,0.725s1.545-0.242,2.028-0.725
		s0.833-1.074,1.05-1.774s0.346-1.448,0.386-2.245c0.04-0.797,0.06-1.518,0.06-2.162c0-0.418-0.004-0.881-0.012-1.388
		c-0.008-0.507-0.048-1.015-0.121-1.521c-0.072-0.508-0.177-1.003-0.313-1.486c-0.137-0.482-0.338-0.904-0.604-1.268
		c-0.266-0.361-0.6-0.654-1.002-0.881c-0.402-0.225-0.893-0.338-1.473-0.338s-1.071,0.113-1.473,0.338
		c-0.402,0.227-0.736,0.52-1.002,0.881c-0.266,0.363-0.467,0.785-0.604,1.268c-0.137,0.483-0.241,0.979-0.314,1.486
		c-0.072,0.506-0.113,1.014-0.121,1.521c-0.008,0.507-0.012,0.97-0.012,1.388C129.767,402.029,129.787,402.75,129.828,403.547z"/>
</g>
<g opacity="0.44">
	<rect x="111.032" y="195.36" fill="none" width="28.973" height="20.28"/>
	<path d="M131.023,197.582l-0.917,4.925l0.048,0.048c0.37-0.418,0.849-0.728,1.437-0.93c0.587-0.201,1.171-0.302,1.75-0.302
		c0.756,0,1.473,0.121,2.149,0.362c0.676,0.241,1.263,0.608,1.763,1.099c0.499,0.491,0.893,1.103,1.183,1.835
		c0.29,0.733,0.435,1.59,0.435,2.571c0,0.725-0.125,1.429-0.375,2.113c-0.25,0.685-0.624,1.292-1.123,1.823
		c-0.499,0.531-1.123,0.954-1.872,1.268c-0.748,0.314-1.622,0.471-2.62,0.471c-0.74,0-1.437-0.109-2.088-0.326
		s-1.228-0.531-1.727-0.941c-0.499-0.411-0.893-0.921-1.183-1.533c-0.29-0.612-0.443-1.304-0.458-2.077h2.052
		c0.032,0.435,0.141,0.841,0.326,1.219c0.185,0.378,0.435,0.708,0.749,0.99c0.314,0.282,0.684,0.499,1.111,0.652
		c0.426,0.153,0.897,0.229,1.413,0.229c0.483,0,0.945-0.084,1.388-0.254c0.442-0.169,0.829-0.422,1.159-0.76
		c0.33-0.338,0.591-0.761,0.785-1.268c0.193-0.507,0.29-1.099,0.29-1.775c0-0.563-0.093-1.082-0.277-1.557
		c-0.186-0.475-0.447-0.885-0.785-1.231c-0.338-0.346-0.745-0.616-1.219-0.809c-0.475-0.193-1.002-0.29-1.582-0.29
		c-0.676,0-1.276,0.149-1.799,0.447s-0.986,0.688-1.388,1.171l-1.763-0.097l1.594-8.885h8.451v1.811H131.023z"/>
</g>
<g opacity="0.44">
	<rect x="357.031" y="637.88" fill="none" width="28.973" height="20.279"/>
	<path d="M371.348,655.118v-12.266h-4.443v-1.642c0.58,0,1.143-0.045,1.69-0.133c0.547-0.089,1.042-0.254,1.485-0.495
		c0.442-0.241,0.816-0.571,1.123-0.99c0.306-0.418,0.515-0.949,0.628-1.594h1.569v17.119H371.348z"/>
</g>
<g opacity="0.44">
	<rect x="419.442" y="637.88" fill="none" width="28.973" height="20.279"/>
	<path d="M428.544,641.646c0.225-0.74,0.575-1.38,1.05-1.92c0.475-0.539,1.066-0.962,1.774-1.268s1.513-0.459,2.415-0.459
		c0.74,0,1.437,0.109,2.089,0.326c0.652,0.218,1.219,0.531,1.702,0.941c0.483,0.411,0.865,0.922,1.147,1.533
		c0.281,0.612,0.422,1.32,0.422,2.125c0,0.757-0.117,1.425-0.35,2.004c-0.233,0.58-0.543,1.099-0.93,1.558s-0.829,0.873-1.328,1.243
		c-0.499,0.371-1.014,0.725-1.545,1.062c-0.531,0.322-1.062,0.64-1.594,0.954c-0.531,0.313-1.018,0.647-1.461,1.002
		s-0.821,0.736-1.135,1.146c-0.314,0.411-0.519,0.882-0.616,1.413h8.789v1.811h-11.179c0.08-1.014,0.261-1.879,0.543-2.596
		c0.282-0.716,0.64-1.34,1.075-1.871s0.925-0.998,1.473-1.4s1.119-0.78,1.714-1.135c0.725-0.45,1.36-0.865,1.908-1.243
		c0.547-0.379,1.002-0.761,1.364-1.147c0.362-0.386,0.635-0.805,0.821-1.256c0.185-0.45,0.277-0.974,0.277-1.569
		c0-0.467-0.088-0.889-0.265-1.268c-0.178-0.378-0.415-0.704-0.712-0.978c-0.298-0.273-0.648-0.483-1.05-0.628
		c-0.403-0.145-0.83-0.217-1.28-0.217c-0.596,0-1.107,0.124-1.533,0.374c-0.427,0.25-0.777,0.575-1.05,0.978
		c-0.274,0.402-0.471,0.857-0.592,1.364c-0.121,0.507-0.173,1.019-0.157,1.533h-2.052
		C428.23,643.19,428.319,642.386,428.544,641.646z"/>
</g>
<g opacity="0.44">
	<rect x="481.854" y="637.88" fill="none" width="28.973" height="20.279"/>
	<path d="M495.109,645.363c0.081,0,0.161,0,0.241,0h0.435c0.435,0,0.849-0.061,1.243-0.181c0.395-0.121,0.74-0.298,1.038-0.531
		s0.535-0.527,0.712-0.882c0.177-0.354,0.266-0.756,0.266-1.207c0-0.917-0.29-1.605-0.869-2.064s-1.304-0.688-2.173-0.688
		c-0.548,0-1.026,0.101-1.437,0.302c-0.41,0.201-0.749,0.471-1.014,0.809c-0.265,0.338-0.463,0.732-0.591,1.183
		c-0.129,0.451-0.193,0.926-0.193,1.425h-2.052c0.032-0.82,0.165-1.569,0.398-2.245s0.567-1.256,1.002-1.738
		c0.435-0.483,0.978-0.861,1.63-1.135c0.652-0.274,1.404-0.411,2.258-0.411c0.74,0,1.428,0.093,2.064,0.278
		c0.636,0.185,1.187,0.463,1.654,0.833c0.467,0.37,0.833,0.845,1.099,1.424c0.266,0.58,0.398,1.265,0.398,2.053
		c0,0.772-0.226,1.457-0.676,2.053s-1.014,1.046-1.69,1.352v0.049c1.046,0.226,1.823,0.716,2.33,1.473
		c0.507,0.757,0.761,1.65,0.761,2.68c0,0.854-0.157,1.605-0.471,2.258c-0.314,0.651-0.736,1.195-1.268,1.63
		s-1.155,0.761-1.872,0.978c-0.716,0.218-1.477,0.326-2.282,0.326c-0.869,0-1.658-0.121-2.366-0.362s-1.312-0.6-1.811-1.074
		c-0.499-0.475-0.881-1.059-1.147-1.751c-0.266-0.691-0.391-1.48-0.375-2.366h2.053c0.032,1.111,0.354,2.017,0.966,2.717
		c0.611,0.7,1.505,1.05,2.68,1.05c0.499,0,0.974-0.076,1.425-0.229c0.451-0.152,0.845-0.37,1.183-0.651s0.607-0.628,0.809-1.038
		c0.201-0.411,0.302-0.873,0.302-1.389c0-0.531-0.097-1.002-0.29-1.412c-0.193-0.411-0.451-0.757-0.772-1.038
		c-0.322-0.282-0.705-0.491-1.147-0.628c-0.443-0.137-0.922-0.205-1.437-0.205c-0.435,0-0.845,0.023-1.231,0.072v-1.738
		C494.972,645.355,495.045,645.363,495.109,645.363z"/>
</g>
<g opacity="0.44">
	<rect x="544.267" y="637.88" fill="none" width="28.972" height="20.279"/>
	<path d="M564.475,649.299v1.812h-2.318v4.008h-1.932v-4.008h-7.509v-1.98l7.799-11.131h1.642v11.3H564.475z M560.226,640.921
		h-0.048l-5.698,8.378h5.747V640.921z"/>
</g>
<line fill="none" stroke="#000000" stroke-width="1.4142" stroke-miterlimit="10" x1="197.167" y1="354.341" x2="471.5" y2="298.007"/>
<line fill="none" stroke="#000000" stroke-width="1.4142" stroke-miterlimit="10" x1="265.333" y1="340.757" x2="265.333" y2="463.507"/>
<line fill="none" stroke="#97B2C3" stroke-width="2" stroke-miterlimit="10" enable-background="new    " x1="197.167" y1="354.341" x2="439" y2="433.007"/>
<path fill="none" stroke="#E15218" stroke-width="3" stroke-miterlimit="10" enable-background="new    " d="M184.281,402.132
	c0-108.625,124.407-70.691,124.407,0"/>
<path fill="none" stroke="#E15218" stroke-width="3" stroke-miterlimit="10" enable-background="new    " d="M184.281,402.132
	c0,108.625,124.407,70.691,124.407,0"/>
<path fill="none" stroke="#E15218" stroke-width="3" stroke-miterlimit="10" enable-background="new    " d="M433.929,401.993
	c0-47.61,43.698-116.466,95.935-214.265"/>
<path fill="none" stroke="#E15218" stroke-width="3" stroke-miterlimit="10" enable-background="new    " d="M433.929,401.993
	c0,47.68,43.826,116.667,96.163,214.693"/>
<circle cx="196.667" cy="354.341" r="2.375"/>
<circle cx="265.333" cy="340.423" r="2.375"/>
<line fill="none" stroke="#97B2C3" stroke-width="2" stroke-miterlimit="10" enable-background="new    " x1="470" y1="298.007" x2="229.771" y2="469.661"/>
<line fill="none" stroke="#97B2C3" stroke-width="2" stroke-miterlimit="10" enable-background="new    " x1="307.375" y1="390.19" x2="307.375" y2="413.875"/>
<circle cx="307.375" cy="390.19" r="2.375"/>
<circle cx="307.375" cy="413.875" r="2.375"/>
<g>
	<rect x="273.211" y="485.639" fill="none" width="108.973" height="20.279"/>
	<path d="M273.771,492.442c0-1.208,0.177-2.338,0.53-3.391s0.862-1.976,1.528-2.769h1.709c-0.643,0.88-1.128,1.846-1.456,2.898
		s-0.492,2.135-0.492,3.247c0,1.116,0.167,2.195,0.502,3.237c0.335,1.041,0.812,1.983,1.432,2.826h-1.695
		c-0.67-0.774-1.18-1.68-1.531-2.714S273.771,493.632,273.771,492.442z"/>
	<path d="M286.117,489.4c0,1.075-0.336,1.898-1.008,2.468s-1.628,0.854-2.868,0.854h-0.909v3.555h-2.119v-9.994h3.192
		c1.212,0,2.134,0.261,2.765,0.783C285.802,487.588,286.117,488.366,286.117,489.4z M281.332,490.986h0.697
		c0.652,0,1.139-0.129,1.463-0.387c0.324-0.257,0.485-0.632,0.485-1.124c0-0.497-0.136-0.863-0.407-1.101s-0.696-0.355-1.275-0.355
		h-0.964V490.986z"/>
	<path d="M292.529,496.277h-2.112v-5.783l0.021-0.95l0.034-1.039c-0.351,0.351-0.595,0.581-0.731,0.69l-1.148,0.923l-1.019-1.271
		l3.22-2.563h1.736V496.277z"/>
	<path d="M301.621,492.094h-2.646v-1.497h2.646v-2.666h1.497v2.666h2.646v1.497h-2.646v2.632h-1.497V492.094z"/>
	<path d="M318.164,489.4c0,1.075-0.336,1.898-1.008,2.468s-1.628,0.854-2.868,0.854h-0.909v3.555h-2.119v-9.994h3.192
		c1.212,0,2.134,0.261,2.765,0.783C317.849,487.588,318.164,488.366,318.164,489.4z M313.379,490.986h0.697
		c0.652,0,1.139-0.129,1.463-0.387c0.324-0.257,0.485-0.632,0.485-1.124c0-0.497-0.136-0.863-0.407-1.101s-0.696-0.355-1.275-0.355
		h-0.964V490.986z"/>
	<path d="M326.34,496.277h-6.986v-1.47l2.509-2.536c0.743-0.761,1.228-1.289,1.456-1.582c0.228-0.295,0.392-0.566,0.492-0.817
		s0.15-0.511,0.15-0.779c0-0.401-0.11-0.699-0.332-0.896s-0.516-0.294-0.885-0.294c-0.387,0-0.763,0.089-1.128,0.267
		s-0.745,0.431-1.142,0.759l-1.148-1.36c0.492-0.419,0.9-0.716,1.224-0.889s0.677-0.307,1.06-0.4c0.383-0.093,0.811-0.14,1.285-0.14
		c0.625,0,1.176,0.114,1.654,0.342s0.85,0.547,1.114,0.957s0.396,0.88,0.396,1.408c0,0.46-0.081,0.892-0.243,1.296
		c-0.162,0.402-0.413,0.816-0.752,1.24s-0.938,1.027-1.794,1.812l-1.285,1.21v0.096h4.354V496.277z"/>
	<path d="M330.968,492.442c0,1.198-0.177,2.315-0.53,3.35s-0.862,1.935-1.528,2.7h-1.695c0.615-0.839,1.091-1.778,1.429-2.82
		c0.337-1.041,0.506-2.122,0.506-3.243c0-1.112-0.164-2.194-0.492-3.247s-0.813-2.019-1.456-2.898h1.709
		c0.67,0.798,1.18,1.724,1.531,2.779C330.792,490.117,330.968,491.244,330.968,492.442z"/>
</g>
<g>
	<rect x="304.137" y="357.002" fill="none" width="108.973" height="20.279"/>
	<path d="M304.698,363.806c0-1.208,0.177-2.338,0.53-3.391s0.862-1.976,1.528-2.769h1.709c-0.643,0.88-1.128,1.846-1.456,2.898
		s-0.492,2.135-0.492,3.247c0,1.116,0.167,2.195,0.502,3.237c0.335,1.041,0.812,1.983,1.432,2.826h-1.695
		c-0.67-0.774-1.18-1.68-1.531-2.714S304.698,364.995,304.698,363.806z"/>
	<path d="M317.043,360.764c0,1.075-0.336,1.898-1.008,2.468s-1.628,0.854-2.868,0.854h-0.909v3.555h-2.119v-9.994h3.192
		c1.212,0,2.134,0.261,2.765,0.783C316.728,358.951,317.043,359.729,317.043,360.764z M312.258,362.35h0.697
		c0.652,0,1.139-0.129,1.463-0.387c0.324-0.257,0.485-0.632,0.485-1.124c0-0.497-0.136-0.863-0.407-1.101s-0.696-0.355-1.275-0.355
		h-0.964V362.35z"/>
	<path d="M325.219,367.641h-6.986v-1.47l2.509-2.536c0.743-0.761,1.228-1.289,1.456-1.582c0.228-0.295,0.392-0.566,0.492-0.817
		s0.15-0.511,0.15-0.779c0-0.401-0.11-0.699-0.332-0.896s-0.516-0.294-0.885-0.294c-0.387,0-0.763,0.089-1.128,0.267
		s-0.745,0.431-1.142,0.759l-1.148-1.36c0.492-0.419,0.9-0.716,1.224-0.889s0.677-0.307,1.06-0.4c0.383-0.093,0.811-0.14,1.285-0.14
		c0.625,0,1.176,0.114,1.654,0.342s0.85,0.547,1.114,0.957s0.396,0.88,0.396,1.408c0,0.46-0.081,0.892-0.243,1.296
		c-0.162,0.402-0.413,0.816-0.752,1.24s-0.938,1.027-1.794,1.812l-1.285,1.21v0.096h4.354V367.641z"/>
	<path d="M332.547,363.457h-2.646v-1.497h2.646v-2.666h1.497v2.666h2.646v1.497h-2.646v2.632h-1.497V363.457z"/>
	<path d="M349.09,360.764c0,1.075-0.336,1.898-1.008,2.468s-1.628,0.854-2.868,0.854h-0.909v3.555h-2.119v-9.994h3.192
		c1.212,0,2.134,0.261,2.765,0.783C348.775,358.951,349.09,359.729,349.09,360.764z M344.305,362.35h0.697
		c0.652,0,1.139-0.129,1.463-0.387c0.324-0.257,0.485-0.632,0.485-1.124c0-0.497-0.136-0.863-0.407-1.101s-0.696-0.355-1.275-0.355
		h-0.964V362.35z"/>
	<path d="M356.876,359.882c0,0.624-0.189,1.155-0.567,1.593s-0.909,0.738-1.593,0.902v0.041c0.807,0.101,1.417,0.346,1.832,0.734
		c0.415,0.391,0.622,0.915,0.622,1.576c0,0.962-0.349,1.71-1.046,2.246c-0.697,0.535-1.693,0.803-2.987,0.803
		c-1.084,0-2.046-0.18-2.885-0.54v-1.798c0.387,0.196,0.813,0.355,1.278,0.479s0.925,0.185,1.381,0.185
		c0.697,0,1.212-0.118,1.545-0.355s0.499-0.617,0.499-1.142c0-0.47-0.191-0.802-0.574-0.998s-0.994-0.294-1.832-0.294h-0.759v-1.62
		h0.772c0.775,0,1.341-0.102,1.699-0.305c0.358-0.202,0.537-0.55,0.537-1.042c0-0.757-0.474-1.135-1.422-1.135
		c-0.328,0-0.662,0.055-1.001,0.164s-0.717,0.299-1.131,0.567l-0.978-1.456c0.912-0.656,1.999-0.984,3.261-0.984
		c1.035,0,1.852,0.21,2.451,0.629S356.876,359.135,356.876,359.882z"/>
	<path d="M361.894,363.806c0,1.198-0.177,2.315-0.53,3.35s-0.862,1.935-1.528,2.7h-1.695c0.615-0.839,1.091-1.778,1.429-2.82
		c0.337-1.041,0.506-2.122,0.506-3.243c0-1.112-0.164-2.194-0.492-3.247s-0.813-2.019-1.456-2.898h1.709
		c0.67,0.798,1.18,1.724,1.531,2.779C361.719,361.48,361.894,362.607,361.894,363.806z"/>
</g>
<g>
	<rect x="213.722" y="485.639" fill="none" width="28.307" height="20.279"/>
	<path d="M221.884,489.401c0,1.075-0.336,1.898-1.008,2.468s-1.628,0.854-2.868,0.854h-0.909v3.555h-2.119v-9.994h3.192
		c1.212,0,2.134,0.261,2.765,0.783C221.568,487.589,221.884,488.367,221.884,489.401z M217.099,490.987h0.697
		c0.652,0,1.139-0.129,1.463-0.387c0.324-0.257,0.485-0.632,0.485-1.124c0-0.497-0.136-0.863-0.407-1.101s-0.696-0.355-1.275-0.355
		h-0.964V490.987z"/>
	<path d="M229.67,488.52c0,0.624-0.189,1.155-0.567,1.593s-0.909,0.738-1.593,0.902v0.041c0.807,0.101,1.417,0.346,1.832,0.734
		c0.415,0.391,0.622,0.915,0.622,1.576c0,0.962-0.349,1.71-1.046,2.246c-0.697,0.535-1.693,0.803-2.987,0.803
		c-1.084,0-2.046-0.18-2.885-0.54v-1.798c0.387,0.196,0.813,0.355,1.278,0.479s0.925,0.185,1.381,0.185
		c0.697,0,1.212-0.118,1.545-0.355s0.499-0.617,0.499-1.142c0-0.47-0.191-0.802-0.574-0.998s-0.994-0.294-1.832-0.294h-0.759v-1.62
		h0.772c0.775,0,1.341-0.102,1.699-0.305c0.358-0.202,0.537-0.55,0.537-1.042c0-0.757-0.474-1.135-1.422-1.135
		c-0.328,0-0.662,0.055-1.001,0.164s-0.717,0.299-1.131,0.567l-0.978-1.456c0.912-0.656,1.999-0.984,3.261-0.984
		c1.035,0,1.852,0.21,2.451,0.629S229.67,487.772,229.67,488.52z"/>
</g>
<g>
	<g>
		<path d="M455.632,284.333c0,1.075-0.336,1.898-1.008,2.468s-1.628,0.854-2.868,0.854h-0.909v3.555h-2.119v-9.994h3.192
			c1.212,0,2.134,0.261,2.765,0.783C455.317,282.521,455.632,283.299,455.632,284.333z M450.847,285.919h0.697
			c0.652,0,1.139-0.129,1.463-0.387c0.324-0.257,0.485-0.632,0.485-1.124c0-0.497-0.136-0.863-0.407-1.101s-0.696-0.355-1.275-0.355
			h-0.964V285.919z"/>
		<path d="M463.808,291.21h-6.986v-1.47l2.509-2.536c0.743-0.761,1.228-1.289,1.456-1.582c0.228-0.295,0.392-0.566,0.492-0.817
			s0.15-0.511,0.15-0.779c0-0.401-0.11-0.699-0.332-0.896s-0.516-0.294-0.885-0.294c-0.387,0-0.763,0.089-1.128,0.267
			s-0.745,0.431-1.142,0.759l-1.148-1.36c0.492-0.419,0.9-0.716,1.224-0.889s0.677-0.307,1.06-0.4
			c0.383-0.093,0.811-0.14,1.285-0.14c0.625,0,1.176,0.114,1.654,0.342s0.85,0.547,1.114,0.957s0.396,0.88,0.396,1.408
			c0,0.46-0.081,0.892-0.243,1.296c-0.162,0.402-0.413,0.816-0.752,1.24s-0.938,1.027-1.794,1.812l-1.285,1.21v0.096h4.354V291.21z"
			/>
	</g>
</g>
<g>
	<g>
		<path d="M182.576,343.198c0,1.075-0.336,1.898-1.008,2.468s-1.628,0.854-2.868,0.854h-0.909v3.555h-2.119v-9.994h3.192
			c1.212,0,2.134,0.261,2.765,0.783C182.26,341.386,182.576,342.164,182.576,343.198z M177.791,344.784h0.697
			c0.652,0,1.139-0.129,1.463-0.387c0.324-0.257,0.485-0.632,0.485-1.124c0-0.497-0.136-0.863-0.407-1.101s-0.696-0.355-1.275-0.355
			h-0.964V344.784z"/>
		<path d="M188.988,350.075h-2.112v-5.783l0.021-0.95l0.034-1.039c-0.351,0.351-0.595,0.581-0.731,0.69l-1.148,0.923l-1.019-1.271
			l3.22-2.563h1.736V350.075z"/>
	</g>
</g>
<line fill="none" stroke="#000000" stroke-width="1.4142" stroke-miterlimit="10" x1="438" y1="433.007" x2="229.771" y2="469.661"/>
<circle cx="265.333" cy="463.507" r="2.375"/>
<circle cx="230.25" cy="469.661" r="2.375"/>
<line fill="none" stroke="#AAAAAA" stroke-miterlimit="10" x1="267.708" y1="467.286" x2="275.833" y2="483.5"/>
<line fill="none" stroke="#AAAAAA" stroke-miterlimit="10" x1="312" y1="387.815" x2="330" y2="372.247"/>
<line fill="none" stroke="#AAAAAA" stroke-miterlimit="10" x1="228.624" y1="473.5" x2="222.596" y2="483.5"/>
<circle cx="470" cy="298.007" r="2.375"/>
<g>
	<rect x="448.862" y="367.142" fill="none" width="108.973" height="20.279"/>
	<path d="M457.024,370.903c0,1.075-0.336,1.898-1.008,2.468s-1.628,0.854-2.868,0.854h-0.909v3.555h-2.119v-9.994h3.192
		c1.212,0,2.134,0.261,2.765,0.783C456.708,369.091,457.024,369.869,457.024,370.903z M452.239,372.489h0.697
		c0.652,0,1.139-0.129,1.463-0.387c0.324-0.257,0.485-0.632,0.485-1.124c0-0.497-0.136-0.863-0.407-1.101s-0.696-0.355-1.275-0.355
		h-0.964V372.489z"/>
	<path d="M465.425,375.709h-1.203v2.071h-2.064v-2.071h-4.266v-1.47l4.382-6.453h1.948v6.282h1.203V375.709z M462.158,374.068
		v-1.695c0-0.282,0.011-0.692,0.034-1.23s0.041-0.85,0.055-0.937h-0.055c-0.168,0.374-0.372,0.738-0.608,1.094l-1.832,2.769H462.158
		z"/>
</g>
<line fill="none" stroke="#97B2C3" stroke-width="2" stroke-miterlimit="10" enable-background="new    " x1="439" y1="371.257" x2="439" y2="433.007"/>
<circle cx="439" cy="433.007" r="2.375"/>
<circle cx="439" cy="371.257" r="2.375"/>
</svg>
