<?xml version="1.0" encoding="utf-8"?>
<!-- Generator: Adobe Illustrator 16.0.4, SVG Export Plug-In . SVG Version: 6.00 Build 0)  -->
<!DOCTYPE svg PUBLIC "-//W3C//DTD SVG 1.1//EN" "http://www.w3.org/Graphics/SVG/1.1/DTD/svg11.dtd">
<svg version="1.1" id="Layer_1" xmlns="http://www.w3.org/2000/svg" xmlns:xlink="http://www.w3.org/1999/xlink" x="0px" y="0px"
	 width="1366px" height="768px" viewBox="0 0 1366 768" enable-background="new 0 0 1366 768" xml:space="preserve">
<line fill="none" stroke="#000000" stroke-width="1.4487" stroke-miterlimit="10" x1="260" y1="450.354" x2="260" y2="149.057"/>
<line fill="none" stroke="#000000" stroke-width="1.4487" stroke-miterlimit="10" x1="410.148" y1="298.625" x2="108.852" y2="298.625"/>
<rect x="245.514" y="456.998" fill="none" width="28.973" height="20.279"/>
<g enable-background="new    ">
	<path d="M262.928,461.271c0,1.48-0.233,2.586-0.7,3.316s-1.181,1.096-2.142,1.096c-0.922,0-1.623-0.374-2.104-1.122
		s-0.721-1.845-0.721-3.29c0-1.492,0.232-2.6,0.697-3.322s1.174-1.084,2.127-1.084c0.93,0,1.636,0.377,2.118,1.131
		S262.928,459.841,262.928,461.271z M258.246,461.271c0,1.246,0.146,2.153,0.439,2.722s0.76,0.853,1.4,0.853
		c0.648,0,1.118-0.288,1.409-0.864s0.437-1.479,0.437-2.71s-0.146-2.132-0.437-2.704s-0.761-0.858-1.409-0.858
		c-0.641,0-1.107,0.282-1.4,0.847S258.246,460.024,258.246,461.271z"/>
</g>
<rect x="68.847" y="291.534" fill="none" width="28.973" height="20.278"/>
<g enable-background="new    ">
	<path d="M97.412,297.807c0,1.48-0.233,2.586-0.7,3.316s-1.181,1.096-2.142,1.096c-0.922,0-1.623-0.374-2.104-1.122
		s-0.721-1.845-0.721-3.29c0-1.492,0.232-2.6,0.697-3.322s1.174-1.084,2.127-1.084c0.93,0,1.636,0.377,2.118,1.131
		S97.412,296.377,97.412,297.807z M92.73,297.807c0,1.246,0.146,2.153,0.439,2.722s0.76,0.853,1.4,0.853
		c0.648,0,1.118-0.288,1.409-0.864s0.437-1.479,0.437-2.71s-0.146-2.132-0.437-2.704s-0.761-0.858-1.409-0.858
		c-0.641,0-1.107,0.282-1.4,0.847S92.73,296.561,92.73,297.807z"/>
</g>
<rect x="68.847" y="259.639" fill="none" width="28.973" height="20.279"/>
<g enable-background="new    ">
	<path d="M95.337,269.207h-0.949v-6.105c0-0.508,0.016-0.988,0.047-1.441c-0.082,0.082-0.174,0.168-0.275,0.258
		s-0.566,0.471-1.395,1.143l-0.516-0.668l2.268-1.752h0.82V269.207z"/>
</g>
<rect x="68.847" y="227.745" fill="none" width="28.973" height="20.279"/>
<g enable-background="new    ">
	<path d="M97.365,237.312h-5.631v-0.838l2.256-2.268c0.688-0.695,1.141-1.191,1.359-1.488s0.383-0.586,0.492-0.867
		s0.164-0.584,0.164-0.908c0-0.457-0.139-0.819-0.416-1.087s-0.662-0.401-1.154-0.401c-0.355,0-0.692,0.059-1.011,0.176
		s-0.673,0.33-1.063,0.639l-0.516-0.662c0.789-0.656,1.648-0.984,2.578-0.984c0.805,0,1.436,0.206,1.893,0.618
		s0.686,0.966,0.686,1.661c0,0.543-0.152,1.08-0.457,1.611s-0.875,1.203-1.711,2.016l-1.875,1.834v0.047h4.406V237.312z"/>
</g>
<rect x="68.847" y="195.852" fill="none" width="28.973" height="20.279"/>
<g enable-background="new    ">
	<path d="M97.042,198.868c0,0.547-0.153,0.994-0.46,1.342s-0.741,0.58-1.304,0.697v0.047c0.688,0.086,1.197,0.305,1.529,0.656
		s0.498,0.812,0.498,1.383c0,0.816-0.283,1.444-0.85,1.884s-1.371,0.659-2.414,0.659c-0.453,0-0.868-0.034-1.245-0.103
		s-0.743-0.188-1.099-0.36v-0.926c0.371,0.184,0.767,0.323,1.187,0.419s0.817,0.144,1.192,0.144c1.48,0,2.221-0.58,2.221-1.74
		c0-1.039-0.816-1.559-2.449-1.559h-0.844v-0.838h0.855c0.668,0,1.197-0.147,1.588-0.442s0.586-0.704,0.586-1.228
		c0-0.418-0.144-0.746-0.431-0.984s-0.677-0.357-1.169-0.357c-0.375,0-0.729,0.051-1.061,0.152s-0.711,0.289-1.137,0.562
		l-0.492-0.656c0.352-0.277,0.757-0.495,1.216-0.653s0.942-0.237,1.45-0.237c0.832,0,1.479,0.19,1.939,0.571
		S97.042,198.204,97.042,198.868z"/>
</g>
<g enable-background="new    ">
	<path d="M97.769,171.556h-1.271v1.969h-0.932v-1.969H91.4v-0.85l4.066-5.795h1.031v5.76h1.271V171.556z M95.566,170.671v-2.848
		c0-0.559,0.02-1.189,0.059-1.893h-0.047c-0.188,0.375-0.363,0.686-0.527,0.932l-2.678,3.809H95.566z"/>
</g>
<rect x="68.847" y="323.428" fill="none" width="28.973" height="20.279"/>
<g enable-background="new    ">
	<path d="M86.972,331.225v-0.891h2.877v0.891H86.972z"/>
	<path d="M94.531,333.996h-0.949v-6.105c0-0.508,0.016-0.988,0.047-1.441c-0.082,0.082-0.174,0.168-0.275,0.258
		s-0.566,0.471-1.395,1.143l-0.516-0.668l2.268-1.752h0.82V333.996z"/>
</g>
<rect x="68.847" y="355.322" fill="none" width="28.973" height="20.278"/>
<g enable-background="new    ">
	<path d="M86.972,364.118v-0.891h2.877v0.891H86.972z"/>
	<path d="M96.558,366.89h-5.631v-0.838l2.256-2.268c0.688-0.695,1.141-1.191,1.359-1.488s0.383-0.586,0.492-0.867
		s0.164-0.584,0.164-0.908c0-0.457-0.139-0.819-0.416-1.087s-0.662-0.401-1.154-0.401c-0.355,0-0.692,0.059-1.011,0.176
		s-0.673,0.33-1.063,0.639l-0.516-0.662c0.789-0.656,1.648-0.984,2.578-0.984c0.805,0,1.436,0.206,1.893,0.618
		s0.686,0.966,0.686,1.661c0,0.543-0.152,1.08-0.457,1.611s-0.875,1.203-1.711,2.016l-1.875,1.834v0.047h4.406V366.89z"/>
</g>
<rect x="68.847" y="387.216" fill="none" width="28.973" height="20.279"/>
<g enable-background="new    ">
	<path d="M86.972,396.012v-0.891h2.877v0.891H86.972z"/>
	<path d="M96.236,392.232c0,0.547-0.153,0.994-0.46,1.342s-0.741,0.58-1.304,0.697v0.047c0.688,0.086,1.197,0.305,1.529,0.656
		s0.498,0.812,0.498,1.383c0,0.816-0.283,1.444-0.85,1.884s-1.371,0.659-2.414,0.659c-0.453,0-0.868-0.034-1.245-0.103
		s-0.743-0.188-1.099-0.36v-0.926c0.371,0.184,0.767,0.323,1.187,0.419s0.817,0.144,1.192,0.144c1.48,0,2.221-0.58,2.221-1.74
		c0-1.039-0.816-1.559-2.449-1.559h-0.844v-0.838h0.855c0.668,0,1.197-0.147,1.588-0.442s0.586-0.704,0.586-1.228
		c0-0.418-0.144-0.746-0.431-0.984s-0.677-0.357-1.169-0.357c-0.375,0-0.729,0.051-1.061,0.152s-0.711,0.289-1.137,0.562
		l-0.492-0.656c0.352-0.277,0.757-0.495,1.216-0.653s0.942-0.237,1.45-0.237c0.832,0,1.479,0.19,1.939,0.571
		S96.236,391.568,96.236,392.232z"/>
</g>
<rect x="68.847" y="419.11" fill="none" width="28.973" height="20.278"/>
<g enable-background="new    ">
	<path d="M86.972,428.906v-0.891h2.877v0.891H86.972z"/>
	<path d="M96.962,429.709h-1.271v1.969h-0.932v-1.969h-4.166v-0.85l4.066-5.795h1.031v5.76h1.271V429.709z M94.759,428.824v-2.848
		c0-0.559,0.02-1.189,0.059-1.893h-0.047c-0.188,0.375-0.363,0.686-0.527,0.932l-2.678,3.809H94.759z"/>
</g>
<rect x="502.448" y="408.971" fill="none" width="28.973" height="20.279"/>
<g enable-background="new    ">
	<path d="M513.901,414.767v-0.891h2.877v0.891H513.901z"/>
	<path d="M521.459,417.538h-0.949v-6.105c0-0.508,0.016-0.988,0.047-1.441c-0.082,0.082-0.174,0.168-0.275,0.258
		s-0.566,0.471-1.395,1.143l-0.516-0.668l2.268-1.752h0.82V417.538z"/>
	<path d="M530.395,413.243c0,1.48-0.233,2.586-0.7,3.316s-1.181,1.096-2.142,1.096c-0.922,0-1.623-0.374-2.104-1.122
		s-0.721-1.845-0.721-3.29c0-1.492,0.232-2.6,0.697-3.322s1.174-1.084,2.127-1.084c0.93,0,1.636,0.377,2.118,1.131
		S530.395,411.813,530.395,413.243z M525.713,413.243c0,1.246,0.146,2.153,0.439,2.722s0.76,0.853,1.4,0.853
		c0.648,0,1.118-0.288,1.409-0.864s0.437-1.479,0.437-2.71s-0.146-2.132-0.437-2.704s-0.761-0.858-1.409-0.858
		c-0.641,0-1.107,0.282-1.4,0.847S525.713,411.997,525.713,413.243z"/>
</g>
<rect x="502.448" y="351.589" fill="none" width="28.973" height="20.279"/>
<g enable-background="new    ">
	<path d="M520.573,357.385v-0.891h2.877v0.891H520.573z"/>
	<path d="M527.206,354.924c0.902,0,1.612,0.224,2.13,0.671s0.776,1.06,0.776,1.837c0,0.887-0.282,1.582-0.847,2.086
		s-1.343,0.756-2.335,0.756c-0.965,0-1.701-0.154-2.209-0.463v-0.938c0.273,0.176,0.613,0.313,1.02,0.413s0.807,0.149,1.201,0.149
		c0.688,0,1.222-0.162,1.603-0.486s0.571-0.793,0.571-1.406c0-1.195-0.732-1.793-2.197-1.793c-0.371,0-0.867,0.057-1.488,0.17
		l-0.504-0.322l0.322-4.008h4.26v0.896h-3.428l-0.217,2.572C526.313,354.969,526.76,354.924,527.206,354.924z"/>
</g>
<rect x="502.448" y="236.826" fill="none" width="28.973" height="20.279"/>
<g enable-background="new    ">
	<path d="M528.012,240.16c0.902,0,1.612,0.224,2.13,0.671s0.776,1.06,0.776,1.837c0,0.887-0.282,1.582-0.847,2.086
		s-1.343,0.756-2.335,0.756c-0.965,0-1.701-0.154-2.209-0.463v-0.938c0.273,0.176,0.613,0.313,1.02,0.413s0.807,0.149,1.201,0.149
		c0.688,0,1.222-0.162,1.603-0.486s0.571-0.793,0.571-1.406c0-1.195-0.732-1.793-2.197-1.793c-0.371,0-0.867,0.057-1.488,0.17
		l-0.504-0.322l0.322-4.008h4.26v0.896h-3.428l-0.217,2.572C527.12,240.205,527.567,240.16,528.012,240.16z"/>
</g>
<rect x="502.448" y="179.444" fill="none" width="28.973" height="20.279"/>
<g enable-background="new    ">
	<path d="M522.266,188.012h-0.949v-6.105c0-0.508,0.016-0.988,0.047-1.441c-0.082,0.082-0.174,0.168-0.275,0.258
		s-0.566,0.471-1.395,1.143l-0.516-0.668l2.268-1.752h0.82V188.012z"/>
	<path d="M531.202,183.717c0,1.48-0.233,2.586-0.7,3.316s-1.181,1.096-2.142,1.096c-0.922,0-1.623-0.374-2.104-1.122
		s-0.721-1.845-0.721-3.29c0-1.492,0.232-2.6,0.697-3.322s1.174-1.084,2.127-1.084c0.93,0,1.636,0.377,2.118,1.131
		S531.202,182.287,531.202,183.717z M526.52,183.717c0,1.246,0.146,2.153,0.439,2.722s0.76,0.853,1.4,0.853
		c0.648,0,1.118-0.288,1.409-0.864s0.437-1.479,0.437-2.71s-0.146-2.132-0.437-2.704s-0.761-0.858-1.409-0.858
		c-0.641,0-1.107,0.282-1.4,0.847S526.52,182.471,526.52,183.717z"/>
</g>
<rect x="502.448" y="294.207" fill="none" width="28.973" height="20.279"/>
<g enable-background="new    ">
	<path d="M531.012,298.479c0,1.48-0.233,2.586-0.7,3.316s-1.181,1.096-2.142,1.096c-0.922,0-1.623-0.374-2.104-1.122
		s-0.721-1.845-0.721-3.29c0-1.492,0.232-2.6,0.697-3.322s1.174-1.084,2.127-1.084c0.93,0,1.636,0.377,2.118,1.131
		S531.012,297.05,531.012,298.479z M526.331,298.479c0,1.246,0.146,2.153,0.439,2.722s0.76,0.853,1.4,0.853
		c0.648,0,1.118-0.288,1.409-0.864s0.437-1.479,0.437-2.71s-0.146-2.132-0.437-2.704s-0.761-0.858-1.409-0.858
		c-0.641,0-1.107,0.282-1.4,0.847S526.331,297.233,526.331,298.479z"/>
</g>
<rect x="917.173" y="426.36" fill="none" width="28.974" height="20.278"/>
<g enable-background="new    ">
	<path d="M928.627,432.156v-0.891h2.877v0.891H928.627z"/>
	<path d="M938.213,434.928h-5.631v-0.838l2.256-2.268c0.688-0.695,1.141-1.191,1.359-1.488s0.383-0.586,0.492-0.867
		s0.164-0.584,0.164-0.908c0-0.457-0.139-0.819-0.416-1.087s-0.662-0.401-1.154-0.401c-0.355,0-0.692,0.059-1.011,0.176
		s-0.673,0.33-1.063,0.639l-0.516-0.662c0.789-0.656,1.648-0.984,2.578-0.984c0.805,0,1.436,0.206,1.893,0.618
		s0.686,0.966,0.686,1.661c0,0.543-0.152,1.08-0.457,1.611s-0.875,1.203-1.711,2.016l-1.875,1.834v0.047h4.406V434.928z"/>
	<path d="M945.121,430.633c0,1.48-0.233,2.586-0.7,3.316s-1.181,1.096-2.142,1.096c-0.922,0-1.623-0.374-2.104-1.122
		s-0.721-1.845-0.721-3.29c0-1.492,0.232-2.6,0.697-3.322s1.174-1.084,2.127-1.084c0.93,0,1.636,0.377,2.118,1.131
		S945.121,429.203,945.121,430.633z M940.439,430.633c0,1.246,0.146,2.153,0.439,2.722s0.76,0.853,1.4,0.853
		c0.648,0,1.118-0.288,1.409-0.864s0.437-1.479,0.437-2.71s-0.146-2.132-0.437-2.704s-0.761-0.858-1.409-0.858
		c-0.641,0-1.107,0.282-1.4,0.847S940.439,429.387,940.439,430.633z"/>
</g>
<rect x="917.174" y="326.347" fill="none" width="28.973" height="20.279"/>
<g enable-background="new    ">
	<path d="M935.299,332.143v-0.891h2.877v0.891H935.299z"/>
	<path d="M941.932,329.682c0.902,0,1.612,0.224,2.13,0.671s0.776,1.06,0.776,1.837c0,0.887-0.282,1.582-0.847,2.086
		s-1.343,0.756-2.335,0.756c-0.965,0-1.701-0.154-2.209-0.463v-0.938c0.273,0.176,0.613,0.313,1.02,0.413s0.807,0.149,1.201,0.149
		c0.688,0,1.222-0.162,1.603-0.486s0.571-0.793,0.571-1.406c0-1.195-0.732-1.793-2.197-1.793c-0.371,0-0.867,0.057-1.488,0.17
		l-0.504-0.322l0.322-4.008h4.26v0.896h-3.428l-0.217,2.572C941.039,329.727,941.486,329.682,941.932,329.682z"/>
</g>
<rect x="917.174" y="359.685" fill="none" width="28.973" height="20.279"/>
<g enable-background="new    ">
	<path d="M928.627,365.48v-0.891h2.877v0.891H928.627z"/>
	<path d="M936.186,368.252h-0.949v-6.105c0-0.508,0.016-0.988,0.047-1.441c-0.082,0.082-0.174,0.168-0.275,0.258
		s-0.566,0.471-1.395,1.143l-0.516-0.668l2.268-1.752h0.82V368.252z"/>
	<path d="M945.121,363.957c0,1.48-0.233,2.586-0.7,3.316s-1.181,1.096-2.142,1.096c-0.922,0-1.623-0.374-2.104-1.122
		s-0.721-1.845-0.721-3.29c0-1.492,0.232-2.6,0.697-3.322s1.174-1.084,2.127-1.084c0.93,0,1.636,0.377,2.118,1.131
		S945.121,362.527,945.121,363.957z M940.439,363.957c0,1.246,0.146,2.153,0.439,2.722s0.76,0.853,1.4,0.853
		c0.648,0,1.118-0.288,1.409-0.864s0.437-1.479,0.437-2.71s-0.146-2.132-0.437-2.704s-0.761-0.858-1.409-0.858
		c-0.641,0-1.107,0.282-1.4,0.847S940.439,362.711,940.439,363.957z"/>
</g>
<rect x="917.174" y="393.023" fill="none" width="28.973" height="20.277"/>
<g enable-background="new    ">
	<path d="M928.627,398.818v-0.891h2.877v0.891H928.627z"/>
	<path d="M936.186,401.59h-0.949v-6.105c0-0.508,0.016-0.988,0.047-1.441c-0.082,0.082-0.174,0.168-0.275,0.258
		s-0.566,0.471-1.395,1.143l-0.516-0.668l2.268-1.752h0.82V401.59z"/>
	<path d="M942.121,396.357c0.902,0,1.612,0.224,2.13,0.671s0.776,1.06,0.776,1.837c0,0.887-0.282,1.582-0.847,2.086
		s-1.343,0.756-2.335,0.756c-0.965,0-1.701-0.154-2.209-0.463v-0.938c0.273,0.176,0.613,0.313,1.02,0.413s0.807,0.149,1.201,0.149
		c0.688,0,1.222-0.162,1.603-0.486s0.571-0.793,0.571-1.406c0-1.195-0.732-1.793-2.197-1.793c-0.371,0-0.867,0.057-1.488,0.17
		l-0.504-0.322l0.322-4.008h4.26v0.896h-3.428l-0.217,2.572C941.229,396.402,941.676,396.357,942.121,396.357z"/>
</g>
<rect x="917.174" y="259.671" fill="none" width="28.973" height="20.279"/>
<g enable-background="new    ">
	<path d="M942.738,263.006c0.902,0,1.612,0.224,2.13,0.671s0.776,1.06,0.776,1.837c0,0.887-0.282,1.582-0.847,2.086
		s-1.343,0.756-2.335,0.756c-0.965,0-1.701-0.154-2.209-0.463v-0.938c0.273,0.176,0.613,0.313,1.02,0.413s0.807,0.149,1.201,0.149
		c0.688,0,1.222-0.162,1.603-0.486s0.571-0.793,0.571-1.406c0-1.195-0.732-1.793-2.197-1.793c-0.371,0-0.867,0.057-1.488,0.17
		l-0.504-0.322l0.322-4.008h4.26v0.896h-3.428l-0.217,2.572C941.846,263.051,942.293,263.006,942.738,263.006z"/>
</g>
<rect x="917.174" y="159.658" fill="none" width="28.973" height="20.279"/>
<g enable-background="new    ">
	<path d="M939.02,168.226h-5.631v-0.838l2.256-2.268c0.688-0.695,1.141-1.191,1.359-1.488s0.383-0.586,0.492-0.867
		s0.164-0.584,0.164-0.908c0-0.457-0.139-0.819-0.416-1.087s-0.662-0.401-1.154-0.401c-0.355,0-0.692,0.059-1.011,0.176
		s-0.673,0.33-1.063,0.639l-0.516-0.662c0.789-0.656,1.648-0.984,2.578-0.984c0.805,0,1.436,0.206,1.893,0.618
		s0.686,0.966,0.686,1.661c0,0.543-0.152,1.08-0.457,1.611s-0.875,1.203-1.711,2.016l-1.875,1.834v0.047h4.406V168.226z"/>
	<path d="M945.928,163.931c0,1.48-0.233,2.586-0.7,3.316s-1.181,1.096-2.142,1.096c-0.922,0-1.623-0.374-2.104-1.122
		s-0.721-1.845-0.721-3.29c0-1.492,0.232-2.6,0.697-3.322s1.174-1.084,2.127-1.084c0.93,0,1.636,0.377,2.118,1.131
		S945.928,162.501,945.928,163.931z M941.246,163.931c0,1.246,0.146,2.153,0.439,2.722s0.76,0.853,1.4,0.853
		c0.648,0,1.118-0.288,1.409-0.864s0.437-1.479,0.437-2.71s-0.146-2.132-0.437-2.704s-0.761-0.858-1.409-0.858
		c-0.641,0-1.107,0.282-1.4,0.847S941.246,162.685,941.246,163.931z"/>
</g>
<rect x="917.174" y="192.996" fill="none" width="28.973" height="20.279"/>
<g enable-background="new    ">
	<path d="M936.992,201.563h-0.949v-6.105c0-0.508,0.016-0.988,0.047-1.441c-0.082,0.082-0.174,0.168-0.275,0.258
		s-0.566,0.471-1.395,1.143l-0.516-0.668l2.268-1.752h0.82V201.563z"/>
	<path d="M942.928,196.331c0.902,0,1.612,0.224,2.13,0.671s0.776,1.06,0.776,1.837c0,0.887-0.282,1.582-0.847,2.086
		s-1.343,0.756-2.335,0.756c-0.965,0-1.701-0.154-2.209-0.463v-0.938c0.273,0.176,0.613,0.313,1.02,0.413s0.807,0.149,1.201,0.149
		c0.688,0,1.222-0.162,1.603-0.486s0.571-0.793,0.571-1.406c0-1.195-0.732-1.793-2.197-1.793c-0.371,0-0.867,0.057-1.488,0.17
		l-0.504-0.322l0.322-4.008h4.26v0.896h-3.428l-0.217,2.572C942.035,196.376,942.482,196.331,942.928,196.331z"/>
</g>
<rect x="917.174" y="226.333" fill="none" width="28.973" height="20.279"/>
<g enable-background="new    ">
	<path d="M936.992,234.9h-0.949v-6.105c0-0.508,0.016-0.988,0.047-1.441c-0.082,0.082-0.174,0.168-0.275,0.258
		s-0.566,0.471-1.395,1.143l-0.516-0.668l2.268-1.752h0.82V234.9z"/>
	<path d="M945.928,230.605c0,1.48-0.233,2.586-0.7,3.316s-1.181,1.096-2.142,1.096c-0.922,0-1.623-0.374-2.104-1.122
		s-0.721-1.845-0.721-3.29c0-1.492,0.232-2.6,0.697-3.322s1.174-1.084,2.127-1.084c0.93,0,1.636,0.377,2.118,1.131
		S945.928,229.176,945.928,230.605z M941.246,230.605c0,1.246,0.146,2.153,0.439,2.722s0.76,0.853,1.4,0.853
		c0.648,0,1.118-0.288,1.409-0.864s0.437-1.479,0.437-2.71s-0.146-2.132-0.437-2.704s-0.761-0.858-1.409-0.858
		c-0.641,0-1.107,0.282-1.4,0.847S941.246,229.359,941.246,230.605z"/>
</g>
<rect x="917.174" y="293.01" fill="none" width="28.973" height="20.279"/>
<g enable-background="new    ">
	<path d="M945.738,297.282c0,1.48-0.233,2.586-0.7,3.316s-1.181,1.096-2.142,1.096c-0.922,0-1.623-0.374-2.104-1.122
		s-0.721-1.845-0.721-3.29c0-1.492,0.232-2.6,0.697-3.322s1.174-1.084,2.127-1.084c0.93,0,1.636,0.377,2.118,1.131
		S945.738,295.853,945.738,297.282z M941.057,297.282c0,1.246,0.146,2.153,0.439,2.722s0.76,0.853,1.4,0.853
		c0.648,0,1.118-0.288,1.409-0.864s0.437-1.479,0.437-2.71s-0.146-2.132-0.437-2.704s-0.761-0.858-1.409-0.858
		c-0.641,0-1.107,0.282-1.4,0.847S941.057,296.036,941.057,297.282z"/>
</g>
<rect x="177.264" y="456.998" fill="none" width="28.973" height="20.279"/>
<g enable-background="new    ">
	<path d="M186.572,462.794v-0.891h2.877v0.891H186.572z"/>
	<path d="M194.131,465.565h-0.949v-6.105c0-0.508,0.016-0.988,0.047-1.441c-0.082,0.082-0.174,0.168-0.275,0.258
		s-0.566,0.471-1.395,1.143l-0.516-0.668l2.268-1.752h0.82V465.565z"/>
</g>
<rect x="564.416" y="456.998" fill="none" width="28.973" height="20.279"/>
<g enable-background="new    ">
	<path d="M573.724,462.794v-0.891h2.877v0.891H573.724z"/>
	<path d="M581.283,465.565h-0.949v-6.105c0-0.508,0.016-0.988,0.047-1.441c-0.082,0.082-0.174,0.168-0.275,0.258
		s-0.566,0.471-1.395,1.143l-0.516-0.668l2.268-1.752h0.82V465.565z"/>
</g>
<rect x="607.458" y="456.998" fill="none" width="28.973" height="20.279"/>
<g enable-background="new    ">
	<path d="M624.873,461.271c0,1.48-0.233,2.586-0.7,3.316s-1.181,1.096-2.142,1.096c-0.922,0-1.623-0.374-2.104-1.122
		s-0.721-1.845-0.721-3.29c0-1.492,0.232-2.6,0.697-3.322s1.174-1.084,2.127-1.084c0.93,0,1.636,0.377,2.118,1.131
		S624.873,459.841,624.873,461.271z M620.191,461.271c0,1.246,0.146,2.153,0.439,2.722s0.76,0.853,1.4,0.853
		c0.648,0,1.118-0.288,1.409-0.864s0.437-1.479,0.437-2.71s-0.146-2.132-0.437-2.704s-0.761-0.858-1.409-0.858
		c-0.641,0-1.107,0.282-1.4,0.847S620.191,460.024,620.191,461.271z"/>
</g>
<rect x="649.903" y="456.998" fill="none" width="28.973" height="20.279"/>
<g enable-background="new    ">
	<path d="M665.243,465.565h-0.949v-6.105c0-0.508,0.016-0.988,0.047-1.441c-0.082,0.082-0.174,0.168-0.275,0.258
		s-0.566,0.471-1.395,1.143l-0.516-0.668l2.268-1.752h0.82V465.565z"/>
</g>
<rect x="692.678" y="456.998" fill="none" width="28.974" height="20.279"/>
<g enable-background="new    ">
	<path d="M710.045,465.565h-5.631v-0.838l2.256-2.268c0.688-0.695,1.141-1.191,1.359-1.488s0.383-0.586,0.492-0.867
		s0.164-0.584,0.164-0.908c0-0.457-0.139-0.819-0.416-1.087s-0.662-0.401-1.154-0.401c-0.355,0-0.692,0.059-1.011,0.176
		s-0.673,0.33-1.063,0.639l-0.516-0.662c0.789-0.656,1.648-0.984,2.578-0.984c0.805,0,1.436,0.206,1.893,0.618
		s0.686,0.966,0.686,1.661c0,0.543-0.152,1.08-0.457,1.611s-0.875,1.203-1.711,2.016l-1.875,1.834v0.047h4.406V465.565z"/>
</g>
<rect x="734.792" y="456.998" fill="none" width="28.973" height="20.279"/>
<g enable-background="new    ">
	<path d="M751.836,459.015c0,0.547-0.153,0.994-0.46,1.342s-0.741,0.58-1.304,0.697v0.047c0.688,0.086,1.197,0.305,1.529,0.656
		s0.498,0.812,0.498,1.383c0,0.816-0.283,1.444-0.85,1.884s-1.371,0.659-2.414,0.659c-0.453,0-0.868-0.034-1.245-0.103
		s-0.743-0.188-1.099-0.36v-0.926c0.371,0.184,0.767,0.323,1.187,0.419s0.817,0.144,1.192,0.144c1.48,0,2.221-0.58,2.221-1.74
		c0-1.039-0.816-1.559-2.449-1.559h-0.844v-0.838h0.855c0.668,0,1.197-0.147,1.588-0.442s0.586-0.704,0.586-1.228
		c0-0.418-0.144-0.746-0.431-0.984s-0.677-0.357-1.169-0.357c-0.375,0-0.729,0.051-1.061,0.152s-0.711,0.289-1.137,0.562
		l-0.492-0.656c0.352-0.277,0.757-0.495,1.216-0.653s0.942-0.237,1.45-0.237c0.832,0,1.479,0.19,1.939,0.571
		S751.836,458.351,751.836,459.015z"/>
</g>
<rect x="777.236" y="456.998" fill="none" width="28.973" height="20.279"/>
<g enable-background="new    ">
	<path d="M795.008,463.597h-1.271v1.969h-0.932v-1.969h-4.166v-0.85l4.066-5.795h1.031v5.76h1.271V463.597z M792.805,462.712v-2.848
		c0-0.559,0.02-1.189,0.059-1.893h-0.047c-0.188,0.375-0.363,0.686-0.527,0.932l-2.678,3.809H792.805z"/>
</g>
<rect x="1015.979" y="456.998" fill="none" width="28.974" height="20.279"/>
<g enable-background="new    ">
	<path d="M1033.393,461.271c0,1.48-0.233,2.586-0.7,3.316s-1.181,1.096-2.142,1.096c-0.922,0-1.623-0.374-2.104-1.122
		s-0.721-1.845-0.721-3.29c0-1.492,0.232-2.6,0.697-3.322s1.174-1.084,2.127-1.084c0.93,0,1.636,0.377,2.118,1.131
		S1033.393,459.841,1033.393,461.271z M1028.711,461.271c0,1.246,0.146,2.153,0.439,2.722s0.76,0.853,1.4,0.853
		c0.648,0,1.118-0.288,1.409-0.864s0.437-1.479,0.437-2.71s-0.146-2.132-0.437-2.704s-0.761-0.858-1.409-0.858
		c-0.641,0-1.107,0.282-1.4,0.847S1028.711,460.024,1028.711,461.271z"/>
</g>
<rect x="1079.681" y="456.998" fill="none" width="28.974" height="20.279"/>
<g enable-background="new    ">
	<path d="M1097.047,465.565h-5.631v-0.838l2.256-2.268c0.688-0.695,1.141-1.191,1.359-1.488s0.383-0.586,0.492-0.867
		s0.164-0.584,0.164-0.908c0-0.457-0.139-0.819-0.416-1.087s-0.662-0.401-1.154-0.401c-0.355,0-0.692,0.059-1.011,0.176
		s-0.673,0.33-1.063,0.639l-0.516-0.662c0.789-0.656,1.648-0.984,2.578-0.984c0.805,0,1.436,0.206,1.893,0.618
		s0.686,0.966,0.686,1.661c0,0.543-0.152,1.08-0.457,1.611s-0.875,1.203-1.711,2.016l-1.875,1.834v0.047h4.406V465.565z"/>
</g>
<rect x="1143.312" y="456.998" fill="none" width="28.973" height="20.279"/>
<g enable-background="new    ">
	<path d="M1161.084,463.597h-1.271v1.969h-0.932v-1.969h-4.166v-0.85l4.066-5.795h1.031v5.76h1.271V463.597z M1158.881,462.712
		v-2.848c0-0.559,0.02-1.189,0.059-1.893h-0.047c-0.188,0.375-0.363,0.686-0.527,0.932l-2.678,3.809H1158.881z"/>
</g>
<rect x="1207.014" y="456.998" fill="none" width="28.974" height="20.279"/>
<g enable-background="new    ">
	<path d="M1218.85,461.903c0-1.684,0.327-2.942,0.981-3.776s1.622-1.251,2.903-1.251c0.441,0,0.789,0.037,1.043,0.111v0.838
		c-0.301-0.098-0.645-0.146-1.031-0.146c-0.918,0-1.619,0.286-2.104,0.858s-0.75,1.472-0.797,2.698h0.07
		c0.43-0.672,1.109-1.008,2.039-1.008c0.77,0,1.376,0.232,1.819,0.697s0.665,1.096,0.665,1.893c0,0.891-0.243,1.591-0.729,2.101
		s-1.144,0.765-1.972,0.765c-0.887,0-1.59-0.333-2.109-0.999S1218.85,463.091,1218.85,461.903z M1221.727,464.856
		c0.555,0,0.985-0.175,1.292-0.524s0.46-0.854,0.46-1.515c0-0.566-0.143-1.012-0.428-1.336s-0.711-0.486-1.277-0.486
		c-0.352,0-0.674,0.072-0.967,0.217s-0.526,0.344-0.7,0.598s-0.261,0.518-0.261,0.791c0,0.402,0.078,0.777,0.234,1.125
		s0.378,0.623,0.665,0.826S1221.359,464.856,1221.727,464.856z"/>
</g>
<rect x="819.681" y="456.998" fill="none" width="28.974" height="20.279"/>
<g enable-background="new    ">
	<path d="M834.094,460.333c0.902,0,1.612,0.224,2.13,0.671s0.776,1.06,0.776,1.837c0,0.887-0.282,1.582-0.847,2.086
		s-1.343,0.756-2.335,0.756c-0.965,0-1.701-0.154-2.209-0.463v-0.938c0.273,0.176,0.613,0.313,1.02,0.413s0.807,0.149,1.201,0.149
		c0.688,0,1.222-0.162,1.603-0.486s0.571-0.793,0.571-1.406c0-1.195-0.732-1.793-2.197-1.793c-0.371,0-0.867,0.057-1.488,0.17
		l-0.504-0.322l0.322-4.008h4.26v0.896h-3.428l-0.217,2.572C833.201,460.378,833.648,460.333,834.094,460.333z"/>
</g>
<rect x="109.014" y="456.998" fill="none" width="28.973" height="20.279"/>
<g enable-background="new    ">
	<path d="M118.322,462.794v-0.891h2.877v0.891H118.322z"/>
	<path d="M127.908,465.565h-5.631v-0.838l2.256-2.268c0.688-0.695,1.141-1.191,1.359-1.488s0.383-0.586,0.492-0.867
		s0.164-0.584,0.164-0.908c0-0.457-0.139-0.819-0.416-1.087s-0.662-0.401-1.154-0.401c-0.355,0-0.692,0.059-1.011,0.176
		s-0.673,0.33-1.063,0.639l-0.516-0.662c0.789-0.656,1.648-0.984,2.578-0.984c0.805,0,1.436,0.206,1.893,0.618
		s0.686,0.966,0.686,1.661c0,0.543-0.152,1.08-0.457,1.611s-0.875,1.203-1.711,2.016l-1.875,1.834v0.047h4.406V465.565z"/>
</g>
<rect x="313.764" y="456.998" fill="none" width="28.973" height="20.279"/>
<g enable-background="new    ">
	<path d="M329.104,465.565h-0.949v-6.105c0-0.508,0.016-0.988,0.047-1.441c-0.082,0.082-0.174,0.168-0.275,0.258
		s-0.566,0.471-1.395,1.143l-0.516-0.668l2.268-1.752h0.82V465.565z"/>
</g>
<rect x="382.014" y="456.998" fill="none" width="28.972" height="20.279"/>
<g enable-background="new    ">
	<path d="M399.381,465.565h-5.631v-0.838l2.256-2.268c0.688-0.695,1.141-1.191,1.359-1.488s0.383-0.586,0.492-0.867
		s0.164-0.584,0.164-0.908c0-0.457-0.139-0.819-0.416-1.087s-0.662-0.401-1.154-0.401c-0.355,0-0.692,0.059-1.011,0.176
		s-0.673,0.33-1.063,0.639l-0.516-0.662c0.789-0.656,1.648-0.984,2.578-0.984c0.805,0,1.436,0.206,1.893,0.618
		s0.686,0.966,0.686,1.661c0,0.543-0.152,1.08-0.457,1.611s-0.875,1.203-1.711,2.016l-1.875,1.834v0.047h4.406V465.565z"/>
</g>
<rect x="323.401" y="374.814" fill="none" width="28.973" height="20.278"/>
<g enable-background="new    ">
	<path d="M337.489,377.933c0,1.075-0.336,1.898-1.008,2.468s-1.628,0.854-2.868,0.854h-0.909v3.555h-2.119v-9.994h3.192
		c1.212,0,2.134,0.261,2.765,0.783C337.173,376.12,337.489,376.898,337.489,377.933z M332.704,379.519h0.697
		c0.652,0,1.139-0.129,1.463-0.387c0.324-0.257,0.485-0.632,0.485-1.124c0-0.497-0.136-0.863-0.407-1.101s-0.696-0.355-1.275-0.355
		h-0.964V379.519z"/>
	<path d="M343.901,384.81h-2.112v-5.783l0.021-0.95l0.034-1.039c-0.351,0.351-0.595,0.581-0.731,0.69l-1.148,0.923l-1.019-1.271
		l3.22-2.563h1.736V384.81z"/>
</g>
<rect x="563.929" y="335.451" fill="none" width="28.974" height="20.279"/>
<g enable-background="new    ">
	<path d="M578.016,338.569c0,1.075-0.336,1.898-1.008,2.468s-1.628,0.854-2.868,0.854h-0.909v3.555h-2.119v-9.994h3.192
		c1.212,0,2.134,0.261,2.765,0.783C577.701,336.757,578.016,337.535,578.016,338.569z M573.231,340.155h0.697
		c0.652,0,1.139-0.129,1.463-0.387c0.324-0.257,0.485-0.632,0.485-1.124c0-0.497-0.136-0.863-0.407-1.101s-0.696-0.355-1.275-0.355
		h-0.964V340.155z"/>
	<path d="M584.428,345.446h-2.112v-5.783l0.021-0.95l0.034-1.039c-0.351,0.351-0.595,0.581-0.731,0.69l-1.148,0.923l-1.019-1.271
		l3.22-2.563h1.736V345.446z"/>
</g>
<rect x="138.601" y="275.292" fill="none" width="108.973" height="20.279"/>
<g enable-background="new    ">
	<path d="M146.763,278.411c0,1.075-0.336,1.898-1.008,2.468s-1.628,0.854-2.868,0.854h-0.909v3.555h-2.119v-9.994h3.192
		c1.212,0,2.134,0.261,2.765,0.783C146.447,276.599,146.763,277.377,146.763,278.411z M141.978,279.997h0.697
		c0.652,0,1.139-0.129,1.463-0.387c0.324-0.257,0.485-0.632,0.485-1.124c0-0.497-0.136-0.863-0.407-1.101s-0.696-0.355-1.275-0.355
		h-0.964V279.997z"/>
	<path d="M154.549,277.529c0,0.624-0.189,1.155-0.567,1.593s-0.909,0.738-1.593,0.902v0.041c0.807,0.101,1.417,0.346,1.832,0.734
		c0.415,0.391,0.622,0.915,0.622,1.576c0,0.962-0.349,1.71-1.046,2.246c-0.697,0.535-1.693,0.803-2.987,0.803
		c-1.084,0-2.046-0.18-2.885-0.54v-1.798c0.387,0.196,0.813,0.355,1.278,0.479s0.925,0.185,1.381,0.185
		c0.697,0,1.212-0.118,1.545-0.355s0.499-0.617,0.499-1.142c0-0.47-0.191-0.802-0.574-0.998s-0.994-0.294-1.832-0.294h-0.759v-1.62
		h0.772c0.775,0,1.341-0.102,1.699-0.305c0.358-0.202,0.537-0.55,0.537-1.042c0-0.757-0.474-1.135-1.422-1.135
		c-0.328,0-0.662,0.055-1.001,0.164s-0.717,0.299-1.131,0.567l-0.978-1.456c0.912-0.656,1.999-0.984,3.261-0.984
		c1.035,0,1.852,0.21,2.451,0.629S154.549,276.782,154.549,277.529z"/>
	<path d="M159.621,279.785v-1.497h6.788v1.497H159.621z M159.621,282.431v-1.497h6.788v1.497H159.621z"/>
	<path d="M178.81,278.411c0,1.075-0.336,1.898-1.008,2.468s-1.628,0.854-2.868,0.854h-0.909v3.555h-2.119v-9.994h3.192
		c1.212,0,2.134,0.261,2.765,0.783C178.494,276.599,178.81,277.377,178.81,278.411z M174.024,279.997h0.697
		c0.652,0,1.139-0.129,1.463-0.387c0.324-0.257,0.485-0.632,0.485-1.124c0-0.497-0.136-0.863-0.407-1.101s-0.696-0.355-1.275-0.355
		h-0.964V279.997z"/>
	<path d="M185.222,285.288h-2.112v-5.783l0.021-0.95l0.034-1.039c-0.351,0.351-0.595,0.581-0.731,0.69l-1.148,0.923l-1.019-1.271
		l3.22-2.563h1.736V285.288z"/>
	<path d="M194.313,281.104h-2.646v-1.497h2.646v-2.666h1.497v2.666h2.646v1.497h-2.646v2.632h-1.497V281.104z"/>
	<path d="M210.856,278.411c0,1.075-0.336,1.898-1.008,2.468s-1.628,0.854-2.868,0.854h-0.909v3.555h-2.119v-9.994h3.192
		c1.212,0,2.134,0.261,2.765,0.783C210.541,276.599,210.856,277.377,210.856,278.411z M206.071,279.997h0.697
		c0.652,0,1.139-0.129,1.463-0.387c0.324-0.257,0.485-0.632,0.485-1.124c0-0.497-0.136-0.863-0.407-1.101s-0.696-0.355-1.275-0.355
		h-0.964V279.997z"/>
	<path d="M219.032,285.288h-6.986v-1.47l2.509-2.536c0.743-0.761,1.228-1.289,1.456-1.582c0.228-0.295,0.392-0.566,0.492-0.817
		s0.15-0.511,0.15-0.779c0-0.401-0.11-0.699-0.332-0.896s-0.516-0.294-0.885-0.294c-0.387,0-0.763,0.089-1.128,0.267
		s-0.745,0.431-1.142,0.759l-1.148-1.36c0.492-0.419,0.9-0.716,1.224-0.889s0.677-0.307,1.06-0.4c0.383-0.093,0.811-0.14,1.285-0.14
		c0.625,0,1.176,0.114,1.654,0.342s0.85,0.547,1.114,0.957s0.396,0.88,0.396,1.408c0,0.46-0.081,0.892-0.243,1.296
		c-0.162,0.402-0.413,0.816-0.752,1.24s-0.938,1.027-1.794,1.812l-1.285,1.21v0.096h4.354V285.288z"/>
</g>
<rect x="650.163" y="382.216" fill="none" width="108.974" height="20.279"/>
<g enable-background="new    ">
	<path d="M687.564,385.335c0,1.075-0.336,1.898-1.008,2.468s-1.628,0.854-2.867,0.854h-0.91v3.555h-2.119v-9.994h3.193
		c1.212,0,2.133,0.261,2.765,0.783C687.25,383.522,687.564,384.301,687.564,385.335z M682.78,386.921h0.697
		c0.652,0,1.139-0.129,1.462-0.387c0.324-0.257,0.486-0.632,0.486-1.124c0-0.497-0.137-0.863-0.407-1.101s-0.696-0.355-1.274-0.355
		h-0.964V386.921z"/>
	<path d="M693.977,392.212h-2.111v-5.783l0.02-0.95l0.035-1.039c-0.352,0.351-0.596,0.581-0.732,0.69l-1.148,0.923l-1.018-1.271
		l3.219-2.563h1.736V392.212z"/>
	<path d="M703.068,388.028h-2.645v-1.497h2.645v-2.666h1.498v2.666h2.645v1.497h-2.645v2.632h-1.498V388.028z"/>
	<path d="M719.611,385.335c0,1.075-0.336,1.898-1.008,2.468s-1.628,0.854-2.867,0.854h-0.91v3.555h-2.119v-9.994h3.193
		c1.212,0,2.133,0.261,2.765,0.783C719.297,383.522,719.611,384.301,719.611,385.335z M714.826,386.921h0.697
		c0.652,0,1.14-0.129,1.463-0.387c0.324-0.257,0.486-0.632,0.486-1.124c0-0.497-0.137-0.863-0.407-1.101s-0.696-0.355-1.274-0.355
		h-0.965V386.921z"/>
	<path d="M727.787,392.212h-6.986v-1.47l2.51-2.536c0.742-0.761,1.228-1.289,1.455-1.582c0.229-0.295,0.393-0.566,0.492-0.817
		c0.101-0.251,0.15-0.511,0.15-0.779c0-0.401-0.109-0.699-0.331-0.896s-0.517-0.294-0.886-0.294c-0.387,0-0.763,0.089-1.127,0.267
		c-0.365,0.178-0.746,0.431-1.143,0.759l-1.148-1.36c0.492-0.419,0.9-0.716,1.225-0.889c0.323-0.173,0.676-0.307,1.059-0.4
		c0.383-0.093,0.812-0.14,1.285-0.14c0.625,0,1.176,0.114,1.654,0.342s0.851,0.547,1.115,0.957c0.264,0.41,0.396,0.88,0.396,1.408
		c0,0.46-0.082,0.892-0.243,1.296c-0.161,0.402-0.413,0.816-0.752,1.24s-0.938,1.027-1.794,1.812l-1.285,1.21v0.096h4.354V392.212z"
		/>
	<path d="M732.471,386.709v-1.497h6.787v1.497H732.471z M732.471,389.354v-1.497h6.787v1.497H732.471z"/>
	<path d="M751.658,385.335c0,1.075-0.336,1.898-1.008,2.468s-1.628,0.854-2.867,0.854h-0.91v3.555h-2.119v-9.994h3.193
		c1.212,0,2.133,0.261,2.765,0.783C751.344,383.522,751.658,384.301,751.658,385.335z M746.873,386.921h0.697
		c0.652,0,1.14-0.129,1.463-0.387c0.324-0.257,0.486-0.632,0.486-1.124c0-0.497-0.137-0.863-0.407-1.101s-0.696-0.355-1.274-0.355
		h-0.965V386.921z"/>
	<path d="M759.445,384.453c0,0.624-0.189,1.155-0.568,1.593c-0.378,0.438-0.908,0.738-1.592,0.902v0.041
		c0.807,0.101,1.417,0.346,1.832,0.734c0.414,0.391,0.621,0.915,0.621,1.576c0,0.962-0.348,1.71-1.045,2.246
		c-0.697,0.535-1.693,0.803-2.988,0.803c-1.084,0-2.046-0.18-2.885-0.54v-1.798c0.388,0.196,0.814,0.355,1.279,0.479
		s0.925,0.185,1.381,0.185c0.697,0,1.212-0.118,1.545-0.355c0.332-0.237,0.498-0.617,0.498-1.142c0-0.47-0.191-0.802-0.574-0.998
		s-0.993-0.294-1.832-0.294h-0.758v-1.62h0.771c0.775,0,1.342-0.102,1.699-0.305c0.357-0.202,0.537-0.55,0.537-1.042
		c0-0.757-0.475-1.135-1.422-1.135c-0.328,0-0.662,0.055-1.002,0.164s-0.717,0.299-1.131,0.567l-0.979-1.456
		c0.912-0.656,1.999-0.984,3.262-0.984c1.034,0,1.852,0.21,2.45,0.629S759.445,383.706,759.445,384.453z"/>
</g>
<rect x="1065.559" y="331.762" fill="none" width="92.336" height="45.963"/>
<g enable-background="new    ">
	<path d="M1073.721,334.881c0,1.075-0.336,1.898-1.008,2.468c-0.673,0.569-1.629,0.854-2.868,0.854h-0.909v3.555h-2.119v-9.994
		h3.192c1.212,0,2.134,0.261,2.765,0.783C1073.405,333.068,1073.721,333.847,1073.721,334.881z M1068.936,336.467h0.697
		c0.652,0,1.139-0.129,1.463-0.387c0.324-0.257,0.485-0.632,0.485-1.124c0-0.497-0.136-0.863-0.407-1.101
		c-0.271-0.237-0.695-0.355-1.274-0.355h-0.964V336.467z"/>
	<path d="M1081.507,333.999c0,0.624-0.188,1.155-0.567,1.593s-0.909,0.738-1.593,0.902v0.041c0.807,0.101,1.417,0.346,1.832,0.734
		c0.415,0.391,0.622,0.915,0.622,1.576c0,0.962-0.349,1.71-1.046,2.246c-0.697,0.535-1.692,0.803-2.987,0.803
		c-1.084,0-2.047-0.18-2.885-0.54v-1.798c0.387,0.196,0.813,0.355,1.278,0.479s0.925,0.185,1.381,0.185
		c0.697,0,1.212-0.118,1.545-0.355s0.499-0.617,0.499-1.142c0-0.47-0.191-0.802-0.574-0.998s-0.994-0.294-1.832-0.294h-0.759v-1.62
		h0.772c0.775,0,1.341-0.102,1.699-0.305c0.357-0.202,0.536-0.55,0.536-1.042c0-0.757-0.474-1.135-1.422-1.135
		c-0.328,0-0.662,0.055-1.001,0.164c-0.34,0.109-0.717,0.299-1.132,0.567l-0.978-1.456c0.912-0.656,1.998-0.984,3.261-0.984
		c1.034,0,1.852,0.21,2.45,0.629C1081.207,332.668,1081.507,333.252,1081.507,333.999z"/>
	<path d="M1086.579,336.255v-1.497h6.788v1.497H1086.579z M1086.579,338.9v-1.497h6.788v1.497H1086.579z"/>
</g>
<g enable-background="new    ">
	<path d="M1073.721,351.682c0,1.075-0.336,1.898-1.008,2.468c-0.673,0.569-1.629,0.854-2.868,0.854h-0.909v3.555h-2.119v-9.994
		h3.192c1.212,0,2.134,0.261,2.765,0.783C1073.405,349.869,1073.721,350.647,1073.721,351.682z M1068.936,353.268h0.697
		c0.652,0,1.139-0.129,1.463-0.387c0.324-0.257,0.485-0.632,0.485-1.124c0-0.497-0.136-0.863-0.407-1.101
		c-0.271-0.237-0.695-0.355-1.274-0.355h-0.964V353.268z"/>
	<path d="M1080.133,358.559h-2.112v-5.783l0.021-0.95l0.034-1.039c-0.351,0.351-0.595,0.581-0.731,0.69l-1.148,0.923l-1.019-1.271
		l3.22-2.563h1.736V358.559z"/>
	<path d="M1089.225,354.375h-2.646v-1.497h2.646v-2.666h1.497v2.666h2.646v1.497h-2.646v2.632h-1.497V354.375z"/>
	<path d="M1105.768,351.682c0,1.075-0.336,1.898-1.008,2.468c-0.673,0.569-1.629,0.854-2.868,0.854h-0.909v3.555h-2.119v-9.994
		h3.192c1.212,0,2.134,0.261,2.765,0.783C1105.452,349.869,1105.768,350.647,1105.768,351.682z M1100.982,353.268h0.697
		c0.652,0,1.139-0.129,1.463-0.387c0.324-0.257,0.485-0.632,0.485-1.124c0-0.497-0.136-0.863-0.407-1.101
		c-0.271-0.237-0.695-0.355-1.274-0.355h-0.964V353.268z"/>
	<path d="M1113.943,358.559h-6.986v-1.47l2.509-2.536c0.743-0.761,1.228-1.289,1.456-1.582c0.229-0.295,0.393-0.566,0.492-0.817
		s0.15-0.511,0.15-0.779c0-0.401-0.11-0.699-0.332-0.896c-0.221-0.196-0.516-0.294-0.885-0.294c-0.387,0-0.764,0.089-1.128,0.267
		s-0.745,0.431-1.142,0.759l-1.148-1.36c0.492-0.419,0.9-0.716,1.224-0.889s0.677-0.307,1.06-0.4c0.383-0.093,0.811-0.14,1.285-0.14
		c0.625,0,1.176,0.114,1.654,0.342s0.85,0.547,1.114,0.957s0.396,0.88,0.396,1.408c0,0.46-0.081,0.892-0.243,1.296
		c-0.161,0.402-0.412,0.816-0.752,1.24c-0.339,0.424-0.938,1.027-1.794,1.812l-1.285,1.21v0.096h4.354V358.559z"/>
</g>
<line opacity="0.1" fill="none" stroke="#000000" stroke-width="1.4487" stroke-miterlimit="10" enable-background="new    " x1="413.108" y1="395.094" x2="111.812" y2="395.094"/>
<path fill="none" stroke="#E15218" stroke-width="1.5" stroke-miterlimit="10" d="M128.375,298.625C128.375,362.938,181,384,260,384
	c71,0,95.5,9,153.108,52.5"/>
<path fill="none" stroke="#E15218" stroke-width="1.5" stroke-miterlimit="10" d="M128.375,298.625
	c0-64.312,52.625-85.375,131.625-85.375c71,0,95.5-9,153.108-52.5"/>
<circle cx="327.25" cy="389.667" r="2.599"/>
<circle cx="361.243" cy="402.349" r="2.599"/>
<circle cx="130.002" cy="280.833" r="2.599"/>
<g>
	
		<line opacity="0.1" fill="none" stroke="#000000" stroke-width="1.4487" stroke-miterlimit="10" enable-background="new    " x1="413.108" y1="427.25" x2="111.812" y2="427.25"/>
	
		<line opacity="0.1" fill="none" stroke="#000000" stroke-width="1.4487" stroke-miterlimit="10" enable-background="new    " x1="396.5" y1="450.354" x2="396.5" y2="149.057"/>
	
		<line opacity="0.1" fill="none" stroke="#000000" stroke-width="1.4487" stroke-miterlimit="10" enable-background="new    " x1="413.108" y1="170" x2="111.812" y2="170"/>
	
		<line opacity="0.1" fill="none" stroke="#000000" stroke-width="1.4487" stroke-miterlimit="10" enable-background="new    " x1="413.108" y1="202.156" x2="111.812" y2="202.157"/>
	
		<line opacity="0.1" fill="none" stroke="#000000" stroke-width="1.4487" stroke-miterlimit="10" enable-background="new    " x1="413.108" y1="234.312" x2="111.812" y2="234.313"/>
	
		<line opacity="0.1" fill="none" stroke="#000000" stroke-width="1.4487" stroke-miterlimit="10" enable-background="new    " x1="413.108" y1="266.469" x2="111.812" y2="266.469"/>
	
		<line opacity="0.1" fill="none" stroke="#000000" stroke-width="1.4487" stroke-miterlimit="10" enable-background="new    " x1="413.108" y1="330.781" x2="111.812" y2="330.782"/>
	
		<line opacity="0.1" fill="none" stroke="#000000" stroke-width="1.4487" stroke-miterlimit="10" enable-background="new    " x1="413.108" y1="362.938" x2="111.812" y2="362.938"/>
	
		<line opacity="0.1" fill="none" stroke="#000000" stroke-width="1.4487" stroke-miterlimit="10" enable-background="new    " x1="328.25" y1="450.354" x2="328.25" y2="149.057"/>
	
		<line opacity="0.1" fill="none" stroke="#000000" stroke-width="1.4487" stroke-miterlimit="10" enable-background="new    " x1="191.75" y1="450.354" x2="191.75" y2="149.057"/>
	
		<line opacity="0.1" fill="none" stroke="#000000" stroke-width="1.4487" stroke-miterlimit="10" enable-background="new    " x1="123.5" y1="450.354" x2="123.5" y2="149.057"/>
</g>
<g>
	<rect x="359.125" y="386.61" fill="none" width="28.973" height="20.278"/>
	<g enable-background="new    ">
		<path d="M373.212,389.729c0,1.075-0.336,1.898-1.008,2.468s-1.628,0.854-2.868,0.854h-0.909v3.555h-2.119v-9.994h3.192
			c1.212,0,2.134,0.261,2.765,0.783C372.896,387.916,373.212,388.694,373.212,389.729z M368.427,391.314h0.697
			c0.652,0,1.139-0.129,1.463-0.387c0.324-0.257,0.485-0.632,0.485-1.124c0-0.497-0.136-0.863-0.407-1.101s-0.696-0.355-1.275-0.355
			h-0.964V391.314z"/>
		<path d="M381.388,396.605h-6.986v-1.47l2.509-2.536c0.743-0.761,1.228-1.289,1.456-1.582c0.228-0.295,0.392-0.566,0.492-0.817
			s0.15-0.511,0.15-0.779c0-0.401-0.11-0.699-0.332-0.896s-0.516-0.294-0.885-0.294c-0.387,0-0.763,0.089-1.128,0.267
			s-0.745,0.431-1.142,0.759l-1.148-1.36c0.492-0.419,0.9-0.716,1.224-0.889s0.677-0.307,1.06-0.4
			c0.383-0.093,0.811-0.14,1.285-0.14c0.625,0,1.176,0.114,1.654,0.342s0.85,0.547,1.114,0.957s0.396,0.88,0.396,1.408
			c0,0.46-0.081,0.892-0.243,1.296c-0.162,0.402-0.413,0.816-0.752,1.24s-0.938,1.027-1.794,1.812l-1.285,1.21v0.096h4.354V396.605z
			"/>
	</g>
</g>
<g>
	<rect x="691.078" y="231.61" fill="none" width="28.973" height="20.279"/>
	<g enable-background="new    ">
		<path d="M705.165,234.729c0,1.075-0.336,1.898-1.009,2.468c-0.672,0.569-1.627,0.854-2.867,0.854h-0.909v3.555h-2.119v-9.994
			h3.192c1.213,0,2.134,0.261,2.766,0.783C704.85,232.916,705.165,233.694,705.165,234.729z M700.38,236.314h0.697
			c0.651,0,1.14-0.129,1.463-0.387c0.323-0.257,0.485-0.632,0.485-1.124c0-0.497-0.136-0.863-0.406-1.101
			c-0.271-0.237-0.697-0.355-1.275-0.355h-0.964V236.314z"/>
		<path d="M713.341,241.605h-6.986v-1.47l2.509-2.536c0.742-0.761,1.229-1.289,1.456-1.582c0.228-0.295,0.392-0.566,0.492-0.817
			s0.15-0.511,0.15-0.779c0-0.401-0.11-0.699-0.331-0.896c-0.222-0.196-0.517-0.294-0.886-0.294c-0.388,0-0.763,0.089-1.128,0.267
			s-0.745,0.431-1.142,0.759l-1.148-1.36c0.492-0.419,0.899-0.716,1.224-0.889s0.677-0.307,1.06-0.4
			c0.383-0.093,0.812-0.14,1.285-0.14c0.624,0,1.176,0.114,1.654,0.342s0.851,0.547,1.114,0.957s0.396,0.88,0.396,1.408
			c0,0.46-0.081,0.892-0.242,1.296c-0.162,0.402-0.413,0.816-0.752,1.24c-0.34,0.424-0.938,1.027-1.795,1.812l-1.285,1.21v0.096
			h4.354V241.605z"/>
	</g>
</g>
<rect x="980.929" y="322.787" fill="none" width="28.975" height="20.279"/>
<g enable-background="new    ">
	<path d="M995.016,325.904c0,1.075-0.336,1.898-1.008,2.468c-0.673,0.569-1.629,0.854-2.868,0.854h-0.909v3.555h-2.119v-9.994h3.192
		c1.212,0,2.134,0.261,2.765,0.783C994.7,324.092,995.016,324.87,995.016,325.904z M990.23,327.49h0.697
		c0.652,0,1.139-0.129,1.463-0.387c0.324-0.257,0.485-0.632,0.485-1.124c0-0.497-0.136-0.863-0.407-1.101
		c-0.271-0.237-0.695-0.355-1.274-0.355h-0.964V327.49z"/>
	<path d="M1001.428,332.781h-2.112v-5.783l0.021-0.95l0.034-1.039c-0.351,0.351-0.595,0.581-0.731,0.69l-1.148,0.923l-1.019-1.271
		l3.22-2.563h1.736V332.781z"/>
</g>
<g>
	<rect x="1164.126" y="205.136" fill="none" width="28.973" height="20.279"/>
	<g enable-background="new    ">
		<path d="M1178.213,208.254c0,1.075-0.336,1.898-1.008,2.468c-0.673,0.569-1.629,0.854-2.868,0.854h-0.909v3.555h-2.119v-9.994
			h3.192c1.212,0,2.134,0.261,2.765,0.783C1177.897,206.441,1178.213,207.22,1178.213,208.254z M1173.428,209.84h0.697
			c0.652,0,1.139-0.129,1.463-0.387c0.324-0.257,0.485-0.632,0.485-1.124c0-0.497-0.136-0.863-0.407-1.101
			c-0.271-0.237-0.695-0.355-1.274-0.355h-0.964V209.84z"/>
		<path d="M1186.389,215.131h-6.986v-1.47l2.509-2.536c0.743-0.761,1.228-1.289,1.456-1.582c0.229-0.295,0.393-0.566,0.492-0.817
			s0.15-0.511,0.15-0.779c0-0.401-0.11-0.699-0.332-0.896c-0.221-0.196-0.516-0.294-0.885-0.294c-0.387,0-0.764,0.089-1.128,0.267
			s-0.745,0.431-1.142,0.759l-1.148-1.36c0.492-0.419,0.9-0.716,1.224-0.889s0.677-0.307,1.06-0.4
			c0.383-0.093,0.811-0.14,1.285-0.14c0.625,0,1.176,0.114,1.654,0.342s0.85,0.547,1.114,0.957s0.396,0.88,0.396,1.408
			c0,0.46-0.081,0.892-0.243,1.296c-0.161,0.402-0.412,0.816-0.752,1.24c-0.339,0.424-0.938,1.027-1.794,1.812l-1.285,1.21v0.096
			h4.354V215.131z"/>
	</g>
</g>
<line opacity="0.1" fill="none" stroke="#000000" stroke-width="1.4487" stroke-miterlimit="10" enable-background="new    " x1="579.5" y1="449.273" x2="579.5" y2="147.977"/>
<line opacity="0.1" fill="none" stroke="#000000" stroke-width="1.4487" stroke-miterlimit="10" enable-background="new    " x1="664.389" y1="449.273" x2="664.389" y2="147.977"/>
<line opacity="0.1" fill="none" stroke="#000000" stroke-width="1.4487" stroke-miterlimit="10" enable-background="new    " x1="845.148" y1="184.5" x2="543.852" y2="184.5"/>
<line opacity="0.1" fill="none" stroke="#000000" stroke-width="1.4487" stroke-miterlimit="10" enable-background="new    " x1="845.148" y1="241.75" x2="543.852" y2="241.75"/>
<line opacity="0.1" fill="none" stroke="#000000" stroke-width="1.4487" stroke-miterlimit="10" enable-background="new    " x1="845.148" y1="356.25" x2="543.852" y2="356.25"/>
<line opacity="0.1" fill="none" stroke="#000000" stroke-width="1.4487" stroke-miterlimit="10" enable-background="new    " x1="845.148" y1="413.5" x2="543.852" y2="413.5"/>
<line opacity="0.1" fill="none" stroke="#000000" stroke-width="1.4487" stroke-miterlimit="10" enable-background="new    " x1="1262.375" y1="430.25" x2="961.078" y2="430.25"/>
<line opacity="0.1" fill="none" stroke="#000000" stroke-width="1.4487" stroke-miterlimit="10" enable-background="new    " x1="1262.375" y1="397.031" x2="961.078" y2="397.031"/>
<line opacity="0.1" fill="none" stroke="#000000" stroke-width="1.4487" stroke-miterlimit="10" enable-background="new    " x1="1262.375" y1="363.812" x2="961.078" y2="363.812"/>
<line opacity="0.1" fill="none" stroke="#000000" stroke-width="1.4487" stroke-miterlimit="10" enable-background="new    " x1="1262.375" y1="330.594" x2="961.078" y2="330.594"/>
<line opacity="0.1" fill="none" stroke="#000000" stroke-width="1.4487" stroke-miterlimit="10" enable-background="new    " x1="1262.375" y1="264.156" x2="961.078" y2="264.156"/>
<line opacity="0.1" fill="none" stroke="#000000" stroke-width="1.4487" stroke-miterlimit="10" enable-background="new    " x1="1262.375" y1="230.938" x2="961.078" y2="230.938"/>
<line opacity="0.1" fill="none" stroke="#000000" stroke-width="1.4487" stroke-miterlimit="10" enable-background="new    " x1="1262.375" y1="197.719" x2="961.078" y2="197.719"/>
<line fill="none" stroke="#000000" stroke-width="1.4487" stroke-miterlimit="10" x1="845.148" y1="299" x2="535.5" y2="299"/>
<line fill="none" stroke="#000000" stroke-width="1.4487" stroke-miterlimit="10" x1="1270.727" y1="297.375" x2="961.078" y2="297.375"/>
<line fill="none" stroke="#000000" stroke-width="1.4487" stroke-miterlimit="10" x1="621.945" y1="449.273" x2="621.945" y2="147.977"/>
<line fill="none" stroke="#000000" stroke-width="1.4487" stroke-miterlimit="10" x1="1030.167" y1="449.273" x2="1030.167" y2="147.977"/>
<line opacity="0.1" fill="none" stroke="#000000" stroke-width="1.4487" stroke-miterlimit="10" enable-background="new    " x1="706.834" y1="449.273" x2="706.834" y2="147.977"/>
<line opacity="0.1" fill="none" stroke="#000000" stroke-width="1.4487" stroke-miterlimit="10" enable-background="new    " x1="749.278" y1="449.273" x2="749.278" y2="147.977"/>
<line opacity="0.1" fill="none" stroke="#000000" stroke-width="1.4487" stroke-miterlimit="10" enable-background="new    " x1="791.723" y1="449.273" x2="791.723" y2="147.977"/>
<line opacity="0.1" fill="none" stroke="#000000" stroke-width="1.4487" stroke-miterlimit="10" enable-background="new    " x1="834.167" y1="449.273" x2="834.167" y2="147.977"/>
<line opacity="0.1" fill="none" stroke="#000000" stroke-width="1.4487" stroke-miterlimit="10" enable-background="new    " x1="1094.166" y1="449.273" x2="1094.166" y2="147.977"/>
<line opacity="0.1" fill="none" stroke="#000000" stroke-width="1.4487" stroke-miterlimit="10" enable-background="new    " x1="1157.5" y1="449.273" x2="1157.5" y2="147.977"/>
<line opacity="0.1" fill="none" stroke="#000000" stroke-width="1.4487" stroke-miterlimit="10" enable-background="new    " x1="1221.5" y1="449.273" x2="1221.5" y2="147.977"/>
<path fill="none" stroke="#E15218" stroke-width="1.5" stroke-miterlimit="10" d="M540.5,299.705
	c0,18.295,28.987,29.92,81.445,29.545c58.222-0.417,97.221,12.916,146.888,49.583S840.5,436.5,840.5,436.5"/>
<path fill="none" stroke="#E15218" stroke-width="1.5" stroke-miterlimit="10" d="M540.5,298.085
	c0-18.295,28.987-29.92,81.445-29.545c58.222,0.416,97.221-12.916,146.888-49.583S840.5,161.29,840.5,161.29"/>
<circle cx="768" cy="378.083" r="2.599"/>
<circle cx="705.564" cy="254.901" r="2.599"/>
<circle cx="579.5" cy="326.686" r="2.599"/>
<polyline fill="none" stroke="#000000" stroke-width="1.4487" stroke-miterlimit="10" points="579.5,326.686 767.633,219.64 
	768,378.083 "/>
<path fill="none" stroke="#E15218" stroke-width="1.5" stroke-miterlimit="10" d="M969.333,297.423
	c0-11.959,23.516-17.997,60.5-16.959c90.417,2.536,147.334-49.526,231.542-114.666"/>
<path fill="none" stroke="#E15218" stroke-width="1.5" stroke-miterlimit="10" d="M969.333,298c0,11.959,23.516,17.997,60.5,16.959
	c90.417-2.536,147.334,49.526,231.542,114.666"/>
<circle cx="998.833" cy="313.901" r="2.599"/>
<circle cx="1189.5" cy="221.237" r="2.599"/>
<line fill="none" stroke="#000000" stroke-width="1.4487" stroke-miterlimit="10" x1="998.833" y1="313.901" x2="1189.5" y2="221.238"/>
<circle cx="1074.75" cy="318.438" r="2.599"/>
<line fill="none" stroke="#000000" stroke-width="1.4487" stroke-miterlimit="10" x1="1074.75" y1="318.438" x2="1074.75" y2="277.006"/>
</svg>
