<?xml version="1.0" encoding="utf-8"?>
<!-- Generator: Adobe Illustrator 16.0.4, SVG Export Plug-In . SVG Version: 6.00 Build 0)  -->
<!DOCTYPE svg PUBLIC "-//W3C//DTD SVG 1.1//EN" "http://www.w3.org/Graphics/SVG/1.1/DTD/svg11.dtd">
<svg version="1.1" id="Layer_1" xmlns="http://www.w3.org/2000/svg" xmlns:xlink="http://www.w3.org/1999/xlink" x="0px" y="0px"
	 width="1366px" height="768px" viewBox="0 0 1366 768" enable-background="new 0 0 1366 768" xml:space="preserve">
<rect x="221.399" y="525.382" fill="none" width="88.667" height="28.551"/>
<text transform="matrix(1 0 0 1 221.3989 541.0898)"><tspan x="0" y="0" font-family="'HelveticaNeue-Bold'" font-size="22" letter-spacing="1">G</tspan><tspan x="18.348" y="0" font-family="'HelveticaNeue'" font-size="22" letter-spacing="1">(6,7)</tspan></text>
<rect x="315.596" y="476.478" fill="none" width="132.904" height="28.551"/>
<text transform="matrix(1 0 0 1 315.5962 492.1855)"><tspan x="0" y="0" font-family="'HelveticaNeue-Bold'" font-size="22">2</tspan><tspan x="12.232" y="0" font-family="'HelveticaNeue-Bold'" font-size="22" letter-spacing="1">G</tspan><tspan x="30.58" y="0" font-family="'HelveticaNeue'" font-size="22" letter-spacing="1">(</tspan><tspan x="37.927" y="0" font-family="'HelveticaNeue'" font-size="22">12</tspan><tspan x="62.391" y="0" font-family="'HelveticaNeue'" font-size="22" letter-spacing="1">,</tspan><tspan x="70.157" y="0" font-family="'HelveticaNeue'" font-size="22">1</tspan><tspan x="82.389" y="0" font-family="'HelveticaNeue'" font-size="22" letter-spacing="1">3)</tspan></text>
<rect x="318.831" y="374.266" fill="none" width="161.938" height="28.551"/>
<text transform="matrix(1 0 0 1 318.8311 389.9736)"><tspan x="0" y="0" font-family="'HelveticaNeue-Bold'" font-size="22">3</tspan><tspan x="12.232" y="0" font-family="'HelveticaNeue-Bold'" font-size="22" letter-spacing="1">G</tspan><tspan x="30.58" y="0" font-family="'HelveticaNeue'" font-size="22" letter-spacing="1">(</tspan><tspan x="37.927" y="0" font-family="'HelveticaNeue'" font-size="22">12</tspan><tspan x="62.391" y="0" font-family="'HelveticaNeue'" font-size="22" letter-spacing="1">,</tspan><tspan x="70.157" y="0" font-family="'HelveticaNeue'" font-size="22">1</tspan><tspan x="82.389" y="0" font-family="'HelveticaNeue'" font-size="22" letter-spacing="1">6)</tspan></text>
<rect x="218.728" y="334.048" fill="none" width="161.938" height="28.551"/>
<text transform="matrix(1 0 0 1 218.728 349.7568)"><tspan x="0" y="0" font-family="'HelveticaNeue-Bold'" font-size="22">4</tspan><tspan x="12.232" y="0" font-family="'HelveticaNeue-Bold'" font-size="22" letter-spacing="1">G</tspan><tspan x="30.58" y="0" font-family="'HelveticaNeue'" font-size="22" letter-spacing="1">(</tspan><tspan x="37.927" y="0" font-family="'HelveticaNeue'" font-size="22">6</tspan><tspan x="50.159" y="0" font-family="'HelveticaNeue'" font-size="22" letter-spacing="1">,</tspan><tspan x="57.925" y="0" font-family="'HelveticaNeue'" font-size="22">22</tspan><tspan x="82.389" y="0" font-family="'HelveticaNeue'" font-size="22" letter-spacing="1">)</tspan></text>
<line fill="none" stroke="#E15218" stroke-linecap="round" stroke-miterlimit="10" enable-background="new    " x1="210.012" y1="547.168" x2="222.667" y2="540.667"/>
<line fill="none" stroke="#E15218" stroke-linecap="round" stroke-miterlimit="10" enable-background="new    " x1="303.739" y1="454.851" x2="315.596" y2="473.234"/>
<line fill="none" stroke="#E15218" stroke-linecap="round" stroke-miterlimit="10" enable-background="new    " x1="303.739" y1="408.084" x2="318.831" y2="392.5"/>
<line fill="none" stroke="#E15218" stroke-linecap="round" stroke-miterlimit="10" enable-background="new    " x1="209.749" y1="316.016" x2="219.625" y2="329.25"/>
</svg>
