<?xml version="1.0" encoding="utf-8"?>
<!-- Generator: Adobe Illustrator 16.0.4, SVG Export Plug-In . SVG Version: 6.00 Build 0)  -->
<!DOCTYPE svg PUBLIC "-//W3C//DTD SVG 1.1//EN" "http://www.w3.org/Graphics/SVG/1.1/DTD/svg11.dtd">
<svg version="1.1" id="Layer_1" xmlns="http://www.w3.org/2000/svg" xmlns:xlink="http://www.w3.org/1999/xlink" x="0px" y="0px"
	 width="482.591px" height="470.611px" viewBox="0 0 482.591 470.611" enable-background="new 0 0 482.591 470.611"
	 xml:space="preserve">
<line opacity="0.22" fill="none" stroke="#000000" stroke-width="1.5" stroke-miterlimit="10" x1="121.382" y1="429.853" x2="121.381" y2="0"/>
<line fill="none" stroke="#000000" stroke-width="1.5" stroke-miterlimit="10" x1="41.985" y1="429.853" x2="41.985" y2="0"/>
<line opacity="0.22" fill="none" stroke="#000000" stroke-width="1.5" stroke-miterlimit="10" x1="199.146" y1="429.853" x2="199.146" y2="0"/>
<line opacity="0.22" fill="none" stroke="#000000" stroke-width="1.5" stroke-miterlimit="10" x1="276.912" y1="429.853" x2="276.912" y2="0"/>
<line opacity="0.22" fill="none" stroke="#000000" stroke-width="1.5" stroke-miterlimit="10" x1="354.676" y1="429.853" x2="354.676" y2="0"/>
<line opacity="0.22" fill="none" stroke="#000000" stroke-width="1.5" stroke-miterlimit="10" x1="432.441" y1="429.853" x2="432.441" y2="0"/>
<line opacity="0.22" fill="none" stroke="#000000" stroke-width="1.5" stroke-miterlimit="10" x1="479.356" y1="353.456" x2="41.985" y2="353.457"/>
<line fill="none" stroke="#000000" stroke-width="1.5" stroke-miterlimit="10" x1="479.356" y1="429.852" x2="41.985" y2="429.853"/>
<line opacity="0.22" fill="none" stroke="#000000" stroke-width="1.5" stroke-miterlimit="10" x1="479.356" y1="276.441" x2="41.985" y2="276.441"/>
<line opacity="0.22" fill="none" stroke="#000000" stroke-width="1.5" stroke-miterlimit="10" x1="479.356" y1="199.426" x2="41.985" y2="199.426"/>
<line opacity="0.22" fill="none" stroke="#000000" stroke-width="1.5" stroke-miterlimit="10" x1="479.356" y1="122.411" x2="41.985" y2="122.411"/>
<line opacity="0.22" fill="none" stroke="#000000" stroke-width="1.5" stroke-miterlimit="10" x1="479.356" y1="45.396" x2="41.985" y2="45.396"/>
<rect x="27.499" y="450.332" fill="none" width="28.972" height="20.279"/>
<text transform="matrix(1 0 0 1 35.2729 467.5698)" font-family="'HelveticaNeue'" font-size="24.1451">0</text>
<rect y="422.999" fill="none" width="28.972" height="20.279"/>
<text transform="matrix(1 0 0 1 7.7739 440.2368)" font-family="'HelveticaNeue'" font-size="24.1451">0</text>
<rect y="343.316" fill="none" width="28.972" height="20.279"/>
<text transform="matrix(1 0 0 1 7.7739 360.5542)" font-family="'HelveticaNeue'" font-size="24.1451">5</text>
<rect y="266.301" fill="none" width="28.972" height="20.279"/>
<text transform="matrix(1 0 0 1 1.0615 283.5396)" font-family="'HelveticaNeue'" font-size="24.1451">10</text>
<rect y="189.287" fill="none" width="28.972" height="20.279"/>
<text transform="matrix(1 0 0 1 1.0615 206.5249)" font-family="'HelveticaNeue'" font-size="24.1451">15</text>
<rect y="112.271" fill="none" width="28.972" height="20.279"/>
<text transform="matrix(1 0 0 1 1.0615 129.5103)" font-family="'HelveticaNeue'" font-size="24.1451">20</text>
<rect y="35.256" fill="none" width="28.972" height="20.279"/>
<text transform="matrix(1 0 0 1 1.0615 52.4946)" font-family="'HelveticaNeue'" font-size="24.1451">25</text>
<rect x="106.896" y="450.332" fill="none" width="28.972" height="20.279"/>
<text transform="matrix(1 0 0 1 114.6694 467.5698)" font-family="'HelveticaNeue'" font-size="24.1451">5</text>
<rect x="183.66" y="450.332" fill="none" width="28.972" height="20.279"/>
<text transform="matrix(1 0 0 1 184.7217 467.5698)" font-family="'HelveticaNeue'" font-size="24.1451">10</text>
<rect x="260.67" y="450.332" fill="none" width="28.972" height="20.279"/>
<text transform="matrix(1 0 0 1 261.7319 467.5698)" font-family="'HelveticaNeue'" font-size="24.1451">15</text>
<rect x="340.19" y="450.332" fill="none" width="28.972" height="20.279"/>
<text transform="matrix(1 0 0 1 341.2515 467.5698)" font-family="'HelveticaNeue'" font-size="24.1451">20</text>
<rect x="418.19" y="450.332" fill="none" width="28.972" height="20.279"/>
<text transform="matrix(1 0 0 1 419.2515 467.5698)" font-family="'HelveticaNeue'" font-size="24.1451">25</text>
<circle fill="#E15218" enable-background="new    " cx="121.381" cy="368.382" r="3.235"/>
<circle fill="#E15218" enable-background="new    " cx="136.868" cy="322.715" r="3.235"/>
<circle fill="#E15218" enable-background="new    " cx="229.788" cy="230.381" r="3.235"/>
<circle fill="#E15218" enable-background="new    " cx="229.788" cy="183.631" r="3.235"/>
<circle fill="#E15218" enable-background="new    " cx="41.985" cy="337.381" r="3.235"/>
<circle fill="#E15218" enable-background="new    " cx="105.022" cy="276.44" r="3.235"/>
<circle fill="#E15218" enable-background="new    " cx="90.022" cy="260.714" r="3.235"/>
<circle fill="#E15218" enable-background="new    " cx="89.622" cy="153.048" r="3.235"/>
<circle fill="#E15218" enable-background="new    " cx="105.455" cy="138.147" r="3.235"/>
<circle fill="#E15218" enable-background="new    " cx="214.455" cy="399.381" r="3.235"/>
<circle fill="#E15218" enable-background="new    " cx="245.687" cy="429.853" r="3.235"/>
<circle fill="#E15218" enable-background="new    " cx="260.67" cy="353.457" r="3.235"/>
<circle fill="#E15218" enable-background="new    " cx="41.985" cy="76.548" r="3.235"/>
<circle fill="#E15218" enable-background="new    " cx="121.381" cy="45.396" r="3.235"/>
<circle fill="#E15218" enable-background="new    " cx="136.604" cy="91.564" r="3.235"/>
<circle fill="#E15218" enable-background="new    " cx="214.356" cy="15.048" r="3.235"/>
<circle fill="#E15218" enable-background="new    " cx="261.087" cy="60.714" r="3.235"/>
<circle fill="#E15218" enable-background="new    " cx="338.553" cy="214.926" r="3.235"/>
<circle fill="#E15218" enable-background="new    " cx="338.553" cy="199.426" r="3.235"/>
<circle fill="#E15218" enable-background="new    " cx="401.022" cy="122.411" r="3.235"/>
<circle fill="#E15218" enable-background="new    " cx="479.356" cy="107.048" r="3.235"/>
<circle fill="#E15218" enable-background="new    " cx="447.788" cy="30.382" r="3.235"/>
<circle fill="#E15218" enable-background="new    " cx="479.356" cy="307.048" r="3.235"/>
<circle fill="#E15218" enable-background="new    " cx="463.356" cy="245.548" r="3.235"/>
<circle fill="#E15218" enable-background="new    " cx="401.022" cy="291.282" r="3.235"/>
<circle fill="#E15218" enable-background="new    " cx="448.257" cy="383.618" r="3.235"/>
<circle fill="#E15218" enable-background="new    " cx="432.441" cy="414.725" r="3.235"/>
<g>
	<path d="M159.079,316.517c-0.748,0.315-1.504,0.473-2.266,0.473c-1.203,0-2.285-0.209-3.245-0.627
		c-0.961-0.418-1.771-0.993-2.431-1.727c-0.66-0.733-1.166-1.595-1.518-2.585c-0.352-0.99-0.528-2.057-0.528-3.201
		c0-1.173,0.176-2.262,0.528-3.267c0.352-1.005,0.858-1.881,1.518-2.629c0.66-0.748,1.47-1.335,2.431-1.761
		c0.96-0.425,2.042-0.638,3.245-0.638c0.806,0,1.587,0.121,2.343,0.363s1.438,0.598,2.046,1.066c0.609,0.47,1.111,1.049,1.507,1.738
		s0.638,1.481,0.726,2.376h-3.3c-0.206-0.88-0.602-1.54-1.188-1.979c-0.587-0.44-1.298-0.66-2.134-0.66
		c-0.778,0-1.438,0.15-1.98,0.451c-0.543,0.301-0.983,0.703-1.32,1.21c-0.337,0.506-0.583,1.081-0.737,1.727
		s-0.231,1.312-0.231,2.002c0,0.66,0.077,1.302,0.231,1.925c0.154,0.624,0.399,1.185,0.737,1.684
		c0.337,0.498,0.777,0.898,1.32,1.198c0.542,0.301,1.202,0.451,1.98,0.451c1.144,0,2.027-0.289,2.651-0.869
		c0.623-0.579,0.986-1.419,1.089-2.519h-3.476v-2.574h6.6v8.492h-2.2l-0.352-1.782C160.509,315.648,159.827,316.202,159.079,316.517
		z"/>
	<path d="M169.661,318.519c-0.426-0.813-0.789-1.639-1.089-2.475c-0.301-0.836-0.532-1.694-0.693-2.574
		c-0.162-0.88-0.242-1.804-0.242-2.772c0-1.73,0.289-3.476,0.869-5.235s1.441-3.396,2.585-4.906h1.43
		c-1.056,1.672-1.804,3.33-2.244,4.972c-0.44,1.644-0.66,3.366-0.66,5.17c0,1.849,0.223,3.602,0.671,5.259
		c0.447,1.657,1.191,3.329,2.233,5.016h-1.43C170.562,320.151,170.086,319.333,169.661,318.519z"/>
	<path d="M182.244,303.329c-0.455-0.426-1.056-0.639-1.804-0.639c-0.792,0-1.43,0.194-1.914,0.583
		c-0.484,0.389-0.862,0.88-1.133,1.475c-0.271,0.594-0.458,1.235-0.561,1.925s-0.162,1.335-0.176,1.936l0.044,0.044
		c0.44-0.718,0.986-1.239,1.639-1.562c0.652-0.322,1.404-0.484,2.255-0.484c0.748,0,1.419,0.129,2.013,0.385
		c0.594,0.257,1.092,0.613,1.496,1.067c0.403,0.455,0.715,0.99,0.935,1.606c0.22,0.615,0.33,1.283,0.33,2.002
		c0,0.571-0.088,1.166-0.264,1.781c-0.176,0.616-0.466,1.178-0.869,1.684c-0.404,0.506-0.939,0.924-1.606,1.254
		c-0.668,0.33-1.493,0.495-2.475,0.495c-1.159,0-2.09-0.235-2.794-0.704c-0.704-0.47-1.247-1.07-1.628-1.804
		c-0.382-0.733-0.635-1.54-0.759-2.42c-0.125-0.881-0.187-1.73-0.187-2.553c0-1.07,0.091-2.108,0.275-3.112
		c0.184-1.005,0.495-1.896,0.935-2.674c0.44-0.776,1.026-1.4,1.76-1.869c0.733-0.47,1.657-0.704,2.772-0.704
		c1.291,0,2.317,0.341,3.08,1.022c0.762,0.683,1.202,1.669,1.32,2.959h-1.87C182.97,304.318,182.699,303.753,182.244,303.329z
		 M178.856,308.531c-0.396,0.184-0.733,0.434-1.012,0.748c-0.279,0.316-0.488,0.689-0.627,1.122
		c-0.14,0.433-0.209,0.892-0.209,1.375c0,0.484,0.073,0.939,0.22,1.364c0.146,0.426,0.355,0.792,0.627,1.1
		c0.271,0.309,0.609,0.555,1.012,0.737c0.403,0.184,0.861,0.275,1.375,0.275c0.513,0,0.964-0.092,1.353-0.275
		c0.388-0.183,0.715-0.437,0.979-0.759s0.465-0.693,0.605-1.111c0.139-0.418,0.209-0.854,0.209-1.309
		c0-0.484-0.062-0.942-0.187-1.375c-0.125-0.433-0.319-0.807-0.583-1.122s-0.594-0.568-0.99-0.759s-0.858-0.286-1.386-0.286
		S179.252,308.348,178.856,308.531z"/>
	<path d="M192.1,314.196v2.223c0,0.836-0.191,1.554-0.572,2.155s-0.998,1.027-1.848,1.276v-1.1c0.249-0.088,0.458-0.217,0.627-0.386
		c0.168-0.168,0.304-0.352,0.407-0.55s0.172-0.399,0.209-0.604c0.037-0.206,0.048-0.396,0.033-0.572h-1.298v-2.442H192.1z"/>
	<path d="M204.575,305.682c-0.689,1.071-1.302,2.215-1.837,3.432c-0.536,1.218-0.972,2.472-1.309,3.763
		c-0.337,1.29-0.543,2.545-0.616,3.762h-2.09c0.088-1.32,0.304-2.607,0.649-3.861s0.788-2.456,1.331-3.607
		c0.542-1.151,1.169-2.24,1.881-3.268c0.711-1.026,1.478-1.972,2.299-2.838h-8.184v-1.76h10.098v1.606
		C206.004,303.688,205.264,304.612,204.575,305.682z"/>
	<path d="M211.504,316.011c0.44-1.65,0.66-3.369,0.66-5.159c0-1.848-0.224-3.604-0.671-5.269c-0.448-1.665-1.185-3.341-2.211-5.027
		h1.408c0.528,0.821,1.004,1.639,1.43,2.453c0.425,0.813,0.788,1.643,1.089,2.486c0.3,0.843,0.531,1.704,0.693,2.585
		c0.161,0.88,0.242,1.804,0.242,2.771c0,1.73-0.29,3.473-0.869,5.226c-0.58,1.752-1.441,3.384-2.585,4.895h-1.408
		C210.324,319.315,211.064,317.662,211.504,316.011z"/>
</g>
<g>
	<path d="M243.574,255.799c0.234-0.756,0.586-1.416,1.056-1.98c0.469-0.564,1.059-1.005,1.771-1.32
		c0.711-0.314,1.529-0.473,2.453-0.473c0.704,0,1.375,0.11,2.013,0.33s1.199,0.535,1.683,0.946c0.484,0.41,0.869,0.916,1.155,1.518
		s0.429,1.276,0.429,2.024c0,0.777-0.125,1.444-0.374,2.002c-0.25,0.558-0.58,1.053-0.99,1.484
		c-0.411,0.433-0.876,0.825-1.397,1.178c-0.521,0.352-1.045,0.7-1.573,1.045c-0.528,0.345-1.042,0.715-1.54,1.11
		c-0.499,0.396-0.939,0.858-1.32,1.387h7.282v2.684h-11.308c0-0.895,0.128-1.672,0.385-2.332c0.256-0.66,0.605-1.25,1.045-1.771
		s0.957-1.001,1.551-1.441c0.594-0.44,1.221-0.888,1.881-1.342c0.337-0.234,0.696-0.474,1.078-0.715
		c0.381-0.242,0.729-0.51,1.045-0.804c0.315-0.293,0.58-0.623,0.792-0.989c0.213-0.367,0.319-0.785,0.319-1.255
		c0-0.748-0.217-1.33-0.649-1.749c-0.433-0.418-0.987-0.627-1.661-0.627c-0.455,0-0.84,0.107-1.155,0.319
		c-0.315,0.213-0.568,0.491-0.759,0.836c-0.191,0.345-0.327,0.727-0.407,1.145s-0.121,0.832-0.121,1.242h-2.992
		C243.237,257.372,243.339,256.554,243.574,255.799z"/>
	<path d="M265.508,267.613c-0.748,0.315-1.504,0.473-2.266,0.473c-1.203,0-2.285-0.209-3.245-0.627
		c-0.961-0.418-1.771-0.993-2.431-1.727c-0.66-0.733-1.166-1.595-1.518-2.585c-0.352-0.99-0.528-2.057-0.528-3.201
		c0-1.173,0.176-2.262,0.528-3.267c0.352-1.005,0.858-1.881,1.518-2.629c0.66-0.748,1.47-1.335,2.431-1.761
		c0.96-0.425,2.042-0.638,3.245-0.638c0.806,0,1.587,0.121,2.343,0.363s1.438,0.598,2.046,1.066c0.609,0.47,1.111,1.049,1.507,1.738
		s0.638,1.481,0.726,2.376h-3.3c-0.206-0.88-0.602-1.54-1.188-1.979c-0.587-0.44-1.298-0.66-2.134-0.66
		c-0.778,0-1.438,0.15-1.98,0.451c-0.543,0.301-0.983,0.703-1.32,1.21c-0.337,0.506-0.583,1.081-0.737,1.727
		s-0.231,1.312-0.231,2.002c0,0.66,0.077,1.302,0.231,1.925c0.154,0.624,0.399,1.185,0.737,1.684
		c0.337,0.498,0.777,0.898,1.32,1.198c0.542,0.301,1.202,0.451,1.98,0.451c1.144,0,2.027-0.289,2.651-0.869
		c0.623-0.579,0.986-1.419,1.089-2.519h-3.476v-2.574h6.6v8.492h-2.2l-0.352-1.782C266.938,266.744,266.256,267.297,265.508,267.613
		z"/>
	<path d="M276.09,269.615c-0.426-0.813-0.789-1.639-1.089-2.475c-0.301-0.836-0.532-1.694-0.693-2.574
		c-0.162-0.88-0.242-1.804-0.242-2.772c0-1.73,0.289-3.476,0.869-5.235s1.441-3.396,2.585-4.906h1.43
		c-1.056,1.672-1.804,3.33-2.244,4.972c-0.44,1.644-0.66,3.366-0.66,5.17c0,1.849,0.223,3.602,0.671,5.259
		c0.447,1.657,1.191,3.329,2.233,5.016h-1.43C276.992,271.247,276.515,270.429,276.09,269.615z"/>
	<path d="M286.341,267.734v-11.176h-4.048v-1.496c0.528,0,1.041-0.04,1.54-0.121c0.499-0.08,0.949-0.231,1.353-0.451
		c0.403-0.22,0.744-0.521,1.023-0.902c0.278-0.381,0.469-0.864,0.572-1.451h1.43v15.598H286.341z"/>
	<path d="M293.821,255.458c0.205-0.674,0.524-1.257,0.957-1.749c0.433-0.491,0.972-0.876,1.617-1.154
		c0.645-0.278,1.378-0.418,2.2-0.418c0.674,0,1.309,0.099,1.903,0.297c0.594,0.198,1.111,0.483,1.551,0.857s0.788,0.84,1.045,1.397
		c0.256,0.558,0.385,1.203,0.385,1.936c0,0.689-0.107,1.299-0.319,1.826c-0.212,0.528-0.495,1.001-0.847,1.419
		s-0.756,0.796-1.21,1.133c-0.455,0.338-0.924,0.66-1.408,0.969c-0.484,0.293-0.968,0.583-1.452,0.869
		c-0.484,0.285-0.928,0.59-1.331,0.912c-0.403,0.323-0.748,0.672-1.034,1.046c-0.286,0.373-0.473,0.803-0.561,1.286h8.008v1.65
		h-10.186c0.073-0.924,0.238-1.712,0.495-2.365c0.256-0.652,0.583-1.221,0.979-1.705c0.396-0.483,0.843-0.909,1.342-1.275
		c0.498-0.367,1.019-0.712,1.562-1.034c0.66-0.41,1.239-0.788,1.738-1.133c0.499-0.345,0.913-0.693,1.243-1.045
		c0.33-0.353,0.579-0.733,0.748-1.145c0.168-0.41,0.253-0.887,0.253-1.43c0-0.426-0.081-0.811-0.242-1.155
		c-0.162-0.345-0.378-0.642-0.649-0.891c-0.271-0.249-0.591-0.44-0.957-0.572c-0.367-0.132-0.755-0.198-1.166-0.198
		c-0.543,0-1.009,0.114-1.397,0.341c-0.389,0.228-0.708,0.525-0.957,0.892c-0.25,0.366-0.429,0.781-0.539,1.243
		s-0.158,0.928-0.143,1.396h-1.87C293.535,256.866,293.616,256.132,293.821,255.458z"/>
	<path d="M309.111,265.292v2.223c0,0.836-0.191,1.554-0.572,2.155s-0.998,1.027-1.848,1.276v-1.1
		c0.249-0.088,0.458-0.217,0.627-0.386c0.168-0.168,0.304-0.352,0.407-0.55s0.172-0.399,0.209-0.604
		c0.037-0.206,0.048-0.396,0.033-0.572h-1.298v-2.442H309.111z"/>
	<path d="M318.571,267.734v-11.176h-4.048v-1.496c0.528,0,1.041-0.04,1.54-0.121c0.499-0.08,0.949-0.231,1.353-0.451
		c0.403-0.22,0.744-0.521,1.023-0.902c0.278-0.381,0.469-0.864,0.572-1.451h1.43v15.598H318.571z"/>
	<path d="M329.835,258.846c0.073,0,0.146,0,0.22,0h0.396c0.396,0,0.773-0.056,1.133-0.165c0.359-0.11,0.674-0.271,0.946-0.484
		c0.271-0.212,0.487-0.48,0.649-0.803c0.161-0.322,0.242-0.689,0.242-1.101c0-0.836-0.264-1.463-0.792-1.881
		c-0.528-0.418-1.188-0.627-1.98-0.627c-0.499,0-0.935,0.092-1.309,0.275s-0.682,0.429-0.924,0.737
		c-0.242,0.308-0.422,0.667-0.539,1.077c-0.118,0.411-0.176,0.844-0.176,1.299h-1.87c0.029-0.748,0.15-1.431,0.363-2.047
		c0.212-0.615,0.517-1.144,0.913-1.584c0.396-0.439,0.891-0.784,1.485-1.033c0.594-0.25,1.279-0.374,2.057-0.374
		c0.674,0,1.301,0.084,1.881,0.253c0.579,0.169,1.082,0.422,1.507,0.759c0.425,0.338,0.759,0.77,1.001,1.298
		c0.242,0.528,0.363,1.151,0.363,1.87c0,0.704-0.206,1.327-0.616,1.87s-0.924,0.953-1.54,1.231v0.044
		c0.954,0.206,1.661,0.653,2.123,1.343s0.693,1.503,0.693,2.441c0,0.778-0.143,1.463-0.429,2.058
		c-0.286,0.594-0.671,1.089-1.155,1.484c-0.484,0.396-1.053,0.693-1.705,0.892c-0.653,0.197-1.346,0.297-2.079,0.297
		c-0.792,0-1.511-0.11-2.156-0.33s-1.195-0.546-1.65-0.979c-0.455-0.432-0.803-0.964-1.045-1.595
		c-0.242-0.63-0.356-1.349-0.341-2.156h1.87c0.029,1.013,0.323,1.837,0.88,2.476c0.557,0.638,1.371,0.957,2.442,0.957
		c0.455,0,0.887-0.069,1.298-0.209s0.77-0.338,1.078-0.595c0.308-0.256,0.553-0.571,0.737-0.945s0.275-0.796,0.275-1.266
		c0-0.483-0.088-0.913-0.264-1.286c-0.176-0.374-0.411-0.689-0.704-0.946s-0.642-0.447-1.045-0.572
		c-0.404-0.124-0.84-0.187-1.309-0.187c-0.396,0-0.77,0.021-1.122,0.065v-1.584C329.71,258.838,329.776,258.846,329.835,258.846z"/>
	<path d="M340.748,267.107c0.44-1.65,0.66-3.369,0.66-5.159c0-1.848-0.224-3.604-0.671-5.269c-0.448-1.665-1.185-3.341-2.211-5.027
		h1.408c0.528,0.821,1.004,1.639,1.43,2.453c0.425,0.813,0.788,1.643,1.089,2.486c0.3,0.843,0.531,1.704,0.693,2.585
		c0.161,0.88,0.242,1.804,0.242,2.771c0,1.73-0.29,3.473-0.869,5.226c-0.58,1.752-1.441,3.384-2.585,4.895h-1.408
		C339.567,270.411,340.308,268.757,340.748,267.107z"/>
</g>
<g>
	<path d="M251.781,156.348c0.381-0.029,0.737-0.113,1.067-0.253s0.601-0.341,0.814-0.605c0.212-0.264,0.319-0.616,0.319-1.056
		c0-0.66-0.22-1.166-0.66-1.519c-0.44-0.352-0.946-0.527-1.518-0.527c-0.792,0-1.39,0.261-1.793,0.781
		c-0.404,0.521-0.598,1.177-0.583,1.969h-2.97c0.029-0.792,0.172-1.515,0.429-2.167c0.256-0.652,0.616-1.214,1.078-1.684
		c0.462-0.469,1.016-0.832,1.661-1.089c0.645-0.256,1.364-0.385,2.156-0.385c0.616,0,1.232,0.092,1.848,0.275
		c0.616,0.184,1.169,0.458,1.661,0.824c0.491,0.367,0.891,0.814,1.199,1.343c0.308,0.527,0.462,1.137,0.462,1.825
		c0,0.748-0.18,1.408-0.539,1.98c-0.36,0.572-0.898,0.961-1.617,1.166v0.044c0.851,0.19,1.518,0.602,2.002,1.232
		c0.484,0.63,0.726,1.386,0.726,2.266c0,0.807-0.158,1.525-0.473,2.156s-0.737,1.158-1.265,1.584
		c-0.528,0.425-1.137,0.748-1.826,0.968s-1.408,0.33-2.156,0.33c-0.866,0-1.654-0.125-2.365-0.374s-1.316-0.612-1.815-1.089
		c-0.499-0.477-0.884-1.06-1.155-1.749s-0.399-1.481-0.385-2.376h2.97c0.014,0.41,0.08,0.803,0.198,1.177
		c0.117,0.374,0.286,0.697,0.506,0.968c0.22,0.271,0.495,0.488,0.825,0.649s0.722,0.242,1.177,0.242
		c0.704,0,1.298-0.217,1.782-0.649s0.726-1.023,0.726-1.771c0-0.587-0.114-1.034-0.341-1.343c-0.228-0.308-0.517-0.531-0.869-0.671
		c-0.352-0.139-0.737-0.22-1.155-0.242c-0.418-0.021-0.817-0.032-1.199-0.032v-2.2C251.04,156.377,251.399,156.377,251.781,156.348z
		"/>
	<path d="M268.743,165.401c-0.748,0.315-1.504,0.473-2.266,0.473c-1.203,0-2.285-0.209-3.245-0.627
		c-0.961-0.418-1.771-0.993-2.431-1.727c-0.66-0.733-1.166-1.595-1.518-2.585c-0.352-0.99-0.528-2.057-0.528-3.201
		c0-1.173,0.176-2.262,0.528-3.267c0.352-1.005,0.858-1.881,1.518-2.629c0.66-0.748,1.47-1.335,2.431-1.761
		c0.96-0.425,2.042-0.638,3.245-0.638c0.806,0,1.587,0.121,2.343,0.363s1.438,0.598,2.046,1.066c0.609,0.47,1.111,1.049,1.507,1.738
		s0.638,1.481,0.726,2.376h-3.3c-0.206-0.88-0.602-1.54-1.188-1.979c-0.587-0.44-1.298-0.66-2.134-0.66
		c-0.778,0-1.438,0.15-1.98,0.451c-0.543,0.301-0.983,0.703-1.32,1.21c-0.337,0.506-0.583,1.081-0.737,1.727
		s-0.231,1.312-0.231,2.002c0,0.66,0.077,1.302,0.231,1.925c0.154,0.624,0.399,1.185,0.737,1.684
		c0.337,0.498,0.777,0.898,1.32,1.198c0.542,0.301,1.202,0.451,1.98,0.451c1.144,0,2.027-0.289,2.651-0.869
		c0.623-0.579,0.986-1.419,1.089-2.519h-3.476v-2.574h6.6v8.492h-2.2l-0.352-1.782C270.173,164.532,269.491,165.085,268.743,165.401
		z"/>
	<path d="M279.325,167.403c-0.426-0.813-0.789-1.639-1.089-2.475c-0.301-0.836-0.532-1.694-0.693-2.574
		c-0.162-0.88-0.242-1.804-0.242-2.772c0-1.73,0.289-3.476,0.869-5.235s1.441-3.396,2.585-4.906h1.43
		c-1.056,1.672-1.804,3.33-2.244,4.972c-0.44,1.644-0.66,3.366-0.66,5.17c0,1.849,0.223,3.602,0.671,5.259
		c0.447,1.657,1.191,3.329,2.233,5.016h-1.43C280.227,169.035,279.75,168.217,279.325,167.403z"/>
	<path d="M289.576,165.522v-11.176h-4.048v-1.496c0.528,0,1.041-0.04,1.54-0.121c0.499-0.08,0.949-0.231,1.353-0.451
		c0.403-0.22,0.744-0.521,1.023-0.902c0.278-0.381,0.469-0.864,0.572-1.451h1.43v15.598H289.576z"/>
	<path d="M297.056,153.246c0.205-0.674,0.524-1.257,0.957-1.749c0.433-0.491,0.972-0.876,1.617-1.154
		c0.645-0.278,1.378-0.418,2.2-0.418c0.674,0,1.309,0.099,1.903,0.297c0.594,0.198,1.111,0.483,1.551,0.857s0.788,0.84,1.045,1.397
		c0.256,0.558,0.385,1.203,0.385,1.936c0,0.689-0.107,1.299-0.319,1.826c-0.212,0.528-0.495,1.001-0.847,1.419
		s-0.756,0.796-1.21,1.133c-0.455,0.338-0.924,0.66-1.408,0.969c-0.484,0.293-0.968,0.583-1.452,0.869
		c-0.484,0.285-0.928,0.59-1.331,0.912c-0.403,0.323-0.748,0.672-1.034,1.046c-0.286,0.373-0.473,0.803-0.561,1.286h8.008v1.65
		h-10.186c0.073-0.924,0.238-1.712,0.495-2.365c0.256-0.652,0.583-1.221,0.979-1.705c0.396-0.483,0.843-0.909,1.342-1.275
		c0.498-0.367,1.019-0.712,1.562-1.034c0.66-0.41,1.239-0.788,1.738-1.133c0.499-0.345,0.913-0.693,1.243-1.045
		c0.33-0.353,0.579-0.733,0.748-1.145c0.168-0.41,0.253-0.887,0.253-1.43c0-0.426-0.081-0.811-0.242-1.155
		c-0.162-0.345-0.378-0.642-0.649-0.891c-0.271-0.249-0.591-0.44-0.957-0.572c-0.367-0.132-0.755-0.198-1.166-0.198
		c-0.543,0-1.009,0.114-1.397,0.341c-0.389,0.228-0.708,0.525-0.957,0.892c-0.25,0.366-0.429,0.781-0.539,1.243
		s-0.158,0.928-0.143,1.396h-1.87C296.77,154.654,296.851,153.92,297.056,153.246z"/>
	<path d="M312.346,163.08v2.223c0,0.836-0.191,1.554-0.572,2.155s-0.998,1.027-1.848,1.276v-1.1
		c0.249-0.088,0.458-0.217,0.627-0.386c0.168-0.168,0.304-0.352,0.407-0.55s0.172-0.399,0.209-0.604
		c0.037-0.206,0.048-0.396,0.033-0.572h-1.298v-2.442H312.346z"/>
	<path d="M321.806,165.522v-11.176h-4.048v-1.496c0.528,0,1.041-0.04,1.54-0.121c0.499-0.08,0.949-0.231,1.353-0.451
		c0.403-0.22,0.744-0.521,1.023-0.902c0.278-0.381,0.469-0.864,0.572-1.451h1.43v15.598H321.806z"/>
	<path d="M336.37,152.212c-0.455-0.426-1.056-0.639-1.804-0.639c-0.792,0-1.43,0.194-1.914,0.583
		c-0.484,0.389-0.862,0.88-1.133,1.475c-0.271,0.594-0.458,1.235-0.561,1.925s-0.162,1.335-0.176,1.936l0.044,0.044
		c0.44-0.718,0.986-1.239,1.639-1.562c0.652-0.322,1.404-0.484,2.255-0.484c0.748,0,1.419,0.129,2.013,0.385
		c0.594,0.257,1.092,0.613,1.496,1.067c0.403,0.455,0.715,0.99,0.935,1.606c0.22,0.615,0.33,1.283,0.33,2.002
		c0,0.571-0.088,1.166-0.264,1.781c-0.176,0.616-0.466,1.178-0.869,1.684c-0.404,0.506-0.939,0.924-1.606,1.254
		c-0.668,0.33-1.493,0.495-2.475,0.495c-1.159,0-2.09-0.235-2.794-0.704c-0.704-0.47-1.247-1.07-1.628-1.804
		c-0.382-0.733-0.635-1.54-0.759-2.42c-0.125-0.881-0.187-1.73-0.187-2.553c0-1.07,0.091-2.108,0.275-3.112
		c0.184-1.005,0.495-1.896,0.935-2.674c0.44-0.776,1.026-1.4,1.76-1.869c0.733-0.47,1.657-0.704,2.772-0.704
		c1.291,0,2.317,0.341,3.08,1.022c0.762,0.683,1.202,1.669,1.32,2.959h-1.87C337.096,153.202,336.825,152.637,336.37,152.212z
		 M332.982,157.415c-0.396,0.184-0.733,0.434-1.012,0.748c-0.279,0.316-0.488,0.689-0.627,1.122
		c-0.14,0.433-0.209,0.892-0.209,1.375c0,0.484,0.073,0.939,0.22,1.364c0.146,0.426,0.355,0.792,0.627,1.1
		c0.271,0.309,0.609,0.555,1.012,0.737c0.403,0.184,0.861,0.275,1.375,0.275c0.513,0,0.964-0.092,1.353-0.275
		c0.388-0.183,0.715-0.437,0.979-0.759s0.465-0.693,0.605-1.111c0.139-0.418,0.209-0.854,0.209-1.309
		c0-0.484-0.062-0.942-0.187-1.375c-0.125-0.433-0.319-0.807-0.583-1.122s-0.594-0.568-0.99-0.759s-0.858-0.286-1.386-0.286
		S333.378,157.232,332.982,157.415z"/>
	<path d="M343.982,164.895c0.44-1.65,0.66-3.369,0.66-5.159c0-1.848-0.224-3.604-0.671-5.269c-0.448-1.665-1.185-3.341-2.211-5.027
		h1.408c0.528,0.821,1.004,1.639,1.43,2.453c0.425,0.813,0.788,1.643,1.089,2.486c0.3,0.843,0.531,1.704,0.693,2.585
		c0.161,0.88,0.242,1.804,0.242,2.771c0,1.73-0.29,3.473-0.869,5.226c-0.58,1.752-1.441,3.384-2.585,4.895h-1.408
		C342.802,168.199,343.542,166.545,343.982,164.895z"/>
</g>
<g>
	<path d="M145.936,121.741v-2.859l6.688-8.977h2.794v9.263h2.046v2.573h-2.046v3.564h-2.97v-3.564H145.936z M152.382,113.821
		l-3.982,5.347h4.048v-5.347H152.382z"/>
	<path d="M168.64,125.184c-0.748,0.315-1.504,0.473-2.266,0.473c-1.203,0-2.285-0.209-3.245-0.627
		c-0.961-0.418-1.771-0.993-2.431-1.727c-0.66-0.733-1.166-1.595-1.518-2.585c-0.352-0.99-0.528-2.057-0.528-3.201
		c0-1.173,0.176-2.262,0.528-3.267c0.352-1.005,0.858-1.881,1.518-2.629c0.66-0.748,1.47-1.335,2.431-1.761
		c0.96-0.425,2.042-0.638,3.245-0.638c0.806,0,1.587,0.121,2.343,0.363s1.438,0.598,2.046,1.066c0.609,0.47,1.111,1.049,1.507,1.738
		s0.638,1.481,0.726,2.376h-3.3c-0.206-0.88-0.602-1.54-1.188-1.979c-0.587-0.44-1.298-0.66-2.134-0.66
		c-0.778,0-1.438,0.15-1.98,0.451c-0.543,0.301-0.983,0.703-1.32,1.21c-0.337,0.506-0.583,1.081-0.737,1.727
		s-0.231,1.312-0.231,2.002c0,0.66,0.077,1.302,0.231,1.925c0.154,0.624,0.399,1.185,0.737,1.684
		c0.337,0.498,0.777,0.898,1.32,1.198c0.542,0.301,1.202,0.451,1.98,0.451c1.144,0,2.027-0.289,2.651-0.869
		c0.623-0.579,0.986-1.419,1.089-2.519h-3.476v-2.574h6.6v8.492h-2.2l-0.352-1.782C170.07,124.315,169.388,124.869,168.64,125.184z"
		/>
	<path d="M179.222,127.186c-0.426-0.813-0.789-1.639-1.089-2.475c-0.301-0.836-0.532-1.694-0.693-2.574
		c-0.162-0.88-0.242-1.804-0.242-2.772c0-1.73,0.289-3.476,0.869-5.235s1.441-3.396,2.585-4.906h1.43
		c-1.056,1.672-1.804,3.33-2.244,4.972c-0.44,1.644-0.66,3.366-0.66,5.17c0,1.849,0.223,3.602,0.671,5.259
		c0.447,1.657,1.191,3.329,2.233,5.016h-1.43C180.124,128.818,179.647,128,179.222,127.186z"/>
	<path d="M191.805,111.996c-0.455-0.426-1.056-0.639-1.804-0.639c-0.792,0-1.43,0.194-1.914,0.583
		c-0.484,0.389-0.862,0.88-1.133,1.475c-0.271,0.594-0.458,1.235-0.561,1.925s-0.162,1.335-0.176,1.936l0.044,0.044
		c0.44-0.718,0.986-1.239,1.639-1.562c0.652-0.322,1.404-0.484,2.255-0.484c0.748,0,1.419,0.129,2.013,0.385
		c0.594,0.257,1.092,0.613,1.496,1.067c0.403,0.455,0.715,0.99,0.935,1.606c0.22,0.615,0.33,1.283,0.33,2.002
		c0,0.571-0.088,1.166-0.264,1.781c-0.176,0.616-0.466,1.178-0.869,1.684c-0.404,0.506-0.939,0.924-1.606,1.254
		c-0.668,0.33-1.493,0.495-2.475,0.495c-1.159,0-2.09-0.235-2.794-0.704c-0.704-0.47-1.247-1.07-1.628-1.804
		c-0.382-0.733-0.635-1.54-0.759-2.42c-0.125-0.881-0.187-1.73-0.187-2.553c0-1.07,0.091-2.108,0.275-3.112
		c0.184-1.005,0.495-1.896,0.935-2.674c0.44-0.776,1.026-1.4,1.76-1.869c0.733-0.47,1.657-0.704,2.772-0.704
		c1.291,0,2.317,0.341,3.08,1.022c0.762,0.683,1.202,1.669,1.32,2.959h-1.87C192.531,112.985,192.26,112.42,191.805,111.996z
		 M188.417,117.198c-0.396,0.184-0.733,0.434-1.012,0.748c-0.279,0.316-0.488,0.689-0.627,1.122
		c-0.14,0.433-0.209,0.892-0.209,1.375c0,0.484,0.073,0.939,0.22,1.364c0.146,0.426,0.355,0.792,0.627,1.1
		c0.271,0.309,0.609,0.555,1.012,0.737c0.403,0.184,0.861,0.275,1.375,0.275c0.513,0,0.964-0.092,1.353-0.275
		c0.388-0.183,0.715-0.437,0.979-0.759s0.465-0.693,0.605-1.111c0.139-0.418,0.209-0.854,0.209-1.309
		c0-0.484-0.062-0.942-0.187-1.375c-0.125-0.433-0.319-0.807-0.583-1.122s-0.594-0.568-0.99-0.759s-0.858-0.286-1.386-0.286
		S188.813,117.015,188.417,117.198z"/>
	<path d="M200.011,122.863v2.223c0,0.836-0.191,1.554-0.572,2.155s-0.998,1.027-1.848,1.276v-1.1
		c0.249-0.088,0.458-0.217,0.627-0.386c0.168-0.168,0.304-0.352,0.407-0.55s0.172-0.399,0.209-0.604
		c0.037-0.206,0.048-0.396,0.033-0.572h-1.298v-2.442H200.011z"/>
	<path d="M204.719,113.029c0.205-0.674,0.524-1.257,0.957-1.749c0.433-0.491,0.972-0.876,1.617-1.154
		c0.645-0.278,1.378-0.418,2.2-0.418c0.674,0,1.309,0.099,1.903,0.297c0.594,0.198,1.111,0.483,1.551,0.857s0.788,0.84,1.045,1.397
		c0.256,0.558,0.385,1.203,0.385,1.936c0,0.689-0.107,1.299-0.319,1.826c-0.212,0.528-0.495,1.001-0.847,1.419
		s-0.756,0.796-1.21,1.133c-0.455,0.338-0.924,0.66-1.408,0.969c-0.484,0.293-0.968,0.583-1.452,0.869
		c-0.484,0.285-0.928,0.59-1.331,0.912c-0.403,0.323-0.748,0.672-1.034,1.046c-0.286,0.373-0.473,0.803-0.561,1.286h8.008v1.65
		h-10.186c0.073-0.924,0.238-1.712,0.495-2.365c0.256-0.652,0.583-1.221,0.979-1.705c0.396-0.483,0.843-0.909,1.342-1.275
		c0.498-0.367,1.019-0.712,1.562-1.034c0.66-0.41,1.239-0.788,1.738-1.133c0.499-0.345,0.913-0.693,1.243-1.045
		c0.33-0.353,0.579-0.733,0.748-1.145c0.168-0.41,0.253-0.887,0.253-1.43c0-0.426-0.081-0.811-0.242-1.155
		c-0.162-0.345-0.378-0.642-0.649-0.891c-0.271-0.249-0.591-0.44-0.957-0.572c-0.367-0.132-0.755-0.198-1.166-0.198
		c-0.543,0-1.009,0.114-1.397,0.341c-0.389,0.228-0.708,0.525-0.957,0.892c-0.25,0.366-0.429,0.781-0.539,1.243
		s-0.158,0.928-0.143,1.396h-1.87C204.433,114.437,204.514,113.704,204.719,113.029z"/>
	<path d="M216.951,113.029c0.205-0.674,0.524-1.257,0.957-1.749c0.433-0.491,0.972-0.876,1.617-1.154
		c0.645-0.278,1.378-0.418,2.2-0.418c0.674,0,1.309,0.099,1.903,0.297c0.594,0.198,1.111,0.483,1.551,0.857s0.788,0.84,1.045,1.397
		c0.256,0.558,0.385,1.203,0.385,1.936c0,0.689-0.107,1.299-0.319,1.826c-0.212,0.528-0.495,1.001-0.847,1.419
		s-0.756,0.796-1.21,1.133c-0.455,0.338-0.924,0.66-1.408,0.969c-0.484,0.293-0.968,0.583-1.452,0.869
		c-0.484,0.285-0.928,0.59-1.331,0.912c-0.403,0.323-0.748,0.672-1.034,1.046c-0.286,0.373-0.473,0.803-0.561,1.286h8.008v1.65
		h-10.186c0.073-0.924,0.238-1.712,0.495-2.365c0.256-0.652,0.583-1.221,0.979-1.705c0.396-0.483,0.843-0.909,1.342-1.275
		c0.498-0.367,1.019-0.712,1.562-1.034c0.66-0.41,1.239-0.788,1.738-1.133c0.499-0.345,0.913-0.693,1.243-1.045
		c0.33-0.353,0.579-0.733,0.748-1.145c0.168-0.41,0.253-0.887,0.253-1.43c0-0.426-0.081-0.811-0.242-1.155
		c-0.162-0.345-0.378-0.642-0.649-0.891c-0.271-0.249-0.591-0.44-0.957-0.572c-0.367-0.132-0.755-0.198-1.166-0.198
		c-0.543,0-1.009,0.114-1.397,0.341c-0.389,0.228-0.708,0.525-0.957,0.892c-0.25,0.366-0.429,0.781-0.539,1.243
		s-0.158,0.928-0.143,1.396h-1.87C216.665,114.437,216.746,113.704,216.951,113.029z"/>
	<path d="M229.997,124.678c0.44-1.65,0.66-3.369,0.66-5.159c0-1.848-0.224-3.604-0.671-5.269c-0.448-1.665-1.185-3.341-2.211-5.027
		h1.408c0.528,0.821,1.004,1.639,1.43,2.453c0.425,0.813,0.788,1.643,1.089,2.486c0.3,0.843,0.531,1.704,0.693,2.585
		c0.161,0.88,0.242,1.804,0.242,2.771c0,1.73-0.29,3.473-0.869,5.226c-0.58,1.752-1.441,3.384-2.585,4.895h-1.408
		C228.816,127.982,229.557,126.329,229.997,124.678z"/>
</g>
<line fill="none" stroke="#E15218" stroke-linecap="round" stroke-miterlimit="10" enable-background="new    " x1="136.868" y1="322.716" x2="149.522" y2="316.215"/>
<line fill="none" stroke="#E15218" stroke-linecap="round" stroke-miterlimit="10" enable-background="new    " x1="230.595" y1="230.399" x2="242.452" y2="248.783"/>
<line fill="none" stroke="#E15218" stroke-linecap="round" stroke-miterlimit="10" enable-background="new    " x1="230.595" y1="183.632" x2="245.687" y2="168.048"/>
<line fill="none" stroke="#E15218" stroke-linecap="round" stroke-miterlimit="10" enable-background="new    " x1="136.604" y1="91.564" x2="146.481" y2="104.798"/>
</svg>
