<?xml version="1.0" encoding="utf-8"?>
<!-- Generator: Adobe Illustrator 16.0.4, SVG Export Plug-In . SVG Version: 6.00 Build 0)  -->
<!DOCTYPE svg PUBLIC "-//W3C//DTD SVG 1.1//EN" "http://www.w3.org/Graphics/SVG/1.1/DTD/svg11.dtd">
<svg version="1.1" id="Layer_1" xmlns="http://www.w3.org/2000/svg" xmlns:xlink="http://www.w3.org/1999/xlink" x="0px" y="0px"
	 width="482.59px" height="470.611px" viewBox="0 0 482.59 470.611" enable-background="new 0 0 482.59 470.611"
	 xml:space="preserve">
<line opacity="0.22" fill="none" stroke="#000000" stroke-width="1.5" stroke-miterlimit="10" enable-background="new    " x1="121.382" y1="429.853" x2="121.381" y2="0"/>
<line fill="none" stroke="#000000" stroke-width="1.5" stroke-miterlimit="10" x1="41.985" y1="429.853" x2="41.985" y2="0"/>
<line opacity="0.22" fill="none" stroke="#000000" stroke-width="1.5" stroke-miterlimit="10" enable-background="new    " x1="199.146" y1="429.853" x2="199.146" y2="0"/>
<line opacity="0.22" fill="none" stroke="#000000" stroke-width="1.5" stroke-miterlimit="10" enable-background="new    " x1="276.913" y1="429.853" x2="276.913" y2="0"/>
<line opacity="0.22" fill="none" stroke="#000000" stroke-width="1.5" stroke-miterlimit="10" enable-background="new    " x1="354.676" y1="429.853" x2="354.676" y2="0"/>
<line opacity="0.22" fill="none" stroke="#000000" stroke-width="1.5" stroke-miterlimit="10" enable-background="new    " x1="432.442" y1="429.853" x2="432.442" y2="0"/>
<line opacity="0.22" fill="none" stroke="#000000" stroke-width="1.5" stroke-miterlimit="10" enable-background="new    " x1="479.356" y1="353.456" x2="41.985" y2="353.457"/>
<line fill="none" stroke="#000000" stroke-width="1.5" stroke-miterlimit="10" x1="479.356" y1="429.852" x2="41.985" y2="429.853"/>
<line opacity="0.22" fill="none" stroke="#000000" stroke-width="1.5" stroke-miterlimit="10" enable-background="new    " x1="479.356" y1="276.44" x2="41.985" y2="276.44"/>
<line opacity="0.22" fill="none" stroke="#000000" stroke-width="1.5" stroke-miterlimit="10" enable-background="new    " x1="479.356" y1="199.426" x2="41.985" y2="199.426"/>
<line opacity="0.22" fill="none" stroke="#000000" stroke-width="1.5" stroke-miterlimit="10" enable-background="new    " x1="479.356" y1="122.411" x2="41.985" y2="122.411"/>
<line opacity="0.22" fill="none" stroke="#000000" stroke-width="1.5" stroke-miterlimit="10" enable-background="new    " x1="479.356" y1="45.396" x2="41.985" y2="45.396"/>
<rect x="27.499" y="450.332" fill="none" width="28.972" height="20.279"/>
<text transform="matrix(1 0 0 1 35.2729 467.5693)" font-family="'HelveticaNeue'" font-size="24.1451">0</text>
<rect y="422.999" fill="none" width="28.972" height="20.279"/>
<text transform="matrix(1 0 0 1 7.7739 440.2363)" font-family="'HelveticaNeue'" font-size="24.1451">0</text>
<rect y="343.316" fill="none" width="28.972" height="20.278"/>
<text transform="matrix(1 0 0 1 7.7739 360.5547)" font-family="'HelveticaNeue'" font-size="24.1451">5</text>
<rect y="266.301" fill="none" width="28.972" height="20.279"/>
<text transform="matrix(1 0 0 1 1.0615 283.54)" font-family="'HelveticaNeue'" font-size="24.1451">10</text>
<rect y="189.287" fill="none" width="28.972" height="20.279"/>
<text transform="matrix(1 0 0 1 1.0615 206.5254)" font-family="'HelveticaNeue'" font-size="24.1451">15</text>
<rect y="112.271" fill="none" width="28.972" height="20.279"/>
<text transform="matrix(1 0 0 1 1.0615 129.5107)" font-family="'HelveticaNeue'" font-size="24.1451">20</text>
<rect y="35.256" fill="none" width="28.972" height="20.279"/>
<text transform="matrix(1 0 0 1 1.0615 52.4941)" font-family="'HelveticaNeue'" font-size="24.1451">25</text>
<rect x="106.896" y="450.332" fill="none" width="28.972" height="20.279"/>
<text transform="matrix(1 0 0 1 114.6694 467.5693)" font-family="'HelveticaNeue'" font-size="24.1451">5</text>
<rect x="183.66" y="450.332" fill="none" width="28.972" height="20.279"/>
<text transform="matrix(1 0 0 1 184.7217 467.5693)" font-family="'HelveticaNeue'" font-size="24.1451">10</text>
<rect x="260.67" y="450.332" fill="none" width="28.972" height="20.279"/>
<text transform="matrix(1 0 0 1 261.7319 467.5693)" font-family="'HelveticaNeue'" font-size="24.1451">15</text>
<rect x="340.19" y="450.332" fill="none" width="28.973" height="20.279"/>
<text transform="matrix(1 0 0 1 341.2515 467.5693)" font-family="'HelveticaNeue'" font-size="24.1451">20</text>
<rect x="418.19" y="450.332" fill="none" width="28.973" height="20.279"/>
<text transform="matrix(1 0 0 1 419.2515 467.5693)" font-family="'HelveticaNeue'" font-size="24.1451">25</text>
<circle fill="#E15218" cx="121.381" cy="368.382" r="3.235"/>
<circle fill="#E15218" cx="136.868" cy="322.715" r="3.235"/>
<circle fill="#E15218" cx="229.788" cy="230.381" r="3.235"/>
<circle fill="#E15218" cx="229.788" cy="183.631" r="3.235"/>
<circle fill="#E15218" cx="41.985" cy="337.381" r="3.235"/>
<circle fill="#E15218" cx="105.022" cy="276.44" r="3.235"/>
<circle fill="#E15218" cx="90.022" cy="260.714" r="3.235"/>
<circle fill="#E15218" cx="89.622" cy="153.048" r="3.235"/>
<circle fill="#E15218" cx="105.455" cy="138.147" r="3.235"/>
<circle fill="#E15218" cx="214.455" cy="399.381" r="3.235"/>
<circle fill="#E15218" cx="245.687" cy="429.853" r="3.235"/>
<circle fill="#E15218" cx="260.67" cy="353.457" r="3.235"/>
<circle fill="#E15218" cx="41.985" cy="76.548" r="3.235"/>
<circle fill="#E15218" cx="121.381" cy="45.396" r="3.235"/>
<circle fill="#E15218" cx="136.604" cy="91.564" r="3.235"/>
<circle fill="#E15218" cx="214.356" cy="15.048" r="3.235"/>
<circle fill="#E15218" cx="261.086" cy="60.714" r="3.235"/>
<circle fill="#E15218" cx="338.553" cy="214.926" r="3.235"/>
<circle fill="#E15218" cx="338.553" cy="199.426" r="3.235"/>
<circle fill="#E15218" cx="401.022" cy="122.411" r="3.235"/>
<circle fill="#E15218" cx="479.356" cy="107.048" r="3.235"/>
<circle fill="#E15218" cx="447.788" cy="30.382" r="3.235"/>
<circle fill="#E15218" cx="479.356" cy="307.048" r="3.235"/>
<circle fill="#E15218" cx="463.356" cy="245.548" r="3.235"/>
<circle fill="#E15218" cx="463.356" cy="165.523" r="3.235"/>
<circle fill="#E15218" cx="401.022" cy="291.282" r="3.235"/>
<circle fill="#E15218" cx="448.256" cy="383.618" r="3.235"/>
<circle fill="#E15218" cx="432.442" cy="414.725" r="3.235"/>
<g>
	<path d="M159.079,316.517c-0.748,0.315-1.504,0.474-2.266,0.474c-1.203,0-2.285-0.209-3.245-0.627
		c-0.961-0.418-1.771-0.993-2.431-1.728c-0.66-0.732-1.166-1.595-1.518-2.585s-0.528-2.057-0.528-3.201
		c0-1.173,0.176-2.262,0.528-3.267s0.858-1.881,1.518-2.629c0.66-0.748,1.47-1.335,2.431-1.762c0.96-0.424,2.042-0.637,3.245-0.637
		c0.806,0,1.587,0.12,2.343,0.362c0.756,0.242,1.438,0.599,2.046,1.065c0.609,0.471,1.111,1.05,1.507,1.738
		c0.396,0.689,0.638,1.481,0.726,2.376h-3.3c-0.206-0.88-0.602-1.54-1.188-1.979c-0.587-0.44-1.298-0.66-2.134-0.66
		c-0.778,0-1.438,0.149-1.98,0.451c-0.543,0.301-0.983,0.703-1.32,1.21c-0.337,0.506-0.583,1.081-0.737,1.727
		c-0.154,0.646-0.231,1.312-0.231,2.002c0,0.66,0.077,1.303,0.231,1.926c0.154,0.624,0.399,1.185,0.737,1.684
		c0.337,0.498,0.777,0.898,1.32,1.198c0.542,0.301,1.202,0.451,1.98,0.451c1.144,0,2.027-0.289,2.651-0.869
		c0.623-0.579,0.986-1.419,1.089-2.52h-3.476v-2.574h6.6v8.492h-2.2l-0.352-1.781C160.509,315.648,159.827,316.202,159.079,316.517z
		"/>
	<path d="M169.661,318.519c-0.426-0.812-0.789-1.639-1.089-2.475c-0.301-0.836-0.532-1.694-0.693-2.574
		c-0.162-0.88-0.242-1.804-0.242-2.771c0-1.73,0.289-3.477,0.869-5.235s1.441-3.396,2.585-4.905h1.43
		c-1.056,1.672-1.804,3.33-2.244,4.971c-0.44,1.645-0.66,3.366-0.66,5.171c0,1.849,0.223,3.602,0.671,5.259
		c0.447,1.657,1.191,3.329,2.233,5.016h-1.43C170.562,320.151,170.086,319.333,169.661,318.519z"/>
	<path d="M182.244,303.329c-0.455-0.426-1.056-0.639-1.804-0.639c-0.792,0-1.43,0.193-1.914,0.582
		c-0.484,0.39-0.862,0.881-1.133,1.476c-0.271,0.594-0.458,1.235-0.561,1.925c-0.103,0.69-0.162,1.335-0.176,1.937l0.044,0.044
		c0.44-0.719,0.986-1.239,1.639-1.562c0.652-0.322,1.404-0.483,2.255-0.483c0.748,0,1.419,0.129,2.013,0.385
		c0.594,0.257,1.092,0.613,1.496,1.066c0.403,0.455,0.715,0.99,0.935,1.606c0.22,0.615,0.33,1.283,0.33,2.002
		c0,0.571-0.088,1.166-0.264,1.781c-0.176,0.616-0.466,1.178-0.869,1.684c-0.404,0.506-0.939,0.924-1.606,1.254
		c-0.668,0.33-1.493,0.495-2.475,0.495c-1.159,0-2.09-0.234-2.794-0.704c-0.704-0.47-1.247-1.069-1.628-1.804
		c-0.382-0.733-0.635-1.54-0.759-2.42c-0.125-0.881-0.187-1.73-0.187-2.553c0-1.07,0.091-2.108,0.275-3.112
		c0.184-1.005,0.495-1.896,0.935-2.674c0.44-0.776,1.026-1.4,1.76-1.869c0.733-0.471,1.657-0.704,2.772-0.704
		c1.291,0,2.317,0.341,3.08,1.022c0.762,0.683,1.202,1.668,1.32,2.959h-1.87C182.97,304.317,182.699,303.753,182.244,303.329z
		 M178.856,308.531c-0.396,0.184-0.733,0.434-1.012,0.748c-0.279,0.315-0.488,0.688-0.627,1.122
		c-0.14,0.433-0.209,0.892-0.209,1.375s0.073,0.938,0.22,1.363c0.146,0.427,0.355,0.792,0.627,1.101
		c0.271,0.309,0.609,0.555,1.012,0.736c0.403,0.185,0.861,0.275,1.375,0.275c0.513,0,0.964-0.092,1.353-0.275
		c0.388-0.183,0.715-0.437,0.979-0.759c0.264-0.321,0.465-0.692,0.604-1.11c0.139-0.418,0.209-0.854,0.209-1.31
		c0-0.483-0.062-0.941-0.187-1.375c-0.125-0.433-0.319-0.807-0.583-1.122c-0.264-0.314-0.594-0.567-0.99-0.759
		s-0.858-0.286-1.386-0.286C179.714,308.256,179.252,308.348,178.856,308.531z"/>
	<path d="M192.1,314.196v2.223c0,0.836-0.191,1.554-0.572,2.155c-0.381,0.601-0.998,1.026-1.848,1.275v-1.1
		c0.249-0.088,0.458-0.217,0.627-0.386c0.168-0.168,0.304-0.353,0.407-0.55c0.103-0.198,0.172-0.399,0.209-0.604
		c0.037-0.206,0.048-0.396,0.033-0.572h-1.298v-2.441H192.1L192.1,314.196z"/>
	<path d="M204.575,305.683c-0.689,1.07-1.302,2.215-1.837,3.432c-0.536,1.218-0.972,2.472-1.31,3.763
		c-0.337,1.29-0.543,2.545-0.616,3.762h-2.09c0.088-1.319,0.304-2.606,0.649-3.86c0.345-1.254,0.788-2.456,1.331-3.607
		c0.542-1.151,1.169-2.24,1.881-3.268c0.711-1.026,1.478-1.973,2.299-2.838h-8.184v-1.76h10.098v1.605
		C206.004,303.688,205.264,304.612,204.575,305.683z"/>
	<path d="M211.504,316.011c0.44-1.649,0.66-3.369,0.66-5.159c0-1.848-0.224-3.604-0.671-5.269c-0.448-1.665-1.185-3.341-2.211-5.027
		h1.408c0.528,0.821,1.004,1.639,1.43,2.453c0.425,0.812,0.788,1.643,1.089,2.486c0.3,0.843,0.531,1.704,0.693,2.585
		c0.161,0.88,0.242,1.804,0.242,2.771c0,1.73-0.29,3.474-0.869,5.227c-0.58,1.752-1.441,3.384-2.585,4.895h-1.408
		C210.324,319.315,211.064,317.662,211.504,316.011z"/>
</g>
<g>
	<path d="M243.575,255.799c0.233-0.756,0.586-1.416,1.055-1.979c0.47-0.564,1.06-1.006,1.771-1.32
		c0.711-0.314,1.529-0.473,2.453-0.473c0.704,0,1.375,0.109,2.014,0.33c0.637,0.22,1.198,0.535,1.682,0.945
		c0.484,0.41,0.869,0.916,1.156,1.518c0.285,0.603,0.428,1.277,0.428,2.024c0,0.777-0.125,1.444-0.373,2.003
		c-0.25,0.557-0.58,1.053-0.99,1.483c-0.411,0.433-0.876,0.825-1.396,1.178c-0.521,0.353-1.045,0.7-1.574,1.046
		c-0.527,0.344-1.041,0.715-1.539,1.109c-0.5,0.396-0.939,0.857-1.32,1.387h7.282v2.684h-11.308c0-0.895,0.127-1.672,0.385-2.332
		c0.256-0.659,0.605-1.25,1.045-1.771s0.957-1.001,1.551-1.44c0.594-0.44,1.221-0.889,1.881-1.342
		c0.338-0.234,0.695-0.475,1.078-0.716c0.381-0.241,0.729-0.51,1.045-0.804c0.314-0.293,0.58-0.623,0.792-0.989
		c0.214-0.366,0.319-0.784,0.319-1.255c0-0.748-0.217-1.33-0.649-1.749c-0.433-0.418-0.987-0.627-1.661-0.627
		c-0.455,0-0.84,0.106-1.154,0.319c-0.315,0.213-0.568,0.49-0.76,0.836c-0.191,0.345-0.326,0.727-0.406,1.145
		s-0.121,0.832-0.121,1.242h-2.992C243.237,257.372,243.338,256.554,243.575,255.799z"/>
	<path d="M265.508,267.612c-0.748,0.316-1.504,0.474-2.266,0.474c-1.203,0-2.285-0.209-3.246-0.627s-1.771-0.993-2.431-1.728
		c-0.659-0.732-1.166-1.594-1.519-2.584c-0.352-0.99-0.527-2.058-0.527-3.201c0-1.174,0.176-2.262,0.527-3.268
		c0.353-1.005,0.859-1.881,1.519-2.629c0.66-0.748,1.47-1.335,2.431-1.761c0.961-0.425,2.043-0.638,3.246-0.638
		c0.805,0,1.586,0.121,2.342,0.363c0.756,0.241,1.438,0.598,2.047,1.065c0.609,0.47,1.111,1.049,1.506,1.737
		c0.396,0.689,0.639,1.481,0.727,2.377h-3.3c-0.206-0.881-0.603-1.54-1.188-1.979c-0.586-0.44-1.297-0.659-2.133-0.659
		c-0.779,0-1.439,0.149-1.98,0.45c-0.543,0.302-0.982,0.703-1.32,1.21c-0.337,0.506-0.583,1.081-0.736,1.727
		c-0.154,0.646-0.231,1.312-0.231,2.002c0,0.66,0.077,1.303,0.231,1.926c0.153,0.624,0.398,1.186,0.736,1.684
		s0.777,0.898,1.32,1.198c0.541,0.302,1.201,0.451,1.98,0.451c1.143,0,2.026-0.289,2.65-0.869c0.623-0.579,0.986-1.419,1.089-2.519
		h-3.476v-2.574h6.6v8.492h-2.199l-0.354-1.782C266.938,266.744,266.256,267.297,265.508,267.612z"/>
	<path d="M276.09,269.615c-0.426-0.813-0.789-1.64-1.09-2.476s-0.531-1.693-0.692-2.574c-0.162-0.879-0.242-1.803-0.242-2.771
		c0-1.73,0.289-3.477,0.869-5.234c0.58-1.76,1.44-3.396,2.585-4.906h1.43c-1.056,1.672-1.804,3.33-2.244,4.972
		c-0.439,1.644-0.66,3.366-0.66,5.17c0,1.849,0.224,3.603,0.672,5.259c0.447,1.657,1.191,3.329,2.232,5.016h-1.43
		C276.993,271.247,276.515,270.429,276.09,269.615z"/>
	<path d="M286.34,267.733v-11.176h-4.047v-1.496c0.527,0,1.041-0.039,1.539-0.121c0.5-0.08,0.949-0.23,1.354-0.45
		c0.402-0.22,0.744-0.521,1.023-0.902c0.277-0.381,0.469-0.864,0.572-1.45h1.43v15.598h-1.871V267.733z"/>
	<path d="M293.821,255.458c0.205-0.674,0.523-1.257,0.957-1.749c0.434-0.491,0.973-0.876,1.617-1.153
		c0.645-0.279,1.378-0.418,2.199-0.418c0.675,0,1.311,0.098,1.904,0.297c0.594,0.197,1.11,0.482,1.551,0.856
		c0.439,0.374,0.787,0.84,1.045,1.397c0.256,0.558,0.385,1.203,0.385,1.936c0,0.689-0.107,1.299-0.318,1.826
		c-0.213,0.527-0.496,1.001-0.848,1.419s-0.756,0.796-1.21,1.133c-0.455,0.338-0.924,0.66-1.407,0.97
		c-0.484,0.293-0.969,0.582-1.453,0.868c-0.484,0.285-0.928,0.591-1.33,0.912c-0.404,0.323-0.748,0.672-1.035,1.046
		c-0.285,0.373-0.473,0.803-0.561,1.286h8.008v1.649h-10.186c0.072-0.924,0.238-1.711,0.494-2.364
		c0.257-0.652,0.584-1.222,0.98-1.705c0.395-0.483,0.842-0.909,1.342-1.274c0.498-0.367,1.019-0.713,1.562-1.035
		c0.66-0.41,1.239-0.787,1.737-1.133c0.5-0.345,0.914-0.693,1.244-1.045c0.33-0.353,0.578-0.732,0.748-1.145
		c0.168-0.41,0.252-0.887,0.252-1.43c0-0.427-0.08-0.812-0.242-1.156c-0.161-0.344-0.377-0.641-0.648-0.891
		c-0.271-0.248-0.591-0.439-0.957-0.572c-0.367-0.131-0.755-0.197-1.166-0.197c-0.543,0-1.009,0.113-1.396,0.341
		c-0.389,0.228-0.709,0.524-0.957,0.892c-0.25,0.366-0.43,0.781-0.539,1.244c-0.109,0.461-0.158,0.928-0.143,1.396h-1.871
		C293.536,256.866,293.616,256.132,293.821,255.458z"/>
	<path d="M309.111,265.292v2.223c0,0.836-0.19,1.555-0.571,2.155s-0.998,1.026-1.849,1.276v-1.1
		c0.249-0.089,0.458-0.218,0.627-0.387c0.169-0.168,0.304-0.352,0.407-0.55s0.172-0.399,0.209-0.604s0.048-0.396,0.033-0.572h-1.299
		v-2.441H309.111L309.111,265.292z"/>
	<path d="M318.571,267.733v-11.176h-4.048v-1.496c0.528,0,1.041-0.039,1.54-0.121c0.499-0.08,0.949-0.23,1.354-0.45
		c0.402-0.22,0.744-0.521,1.022-0.902s0.47-0.864,0.571-1.45h1.431v15.598h-1.87V267.733z"/>
	<path d="M329.834,258.847c0.074,0,0.146,0,0.221,0h0.396c0.395,0,0.772-0.057,1.133-0.166c0.358-0.109,0.674-0.271,0.945-0.484
		c0.271-0.211,0.487-0.479,0.648-0.803c0.162-0.322,0.242-0.688,0.242-1.101c0-0.836-0.264-1.463-0.791-1.881
		c-0.528-0.418-1.188-0.627-1.98-0.627c-0.499,0-0.936,0.092-1.309,0.274c-0.375,0.184-0.682,0.43-0.924,0.737
		s-0.422,0.667-0.539,1.077c-0.119,0.411-0.176,0.844-0.176,1.299h-1.871c0.029-0.748,0.15-1.431,0.363-2.047
		c0.213-0.615,0.518-1.145,0.913-1.584s0.892-0.784,1.485-1.033c0.594-0.25,1.279-0.374,2.057-0.374
		c0.674,0,1.301,0.084,1.881,0.253c0.579,0.17,1.082,0.422,1.508,0.76c0.424,0.338,0.758,0.77,1,1.297
		c0.242,0.529,0.363,1.152,0.363,1.871c0,0.703-0.205,1.326-0.615,1.869s-0.925,0.953-1.541,1.231v0.044
		c0.955,0.206,1.662,0.652,2.123,1.343c0.463,0.69,0.693,1.503,0.693,2.441c0,0.778-0.143,1.463-0.43,2.058
		c-0.285,0.594-0.67,1.09-1.154,1.484c-0.484,0.396-1.053,0.693-1.705,0.893c-0.652,0.196-1.346,0.297-2.079,0.297
		c-0.792,0-1.511-0.11-2.155-0.33c-0.646-0.221-1.195-0.547-1.65-0.979s-0.803-0.964-1.045-1.595s-0.356-1.35-0.342-2.156h1.871
		c0.028,1.014,0.322,1.837,0.879,2.477c0.558,0.637,1.371,0.957,2.442,0.957c0.455,0,0.888-0.07,1.298-0.209
		c0.411-0.141,0.77-0.339,1.078-0.596c0.309-0.256,0.553-0.57,0.736-0.945c0.186-0.373,0.275-0.795,0.275-1.266
		c0-0.482-0.088-0.913-0.264-1.286c-0.176-0.374-0.41-0.688-0.704-0.946c-0.293-0.257-0.642-0.447-1.045-0.572
		c-0.403-0.123-0.84-0.187-1.31-0.187c-0.396,0-0.77,0.021-1.121,0.065v-1.584C329.709,258.838,329.776,258.847,329.834,258.847z"/>
	<path d="M340.749,267.106c0.439-1.649,0.66-3.369,0.66-5.158c0-1.848-0.225-3.604-0.672-5.27c-0.447-1.664-1.186-3.341-2.211-5.027
		h1.408c0.527,0.822,1.004,1.64,1.43,2.453s0.788,1.644,1.09,2.486c0.299,0.844,0.53,1.704,0.692,2.585
		c0.161,0.88,0.241,1.804,0.241,2.771c0,1.73-0.289,3.474-0.868,5.227c-0.58,1.752-1.44,3.385-2.585,4.895h-1.408
		C339.567,270.411,340.308,268.757,340.749,267.106z"/>
</g>
<g>
	<path d="M251.782,156.348c0.381-0.029,0.736-0.113,1.066-0.253c0.33-0.14,0.602-0.341,0.814-0.604
		c0.211-0.264,0.318-0.616,0.318-1.056c0-0.66-0.221-1.166-0.66-1.519c-0.439-0.352-0.945-0.527-1.518-0.527
		c-0.793,0-1.391,0.261-1.793,0.781c-0.404,0.521-0.598,1.177-0.584,1.969h-2.969c0.028-0.792,0.172-1.515,0.428-2.167
		c0.257-0.652,0.617-1.214,1.078-1.684c0.463-0.469,1.017-0.832,1.662-1.089c0.645-0.256,1.363-0.385,2.156-0.385
		c0.615,0,1.23,0.092,1.848,0.275c0.615,0.184,1.168,0.458,1.66,0.824c0.492,0.367,0.892,0.814,1.199,1.343
		c0.309,0.527,0.463,1.137,0.463,1.825c0,0.748-0.181,1.408-0.539,1.98c-0.361,0.572-0.898,0.961-1.617,1.166v0.044
		c0.851,0.19,1.518,0.602,2.002,1.232s0.726,1.386,0.726,2.266c0,0.807-0.157,1.525-0.474,2.156
		c-0.314,0.631-0.736,1.158-1.264,1.584c-0.529,0.425-1.138,0.748-1.826,0.968c-0.689,0.22-1.408,0.33-2.156,0.33
		c-0.866,0-1.654-0.125-2.365-0.374s-1.316-0.612-1.814-1.089c-0.5-0.477-0.885-1.06-1.156-1.749
		c-0.27-0.688-0.398-1.48-0.385-2.376h2.971c0.014,0.41,0.08,0.803,0.197,1.177s0.287,0.697,0.506,0.968
		c0.221,0.271,0.496,0.488,0.826,0.649c0.33,0.161,0.722,0.242,1.176,0.242c0.705,0,1.299-0.217,1.783-0.649
		c0.483-0.432,0.726-1.023,0.726-1.771c0-0.587-0.114-1.034-0.341-1.343c-0.229-0.308-0.518-0.531-0.869-0.671
		c-0.352-0.139-0.736-0.22-1.155-0.242c-0.418-0.021-0.817-0.032-1.198-0.032v-2.2C251.04,156.377,251.399,156.377,251.782,156.348z
		"/>
	<path d="M268.743,165.401c-0.748,0.315-1.504,0.473-2.266,0.473c-1.203,0-2.285-0.209-3.245-0.627
		c-0.961-0.418-1.771-0.993-2.431-1.727c-0.66-0.733-1.166-1.595-1.518-2.585c-0.353-0.99-0.529-2.057-0.529-3.201
		c0-1.173,0.177-2.262,0.529-3.267c0.352-1.005,0.857-1.881,1.518-2.629s1.47-1.335,2.431-1.761c0.96-0.425,2.042-0.638,3.245-0.638
		c0.807,0,1.587,0.121,2.344,0.363c0.756,0.242,1.438,0.598,2.045,1.066c0.609,0.47,1.111,1.049,1.508,1.738
		c0.396,0.689,0.637,1.481,0.726,2.376h-3.3c-0.207-0.88-0.602-1.54-1.188-1.979c-0.588-0.44-1.299-0.66-2.135-0.66
		c-0.777,0-1.438,0.15-1.98,0.451s-0.982,0.703-1.32,1.21c-0.336,0.506-0.582,1.081-0.736,1.727s-0.23,1.312-0.23,2.002
		c0,0.66,0.076,1.302,0.23,1.925c0.154,0.624,0.398,1.185,0.736,1.684c0.338,0.498,0.777,0.898,1.32,1.198
		c0.543,0.301,1.203,0.451,1.98,0.451c1.145,0,2.027-0.289,2.65-0.869c0.623-0.579,0.986-1.419,1.09-2.519h-3.477v-2.574h6.6v8.492
		h-2.199l-0.352-1.782C270.172,164.532,269.491,165.085,268.743,165.401z"/>
	<path d="M279.325,167.403c-0.426-0.813-0.789-1.639-1.088-2.475c-0.302-0.836-0.533-1.694-0.693-2.574
		c-0.162-0.88-0.242-1.804-0.242-2.772c0-1.73,0.289-3.476,0.869-5.235c0.58-1.759,1.441-3.396,2.584-4.906h1.431
		c-1.056,1.672-1.804,3.33-2.244,4.972c-0.44,1.644-0.659,3.366-0.659,5.17c0,1.849,0.223,3.602,0.67,5.259
		c0.447,1.657,1.191,3.329,2.233,5.016h-1.431C280.227,169.035,279.75,168.217,279.325,167.403z"/>
	<path d="M289.577,165.522v-11.176h-4.049v-1.496c0.528,0,1.041-0.04,1.54-0.121c0.499-0.08,0.949-0.231,1.353-0.451
		c0.404-0.22,0.744-0.521,1.023-0.902c0.278-0.381,0.469-0.864,0.572-1.451h1.43v15.598L289.577,165.522L289.577,165.522z"/>
	<path d="M297.056,153.246c0.204-0.674,0.524-1.257,0.956-1.749c0.434-0.491,0.973-0.876,1.617-1.154
		c0.646-0.278,1.379-0.418,2.201-0.418c0.674,0,1.309,0.099,1.902,0.297c0.594,0.198,1.111,0.483,1.551,0.857
		c0.44,0.374,0.789,0.84,1.045,1.397c0.256,0.558,0.385,1.203,0.385,1.936c0,0.689-0.106,1.299-0.318,1.826
		c-0.212,0.528-0.495,1.001-0.848,1.419c-0.352,0.418-0.756,0.796-1.209,1.133c-0.455,0.338-0.924,0.66-1.408,0.969
		c-0.484,0.293-0.969,0.583-1.452,0.869c-0.483,0.285-0.929,0.59-1.331,0.912c-0.402,0.323-0.748,0.672-1.033,1.046
		c-0.287,0.373-0.474,0.803-0.562,1.286h8.008v1.65h-10.187c0.074-0.924,0.238-1.712,0.496-2.365
		c0.256-0.652,0.582-1.221,0.979-1.705c0.396-0.483,0.843-0.909,1.342-1.275c0.498-0.367,1.02-0.712,1.562-1.034
		c0.66-0.41,1.238-0.788,1.738-1.133c0.498-0.345,0.912-0.693,1.242-1.045c0.33-0.353,0.579-0.733,0.748-1.145
		c0.168-0.41,0.254-0.887,0.254-1.43c0-0.426-0.082-0.811-0.242-1.155c-0.162-0.345-0.379-0.642-0.649-0.891
		c-0.271-0.249-0.591-0.44-0.957-0.572c-0.367-0.132-0.755-0.198-1.166-0.198c-0.543,0-1.009,0.114-1.397,0.341
		c-0.389,0.228-0.707,0.525-0.957,0.892c-0.25,0.366-0.429,0.781-0.539,1.243c-0.109,0.462-0.158,0.928-0.143,1.396h-1.87
		C296.77,154.654,296.851,153.92,297.056,153.246z"/>
	<path d="M312.346,163.08v2.223c0,0.836-0.191,1.554-0.572,2.155s-0.998,1.027-1.848,1.276v-1.1
		c0.248-0.088,0.457-0.217,0.627-0.386c0.168-0.168,0.304-0.352,0.406-0.55c0.104-0.198,0.172-0.399,0.209-0.604
		c0.037-0.206,0.049-0.396,0.033-0.572h-1.297v-2.442H312.346L312.346,163.08z"/>
	<path d="M321.806,165.522v-11.176h-4.048v-1.496c0.527,0,1.041-0.04,1.539-0.121c0.5-0.08,0.949-0.231,1.354-0.451
		c0.402-0.22,0.744-0.521,1.023-0.902c0.277-0.381,0.469-0.864,0.572-1.451h1.43v15.598L321.806,165.522L321.806,165.522z"/>
	<path d="M336.37,152.212c-0.455-0.426-1.056-0.639-1.804-0.639c-0.792,0-1.431,0.194-1.914,0.583
		c-0.483,0.389-0.862,0.88-1.133,1.475c-0.271,0.594-0.458,1.235-0.562,1.925c-0.103,0.69-0.162,1.335-0.176,1.936l0.045,0.044
		c0.439-0.718,0.985-1.239,1.639-1.562c0.652-0.322,1.404-0.484,2.254-0.484c0.748,0,1.42,0.129,2.014,0.385
		c0.594,0.257,1.092,0.613,1.496,1.067c0.402,0.455,0.715,0.99,0.936,1.606c0.219,0.615,0.33,1.283,0.33,2.002
		c0,0.571-0.088,1.166-0.265,1.781c-0.177,0.616-0.466,1.178-0.868,1.684c-0.404,0.506-0.939,0.924-1.607,1.254
		s-1.492,0.495-2.475,0.495c-1.158,0-2.09-0.235-2.793-0.704c-0.705-0.47-1.248-1.07-1.629-1.804
		c-0.382-0.733-0.635-1.54-0.759-2.42c-0.125-0.881-0.187-1.73-0.187-2.553c0-1.07,0.09-2.108,0.274-3.112
		c0.185-1.005,0.495-1.896,0.935-2.674c0.44-0.776,1.026-1.4,1.76-1.869c0.734-0.47,1.658-0.704,2.773-0.704
		c1.291,0,2.316,0.341,3.079,1.022c0.763,0.683,1.202,1.669,1.319,2.959h-1.869C337.096,153.202,336.825,152.637,336.37,152.212z
		 M332.982,157.415c-0.396,0.184-0.733,0.434-1.013,0.748c-0.278,0.316-0.487,0.689-0.627,1.122
		c-0.139,0.433-0.209,0.892-0.209,1.375c0,0.484,0.074,0.939,0.221,1.364c0.146,0.426,0.355,0.792,0.627,1.1
		c0.271,0.309,0.609,0.555,1.012,0.737c0.403,0.184,0.861,0.275,1.375,0.275s0.965-0.092,1.354-0.275
		c0.388-0.183,0.715-0.437,0.979-0.759c0.264-0.322,0.465-0.693,0.605-1.111c0.139-0.418,0.209-0.854,0.209-1.309
		c0-0.484-0.062-0.942-0.188-1.375s-0.318-0.807-0.582-1.122c-0.265-0.315-0.595-0.568-0.99-0.759
		c-0.396-0.191-0.858-0.286-1.387-0.286C333.84,157.14,333.377,157.232,332.982,157.415z"/>
	<path d="M343.982,164.895c0.44-1.65,0.66-3.369,0.66-5.159c0-1.848-0.224-3.604-0.671-5.269c-0.448-1.665-1.186-3.341-2.211-5.027
		h1.408c0.527,0.821,1.004,1.639,1.43,2.453c0.425,0.813,0.787,1.643,1.089,2.486c0.3,0.843,0.53,1.704,0.692,2.585
		c0.162,0.88,0.242,1.804,0.242,2.771c0,1.73-0.289,3.473-0.869,5.226c-0.58,1.752-1.44,3.384-2.584,4.895h-1.408
		C342.801,168.199,343.542,166.545,343.982,164.895z"/>
</g>
<g>
	<path d="M145.936,121.741v-2.859l6.688-8.977h2.794v9.263h2.046v2.573h-2.046v3.564h-2.97v-3.564H145.936z M152.382,113.821
		l-3.982,5.347h4.048v-5.347H152.382z"/>
	<path d="M168.64,125.184c-0.748,0.315-1.504,0.473-2.266,0.473c-1.203,0-2.285-0.209-3.245-0.627
		c-0.961-0.418-1.771-0.993-2.431-1.728c-0.66-0.733-1.166-1.595-1.518-2.585c-0.352-0.99-0.528-2.057-0.528-3.201
		c0-1.173,0.176-2.262,0.528-3.267s0.858-1.881,1.518-2.629c0.66-0.748,1.47-1.335,2.431-1.761c0.96-0.425,2.042-0.638,3.245-0.638
		c0.806,0,1.587,0.121,2.343,0.363c0.756,0.242,1.438,0.598,2.046,1.066c0.609,0.47,1.111,1.049,1.507,1.738
		s0.638,1.481,0.726,2.376h-3.3c-0.206-0.88-0.602-1.54-1.188-1.979c-0.587-0.44-1.298-0.66-2.134-0.66
		c-0.778,0-1.438,0.15-1.98,0.451c-0.543,0.301-0.983,0.703-1.32,1.21c-0.337,0.506-0.583,1.081-0.737,1.727
		c-0.154,0.646-0.231,1.312-0.231,2.002c0,0.66,0.077,1.302,0.231,1.925c0.154,0.624,0.399,1.185,0.737,1.684
		c0.337,0.498,0.777,0.898,1.32,1.198c0.542,0.301,1.202,0.451,1.98,0.451c1.144,0,2.027-0.289,2.651-0.869
		c0.623-0.579,0.986-1.419,1.089-2.519h-3.476v-2.574h6.6v8.492h-2.2l-0.352-1.782C170.07,124.315,169.388,124.869,168.64,125.184z"
		/>
	<path d="M179.222,127.186c-0.426-0.813-0.789-1.639-1.089-2.475c-0.301-0.836-0.532-1.694-0.693-2.574
		c-0.162-0.88-0.242-1.804-0.242-2.772c0-1.73,0.289-3.476,0.869-5.235c0.58-1.759,1.441-3.396,2.585-4.906h1.43
		c-1.056,1.672-1.804,3.33-2.244,4.972c-0.44,1.644-0.66,3.366-0.66,5.17c0,1.849,0.223,3.602,0.671,5.259
		c0.447,1.657,1.191,3.329,2.233,5.016h-1.43C180.124,128.818,179.647,128,179.222,127.186z"/>
	<path d="M191.805,111.996c-0.455-0.426-1.056-0.639-1.804-0.639c-0.792,0-1.43,0.194-1.914,0.583
		c-0.484,0.389-0.862,0.88-1.133,1.475c-0.271,0.594-0.458,1.235-0.561,1.925c-0.103,0.69-0.162,1.335-0.176,1.936l0.044,0.044
		c0.44-0.718,0.986-1.239,1.639-1.562c0.652-0.322,1.404-0.484,2.255-0.484c0.748,0,1.419,0.129,2.013,0.385
		c0.594,0.257,1.092,0.613,1.496,1.067c0.403,0.455,0.715,0.99,0.935,1.606c0.22,0.615,0.33,1.283,0.33,2.002
		c0,0.571-0.088,1.166-0.264,1.781c-0.176,0.616-0.466,1.178-0.869,1.684c-0.404,0.506-0.939,0.924-1.606,1.254
		c-0.668,0.33-1.493,0.495-2.475,0.495c-1.159,0-2.09-0.235-2.794-0.704c-0.704-0.47-1.247-1.07-1.628-1.804
		c-0.382-0.733-0.635-1.54-0.759-2.42c-0.125-0.881-0.188-1.73-0.188-2.553c0-1.07,0.091-2.108,0.275-3.112
		c0.184-1.005,0.495-1.896,0.935-2.674c0.44-0.776,1.026-1.4,1.76-1.869c0.733-0.47,1.657-0.704,2.772-0.704
		c1.291,0,2.317,0.341,3.08,1.022c0.762,0.683,1.202,1.669,1.32,2.959h-1.87C192.531,112.985,192.26,112.42,191.805,111.996z
		 M188.417,117.198c-0.396,0.184-0.733,0.434-1.012,0.748c-0.279,0.316-0.488,0.689-0.627,1.122
		c-0.14,0.433-0.209,0.892-0.209,1.375c0,0.484,0.073,0.939,0.22,1.364c0.146,0.426,0.355,0.792,0.627,1.1
		c0.271,0.309,0.609,0.555,1.012,0.737c0.403,0.184,0.861,0.275,1.375,0.275c0.513,0,0.964-0.092,1.354-0.275
		c0.388-0.183,0.715-0.437,0.979-0.759c0.264-0.322,0.465-0.693,0.605-1.111c0.139-0.418,0.209-0.854,0.209-1.309
		c0-0.484-0.062-0.942-0.188-1.375c-0.125-0.433-0.319-0.807-0.583-1.122c-0.264-0.315-0.594-0.568-0.99-0.759
		s-0.858-0.286-1.386-0.286C189.275,116.923,188.813,117.015,188.417,117.198z"/>
	<path d="M200.011,122.863v2.223c0,0.836-0.19,1.554-0.572,2.155c-0.381,0.601-0.998,1.027-1.848,1.276v-1.1
		c0.249-0.088,0.458-0.217,0.627-0.386c0.168-0.168,0.304-0.352,0.407-0.55c0.103-0.198,0.172-0.399,0.209-0.604
		c0.037-0.206,0.048-0.396,0.033-0.572h-1.298v-2.442H200.011z"/>
	<path d="M204.719,113.029c0.205-0.674,0.524-1.257,0.957-1.749c0.433-0.491,0.972-0.876,1.617-1.154s1.378-0.418,2.2-0.418
		c0.674,0,1.309,0.099,1.903,0.297c0.594,0.198,1.111,0.483,1.551,0.857c0.439,0.374,0.788,0.84,1.045,1.397
		c0.256,0.558,0.385,1.203,0.385,1.936c0,0.689-0.107,1.299-0.319,1.826c-0.212,0.528-0.495,1.001-0.847,1.419
		s-0.756,0.796-1.21,1.133c-0.455,0.338-0.924,0.66-1.408,0.969c-0.484,0.293-0.968,0.583-1.452,0.869
		c-0.484,0.285-0.928,0.59-1.331,0.912c-0.403,0.323-0.748,0.672-1.034,1.046c-0.286,0.373-0.473,0.803-0.561,1.286h8.008v1.65
		h-10.186c0.073-0.924,0.238-1.712,0.495-2.365c0.256-0.652,0.583-1.221,0.979-1.705c0.396-0.483,0.843-0.909,1.342-1.275
		c0.498-0.367,1.019-0.712,1.562-1.034c0.66-0.41,1.239-0.788,1.738-1.133c0.499-0.345,0.913-0.693,1.243-1.045
		c0.33-0.353,0.579-0.733,0.748-1.145c0.168-0.41,0.253-0.887,0.253-1.43c0-0.426-0.081-0.811-0.242-1.155
		c-0.162-0.345-0.378-0.642-0.649-0.891s-0.591-0.44-0.957-0.572c-0.367-0.132-0.755-0.198-1.166-0.198
		c-0.543,0-1.009,0.114-1.397,0.341c-0.389,0.228-0.708,0.525-0.957,0.892c-0.25,0.366-0.429,0.781-0.539,1.243
		c-0.11,0.462-0.158,0.928-0.144,1.396h-1.87C204.433,114.437,204.514,113.704,204.719,113.029z"/>
	<path d="M216.951,113.029c0.205-0.674,0.524-1.257,0.957-1.749c0.433-0.491,0.972-0.876,1.617-1.154s1.378-0.418,2.2-0.418
		c0.674,0,1.309,0.099,1.903,0.297c0.594,0.198,1.111,0.483,1.551,0.857c0.44,0.374,0.788,0.84,1.045,1.397
		c0.256,0.558,0.385,1.203,0.385,1.936c0,0.689-0.107,1.299-0.319,1.826c-0.212,0.528-0.495,1.001-0.847,1.419
		s-0.756,0.796-1.21,1.133c-0.455,0.338-0.924,0.66-1.408,0.969c-0.484,0.293-0.968,0.583-1.452,0.869
		c-0.484,0.285-0.928,0.59-1.331,0.912c-0.403,0.323-0.748,0.672-1.034,1.046c-0.286,0.373-0.473,0.803-0.561,1.286h8.008v1.65
		h-10.186c0.073-0.924,0.238-1.712,0.495-2.365c0.256-0.652,0.583-1.221,0.979-1.705c0.396-0.483,0.843-0.909,1.342-1.275
		c0.498-0.367,1.019-0.712,1.562-1.034c0.66-0.41,1.239-0.788,1.738-1.133c0.499-0.345,0.913-0.693,1.243-1.045
		c0.33-0.353,0.579-0.733,0.748-1.145c0.168-0.41,0.253-0.887,0.253-1.43c0-0.426-0.081-0.811-0.242-1.155
		c-0.162-0.345-0.378-0.642-0.648-0.891c-0.271-0.249-0.591-0.44-0.957-0.572c-0.367-0.132-0.755-0.198-1.166-0.198
		c-0.543,0-1.009,0.114-1.397,0.341c-0.389,0.228-0.708,0.525-0.957,0.892c-0.25,0.366-0.429,0.781-0.539,1.243
		c-0.11,0.462-0.158,0.928-0.143,1.396h-1.87C216.665,114.437,216.746,113.704,216.951,113.029z"/>
	<path d="M229.997,124.678c0.44-1.65,0.66-3.369,0.66-5.159c0-1.848-0.224-3.604-0.671-5.269c-0.448-1.665-1.185-3.341-2.211-5.027
		h1.408c0.528,0.821,1.004,1.639,1.43,2.453c0.425,0.813,0.788,1.643,1.089,2.486c0.3,0.843,0.531,1.704,0.693,2.585
		c0.161,0.88,0.242,1.804,0.242,2.771c0,1.73-0.29,3.473-0.869,5.226c-0.58,1.752-1.441,3.384-2.585,4.895h-1.408
		C228.816,127.982,229.557,126.329,229.997,124.678z"/>
</g>
<line fill="none" stroke="#E15218" stroke-linecap="round" stroke-miterlimit="10" x1="136.868" y1="322.716" x2="149.522" y2="316.215"/>
<line fill="none" stroke="#E15218" stroke-linecap="round" stroke-miterlimit="10" x1="230.595" y1="230.399" x2="242.452" y2="248.783"/>
<line fill="none" stroke="#E15218" stroke-linecap="round" stroke-miterlimit="10" x1="230.595" y1="183.632" x2="245.687" y2="168.048"/>
<line fill="none" stroke="#E15218" stroke-linecap="round" stroke-miterlimit="10" x1="136.604" y1="91.564" x2="146.481" y2="104.798"/>
</svg>
