<?xml version="1.0" encoding="utf-8"?>
<!-- Generator: Adobe Illustrator 16.0.4, SVG Export Plug-In . SVG Version: 6.00 Build 0)  -->
<!DOCTYPE svg PUBLIC "-//W3C//DTD SVG 1.1//EN" "http://www.w3.org/Graphics/SVG/1.1/DTD/svg11.dtd">
<svg version="1.1" id="Layer_1" xmlns="http://www.w3.org/2000/svg" xmlns:xlink="http://www.w3.org/1999/xlink" x="0px" y="0px"
	 width="1366px" height="768px" viewBox="0 0 1366 768" enable-background="new 0 0 1366 768" xml:space="preserve">
<rect fill="#FFFFFF" width="1366" height="768"/>
<g>
	
		<line opacity="0.22" fill="none" stroke="#000000" stroke-width="1.5" stroke-miterlimit="10" enable-background="new    " x1="236.346" y1="633.496" x2="236.345" y2="203.644"/>
	
		<line fill="none" stroke="#000000" stroke-width="1.5" stroke-miterlimit="10" x1="156.949" y1="633.496" x2="156.949" y2="203.644"/>
	
		<line opacity="0.22" fill="none" stroke="#000000" stroke-width="1.5" stroke-miterlimit="10" enable-background="new    " x1="314.11" y1="633.496" x2="314.11" y2="203.644"/>
	
		<line opacity="0.22" fill="none" stroke="#000000" stroke-width="1.5" stroke-miterlimit="10" enable-background="new    " x1="391.877" y1="633.496" x2="391.877" y2="203.644"/>
	
		<line opacity="0.22" fill="none" stroke="#000000" stroke-width="1.5" stroke-miterlimit="10" enable-background="new    " x1="469.64" y1="633.496" x2="469.64" y2="203.644"/>
	
		<line opacity="0.22" fill="none" stroke="#000000" stroke-width="1.5" stroke-miterlimit="10" enable-background="new    " x1="547.406" y1="633.496" x2="547.406" y2="203.644"/>
	
		<line opacity="0.22" fill="none" stroke="#000000" stroke-width="1.5" stroke-miterlimit="10" enable-background="new    " x1="594.319" y1="557.1" x2="156.949" y2="557.101"/>
	
		<line fill="none" stroke="#000000" stroke-width="1.5" stroke-miterlimit="10" x1="594.319" y1="633.495" x2="156.949" y2="633.496"/>
	
		<line opacity="0.22" fill="none" stroke="#000000" stroke-width="1.5" stroke-miterlimit="10" enable-background="new    " x1="594.319" y1="480.084" x2="156.949" y2="480.084"/>
	
		<line opacity="0.22" fill="none" stroke="#000000" stroke-width="1.5" stroke-miterlimit="10" enable-background="new    " x1="594.319" y1="403.069" x2="156.949" y2="403.069"/>
	
		<line opacity="0.22" fill="none" stroke="#000000" stroke-width="1.5" stroke-miterlimit="10" enable-background="new    " x1="594.319" y1="326.055" x2="156.949" y2="326.055"/>
	
		<line opacity="0.22" fill="none" stroke="#000000" stroke-width="1.5" stroke-miterlimit="10" enable-background="new    " x1="594.319" y1="249.04" x2="156.949" y2="249.04"/>
	<rect x="142.463" y="653.976" fill="none" width="28.972" height="20.279"/>
	<g enable-background="new    ">
		<path d="M162.84,662.571c0,2.979-0.47,5.203-1.409,6.673c-0.939,1.471-2.375,2.204-4.309,2.204c-1.855,0-3.266-0.752-4.232-2.257
			c-0.967-1.508-1.45-3.714-1.45-6.62c0-3.003,0.467-5.229,1.403-6.687c0.935-1.454,2.362-2.183,4.28-2.183
			c1.871,0,3.291,0.76,4.262,2.273C162.355,657.497,162.84,659.694,162.84,662.571z M153.42,662.571
			c0,2.507,0.295,4.332,0.884,5.478c0.589,1.146,1.529,1.715,2.818,1.715c1.305,0,2.25-0.578,2.835-1.737s0.878-2.979,0.878-5.452
			c0-2.477-0.292-4.29-0.878-5.44c-0.586-1.149-1.531-1.728-2.835-1.728c-1.289,0-2.229,0.565-2.818,1.703
			C153.715,658.243,153.42,660.064,153.42,662.571z"/>
	</g>
	<rect x="114.964" y="626.643" fill="none" width="28.972" height="20.279"/>
	<g enable-background="new    ">
		<path d="M135.341,635.238c0,2.979-0.47,5.203-1.409,6.673c-0.939,1.471-2.375,2.204-4.309,2.204c-1.855,0-3.266-0.752-4.232-2.258
			c-0.967-1.507-1.45-3.713-1.45-6.619c0-3.003,0.467-5.229,1.403-6.687c0.935-1.454,2.362-2.182,4.28-2.182
			c1.871,0,3.291,0.759,4.262,2.272C134.856,630.165,135.341,632.361,135.341,635.238z M125.921,635.238
			c0,2.507,0.295,4.332,0.884,5.478c0.589,1.146,1.529,1.715,2.818,1.715c1.305,0,2.25-0.579,2.835-1.737
			c0.585-1.159,0.878-2.979,0.878-5.452c0-2.477-0.292-4.29-0.878-5.44c-0.586-1.149-1.531-1.728-2.835-1.728
			c-1.289,0-2.229,0.565-2.818,1.703C126.216,630.91,125.921,632.731,125.921,635.238z"/>
	</g>
	<rect x="114.964" y="546.96" fill="none" width="28.972" height="20.277"/>
	<g enable-background="new    ">
		<path d="M129.305,553.67c1.815,0,3.244,0.449,4.286,1.352c1.041,0.898,1.562,2.133,1.562,3.694c0,1.784-0.568,3.186-1.704,4.196
			c-1.136,1.014-2.702,1.521-4.698,1.521c-1.941,0-3.423-0.31-4.445-0.931v-1.888c0.55,0.354,1.234,0.632,2.052,0.831
			c0.817,0.198,1.623,0.301,2.417,0.301c1.383,0,2.458-0.325,3.225-0.979c0.767-0.652,1.149-1.596,1.149-2.829
			c0-2.403-1.474-3.606-4.421-3.606c-0.747,0-1.745,0.114-2.995,0.344l-1.014-0.646l0.648-8.063h8.571v1.804h-6.897l-0.436,5.178
			C127.508,553.761,128.409,553.67,129.305,553.67z"/>
	</g>
	<rect x="114.964" y="469.944" fill="none" width="28.972" height="20.277"/>
	<g enable-background="new    ">
		<path d="M124.455,487.184h-1.91V474.9c0-1.021,0.031-1.988,0.094-2.898c-0.165,0.164-0.35,0.338-0.554,0.52
			c-0.205,0.182-1.14,0.946-2.806,2.3l-1.038-1.346l4.562-3.522h1.651L124.455,487.184L124.455,487.184z"/>
		<path d="M142.434,478.541c0,2.979-0.47,5.203-1.409,6.674c-0.939,1.47-2.375,2.203-4.309,2.203c-1.855,0-3.266-0.752-4.232-2.256
			c-0.967-1.506-1.45-3.713-1.45-6.621c0-3.002,0.467-5.229,1.403-6.685c0.935-1.454,2.362-2.184,4.28-2.184
			c1.871,0,3.291,0.759,4.262,2.274C141.949,473.469,142.434,475.664,142.434,478.541z M133.014,478.541
			c0,2.508,0.295,4.332,0.884,5.478s1.529,1.717,2.818,1.717c1.305,0,2.25-0.579,2.835-1.739c0.585-1.158,0.878-2.979,0.878-5.451
			c0-2.476-0.292-4.291-0.878-5.441c-0.586-1.148-1.531-1.727-2.835-1.727c-1.289,0-2.229,0.566-2.818,1.703
			C133.309,474.213,133.014,476.035,133.014,478.541z"/>
	</g>
	<rect x="114.964" y="392.931" fill="none" width="28.972" height="20.278"/>
	<g enable-background="new    ">
		<path d="M124.455,410.168h-1.91v-12.284c0-1.021,0.031-1.986,0.094-2.897c-0.165,0.165-0.35,0.338-0.554,0.519
			c-0.205,0.181-1.14,0.947-2.806,2.299l-1.038-1.344l4.562-3.525h1.651L124.455,410.168L124.455,410.168z"/>
		<path d="M136.398,399.641c1.815,0,3.244,0.45,4.286,1.353c1.041,0.897,1.562,2.132,1.562,3.694c0,1.783-0.568,3.185-1.704,4.196
			c-1.136,1.015-2.702,1.521-4.698,1.521c-1.941,0-3.423-0.312-4.445-0.933v-1.887c0.55,0.354,1.234,0.631,2.052,0.831
			c0.817,0.2,1.623,0.301,2.417,0.301c1.383,0,2.458-0.326,3.225-0.979c0.767-0.653,1.149-1.598,1.149-2.829
			c0-2.405-1.474-3.608-4.421-3.608c-0.747,0-1.745,0.114-2.995,0.343l-1.014-0.646l0.648-8.064h8.571v1.806h-6.897l-0.436,5.176
			C134.602,399.731,135.502,399.641,136.398,399.641z"/>
	</g>
	<rect x="114.964" y="315.915" fill="none" width="28.972" height="20.279"/>
	<g enable-background="new    ">
		<path d="M128.534,333.154h-11.329v-1.688l4.539-4.562c1.383-1.399,2.295-2.397,2.735-2.995s0.77-1.179,0.99-1.745
			c0.22-0.565,0.33-1.175,0.33-1.827c0-0.92-0.279-1.647-0.837-2.187s-1.332-0.809-2.323-0.809c-0.715,0-1.393,0.117-2.034,0.354
			c-0.641,0.234-1.354,0.664-2.14,1.285l-1.038-1.332c1.588-1.321,3.317-1.981,5.188-1.981c1.619,0,2.889,0.415,3.808,1.244
			s1.379,1.942,1.379,3.343c0,1.092-0.307,2.173-0.919,3.242c-0.613,1.068-1.761,2.421-3.443,4.056l-3.772,3.689v0.095h8.866
			V333.154z"/>
		<path d="M142.434,324.513c0,2.979-0.47,5.203-1.409,6.672c-0.939,1.472-2.375,2.204-4.309,2.204c-1.855,0-3.266-0.752-4.232-2.257
			c-0.967-1.506-1.45-3.712-1.45-6.62c0-3.003,0.467-5.229,1.403-6.685c0.935-1.454,2.362-2.183,4.28-2.183
			c1.871,0,3.291,0.76,4.262,2.275C141.949,319.439,142.434,321.636,142.434,324.513z M133.014,324.513
			c0,2.507,0.295,4.332,0.884,5.478c0.589,1.144,1.529,1.715,2.818,1.715c1.305,0,2.25-0.579,2.835-1.739
			c0.585-1.159,0.878-2.977,0.878-5.452c0-2.475-0.292-4.29-0.878-5.44c-0.586-1.151-1.531-1.728-2.835-1.728
			c-1.289,0-2.229,0.567-2.818,1.703S133.014,322.005,133.014,324.513z"/>
	</g>
	<rect x="114.964" y="238.899" fill="none" width="28.972" height="20.279"/>
	<g enable-background="new    ">
		<path d="M128.534,256.138h-11.329v-1.686l4.539-4.562c1.383-1.399,2.295-2.397,2.735-2.995c0.44-0.597,0.77-1.179,0.99-1.745
			c0.22-0.565,0.33-1.175,0.33-1.827c0-0.92-0.279-1.648-0.837-2.187c-0.558-0.539-1.332-0.808-2.323-0.808
			c-0.715,0-1.393,0.117-2.034,0.354c-0.641,0.235-1.354,0.664-2.14,1.285l-1.038-1.332c1.588-1.321,3.317-1.981,5.188-1.981
			c1.619,0,2.889,0.415,3.808,1.244s1.379,1.943,1.379,3.343c0,1.092-0.307,2.173-0.919,3.242c-0.613,1.068-1.761,2.421-3.443,4.056
			l-3.772,3.689v0.095h8.866V256.138z"/>
		<path d="M136.398,245.609c1.815,0,3.244,0.45,4.286,1.351c1.041,0.899,1.562,2.132,1.562,3.695c0,1.784-0.568,3.184-1.704,4.197
			s-2.702,1.521-4.698,1.521c-1.941,0-3.423-0.31-4.445-0.931v-1.887c0.55,0.354,1.234,0.631,2.052,0.831
			c0.817,0.2,1.623,0.301,2.417,0.301c1.383,0,2.458-0.326,3.225-0.979c0.767-0.653,1.149-1.596,1.149-2.829
			c0-2.405-1.474-3.608-4.421-3.608c-0.747,0-1.745,0.114-2.995,0.343l-1.014-0.648l0.648-8.064h8.571v1.804h-6.897l-0.436,5.176
			C134.602,245.701,135.502,245.609,136.398,245.609z"/>
	</g>
	<rect x="221.86" y="653.976" fill="none" width="28.972" height="20.279"/>
	<g enable-background="new    ">
		<path d="M236.2,660.685c1.815,0,3.244,0.45,4.286,1.353c1.041,0.897,1.562,2.133,1.562,3.695c0,1.782-0.568,3.185-1.704,4.195
			c-1.136,1.015-2.702,1.521-4.698,1.521c-1.941,0-3.423-0.312-4.445-0.933v-1.887c0.55,0.354,1.234,0.631,2.052,0.831
			c0.817,0.199,1.623,0.301,2.417,0.301c1.383,0,2.458-0.325,3.225-0.979c0.767-0.652,1.149-1.598,1.149-2.829
			c0-2.404-1.474-3.607-4.421-3.607c-0.747,0-1.745,0.114-2.995,0.345l-1.014-0.647l0.646-8.062h8.571v1.804h-6.897l-0.436,5.176
			C234.404,660.775,235.304,660.685,236.2,660.685z"/>
	</g>
	<rect x="298.624" y="653.976" fill="none" width="28.972" height="20.279"/>
	<g enable-background="new    ">
		<path d="M308.115,671.213h-1.91v-12.285c0-1.021,0.031-1.986,0.094-2.897c-0.165,0.165-0.35,0.338-0.554,0.52
			c-0.205,0.183-1.14,0.946-2.806,2.299l-1.038-1.344l4.562-3.523h1.651L308.115,671.213L308.115,671.213z"/>
		<path d="M326.094,662.571c0,2.979-0.47,5.203-1.409,6.673c-0.939,1.471-2.375,2.204-4.309,2.204c-1.855,0-3.266-0.752-4.232-2.257
			c-0.967-1.508-1.45-3.714-1.45-6.62c0-3.003,0.467-5.229,1.403-6.687c0.935-1.454,2.362-2.183,4.28-2.183
			c1.871,0,3.291,0.76,4.262,2.273C325.609,657.497,326.094,659.694,326.094,662.571z M316.674,662.571
			c0,2.507,0.295,4.332,0.884,5.478c0.589,1.146,1.529,1.715,2.818,1.715c1.305,0,2.25-0.578,2.835-1.737s0.878-2.979,0.878-5.452
			c0-2.477-0.292-4.29-0.878-5.44c-0.586-1.149-1.531-1.728-2.835-1.728c-1.289,0-2.229,0.565-2.818,1.703
			C316.969,658.243,316.674,660.064,316.674,662.571z"/>
	</g>
	<rect x="375.634" y="653.976" fill="none" width="28.975" height="20.279"/>
	<g enable-background="new    ">
		<path d="M385.126,671.213h-1.91v-12.285c0-1.021,0.031-1.986,0.096-2.897c-0.166,0.165-0.351,0.338-0.556,0.52
			c-0.204,0.183-1.14,0.946-2.806,2.299l-1.038-1.344l4.562-3.523h1.651L385.126,671.213L385.126,671.213z"/>
		<path d="M397.067,660.685c1.814,0,3.243,0.45,4.286,1.353c1.041,0.897,1.562,2.133,1.562,3.695c0,1.782-0.567,3.185-1.703,4.195
			c-1.136,1.014-2.702,1.521-4.698,1.521c-1.939,0-3.423-0.312-4.441-0.933v-1.887c0.55,0.354,1.23,0.631,2.051,0.831
			c0.818,0.199,1.623,0.301,2.417,0.301c1.384,0,2.458-0.325,3.225-0.979c0.769-0.652,1.149-1.598,1.149-2.829
			c0-2.404-1.475-3.607-4.422-3.607c-0.746,0-1.744,0.114-2.994,0.345l-1.014-0.647l0.647-8.062h8.571v1.804h-6.897l-0.436,5.176
			C395.272,660.775,396.172,660.685,397.067,660.685z"/>
	</g>
	<rect x="455.153" y="653.976" fill="none" width="28.974" height="20.279"/>
	<g enable-background="new    ">
		<path d="M468.724,671.213h-11.329v-1.687l4.538-4.562c1.385-1.397,2.296-2.396,2.735-2.995c0.439-0.598,0.771-1.179,0.989-1.745
			c0.221-0.563,0.33-1.175,0.33-1.827c0-0.92-0.277-1.646-0.836-2.187c-0.562-0.539-1.332-0.809-2.322-0.809
			c-0.717,0-1.396,0.115-2.034,0.354c-0.642,0.234-1.354,0.664-2.14,1.285l-1.037-1.332c1.588-1.321,3.313-1.981,5.188-1.981
			c1.619,0,2.891,0.415,3.811,1.244c0.918,0.829,1.38,1.942,1.38,3.344c0,1.093-0.309,2.174-0.921,3.241
			c-0.612,1.068-1.761,2.421-3.442,4.058l-3.771,3.688v0.096h8.862L468.724,671.213L468.724,671.213z"/>
		<path d="M482.625,662.571c0,2.979-0.472,5.203-1.409,6.673c-0.938,1.471-2.376,2.204-4.311,2.204
			c-1.854,0-3.268-0.752-4.231-2.257c-0.967-1.508-1.449-3.714-1.449-6.62c0-3.003,0.47-5.229,1.402-6.687
			c0.934-1.457,2.36-2.183,4.278-2.183c1.871,0,3.291,0.76,4.263,2.273C482.138,657.497,482.625,659.694,482.625,662.571z
			 M473.205,662.571c0,2.507,0.295,4.332,0.884,5.478s1.527,1.715,2.816,1.715c1.306,0,2.25-0.578,2.836-1.737
			c0.587-1.159,0.879-2.979,0.879-5.452c0-2.477-0.292-4.29-0.879-5.44c-0.586-1.149-1.53-1.728-2.836-1.728
			c-1.289,0-2.229,0.565-2.816,1.703C473.502,658.244,473.205,660.064,473.205,662.571z"/>
	</g>
	<rect x="533.154" y="653.976" fill="none" width="28.973" height="20.279"/>
	<g enable-background="new    ">
		<path d="M546.724,671.213h-11.329v-1.687l4.538-4.562c1.384-1.397,2.296-2.396,2.735-2.995c0.439-0.598,0.771-1.179,0.99-1.745
			c0.22-0.563,0.33-1.175,0.33-1.827c0-0.92-0.278-1.646-0.837-2.187c-0.562-0.539-1.332-0.809-2.322-0.809
			c-0.716,0-1.396,0.115-2.034,0.354c-0.641,0.234-1.354,0.664-2.14,1.285l-1.037-1.332c1.588-1.321,3.313-1.981,5.188-1.981
			c1.619,0,2.891,0.415,3.811,1.244c0.919,0.829,1.38,1.942,1.38,3.344c0,1.093-0.309,2.174-0.92,3.241
			c-0.613,1.068-1.764,2.421-3.443,4.058l-3.771,3.688v0.096h8.862L546.724,671.213L546.724,671.213z"/>
		<path d="M554.588,660.685c1.816,0,3.244,0.45,4.286,1.353c1.041,0.897,1.562,2.133,1.562,3.695c0,1.782-0.564,3.185-1.7,4.195
			c-1.139,1.015-2.702,1.521-4.698,1.521c-1.941,0-3.423-0.312-4.444-0.933v-1.887c0.55,0.354,1.233,0.631,2.052,0.831
			c0.817,0.199,1.623,0.301,2.418,0.301c1.384,0,2.457-0.325,3.226-0.979c0.767-0.652,1.147-1.598,1.147-2.829
			c0-2.404-1.475-3.607-4.422-3.607c-0.746,0-1.744,0.114-2.994,0.345l-1.015-0.647l0.648-8.062h8.569v1.804h-6.896l-0.438,5.176
			C552.792,660.775,553.692,660.685,554.588,660.685z"/>
	</g>
	<circle fill="#E15218" cx="236.345" cy="572.026" r="3.235"/>
	<circle fill="#E15218" cx="251.832" cy="526.359" r="3.235"/>
	<circle fill="#E15218" cx="344.752" cy="434.024" r="3.235"/>
	<circle fill="#E15218" cx="344.752" cy="387.275" r="3.235"/>
	<circle fill="#E15218" cx="156.949" cy="541.025" r="3.235"/>
	<circle fill="#E15218" cx="219.986" cy="480.083" r="3.235"/>
	<circle fill="#E15218" cx="204.986" cy="464.358" r="3.235"/>
	<circle fill="#E15218" cx="204.586" cy="356.692" r="3.235"/>
	<circle fill="#E15218" cx="220.419" cy="341.791" r="3.235"/>
	<circle fill="#E15218" cx="329.419" cy="603.025" r="3.235"/>
	<circle fill="#E15218" cx="360.651" cy="633.497" r="3.235"/>
	<circle fill="#E15218" cx="375.634" cy="557.101" r="3.235"/>
	<circle fill="#E15218" cx="156.949" cy="280.192" r="3.235"/>
	<circle fill="#E15218" cx="236.345" cy="249.04" r="3.235"/>
	<circle fill="#E15218" cx="251.568" cy="295.208" r="3.235"/>
	<circle fill="#E15218" cx="329.32" cy="218.692" r="3.235"/>
	<circle fill="#E15218" cx="376.05" cy="264.358" r="3.235"/>
	<circle fill="#E15218" cx="453.517" cy="418.569" r="3.235"/>
	<circle fill="#E15218" cx="453.517" cy="403.07" r="3.235"/>
	<circle fill="#E15218" cx="515.985" cy="326.054" r="3.235"/>
	<circle fill="#E15218" cx="594.319" cy="310.692" r="3.235"/>
	<circle fill="#E15218" cx="562.752" cy="234.026" r="3.235"/>
	<circle fill="#E15218" cx="594.319" cy="510.692" r="3.235"/>
	<circle fill="#E15218" cx="578.319" cy="449.192" r="3.235"/>
	<circle fill="#E15218" cx="578.319" cy="368.407" r="3.235"/>
	<circle fill="#E15218" cx="515.985" cy="494.925" r="3.235"/>
	<circle fill="#E15218" cx="563.22" cy="587.261" r="3.235"/>
	<circle fill="#E15218" cx="547.406" cy="618.369" r="3.235"/>
	
		<line fill="none" stroke="#E15218" stroke-width="1.202" stroke-linecap="round" stroke-miterlimit="10" x1="205.155" y1="357.358" x2="219.407" y2="379.456"/>
	
		<line fill="none" stroke="#E15218" stroke-width="1.202" stroke-linecap="round" stroke-miterlimit="10" x1="515.985" y1="326.55" x2="502.075" y2="304.788"/>
	<g>
		<rect x="369.259" y="287.538" fill="none" width="133" height="34.5"/>
		<path d="M393.423,294.525c0,1.998-0.625,3.525-1.873,4.583s-3.023,1.587-5.326,1.587h-1.688v6.602H380.6v-18.561h5.928
			c2.252,0,3.963,0.484,5.136,1.454C392.837,291.161,393.423,292.604,393.423,294.525z M384.537,297.471h1.295
			c1.21,0,2.114-0.239,2.717-0.717c0.601-0.478,0.899-1.174,0.899-2.088c0-0.922-0.252-1.604-0.754-2.044
			c-0.504-0.44-1.293-0.66-2.369-0.66h-1.788V297.471z"/>
		<path d="M408.605,307.296H395.63v-2.729l4.658-4.71c1.38-1.414,2.281-2.393,2.705-2.939c0.423-0.546,0.728-1.052,0.914-1.517
			c0.186-0.465,0.278-0.948,0.278-1.447c0-0.745-0.205-1.299-0.616-1.663c-0.41-0.364-0.957-0.546-1.646-0.546
			c-0.72,0-1.418,0.165-2.096,0.495c-0.677,0.33-1.384,0.8-2.119,1.409l-2.133-2.526c0.913-0.779,1.671-1.329,2.271-1.65
			c0.604-0.322,1.259-0.569,1.971-0.743c0.711-0.174,1.506-0.26,2.388-0.26c1.159,0,2.184,0.211,3.071,0.635
			c0.889,0.424,1.577,1.016,2.066,1.777c0.491,0.762,0.736,1.633,0.736,2.615c0,0.855-0.15,1.657-0.45,2.406
			s-0.767,1.517-1.396,2.304c-0.63,0.787-1.742,1.909-3.335,3.364l-2.388,2.247v0.178h8.088v3.3H408.605L408.605,307.296z"/>
		<path d="M410.472,300.175c0-2.243,0.328-4.342,0.984-6.297s1.602-3.669,2.838-5.142h2.058c-1.22,1.633-2.136,3.428-2.748,5.383
			c-0.614,1.955-0.923,3.965-0.923,6.03c0,2.031,0.313,4.016,0.939,5.954c0.627,1.938,1.526,3.707,2.705,5.308h-2.031
			c-1.244-1.439-2.19-3.119-2.844-5.04C410.796,304.449,410.472,302.384,410.472,300.175z"/>
		<path d="M430.595,307.296h-12.2v-1.815l4.89-4.913c1.489-1.506,2.472-2.582,2.944-3.225c0.476-0.643,0.828-1.27,1.065-1.879
			c0.236-0.609,0.355-1.265,0.355-1.968c0-0.99-0.304-1.775-0.902-2.355c-0.603-0.58-1.435-0.87-2.5-0.87
			c-0.771,0-1.5,0.127-2.19,0.381c-0.688,0.254-1.458,0.715-2.304,1.384l-1.117-1.435c1.709-1.422,3.571-2.133,5.586-2.133
			c1.743,0,3.109,0.446,4.102,1.339s1.484,2.093,1.484,3.599c0,1.176-0.329,2.34-0.988,3.491c-0.66,1.151-1.896,2.607-3.707,4.367
			l-4.062,3.974v0.102h9.547L430.595,307.296L430.595,307.296z"/>
		<path d="M444.763,293.104c0,1.185-0.332,2.154-0.996,2.907c-0.663,0.753-1.604,1.257-2.822,1.511v0.102
			c1.486,0.186,2.594,0.66,3.312,1.422c0.719,0.762,1.079,1.76,1.079,2.996c0,1.769-0.613,3.129-1.841,4.082
			c-1.229,0.953-2.973,1.428-5.23,1.428c-0.979,0-1.881-0.074-2.695-0.222c-0.816-0.148-1.609-0.408-2.383-0.781v-2.006
			c0.807,0.398,1.661,0.7,2.57,0.908c0.91,0.208,1.771,0.311,2.584,0.311c3.208,0,4.812-1.257,4.812-3.771
			c0-2.251-1.771-3.377-5.31-3.377h-1.828V296.8h1.854c1.447,0,2.594-0.319,3.438-0.958c0.848-0.639,1.271-1.525,1.271-2.66
			c0-0.906-0.312-1.617-0.936-2.133c-0.621-0.516-1.467-0.774-2.53-0.774c-0.812,0-1.578,0.11-2.3,0.33
			c-0.721,0.22-1.538,0.626-2.464,1.219l-1.063-1.422c0.762-0.601,1.64-1.073,2.635-1.416c0.994-0.343,2.041-0.514,3.143-0.514
			c1.804,0,3.202,0.413,4.201,1.238C444.265,290.534,444.763,291.665,444.763,293.104z"/>
		<path d="M451.301,304.275l0.19,0.292c-0.222,0.846-0.537,1.83-0.952,2.952s-0.847,2.165-1.295,3.13h-1.587
			c0.229-0.881,0.479-1.969,0.755-3.264c0.273-1.295,0.468-2.332,0.577-3.11H451.301z"/>
		<path d="M469.298,307.296h-12.2v-1.815l4.89-4.913c1.487-1.506,2.473-2.582,2.943-3.225c0.475-0.643,0.829-1.27,1.066-1.879
			c0.236-0.609,0.354-1.265,0.354-1.968c0-0.99-0.303-1.775-0.9-2.355c-0.603-0.58-1.438-0.87-2.501-0.87
			c-0.771,0-1.5,0.127-2.19,0.381c-0.688,0.254-1.457,0.715-2.304,1.384l-1.117-1.435c1.71-1.422,3.571-2.133,5.586-2.133
			c1.743,0,3.11,0.446,4.104,1.339c0.989,0.893,1.482,2.093,1.482,3.599c0,1.176-0.33,2.34-0.989,3.491s-1.896,2.607-3.707,4.367
			l-4.062,3.974v0.102h9.547L469.298,307.296L469.298,307.296z"/>
		<path d="M484.266,297.992c0,3.208-0.506,5.603-1.517,7.186c-1.012,1.583-2.56,2.374-4.641,2.374c-1.998,0-3.52-0.811-4.561-2.431
			s-1.562-3.997-1.562-7.128c0-3.233,0.504-5.632,1.512-7.198c1.007-1.566,2.543-2.349,4.605-2.349c2.018,0,3.547,0.817,4.592,2.45
			C483.744,292.527,484.266,294.894,484.266,297.992z M474.123,297.992c0,2.7,0.316,4.666,0.952,5.897
			c0.635,1.231,1.646,1.847,3.032,1.847c1.404,0,2.425-0.624,3.055-1.873c0.631-1.249,0.945-3.206,0.945-5.872
			s-0.314-4.619-0.945-5.859c-0.63-1.24-1.647-1.86-3.055-1.86c-1.389,0-2.397,0.611-3.032,1.834
			C474.439,293.329,474.123,295.292,474.123,297.992z"/>
		<path d="M492.214,300.175c0,2.226-0.328,4.299-0.983,6.222c-0.653,1.921-1.603,3.593-2.838,5.015h-2.028
			c1.177-1.591,2.078-3.358,2.703-5.3c0.627-1.942,0.938-3.929,0.938-5.96c0-2.065-0.307-4.075-0.92-6.03
			c-0.614-1.955-1.53-3.75-2.749-5.383h2.057c1.244,1.481,2.192,3.201,2.847,5.161C491.889,295.858,492.214,297.949,492.214,300.175
			z"/>
	</g>
	<g>
		<rect x="193.085" y="389.055" fill="none" width="133" height="34.5"/>
		<path d="M224.682,396.042c0,1.998-0.624,3.525-1.873,4.583s-3.023,1.587-5.326,1.587h-1.688v6.604h-3.936v-18.562h5.929
			c2.251,0,3.963,0.484,5.135,1.454S224.682,394.122,224.682,396.042z M215.795,398.989h1.295c1.21,0,2.116-0.239,2.717-0.717
			c0.601-0.479,0.901-1.176,0.901-2.09c0-0.922-0.252-1.604-0.755-2.044c-0.503-0.438-1.293-0.658-2.368-0.658h-1.79V398.989z"/>
		<path d="M236.59,408.814h-3.923v-10.74l0.038-1.767l0.063-1.93c-0.652,0.652-1.104,1.079-1.358,1.282l-2.133,1.714l-1.892-2.361
			l5.979-4.761h3.225L236.59,408.814L236.59,408.814z"/>
		<path d="M241.732,401.692c0-2.243,0.328-4.344,0.984-6.299c0.656-1.953,1.602-3.669,2.837-5.142h2.057
			c-1.219,1.633-2.135,3.428-2.749,5.383c-0.614,1.955-0.92,3.965-0.92,6.03c0,2.031,0.313,4.016,0.939,5.954
			c0.626,1.938,1.528,3.708,2.704,5.307h-2.031c-1.244-1.438-2.192-3.119-2.844-5.04
			C242.057,405.967,241.732,403.901,241.732,401.692z"/>
		<path d="M261.155,394.622c0,1.185-0.332,2.154-0.996,2.907c-0.665,0.753-1.606,1.257-2.825,1.511v0.102
			c1.489,0.188,2.594,0.66,3.313,1.424c0.719,0.762,1.079,1.76,1.079,2.994c0,1.771-0.613,3.131-1.841,4.082
			c-1.228,0.953-2.971,1.43-5.229,1.43c-0.981,0-1.881-0.073-2.697-0.224c-0.817-0.146-1.611-0.406-2.381-0.779v-2.008
			c0.805,0.398,1.661,0.7,2.57,0.908c0.91,0.208,1.771,0.312,2.584,0.312c3.208,0,4.812-1.257,4.812-3.771
			c0-2.251-1.769-3.377-5.307-3.377h-1.828v-1.813h1.854c1.447,0,2.594-0.319,3.44-0.958c0.846-0.641,1.27-1.525,1.27-2.66
			c0-0.906-0.311-1.617-0.934-2.133c-0.621-0.518-1.466-0.774-2.532-0.774c-0.812,0-1.578,0.11-2.298,0.33s-1.54,0.626-2.463,1.219
			l-1.066-1.422c0.762-0.601,1.64-1.073,2.635-1.416c0.994-0.343,2.041-0.514,3.142-0.514c1.803,0,3.203,0.413,4.202,1.236
			C260.657,392.052,261.155,393.183,261.155,394.622z"/>
		<path d="M267.693,405.792l0.19,0.292c-0.22,0.846-0.537,1.83-0.952,2.953c-0.415,1.121-0.847,2.164-1.295,3.129h-1.587
			c0.229-0.881,0.48-1.969,0.755-3.264c0.275-1.295,0.468-2.332,0.578-3.11H267.693z"/>
		<path d="M281.298,408.814h-2.057v-13.229c0-1.1,0.034-2.141,0.102-3.123c-0.178,0.178-0.377,0.364-0.597,0.561
			c-0.22,0.193-1.228,1.02-3.021,2.476l-1.117-1.447l4.913-3.796h1.777V408.814z"/>
		<path d="M294.501,389.987c1.692,0,3.034,0.394,4.024,1.181c0.99,0.787,1.485,1.875,1.485,3.263c0,0.914-0.283,1.748-0.851,2.501
			c-0.568,0.753-1.473,1.439-2.717,2.059c1.507,0.719,2.577,1.475,3.212,2.266c0.635,0.791,0.952,1.708,0.952,2.749
			c0,1.541-0.537,2.771-1.612,3.688c-1.075,0.918-2.548,1.377-4.418,1.377c-1.98,0-3.504-0.436-4.57-1.303
			c-1.066-0.865-1.6-2.097-1.6-3.688c0-2.125,1.295-3.779,3.885-4.964c-1.168-0.66-2.006-1.373-2.514-2.141
			c-0.508-0.766-0.762-1.622-0.762-2.569c0-1.348,0.497-2.418,1.492-3.218C291.503,390.388,292.834,389.987,294.501,389.987z
			 M290.489,404.129c0,1.016,0.354,1.807,1.061,2.374c0.706,0.567,1.698,0.851,2.977,0.851c1.261,0,2.243-0.296,2.945-0.889
			c0.702-0.593,1.054-1.405,1.054-2.438c0-0.821-0.33-1.553-0.99-2.19s-1.812-1.259-3.453-1.86
			c-1.261,0.542-2.175,1.143-2.742,1.798C290.774,402.429,290.489,403.216,290.489,404.129z M294.476,391.702
			c-1.058,0-1.888,0.254-2.488,0.762c-0.601,0.508-0.901,1.187-0.901,2.031c0,0.779,0.25,1.447,0.749,2.006s1.422,1.117,2.768,1.676
			c1.21-0.508,2.067-1.054,2.57-1.638c0.504-0.584,0.756-1.265,0.756-2.044c0-0.855-0.307-1.534-0.92-2.038
			C296.395,391.954,295.551,391.702,294.476,391.702z"/>
		<path d="M308.606,401.692c0,2.226-0.328,4.299-0.984,6.221c-0.655,1.92-1.602,3.592-2.837,5.015h-2.031
			c1.177-1.591,2.078-3.356,2.704-5.3s0.939-3.929,0.939-5.96c0-2.063-0.307-4.075-0.92-6.03c-0.614-1.955-1.53-3.75-2.749-5.383
			h2.057c1.244,1.481,2.192,3.201,2.844,5.161C308.281,397.376,308.606,399.467,308.606,401.692z"/>
	</g>
</g>
<g id="Layer_2">
</g>
</svg>
