<?xml version="1.0" encoding="utf-8"?>
<!-- Generator: Adobe Illustrator 16.0.4, SVG Export Plug-In . SVG Version: 6.00 Build 0)  -->
<!DOCTYPE svg PUBLIC "-//W3C//DTD SVG 1.1//EN" "http://www.w3.org/Graphics/SVG/1.1/DTD/svg11.dtd">
<svg version="1.1" id="Layer_1" xmlns="http://www.w3.org/2000/svg" xmlns:xlink="http://www.w3.org/1999/xlink" x="0px" y="0px"
	 width="391.525px" height="384px" viewBox="0 0 391.525 384" enable-background="new 0 0 391.525 384" xml:space="preserve">
<line opacity="0.22" fill="none" stroke="#000000" stroke-width="1.214" stroke-miterlimit="10" enable-background="new    " x1="99.177" y1="352.351" x2="99.177" y2="4.444"/>
<line fill="none" stroke="#000000" stroke-width="1.214" stroke-miterlimit="10" x1="34.916" y1="352.351" x2="34.916" y2="4.444"/>
<line opacity="0.22" fill="none" stroke="#000000" stroke-width="1.214" stroke-miterlimit="10" enable-background="new    " x1="162.117" y1="352.351" x2="162.117" y2="4.444"/>
<line opacity="0.22" fill="none" stroke="#000000" stroke-width="1.214" stroke-miterlimit="10" enable-background="new    " x1="225.057" y1="352.351" x2="225.057" y2="4.444"/>
<line opacity="0.22" fill="none" stroke="#000000" stroke-width="1.214" stroke-miterlimit="10" enable-background="new    " x1="287.997" y1="352.351" x2="287.997" y2="4.444"/>
<line opacity="0.22" fill="none" stroke="#000000" stroke-width="1.214" stroke-miterlimit="10" enable-background="new    " x1="350.938" y1="352.351" x2="350.938" y2="4.444"/>
<line opacity="0.22" fill="none" stroke="#000000" stroke-width="1.214" stroke-miterlimit="10" enable-background="new    " x1="388.907" y1="290.518" x2="34.916" y2="290.52"/>
<line fill="none" stroke="#000000" stroke-width="1.214" stroke-miterlimit="10" x1="388.907" y1="352.35" x2="34.916" y2="352.351"/>
<line opacity="0.22" fill="none" stroke="#000000" stroke-width="1.214" stroke-miterlimit="10" enable-background="new    " x1="388.907" y1="228.186" x2="34.916" y2="228.186"/>
<line opacity="0.22" fill="none" stroke="#000000" stroke-width="1.214" stroke-miterlimit="10" enable-background="new    " x1="388.907" y1="165.852" x2="34.916" y2="165.852"/>
<line opacity="0.22" fill="none" stroke="#000000" stroke-width="1.214" stroke-miterlimit="10" enable-background="new    " x1="388.907" y1="103.519" x2="34.916" y2="103.519"/>
<line opacity="0.22" fill="none" stroke="#000000" stroke-width="1.214" stroke-miterlimit="10" enable-background="new    " x1="388.907" y1="41.186" x2="34.916" y2="41.186"/>
<circle fill="#E15218" cx="99.176" cy="302.599" r="2.618"/>
<circle fill="#E15218" cx="111.71" cy="265.638" r="2.618"/>
<circle fill="#E15218" cx="186.917" cy="190.907" r="2.618"/>
<circle fill="#E15218" cx="186.917" cy="153.069" r="2.618"/>
<circle fill="#E15218" cx="34.916" cy="277.508" r="2.618"/>
<circle fill="#E15218" cx="85.937" cy="228.184" r="2.618"/>
<circle fill="#E15218" cx="73.796" cy="215.457" r="2.618"/>
<circle fill="#E15218" cx="73.471" cy="128.316" r="2.618"/>
<circle fill="#E15218" cx="86.286" cy="116.256" r="2.619"/>
<circle fill="#E15218" cx="174.506" cy="327.689" r="2.619"/>
<circle fill="#E15218" cx="199.785" cy="352.351" r="2.619"/>
<circle fill="#E15218" cx="211.912" cy="290.519" r="2.618"/>
<circle fill="#E15218" cx="34.916" cy="66.399" r="2.618"/>
<circle fill="#E15218" cx="99.176" cy="41.186" r="2.618"/>
<circle fill="#E15218" cx="111.498" cy="78.553" r="2.618"/>
<circle fill="#E15218" cx="174.426" cy="16.624" r="2.618"/>
<circle fill="#E15218" cx="212.249" cy="53.584" r="2.618"/>
<circle fill="#E15218" cx="274.947" cy="178.398" r="2.618"/>
<circle fill="#E15218" cx="274.947" cy="165.852" r="2.618"/>
<circle fill="#E15218" cx="325.508" cy="103.519" r="2.618"/>
<circle fill="#E15218" cx="388.908" cy="91.085" r="2.618"/>
<circle fill="#E15218" cx="363.357" cy="29.035" r="2.618"/>
<circle fill="#E15218" cx="350.937" cy="3.187" r="2.618"/>
<circle fill="#E15218" cx="388.908" cy="252.958" r="2.618"/>
<circle fill="#E15218" cx="375.958" cy="203.182" r="2.618"/>
<circle fill="#E15218" cx="325.508" cy="240.197" r="2.618"/>
<circle fill="#E15218" cx="363.738" cy="314.93" r="2.619"/>
<circle fill="#E15218" cx="350.937" cy="340.107" r="2.618"/>
<line fill="none" stroke="#E15218" stroke-linecap="round" stroke-miterlimit="10" x1="73.471" y1="128.379" x2="85.329" y2="146.762"/>
<line fill="none" stroke="#E15218" stroke-linecap="round" stroke-miterlimit="10" x1="325.507" y1="103.582" x2="313.934" y2="85.477"/>
<line fill="none" stroke="#E15218" stroke-linecap="round" stroke-miterlimit="10" x1="199.784" y1="212.902" x2="186.917" y2="190.969"/>
<rect x="22.229" y="367.545" fill="none" width="23.42" height="16.394"/>
<g enable-background="new    ">
	<path d="M38.701,374.492c0,2.408-0.379,4.207-1.139,5.395c-0.759,1.188-1.92,1.782-3.483,1.782c-1.5,0-2.64-0.608-3.421-1.825
		c-0.782-1.217-1.172-3-1.172-5.352c0-2.427,0.378-4.228,1.134-5.403c0.756-1.176,1.909-1.763,3.459-1.763
		c1.512,0,2.66,0.612,3.445,1.839C38.309,370.392,38.701,372.167,38.701,374.492z M31.086,374.492c0,2.027,0.238,3.503,0.715,4.428
		c0.477,0.924,1.236,1.387,2.278,1.387c1.055,0,1.818-0.469,2.292-1.406c0.473-0.937,0.71-2.406,0.71-4.408
		c0-2.001-0.237-3.467-0.71-4.397c-0.474-0.931-1.237-1.396-2.292-1.396c-1.042,0-1.801,0.459-2.278,1.377
		S31.086,372.466,31.086,374.492z"/>
</g>
<rect x="0" y="345.45" fill="none" width="23.42" height="16.393"/>
<g enable-background="new    ">
	<path d="M16.472,352.397c0,2.408-0.379,4.207-1.139,5.395c-0.759,1.188-1.92,1.782-3.483,1.782c-1.5,0-2.64-0.608-3.421-1.825
		c-0.782-1.217-1.172-3-1.172-5.352c0-2.427,0.378-4.228,1.134-5.403c0.756-1.176,1.909-1.763,3.459-1.763
		c1.512,0,2.66,0.612,3.445,1.839C16.08,348.297,16.472,350.072,16.472,352.397z M8.857,352.397c0,2.027,0.238,3.503,0.715,4.428
		c0.477,0.924,1.236,1.387,2.278,1.387c1.055,0,1.818-0.469,2.292-1.406c0.473-0.937,0.71-2.406,0.71-4.408
		c0-2.001-0.237-3.467-0.71-4.397c-0.474-0.931-1.237-1.396-2.292-1.396c-1.042,0-1.801,0.459-2.278,1.377
		S8.857,350.371,8.857,352.397z"/>
</g>
<rect x="0" y="281.036" fill="none" width="23.42" height="16.392"/>
<g enable-background="new    ">
	<path d="M11.593,286.461c1.468,0,2.622,0.364,3.464,1.091c0.842,0.728,1.263,1.724,1.263,2.988c0,1.442-0.459,2.573-1.377,3.393
		c-0.918,0.82-2.185,1.229-3.798,1.229c-1.569,0-2.767-0.251-3.593-0.753v-1.524c0.445,0.286,0.998,0.51,1.658,0.672
		s1.312,0.243,1.954,0.243c1.119,0,1.987-0.264,2.607-0.791c0.619-0.527,0.929-1.29,0.929-2.288c0-1.944-1.191-2.916-3.574-2.916
		c-0.604,0-1.41,0.092-2.42,0.276l-0.82-0.524l0.524-6.519h6.929v1.458H9.762L9.41,286.68
		C10.14,286.534,10.868,286.461,11.593,286.461z"/>
</g>
<rect x="0" y="218.777" fill="none" width="23.42" height="16.394"/>
<g enable-background="new    ">
	<path d="M7.672,232.714H6.128v-9.931c0-0.826,0.025-1.607,0.076-2.345c-0.133,0.134-0.283,0.273-0.448,0.42
		c-0.165,0.146-0.921,0.766-2.268,1.858l-0.839-1.087l3.688-2.85h1.334V232.714z"/>
	<path d="M22.206,225.728c0,2.408-0.379,4.207-1.139,5.395c-0.759,1.188-1.92,1.782-3.483,1.782c-1.5,0-2.64-0.608-3.421-1.825
		c-0.782-1.217-1.172-3-1.172-5.352c0-2.427,0.378-4.228,1.134-5.403c0.756-1.176,1.909-1.763,3.459-1.763
		c1.512,0,2.66,0.612,3.445,1.839C21.814,221.627,22.206,223.402,22.206,225.728z M14.591,225.728c0,2.027,0.238,3.503,0.715,4.428
		c0.477,0.924,1.236,1.387,2.278,1.387c1.055,0,1.818-0.469,2.292-1.406c0.473-0.937,0.71-2.406,0.71-4.408
		c0-2.001-0.237-3.467-0.71-4.397c-0.474-0.931-1.237-1.396-2.292-1.396c-1.042,0-1.801,0.459-2.278,1.377
		S14.591,223.701,14.591,225.728z"/>
</g>
<rect x="0" y="156.521" fill="none" width="23.42" height="16.394"/>
<g enable-background="new    ">
	<path d="M7.672,170.456H6.128v-9.931c0-0.826,0.025-1.607,0.076-2.345c-0.133,0.133-0.283,0.273-0.448,0.419
		c-0.165,0.146-0.921,0.766-2.268,1.858l-0.839-1.086l3.688-2.85h1.334V170.456z"/>
	<path d="M17.326,161.945c1.468,0,2.622,0.364,3.464,1.091c0.842,0.728,1.263,1.724,1.263,2.988c0,1.442-0.459,2.573-1.377,3.393
		c-0.918,0.82-2.185,1.229-3.798,1.229c-1.569,0-2.767-0.251-3.593-0.753v-1.525c0.445,0.286,0.998,0.51,1.658,0.672
		c0.661,0.162,1.312,0.243,1.954,0.243c1.119,0,1.987-0.264,2.607-0.791c0.619-0.527,0.929-1.29,0.929-2.287
		c0-1.944-1.191-2.917-3.574-2.917c-0.604,0-1.41,0.092-2.42,0.276l-0.82-0.524l0.524-6.519h6.929v1.458h-5.576l-0.353,4.184
		C15.874,162.019,16.602,161.945,17.326,161.945z"/>
</g>
<rect x="0" y="94.262" fill="none" width="23.42" height="16.393"/>
<g enable-background="new    ">
	<path d="M10.969,108.199H1.811v-1.363l3.669-3.688c1.119-1.131,1.855-1.938,2.211-2.42c0.355-0.483,0.623-0.953,0.8-1.411
		s0.267-0.95,0.267-1.478c0-0.743-0.226-1.333-0.677-1.768s-1.077-0.653-1.877-0.653c-0.578,0-1.126,0.095-1.644,0.286
		c-0.518,0.191-1.095,0.537-1.73,1.039l-0.838-1.077c1.283-1.067,2.681-1.601,4.193-1.601c1.309,0,2.335,0.335,3.078,1.005
		c0.744,0.67,1.115,1.571,1.115,2.702c0,0.883-0.248,1.757-0.743,2.621c-0.496,0.864-1.423,1.957-2.783,3.279l-3.05,2.983v0.076
		h7.167V108.199z"/>
	<path d="M22.206,101.213c0,2.408-0.379,4.206-1.139,5.394c-0.759,1.188-1.92,1.782-3.483,1.782c-1.5,0-2.64-0.608-3.421-1.825
		c-0.782-1.217-1.172-3-1.172-5.352c0-2.427,0.378-4.229,1.134-5.404c0.756-1.175,1.909-1.763,3.459-1.763
		c1.512,0,2.66,0.613,3.445,1.839C21.814,97.112,22.206,98.887,22.206,101.213z M14.591,101.213c0,2.027,0.238,3.502,0.715,4.427
		c0.477,0.925,1.236,1.387,2.278,1.387c1.055,0,1.818-0.468,2.292-1.406c0.473-0.937,0.71-2.406,0.71-4.408s-0.237-3.467-0.71-4.398
		c-0.474-0.931-1.237-1.396-2.292-1.396c-1.042,0-1.801,0.459-2.278,1.377C14.829,97.714,14.591,99.186,14.591,101.213z"/>
</g>
<rect x="0" y="32.005" fill="none" width="23.42" height="16.393"/>
<g enable-background="new    ">
	<path d="M10.969,45.94H1.811v-1.363l3.669-3.688c1.119-1.131,1.855-1.938,2.211-2.42c0.355-0.483,0.623-0.953,0.8-1.411
		s0.267-0.95,0.267-1.478c0-0.743-0.226-1.333-0.677-1.768S7.005,33.16,6.204,33.16c-0.578,0-1.126,0.095-1.644,0.286
		c-0.518,0.191-1.095,0.537-1.73,1.039l-0.838-1.077c1.283-1.067,2.681-1.601,4.193-1.601c1.309,0,2.335,0.335,3.078,1.005
		c0.744,0.67,1.115,1.571,1.115,2.702c0,0.883-0.248,1.757-0.743,2.621c-0.496,0.864-1.423,1.957-2.783,3.279l-3.05,2.983v0.076
		h7.167V45.94z"/>
	<path d="M17.326,37.429c1.468,0,2.622,0.364,3.464,1.091c0.842,0.728,1.263,1.724,1.263,2.988c0,1.442-0.459,2.573-1.377,3.393
		c-0.918,0.82-2.185,1.229-3.798,1.229c-1.569,0-2.767-0.251-3.593-0.753v-1.525c0.445,0.286,0.998,0.51,1.658,0.672
		c0.661,0.162,1.312,0.243,1.954,0.243c1.119,0,1.987-0.264,2.607-0.791c0.619-0.527,0.929-1.29,0.929-2.287
		c0-1.944-1.191-2.917-3.574-2.917c-0.604,0-1.41,0.092-2.42,0.276l-0.82-0.524l0.524-6.519h6.929v1.458h-5.576l-0.353,4.184
		C15.874,37.502,16.602,37.429,17.326,37.429z"/>
</g>
<rect x="86.413" y="367.545" fill="none" width="23.42" height="16.394"/>
<g enable-background="new    ">
	<path d="M98.004,372.968c1.468,0,2.622,0.364,3.464,1.091c0.842,0.728,1.263,1.724,1.263,2.988c0,1.442-0.459,2.573-1.377,3.393
		c-0.918,0.82-2.185,1.229-3.798,1.229c-1.569,0-2.767-0.251-3.593-0.753v-1.524c0.445,0.286,0.998,0.51,1.658,0.672
		s1.312,0.243,1.954,0.243c1.119,0,1.987-0.264,2.607-0.791c0.619-0.527,0.929-1.29,0.929-2.288c0-1.944-1.191-2.916-3.574-2.916
		c-0.604,0-1.41,0.092-2.42,0.276l-0.82-0.524l0.524-6.519h6.929v1.458h-5.576l-0.353,4.184
		C96.552,373.041,97.28,372.968,98.004,372.968z"/>
</g>
<rect x="148.468" y="367.545" fill="none" width="23.42" height="16.394"/>
<g enable-background="new    ">
	<path d="M156.139,381.479h-1.544v-9.931c0-0.826,0.025-1.607,0.076-2.345c-0.133,0.134-0.283,0.273-0.448,0.42
		c-0.165,0.146-0.921,0.766-2.268,1.858l-0.839-1.087l3.688-2.85h1.334V381.479z"/>
	<path d="M170.673,374.492c0,2.408-0.379,4.207-1.139,5.395c-0.759,1.188-1.92,1.782-3.483,1.782c-1.5,0-2.64-0.608-3.421-1.825
		c-0.782-1.217-1.172-3-1.172-5.352c0-2.427,0.378-4.228,1.134-5.403c0.756-1.176,1.909-1.763,3.459-1.763
		c1.512,0,2.66,0.612,3.445,1.839C170.281,370.392,170.673,372.167,170.673,374.492z M163.058,374.492
		c0,2.027,0.238,3.503,0.715,4.428c0.477,0.924,1.236,1.387,2.278,1.387c1.055,0,1.818-0.469,2.292-1.406
		c0.473-0.937,0.71-2.406,0.71-4.408c0-2.001-0.237-3.467-0.71-4.397c-0.474-0.931-1.237-1.396-2.292-1.396
		c-1.042,0-1.801,0.459-2.278,1.377S163.058,372.466,163.058,374.492z"/>
</g>
<rect x="210.722" y="367.545" fill="none" width="23.419" height="16.394"/>
<g enable-background="new    ">
	<path d="M218.393,381.479h-1.544v-9.931c0-0.826,0.025-1.607,0.076-2.345c-0.134,0.134-0.283,0.273-0.448,0.42
		c-0.165,0.146-0.921,0.766-2.268,1.858l-0.839-1.087l3.688-2.85h1.334V381.479z"/>
	<path d="M228.048,372.968c1.468,0,2.622,0.364,3.464,1.091c0.842,0.728,1.263,1.724,1.263,2.988c0,1.442-0.459,2.573-1.377,3.393
		c-0.918,0.82-2.184,1.229-3.798,1.229c-1.569,0-2.767-0.251-3.593-0.753v-1.524c0.444,0.286,0.997,0.51,1.658,0.672
		s1.312,0.243,1.954,0.243c1.118,0,1.987-0.264,2.606-0.791s0.929-1.29,0.929-2.288c0-1.944-1.19-2.916-3.573-2.916
		c-0.604,0-1.411,0.092-2.421,0.276l-0.819-0.524l0.523-6.519h6.929v1.458h-5.575l-0.353,4.184
		C226.595,373.041,227.323,372.968,228.048,372.968z"/>
</g>
<rect x="275.005" y="367.545" fill="none" width="23.42" height="16.394"/>
<g enable-background="new    ">
	<path d="M285.973,381.479h-9.159v-1.363l3.669-3.688c1.118-1.131,1.855-1.938,2.211-2.421c0.356-0.483,0.623-0.953,0.801-1.411
		c0.178-0.457,0.267-0.949,0.267-1.477c0-0.744-0.226-1.333-0.676-1.769c-0.452-0.435-1.077-0.652-1.878-0.652
		c-0.578,0-1.126,0.095-1.645,0.286c-0.518,0.19-1.094,0.537-1.729,1.038l-0.839-1.076c1.283-1.067,2.682-1.602,4.193-1.602
		c1.31,0,2.335,0.335,3.079,1.006c0.743,0.67,1.114,1.57,1.114,2.701c0,0.884-0.247,1.757-0.743,2.621
		c-0.495,0.864-1.423,1.957-2.782,3.278l-3.05,2.983v0.076h7.167V381.479z"/>
	<path d="M297.21,374.492c0,2.408-0.38,4.207-1.14,5.395c-0.759,1.188-1.92,1.782-3.483,1.782c-1.499,0-2.64-0.608-3.421-1.825
		s-1.173-3-1.173-5.352c0-2.427,0.378-4.228,1.135-5.403c0.756-1.176,1.909-1.763,3.459-1.763c1.513,0,2.661,0.612,3.445,1.839
		C296.817,370.392,297.21,372.167,297.21,374.492z M289.594,374.492c0,2.027,0.238,3.503,0.715,4.428
		c0.477,0.924,1.235,1.387,2.277,1.387c1.055,0,1.819-0.469,2.292-1.406c0.474-0.937,0.711-2.406,0.711-4.408
		c0-2.001-0.237-3.467-0.711-4.397c-0.473-0.931-1.237-1.396-2.292-1.396c-1.042,0-1.801,0.459-2.277,1.377
		S289.594,372.466,289.594,374.492z"/>
</g>
<rect x="338.057" y="367.545" fill="none" width="23.421" height="16.394"/>
<g enable-background="new    ">
	<path d="M349.026,381.479h-9.159v-1.363l3.669-3.688c1.118-1.131,1.855-1.938,2.211-2.421c0.356-0.483,0.623-0.953,0.801-1.411
		c0.178-0.457,0.267-0.949,0.267-1.477c0-0.744-0.226-1.333-0.676-1.769c-0.452-0.435-1.077-0.652-1.878-0.652
		c-0.578,0-1.126,0.095-1.645,0.286c-0.518,0.19-1.094,0.537-1.729,1.038l-0.839-1.076c1.283-1.067,2.682-1.602,4.193-1.602
		c1.31,0,2.335,0.335,3.079,1.006c0.743,0.67,1.114,1.57,1.114,2.701c0,0.884-0.247,1.757-0.743,2.621
		c-0.495,0.864-1.423,1.957-2.782,3.278l-3.05,2.983v0.076h7.167V381.479z"/>
	<path d="M355.383,372.968c1.468,0,2.622,0.364,3.464,1.091c0.842,0.728,1.263,1.724,1.263,2.988c0,1.442-0.459,2.573-1.377,3.393
		c-0.918,0.82-2.184,1.229-3.798,1.229c-1.569,0-2.767-0.251-3.593-0.753v-1.524c0.444,0.286,0.997,0.51,1.658,0.672
		s1.312,0.243,1.954,0.243c1.118,0,1.987-0.264,2.606-0.791s0.929-1.29,0.929-2.288c0-1.944-1.19-2.916-3.573-2.916
		c-0.604,0-1.411,0.092-2.421,0.276l-0.819-0.524l0.523-6.519h6.929v1.458h-5.575l-0.353,4.184
		C353.93,373.041,354.658,372.968,355.383,372.968z"/>
</g>
<g>
	<rect x="166.463" y="223.1" fill="none" width="161.663" height="64.953"/>
	<path d="M179.289,229.013c0,1.69-0.528,2.983-1.584,3.878c-1.057,0.896-2.559,1.343-4.507,1.343h-1.429v5.586h-3.33v-15.705h5.017
		c1.905,0,3.354,0.41,4.345,1.229C178.793,226.164,179.289,227.387,179.289,229.013z M171.77,231.505h1.096
		c1.024,0,1.79-0.202,2.299-0.606s0.763-0.994,0.763-1.768c0-0.78-0.213-1.357-0.64-1.729c-0.426-0.372-1.094-0.559-2.003-0.559
		h-1.515V231.505z"/>
	<path d="M189.365,239.819h-3.319v-9.088l0.032-1.493l0.054-1.633c-0.552,0.552-0.935,0.913-1.149,1.085l-1.805,1.45l-1.601-1.998
		l5.06-4.028h2.729V239.819z"/>
	<path d="M203.653,233.245h-4.158v-2.353h4.158v-4.189h2.352v4.189h4.158v2.353h-4.158v4.136h-2.352V233.245z"/>
	<path d="M229.649,229.013c0,1.69-0.529,2.983-1.584,3.878c-1.057,0.896-2.559,1.343-4.508,1.343h-1.428v5.586h-3.33v-15.705h5.016
		c1.906,0,3.354,0.41,4.346,1.229C229.153,226.164,229.649,227.387,229.649,229.013z M222.13,231.505h1.096
		c1.023,0,1.789-0.202,2.299-0.606c0.508-0.404,0.762-0.994,0.762-1.768c0-0.78-0.213-1.357-0.639-1.729s-1.094-0.559-2.004-0.559
		h-1.514V231.505z"/>
	<path d="M242.497,239.819h-10.979v-2.31l3.941-3.985c1.168-1.196,1.93-2.024,2.289-2.487c0.357-0.461,0.615-0.889,0.773-1.283
		c0.156-0.394,0.236-0.802,0.236-1.225c0-0.63-0.174-1.1-0.521-1.407s-0.811-0.462-1.391-0.462c-0.609,0-1.199,0.14-1.773,0.419
		c-0.572,0.279-1.17,0.677-1.793,1.192l-1.805-2.138c0.773-0.659,1.414-1.124,1.922-1.396c0.51-0.272,1.064-0.481,1.666-0.628
		s1.273-0.221,2.02-0.221c0.98,0,1.848,0.18,2.6,0.537c0.752,0.358,1.336,0.859,1.75,1.504c0.416,0.645,0.623,1.383,0.623,2.213
		c0,0.724-0.127,1.402-0.381,2.035c-0.254,0.635-0.648,1.284-1.182,1.95s-1.473,1.615-2.82,2.847l-2.02,1.901v0.15h6.844V239.819z"
		/>
	<path d="M249.854,231.172v-2.353h10.668v2.353H249.854z M249.854,235.329v-2.353h10.668v2.353H249.854z"/>
	<path d="M179.289,255.413c0,1.69-0.528,2.983-1.584,3.878c-1.057,0.896-2.559,1.343-4.507,1.343h-1.429v5.586h-3.33v-15.705h5.017
		c1.905,0,3.354,0.41,4.345,1.229C178.793,252.564,179.289,253.787,179.289,255.413z M171.77,257.905h1.096
		c1.024,0,1.79-0.202,2.299-0.606s0.763-0.994,0.763-1.768c0-0.78-0.213-1.357-0.64-1.729c-0.426-0.372-1.094-0.559-2.003-0.559
		h-1.515V257.905z"/>
	<path d="M191.525,254.027c0,0.981-0.297,1.815-0.892,2.503s-1.429,1.16-2.503,1.418v0.064c1.268,0.157,2.228,0.542,2.879,1.155
		c0.651,0.611,0.978,1.438,0.978,2.476c0,1.511-0.548,2.688-1.644,3.528c-1.096,0.842-2.66,1.263-4.694,1.263
		c-1.704,0-3.216-0.282-4.533-0.849v-2.825c0.608,0.308,1.278,0.559,2.009,0.752s1.454,0.29,2.17,0.29
		c1.096,0,1.905-0.186,2.428-0.559c0.522-0.372,0.784-0.971,0.784-1.794c0-0.737-0.301-1.261-0.902-1.568s-1.562-0.462-2.879-0.462
		h-1.192v-2.546h1.214c1.218,0,2.107-0.159,2.67-0.478c0.562-0.318,0.843-0.865,0.843-1.639c0-1.188-0.745-1.783-2.234-1.783
		c-0.516,0-1.04,0.086-1.573,0.258c-0.534,0.172-1.127,0.469-1.778,0.892l-1.536-2.288c1.433-1.031,3.141-1.547,5.124-1.547
		c1.626,0,2.909,0.33,3.851,0.988C191.054,251.937,191.525,252.854,191.525,254.027z"/>
	<path d="M193.716,260.193c0-1.897,0.277-3.674,0.832-5.328c0.556-1.654,1.355-3.104,2.402-4.351h1.74
		c-1.031,1.382-1.807,2.9-2.326,4.555c-0.519,1.654-0.779,3.355-0.779,5.103c0,1.719,0.265,3.398,0.794,5.038
		c0.531,1.64,1.293,3.137,2.289,4.49h-1.719c-1.053-1.218-1.855-2.64-2.407-4.265S193.716,262.062,193.716,260.193z"/>
	<path d="M207.026,266.22h-1.74v-11.193c0-0.931,0.027-1.812,0.086-2.643c-0.15,0.15-0.318,0.308-0.506,0.473
		c-0.186,0.165-1.037,0.863-2.557,2.095l-0.945-1.225l4.158-3.212h1.504V266.22z"/>
	<path d="M223.321,266.22h-10.322v-1.536l4.135-4.157c1.262-1.274,2.092-2.185,2.492-2.729c0.402-0.544,0.703-1.074,0.902-1.59
		c0.201-0.516,0.301-1.07,0.301-1.665c0-0.838-0.254-1.502-0.762-1.992c-0.51-0.49-1.215-0.736-2.117-0.736
		c-0.65,0-1.27,0.107-1.852,0.322c-0.584,0.215-1.234,0.605-1.951,1.171l-0.945-1.214c1.447-1.203,3.023-1.805,4.727-1.805
		c1.477,0,2.633,0.378,3.471,1.133c0.838,0.756,1.256,1.771,1.256,3.046c0,0.995-0.279,1.98-0.838,2.954
		c-0.559,0.975-1.604,2.206-3.137,3.695l-3.438,3.362v0.086h8.078V266.22z"/>
	<path d="M228.262,263.663l0.162,0.247c-0.188,0.717-0.455,1.549-0.807,2.498c-0.35,0.948-0.715,1.831-1.096,2.647h-1.342
		c0.193-0.745,0.406-1.665,0.639-2.761s0.396-1.973,0.488-2.632H228.262z"/>
	<path d="M240.175,266.22h-1.74v-11.193c0-0.931,0.027-1.812,0.086-2.643c-0.15,0.15-0.318,0.308-0.506,0.473
		c-0.186,0.165-1.037,0.863-2.557,2.095l-0.945-1.225l4.158-3.212h1.504V266.22z"/>
	<path d="M255.88,254.21c0,1.003-0.281,1.823-0.844,2.46c-0.562,0.638-1.359,1.063-2.391,1.278v0.086
		c1.262,0.157,2.195,0.559,2.805,1.203c0.607,0.645,0.912,1.489,0.912,2.535c0,1.497-0.52,2.647-1.557,3.454
		c-1.039,0.805-2.514,1.208-4.426,1.208c-0.832,0-1.592-0.063-2.283-0.188s-1.363-0.345-2.014-0.66v-1.697
		c0.68,0.337,1.404,0.593,2.176,0.768c0.77,0.176,1.498,0.264,2.186,0.264c2.713,0,4.07-1.063,4.07-3.19
		c0-1.905-1.496-2.857-4.49-2.857h-1.547v-1.536h1.568c1.225,0,2.195-0.27,2.912-0.811c0.715-0.541,1.074-1.291,1.074-2.251
		c0-0.767-0.264-1.368-0.789-1.805c-0.527-0.437-1.242-0.655-2.145-0.655c-0.688,0-1.336,0.094-1.943,0.279
		c-0.609,0.187-1.305,0.53-2.084,1.031l-0.902-1.203c0.645-0.508,1.387-0.908,2.229-1.197c0.842-0.291,1.729-0.436,2.658-0.436
		c1.525,0,2.711,0.35,3.557,1.047C255.456,252.035,255.88,252.992,255.88,254.21z"/>
	<path d="M263.28,260.193c0,1.884-0.277,3.639-0.832,5.264s-1.355,3.04-2.4,4.243h-1.719c0.994-1.347,1.758-2.841,2.287-4.485
		c0.531-1.643,0.795-3.324,0.795-5.043c0-1.747-0.26-3.448-0.779-5.103c-0.518-1.654-1.293-3.173-2.324-4.555h1.74
		c1.053,1.253,1.854,2.709,2.406,4.366C263.005,256.539,263.28,258.311,263.28,260.193z"/>
</g>
<g>
	<rect x="62.302" y="150.097" fill="none" width="133" height="34.5"/>
	<path d="M99.069,156.01c0,1.69-0.528,2.983-1.584,3.878c-1.057,0.896-2.559,1.343-4.506,1.343H91.55v5.586h-3.33v-15.705h5.017
		c1.905,0,3.353,0.41,4.345,1.23C98.573,153.162,99.069,154.385,99.069,156.01z M91.55,158.502h1.096
		c1.024,0,1.79-0.202,2.299-0.607c0.508-0.404,0.763-0.994,0.763-1.767c0-0.78-0.213-1.357-0.639-1.729
		c-0.426-0.372-1.094-0.559-2.003-0.559H91.55V158.502z"/>
	<path d="M109.145,166.817h-3.319v-9.088l0.032-1.493l0.054-1.633c-0.552,0.552-0.935,0.913-1.149,1.085l-1.805,1.45l-1.601-1.998
		l5.06-4.028h2.729V166.817z"/>
	<path d="M113.496,160.791c0-1.897,0.277-3.674,0.833-5.328c0.555-1.654,1.355-3.104,2.401-4.351h1.74
		c-1.031,1.382-1.807,2.9-2.326,4.555c-0.52,1.654-0.779,3.355-0.779,5.103c0,1.719,0.265,3.398,0.795,5.038
		c0.53,1.64,1.292,3.137,2.288,4.49h-1.719c-1.053-1.218-1.855-2.639-2.406-4.265C113.771,164.407,113.496,162.66,113.496,160.791z"
		/>
	<path d="M129.931,154.807c0,1.003-0.281,1.823-0.844,2.46c-0.562,0.638-1.358,1.063-2.39,1.278v0.086
		c1.261,0.158,2.195,0.559,2.804,1.203s0.913,1.49,0.913,2.535c0,1.497-0.52,2.648-1.558,3.454s-2.514,1.208-4.426,1.208
		c-0.831,0-1.592-0.063-2.283-0.188c-0.69-0.125-1.362-0.345-2.014-0.661v-1.697c0.681,0.337,1.405,0.593,2.176,0.768
		c0.77,0.176,1.498,0.263,2.186,0.263c2.714,0,4.071-1.063,4.071-3.19c0-1.905-1.497-2.857-4.49-2.857h-1.547v-1.536h1.568
		c1.225,0,2.195-0.27,2.911-0.811c0.716-0.541,1.074-1.291,1.074-2.25c0-0.766-0.264-1.368-0.789-1.805
		c-0.527-0.437-1.241-0.655-2.144-0.655c-0.688,0-1.336,0.093-1.944,0.279c-0.608,0.187-1.304,0.53-2.084,1.031l-0.902-1.203
		c0.645-0.508,1.388-0.908,2.229-1.198c0.842-0.29,1.729-0.435,2.659-0.435c1.525,0,2.711,0.349,3.556,1.047
		S129.931,153.59,129.931,154.807z"/>
	<path d="M135.464,164.26l0.161,0.247c-0.187,0.716-0.455,1.549-0.806,2.498s-0.716,1.832-1.096,2.648h-1.343
		c0.193-0.745,0.406-1.665,0.64-2.761c0.232-1.096,0.396-1.973,0.488-2.632H135.464z"/>
	<path d="M147.375,166.817h-1.74v-11.193c0-0.931,0.028-1.812,0.086-2.643c-0.15,0.15-0.318,0.308-0.505,0.473
		c-0.187,0.165-1.038,0.863-2.557,2.095l-0.945-1.225l4.157-3.212h1.504V166.817z"/>
	<path d="M158.547,150.886c1.433,0,2.567,0.333,3.405,0.999s1.257,1.586,1.257,2.761c0,0.773-0.24,1.479-0.72,2.116
		c-0.479,0.638-1.246,1.218-2.299,1.74c1.274,0.609,2.181,1.248,2.718,1.917c0.537,0.67,0.806,1.445,0.806,2.326
		c0,1.304-0.455,2.344-1.364,3.121c-0.909,0.777-2.155,1.166-3.738,1.166c-1.676,0-2.965-0.367-3.867-1.101
		c-0.902-0.734-1.354-1.774-1.354-3.121c0-1.797,1.096-3.197,3.287-4.2c-0.988-0.559-1.697-1.162-2.127-1.81
		c-0.43-0.648-0.645-1.373-0.645-2.175c0-1.139,0.421-2.046,1.262-2.723C156.01,151.225,157.135,150.886,158.547,150.886z
		 M155.152,162.853c0,0.859,0.299,1.529,0.896,2.009c0.599,0.48,1.438,0.72,2.52,0.72c1.067,0,1.897-0.25,2.492-0.752
		c0.595-0.501,0.892-1.188,0.892-2.062c0-0.694-0.279-1.312-0.838-1.853c-0.559-0.541-1.532-1.065-2.922-1.574
		c-1.067,0.458-1.841,0.965-2.32,1.52C155.392,161.416,155.152,162.08,155.152,162.853z M158.525,152.336
		c-0.896,0-1.597,0.215-2.105,0.645s-0.763,1.003-0.763,1.719c0,0.659,0.211,1.225,0.634,1.697s1.203,0.945,2.342,1.418
		c1.024-0.43,1.749-0.892,2.176-1.386c0.426-0.494,0.639-1.07,0.639-1.729c0-0.723-0.26-1.298-0.779-1.724
		C160.149,152.55,159.434,152.336,158.525,152.336z"/>
	<path d="M170.481,160.791c0,1.884-0.277,3.638-0.832,5.264c-0.556,1.625-1.355,3.04-2.401,4.243h-1.719
		c0.995-1.347,1.758-2.841,2.288-4.485s0.795-3.325,0.795-5.043c0-1.747-0.26-3.448-0.779-5.103
		c-0.519-1.654-1.294-3.172-2.325-4.555h1.74c1.053,1.253,1.854,2.709,2.406,4.367C170.206,157.137,170.481,158.907,170.481,160.791
		z"/>
</g>
<g>
	<rect x="194.613" y="73.811" fill="none" width="133.001" height="34.5"/>
	<path d="M225.091,79.724c0,1.69-0.528,2.983-1.584,3.878c-1.057,0.896-2.559,1.343-4.507,1.343h-1.429v5.586h-3.33V74.826h5.017
		c1.905,0,3.353,0.41,4.345,1.23C224.594,76.876,225.091,78.099,225.091,79.724z M217.571,82.216h1.096
		c1.023,0,1.79-0.202,2.299-0.607c0.508-0.404,0.763-0.994,0.763-1.767c0-0.78-0.214-1.357-0.64-1.729
		c-0.426-0.372-1.094-0.559-2.003-0.559h-1.515V82.216z"/>
	<path d="M237.938,90.531H226.96v-2.31l3.942-3.985c1.167-1.196,1.93-2.025,2.288-2.487c0.357-0.462,0.615-0.89,0.773-1.284
		c0.157-0.394,0.236-0.802,0.236-1.225c0-0.63-0.174-1.099-0.521-1.407c-0.348-0.308-0.811-0.462-1.391-0.462
		c-0.609,0-1.199,0.14-1.772,0.419s-1.171,0.677-1.794,1.192l-1.805-2.138c0.773-0.659,1.414-1.124,1.923-1.396
		c0.509-0.272,1.063-0.481,1.665-0.628c0.602-0.146,1.274-0.22,2.02-0.22c0.98,0,1.848,0.179,2.6,0.537
		c0.752,0.358,1.336,0.859,1.751,1.504s0.623,1.382,0.623,2.213c0,0.724-0.128,1.402-0.382,2.036s-0.648,1.284-1.182,1.95
		s-1.473,1.615-2.819,2.847l-2.02,1.901v0.15h6.843V90.531z"/>
	<path d="M239.517,84.504c0-1.897,0.277-3.674,0.833-5.328c0.555-1.654,1.354-3.104,2.4-4.351h1.74
		c-1.031,1.382-1.807,2.9-2.326,4.555s-0.778,3.355-0.778,5.103c0,1.719,0.265,3.398,0.795,5.038s1.292,3.137,2.288,4.49h-1.719
		c-1.053-1.218-1.855-2.639-2.406-4.265C239.793,88.121,239.517,86.374,239.517,84.504z"/>
	<path d="M256.544,90.531H246.22v-1.536l4.136-4.157c1.26-1.274,2.092-2.184,2.492-2.729c0.402-0.544,0.703-1.074,0.902-1.59
		c0.201-0.516,0.301-1.07,0.301-1.665c0-0.838-0.254-1.502-0.762-1.993c-0.51-0.49-1.215-0.736-2.117-0.736
		c-0.652,0-1.27,0.107-1.854,0.322s-1.233,0.605-1.949,1.171l-0.945-1.214c1.446-1.203,3.021-1.805,4.727-1.805
		c1.477,0,2.633,0.378,3.471,1.133c0.838,0.756,1.256,1.771,1.256,3.045c0,0.996-0.279,1.98-0.838,2.954
		c-0.559,0.974-1.604,2.206-3.137,3.695l-3.438,3.362v0.086h8.078V90.531z"/>
	<path d="M268.532,78.521c0,1.003-0.281,1.823-0.844,2.46c-0.562,0.638-1.359,1.063-2.391,1.278v0.086
		c1.262,0.158,2.195,0.559,2.805,1.203c0.607,0.645,0.912,1.49,0.912,2.535c0,1.497-0.52,2.648-1.557,3.454
		c-1.039,0.806-2.514,1.208-4.426,1.208c-0.832,0-1.592-0.063-2.283-0.188s-1.363-0.345-2.014-0.661V88.2
		c0.68,0.337,1.404,0.593,2.176,0.768c0.77,0.176,1.498,0.263,2.186,0.263c2.713,0,4.07-1.063,4.07-3.19
		c0-1.905-1.496-2.857-4.49-2.857h-1.547v-1.536h1.568c1.225,0,2.195-0.27,2.912-0.811c0.715-0.541,1.074-1.291,1.074-2.25
		c0-0.766-0.264-1.368-0.789-1.805c-0.527-0.437-1.242-0.655-2.145-0.655c-0.688,0-1.336,0.093-1.943,0.279
		c-0.609,0.187-1.305,0.53-2.084,1.031l-0.902-1.203c0.645-0.508,1.387-0.908,2.229-1.198s1.729-0.435,2.658-0.435
		c1.525,0,2.711,0.349,3.557,1.047C268.108,76.346,268.532,77.304,268.532,78.521z"/>
	<path d="M274.063,87.974l0.162,0.247c-0.188,0.716-0.455,1.549-0.807,2.498c-0.35,0.949-0.715,1.832-1.096,2.648h-1.342
		c0.193-0.745,0.406-1.665,0.639-2.761s0.396-1.973,0.488-2.632H274.063z"/>
	<path d="M289.692,90.531h-10.324v-1.536l4.137-4.157c1.26-1.274,2.09-2.184,2.492-2.729c0.4-0.544,0.701-1.074,0.902-1.59
		c0.199-0.516,0.301-1.07,0.301-1.665c0-0.838-0.254-1.502-0.764-1.993c-0.508-0.49-1.213-0.736-2.115-0.736
		c-0.652,0-1.27,0.107-1.854,0.322s-1.234,0.605-1.949,1.171l-0.945-1.214c1.445-1.203,3.021-1.805,4.727-1.805
		c1.475,0,2.631,0.378,3.469,1.133c0.838,0.756,1.258,1.771,1.258,3.045c0,0.996-0.279,1.98-0.838,2.954
		c-0.559,0.974-1.605,2.206-3.137,3.695l-3.438,3.362v0.086h8.078V90.531z"/>
	<path d="M302.356,82.657c0,2.714-0.428,4.741-1.283,6.08c-0.855,1.339-2.164,2.009-3.926,2.009c-1.691,0-2.977-0.686-3.857-2.057
		c-0.881-1.371-1.32-3.382-1.32-6.032c0-2.735,0.426-4.766,1.277-6.091c0.854-1.325,2.152-1.987,3.9-1.987
		c1.703,0,2.998,0.691,3.883,2.073C301.915,78.034,302.356,80.036,302.356,82.657z M293.774,82.657c0,2.285,0.268,3.948,0.805,4.99
		s1.393,1.563,2.568,1.563c1.188,0,2.049-0.528,2.584-1.584c0.533-1.056,0.799-2.712,0.799-4.968s-0.266-3.908-0.799-4.958
		c-0.535-1.049-1.396-1.574-2.584-1.574c-1.176,0-2.031,0.518-2.568,1.552C294.042,78.713,293.774,80.373,293.774,82.657z"/>
	<path d="M309.081,84.504c0,1.884-0.277,3.638-0.832,5.264s-1.355,3.04-2.4,4.243h-1.719c0.994-1.347,1.758-2.841,2.287-4.485
		c0.531-1.644,0.795-3.325,0.795-5.043c0-1.747-0.26-3.448-0.779-5.103c-0.518-1.654-1.293-3.172-2.324-4.555h1.74
		c1.053,1.253,1.854,2.709,2.406,4.367C308.805,80.851,309.081,82.621,309.081,84.504z"/>
</g>
</svg>
