<?xml version="1.0" encoding="utf-8"?>
<!-- Generator: Adobe Illustrator 16.0.4, SVG Export Plug-In . SVG Version: 6.00 Build 0)  -->
<!DOCTYPE svg PUBLIC "-//W3C//DTD SVG 1.1//EN" "http://www.w3.org/Graphics/SVG/1.1/DTD/svg11.dtd">
<svg version="1.1" id="Layer_1" xmlns="http://www.w3.org/2000/svg" xmlns:xlink="http://www.w3.org/1999/xlink" x="0px" y="0px"
	 width="1366px" height="768px" viewBox="0 0 1366 768" enable-background="new 0 0 1366 768" xml:space="preserve">
<line opacity="0.22" fill="none" stroke="#000000" stroke-width="1.5" stroke-miterlimit="10" x1="194.526" y1="654.305" x2="194.525" y2="224.452"/>
<line fill="none" stroke="#000000" stroke-width="1.5" stroke-miterlimit="10" x1="115.129" y1="654.305" x2="115.129" y2="224.452"/>
<line opacity="0.22" fill="none" stroke="#000000" stroke-width="1.5" stroke-miterlimit="10" x1="272.291" y1="654.305" x2="272.291" y2="224.452"/>
<line opacity="0.22" fill="none" stroke="#000000" stroke-width="1.5" stroke-miterlimit="10" x1="350.056" y1="654.305" x2="350.056" y2="224.452"/>
<line opacity="0.22" fill="none" stroke="#000000" stroke-width="1.5" stroke-miterlimit="10" x1="427.82" y1="654.305" x2="427.82" y2="224.452"/>
<line opacity="0.22" fill="none" stroke="#000000" stroke-width="1.5" stroke-miterlimit="10" x1="505.585" y1="654.305" x2="505.585" y2="224.452"/>
<line opacity="0.22" fill="none" stroke="#000000" stroke-width="1.5" stroke-miterlimit="10" x1="552.5" y1="577.907" x2="115.129" y2="577.908"/>
<line fill="none" stroke="#000000" stroke-width="1.5" stroke-miterlimit="10" x1="552.5" y1="654.304" x2="115.129" y2="654.305"/>
<line opacity="0.22" fill="none" stroke="#000000" stroke-width="1.5" stroke-miterlimit="10" x1="552.5" y1="500.893" x2="115.129" y2="500.893"/>
<line opacity="0.22" fill="none" stroke="#000000" stroke-width="1.5" stroke-miterlimit="10" x1="552.5" y1="423.878" x2="115.129" y2="423.878"/>
<line opacity="0.22" fill="none" stroke="#000000" stroke-width="1.5" stroke-miterlimit="10" x1="552.5" y1="346.862" x2="115.129" y2="346.863"/>
<line opacity="0.22" fill="none" stroke="#000000" stroke-width="1.5" stroke-miterlimit="10" x1="552.5" y1="269.848" x2="115.129" y2="269.848"/>
<rect x="100.643" y="674.783" fill="none" width="28.972" height="20.279"/>
<text transform="matrix(1 0 0 1 108.417 692.0215)" font-family="'HelveticaNeue'" font-size="24.1451">0</text>
<rect x="73.144" y="647.45" fill="none" width="28.972" height="20.279"/>
<text transform="matrix(1 0 0 1 80.918 664.6885)" font-family="'HelveticaNeue'" font-size="24.1451">0</text>
<rect x="73.144" y="567.768" fill="none" width="28.972" height="20.279"/>
<text transform="matrix(1 0 0 1 80.918 585.0059)" font-family="'HelveticaNeue'" font-size="24.1451">5</text>
<rect x="73.144" y="490.753" fill="none" width="28.972" height="20.279"/>
<text transform="matrix(1 0 0 1 74.2056 507.9912)" font-family="'HelveticaNeue'" font-size="24.1451">10</text>
<rect x="73.144" y="413.738" fill="none" width="28.972" height="20.279"/>
<text transform="matrix(1 0 0 1 74.2056 430.9766)" font-family="'HelveticaNeue'" font-size="24.1451">15</text>
<rect x="73.144" y="336.723" fill="none" width="28.972" height="20.279"/>
<text transform="matrix(1 0 0 1 74.2056 353.9619)" font-family="'HelveticaNeue'" font-size="24.1451">20</text>
<rect x="73.144" y="259.708" fill="none" width="28.972" height="20.279"/>
<text transform="matrix(1 0 0 1 74.2056 276.9463)" font-family="'HelveticaNeue'" font-size="24.1451">25</text>
<rect x="180.04" y="674.783" fill="none" width="28.972" height="20.279"/>
<text transform="matrix(1 0 0 1 187.8135 692.0215)" font-family="'HelveticaNeue'" font-size="24.1451">5</text>
<rect x="256.804" y="674.783" fill="none" width="28.972" height="20.279"/>
<text transform="matrix(1 0 0 1 257.8657 692.0215)" font-family="'HelveticaNeue'" font-size="24.1451">10</text>
<rect x="333.814" y="674.783" fill="none" width="28.972" height="20.279"/>
<text transform="matrix(1 0 0 1 334.876 692.0215)" font-family="'HelveticaNeue'" font-size="24.1451">15</text>
<rect x="413.334" y="674.783" fill="none" width="28.972" height="20.279"/>
<text transform="matrix(1 0 0 1 414.3955 692.0215)" font-family="'HelveticaNeue'" font-size="24.1451">20</text>
<rect x="491.334" y="674.783" fill="none" width="28.972" height="20.279"/>
<text transform="matrix(1 0 0 1 492.3955 692.0215)" font-family="'HelveticaNeue'" font-size="24.1451">25</text>
<circle fill="#E15218" enable-background="new    " cx="194.525" cy="592.834" r="3.235"/>
<circle fill="#E15218" enable-background="new    " cx="210.012" cy="547.167" r="3.235"/>
<circle fill="#E15218" enable-background="new    " cx="302.932" cy="454.833" r="3.235"/>
<circle fill="#E15218" enable-background="new    " cx="302.932" cy="408.083" r="3.235"/>
<circle fill="#E15218" enable-background="new    " cx="115.129" cy="561.833" r="3.235"/>
<circle fill="#E15218" enable-background="new    " cx="178.167" cy="500.892" r="3.235"/>
<circle fill="#E15218" enable-background="new    " cx="163.167" cy="485.166" r="3.235"/>
<circle fill="#E15218" enable-background="new    " cx="162.766" cy="377.5" r="3.235"/>
<circle fill="#E15218" enable-background="new    " cx="178.599" cy="362.599" r="3.235"/>
<circle fill="#E15218" enable-background="new    " cx="287.599" cy="623.833" r="3.235"/>
<circle fill="#E15218" enable-background="new    " cx="318.831" cy="654.305" r="3.235"/>
<circle fill="#E15218" enable-background="new    " cx="333.814" cy="577.908" r="3.235"/>
<circle fill="#E15218" enable-background="new    " cx="115.129" cy="301" r="3.235"/>
<circle fill="#E15218" enable-background="new    " cx="194.525" cy="269.847" r="3.235"/>
<circle fill="#E15218" enable-background="new    " cx="209.749" cy="316.016" r="3.235"/>
<circle fill="#E15218" enable-background="new    " cx="287.5" cy="239.5" r="3.235"/>
<circle fill="#E15218" enable-background="new    " cx="334.231" cy="285.166" r="3.235"/>
<circle fill="#E15218" enable-background="new    " cx="411.697" cy="439.378" r="3.235"/>
<circle fill="#E15218" enable-background="new    " cx="411.697" cy="423.878" r="3.235"/>
<circle fill="#E15218" enable-background="new    " cx="474.167" cy="346.862" r="3.235"/>
<circle fill="#E15218" enable-background="new    " cx="552.5" cy="331.5" r="3.235"/>
<circle fill="#E15218" enable-background="new    " cx="520.932" cy="254.834" r="3.235"/>
<circle fill="#E15218" enable-background="new    " cx="505.585" cy="222.898" r="3.235"/>
<circle fill="#E15218" enable-background="new    " cx="552.5" cy="531.5" r="3.235"/>
<circle fill="#E15218" enable-background="new    " cx="536.5" cy="470" r="3.235"/>
<circle fill="#E15218" enable-background="new    " cx="474.167" cy="515.733" r="3.235"/>
<circle fill="#E15218" enable-background="new    " cx="521.401" cy="608.069" r="3.235"/>
<circle fill="#E15218" enable-background="new    " cx="505.585" cy="639.177" r="3.235"/>
</svg>
