<?xml version="1.0" encoding="utf-8"?>
<!-- Generator: Adobe Illustrator 16.0.4, SVG Export Plug-In . SVG Version: 6.00 Build 0)  -->
<!DOCTYPE svg PUBLIC "-//W3C//DTD SVG 1.1//EN" "http://www.w3.org/Graphics/SVG/1.1/DTD/svg11.dtd">
<svg version="1.1" id="Layer_1" xmlns="http://www.w3.org/2000/svg" xmlns:xlink="http://www.w3.org/1999/xlink" x="0px" y="0px"
	 width="1366px" height="768px" viewBox="0 0 1366 768" enable-background="new 0 0 1366 768" xml:space="preserve">
<line fill="none" stroke="#000000" stroke-width="1.4487" stroke-miterlimit="10" x1="151.524" y1="420.568" x2="581.378" y2="420.568"/>
<line fill="none" stroke="#000000" stroke-width="1.4487" stroke-miterlimit="10" x1="327.948" y1="635.857" x2="327.948" y2="206.004"/>
<rect x="108.722" y="566.912" fill="none" width="28.973" height="20.281"/>
<g enable-background="new    ">
	<path d="M123.062,576.474v1.932h-6.978v-1.932H123.062z"/>
	<path d="M133.372,569.544c-0.499-0.467-1.159-0.7-1.979-0.7c-0.87,0-1.57,0.213-2.101,0.64c-0.531,0.427-0.946,0.966-1.243,1.617
		c-0.298,0.652-0.503,1.356-0.616,2.113c-0.113,0.757-0.177,1.465-0.193,2.125l0.048,0.048c0.483-0.788,1.083-1.36,1.799-1.714
		c0.716-0.354,1.541-0.531,2.475-0.531c0.821,0,1.557,0.141,2.209,0.422c0.652,0.282,1.199,0.673,1.642,1.171
		c0.442,0.5,0.785,1.087,1.026,1.763c0.242,0.677,0.362,1.409,0.362,2.197c0,0.628-0.097,1.28-0.29,1.956
		c-0.193,0.676-0.511,1.292-0.954,1.847c-0.443,0.556-1.03,1.015-1.762,1.377c-0.733,0.362-1.638,0.543-2.716,0.543
		c-1.272,0-2.294-0.258-3.066-0.772c-0.773-0.516-1.369-1.175-1.787-1.98c-0.418-0.805-0.696-1.689-0.833-2.655
		s-0.205-1.899-0.205-2.801c0-1.175,0.101-2.314,0.302-3.417s0.543-2.08,1.026-2.934c0.483-0.853,1.126-1.537,1.932-2.053
		c0.805-0.515,1.819-0.772,3.042-0.772c1.417,0,2.543,0.375,3.38,1.123s1.32,1.831,1.449,3.247h-2.052
		C134.169,570.63,133.871,570.011,133.372,569.544z M129.654,575.254c-0.435,0.201-0.805,0.475-1.11,0.821
		c-0.306,0.346-0.536,0.757-0.688,1.231s-0.229,0.978-0.229,1.509s0.081,1.03,0.242,1.497c0.161,0.467,0.39,0.869,0.688,1.207
		s0.668,0.607,1.111,0.809c0.442,0.202,0.945,0.302,1.509,0.302s1.059-0.1,1.485-0.302c0.426-0.201,0.785-0.479,1.074-0.833
		c0.29-0.354,0.511-0.761,0.664-1.219c0.153-0.459,0.229-0.938,0.229-1.437c0-0.531-0.069-1.034-0.206-1.51
		c-0.137-0.475-0.35-0.885-0.64-1.231c-0.29-0.346-0.652-0.623-1.086-0.833c-0.435-0.209-0.942-0.313-1.521-0.313
		C130.596,574.952,130.088,575.053,129.654,575.254z"/>
</g>
<rect x="108.722" y="619.579" fill="none" width="28.973" height="20.281"/>
<g enable-background="new    ">
	<path d="M123.062,629.141v1.932h-6.978v-1.932H123.062z"/>
	<path d="M126.25,622.198c0.273-0.539,0.644-0.993,1.11-1.364c0.467-0.37,1.002-0.651,1.606-0.845s1.235-0.29,1.896-0.29
		c0.933,0,1.73,0.125,2.39,0.375c0.66,0.249,1.195,0.579,1.605,0.989c0.411,0.411,0.712,0.878,0.906,1.4
		c0.193,0.523,0.29,1.059,0.29,1.605c0,0.773-0.213,1.478-0.64,2.113c-0.427,0.636-1.002,1.114-1.727,1.437
		c1.03,0.322,1.795,0.85,2.294,1.581c0.499,0.733,0.749,1.63,0.749,2.692c0,0.837-0.149,1.578-0.447,2.222s-0.7,1.188-1.207,1.63
		c-0.507,0.442-1.107,0.776-1.799,1.002c-0.692,0.225-1.433,0.338-2.222,0.338c-0.821,0-1.585-0.104-2.293-0.313
		c-0.708-0.209-1.324-0.531-1.847-0.966c-0.523-0.435-0.934-0.979-1.231-1.63c-0.298-0.652-0.447-1.413-0.447-2.282
		c0-1.014,0.257-1.896,0.772-2.644c0.515-0.749,1.256-1.292,2.222-1.63c-0.725-0.29-1.304-0.761-1.739-1.412
		c-0.435-0.652-0.652-1.364-0.652-2.138C125.839,623.361,125.976,622.738,126.25,622.198z M128.435,634.416
		c0.684,0.588,1.557,0.881,2.62,0.881c0.515,0,0.986-0.084,1.413-0.253c0.426-0.169,0.797-0.402,1.111-0.7
		c0.313-0.298,0.555-0.648,0.724-1.051s0.253-0.845,0.253-1.328c0-0.467-0.093-0.896-0.277-1.291
		c-0.186-0.395-0.439-0.737-0.761-1.026c-0.322-0.29-0.696-0.52-1.123-0.688c-0.427-0.169-0.881-0.253-1.364-0.253
		c-0.499,0-0.97,0.076-1.413,0.229c-0.443,0.153-0.829,0.375-1.159,0.664c-0.33,0.29-0.587,0.637-0.772,1.039
		s-0.278,0.853-0.278,1.352C127.408,633.02,127.75,633.828,128.435,634.416z M128.253,625.361c0.161,0.347,0.378,0.632,0.652,0.857
		c0.273,0.226,0.595,0.395,0.966,0.507c0.37,0.113,0.765,0.169,1.183,0.169c0.821,0,1.497-0.241,2.028-0.725
		c0.531-0.482,0.797-1.158,0.797-2.027s-0.27-1.525-0.809-1.968c-0.54-0.443-1.228-0.664-2.064-0.664
		c-0.402,0-0.789,0.057-1.159,0.169c-0.371,0.112-0.688,0.281-0.954,0.507c-0.266,0.226-0.479,0.499-0.64,0.821
		c-0.161,0.321-0.241,0.7-0.241,1.135C128.012,624.609,128.092,625.016,128.253,625.361z"/>
</g>
<rect x="108.722" y="463.912" fill="none" width="28.973" height="20.281"/>
<g enable-background="new    ">
	<path d="M123.062,473.475v1.932h-6.978v-1.932H123.062z"/>
	<path d="M125.598,467.68c0.225-0.74,0.575-1.38,1.05-1.92c0.475-0.539,1.066-0.962,1.774-1.268s1.513-0.459,2.415-0.459
		c0.74,0,1.437,0.109,2.089,0.326c0.652,0.218,1.219,0.531,1.702,0.941c0.483,0.411,0.865,0.922,1.147,1.533
		c0.281,0.612,0.422,1.32,0.422,2.125c0,0.757-0.117,1.425-0.35,2.004c-0.233,0.58-0.543,1.099-0.93,1.558s-0.829,0.873-1.328,1.243
		c-0.499,0.371-1.014,0.725-1.545,1.062c-0.531,0.322-1.062,0.64-1.594,0.954c-0.531,0.313-1.018,0.647-1.461,1.002
		s-0.821,0.736-1.135,1.146c-0.314,0.411-0.519,0.882-0.616,1.413h8.789v1.811h-11.179c0.08-1.014,0.261-1.879,0.543-2.596
		c0.282-0.716,0.64-1.34,1.075-1.871s0.925-0.998,1.473-1.4s1.119-0.78,1.714-1.135c0.725-0.45,1.36-0.865,1.908-1.243
		c0.547-0.379,1.002-0.761,1.364-1.147c0.362-0.386,0.635-0.805,0.821-1.256c0.185-0.45,0.277-0.974,0.277-1.569
		c0-0.467-0.088-0.889-0.265-1.268c-0.178-0.378-0.415-0.704-0.712-0.978c-0.298-0.273-0.648-0.483-1.05-0.628
		c-0.403-0.145-0.83-0.217-1.28-0.217c-0.596,0-1.107,0.124-1.533,0.374c-0.427,0.25-0.777,0.575-1.05,0.978
		c-0.274,0.402-0.471,0.857-0.592,1.364c-0.121,0.507-0.173,1.019-0.157,1.533h-2.052
		C125.284,469.225,125.372,468.42,125.598,467.68z"/>
</g>
<rect x="108.722" y="514.912" fill="none" width="28.973" height="20.281"/>
<g enable-background="new    ">
	<path d="M123.062,524.475v1.932h-6.978v-1.932H123.062z"/>
	<path d="M136.704,526.333v1.812h-2.318v4.008h-1.932v-4.008h-7.509v-1.98l7.799-11.131h1.642v11.3H136.704z M132.455,517.955
		h-0.048l-5.698,8.378h5.747V517.955z"/>
</g>
<rect x="108.722" y="411.029" fill="none" width="28.973" height="20.278"/>
<g enable-background="new    ">
	<path d="M125.332,417.909c0.032-0.676,0.112-1.336,0.241-1.979s0.314-1.256,0.556-1.835c0.241-0.58,0.571-1.087,0.99-1.521
		c0.418-0.435,0.945-0.78,1.582-1.038c0.636-0.258,1.396-0.387,2.282-0.387c0.885,0,1.646,0.129,2.282,0.387
		c0.636,0.258,1.163,0.604,1.582,1.038c0.418,0.435,0.749,0.941,0.99,1.521c0.242,0.579,0.426,1.191,0.555,1.835
		s0.209,1.304,0.242,1.979s0.048,1.328,0.048,1.956s-0.016,1.279-0.048,1.956c-0.032,0.676-0.113,1.336-0.242,1.979
		s-0.313,1.252-0.555,1.823c-0.241,0.571-0.571,1.074-0.99,1.509c-0.419,0.435-0.942,0.776-1.569,1.026
		c-0.628,0.249-1.393,0.374-2.294,0.374c-0.886,0-1.646-0.125-2.282-0.374c-0.636-0.25-1.163-0.592-1.582-1.026
		c-0.419-0.435-0.749-0.938-0.99-1.509c-0.242-0.571-0.427-1.18-0.556-1.823s-0.209-1.304-0.241-1.979
		c-0.033-0.677-0.048-1.328-0.048-1.956S125.299,418.585,125.332,417.909z M127.517,422.002c0.04,0.797,0.169,1.545,0.386,2.245
		s0.567,1.292,1.05,1.775c0.483,0.482,1.159,0.724,2.028,0.724s1.545-0.241,2.028-0.724c0.483-0.483,0.833-1.075,1.05-1.775
		s0.346-1.448,0.386-2.245c0.04-0.797,0.06-1.517,0.06-2.161c0-0.418-0.004-0.881-0.012-1.389c-0.008-0.507-0.048-1.014-0.121-1.521
		c-0.072-0.507-0.177-1.002-0.313-1.485c-0.137-0.482-0.338-0.905-0.604-1.268s-0.6-0.655-1.002-0.881s-0.893-0.338-1.473-0.338
		s-1.071,0.112-1.473,0.338s-0.736,0.519-1.002,0.881s-0.467,0.785-0.604,1.268c-0.137,0.483-0.241,0.979-0.314,1.485
		c-0.072,0.507-0.113,1.014-0.121,1.521c-0.008,0.508-0.012,0.971-0.012,1.389C127.457,420.485,127.477,421.205,127.517,422.002z"/>
</g>
<rect x="108.722" y="356.912" fill="none" width="28.973" height="20.281"/>
<g enable-background="new    ">
	<path d="M125.598,360.68c0.225-0.74,0.575-1.38,1.05-1.92c0.475-0.539,1.066-0.962,1.774-1.268s1.513-0.459,2.415-0.459
		c0.74,0,1.437,0.109,2.089,0.326c0.652,0.218,1.219,0.531,1.702,0.941c0.483,0.411,0.865,0.922,1.147,1.533
		c0.281,0.612,0.422,1.32,0.422,2.125c0,0.757-0.117,1.425-0.35,2.004c-0.233,0.58-0.543,1.099-0.93,1.558s-0.829,0.873-1.328,1.243
		c-0.499,0.371-1.014,0.725-1.545,1.062c-0.531,0.322-1.062,0.64-1.594,0.954c-0.531,0.313-1.018,0.647-1.461,1.002
		s-0.821,0.736-1.135,1.146c-0.314,0.411-0.519,0.882-0.616,1.413h8.789v1.811h-11.179c0.08-1.014,0.261-1.879,0.543-2.596
		c0.282-0.716,0.64-1.34,1.075-1.871s0.925-0.998,1.473-1.4s1.119-0.78,1.714-1.135c0.725-0.45,1.36-0.865,1.908-1.243
		c0.547-0.379,1.002-0.761,1.364-1.147c0.362-0.386,0.635-0.805,0.821-1.256c0.185-0.45,0.277-0.974,0.277-1.569
		c0-0.467-0.088-0.889-0.265-1.268c-0.178-0.378-0.415-0.704-0.712-0.978c-0.298-0.273-0.648-0.483-1.05-0.628
		c-0.403-0.145-0.83-0.217-1.28-0.217c-0.596,0-1.107,0.124-1.533,0.374c-0.427,0.25-0.777,0.575-1.05,0.978
		c-0.274,0.402-0.471,0.857-0.592,1.364c-0.121,0.507-0.173,1.019-0.157,1.533h-2.052
		C125.284,362.225,125.372,361.42,125.598,360.68z"/>
</g>
<rect x="108.722" y="306.912" fill="none" width="28.973" height="20.281"/>
<g enable-background="new    ">
	<path d="M136.704,318.333v1.812h-2.318v4.008h-1.932v-4.008h-7.509v-1.98l7.799-11.131h1.642v11.3H136.704z M132.455,309.955
		h-0.048l-5.698,8.378h5.747V309.955z"/>
</g>
<rect x="108.722" y="206.004" fill="none" width="28.973" height="20.28"/>
<g enable-background="new    ">
	<path d="M126.25,208.624c0.273-0.539,0.644-0.993,1.11-1.364c0.467-0.37,1.002-0.651,1.606-0.845s1.235-0.29,1.896-0.29
		c0.933,0,1.73,0.125,2.39,0.375c0.66,0.249,1.195,0.579,1.605,0.989c0.411,0.411,0.712,0.878,0.906,1.4
		c0.193,0.523,0.29,1.059,0.29,1.605c0,0.773-0.213,1.478-0.64,2.113c-0.427,0.636-1.002,1.114-1.727,1.437
		c1.03,0.322,1.795,0.85,2.294,1.581c0.499,0.733,0.749,1.63,0.749,2.692c0,0.837-0.149,1.578-0.447,2.222s-0.7,1.188-1.207,1.63
		c-0.507,0.442-1.107,0.776-1.799,1.002c-0.692,0.225-1.433,0.338-2.222,0.338c-0.821,0-1.585-0.104-2.293-0.313
		c-0.708-0.209-1.324-0.531-1.847-0.966c-0.523-0.435-0.934-0.979-1.231-1.63c-0.298-0.652-0.447-1.413-0.447-2.282
		c0-1.014,0.257-1.896,0.772-2.644c0.515-0.749,1.256-1.292,2.222-1.63c-0.725-0.29-1.304-0.761-1.739-1.412
		c-0.435-0.652-0.652-1.364-0.652-2.138C125.839,209.787,125.976,209.164,126.25,208.624z M128.435,220.842
		c0.684,0.588,1.557,0.881,2.62,0.881c0.515,0,0.986-0.084,1.413-0.253c0.426-0.169,0.797-0.402,1.111-0.7
		c0.313-0.298,0.555-0.648,0.724-1.051s0.253-0.845,0.253-1.328c0-0.467-0.093-0.896-0.277-1.291
		c-0.186-0.395-0.439-0.737-0.761-1.026c-0.322-0.29-0.696-0.52-1.123-0.688c-0.427-0.169-0.881-0.253-1.364-0.253
		c-0.499,0-0.97,0.076-1.413,0.229c-0.443,0.153-0.829,0.375-1.159,0.664c-0.33,0.29-0.587,0.637-0.772,1.039
		s-0.278,0.853-0.278,1.352C127.408,219.445,127.75,220.254,128.435,220.842z M128.253,211.787c0.161,0.347,0.378,0.632,0.652,0.857
		c0.273,0.226,0.595,0.395,0.966,0.507c0.37,0.113,0.765,0.169,1.183,0.169c0.821,0,1.497-0.241,2.028-0.725
		c0.531-0.482,0.797-1.158,0.797-2.027s-0.27-1.525-0.809-1.968c-0.54-0.443-1.228-0.664-2.064-0.664
		c-0.402,0-0.789,0.057-1.159,0.169c-0.371,0.112-0.688,0.281-0.954,0.507c-0.266,0.226-0.479,0.499-0.64,0.821
		c-0.161,0.321-0.241,0.7-0.241,1.135C128.012,211.035,128.092,211.441,128.253,211.787z"/>
</g>
<rect x="108.722" y="255.913" fill="none" width="28.973" height="20.28"/>
<g enable-background="new    ">
	<path d="M133.372,258.545c-0.499-0.467-1.159-0.7-1.979-0.7c-0.87,0-1.57,0.213-2.101,0.64c-0.531,0.427-0.946,0.966-1.243,1.617
		c-0.298,0.652-0.503,1.356-0.616,2.113c-0.113,0.757-0.177,1.465-0.193,2.125l0.048,0.048c0.483-0.788,1.083-1.36,1.799-1.714
		c0.716-0.354,1.541-0.531,2.475-0.531c0.821,0,1.557,0.141,2.209,0.422c0.652,0.282,1.199,0.673,1.642,1.171
		c0.442,0.5,0.785,1.087,1.026,1.763c0.242,0.677,0.362,1.409,0.362,2.197c0,0.628-0.097,1.28-0.29,1.956
		c-0.193,0.676-0.511,1.292-0.954,1.847c-0.443,0.556-1.03,1.015-1.762,1.377c-0.733,0.362-1.638,0.543-2.716,0.543
		c-1.272,0-2.294-0.258-3.066-0.772c-0.773-0.516-1.369-1.175-1.787-1.98c-0.418-0.805-0.696-1.689-0.833-2.655
		s-0.205-1.899-0.205-2.801c0-1.175,0.101-2.314,0.302-3.417s0.543-2.08,1.026-2.934c0.483-0.853,1.126-1.537,1.932-2.053
		c0.805-0.515,1.819-0.772,3.042-0.772c1.417,0,2.543,0.375,3.38,1.123s1.32,1.831,1.449,3.247h-2.052
		C134.169,259.631,133.871,259.012,133.372,258.545z M129.654,264.255c-0.435,0.201-0.805,0.475-1.11,0.821
		c-0.306,0.346-0.536,0.757-0.688,1.231s-0.229,0.978-0.229,1.509s0.081,1.03,0.242,1.497c0.161,0.467,0.39,0.869,0.688,1.207
		s0.668,0.607,1.111,0.809c0.442,0.202,0.945,0.302,1.509,0.302s1.059-0.1,1.485-0.302c0.426-0.201,0.785-0.479,1.074-0.833
		c0.29-0.354,0.511-0.761,0.664-1.219c0.153-0.459,0.229-0.938,0.229-1.437c0-0.531-0.069-1.034-0.206-1.51
		c-0.137-0.475-0.35-0.885-0.64-1.231c-0.29-0.346-0.652-0.623-1.086-0.833c-0.435-0.209-0.942-0.313-1.521-0.313
		C130.596,263.953,130.088,264.054,129.654,264.255z"/>
</g>
<rect x="313.263" y="656.336" fill="none" width="28.973" height="20.279"/>
<g enable-background="new    ">
	<path d="M322.1,663.216c0.032-0.676,0.112-1.336,0.241-1.979s0.314-1.256,0.556-1.835c0.241-0.58,0.571-1.087,0.99-1.521
		c0.418-0.435,0.945-0.78,1.582-1.038c0.636-0.258,1.396-0.387,2.282-0.387c0.885,0,1.646,0.129,2.282,0.387
		c0.636,0.258,1.163,0.604,1.582,1.038c0.418,0.435,0.749,0.941,0.99,1.521c0.242,0.579,0.426,1.191,0.555,1.835
		s0.209,1.304,0.242,1.979s0.048,1.328,0.048,1.956s-0.016,1.279-0.048,1.956c-0.032,0.676-0.113,1.336-0.242,1.979
		s-0.313,1.252-0.555,1.823c-0.241,0.571-0.571,1.074-0.99,1.509c-0.419,0.435-0.942,0.776-1.569,1.026
		c-0.628,0.249-1.393,0.374-2.294,0.374c-0.886,0-1.646-0.125-2.282-0.374c-0.636-0.25-1.163-0.592-1.582-1.026
		c-0.419-0.435-0.749-0.938-0.99-1.509c-0.242-0.571-0.427-1.18-0.556-1.823s-0.209-1.304-0.241-1.979
		c-0.033-0.677-0.048-1.328-0.048-1.956S322.067,663.892,322.1,663.216z M324.285,667.309c0.04,0.797,0.169,1.545,0.386,2.245
		s0.567,1.292,1.05,1.775c0.483,0.482,1.159,0.724,2.028,0.724s1.545-0.241,2.028-0.724c0.483-0.483,0.833-1.075,1.05-1.775
		s0.346-1.448,0.386-2.245c0.04-0.797,0.06-1.517,0.06-2.161c0-0.418-0.004-0.881-0.012-1.389c-0.008-0.507-0.048-1.014-0.121-1.521
		c-0.072-0.507-0.177-1.002-0.313-1.485c-0.137-0.482-0.338-0.905-0.604-1.268s-0.6-0.655-1.002-0.881s-0.893-0.338-1.473-0.338
		s-1.071,0.112-1.473,0.338s-0.736,0.519-1.002,0.881s-0.467,0.785-0.604,1.268c-0.137,0.483-0.241,0.979-0.314,1.485
		c-0.072,0.507-0.113,1.014-0.121,1.521c-0.008,0.508-0.012,0.971-0.012,1.389C324.224,665.792,324.244,666.512,324.285,667.309z"/>
</g>
<rect x="388.079" y="656.336" fill="none" width="28.973" height="20.279"/>
<g enable-background="new    ">
	<path d="M402.397,673.574v-12.266h-4.443v-1.642c0.58,0,1.143-0.045,1.69-0.133c0.547-0.089,1.042-0.254,1.485-0.495
		c0.442-0.241,0.816-0.571,1.123-0.99c0.306-0.418,0.515-0.949,0.628-1.594h1.569v17.119H402.397z"/>
</g>
<rect x="238.445" y="656.336" fill="none" width="28.973" height="20.279"/>
<g enable-background="new    ">
	<path d="M249.708,665.896v1.932h-6.978v-1.932H249.708z"/>
	<path d="M257.459,673.574v-12.266h-4.443v-1.642c0.58,0,1.143-0.045,1.69-0.133c0.547-0.089,1.042-0.254,1.485-0.495
		c0.442-0.241,0.816-0.571,1.123-0.99c0.306-0.418,0.515-0.949,0.628-1.594h1.569v17.119H257.459z"/>
</g>
<rect x="163.629" y="656.336" fill="none" width="28.973" height="20.279"/>
<g enable-background="new    ">
	<path d="M174.892,665.896v1.932h-6.978v-1.932H174.892z"/>
	<path d="M177.427,660.102c0.225-0.74,0.575-1.38,1.05-1.92c0.475-0.539,1.066-0.962,1.774-1.268s1.513-0.459,2.415-0.459
		c0.74,0,1.437,0.109,2.089,0.326c0.652,0.218,1.219,0.531,1.702,0.941c0.483,0.411,0.865,0.922,1.147,1.533
		c0.281,0.612,0.422,1.32,0.422,2.125c0,0.757-0.117,1.425-0.35,2.004c-0.233,0.58-0.543,1.099-0.93,1.558s-0.829,0.873-1.328,1.243
		c-0.499,0.371-1.014,0.725-1.545,1.062c-0.531,0.322-1.062,0.64-1.594,0.954c-0.531,0.313-1.018,0.647-1.461,1.002
		s-0.821,0.736-1.135,1.146c-0.314,0.411-0.519,0.882-0.616,1.413h8.789v1.811h-11.179c0.08-1.014,0.261-1.879,0.543-2.596
		c0.282-0.716,0.64-1.34,1.075-1.871s0.925-0.998,1.473-1.4s1.119-0.78,1.714-1.135c0.725-0.45,1.36-0.865,1.908-1.243
		c0.547-0.379,1.002-0.761,1.364-1.147c0.362-0.386,0.635-0.805,0.821-1.256c0.185-0.45,0.277-0.974,0.277-1.569
		c0-0.467-0.088-0.889-0.265-1.268c-0.178-0.378-0.415-0.704-0.712-0.978c-0.298-0.273-0.648-0.483-1.05-0.628
		c-0.403-0.145-0.83-0.217-1.28-0.217c-0.596,0-1.107,0.124-1.533,0.374c-0.427,0.25-0.777,0.575-1.05,0.978
		c-0.274,0.402-0.471,0.857-0.592,1.364c-0.121,0.507-0.173,1.019-0.157,1.533h-2.052
		C177.113,661.646,177.202,660.842,177.427,660.102z"/>
</g>
<rect x="462.896" y="656.336" fill="none" width="28.973" height="20.279"/>
<g enable-background="new    ">
	<path d="M471.998,660.102c0.225-0.74,0.575-1.38,1.05-1.92c0.475-0.539,1.066-0.962,1.774-1.268s1.513-0.459,2.415-0.459
		c0.74,0,1.437,0.109,2.089,0.326c0.652,0.218,1.219,0.531,1.702,0.941c0.483,0.411,0.865,0.922,1.147,1.533
		c0.281,0.612,0.422,1.32,0.422,2.125c0,0.757-0.117,1.425-0.35,2.004c-0.233,0.58-0.543,1.099-0.93,1.558s-0.829,0.873-1.328,1.243
		c-0.499,0.371-1.014,0.725-1.545,1.062c-0.531,0.322-1.062,0.64-1.594,0.954c-0.531,0.313-1.018,0.647-1.461,1.002
		s-0.821,0.736-1.135,1.146c-0.314,0.411-0.519,0.882-0.616,1.413h8.789v1.811h-11.179c0.08-1.014,0.261-1.879,0.543-2.596
		c0.282-0.716,0.64-1.34,1.075-1.871s0.925-0.998,1.473-1.4s1.119-0.78,1.714-1.135c0.725-0.45,1.36-0.865,1.908-1.243
		c0.547-0.379,1.002-0.761,1.364-1.147c0.362-0.386,0.635-0.805,0.821-1.256c0.185-0.45,0.277-0.974,0.277-1.569
		c0-0.467-0.088-0.889-0.265-1.268c-0.178-0.378-0.415-0.704-0.712-0.978c-0.298-0.273-0.648-0.483-1.05-0.628
		c-0.403-0.145-0.83-0.217-1.28-0.217c-0.596,0-1.107,0.124-1.533,0.374c-0.427,0.25-0.777,0.575-1.05,0.978
		c-0.274,0.402-0.471,0.857-0.592,1.364c-0.121,0.507-0.173,1.019-0.157,1.533h-2.052
		C471.684,661.646,471.772,660.842,471.998,660.102z"/>
</g>
<rect x="537.712" y="656.336" fill="none" width="28.973" height="20.279"/>
<g enable-background="new    ">
	<path d="M550.967,663.819c0.081,0,0.161,0,0.241,0h0.435c0.435,0,0.849-0.061,1.243-0.181c0.395-0.121,0.74-0.298,1.038-0.531
		s0.535-0.527,0.712-0.882c0.177-0.354,0.266-0.756,0.266-1.207c0-0.917-0.29-1.605-0.869-2.064s-1.304-0.688-2.173-0.688
		c-0.548,0-1.026,0.101-1.437,0.302c-0.41,0.201-0.749,0.471-1.014,0.809c-0.265,0.338-0.463,0.732-0.591,1.183
		c-0.129,0.451-0.193,0.926-0.193,1.425h-2.052c0.032-0.82,0.165-1.569,0.398-2.245s0.567-1.256,1.002-1.738
		c0.435-0.483,0.978-0.861,1.63-1.135s1.404-0.411,2.258-0.411c0.74,0,1.428,0.093,2.064,0.278c0.636,0.185,1.187,0.463,1.654,0.833
		c0.467,0.37,0.833,0.845,1.099,1.424c0.266,0.58,0.398,1.265,0.398,2.053c0,0.772-0.226,1.457-0.676,2.053s-1.014,1.046-1.69,1.352
		v0.049c1.046,0.226,1.823,0.716,2.33,1.473c0.507,0.757,0.761,1.65,0.761,2.68c0,0.854-0.157,1.605-0.471,2.258
		c-0.314,0.651-0.736,1.195-1.268,1.63s-1.155,0.761-1.872,0.978c-0.716,0.218-1.477,0.326-2.282,0.326
		c-0.869,0-1.658-0.121-2.366-0.362s-1.312-0.6-1.811-1.074c-0.499-0.475-0.881-1.059-1.147-1.751
		c-0.266-0.691-0.391-1.48-0.375-2.366h2.053c0.032,1.111,0.354,2.017,0.966,2.717c0.611,0.7,1.505,1.05,2.68,1.05
		c0.499,0,0.974-0.076,1.425-0.229c0.451-0.152,0.845-0.37,1.183-0.651s0.607-0.628,0.809-1.038
		c0.201-0.411,0.302-0.873,0.302-1.389c0-0.531-0.097-1.002-0.29-1.412c-0.193-0.411-0.451-0.757-0.772-1.038
		c-0.322-0.282-0.705-0.491-1.147-0.628c-0.443-0.137-0.922-0.205-1.437-0.205c-0.435,0-0.845,0.023-1.231,0.072v-1.738
		C550.83,663.812,550.902,663.819,550.967,663.819z"/>
</g>
<line opacity="0.1" fill="none" stroke="#000000" stroke-width="1.4487" stroke-miterlimit="10" enable-background="new    " x1="402.698" y1="635.857" x2="402.698" y2="206.004"/>
<line opacity="0.1" fill="none" stroke="#000000" stroke-width="1.4487" stroke-miterlimit="10" enable-background="new    " x1="477.448" y1="635.857" x2="477.448" y2="206.004"/>
<line opacity="0.1" fill="none" stroke="#000000" stroke-width="1.4487" stroke-miterlimit="10" enable-background="new    " x1="179.115" y1="635.857" x2="179.115" y2="206.004"/>
<line opacity="0.1" fill="none" stroke="#000000" stroke-width="1.4487" stroke-miterlimit="10" enable-background="new    " x1="253.865" y1="635.857" x2="253.865" y2="206.004"/>
<line opacity="0.1" fill="none" stroke="#000000" stroke-width="1.4487" stroke-miterlimit="10" enable-background="new    " x1="552.198" y1="635.857" x2="552.198" y2="206.004"/>
<line opacity="0.1" fill="none" stroke="#000000" stroke-width="1.4487" stroke-miterlimit="10" enable-background="new    " x1="151.524" y1="266.053" x2="581.378" y2="266.053"/>
<line opacity="0.1" fill="none" stroke="#000000" stroke-width="1.4487" stroke-miterlimit="10" enable-background="new    " x1="167.524" y1="215.145" x2="597.378" y2="215.145"/>
<line opacity="0.1" fill="none" stroke="#000000" stroke-width="1.4487" stroke-miterlimit="10" enable-background="new    " x1="151.524" y1="317.053" x2="581.378" y2="317.053"/>
<line opacity="0.1" fill="none" stroke="#000000" stroke-width="1.4487" stroke-miterlimit="10" enable-background="new    " x1="151.524" y1="367.053" x2="581.378" y2="367.053"/>
<line opacity="0.1" fill="none" stroke="#000000" stroke-width="1.4487" stroke-miterlimit="10" enable-background="new    " x1="151.524" y1="474.053" x2="581.378" y2="474.053"/>
<line opacity="0.1" fill="none" stroke="#000000" stroke-width="1.4487" stroke-miterlimit="10" enable-background="new    " x1="151.524" y1="525.053" x2="581.378" y2="525.053"/>
<line opacity="0.1" fill="none" stroke="#000000" stroke-width="1.4487" stroke-miterlimit="10" enable-background="new    " x1="151.524" y1="577.053" x2="581.378" y2="577.053"/>
<line opacity="0.1" fill="none" stroke="#000000" stroke-width="1.4487" stroke-miterlimit="10" enable-background="new    " x1="151.524" y1="628.72" x2="581.378" y2="628.72"/>
<path fill="none" stroke="#E15218" stroke-width="3" stroke-miterlimit="10" d="M185.448,420.449c0,22.104,14,73.021,142.5,69.354
	c108.971-3.108,161.75,30.25,253.43,107.25"/>
<path fill="none" stroke="#E15218" stroke-width="3" stroke-miterlimit="10" d="M185.448,419.64c0-22.104,14-73.02,142.5-69.353
	c108.971,3.109,161.75-30.25,253.43-107.25"/>
<polyline fill="none" stroke="#000000" stroke-width="1.4487" stroke-miterlimit="10" points="253.865,484.365 504.782,538.002 
	504.782,304.053 "/>
<circle cx="504.782" cy="302.165" r="3.536"/>
<g>
	<g>
		<line fill="none" stroke="#636363" stroke-miterlimit="10" x1="217.181" y1="470.517" x2="219.517" y2="471.408"/>
		
			<line fill="none" stroke="#636363" stroke-miterlimit="10" stroke-dasharray="4.9976,4.9976" x1="224.186" y1="473.189" x2="576.708" y2="607.718"/>
		<line fill="none" stroke="#636363" stroke-miterlimit="10" x1="579.042" y1="608.608" x2="581.378" y2="609.5"/>
	</g>
</g>
<g>
	<g>
		<line fill="none" stroke="#636363" stroke-miterlimit="10" x1="188.611" y1="400.834" x2="190.154" y2="402.802"/>
		
			<line fill="none" stroke="#636363" stroke-miterlimit="10" stroke-dasharray="4.9766,4.9766" x1="193.224" y1="406.719" x2="369.756" y2="631.932"/>
		<line fill="none" stroke="#636363" stroke-miterlimit="10" x1="371.291" y1="633.89" x2="372.833" y2="635.857"/>
	</g>
</g>
<circle fill="#636363" cx="217.181" cy="470.517" r="3.536"/>
<circle fill="#636363" cx="188.611" cy="400.834" r="3.536"/>
<circle cx="253.865" cy="484.365" r="3.536"/>
<rect x="250.329" y="458.377" fill="none" width="74.826" height="20.279"/>
<g enable-background="new    ">
	<path d="M259.907,461.941c0,1.229-0.384,2.169-1.152,2.82c-0.769,0.651-1.861,0.977-3.277,0.977h-1.039v4.062h-2.422v-11.422h3.648
		c1.385,0,2.438,0.298,3.16,0.895C259.546,459.87,259.907,460.759,259.907,461.941z M254.438,463.754h0.797
		c0.745,0,1.302-0.147,1.672-0.441c0.37-0.294,0.555-0.723,0.555-1.285c0-0.567-0.155-0.987-0.465-1.258
		c-0.31-0.271-0.796-0.406-1.457-0.406h-1.102V463.754z"/>
	<path d="M267.235,469.801h-2.414v-6.609l0.023-1.086l0.039-1.188c-0.401,0.401-0.68,0.664-0.836,0.789l-1.312,1.055l-1.164-1.453
		l3.68-2.93h1.984V469.801z"/>
	<path d="M274.603,463.512v-1.711h7.758v1.711H274.603z M274.603,466.535v-1.711h7.758v1.711H274.603z"/>
	<path d="M296.532,461.941c0,1.229-0.384,2.169-1.152,2.82c-0.769,0.651-1.861,0.977-3.277,0.977h-1.039v4.062h-2.422v-11.422h3.648
		c1.385,0,2.438,0.298,3.16,0.895C296.171,459.87,296.532,460.759,296.532,461.941z M291.063,463.754h0.797
		c0.745,0,1.302-0.147,1.672-0.441c0.37-0.294,0.555-0.723,0.555-1.285c0-0.567-0.155-0.987-0.465-1.258
		c-0.31-0.271-0.796-0.406-1.457-0.406h-1.102V463.754z"/>
</g>
<g enable-background="new    ">
	<path d="M305.939,469.801h-7.984v-1.68l2.867-2.898c0.849-0.87,1.403-1.473,1.664-1.809c0.26-0.336,0.448-0.647,0.562-0.934
		c0.114-0.286,0.172-0.583,0.172-0.891c0-0.458-0.126-0.8-0.379-1.023c-0.253-0.224-0.59-0.336-1.012-0.336
		c-0.443,0-0.873,0.102-1.289,0.305c-0.417,0.203-0.852,0.492-1.305,0.867l-1.312-1.555c0.562-0.479,1.028-0.817,1.398-1.016
		c0.37-0.198,0.773-0.351,1.211-0.457s0.927-0.16,1.469-0.16c0.713,0,1.344,0.13,1.891,0.391s0.971,0.625,1.273,1.094
		c0.302,0.469,0.453,1.005,0.453,1.609c0,0.526-0.093,1.02-0.277,1.48c-0.185,0.461-0.472,0.934-0.859,1.418
		c-0.388,0.484-1.072,1.175-2.051,2.07l-1.469,1.383v0.109h4.977V469.801z"/>
	<path d="M310.611,458.379l0.109,0.172c-0.261,1.026-0.719,2.273-1.375,3.742h-1.711c0.359-1.542,0.62-2.847,0.781-3.914H310.611z"
		/>
	<path d="M315.071,458.379l0.109,0.172c-0.261,1.026-0.719,2.273-1.375,3.742h-1.711c0.359-1.542,0.62-2.847,0.781-3.914H315.071z"
		/>
	<path d="M319.532,458.379l0.109,0.172c-0.261,1.026-0.719,2.273-1.375,3.742h-1.711c0.359-1.542,0.62-2.847,0.781-3.914H319.532z"
		/>
</g>
<rect x="176.895" y="479.829" fill="none" width="37.413" height="20.279"/>
<g enable-background="new    ">
	<path fill="#A3A3A3" d="M192.772,483.394c0,1.229-0.384,2.169-1.152,2.82c-0.769,0.651-1.861,0.977-3.277,0.977h-1.039v4.062
		h-2.422v-11.422h3.648c1.385,0,2.438,0.298,3.16,0.895C192.411,481.322,192.772,482.211,192.772,483.394z M187.303,485.206h0.797
		c0.745,0,1.302-0.147,1.672-0.441c0.37-0.294,0.555-0.723,0.555-1.285c0-0.567-0.155-0.987-0.465-1.258
		c-0.31-0.271-0.796-0.406-1.457-0.406h-1.102V485.206z"/>
</g>
<g enable-background="new    ">
	<path fill="#A3A3A3" d="M202.741,491.253h-7.984v-1.68l2.867-2.898c0.849-0.87,1.403-1.473,1.664-1.809
		c0.26-0.336,0.448-0.647,0.562-0.934c0.114-0.286,0.172-0.583,0.172-0.891c0-0.458-0.126-0.8-0.379-1.023
		c-0.253-0.224-0.59-0.336-1.012-0.336c-0.443,0-0.873,0.102-1.289,0.305c-0.417,0.203-0.852,0.492-1.305,0.867l-1.312-1.555
		c0.562-0.479,1.028-0.817,1.398-1.016c0.37-0.198,0.773-0.351,1.211-0.457s0.927-0.16,1.469-0.16c0.713,0,1.344,0.13,1.891,0.391
		s0.971,0.625,1.273,1.094c0.302,0.469,0.453,1.005,0.453,1.609c0,0.526-0.093,1.02-0.277,1.48
		c-0.185,0.461-0.472,0.934-0.859,1.418c-0.388,0.484-1.072,1.175-2.051,2.07l-1.469,1.383v0.109h4.977V491.253z"/>
	<path fill="#A3A3A3" d="M207.413,479.831l0.109,0.172c-0.261,1.026-0.719,2.273-1.375,3.742h-1.711
		c0.359-1.542,0.62-2.847,0.781-3.914H207.413z"/>
	<path fill="#A3A3A3" d="M211.873,479.831l0.109,0.172c-0.261,1.026-0.719,2.273-1.375,3.742h-1.711
		c0.359-1.542,0.62-2.847,0.781-3.914H211.873z"/>
</g>
<rect x="342.235" y="609.439" fill="none" width="37.413" height="20.278"/>
<g enable-background="new    ">
	<path fill="#A3A3A3" d="M365.95,620.863v-11.422h2.422v9.422h4.633v2H365.95z"/>
	<path fill="#A3A3A3" d="M377.715,609.441l0.109,0.172c-0.261,1.026-0.719,2.273-1.375,3.742h-1.711
		c0.359-1.542,0.62-2.847,0.781-3.914H377.715z"/>
</g>
<rect x="398.346" y="557.045" fill="none" width="37.413" height="20.279"/>
<g enable-background="new    ">
	<path fill="#A3A3A3" d="M416.412,568.469v-11.422h2.422v9.422h4.633v2H416.412z"/>
	<path fill="#A3A3A3" d="M428.178,557.047l0.109,0.172c-0.261,1.026-0.719,2.273-1.375,3.742h-1.711
		c0.359-1.542,0.62-2.847,0.781-3.914H428.178z"/>
	<path fill="#A3A3A3" d="M432.638,557.047l0.109,0.172c-0.261,1.026-0.719,2.273-1.375,3.742h-1.711
		c0.359-1.542,0.62-2.847,0.781-3.914H432.638z"/>
</g>
<rect x="406.833" y="527.862" fill="none" width="37.413" height="20.278"/>
<g enable-background="new    ">
	<path fill="#A3A3A3" d="M419.252,539.286v-11.422h2.422v9.422h4.633v2H419.252z"/>
	<path fill="#A3A3A3" d="M431.018,527.864l0.109,0.172c-0.261,1.026-0.719,2.273-1.375,3.742h-1.711
		c0.359-1.542,0.62-2.847,0.781-3.914H431.018z"/>
	<path fill="#A3A3A3" d="M435.478,527.864l0.109,0.172c-0.261,1.026-0.719,2.273-1.375,3.742h-1.711
		c0.359-1.542,0.62-2.847,0.781-3.914H435.478z"/>
	<path fill="#A3A3A3" d="M439.939,527.864l0.109,0.172c-0.261,1.026-0.719,2.273-1.375,3.742h-1.711
		c0.359-1.542,0.62-2.847,0.781-3.914H439.939z"/>
</g>
<rect x="151.524" y="377.193" fill="none" width="37.413" height="20.278"/>
<g enable-background="new    ">
	<path fill="#A3A3A3" d="M173.049,380.758c0,1.229-0.384,2.169-1.152,2.82c-0.769,0.651-1.861,0.977-3.277,0.977h-1.039v4.062
		h-2.422v-11.422h3.648c1.385,0,2.438,0.298,3.16,0.895C172.688,378.687,173.049,379.575,173.049,380.758z M167.581,382.57h0.797
		c0.745,0,1.302-0.147,1.672-0.441c0.37-0.294,0.555-0.723,0.555-1.285c0-0.567-0.155-0.987-0.465-1.258
		c-0.31-0.271-0.796-0.406-1.457-0.406h-1.102V382.57z"/>
</g>
<g enable-background="new    ">
	<path fill="#A3A3A3" d="M183.018,388.617h-7.984v-1.68l2.867-2.898c0.849-0.87,1.403-1.473,1.664-1.809
		c0.26-0.336,0.448-0.647,0.562-0.934c0.114-0.286,0.172-0.583,0.172-0.891c0-0.458-0.126-0.8-0.379-1.023
		c-0.253-0.224-0.59-0.336-1.012-0.336c-0.443,0-0.873,0.102-1.289,0.305c-0.417,0.203-0.852,0.492-1.305,0.867l-1.312-1.555
		c0.562-0.479,1.028-0.817,1.398-1.016c0.37-0.198,0.773-0.351,1.211-0.457s0.927-0.16,1.469-0.16c0.713,0,1.344,0.13,1.891,0.391
		s0.971,0.625,1.273,1.094c0.302,0.469,0.453,1.005,0.453,1.609c0,0.526-0.093,1.02-0.277,1.48
		c-0.185,0.461-0.472,0.934-0.859,1.418c-0.388,0.484-1.072,1.175-2.051,2.07l-1.469,1.383v0.109h4.977V388.617z"/>
	<path fill="#A3A3A3" d="M187.69,377.195l0.109,0.172c-0.261,1.026-0.719,2.273-1.375,3.742h-1.711
		c0.359-1.542,0.62-2.847,0.781-3.914H187.69z"/>
</g>
<rect x="366.451" y="279.312" fill="none" width="134.795" height="55.201"/>
<g enable-background="new    ">
	<path d="M428.639,282.876c0,1.229-0.384,2.169-1.152,2.82c-0.769,0.651-1.861,0.977-3.277,0.977h-1.039v4.062h-2.422v-11.422h3.648
		c1.385,0,2.438,0.298,3.16,0.895C428.278,280.805,428.639,281.693,428.639,282.876z M423.17,284.688h0.797
		c0.745,0,1.302-0.147,1.672-0.441c0.37-0.294,0.555-0.723,0.555-1.285c0-0.567-0.155-0.987-0.465-1.258
		c-0.31-0.271-0.796-0.406-1.457-0.406h-1.102V284.688z"/>
	<path d="M437.537,281.868c0,0.714-0.216,1.32-0.648,1.82c-0.433,0.5-1.039,0.844-1.82,1.031v0.047
		c0.922,0.114,1.62,0.395,2.094,0.84c0.474,0.445,0.711,1.046,0.711,1.801c0,1.099-0.398,1.954-1.195,2.566
		s-1.935,0.918-3.414,0.918c-1.24,0-2.339-0.206-3.297-0.617v-2.055c0.442,0.224,0.93,0.406,1.461,0.547s1.057,0.211,1.578,0.211
		c0.797,0,1.385-0.136,1.766-0.406c0.38-0.271,0.57-0.706,0.57-1.305c0-0.536-0.219-0.917-0.656-1.141s-1.136-0.336-2.094-0.336
		h-0.867v-1.852h0.883c0.885,0,1.532-0.116,1.941-0.348c0.409-0.231,0.613-0.629,0.613-1.191c0-0.864-0.542-1.297-1.625-1.297
		c-0.375,0-0.757,0.062-1.145,0.188c-0.388,0.125-0.819,0.341-1.293,0.648l-1.117-1.664c1.042-0.75,2.284-1.125,3.727-1.125
		c1.182,0,2.116,0.239,2.801,0.719C437.194,280.348,437.537,281.014,437.537,281.868z"/>
	<path d="M443.334,284.446v-1.711h7.758v1.711H443.334z M443.334,287.47v-1.711h7.758v1.711H443.334z"/>
	<path d="M464.561,290.735h-7.984v-1.68l2.867-2.898c0.849-0.87,1.403-1.473,1.664-1.809c0.26-0.336,0.448-0.647,0.562-0.934
		c0.114-0.286,0.172-0.583,0.172-0.891c0-0.458-0.126-0.8-0.379-1.023c-0.253-0.224-0.59-0.336-1.012-0.336
		c-0.443,0-0.873,0.102-1.289,0.305c-0.417,0.203-0.852,0.492-1.305,0.867l-1.312-1.555c0.562-0.479,1.028-0.817,1.398-1.016
		c0.37-0.198,0.773-0.351,1.211-0.457s0.927-0.16,1.469-0.16c0.713,0,1.344,0.13,1.891,0.391s0.971,0.625,1.273,1.094
		c0.302,0.469,0.453,1.005,0.453,1.609c0,0.526-0.093,1.02-0.277,1.48c-0.185,0.461-0.472,0.934-0.859,1.418
		c-0.388,0.484-1.072,1.175-2.051,2.07l-1.469,1.383v0.109h4.977V290.735z"/>
	<path d="M474.6,278.579l-0.32,2.875l2.914-0.812l0.258,1.969l-2.656,0.188l1.742,2.32l-1.773,0.945l-1.219-2.445l-1.07,2.43
		l-1.844-0.93l1.727-2.32l-2.641-0.203l0.305-1.953l2.852,0.812l-0.32-2.875H474.6z"/>
	<path d="M491.428,282.876c0,1.229-0.384,2.169-1.152,2.82c-0.769,0.651-1.861,0.977-3.277,0.977h-1.039v4.062h-2.422v-11.422h3.648
		c1.385,0,2.438,0.298,3.16,0.895C491.067,280.805,491.428,281.693,491.428,282.876z M485.959,284.688h0.797
		c0.745,0,1.302-0.147,1.672-0.441c0.37-0.294,0.555-0.723,0.555-1.285c0-0.567-0.155-0.987-0.465-1.258
		c-0.31-0.271-0.796-0.406-1.457-0.406h-1.102V284.688z"/>
	<path d="M498.756,290.735h-2.414v-6.609l0.023-1.086l0.039-1.188c-0.401,0.401-0.68,0.664-0.836,0.789l-1.312,1.055l-1.164-1.453
		l3.68-2.93h1.984V290.735z"/>
</g>
<g>
	<g>
		<path fill="none" stroke="#A3A3A3" stroke-width="1.2" stroke-linecap="round" stroke-miterlimit="10" d="M183.333,404.37
			c-20.909,16.087-11.38,65.982,22.671,67.84"/>
		<g>
			<polygon fill="#A3A3A3" points="210.667,472.167 204.085,474.812 205.659,472.138 204.116,469.446 			"/>
		</g>
	</g>
</g>
<g>
	<g>
		<path fill="none" stroke="#A3A3A3" stroke-width="1.2" stroke-linecap="round" stroke-miterlimit="10" d="M217.181,476.5
			c0,12.074,17.269,20.422,29.246,14.715"/>
		<g>
			<polygon fill="#A3A3A3" points="250.329,488.66 246.2,494.429 246.09,491.327 243.343,489.887 			"/>
		</g>
	</g>
</g>
<g>
	<g>
		<path fill="none" stroke="#A3A3A3" stroke-width="1.2" stroke-linecap="round" stroke-miterlimit="10" d="M345.515,594.361
			c19.979-2.729,45.315-18.033,47.5-49.694"/>
		<g>
			<polygon fill="#A3A3A3" points="393.167,540.008 395.583,546.677 392.965,545.012 390.222,546.461 			"/>
		</g>
	</g>
</g>
<g>
	<g>
		<path fill="none" stroke="#A3A3A3" stroke-width="1.2" stroke-linecap="round" stroke-miterlimit="10" d="M394.167,535.167
			c4.622-2.249,6.571-7.942,5.692-13.106"/>
		<g>
			<polygon fill="#A3A3A3" points="398.302,517.667 402.91,523.061 399.873,522.423 397.814,524.743 			"/>
		</g>
	</g>
</g>
</svg>
