<?xml version="1.0" encoding="utf-8"?>
<!-- Generator: Adobe Illustrator 16.0.4, SVG Export Plug-In . SVG Version: 6.00 Build 0)  -->
<!DOCTYPE svg PUBLIC "-//W3C//DTD SVG 1.1//EN" "http://www.w3.org/Graphics/SVG/1.1/DTD/svg11.dtd">
<svg version="1.1" id="Layer_2" xmlns="http://www.w3.org/2000/svg" xmlns:xlink="http://www.w3.org/1999/xlink" x="0px" y="0px"
	 width="1366px" height="768px" viewBox="0 0 1366 768" enable-background="new 0 0 1366 768" xml:space="preserve">
<g>
	<g>
		<circle fill="#FFFFFF" stroke="#000000" stroke-width="3" stroke-miterlimit="10" cx="982.75" cy="272.424" r="131.244"/>
		<g>
			<rect x="980" y="142" width="5" height="28"/>
		</g>
		<g>
			<rect x="926.632" y="160.601" transform="matrix(0.3613 0.9324 -0.9324 0.3613 752.8563 -772.9172)" width="27.999" height="5"/>
		</g>
		<g>
			<rect x="890.051" y="183.204" transform="matrix(0.6737 0.739 -0.739 0.6737 432.2299 -607.504)" width="28" height="5.001"/>
		</g>
		<g>
			
				<rect x="864.116" y="217.461" transform="matrix(0.8952 0.4457 -0.4457 0.8952 190.1107 -368.3579)" width="28.002" height="5.001"/>
		</g>
		<g>
			
				<rect x="864.116" y="217.461" transform="matrix(0.8952 0.4457 -0.4457 0.8952 190.1107 -368.3579)" width="28.002" height="5.001"/>
		</g>
		<g>
			
				<rect x="1011.158" y="160.548" transform="matrix(-0.3612 0.9325 -0.9325 -0.3612 1547.4751 -734.0125)" width="28" height="5.002"/>
		</g>
		<g>
			
				<rect x="852.405" y="258.885" transform="matrix(0.9957 0.0923 -0.0923 0.9957 27.8259 -78.8571)" width="27.999" height="5.001"/>
		</g>
		<g>
			<rect x="856.391" y="301.677" transform="matrix(0.9618 -0.2736 0.2736 0.9618 -50.012 249.7488)" width="27.999" height="5"/>
		</g>
		<g>
			<rect x="875.557" y="340.181" transform="matrix(0.798 -0.6026 0.6026 0.798 -26.8434 605.27)" width="28" height="5"/>
		</g>
		<g>
			<rect x="907.331" y="369.124" transform="matrix(0.5264 -0.8502 0.8502 0.5264 120.3721 959.35)" width="28" height="5.002"/>
		</g>
		<g>
			
				<rect x="947.387" y="384.677" transform="matrix(0.1837 -0.983 0.983 0.1837 404.205 1261.0881)" width="28.002" height="5.001"/>
		</g>
		<g>
			
				<rect x="990.446" y="384.617" transform="matrix(-0.1839 -0.9829 0.9829 -0.1839 808.6331 1445.6187)" width="27.998" height="5"/>
		</g>
		<g>
			
				<rect x="990.446" y="384.617" transform="matrix(-0.1839 -0.9829 0.9829 -0.1839 808.6331 1445.6187)" width="27.998" height="5"/>
		</g>
		<g>
			
				<rect x="1030.501" y="369.101" transform="matrix(-0.5266 -0.8501 0.8501 -0.5266 1278.6567 1455.2251)" width="27.998" height="5.002"/>
		</g>
		<g>
			
				<rect x="1062.297" y="340.124" transform="matrix(-0.7982 -0.6024 0.6024 -0.7982 1729.0029 1264.4595)" width="27.999" height="5.001"/>
		</g>
		<g>
			<rect x="1081.42" y="301.588" transform="matrix(-0.9619 -0.2733 0.2733 -0.9619 2066.0264 895.98)" width="28" height="5"/>
		</g>
		<g>
			
				<rect x="1085.372" y="258.854" transform="matrix(-0.9957 0.0926 -0.0926 -0.9957 2218.2212 419.7733)" width="27.997" height="5"/>
		</g>
		<g>
			<rect x="1073.625" y="217.503" transform="matrix(-0.895 0.4461 -0.4461 -0.895 2159.178 -68.2666)" width="27.999" height="5"/>
		</g>
		<g>
			<rect x="1047.661" y="183.111" transform="matrix(-0.6733 0.7394 -0.7394 -0.6733 1913.6935 -474.4016)" width="28" height="5"/>
		</g>
		<g>
			<rect x="875.557" y="340.181" transform="matrix(0.798 -0.6026 0.6026 0.798 -26.8434 605.27)" width="28" height="5"/>
		</g>
	</g>
	<rect x="960" y="178.611" fill="none" width="44" height="15"/>
	<rect x="992.255" y="184.111" fill="none" width="44" height="15"/>
	<rect x="1020.255" y="200.846" fill="none" width="44" height="15"/>
	<rect x="1039.152" y="227.278" fill="none" width="44" height="15"/>
	<rect x="1047.878" y="259.877" fill="none" width="44" height="15"/>
	<rect x="1045.448" y="291.668" fill="none" width="44" height="15"/>
	<rect x="1031.493" y="321.904" fill="none" width="44" height="15"/>
	<rect x="1009.493" y="342.943" fill="none" width="44" height="15"/>
	<rect x="976.5" y="355.354" fill="none" width="44" height="15"/>
	<rect x="943.924" y="356.354" fill="none" width="44" height="15"/>
	<rect x="912.835" y="345.229" fill="none" width="44" height="15"/>
	<rect x="889.297" y="324.656" fill="none" width="44" height="15"/>
	<rect x="873" y="292.542" fill="none" width="44" height="15"/>
	<rect x="869.291" y="259.877" fill="none" width="44" height="15"/>
	<rect x="878.691" y="227.278" fill="none" width="44" height="15"/>
	<rect x="898.793" y="200.403" fill="none" width="44" height="15"/>
	<rect x="924.934" y="185.111" fill="none" width="44" height="15"/>
	<circle cx="982.257" cy="272.778" r="5.5"/>
	<g enable-background="new    ">
		<g enable-background="new    ">
			<g>
				<path fill="none" stroke="#E15218" stroke-width="2.1368" stroke-miterlimit="10" d="M932.506,229.642
					c-1.941,2.343-3.695,4.849-5.296,7.453c-1.595,2.609-2.976,5.356-4.183,8.174c-1.205,2.824-2.168,5.75-2.949,8.717
					c-0.775,2.971-1.294,6-1.631,9.031c-0.318,3.036-0.389,6.075-0.285,9.084c0.15,3.009,0.477,6.011,1.04,8.973
					c0.583,2.958,1.339,5.876,2.335,8.701c1.003,2.821,2.17,5.569,3.555,8.183c1.389,2.61,2.926,5.118,4.648,7.468
					c1.727,2.344,3.579,4.565,5.586,6.609c2.013,2.036,4.125,3.939,6.365,5.646c4.469,3.422,9.339,6.164,14.393,8.138l0.945,0.373
					l0.955,0.336c0.639,0.221,1.272,0.441,1.91,0.646c1.289,0.377,2.562,0.771,3.857,1.06c2.573,0.639,5.165,1.041,7.725,1.316
					c1.282,0.11,2.556,0.23,3.821,0.252c0.634,0.018,1.265,0.044,1.891,0.043c0.626-0.012,1.25-0.021,1.872-0.033l0.93-0.026
					l0.926-0.062c0.615-0.045,1.227-0.09,1.838-0.135c0.61-0.061,1.219-0.137,1.822-0.21c0.605-0.077,1.207-0.144,1.805-0.252
					c4.781-0.772,9.334-2.091,13.484-3.883c4.154-1.787,7.922-3.991,11.254-6.441c6.668-4.92,11.534-10.8,14.889-16.466
					c1.681-2.839,3.002-5.633,4.006-8.288c1.002-2.657,1.759-5.149,2.254-7.439c1.037-4.57,1.265-8.232,1.312-10.699
					c0.05-1.236-0.003-2.178-0.011-2.813c-0.02-0.635-0.027-0.963-0.027-0.963v-0.068c0,0-0.021-0.327-0.065-0.961
					c-0.054-0.632-0.095-1.57-0.261-2.789c-0.285-2.433-0.858-6.017-2.297-10.352c-0.692-2.172-1.659-4.507-2.86-6.954
					c-1.205-2.447-2.721-4.977-4.562-7.495c-3.674-5.031-8.733-10.021-15.205-13.888c-3.231-1.925-6.803-3.567-10.631-4.792
					c-3.826-1.23-7.924-1.989-12.121-2.255c-4.202-0.269-8.489,0.042-12.771,0.875c-2.136,0.447-4.271,0.99-6.357,1.733
					c-1.054,0.341-2.077,0.777-3.11,1.188c-0.511,0.221-1.017,0.457-1.522,0.688l-0.76,0.352l-0.746,0.383
					c-7.979,4.043-14.896,10.459-19.496,18.31c-1.159,1.956-2.148,4.012-3.019,6.111c-0.862,2.104-1.537,4.281-2.088,6.479
					c-0.543,2.202-0.885,4.445-1.104,6.686c-0.202,2.244-0.217,4.491-0.113,6.715c0.151,2.225,0.42,4.434,0.869,6.604
					c0.466,2.166,1.046,4.298,1.81,6.355c0.771,2.052,1.648,4.051,2.693,5.945c1.049,1.89,2.195,3.708,3.482,5.404
					c5.113,6.81,12.046,11.806,19.394,14.527l0.687,0.259l0.694,0.229c0.466,0.15,0.925,0.306,1.388,0.445
					c0.936,0.25,1.854,0.527,2.794,0.713c1.857,0.434,3.731,0.682,5.575,0.855c3.698,0.283,7.309,0.128,10.729-0.494
					c3.418-0.62,6.648-1.611,9.582-2.946c2.934-1.33,5.585-2.945,7.922-4.73c4.676-3.589,8.043-7.83,10.331-11.873
					c1.147-2.025,2.04-4.007,2.704-5.886c0.66-1.88,1.164-3.631,1.471-5.242c0.664-3.209,0.768-5.77,0.764-7.497
					c0.021-0.864-0.037-1.526-0.049-1.97c-0.02-0.445-0.029-0.674-0.029-0.674v-0.048c0,0-0.021-0.229-0.063-0.672
					c-0.051-0.442-0.082-1.099-0.223-1.946c-0.23-1.694-0.687-4.176-1.747-7.15c-0.506-1.493-1.219-3.086-2.079-4.756
					c-0.865-1.67-1.951-3.39-3.261-5.094c-2.606-3.406-6.168-6.759-10.646-9.293c-2.239-1.259-4.691-2.314-7.3-3.081
					c-2.607-0.774-5.385-1.206-8.219-1.319"/>
				<g>
					<polygon fill="#E15218" points="937.8,223.252 926.661,229.208 932.11,230.119 934.02,235.303 					"/>
				</g>
				<g>
					<circle fill="#E15218" cx="983.717" cy="238.766" r="4.419"/>
				</g>
			</g>
		</g>
	</g>
	
		<line fill="none" stroke="#000000" stroke-width="4" stroke-linecap="round" stroke-miterlimit="10" x1="934.835" y1="219.953" x2="982.5" y2="273.377"/>
</g>
<g>
	<g enable-background="new    ">
		<path d="M986.088,184.075c0,1.852-0.293,3.233-0.876,4.146s-1.476,1.369-2.677,1.369c-1.152,0-2.029-0.468-2.629-1.402
			c-0.602-0.936-0.901-2.306-0.901-4.113c0-1.864,0.29-3.249,0.872-4.152c0.58-0.903,1.467-1.355,2.658-1.355
			c1.162,0,2.045,0.472,2.647,1.414S986.088,182.288,986.088,184.075z M980.235,184.075c0,1.559,0.183,2.692,0.55,3.402
			c0.365,0.711,0.949,1.066,1.75,1.066c0.811,0,1.397-0.36,1.762-1.081c0.363-0.72,0.545-1.849,0.545-3.388
			c0-1.537-0.182-2.664-0.545-3.38c-0.364-0.715-0.951-1.073-1.762-1.073c-0.801,0-1.385,0.354-1.75,1.059
			C980.418,181.387,980.235,182.519,980.235,184.075z"/>
	</g>
	<g enable-background="new    ">
		<path d="M1015.75,194.944h-1.188v-7.632c0-0.635,0.02-1.235,0.059-1.802c-0.102,0.103-0.217,0.21-0.344,0.322
			s-0.708,0.589-1.743,1.428l-0.645-0.834l2.835-2.19h1.025V194.944z"/>
	</g>
	<g enable-background="new    ">
		<path d="M1046.283,211.679h-7.038v-1.047l2.819-2.835c0.859-0.869,1.426-1.489,1.699-1.86s0.479-0.732,0.615-1.084
			s0.205-0.729,0.205-1.135c0-0.572-0.173-1.024-0.52-1.359c-0.347-0.334-0.828-0.502-1.443-0.502c-0.443,0-0.865,0.074-1.263,0.221
			c-0.398,0.146-0.841,0.412-1.329,0.798l-0.645-0.827c0.986-0.82,2.061-1.23,3.223-1.23c1.006,0,1.794,0.257,2.365,0.772
			c0.571,0.515,0.857,1.207,0.857,2.076c0,0.679-0.191,1.351-0.572,2.015s-1.094,1.504-2.139,2.52l-2.344,2.292v0.059h5.508V211.679
			z"/>
	</g>
	<g enable-background="new    ">
		<path d="M1064.778,229.923c0,0.684-0.192,1.243-0.575,1.677c-0.383,0.436-0.926,0.726-1.629,0.872v0.059
			c0.859,0.107,1.496,0.381,1.911,0.82s0.622,1.016,0.622,1.729c0,1.021-0.354,1.806-1.062,2.354
			c-0.708,0.55-1.714,0.824-3.018,0.824c-0.566,0-1.085-0.043-1.557-0.128c-0.472-0.086-0.929-0.235-1.373-0.45v-1.158
			c0.464,0.23,0.958,0.404,1.483,0.524c0.524,0.119,1.021,0.179,1.49,0.179c1.851,0,2.775-0.725,2.775-2.175
			c0-1.299-1.02-1.948-3.061-1.948h-1.055v-1.047h1.068c0.836,0,1.497-0.185,1.985-0.554c0.488-0.368,0.732-0.88,0.732-1.534
			c0-0.522-0.18-0.933-0.538-1.23c-0.359-0.298-0.846-0.447-1.461-0.447c-0.469,0-0.911,0.064-1.326,0.191s-0.889,0.361-1.421,0.703
			l-0.615-0.82c0.439-0.347,0.946-0.619,1.52-0.817c0.573-0.197,1.179-0.296,1.813-0.296c1.039,0,1.848,0.237,2.424,0.714
			C1064.49,228.439,1064.778,229.093,1064.778,229.923z"/>
	</g>
	<g enable-background="new    ">
		<path d="M1074.412,268.249h-1.59v2.461h-1.164v-2.461h-5.207v-1.062l5.082-7.243h1.289v7.2h1.59V268.249z M1071.658,267.144
			v-3.561c0-0.697,0.024-1.486,0.073-2.365h-0.059c-0.234,0.469-0.454,0.857-0.659,1.164l-3.348,4.762H1071.658z"/>
	</g>
	<g enable-background="new    ">
		<path d="M1067.785,295.96c1.129,0,2.016,0.28,2.663,0.839c0.646,0.56,0.97,1.325,0.97,2.296c0,1.109-0.353,1.979-1.058,2.607
			c-0.706,0.631-1.679,0.945-2.919,0.945c-1.206,0-2.127-0.192-2.762-0.578v-1.172c0.342,0.219,0.768,0.392,1.275,0.516
			c0.508,0.125,1.008,0.188,1.501,0.188c0.859,0,1.527-0.203,2.003-0.608c0.477-0.405,0.715-0.991,0.715-1.758
			c0-1.494-0.916-2.241-2.747-2.241c-0.464,0-1.084,0.071-1.86,0.213l-0.63-0.403l0.403-5.01h5.324v1.12h-4.285l-0.271,3.216
			C1066.67,296.017,1067.229,295.96,1067.785,295.96z"/>
	</g>
	<g enable-background="new    ">
		<path d="M1050.607,328.159c0-2.104,0.409-3.678,1.228-4.72c0.817-1.043,2.027-1.563,3.629-1.563c0.552,0,0.986,0.046,1.304,0.139
			v1.047c-0.376-0.121-0.806-0.183-1.289-0.183c-1.147,0-2.023,0.357-2.629,1.073c-0.605,0.715-0.938,1.84-0.996,3.373h0.088
			c0.537-0.84,1.387-1.26,2.549-1.26c0.961,0,1.719,0.29,2.273,0.871s0.832,1.369,0.832,2.365c0,1.113-0.305,1.989-0.912,2.626
			c-0.608,0.638-1.43,0.956-2.465,0.956c-1.108,0-1.987-0.416-2.637-1.249C1050.933,330.803,1050.607,329.645,1050.607,328.159z
			 M1054.204,331.851c0.693,0,1.231-0.218,1.615-0.655c0.383-0.437,0.575-1.067,0.575-1.894c0-0.707-0.179-1.264-0.535-1.67
			c-0.356-0.404-0.889-0.607-1.597-0.607c-0.439,0-0.843,0.091-1.208,0.271c-0.367,0.181-0.658,0.43-0.876,0.746
			c-0.218,0.318-0.325,0.647-0.325,0.989c0,0.503,0.098,0.972,0.293,1.406s0.472,0.779,0.831,1.032
			C1053.336,331.725,1053.745,331.851,1054.204,331.851z"/>
	</g>
	<g enable-background="new    ">
		<path d="M1029.838,353.776l4.439-9.588h-5.838v-1.12h7.127v0.974l-4.381,9.734H1029.838z"/>
	</g>
	<g enable-background="new    ">
		<path d="M999.035,355.326c0.977,0,1.75,0.227,2.322,0.681c0.57,0.454,0.856,1.082,0.856,1.882c0,0.527-0.163,1.009-0.491,1.443
			c-0.326,0.435-0.85,0.83-1.566,1.187c0.869,0.415,1.486,0.851,1.853,1.308c0.366,0.456,0.55,0.984,0.55,1.586
			c0,0.889-0.311,1.598-0.931,2.127c-0.62,0.53-1.47,0.795-2.549,0.795c-1.143,0-2.021-0.25-2.637-0.751
			c-0.615-0.5-0.923-1.209-0.923-2.128c0-1.225,0.747-2.18,2.241-2.863c-0.674-0.381-1.157-0.792-1.45-1.234
			c-0.293-0.441-0.439-0.936-0.439-1.482c0-0.777,0.287-1.396,0.86-1.857C997.305,355.557,998.073,355.326,999.035,355.326z
			 M996.721,363.484c0,0.586,0.203,1.043,0.611,1.37s0.98,0.491,1.718,0.491c0.728,0,1.294-0.171,1.699-0.514
			c0.405-0.341,0.608-0.81,0.608-1.406c0-0.473-0.191-0.895-0.572-1.263c-0.381-0.369-1.045-0.727-1.992-1.073
			c-0.727,0.312-1.254,0.658-1.582,1.036C996.885,362.505,996.721,362.957,996.721,363.484z M999.021,356.314
			c-0.61,0-1.089,0.146-1.436,0.439s-0.521,0.684-0.521,1.172c0,0.449,0.145,0.835,0.433,1.157s0.82,0.645,1.597,0.967
			c0.698-0.293,1.192-0.608,1.483-0.944c0.29-0.338,0.436-0.73,0.436-1.18c0-0.493-0.177-0.885-0.531-1.176
			C1000.127,356.46,999.641,356.314,999.021,356.314z"/>
	</g>
	<g enable-background="new    ">
		<path d="M969.953,361.05c0,4.189-1.621,6.284-4.863,6.284c-0.566,0-1.016-0.049-1.348-0.146v-1.047
			c0.391,0.127,0.835,0.189,1.333,0.189c1.172,0,2.057-0.362,2.655-1.087c0.598-0.726,0.924-1.837,0.978-3.337h-0.088
			c-0.269,0.406-0.625,0.715-1.069,0.927c-0.444,0.213-0.945,0.319-1.502,0.319c-0.947,0-1.699-0.283-2.256-0.85
			s-0.834-1.357-0.834-2.373c0-1.113,0.311-1.992,0.934-2.637s1.441-0.967,2.457-0.967c0.728,0,1.363,0.187,1.908,0.56
			c0.544,0.374,0.963,0.918,1.256,1.634C969.807,359.234,969.953,360.078,969.953,361.05z M966.35,357.365
			c-0.698,0-1.238,0.226-1.619,0.674c-0.381,0.45-0.57,1.075-0.57,1.875c0,0.703,0.176,1.257,0.527,1.659
			c0.352,0.403,0.886,0.604,1.604,0.604c0.444,0,0.854-0.09,1.227-0.271c0.373-0.18,0.668-0.427,0.883-0.739s0.322-0.64,0.322-0.981
			c0-0.513-0.1-0.986-0.301-1.421c-0.199-0.435-0.479-0.776-0.838-1.025S966.813,357.365,966.35,357.365z"/>
	</g>
	<g enable-background="new    ">
		<path d="M932.16,356.062h-1.188v-7.632c0-0.635,0.02-1.235,0.059-1.802c-0.102,0.103-0.217,0.21-0.344,0.322
			s-0.708,0.589-1.743,1.428l-0.645-0.834l2.835-2.19h1.025V356.062z"/>
		<path d="M943.329,350.692c0,1.852-0.292,3.233-0.876,4.146c-0.583,0.913-1.475,1.369-2.676,1.369c-1.152,0-2.029-0.468-2.63-1.402
			c-0.601-0.936-0.901-2.306-0.901-4.113c0-1.864,0.291-3.249,0.872-4.152s1.468-1.355,2.659-1.355c1.162,0,2.044,0.472,2.646,1.414
			C943.027,347.541,943.329,348.905,943.329,350.692z M937.477,350.692c0,1.559,0.184,2.692,0.55,3.402
			c0.366,0.711,0.95,1.066,1.751,1.066c0.811,0,1.396-0.36,1.762-1.081c0.363-0.72,0.545-1.849,0.545-3.388
			c0-1.537-0.182-2.664-0.545-3.38c-0.365-0.715-0.951-1.073-1.762-1.073c-0.801,0-1.385,0.354-1.751,1.059
			C937.66,348.004,937.477,349.136,937.477,350.692z"/>
	</g>
	<g enable-background="new    ">
		<path d="M908.622,335.489h-1.187v-7.632c0-0.635,0.02-1.235,0.059-1.802c-0.103,0.103-0.217,0.21-0.344,0.322
			s-0.709,0.589-1.744,1.428l-0.645-0.834l2.835-2.19h1.025V335.489z"/>
		<path d="M917.199,335.489h-1.188v-7.632c0-0.635,0.02-1.235,0.059-1.802c-0.102,0.103-0.217,0.21-0.344,0.322
			s-0.708,0.589-1.743,1.428l-0.645-0.834l2.835-2.19h1.025V335.489z"/>
	</g>
	<g enable-background="new    ">
		<path d="M892.324,303.375h-1.186v-7.632c0-0.635,0.02-1.235,0.059-1.802c-0.104,0.103-0.218,0.21-0.345,0.322
			s-0.708,0.589-1.743,1.428l-0.645-0.834l2.834-2.19h1.025V303.375z"/>
		<path d="M903.436,303.375h-7.039v-1.047l2.82-2.835c0.859-0.869,1.426-1.489,1.699-1.86s0.479-0.732,0.615-1.084
			s0.205-0.729,0.205-1.135c0-0.572-0.174-1.024-0.52-1.359c-0.348-0.334-0.828-0.502-1.443-0.502c-0.444,0-0.865,0.074-1.264,0.221
			s-0.841,0.412-1.329,0.798l-0.645-0.827c0.986-0.82,2.061-1.23,3.223-1.23c1.006,0,1.794,0.257,2.366,0.772
			c0.57,0.515,0.856,1.207,0.856,2.076c0,0.679-0.19,1.351-0.571,2.015s-1.094,1.504-2.139,2.52l-2.344,2.292v0.059h5.508V303.375z"
			/>
	</g>
	<g enable-background="new    ">
		<path d="M888.615,270.71h-1.186v-7.632c0-0.635,0.02-1.235,0.059-1.802c-0.104,0.103-0.218,0.21-0.345,0.322
			s-0.708,0.589-1.743,1.428l-0.645-0.834l2.834-2.19h1.025V270.71z"/>
		<path d="M899.324,262.521c0,0.684-0.192,1.243-0.576,1.677c-0.383,0.436-0.926,0.726-1.629,0.872v0.059
			c0.859,0.107,1.496,0.381,1.912,0.82c0.414,0.439,0.622,1.016,0.622,1.729c0,1.021-0.354,1.806-1.062,2.354
			c-0.709,0.55-1.715,0.824-3.018,0.824c-0.566,0-1.086-0.043-1.557-0.128c-0.472-0.086-0.93-0.235-1.373-0.45v-1.158
			c0.463,0.23,0.957,0.404,1.482,0.524c0.525,0.119,1.021,0.179,1.49,0.179c1.852,0,2.776-0.725,2.776-2.175
			c0-1.299-1.021-1.948-3.062-1.948h-1.055v-1.047h1.069c0.835,0,1.497-0.185,1.985-0.554c0.488-0.368,0.732-0.88,0.732-1.534
			c0-0.522-0.18-0.933-0.539-1.23s-0.846-0.447-1.461-0.447c-0.469,0-0.91,0.064-1.326,0.191c-0.414,0.127-0.889,0.361-1.42,0.703
			l-0.615-0.82c0.439-0.347,0.945-0.619,1.52-0.817c0.573-0.197,1.178-0.296,1.812-0.296c1.04,0,1.848,0.237,2.424,0.714
			C899.035,261.038,899.324,261.691,899.324,262.521z"/>
	</g>
	<g enable-background="new    ">
		<path d="M898.016,238.111h-1.187v-7.632c0-0.635,0.02-1.235,0.059-1.802c-0.103,0.103-0.218,0.21-0.345,0.322
			s-0.707,0.589-1.742,1.428l-0.645-0.834l2.834-2.19h1.025V238.111z"/>
		<path d="M909.632,235.65h-1.589v2.461h-1.165v-2.461h-5.208v-1.062l5.084-7.243h1.289v7.2h1.589V235.65z M906.878,234.545v-3.561
			c0-0.697,0.024-1.486,0.073-2.365h-0.059c-0.234,0.469-0.454,0.857-0.659,1.164l-3.347,4.762H906.878z"/>
	</g>
	<g enable-background="new    ">
		<path d="M918.118,211.236h-1.187v-7.632c0-0.635,0.02-1.235,0.059-1.802c-0.103,0.103-0.217,0.21-0.344,0.322
			s-0.709,0.589-1.744,1.428l-0.645-0.834l2.835-2.19h1.025V211.236z"/>
		<path d="M925.537,204.695c1.129,0,2.016,0.28,2.663,0.839c0.646,0.56,0.97,1.325,0.97,2.296c0,1.109-0.353,1.979-1.058,2.607
			c-0.706,0.631-1.679,0.945-2.919,0.945c-1.206,0-2.127-0.192-2.762-0.578v-1.172c0.342,0.219,0.768,0.392,1.275,0.516
			c0.508,0.125,1.008,0.188,1.501,0.188c0.859,0,1.527-0.203,2.003-0.608c0.477-0.405,0.715-0.991,0.715-1.758
			c0-1.494-0.916-2.241-2.747-2.241c-0.464,0-1.084,0.071-1.86,0.213l-0.63-0.403l0.403-5.01h5.324v1.12h-4.285l-0.271,3.216
			C924.422,204.752,924.98,204.695,925.537,204.695z"/>
	</g>
	<g enable-background="new    ">
		<path d="M944.259,195.944h-1.187v-7.632c0-0.635,0.02-1.235,0.059-1.802c-0.103,0.103-0.217,0.21-0.344,0.322
			s-0.709,0.589-1.744,1.428l-0.645-0.834l2.835-2.19h1.025V195.944z"/>
		<path d="M948.455,191.366c0-2.104,0.409-3.678,1.228-4.72c0.817-1.043,2.027-1.563,3.629-1.563c0.552,0,0.986,0.046,1.304,0.139
			v1.047c-0.376-0.121-0.806-0.183-1.289-0.183c-1.147,0-2.023,0.357-2.629,1.073c-0.605,0.715-0.938,1.84-0.996,3.373h0.088
			c0.537-0.84,1.387-1.26,2.549-1.26c0.961,0,1.719,0.29,2.273,0.871s0.832,1.369,0.832,2.365c0,1.113-0.305,1.989-0.912,2.626
			c-0.608,0.638-1.43,0.956-2.465,0.956c-1.108,0-1.987-0.416-2.637-1.249C948.78,194.01,948.455,192.852,948.455,191.366z
			 M952.052,195.058c0.693,0,1.231-0.218,1.615-0.655c0.383-0.437,0.575-1.067,0.575-1.894c0-0.707-0.179-1.264-0.535-1.67
			c-0.356-0.404-0.889-0.607-1.597-0.607c-0.439,0-0.843,0.091-1.208,0.271c-0.367,0.181-0.658,0.43-0.876,0.746
			c-0.218,0.318-0.325,0.647-0.325,0.989c0,0.503,0.098,0.972,0.293,1.406s0.472,0.779,0.831,1.032
			C951.184,194.932,951.593,195.058,952.052,195.058z"/>
	</g>
</g>
<g enable-background="new    ">
	<g enable-background="new    ">
		<g>
			<path fill="none" stroke="#E15218" stroke-width="2.1368" stroke-miterlimit="10" stroke-dasharray="4.5837,8.0215" d="
				M334.024,229.027c-0.173,0.204-0.346,0.409-0.518,0.614c-1.942,2.343-3.697,4.849-5.296,7.453
				c-1.594,2.609-2.975,5.356-4.183,8.174c-1.205,2.824-2.168,5.75-2.95,8.717c-0.775,2.971-1.293,6-1.63,9.031
				c-0.318,3.036-0.389,6.075-0.285,9.084c0.151,3.009,0.476,6.011,1.04,8.973c0.583,2.958,1.339,5.876,2.334,8.701
				c1.003,2.821,2.171,5.569,3.555,8.183c1.389,2.61,2.926,5.118,4.648,7.468c1.727,2.344,3.58,4.565,5.586,6.609
				c2.013,2.036,4.125,3.939,6.365,5.646c4.47,3.422,9.339,6.164,14.394,8.138l0.944,0.373l0.956,0.336
				c0.638,0.221,1.273,0.441,1.911,0.646c1.289,0.377,2.562,0.771,3.857,1.06c2.573,0.639,5.166,1.04,7.724,1.316
				c1.283,0.11,2.556,0.23,3.822,0.252c0.633,0.018,1.264,0.044,1.89,0.043c0.626-0.012,1.25-0.021,1.872-0.033l0.93-0.026
				l0.926-0.062c0.615-0.045,1.227-0.09,1.838-0.135c0.61-0.061,1.218-0.137,1.823-0.21c0.605-0.077,1.207-0.144,1.804-0.252
				c4.781-0.772,9.334-2.091,13.485-3.883c4.152-1.787,7.921-3.991,11.253-6.441c6.668-4.92,11.535-10.8,14.889-16.466
				c1.682-2.839,3.002-5.633,4.006-8.288c1.001-2.657,1.758-5.149,2.253-7.439c1.039-4.57,1.266-8.232,1.312-10.699
				c0.049-1.236-0.003-2.178-0.011-2.813c-0.019-0.635-0.027-0.963-0.027-0.963v-0.068c0,0-0.022-0.327-0.066-0.961
				c-0.053-0.632-0.093-1.57-0.26-2.789c-0.285-2.433-0.859-6.017-2.297-10.352c-0.692-2.172-1.659-4.507-2.861-6.954
				c-1.206-2.447-2.72-4.977-4.562-7.495c-3.674-5.031-8.734-10.021-15.205-13.888c-3.233-1.925-6.803-3.567-10.631-4.792
				c-3.826-1.23-7.923-1.989-12.122-2.255c-4.202-0.269-8.489,0.042-12.772,0.875c-2.135,0.447-4.271,0.99-6.357,1.733
				c-1.053,0.341-2.078,0.777-3.11,1.188c-0.511,0.221-1.017,0.457-1.523,0.688l-0.76,0.352l-0.746,0.383
				c-7.979,4.043-14.897,10.459-19.496,18.31c-1.16,1.956-2.149,4.012-3.018,6.111c-0.864,2.104-1.539,4.281-2.088,6.479
				c-0.543,2.202-0.885,4.445-1.105,6.686c-0.203,2.244-0.217,4.491-0.113,6.715c0.151,2.225,0.419,4.434,0.868,6.604
				c0.466,2.166,1.046,4.298,1.81,6.355c0.771,2.052,1.648,4.051,2.693,5.945c1.049,1.89,2.195,3.708,3.482,5.404
				c5.115,6.81,12.046,11.806,19.394,14.526l0.686,0.26l0.695,0.229c0.464,0.15,0.923,0.305,1.386,0.445
				c0.936,0.25,1.855,0.527,2.794,0.713c1.859,0.434,3.732,0.682,5.576,0.855c3.699,0.283,7.307,0.128,10.728-0.494
				c3.418-0.62,6.649-1.611,9.581-2.946c2.935-1.33,5.584-2.945,7.921-4.73c4.677-3.589,8.044-7.83,10.331-11.873
				c1.147-2.025,2.04-4.007,2.704-5.886c0.66-1.88,1.165-3.631,1.473-5.242c0.663-3.209,0.768-5.77,0.763-7.497
				c0.021-0.864-0.037-1.526-0.049-1.97c-0.021-0.445-0.03-0.674-0.03-0.674v-0.048c0,0-0.021-0.229-0.063-0.672
				c-0.05-0.442-0.082-1.099-0.223-1.946c-0.229-1.694-0.685-4.176-1.747-7.15c-0.505-1.493-1.218-3.086-2.08-4.756
				c-0.864-1.67-1.95-3.39-3.259-5.094c-2.607-3.406-6.169-6.759-10.648-9.293c-2.238-1.259-4.691-2.314-7.299-3.081
				c-2.56-0.76-5.282-1.189-8.062-1.312"/>
			<g>
				<polygon fill="#E15218" points="339.781,223.052 328.269,228.249 333.645,229.523 335.201,234.823 				"/>
			</g>
			<g>
				<polygon fill="#E15218" points="384.717,238.766 384.937,238.7 384.878,238.782 384.92,238.873 				"/>
			</g>
		</g>
	</g>
</g>
<g enable-background="new    ">
	<path fill="#E15218" d="M345.562,267.467h-3.212v-1.818h3.212v-3.236h1.818v3.236h3.212v1.818h-3.212v3.195h-1.818V267.467z"/>
	<path fill="#E15218" d="M360.014,263.125c0,0.759-0.229,1.403-0.689,1.935s-1.104,0.896-1.934,1.096v0.05
		c0.979,0.122,1.721,0.419,2.225,0.893c0.503,0.473,0.755,1.11,0.755,1.913c0,1.168-0.423,2.076-1.27,2.727
		s-2.056,0.976-3.627,0.976c-1.317,0-2.485-0.219-3.503-0.656v-2.183c0.47,0.238,0.988,0.432,1.552,0.581s1.124,0.225,1.677,0.225
		c0.847,0,1.472-0.145,1.876-0.432c0.404-0.288,0.606-0.75,0.606-1.387c0-0.57-0.232-0.974-0.697-1.212s-1.207-0.356-2.225-0.356
		h-0.921v-1.968h0.938c0.941,0,1.628-0.123,2.062-0.369c0.435-0.246,0.652-0.669,0.652-1.267c0-0.918-0.576-1.377-1.727-1.377
		c-0.398,0-0.804,0.066-1.216,0.199c-0.412,0.133-0.87,0.362-1.374,0.688l-1.187-1.769c1.107-0.797,2.427-1.195,3.959-1.195
		c1.256,0,2.248,0.255,2.976,0.764C359.65,261.51,360.014,262.218,360.014,263.125z"/>
	<path fill="#E15218" d="M370.19,272.547h-8.483v-1.785l3.046-3.079c0.902-0.924,1.491-1.564,1.768-1.922
		c0.277-0.356,0.476-0.688,0.598-0.991c0.122-0.305,0.183-0.62,0.183-0.947c0-0.486-0.134-0.849-0.402-1.087
		c-0.269-0.238-0.627-0.356-1.075-0.356c-0.47,0-0.927,0.107-1.37,0.323s-0.905,0.522-1.386,0.921l-1.395-1.651
		c0.598-0.509,1.093-0.869,1.486-1.079s0.822-0.372,1.287-0.485s0.985-0.171,1.561-0.171c0.758,0,1.428,0.139,2.009,0.416
		c0.581,0.276,1.032,0.664,1.353,1.162s0.481,1.067,0.481,1.709c0,0.56-0.098,1.084-0.294,1.573
		c-0.197,0.49-0.501,0.992-0.913,1.507c-0.413,0.515-1.139,1.248-2.179,2.199l-1.561,1.47v0.116h5.288V272.547z"/>
</g>
<g>
	<g>
		
			<line fill="none" stroke="#000000" stroke-width="3" stroke-linecap="round" stroke-miterlimit="10" x1="541.5" y1="273.223" x2="807.318" y2="273.223"/>
		<g>
			<polygon points="828.5,273.223 798.652,285.419 805.734,273.223 798.652,261.03 			"/>
		</g>
	</g>
</g>
<g>
	<g>
		<circle fill="none" stroke="#000000" stroke-width="3" stroke-miterlimit="10" cx="383.75" cy="272.547" r="131.244"/>
		<g>
			<rect x="381" y="142" width="5" height="28"/>
		</g>
		<g>
			<rect x="327.619" y="160.664" transform="matrix(0.3613 0.9325 -0.9325 0.3613 370.3374 -214.3299)" width="28.001" height="5"/>
		</g>
		<g>
			<rect x="291.056" y="183.317" transform="matrix(0.6737 0.739 -0.739 0.6737 236.8607 -164.8058)" width="28" height="5.001"/>
		</g>
		<g>
			
				<rect x="265.171" y="217.629" transform="matrix(0.8951 0.4458 -0.4458 0.8951 127.4162 -101.3727)" width="27.999" height="5.001"/>
		</g>
		<g>
			
				<rect x="265.171" y="217.629" transform="matrix(0.8951 0.4458 -0.4458 0.8951 127.4162 -101.3727)" width="27.999" height="5.001"/>
		</g>
		<g>
			
				<rect x="412.154" y="160.677" transform="matrix(-0.3612 0.9325 -0.9325 -0.3612 732.236 -175.2723)" width="28.001" height="5.002"/>
		</g>
		<g>
			
				<rect x="253.387" y="258.997" transform="matrix(0.9957 0.0923 -0.0923 0.9957 25.2799 -23.5654)" width="27.998" height="5.001"/>
		</g>
		<g>
			
				<rect x="257.367" y="301.806" transform="matrix(0.9618 -0.2736 0.2736 0.9618 -72.9058 85.8602)" width="27.999" height="5.001"/>
		</g>
		<g>
			
				<rect x="276.531" y="340.297" transform="matrix(0.798 -0.6026 0.6026 0.798 -147.8978 244.3163)" width="27.999" height="5.001"/>
		</g>
		<g>
			<rect x="308.315" y="369.255" transform="matrix(0.5264 -0.8502 0.8502 0.5264 -163.433 450.0996)" width="28" height="5.001"/>
		</g>
		<g>
			<rect x="348.388" y="384.784" transform="matrix(0.1837 -0.983 0.983 0.1837 -84.8757 672.3618)" width="28" height="5.001"/>
		</g>
		<g>
			<rect x="391.435" y="384.769" transform="matrix(-0.1839 -0.9829 0.9829 -0.1839 99.3222 857.0035)" width="27.998" height="5"/>
		</g>
		<g>
			<rect x="391.435" y="384.769" transform="matrix(-0.1839 -0.9829 0.9829 -0.1839 99.3222 857.0035)" width="27.998" height="5"/>
		</g>
		<g>
			
				<rect x="431.504" y="369.229" transform="matrix(-0.5266 -0.8501 0.8501 -0.5266 364.0887 946.2101)" width="27.997" height="5.002"/>
		</g>
		<g>
			
				<rect x="463.292" y="340.253" transform="matrix(-0.7982 -0.6024 0.6024 -0.7982 651.7796 903.861)" width="27.999" height="5.001"/>
		</g>
		<g>
			
				<rect x="482.435" y="301.727" transform="matrix(-0.9619 -0.2733 0.2733 -0.9619 890.8262 732.5458)" width="27.999" height="5"/>
		</g>
		<g>
			
				<rect x="486.371" y="258.951" transform="matrix(-0.9957 0.0926 -0.0926 -0.9957 1022.8027 475.4421)" width="27.998" height="5"/>
		</g>
		<g>
			<rect x="474.602" y="217.598" transform="matrix(-0.895 0.4461 -0.4461 -0.895 1024.0774 199.1183)" width="27.999" height="5"/>
		</g>
		<g>
			
				<rect x="448.641" y="183.289" transform="matrix(-0.6733 0.7393 -0.7393 -0.6733 911.512 -31.1574)" width="27.997" height="4.999"/>
		</g>
		<g>
			
				<rect x="276.531" y="340.297" transform="matrix(0.798 -0.6026 0.6026 0.798 -147.8978 244.3163)" width="27.999" height="5.001"/>
		</g>
	</g>
	<rect x="361" y="178.734" fill="none" width="44" height="15"/>
	<rect x="393.255" y="184.234" fill="none" width="44" height="15"/>
	<rect x="421.255" y="200.969" fill="none" width="44" height="15"/>
	<rect x="440.152" y="227.401" fill="none" width="44" height="15"/>
	<rect x="448.878" y="260" fill="none" width="44" height="15"/>
	<rect x="446.448" y="291.791" fill="none" width="44" height="15"/>
	<rect x="432.493" y="322.027" fill="none" width="44" height="15"/>
	<rect x="410.493" y="343.066" fill="none" width="44" height="15"/>
	<rect x="377.5" y="355.478" fill="none" width="44" height="15"/>
	<rect x="344.924" y="356.478" fill="none" width="44" height="15"/>
	<rect x="313.835" y="345.352" fill="none" width="44" height="15"/>
	<rect x="290.297" y="324.779" fill="none" width="44" height="15"/>
	<rect x="274" y="292.665" fill="none" width="44" height="15"/>
	<rect x="270.291" y="260" fill="none" width="44" height="15"/>
	<rect x="279.691" y="227.401" fill="none" width="44" height="15"/>
	<rect x="299.793" y="200.526" fill="none" width="44" height="15"/>
	<rect x="325.934" y="185.234" fill="none" width="44" height="15"/>
	<circle cx="383.257" cy="272.901" r="5.5"/>
	<rect x="323.604" y="270.917" fill="none" width="49.009" height="22.969"/>
	
		<line fill="none" stroke="#000000" stroke-width="4" stroke-linecap="round" stroke-miterlimit="10" x1="383" y1="209" x2="383" y2="274"/>
	<g>
		<g enable-background="new    ">
			<path d="M386.66,184.075c0,1.852-0.292,3.233-0.875,4.146s-1.476,1.369-2.677,1.369c-1.152,0-2.029-0.468-2.629-1.402
				c-0.601-0.936-0.901-2.306-0.901-4.113c0-1.864,0.291-3.249,0.872-4.152s1.467-1.355,2.659-1.355
				c1.162,0,2.044,0.472,2.647,1.414S386.66,182.288,386.66,184.075z M380.808,184.075c0,1.559,0.183,2.692,0.549,3.402
				c0.366,0.711,0.95,1.066,1.75,1.066c0.811,0,1.397-0.36,1.762-1.081c0.363-0.72,0.545-1.849,0.545-3.388
				c0-1.537-0.182-2.664-0.545-3.38c-0.364-0.715-0.951-1.073-1.762-1.073c-0.801,0-1.384,0.354-1.75,1.059
				C380.991,181.387,380.808,182.519,380.808,184.075z"/>
		</g>
		<g enable-background="new    ">
			<path d="M416.322,194.944h-1.187v-7.632c0-0.635,0.02-1.235,0.059-1.802c-0.103,0.103-0.217,0.21-0.344,0.322
				s-0.708,0.589-1.743,1.428l-0.645-0.834l2.834-2.19h1.025V194.944z"/>
		</g>
		<g enable-background="new    ">
			<path d="M446.856,211.679h-7.039v-1.047l2.82-2.835c0.859-0.869,1.426-1.489,1.699-1.86s0.479-0.732,0.615-1.084
				s0.205-0.729,0.205-1.135c0-0.572-0.173-1.024-0.52-1.359c-0.347-0.334-0.828-0.502-1.443-0.502
				c-0.444,0-0.866,0.074-1.263,0.221c-0.398,0.146-0.841,0.412-1.33,0.798l-0.645-0.827c0.986-0.82,2.061-1.23,3.223-1.23
				c1.006,0,1.794,0.257,2.366,0.772c0.571,0.515,0.857,1.207,0.857,2.076c0,0.679-0.19,1.351-0.571,2.015s-1.094,1.504-2.139,2.52
				l-2.344,2.292v0.059h5.508V211.679z"/>
		</g>
		<g enable-background="new    ">
			<path d="M465.351,229.923c0,0.684-0.192,1.243-0.575,1.677c-0.383,0.436-0.926,0.726-1.629,0.872v0.059
				c0.859,0.107,1.497,0.381,1.912,0.82s0.623,1.016,0.623,1.729c0,1.021-0.354,1.806-1.062,2.354
				c-0.708,0.55-1.714,0.824-3.018,0.824c-0.566,0-1.085-0.043-1.557-0.128c-0.471-0.086-0.929-0.235-1.373-0.45v-1.158
				c0.464,0.23,0.958,0.404,1.483,0.524c0.524,0.119,1.021,0.179,1.49,0.179c1.851,0,2.776-0.725,2.776-2.175
				c0-1.299-1.021-1.948-3.062-1.948h-1.055v-1.047h1.069c0.835,0,1.497-0.185,1.985-0.554c0.488-0.368,0.732-0.88,0.732-1.534
				c0-0.522-0.18-0.933-0.538-1.23c-0.359-0.298-0.846-0.447-1.461-0.447c-0.469,0-0.911,0.064-1.326,0.191
				s-0.889,0.361-1.421,0.703l-0.615-0.82c0.439-0.347,0.946-0.619,1.52-0.817c0.574-0.197,1.178-0.296,1.813-0.296
				c1.04,0,1.848,0.237,2.424,0.714C465.062,228.439,465.351,229.093,465.351,229.923z"/>
		</g>
		<g enable-background="new    ">
			<path d="M474.984,268.249h-1.589v2.461h-1.165v-2.461h-5.208v-1.062l5.083-7.243h1.289v7.2h1.589V268.249z M472.23,267.144
				v-3.561c0-0.697,0.024-1.486,0.073-2.365h-0.059c-0.234,0.469-0.454,0.857-0.659,1.164l-3.347,4.762H472.23z"/>
		</g>
		<g enable-background="new    ">
			<path d="M468.358,295.96c1.128,0,2.015,0.28,2.663,0.839c0.646,0.56,0.97,1.325,0.97,2.296c0,1.109-0.353,1.979-1.058,2.607
				c-0.706,0.631-1.679,0.945-2.919,0.945c-1.206,0-2.126-0.192-2.761-0.578v-1.172c0.342,0.219,0.767,0.392,1.274,0.516
				c0.508,0.125,1.008,0.188,1.501,0.188c0.859,0,1.527-0.203,2.003-0.608c0.477-0.405,0.714-0.991,0.714-1.758
				c0-1.494-0.916-2.241-2.747-2.241c-0.464,0-1.084,0.071-1.86,0.213l-0.63-0.403l0.403-5.01h5.325v1.12h-4.285l-0.271,3.216
				C467.242,296.017,467.801,295.96,468.358,295.96z"/>
		</g>
		<g enable-background="new    ">
			<path d="M451.18,328.159c0-2.104,0.409-3.678,1.227-4.72c0.817-1.043,2.027-1.563,3.629-1.563c0.552,0,0.986,0.046,1.304,0.139
				v1.047c-0.376-0.121-0.806-0.183-1.289-0.183c-1.147,0-2.024,0.357-2.629,1.073c-0.605,0.715-0.938,1.84-0.996,3.373h0.088
				c0.537-0.84,1.387-1.26,2.549-1.26c0.962,0,1.72,0.29,2.274,0.871s0.832,1.369,0.832,2.365c0,1.113-0.304,1.989-0.912,2.626
				c-0.608,0.638-1.43,0.956-2.465,0.956c-1.108,0-1.987-0.416-2.637-1.249C451.505,330.803,451.18,329.645,451.18,328.159z
				 M454.776,331.851c0.693,0,1.231-0.218,1.615-0.655c0.383-0.437,0.575-1.067,0.575-1.894c0-0.707-0.178-1.264-0.535-1.67
				c-0.356-0.404-0.889-0.607-1.597-0.607c-0.439,0-0.842,0.091-1.208,0.271s-0.658,0.43-0.875,0.746
				c-0.217,0.318-0.326,0.647-0.326,0.989c0,0.503,0.098,0.972,0.293,1.406s0.472,0.779,0.832,1.032
				C453.908,331.725,454.317,331.851,454.776,331.851z"/>
		</g>
		<g enable-background="new    ">
			<path d="M430.411,353.776l4.438-9.588h-5.837v-1.12h7.126v0.974l-4.38,9.734H430.411z"/>
		</g>
		<g enable-background="new    ">
			<path d="M399.607,355.326c0.977,0,1.75,0.227,2.322,0.681s0.857,1.082,0.857,1.882c0,0.527-0.164,1.009-0.491,1.443
				s-0.85,0.83-1.567,1.187c0.869,0.415,1.487,0.851,1.853,1.308c0.366,0.456,0.549,0.984,0.549,1.586
				c0,0.889-0.31,1.598-0.93,2.127c-0.62,0.53-1.47,0.795-2.549,0.795c-1.143,0-2.021-0.25-2.637-0.751
				c-0.615-0.5-0.923-1.209-0.923-2.128c0-1.225,0.747-2.18,2.241-2.863c-0.674-0.381-1.157-0.792-1.45-1.234
				c-0.293-0.441-0.439-0.936-0.439-1.482c0-0.777,0.287-1.396,0.86-1.857C397.877,355.557,398.646,355.326,399.607,355.326z
				 M397.293,363.484c0,0.586,0.204,1.043,0.611,1.37s0.98,0.491,1.718,0.491c0.728,0,1.294-0.171,1.699-0.514
				c0.405-0.341,0.608-0.81,0.608-1.406c0-0.473-0.19-0.895-0.571-1.263c-0.381-0.369-1.045-0.727-1.992-1.073
				c-0.728,0.312-1.255,0.658-1.582,1.036C397.457,362.505,397.293,362.957,397.293,363.484z M399.593,356.314
				c-0.61,0-1.089,0.146-1.436,0.439s-0.52,0.684-0.52,1.172c0,0.449,0.144,0.835,0.432,1.157s0.82,0.645,1.597,0.967
				c0.698-0.293,1.192-0.608,1.483-0.944c0.29-0.338,0.436-0.73,0.436-1.18c0-0.493-0.177-0.885-0.531-1.176
				C400.7,356.46,400.213,356.314,399.593,356.314z"/>
		</g>
		<g enable-background="new    ">
			<path d="M370.525,361.05c0,4.189-1.621,6.284-4.863,6.284c-0.566,0-1.016-0.049-1.348-0.146v-1.047
				c0.391,0.127,0.835,0.189,1.333,0.189c1.172,0,2.057-0.362,2.655-1.087c0.598-0.726,0.924-1.837,0.978-3.337h-0.088
				c-0.269,0.406-0.625,0.715-1.069,0.927c-0.444,0.213-0.945,0.319-1.501,0.319c-0.947,0-1.699-0.283-2.256-0.85
				s-0.835-1.357-0.835-2.373c0-1.113,0.312-1.992,0.934-2.637c0.623-0.645,1.442-0.967,2.458-0.967c0.728,0,1.363,0.187,1.908,0.56
				c0.544,0.374,0.963,0.918,1.256,1.634C370.379,359.234,370.525,360.078,370.525,361.05z M366.922,357.365
				c-0.698,0-1.238,0.226-1.619,0.674c-0.381,0.45-0.571,1.075-0.571,1.875c0,0.703,0.176,1.257,0.527,1.659
				c0.352,0.403,0.886,0.604,1.604,0.604c0.444,0,0.853-0.09,1.227-0.271c0.373-0.18,0.667-0.427,0.882-0.739
				s0.322-0.64,0.322-0.981c0-0.513-0.1-0.986-0.3-1.421s-0.479-0.776-0.839-1.025C367.797,357.49,367.386,357.365,366.922,357.365z
				"/>
		</g>
		<g enable-background="new    ">
			<path d="M332.732,356.062h-1.187v-7.632c0-0.635,0.02-1.235,0.059-1.802c-0.103,0.103-0.217,0.21-0.344,0.322
				s-0.708,0.589-1.743,1.428l-0.645-0.834l2.834-2.19h1.025V356.062z"/>
			<path d="M343.901,350.692c0,1.852-0.292,3.233-0.875,4.146s-1.476,1.369-2.677,1.369c-1.152,0-2.029-0.468-2.629-1.402
				c-0.601-0.936-0.901-2.306-0.901-4.113c0-1.864,0.291-3.249,0.872-4.152s1.467-1.355,2.659-1.355
				c1.162,0,2.044,0.472,2.647,1.414S343.901,348.905,343.901,350.692z M338.049,350.692c0,1.559,0.183,2.692,0.549,3.402
				c0.366,0.711,0.95,1.066,1.75,1.066c0.811,0,1.397-0.36,1.762-1.081c0.363-0.72,0.545-1.849,0.545-3.388
				c0-1.537-0.182-2.664-0.545-3.38c-0.364-0.715-0.951-1.073-1.762-1.073c-0.801,0-1.384,0.354-1.75,1.059
				C338.232,348.004,338.049,349.136,338.049,350.692z"/>
		</g>
		<g enable-background="new    ">
			<path d="M309.194,335.489h-1.187v-7.632c0-0.635,0.02-1.235,0.059-1.802c-0.103,0.103-0.217,0.21-0.344,0.322
				s-0.708,0.589-1.743,1.428l-0.645-0.834l2.834-2.19h1.025V335.489z"/>
			<path d="M317.771,335.489h-1.187v-7.632c0-0.635,0.02-1.235,0.059-1.802c-0.103,0.103-0.217,0.21-0.344,0.322
				s-0.708,0.589-1.743,1.428l-0.645-0.834l2.834-2.19h1.025V335.489z"/>
		</g>
		<g enable-background="new    ">
			<path d="M292.897,303.375h-1.187v-7.632c0-0.635,0.02-1.235,0.059-1.802c-0.103,0.103-0.217,0.21-0.344,0.322
				s-0.708,0.589-1.743,1.428l-0.645-0.834l2.834-2.19h1.025V303.375z"/>
			<path d="M304.008,303.375h-7.039v-1.047l2.82-2.835c0.859-0.869,1.426-1.489,1.699-1.86s0.479-0.732,0.615-1.084
				s0.205-0.729,0.205-1.135c0-0.572-0.173-1.024-0.52-1.359c-0.347-0.334-0.828-0.502-1.443-0.502
				c-0.444,0-0.866,0.074-1.263,0.221c-0.398,0.146-0.841,0.412-1.33,0.798l-0.645-0.827c0.986-0.82,2.061-1.23,3.223-1.23
				c1.006,0,1.794,0.257,2.366,0.772c0.571,0.515,0.857,1.207,0.857,2.076c0,0.679-0.19,1.351-0.571,2.015s-1.094,1.504-2.139,2.52
				l-2.344,2.292v0.059h5.508V303.375z"/>
		</g>
		<g enable-background="new    ">
			<path d="M289.188,270.71h-1.187v-7.632c0-0.635,0.02-1.235,0.059-1.802c-0.103,0.103-0.217,0.21-0.344,0.322
				s-0.708,0.589-1.743,1.428l-0.645-0.834l2.834-2.19h1.025V270.71z"/>
			<path d="M299.896,262.521c0,0.684-0.192,1.243-0.575,1.677c-0.383,0.436-0.926,0.726-1.629,0.872v0.059
				c0.859,0.107,1.497,0.381,1.912,0.82s0.623,1.016,0.623,1.729c0,1.021-0.354,1.806-1.062,2.354
				c-0.708,0.55-1.714,0.824-3.018,0.824c-0.566,0-1.085-0.043-1.557-0.128c-0.471-0.086-0.929-0.235-1.373-0.45v-1.158
				c0.464,0.23,0.958,0.404,1.483,0.524c0.524,0.119,1.021,0.179,1.49,0.179c1.851,0,2.776-0.725,2.776-2.175
				c0-1.299-1.021-1.948-3.062-1.948h-1.055v-1.047h1.069c0.835,0,1.497-0.185,1.985-0.554c0.488-0.368,0.732-0.88,0.732-1.534
				c0-0.522-0.18-0.933-0.538-1.23c-0.359-0.298-0.846-0.447-1.461-0.447c-0.469,0-0.911,0.064-1.326,0.191
				s-0.889,0.361-1.421,0.703l-0.615-0.82c0.439-0.347,0.946-0.619,1.52-0.817c0.574-0.197,1.178-0.296,1.813-0.296
				c1.04,0,1.848,0.237,2.424,0.714C299.608,261.038,299.896,261.691,299.896,262.521z"/>
		</g>
		<g enable-background="new    ">
			<path d="M298.588,238.111h-1.187v-7.632c0-0.635,0.02-1.235,0.059-1.802c-0.103,0.103-0.217,0.21-0.344,0.322
				s-0.708,0.589-1.743,1.428l-0.645-0.834l2.834-2.19h1.025V238.111z"/>
			<path d="M310.204,235.65h-1.589v2.461h-1.165v-2.461h-5.208v-1.062l5.083-7.243h1.289v7.2h1.589V235.65z M307.45,234.545v-3.561
				c0-0.697,0.024-1.486,0.073-2.365h-0.059c-0.234,0.469-0.454,0.857-0.659,1.164l-3.347,4.762H307.45z"/>
		</g>
		<g enable-background="new    ">
			<path d="M318.69,211.236h-1.187v-7.632c0-0.635,0.02-1.235,0.059-1.802c-0.103,0.103-0.217,0.21-0.344,0.322
				s-0.708,0.589-1.743,1.428l-0.645-0.834l2.834-2.19h1.025V211.236z"/>
			<path d="M326.11,204.695c1.128,0,2.015,0.28,2.663,0.839c0.646,0.56,0.97,1.325,0.97,2.296c0,1.109-0.353,1.979-1.058,2.607
				c-0.706,0.631-1.679,0.945-2.919,0.945c-1.206,0-2.126-0.192-2.761-0.578v-1.172c0.342,0.219,0.767,0.392,1.274,0.516
				c0.508,0.125,1.008,0.188,1.501,0.188c0.859,0,1.527-0.203,2.003-0.608c0.477-0.405,0.714-0.991,0.714-1.758
				c0-1.494-0.916-2.241-2.747-2.241c-0.464,0-1.084,0.071-1.86,0.213l-0.63-0.403l0.403-5.01h5.325v1.12h-4.285l-0.271,3.216
				C324.994,204.752,325.553,204.695,326.11,204.695z"/>
		</g>
		<g enable-background="new    ">
			<path d="M344.831,195.944h-1.187v-7.632c0-0.635,0.02-1.235,0.059-1.802c-0.103,0.103-0.217,0.21-0.344,0.322
				s-0.708,0.589-1.743,1.428l-0.645-0.834l2.834-2.19h1.025V195.944z"/>
			<path d="M349.028,191.366c0-2.104,0.409-3.678,1.227-4.72c0.817-1.043,2.027-1.563,3.629-1.563c0.552,0,0.986,0.046,1.304,0.139
				v1.047c-0.376-0.121-0.806-0.183-1.289-0.183c-1.147,0-2.024,0.357-2.629,1.073c-0.605,0.715-0.938,1.84-0.996,3.373h0.088
				c0.537-0.84,1.387-1.26,2.549-1.26c0.962,0,1.72,0.29,2.274,0.871s0.832,1.369,0.832,2.365c0,1.113-0.304,1.989-0.912,2.626
				c-0.608,0.638-1.43,0.956-2.465,0.956c-1.108,0-1.987-0.416-2.637-1.249C349.353,194.01,349.028,192.852,349.028,191.366z
				 M352.624,195.058c0.693,0,1.231-0.218,1.615-0.655c0.383-0.437,0.575-1.067,0.575-1.894c0-0.707-0.178-1.264-0.535-1.67
				c-0.356-0.404-0.889-0.607-1.597-0.607c-0.439,0-0.842,0.091-1.208,0.271s-0.658,0.43-0.875,0.746
				c-0.217,0.318-0.326,0.647-0.326,0.989c0,0.503,0.098,0.972,0.293,1.406s0.472,0.779,0.832,1.032
				C351.756,194.932,352.165,195.058,352.624,195.058z"/>
		</g>
	</g>
</g>
</svg>
