<?xml version="1.0" encoding="utf-8"?>
<!-- Generator: Adobe Illustrator 16.0.4, SVG Export Plug-In . SVG Version: 6.00 Build 0)  -->
<!DOCTYPE svg PUBLIC "-//W3C//DTD SVG 1.1//EN" "http://www.w3.org/Graphics/SVG/1.1/DTD/svg11.dtd">
<svg version="1.1" id="Layer_1" xmlns="http://www.w3.org/2000/svg" xmlns:xlink="http://www.w3.org/1999/xlink" x="0px" y="0px"
	 width="1366px" height="768px" viewBox="0 0 1366 768" enable-background="new 0 0 1366 768" xml:space="preserve">
<g>
	<g>
		<path fill="none" stroke="#000000" stroke-width="2" stroke-miterlimit="10" d="M152.5,233.457l176.739,217.636
			c0.693,0.854,1.261,2.475,1.261,3.574v3.833"/>
		<g>
			<polygon points="330.5,466 326.231,455.554 330.5,458.032 334.768,455.554 			"/>
		</g>
	</g>
</g>
<g>
	<path fill="#2C4F6F" d="M231.5,230.5c0,2.761-2.239,5-5,5h-152c-2.761,0-5-2.239-5-5v-61c0-2.761,2.239-5,5-5h152
		c2.761,0,5,2.239,5,5V230.5z"/>
</g>
<rect x="257.309" y="698.002" fill="none" width="158.074" height="46.498"/>
<text transform="matrix(1 0 0 1 309.3418 711.502)" font-family="'RobotoMono-Regular'" font-size="18">Boost</text>
<rect x="72.309" y="698.002" fill="none" width="160.383" height="46.498"/>
<text transform="matrix(1 0 0 1 120.0947 711.502)" font-family="'RobotoMono-Regular'" font-size="18">ZeroMQ</text>
<rect x="444.309" y="698.002" fill="none" width="160.382" height="46.498"/>
<text transform="matrix(1 0 0 1 475.8916 711.502)" font-family="'RobotoMono-Regular'" font-size="18">secp256k1</text>
<g>
	<rect x="73.357" y="179.001" fill="none" width="160.286" height="59.499"/>
	<text transform="matrix(1 0 0 1 94.0903 192.501)"><tspan x="0" y="0" fill="#FFFFFF" font-family="'RobotoMono-Bold'" font-size="18">Libbitcoin-</tspan><tspan x="16.203" y="21.6" fill="#FFFFFF" font-family="'RobotoMono-Bold'" font-size="18">Explorer</tspan></text>
</g>
<g>
	<path fill="#FFFFFF" d="M417.5,532.5c0,2.762-2.239,5-5,5h-152c-2.761,0-5-2.238-5-5v-61c0-2.762,2.239-5,5-5h152
		c2.761,0,5,2.238,5,5V532.5z"/>
	<path fill="none" stroke="#2C4F6F" stroke-width="2" stroke-miterlimit="10" d="M417.5,532.5c0,2.762-2.239,5-5,5h-152
		c-2.761,0-5-2.238-5-5v-61c0-2.762,2.239-5,5-5h152c2.761,0,5,2.238,5,5V532.5z"/>
</g>
<g>
	<path fill="none" stroke="#000000" stroke-miterlimit="10" stroke-dasharray="6.0178,6.0178" d="M233,734c0,2.762-2.239,5-5,5H76
		c-2.761,0-5-2.238-5-5v-61c0-2.762,2.239-5,5-5h152c2.761,0,5,2.238,5,5V734z"/>
</g>
<g>
	<path fill="none" stroke="#000000" stroke-miterlimit="10" stroke-dasharray="6.0178,6.0178" d="M418,734c0,2.762-2.239,5-5,5H261
		c-2.761,0-5-2.238-5-5v-61c0-2.762,2.239-5,5-5h152c2.761,0,5,2.238,5,5V734z"/>
</g>
<g>
	<path fill="none" stroke="#000000" stroke-miterlimit="10" stroke-dasharray="6.0178,6.0178" d="M605,734c0,2.762-2.239,5-5,5H448
		c-2.761,0-5-2.238-5-5v-61c0-2.762,2.239-5,5-5h152c2.761,0,5,2.238,5,5V734z"/>
</g>
<rect x="254.5" y="481.538" fill="none" width="164.572" height="59.962"/>
<text transform="matrix(1 0 0 1 277.3721 495.0381)"><tspan x="0" y="0" font-family="'RobotoMono-Regular'" font-size="18">Libbitcoin-</tspan><tspan x="21.608" y="21.6" font-family="'RobotoMono-Regular'" font-size="18">Network</tspan></text>
<g>
	<g>
		<path fill="none" stroke="#000000" stroke-width="2" stroke-miterlimit="10" d="M524.25,335.207L344.306,451.02
			c-0.925,0.597-1.806,1.881-1.806,2.98v4.5"/>
		<g>
			<polygon points="343,465.5 338.731,455.054 343,457.532 347.268,455.054 			"/>
		</g>
	</g>
</g>
<g>
	<g>
		<path fill="none" stroke="#000000" stroke-width="2" stroke-miterlimit="10" d="M151.5,536.957l170.008,15.342
			c1.096,0.099,1.992,1.102,1.992,2.201v5"/>
		<g>
			<polygon points="323.5,567 319.231,556.554 323.5,559.032 327.768,556.554 			"/>
		</g>
	</g>
</g>
<g>
	<g>
		<line fill="none" stroke="#000000" stroke-width="2" stroke-miterlimit="10" x1="335.5" y1="538.5" x2="335.5" y2="559.5"/>
		<g>
			<polygon points="335.5,567 331.231,556.554 335.5,559.032 339.768,556.554 			"/>
		</g>
	</g>
</g>
<g>
	<g>
		<path fill="none" stroke="#000000" stroke-width="2" stroke-miterlimit="10" d="M524.5,536.291l-175.008,16.006
			c-1.095,0.1-1.992,1.104-1.992,2.203v5"/>
		<g>
			<polygon points="347.5,567 343.231,556.554 347.5,559.032 351.768,556.554 			"/>
		</g>
	</g>
</g>
<g>
	<g>
		<line fill="none" stroke="#000000" stroke-width="1.5" stroke-miterlimit="10" x1="152.5" y1="235" x2="152.628" y2="357.586"/>
		<g>
			<polygon points="152.636,365 148.356,354.558 152.628,357.032 156.893,354.549 			"/>
		</g>
	</g>
</g>
<g>
	<g>
		<path fill="none" stroke="#000000" stroke-width="2" stroke-miterlimit="10" d="M524.5,232.957L165.211,450.443
			c-0.941,0.569-1.711,1.957-1.711,3.057v5"/>
		<g>
			<polygon points="163.5,466 159.231,455.554 163.5,458.032 167.768,455.554 			"/>
		</g>
	</g>
</g>
<g>
	<g>
		<line fill="none" stroke="#000000" stroke-width="2" stroke-miterlimit="10" x1="151.5" y1="537.5" x2="151.5" y2="660.5"/>
		<g>
			<polygon points="151.5,668 147.231,657.554 151.5,660.032 155.768,657.554 			"/>
		</g>
	</g>
</g>
<g>
	<g>
		<line fill="none" stroke="#000000" stroke-width="2" stroke-miterlimit="10" x1="335.5" y1="638.5" x2="335.5" y2="660.5"/>
		<g>
			<polygon points="335.5,668 331.231,657.554 335.5,660.032 339.768,657.554 			"/>
		</g>
	</g>
</g>
<g>
	<g>
		<line fill="none" stroke="#000000" stroke-width="2" stroke-miterlimit="10" x1="524.5" y1="436.5" x2="524.5" y2="458.5"/>
		<g>
			<polygon points="524.5,466 520.231,455.554 524.5,458.032 528.768,455.554 			"/>
		</g>
	</g>
</g>
<g>
	<g>
		<line fill="none" stroke="#000000" stroke-width="2" stroke-miterlimit="10" x1="151.5" y1="436.5" x2="151.5" y2="458.5"/>
		<g>
			<polygon points="151.5,466 147.231,455.554 151.5,458.032 155.768,455.554 			"/>
		</g>
	</g>
</g>
<g>
	<g>
		<path fill="none" stroke="#000000" stroke-width="2" stroke-miterlimit="10" d="M335.5,637.957l187.006,14.863
			c1.097,0.087,1.994,1.08,1.994,2.18v5.5"/>
		<g>
			<polygon points="524.5,668 520.231,657.554 524.5,660.032 528.767,657.553 			"/>
		</g>
	</g>
</g>
<g>
	<g>
		<path fill="none" stroke="#000000" stroke-width="2" stroke-miterlimit="10" d="M524.5,335.5V348c0,1.1,0,2.9,0,4v5.5"/>
		<g>
			<polygon points="524.5,365 520.231,354.554 524.5,357.032 528.767,354.553 			"/>
		</g>
	</g>
</g>
<g>
	<g>
		<path fill="none" stroke="#000000" stroke-width="2" stroke-miterlimit="10" d="M524.5,233.5V246c0,1.1,0,2.9,0,4v5.5"/>
		<g>
			<polygon points="524.5,263 520.231,252.554 524.5,255.032 528.767,252.553 			"/>
		</g>
	</g>
</g>
<g>
	<path fill="#FFFFFF" d="M603.5,330.5c0,2.761-2.239,5-5,5h-152c-2.761,0-5-2.239-5-5v-61c0-2.761,2.239-5,5-5h152
		c2.761,0,5,2.239,5,5V330.5z"/>
	<path fill="none" stroke="#2C4F6F" stroke-width="2" stroke-miterlimit="10" d="M603.5,330.5c0,2.761-2.239,5-5,5h-152
		c-2.761,0-5-2.239-5-5v-61c0-2.761,2.239-5,5-5h152c2.761,0,5,2.239,5,5V330.5z"/>
</g>
<g>
	<path fill="#FFFFFF" d="M603.5,431.5c0,2.762-2.239,5-5,5h-152c-2.761,0-5-2.238-5-5v-61c0-2.761,2.239-5,5-5h152
		c2.761,0,5,2.239,5,5V431.5z"/>
	<path fill="none" stroke="#2C4F6F" stroke-width="2" stroke-miterlimit="10" d="M603.5,431.5c0,2.762-2.239,5-5,5h-152
		c-2.761,0-5-2.238-5-5v-61c0-2.761,2.239-5,5-5h152c2.761,0,5,2.239,5,5V431.5z"/>
</g>
<g>
	<path fill="#FFFFFF" d="M603.5,532.5c0,2.762-2.239,5-5,5h-152c-2.761,0-5-2.238-5-5v-61c0-2.762,2.239-5,5-5h152
		c2.761,0,5,2.238,5,5V532.5z"/>
	<path fill="none" stroke="#2C4F6F" stroke-width="2" stroke-miterlimit="10" d="M603.5,532.5c0,2.762-2.239,5-5,5h-152
		c-2.761,0-5-2.238-5-5v-61c0-2.762,2.239-5,5-5h152c2.761,0,5,2.238,5,5V532.5z"/>
</g>
<g>
	<path fill="#FFFFFF" d="M233.5,431.5c0,2.762-2.239,5-5,5h-152c-2.761,0-5-2.238-5-5v-61c0-2.761,2.239-5,5-5h152
		c2.761,0,5,2.239,5,5V431.5z"/>
	<path fill="none" stroke="#2C4F6F" stroke-width="2" stroke-miterlimit="10" d="M233.5,431.5c0,2.762-2.239,5-5,5h-152
		c-2.761,0-5-2.238-5-5v-61c0-2.761,2.239-5,5-5h152c2.761,0,5,2.239,5,5V431.5z"/>
</g>
<rect x="442.213" y="481.538" fill="none" width="161.787" height="48.499"/>
<text transform="matrix(1 0 0 1 463.6929 495.0381)"><tspan x="0" y="0" font-family="'RobotoMono-Regular'" font-size="18">Libbitcoin-</tspan><tspan x="16.207" y="21.6" font-family="'RobotoMono-Regular'" font-size="18">Database</tspan></text>
<rect x="72.928" y="381.539" fill="none" width="161.417" height="57.961"/>
<text transform="matrix(1 0 0 1 94.2222 395.0391)"><tspan x="0" y="0" font-family="'RobotoMono-Regular'" font-size="18">Libbitcoin-</tspan><tspan x="27.009" y="21.6" font-family="'RobotoMono-Regular'" font-size="18">Client</tspan></text>
<rect x="442.214" y="380.54" fill="none" width="161.786" height="58.46"/>
<text transform="matrix(1 0 0 1 463.6929 394.0391)"><tspan x="0" y="0" font-family="'RobotoMono-Regular'" font-size="18">Libbitcoin-</tspan><tspan x="5.405" y="21.6" font-family="'RobotoMono-Regular'" font-size="18">Blockchain</tspan></text>
<rect x="442.214" y="280.999" fill="none" width="161.786" height="59.501"/>
<text transform="matrix(1 0 0 1 463.6929 294.499)"><tspan x="0" y="0" font-family="'RobotoMono-Regular'" font-size="18">Libbitcoin-</tspan><tspan x="37.811" y="21.6" font-family="'RobotoMono-Regular'" font-size="18">Node</tspan></text>
<g>
	<path fill="#2C4F6F" d="M602.5,230.5c0,2.761-2.239,5-5,5h-152c-2.761,0-5-2.239-5-5v-61c0-2.761,2.239-5,5-5h152
		c2.761,0,5,2.239,5,5V230.5z"/>
</g>
<g>
	<rect x="444.214" y="179.001" fill="none" width="160.286" height="96.998"/>
	<text transform="matrix(1 0 0 1 464.9473 192.501)"><tspan x="0" y="0" fill="#FFFFFF" font-family="'RobotoMono-Bold'" font-size="18">Libbitcoin-</tspan><tspan x="27.004" y="21.6" fill="#FFFFFF" font-family="'RobotoMono-Bold'" font-size="18">Server</tspan></text>
</g>
<g>
	<path fill="#FFFFFF" d="M232.5,532.5c0,2.762-2.239,5-5,5h-152c-2.761,0-5-2.238-5-5v-61c0-2.762,2.239-5,5-5h152
		c2.761,0,5,2.238,5,5V532.5z"/>
	<path fill="none" stroke="#2C4F6F" stroke-width="2" stroke-miterlimit="10" d="M232.5,532.5c0,2.762-2.239,5-5,5h-152
		c-2.761,0-5-2.238-5-5v-61c0-2.762,2.239-5,5-5h152c2.761,0,5,2.238,5,5V532.5z"/>
</g>
<rect x="73.214" y="481.538" fill="none" width="164.262" height="54.924"/>
<text transform="matrix(1 0 0 1 95.9307 495.0381)"><tspan x="0" y="0" font-family="'RobotoMono-Regular'" font-size="18">Libbitcoin-</tspan><tspan x="16.207" y="21.6" font-family="'RobotoMono-Regular'" font-size="18">Protocol</tspan></text>
<g>
	<path fill="#2C4F6F" d="M417.5,633.5c0,2.762-2.239,5-5,5h-152c-2.761,0-5-2.238-5-5v-61c0-2.762,2.239-5,5-5h152
		c2.761,0,5,2.238,5,5V633.5z"/>
</g>
<g>
	<rect x="254.714" y="583.574" fill="none" width="164.572" height="46.498"/>
	<text transform="matrix(1 0 0 1 282.9912 597.0742)"><tspan x="0" y="0" fill="#FFFFFF" font-family="'RobotoMono-Bold'" font-size="18">Libbitcoin</tspan><tspan x="21.604" y="21.6" fill="#FFFFFF" font-family="'RobotoMono-Bold'" font-size="18">System</tspan></text>
</g>
</svg>
