<?xml version="1.0" encoding="utf-8"?>
<!-- Generator: Adobe Illustrator 16.0.4, SVG Export Plug-In . SVG Version: 6.00 Build 0)  -->
<!DOCTYPE svg PUBLIC "-//W3C//DTD SVG 1.1//EN" "http://www.w3.org/Graphics/SVG/1.1/DTD/svg11.dtd">
<svg version="1.1" id="Layer_1" xmlns="http://www.w3.org/2000/svg" xmlns:xlink="http://www.w3.org/1999/xlink" x="0px" y="0px"
	 width="1366px" height="768px" viewBox="0 0 1366 768" enable-background="new 0 0 1366 768" xml:space="preserve">
<rect x="-1" y="1" fill="#FFFFFF" width="1366" height="768"/>
<g>
	<path fill="#FFFFFF" d="M473.251,490.975c0,3.545-2.873,6.418-6.417,6.418H174.869c-3.545,0-6.418-2.873-6.418-6.418V374.21
		c0-3.545,2.874-6.418,6.418-6.418h291.965c3.545,0,6.417,2.873,6.417,6.418V490.975z"/>
	<path fill="none" stroke="#2D4E6E" stroke-width="2.4" stroke-miterlimit="10" d="M473.251,490.975
		c0,3.545-2.873,6.418-6.417,6.418H174.869c-3.545,0-6.418-2.873-6.418-6.418V374.21c0-3.545,2.874-6.418,6.418-6.418h291.965
		c3.545,0,6.417,2.873,6.417,6.418V490.975z"/>
</g>
<rect x="308.251" y="458.393" fill="#FFFFFF" stroke="#000000" stroke-width="1.2" stroke-miterlimit="10" width="156" height="28.801"/>
<g>
	<g>
		<path d="M314.462,478.847v-11.943h3.553c0.492,0.006,0.974,0.071,1.443,0.192c0.471,0.125,0.89,0.313,1.255,0.571
			c0.366,0.257,0.659,0.584,0.878,0.983c0.218,0.399,0.324,0.878,0.32,1.436c-0.005,0.312-0.057,0.597-0.151,0.854
			c-0.095,0.256-0.227,0.487-0.394,0.693c-0.167,0.204-0.362,0.382-0.587,0.537c-0.225,0.153-0.462,0.283-0.714,0.393
			c0.316,0.092,0.608,0.226,0.873,0.398c0.266,0.172,0.493,0.379,0.686,0.624c0.191,0.243,0.341,0.519,0.448,0.824
			c0.106,0.306,0.159,0.638,0.159,0.992c0.005,0.558-0.101,1.05-0.32,1.477c-0.22,0.426-0.512,0.782-0.878,1.071
			c-0.366,0.286-0.788,0.506-1.267,0.66c-0.479,0.153-0.972,0.231-1.481,0.237H314.462L314.462,478.847z M315.988,471.997h2.116
			c0.285-0.006,0.563-0.05,0.837-0.135c0.272-0.084,0.517-0.208,0.729-0.37c0.213-0.16,0.385-0.358,0.518-0.594
			c0.132-0.236,0.196-0.509,0.196-0.82c0-0.334-0.064-0.619-0.193-0.854c-0.129-0.235-0.3-0.428-0.518-0.578
			c-0.216-0.15-0.464-0.261-0.746-0.332c-0.282-0.07-0.57-0.109-0.865-0.115h-2.075L315.988,471.997L315.988,471.997z
			 M315.988,473.261v4.298h2.337c0.317-0.006,0.618-0.059,0.902-0.16c0.284-0.101,0.536-0.241,0.755-0.422
			c0.219-0.182,0.393-0.402,0.521-0.666c0.129-0.262,0.193-0.56,0.193-0.893c0.005-0.339-0.05-0.64-0.168-0.903
			c-0.117-0.263-0.279-0.484-0.488-0.668c-0.208-0.185-0.451-0.325-0.729-0.423c-0.278-0.099-0.58-0.154-0.902-0.166h-2.42V473.261z
			"/>
	</g>
</g>
<g>
	<rect x="414.876" y="466.247" fill="none" width="43.94" height="20.25"/>
	<path d="M437.505,474.303c0,0.771-0.09,1.45-0.267,2.039c-0.178,0.587-0.434,1.079-0.768,1.477
		c-0.333,0.395-0.74,0.693-1.222,0.896c-0.482,0.202-1.023,0.303-1.626,0.303c-0.595,0-1.134-0.101-1.616-0.303
		c-0.481-0.203-0.891-0.502-1.226-0.896c-0.336-0.397-0.597-0.89-0.779-1.477c-0.184-0.589-0.274-1.269-0.274-2.039v-2.855
		c0-0.771,0.09-1.45,0.271-2.039c0.18-0.586,0.439-1.078,0.774-1.475c0.336-0.396,0.744-0.695,1.224-0.898
		c0.478-0.202,1.016-0.303,1.611-0.303c0.601,0,1.144,0.101,1.625,0.303c0.48,0.203,0.891,0.502,1.226,0.898
		c0.337,0.396,0.596,0.889,0.776,1.475c0.179,0.589,0.271,1.27,0.271,2.039L437.505,474.303L437.505,474.303z M432.024,473.318
		l3.184-2.371c-0.017-0.804-0.156-1.4-0.419-1.788c-0.264-0.387-0.656-0.581-1.181-0.581c-0.531,0-0.926,0.205-1.189,0.615
		c-0.263,0.41-0.395,1.041-0.395,1.895V473.318z M435.208,472.498l-3.184,2.362c0.028,0.787,0.174,1.372,0.436,1.751
		c0.262,0.381,0.65,0.571,1.166,0.571c0.535,0,0.933-0.207,1.192-0.624c0.261-0.416,0.391-1.053,0.391-1.912L435.208,472.498
		L435.208,472.498z"/>
	<path d="M442.114,477.526c0-0.215,0.037-0.413,0.107-0.595c0.071-0.184,0.176-0.342,0.312-0.476c0.136-0.134,0.304-0.241,0.5-0.321
		c0.197-0.078,0.419-0.119,0.665-0.119s0.468,0.04,0.664,0.119c0.197,0.079,0.362,0.187,0.497,0.321
		c0.135,0.134,0.238,0.292,0.312,0.476c0.075,0.182,0.111,0.38,0.111,0.595c0,0.207-0.037,0.401-0.111,0.581
		c-0.072,0.181-0.177,0.338-0.312,0.473c-0.135,0.133-0.3,0.24-0.497,0.316c-0.196,0.077-0.418,0.114-0.664,0.114
		s-0.468-0.037-0.665-0.114c-0.196-0.076-0.364-0.182-0.5-0.316c-0.137-0.134-0.241-0.291-0.312-0.473
		C442.151,477.927,442.114,477.733,442.114,477.526z"/>
	<path d="M452.189,471.874h1.238c0.624,0,1.085-0.158,1.386-0.472c0.3-0.315,0.451-0.726,0.451-1.234
		c0-0.235-0.033-0.45-0.103-0.645c-0.067-0.193-0.171-0.362-0.307-0.499c-0.138-0.141-0.311-0.249-0.521-0.326
		c-0.211-0.076-0.455-0.114-0.734-0.114c-0.23,0-0.444,0.032-0.645,0.098c-0.201,0.066-0.374,0.161-0.525,0.281
		c-0.15,0.126-0.271,0.274-0.357,0.448c-0.086,0.175-0.13,0.372-0.13,0.591h-2.28c0-0.486,0.1-0.929,0.3-1.328
		s0.476-0.743,0.825-1.029c0.35-0.288,0.762-0.511,1.233-0.669c0.474-0.159,0.983-0.237,1.53-0.237c0.591,0,1.133,0.072,1.626,0.218
		c0.491,0.144,0.913,0.362,1.263,0.646c0.351,0.288,0.623,0.644,0.816,1.067c0.194,0.425,0.291,0.916,0.291,1.474
		c0,0.257-0.038,0.51-0.114,0.758c-0.077,0.25-0.188,0.486-0.337,0.71c-0.147,0.226-0.331,0.432-0.549,0.62
		c-0.219,0.19-0.471,0.352-0.755,0.489c0.334,0.12,0.622,0.272,0.864,0.459c0.243,0.186,0.444,0.397,0.603,0.635
		s0.276,0.498,0.353,0.783c0.078,0.285,0.116,0.585,0.116,0.902c0,0.558-0.107,1.056-0.321,1.493
		c-0.213,0.437-0.505,0.805-0.876,1.104c-0.373,0.298-0.814,0.526-1.325,0.68c-0.512,0.157-1.062,0.233-1.652,0.233
		c-0.509,0-1.005-0.07-1.49-0.209c-0.482-0.141-0.914-0.35-1.291-0.631s-0.68-0.636-0.907-1.063c-0.226-0.427-0.34-0.928-0.34-1.509
		h2.279c0,0.229,0.045,0.441,0.132,0.635c0.088,0.194,0.212,0.361,0.372,0.502c0.161,0.138,0.352,0.248,0.571,0.326
		c0.218,0.079,0.459,0.12,0.722,0.12c0.58,0,1.033-0.153,1.361-0.46c0.329-0.307,0.492-0.723,0.492-1.246
		c0-0.324-0.047-0.6-0.14-0.829c-0.091-0.229-0.227-0.418-0.405-0.565c-0.177-0.148-0.39-0.257-0.639-0.328
		c-0.248-0.07-0.529-0.107-0.841-0.107h-1.239v-1.771H452.189z"/>
</g>
<line fill="none" stroke="#000000" stroke-width="2.4" stroke-miterlimit="10" x1="181.651" y1="211.793" x2="460.052" y2="211.793"/>
<g>
	<path fill="#FFFFFF" d="M473.251,690.175c0,3.545-2.873,6.418-6.417,6.418H174.869c-3.545,0-6.418-2.873-6.418-6.418V573.41
		c0-3.544,2.874-6.418,6.418-6.418h291.965c3.545,0,6.417,2.874,6.417,6.418V690.175z"/>
	<path fill="none" stroke="#2D4E6E" stroke-width="2.4" stroke-miterlimit="10" d="M473.251,690.175
		c0,3.545-2.873,6.418-6.417,6.418H174.869c-3.545,0-6.418-2.873-6.418-6.418V573.41c0-3.544,2.874-6.418,6.418-6.418h291.965
		c3.545,0,6.417,2.874,6.417,6.418V690.175z"/>
</g>
<rect x="177.451" y="424.793" fill="#FFFFFF" stroke="#000000" stroke-width="1.2" stroke-miterlimit="10" width="122.4" height="28.8"/>
<rect x="308.251" y="424.793" fill="#FFFFFF" stroke="#000000" stroke-width="1.2" stroke-miterlimit="10" width="156" height="28.8"/>
<g>
	<rect x="177.828" y="405.101" fill="none" width="114.957" height="20.7"/>
	<path d="M206.489,405.757h7.219v1.322h-2.863v9.311h2.863v1.312h-7.219v-1.312h2.797v-9.311h-2.797V405.757z"/>
	<path d="M217.932,408.825l0.107,1.312c0.322-0.46,0.719-0.82,1.189-1.078c0.47-0.261,0.996-0.393,1.574-0.398
		c0.465,0,0.887,0.066,1.268,0.196c0.38,0.132,0.704,0.337,0.972,0.617c0.268,0.278,0.476,0.631,0.619,1.062
		c0.145,0.428,0.217,0.938,0.217,1.528v5.636h-1.518v-5.604c0-0.394-0.045-0.727-0.131-1s-0.218-0.495-0.39-0.665
		c-0.173-0.171-0.384-0.293-0.632-0.37c-0.248-0.076-0.534-0.115-0.856-0.115c-0.509,0-0.955,0.128-1.342,0.381
		c-0.385,0.256-0.693,0.589-0.923,1.006v6.365h-1.516v-8.874H217.932L217.932,408.825z"/>
	<path d="M234.142,413.361c0,0.634-0.077,1.227-0.229,1.775c-0.152,0.551-0.377,1.026-0.673,1.432
		c-0.296,0.404-0.66,0.723-1.096,0.952c-0.436,0.229-0.932,0.343-1.489,0.343c-0.541,0-1.019-0.086-1.432-0.262
		c-0.413-0.175-0.767-0.426-1.062-0.755v4.266h-1.518v-12.287h1.386l0.074,0.968c0.295-0.367,0.651-0.646,1.07-0.842
		c0.419-0.193,0.903-0.29,1.455-0.29c0.569,0,1.072,0.113,1.511,0.336c0.438,0.224,0.804,0.536,1.099,0.936s0.52,0.875,0.673,1.43
		c0.152,0.557,0.229,1.165,0.229,1.825L234.142,413.361L234.142,413.361z M232.625,413.189c0-0.433-0.048-0.844-0.145-1.235
		c-0.096-0.391-0.243-0.733-0.442-1.032c-0.2-0.298-0.452-0.535-0.759-0.711c-0.306-0.174-0.673-0.262-1.099-0.262
		c-0.487,0-0.895,0.113-1.227,0.341c-0.331,0.225-0.596,0.518-0.792,0.873v4.274c0.196,0.351,0.46,0.636,0.787,0.858
		c0.328,0.22,0.744,0.331,1.247,0.331c0.421,0,0.784-0.089,1.091-0.267c0.306-0.177,0.558-0.417,0.755-0.719
		c0.197-0.301,0.344-0.647,0.438-1.042c0.097-0.394,0.145-0.806,0.145-1.238V413.189z"/>
	<path d="M242.493,416.479c-0.296,0.436-0.665,0.777-1.108,1.021c-0.442,0.244-0.954,0.366-1.533,0.366
		c-0.465,0-0.886-0.073-1.264-0.219c-0.377-0.144-0.7-0.37-0.969-0.675s-0.475-0.696-0.619-1.169
		c-0.146-0.474-0.217-1.041-0.217-1.703v-5.274h1.518v5.29c0,0.481,0.039,0.88,0.115,1.197c0.077,0.318,0.192,0.572,0.345,0.76
		c0.152,0.188,0.341,0.322,0.562,0.398c0.221,0.074,0.477,0.114,0.767,0.114c0.618,0,1.117-0.125,1.497-0.377
		c0.381-0.252,0.664-0.591,0.85-1.018v-6.365h1.525v8.874h-1.377L242.493,416.479z"/>
	<path d="M250.409,406.676v2.149h3.379v1.173h-3.379v4.824c0,0.344,0.044,0.629,0.131,0.854c0.086,0.224,0.207,0.403,0.361,0.537
		c0.152,0.133,0.328,0.227,0.528,0.282c0.201,0.055,0.412,0.082,0.637,0.082c0.164,0,0.333-0.011,0.509-0.029
		c0.175-0.019,0.346-0.042,0.513-0.069c0.166-0.028,0.322-0.057,0.468-0.086c0.145-0.03,0.264-0.056,0.355-0.078l0.214,1.076
		c-0.126,0.074-0.278,0.143-0.459,0.201c-0.18,0.057-0.377,0.105-0.591,0.147c-0.214,0.04-0.438,0.071-0.677,0.094
		c-0.237,0.021-0.475,0.032-0.709,0.032c-0.394,0-0.762-0.057-1.103-0.169c-0.342-0.111-0.639-0.29-0.891-0.532
		c-0.251-0.244-0.45-0.558-0.596-0.944c-0.145-0.384-0.217-0.851-0.217-1.397v-4.824h-2.329v-1.173h2.329v-2.149H250.409
		L250.409,406.676z"/>
	<path d="M262.796,415.347c0-0.181-0.037-0.344-0.107-0.489c-0.07-0.144-0.191-0.275-0.361-0.396
		c-0.169-0.121-0.394-0.23-0.673-0.331c-0.278-0.102-0.627-0.193-1.042-0.275c-0.509-0.104-0.972-0.229-1.391-0.376
		s-0.776-0.326-1.075-0.528c-0.299-0.206-0.529-0.446-0.693-0.722c-0.164-0.277-0.246-0.598-0.246-0.966
		c0-0.361,0.085-0.698,0.254-1.014c0.17-0.314,0.407-0.589,0.715-0.824c0.307-0.236,0.672-0.422,1.096-0.559
		c0.423-0.136,0.89-0.205,1.398-0.205c0.548,0,1.039,0.072,1.477,0.214c0.437,0.143,0.809,0.338,1.115,0.59
		c0.308,0.253,0.543,0.546,0.71,0.881c0.167,0.338,0.249,0.7,0.249,1.088h-1.518c0-0.191-0.05-0.379-0.147-0.562
		c-0.099-0.183-0.235-0.346-0.41-0.487c-0.176-0.142-0.387-0.257-0.637-0.345s-0.529-0.131-0.841-0.131
		c-0.323,0-0.606,0.035-0.85,0.106c-0.244,0.072-0.446,0.167-0.607,0.287s-0.283,0.26-0.364,0.419
		c-0.082,0.158-0.124,0.322-0.124,0.491c0,0.176,0.032,0.331,0.099,0.469c0.066,0.139,0.179,0.261,0.34,0.369
		c0.163,0.109,0.378,0.208,0.648,0.296c0.271,0.088,0.614,0.173,1.03,0.254c0.547,0.116,1.036,0.247,1.468,0.398
		c0.433,0.15,0.796,0.33,1.092,0.541c0.295,0.21,0.521,0.455,0.677,0.734c0.155,0.277,0.233,0.601,0.233,0.968
		c0,0.394-0.089,0.752-0.266,1.075c-0.178,0.322-0.425,0.6-0.743,0.828c-0.318,0.229-0.697,0.407-1.141,0.533
		c-0.442,0.124-0.926,0.188-1.452,0.188c-0.601,0-1.137-0.081-1.607-0.241c-0.471-0.163-0.869-0.375-1.194-0.641
		s-0.574-0.574-0.746-0.924c-0.171-0.351-0.258-0.714-0.258-1.09h1.518c0.022,0.312,0.105,0.574,0.25,0.786
		c0.145,0.213,0.325,0.386,0.541,0.518s0.455,0.224,0.718,0.278c0.263,0.054,0.521,0.082,0.778,0.082
		c0.64,0,1.146-0.117,1.519-0.354C262.598,416.046,262.791,415.734,262.796,415.347z"/>
</g>
<g>
	<rect x="177.862" y="432.271" fill="none" width="120.318" height="20.7"/>
	<path d="M200.332,441.854c0-0.367-0.083-0.674-0.25-0.926c-0.166-0.252-0.382-0.465-0.644-0.637
		c-0.264-0.171-0.551-0.315-0.866-0.43c-0.314-0.114-0.616-0.22-0.905-0.312c-0.422-0.137-0.85-0.301-1.284-0.492
		c-0.435-0.19-0.832-0.425-1.189-0.705c-0.357-0.279-0.65-0.608-0.877-0.988c-0.227-0.379-0.341-0.826-0.341-1.34
		c0-0.516,0.114-0.976,0.341-1.379c0.227-0.402,0.524-0.746,0.89-1.025c0.366-0.277,0.783-0.489,1.247-0.634
		c0.465-0.146,0.933-0.219,1.403-0.219c0.52,0,1.02,0.087,1.501,0.259c0.481,0.174,0.907,0.415,1.279,0.726s0.669,0.688,0.894,1.132
		s0.343,0.938,0.353,1.483h-1.559c-0.044-0.343-0.128-0.657-0.254-0.938c-0.126-0.282-0.293-0.524-0.5-0.727
		c-0.208-0.201-0.456-0.359-0.743-0.471c-0.287-0.114-0.61-0.17-0.973-0.17c-0.29,0-0.573,0.041-0.85,0.124
		c-0.275,0.082-0.521,0.205-0.737,0.369s-0.389,0.368-0.518,0.607c-0.128,0.24-0.193,0.52-0.193,0.836
		c0.005,0.345,0.094,0.636,0.264,0.876c0.169,0.235,0.384,0.437,0.644,0.603c0.261,0.164,0.541,0.301,0.845,0.41
		c0.304,0.108,0.59,0.205,0.857,0.287c0.295,0.091,0.594,0.197,0.894,0.314c0.3,0.119,0.591,0.254,0.87,0.407
		s0.539,0.325,0.778,0.517c0.24,0.192,0.451,0.41,0.632,0.651c0.18,0.244,0.321,0.514,0.422,0.806
		c0.101,0.291,0.151,0.617,0.151,0.973c0,0.535-0.118,1.003-0.356,1.402c-0.237,0.399-0.546,0.731-0.923,0.997
		c-0.377,0.265-0.804,0.464-1.279,0.598c-0.475,0.135-0.951,0.202-1.427,0.202c-0.53,0-1.05-0.082-1.559-0.246
		s-0.964-0.401-1.365-0.711c-0.402-0.308-0.729-0.686-0.98-1.132c-0.251-0.445-0.385-0.952-0.402-1.521h1.551
		c0.049,0.371,0.15,0.7,0.304,0.988c0.152,0.285,0.351,0.529,0.591,0.729c0.24,0.2,0.519,0.35,0.832,0.452
		c0.314,0.101,0.657,0.151,1.029,0.151c0.296,0,0.588-0.037,0.874-0.111c0.287-0.074,0.543-0.188,0.767-0.345
		c0.225-0.155,0.407-0.352,0.55-0.591C200.261,442.465,200.332,442.182,200.332,441.854z"/>
	<path d="M204.401,435.996h4.535v7.563h2.896v1.313h-7.431v-1.313h3.019v-6.241h-3.019V435.996z M207.224,433.666
		c0-0.252,0.074-0.464,0.226-0.634c0.149-0.175,0.378-0.259,0.685-0.259c0.3,0,0.528,0.084,0.681,0.259
		c0.152,0.171,0.229,0.382,0.229,0.634c0,0.246-0.077,0.453-0.229,0.617s-0.381,0.246-0.681,0.246c-0.306,0-0.533-0.082-0.685-0.246
		S207.224,433.912,207.224,433.666z"/>
	<path d="M213.967,440.36c0-0.662,0.08-1.271,0.241-1.825c0.161-0.554,0.396-1.031,0.701-1.431s0.679-0.711,1.116-0.934
		c0.438-0.224,0.933-0.337,1.484-0.337c0.547,0,1.025,0.098,1.44,0.291c0.412,0.194,0.764,0.475,1.053,0.84l0.075-0.968h1.377v8.688
		c0,0.585-0.091,1.104-0.274,1.559c-0.184,0.453-0.44,0.839-0.771,1.156s-0.727,0.558-1.186,0.724
		c-0.46,0.164-0.969,0.246-1.525,0.246c-0.229,0-0.492-0.026-0.787-0.078c-0.296-0.053-0.596-0.137-0.899-0.255
		c-0.304-0.117-0.597-0.275-0.877-0.473c-0.28-0.196-0.524-0.439-0.726-0.729l0.787-0.911c0.186,0.225,0.377,0.415,0.575,0.57
		c0.196,0.156,0.396,0.281,0.599,0.375c0.201,0.092,0.404,0.16,0.606,0.199c0.202,0.042,0.404,0.062,0.607,0.062
		c0.361,0,0.687-0.051,0.976-0.155s0.538-0.257,0.743-0.455c0.205-0.2,0.362-0.447,0.472-0.743c0.108-0.295,0.164-0.634,0.164-1.018
		v-0.764c-0.295,0.339-0.645,0.598-1.046,0.776c-0.402,0.177-0.869,0.267-1.399,0.267c-0.541,0-1.031-0.114-1.469-0.344
		c-0.438-0.229-0.809-0.548-1.111-0.952c-0.304-0.404-0.538-0.881-0.701-1.432c-0.164-0.549-0.246-1.141-0.246-1.774L213.967,440.36
		L213.967,440.36z M215.482,440.532c0,0.432,0.046,0.843,0.137,1.229c0.089,0.388,0.232,0.73,0.426,1.025s0.441,0.528,0.743,0.701
		c0.3,0.173,0.66,0.259,1.082,0.259c0.263,0,0.499-0.032,0.709-0.095s0.399-0.151,0.566-0.267c0.166-0.114,0.315-0.252,0.447-0.41
		c0.132-0.159,0.246-0.334,0.345-0.526v-4.068c-0.099-0.187-0.214-0.355-0.345-0.509s-0.282-0.286-0.451-0.397
		c-0.169-0.113-0.357-0.2-0.566-0.264c-0.207-0.062-0.438-0.095-0.688-0.095c-0.427,0-0.792,0.088-1.096,0.264
		c-0.304,0.175-0.552,0.411-0.746,0.709c-0.194,0.299-0.337,0.644-0.426,1.034c-0.091,0.39-0.137,0.803-0.137,1.233V440.532z"/>
	<path d="M230.027,441.779h-3.986l-0.961,3.093h-1.518l3.855-11.944h1.272l3.789,11.944h-1.508L230.027,441.779z M226.451,440.459
		h3.175l-1.574-5.184L226.451,440.459z"/>
	<path d="M238.255,444.518c0,0.258-0.03,0.526-0.095,0.809c-0.062,0.281-0.155,0.562-0.278,0.836
		c-0.123,0.276-0.272,0.54-0.447,0.792c-0.176,0.252-0.377,0.476-0.607,0.674l-0.943-0.518c0.264-0.382,0.449-0.789,0.559-1.223
		s0.164-0.88,0.164-1.345v-1.469h1.648V444.518L238.255,444.518z"/>
	<path d="M250.74,441.854c0-0.367-0.083-0.674-0.249-0.926c-0.167-0.252-0.383-0.465-0.645-0.637
		c-0.264-0.171-0.551-0.315-0.866-0.43c-0.313-0.114-0.616-0.22-0.905-0.312c-0.422-0.137-0.85-0.301-1.284-0.492
		c-0.435-0.19-0.832-0.425-1.189-0.705c-0.357-0.279-0.65-0.608-0.877-0.988c-0.227-0.379-0.341-0.826-0.341-1.34
		c0-0.516,0.114-0.976,0.341-1.379c0.227-0.402,0.524-0.746,0.89-1.025c0.366-0.277,0.783-0.489,1.247-0.634
		c0.465-0.146,0.933-0.219,1.403-0.219c0.52,0,1.02,0.087,1.501,0.259c0.481,0.174,0.907,0.415,1.279,0.726s0.67,0.688,0.895,1.132
		c0.224,0.443,0.342,0.938,0.353,1.483h-1.56c-0.044-0.343-0.128-0.657-0.254-0.938c-0.126-0.282-0.292-0.524-0.5-0.727
		c-0.208-0.201-0.455-0.359-0.743-0.471c-0.287-0.114-0.61-0.17-0.973-0.17c-0.29,0-0.572,0.041-0.85,0.124
		c-0.275,0.082-0.521,0.205-0.737,0.369s-0.389,0.368-0.518,0.607c-0.128,0.24-0.192,0.52-0.192,0.836
		c0.005,0.345,0.093,0.636,0.263,0.876c0.169,0.235,0.384,0.437,0.645,0.603c0.26,0.164,0.54,0.301,0.845,0.41
		c0.304,0.108,0.589,0.205,0.856,0.287c0.295,0.091,0.594,0.197,0.895,0.314c0.3,0.119,0.59,0.254,0.87,0.407
		c0.279,0.153,0.538,0.325,0.778,0.517c0.239,0.192,0.451,0.41,0.631,0.651c0.18,0.244,0.322,0.514,0.423,0.806
		c0.101,0.291,0.151,0.617,0.151,0.973c0,0.535-0.119,1.003-0.357,1.402c-0.237,0.399-0.545,0.731-0.922,0.997
		c-0.378,0.265-0.804,0.464-1.28,0.598c-0.475,0.135-0.951,0.202-1.427,0.202c-0.53,0-1.05-0.082-1.559-0.246
		c-0.508-0.164-0.964-0.401-1.365-0.711c-0.402-0.308-0.729-0.686-0.98-1.132c-0.251-0.445-0.385-0.952-0.402-1.521h1.551
		c0.049,0.371,0.15,0.7,0.304,0.988c0.152,0.285,0.351,0.529,0.591,0.729c0.24,0.2,0.519,0.35,0.832,0.452
		c0.314,0.101,0.657,0.151,1.029,0.151c0.296,0,0.588-0.037,0.874-0.111c0.287-0.074,0.543-0.188,0.767-0.345
		c0.225-0.155,0.407-0.352,0.55-0.591C250.67,442.465,250.74,442.182,250.74,441.854z"/>
	<path d="M254.81,435.996h4.536v7.563h2.896v1.313h-7.432v-1.313h3.019v-6.241h-3.019V435.996z M257.631,433.666
		c0-0.252,0.074-0.464,0.226-0.634c0.149-0.175,0.378-0.259,0.686-0.259c0.3,0,0.527,0.084,0.68,0.259
		c0.152,0.171,0.229,0.382,0.229,0.634c0,0.246-0.077,0.453-0.229,0.617s-0.38,0.246-0.68,0.246c-0.307,0-0.535-0.082-0.686-0.246
		C257.705,434.119,257.631,433.912,257.631,433.666z"/>
	<path d="M264.375,440.36c0-0.662,0.08-1.271,0.242-1.825c0.16-0.554,0.395-1.031,0.701-1.431c0.306-0.399,0.678-0.711,1.115-0.934
		c0.438-0.224,0.933-0.337,1.484-0.337c0.547,0,1.026,0.098,1.44,0.291c0.413,0.194,0.765,0.475,1.053,0.84l0.075-0.968h1.377v8.688
		c0,0.585-0.091,1.104-0.274,1.559c-0.184,0.453-0.44,0.839-0.771,1.156s-0.726,0.558-1.186,0.724
		c-0.46,0.164-0.969,0.246-1.525,0.246c-0.229,0-0.492-0.026-0.787-0.078c-0.295-0.053-0.595-0.137-0.898-0.255
		c-0.304-0.117-0.597-0.275-0.877-0.473c-0.281-0.196-0.524-0.439-0.727-0.729l0.787-0.911c0.187,0.225,0.377,0.415,0.575,0.57
		c0.196,0.156,0.396,0.281,0.599,0.375c0.201,0.092,0.404,0.16,0.607,0.199c0.201,0.042,0.404,0.062,0.607,0.062
		c0.36,0,0.686-0.051,0.976-0.155c0.288-0.104,0.537-0.257,0.742-0.455c0.205-0.2,0.362-0.447,0.472-0.743
		c0.109-0.295,0.164-0.634,0.164-1.018v-0.764c-0.295,0.339-0.645,0.598-1.046,0.776c-0.402,0.177-0.869,0.267-1.399,0.267
		c-0.541,0-1.03-0.114-1.469-0.344c-0.438-0.229-0.808-0.548-1.111-0.952s-0.538-0.881-0.7-1.432
		c-0.165-0.549-0.246-1.141-0.246-1.774V440.36z M265.892,440.532c0,0.432,0.046,0.843,0.136,1.229
		c0.09,0.388,0.232,0.73,0.426,1.025s0.441,0.528,0.743,0.701c0.3,0.173,0.66,0.259,1.082,0.259c0.263,0,0.499-0.032,0.709-0.095
		s0.4-0.151,0.566-0.267c0.167-0.114,0.315-0.252,0.447-0.41c0.132-0.159,0.246-0.334,0.345-0.526v-4.068
		c-0.099-0.187-0.214-0.355-0.345-0.509c-0.13-0.153-0.281-0.286-0.451-0.397c-0.169-0.113-0.357-0.2-0.566-0.264
		c-0.207-0.062-0.438-0.095-0.688-0.095c-0.426,0-0.792,0.088-1.096,0.264c-0.304,0.175-0.552,0.411-0.746,0.709
		c-0.194,0.299-0.336,0.644-0.426,1.034c-0.091,0.39-0.136,0.803-0.136,1.233V440.532L265.892,440.532z"/>
	<path d="M274.719,444.872v-11.944h3.552c0.492,0.006,0.974,0.07,1.443,0.192c0.471,0.124,0.89,0.314,1.256,0.571
		c0.365,0.256,0.658,0.584,0.877,0.984c0.218,0.399,0.325,0.876,0.32,1.434c-0.005,0.313-0.057,0.597-0.151,0.854
		c-0.095,0.258-0.227,0.487-0.394,0.693c-0.167,0.204-0.362,0.384-0.587,0.537s-0.462,0.285-0.714,0.394
		c0.316,0.093,0.608,0.226,0.874,0.398c0.265,0.171,0.492,0.379,0.685,0.624c0.192,0.242,0.341,0.519,0.448,0.824
		c0.106,0.307,0.159,0.638,0.159,0.993c0.005,0.558-0.101,1.05-0.32,1.476s-0.512,0.782-0.877,1.072
		c-0.366,0.284-0.789,0.506-1.268,0.659s-0.972,0.231-1.48,0.238H274.719L274.719,444.872z M276.244,438.022h2.116
		c0.285-0.007,0.563-0.051,0.837-0.135c0.273-0.086,0.517-0.209,0.729-0.372c0.214-0.16,0.385-0.358,0.518-0.593
		c0.132-0.235,0.196-0.51,0.196-0.821c0-0.333-0.064-0.617-0.193-0.854c-0.128-0.235-0.3-0.426-0.518-0.576
		c-0.216-0.151-0.464-0.263-0.746-0.333s-0.57-0.108-0.865-0.114h-2.074V438.022L276.244,438.022z M276.244,439.285v4.299h2.337
		c0.317-0.006,0.618-0.059,0.902-0.16c0.285-0.102,0.537-0.242,0.756-0.424c0.218-0.18,0.392-0.401,0.52-0.664
		c0.129-0.263,0.193-0.561,0.193-0.895c0.005-0.338-0.05-0.64-0.168-0.902c-0.117-0.262-0.279-0.484-0.488-0.668
		c-0.207-0.184-0.451-0.325-0.729-0.424s-0.58-0.153-0.902-0.164h-2.42V439.285z"/>
</g>
<g>
	<rect x="415.419" y="432.271" fill="none" width="43.941" height="20.25"/>
	<path d="M438.048,440.327c0,0.771-0.089,1.451-0.266,2.038c-0.178,0.587-0.434,1.079-0.768,1.477
		c-0.333,0.396-0.742,0.695-1.223,0.897c-0.481,0.203-1.022,0.304-1.625,0.304c-0.597,0-1.135-0.101-1.616-0.304
		c-0.481-0.202-0.891-0.501-1.227-0.897c-0.335-0.397-0.596-0.89-0.778-1.477c-0.184-0.587-0.275-1.268-0.275-2.038v-2.854
		c0-0.772,0.09-1.451,0.271-2.039c0.18-0.587,0.439-1.079,0.775-1.477c0.336-0.396,0.744-0.695,1.223-0.897
		c0.479-0.203,1.017-0.304,1.611-0.304c0.602,0,1.145,0.101,1.626,0.304c0.48,0.202,0.89,0.501,1.226,0.897
		c0.336,0.397,0.596,0.89,0.775,1.477c0.18,0.588,0.271,1.268,0.271,2.039v2.854H438.048z M432.567,439.343l3.183-2.37
		c-0.017-0.806-0.155-1.4-0.418-1.789c-0.264-0.388-0.656-0.582-1.182-0.582c-0.53,0-0.927,0.205-1.189,0.616
		c-0.263,0.41-0.394,1.041-0.394,1.894V439.343z M435.751,438.522l-3.183,2.362c0.028,0.788,0.174,1.371,0.435,1.751
		c0.263,0.38,0.65,0.571,1.165,0.571c0.537,0,0.935-0.208,1.194-0.624s0.391-1.052,0.391-1.911v-2.149H435.751z"/>
	<path d="M442.657,443.551c0-0.213,0.036-0.411,0.106-0.594c0.071-0.183,0.176-0.342,0.312-0.475
		c0.138-0.135,0.305-0.241,0.502-0.322c0.195-0.077,0.418-0.118,0.664-0.118s0.468,0.04,0.665,0.118
		c0.196,0.08,0.362,0.187,0.497,0.322c0.135,0.133,0.237,0.292,0.312,0.475c0.075,0.183,0.11,0.381,0.11,0.594
		c0,0.208-0.037,0.402-0.11,0.583c-0.073,0.179-0.177,0.337-0.312,0.471c-0.135,0.135-0.301,0.24-0.497,0.317
		c-0.197,0.076-0.419,0.115-0.665,0.115s-0.469-0.039-0.664-0.115c-0.197-0.077-0.364-0.182-0.502-0.317
		c-0.136-0.132-0.24-0.29-0.312-0.471C442.693,443.952,442.657,443.759,442.657,443.551z"/>
	<path d="M458.236,434.199l-4.651,10.674h-2.403l4.659-10.082h-5.996v-1.861h8.392V434.199z"/>
</g>
<g>
	<rect x="299.554" y="405.101" fill="none" width="129.592" height="20.7"/>
	<path d="M338.26,412.418c-0.005,0.427-0.042,0.859-0.11,1.291c-0.068,0.437-0.174,0.855-0.315,1.262
		c-0.142,0.404-0.324,0.78-0.546,1.131c-0.223,0.35-0.485,0.656-0.792,0.92c-0.308,0.262-0.657,0.469-1.054,0.619
		c-0.397,0.15-0.842,0.226-1.334,0.226c-0.491,0-0.936-0.074-1.333-0.226c-0.396-0.15-0.747-0.357-1.053-0.619
		c-0.307-0.264-0.571-0.572-0.796-0.924c-0.225-0.354-0.409-0.732-0.554-1.137c-0.144-0.404-0.253-0.822-0.323-1.255
		c-0.071-0.432-0.109-0.861-0.116-1.288v-1.361c0.006-0.426,0.043-0.858,0.111-1.292c0.067-0.435,0.175-0.855,0.32-1.26
		c0.145-0.404,0.327-0.782,0.55-1.136c0.222-0.354,0.484-0.662,0.791-0.927s0.658-0.474,1.054-0.624
		c0.397-0.15,0.842-0.226,1.334-0.226s0.938,0.074,1.336,0.226c0.4,0.152,0.752,0.358,1.06,0.621
		c0.307,0.262,0.569,0.57,0.791,0.922c0.223,0.354,0.405,0.732,0.55,1.137c0.146,0.404,0.251,0.826,0.32,1.264
		c0.07,0.438,0.105,0.87,0.11,1.296L338.26,412.418L338.26,412.418z M336.759,411.04c-0.005-0.285-0.025-0.581-0.058-0.891
		c-0.032-0.309-0.089-0.614-0.168-0.919c-0.079-0.303-0.185-0.593-0.315-0.871c-0.132-0.273-0.296-0.519-0.492-0.728
		c-0.197-0.211-0.43-0.377-0.697-0.501c-0.268-0.123-0.58-0.185-0.935-0.185c-0.351,0-0.659,0.063-0.927,0.188
		s-0.5,0.295-0.697,0.504c-0.196,0.211-0.361,0.455-0.492,0.731c-0.131,0.274-0.236,0.565-0.315,0.87
		c-0.079,0.302-0.137,0.609-0.173,0.918c-0.036,0.31-0.057,0.603-0.062,0.882v1.378c0.005,0.277,0.025,0.574,0.062,0.885
		s0.095,0.62,0.176,0.925c0.082,0.302,0.189,0.594,0.321,0.873c0.132,0.28,0.295,0.524,0.492,0.734
		c0.196,0.21,0.429,0.378,0.697,0.504c0.268,0.127,0.579,0.188,0.935,0.188c0.354,0,0.668-0.064,0.939-0.188
		c0.271-0.125,0.503-0.294,0.697-0.504c0.194-0.211,0.355-0.454,0.483-0.731c0.128-0.273,0.232-0.564,0.312-0.869
		c0.079-0.303,0.134-0.61,0.164-0.924c0.029-0.312,0.048-0.609,0.053-0.893L336.759,411.04L336.759,411.04z"/>
	<path d="M346.332,416.479c-0.295,0.436-0.664,0.777-1.107,1.021c-0.443,0.244-0.954,0.366-1.533,0.366
		c-0.465,0-0.886-0.073-1.264-0.219c-0.377-0.144-0.7-0.37-0.969-0.675s-0.476-0.696-0.619-1.169
		c-0.146-0.474-0.217-1.041-0.217-1.703v-5.274h1.518v5.29c0,0.481,0.038,0.88,0.115,1.197c0.076,0.318,0.192,0.572,0.345,0.76
		c0.152,0.188,0.341,0.322,0.561,0.398c0.222,0.074,0.478,0.114,0.768,0.114c0.618,0,1.117-0.125,1.497-0.377
		c0.381-0.252,0.664-0.591,0.85-1.018v-6.365h1.525v8.874h-1.377L346.332,416.479z"/>
	<path d="M354.249,406.676v2.149h3.379v1.173h-3.379v4.824c0,0.344,0.044,0.629,0.13,0.854c0.087,0.224,0.208,0.403,0.362,0.537
		c0.152,0.133,0.328,0.227,0.528,0.282c0.201,0.055,0.412,0.082,0.636,0.082c0.165,0,0.334-0.011,0.509-0.029
		c0.176-0.019,0.346-0.042,0.513-0.069c0.167-0.028,0.323-0.057,0.469-0.086c0.145-0.03,0.264-0.056,0.355-0.078l0.214,1.076
		c-0.126,0.074-0.278,0.143-0.46,0.201c-0.18,0.057-0.376,0.105-0.59,0.147c-0.214,0.04-0.439,0.071-0.677,0.094
		c-0.237,0.021-0.476,0.032-0.709,0.032c-0.394,0-0.762-0.057-1.104-0.169c-0.342-0.111-0.638-0.29-0.89-0.532
		c-0.251-0.244-0.45-0.558-0.596-0.944c-0.145-0.384-0.217-0.851-0.217-1.397v-4.824h-2.329v-1.173h2.329v-2.149H354.249
		L354.249,406.676z"/>
	<path d="M368.227,413.361c0,0.634-0.077,1.227-0.229,1.775c-0.152,0.551-0.377,1.026-0.673,1.432
		c-0.297,0.404-0.661,0.723-1.096,0.952c-0.436,0.229-0.932,0.343-1.489,0.343c-0.541,0-1.019-0.086-1.432-0.262
		c-0.413-0.175-0.767-0.426-1.062-0.755v4.266h-1.518v-12.287h1.386l0.075,0.968c0.294-0.367,0.651-0.646,1.069-0.842
		c0.419-0.193,0.903-0.29,1.456-0.29c0.568,0,1.071,0.113,1.51,0.336c0.438,0.224,0.804,0.536,1.099,0.936s0.521,0.875,0.674,1.43
		c0.152,0.557,0.229,1.165,0.229,1.825v0.174H368.227z M366.708,413.189c0-0.433-0.048-0.844-0.145-1.235
		c-0.095-0.391-0.243-0.733-0.442-1.032c-0.2-0.298-0.452-0.535-0.759-0.711c-0.306-0.174-0.672-0.262-1.099-0.262
		c-0.487,0-0.895,0.113-1.226,0.341c-0.332,0.225-0.596,0.518-0.793,0.873v4.274c0.197,0.351,0.46,0.636,0.787,0.858
		c0.328,0.22,0.744,0.331,1.247,0.331c0.421,0,0.784-0.089,1.091-0.267c0.306-0.177,0.558-0.417,0.755-0.719
		c0.197-0.301,0.344-0.647,0.438-1.042c0.097-0.394,0.145-0.806,0.145-1.238V413.189z"/>
	<path d="M376.577,416.479c-0.296,0.436-0.665,0.777-1.107,1.021c-0.443,0.244-0.955,0.366-1.534,0.366
		c-0.464,0-0.886-0.073-1.264-0.219c-0.376-0.144-0.699-0.37-0.968-0.675c-0.27-0.305-0.476-0.696-0.62-1.169
		c-0.145-0.474-0.217-1.041-0.217-1.703v-5.274h1.518v5.29c0,0.481,0.039,0.88,0.116,1.197c0.076,0.318,0.191,0.572,0.344,0.76
		c0.152,0.188,0.341,0.322,0.562,0.398c0.221,0.074,0.477,0.114,0.768,0.114c0.618,0,1.117-0.125,1.497-0.377
		c0.381-0.252,0.663-0.591,0.85-1.018v-6.365h1.525v8.874h-1.378L376.577,416.479z"/>
	<path d="M384.493,406.676v2.149h3.38v1.173h-3.38v4.824c0,0.344,0.045,0.629,0.131,0.854c0.086,0.224,0.208,0.403,0.361,0.537
		c0.152,0.133,0.328,0.227,0.529,0.282c0.2,0.055,0.411,0.082,0.636,0.082c0.164,0,0.334-0.011,0.509-0.029s0.346-0.042,0.513-0.069
		c0.167-0.028,0.323-0.057,0.468-0.086c0.146-0.03,0.264-0.056,0.356-0.078l0.214,1.076c-0.126,0.074-0.278,0.143-0.46,0.201
		c-0.18,0.057-0.377,0.105-0.591,0.147c-0.213,0.04-0.438,0.071-0.677,0.094c-0.237,0.021-0.475,0.032-0.709,0.032
		c-0.394,0-0.762-0.057-1.103-0.169c-0.342-0.111-0.639-0.29-0.891-0.532c-0.251-0.244-0.45-0.558-0.595-0.944
		c-0.146-0.384-0.217-0.851-0.217-1.397v-4.824h-2.329v-1.173h2.329v-2.149H384.493L384.493,406.676z"/>
	<path d="M396.88,415.347c0-0.181-0.036-0.344-0.106-0.489c-0.071-0.144-0.192-0.275-0.362-0.396
		c-0.168-0.121-0.393-0.23-0.672-0.331c-0.279-0.102-0.627-0.193-1.042-0.275c-0.509-0.104-0.973-0.229-1.392-0.376
		c-0.418-0.147-0.776-0.326-1.075-0.528c-0.299-0.206-0.528-0.446-0.692-0.722c-0.165-0.277-0.246-0.598-0.246-0.966
		c0-0.361,0.085-0.698,0.254-1.014c0.169-0.314,0.406-0.589,0.714-0.824c0.308-0.236,0.672-0.422,1.096-0.559
		c0.424-0.136,0.891-0.205,1.399-0.205c0.547,0,1.039,0.072,1.476,0.214c0.438,0.143,0.81,0.338,1.116,0.59
		c0.307,0.253,0.543,0.546,0.709,0.881c0.166,0.338,0.25,0.7,0.25,1.088h-1.518c0-0.191-0.05-0.379-0.148-0.562
		c-0.098-0.183-0.235-0.346-0.41-0.487c-0.176-0.142-0.387-0.257-0.636-0.345c-0.25-0.088-0.53-0.131-0.842-0.131
		c-0.322,0-0.605,0.035-0.85,0.106c-0.243,0.072-0.446,0.167-0.606,0.287c-0.161,0.12-0.284,0.26-0.365,0.419
		c-0.082,0.158-0.124,0.322-0.124,0.491c0,0.176,0.033,0.331,0.099,0.469c0.066,0.139,0.179,0.261,0.341,0.369
		c0.162,0.109,0.377,0.208,0.648,0.296s0.614,0.173,1.029,0.254c0.547,0.116,1.036,0.247,1.469,0.398
		c0.432,0.15,0.796,0.33,1.091,0.541c0.296,0.21,0.521,0.455,0.677,0.734c0.155,0.277,0.234,0.601,0.234,0.968
		c0,0.394-0.089,0.752-0.267,1.075c-0.178,0.322-0.425,0.6-0.742,0.828c-0.318,0.229-0.697,0.407-1.141,0.533
		c-0.443,0.124-0.927,0.188-1.452,0.188c-0.601,0-1.138-0.081-1.607-0.241c-0.471-0.163-0.869-0.375-1.194-0.641
		s-0.575-0.574-0.746-0.924c-0.172-0.351-0.258-0.714-0.258-1.09h1.518c0.021,0.312,0.105,0.574,0.249,0.786
		c0.145,0.213,0.325,0.386,0.542,0.518c0.215,0.132,0.454,0.224,0.717,0.278c0.263,0.054,0.522,0.082,0.779,0.082
		c0.64,0,1.146-0.117,1.518-0.354C396.682,416.046,396.875,415.734,396.88,415.347z"/>
</g>
<g>
	<rect x="168.451" y="375.101" fill="none" width="302.78" height="20.7"/>
	<path d="M263.679,383.96c-0.038,0.602-0.168,1.143-0.39,1.626c-0.223,0.481-0.519,0.892-0.891,1.229
		c-0.372,0.339-0.815,0.601-1.328,0.783c-0.515,0.184-1.083,0.275-1.707,0.275c-0.706,0-1.332-0.13-1.878-0.391
		c-0.547-0.259-1.006-0.624-1.378-1.09c-0.372-0.469-0.656-1.029-0.853-1.686c-0.197-0.656-0.296-1.377-0.296-2.166v-1.607
		c0-0.794,0.104-1.52,0.312-2.176s0.503-1.22,0.886-1.688c0.383-0.47,0.846-0.835,1.391-1.095c0.545-0.261,1.155-0.39,1.833-0.39
		c0.657,0,1.24,0.093,1.751,0.277c0.512,0.187,0.948,0.451,1.309,0.796c0.359,0.345,0.646,0.767,0.854,1.265
		c0.207,0.498,0.339,1.058,0.394,1.681h-2.297c-0.021-0.355-0.075-0.667-0.16-0.935c-0.085-0.269-0.207-0.491-0.37-0.67
		c-0.16-0.176-0.363-0.312-0.606-0.401c-0.244-0.091-0.534-0.136-0.874-0.136c-0.354,0-0.665,0.076-0.926,0.229
		c-0.262,0.154-0.48,0.377-0.652,0.673c-0.171,0.297-0.3,0.659-0.381,1.088c-0.082,0.429-0.124,0.917-0.124,1.464v1.625
		c0,1.174,0.165,2.045,0.497,2.608c0.331,0.563,0.854,0.845,1.57,0.845c0.602,0,1.078-0.159,1.428-0.48
		c0.35-0.318,0.544-0.836,0.581-1.554H263.679L263.679,383.96z"/>
	<path d="M265.237,383.181c0-0.646,0.094-1.243,0.278-1.792c0.187-0.551,0.459-1.027,0.816-1.432s0.795-0.722,1.312-0.951
		c0.517-0.229,1.108-0.345,1.776-0.345c0.667,0,1.26,0.116,1.779,0.345c0.52,0.229,0.959,0.547,1.316,0.951s0.63,0.881,0.815,1.432
		c0.187,0.549,0.278,1.146,0.278,1.792v0.173c0,0.65-0.094,1.251-0.278,1.8c-0.186,0.551-0.455,1.027-0.812,1.432
		c-0.357,0.404-0.794,0.721-1.313,0.947c-0.52,0.226-1.109,0.341-1.772,0.341c-0.667,0-1.262-0.115-1.784-0.341
		c-0.521-0.227-0.962-0.543-1.321-0.947c-0.358-0.404-0.63-0.881-0.816-1.432c-0.186-0.549-0.278-1.149-0.278-1.8v-0.173H265.237z
		 M267.518,383.354c0,0.372,0.036,0.722,0.106,1.045c0.071,0.326,0.184,0.61,0.336,0.854s0.352,0.437,0.596,0.578
		c0.243,0.143,0.537,0.214,0.882,0.214c0.334,0,0.62-0.071,0.861-0.214c0.241-0.142,0.436-0.335,0.587-0.578
		c0.149-0.243,0.262-0.526,0.333-0.854c0.07-0.324,0.106-0.674,0.106-1.045v-0.173c0-0.36-0.036-0.703-0.106-1.025
		c-0.071-0.321-0.182-0.606-0.333-0.853s-0.346-0.441-0.587-0.582c-0.241-0.142-0.533-0.214-0.877-0.214
		c-0.34,0-0.629,0.072-0.87,0.214c-0.241,0.141-0.438,0.336-0.591,0.582s-0.265,0.53-0.336,0.853
		c-0.07,0.323-0.106,0.666-0.106,1.025L267.518,383.354L267.518,383.354z"/>
	<path d="M277.05,378.825l0.066,1.074c0.169-0.383,0.403-0.686,0.701-0.905c0.298-0.223,0.659-0.333,1.087-0.333
		c0.717,0,1.185,0.315,1.402,0.943c0.176-0.296,0.398-0.525,0.669-0.692c0.271-0.168,0.598-0.251,0.98-0.251
		c0.268,0,0.519,0.049,0.75,0.147s0.435,0.256,0.606,0.473c0.174,0.217,0.307,0.495,0.402,0.835
		c0.096,0.343,0.144,0.761,0.144,1.252v6.333h-2.074v-6.342c0-0.17-0.019-0.309-0.053-0.418c-0.035-0.109-0.083-0.195-0.144-0.258
		c-0.061-0.063-0.13-0.107-0.209-0.131c-0.079-0.025-0.16-0.038-0.243-0.038c-0.158,0-0.292,0.038-0.401,0.111
		c-0.109,0.074-0.194,0.175-0.255,0.3v6.775h-2.01v-6.35c0-0.17-0.017-0.31-0.049-0.418c-0.032-0.109-0.078-0.195-0.136-0.255
		c-0.058-0.061-0.125-0.103-0.201-0.126c-0.076-0.025-0.158-0.038-0.245-0.038c-0.176,0-0.315,0.05-0.423,0.147
		c-0.106,0.099-0.189,0.23-0.249,0.395v6.645h-2.075v-8.875L277.05,378.825L277.05,378.825z"/>
	<path d="M287.131,378.825l0.066,1.074c0.169-0.383,0.403-0.686,0.701-0.905c0.299-0.223,0.659-0.333,1.087-0.333
		c0.717,0,1.185,0.315,1.403,0.943c0.175-0.296,0.398-0.525,0.668-0.692c0.271-0.168,0.598-0.251,0.98-0.251
		c0.268,0,0.519,0.049,0.75,0.147s0.435,0.256,0.607,0.473s0.306,0.495,0.401,0.835c0.097,0.343,0.145,0.761,0.145,1.252v6.333
		h-2.075v-6.342c0-0.17-0.018-0.309-0.053-0.418s-0.083-0.195-0.144-0.258c-0.061-0.063-0.13-0.107-0.209-0.131
		c-0.079-0.025-0.16-0.038-0.242-0.038c-0.159,0-0.293,0.038-0.402,0.111c-0.109,0.074-0.194,0.175-0.255,0.3v6.775h-2.01v-6.35
		c0-0.17-0.017-0.31-0.049-0.418c-0.032-0.109-0.078-0.195-0.136-0.255c-0.058-0.061-0.125-0.103-0.2-0.126
		c-0.077-0.025-0.159-0.038-0.246-0.038c-0.175,0-0.315,0.05-0.423,0.147c-0.106,0.099-0.189,0.23-0.249,0.395v6.645h-2.075v-8.875
		L287.131,378.825L287.131,378.825z"/>
	<path d="M296.401,378.825h4.831v7.021h2.403v1.854h-7.234v-1.854h2.526v-5.159h-2.526V378.825z M298.763,376.553
		c0-0.175,0.031-0.338,0.095-0.488c0.062-0.15,0.151-0.278,0.267-0.384c0.115-0.107,0.253-0.19,0.414-0.251s0.341-0.09,0.538-0.09
		c0.404,0,0.726,0.113,0.964,0.341c0.237,0.226,0.355,0.519,0.355,0.873c0,0.355-0.118,0.647-0.355,0.874
		c-0.238,0.227-0.56,0.34-0.964,0.34c-0.197,0-0.376-0.029-0.538-0.089c-0.162-0.061-0.3-0.143-0.414-0.251
		c-0.115-0.106-0.204-0.234-0.267-0.384C298.796,376.891,298.763,376.728,298.763,376.553z"/>
	<path d="M310.059,376.651v2.175h3.314v1.681h-3.314v3.815c0,0.322,0.037,0.591,0.11,0.809c0.074,0.216,0.179,0.388,0.315,0.516
		c0.137,0.129,0.303,0.221,0.497,0.275c0.194,0.054,0.412,0.081,0.651,0.081c0.175,0,0.354-0.009,0.538-0.024
		c0.184-0.018,0.357-0.038,0.525-0.062c0.166-0.024,0.323-0.052,0.468-0.077c0.146-0.027,0.27-0.056,0.374-0.082l0.221,1.567
		c-0.158,0.092-0.344,0.174-0.558,0.24c-0.213,0.07-0.44,0.126-0.68,0.17c-0.24,0.045-0.491,0.076-0.75,0.104
		c-0.26,0.023-0.517,0.036-0.768,0.036c-0.486,0-0.928-0.065-1.324-0.193c-0.397-0.128-0.735-0.328-1.019-0.598
		c-0.281-0.272-0.499-0.617-0.651-1.033c-0.152-0.42-0.229-0.921-0.229-1.506v-4.036h-2.026v-1.681h2.026v-2.175L310.059,376.651
		L310.059,376.651z"/>
	<path d="M317.376,378.825l0.066,1.074c0.169-0.383,0.403-0.686,0.701-0.905c0.299-0.223,0.659-0.333,1.087-0.333
		c0.716,0,1.184,0.315,1.402,0.943c0.175-0.296,0.398-0.525,0.669-0.692c0.271-0.168,0.598-0.251,0.979-0.251
		c0.269,0,0.519,0.049,0.75,0.147s0.436,0.256,0.608,0.473c0.172,0.217,0.306,0.495,0.401,0.835
		c0.097,0.343,0.144,0.761,0.144,1.252v6.333h-2.074v-6.342c0-0.17-0.018-0.309-0.053-0.418s-0.083-0.195-0.145-0.258
		c-0.06-0.063-0.13-0.107-0.209-0.131c-0.079-0.025-0.159-0.038-0.242-0.038c-0.158,0-0.292,0.038-0.402,0.111
		c-0.108,0.074-0.193,0.175-0.254,0.3v6.775h-2.01v-6.35c0-0.17-0.017-0.31-0.049-0.418c-0.032-0.109-0.078-0.195-0.137-0.255
		c-0.057-0.061-0.124-0.103-0.2-0.126c-0.076-0.025-0.158-0.038-0.245-0.038c-0.176,0-0.316,0.05-0.423,0.147
		c-0.106,0.099-0.189,0.23-0.249,0.395v6.645h-2.075v-8.875L317.376,378.825L317.376,378.825z"/>
	<path d="M330.346,387.865c-0.685,0-1.304-0.113-1.862-0.336c-0.558-0.224-1.037-0.528-1.436-0.916
		c-0.399-0.383-0.706-0.838-0.923-1.361c-0.216-0.521-0.323-1.08-0.323-1.676v-0.328c0-0.678,0.106-1.298,0.32-1.857
		c0.213-0.562,0.511-1.045,0.894-1.449s0.837-0.719,1.362-0.943c0.525-0.223,1.097-0.336,1.715-0.336c0.64,0,1.209,0.105,1.71,0.317
		c0.5,0.21,0.924,0.507,1.271,0.889c0.349,0.383,0.611,0.844,0.792,1.382c0.181,0.539,0.271,1.134,0.271,1.784v0.968h-6.021
		c0.044,0.302,0.132,0.576,0.267,0.825c0.134,0.25,0.305,0.464,0.513,0.645c0.207,0.18,0.446,0.32,0.713,0.419
		c0.269,0.098,0.562,0.147,0.878,0.147c0.224,0,0.447-0.023,0.668-0.065c0.221-0.044,0.434-0.109,0.637-0.193
		c0.201-0.085,0.391-0.19,0.565-0.316c0.176-0.126,0.328-0.273,0.46-0.443l1.14,1.23c-0.143,0.203-0.326,0.4-0.553,0.594
		c-0.227,0.195-0.496,0.367-0.804,0.519c-0.309,0.149-0.651,0.272-1.03,0.365C331.192,387.819,330.782,387.865,330.346,387.865z
		 M330.074,380.507c-0.256,0-0.492,0.046-0.705,0.135c-0.214,0.091-0.4,0.22-0.562,0.39c-0.161,0.169-0.297,0.372-0.406,0.607
		c-0.108,0.235-0.191,0.498-0.246,0.787h3.741v-0.18c-0.012-0.24-0.058-0.468-0.14-0.682c-0.081-0.212-0.2-0.396-0.353-0.553
		c-0.152-0.157-0.341-0.277-0.562-0.37C330.621,380.553,330.364,380.507,330.074,380.507z"/>
	<path d="M338.188,378.825l0.139,1.229c0.316-0.443,0.702-0.787,1.156-1.028c0.454-0.243,0.957-0.366,1.51-0.366
		c0.449,0,0.858,0.066,1.23,0.196c0.372,0.132,0.693,0.34,0.963,0.628c0.271,0.286,0.481,0.656,0.632,1.106
		c0.15,0.452,0.226,1,0.226,1.646v5.463h-2.28v-5.429c0-0.351-0.039-0.639-0.118-0.866c-0.08-0.227-0.193-0.406-0.342-0.538
		c-0.147-0.13-0.325-0.223-0.532-0.274c-0.208-0.051-0.443-0.077-0.706-0.077c-0.389,0-0.719,0.077-0.992,0.234
		c-0.273,0.155-0.495,0.372-0.665,0.644v6.309h-2.288v-8.875L338.188,378.825L338.188,378.825z"/>
	<path d="M350.386,376.651v2.175h3.314v1.681h-3.314v3.815c0,0.322,0.037,0.591,0.11,0.809c0.074,0.216,0.179,0.388,0.315,0.516
		c0.137,0.129,0.303,0.221,0.497,0.275c0.194,0.054,0.412,0.081,0.651,0.081c0.175,0,0.354-0.009,0.538-0.024
		c0.184-0.018,0.357-0.038,0.525-0.062c0.167-0.024,0.323-0.052,0.468-0.077c0.146-0.027,0.27-0.056,0.373-0.082l0.223,1.567
		c-0.159,0.092-0.345,0.174-0.559,0.24c-0.214,0.07-0.439,0.126-0.68,0.17c-0.24,0.045-0.491,0.076-0.75,0.104
		c-0.26,0.023-0.517,0.036-0.768,0.036c-0.486,0-0.928-0.065-1.324-0.193c-0.397-0.128-0.735-0.328-1.018-0.598
		c-0.282-0.272-0.499-0.617-0.651-1.033c-0.153-0.42-0.229-0.921-0.229-1.506v-4.036h-2.026v-1.681h2.026v-2.175L350.386,376.651
		L350.386,376.651z"/>
	<path d="M375.06,377.636h-3.683v10.065h-2.313v-10.065h-3.634v-1.879h9.63V377.636L375.06,377.636z"/>
	<path d="M380.408,380.039l2.125-4.282h2.708l-3.364,5.924l3.445,6.021h-2.69l-2.189-4.348l-2.182,4.348h-2.724l3.444-6.021
		l-3.354-5.924h2.69L380.408,380.039z"/>
</g>
<g>
	<rect x="313.052" y="432.271" fill="none" width="85.149" height="20.25"/>
	<path d="M320.18,441.779h-3.986l-0.961,3.093h-1.518l3.855-11.944h1.272l3.789,11.944h-1.509L320.18,441.779z M316.604,440.459
		h3.175l-1.574-5.184L316.604,440.459z"/>
</g>
<rect x="177.451" y="623.993" fill="#FFFFFF" stroke="#000000" stroke-width="1.2" stroke-miterlimit="10" width="122.4" height="28.8"/>
<rect x="308.251" y="623.993" fill="#FFFFFF" stroke="#000000" stroke-width="1.2" stroke-miterlimit="10" width="156" height="28.8"/>
<g>
	<rect x="177.828" y="604.301" fill="none" width="114.957" height="20.7"/>
	<path d="M206.489,604.957h7.219v1.322h-2.863v9.311h2.863v1.312h-7.219v-1.312h2.797v-9.311h-2.797V604.957z"/>
	<path d="M217.932,608.025l0.107,1.312c0.322-0.46,0.719-0.82,1.189-1.078c0.47-0.261,0.996-0.393,1.574-0.398
		c0.465,0,0.887,0.066,1.268,0.196c0.38,0.132,0.704,0.337,0.972,0.616s0.476,0.632,0.619,1.063
		c0.145,0.428,0.217,0.938,0.217,1.528v5.635h-1.518v-5.603c0-0.394-0.045-0.728-0.131-1.001c-0.086-0.272-0.218-0.494-0.39-0.664
		c-0.173-0.171-0.384-0.293-0.632-0.37c-0.248-0.076-0.534-0.115-0.856-0.115c-0.509,0-0.955,0.128-1.342,0.381
		c-0.385,0.256-0.693,0.59-0.923,1.006v6.365h-1.516v-8.874H217.932z"/>
	<path d="M234.142,612.562c0,0.634-0.077,1.227-0.229,1.775c-0.152,0.551-0.377,1.026-0.673,1.432
		c-0.296,0.404-0.66,0.722-1.096,0.952c-0.436,0.229-0.932,0.343-1.489,0.343c-0.541,0-1.019-0.087-1.432-0.263
		c-0.413-0.174-0.767-0.425-1.062-0.754v4.266h-1.518v-12.287h1.386l0.074,0.968c0.295-0.367,0.651-0.647,1.07-0.842
		c0.419-0.193,0.903-0.29,1.455-0.29c0.569,0,1.072,0.113,1.511,0.336c0.438,0.224,0.804,0.535,1.099,0.936
		c0.295,0.399,0.52,0.875,0.673,1.43c0.152,0.557,0.229,1.164,0.229,1.825L234.142,612.562L234.142,612.562z M232.625,612.389
		c0-0.432-0.048-0.844-0.145-1.234c-0.096-0.391-0.243-0.734-0.442-1.033c-0.2-0.297-0.452-0.534-0.759-0.71
		c-0.306-0.175-0.673-0.263-1.099-0.263c-0.487,0-0.895,0.114-1.227,0.342c-0.331,0.225-0.596,0.518-0.792,0.873v4.274
		c0.196,0.351,0.46,0.636,0.787,0.858c0.328,0.221,0.744,0.331,1.247,0.331c0.421,0,0.784-0.089,1.091-0.267
		c0.306-0.178,0.558-0.418,0.755-0.719s0.344-0.648,0.438-1.042c0.097-0.394,0.145-0.806,0.145-1.237V612.389z"/>
	<path d="M242.493,615.679c-0.296,0.436-0.665,0.776-1.108,1.021c-0.442,0.244-0.954,0.365-1.533,0.365
		c-0.465,0-0.886-0.072-1.264-0.218c-0.377-0.144-0.7-0.37-0.969-0.675s-0.475-0.696-0.619-1.17
		c-0.146-0.473-0.217-1.04-0.217-1.702v-5.274h1.518v5.289c0,0.482,0.039,0.881,0.115,1.198c0.077,0.318,0.192,0.571,0.345,0.759
		c0.152,0.189,0.341,0.322,0.562,0.398c0.221,0.075,0.477,0.115,0.767,0.115c0.618,0,1.117-0.125,1.497-0.377
		c0.381-0.252,0.664-0.591,0.85-1.018v-6.365h1.525v8.874h-1.377L242.493,615.679z"/>
	<path d="M250.409,605.876v2.149h3.379v1.173h-3.379v4.824c0,0.345,0.044,0.628,0.131,0.854c0.086,0.224,0.207,0.403,0.361,0.536
		c0.152,0.134,0.328,0.228,0.528,0.283c0.201,0.055,0.412,0.082,0.637,0.082c0.164,0,0.333-0.011,0.509-0.029
		c0.175-0.02,0.346-0.043,0.513-0.069c0.166-0.028,0.322-0.057,0.468-0.086c0.145-0.03,0.264-0.056,0.355-0.077l0.214,1.074
		c-0.126,0.076-0.278,0.144-0.459,0.202c-0.18,0.056-0.377,0.105-0.591,0.147c-0.214,0.04-0.438,0.071-0.677,0.094
		c-0.237,0.021-0.475,0.031-0.709,0.031c-0.394,0-0.762-0.056-1.103-0.168c-0.342-0.111-0.639-0.29-0.891-0.532
		c-0.251-0.243-0.45-0.558-0.596-0.943c-0.145-0.385-0.217-0.851-0.217-1.398v-4.824h-2.329v-1.173h2.329v-2.149H250.409
		L250.409,605.876z"/>
	<path d="M262.796,614.547c0-0.181-0.037-0.344-0.107-0.489c-0.07-0.144-0.191-0.275-0.361-0.397
		c-0.169-0.12-0.394-0.229-0.673-0.33c-0.278-0.102-0.627-0.193-1.042-0.275c-0.509-0.104-0.972-0.229-1.391-0.376
		s-0.776-0.326-1.075-0.528c-0.299-0.207-0.529-0.447-0.693-0.723c-0.164-0.276-0.246-0.598-0.246-0.965
		c0-0.361,0.085-0.699,0.254-1.014c0.17-0.314,0.407-0.589,0.715-0.824c0.307-0.236,0.672-0.422,1.096-0.559
		c0.423-0.137,0.89-0.205,1.398-0.205c0.548,0,1.039,0.072,1.477,0.214c0.437,0.141,0.809,0.338,1.115,0.59
		c0.308,0.252,0.543,0.546,0.71,0.881c0.167,0.338,0.249,0.7,0.249,1.088h-1.518c0-0.191-0.05-0.379-0.147-0.562
		c-0.099-0.183-0.235-0.346-0.41-0.487c-0.176-0.143-0.387-0.257-0.637-0.345s-0.529-0.132-0.841-0.132
		c-0.323,0-0.606,0.035-0.85,0.107c-0.244,0.072-0.446,0.167-0.607,0.287s-0.283,0.26-0.364,0.419
		c-0.082,0.158-0.124,0.322-0.124,0.491c0,0.176,0.032,0.33,0.099,0.469c0.066,0.137,0.179,0.26,0.34,0.369
		c0.163,0.109,0.378,0.207,0.648,0.295c0.271,0.088,0.614,0.173,1.03,0.255c0.547,0.114,1.036,0.247,1.468,0.398
		c0.433,0.149,0.796,0.33,1.092,0.541c0.295,0.21,0.521,0.455,0.677,0.732c0.155,0.279,0.233,0.602,0.233,0.97
		c0,0.394-0.089,0.752-0.266,1.074c-0.178,0.323-0.425,0.599-0.743,0.828c-0.318,0.229-0.697,0.408-1.141,0.533
		c-0.442,0.125-0.926,0.188-1.452,0.188c-0.601,0-1.137-0.079-1.607-0.241c-0.471-0.161-0.869-0.374-1.194-0.639
		c-0.325-0.267-0.574-0.574-0.746-0.925c-0.171-0.35-0.258-0.713-0.258-1.091h1.518c0.022,0.313,0.105,0.575,0.25,0.788
		c0.145,0.212,0.325,0.385,0.541,0.517s0.455,0.225,0.718,0.278c0.263,0.055,0.521,0.082,0.778,0.082
		c0.64,0,1.146-0.118,1.519-0.353C262.598,615.246,262.791,614.935,262.796,614.547z"/>
</g>
<g>
	<rect x="177.862" y="630.271" fill="none" width="120.318" height="20.7"/>
	<path d="M225.536,639.854c0-0.367-0.082-0.674-0.249-0.926s-0.382-0.465-0.645-0.637s-0.551-0.315-0.865-0.43
		s-0.617-0.22-0.906-0.312c-0.421-0.137-0.85-0.301-1.283-0.492c-0.435-0.189-0.832-0.425-1.189-0.705
		c-0.357-0.279-0.65-0.608-0.877-0.988c-0.228-0.379-0.342-0.826-0.342-1.34c0-0.516,0.114-0.976,0.342-1.379
		c0.227-0.402,0.524-0.746,0.89-1.023c0.366-0.279,0.783-0.491,1.247-0.636c0.465-0.146,0.933-0.219,1.402-0.219
		c0.52,0,1.021,0.087,1.501,0.259c0.482,0.174,0.908,0.415,1.28,0.726c0.371,0.311,0.669,0.688,0.894,1.132s0.342,0.938,0.354,1.483
		h-1.56c-0.045-0.343-0.128-0.657-0.254-0.938c-0.126-0.282-0.293-0.524-0.501-0.727c-0.207-0.201-0.454-0.359-0.743-0.471
		c-0.286-0.112-0.61-0.17-0.972-0.17c-0.29,0-0.573,0.041-0.85,0.124s-0.521,0.205-0.737,0.369c-0.217,0.165-0.39,0.368-0.518,0.607
		c-0.129,0.24-0.193,0.52-0.193,0.836c0.005,0.345,0.094,0.636,0.263,0.876c0.17,0.235,0.384,0.437,0.645,0.603
		c0.261,0.164,0.541,0.301,0.845,0.41c0.304,0.108,0.589,0.205,0.857,0.287c0.295,0.092,0.593,0.197,0.894,0.314
		c0.3,0.119,0.59,0.254,0.87,0.407c0.279,0.153,0.539,0.325,0.778,0.518c0.24,0.191,0.451,0.409,0.632,0.651
		c0.18,0.243,0.321,0.513,0.422,0.805c0.102,0.293,0.151,0.617,0.151,0.973c0,0.535-0.119,1.003-0.356,1.402
		s-0.546,0.731-0.923,0.997c-0.377,0.265-0.804,0.464-1.279,0.598c-0.476,0.135-0.951,0.202-1.427,0.202
		c-0.53,0-1.05-0.082-1.559-0.246s-0.964-0.401-1.366-0.711c-0.401-0.308-0.728-0.686-0.979-1.132
		c-0.251-0.445-0.386-0.952-0.402-1.521h1.551c0.049,0.371,0.149,0.7,0.303,0.988c0.152,0.285,0.351,0.529,0.591,0.729
		c0.241,0.2,0.519,0.35,0.833,0.452c0.314,0.101,0.657,0.151,1.029,0.151c0.295,0,0.587-0.035,0.874-0.111
		c0.287-0.073,0.542-0.188,0.767-0.345c0.225-0.155,0.406-0.352,0.55-0.591C225.466,640.465,225.536,640.182,225.536,639.854z"/>
	<path d="M229.604,633.996h4.536v7.563h2.896v1.313h-7.432v-1.313h3.02v-6.243h-3.02V633.996z M232.427,631.666
		c0-0.252,0.074-0.464,0.226-0.634c0.15-0.175,0.378-0.259,0.686-0.259c0.3,0,0.527,0.084,0.681,0.259
		c0.152,0.171,0.229,0.382,0.229,0.634c0,0.246-0.076,0.453-0.229,0.617c-0.153,0.164-0.381,0.246-0.681,0.246
		c-0.307,0-0.534-0.082-0.686-0.246S232.427,631.912,232.427,631.666z"/>
	<path d="M239.17,638.36c0-0.662,0.08-1.271,0.242-1.825c0.161-0.554,0.395-1.031,0.7-1.431c0.307-0.399,0.679-0.711,1.116-0.934
		c0.438-0.224,0.933-0.337,1.484-0.337c0.548,0,1.026,0.098,1.44,0.291c0.413,0.194,0.765,0.475,1.054,0.84l0.074-0.968h1.378v8.688
		c0,0.583-0.091,1.104-0.275,1.559c-0.184,0.453-0.439,0.839-0.771,1.156c-0.331,0.317-0.726,0.558-1.186,0.724
		c-0.459,0.164-0.969,0.246-1.525,0.246c-0.229,0-0.492-0.026-0.787-0.078c-0.295-0.053-0.595-0.137-0.898-0.255
		s-0.597-0.275-0.877-0.473c-0.281-0.196-0.525-0.439-0.727-0.729l0.787-0.911c0.187,0.225,0.377,0.415,0.575,0.57
		c0.197,0.156,0.397,0.281,0.599,0.375c0.202,0.092,0.404,0.16,0.607,0.199c0.201,0.042,0.404,0.062,0.607,0.062
		c0.361,0,0.687-0.051,0.975-0.155c0.29-0.104,0.538-0.257,0.743-0.456s0.363-0.446,0.472-0.742
		c0.109-0.295,0.165-0.634,0.165-1.018v-0.764c-0.296,0.339-0.645,0.598-1.047,0.775c-0.401,0.178-0.869,0.268-1.399,0.268
		c-0.541,0-1.03-0.114-1.469-0.344c-0.438-0.23-0.808-0.548-1.11-0.952c-0.305-0.404-0.538-0.881-0.701-1.432
		c-0.165-0.549-0.246-1.141-0.246-1.774V638.36z M240.688,638.532c0,0.432,0.045,0.843,0.135,1.229
		c0.09,0.388,0.232,0.73,0.426,1.025s0.442,0.528,0.743,0.701c0.3,0.173,0.661,0.259,1.082,0.259c0.264,0,0.5-0.03,0.709-0.095
		c0.211-0.062,0.4-0.151,0.567-0.267c0.166-0.114,0.314-0.252,0.447-0.41c0.132-0.158,0.246-0.334,0.345-0.526v-4.068
		c-0.099-0.187-0.214-0.355-0.345-0.509s-0.282-0.286-0.451-0.397c-0.169-0.112-0.357-0.2-0.566-0.262
		c-0.208-0.064-0.438-0.096-0.688-0.096c-0.427,0-0.792,0.087-1.096,0.263c-0.304,0.175-0.552,0.411-0.747,0.709
		c-0.194,0.299-0.336,0.644-0.426,1.034s-0.136,0.803-0.136,1.233L240.688,638.532L240.688,638.532z"/>
	<path d="M255.231,639.779h-3.986l-0.96,3.093h-1.518l3.855-11.944h1.272l3.789,11.944h-1.51L255.231,639.779z M251.654,638.459
		h3.176l-1.575-5.184L251.654,638.459z"/>
</g>
<g>
	<rect x="415.419" y="631.472" fill="none" width="43.941" height="20.25"/>
	<path d="M435.856,644.072h-2.305v-9.164l-3.019,1.082v-1.984l5.2-1.878h0.123V644.072z"/>
	<path d="M442.657,642.751c0-0.213,0.036-0.411,0.106-0.594c0.071-0.183,0.176-0.343,0.312-0.475
		c0.138-0.135,0.305-0.241,0.502-0.322c0.195-0.077,0.418-0.118,0.664-0.118s0.468,0.039,0.665,0.118
		c0.196,0.079,0.362,0.187,0.497,0.322c0.135,0.132,0.237,0.292,0.312,0.475c0.075,0.183,0.11,0.381,0.11,0.594
		c0,0.208-0.037,0.402-0.11,0.583c-0.073,0.179-0.177,0.337-0.312,0.471c-0.135,0.135-0.301,0.24-0.497,0.317
		c-0.197,0.076-0.419,0.115-0.665,0.115s-0.469-0.039-0.664-0.115c-0.197-0.077-0.364-0.182-0.502-0.317
		c-0.136-0.133-0.24-0.291-0.312-0.471C442.693,643.152,442.657,642.959,442.657,642.751z"/>
	<path d="M458.21,639.527c0,0.771-0.089,1.451-0.266,2.038c-0.178,0.587-0.434,1.079-0.767,1.477
		c-0.334,0.396-0.741,0.694-1.224,0.897c-0.481,0.203-1.021,0.304-1.624,0.304c-0.597,0-1.136-0.101-1.617-0.304
		c-0.48-0.203-0.891-0.502-1.226-0.897c-0.336-0.397-0.597-0.89-0.779-1.477c-0.184-0.587-0.274-1.269-0.274-2.038v-2.854
		c0-0.772,0.091-1.451,0.271-2.039c0.181-0.587,0.439-1.079,0.776-1.477c0.335-0.396,0.743-0.695,1.222-0.897
		c0.479-0.203,1.017-0.304,1.611-0.304c0.602,0,1.145,0.101,1.626,0.304c0.48,0.202,0.891,0.501,1.226,0.897
		c0.336,0.397,0.596,0.89,0.775,1.477c0.18,0.588,0.271,1.268,0.271,2.039v2.854H458.21z M452.731,638.543l3.182-2.371
		c-0.016-0.805-0.155-1.4-0.418-1.788s-0.656-0.582-1.182-0.582c-0.529,0-0.926,0.205-1.188,0.616
		c-0.264,0.41-0.395,1.041-0.395,1.894V638.543z M455.913,637.723l-3.182,2.362c0.027,0.788,0.173,1.371,0.434,1.751
		c0.263,0.38,0.65,0.57,1.166,0.57c0.536,0,0.934-0.207,1.194-0.623c0.261-0.417,0.39-1.053,0.39-1.911v-2.149H455.913z"/>
</g>
<g>
	<rect x="299.554" y="604.301" fill="none" width="129.592" height="20.7"/>
	<path d="M338.26,611.618c-0.005,0.427-0.042,0.858-0.11,1.291c-0.068,0.437-0.174,0.855-0.315,1.261
		c-0.142,0.404-0.324,0.781-0.546,1.131c-0.223,0.351-0.485,0.656-0.792,0.92c-0.308,0.263-0.657,0.469-1.054,0.62
		c-0.397,0.15-0.842,0.226-1.334,0.226c-0.491,0-0.936-0.074-1.333-0.226c-0.396-0.151-0.747-0.357-1.053-0.62
		c-0.307-0.264-0.571-0.571-0.796-0.923c-0.225-0.354-0.409-0.732-0.554-1.137c-0.144-0.404-0.253-0.823-0.323-1.255
		c-0.071-0.433-0.109-0.861-0.116-1.288v-1.362c0.006-0.425,0.043-0.857,0.111-1.291c0.067-0.435,0.175-0.855,0.32-1.26
		c0.145-0.404,0.327-0.784,0.55-1.136c0.222-0.354,0.484-0.662,0.791-0.927s0.658-0.473,1.054-0.625
		c0.397-0.149,0.842-0.225,1.334-0.225s0.938,0.074,1.336,0.225c0.4,0.151,0.752,0.359,1.06,0.621
		c0.307,0.263,0.569,0.571,0.791,0.923c0.223,0.354,0.405,0.732,0.55,1.137c0.146,0.404,0.251,0.826,0.32,1.263
		c0.07,0.438,0.105,0.871,0.11,1.297L338.26,611.618L338.26,611.618z M336.759,610.24c-0.005-0.285-0.025-0.582-0.058-0.891
		s-0.089-0.614-0.168-0.919c-0.079-0.303-0.185-0.593-0.315-0.871c-0.132-0.274-0.296-0.519-0.492-0.728
		c-0.197-0.211-0.43-0.377-0.697-0.502c-0.268-0.123-0.58-0.184-0.935-0.184c-0.351,0-0.659,0.063-0.927,0.188
		c-0.268,0.124-0.5,0.294-0.697,0.504c-0.196,0.211-0.361,0.455-0.492,0.731c-0.131,0.274-0.236,0.564-0.315,0.869
		c-0.079,0.303-0.137,0.609-0.173,0.919c-0.036,0.309-0.057,0.603-0.062,0.882v1.377c0.005,0.278,0.025,0.575,0.062,0.886
		s0.095,0.62,0.176,0.925c0.082,0.302,0.189,0.593,0.321,0.873c0.132,0.279,0.295,0.524,0.492,0.734
		c0.196,0.21,0.429,0.377,0.697,0.504c0.268,0.125,0.579,0.188,0.935,0.188c0.354,0,0.668-0.064,0.939-0.188
		c0.271-0.125,0.503-0.294,0.697-0.504c0.194-0.211,0.355-0.455,0.483-0.731c0.128-0.274,0.232-0.564,0.312-0.869
		c0.079-0.303,0.134-0.61,0.164-0.924c0.029-0.312,0.048-0.609,0.053-0.893L336.759,610.24L336.759,610.24z"/>
	<path d="M346.332,615.679c-0.295,0.436-0.664,0.776-1.107,1.021s-0.954,0.365-1.533,0.365c-0.465,0-0.886-0.072-1.264-0.218
		c-0.377-0.144-0.7-0.37-0.969-0.675s-0.476-0.696-0.619-1.17c-0.146-0.473-0.217-1.04-0.217-1.702v-5.274h1.518v5.289
		c0,0.482,0.038,0.881,0.115,1.198c0.076,0.318,0.192,0.571,0.345,0.759c0.152,0.189,0.341,0.322,0.561,0.398
		c0.222,0.075,0.478,0.115,0.768,0.115c0.618,0,1.117-0.125,1.497-0.377c0.381-0.252,0.664-0.591,0.85-1.018v-6.365h1.525v8.874
		h-1.377L346.332,615.679z"/>
	<path d="M354.249,605.876v2.149h3.379v1.173h-3.379v4.824c0,0.345,0.044,0.628,0.13,0.854c0.087,0.224,0.208,0.403,0.362,0.536
		c0.152,0.134,0.328,0.228,0.528,0.283c0.201,0.055,0.412,0.082,0.636,0.082c0.165,0,0.334-0.011,0.509-0.029
		c0.176-0.02,0.346-0.043,0.513-0.069c0.167-0.028,0.323-0.057,0.469-0.086c0.145-0.03,0.264-0.056,0.355-0.077l0.214,1.074
		c-0.126,0.076-0.278,0.144-0.46,0.202c-0.18,0.056-0.376,0.105-0.59,0.147c-0.214,0.04-0.439,0.071-0.677,0.094
		c-0.237,0.021-0.476,0.031-0.709,0.031c-0.394,0-0.762-0.056-1.104-0.168c-0.342-0.111-0.638-0.29-0.89-0.532
		c-0.251-0.243-0.45-0.558-0.596-0.943c-0.145-0.385-0.217-0.851-0.217-1.398v-4.824h-2.329v-1.173h2.329v-2.149H354.249
		L354.249,605.876z"/>
	<path d="M368.227,612.562c0,0.634-0.077,1.227-0.229,1.775c-0.152,0.551-0.377,1.026-0.673,1.432
		c-0.297,0.404-0.661,0.722-1.096,0.952c-0.436,0.229-0.932,0.343-1.489,0.343c-0.541,0-1.019-0.087-1.432-0.263
		c-0.413-0.174-0.767-0.425-1.062-0.754v4.266h-1.518v-12.287h1.386l0.075,0.968c0.294-0.367,0.651-0.647,1.069-0.842
		c0.419-0.193,0.903-0.29,1.456-0.29c0.568,0,1.071,0.113,1.51,0.336c0.438,0.224,0.804,0.535,1.099,0.936
		c0.295,0.399,0.521,0.875,0.674,1.43c0.152,0.557,0.229,1.164,0.229,1.825v0.174H368.227z M366.708,612.389
		c0-0.432-0.048-0.844-0.145-1.234c-0.095-0.391-0.243-0.734-0.442-1.033c-0.2-0.297-0.452-0.534-0.759-0.71
		c-0.306-0.175-0.672-0.263-1.099-0.263c-0.487,0-0.895,0.114-1.226,0.342c-0.332,0.225-0.596,0.518-0.793,0.873v4.274
		c0.197,0.351,0.46,0.636,0.787,0.858c0.328,0.221,0.744,0.331,1.247,0.331c0.421,0,0.784-0.089,1.091-0.267
		c0.306-0.178,0.558-0.418,0.755-0.719s0.344-0.648,0.438-1.042c0.097-0.394,0.145-0.806,0.145-1.237V612.389z"/>
	<path d="M376.577,615.679c-0.296,0.436-0.665,0.776-1.107,1.021c-0.443,0.244-0.955,0.365-1.534,0.365
		c-0.464,0-0.886-0.072-1.264-0.218c-0.376-0.144-0.699-0.37-0.968-0.675c-0.27-0.305-0.476-0.696-0.62-1.17
		c-0.145-0.473-0.217-1.04-0.217-1.702v-5.274h1.518v5.289c0,0.482,0.039,0.881,0.116,1.198c0.076,0.318,0.191,0.571,0.344,0.759
		c0.152,0.189,0.341,0.322,0.562,0.398c0.221,0.075,0.477,0.115,0.768,0.115c0.618,0,1.117-0.125,1.497-0.377
		c0.381-0.252,0.663-0.591,0.85-1.018v-6.365h1.525v8.874h-1.378L376.577,615.679z"/>
	<path d="M384.493,605.876v2.149h3.38v1.173h-3.38v4.824c0,0.345,0.045,0.628,0.131,0.854c0.086,0.224,0.208,0.403,0.361,0.536
		c0.152,0.134,0.328,0.228,0.529,0.283c0.2,0.055,0.411,0.082,0.636,0.082c0.164,0,0.334-0.011,0.509-0.029
		c0.175-0.02,0.346-0.043,0.513-0.069c0.167-0.028,0.323-0.057,0.468-0.086c0.146-0.03,0.264-0.056,0.356-0.077l0.214,1.074
		c-0.126,0.076-0.278,0.144-0.46,0.202c-0.18,0.056-0.377,0.105-0.591,0.147c-0.213,0.04-0.438,0.071-0.677,0.094
		c-0.237,0.021-0.475,0.031-0.709,0.031c-0.394,0-0.762-0.056-1.103-0.168c-0.342-0.111-0.639-0.29-0.891-0.532
		c-0.251-0.243-0.45-0.558-0.595-0.943c-0.146-0.385-0.217-0.851-0.217-1.398v-4.824h-2.329v-1.173h2.329v-2.149H384.493
		L384.493,605.876z"/>
	<path d="M396.88,614.547c0-0.181-0.036-0.344-0.106-0.489c-0.071-0.144-0.192-0.275-0.362-0.397
		c-0.168-0.12-0.393-0.229-0.672-0.33c-0.279-0.102-0.627-0.193-1.042-0.275c-0.509-0.104-0.973-0.229-1.392-0.376
		c-0.418-0.147-0.776-0.326-1.075-0.528c-0.299-0.207-0.528-0.447-0.692-0.723c-0.165-0.276-0.246-0.598-0.246-0.965
		c0-0.361,0.085-0.699,0.254-1.014s0.406-0.589,0.714-0.824c0.308-0.236,0.672-0.422,1.096-0.559s0.891-0.205,1.399-0.205
		c0.547,0,1.039,0.072,1.476,0.214c0.438,0.141,0.81,0.338,1.116,0.59s0.543,0.546,0.709,0.881c0.166,0.338,0.25,0.7,0.25,1.088
		h-1.518c0-0.191-0.05-0.379-0.148-0.562c-0.098-0.183-0.235-0.346-0.41-0.487c-0.176-0.143-0.387-0.257-0.636-0.345
		c-0.25-0.088-0.53-0.132-0.842-0.132c-0.322,0-0.605,0.035-0.85,0.107c-0.243,0.072-0.446,0.167-0.606,0.287
		c-0.161,0.12-0.284,0.26-0.365,0.419c-0.082,0.158-0.124,0.322-0.124,0.491c0,0.176,0.033,0.33,0.099,0.469
		c0.066,0.137,0.179,0.26,0.341,0.369s0.377,0.207,0.648,0.295s0.614,0.173,1.029,0.255c0.547,0.114,1.036,0.247,1.469,0.398
		c0.432,0.149,0.796,0.33,1.091,0.541c0.296,0.21,0.521,0.455,0.677,0.732c0.155,0.279,0.234,0.602,0.234,0.97
		c0,0.394-0.089,0.752-0.267,1.074c-0.178,0.323-0.425,0.599-0.742,0.828c-0.318,0.229-0.697,0.408-1.141,0.533
		s-0.927,0.188-1.452,0.188c-0.601,0-1.138-0.079-1.607-0.241c-0.471-0.161-0.869-0.374-1.194-0.639
		c-0.325-0.267-0.575-0.574-0.746-0.925c-0.172-0.35-0.258-0.713-0.258-1.091h1.518c0.021,0.313,0.105,0.575,0.249,0.788
		c0.145,0.212,0.325,0.385,0.542,0.517c0.215,0.132,0.454,0.225,0.717,0.278c0.263,0.055,0.522,0.082,0.779,0.082
		c0.64,0,1.146-0.118,1.518-0.353C396.682,615.246,396.875,614.935,396.88,614.547z"/>
</g>
<g>
	<rect x="168.451" y="574.301" fill="none" width="304.028" height="20.7"/>
	<path d="M278.711,581.954h-5.119v4.946h-2.313v-11.943h8.072v1.879h-5.759v3.248h5.119V581.954L278.711,581.954z"/>
	<path d="M286.955,585.654c-0.3,0.442-0.663,0.789-1.087,1.041s-0.888,0.378-1.392,0.378c-0.459,0-0.88-0.073-1.264-0.215
		c-0.383-0.141-0.71-0.368-0.983-0.675c-0.273-0.31-0.484-0.703-0.636-1.182c-0.15-0.478-0.226-1.055-0.226-1.726v-5.25h2.279v5.267
		c0,0.36,0.025,0.664,0.078,0.91s0.136,0.444,0.25,0.594c0.115,0.151,0.266,0.26,0.451,0.326c0.186,0.065,0.413,0.098,0.68,0.098
		c0.454,0,0.823-0.085,1.107-0.26c0.285-0.171,0.501-0.407,0.648-0.709v-6.225h2.289v8.875h-2.068L286.955,585.654z"/>
	<path d="M293.444,578.025l0.14,1.229c0.316-0.442,0.701-0.786,1.157-1.027c0.453-0.244,0.956-0.367,1.509-0.367
		c0.449,0,0.858,0.067,1.23,0.197c0.372,0.131,0.693,0.34,0.964,0.628c0.271,0.286,0.48,0.656,0.631,1.106
		c0.149,0.452,0.226,1,0.226,1.646v5.463h-2.28v-5.429c0-0.352-0.04-0.639-0.119-0.866c-0.079-0.227-0.193-0.407-0.341-0.538
		c-0.147-0.13-0.325-0.223-0.532-0.274c-0.208-0.052-0.443-0.077-0.706-0.077c-0.389,0-0.719,0.077-0.992,0.234
		c-0.273,0.154-0.496,0.37-0.665,0.644v6.308h-2.288v-8.874L293.444,578.025L293.444,578.025z"/>
	<path d="M301.221,582.397c0-0.673,0.078-1.288,0.233-1.846c0.156-0.558,0.385-1.036,0.686-1.436
		c0.302-0.399,0.666-0.708,1.096-0.926s0.92-0.328,1.473-0.328c0.464,0,0.873,0.083,1.226,0.251c0.354,0.167,0.667,0.402,0.94,0.71
		v-4.521h2.288v12.601h-2.06l-0.114-0.926c-0.279,0.343-0.607,0.612-0.984,0.804c-0.377,0.19-0.814,0.286-1.312,0.286
		c-0.542,0-1.026-0.114-1.456-0.339c-0.43-0.228-0.793-0.54-1.091-0.94c-0.298-0.399-0.525-0.875-0.686-1.424
		c-0.158-0.551-0.237-1.146-0.237-1.791L301.221,582.397L301.221,582.397z M303.502,582.569c0,0.372,0.031,0.718,0.095,1.037
		c0.062,0.32,0.165,0.598,0.307,0.837c0.144,0.236,0.325,0.426,0.55,0.562c0.225,0.137,0.498,0.205,0.821,0.205
		c0.394,0,0.721-0.083,0.98-0.255c0.259-0.17,0.467-0.401,0.619-0.697v-3.592c-0.152-0.302-0.358-0.534-0.616-0.7
		c-0.257-0.169-0.579-0.251-0.968-0.251c-0.323,0-0.598,0.07-0.825,0.209c-0.226,0.141-0.411,0.33-0.553,0.574
		c-0.143,0.243-0.246,0.528-0.312,0.853c-0.066,0.326-0.099,0.675-0.099,1.047V582.569z"/>
	<path d="M312.147,578.025h4.831v7.021h2.404v1.854h-7.235v-1.854h2.526v-5.16h-2.526V578.025z M314.509,575.753
		c0-0.175,0.032-0.338,0.096-0.489c0.062-0.149,0.15-0.277,0.267-0.383c0.114-0.107,0.253-0.191,0.413-0.251
		c0.161-0.06,0.341-0.09,0.538-0.09c0.404,0,0.726,0.113,0.963,0.341c0.238,0.225,0.357,0.518,0.357,0.873s-0.119,0.646-0.357,0.874
		c-0.237,0.227-0.559,0.341-0.963,0.341c-0.197,0-0.376-0.03-0.538-0.09c-0.161-0.06-0.3-0.143-0.413-0.251
		c-0.116-0.105-0.205-0.234-0.267-0.384C314.542,576.09,314.509,575.928,314.509,575.753z"/>
	<path d="M323.689,578.025l0.139,1.229c0.317-0.442,0.702-0.786,1.157-1.027c0.454-0.244,0.957-0.367,1.51-0.367
		c0.449,0,0.857,0.067,1.229,0.197c0.372,0.131,0.694,0.34,0.964,0.628c0.271,0.286,0.481,0.656,0.632,1.106
		c0.149,0.452,0.226,1,0.226,1.646v5.463h-2.281v-5.429c0-0.352-0.039-0.639-0.118-0.866c-0.079-0.227-0.193-0.407-0.341-0.538
		c-0.147-0.13-0.325-0.223-0.532-0.274c-0.208-0.052-0.443-0.077-0.706-0.077c-0.389,0-0.719,0.077-0.992,0.234
		c-0.273,0.154-0.496,0.37-0.665,0.644v6.308h-2.288v-8.874L323.689,578.025L323.689,578.025z"/>
	<path d="M331.474,582.397c0-0.673,0.083-1.288,0.25-1.846s0.405-1.036,0.718-1.436c0.312-0.399,0.688-0.708,1.131-0.926
		s0.943-0.328,1.502-0.328c0.52,0,0.965,0.088,1.336,0.264c0.372,0.175,0.689,0.424,0.952,0.746l0.09-0.845h2.075v8.588
		c0,0.601-0.103,1.138-0.308,1.608c-0.205,0.47-0.492,0.867-0.861,1.188c-0.369,0.322-0.812,0.568-1.329,0.733
		c-0.517,0.168-1.087,0.251-1.709,0.251c-0.269,0-0.555-0.025-0.862-0.081c-0.307-0.056-0.609-0.14-0.91-0.255
		c-0.302-0.115-0.586-0.262-0.854-0.438s-0.498-0.39-0.689-0.636l1.025-1.386c0.29,0.328,0.618,0.577,0.984,0.751
		c0.365,0.172,0.763,0.258,1.188,0.258c0.64,0,1.14-0.171,1.498-0.514c0.357-0.341,0.538-0.824,0.538-1.455v-0.509
		c-0.269,0.296-0.582,0.525-0.94,0.689c-0.358,0.163-0.772,0.246-1.243,0.246c-0.552,0-1.049-0.115-1.489-0.34
		c-0.44-0.228-0.815-0.54-1.128-0.94c-0.312-0.399-0.551-0.875-0.718-1.424c-0.167-0.551-0.249-1.146-0.249-1.791v-0.175H331.474z
		 M333.762,582.569c0,0.372,0.038,0.718,0.111,1.037c0.074,0.32,0.187,0.598,0.34,0.837c0.153,0.236,0.349,0.426,0.583,0.562
		c0.233,0.137,0.513,0.205,0.836,0.205c0.399,0,0.729-0.075,0.989-0.229c0.26-0.153,0.467-0.368,0.619-0.64v-3.758
		c-0.153-0.278-0.36-0.493-0.619-0.645c-0.26-0.149-0.583-0.225-0.973-0.225c-0.322,0-0.601,0.07-0.837,0.209
		c-0.234,0.141-0.431,0.33-0.586,0.574c-0.156,0.243-0.272,0.528-0.35,0.853c-0.076,0.326-0.115,0.675-0.115,1.047L333.762,582.569
		L333.762,582.569z"/>
	<path d="M360.562,576.836h-3.683V586.9h-2.313v-10.064h-3.634v-1.879h9.63V576.836L360.562,576.836z"/>
	<path d="M365.91,579.239l2.125-4.282h2.708l-3.364,5.924l3.445,6.021h-2.69l-2.189-4.348l-2.183,4.348h-2.724l3.445-6.021
		l-3.355-5.924h2.69L365.91,579.239z"/>
</g>
<g>
	<rect x="313.052" y="631.472" fill="none" width="85.149" height="20.25"/>
	<path d="M320.18,640.979h-3.986l-0.961,3.093h-1.518l3.855-11.944h1.272l3.789,11.944h-1.509L320.18,640.979z M316.604,639.658
		h3.175l-1.574-5.183L316.604,639.658z"/>
	<path d="M328.957,637.665h3.339v1.511h-3.339v3.699h-1.518v-3.699h-3.33v-1.511h3.33v-3.485h1.518V637.665z"/>
	<path d="M334.626,644.072v-11.944h3.552c0.492,0.006,0.974,0.07,1.444,0.192c0.471,0.124,0.889,0.314,1.255,0.57
		c0.366,0.257,0.658,0.585,0.877,0.984c0.219,0.4,0.325,0.877,0.32,1.435c-0.004,0.313-0.056,0.597-0.15,0.854
		c-0.096,0.257-0.228,0.487-0.395,0.693c-0.167,0.204-0.362,0.384-0.586,0.537c-0.226,0.153-0.463,0.284-0.715,0.394
		c0.317,0.093,0.608,0.225,0.874,0.398c0.265,0.171,0.493,0.379,0.685,0.623c0.192,0.243,0.342,0.52,0.448,0.825
		c0.107,0.306,0.16,0.638,0.16,0.993c0.004,0.558-0.102,1.05-0.321,1.475c-0.22,0.427-0.511,0.783-0.877,1.072
		c-0.366,0.285-0.788,0.507-1.268,0.66c-0.479,0.153-0.972,0.23-1.48,0.238H334.626z M336.151,637.223h2.117
		c0.284-0.008,0.562-0.051,0.836-0.135c0.273-0.086,0.518-0.209,0.729-0.372c0.214-0.16,0.386-0.358,0.518-0.593
		c0.132-0.235,0.196-0.51,0.196-0.821c0-0.334-0.064-0.618-0.193-0.854c-0.128-0.235-0.3-0.427-0.517-0.576
		c-0.216-0.152-0.465-0.263-0.746-0.333c-0.282-0.07-0.57-0.109-0.865-0.115h-2.075V637.223z M336.151,638.485v4.299h2.338
		c0.316-0.006,0.617-0.059,0.902-0.161c0.284-0.101,0.536-0.241,0.755-0.423c0.218-0.181,0.393-0.401,0.521-0.664
		c0.129-0.263,0.193-0.561,0.193-0.895c0.004-0.339-0.051-0.64-0.168-0.902c-0.118-0.263-0.28-0.485-0.488-0.668
		c-0.208-0.184-0.451-0.325-0.729-0.424s-0.58-0.153-0.902-0.164h-2.421V638.485z"/>
</g>
<g>
	<g>
		
			<line fill="none" stroke="#000000" stroke-width="1.2" stroke-miterlimit="10" x1="168.451" y1="530.393" x2="175.651" y2="530.393"/>
		
			<line fill="none" stroke="#000000" stroke-width="1.2" stroke-miterlimit="10" stroke-dasharray="14.4,14.4" x1="190.052" y1="530.393" x2="656.852" y2="530.393"/>
		
			<line fill="none" stroke="#000000" stroke-width="1.2" stroke-miterlimit="10" x1="664.052" y1="530.393" x2="671.251" y2="530.393"/>
	</g>
</g>
<g>
	<rect x="398.201" y="500.793" fill="none" width="273.586" height="26.099"/>
	<path d="M566.131,508.577c0.076-0.536,0.187-1.087,0.331-1.652c0.146-0.568,0.324-1.128,0.533-1.687
		c0.21-0.558,0.459-1.099,0.743-1.625c0.284-0.525,0.604-1.021,0.96-1.483c0.356-0.464,0.75-0.886,1.186-1.265
		c0.436-0.377,0.912-0.697,1.432-0.96l0.223,1.019c-0.602,0.441-1.124,0.955-1.563,1.537s-0.815,1.203-1.128,1.862
		c-0.312,0.66-0.565,1.348-0.763,2.063c-0.196,0.717-0.351,1.434-0.46,2.149l-0.017,0.123c-0.06,0.394-0.109,0.817-0.147,1.265
		c-0.039,0.447-0.055,0.907-0.05,1.377c0.005,0.471,0.036,0.939,0.091,1.411c0.054,0.472,0.147,0.925,0.278,1.362
		c0.13,0.438,0.306,0.849,0.525,1.234c0.218,0.385,0.492,0.726,0.82,1.021l-0.385,0.919c-0.427-0.301-0.797-0.656-1.11-1.066
		c-0.315-0.41-0.58-0.854-0.796-1.332c-0.217-0.479-0.387-0.979-0.514-1.506c-0.125-0.525-0.214-1.054-0.266-1.588
		c-0.052-0.531-0.07-1.062-0.058-1.586s0.053-1.025,0.118-1.501L566.131,508.577z"/>
	<path d="M582.158,508.102c-0.07,0.423-0.171,0.849-0.3,1.284c-0.128,0.434-0.291,0.855-0.484,1.264
		c-0.193,0.406-0.422,0.791-0.684,1.151c-0.264,0.361-0.562,0.674-0.899,0.936c-0.337,0.262-0.71,0.468-1.125,0.615
		c-0.413,0.147-0.864,0.216-1.356,0.205c-0.471-0.011-0.885-0.1-1.244-0.266c-0.357-0.168-0.665-0.387-0.922-0.661
		c-0.257-0.275-0.469-0.591-0.632-0.952c-0.163-0.36-0.287-0.74-0.369-1.14c-0.083-0.399-0.128-0.808-0.136-1.224
		c-0.008-0.415,0.016-0.818,0.07-1.206l0.213-1.361c0.07-0.421,0.172-0.85,0.301-1.283c0.127-0.435,0.29-0.856,0.482-1.264
		c0.194-0.407,0.424-0.792,0.689-1.153c0.265-0.36,0.566-0.674,0.902-0.939c0.336-0.265,0.71-0.471,1.125-0.619
		c0.413-0.147,0.864-0.215,1.356-0.205c0.475,0.011,0.894,0.1,1.251,0.267s0.665,0.387,0.922,0.661
		c0.257,0.275,0.468,0.59,0.628,0.951c0.161,0.362,0.281,0.743,0.361,1.144c0.079,0.403,0.124,0.814,0.131,1.23
		c0.009,0.42-0.017,0.823-0.07,1.211L582.158,508.102z M580.903,506.715c0.033-0.252,0.059-0.524,0.078-0.82
		c0.02-0.295,0.017-0.592-0.009-0.889c-0.024-0.299-0.074-0.588-0.151-0.87c-0.076-0.282-0.188-0.532-0.34-0.751
		c-0.151-0.221-0.342-0.397-0.575-0.533s-0.519-0.211-0.856-0.222c-0.355-0.011-0.678,0.042-0.964,0.161
		c-0.287,0.117-0.545,0.281-0.772,0.492c-0.226,0.209-0.425,0.453-0.599,0.728c-0.172,0.276-0.321,0.57-0.447,0.879
		c-0.126,0.308-0.229,0.621-0.312,0.938c-0.084,0.316-0.148,0.617-0.197,0.902l-0.229,1.385c-0.033,0.246-0.059,0.519-0.075,0.813
		c-0.017,0.296-0.011,0.595,0.017,0.895c0.028,0.3,0.08,0.592,0.157,0.876c0.076,0.285,0.19,0.538,0.343,0.759
		c0.154,0.224,0.346,0.403,0.579,0.541c0.233,0.141,0.519,0.216,0.856,0.227c0.355,0.011,0.679-0.042,0.969-0.162
		c0.29-0.117,0.547-0.28,0.771-0.491s0.421-0.455,0.591-0.733c0.169-0.278,0.315-0.574,0.439-0.881
		c0.123-0.31,0.226-0.624,0.308-0.94c0.08-0.314,0.147-0.621,0.196-0.91L580.903,506.715z"/>
	<path d="M585.744,513.393l1.337-7.703h-2.379l0.214-1.174h2.363l0.089-0.623c0.072-0.525,0.214-1.002,0.424-1.432
		c0.209-0.429,0.48-0.797,0.812-1.099c0.332-0.305,0.719-0.536,1.165-0.698c0.446-0.161,0.942-0.238,1.489-0.232
		c0.355,0.006,0.704,0.041,1.047,0.106c0.342,0.065,0.686,0.144,1.03,0.229l-0.304,1.246c-0.269-0.093-0.54-0.166-0.817-0.222
		c-0.275-0.055-0.557-0.085-0.84-0.09c-0.356-0.005-0.676,0.041-0.961,0.14c-0.283,0.098-0.532,0.242-0.746,0.43
		c-0.214,0.188-0.386,0.42-0.521,0.688c-0.135,0.273-0.229,0.579-0.284,0.925l-0.09,0.631h3.323l-0.205,1.174h-3.315l-1.336,7.703
		L585.744,513.393L585.744,513.393z"/>
	<path d="M595.611,513.393l1.337-7.703h-2.379l0.215-1.174h2.362l0.091-0.623c0.07-0.525,0.212-1.002,0.422-1.432
		c0.209-0.429,0.481-0.797,0.812-1.099c0.332-0.305,0.72-0.536,1.166-0.698c0.446-0.161,0.941-0.238,1.489-0.232
		c0.355,0.006,0.705,0.041,1.046,0.106c0.342,0.065,0.686,0.144,1.03,0.229l-0.304,1.246c-0.268-0.093-0.54-0.166-0.815-0.222
		c-0.277-0.055-0.559-0.085-0.842-0.09c-0.355-0.005-0.676,0.041-0.96,0.14c-0.284,0.098-0.533,0.242-0.746,0.43
		c-0.215,0.188-0.387,0.42-0.521,0.688c-0.134,0.273-0.228,0.579-0.282,0.925l-0.091,0.631h3.322l-0.205,1.174h-3.313l-1.338,7.703
		L595.611,513.393L595.611,513.393z"/>
	<path d="M610.524,508.791h-6.094l0.222-1.247h6.095L610.524,508.791z"/>
	<path d="M621.205,509.783c-0.108,0.541-0.29,1.047-0.541,1.513c-0.251,0.469-0.565,0.872-0.94,1.211
		c-0.373,0.339-0.804,0.604-1.286,0.791c-0.484,0.189-1.014,0.275-1.588,0.259c-0.47-0.011-0.888-0.095-1.251-0.25
		c-0.363-0.156-0.678-0.364-0.943-0.623c-0.265-0.26-0.482-0.562-0.651-0.907s-0.3-0.711-0.39-1.099
		c-0.091-0.39-0.141-0.789-0.151-1.203c-0.011-0.413,0.011-0.818,0.066-1.219l0.263-1.665c0.07-0.431,0.174-0.864,0.307-1.296
		c0.134-0.432,0.301-0.846,0.501-1.242c0.2-0.397,0.434-0.767,0.7-1.108c0.268-0.341,0.573-0.637,0.914-0.886
		c0.343-0.249,0.723-0.443,1.137-0.58c0.415-0.141,0.872-0.204,1.37-0.193c0.563,0.01,1.053,0.118,1.47,0.324
		c0.415,0.204,0.763,0.479,1.042,0.825c0.277,0.346,0.489,0.746,0.635,1.206c0.146,0.459,0.229,0.951,0.25,1.475h-1.469
		c-0.017-0.326-0.06-0.643-0.131-0.951c-0.07-0.307-0.185-0.578-0.341-0.82s-0.357-0.436-0.607-0.586
		c-0.25-0.151-0.559-0.23-0.931-0.242c-0.36-0.011-0.688,0.041-0.98,0.156s-0.555,0.272-0.788,0.472
		c-0.231,0.2-0.434,0.436-0.606,0.71c-0.173,0.275-0.322,0.562-0.451,0.866c-0.128,0.305-0.234,0.616-0.32,0.934
		c-0.085,0.322-0.151,0.628-0.2,0.925l-0.279,1.688c-0.037,0.259-0.065,0.534-0.08,0.832c-0.018,0.299-0.012,0.596,0.016,0.891
		c0.027,0.296,0.081,0.581,0.16,0.858c0.079,0.275,0.195,0.521,0.349,0.738c0.152,0.215,0.351,0.39,0.591,0.524
		c0.241,0.134,0.533,0.206,0.878,0.218c0.393,0.017,0.744-0.041,1.054-0.173c0.308-0.132,0.58-0.312,0.815-0.542
		c0.235-0.229,0.434-0.5,0.595-0.812c0.162-0.312,0.292-0.644,0.391-0.993L621.205,509.783z"/>
	<path d="M625.734,505.846c0.18-0.219,0.375-0.421,0.586-0.607c0.212-0.186,0.435-0.344,0.674-0.476
		c0.239-0.13,0.49-0.231,0.755-0.308c0.265-0.073,0.546-0.108,0.842-0.103c0.502,0.011,0.923,0.111,1.263,0.304
		s0.607,0.445,0.804,0.764c0.197,0.318,0.328,0.682,0.395,1.095c0.065,0.414,0.073,0.844,0.024,1.292l-0.935,5.586h-1.484
		l0.943-5.611c0.033-0.289,0.033-0.561,0-0.817c-0.033-0.253-0.109-0.478-0.229-0.673c-0.12-0.193-0.285-0.347-0.497-0.459
		c-0.21-0.111-0.476-0.175-0.801-0.185c-0.25-0.006-0.489,0.024-0.717,0.086c-0.227,0.063-0.443,0.153-0.648,0.271
		s-0.399,0.256-0.581,0.414c-0.183,0.159-0.353,0.331-0.505,0.518l-1.124,6.456h-1.484l2.19-12.6h1.484L625.734,505.846z"/>
	<path d="M638.612,513.393c-0.045-0.164-0.065-0.324-0.065-0.484c0-0.158,0.008-0.319,0.024-0.482
		c-0.388,0.345-0.811,0.62-1.267,0.827c-0.456,0.208-0.95,0.308-1.481,0.296c-0.371-0.005-0.723-0.068-1.054-0.189
		c-0.329-0.119-0.617-0.288-0.861-0.508c-0.243-0.22-0.431-0.484-0.565-0.796s-0.19-0.665-0.169-1.059
		c0.022-0.383,0.1-0.722,0.234-1.017c0.135-0.296,0.307-0.555,0.521-0.776c0.213-0.223,0.459-0.41,0.737-0.562
		s0.575-0.277,0.891-0.374c0.313-0.095,0.64-0.164,0.976-0.206c0.335-0.038,0.668-0.061,0.997-0.061l1.689,0.008l0.107-0.705
		c0.031-0.278,0.012-0.525-0.062-0.738c-0.072-0.212-0.186-0.393-0.341-0.54c-0.153-0.148-0.34-0.261-0.562-0.337
		c-0.22-0.077-0.466-0.117-0.734-0.124c-0.234-0.006-0.467,0.021-0.692,0.075c-0.228,0.054-0.435,0.14-0.625,0.254
		c-0.189,0.115-0.352,0.262-0.488,0.439c-0.136,0.176-0.232,0.39-0.286,0.634l-1.484,0.011c0.049-0.448,0.194-0.838,0.435-1.169
		s0.536-0.607,0.89-0.825c0.354-0.22,0.739-0.382,1.161-0.487c0.421-0.108,0.833-0.157,1.237-0.152
		c0.449,0.012,0.867,0.082,1.256,0.213c0.389,0.133,0.721,0.324,0.998,0.579c0.275,0.253,0.483,0.564,0.627,0.929
		c0.143,0.366,0.188,0.788,0.139,1.265l-0.688,4.125c-0.05,0.302-0.074,0.602-0.077,0.902c-0.005,0.302,0.03,0.599,0.102,0.895
		l-0.018,0.14h-1.5V513.393z M636.11,512.244c0.526,0.011,1.014-0.107,1.47-0.357c0.453-0.248,0.833-0.581,1.139-0.996l0.321-1.805
		l-1.272-0.008c-0.3,0-0.622,0.02-0.964,0.057c-0.341,0.038-0.663,0.117-0.963,0.238c-0.3,0.119-0.558,0.291-0.772,0.517
		c-0.213,0.226-0.341,0.521-0.384,0.886c-0.028,0.233-0.011,0.443,0.049,0.624c0.06,0.182,0.156,0.333,0.286,0.454
		c0.131,0.126,0.29,0.22,0.476,0.284S635.887,512.238,636.11,512.244z"/>
	<path d="M644.502,504.518h4.413l-1.312,7.563h2.814l-0.238,1.312h-7.219l0.238-1.312h2.92l1.083-6.242h-2.929L644.502,504.518z
		 M647.646,502.212c0.004-0.263,0.09-0.479,0.254-0.651c0.164-0.174,0.376-0.266,0.64-0.274c0.13-0.006,0.25,0.013,0.356,0.058
		c0.106,0.044,0.2,0.103,0.277,0.18c0.079,0.076,0.14,0.169,0.181,0.278c0.041,0.108,0.062,0.229,0.062,0.36
		c0,0.264-0.081,0.477-0.246,0.636c-0.164,0.161-0.377,0.248-0.639,0.259c-0.258,0.011-0.471-0.062-0.637-0.217
		C647.728,502.683,647.646,502.475,647.646,502.212z"/>
	<path d="M655.453,504.509l-0.188,1.321c0.181-0.22,0.377-0.422,0.591-0.606c0.213-0.187,0.44-0.345,0.681-0.476
		c0.24-0.132,0.496-0.23,0.763-0.299c0.268-0.069,0.55-0.102,0.845-0.096c0.498,0.011,0.916,0.109,1.256,0.296
		s0.607,0.434,0.807,0.741c0.201,0.31,0.334,0.67,0.402,1.08c0.069,0.408,0.078,0.839,0.029,1.286l-0.943,5.636h-1.484l0.943-5.611
		c0.032-0.301,0.033-0.58,0.003-0.836c-0.029-0.257-0.103-0.482-0.222-0.673c-0.119-0.192-0.283-0.344-0.496-0.457
		c-0.214-0.111-0.484-0.171-0.813-0.175c-0.257-0.005-0.502,0.024-0.733,0.094c-0.233,0.069-0.45,0.164-0.652,0.288
		c-0.201,0.122-0.393,0.27-0.57,0.442c-0.177,0.172-0.34,0.357-0.487,0.554l-1.107,6.374h-1.485l1.543-8.875L655.453,504.509z"/>
	<path d="M668.66,508.594c-0.076,0.537-0.188,1.088-0.331,1.652c-0.146,0.567-0.324,1.127-0.533,1.683
		c-0.21,0.555-0.459,1.096-0.743,1.624c-0.285,0.527-0.606,1.023-0.964,1.484c-0.357,0.463-0.754,0.883-1.189,1.263
		c-0.435,0.381-0.911,0.698-1.432,0.956l-0.229-0.943c0.607-0.441,1.13-0.958,1.57-1.544c0.44-0.589,0.816-1.219,1.129-1.887
		c0.312-0.672,0.565-1.368,0.763-2.089c0.196-0.721,0.351-1.441,0.459-2.157l0.018-0.124c0.054-0.388,0.101-0.807,0.139-1.255
		c0.038-0.449,0.054-0.908,0.049-1.377c-0.005-0.47-0.036-0.943-0.094-1.421c-0.059-0.476-0.152-0.933-0.283-1.373
		c-0.132-0.44-0.305-0.854-0.521-1.235c-0.216-0.381-0.484-0.722-0.808-1.017l0.377-0.919c0.432,0.3,0.807,0.656,1.124,1.066
		c0.319,0.41,0.584,0.854,0.801,1.333c0.217,0.478,0.387,0.979,0.513,1.505c0.126,0.525,0.215,1.055,0.267,1.591
		s0.07,1.067,0.058,1.591c-0.014,0.525-0.053,1.025-0.119,1.501L668.66,508.594z"/>
</g>
<g>
	<rect x="398.201" y="544.994" fill="none" width="273.586" height="52.199"/>
	<path d="M602.085,552.492c-0.071,0.443-0.176,0.884-0.312,1.322c-0.137,0.437-0.311,0.853-0.521,1.246
		c-0.21,0.395-0.456,0.76-0.738,1.095c-0.281,0.337-0.601,0.626-0.955,0.866c-0.355,0.24-0.747,0.426-1.173,0.558
		c-0.428,0.132-0.893,0.192-1.395,0.18c-0.477-0.011-0.899-0.091-1.269-0.24c-0.368-0.15-0.688-0.353-0.96-0.608
		c-0.271-0.254-0.493-0.55-0.668-0.885c-0.176-0.336-0.308-0.697-0.401-1.083s-0.147-0.786-0.165-1.202
		c-0.017-0.415,0.002-0.826,0.059-1.237l0.271-1.738c0.065-0.438,0.165-0.875,0.3-1.31c0.135-0.434,0.3-0.85,0.5-1.242
		c0.201-0.395,0.437-0.761,0.709-1.1c0.274-0.339,0.583-0.631,0.928-0.874c0.344-0.244,0.727-0.433,1.148-0.566
		c0.42-0.135,0.88-0.195,1.377-0.185c0.481,0.012,0.909,0.091,1.284,0.238c0.374,0.148,0.702,0.349,0.984,0.603
		c0.281,0.255,0.516,0.55,0.7,0.885c0.185,0.337,0.328,0.697,0.431,1.083c0.102,0.386,0.163,0.789,0.185,1.209
		c0.021,0.424,0.005,0.841-0.049,1.257L602.085,552.492z M600.074,550.736c0.028-0.201,0.049-0.424,0.066-0.663
		c0.017-0.241,0.018-0.482,0.004-0.727c-0.015-0.243-0.048-0.48-0.103-0.71c-0.054-0.23-0.139-0.434-0.254-0.614
		c-0.116-0.182-0.266-0.328-0.451-0.442c-0.187-0.116-0.42-0.179-0.697-0.19c-0.3-0.011-0.567,0.033-0.796,0.127
		c-0.229,0.095-0.431,0.229-0.603,0.403c-0.172,0.172-0.322,0.372-0.447,0.599c-0.127,0.225-0.23,0.466-0.315,0.718
		c-0.085,0.251-0.155,0.507-0.21,0.767c-0.054,0.261-0.098,0.508-0.13,0.743l-0.271,1.763c-0.027,0.192-0.051,0.405-0.069,0.64
		c-0.02,0.235-0.028,0.476-0.025,0.723c0.002,0.248,0.025,0.486,0.07,0.723c0.044,0.235,0.117,0.446,0.221,0.633
		c0.104,0.184,0.245,0.336,0.424,0.454c0.177,0.117,0.405,0.181,0.684,0.192c0.296,0.012,0.562-0.03,0.796-0.127
		c0.235-0.096,0.444-0.227,0.628-0.398c0.184-0.168,0.344-0.367,0.479-0.598c0.138-0.229,0.255-0.472,0.35-0.725
		c0.096-0.254,0.175-0.514,0.234-0.776c0.06-0.261,0.108-0.511,0.147-0.745L600.074,550.736z"/>
	<path d="M606.571,548.712l-0.148,1.247c0.351-0.426,0.755-0.771,1.211-1.029s0.972-0.385,1.547-0.375
		c0.514,0.012,0.938,0.119,1.275,0.322c0.336,0.201,0.6,0.47,0.792,0.804c0.192,0.332,0.316,0.713,0.376,1.135
		c0.061,0.423,0.066,0.863,0.018,1.317l-0.91,5.463h-2.225l0.902-5.438c0.028-0.258,0.029-0.492,0.004-0.702
		s-0.086-0.393-0.18-0.545c-0.096-0.153-0.233-0.274-0.411-0.36c-0.177-0.088-0.405-0.135-0.685-0.141
		c-0.367-0.005-0.695,0.071-0.984,0.226c-0.289,0.155-0.552,0.37-0.787,0.644l-1.107,6.316h-2.231l1.542-8.876L606.571,548.712z"/>
	<path d="M621.402,553.247h-6.637l0.321-1.845h6.645L621.402,553.247z"/>
	<path d="M631.304,553.847c-0.082,0.602-0.257,1.146-0.525,1.632s-0.608,0.902-1.019,1.246c-0.41,0.345-0.88,0.609-1.411,0.791
		c-0.53,0.184-1.097,0.269-1.697,0.251c-0.488-0.012-0.919-0.09-1.297-0.241c-0.376-0.151-0.704-0.353-0.98-0.608
		c-0.275-0.254-0.504-0.552-0.685-0.893c-0.182-0.343-0.319-0.709-0.415-1.1c-0.094-0.392-0.149-0.799-0.164-1.224
		c-0.014-0.423,0.008-0.846,0.062-1.267l0.237-1.607c0.067-0.443,0.169-0.886,0.308-1.329c0.14-0.443,0.313-0.865,0.521-1.264
		c0.207-0.399,0.452-0.771,0.733-1.111c0.282-0.342,0.6-0.637,0.956-0.883c0.355-0.246,0.748-0.438,1.177-0.575
		c0.43-0.135,0.896-0.199,1.399-0.187c0.611,0.011,1.146,0.118,1.6,0.323c0.453,0.205,0.829,0.485,1.128,0.842
		c0.299,0.354,0.524,0.774,0.677,1.263c0.152,0.486,0.237,1.021,0.254,1.599l-2.229-0.007c0-0.291-0.021-0.563-0.062-0.82
		c-0.04-0.259-0.119-0.481-0.236-0.674c-0.119-0.192-0.28-0.347-0.489-0.464c-0.208-0.118-0.476-0.182-0.804-0.192
		c-0.312-0.012-0.588,0.033-0.828,0.135c-0.239,0.102-0.453,0.236-0.636,0.41c-0.184,0.172-0.342,0.375-0.476,0.61
		c-0.135,0.235-0.247,0.483-0.341,0.743s-0.169,0.523-0.229,0.792c-0.062,0.268-0.106,0.525-0.14,0.771l-0.229,1.631
		c-0.027,0.203-0.052,0.426-0.074,0.673c-0.023,0.247-0.031,0.496-0.029,0.748c0.003,0.25,0.026,0.496,0.07,0.738
		c0.044,0.24,0.12,0.454,0.229,0.643c0.109,0.189,0.257,0.342,0.443,0.46s0.424,0.182,0.714,0.193
		c0.328,0.017,0.621-0.026,0.877-0.126c0.257-0.1,0.479-0.235,0.665-0.417s0.34-0.398,0.459-0.652
		c0.121-0.255,0.211-0.534,0.272-0.841L631.304,553.847z"/>
	<path d="M636.079,549.959c0.322-0.416,0.698-0.755,1.127-1.018c0.43-0.263,0.919-0.392,1.464-0.387
		c0.526,0.006,0.964,0.112,1.317,0.322c0.353,0.207,0.628,0.481,0.827,0.824c0.199,0.342,0.331,0.73,0.394,1.169
		c0.062,0.438,0.069,0.889,0.021,1.354l-0.895,5.372h-2.231l0.911-5.397c0.027-0.246,0.029-0.474,0.003-0.685
		c-0.024-0.21-0.085-0.396-0.184-0.558s-0.235-0.288-0.411-0.381c-0.175-0.093-0.396-0.145-0.665-0.156
		c-0.36-0.012-0.688,0.053-0.98,0.188c-0.292,0.138-0.565,0.328-0.815,0.576l-1.131,6.414h-2.225l2.19-12.6h2.223L636.079,549.959z"
		/>
	<path d="M647.948,557.595c-0.044-0.142-0.068-0.279-0.078-0.414c-0.008-0.136-0.01-0.272-0.004-0.413
		c-0.344,0.322-0.721,0.569-1.127,0.74c-0.406,0.172-0.852,0.256-1.334,0.25c-0.371-0.005-0.725-0.069-1.062-0.191
		c-0.336-0.123-0.629-0.295-0.878-0.518c-0.248-0.222-0.441-0.491-0.577-0.808c-0.138-0.317-0.197-0.673-0.181-1.066
		s0.092-0.742,0.227-1.043c0.133-0.3,0.311-0.562,0.528-0.788c0.219-0.224,0.471-0.41,0.755-0.561
		c0.284-0.151,0.588-0.273,0.91-0.365c0.323-0.094,0.656-0.16,0.997-0.196c0.343-0.039,0.68-0.06,1.014-0.06l1.278,0.018
		l0.107-0.549c0.032-0.213,0.025-0.405-0.021-0.575c-0.047-0.17-0.126-0.314-0.237-0.431c-0.111-0.117-0.254-0.209-0.422-0.271
		c-0.17-0.062-0.362-0.098-0.576-0.102c-0.382-0.012-0.701,0.074-0.959,0.258s-0.425,0.465-0.501,0.841l-2.223,0.017
		c0.031-0.491,0.172-0.919,0.418-1.275c0.246-0.355,0.555-0.652,0.926-0.886c0.373-0.231,0.784-0.401,1.235-0.509
		c0.451-0.106,0.898-0.156,1.342-0.15c0.464,0.01,0.904,0.084,1.32,0.221s0.776,0.334,1.08,0.595
		c0.303,0.261,0.531,0.581,0.688,0.964c0.156,0.383,0.209,0.829,0.159,1.338l-0.616,3.814c-0.049,0.323-0.085,0.652-0.11,0.987
		c-0.023,0.337,0.021,0.665,0.137,0.979l-0.009,0.148L647.948,557.595L647.948,557.595z M645.988,556.003
		c0.389,0.012,0.753-0.067,1.096-0.236c0.341-0.17,0.635-0.403,0.881-0.698l0.279-1.532l-1.009-0.009
		c-0.246,0-0.496,0.024-0.747,0.073c-0.251,0.05-0.483,0.129-0.697,0.241c-0.213,0.113-0.394,0.262-0.541,0.448
		c-0.147,0.185-0.241,0.421-0.279,0.705c-0.021,0.169-0.011,0.316,0.033,0.443c0.044,0.124,0.111,0.229,0.205,0.312
		c0.094,0.083,0.206,0.145,0.341,0.188C645.684,555.982,645.829,556.003,645.988,556.003z"/>
	<path d="M654.461,548.719h4.7l-1.223,7.021h2.337l-0.327,1.854h-7.029l0.32-1.854h2.453l0.895-5.158h-2.453L654.461,548.719z
		 M657.145,546.487c0-0.185,0.032-0.354,0.099-0.509c0.065-0.152,0.156-0.285,0.273-0.396c0.119-0.111,0.255-0.201,0.41-0.264
		c0.157-0.062,0.325-0.094,0.506-0.094c0.174-0.005,0.338,0.02,0.49,0.073s0.287,0.134,0.402,0.237
		c0.116,0.104,0.207,0.229,0.275,0.376s0.102,0.312,0.102,0.492c0,0.187-0.032,0.356-0.098,0.509
		c-0.066,0.154-0.156,0.285-0.271,0.398s-0.25,0.199-0.411,0.264c-0.159,0.062-0.327,0.092-0.509,0.092
		c-0.174,0.008-0.34-0.019-0.492-0.072c-0.152-0.055-0.285-0.135-0.401-0.239c-0.115-0.103-0.206-0.229-0.274-0.376
		S657.145,546.668,657.145,546.487z"/>
	<path d="M665.733,548.712l-0.148,1.247c0.351-0.426,0.754-0.771,1.21-1.029s0.972-0.385,1.547-0.375
		c0.513,0.012,0.939,0.119,1.274,0.322c0.337,0.201,0.601,0.47,0.793,0.804c0.191,0.332,0.316,0.713,0.377,1.135
		c0.06,0.423,0.065,0.863,0.017,1.317l-0.911,5.463h-2.224l0.902-5.438c0.028-0.258,0.029-0.492,0.003-0.702
		c-0.024-0.21-0.084-0.393-0.179-0.545c-0.097-0.153-0.233-0.274-0.41-0.36c-0.179-0.088-0.405-0.135-0.686-0.141
		c-0.366-0.005-0.695,0.071-0.984,0.226c-0.29,0.155-0.552,0.37-0.786,0.644l-1.109,6.316h-2.229l1.542-8.876L665.733,548.712z"/>
</g>
<line fill="none" stroke="#000000" stroke-width="1.2" stroke-miterlimit="10" x1="182.852" y1="212.393" x2="460.052" y2="212.393"/>
<circle fill="#FFFFFF" stroke="#000000" stroke-width="2.4786" stroke-miterlimit="10" cx="167.931" cy="212.094" r="13.942"/>
<circle fill="#FFFFFF" stroke="#000000" stroke-width="2.4786" stroke-miterlimit="10" cx="474.035" cy="212.094" r="13.942"/>
<g>
	<g>
		
			<line fill="none" stroke="#000000" stroke-width="1.2" stroke-miterlimit="10" x1="167.852" y1="232.193" x2="167.852" y2="236.993"/>
		
			<line fill="none" stroke="#000000" stroke-width="1.2" stroke-miterlimit="10" stroke-dasharray="8.4,8.4" x1="167.852" y1="245.393" x2="167.852" y2="359.393"/>
		
			<line fill="none" stroke="#000000" stroke-width="1.2" stroke-miterlimit="10" x1="167.852" y1="362.993" x2="167.852" y2="367.793"/>
	</g>
</g>
<g>
	<g>
		
			<line fill="none" stroke="#000000" stroke-width="1.2" stroke-miterlimit="10" x1="472.651" y1="232.193" x2="472.651" y2="236.993"/>
		
			<line fill="none" stroke="#000000" stroke-width="1.2" stroke-miterlimit="10" stroke-dasharray="8.4,8.4" x1="472.651" y1="245.393" x2="472.651" y2="359.393"/>
		
			<line fill="none" stroke="#000000" stroke-width="1.2" stroke-miterlimit="10" x1="472.651" y1="362.993" x2="472.651" y2="367.793"/>
	</g>
</g>
<rect x="469.651" y="624.593" fill="#FFFFFF" width="6" height="28.8"/>
<g>
	<g>
		<path fill="none" stroke="#B4B4B4" stroke-width="2.4" stroke-miterlimit="10" d="M475.651,640.193h10.2
			c3.3,0,5.399-3.301,5.399-6.601v-78c0-3.3-2.1-5.399-5.399-5.399h-338.4c-3.3,0-6.6-3.301-6.6-6.601v-97.2
			c0-3.3,3.3-5.399,6.6-5.399h29.4"/>
		<g>
			<polygon fill="#B4B4B4" points="463.651,639.593 480.366,646.423 476.4,639.593 480.366,632.765 			"/>
		</g>
	</g>
</g>
<g>
	<rect x="146.48" y="172.468" fill="none" width="43.94" height="20.25"/>
	<path d="M162.262,180.523c0,0.771-0.089,1.45-0.267,2.039c-0.177,0.586-0.434,1.078-0.767,1.476
		c-0.333,0.396-0.742,0.695-1.223,0.897c-0.481,0.203-1.022,0.304-1.625,0.304c-0.597,0-1.135-0.101-1.616-0.304
		c-0.481-0.202-0.891-0.501-1.227-0.897c-0.336-0.397-0.596-0.89-0.779-1.476c-0.183-0.589-0.274-1.269-0.274-2.039v-2.854
		c0-0.772,0.09-1.451,0.271-2.039c0.18-0.587,0.439-1.079,0.775-1.477c0.336-0.396,0.744-0.694,1.223-0.897s1.017-0.304,1.611-0.304
		c0.602,0,1.144,0.101,1.625,0.304s0.891,0.502,1.227,0.897c0.336,0.397,0.595,0.89,0.775,1.477c0.18,0.588,0.271,1.269,0.271,2.039
		L162.262,180.523L162.262,180.523z M156.781,179.539l3.183-2.371c-0.017-0.804-0.156-1.4-0.419-1.787
		c-0.263-0.389-0.656-0.583-1.181-0.583c-0.53,0-0.927,0.205-1.189,0.616c-0.263,0.41-0.394,1.041-0.394,1.895V179.539z
		 M159.965,178.719l-3.183,2.363c0.027,0.786,0.173,1.371,0.435,1.75c0.263,0.381,0.65,0.571,1.165,0.571
		c0.537,0,0.935-0.208,1.194-0.624s0.391-1.053,0.391-1.911v-2.149H159.965z"/>
	<path d="M166.872,183.746c0-0.213,0.036-0.411,0.106-0.594c0.071-0.184,0.176-0.342,0.312-0.476s0.304-0.24,0.501-0.321
		c0.196-0.078,0.418-0.118,0.664-0.118s0.468,0.039,0.665,0.118c0.197,0.08,0.362,0.187,0.497,0.321
		c0.134,0.134,0.237,0.292,0.312,0.476c0.074,0.183,0.11,0.381,0.11,0.594c0,0.208-0.037,0.402-0.11,0.582
		c-0.073,0.181-0.178,0.338-0.312,0.472c-0.135,0.135-0.3,0.24-0.497,0.317c-0.197,0.076-0.419,0.115-0.665,0.115
		s-0.468-0.039-0.664-0.115c-0.197-0.077-0.364-0.182-0.501-0.317c-0.137-0.133-0.241-0.29-0.312-0.472
		C166.908,184.147,166.872,183.954,166.872,183.746z"/>
	<path d="M182.449,174.395l-4.651,10.673h-2.403l4.659-10.081h-5.996v-1.862h8.392V174.395z"/>
</g>
<g>
	<rect x="452.065" y="172.468" fill="none" width="43.94" height="20.25"/>
	<path d="M467.847,180.523c0,0.771-0.089,1.45-0.266,2.039c-0.179,0.586-0.434,1.078-0.768,1.476
		c-0.333,0.396-0.742,0.695-1.223,0.897c-0.481,0.203-1.023,0.304-1.625,0.304c-0.597,0-1.135-0.101-1.616-0.304
		c-0.481-0.202-0.891-0.501-1.228-0.897c-0.335-0.397-0.595-0.89-0.777-1.476c-0.185-0.589-0.275-1.269-0.275-2.039v-2.854
		c0-0.772,0.09-1.451,0.271-2.039c0.18-0.587,0.439-1.079,0.774-1.477c0.337-0.396,0.744-0.694,1.224-0.897
		c0.479-0.203,1.016-0.304,1.611-0.304c0.602,0,1.144,0.101,1.625,0.304c0.48,0.203,0.89,0.502,1.227,0.897
		c0.336,0.397,0.595,0.89,0.775,1.477c0.18,0.588,0.271,1.269,0.271,2.039L467.847,180.523L467.847,180.523z M462.366,179.539
		l3.183-2.371c-0.017-0.804-0.156-1.4-0.419-1.787c-0.264-0.389-0.657-0.583-1.181-0.583c-0.531,0-0.927,0.205-1.189,0.616
		c-0.263,0.41-0.394,1.041-0.394,1.895V179.539z M465.55,178.719l-3.183,2.363c0.028,0.786,0.173,1.371,0.435,1.75
		c0.263,0.381,0.65,0.571,1.165,0.571c0.536,0,0.934-0.208,1.194-0.624c0.26-0.416,0.39-1.053,0.39-1.911L465.55,178.719
		L465.55,178.719z"/>
	<path d="M472.456,183.746c0-0.213,0.036-0.411,0.106-0.594c0.071-0.184,0.176-0.342,0.312-0.476
		c0.137-0.134,0.305-0.24,0.502-0.321c0.195-0.078,0.418-0.118,0.664-0.118s0.468,0.039,0.664,0.118
		c0.197,0.08,0.362,0.187,0.497,0.321c0.135,0.134,0.238,0.292,0.312,0.476c0.075,0.183,0.11,0.381,0.11,0.594
		c0,0.208-0.036,0.402-0.11,0.582c-0.072,0.181-0.177,0.338-0.312,0.472c-0.135,0.135-0.3,0.24-0.497,0.317
		c-0.196,0.076-0.418,0.115-0.664,0.115s-0.469-0.039-0.664-0.115c-0.197-0.077-0.365-0.182-0.502-0.317
		c-0.136-0.133-0.24-0.29-0.312-0.472C472.492,184.147,472.456,183.954,472.456,183.746z"/>
	<path d="M482.53,178.095h1.237c0.625,0,1.087-0.157,1.387-0.472c0.3-0.315,0.451-0.727,0.451-1.234c0-0.236-0.034-0.45-0.103-0.645
		c-0.067-0.193-0.171-0.361-0.307-0.5c-0.137-0.141-0.311-0.248-0.521-0.325c-0.21-0.076-0.455-0.115-0.733-0.115
		c-0.229,0-0.444,0.033-0.645,0.099c-0.2,0.066-0.375,0.161-0.526,0.282c-0.15,0.125-0.27,0.273-0.356,0.448
		c-0.085,0.173-0.13,0.371-0.13,0.59h-2.28c0-0.486,0.1-0.929,0.3-1.328c0.2-0.4,0.476-0.743,0.825-1.028
		c0.351-0.289,0.762-0.512,1.233-0.67c0.474-0.158,0.983-0.237,1.531-0.237c0.59,0,1.131,0.073,1.624,0.218
		c0.492,0.145,0.914,0.361,1.265,0.646c0.35,0.289,0.622,0.644,0.815,1.067c0.194,0.425,0.292,0.916,0.292,1.474
		c0,0.257-0.039,0.51-0.116,0.758c-0.076,0.25-0.188,0.486-0.335,0.711c-0.148,0.225-0.332,0.431-0.55,0.619
		c-0.22,0.189-0.472,0.352-0.755,0.488c0.333,0.121,0.622,0.273,0.865,0.46c0.242,0.186,0.443,0.396,0.602,0.636
		c0.158,0.236,0.277,0.498,0.354,0.782c0.077,0.284,0.114,0.584,0.114,0.902c0,0.559-0.106,1.056-0.319,1.493
		c-0.214,0.437-0.506,0.805-0.878,1.104c-0.372,0.298-0.813,0.526-1.324,0.68c-0.511,0.157-1.062,0.234-1.652,0.234
		c-0.509,0-1.005-0.071-1.489-0.209c-0.484-0.141-0.914-0.351-1.293-0.633c-0.376-0.28-0.679-0.635-0.906-1.062
		c-0.226-0.428-0.341-0.93-0.341-1.51h2.28c0,0.229,0.045,0.441,0.132,0.635c0.087,0.194,0.212,0.361,0.372,0.502
		c0.161,0.138,0.352,0.248,0.57,0.327c0.219,0.078,0.46,0.118,0.723,0.118c0.58,0,1.033-0.153,1.361-0.459
		c0.33-0.306,0.492-0.723,0.492-1.247c0-0.322-0.047-0.599-0.139-0.828c-0.093-0.229-0.228-0.419-0.406-0.566
		c-0.178-0.147-0.391-0.257-0.64-0.327c-0.248-0.071-0.528-0.106-0.841-0.106h-1.238v-1.771H482.53z"/>
</g>
<g>
	<rect x="103.697" y="149.48" fill="none" width="128.467" height="37.485"/>
	<path d="M149.076,159.918h-3.702l-0.729,2.575h-2.508l4.04-12.334h2.161l3.964,12.334h-2.508L149.076,159.918z M145.958,157.893
		h2.56l-1.263-4.541L145.958,157.893z"/>
	<path d="M153.999,149.48h5.125v11.098h2.625v1.915h-7.752v-1.915h2.746v-9.176h-2.746v-1.922H153.999z"/>
	<path d="M164.546,153.326h4.989v7.252h2.481v1.915h-7.473v-1.915h2.609v-5.328h-2.609v-1.924H164.546z M166.984,150.979
		c0-0.181,0.033-0.349,0.098-0.504c0.065-0.155,0.156-0.288,0.274-0.398c0.119-0.11,0.261-0.196,0.428-0.258
		c0.167-0.062,0.352-0.094,0.555-0.094c0.417,0,0.75,0.117,0.995,0.352c0.246,0.234,0.369,0.535,0.369,0.902
		s-0.124,0.668-0.369,0.902s-0.577,0.352-0.995,0.352c-0.203,0-0.389-0.031-0.555-0.094c-0.167-0.062-0.31-0.148-0.428-0.258
		c-0.118-0.11-0.209-0.242-0.274-0.398C167.018,151.328,166.984,151.161,166.984,150.979z"/>
	<path d="M178.387,160.781c0.232,0,0.452-0.034,0.662-0.101c0.208-0.068,0.393-0.165,0.551-0.288
		c0.157-0.125,0.28-0.274,0.368-0.449s0.125-0.37,0.114-0.584h2.22c0.011,0.475-0.086,0.915-0.293,1.322
		c-0.206,0.406-0.487,0.757-0.842,1.05c-0.357,0.294-0.771,0.524-1.242,0.689c-0.472,0.166-0.97,0.25-1.495,0.25
		c-0.712,0-1.336-0.12-1.872-0.359c-0.536-0.24-0.984-0.569-1.344-0.987c-0.358-0.418-0.63-0.908-0.812-1.47
		c-0.184-0.562-0.275-1.165-0.275-1.809v-0.253c0-0.645,0.091-1.247,0.271-1.809s0.451-1.051,0.813-1.47
		c0.361-0.418,0.809-0.749,1.343-0.991c0.534-0.244,1.153-0.364,1.859-0.364c0.564,0,1.088,0.083,1.567,0.254
		c0.48,0.169,0.895,0.408,1.242,0.715c0.348,0.309,0.617,0.681,0.809,1.118c0.192,0.438,0.282,0.928,0.271,1.471h-2.22
		c0.011-0.226-0.023-0.44-0.103-0.644s-0.194-0.378-0.347-0.525c-0.152-0.146-0.336-0.264-0.551-0.352
		c-0.214-0.088-0.448-0.131-0.703-0.131c-0.373,0-0.68,0.075-0.924,0.228s-0.437,0.356-0.581,0.609
		c-0.144,0.255-0.246,0.547-0.305,0.874s-0.089,0.666-0.089,1.017v0.253c0,0.356,0.027,0.7,0.086,1.029
		c0.056,0.33,0.155,0.622,0.3,0.873c0.144,0.251,0.338,0.453,0.584,0.605C177.697,160.705,178.009,160.781,178.387,160.781z"/>
	<path d="M189.188,162.663c-0.706,0-1.348-0.117-1.923-0.349c-0.576-0.231-1.071-0.546-1.482-0.944
		c-0.413-0.398-0.729-0.866-0.953-1.406c-0.224-0.539-0.335-1.117-0.335-1.732v-0.339c0-0.699,0.11-1.341,0.33-1.919
		s0.528-1.076,0.924-1.495c0.396-0.417,0.864-0.742,1.406-0.975c0.543-0.231,1.134-0.348,1.771-0.348
		c0.661,0,1.251,0.109,1.767,0.325c0.517,0.218,0.954,0.524,1.312,0.919c0.358,0.396,0.631,0.871,0.817,1.427
		c0.186,0.558,0.279,1.171,0.279,1.844v0.999h-6.218c0.045,0.312,0.137,0.596,0.274,0.851c0.139,0.257,0.314,0.479,0.529,0.665
		c0.215,0.187,0.461,0.33,0.737,0.433c0.275,0.101,0.578,0.152,0.905,0.152c0.231,0,0.463-0.023,0.69-0.069
		c0.229-0.045,0.447-0.111,0.656-0.199c0.209-0.087,0.403-0.196,0.584-0.326c0.181-0.129,0.339-0.281,0.475-0.457l1.177,1.271
		c-0.147,0.208-0.337,0.413-0.572,0.613c-0.235,0.201-0.511,0.379-0.83,0.535c-0.319,0.155-0.674,0.28-1.063,0.376
		C190.062,162.614,189.642,162.663,189.188,162.663z M188.909,155.063c-0.266,0-0.508,0.047-0.729,0.14
		c-0.221,0.094-0.414,0.228-0.581,0.402c-0.167,0.176-0.306,0.384-0.419,0.627c-0.112,0.243-0.198,0.513-0.254,0.812h3.863v-0.186
		c-0.012-0.248-0.06-0.482-0.145-0.703c-0.084-0.221-0.206-0.41-0.365-0.572c-0.158-0.162-0.352-0.288-0.579-0.381
		C189.473,155.111,189.209,155.063,188.909,155.063z"/>
</g>
<g>
	<rect x="410.218" y="149.48" fill="none" width="128.468" height="37.485"/>
	<path d="M459.927,162.493v-12.334h4.142c0.673,0,1.284,0.066,1.835,0.202c0.55,0.136,1.022,0.342,1.41,0.618
		c0.389,0.275,0.69,0.626,0.902,1.05s0.318,0.924,0.318,1.5c-0.006,0.576-0.16,1.093-0.463,1.551
		c-0.302,0.457-0.747,0.804-1.333,1.041c0.354,0.092,0.663,0.226,0.923,0.407s0.477,0.395,0.648,0.64
		c0.174,0.245,0.3,0.514,0.381,0.804c0.081,0.292,0.123,0.592,0.123,0.902c0,0.593-0.102,1.116-0.305,1.567s-0.494,0.83-0.872,1.135
		c-0.378,0.306-0.839,0.534-1.38,0.687c-0.543,0.152-1.152,0.229-1.83,0.229h-4.5V162.493z M462.315,155.334h1.771
		c0.661-0.006,1.169-0.144,1.525-0.415c0.354-0.271,0.536-0.67,0.542-1.194c0-0.576-0.178-0.989-0.534-1.241
		c-0.355-0.251-0.869-0.38-1.542-0.386h-1.763V155.334z M462.315,157.054v3.516h2.119c0.648-0.006,1.145-0.165,1.485-0.479
		c0.343-0.313,0.514-0.725,0.514-1.232c0.006-0.563-0.147-1.005-0.457-1.321c-0.311-0.316-0.791-0.478-1.44-0.482L462.315,157.054
		L462.315,157.054z"/>
	<path d="M470.118,157.824c0-0.666,0.096-1.283,0.288-1.851s0.474-1.06,0.843-1.479c0.37-0.418,0.821-0.745,1.355-0.982
		c0.534-0.238,1.145-0.355,1.834-0.355c0.688,0,1.302,0.119,1.839,0.355c0.535,0.237,0.989,0.564,1.359,0.982
		c0.369,0.419,0.65,0.911,0.844,1.479c0.19,0.567,0.287,1.185,0.287,1.851v0.178c0,0.672-0.097,1.292-0.287,1.86
		c-0.192,0.567-0.473,1.059-0.839,1.478c-0.368,0.418-0.819,0.744-1.355,0.979c-0.536,0.233-1.146,0.352-1.83,0.352
		c-0.689,0-1.303-0.118-1.844-0.352c-0.537-0.234-0.993-0.561-1.363-0.979c-0.369-0.419-0.65-0.911-0.843-1.478
		c-0.192-0.568-0.288-1.188-0.288-1.86V157.824z M472.474,158.003c0,0.384,0.036,0.744,0.111,1.08
		c0.072,0.336,0.188,0.63,0.347,0.881c0.158,0.251,0.363,0.45,0.614,0.598c0.25,0.147,0.554,0.221,0.91,0.221
		c0.345,0,0.641-0.073,0.89-0.221c0.248-0.146,0.45-0.346,0.605-0.598c0.156-0.252,0.27-0.545,0.344-0.881
		c0.073-0.336,0.11-0.696,0.11-1.08v-0.178c0-0.373-0.037-0.725-0.11-1.059c-0.074-0.332-0.188-0.626-0.344-0.88
		c-0.154-0.254-0.357-0.454-0.605-0.602c-0.249-0.147-0.551-0.221-0.906-0.221c-0.351,0-0.65,0.073-0.898,0.221
		c-0.249,0.147-0.451,0.348-0.609,0.602c-0.159,0.254-0.274,0.548-0.347,0.88c-0.075,0.334-0.111,0.687-0.111,1.059V158.003z"/>
	<path d="M489.111,158.003c0,0.683-0.073,1.311-0.225,1.881c-0.15,0.569-0.375,1.062-0.674,1.475
		c-0.3,0.411-0.672,0.731-1.118,0.961c-0.446,0.228-0.966,0.344-1.559,0.344c-0.537,0-1.001-0.1-1.394-0.301
		c-0.393-0.2-0.729-0.48-1.013-0.844l-0.111,0.975h-2.117V149.48h2.355v4.677c0.271-0.317,0.592-0.562,0.961-0.737
		c0.37-0.175,0.803-0.263,1.3-0.263c0.599,0,1.124,0.116,1.572,0.348c0.45,0.232,0.823,0.554,1.123,0.967s0.524,0.904,0.674,1.478
		c0.149,0.574,0.225,1.199,0.225,1.876V158.003L489.111,158.003z M486.756,157.824c0-0.373-0.028-0.725-0.084-1.059
		c-0.057-0.332-0.153-0.625-0.292-0.876c-0.14-0.251-0.327-0.45-0.564-0.598c-0.238-0.146-0.533-0.221-0.89-0.221
		c-0.429,0-0.777,0.092-1.046,0.271c-0.27,0.181-0.477,0.43-0.623,0.745v3.651c0.146,0.316,0.354,0.565,0.623,0.745
		c0.268,0.182,0.623,0.271,1.063,0.271c0.354,0,0.649-0.069,0.88-0.208c0.232-0.138,0.417-0.33,0.556-0.576
		c0.137-0.246,0.234-0.536,0.292-0.873c0.057-0.336,0.084-0.701,0.084-1.097L486.756,157.824L486.756,157.824z"/>
</g>
<g>
	<rect x="299.48" y="188.028" fill="none" width="43.94" height="20.25"/>
	<path d="M315.262,196.084c0,0.771-0.089,1.451-0.267,2.038c-0.177,0.588-0.434,1.079-0.767,1.477
		c-0.333,0.396-0.741,0.694-1.223,0.897s-1.022,0.304-1.625,0.304c-0.597,0-1.135-0.101-1.616-0.304s-0.891-0.502-1.227-0.897
		c-0.336-0.397-0.596-0.889-0.779-1.477c-0.183-0.587-0.274-1.269-0.274-2.038v-2.855c0-0.771,0.09-1.45,0.271-2.038
		c0.181-0.587,0.439-1.079,0.775-1.477c0.336-0.396,0.744-0.694,1.223-0.897c0.479-0.202,1.017-0.304,1.611-0.304
		c0.602,0,1.144,0.102,1.625,0.304c0.481,0.203,0.891,0.502,1.227,0.897c0.336,0.397,0.595,0.89,0.775,1.477
		c0.18,0.588,0.271,1.269,0.271,2.038L315.262,196.084L315.262,196.084z M309.781,195.1l3.183-2.371
		c-0.017-0.804-0.156-1.4-0.419-1.788s-0.656-0.582-1.181-0.582c-0.53,0-0.926,0.205-1.189,0.615
		c-0.263,0.411-0.394,1.042-0.394,1.896V195.1z M312.965,194.278l-3.183,2.363c0.027,0.787,0.173,1.372,0.435,1.751
		c0.263,0.38,0.65,0.571,1.165,0.571c0.537,0,0.935-0.208,1.194-0.624c0.26-0.417,0.391-1.053,0.391-1.912v-2.149H312.965z"/>
	<path d="M319.872,199.309c0-0.214,0.036-0.412,0.106-0.595c0.071-0.183,0.176-0.342,0.312-0.475
		c0.137-0.135,0.304-0.241,0.501-0.322c0.196-0.077,0.418-0.118,0.664-0.118s0.468,0.039,0.665,0.118
		c0.196,0.079,0.362,0.187,0.496,0.322c0.135,0.133,0.238,0.292,0.312,0.475s0.11,0.381,0.11,0.595c0,0.207-0.037,0.401-0.11,0.582
		c-0.073,0.18-0.178,0.337-0.312,0.472c-0.134,0.134-0.3,0.239-0.496,0.316c-0.197,0.076-0.419,0.115-0.665,0.115
		s-0.468-0.039-0.664-0.115c-0.197-0.077-0.364-0.182-0.501-0.316c-0.137-0.134-0.241-0.291-0.312-0.472
		C319.908,199.709,319.872,199.516,319.872,199.309z"/>
	<path d="M329.945,193.656h1.238c0.624,0,1.086-0.157,1.386-0.472c0.3-0.315,0.451-0.726,0.451-1.235
		c0-0.234-0.033-0.449-0.102-0.645c-0.068-0.192-0.172-0.36-0.308-0.499c-0.137-0.14-0.311-0.248-0.521-0.324
		c-0.21-0.077-0.455-0.115-0.734-0.115c-0.229,0-0.444,0.032-0.645,0.098c-0.201,0.066-0.374,0.161-0.525,0.282
		c-0.15,0.125-0.271,0.273-0.356,0.447c-0.087,0.175-0.131,0.372-0.131,0.591h-2.28c0-0.486,0.1-0.929,0.3-1.329
		c0.201-0.398,0.476-0.742,0.825-1.028c0.35-0.287,0.762-0.511,1.234-0.669s0.982-0.237,1.529-0.237
		c0.591,0,1.133,0.073,1.625,0.218s0.914,0.361,1.264,0.647c0.351,0.287,0.623,0.644,0.816,1.066
		c0.194,0.425,0.291,0.916,0.291,1.474c0,0.257-0.038,0.51-0.114,0.759c-0.077,0.249-0.188,0.485-0.337,0.71
		c-0.147,0.225-0.331,0.431-0.549,0.619c-0.219,0.189-0.471,0.352-0.755,0.488c0.333,0.121,0.623,0.273,0.865,0.46
		c0.242,0.186,0.443,0.397,0.603,0.636c0.158,0.236,0.275,0.498,0.353,0.783c0.077,0.284,0.115,0.584,0.115,0.902
		c0,0.558-0.107,1.056-0.32,1.492c-0.214,0.437-0.506,0.806-0.877,1.104c-0.372,0.297-0.814,0.524-1.325,0.679
		c-0.512,0.157-1.062,0.234-1.652,0.234c-0.509,0-1.005-0.071-1.489-0.209c-0.483-0.141-0.915-0.351-1.293-0.633
		c-0.376-0.28-0.679-0.635-0.905-1.062c-0.227-0.428-0.341-0.929-0.341-1.51h2.279c0,0.229,0.045,0.441,0.132,0.635
		c0.087,0.194,0.212,0.361,0.373,0.502c0.16,0.138,0.352,0.248,0.57,0.327c0.218,0.078,0.459,0.119,0.722,0.119
		c0.58,0,1.033-0.153,1.362-0.46c0.328-0.306,0.492-0.722,0.492-1.246c0-0.323-0.047-0.6-0.14-0.828
		c-0.093-0.229-0.228-0.419-0.405-0.566c-0.178-0.148-0.392-0.257-0.64-0.328c-0.249-0.07-0.529-0.106-0.841-0.106h-1.239v-1.771
		H329.945z"/>
</g>
<g>
	<g>
		
			<line fill="none" stroke="#E15218" stroke-width="2.4786" stroke-miterlimit="10" x1="181.651" y1="211.793" x2="447.802" y2="211.793"/>
		<g>
			<polygon fill="#E15218" points="460.052,211.793 442.79,218.847 446.886,211.793 442.79,204.742 			"/>
		</g>
	</g>
</g>
</svg>
