<?xml version="1.0" encoding="utf-8"?>
<!-- Generator: Adobe Illustrator 16.0.4, SVG Export Plug-In . SVG Version: 6.00 Build 0)  -->
<!DOCTYPE svg PUBLIC "-//W3C//DTD SVG 1.1//EN" "http://www.w3.org/Graphics/SVG/1.1/DTD/svg11.dtd">
<svg version="1.1" id="Layer_1" xmlns="http://www.w3.org/2000/svg" xmlns:xlink="http://www.w3.org/1999/xlink" x="0px" y="0px"
	 width="1366px" height="768px" viewBox="0 0 1366 768" enable-background="new 0 0 1366 768" xml:space="preserve">
<rect x="-1" y="1" fill="#FFFFFF" width="1366" height="768"/>
<g>
	<rect x="58.121" y="224.906" fill="none" width="259.859" height="465.169"/>
	<path fill="#E15218" d="M64.835,235.562h-2.288v5.844h-3.019v-15.641h5.242c0.866,0,1.65,0.102,2.353,0.306
		c0.702,0.204,1.301,0.503,1.799,0.897c0.498,0.394,0.881,0.885,1.149,1.472c0.269,0.587,0.403,1.268,0.403,2.041
		c0,0.559-0.066,1.062-0.199,1.509c-0.133,0.448-0.322,0.849-0.569,1.203s-0.544,0.665-0.892,0.929
		c-0.348,0.265-0.736,0.494-1.166,0.688l3.362,6.456v0.14h-3.233L64.835,235.562z M62.547,233.113h2.234
		c0.852,0,1.509-0.216,1.971-0.65c0.462-0.433,0.693-1.026,0.693-1.778c0-0.78-0.226-1.387-0.677-1.821
		c-0.451-0.433-1.117-0.65-1.998-0.65h-2.224V233.113z"/>
	<path fill="#E15218" d="M80.852,237.324c0-0.279-0.048-0.541-0.145-0.784c-0.097-0.243-0.262-0.471-0.494-0.682
		c-0.233-0.211-0.537-0.404-0.913-0.58c-0.376-0.175-0.843-0.338-1.402-0.489c-0.681-0.186-1.331-0.419-1.95-0.698
		c-0.62-0.279-1.166-0.616-1.638-1.01c-0.473-0.394-0.851-0.852-1.133-1.375c-0.283-0.522-0.424-1.124-0.424-1.805
		c0-0.659,0.14-1.257,0.419-1.794s0.666-0.995,1.16-1.375c0.494-0.379,1.078-0.671,1.751-0.875c0.673-0.204,1.403-0.306,2.191-0.306
		c0.816,0,1.563,0.118,2.24,0.354s1.258,0.568,1.746,0.994c0.487,0.426,0.866,0.933,1.139,1.52c0.272,0.587,0.408,1.232,0.408,1.934
		h-2.943c-0.015-0.351-0.077-0.673-0.188-0.967c-0.111-0.293-0.276-0.546-0.494-0.757c-0.219-0.211-0.491-0.376-0.816-0.494
		c-0.326-0.118-0.708-0.177-1.144-0.177c-0.401,0-0.757,0.048-1.069,0.145s-0.575,0.233-0.79,0.408
		c-0.215,0.176-0.378,0.383-0.489,0.623c-0.111,0.24-0.167,0.5-0.167,0.779c0,0.294,0.073,0.559,0.22,0.795
		c0.146,0.236,0.36,0.45,0.639,0.639c0.279,0.19,0.618,0.364,1.015,0.521c0.397,0.158,0.847,0.305,1.348,0.44
		c0.716,0.208,1.375,0.462,1.977,0.763s1.119,0.657,1.552,1.069c0.433,0.412,0.77,0.881,1.01,1.407
		c0.24,0.526,0.36,1.112,0.36,1.756c0,0.688-0.138,1.298-0.414,1.832c-0.276,0.534-0.657,0.985-1.144,1.354
		c-0.487,0.369-1.067,0.648-1.74,0.838c-0.673,0.189-1.407,0.285-2.202,0.285c-0.494,0-0.987-0.045-1.477-0.134
		c-0.491-0.089-0.96-0.227-1.407-0.414c-0.448-0.186-0.865-0.419-1.251-0.698s-0.722-0.605-1.004-0.978
		c-0.283-0.372-0.505-0.795-0.666-1.268s-0.242-0.995-0.242-1.568h2.965c0.014,0.473,0.097,0.877,0.247,1.214
		c0.15,0.337,0.36,0.612,0.628,0.827s0.591,0.373,0.967,0.473c0.376,0.101,0.79,0.15,1.241,0.15c0.401,0,0.757-0.046,1.069-0.14
		c0.312-0.093,0.575-0.222,0.79-0.387c0.215-0.165,0.379-0.363,0.494-0.596C80.794,237.859,80.852,237.603,80.852,237.324z"/>
	<path fill="#E15218" d="M89.639,225.765l1.482,5.876l1.687-5.876h3.749v15.641h-2.771v-4.63l0.129-7.315l-2.052,6.789h-1.493
		l-1.837-6.499l0.129,7.025v4.63H85.89v-15.641H89.639z"/>
	<path fill="#E15218" d="M109.995,236.507c-0.05,0.788-0.22,1.497-0.51,2.127c-0.29,0.63-0.679,1.167-1.166,1.611
		c-0.487,0.444-1.067,0.786-1.74,1.026c-0.673,0.24-1.418,0.36-2.234,0.36c-0.924,0-1.744-0.17-2.46-0.51
		c-0.716-0.34-1.318-0.816-1.805-1.429c-0.487-0.612-0.859-1.348-1.117-2.208s-0.387-1.805-0.387-2.836v-2.105
		c0-1.038,0.136-1.987,0.408-2.847c0.272-0.859,0.659-1.597,1.16-2.213c0.501-0.616,1.108-1.094,1.821-1.434
		c0.712-0.34,1.513-0.51,2.401-0.51c0.859,0,1.624,0.122,2.293,0.365c0.669,0.244,1.241,0.591,1.713,1.042s0.845,1.003,1.117,1.654
		c0.272,0.652,0.444,1.386,0.516,2.202h-3.008c-0.029-0.465-0.099-0.874-0.209-1.225c-0.111-0.351-0.272-0.643-0.483-0.875
		c-0.211-0.232-0.477-0.408-0.795-0.526c-0.319-0.118-0.7-0.177-1.144-0.177c-0.466,0-0.87,0.101-1.214,0.301
		c-0.344,0.201-0.628,0.494-0.854,0.881s-0.392,0.861-0.5,1.423c-0.107,0.562-0.161,1.202-0.161,1.917v2.127
		c0,1.54,0.216,2.679,0.65,3.416c0.433,0.738,1.119,1.106,2.057,1.106c0.788,0,1.411-0.209,1.869-0.628
		c0.458-0.419,0.712-1.097,0.763-2.036H109.995z"/>
	<path fill="#E15218" d="M133.23,238.14h-4.694l-0.924,3.266h-3.18l5.124-15.641h2.739l5.027,15.641h-3.18L133.23,238.14z
		 M129.277,235.573h3.244l-1.601-5.758L129.277,235.573z"/>
	<path opacity="0.5" d="M70.324,275.794c0,0.924-0.118,1.81-0.354,2.659s-0.589,1.597-1.058,2.245
		c-0.469,0.648-1.057,1.164-1.762,1.547c-0.706,0.383-1.531,0.575-2.476,0.575c-0.938,0-1.755-0.193-2.449-0.58
		c-0.695-0.387-1.273-0.904-1.735-1.552c-0.462-0.648-0.81-1.395-1.042-2.24c-0.233-0.845-0.349-1.729-0.349-2.653v-1.998
		c0-0.616,0.052-1.217,0.156-1.805c0.104-0.587,0.258-1.14,0.462-1.66c0.204-0.519,0.458-0.999,0.763-1.439
		c0.304-0.44,0.662-0.818,1.074-1.133c0.412-0.315,0.877-0.562,1.396-0.741c0.519-0.179,1.09-0.269,1.713-0.269
		c0.945,0,1.771,0.193,2.476,0.58c0.705,0.387,1.294,0.904,1.767,1.552c0.473,0.648,0.827,1.398,1.063,2.25
		c0.236,0.853,0.354,1.74,0.354,2.664V275.794z M67.735,273.775c-0.007-0.587-0.061-1.171-0.161-1.751
		c-0.101-0.58-0.269-1.097-0.505-1.552c-0.236-0.455-0.55-0.823-0.94-1.106c-0.391-0.283-0.879-0.424-1.466-0.424
		c-0.58,0-1.062,0.142-1.445,0.424c-0.383,0.283-0.688,0.654-0.913,1.112c-0.226,0.458-0.383,0.976-0.473,1.552
		c-0.09,0.577-0.138,1.159-0.145,1.746v2.02c0.007,0.587,0.057,1.169,0.15,1.746c0.093,0.577,0.252,1.096,0.478,1.558
		s0.53,0.836,0.913,1.123c0.383,0.287,0.865,0.43,1.445,0.43c0.587,0,1.076-0.143,1.466-0.43c0.39-0.286,0.704-0.659,0.94-1.117
		c0.236-0.458,0.403-0.978,0.5-1.558s0.148-1.164,0.156-1.751V273.775z"/>
	<path opacity="0.5" d="M75.695,276.611v5.994h-2.578v-15.641h5.231c0.78,0.007,1.502,0.124,2.165,0.349
		c0.662,0.226,1.233,0.548,1.713,0.967c0.479,0.419,0.854,0.928,1.123,1.525c0.269,0.598,0.403,1.273,0.403,2.025
		c0,0.73-0.134,1.39-0.403,1.977c-0.269,0.587-0.643,1.089-1.123,1.504c-0.48,0.416-1.051,0.734-1.713,0.956
		c-0.663,0.222-1.384,0.337-2.165,0.344H75.695z M75.695,274.527h2.653c0.437,0,0.827-0.066,1.171-0.199
		c0.344-0.132,0.637-0.317,0.881-0.553c0.243-0.236,0.43-0.519,0.559-0.849c0.129-0.329,0.193-0.688,0.193-1.074
		c0-0.408-0.064-0.784-0.193-1.128s-0.315-0.639-0.559-0.886c-0.244-0.247-0.537-0.438-0.881-0.575
		c-0.344-0.136-0.734-0.208-1.171-0.215h-2.653V274.527z"/>
	<path opacity="0.5" d="M95.998,284.625h-9.861v-2.02h9.861V284.625z"/>
	<path opacity="0.5" d="M99.672,266.964h9.303v2.138h-3.384v11.376h3.384v2.127h-9.303v-2.127h3.309v-11.376h-3.309V266.964z"/>
	<path opacity="0.5" d="M121.897,275.945h-6.563v6.66h-2.6v-15.641h10.13v2.127h-7.53v4.737h6.563V275.945z"/>
	<path opacity="0.5" d="M100.821,307.809h-2.084v17.456h2.084v2.009h-4.587v-21.484h4.587V307.809z"/>
	<path opacity="0.5" d="M109.404,317.81v5.994h-2.578v-15.641h5.231c0.78,0.007,1.502,0.124,2.165,0.349
		c0.662,0.226,1.233,0.548,1.713,0.967c0.479,0.419,0.854,0.928,1.123,1.525c0.269,0.598,0.403,1.273,0.403,2.025
		c0,0.73-0.134,1.39-0.403,1.977c-0.269,0.587-0.643,1.089-1.123,1.504c-0.48,0.416-1.051,0.734-1.713,0.956
		c-0.663,0.222-1.384,0.337-2.165,0.344H109.404z M109.404,315.726h2.653c0.437,0,0.827-0.066,1.171-0.199
		c0.344-0.132,0.637-0.317,0.881-0.553c0.243-0.236,0.43-0.519,0.559-0.849c0.129-0.329,0.193-0.688,0.193-1.074
		c0-0.408-0.064-0.784-0.193-1.128s-0.315-0.639-0.559-0.886c-0.244-0.247-0.537-0.438-0.881-0.575
		c-0.344-0.136-0.734-0.208-1.171-0.215h-2.653V315.726z"/>
	<path opacity="0.5" d="M127.354,322.214c-0.394,0.573-0.872,1.019-1.434,1.337c-0.562,0.318-1.191,0.478-1.885,0.478
		c-0.602,0-1.151-0.093-1.649-0.279c-0.498-0.186-0.924-0.481-1.278-0.886c-0.354-0.404-0.63-0.92-0.827-1.547
		c-0.197-0.626-0.295-1.38-0.295-2.261v-6.875h2.567v6.896c0,0.559,0.041,1.021,0.124,1.386c0.082,0.365,0.209,0.655,0.381,0.87
		s0.387,0.367,0.645,0.457c0.258,0.09,0.565,0.134,0.924,0.134c0.688,0,1.242-0.134,1.665-0.403c0.422-0.269,0.741-0.632,0.956-1.09
		v-8.25h2.578v11.623h-2.32L127.354,322.214z"/>
	<path opacity="0.5" d="M143.317,318.121c0,0.859-0.099,1.649-0.295,2.369c-0.197,0.72-0.489,1.341-0.875,1.864
		c-0.387,0.523-0.863,0.931-1.429,1.225c-0.566,0.293-1.218,0.44-1.955,0.44c-0.709,0-1.323-0.125-1.842-0.376
		c-0.52-0.25-0.965-0.612-1.337-1.085l-0.118,1.246h-2.331v-16.5h2.567v5.983c0.365-0.422,0.795-0.748,1.289-0.978
		c0.494-0.229,1.078-0.344,1.751-0.344c0.745,0,1.402,0.145,1.971,0.435s1.047,0.697,1.434,1.219
		c0.387,0.523,0.678,1.148,0.875,1.875c0.197,0.727,0.295,1.527,0.295,2.401V318.121z M140.75,317.896
		c0-0.516-0.045-1.004-0.134-1.466c-0.09-0.462-0.236-0.868-0.44-1.219c-0.204-0.351-0.478-0.628-0.822-0.833
		s-0.767-0.306-1.268-0.306c-0.609,0-1.106,0.14-1.493,0.419s-0.684,0.645-0.892,1.096v4.802c0.208,0.451,0.506,0.82,0.897,1.106
		c0.39,0.287,0.893,0.43,1.509,0.43c0.487,0,0.898-0.098,1.235-0.295c0.336-0.197,0.608-0.467,0.816-0.811
		c0.208-0.344,0.358-0.747,0.451-1.208c0.093-0.462,0.14-0.958,0.14-1.488V317.896z"/>
	<path opacity="0.5" d="M146.776,307.304h6.284v14.373h3.545v2.127h-9.829v-2.127h3.695v-12.235h-3.695V307.304z"/>
	<path opacity="0.5" d="M160.064,312.181h6.198v9.496h3.448v2.127h-9.646v-2.127h3.609v-7.358h-3.609V312.181z M163.458,309.173
		c0-0.401,0.129-0.732,0.387-0.994c0.258-0.261,0.619-0.392,1.085-0.392c0.473,0,0.839,0.131,1.101,0.392
		c0.261,0.262,0.392,0.593,0.392,0.994c0,0.401-0.131,0.732-0.392,0.994c-0.262,0.262-0.628,0.392-1.101,0.392
		c-0.466,0-0.827-0.13-1.085-0.392C163.587,309.905,163.458,309.574,163.458,309.173z"/>
	<path opacity="0.5" d="M177.789,321.978c0.315,0,0.621-0.05,0.918-0.15c0.297-0.1,0.56-0.24,0.79-0.419
		c0.229-0.179,0.41-0.39,0.542-0.634c0.132-0.243,0.195-0.508,0.188-0.795h2.428c0.007,0.559-0.12,1.083-0.381,1.574
		c-0.262,0.491-0.616,0.918-1.063,1.284c-0.448,0.365-0.965,0.655-1.552,0.87c-0.587,0.215-1.203,0.322-1.848,0.322
		c-0.896,0-1.68-0.154-2.353-0.462c-0.673-0.308-1.235-0.729-1.687-1.262c-0.451-0.533-0.79-1.153-1.015-1.858
		c-0.226-0.705-0.338-1.456-0.338-2.25v-0.387c0-0.795,0.113-1.547,0.338-2.256s0.564-1.328,1.015-1.858
		c0.451-0.53,1.013-0.951,1.687-1.262c0.673-0.312,1.454-0.467,2.342-0.467c0.702,0,1.352,0.107,1.95,0.322
		c0.598,0.215,1.113,0.516,1.547,0.902c0.433,0.387,0.77,0.849,1.01,1.386c0.24,0.537,0.356,1.125,0.349,1.762h-2.428
		c0.007-0.315-0.048-0.612-0.167-0.892s-0.289-0.522-0.51-0.73c-0.222-0.208-0.483-0.372-0.784-0.494
		c-0.301-0.122-0.63-0.183-0.988-0.183c-0.537,0-0.985,0.109-1.343,0.328c-0.358,0.219-0.645,0.505-0.859,0.859
		s-0.367,0.757-0.457,1.208c-0.09,0.451-0.134,0.91-0.134,1.375v0.387c0,0.473,0.044,0.935,0.134,1.386
		c0.089,0.451,0.242,0.854,0.457,1.208s0.501,0.641,0.859,0.859C176.793,321.869,177.244,321.978,177.789,321.978z"/>
	<path opacity="0.5" d="M203.312,317.004l-1.676,1.88v4.92h-2.61v-15.641h2.61v7.326l1.429-1.858l4.114-5.468h3.147l-5.317,6.864
		l5.586,8.776h-3.094L203.312,317.004z"/>
	<path opacity="0.5" d="M217.728,324.019c-0.859,0-1.644-0.144-2.353-0.43s-1.316-0.68-1.821-1.182
		c-0.505-0.501-0.897-1.094-1.176-1.778c-0.279-0.684-0.419-1.423-0.419-2.218v-0.44c0-0.924,0.148-1.754,0.446-2.492
		c0.297-0.737,0.694-1.368,1.192-1.891c0.498-0.522,1.078-0.924,1.74-1.203c0.662-0.279,1.359-0.419,2.089-0.419
		c0.845,0,1.59,0.142,2.234,0.424c0.645,0.283,1.183,0.681,1.617,1.192c0.433,0.512,0.761,1.119,0.983,1.821
		c0.222,0.702,0.333,1.472,0.333,2.31v1.085h-8.057c0.043,0.451,0.154,0.87,0.333,1.257c0.179,0.387,0.414,0.722,0.704,1.004
		c0.29,0.283,0.63,0.505,1.021,0.666c0.39,0.161,0.818,0.242,1.284,0.242c0.651,0,1.251-0.129,1.799-0.387s0.994-0.612,1.337-1.063
		l1.396,1.311c-0.187,0.279-0.426,0.55-0.72,0.811c-0.294,0.262-0.638,0.494-1.031,0.698c-0.394,0.204-0.836,0.369-1.327,0.494
		C218.843,323.956,218.308,324.019,217.728,324.019z M217.417,314.039c-0.358,0-0.691,0.064-0.999,0.193
		c-0.308,0.129-0.584,0.317-0.827,0.564c-0.244,0.247-0.45,0.548-0.618,0.902c-0.168,0.354-0.289,0.757-0.36,1.208h5.446v-0.193
		c-0.021-0.344-0.088-0.675-0.199-0.994c-0.111-0.318-0.274-0.603-0.489-0.854c-0.215-0.25-0.485-0.451-0.811-0.602
		C218.234,314.114,217.853,314.039,217.417,314.039z"/>
	<path opacity="0.5" d="M230.125,319.152l0.44,1.396l3.266-8.368h2.847l-5.887,13.385c-0.129,0.293-0.297,0.61-0.505,0.951
		c-0.208,0.34-0.464,0.657-0.768,0.951c-0.305,0.293-0.668,0.539-1.09,0.736c-0.423,0.197-0.917,0.295-1.482,0.295
		c-0.236,0-0.475-0.02-0.714-0.059c-0.24-0.04-0.453-0.084-0.639-0.134l0.365-1.998c0.05,0,0.118,0.001,0.204,0.005
		c0.086,0.003,0.175,0.009,0.269,0.016c0.093,0.007,0.181,0.012,0.263,0.016c0.082,0.003,0.148,0.005,0.199,0.005
		c0.25,0,0.474-0.074,0.671-0.22c0.197-0.147,0.371-0.315,0.521-0.505c0.15-0.19,0.274-0.376,0.371-0.559s0.167-0.306,0.209-0.371
		l0.763-1.439l-4.941-11.075h2.836L230.125,319.152z"/>
	<path opacity="0.5" d="M257.098,317.702h-2.621v6.102h-2.578v-15.641h4.941c0.802,0.007,1.542,0.109,2.218,0.306
		c0.677,0.197,1.262,0.491,1.756,0.881c0.494,0.391,0.877,0.879,1.149,1.466c0.272,0.587,0.408,1.275,0.408,2.062
		c0,0.53-0.07,1.012-0.209,1.445c-0.14,0.434-0.335,0.826-0.585,1.176c-0.251,0.351-0.552,0.659-0.902,0.924
		c-0.351,0.265-0.738,0.491-1.16,0.677l3.309,6.574v0.129h-2.75L257.098,317.702z M254.477,315.618h2.374
		c0.43,0,0.823-0.061,1.182-0.183c0.358-0.122,0.667-0.295,0.929-0.521c0.261-0.226,0.463-0.501,0.607-0.827
		c0.143-0.326,0.215-0.7,0.215-1.123c0-0.437-0.068-0.823-0.204-1.16c-0.136-0.336-0.332-0.619-0.585-0.849
		c-0.254-0.229-0.564-0.403-0.929-0.521s-0.773-0.181-1.225-0.188h-2.363V315.618z"/>
	<path opacity="0.5" d="M267.754,305.789h4.598v21.484h-4.598v-2.009h2.095v-17.456h-2.095V305.789z"/>
	<path d="M70.324,358.192c0,0.924-0.118,1.81-0.354,2.659s-0.589,1.597-1.058,2.245c-0.469,0.648-1.057,1.164-1.762,1.547
		c-0.706,0.383-1.531,0.575-2.476,0.575c-0.938,0-1.755-0.193-2.449-0.58c-0.695-0.387-1.273-0.904-1.735-1.552
		c-0.462-0.648-0.81-1.395-1.042-2.24c-0.233-0.845-0.349-1.729-0.349-2.653v-1.998c0-0.616,0.052-1.217,0.156-1.805
		c0.104-0.587,0.258-1.14,0.462-1.66c0.204-0.519,0.458-0.999,0.763-1.439c0.304-0.44,0.662-0.818,1.074-1.133
		c0.412-0.315,0.877-0.562,1.396-0.741c0.519-0.179,1.09-0.269,1.713-0.269c0.945,0,1.771,0.193,2.476,0.58
		c0.705,0.387,1.294,0.904,1.767,1.552c0.473,0.648,0.827,1.398,1.063,2.25c0.236,0.853,0.354,1.74,0.354,2.664V358.192z
		 M67.735,356.173c-0.007-0.587-0.061-1.171-0.161-1.751c-0.101-0.58-0.269-1.097-0.505-1.552c-0.236-0.455-0.55-0.823-0.94-1.106
		c-0.391-0.283-0.879-0.424-1.466-0.424c-0.58,0-1.062,0.142-1.445,0.424c-0.383,0.283-0.688,0.654-0.913,1.112
		c-0.226,0.458-0.383,0.976-0.473,1.552c-0.09,0.577-0.138,1.159-0.145,1.746v2.02c0.007,0.587,0.057,1.169,0.15,1.746
		c0.093,0.577,0.252,1.096,0.478,1.558s0.53,0.836,0.913,1.123c0.383,0.287,0.865,0.43,1.445,0.43c0.587,0,1.076-0.143,1.466-0.43
		c0.39-0.286,0.704-0.659,0.94-1.117c0.236-0.458,0.403-0.978,0.5-1.558s0.148-1.164,0.156-1.751V356.173z"/>
	<path d="M75.695,359.009v5.994h-2.578v-15.641h5.231c0.78,0.007,1.502,0.124,2.165,0.349c0.662,0.226,1.233,0.548,1.713,0.967
		c0.479,0.419,0.854,0.928,1.123,1.525c0.269,0.598,0.403,1.273,0.403,2.025c0,0.73-0.134,1.39-0.403,1.977
		c-0.269,0.587-0.643,1.089-1.123,1.504c-0.48,0.416-1.051,0.734-1.713,0.956c-0.663,0.222-1.384,0.337-2.165,0.344H75.695z
		 M75.695,356.925h2.653c0.437,0,0.827-0.066,1.171-0.199c0.344-0.132,0.637-0.317,0.881-0.553c0.243-0.236,0.43-0.519,0.559-0.849
		c0.129-0.329,0.193-0.688,0.193-1.074c0-0.408-0.064-0.784-0.193-1.128s-0.315-0.639-0.559-0.886
		c-0.244-0.247-0.537-0.438-0.881-0.575c-0.344-0.136-0.734-0.208-1.171-0.215h-2.653V356.925z"/>
	<path d="M95.998,367.022h-9.861v-2.02h9.861V367.022z"/>
	<path d="M108.491,357.988h-6.435v4.909h7.53v2.105H99.468v-15.641h10.044v2.127h-7.455v4.415h6.435V357.988z"/>
	<path d="M115.355,362.897h7.455v2.105h-10.033v-15.641h2.578V362.897z"/>
	<path d="M133.854,360.975c0-0.372-0.077-0.7-0.231-0.983c-0.154-0.283-0.373-0.532-0.655-0.747c-0.283-0.215-0.62-0.403-1.01-0.564
		c-0.391-0.161-0.815-0.31-1.273-0.446c-0.616-0.179-1.223-0.401-1.821-0.666c-0.598-0.265-1.132-0.589-1.601-0.972
		c-0.469-0.383-0.849-0.831-1.139-1.343c-0.29-0.512-0.435-1.104-0.435-1.778c0-0.673,0.145-1.276,0.435-1.81
		c0.29-0.533,0.678-0.986,1.166-1.359c0.487-0.372,1.053-0.659,1.697-0.859c0.645-0.2,1.317-0.301,2.02-0.301
		c0.752,0,1.456,0.117,2.111,0.349c0.655,0.233,1.228,0.559,1.719,0.978c0.49,0.419,0.879,0.92,1.166,1.504
		c0.286,0.584,0.433,1.23,0.44,1.939h-2.578c-0.036-0.394-0.12-0.753-0.252-1.08c-0.133-0.326-0.319-0.607-0.559-0.843
		c-0.24-0.236-0.532-0.419-0.875-0.548s-0.741-0.193-1.192-0.193c-0.387,0-0.745,0.05-1.074,0.15
		c-0.33,0.101-0.614,0.247-0.854,0.44c-0.24,0.193-0.428,0.426-0.564,0.698c-0.136,0.272-0.204,0.58-0.204,0.924
		c0,0.365,0.093,0.682,0.279,0.951c0.186,0.269,0.43,0.503,0.73,0.704c0.301,0.201,0.646,0.375,1.037,0.521
		c0.39,0.147,0.796,0.281,1.219,0.403c0.651,0.193,1.274,0.432,1.869,0.714c0.594,0.283,1.117,0.623,1.568,1.021
		s0.809,0.858,1.074,1.38c0.265,0.523,0.397,1.121,0.397,1.794c0,0.695-0.147,1.307-0.44,1.837c-0.294,0.53-0.688,0.974-1.182,1.332
		c-0.494,0.358-1.067,0.628-1.719,0.811c-0.652,0.183-1.332,0.274-2.041,0.274c-0.48,0-0.956-0.047-1.429-0.14
		s-0.926-0.232-1.359-0.419c-0.434-0.186-0.836-0.417-1.208-0.693c-0.373-0.275-0.697-0.594-0.972-0.956
		c-0.276-0.361-0.493-0.766-0.65-1.214c-0.158-0.447-0.24-0.94-0.247-1.477h2.589c0.036,0.473,0.14,0.885,0.312,1.235
		c0.172,0.351,0.401,0.643,0.688,0.875c0.286,0.233,0.621,0.408,1.004,0.526c0.383,0.118,0.807,0.177,1.273,0.177
		c0.387,0,0.748-0.046,1.085-0.14c0.336-0.093,0.63-0.231,0.881-0.414c0.25-0.183,0.447-0.408,0.591-0.677
		C133.782,361.625,133.854,361.318,133.854,360.975z"/>
	<path d="M148.098,357.988h-6.435v4.909h7.53v2.105h-10.119v-15.641h10.044v2.127h-7.455v4.415h6.435V357.988z"/>
	<path d="M100.821,390.207h-2.084v17.455h2.084v2.01h-4.587v-21.484h4.587V390.207z"/>
	<path d="M106.503,406.201v-15.641h3.824c1.074,0.008,2.039,0.188,2.895,0.537c0.855,0.352,1.583,0.846,2.181,1.482
		c0.598,0.639,1.058,1.398,1.38,2.283s0.487,1.863,0.494,2.938v1.182c-0.007,1.074-0.172,2.055-0.494,2.938
		c-0.322,0.885-0.781,1.644-1.375,2.277c-0.595,0.634-1.314,1.126-2.159,1.478c-0.845,0.351-1.794,0.525-2.847,0.525H106.503z
		 M109.125,392.645v11.484h1.278c0.709-0.008,1.328-0.135,1.858-0.382c0.53-0.247,0.972-0.595,1.327-1.042s0.619-0.986,0.795-1.617
		c0.175-0.629,0.267-1.332,0.274-2.105v-1.203c-0.007-0.752-0.099-1.439-0.274-2.062c-0.176-0.623-0.442-1.161-0.8-1.616
		c-0.358-0.454-0.808-0.81-1.348-1.063c-0.541-0.254-1.176-0.385-1.907-0.393H109.125z"/>
	<path d="M125.313,406.416c-0.859,0-1.644-0.143-2.353-0.43c-0.709-0.285-1.316-0.68-1.821-1.182
		c-0.505-0.5-0.897-1.094-1.176-1.777s-0.419-1.424-0.419-2.219v-0.439c0-0.924,0.148-1.755,0.446-2.492
		c0.297-0.738,0.694-1.368,1.192-1.891c0.498-0.523,1.078-0.924,1.74-1.203c0.662-0.279,1.359-0.42,2.089-0.42
		c0.845,0,1.59,0.143,2.234,0.425c0.645,0.283,1.183,0.681,1.617,1.192c0.433,0.512,0.761,1.119,0.983,1.82
		c0.222,0.703,0.333,1.473,0.333,2.311v1.084h-8.057c0.043,0.451,0.154,0.871,0.333,1.258c0.179,0.387,0.414,0.721,0.704,1.004
		s0.63,0.505,1.021,0.666c0.39,0.161,0.818,0.242,1.284,0.242c0.651,0,1.251-0.129,1.799-0.387s0.994-0.613,1.337-1.064l1.396,1.311
		c-0.187,0.279-0.426,0.551-0.72,0.812c-0.294,0.262-0.638,0.494-1.031,0.698c-0.394,0.204-0.836,0.369-1.327,0.494
		C126.428,406.354,125.893,406.416,125.313,406.416z M125.001,396.438c-0.358,0-0.691,0.064-0.999,0.193
		c-0.308,0.129-0.584,0.316-0.827,0.563c-0.244,0.247-0.45,0.548-0.618,0.902c-0.168,0.354-0.289,0.757-0.36,1.208h5.446v-0.193
		c-0.021-0.344-0.088-0.674-0.199-0.993c-0.111-0.318-0.274-0.603-0.489-0.854c-0.215-0.25-0.485-0.451-0.811-0.602
		C125.819,396.512,125.438,396.438,125.001,396.438z"/>
	<path d="M133.574,389.701h6.284v14.373h3.545v2.127h-9.829v-2.127h3.695V391.84h-3.695V389.701z"/>
	<path d="M153.715,406.201c-0.072-0.143-0.131-0.311-0.177-0.504c-0.047-0.193-0.088-0.401-0.124-0.623
		c-0.179,0.186-0.381,0.359-0.607,0.521s-0.477,0.303-0.752,0.425c-0.276,0.121-0.573,0.218-0.892,0.289
		c-0.319,0.072-0.661,0.107-1.026,0.107c-0.616,0-1.173-0.088-1.67-0.263c-0.498-0.175-0.924-0.419-1.278-0.73
		s-0.628-0.679-0.822-1.101c-0.193-0.423-0.29-0.881-0.29-1.375c0-1.246,0.463-2.199,1.391-2.857
		c0.927-0.659,2.257-0.988,3.991-0.988h1.88v-0.764c0-0.615-0.208-1.104-0.623-1.466c-0.416-0.361-1.003-0.542-1.762-0.542
		c-0.344,0-0.645,0.041-0.902,0.123s-0.473,0.195-0.645,0.338c-0.172,0.145-0.301,0.312-0.387,0.506s-0.129,0.4-0.129,0.623h-2.567
		c0-0.451,0.105-0.891,0.317-1.316c0.211-0.426,0.521-0.806,0.929-1.139s0.908-0.6,1.499-0.801c0.591-0.199,1.266-0.301,2.025-0.301
		c0.688,0,1.325,0.085,1.912,0.253c0.587,0.169,1.096,0.419,1.525,0.752s0.766,0.749,1.01,1.246
		c0.243,0.498,0.365,1.079,0.365,1.745v5.178c0,0.51,0.038,0.973,0.113,1.392s0.184,0.782,0.328,1.091v0.182H153.715z
		 M150.622,404.344c0.329,0,0.639-0.041,0.929-0.124c0.29-0.082,0.551-0.189,0.784-0.322c0.232-0.132,0.433-0.284,0.602-0.456
		c0.168-0.172,0.302-0.348,0.403-0.527v-2.18h-1.633c-1.046,0-1.817,0.168-2.315,0.504c-0.498,0.338-0.747,0.816-0.747,1.439
		c0,0.236,0.039,0.457,0.118,0.661c0.079,0.204,0.199,0.38,0.36,0.526s0.365,0.264,0.612,0.35S150.278,404.344,150.622,404.344z"/>
	<path d="M164.114,401.551l0.44,1.396l3.266-8.369h2.847l-5.887,13.385c-0.129,0.294-0.297,0.611-0.505,0.951
		c-0.208,0.34-0.464,0.656-0.768,0.951c-0.305,0.293-0.668,0.538-1.09,0.735c-0.423,0.196-0.917,0.296-1.482,0.296
		c-0.236,0-0.475-0.021-0.714-0.06c-0.24-0.04-0.453-0.085-0.639-0.134l0.365-1.998c0.05,0,0.118,0.001,0.204,0.005
		c0.086,0.003,0.175,0.009,0.269,0.017c0.093,0.006,0.181,0.012,0.263,0.016c0.082,0.004,0.148,0.006,0.199,0.006
		c0.25,0,0.474-0.074,0.671-0.221c0.197-0.146,0.371-0.315,0.521-0.505c0.15-0.19,0.274-0.376,0.371-0.559s0.167-0.306,0.209-0.37
		l0.763-1.439l-4.941-11.076h2.836L164.114,401.551z"/>
	<path d="M175.339,388.188h4.598v21.484h-4.598v-2.01h2.095v-17.455h-2.095V388.188z"/>
	<path d="M104.033,440.59c0,0.924-0.118,1.811-0.354,2.658c-0.236,0.85-0.589,1.598-1.058,2.246
		c-0.469,0.647-1.057,1.163-1.762,1.547c-0.706,0.383-1.531,0.574-2.476,0.574c-0.938,0-1.755-0.193-2.449-0.58
		c-0.695-0.387-1.273-0.904-1.735-1.553c-0.462-0.647-0.81-1.395-1.042-2.239c-0.233-0.845-0.349-1.729-0.349-2.653v-1.998
		c0-0.615,0.052-1.217,0.156-1.805c0.104-0.587,0.258-1.141,0.462-1.66c0.204-0.519,0.458-0.998,0.763-1.439
		c0.304-0.439,0.662-0.817,1.074-1.133c0.412-0.314,0.877-0.562,1.396-0.741c0.519-0.179,1.09-0.269,1.713-0.269
		c0.945,0,1.771,0.193,2.476,0.58c0.705,0.387,1.294,0.904,1.767,1.553s0.827,1.398,1.063,2.25c0.236,0.853,0.354,1.74,0.354,2.664
		V440.59z M101.444,438.57c-0.007-0.587-0.061-1.171-0.161-1.751c-0.101-0.58-0.269-1.097-0.505-1.552s-0.55-0.824-0.94-1.107
		c-0.391-0.282-0.879-0.424-1.466-0.424c-0.58,0-1.062,0.142-1.445,0.424c-0.383,0.283-0.688,0.654-0.913,1.112
		s-0.383,0.976-0.473,1.552c-0.09,0.577-0.138,1.159-0.145,1.746v2.02c0.007,0.587,0.057,1.169,0.15,1.746
		c0.093,0.576,0.252,1.096,0.478,1.557c0.226,0.463,0.53,0.837,0.913,1.123c0.383,0.286,0.865,0.43,1.445,0.43
		c0.587,0,1.076-0.144,1.466-0.43c0.39-0.286,0.704-0.659,0.94-1.117s0.403-0.978,0.5-1.558s0.148-1.164,0.156-1.751V438.57z"/>
	<path d="M109.404,441.406v5.994h-2.578V431.76h5.231c0.78,0.008,1.502,0.123,2.165,0.35c0.662,0.225,1.233,0.547,1.713,0.967
		c0.479,0.418,0.854,0.928,1.123,1.525s0.403,1.272,0.403,2.024c0,0.73-0.134,1.39-0.403,1.977s-0.643,1.089-1.123,1.504
		c-0.48,0.415-1.051,0.734-1.713,0.956c-0.663,0.222-1.384,0.337-2.165,0.344H109.404z M109.404,439.322h2.653
		c0.437,0,0.827-0.066,1.171-0.199c0.344-0.132,0.637-0.316,0.881-0.553c0.243-0.236,0.43-0.52,0.559-0.849s0.193-0.688,0.193-1.074
		c0-0.408-0.064-0.784-0.193-1.128s-0.315-0.639-0.559-0.887c-0.244-0.246-0.537-0.438-0.881-0.574
		c-0.344-0.136-0.734-0.207-1.171-0.215h-2.653V439.322z"/>
	<path d="M129.707,449.42h-9.861v-2.02h9.861V449.42z"/>
	<path d="M143.596,442.599c-0.072,0.752-0.251,1.438-0.537,2.058c-0.287,0.619-0.666,1.148-1.139,1.59
		c-0.473,0.439-1.03,0.78-1.67,1.02c-0.641,0.24-1.355,0.36-2.143,0.36c-0.953,0-1.783-0.185-2.492-0.554
		c-0.709-0.368-1.3-0.868-1.772-1.498s-0.827-1.368-1.063-2.213s-0.358-1.747-0.365-2.707v-2.138
		c0.007-0.952,0.132-1.853,0.376-2.702c0.243-0.848,0.603-1.59,1.08-2.223c0.476-0.635,1.069-1.135,1.778-1.504
		s1.532-0.554,2.471-0.554c0.823,0,1.558,0.122,2.202,0.365s1.196,0.587,1.654,1.031c0.458,0.444,0.823,0.985,1.096,1.622
		c0.272,0.638,0.447,1.347,0.526,2.127h-2.578c-0.043-0.458-0.131-0.875-0.263-1.252c-0.133-0.375-0.313-0.697-0.542-0.967
		c-0.229-0.268-0.518-0.474-0.865-0.617c-0.348-0.143-0.757-0.215-1.23-0.215c-0.58,0-1.067,0.133-1.461,0.397
		c-0.394,0.265-0.713,0.622-0.956,1.069c-0.244,0.447-0.417,0.965-0.521,1.552c-0.104,0.587-0.156,1.203-0.156,1.848v2.159
		c0,0.673,0.052,1.305,0.156,1.896c0.104,0.59,0.274,1.107,0.51,1.552s0.551,0.795,0.945,1.053c0.394,0.258,0.884,0.387,1.472,0.387
		c0.902,0,1.59-0.256,2.062-0.769c0.473-0.512,0.752-1.236,0.838-2.175H143.596z"/>
	<path d="M154.36,443.372c0-0.372-0.077-0.7-0.231-0.983c-0.154-0.282-0.373-0.531-0.655-0.746c-0.283-0.215-0.62-0.402-1.01-0.564
		c-0.391-0.16-0.815-0.31-1.273-0.445c-0.616-0.179-1.223-0.401-1.821-0.666c-0.598-0.265-1.132-0.589-1.601-0.973
		c-0.469-0.383-0.849-0.83-1.139-1.342s-0.435-1.105-0.435-1.778s0.145-1.276,0.435-1.81s0.678-0.986,1.166-1.359
		c0.487-0.372,1.053-0.658,1.697-0.859c0.645-0.2,1.317-0.301,2.02-0.301c0.752,0,1.456,0.117,2.111,0.35s1.228,0.559,1.719,0.977
		c0.49,0.42,0.879,0.921,1.166,1.504c0.286,0.584,0.433,1.23,0.44,1.939h-2.578c-0.036-0.394-0.12-0.754-0.252-1.08
		c-0.133-0.325-0.319-0.606-0.559-0.843c-0.24-0.236-0.532-0.419-0.875-0.548s-0.741-0.193-1.192-0.193
		c-0.387,0-0.745,0.051-1.074,0.15c-0.33,0.101-0.614,0.247-0.854,0.44c-0.24,0.193-0.428,0.427-0.564,0.698
		c-0.136,0.272-0.204,0.58-0.204,0.924c0,0.365,0.093,0.682,0.279,0.951c0.186,0.268,0.43,0.503,0.73,0.703
		c0.301,0.201,0.646,0.375,1.037,0.521c0.39,0.146,0.796,0.281,1.219,0.402c0.651,0.193,1.274,0.432,1.869,0.715
		c0.594,0.282,1.117,0.623,1.568,1.02c0.451,0.398,0.809,0.858,1.074,1.381c0.265,0.522,0.397,1.121,0.397,1.794
		c0,0.694-0.147,1.307-0.44,1.837c-0.294,0.53-0.688,0.974-1.182,1.332s-1.067,0.629-1.719,0.811
		c-0.652,0.184-1.332,0.274-2.041,0.274c-0.48,0-0.956-0.047-1.429-0.14s-0.926-0.232-1.359-0.419
		c-0.434-0.187-0.836-0.417-1.208-0.692c-0.373-0.276-0.697-0.595-0.972-0.957c-0.276-0.361-0.493-0.766-0.65-1.213
		c-0.158-0.448-0.24-0.94-0.247-1.478h2.589c0.036,0.473,0.14,0.885,0.312,1.235s0.401,0.643,0.688,0.875
		c0.286,0.233,0.621,0.408,1.004,0.527c0.383,0.117,0.807,0.177,1.273,0.177c0.387,0,0.748-0.047,1.085-0.14
		c0.336-0.093,0.63-0.23,0.881-0.414c0.25-0.182,0.447-0.408,0.591-0.676C154.288,444.021,154.36,443.716,154.36,443.372z"/>
	<path d="M164.415,443.479l3.255-11.72h2.814L165.65,447.4h-2.46l-4.823-15.641h2.814L164.415,443.479z"/>
	<path d="M104.033,481.789c0,0.924-0.118,1.811-0.354,2.658c-0.236,0.85-0.589,1.598-1.058,2.246
		c-0.469,0.647-1.057,1.163-1.762,1.547c-0.706,0.383-1.531,0.574-2.476,0.574c-0.938,0-1.755-0.193-2.449-0.58
		c-0.695-0.387-1.273-0.904-1.735-1.553c-0.462-0.647-0.81-1.395-1.042-2.239c-0.233-0.845-0.349-1.729-0.349-2.653v-1.998
		c0-0.616,0.052-1.218,0.156-1.805c0.104-0.587,0.258-1.141,0.462-1.66c0.204-0.519,0.458-0.998,0.763-1.439
		c0.304-0.439,0.662-0.817,1.074-1.133c0.412-0.315,0.877-0.562,1.396-0.741c0.519-0.179,1.09-0.269,1.713-0.269
		c0.945,0,1.771,0.193,2.476,0.58c0.705,0.387,1.294,0.904,1.767,1.553c0.473,0.647,0.827,1.397,1.063,2.25s0.354,1.74,0.354,2.664
		V481.789z M101.444,479.77c-0.007-0.587-0.061-1.171-0.161-1.751c-0.101-0.58-0.269-1.098-0.505-1.552
		c-0.236-0.455-0.55-0.824-0.94-1.107c-0.391-0.282-0.879-0.424-1.466-0.424c-0.58,0-1.062,0.142-1.445,0.424
		c-0.383,0.283-0.688,0.654-0.913,1.112s-0.383,0.976-0.473,1.552c-0.09,0.577-0.138,1.159-0.145,1.746v2.02
		c0.007,0.587,0.057,1.169,0.15,1.746c0.093,0.576,0.252,1.096,0.478,1.557c0.226,0.463,0.53,0.837,0.913,1.123
		c0.383,0.286,0.865,0.43,1.445,0.43c0.587,0,1.076-0.144,1.466-0.43c0.39-0.286,0.704-0.659,0.94-1.117s0.403-0.978,0.5-1.558
		s0.148-1.164,0.156-1.751V479.77z"/>
	<path d="M109.404,482.605v5.994h-2.578v-15.641h5.231c0.78,0.007,1.502,0.123,2.165,0.35c0.662,0.225,1.233,0.547,1.713,0.967
		c0.479,0.418,0.854,0.927,1.123,1.525c0.269,0.598,0.403,1.272,0.403,2.024c0,0.73-0.134,1.39-0.403,1.977
		s-0.643,1.089-1.123,1.504c-0.48,0.415-1.051,0.734-1.713,0.956c-0.663,0.222-1.384,0.337-2.165,0.344H109.404z M109.404,480.521
		h2.653c0.437,0,0.827-0.066,1.171-0.199c0.344-0.132,0.637-0.316,0.881-0.553c0.243-0.236,0.43-0.52,0.559-0.849
		s0.193-0.688,0.193-1.074c0-0.408-0.064-0.784-0.193-1.128s-0.315-0.639-0.559-0.887c-0.244-0.246-0.537-0.438-0.881-0.574
		s-0.734-0.208-1.171-0.215h-2.653V480.521z"/>
	<path d="M129.707,490.619h-9.861v-2.02h9.861V490.619z"/>
	<path d="M132.908,488.6v-15.641h3.824c1.074,0.007,2.039,0.187,2.895,0.537c0.855,0.351,1.583,0.845,2.181,1.482
		c0.598,0.638,1.058,1.398,1.38,2.283c0.322,0.884,0.487,1.863,0.494,2.938v1.182c-0.007,1.074-0.172,2.054-0.494,2.938
		c-0.322,0.885-0.781,1.645-1.375,2.277c-0.595,0.635-1.314,1.127-2.159,1.478c-0.845,0.351-1.794,0.526-2.847,0.526H132.908z
		 M135.529,475.043v11.483h1.278c0.709-0.007,1.328-0.134,1.858-0.382c0.53-0.246,0.972-0.594,1.327-1.041
		c0.354-0.448,0.619-0.987,0.795-1.617c0.175-0.63,0.267-1.332,0.274-2.105v-1.203c-0.007-0.752-0.099-1.439-0.274-2.062
		c-0.176-0.623-0.442-1.162-0.8-1.617c-0.358-0.454-0.808-0.809-1.348-1.062c-0.541-0.255-1.176-0.386-1.907-0.393H135.529z"/>
	<path d="M151.481,482.498h-2.621v6.102h-2.578v-15.641h4.941c0.802,0.007,1.542,0.109,2.218,0.307
		c0.677,0.196,1.262,0.49,1.756,0.881c0.494,0.39,0.877,0.879,1.149,1.466c0.272,0.587,0.408,1.274,0.408,2.062
		c0,0.53-0.07,1.012-0.209,1.444c-0.14,0.434-0.335,0.826-0.585,1.177c-0.251,0.351-0.552,0.659-0.902,0.924
		c-0.351,0.265-0.738,0.49-1.16,0.677l3.309,6.574v0.129h-2.75L151.481,482.498z M148.86,480.414h2.374
		c0.43,0,0.823-0.061,1.182-0.183c0.358-0.122,0.667-0.296,0.929-0.521c0.261-0.227,0.463-0.502,0.607-0.828
		c0.143-0.325,0.215-0.699,0.215-1.122c0-0.437-0.068-0.823-0.204-1.16c-0.136-0.337-0.332-0.619-0.585-0.849
		c-0.254-0.229-0.564-0.402-0.929-0.521c-0.365-0.117-0.773-0.181-1.225-0.188h-2.363V480.414z"/>
	<path d="M170.043,481.789c0,0.924-0.118,1.811-0.354,2.658c-0.236,0.85-0.589,1.598-1.058,2.246
		c-0.469,0.647-1.057,1.163-1.762,1.547c-0.706,0.383-1.531,0.574-2.476,0.574c-0.938,0-1.755-0.193-2.449-0.58
		c-0.695-0.387-1.273-0.904-1.735-1.553c-0.462-0.647-0.81-1.395-1.042-2.239c-0.233-0.845-0.349-1.729-0.349-2.653v-1.998
		c0-0.616,0.052-1.218,0.156-1.805c0.104-0.587,0.258-1.141,0.462-1.66c0.204-0.519,0.458-0.998,0.763-1.439
		c0.304-0.439,0.662-0.817,1.074-1.133c0.412-0.315,0.877-0.562,1.396-0.741c0.519-0.179,1.09-0.269,1.713-0.269
		c0.945,0,1.771,0.193,2.476,0.58c0.705,0.387,1.294,0.904,1.767,1.553c0.473,0.647,0.827,1.397,1.063,2.25s0.354,1.74,0.354,2.664
		V481.789z M167.455,479.77c-0.007-0.587-0.061-1.171-0.161-1.751c-0.101-0.58-0.269-1.098-0.505-1.552
		c-0.236-0.455-0.55-0.824-0.94-1.107c-0.391-0.282-0.879-0.424-1.466-0.424c-0.58,0-1.062,0.142-1.445,0.424
		c-0.383,0.283-0.688,0.654-0.913,1.112s-0.383,0.976-0.473,1.552c-0.09,0.577-0.138,1.159-0.145,1.746v2.02
		c0.007,0.587,0.057,1.169,0.15,1.746c0.093,0.576,0.252,1.096,0.478,1.557c0.226,0.463,0.53,0.837,0.913,1.123
		c0.383,0.286,0.865,0.43,1.445,0.43c0.587,0,1.076-0.144,1.466-0.43c0.39-0.286,0.704-0.659,0.94-1.117s0.403-0.978,0.5-1.558
		s0.148-1.164,0.156-1.751V479.77z"/>
	<path d="M175.415,482.605v5.994h-2.578v-15.641h5.231c0.78,0.007,1.502,0.123,2.165,0.35c0.662,0.225,1.233,0.547,1.713,0.967
		c0.479,0.418,0.854,0.927,1.123,1.525c0.269,0.598,0.403,1.272,0.403,2.024c0,0.73-0.134,1.39-0.403,1.977
		s-0.643,1.089-1.123,1.504c-0.48,0.415-1.051,0.734-1.713,0.956c-0.663,0.222-1.384,0.337-2.165,0.344H175.415z M175.415,480.521
		h2.653c0.437,0,0.827-0.066,1.171-0.199c0.344-0.132,0.637-0.316,0.881-0.553c0.243-0.236,0.43-0.52,0.559-0.849
		s0.193-0.688,0.193-1.074c0-0.408-0.064-0.784-0.193-1.128s-0.315-0.639-0.559-0.887c-0.244-0.246-0.537-0.438-0.881-0.574
		s-0.734-0.208-1.171-0.215h-2.653V480.521z"/>
	<path d="M100.821,513.804h-2.084v17.456h2.084v2.009h-4.587v-21.484h4.587V513.804z"/>
	<path d="M109.404,523.805v5.994h-2.578v-15.641h5.231c0.78,0.007,1.502,0.123,2.165,0.35c0.662,0.225,1.233,0.547,1.713,0.967
		c0.479,0.418,0.854,0.927,1.123,1.525c0.269,0.598,0.403,1.272,0.403,2.024c0,0.73-0.134,1.39-0.403,1.977
		s-0.643,1.089-1.123,1.504c-0.48,0.415-1.051,0.734-1.713,0.956c-0.663,0.222-1.384,0.337-2.165,0.344H109.404z M109.404,521.721
		h2.653c0.437,0,0.827-0.066,1.171-0.199c0.344-0.132,0.637-0.316,0.881-0.553c0.243-0.236,0.43-0.52,0.559-0.849
		s0.193-0.688,0.193-1.074c0-0.408-0.064-0.784-0.193-1.128s-0.315-0.639-0.559-0.887c-0.244-0.246-0.537-0.438-0.881-0.574
		s-0.734-0.208-1.171-0.215h-2.653V521.721z"/>
	<path d="M127.354,528.209c-0.394,0.573-0.872,1.019-1.434,1.338c-0.562,0.318-1.191,0.478-1.885,0.478
		c-0.602,0-1.151-0.093-1.649-0.279c-0.498-0.187-0.924-0.481-1.278-0.886c-0.354-0.405-0.63-0.921-0.827-1.547
		c-0.197-0.627-0.295-1.381-0.295-2.262v-6.875h2.567v6.896c0,0.559,0.041,1.021,0.124,1.386c0.082,0.365,0.209,0.655,0.381,0.87
		s0.387,0.367,0.645,0.457c0.258,0.089,0.565,0.134,0.924,0.134c0.688,0,1.242-0.134,1.665-0.403
		c0.422-0.268,0.741-0.632,0.956-1.09v-8.25h2.578v11.623h-2.32L127.354,528.209z"/>
	<path d="M143.317,524.116c0,0.859-0.099,1.649-0.295,2.368c-0.197,0.721-0.489,1.342-0.875,1.864s-0.863,0.931-1.429,1.225
		c-0.566,0.294-1.218,0.44-1.955,0.44c-0.709,0-1.323-0.125-1.842-0.376c-0.52-0.251-0.965-0.612-1.337-1.085l-0.118,1.246h-2.331
		v-16.5h2.567v5.983c0.365-0.423,0.795-0.748,1.289-0.978s1.078-0.344,1.751-0.344c0.745,0,1.402,0.145,1.971,0.436
		c0.569,0.289,1.047,0.696,1.434,1.219s0.678,1.147,0.875,1.875c0.197,0.727,0.295,1.526,0.295,2.4V524.116z M140.75,523.891
		c0-0.516-0.045-1.004-0.134-1.467c-0.09-0.461-0.236-0.868-0.44-1.219s-0.478-0.629-0.822-0.832
		c-0.344-0.205-0.767-0.307-1.268-0.307c-0.609,0-1.106,0.14-1.493,0.419s-0.684,0.645-0.892,1.096v4.802
		c0.208,0.451,0.506,0.82,0.897,1.106c0.39,0.286,0.893,0.43,1.509,0.43c0.487,0,0.898-0.099,1.235-0.296
		c0.336-0.196,0.608-0.467,0.816-0.811c0.208-0.344,0.358-0.746,0.451-1.209c0.093-0.461,0.14-0.957,0.14-1.487V523.891z"/>
	<path d="M146.776,513.299h6.284v14.373h3.545v2.127h-9.829v-2.127h3.695v-12.235h-3.695V513.299z"/>
	<path d="M160.064,518.176h6.198v9.496h3.448v2.127h-9.646v-2.127h3.609v-7.358h-3.609V518.176z M163.458,515.168
		c0-0.401,0.129-0.732,0.387-0.994c0.258-0.261,0.619-0.392,1.085-0.392c0.473,0,0.839,0.131,1.101,0.392
		c0.261,0.262,0.392,0.593,0.392,0.994s-0.131,0.732-0.392,0.994c-0.262,0.261-0.628,0.392-1.101,0.392
		c-0.466,0-0.827-0.131-1.085-0.392C163.587,515.9,163.458,515.569,163.458,515.168z"/>
	<path d="M177.789,527.973c0.315,0,0.621-0.05,0.918-0.15c0.297-0.101,0.56-0.24,0.79-0.419c0.229-0.179,0.41-0.391,0.542-0.634
		c0.132-0.243,0.195-0.509,0.188-0.795h2.428c0.007,0.559-0.12,1.083-0.381,1.574c-0.262,0.49-0.616,0.918-1.063,1.283
		c-0.448,0.365-0.965,0.655-1.552,0.87c-0.587,0.215-1.203,0.322-1.848,0.322c-0.896,0-1.68-0.154-2.353-0.462
		c-0.673-0.308-1.235-0.729-1.687-1.262c-0.451-0.534-0.79-1.153-1.015-1.859c-0.226-0.705-0.338-1.455-0.338-2.25v-0.387
		c0-0.795,0.113-1.547,0.338-2.256s0.564-1.328,1.015-1.858s1.013-0.95,1.687-1.263c0.673-0.311,1.454-0.467,2.342-0.467
		c0.702,0,1.352,0.107,1.95,0.322c0.598,0.215,1.113,0.516,1.547,0.902c0.433,0.387,0.77,0.849,1.01,1.386
		c0.24,0.537,0.356,1.124,0.349,1.762h-2.428c0.007-0.315-0.048-0.612-0.167-0.892s-0.289-0.522-0.51-0.73
		c-0.222-0.208-0.483-0.372-0.784-0.494s-0.63-0.183-0.988-0.183c-0.537,0-0.985,0.109-1.343,0.327
		c-0.358,0.219-0.645,0.506-0.859,0.859c-0.215,0.355-0.367,0.758-0.457,1.209c-0.09,0.451-0.134,0.909-0.134,1.375v0.387
		c0,0.473,0.044,0.935,0.134,1.386c0.089,0.451,0.242,0.854,0.457,1.208c0.215,0.355,0.501,0.642,0.859,0.859
		C176.793,527.863,177.244,527.973,177.789,527.973z"/>
	<path d="M203.312,522.999l-1.676,1.88v4.92h-2.61v-15.641h2.61v7.326l1.429-1.858l4.114-5.468h3.147l-5.317,6.864l5.586,8.776
		h-3.094L203.312,522.999z"/>
	<path d="M217.728,530.014c-0.859,0-1.644-0.144-2.353-0.43s-1.316-0.681-1.821-1.182s-0.897-1.094-1.176-1.777
		c-0.279-0.685-0.419-1.424-0.419-2.219v-0.44c0-0.924,0.148-1.755,0.446-2.492c0.297-0.737,0.694-1.368,1.192-1.891
		c0.498-0.522,1.078-0.924,1.74-1.203c0.662-0.279,1.359-0.419,2.089-0.419c0.845,0,1.59,0.142,2.234,0.424
		c0.645,0.283,1.183,0.681,1.617,1.193c0.433,0.512,0.761,1.118,0.983,1.82c0.222,0.702,0.333,1.472,0.333,2.31v1.085h-8.057
		c0.043,0.451,0.154,0.87,0.333,1.257c0.179,0.387,0.414,0.722,0.704,1.005c0.29,0.282,0.63,0.504,1.021,0.666
		c0.39,0.16,0.818,0.241,1.284,0.241c0.651,0,1.251-0.129,1.799-0.387s0.994-0.612,1.337-1.063l1.396,1.311
		c-0.187,0.279-0.426,0.55-0.72,0.811c-0.294,0.262-0.638,0.494-1.031,0.699c-0.394,0.203-0.836,0.368-1.327,0.494
		C218.843,529.951,218.308,530.014,217.728,530.014z M217.417,520.034c-0.358,0-0.691,0.064-0.999,0.193
		c-0.308,0.129-0.584,0.317-0.827,0.563c-0.244,0.248-0.45,0.549-0.618,0.902c-0.168,0.355-0.289,0.758-0.36,1.209h5.446v-0.193
		c-0.021-0.344-0.088-0.675-0.199-0.994c-0.111-0.318-0.274-0.603-0.489-0.854s-0.485-0.451-0.811-0.602
		C218.234,520.109,217.853,520.034,217.417,520.034z"/>
	<path d="M230.125,525.147l0.44,1.396l3.266-8.368h2.847l-5.887,13.385c-0.129,0.294-0.297,0.61-0.505,0.951
		c-0.208,0.34-0.464,0.656-0.768,0.95c-0.305,0.294-0.668,0.539-1.09,0.735c-0.423,0.197-0.917,0.296-1.482,0.296
		c-0.236,0-0.475-0.02-0.714-0.06c-0.24-0.039-0.453-0.084-0.639-0.134l0.365-1.998c0.05,0,0.118,0.002,0.204,0.005
		c0.086,0.004,0.175,0.01,0.269,0.017c0.093,0.007,0.181,0.013,0.263,0.017c0.082,0.003,0.148,0.005,0.199,0.005
		c0.25,0,0.474-0.073,0.671-0.22c0.197-0.147,0.371-0.315,0.521-0.506c0.15-0.189,0.274-0.375,0.371-0.559
		c0.097-0.182,0.167-0.306,0.209-0.37l0.763-1.439l-4.941-11.075h2.836L230.125,525.147z"/>
	<path d="M259.44,526.168h-4.888l-1.074,3.631h-2.664l5.081-15.641h2.267l4.984,15.641h-2.653L259.44,526.168z M255.208,523.966
		h3.588l-1.772-6.134L255.208,523.966z"/>
	<path d="M267.754,511.784h4.598v21.484h-4.598v-2.009h2.095v-17.456h-2.095V511.784z"/>
	<path d="M70.324,564.188c0,0.924-0.118,1.811-0.354,2.658c-0.236,0.85-0.589,1.598-1.058,2.246
		c-0.469,0.647-1.057,1.163-1.762,1.547c-0.706,0.383-1.531,0.574-2.476,0.574c-0.938,0-1.755-0.193-2.449-0.58
		c-0.695-0.387-1.273-0.904-1.735-1.553c-0.462-0.647-0.81-1.395-1.042-2.239c-0.233-0.845-0.349-1.729-0.349-2.653v-1.998
		c0-0.616,0.052-1.218,0.156-1.805c0.104-0.587,0.258-1.141,0.462-1.66c0.204-0.519,0.458-0.998,0.763-1.439
		c0.304-0.439,0.662-0.817,1.074-1.133c0.412-0.315,0.877-0.562,1.396-0.741c0.519-0.179,1.09-0.269,1.713-0.269
		c0.945,0,1.771,0.193,2.476,0.58c0.705,0.387,1.294,0.904,1.767,1.553c0.473,0.647,0.827,1.397,1.063,2.25s0.354,1.74,0.354,2.664
		V564.188z M67.735,562.168c-0.007-0.587-0.061-1.171-0.161-1.751c-0.101-0.58-0.269-1.098-0.505-1.552
		c-0.236-0.455-0.55-0.824-0.94-1.107c-0.391-0.282-0.879-0.424-1.466-0.424c-0.58,0-1.062,0.142-1.445,0.424
		c-0.383,0.283-0.688,0.654-0.913,1.112s-0.383,0.976-0.473,1.552c-0.09,0.577-0.138,1.159-0.145,1.746v2.02
		c0.007,0.587,0.057,1.169,0.15,1.746c0.093,0.576,0.252,1.096,0.478,1.557c0.226,0.463,0.53,0.837,0.913,1.123
		c0.383,0.286,0.865,0.43,1.445,0.43c0.587,0,1.076-0.144,1.466-0.43c0.39-0.286,0.704-0.659,0.94-1.117s0.403-0.978,0.5-1.558
		s0.148-1.164,0.156-1.751V562.168z"/>
	<path d="M75.695,565.004v5.994h-2.578v-15.641h5.231c0.78,0.007,1.502,0.123,2.165,0.35c0.662,0.225,1.233,0.547,1.713,0.967
		c0.479,0.418,0.854,0.927,1.123,1.525c0.269,0.598,0.403,1.272,0.403,2.024c0,0.73-0.134,1.39-0.403,1.977
		s-0.643,1.089-1.123,1.504c-0.48,0.415-1.051,0.734-1.713,0.956c-0.663,0.222-1.384,0.337-2.165,0.344H75.695z M75.695,562.92
		h2.653c0.437,0,0.827-0.066,1.171-0.199c0.344-0.132,0.637-0.316,0.881-0.553c0.243-0.236,0.43-0.52,0.559-0.849
		s0.193-0.688,0.193-1.074c0-0.408-0.064-0.784-0.193-1.128s-0.315-0.639-0.559-0.887c-0.244-0.246-0.537-0.438-0.881-0.574
		s-0.734-0.208-1.171-0.215h-2.653V562.92z"/>
	<path d="M95.998,573.018h-9.861v-2.02h9.861V573.018z"/>
	<path d="M108.491,563.983h-6.435v4.909h7.53v2.105H99.468v-15.641h10.044v2.127h-7.455v4.415h6.435V563.983z"/>
	<path d="M122.649,570.998h-2.6l-5.092-10.764l-0.011,10.764h-2.61v-15.641h2.61l5.07,10.731l0.021-10.731h2.61V570.998z"/>
	<path d="M125.604,570.998v-15.641h3.824c1.074,0.007,2.039,0.187,2.895,0.537c0.855,0.351,1.583,0.845,2.181,1.482
		c0.598,0.638,1.058,1.398,1.38,2.283c0.322,0.884,0.487,1.863,0.494,2.938v1.182c-0.007,1.074-0.172,2.054-0.494,2.938
		c-0.322,0.885-0.781,1.645-1.375,2.277c-0.595,0.635-1.314,1.127-2.159,1.478c-0.845,0.351-1.794,0.526-2.847,0.526H125.604z
		 M128.225,557.441v11.483h1.278c0.709-0.007,1.328-0.134,1.858-0.382c0.53-0.246,0.972-0.594,1.327-1.041
		c0.354-0.448,0.619-0.987,0.795-1.617c0.175-0.63,0.267-1.332,0.274-2.105v-1.203c-0.007-0.752-0.099-1.439-0.274-2.062
		c-0.176-0.623-0.442-1.162-0.8-1.617c-0.358-0.454-0.808-0.809-1.348-1.062c-0.541-0.255-1.176-0.386-1.907-0.393H128.225z"/>
	<path d="M139.278,555.357h9.303v2.138h-3.384v11.376h3.384v2.127h-9.303v-2.127h3.309v-11.376h-3.309V555.357z"/>
	<path d="M161.504,564.338h-6.563v6.66h-2.6v-15.641h10.13v2.127h-7.53v4.737h6.563V564.338z"/>
	<path d="M70.324,605.387c0,0.924-0.118,1.811-0.354,2.658c-0.236,0.85-0.589,1.598-1.058,2.246
		c-0.469,0.647-1.057,1.163-1.762,1.547c-0.706,0.383-1.531,0.574-2.476,0.574c-0.938,0-1.755-0.193-2.449-0.58
		c-0.695-0.387-1.273-0.904-1.735-1.553c-0.462-0.647-0.81-1.395-1.042-2.239c-0.233-0.845-0.349-1.729-0.349-2.653v-1.998
		c0-0.616,0.052-1.218,0.156-1.805c0.104-0.587,0.258-1.141,0.462-1.66c0.204-0.519,0.458-0.998,0.763-1.439
		c0.304-0.439,0.662-0.817,1.074-1.133c0.412-0.315,0.877-0.562,1.396-0.741c0.519-0.179,1.09-0.269,1.713-0.269
		c0.945,0,1.771,0.193,2.476,0.58c0.705,0.387,1.294,0.904,1.767,1.553c0.473,0.647,0.827,1.397,1.063,2.25s0.354,1.74,0.354,2.664
		V605.387z M67.735,603.367c-0.007-0.587-0.061-1.171-0.161-1.751c-0.101-0.58-0.269-1.098-0.505-1.552
		c-0.236-0.455-0.55-0.824-0.94-1.107c-0.391-0.282-0.879-0.424-1.466-0.424c-0.58,0-1.062,0.142-1.445,0.424
		c-0.383,0.283-0.688,0.654-0.913,1.112s-0.383,0.976-0.473,1.552c-0.09,0.577-0.138,1.159-0.145,1.746v2.02
		c0.007,0.587,0.057,1.169,0.15,1.746c0.093,0.576,0.252,1.096,0.478,1.557c0.226,0.463,0.53,0.837,0.913,1.123
		c0.383,0.286,0.865,0.43,1.445,0.43c0.587,0,1.076-0.144,1.466-0.43c0.39-0.286,0.704-0.659,0.94-1.117s0.403-0.978,0.5-1.558
		s0.148-1.164,0.156-1.751V603.367z"/>
	<path d="M75.695,606.203v5.994h-2.578v-15.641h5.231c0.78,0.007,1.502,0.123,2.165,0.35c0.662,0.225,1.233,0.547,1.713,0.967
		c0.479,0.418,0.854,0.927,1.123,1.525c0.269,0.598,0.403,1.272,0.403,2.024c0,0.73-0.134,1.39-0.403,1.977
		s-0.643,1.089-1.123,1.504c-0.48,0.415-1.051,0.734-1.713,0.956c-0.663,0.222-1.384,0.337-2.165,0.344H75.695z M75.695,604.119
		h2.653c0.437,0,0.827-0.066,1.171-0.199c0.344-0.132,0.637-0.316,0.881-0.553c0.243-0.236,0.43-0.52,0.559-0.849
		s0.193-0.688,0.193-1.074c0-0.408-0.064-0.784-0.193-1.128s-0.315-0.639-0.559-0.887c-0.244-0.246-0.537-0.438-0.881-0.574
		s-0.734-0.208-1.171-0.215h-2.653V604.119z"/>
	<path d="M95.998,614.217h-9.861v-2.02h9.861V614.217z"/>
	<path d="M109.888,607.396c-0.072,0.752-0.251,1.438-0.537,2.058c-0.287,0.619-0.666,1.148-1.139,1.59
		c-0.473,0.439-1.03,0.78-1.67,1.02c-0.641,0.24-1.355,0.36-2.143,0.36c-0.953,0-1.783-0.185-2.492-0.554
		c-0.709-0.368-1.3-0.868-1.772-1.498s-0.827-1.368-1.063-2.213s-0.358-1.747-0.365-2.707v-2.138
		c0.007-0.952,0.132-1.853,0.376-2.702c0.243-0.848,0.603-1.59,1.08-2.223c0.476-0.635,1.069-1.136,1.778-1.504
		c0.709-0.369,1.532-0.554,2.471-0.554c0.823,0,1.558,0.122,2.202,0.365s1.196,0.587,1.654,1.031
		c0.458,0.444,0.823,0.984,1.096,1.622c0.272,0.638,0.447,1.347,0.526,2.127h-2.578c-0.043-0.458-0.131-0.875-0.263-1.252
		c-0.133-0.375-0.313-0.697-0.542-0.967c-0.229-0.268-0.518-0.474-0.865-0.617c-0.348-0.144-0.757-0.215-1.23-0.215
		c-0.58,0-1.067,0.133-1.461,0.397c-0.394,0.265-0.713,0.621-0.956,1.069c-0.244,0.447-0.417,0.965-0.521,1.552
		c-0.104,0.587-0.156,1.203-0.156,1.848v2.159c0,0.673,0.052,1.305,0.156,1.896c0.104,0.59,0.274,1.107,0.51,1.552
		s0.551,0.795,0.945,1.053c0.394,0.258,0.884,0.387,1.472,0.387c0.902,0,1.59-0.256,2.062-0.769
		c0.473-0.512,0.752-1.236,0.838-2.175H109.888z"/>
	<path d="M122.66,612.197h-2.514v-6.982h-5.317v6.982h-2.503v-15.641h2.503v6.542h5.317v-6.542h2.514V612.197z"/>
	<path d="M134.896,605.183h-6.435v4.909h7.53v2.105h-10.119v-15.641h10.044v2.127h-7.455v4.415h6.435V605.183z"/>
	<path d="M149.494,607.396c-0.072,0.752-0.251,1.438-0.537,2.058c-0.287,0.619-0.666,1.148-1.139,1.59
		c-0.473,0.439-1.03,0.78-1.67,1.02c-0.641,0.24-1.355,0.36-2.143,0.36c-0.953,0-1.783-0.185-2.492-0.554
		c-0.709-0.368-1.3-0.868-1.772-1.498s-0.827-1.368-1.063-2.213s-0.358-1.747-0.365-2.707v-2.138
		c0.007-0.952,0.132-1.853,0.376-2.702c0.243-0.848,0.603-1.59,1.08-2.223c0.476-0.635,1.069-1.136,1.778-1.504
		c0.709-0.369,1.532-0.554,2.471-0.554c0.823,0,1.558,0.122,2.202,0.365s1.196,0.587,1.654,1.031
		c0.458,0.444,0.823,0.984,1.096,1.622c0.272,0.638,0.447,1.347,0.526,2.127h-2.578c-0.043-0.458-0.131-0.875-0.263-1.252
		c-0.133-0.375-0.313-0.697-0.542-0.967c-0.229-0.268-0.518-0.474-0.865-0.617c-0.348-0.144-0.757-0.215-1.23-0.215
		c-0.58,0-1.067,0.133-1.461,0.397c-0.394,0.265-0.713,0.621-0.956,1.069c-0.244,0.447-0.417,0.965-0.521,1.552
		c-0.104,0.587-0.156,1.203-0.156,1.848v2.159c0,0.673,0.052,1.305,0.156,1.896c0.104,0.59,0.274,1.107,0.51,1.552
		s0.551,0.795,0.945,1.053c0.394,0.258,0.884,0.387,1.472,0.387c0.902,0,1.59-0.256,2.062-0.769
		c0.473-0.512,0.752-1.236,0.838-2.175H149.494z"/>
	<path d="M156.401,605.397l-1.676,1.88v4.92h-2.61v-15.641h2.61v7.326l1.429-1.858l4.114-5.468h3.147l-5.317,6.864l5.586,8.776
		h-3.094L156.401,605.397z"/>
	<path d="M173.46,608.169c0-0.372-0.077-0.7-0.231-0.983c-0.154-0.282-0.373-0.531-0.655-0.746c-0.283-0.215-0.62-0.402-1.01-0.564
		c-0.391-0.16-0.815-0.31-1.273-0.445c-0.616-0.179-1.223-0.401-1.821-0.666c-0.598-0.265-1.132-0.589-1.601-0.973
		c-0.469-0.383-0.849-0.83-1.139-1.342c-0.29-0.513-0.435-1.105-0.435-1.778s0.145-1.276,0.435-1.81
		c0.29-0.534,0.678-0.987,1.166-1.359c0.487-0.372,1.053-0.659,1.697-0.859s1.317-0.301,2.02-0.301c0.752,0,1.456,0.116,2.111,0.35
		c0.655,0.232,1.228,0.559,1.719,0.977c0.49,0.42,0.879,0.921,1.166,1.504c0.286,0.584,0.433,1.23,0.44,1.939h-2.578
		c-0.036-0.394-0.12-0.754-0.252-1.08c-0.133-0.325-0.319-0.606-0.559-0.843c-0.24-0.236-0.532-0.419-0.875-0.548
		s-0.741-0.193-1.192-0.193c-0.387,0-0.745,0.05-1.074,0.15c-0.33,0.101-0.614,0.247-0.854,0.44
		c-0.24,0.193-0.428,0.426-0.564,0.698c-0.136,0.272-0.204,0.58-0.204,0.924c0,0.365,0.093,0.682,0.279,0.951
		c0.186,0.268,0.43,0.503,0.73,0.703s0.646,0.374,1.037,0.521c0.39,0.146,0.796,0.28,1.219,0.402
		c0.651,0.193,1.274,0.432,1.869,0.715c0.594,0.282,1.117,0.623,1.568,1.02c0.451,0.398,0.809,0.858,1.074,1.381
		c0.265,0.522,0.397,1.121,0.397,1.794c0,0.694-0.147,1.307-0.44,1.837c-0.294,0.53-0.688,0.974-1.182,1.332
		s-1.067,0.629-1.719,0.811c-0.652,0.184-1.332,0.274-2.041,0.274c-0.48,0-0.956-0.047-1.429-0.14s-0.926-0.232-1.359-0.419
		c-0.434-0.187-0.836-0.417-1.208-0.692c-0.373-0.276-0.697-0.595-0.972-0.957c-0.276-0.361-0.493-0.766-0.65-1.213
		c-0.158-0.448-0.24-0.94-0.247-1.478h2.589c0.036,0.473,0.14,0.885,0.312,1.235s0.401,0.643,0.688,0.875
		c0.286,0.233,0.621,0.408,1.004,0.527c0.383,0.117,0.807,0.177,1.273,0.177c0.387,0,0.748-0.047,1.085-0.14
		c0.336-0.093,0.63-0.23,0.881-0.414c0.25-0.182,0.447-0.408,0.591-0.676C173.388,608.818,173.46,608.513,173.46,608.169z"/>
	<path d="M178.885,596.557h9.303v2.138h-3.384v11.376h3.384v2.127h-9.303v-2.127h3.309v-11.376h-3.309V596.557z"/>
	<path d="M202.238,610.242c-0.265,0.315-0.577,0.605-0.935,0.87c-0.358,0.265-0.759,0.494-1.203,0.688
		c-0.444,0.193-0.926,0.344-1.445,0.451c-0.52,0.107-1.073,0.161-1.66,0.161c-0.938,0-1.769-0.183-2.492-0.548
		c-0.724-0.365-1.334-0.864-1.832-1.499c-0.498-0.633-0.877-1.38-1.139-2.239c-0.262-0.859-0.396-1.783-0.403-2.771v-1.934
		c0-0.988,0.129-1.912,0.387-2.771s0.628-1.607,1.112-2.245s1.076-1.141,1.778-1.51c0.702-0.368,1.504-0.553,2.406-0.553
		c0.809,0,1.532,0.111,2.17,0.333c0.637,0.222,1.185,0.542,1.644,0.962c0.458,0.418,0.822,0.929,1.09,1.53s0.438,1.274,0.51,2.02
		h-2.535c-0.064-0.423-0.165-0.802-0.301-1.139c-0.136-0.337-0.319-0.623-0.548-0.859c-0.229-0.236-0.507-0.417-0.833-0.542
		c-0.326-0.126-0.711-0.188-1.155-0.188c-0.544,0-1.012,0.134-1.402,0.403c-0.391,0.268-0.714,0.63-0.972,1.084
		c-0.258,0.455-0.448,0.981-0.569,1.58c-0.122,0.598-0.187,1.223-0.193,1.874v1.955c0.007,0.651,0.073,1.274,0.199,1.869
		c0.125,0.595,0.322,1.119,0.591,1.573c0.269,0.455,0.614,0.818,1.037,1.091c0.422,0.272,0.931,0.412,1.525,0.419
		c0.243,0,0.494-0.016,0.752-0.049c0.258-0.031,0.503-0.084,0.736-0.155c0.232-0.071,0.446-0.163,0.639-0.274
		c0.193-0.11,0.351-0.248,0.473-0.413l0.021-3.126h-2.825v-2.009h5.35L202.238,610.242z"/>
</g>
<g>
	<path fill="none" stroke="#000000" stroke-miterlimit="10" d="M59,339.5h242.838c5.314,0,9.662,4.348,9.662,9.663v262.174
		c0,5.314-4.347,10.163-9.662,10.163H59"/>
</g>
<g>
	<rect x="393.052" y="391.16" fill="none" width="338.676" height="33.572"/>
	<path d="M429.465,402.961h-4.619l-1.68,3.398h-3.125l7.48-14.336h3.643l1.436,14.336h-2.9L429.465,402.961z M429.319,400.422
		l-0.254-3.418c-0.065-0.853-0.098-1.676-0.098-2.471v-0.352c-0.286,0.781-0.642,1.608-1.064,2.48l-1.836,3.76H429.319z"/>
	<path d="M433.362,411.164c-0.677,0-1.243-0.081-1.699-0.244v-2.363c0.397,0.137,0.771,0.205,1.123,0.205
		c0.397,0,0.745-0.13,1.045-0.391c0.3-0.26,0.511-0.684,0.635-1.27l1.992-9.424h-1.592l0.293-1.416l1.787-0.82l0.176-0.82
		c0.267-1.236,0.718-2.14,1.353-2.709c0.635-0.57,1.525-0.855,2.671-0.855c0.853,0,1.618,0.16,2.295,0.479l-0.781,2.188
		c-0.449-0.201-0.882-0.303-1.299-0.303c-0.371,0-0.671,0.131-0.898,0.391c-0.228,0.261-0.381,0.603-0.459,1.025l-0.117,0.605h2.139
		l-0.479,2.236h-2.148l-2.1,9.863C436.796,409.957,435.484,411.164,433.362,411.164z"/>
	<path d="M446.282,404.182c0.423,0,0.95-0.113,1.582-0.342v2.197c-0.723,0.346-1.589,0.518-2.598,0.518
		c-0.977,0-1.694-0.205-2.153-0.615s-0.688-1.045-0.688-1.904c0-0.325,0.039-0.689,0.117-1.094l1.123-5.264h-1.484l0.283-1.436
		l1.914-0.82l1.289-2.305h1.895l-0.479,2.324h2.764l-0.488,2.236h-2.754l-1.123,5.264c-0.039,0.195-0.059,0.368-0.059,0.518
		C445.422,403.941,445.708,404.182,446.282,404.182z"/>
	<path d="M454.661,406.555c-1.367,0-2.429-0.367-3.184-1.104c-0.755-0.735-1.133-1.773-1.133-3.115c0-1.348,0.269-2.576,0.806-3.686
		c0.537-1.11,1.265-1.957,2.183-2.539c0.918-0.583,1.956-0.875,3.115-0.875c1.152,0,2.051,0.266,2.695,0.797
		c0.645,0.53,0.967,1.258,0.967,2.182c0,1.218-0.544,2.157-1.631,2.818c-1.087,0.66-2.64,0.99-4.658,0.99h-0.498l-0.02,0.205v0.195
		c0,0.593,0.168,1.061,0.503,1.402s0.815,0.512,1.44,0.512c0.566,0,1.081-0.062,1.543-0.186c0.462-0.123,1.022-0.342,1.68-0.654
		v2.217C457.349,406.275,456.08,406.555,454.661,406.555z M456.262,397.355c-0.573,0-1.113,0.261-1.621,0.781
		c-0.508,0.521-0.84,1.156-0.996,1.904h0.439c1.009,0,1.795-0.157,2.358-0.473c0.563-0.316,0.845-0.744,0.845-1.285
		C457.288,397.665,456.946,397.355,456.262,397.355z"/>
	<path d="M468.831,395.236c0.384,0,0.696,0.036,0.938,0.107l-0.645,2.832c-0.293-0.104-0.618-0.156-0.977-0.156
		c-0.755,0-1.418,0.299-1.987,0.895s-0.975,1.449-1.216,2.562l-1.035,4.883h-2.939l2.314-10.918h2.246l-0.205,2.021h0.059
		C466.34,395.979,467.49,395.236,468.831,395.236z"/>
	<path d="M478.186,406.555c-0.957,0-1.711-0.348-2.261-1.045c-0.55-0.696-0.825-1.673-0.825-2.93c0-1.275,0.232-2.494,0.698-3.656
		s1.079-2.067,1.841-2.715c0.762-0.648,1.602-0.973,2.52-0.973c0.534,0,0.994,0.121,1.382,0.361c0.388,0.241,0.754,0.654,1.099,1.24
		h0.078l0.02-0.273c0.039-0.716,0.12-1.351,0.244-1.904l0.742-3.496h2.939l-3.223,15.195h-2.236l0.137-1.416h-0.039
		c-0.462,0.566-0.945,0.977-1.45,1.23S478.792,406.555,478.186,406.555z M479.417,404.182c0.43,0,0.848-0.223,1.255-0.668
		c0.407-0.446,0.734-1.041,0.981-1.783s0.371-1.539,0.371-2.393c0-0.521-0.122-0.938-0.366-1.25s-0.578-0.469-1.001-0.469
		c-0.442,0-0.864,0.234-1.265,0.703s-0.72,1.088-0.957,1.855c-0.237,0.769-0.356,1.53-0.356,2.285
		C478.079,403.609,478.525,404.182,479.417,404.182z"/>
	<path d="M491.301,406.555c-1.367,0-2.429-0.367-3.184-1.104c-0.755-0.735-1.133-1.773-1.133-3.115c0-1.348,0.269-2.576,0.806-3.686
		c0.537-1.11,1.265-1.957,2.183-2.539c0.918-0.583,1.956-0.875,3.115-0.875c1.152,0,2.051,0.266,2.695,0.797
		c0.645,0.53,0.967,1.258,0.967,2.182c0,1.218-0.544,2.157-1.631,2.818c-1.087,0.66-2.64,0.99-4.658,0.99h-0.498l-0.02,0.205v0.195
		c0,0.593,0.168,1.061,0.503,1.402s0.815,0.512,1.44,0.512c0.566,0,1.081-0.062,1.543-0.186c0.462-0.123,1.022-0.342,1.68-0.654
		v2.217C493.99,406.275,492.72,406.555,491.301,406.555z M492.903,397.355c-0.573,0-1.113,0.261-1.621,0.781
		c-0.508,0.521-0.84,1.156-0.996,1.904h0.439c1.009,0,1.795-0.157,2.358-0.473c0.563-0.316,0.845-0.744,0.845-1.285
		C493.928,397.665,493.586,397.355,492.903,397.355z"/>
	<path d="M500.549,406.359h-2.939l3.223-15.195h2.939L500.549,406.359z"/>
	<path d="M507.151,406.555c-0.957,0-1.711-0.346-2.261-1.039s-0.825-1.666-0.825-2.916c0-1.289,0.234-2.518,0.703-3.686
		c0.469-1.169,1.084-2.074,1.846-2.715c0.762-0.642,1.599-0.963,2.51-0.963c0.632,0,1.177,0.137,1.636,0.41s0.815,0.671,1.069,1.191
		h0.078l0.557-1.396h2.266l-2.324,10.918h-2.236l0.137-1.416h-0.039C509.394,406.018,508.355,406.555,507.151,406.555z
		 M508.303,404.182c0.449,0,0.882-0.218,1.299-0.654c0.417-0.436,0.752-1.026,1.006-1.771c0.254-0.746,0.381-1.591,0.381-2.535
		c0-0.462-0.125-0.844-0.376-1.146s-0.581-0.455-0.991-0.455c-0.442,0-0.864,0.234-1.265,0.703s-0.72,1.088-0.957,1.855
		c-0.237,0.769-0.356,1.53-0.356,2.285c0,0.573,0.109,1.003,0.327,1.289C507.588,404.039,507.9,404.182,508.303,404.182z"/>
	<path d="M516.067,395.441h2.881l0.547,5.059c0.091,0.795,0.137,1.748,0.137,2.861h0.059c0.13-0.332,0.273-0.721,0.43-1.166
		c0.156-0.446,0.368-0.946,0.635-1.5l2.539-5.254h3.193l-6.641,12.48c-1.152,2.162-2.725,3.242-4.717,3.242
		c-0.586,0-1.064-0.062-1.436-0.186v-2.344c0.442,0.085,0.82,0.127,1.133,0.127c0.547,0,1.027-0.156,1.44-0.469
		s0.796-0.797,1.147-1.455l0.254-0.479L516.067,395.441z"/>
	<path d="M529.133,404.035l0.078,0.225c-0.769,1.66-1.621,3.22-2.559,4.678h-2.197c0.481-1.087,1.113-2.721,1.895-4.902H529.133z"/>
	<path d="M544.299,402.756c0,1.225-0.405,2.164-1.216,2.818s-1.938,0.98-3.384,0.98c-0.696,0-1.304-0.049-1.821-0.146
		s-1.001-0.26-1.45-0.488v-2.422c1.022,0.586,2.061,0.879,3.115,0.879c0.521,0,0.947-0.105,1.279-0.316
		c0.332-0.212,0.498-0.5,0.498-0.865c0-0.279-0.12-0.53-0.361-0.752c-0.241-0.221-0.667-0.501-1.279-0.84
		c-0.788-0.442-1.338-0.883-1.65-1.322s-0.469-0.959-0.469-1.559c0-1.106,0.359-1.964,1.079-2.572
		c0.72-0.609,1.746-0.914,3.081-0.914c1.309,0,2.49,0.31,3.545,0.928l-0.967,2.1c-0.911-0.547-1.751-0.82-2.52-0.82
		c-0.371,0-0.671,0.084-0.898,0.25s-0.342,0.389-0.342,0.668c0,0.254,0.104,0.478,0.312,0.67c0.208,0.191,0.599,0.434,1.172,0.727
		c0.801,0.41,1.38,0.856,1.738,1.338C544.121,401.578,544.299,402.131,544.299,402.756z"/>
	<path d="M553.606,395.236c0.95,0,1.701,0.351,2.251,1.051c0.55,0.699,0.825,1.678,0.825,2.934c0,1.244-0.223,2.44-0.669,3.59
		c-0.446,1.148-1.057,2.061-1.831,2.734s-1.628,1.01-2.559,1.01c-0.54,0-1.006-0.12-1.396-0.361c-0.391-0.24-0.752-0.65-1.084-1.23
		h-0.078c-0.078,1.035-0.218,1.996-0.42,2.881l-0.703,3.32h-2.939l3.34-15.723h2.246l-0.166,1.66h0.088
		C551.409,395.858,552.441,395.236,553.606,395.236z M552.424,397.619c-0.442,0-0.871,0.221-1.284,0.66s-0.745,1.025-0.996,1.758
		s-0.376,1.541-0.376,2.426c0,0.521,0.12,0.938,0.361,1.25s0.573,0.469,0.996,0.469c0.437,0,0.853-0.225,1.25-0.674
		s0.718-1.065,0.962-1.85c0.244-0.785,0.366-1.559,0.366-2.32C553.704,398.192,553.277,397.619,552.424,397.619z"/>
	<path d="M562.766,406.555c-1.367,0-2.429-0.367-3.184-1.104c-0.755-0.735-1.133-1.773-1.133-3.115c0-1.348,0.269-2.576,0.806-3.686
		c0.537-1.11,1.265-1.957,2.183-2.539c0.918-0.583,1.956-0.875,3.115-0.875c1.152,0,2.051,0.266,2.695,0.797
		c0.645,0.53,0.967,1.258,0.967,2.182c0,1.218-0.544,2.157-1.631,2.818c-1.087,0.66-2.64,0.99-4.658,0.99h-0.498l-0.02,0.205v0.195
		c0,0.593,0.168,1.061,0.503,1.402s0.815,0.512,1.44,0.512c0.566,0,1.081-0.062,1.543-0.186c0.462-0.123,1.022-0.342,1.68-0.654
		v2.217C565.455,406.275,564.185,406.555,562.766,406.555z M564.368,397.355c-0.573,0-1.113,0.261-1.621,0.781
		c-0.508,0.521-0.84,1.156-0.996,1.904h0.439c1.009,0,1.795-0.157,2.358-0.473c0.563-0.316,0.845-0.744,0.845-1.285
		C565.393,397.665,565.051,397.355,564.368,397.355z"/>
	<path d="M578.254,406.359h-2.939l1.338-6.377c0.104-0.442,0.156-0.83,0.156-1.162c0-0.801-0.352-1.201-1.055-1.201
		c-0.599,0-1.143,0.371-1.631,1.113s-0.872,1.777-1.152,3.105l-0.957,4.521h-2.939l2.314-10.918h2.246l-0.205,2.021h0.059
		c0.95-1.484,2.106-2.227,3.467-2.227c0.898,0,1.594,0.272,2.085,0.816c0.491,0.543,0.737,1.319,0.737,2.328
		c0,0.476-0.075,1.062-0.225,1.758L578.254,406.359z"/>
	<path d="M584.758,406.555c-0.957,0-1.711-0.348-2.261-1.045c-0.55-0.696-0.825-1.673-0.825-2.93c0-1.275,0.232-2.494,0.698-3.656
		s1.079-2.067,1.841-2.715c0.762-0.648,1.602-0.973,2.52-0.973c0.534,0,0.994,0.121,1.382,0.361c0.388,0.241,0.754,0.654,1.099,1.24
		h0.078l0.02-0.273c0.039-0.716,0.12-1.351,0.244-1.904l0.742-3.496h2.939l-3.223,15.195h-2.236l0.137-1.416h-0.039
		c-0.462,0.566-0.945,0.977-1.45,1.23S585.364,406.555,584.758,406.555z M585.989,404.182c0.43,0,0.848-0.223,1.255-0.668
		c0.407-0.446,0.734-1.041,0.981-1.783s0.371-1.539,0.371-2.393c0-0.521-0.122-0.938-0.366-1.25s-0.578-0.469-1.001-0.469
		c-0.442,0-0.864,0.234-1.265,0.703s-0.72,1.088-0.957,1.855c-0.237,0.769-0.356,1.53-0.356,2.285
		C584.651,403.609,585.097,404.182,585.989,404.182z"/>
	<path d="M596.643,406.555c-0.957,0-1.711-0.346-2.261-1.039s-0.825-1.666-0.825-2.916c0-1.289,0.234-2.518,0.703-3.686
		c0.469-1.169,1.084-2.074,1.846-2.715c0.762-0.642,1.599-0.963,2.51-0.963c0.632,0,1.177,0.137,1.636,0.41s0.815,0.671,1.069,1.191
		h0.078l0.557-1.396h2.266l-2.324,10.918h-2.236l0.137-1.416h-0.039C598.886,406.018,597.847,406.555,596.643,406.555z
		 M597.795,404.182c0.449,0,0.882-0.218,1.299-0.654c0.417-0.436,0.752-1.026,1.006-1.771c0.254-0.746,0.381-1.591,0.381-2.535
		c0-0.462-0.125-0.844-0.376-1.146s-0.581-0.455-0.991-0.455c-0.442,0-0.864,0.234-1.265,0.703s-0.72,1.088-0.957,1.855
		c-0.237,0.769-0.356,1.53-0.356,2.285c0,0.573,0.109,1.003,0.327,1.289C597.081,404.039,597.392,404.182,597.795,404.182z"/>
	<path d="M612.502,395.236c0.95,0,1.701,0.352,2.251,1.055s0.825,1.674,0.825,2.91c0,1.237-0.222,2.434-0.664,3.59
		c-0.442,1.155-1.052,2.071-1.826,2.748c-0.774,0.678-1.631,1.016-2.568,1.016c-1.263,0-2.161-0.53-2.695-1.592h-0.078l-0.566,1.396
		h-2.256l3.223-15.195h2.939l-0.605,2.812c-0.267,1.186-0.54,2.158-0.82,2.92h0.078c0.508-0.638,0.972-1.074,1.392-1.309
		S612.007,395.236,612.502,395.236z M611.321,397.619c-0.442,0-0.866,0.212-1.27,0.635c-0.403,0.424-0.735,1.012-0.996,1.764
		s-0.391,1.566-0.391,2.445c0,0.521,0.12,0.938,0.361,1.25s0.573,0.469,0.996,0.469c0.437,0,0.853-0.225,1.25-0.674
		s0.718-1.065,0.962-1.85c0.244-0.785,0.366-1.559,0.366-2.32C612.6,398.192,612.173,397.619,611.321,397.619z"/>
	<path d="M619.768,406.359h-2.939l3.223-15.195h2.939L619.768,406.359z"/>
	<path d="M627.6,406.555c-1.367,0-2.429-0.367-3.184-1.104c-0.755-0.735-1.133-1.773-1.133-3.115c0-1.348,0.269-2.576,0.806-3.686
		c0.537-1.11,1.265-1.957,2.183-2.539c0.918-0.583,1.956-0.875,3.115-0.875c1.152,0,2.051,0.266,2.695,0.797
		c0.645,0.53,0.967,1.258,0.967,2.182c0,1.218-0.544,2.157-1.631,2.818c-1.087,0.66-2.64,0.99-4.658,0.99h-0.498l-0.02,0.205v0.195
		c0,0.593,0.168,1.061,0.503,1.402s0.815,0.512,1.44,0.512c0.566,0,1.081-0.062,1.543-0.186c0.462-0.123,1.022-0.342,1.68-0.654
		v2.217C630.289,406.275,629.019,406.555,627.6,406.555z M629.202,397.355c-0.573,0-1.113,0.261-1.621,0.781
		c-0.508,0.521-0.84,1.156-0.996,1.904h0.439c1.009,0,1.795-0.157,2.358-0.473c0.563-0.316,0.845-0.744,0.845-1.285
		C630.227,397.665,629.885,397.355,629.202,397.355z"/>
	<path d="M647.102,397.961c-0.403,1.159-0.804,2.197-1.201,3.115l-2.275,5.283h-3.164l-0.498-10.918h2.744l0.039,4.834l-0.039,1.631
		l-0.068,1.67h0.039c0.039-0.13,0.085-0.265,0.137-0.404c0.052-0.141,0.218-0.585,0.498-1.334c0.28-0.748,0.43-1.136,0.449-1.162
		l2.256-5.234h3.203v5.234c0,0.925-0.032,1.892-0.098,2.9h0.059l0.273-0.781c0.476-1.354,0.784-2.193,0.928-2.52l2.139-4.834h2.998
		l-5.176,10.918h-3.223l-0.059-5.078c0-1.009,0.032-2.115,0.098-3.32H647.102z"/>
	<path d="M657.805,406.359h-2.939l2.314-10.918h2.939L657.805,406.359z M657.649,392.883c0-0.566,0.154-0.994,0.464-1.283
		c0.31-0.29,0.747-0.436,1.313-0.436c0.476,0,0.837,0.102,1.084,0.303c0.247,0.202,0.371,0.492,0.371,0.869
		c0,0.521-0.144,0.943-0.43,1.266s-0.729,0.482-1.328,0.482C658.14,394.084,657.649,393.684,657.649,392.883z"/>
	<path d="M665.461,404.182c0.423,0,0.95-0.113,1.582-0.342v2.197c-0.723,0.346-1.589,0.518-2.598,0.518
		c-0.977,0-1.694-0.205-2.153-0.615s-0.688-1.045-0.688-1.904c0-0.325,0.039-0.689,0.117-1.094l1.123-5.264h-1.484l0.283-1.436
		l1.914-0.82l1.289-2.305h1.895l-0.479,2.324h2.764l-0.488,2.236h-2.754l-1.123,5.264c-0.039,0.195-0.059,0.368-0.059,0.518
		C664.602,403.941,664.888,404.182,665.461,404.182z"/>
	<path d="M678.186,406.359h-2.939l1.338-6.377c0.104-0.442,0.156-0.83,0.156-1.162c0-0.801-0.352-1.201-1.055-1.201
		c-0.599,0-1.143,0.371-1.631,1.113s-0.872,1.777-1.152,3.105l-0.957,4.521h-2.939l3.223-15.195h2.939
		c-0.254,1.179-0.449,2.084-0.586,2.715c-0.137,0.632-0.417,1.638-0.84,3.018h0.078c0.403-0.501,0.853-0.902,1.348-1.205
		s1.067-0.455,1.719-0.455c0.898,0,1.594,0.272,2.085,0.816c0.491,0.543,0.737,1.319,0.737,2.328c0,0.476-0.075,1.062-0.225,1.758
		L678.186,406.359z"/>
	<path d="M680.969,405.236c0-0.586,0.174-1.055,0.522-1.406s0.838-0.527,1.47-0.527c0.442,0,0.798,0.124,1.064,0.371
		c0.268,0.248,0.4,0.596,0.4,1.045c0,0.566-0.178,1.025-0.537,1.377c-0.358,0.352-0.827,0.527-1.406,0.527
		c-0.476,0-0.847-0.121-1.113-0.365S680.969,405.673,680.969,405.236z"/>
	<path d="M686.672,405.236c0-0.586,0.174-1.055,0.523-1.406c0.348-0.352,0.838-0.527,1.469-0.527c0.443,0,0.799,0.124,1.064,0.371
		c0.268,0.248,0.4,0.596,0.4,1.045c0,0.566-0.178,1.025-0.537,1.377c-0.357,0.352-0.826,0.527-1.406,0.527
		c-0.475,0-0.846-0.121-1.113-0.365C686.807,406.014,686.672,405.673,686.672,405.236z"/>
	<path d="M692.375,405.236c0-0.586,0.174-1.055,0.523-1.406c0.348-0.352,0.838-0.527,1.469-0.527c0.443,0,0.799,0.124,1.064,0.371
		c0.268,0.248,0.4,0.596,0.4,1.045c0,0.566-0.178,1.025-0.537,1.377c-0.357,0.352-0.826,0.527-1.406,0.527
		c-0.475,0-0.846-0.121-1.113-0.365C692.51,406.014,692.375,405.673,692.375,405.236z"/>
	<path d="M698.078,405.236c0-0.586,0.174-1.055,0.523-1.406c0.348-0.352,0.838-0.527,1.469-0.527c0.443,0,0.799,0.124,1.064,0.371
		c0.268,0.248,0.4,0.596,0.4,1.045c0,0.566-0.178,1.025-0.537,1.377c-0.357,0.352-0.826,0.527-1.406,0.527
		c-0.475,0-0.846-0.121-1.113-0.365C698.213,406.014,698.078,405.673,698.078,405.236z"/>
</g>
<g>
	<g>
		<path fill="none" stroke="#000000" stroke-miterlimit="10" d="M312,483.5h33.5c5.5,0,10-5,10-10.5v-63c0-5.5,4.5-9.5,10-9.5H397"
			/>
		<g>
			<polygon points="404.104,400 394.155,404.065 396.516,400 394.155,395.936 			"/>
		</g>
	</g>
</g>
<g>
</g>
<g>
	<rect x="419.41" y="437.5" fill="none" width="209.4" height="144.605"/>
	<path fill="#E15218" d="M421.483,438.359h9.045v2.438h-3.051v10.774h3.051V454h-9.045v-2.428h2.976v-10.774h-2.976V438.359z"/>
	<path fill="#E15218" d="M436.833,442.377l0.183,1.611c0.415-0.58,0.92-1.029,1.515-1.348c0.594-0.318,1.253-0.479,1.977-0.479
		c0.587,0,1.124,0.086,1.611,0.258c0.487,0.172,0.908,0.445,1.262,0.822c0.354,0.375,0.63,0.859,0.827,1.449
		c0.197,0.592,0.295,1.31,0.295,2.154V454h-2.986v-7.111c0-0.458-0.052-0.836-0.156-1.133c-0.104-0.297-0.252-0.532-0.446-0.704
		s-0.426-0.292-0.698-0.36c-0.272-0.067-0.58-0.102-0.924-0.102c-0.509,0-0.942,0.102-1.3,0.307
		c-0.358,0.203-0.648,0.484-0.87,0.843V454h-2.997v-11.623H436.833z"/>
	<path fill="#E15218" d="M457.77,448.296c0,0.845-0.099,1.63-0.295,2.353c-0.197,0.724-0.487,1.348-0.87,1.875
		c-0.383,0.525-0.858,0.939-1.423,1.24c-0.566,0.301-1.214,0.451-1.944,0.451c-0.623,0-1.171-0.107-1.644-0.322
		s-0.885-0.516-1.235-0.902v5.479h-2.986v-16.092h2.761l0.107,1.139c0.358-0.43,0.78-0.763,1.268-0.999
		c0.487-0.236,1.056-0.354,1.708-0.354c0.737,0,1.389,0.142,1.955,0.424c0.565,0.283,1.042,0.685,1.429,1.203
		c0.387,0.52,0.678,1.143,0.875,1.869c0.197,0.728,0.295,1.531,0.295,2.412V448.296z M454.784,448.07
		c0-0.486-0.045-0.943-0.134-1.369c-0.09-0.426-0.229-0.795-0.419-1.107c-0.19-0.311-0.434-0.557-0.73-0.735
		c-0.297-0.179-0.657-0.269-1.08-0.269c-0.523,0-0.951,0.102-1.284,0.307c-0.333,0.203-0.593,0.492-0.779,0.864v4.855
		c0.186,0.365,0.446,0.657,0.779,0.876s0.768,0.327,1.305,0.327c0.422,0,0.782-0.093,1.08-0.279c0.297-0.187,0.539-0.44,0.725-0.763
		c0.186-0.322,0.322-0.696,0.408-1.123c0.086-0.426,0.129-0.879,0.129-1.358V448.07z"/>
	<path fill="#E15218" d="M467.943,452.367c-0.394,0.58-0.869,1.035-1.423,1.364c-0.555,0.329-1.162,0.494-1.821,0.494
		c-0.602,0-1.153-0.093-1.654-0.279c-0.501-0.187-0.931-0.481-1.289-0.886c-0.358-0.404-0.636-0.92-0.833-1.547
		c-0.197-0.627-0.295-1.381-0.295-2.262v-6.875h2.986v6.896c0,0.473,0.034,0.87,0.102,1.192c0.068,0.322,0.177,0.582,0.328,0.778
		c0.15,0.197,0.347,0.339,0.591,0.425c0.243,0.086,0.541,0.129,0.892,0.129c0.594,0,1.078-0.112,1.45-0.339
		c0.372-0.225,0.655-0.535,0.849-0.929v-8.153h2.997V454h-2.707L467.943,452.367z"/>
	<path fill="#E15218" d="M479.211,439.53v2.847h4.34v2.202h-4.34v4.995c0,0.423,0.048,0.775,0.145,1.059s0.234,0.508,0.414,0.676
		c0.179,0.169,0.396,0.289,0.65,0.36c0.254,0.071,0.539,0.107,0.854,0.107c0.229,0,0.463-0.011,0.704-0.032
		c0.24-0.021,0.469-0.049,0.688-0.08c0.218-0.033,0.422-0.066,0.612-0.103c0.189-0.036,0.353-0.071,0.489-0.107l0.29,2.052
		c-0.208,0.122-0.451,0.228-0.73,0.316c-0.279,0.09-0.577,0.164-0.892,0.221c-0.315,0.057-0.643,0.102-0.983,0.135
		c-0.34,0.031-0.675,0.048-1.004,0.048c-0.638,0-1.216-0.085-1.735-0.253c-0.52-0.168-0.963-0.43-1.332-0.783
		c-0.369-0.355-0.654-0.807-0.854-1.354c-0.201-0.549-0.301-1.205-0.301-1.972v-5.285h-2.653v-2.202h2.653v-2.847H479.211z"/>
	<path fill="#E15218" d="M508.151,449.918c0-0.279-0.048-0.541-0.145-0.784s-0.262-0.471-0.494-0.683
		c-0.233-0.211-0.537-0.404-0.913-0.58c-0.376-0.175-0.843-0.338-1.402-0.488c-0.681-0.186-1.331-0.419-1.95-0.698
		c-0.62-0.279-1.166-0.616-1.638-1.01s-0.851-0.853-1.133-1.375c-0.283-0.522-0.424-1.124-0.424-1.805
		c0-0.659,0.14-1.257,0.419-1.794s0.666-0.995,1.16-1.375c0.494-0.379,1.078-0.672,1.751-0.875c0.673-0.205,1.403-0.307,2.191-0.307
		c0.816,0,1.563,0.118,2.24,0.354s1.258,0.567,1.746,0.993c0.487,0.427,0.866,0.934,1.139,1.521
		c0.272,0.587,0.408,1.231,0.408,1.934h-2.943c-0.015-0.351-0.077-0.673-0.188-0.967c-0.111-0.294-0.276-0.546-0.494-0.757
		c-0.219-0.211-0.491-0.377-0.816-0.494c-0.326-0.119-0.708-0.178-1.144-0.178c-0.401,0-0.757,0.049-1.069,0.145
		c-0.312,0.098-0.575,0.233-0.79,0.408c-0.215,0.176-0.378,0.384-0.489,0.623c-0.111,0.24-0.167,0.5-0.167,0.779
		c0,0.294,0.073,0.559,0.22,0.795c0.146,0.236,0.36,0.449,0.639,0.639c0.279,0.19,0.618,0.364,1.015,0.521
		c0.397,0.158,0.847,0.305,1.348,0.44c0.716,0.208,1.375,0.462,1.977,0.763s1.119,0.657,1.552,1.068
		c0.433,0.412,0.77,0.881,1.01,1.408c0.24,0.525,0.36,1.111,0.36,1.756c0,0.688-0.138,1.299-0.414,1.832
		c-0.276,0.533-0.657,0.984-1.144,1.354c-0.487,0.369-1.067,0.648-1.74,0.838c-0.673,0.189-1.407,0.284-2.202,0.284
		c-0.494,0-0.987-0.045-1.477-0.134c-0.491-0.09-0.96-0.228-1.407-0.414c-0.448-0.186-0.865-0.419-1.251-0.698
		s-0.722-0.604-1.004-0.978c-0.283-0.372-0.505-0.795-0.666-1.268s-0.242-0.995-0.242-1.568h2.965
		c0.014,0.473,0.097,0.877,0.247,1.214s0.36,0.612,0.628,0.827s0.591,0.373,0.967,0.473c0.376,0.101,0.79,0.15,1.241,0.15
		c0.401,0,0.757-0.047,1.069-0.14s0.575-0.222,0.79-0.387s0.379-0.363,0.494-0.597C508.093,450.453,508.151,450.197,508.151,449.918
		z"/>
	<path fill="#E15218" d="M518.485,451.83c0.293,0,0.573-0.043,0.838-0.129c0.265-0.086,0.498-0.207,0.698-0.365
		c0.2-0.157,0.356-0.348,0.467-0.569c0.111-0.222,0.159-0.469,0.145-0.741h2.814c0.014,0.602-0.109,1.16-0.371,1.676
		c-0.262,0.516-0.618,0.96-1.069,1.332c-0.451,0.373-0.976,0.664-1.574,0.875c-0.598,0.211-1.23,0.317-1.896,0.317
		c-0.902,0-1.694-0.152-2.374-0.456c-0.681-0.305-1.248-0.722-1.703-1.252c-0.455-0.529-0.799-1.15-1.031-1.863
		c-0.233-0.713-0.349-1.478-0.349-2.294v-0.322c0-0.816,0.114-1.581,0.344-2.294c0.229-0.712,0.573-1.333,1.031-1.863
		c0.458-0.529,1.026-0.949,1.703-1.257s1.462-0.462,2.358-0.462c0.716,0,1.378,0.107,1.987,0.322
		c0.608,0.215,1.133,0.518,1.574,0.908s0.782,0.863,1.026,1.418c0.243,0.555,0.358,1.176,0.344,1.863h-2.814
		c0.014-0.286-0.029-0.559-0.129-0.816c-0.101-0.258-0.247-0.479-0.44-0.666c-0.193-0.186-0.426-0.334-0.698-0.445
		c-0.272-0.111-0.569-0.167-0.892-0.167c-0.473,0-0.863,0.097-1.171,0.29c-0.308,0.193-0.553,0.451-0.736,0.773
		s-0.312,0.691-0.387,1.106s-0.113,0.845-0.113,1.289v0.322c0,0.451,0.036,0.886,0.107,1.306c0.071,0.418,0.199,0.787,0.381,1.105
		c0.183,0.319,0.43,0.575,0.741,0.769S518.005,451.83,518.485,451.83z"/>
	<path fill="#E15218" d="M534.888,442.162c0.451,0,0.868,0.031,1.251,0.092c0.383,0.061,0.693,0.127,0.929,0.198l-0.44,2.976
		c-0.394-0.093-0.797-0.162-1.208-0.209c-0.412-0.047-0.804-0.07-1.176-0.07c-0.838,0-1.509,0.161-2.014,0.483
		s-0.883,0.784-1.133,1.386V454h-2.986v-11.623h2.782l0.14,1.901c0.473-0.659,1.038-1.177,1.697-1.552
		C533.388,442.35,534.107,442.162,534.888,442.162z"/>
	<path fill="#E15218" d="M540.539,442.377h6.327v9.195h3.147V454h-9.475v-2.428h3.309v-6.757h-3.309V442.377z M543.632,439.401
		c0-0.229,0.041-0.442,0.124-0.64c0.082-0.196,0.199-0.365,0.349-0.504c0.15-0.141,0.331-0.249,0.542-0.328
		c0.211-0.078,0.446-0.118,0.704-0.118c0.53,0,0.951,0.149,1.262,0.446s0.467,0.678,0.467,1.144s-0.156,0.847-0.467,1.144
		c-0.312,0.298-0.732,0.446-1.262,0.446c-0.258,0-0.493-0.039-0.704-0.118c-0.211-0.078-0.392-0.188-0.542-0.328
		c-0.15-0.139-0.267-0.307-0.349-0.504C543.673,439.844,543.632,439.631,543.632,439.401z"/>
	<path fill="#E15218" d="M563.387,448.296c0,0.845-0.099,1.63-0.295,2.353c-0.197,0.724-0.487,1.348-0.87,1.875
		c-0.383,0.525-0.858,0.939-1.423,1.24c-0.566,0.301-1.214,0.451-1.944,0.451c-0.623,0-1.171-0.107-1.644-0.322
		s-0.885-0.516-1.235-0.902v5.479h-2.986v-16.092h2.761l0.107,1.139c0.358-0.43,0.78-0.763,1.268-0.999
		c0.487-0.236,1.056-0.354,1.708-0.354c0.737,0,1.389,0.142,1.955,0.424c0.565,0.283,1.042,0.685,1.429,1.203
		c0.387,0.52,0.678,1.143,0.875,1.869c0.197,0.728,0.295,1.531,0.295,2.412V448.296z M560.401,448.07
		c0-0.486-0.045-0.943-0.134-1.369c-0.09-0.426-0.229-0.795-0.419-1.107c-0.19-0.311-0.434-0.557-0.73-0.735
		c-0.297-0.179-0.657-0.269-1.08-0.269c-0.523,0-0.951,0.102-1.284,0.307c-0.333,0.203-0.593,0.492-0.779,0.864v4.855
		c0.186,0.365,0.446,0.657,0.779,0.876s0.768,0.327,1.305,0.327c0.422,0,0.782-0.093,1.08-0.279c0.297-0.187,0.539-0.44,0.725-0.763
		c0.186-0.322,0.322-0.696,0.408-1.123c0.086-0.426,0.129-0.879,0.129-1.358V448.07z"/>
	<path fill="#E15218" d="M571.626,439.53v2.847h4.34v2.202h-4.34v4.995c0,0.423,0.048,0.775,0.145,1.059s0.234,0.508,0.414,0.676
		c0.179,0.169,0.396,0.289,0.65,0.36c0.254,0.071,0.539,0.107,0.854,0.107c0.229,0,0.463-0.011,0.704-0.032
		c0.24-0.021,0.469-0.049,0.688-0.08c0.218-0.033,0.422-0.066,0.612-0.103c0.189-0.036,0.353-0.071,0.489-0.107l0.29,2.052
		c-0.208,0.122-0.451,0.228-0.73,0.316c-0.279,0.09-0.577,0.164-0.892,0.221c-0.315,0.057-0.643,0.102-0.983,0.135
		c-0.34,0.031-0.675,0.048-1.004,0.048c-0.638,0-1.216-0.085-1.735-0.253c-0.52-0.168-0.963-0.43-1.332-0.783
		c-0.369-0.355-0.654-0.807-0.854-1.354c-0.201-0.549-0.301-1.205-0.301-1.972v-5.285h-2.653v-2.202h2.653v-2.847H571.626z"/>
	<path d="M429.131,491.171c0-0.372-0.077-0.7-0.231-0.983c-0.154-0.282-0.373-0.531-0.655-0.746c-0.283-0.215-0.62-0.402-1.01-0.564
		c-0.391-0.16-0.815-0.309-1.273-0.445c-0.616-0.179-1.223-0.4-1.821-0.666c-0.598-0.265-1.132-0.589-1.601-0.973
		c-0.469-0.383-0.849-0.83-1.139-1.342s-0.435-1.105-0.435-1.778s0.145-1.276,0.435-1.81s0.678-0.986,1.166-1.359
		c0.487-0.372,1.053-0.658,1.697-0.859c0.645-0.2,1.317-0.301,2.02-0.301c0.752,0,1.456,0.117,2.111,0.35s1.228,0.559,1.719,0.977
		c0.49,0.42,0.879,0.921,1.166,1.504c0.286,0.584,0.433,1.23,0.44,1.939h-2.578c-0.036-0.394-0.12-0.754-0.252-1.08
		c-0.133-0.325-0.319-0.606-0.559-0.843c-0.24-0.236-0.532-0.419-0.875-0.548s-0.741-0.193-1.192-0.193
		c-0.387,0-0.745,0.051-1.074,0.15c-0.33,0.101-0.614,0.247-0.854,0.44c-0.24,0.193-0.428,0.427-0.564,0.698
		c-0.136,0.272-0.204,0.58-0.204,0.924c0,0.365,0.093,0.682,0.279,0.951c0.186,0.268,0.43,0.503,0.73,0.703
		c0.301,0.201,0.646,0.375,1.037,0.521c0.39,0.146,0.796,0.281,1.219,0.402c0.651,0.193,1.274,0.432,1.869,0.715
		c0.594,0.283,1.117,0.623,1.568,1.02c0.451,0.398,0.809,0.858,1.074,1.381c0.265,0.523,0.397,1.121,0.397,1.794
		c0,0.694-0.147,1.308-0.44,1.837c-0.294,0.53-0.688,0.975-1.182,1.332c-0.494,0.358-1.067,0.629-1.719,0.811
		c-0.652,0.184-1.332,0.274-2.041,0.274c-0.48,0-0.956-0.047-1.429-0.14s-0.926-0.232-1.359-0.419
		c-0.434-0.187-0.836-0.417-1.208-0.692c-0.373-0.275-0.697-0.595-0.972-0.957c-0.276-0.361-0.493-0.766-0.65-1.213
		c-0.158-0.447-0.24-0.94-0.247-1.478h2.589c0.036,0.473,0.14,0.885,0.312,1.235c0.172,0.352,0.401,0.643,0.688,0.875
		c0.286,0.233,0.621,0.408,1.004,0.527c0.383,0.117,0.807,0.177,1.273,0.177c0.387,0,0.748-0.046,1.085-0.14
		c0.336-0.093,0.63-0.23,0.881-0.414c0.25-0.182,0.447-0.408,0.591-0.676C429.06,491.82,429.131,491.515,429.131,491.171z"/>
	<path d="M434.835,483.576h6.198v9.496h3.448v2.127h-9.646v-2.127h3.609v-7.358h-3.609V483.576z M438.23,480.568
		c0-0.4,0.129-0.732,0.387-0.994c0.258-0.261,0.619-0.392,1.085-0.392c0.473,0,0.839,0.131,1.101,0.392
		c0.261,0.262,0.392,0.594,0.392,0.994c0,0.401-0.131,0.732-0.392,0.994c-0.262,0.262-0.628,0.392-1.101,0.392
		c-0.466,0-0.827-0.13-1.085-0.392S438.23,480.97,438.23,480.568z"/>
	<path d="M447.146,489.302c0-0.881,0.109-1.687,0.328-2.417c0.218-0.73,0.532-1.357,0.94-1.88s0.9-0.927,1.477-1.214
		c0.576-0.286,1.223-0.43,1.939-0.43c0.694,0,1.296,0.118,1.805,0.354c0.508,0.236,0.945,0.577,1.311,1.021l0.107-1.16h2.331v11.312
		c0,0.78-0.129,1.474-0.387,2.079c-0.258,0.604-0.618,1.115-1.08,1.53s-1.015,0.731-1.66,0.95s-1.354,0.328-2.127,0.328
		c-0.315,0-0.671-0.034-1.069-0.102c-0.397-0.068-0.797-0.18-1.198-0.334c-0.401-0.154-0.784-0.354-1.149-0.602
		c-0.365-0.246-0.677-0.546-0.935-0.896l1.225-1.536c0.437,0.516,0.908,0.884,1.413,1.106c0.505,0.222,1.026,0.333,1.563,0.333
		c0.43,0,0.82-0.062,1.171-0.183c0.351-0.122,0.648-0.301,0.892-0.537c0.243-0.236,0.431-0.528,0.564-0.875
		c0.132-0.348,0.199-0.747,0.199-1.198v-0.784c-0.365,0.401-0.793,0.709-1.284,0.924c-0.491,0.215-1.062,0.322-1.713,0.322
		c-0.709,0-1.35-0.148-1.923-0.445c-0.573-0.297-1.063-0.707-1.472-1.23c-0.408-0.522-0.722-1.145-0.94-1.863
		c-0.219-0.721-0.328-1.502-0.328-2.348V489.302z M449.724,489.527c0,0.523,0.054,1.014,0.161,1.472s0.272,0.859,0.494,1.203
		c0.222,0.344,0.506,0.614,0.854,0.812c0.347,0.197,0.757,0.295,1.23,0.295c0.594,0,1.078-0.123,1.45-0.371
		c0.372-0.246,0.669-0.578,0.892-0.993v-5.135c-0.229-0.408-0.53-0.733-0.902-0.978c-0.373-0.243-0.845-0.365-1.418-0.365
		c-0.473,0-0.883,0.101-1.23,0.301c-0.348,0.201-0.634,0.477-0.859,0.827s-0.394,0.759-0.505,1.225
		c-0.111,0.466-0.167,0.96-0.167,1.482V489.527z"/>
	<path d="M463.001,483.576l0.161,1.611c0.422-0.58,0.933-1.029,1.531-1.348c0.598-0.318,1.262-0.479,1.993-0.479
		c0.594,0,1.137,0.086,1.627,0.258c0.49,0.172,0.913,0.44,1.268,0.806s0.63,0.838,0.827,1.418c0.197,0.58,0.295,1.278,0.295,2.095
		v7.262h-2.567v-7.219c0-0.479-0.056-0.881-0.167-1.203c-0.111-0.322-0.269-0.58-0.473-0.773s-0.453-0.331-0.747-0.414
		c-0.294-0.082-0.627-0.123-0.999-0.123c-0.566,0-1.058,0.125-1.477,0.376s-0.757,0.591-1.015,1.021v8.336h-2.578v-11.623H463.001z"
		/>
	<path d="M481.295,495.199c-0.072-0.143-0.131-0.312-0.177-0.505c-0.047-0.193-0.088-0.401-0.124-0.623
		c-0.179,0.187-0.381,0.36-0.607,0.521c-0.226,0.162-0.477,0.303-0.752,0.425c-0.276,0.122-0.573,0.218-0.892,0.29
		c-0.319,0.071-0.661,0.107-1.026,0.107c-0.616,0-1.173-0.088-1.67-0.264c-0.498-0.175-0.924-0.418-1.278-0.73
		c-0.354-0.311-0.628-0.678-0.822-1.101s-0.29-0.881-0.29-1.375c0-1.246,0.463-2.198,1.391-2.857
		c0.927-0.659,2.257-0.988,3.991-0.988h1.88v-0.763c0-0.615-0.208-1.104-0.623-1.467c-0.416-0.361-1.003-0.542-1.762-0.542
		c-0.344,0-0.645,0.042-0.902,0.124s-0.473,0.195-0.645,0.338c-0.172,0.144-0.301,0.312-0.387,0.505s-0.129,0.401-0.129,0.623
		h-2.567c0-0.451,0.105-0.89,0.317-1.315c0.211-0.426,0.521-0.807,0.929-1.139c0.408-0.334,0.908-0.6,1.499-0.801
		c0.591-0.2,1.266-0.301,2.025-0.301c0.688,0,1.325,0.084,1.912,0.252c0.587,0.169,1.096,0.42,1.525,0.752
		c0.43,0.334,0.766,0.749,1.01,1.246c0.243,0.498,0.365,1.08,0.365,1.746v5.178c0,0.509,0.038,0.973,0.113,1.391
		c0.075,0.42,0.184,0.783,0.328,1.091v0.183H481.295z M478.202,493.341c0.329,0,0.639-0.041,0.929-0.124
		c0.29-0.082,0.551-0.189,0.784-0.322c0.232-0.132,0.433-0.284,0.602-0.456c0.168-0.172,0.302-0.347,0.403-0.526v-2.181h-1.633
		c-1.046,0-1.817,0.169-2.315,0.505c-0.498,0.337-0.747,0.816-0.747,1.439c0,0.236,0.039,0.457,0.118,0.66
		c0.079,0.205,0.199,0.381,0.36,0.527s0.365,0.263,0.612,0.349S477.858,493.341,478.202,493.341z"/>
	<path d="M492.231,480.762v2.814h4.394v1.912h-4.394v5.575c0,0.437,0.052,0.799,0.156,1.085c0.104,0.287,0.249,0.516,0.435,0.688
		c0.186,0.172,0.404,0.292,0.655,0.359c0.25,0.068,0.526,0.103,0.827,0.103c0.222,0,0.453-0.013,0.693-0.038
		c0.24-0.024,0.473-0.053,0.698-0.086c0.226-0.031,0.433-0.067,0.623-0.107c0.189-0.039,0.349-0.076,0.478-0.112l0.29,1.772
		c-0.187,0.107-0.41,0.206-0.671,0.295c-0.262,0.09-0.546,0.164-0.854,0.221c-0.308,0.057-0.628,0.102-0.961,0.135
		c-0.333,0.031-0.661,0.048-0.983,0.048c-0.58,0-1.112-0.081-1.595-0.241c-0.483-0.162-0.899-0.412-1.246-0.752
		c-0.348-0.34-0.62-0.777-0.816-1.311c-0.197-0.533-0.295-1.173-0.295-1.918v-5.715h-2.836v-1.912h2.836v-2.814H492.231z"/>
	<path d="M507.743,493.609c-0.394,0.573-0.872,1.02-1.434,1.338c-0.562,0.318-1.191,0.478-1.885,0.478
		c-0.602,0-1.151-0.093-1.649-0.279c-0.498-0.187-0.924-0.481-1.278-0.886s-0.63-0.92-0.827-1.547
		c-0.197-0.627-0.295-1.381-0.295-2.262v-6.875h2.567v6.896c0,0.559,0.041,1.021,0.124,1.386c0.082,0.365,0.209,0.655,0.381,0.87
		s0.387,0.367,0.645,0.457s0.565,0.134,0.924,0.134c0.688,0,1.242-0.134,1.665-0.403c0.422-0.268,0.741-0.631,0.956-1.09v-8.25
		h2.578v11.623h-2.32L507.743,493.609z"/>
	<path d="M521.471,483.361c0.208,0,0.415,0.008,0.623,0.021c0.208,0.015,0.406,0.036,0.596,0.064
		c0.189,0.029,0.363,0.059,0.521,0.092c0.157,0.031,0.29,0.069,0.397,0.112l-0.365,2.524c-0.788-0.179-1.565-0.269-2.331-0.269
		c-0.859,0-1.552,0.179-2.079,0.537s-0.915,0.856-1.166,1.493v7.262h-2.567v-11.623h2.406l0.118,1.815
		c0.473-0.63,1.033-1.126,1.681-1.487C519.955,483.543,520.676,483.361,521.471,483.361z"/>
	<path d="M532.106,495.414c-0.859,0-1.644-0.144-2.353-0.43s-1.316-0.68-1.821-1.182c-0.505-0.501-0.897-1.094-1.176-1.777
		s-0.419-1.424-0.419-2.219v-0.44c0-0.924,0.148-1.755,0.446-2.492c0.297-0.737,0.694-1.368,1.192-1.891
		c0.498-0.522,1.078-0.924,1.74-1.203c0.662-0.279,1.359-0.419,2.089-0.419c0.845,0,1.59,0.142,2.234,0.424
		c0.645,0.283,1.183,0.682,1.617,1.193c0.433,0.512,0.761,1.119,0.983,1.82c0.222,0.702,0.333,1.472,0.333,2.31v1.085h-8.057
		c0.043,0.451,0.154,0.87,0.333,1.257c0.179,0.387,0.414,0.722,0.704,1.005s0.63,0.504,1.021,0.666
		c0.39,0.16,0.818,0.241,1.284,0.241c0.651,0,1.251-0.129,1.799-0.387s0.994-0.612,1.337-1.063l1.396,1.311
		c-0.187,0.279-0.426,0.55-0.72,0.811c-0.294,0.262-0.638,0.494-1.031,0.699c-0.394,0.203-0.836,0.369-1.327,0.494
		C533.221,495.352,532.686,495.414,532.106,495.414z M531.794,485.435c-0.358,0-0.691,0.064-0.999,0.193
		c-0.308,0.129-0.584,0.317-0.827,0.563c-0.244,0.248-0.45,0.549-0.618,0.902c-0.168,0.355-0.289,0.758-0.36,1.209h5.446v-0.193
		c-0.021-0.344-0.088-0.675-0.199-0.994c-0.111-0.318-0.274-0.603-0.489-0.854c-0.215-0.25-0.485-0.451-0.811-0.602
		C532.612,485.51,532.231,485.435,531.794,485.435z"/>
	<path d="M560.616,491.568h-4.888l-1.074,3.631h-2.664l5.081-15.641h2.267l4.984,15.641h-2.653L560.616,491.568z M556.383,489.366
		h3.588l-1.772-6.134L556.383,489.366z"/>
	<path d="M431.119,530.447c0,1.01-0.117,1.899-0.349,2.669c-0.233,0.771-0.568,1.415-1.004,1.934
		c-0.437,0.52-0.971,0.911-1.601,1.177c-0.63,0.264-1.339,0.396-2.127,0.396c-0.781,0-1.486-0.133-2.116-0.396
		c-0.63-0.266-1.166-0.657-1.606-1.177c-0.44-0.519-0.781-1.163-1.021-1.934c-0.24-0.77-0.36-1.659-0.36-2.669v-3.738
		c0-1.01,0.118-1.9,0.354-2.67s0.575-1.414,1.015-1.934s0.974-0.911,1.601-1.176c0.626-0.266,1.33-0.398,2.111-0.398
		c0.788,0,1.497,0.133,2.127,0.398c0.63,0.265,1.166,0.656,1.606,1.176s0.779,1.164,1.015,1.934s0.354,1.66,0.354,2.67V530.447z
		 M423.513,529.469l5.006-3.727c-0.058-1.067-0.292-1.857-0.704-2.369c-0.412-0.512-1.012-0.768-1.799-0.768
		c-0.838,0-1.465,0.297-1.88,0.891c-0.416,0.596-0.623,1.508-0.623,2.74V529.469z M428.541,527.762l-5.006,3.727
		c0.129,2.049,0.963,3.072,2.503,3.072c1.668,0,2.503-1.221,2.503-3.662V527.762z"/>
</g>
<g>
</g>
<g>
</g>
<g>
</g>
<g>
</g>
<g>
</g>
<g>
</g>
<g>
</g>
<g>
</g>
<g>
</g>
<g>
</g>
<g>
</g>
<g>
</g>
<g>
</g>
<g>
</g>
<g>
</g>
<g>
</g>
</svg>
