<?xml version="1.0" encoding="utf-8"?>
<!-- Generator: Adobe Illustrator 16.0.4, SVG Export Plug-In . SVG Version: 6.00 Build 0)  -->
<!DOCTYPE svg PUBLIC "-//W3C//DTD SVG 1.1//EN" "http://www.w3.org/Graphics/SVG/1.1/DTD/svg11.dtd">
<svg version="1.1" id="Pedersen" xmlns="http://www.w3.org/2000/svg" xmlns:xlink="http://www.w3.org/1999/xlink" x="0px" y="0px"
	 width="1366px" height="768px" viewBox="0 0 1366 768" enable-background="new 0 0 1366 768" xml:space="preserve">
<rect x="-1" y="1" fill="#FFFFFF" width="1366" height="768"/>
<rect x="61" y="204" fill="#EAEAEA" enable-background="new    " width="110" height="30"/>
<g>
	<rect x="64.9" y="165.098" fill="none" width="576.971" height="42.001"/>
	<path d="M67.057,166.205h5.332c2.43,0,4.193,0.346,5.291,1.037s1.646,1.791,1.646,3.299c0,1.023-0.24,1.863-0.721,2.52
		s-1.119,1.051-1.916,1.184v0.117c1.086,0.242,1.869,0.695,2.35,1.359s0.721,1.547,0.721,2.648c0,1.562-0.564,2.781-1.693,3.656
		s-2.662,1.312-4.6,1.312h-6.41V166.205z M70.689,172.99h2.109c0.984,0,1.697-0.152,2.139-0.457s0.662-0.809,0.662-1.512
		c0-0.656-0.24-1.127-0.721-1.412s-1.24-0.428-2.279-0.428h-1.91V172.99z M70.689,175.873v4.465h2.367c1,0,1.738-0.191,2.215-0.574
		s0.715-0.969,0.715-1.758c0-1.422-1.016-2.133-3.047-2.133H70.689z"/>
	<path d="M82.748,166.85c0-1.164,0.648-1.746,1.945-1.746s1.945,0.582,1.945,1.746c0,0.555-0.162,0.986-0.486,1.295
		s-0.811,0.463-1.459,0.463C83.396,168.607,82.748,168.021,82.748,166.85z M86.475,183.338H82.9v-13.102h3.574V183.338z"/>
	<path d="M102.318,183.338h-3.574v-7.652c0-0.945-0.168-1.654-0.504-2.127s-0.871-0.709-1.605-0.709c-1,0-1.723,0.334-2.168,1.002
		s-0.668,1.775-0.668,3.322v6.164h-3.574v-13.102h2.73l0.48,1.676h0.199c0.398-0.633,0.947-1.111,1.646-1.436
		s1.494-0.486,2.385-0.486c1.523,0,2.68,0.412,3.469,1.236s1.184,2.014,1.184,3.568V183.338z"/>
	<path d="M110.146,183.572c-1.539,0-2.748-0.598-3.627-1.793s-1.318-2.852-1.318-4.969c0-2.148,0.447-3.822,1.342-5.021
		s2.127-1.799,3.697-1.799c1.648,0,2.906,0.641,3.773,1.922h0.117c-0.18-0.977-0.27-1.848-0.27-2.613v-4.195h3.586v18.234h-2.742
		l-0.691-1.699h-0.152C113.049,182.928,111.811,183.572,110.146,183.572z M111.4,180.725c0.914,0,1.584-0.266,2.01-0.797
		s0.658-1.434,0.697-2.707v-0.387c0-1.406-0.217-2.414-0.65-3.023s-1.139-0.914-2.115-0.914c-0.797,0-1.416,0.338-1.857,1.014
		s-0.662,1.658-0.662,2.947s0.223,2.256,0.668,2.9S110.572,180.725,111.4,180.725z"/>
	<path d="M121.033,166.85c0-1.164,0.648-1.746,1.945-1.746s1.945,0.582,1.945,1.746c0,0.555-0.162,0.986-0.486,1.295
		s-0.811,0.463-1.459,0.463C121.682,168.607,121.033,168.021,121.033,166.85z M124.76,183.338h-3.574v-13.102h3.574V183.338z"/>
	<path d="M140.604,183.338h-3.574v-7.652c0-0.945-0.168-1.654-0.504-2.127s-0.871-0.709-1.605-0.709c-1,0-1.723,0.334-2.168,1.002
		s-0.668,1.775-0.668,3.322v6.164h-3.574v-13.102h2.73l0.48,1.676h0.199c0.398-0.633,0.947-1.111,1.646-1.436
		s1.494-0.486,2.385-0.486c1.523,0,2.68,0.412,3.469,1.236s1.184,2.014,1.184,3.568V183.338z"/>
	<path d="M155.686,170.236v1.816l-2.051,0.527c0.375,0.586,0.562,1.242,0.562,1.969c0,1.406-0.49,2.502-1.471,3.287
		s-2.342,1.178-4.084,1.178l-0.645-0.035l-0.527-0.059c-0.367,0.281-0.551,0.594-0.551,0.938c0,0.516,0.656,0.773,1.969,0.773h2.227
		c1.438,0,2.533,0.309,3.287,0.926s1.131,1.523,1.131,2.719c0,1.531-0.639,2.719-1.916,3.562s-3.111,1.266-5.502,1.266
		c-1.828,0-3.225-0.318-4.189-0.955s-1.447-1.529-1.447-2.678c0-0.789,0.246-1.449,0.738-1.98s1.215-0.91,2.168-1.137
		c-0.367-0.156-0.688-0.412-0.961-0.768s-0.41-0.732-0.41-1.131c0-0.5,0.145-0.916,0.434-1.248s0.707-0.658,1.254-0.979
		c-0.688-0.297-1.232-0.773-1.635-1.43s-0.604-1.43-0.604-2.32c0-1.43,0.465-2.535,1.395-3.316s2.258-1.172,3.984-1.172
		c0.367,0,0.803,0.033,1.307,0.1s0.826,0.115,0.967,0.146H155.686z M145.572,185.189c0,0.492,0.236,0.879,0.709,1.16
		s1.135,0.422,1.986,0.422c1.281,0,2.285-0.176,3.012-0.527s1.09-0.832,1.09-1.441c0-0.492-0.215-0.832-0.645-1.02
		s-1.094-0.281-1.992-0.281h-1.852c-0.656,0-1.205,0.154-1.646,0.463S145.572,184.682,145.572,185.189z M146.873,174.525
		c0,0.711,0.162,1.273,0.486,1.688s0.818,0.621,1.482,0.621c0.672,0,1.164-0.207,1.477-0.621s0.469-0.977,0.469-1.688
		c0-1.578-0.648-2.367-1.945-2.367C147.529,172.158,146.873,172.947,146.873,174.525z"/>
</g>
<g>
	<rect x="64.9" y="210.596" fill="none" width="576.971" height="73"/>
	<path d="M74.85,226.862c-0.43,0.625-0.951,1.111-1.564,1.459s-1.299,0.521-2.057,0.521c-0.656,0-1.256-0.102-1.799-0.305
		s-1.008-0.525-1.395-0.967s-0.688-1.004-0.902-1.688s-0.322-1.506-0.322-2.467v-7.5h2.801v7.523c0,0.609,0.045,1.113,0.135,1.512
		s0.229,0.715,0.416,0.949s0.422,0.4,0.703,0.498s0.617,0.146,1.008,0.146c0.75,0,1.355-0.146,1.816-0.439s0.809-0.689,1.043-1.189
		v-9h2.812v12.68h-2.531L74.85,226.862z"/>
	<path d="M85.854,220.206c0-0.219,0.037-0.424,0.111-0.615s0.18-0.357,0.316-0.498s0.307-0.25,0.51-0.328s0.434-0.117,0.691-0.117
		s0.488,0.039,0.691,0.117s0.375,0.188,0.516,0.328s0.248,0.307,0.322,0.498s0.111,0.396,0.111,0.615s-0.037,0.422-0.111,0.609
		s-0.182,0.352-0.322,0.492s-0.312,0.25-0.516,0.328s-0.434,0.117-0.691,0.117s-0.488-0.039-0.691-0.117s-0.373-0.188-0.51-0.328
		s-0.242-0.305-0.316-0.492S85.854,220.424,85.854,220.206z"/>
	<path d="M106.9,226.463c-0.289,0.344-0.629,0.66-1.02,0.949s-0.828,0.539-1.312,0.75s-1.01,0.375-1.576,0.492
		s-1.17,0.176-1.811,0.176c-1.023,0-1.93-0.199-2.719-0.598s-1.455-0.943-1.998-1.635s-0.957-1.506-1.242-2.443
		s-0.432-1.945-0.439-3.023v-2.109c0-1.078,0.141-2.086,0.422-3.023s0.686-1.754,1.213-2.449s1.174-1.244,1.939-1.646
		s1.641-0.604,2.625-0.604c0.883,0,1.672,0.121,2.367,0.363s1.293,0.592,1.793,1.049s0.896,1.014,1.189,1.67
		s0.479,1.391,0.557,2.203h-2.766c-0.07-0.461-0.18-0.875-0.328-1.242s-0.348-0.68-0.598-0.938s-0.553-0.455-0.908-0.592
		s-0.775-0.205-1.26-0.205c-0.594,0-1.104,0.146-1.529,0.439s-0.779,0.688-1.061,1.184s-0.488,1.07-0.621,1.723
		s-0.203,1.334-0.211,2.045v2.133c0.008,0.711,0.08,1.391,0.217,2.039s0.352,1.221,0.645,1.717s0.67,0.893,1.131,1.189
		s1.016,0.449,1.664,0.457c0.266,0,0.539-0.018,0.82-0.053s0.549-0.092,0.803-0.17s0.486-0.178,0.697-0.299s0.383-0.271,0.516-0.451
		l0.023-3.41h-3.082v-2.191h5.836L106.9,226.463z"/>
	<path d="M135.225,219.854h-10.781v-2.332h10.781V219.854z M135.225,224.823h-10.781v-2.332h10.781V224.823z"/>
	<path d="M164.58,223.358c-0.078,0.82-0.273,1.568-0.586,2.244s-0.727,1.254-1.242,1.734s-1.123,0.852-1.822,1.113
		s-1.479,0.393-2.338,0.393c-1.039,0-1.945-0.201-2.719-0.604s-1.418-0.947-1.934-1.635s-0.902-1.492-1.16-2.414
		s-0.391-1.906-0.398-2.953v-2.332c0.008-1.039,0.145-2.021,0.41-2.947s0.658-1.734,1.178-2.426s1.166-1.238,1.939-1.641
		s1.672-0.604,2.695-0.604c0.898,0,1.699,0.133,2.402,0.398s1.305,0.641,1.805,1.125s0.898,1.074,1.195,1.77s0.488,1.469,0.574,2.32
		h-2.812c-0.047-0.5-0.143-0.955-0.287-1.365s-0.342-0.762-0.592-1.055s-0.564-0.518-0.943-0.674s-0.826-0.234-1.342-0.234
		c-0.633,0-1.164,0.145-1.594,0.434s-0.777,0.678-1.043,1.166s-0.455,1.053-0.568,1.693s-0.17,1.312-0.17,2.016v2.355
		c0,0.734,0.057,1.424,0.17,2.068s0.299,1.209,0.557,1.693s0.602,0.867,1.031,1.148s0.965,0.422,1.605,0.422
		c0.984,0,1.734-0.279,2.25-0.838s0.82-1.35,0.914-2.373H164.58z"/>
	<path d="M111.166,266.85c-0.422,0.625-0.949,1.111-1.582,1.459s-1.363,0.521-2.191,0.521c-0.664,0-1.266-0.104-1.805-0.311
		s-1-0.529-1.383-0.967s-0.678-0.994-0.885-1.67s-0.311-1.486-0.311-2.432v-7.535h2.168v7.559c0,0.688,0.055,1.258,0.164,1.711
		s0.273,0.814,0.492,1.084s0.486,0.459,0.803,0.568s0.682,0.164,1.096,0.164c0.883,0,1.596-0.18,2.139-0.539
		s0.947-0.844,1.213-1.453v-9.094h2.18v12.68h-1.969L111.166,266.85z"/>
	<path d="M132.084,255.917h6.48v10.805h4.137v1.875h-10.617v-1.875h4.312v-8.918h-4.312V255.917z M136.115,252.588
		c0-0.359,0.107-0.662,0.322-0.908s0.541-0.369,0.979-0.369c0.43,0,0.754,0.123,0.973,0.369s0.328,0.549,0.328,0.908
		c0,0.352-0.109,0.645-0.328,0.879s-0.543,0.352-0.973,0.352c-0.438,0-0.764-0.117-0.979-0.352S136.115,252.94,136.115,252.588z"/>
	<path d="M154.572,265.233c0-0.258-0.051-0.49-0.152-0.697s-0.273-0.396-0.516-0.568s-0.562-0.33-0.961-0.475
		s-0.895-0.275-1.488-0.393c-0.727-0.148-1.389-0.328-1.986-0.539s-1.109-0.463-1.535-0.756s-0.756-0.637-0.99-1.031
		s-0.352-0.854-0.352-1.377c0-0.516,0.121-0.998,0.363-1.447s0.582-0.842,1.02-1.178s0.959-0.602,1.564-0.797
		s1.271-0.293,1.998-0.293c0.781,0,1.484,0.102,2.109,0.305s1.156,0.484,1.594,0.844s0.775,0.779,1.014,1.26
		s0.357,0.998,0.357,1.553h-2.168c0-0.273-0.07-0.541-0.211-0.803s-0.336-0.494-0.586-0.697s-0.553-0.367-0.908-0.492
		s-0.756-0.188-1.201-0.188c-0.461,0-0.865,0.051-1.213,0.152s-0.637,0.238-0.867,0.41s-0.404,0.371-0.521,0.598
		s-0.176,0.461-0.176,0.703c0,0.25,0.047,0.473,0.141,0.668s0.256,0.371,0.486,0.527s0.539,0.297,0.926,0.422
		s0.877,0.246,1.471,0.363c0.781,0.164,1.48,0.354,2.098,0.568s1.137,0.473,1.559,0.773s0.744,0.65,0.967,1.049
		s0.334,0.859,0.334,1.383c0,0.562-0.127,1.074-0.381,1.535s-0.607,0.855-1.061,1.184s-0.996,0.582-1.629,0.762
		s-1.324,0.27-2.074,0.27c-0.859,0-1.625-0.115-2.297-0.346s-1.24-0.535-1.705-0.914s-0.82-0.818-1.066-1.318
		s-0.369-1.02-0.369-1.559h2.168c0.031,0.445,0.15,0.82,0.357,1.125s0.465,0.551,0.773,0.738s0.65,0.32,1.025,0.398
		s0.746,0.117,1.113,0.117c0.914,0,1.637-0.168,2.168-0.504S154.564,265.788,154.572,265.233z"/>
	<path d="M180.354,267.073c0.391,0,0.771-0.062,1.143-0.188s0.701-0.299,0.99-0.521s0.521-0.484,0.697-0.785
		s0.268-0.627,0.275-0.979h2.051c-0.008,0.562-0.154,1.1-0.439,1.611s-0.666,0.961-1.143,1.348s-1.023,0.695-1.641,0.926
		s-1.262,0.346-1.934,0.346c-0.961,0-1.801-0.172-2.52-0.516s-1.318-0.807-1.799-1.389s-0.842-1.254-1.084-2.016
		s-0.363-1.564-0.363-2.408v-0.492c0-0.836,0.121-1.637,0.363-2.402s0.604-1.439,1.084-2.021s1.08-1.045,1.799-1.389
		s1.559-0.516,2.52-0.516c0.75,0,1.439,0.119,2.068,0.357s1.172,0.562,1.629,0.973s0.814,0.896,1.072,1.459s0.387,1.164,0.387,1.805
		h-2.051c-0.008-0.383-0.092-0.744-0.252-1.084s-0.377-0.639-0.65-0.896s-0.6-0.461-0.979-0.609s-0.787-0.223-1.225-0.223
		c-0.672,0-1.236,0.135-1.693,0.404s-0.826,0.621-1.107,1.055s-0.482,0.92-0.604,1.459s-0.182,1.082-0.182,1.629v0.492
		c0,0.555,0.061,1.104,0.182,1.646s0.32,1.031,0.598,1.465s0.645,0.785,1.102,1.055S179.674,267.073,180.354,267.073z"/>
	<path d="M188.744,262.139c0-0.914,0.133-1.764,0.398-2.549s0.646-1.467,1.143-2.045s1.1-1.033,1.811-1.365s1.512-0.498,2.402-0.498
		c0.898,0,1.705,0.166,2.42,0.498s1.32,0.787,1.816,1.365s0.877,1.26,1.143,2.045s0.398,1.635,0.398,2.549v0.258
		c0,0.914-0.133,1.762-0.398,2.543s-0.646,1.461-1.143,2.039s-1.1,1.031-1.811,1.359s-1.512,0.492-2.402,0.492
		c-0.898,0-1.705-0.164-2.42-0.492s-1.32-0.781-1.816-1.359s-0.877-1.258-1.143-2.039s-0.398-1.629-0.398-2.543V262.139z
		 M190.912,262.397c0,0.625,0.074,1.221,0.223,1.787s0.373,1.064,0.674,1.494s0.678,0.77,1.131,1.02s0.98,0.375,1.582,0.375
		c0.594,0,1.115-0.125,1.564-0.375s0.824-0.59,1.125-1.02s0.525-0.928,0.674-1.494s0.223-1.162,0.223-1.787v-0.258
		c0-0.617-0.076-1.209-0.229-1.775s-0.379-1.064-0.68-1.494s-0.676-0.771-1.125-1.025s-0.975-0.381-1.576-0.381
		s-1.125,0.127-1.57,0.381s-0.818,0.596-1.119,1.025s-0.525,0.928-0.674,1.494s-0.223,1.158-0.223,1.775V262.397z"/>
	<path d="M204.752,255.917l0.059,1.195c0.258-0.445,0.596-0.793,1.014-1.043s0.924-0.379,1.518-0.387
		c1.164,0,1.941,0.453,2.332,1.359c0.25-0.406,0.58-0.732,0.99-0.979s0.908-0.373,1.494-0.381c0.93,0,1.645,0.285,2.145,0.855
		s0.75,1.434,0.75,2.59v9.469h-2.062v-9.492c0-1.062-0.488-1.59-1.465-1.582c-0.258,0-0.48,0.035-0.668,0.105
		s-0.344,0.166-0.469,0.287s-0.223,0.262-0.293,0.422s-0.117,0.326-0.141,0.498v9.762h-2.062v-9.504c0-0.508-0.113-0.898-0.34-1.172
		s-0.586-0.406-1.078-0.398c-0.453,0-0.805,0.09-1.055,0.27s-0.434,0.418-0.551,0.715v10.09h-2.062v-12.68H204.752z"/>
	<path d="M219.154,255.917l0.059,1.195c0.258-0.445,0.596-0.793,1.014-1.043s0.924-0.379,1.518-0.387
		c1.164,0,1.941,0.453,2.332,1.359c0.25-0.406,0.58-0.732,0.99-0.979s0.908-0.373,1.494-0.381c0.93,0,1.645,0.285,2.145,0.855
		s0.75,1.434,0.75,2.59v9.469h-2.062v-9.492c0-1.062-0.488-1.59-1.465-1.582c-0.258,0-0.48,0.035-0.668,0.105
		s-0.344,0.166-0.469,0.287s-0.223,0.262-0.293,0.422s-0.117,0.326-0.141,0.498v9.762h-2.062v-9.504c0-0.508-0.113-0.898-0.34-1.172
		s-0.586-0.406-1.078-0.398c-0.453,0-0.805,0.09-1.055,0.27s-0.434,0.418-0.551,0.715v10.09h-2.062v-12.68H219.154z"/>
	<path d="M232.9,255.917h6.48v10.805h4.137v1.875H232.9v-1.875h4.312v-8.918H232.9V255.917z M236.932,252.588
		c0-0.359,0.107-0.662,0.322-0.908s0.541-0.369,0.979-0.369c0.43,0,0.754,0.123,0.973,0.369s0.328,0.549,0.328,0.908
		c0,0.352-0.109,0.645-0.328,0.879s-0.543,0.352-0.973,0.352c-0.438,0-0.764-0.117-0.979-0.352S236.932,252.94,236.932,252.588z"/>
	<path d="M252.096,252.846v3.07h4.828v1.676h-4.828v6.891c0,0.492,0.062,0.898,0.188,1.219s0.297,0.576,0.516,0.768
		s0.471,0.326,0.756,0.404s0.588,0.117,0.908,0.117c0.234,0,0.477-0.014,0.727-0.041s0.494-0.061,0.732-0.1s0.461-0.08,0.668-0.123
		s0.377-0.08,0.51-0.111l0.305,1.535c-0.18,0.109-0.398,0.205-0.656,0.287s-0.539,0.152-0.844,0.211s-0.627,0.104-0.967,0.135
		s-0.678,0.047-1.014,0.047c-0.562,0-1.088-0.08-1.576-0.24s-0.912-0.414-1.271-0.762s-0.643-0.797-0.85-1.348
		s-0.311-1.217-0.311-1.998v-6.891h-3.328v-1.676h3.328v-3.07H252.096z"/>
	<path d="M266.498,252.846v3.07h4.828v1.676h-4.828v6.891c0,0.492,0.062,0.898,0.188,1.219s0.297,0.576,0.516,0.768
		s0.471,0.326,0.756,0.404s0.588,0.117,0.908,0.117c0.234,0,0.477-0.014,0.727-0.041s0.494-0.061,0.732-0.1s0.461-0.08,0.668-0.123
		s0.377-0.08,0.51-0.111l0.305,1.535c-0.18,0.109-0.398,0.205-0.656,0.287s-0.539,0.152-0.844,0.211s-0.627,0.104-0.967,0.135
		s-0.678,0.047-1.014,0.047c-0.562,0-1.088-0.08-1.576-0.24s-0.912-0.414-1.271-0.762s-0.643-0.797-0.85-1.348
		s-0.311-1.217-0.311-1.998v-6.891h-3.328v-1.676h3.328v-3.07H266.498z"/>
	<path d="M281.369,268.831c-0.891,0-1.709-0.152-2.455-0.457s-1.385-0.73-1.916-1.277s-0.945-1.195-1.242-1.945
		s-0.445-1.566-0.445-2.449v-0.492c0-1.023,0.164-1.939,0.492-2.748s0.764-1.492,1.307-2.051s1.16-0.986,1.852-1.283
		s1.4-0.445,2.127-0.445c0.914,0,1.713,0.158,2.396,0.475s1.252,0.754,1.705,1.312s0.791,1.217,1.014,1.975s0.334,1.578,0.334,2.461
		v0.973h-9.059c0.023,0.578,0.135,1.121,0.334,1.629s0.473,0.951,0.82,1.33s0.764,0.678,1.248,0.896s1.02,0.328,1.605,0.328
		c0.773,0,1.461-0.156,2.062-0.469s1.102-0.727,1.5-1.242l1.324,1.031c-0.211,0.32-0.475,0.627-0.791,0.92s-0.682,0.553-1.096,0.779
		s-0.883,0.408-1.406,0.545S281.986,268.831,281.369,268.831z M281.088,257.463c-0.438,0-0.852,0.08-1.242,0.24
		s-0.742,0.395-1.055,0.703s-0.576,0.688-0.791,1.137s-0.365,0.967-0.451,1.553h6.82v-0.164c-0.023-0.422-0.104-0.84-0.24-1.254
		s-0.338-0.785-0.604-1.113s-0.6-0.594-1.002-0.797S281.643,257.463,281.088,257.463z"/>
	<path d="M289.76,262.151c0-0.945,0.119-1.814,0.357-2.607s0.578-1.475,1.02-2.045s0.975-1.016,1.6-1.336s1.324-0.48,2.098-0.48
		c0.758,0,1.42,0.127,1.986,0.381s1.057,0.623,1.471,1.107v-6.574h2.168v18h-1.992l-0.094-1.336
		c-0.422,0.516-0.926,0.906-1.512,1.172s-1.27,0.398-2.051,0.398c-0.766,0-1.459-0.164-2.08-0.492s-1.15-0.781-1.588-1.359
		s-0.777-1.26-1.02-2.045s-0.363-1.631-0.363-2.537V262.151z M291.928,262.397c0,0.617,0.066,1.203,0.199,1.758
		s0.338,1.043,0.615,1.465s0.631,0.756,1.061,1.002s0.945,0.369,1.547,0.369c0.367,0,0.699-0.043,0.996-0.129
		s0.566-0.209,0.809-0.369s0.457-0.352,0.645-0.574s0.352-0.471,0.492-0.744v-5.883c-0.281-0.516-0.66-0.939-1.137-1.271
		s-1.07-0.498-1.781-0.498c-0.609,0-1.131,0.125-1.564,0.375s-0.789,0.588-1.066,1.014s-0.482,0.918-0.615,1.477
		s-0.199,1.146-0.199,1.764V262.397z"/>
	<path d="M319.314,255.917h6.48v10.805h4.137v1.875h-10.617v-1.875h4.312v-8.918h-4.312V255.917z M323.346,252.588
		c0-0.359,0.107-0.662,0.322-0.908s0.541-0.369,0.979-0.369c0.43,0,0.754,0.123,0.973,0.369s0.328,0.549,0.328,0.908
		c0,0.352-0.109,0.645-0.328,0.879s-0.543,0.352-0.973,0.352c-0.438,0-0.764-0.117-0.979-0.352S323.346,252.94,323.346,252.588z"/>
	<path d="M335.322,255.917l0.152,1.875c0.461-0.656,1.027-1.17,1.699-1.541s1.422-0.561,2.25-0.568c0.664,0,1.268,0.094,1.811,0.281
		s1.006,0.48,1.389,0.879s0.678,0.904,0.885,1.518s0.311,1.342,0.311,2.186v8.051h-2.168v-8.004c0-0.562-0.062-1.039-0.188-1.43
		s-0.311-0.707-0.557-0.949s-0.547-0.418-0.902-0.527s-0.764-0.164-1.225-0.164c-0.727,0-1.365,0.182-1.916,0.545
		s-0.99,0.842-1.318,1.436v9.094h-2.168v-12.68H335.322z"/>
	<path d="M373.232,263.463c-0.102,0.789-0.305,1.514-0.609,2.174s-0.701,1.227-1.189,1.699s-1.066,0.84-1.734,1.102
		s-1.412,0.393-2.232,0.393c-0.703,0-1.342-0.1-1.916-0.299s-1.086-0.475-1.535-0.826s-0.836-0.766-1.16-1.242
		s-0.594-0.996-0.809-1.559s-0.375-1.152-0.48-1.77s-0.162-1.242-0.17-1.875v-2.379c0.008-0.633,0.064-1.258,0.17-1.875
		s0.266-1.207,0.48-1.77s0.484-1.084,0.809-1.564s0.711-0.896,1.16-1.248s0.959-0.627,1.529-0.826s1.211-0.299,1.922-0.299
		c0.852,0,1.613,0.131,2.285,0.393s1.25,0.633,1.734,1.113s0.873,1.057,1.166,1.729s0.486,1.414,0.58,2.227h-2.168
		c-0.07-0.516-0.191-0.996-0.363-1.441s-0.402-0.836-0.691-1.172s-0.643-0.6-1.061-0.791s-0.912-0.287-1.482-0.287
		c-0.516,0-0.971,0.084-1.365,0.252s-0.734,0.396-1.02,0.686s-0.523,0.625-0.715,1.008s-0.346,0.789-0.463,1.219
		s-0.201,0.869-0.252,1.318s-0.076,0.885-0.076,1.307v2.402c0,0.422,0.025,0.857,0.076,1.307s0.135,0.891,0.252,1.324
		s0.27,0.842,0.457,1.225s0.426,0.721,0.715,1.014s0.629,0.523,1.02,0.691s0.848,0.252,1.371,0.252c0.57,0,1.064-0.09,1.482-0.27
		s0.771-0.432,1.061-0.756s0.52-0.707,0.691-1.148s0.293-0.92,0.363-1.436H373.232z"/>
	<path d="M393.131,261.67c0-1.117,0.088-2.168,0.264-3.152s0.412-1.896,0.709-2.736s0.639-1.607,1.025-2.303
		s0.793-1.312,1.219-1.852s0.854-1,1.283-1.383s0.84-0.684,1.23-0.902l0.457,1.43c-0.484,0.367-0.967,0.867-1.447,1.5
		s-0.91,1.4-1.289,2.303s-0.688,1.941-0.926,3.117s-0.357,2.494-0.357,3.955v0.164c0,1.461,0.119,2.781,0.357,3.961
		s0.547,2.223,0.926,3.129s0.809,1.682,1.289,2.326s0.963,1.162,1.447,1.553l-0.457,1.324c-0.391-0.219-0.803-0.518-1.236-0.896
		s-0.863-0.84-1.289-1.383s-0.832-1.16-1.219-1.852s-0.727-1.457-1.02-2.297s-0.527-1.752-0.703-2.736s-0.264-2.035-0.264-3.152
		V261.67z"/>
	<path d="M405.365,268.596v-17.062h5.074c0.703,0.008,1.391,0.1,2.062,0.275s1.27,0.447,1.793,0.814s0.941,0.836,1.254,1.406
		s0.465,1.254,0.457,2.051c-0.008,0.445-0.08,0.852-0.217,1.219s-0.324,0.697-0.562,0.99s-0.518,0.549-0.838,0.768
		s-0.66,0.406-1.02,0.562c0.453,0.133,0.869,0.322,1.248,0.568s0.705,0.543,0.979,0.891s0.486,0.74,0.639,1.178
		s0.229,0.91,0.229,1.418c0.008,0.797-0.145,1.5-0.457,2.109s-0.73,1.119-1.254,1.529s-1.127,0.725-1.811,0.943
		s-1.389,0.332-2.115,0.34H405.365z M407.545,258.811h3.023c0.406-0.008,0.805-0.072,1.195-0.193s0.738-0.297,1.043-0.527
		s0.551-0.514,0.738-0.85s0.281-0.727,0.281-1.172c0-0.477-0.092-0.883-0.275-1.219s-0.43-0.611-0.738-0.826
		s-0.664-0.373-1.066-0.475s-0.814-0.156-1.236-0.164h-2.965V258.811z M407.545,260.616v6.141h3.34
		c0.453-0.008,0.883-0.084,1.289-0.229s0.766-0.346,1.078-0.604s0.561-0.574,0.744-0.949s0.275-0.801,0.275-1.277
		c0.008-0.484-0.072-0.914-0.24-1.289s-0.4-0.693-0.697-0.955s-0.645-0.463-1.043-0.604s-0.828-0.219-1.289-0.234H407.545z"/>
	<path d="M420.131,255.917h6.48v10.805h4.137v1.875h-10.617v-1.875h4.312v-8.918h-4.312V255.917z M424.162,252.588
		c0-0.359,0.107-0.662,0.322-0.908s0.541-0.369,0.979-0.369c0.43,0,0.754,0.123,0.973,0.369s0.328,0.549,0.328,0.908
		c0,0.352-0.109,0.645-0.328,0.879s-0.543,0.352-0.973,0.352c-0.438,0-0.764-0.117-0.979-0.352S424.162,252.94,424.162,252.588z"/>
	<path d="M436.139,255.917l0.152,1.875c0.461-0.656,1.027-1.17,1.699-1.541s1.422-0.561,2.25-0.568c0.664,0,1.268,0.094,1.811,0.281
		s1.006,0.48,1.389,0.879s0.678,0.904,0.885,1.518s0.311,1.342,0.311,2.186v8.051h-2.168v-8.004c0-0.562-0.062-1.039-0.188-1.43
		s-0.311-0.707-0.557-0.949s-0.547-0.418-0.902-0.527s-0.764-0.164-1.225-0.164c-0.727,0-1.365,0.182-1.916,0.545
		s-0.99,0.842-1.318,1.436v9.094h-2.168v-12.68H436.139z"/>
	<path d="M448.186,262.151c0-0.945,0.119-1.814,0.357-2.607s0.578-1.475,1.02-2.045s0.975-1.016,1.6-1.336s1.324-0.48,2.098-0.48
		c0.758,0,1.42,0.127,1.986,0.381s1.057,0.623,1.471,1.107v-6.574h2.168v18h-1.992l-0.094-1.336
		c-0.422,0.516-0.926,0.906-1.512,1.172s-1.27,0.398-2.051,0.398c-0.766,0-1.459-0.164-2.08-0.492s-1.15-0.781-1.588-1.359
		s-0.777-1.26-1.02-2.045s-0.363-1.631-0.363-2.537V262.151z M450.354,262.397c0,0.617,0.066,1.203,0.199,1.758
		s0.338,1.043,0.615,1.465s0.631,0.756,1.061,1.002s0.945,0.369,1.547,0.369c0.367,0,0.699-0.043,0.996-0.129
		s0.566-0.209,0.809-0.369s0.457-0.352,0.645-0.574s0.352-0.471,0.492-0.744v-5.883c-0.281-0.516-0.66-0.939-1.137-1.271
		s-1.07-0.498-1.781-0.498c-0.609,0-1.131,0.125-1.564,0.375s-0.789,0.588-1.066,1.014s-0.482,0.918-0.615,1.477
		s-0.199,1.146-0.199,1.764V262.397z"/>
	<path d="M463.338,255.917h6.48v10.805h4.137v1.875h-10.617v-1.875h4.312v-8.918h-4.312V255.917z M467.369,252.588
		c0-0.359,0.107-0.662,0.322-0.908s0.541-0.369,0.979-0.369c0.43,0,0.754,0.123,0.973,0.369s0.328,0.549,0.328,0.908
		c0,0.352-0.109,0.645-0.328,0.879s-0.543,0.352-0.973,0.352c-0.438,0-0.764-0.117-0.979-0.352S467.369,252.94,467.369,252.588z"/>
	<path d="M479.346,255.917l0.152,1.875c0.461-0.656,1.027-1.17,1.699-1.541s1.422-0.561,2.25-0.568c0.664,0,1.268,0.094,1.811,0.281
		s1.006,0.48,1.389,0.879s0.678,0.904,0.885,1.518s0.311,1.342,0.311,2.186v8.051h-2.168v-8.004c0-0.562-0.062-1.039-0.188-1.43
		s-0.311-0.707-0.557-0.949s-0.547-0.418-0.902-0.527s-0.764-0.164-1.225-0.164c-0.727,0-1.365,0.182-1.916,0.545
		s-0.99,0.842-1.318,1.436v9.094H477.4v-12.68H479.346z"/>
	<path d="M491.404,262.151c0-0.945,0.115-1.814,0.346-2.607s0.564-1.475,1.002-2.045s0.969-1.016,1.594-1.336s1.332-0.48,2.121-0.48
		c0.781,0,1.467,0.139,2.057,0.416s1.092,0.678,1.506,1.201l0.105-1.383h1.969v12.41c0,0.836-0.131,1.578-0.393,2.227
		s-0.629,1.199-1.102,1.652s-1.037,0.797-1.693,1.031s-1.383,0.352-2.18,0.352c-0.328,0-0.703-0.037-1.125-0.111
		s-0.85-0.195-1.283-0.363s-0.852-0.393-1.254-0.674s-0.748-0.629-1.037-1.043l1.125-1.301c0.266,0.32,0.539,0.592,0.82,0.814
		s0.566,0.4,0.855,0.533s0.578,0.229,0.867,0.287s0.578,0.088,0.867,0.088c0.516,0,0.98-0.074,1.395-0.223s0.768-0.365,1.061-0.65
		s0.518-0.639,0.674-1.061s0.234-0.906,0.234-1.453v-1.09c-0.422,0.484-0.92,0.854-1.494,1.107s-1.24,0.381-1.998,0.381
		c-0.773,0-1.473-0.164-2.098-0.492s-1.154-0.781-1.588-1.359s-0.768-1.26-1.002-2.045s-0.352-1.631-0.352-2.537V262.151z
		 M493.572,262.397c0,0.617,0.064,1.203,0.193,1.758s0.332,1.043,0.609,1.465s0.631,0.756,1.061,1.002s0.945,0.369,1.547,0.369
		c0.375,0,0.713-0.045,1.014-0.135s0.57-0.217,0.809-0.381s0.451-0.359,0.639-0.586s0.352-0.477,0.492-0.75v-5.812
		c-0.141-0.266-0.305-0.508-0.492-0.727s-0.402-0.408-0.645-0.568s-0.512-0.285-0.809-0.375s-0.625-0.135-0.984-0.135
		c-0.609,0-1.131,0.125-1.564,0.375s-0.789,0.588-1.066,1.014s-0.48,0.918-0.609,1.477s-0.193,1.146-0.193,1.764V262.397z"/>
	<path d="M514.115,261.788c0,1.117-0.088,2.168-0.264,3.152s-0.412,1.896-0.709,2.736s-0.639,1.605-1.025,2.297
		s-0.793,1.309-1.219,1.852s-0.855,1.004-1.289,1.383s-0.846,0.678-1.236,0.896l-0.457-1.324c0.484-0.359,0.967-0.861,1.447-1.506
		s0.91-1.424,1.289-2.338s0.688-1.965,0.926-3.152s0.357-2.512,0.357-3.973v-0.164c0-1.461-0.125-2.787-0.375-3.979
		s-0.572-2.246-0.967-3.164s-0.828-1.697-1.301-2.338s-0.932-1.141-1.377-1.5l0.457-1.324c0.391,0.219,0.803,0.52,1.236,0.902
		s0.863,0.844,1.289,1.383s0.832,1.156,1.219,1.852s0.729,1.463,1.025,2.303s0.533,1.752,0.709,2.736s0.264,2.035,0.264,3.152
		V261.788z"/>
</g>
<g>
</g>
<g>
</g>
<g>
</g>
<g>
</g>
<g>
</g>
<g>
</g>
<g>
</g>
<g>
</g>
<g>
</g>
<g>
</g>
<g>
</g>
<g>
</g>
<g>
</g>
<g>
</g>
<g>
</g>
</svg>
