<?xml version="1.0" encoding="utf-8"?>
<!-- Generator: Adobe Illustrator 16.0.4, SVG Export Plug-In . SVG Version: 6.00 Build 0)  -->
<!DOCTYPE svg PUBLIC "-//W3C//DTD SVG 1.1//EN" "http://www.w3.org/Graphics/SVG/1.1/DTD/svg11.dtd">
<svg version="1.1" id="Pedersen" xmlns="http://www.w3.org/2000/svg" xmlns:xlink="http://www.w3.org/1999/xlink" x="0px" y="0px"
	 width="1366px" height="768px" viewBox="0 0 1366 768" enable-background="new 0 0 1366 768" xml:space="preserve">
<rect x="-1" y="1" fill="#FFFFFF" width="1366" height="768"/>
<rect x="35" y="230" fill="#EAEAEA" enable-background="new    " width="419" height="30"/>
<g>
	<rect x="35.903" y="188.098" fill="none" width="576.971" height="42.001"/>
	<path d="M45.337,191.982c-1.367,0-2.426,0.514-3.176,1.541s-1.125,2.459-1.125,4.295c0,3.82,1.434,5.73,4.301,5.73
		c1.203,0,2.66-0.301,4.371-0.902v3.047c-1.406,0.586-2.977,0.879-4.711,0.879c-2.492,0-4.398-0.756-5.719-2.268
		s-1.98-3.682-1.98-6.51c0-1.781,0.324-3.342,0.973-4.682s1.58-2.367,2.795-3.082s2.639-1.072,4.271-1.072
		c1.664,0,3.336,0.402,5.016,1.207l-1.172,2.953c-0.641-0.305-1.285-0.57-1.934-0.797S45.962,191.982,45.337,191.982z"/>
	<path d="M64.978,199.764c0,2.133-0.562,3.801-1.688,5.004s-2.691,1.805-4.699,1.805c-1.258,0-2.367-0.275-3.328-0.826
		s-1.699-1.342-2.215-2.373s-0.773-2.234-0.773-3.609c0-2.141,0.559-3.805,1.676-4.992s2.688-1.781,4.711-1.781
		c1.258,0,2.367,0.273,3.328,0.82s1.699,1.332,2.215,2.355S64.978,198.389,64.978,199.764z M55.919,199.764
		c0,1.297,0.213,2.277,0.639,2.941s1.119,0.996,2.08,0.996c0.953,0,1.639-0.33,2.057-0.99s0.627-1.643,0.627-2.947
		c0-1.297-0.211-2.27-0.633-2.918s-1.113-0.973-2.074-0.973c-0.953,0-1.641,0.322-2.062,0.967S55.919,198.459,55.919,199.764z"/>
	<path d="M79.661,206.338h-3.574v-7.652c0-0.945-0.158-1.654-0.475-2.127s-0.814-0.709-1.494-0.709
		c-0.914,0-1.578,0.336-1.992,1.008s-0.621,1.777-0.621,3.316v6.164h-3.574v-13.102h2.73l0.48,1.676h0.199
		c0.352-0.602,0.859-1.072,1.523-1.412s1.426-0.51,2.285-0.51c1.961,0,3.289,0.641,3.984,1.922h0.316
		c0.352-0.609,0.869-1.082,1.553-1.418s1.455-0.504,2.314-0.504c1.484,0,2.607,0.381,3.369,1.143s1.143,1.982,1.143,3.662v8.543
		h-3.586v-7.652c0-0.945-0.158-1.654-0.475-2.127s-0.814-0.709-1.494-0.709c-0.875,0-1.529,0.312-1.963,0.938
		s-0.65,1.617-0.65,2.977V206.338z"/>
	<path d="M98.692,206.572c-1.539,0-2.746-0.559-3.621-1.676h-0.188c0.125,1.094,0.188,1.727,0.188,1.898v5.309h-3.574v-18.867h2.906
		l0.504,1.699h0.164c0.836-1.297,2.074-1.945,3.715-1.945c1.547,0,2.758,0.598,3.633,1.793s1.312,2.855,1.312,4.98
		c0,1.398-0.205,2.613-0.615,3.645s-0.994,1.816-1.752,2.355S99.716,206.572,98.692,206.572z M97.638,195.85
		c-0.883,0-1.527,0.271-1.934,0.814s-0.617,1.439-0.633,2.689v0.387c0,1.406,0.209,2.414,0.627,3.023s1.08,0.914,1.986,0.914
		c1.602,0,2.402-1.32,2.402-3.961c0-1.289-0.197-2.256-0.592-2.9S98.481,195.85,97.638,195.85z"/>
	<path d="M115.005,206.338l-0.691-1.781h-0.094c-0.602,0.758-1.221,1.283-1.857,1.576s-1.467,0.439-2.49,0.439
		c-1.258,0-2.248-0.359-2.971-1.078s-1.084-1.742-1.084-3.07c0-1.391,0.486-2.416,1.459-3.076s2.439-1.025,4.4-1.096l2.273-0.07
		v-0.574c0-1.328-0.68-1.992-2.039-1.992c-1.047,0-2.277,0.316-3.691,0.949l-1.184-2.414c1.508-0.789,3.18-1.184,5.016-1.184
		c1.758,0,3.105,0.383,4.043,1.148s1.406,1.93,1.406,3.492v8.73H115.005z M113.95,200.268l-1.383,0.047
		c-1.039,0.031-1.812,0.219-2.32,0.562s-0.762,0.867-0.762,1.57c0,1.008,0.578,1.512,1.734,1.512c0.828,0,1.49-0.238,1.986-0.715
		s0.744-1.109,0.744-1.898V200.268z"/>
	<path d="M128.493,192.99c0.484,0,0.887,0.035,1.207,0.105l-0.27,3.352c-0.289-0.078-0.641-0.117-1.055-0.117
		c-1.141,0-2.029,0.293-2.666,0.879s-0.955,1.406-0.955,2.461v6.668h-3.574v-13.102h2.707l0.527,2.203h0.176
		c0.406-0.734,0.955-1.326,1.646-1.775S127.681,192.99,128.493,192.99z"/>
	<path d="M138.009,206.572c-2.109,0-3.758-0.582-4.945-1.746s-1.781-2.812-1.781-4.945c0-2.195,0.549-3.893,1.646-5.092
		s2.615-1.799,4.553-1.799c1.852,0,3.293,0.527,4.324,1.582s1.547,2.512,1.547,4.371v1.734h-8.449
		c0.039,1.016,0.34,1.809,0.902,2.379s1.352,0.855,2.367,0.855c0.789,0,1.535-0.082,2.238-0.246s1.438-0.426,2.203-0.785v2.766
		c-0.625,0.312-1.293,0.545-2.004,0.697S139.032,206.572,138.009,206.572z M137.505,195.533c-0.758,0-1.352,0.24-1.781,0.721
		s-0.676,1.162-0.738,2.045h5.016c-0.016-0.883-0.246-1.564-0.691-2.045S138.263,195.533,137.505,195.533z"/>
	<path d="M162.642,206.338h-9.867v-17.133h9.867v2.977h-6.234v3.762h5.801v2.977h-5.801v4.418h6.234V206.338z"/>
	<path d="M173.493,191.982c-1.367,0-2.426,0.514-3.176,1.541s-1.125,2.459-1.125,4.295c0,3.82,1.434,5.73,4.301,5.73
		c1.203,0,2.66-0.301,4.371-0.902v3.047c-1.406,0.586-2.977,0.879-4.711,0.879c-2.492,0-4.398-0.756-5.719-2.268
		s-1.98-3.682-1.98-6.51c0-1.781,0.324-3.342,0.973-4.682s1.58-2.367,2.795-3.082s2.639-1.072,4.271-1.072
		c1.664,0,3.336,0.402,5.016,1.207l-1.172,2.953c-0.641-0.305-1.285-0.57-1.934-0.797S174.118,191.982,173.493,191.982z"/>
	<path d="M195.724,197.607c0,2.82-0.803,4.98-2.408,6.48s-3.924,2.25-6.955,2.25h-4.852v-17.133h5.379
		c2.797,0,4.969,0.738,6.516,2.215S195.724,194.959,195.724,197.607z M191.95,197.701c0-3.68-1.625-5.52-4.875-5.52h-1.934v11.156
		h1.559C190.2,203.338,191.95,201.459,191.95,197.701z"/>
	<path d="M209.388,201.58c0,1.547-0.557,2.766-1.67,3.656s-2.662,1.336-4.646,1.336c-1.828,0-3.445-0.344-4.852-1.031v-3.375
		c1.156,0.516,2.135,0.879,2.936,1.09s1.533,0.316,2.197,0.316c0.797,0,1.408-0.152,1.834-0.457s0.639-0.758,0.639-1.359
		c0-0.336-0.094-0.635-0.281-0.896s-0.463-0.514-0.826-0.756s-1.104-0.629-2.221-1.16c-1.047-0.492-1.832-0.965-2.355-1.418
		s-0.941-0.98-1.254-1.582s-0.469-1.305-0.469-2.109c0-1.516,0.514-2.707,1.541-3.574s2.447-1.301,4.26-1.301
		c0.891,0,1.74,0.105,2.549,0.316s1.654,0.508,2.537,0.891l-1.172,2.824c-0.914-0.375-1.67-0.637-2.268-0.785
		s-1.186-0.223-1.764-0.223c-0.688,0-1.215,0.16-1.582,0.48s-0.551,0.738-0.551,1.254c0,0.32,0.074,0.6,0.223,0.838
		s0.385,0.469,0.709,0.691s1.092,0.623,2.303,1.201c1.602,0.766,2.699,1.533,3.293,2.303S209.388,200.463,209.388,201.58z"/>
	<path d="M222.981,206.338l-1.242-4.078h-6.246l-1.242,4.078h-3.914l6.047-17.203h4.441l6.07,17.203H222.981z M220.872,199.213
		c-1.148-3.695-1.795-5.785-1.939-6.27s-0.248-0.867-0.311-1.148c-0.258,1-0.996,3.473-2.215,7.418H220.872z"/>
	<path d="M240.524,203.725c0.625,0,1.375-0.137,2.25-0.41v2.66c-0.891,0.398-1.984,0.598-3.281,0.598
		c-1.43,0-2.471-0.361-3.123-1.084s-0.979-1.807-0.979-3.252v-6.316h-1.711v-1.512l1.969-1.195l1.031-2.766h2.285v2.789h3.668v2.684
		h-3.668v6.316c0,0.508,0.143,0.883,0.428,1.125S240.056,203.725,240.524,203.725z"/>
	<path d="M257.329,199.764c0,2.133-0.562,3.801-1.688,5.004s-2.691,1.805-4.699,1.805c-1.258,0-2.367-0.275-3.328-0.826
		s-1.699-1.342-2.215-2.373s-0.773-2.234-0.773-3.609c0-2.141,0.559-3.805,1.676-4.992s2.688-1.781,4.711-1.781
		c1.258,0,2.367,0.273,3.328,0.82s1.699,1.332,2.215,2.355S257.329,198.389,257.329,199.764z M248.271,199.764
		c0,1.297,0.213,2.277,0.639,2.941s1.119,0.996,2.08,0.996c0.953,0,1.639-0.33,2.057-0.99s0.627-1.643,0.627-2.947
		c0-1.297-0.211-2.27-0.633-2.918s-1.113-0.973-2.074-0.973c-0.953,0-1.641,0.322-2.062,0.967S248.271,198.459,248.271,199.764z"/>
	<path d="M274.837,206.338l-0.691-1.781h-0.094c-0.602,0.758-1.221,1.283-1.857,1.576s-1.467,0.439-2.49,0.439
		c-1.258,0-2.248-0.359-2.971-1.078s-1.084-1.742-1.084-3.07c0-1.391,0.486-2.416,1.459-3.076s2.439-1.025,4.4-1.096l2.273-0.07
		v-0.574c0-1.328-0.68-1.992-2.039-1.992c-1.047,0-2.277,0.316-3.691,0.949l-1.184-2.414c1.508-0.789,3.18-1.184,5.016-1.184
		c1.758,0,3.105,0.383,4.043,1.148s1.406,1.93,1.406,3.492v8.73H274.837z M273.782,200.268l-1.383,0.047
		c-1.039,0.031-1.812,0.219-2.32,0.562s-0.762,0.867-0.762,1.57c0,1.008,0.578,1.512,1.734,1.512c0.828,0,1.49-0.238,1.986-0.715
		s0.744-1.109,0.744-1.898V200.268z"/>
	<path d="M285.665,194.818c0.172-0.711,0.455-1.604,0.85-2.678s0.799-2.053,1.213-2.936h2.566c-0.516,2.086-0.91,4.043-1.184,5.871
		h-3.281L285.665,194.818z M291.138,194.818c0.172-0.711,0.455-1.604,0.85-2.678s0.799-2.053,1.213-2.936h2.566
		c-0.516,2.086-0.91,4.043-1.184,5.871h-3.281L291.138,194.818z"/>
	<path d="M303.243,206.572c-4.078,0-6.117-2.238-6.117-6.715c0-2.227,0.555-3.928,1.664-5.104s2.699-1.764,4.77-1.764
		c1.516,0,2.875,0.297,4.078,0.891l-1.055,2.766c-0.562-0.227-1.086-0.412-1.57-0.557s-0.969-0.217-1.453-0.217
		c-1.859,0-2.789,1.32-2.789,3.961c0,2.562,0.93,3.844,2.789,3.844c0.688,0,1.324-0.092,1.91-0.275s1.172-0.471,1.758-0.861v3.059
		c-0.578,0.367-1.162,0.621-1.752,0.762S304.142,206.572,303.243,206.572z"/>
	<path d="M322.169,199.764c0,2.133-0.562,3.801-1.688,5.004s-2.691,1.805-4.699,1.805c-1.258,0-2.367-0.275-3.328-0.826
		s-1.699-1.342-2.215-2.373s-0.773-2.234-0.773-3.609c0-2.141,0.559-3.805,1.676-4.992s2.688-1.781,4.711-1.781
		c1.258,0,2.367,0.273,3.328,0.82s1.699,1.332,2.215,2.355S322.169,198.389,322.169,199.764z M313.11,199.764
		c0,1.297,0.213,2.277,0.639,2.941s1.119,0.996,2.08,0.996c0.953,0,1.639-0.33,2.057-0.99s0.627-1.643,0.627-2.947
		c0-1.297-0.211-2.27-0.633-2.918s-1.113-0.973-2.074-0.973c-0.953,0-1.641,0.322-2.062,0.967S313.11,198.459,313.11,199.764z"/>
	<path d="M336.853,206.338h-3.574v-7.652c0-0.945-0.158-1.654-0.475-2.127s-0.814-0.709-1.494-0.709
		c-0.914,0-1.578,0.336-1.992,1.008s-0.621,1.777-0.621,3.316v6.164h-3.574v-13.102h2.73l0.48,1.676h0.199
		c0.352-0.602,0.859-1.072,1.523-1.412s1.426-0.51,2.285-0.51c1.961,0,3.289,0.641,3.984,1.922h0.316
		c0.352-0.609,0.869-1.082,1.553-1.418s1.455-0.504,2.314-0.504c1.484,0,2.607,0.381,3.369,1.143s1.143,1.982,1.143,3.662v8.543
		h-3.586v-7.652c0-0.945-0.158-1.654-0.475-2.127s-0.814-0.709-1.494-0.709c-0.875,0-1.529,0.312-1.963,0.938
		s-0.65,1.617-0.65,2.977V206.338z"/>
	<path d="M360.419,206.338h-3.574v-7.652c0-0.945-0.158-1.654-0.475-2.127s-0.814-0.709-1.494-0.709
		c-0.914,0-1.578,0.336-1.992,1.008s-0.621,1.777-0.621,3.316v6.164h-3.574v-13.102h2.73l0.48,1.676h0.199
		c0.352-0.602,0.859-1.072,1.523-1.412s1.426-0.51,2.285-0.51c1.961,0,3.289,0.641,3.984,1.922h0.316
		c0.352-0.609,0.869-1.082,1.553-1.418s1.455-0.504,2.314-0.504c1.484,0,2.607,0.381,3.369,1.143s1.143,1.982,1.143,3.662v8.543
		h-3.586v-7.652c0-0.945-0.158-1.654-0.475-2.127s-0.814-0.709-1.494-0.709c-0.875,0-1.529,0.312-1.963,0.938
		s-0.65,1.617-0.65,2.977V206.338z"/>
	<path d="M372.103,189.85c0-1.164,0.648-1.746,1.945-1.746s1.945,0.582,1.945,1.746c0,0.555-0.162,0.986-0.486,1.295
		s-0.811,0.463-1.459,0.463C372.751,191.607,372.103,191.021,372.103,189.85z M375.829,206.338h-3.574v-13.102h3.574V206.338z"/>
	<path d="M385.099,203.725c0.625,0,1.375-0.137,2.25-0.41v2.66c-0.891,0.398-1.984,0.598-3.281,0.598
		c-1.43,0-2.471-0.361-3.123-1.084s-0.979-1.807-0.979-3.252v-6.316h-1.711v-1.512l1.969-1.195l1.031-2.766h2.285v2.789h3.668v2.684
		h-3.668v6.316c0,0.508,0.143,0.883,0.428,1.125S384.63,203.725,385.099,203.725z"/>
	<path d="M401.728,206.338h-3.574v-7.652c0-0.945-0.158-1.654-0.475-2.127s-0.814-0.709-1.494-0.709
		c-0.914,0-1.578,0.336-1.992,1.008s-0.621,1.777-0.621,3.316v6.164h-3.574v-13.102h2.73l0.48,1.676h0.199
		c0.352-0.602,0.859-1.072,1.523-1.412s1.426-0.51,2.285-0.51c1.961,0,3.289,0.641,3.984,1.922h0.316
		c0.352-0.609,0.869-1.082,1.553-1.418s1.455-0.504,2.314-0.504c1.484,0,2.607,0.381,3.369,1.143s1.143,1.982,1.143,3.662v8.543
		h-3.586v-7.652c0-0.945-0.158-1.654-0.475-2.127s-0.814-0.709-1.494-0.709c-0.875,0-1.529,0.312-1.963,0.938
		s-0.65,1.617-0.65,2.977V206.338z"/>
	<path d="M419.493,206.572c-2.109,0-3.758-0.582-4.945-1.746s-1.781-2.812-1.781-4.945c0-2.195,0.549-3.893,1.646-5.092
		s2.615-1.799,4.553-1.799c1.852,0,3.293,0.527,4.324,1.582s1.547,2.512,1.547,4.371v1.734h-8.449
		c0.039,1.016,0.34,1.809,0.902,2.379s1.352,0.855,2.367,0.855c0.789,0,1.535-0.082,2.238-0.246s1.438-0.426,2.203-0.785v2.766
		c-0.625,0.312-1.293,0.545-2.004,0.697S420.517,206.572,419.493,206.572z M418.989,195.533c-0.758,0-1.352,0.24-1.781,0.721
		s-0.676,1.162-0.738,2.045h5.016c-0.016-0.883-0.246-1.564-0.691-2.045S419.747,195.533,418.989,195.533z"/>
	<path d="M439.837,206.338h-3.574v-7.652c0-0.945-0.168-1.654-0.504-2.127s-0.871-0.709-1.605-0.709c-1,0-1.723,0.334-2.168,1.002
		s-0.668,1.775-0.668,3.322v6.164h-3.574v-13.102h2.73l0.48,1.676h0.199c0.398-0.633,0.947-1.111,1.646-1.436
		s1.494-0.486,2.385-0.486c1.523,0,2.68,0.412,3.469,1.236s1.184,2.014,1.184,3.568V206.338z"/>
	<path d="M449.036,203.725c0.625,0,1.375-0.137,2.25-0.41v2.66c-0.891,0.398-1.984,0.598-3.281,0.598
		c-1.43,0-2.471-0.361-3.123-1.084s-0.979-1.807-0.979-3.252v-6.316h-1.711v-1.512l1.969-1.195l1.031-2.766h2.285v2.789h3.668v2.684
		h-3.668v6.316c0,0.508,0.143,0.883,0.428,1.125S448.567,203.725,449.036,203.725z"/>
	<path d="M469.31,202.447c0,1.344-0.467,2.367-1.4,3.07s-2.33,1.055-4.189,1.055c-0.953,0-1.766-0.064-2.438-0.193
		s-1.301-0.318-1.887-0.568v-2.953c0.664,0.312,1.412,0.574,2.244,0.785s1.564,0.316,2.197,0.316c1.297,0,1.945-0.375,1.945-1.125
		c0-0.281-0.086-0.51-0.258-0.686s-0.469-0.375-0.891-0.598s-0.984-0.482-1.688-0.779c-1.008-0.422-1.748-0.812-2.221-1.172
		s-0.816-0.771-1.031-1.236s-0.322-1.037-0.322-1.717c0-1.164,0.451-2.064,1.354-2.701s2.182-0.955,3.838-0.955
		c1.578,0,3.113,0.344,4.605,1.031l-1.078,2.578c-0.656-0.281-1.27-0.512-1.84-0.691s-1.152-0.27-1.746-0.27
		c-1.055,0-1.582,0.285-1.582,0.855c0,0.32,0.17,0.598,0.51,0.832s1.084,0.582,2.232,1.043c1.023,0.414,1.773,0.801,2.25,1.16
		s0.828,0.773,1.055,1.242S469.31,201.799,469.31,202.447z"/>
	<path d="M477.419,206.572c-4.078,0-6.117-2.238-6.117-6.715c0-2.227,0.555-3.928,1.664-5.104s2.699-1.764,4.77-1.764
		c1.516,0,2.875,0.297,4.078,0.891l-1.055,2.766c-0.562-0.227-1.086-0.412-1.57-0.557s-0.969-0.217-1.453-0.217
		c-1.859,0-2.789,1.32-2.789,3.961c0,2.562,0.93,3.844,2.789,3.844c0.688,0,1.324-0.092,1.91-0.275s1.172-0.471,1.758-0.861v3.059
		c-0.578,0.367-1.162,0.621-1.752,0.762S478.317,206.572,477.419,206.572z"/>
	<path d="M496.532,206.338h-3.574v-7.652c0-1.891-0.703-2.836-2.109-2.836c-1,0-1.723,0.34-2.168,1.02s-0.668,1.781-0.668,3.305
		v6.164h-3.574v-18.234h3.574v3.715c0,0.289-0.027,0.969-0.082,2.039l-0.082,1.055h0.188c0.797-1.281,2.062-1.922,3.797-1.922
		c1.539,0,2.707,0.414,3.504,1.242s1.195,2.016,1.195,3.562V206.338z"/>
	<path d="M506.142,206.572c-2.109,0-3.758-0.582-4.945-1.746s-1.781-2.812-1.781-4.945c0-2.195,0.549-3.893,1.646-5.092
		s2.615-1.799,4.553-1.799c1.852,0,3.293,0.527,4.324,1.582s1.547,2.512,1.547,4.371v1.734h-8.449
		c0.039,1.016,0.34,1.809,0.902,2.379s1.352,0.855,2.367,0.855c0.789,0,1.535-0.082,2.238-0.246s1.438-0.426,2.203-0.785v2.766
		c-0.625,0.312-1.293,0.545-2.004,0.697S507.165,206.572,506.142,206.572z M505.638,195.533c-0.758,0-1.352,0.24-1.781,0.721
		s-0.676,1.162-0.738,2.045h5.016c-0.016-0.883-0.246-1.564-0.691-2.045S506.396,195.533,505.638,195.533z"/>
	<path d="M526.122,206.338h-3.574v-7.652c0-0.945-0.158-1.654-0.475-2.127s-0.814-0.709-1.494-0.709
		c-0.914,0-1.578,0.336-1.992,1.008s-0.621,1.777-0.621,3.316v6.164h-3.574v-13.102h2.73l0.48,1.676h0.199
		c0.352-0.602,0.859-1.072,1.523-1.412s1.426-0.51,2.285-0.51c1.961,0,3.289,0.641,3.984,1.922h0.316
		c0.352-0.609,0.869-1.082,1.553-1.418s1.455-0.504,2.314-0.504c1.484,0,2.607,0.381,3.369,1.143s1.143,1.982,1.143,3.662v8.543
		h-3.586v-7.652c0-0.945-0.158-1.654-0.475-2.127s-0.814-0.709-1.494-0.709c-0.875,0-1.529,0.312-1.963,0.938
		s-0.65,1.617-0.65,2.977V206.338z"/>
	<path d="M543.888,206.572c-2.109,0-3.758-0.582-4.945-1.746s-1.781-2.812-1.781-4.945c0-2.195,0.549-3.893,1.646-5.092
		s2.615-1.799,4.553-1.799c1.852,0,3.293,0.527,4.324,1.582s1.547,2.512,1.547,4.371v1.734h-8.449
		c0.039,1.016,0.34,1.809,0.902,2.379s1.352,0.855,2.367,0.855c0.789,0,1.535-0.082,2.238-0.246s1.438-0.426,2.203-0.785v2.766
		c-0.625,0.312-1.293,0.545-2.004,0.697S544.911,206.572,543.888,206.572z M543.384,195.533c-0.758,0-1.352,0.24-1.781,0.721
		s-0.676,1.162-0.738,2.045h5.016c-0.016-0.883-0.246-1.564-0.691-2.045S544.142,195.533,543.384,195.533z"/>
	<path d="M555.185,189.463c-0.391,1.539-1.078,3.41-2.062,5.613h-2.566c0.539-2.312,0.93-4.27,1.172-5.871h3.293L555.185,189.463z
		 M560.657,189.463c-0.391,1.539-1.078,3.41-2.062,5.613h-2.566c0.539-2.312,0.93-4.27,1.172-5.871h3.281L560.657,189.463z"/>
</g>
<g>
	<rect x="35.903" y="233.596" fill="none" width="655.097" height="93.998"/>
	<path d="M45.853,249.862c-0.43,0.625-0.951,1.111-1.564,1.459s-1.299,0.521-2.057,0.521c-0.656,0-1.256-0.102-1.799-0.305
		s-1.008-0.525-1.395-0.967s-0.688-1.004-0.902-1.688s-0.322-1.506-0.322-2.467v-7.5h2.801v7.523c0,0.609,0.045,1.113,0.135,1.512
		s0.229,0.715,0.416,0.949s0.422,0.4,0.703,0.498s0.617,0.146,1.008,0.146c0.75,0,1.355-0.146,1.816-0.439s0.809-0.689,1.043-1.189
		v-9h2.812v12.68h-2.531L45.853,249.862z"/>
	<path d="M56.856,243.206c0-0.219,0.037-0.424,0.111-0.615s0.18-0.357,0.316-0.498s0.307-0.25,0.51-0.328s0.434-0.117,0.691-0.117
		s0.488,0.039,0.691,0.117s0.375,0.188,0.516,0.328s0.248,0.307,0.322,0.498s0.111,0.396,0.111,0.615s-0.037,0.422-0.111,0.609
		s-0.182,0.352-0.322,0.492s-0.312,0.25-0.516,0.328s-0.434,0.117-0.691,0.117s-0.488-0.039-0.691-0.117s-0.373-0.188-0.51-0.328
		s-0.242-0.305-0.316-0.492S56.856,243.424,56.856,243.206z"/>
	<path d="M77.903,249.463c-0.289,0.344-0.629,0.66-1.02,0.949s-0.828,0.539-1.312,0.75s-1.01,0.375-1.576,0.492
		s-1.17,0.176-1.811,0.176c-1.023,0-1.93-0.199-2.719-0.598s-1.455-0.943-1.998-1.635s-0.957-1.506-1.242-2.443
		s-0.432-1.945-0.439-3.023v-2.109c0-1.078,0.141-2.086,0.422-3.023s0.686-1.754,1.213-2.449s1.174-1.244,1.939-1.646
		s1.641-0.604,2.625-0.604c0.883,0,1.672,0.121,2.367,0.363s1.293,0.592,1.793,1.049s0.896,1.014,1.189,1.67
		s0.479,1.391,0.557,2.203h-2.766c-0.07-0.461-0.18-0.875-0.328-1.242s-0.348-0.68-0.598-0.938s-0.553-0.455-0.908-0.592
		s-0.775-0.205-1.26-0.205c-0.594,0-1.104,0.146-1.529,0.439s-0.779,0.688-1.061,1.184s-0.488,1.07-0.621,1.723
		s-0.203,1.334-0.211,2.045v2.133c0.008,0.711,0.08,1.391,0.217,2.039s0.352,1.221,0.645,1.717s0.67,0.893,1.131,1.189
		s1.016,0.449,1.664,0.457c0.266,0,0.539-0.018,0.82-0.053s0.549-0.092,0.803-0.17s0.486-0.178,0.697-0.299s0.383-0.271,0.516-0.451
		l0.023-3.41h-3.082v-2.191h5.836L77.903,249.463z"/>
	<path d="M102.009,242.221h4.477v2.637h-4.477v5.027h-2.73v-5.027H94.79v-2.637h4.488v-4.758h2.73V242.221z"/>
	<path d="M129.325,248.057l0.199,0.938l0.211-0.926l3.07-9.152h2.895l-4.969,12.68h-2.414l-5.016-12.68h2.895L129.325,248.057z"/>
	<path d="M143.271,243.206c0-0.219,0.037-0.424,0.111-0.615s0.18-0.357,0.316-0.498s0.307-0.25,0.51-0.328s0.434-0.117,0.691-0.117
		s0.488,0.039,0.691,0.117s0.375,0.188,0.516,0.328s0.248,0.307,0.322,0.498s0.111,0.396,0.111,0.615s-0.037,0.422-0.111,0.609
		s-0.182,0.352-0.322,0.492s-0.312,0.25-0.516,0.328s-0.434,0.117-0.691,0.117s-0.488-0.039-0.691-0.117s-0.373-0.188-0.51-0.328
		s-0.242-0.305-0.316-0.492S143.271,243.424,143.271,243.206z"/>
	<path d="M155.892,245.057v6.539h-2.812v-17.062h5.707c0.852,0.008,1.639,0.135,2.361,0.381s1.346,0.598,1.869,1.055
		s0.932,1.012,1.225,1.664s0.439,1.389,0.439,2.209c0,0.797-0.146,1.516-0.439,2.156s-0.701,1.188-1.225,1.641
		s-1.146,0.801-1.869,1.043s-1.51,0.367-2.361,0.375H155.892z M155.892,242.784h2.895c0.477,0,0.902-0.072,1.277-0.217
		s0.695-0.346,0.961-0.604s0.469-0.566,0.609-0.926s0.211-0.75,0.211-1.172c0-0.445-0.07-0.855-0.211-1.23s-0.344-0.697-0.609-0.967
		s-0.586-0.479-0.961-0.627s-0.801-0.227-1.277-0.234h-2.895V242.784z"/>
	<path d="M192.642,242.854H181.86v-2.332h10.781V242.854z M192.642,247.823H181.86v-2.332h10.781V247.823z"/>
	<path d="M214.884,246.053l-1.523,1.453v4.09h-2.801v-18h2.801v10.605l1.184-1.324l3.727-3.961h3.375l-4.898,5.273l5.648,7.406
		h-3.492L214.884,246.053z"/>
	<path d="M229.685,243.206c0-0.219,0.037-0.424,0.111-0.615s0.18-0.357,0.316-0.498s0.307-0.25,0.51-0.328s0.434-0.117,0.691-0.117
		s0.488,0.039,0.691,0.117s0.375,0.188,0.516,0.328s0.248,0.307,0.322,0.498s0.111,0.396,0.111,0.615s-0.037,0.422-0.111,0.609
		s-0.182,0.352-0.322,0.492s-0.312,0.25-0.516,0.328s-0.434,0.117-0.691,0.117s-0.488-0.039-0.691-0.117s-0.373-0.188-0.51-0.328
		s-0.242-0.305-0.316-0.492S229.685,243.424,229.685,243.206z"/>
	<path d="M250.731,249.463c-0.289,0.344-0.629,0.66-1.02,0.949s-0.828,0.539-1.312,0.75s-1.01,0.375-1.576,0.492
		s-1.17,0.176-1.811,0.176c-1.023,0-1.93-0.199-2.719-0.598s-1.455-0.943-1.998-1.635s-0.957-1.506-1.242-2.443
		s-0.432-1.945-0.439-3.023v-2.109c0-1.078,0.141-2.086,0.422-3.023s0.686-1.754,1.213-2.449s1.174-1.244,1.939-1.646
		s1.641-0.604,2.625-0.604c0.883,0,1.672,0.121,2.367,0.363s1.293,0.592,1.793,1.049s0.896,1.014,1.189,1.67
		s0.479,1.391,0.557,2.203h-2.766c-0.07-0.461-0.18-0.875-0.328-1.242s-0.348-0.68-0.598-0.938s-0.553-0.455-0.908-0.592
		s-0.775-0.205-1.26-0.205c-0.594,0-1.104,0.146-1.529,0.439s-0.779,0.688-1.061,1.184s-0.488,1.07-0.621,1.723
		s-0.203,1.334-0.211,2.045v2.133c0.008,0.711,0.08,1.391,0.217,2.039s0.352,1.221,0.645,1.717s0.67,0.893,1.131,1.189
		s1.016,0.449,1.664,0.457c0.266,0,0.539-0.018,0.82-0.053s0.549-0.092,0.803-0.17s0.486-0.178,0.697-0.299s0.383-0.271,0.516-0.451
		l0.023-3.41h-3.082v-2.191h5.836L250.731,249.463z"/>
	<path d="M279.056,242.854h-10.781v-2.332h10.781V242.854z M279.056,247.823h-10.781v-2.332h10.781V247.823z"/>
	<path d="M302.61,244.94h-2.859v6.656h-2.812v-17.062h5.391c0.875,0.008,1.682,0.119,2.42,0.334s1.377,0.535,1.916,0.961
		s0.957,0.959,1.254,1.6s0.445,1.391,0.445,2.25c0,0.578-0.076,1.104-0.229,1.576s-0.365,0.9-0.639,1.283s-0.602,0.719-0.984,1.008
		s-0.805,0.535-1.266,0.738l3.609,7.172v0.141h-3L302.61,244.94z M299.751,242.667h2.59c0.469,0,0.898-0.066,1.289-0.199
		s0.729-0.322,1.014-0.568s0.506-0.547,0.662-0.902s0.234-0.764,0.234-1.225c0-0.477-0.074-0.898-0.223-1.266
		s-0.361-0.676-0.639-0.926s-0.615-0.439-1.014-0.568s-0.844-0.197-1.336-0.205h-2.578V242.667z"/>
	<path d="M313.626,244.659c0-1.133,0.09-2.191,0.27-3.176s0.418-1.895,0.715-2.73s0.643-1.596,1.037-2.279s0.809-1.289,1.242-1.816
		s0.871-0.973,1.312-1.336s0.861-0.646,1.26-0.85l0.562,1.652c-0.445,0.344-0.895,0.809-1.348,1.395s-0.863,1.309-1.23,2.168
		s-0.666,1.865-0.896,3.018s-0.346,2.463-0.346,3.932v0.234c0,1.469,0.115,2.779,0.346,3.932s0.529,2.162,0.896,3.029
		s0.777,1.598,1.23,2.191s0.902,1.07,1.348,1.43l-0.562,1.57c-0.398-0.195-0.818-0.477-1.26-0.844s-0.879-0.814-1.312-1.342
		s-0.848-1.131-1.242-1.811s-0.74-1.438-1.037-2.273s-0.535-1.746-0.715-2.73s-0.27-2.043-0.27-3.176V244.659z"/>
	<path d="M334.474,238.682c0.227,0,0.453,0.008,0.68,0.023s0.443,0.039,0.65,0.07s0.396,0.064,0.568,0.1s0.316,0.076,0.434,0.123
		l-0.398,2.754c-0.859-0.195-1.707-0.293-2.543-0.293c-0.938,0-1.693,0.195-2.268,0.586s-0.998,0.934-1.271,1.629v7.922h-2.801
		v-12.68h2.625l0.129,1.98c0.516-0.688,1.127-1.229,1.834-1.623S333.606,238.682,334.474,238.682z"/>
	<path d="M350.868,253.799H340.11v-2.203h10.758V253.799z"/>
	<path d="M360.114,243.206l3.023-4.289h3.117l-4.477,6.246l4.617,6.434h-3.105l-3.141-4.441l-3.129,4.441h-3.129l4.617-6.434
		l-4.477-6.246h3.105L360.114,243.206z"/>
	<path d="M375.138,251.209c0,0.414-0.053,0.84-0.158,1.277s-0.258,0.867-0.457,1.289s-0.438,0.822-0.715,1.201
		s-0.584,0.717-0.92,1.014l-1.582-0.832c0.336-0.562,0.594-1.154,0.773-1.775s0.27-1.314,0.27-2.08v-2.449h2.801L375.138,251.209z"
		/>
	<path d="M406.485,238.682c0.227,0,0.453,0.008,0.68,0.023s0.443,0.039,0.65,0.07s0.396,0.064,0.568,0.1s0.316,0.076,0.434,0.123
		l-0.398,2.754c-0.859-0.195-1.707-0.293-2.543-0.293c-0.938,0-1.693,0.195-2.268,0.586s-0.998,0.934-1.271,1.629v7.922h-2.801
		v-12.68h2.625l0.129,1.98c0.516-0.688,1.127-1.229,1.834-1.623S405.618,238.682,406.485,238.682z"/>
	<path d="M422.88,253.799h-10.758v-2.203h10.758V253.799z"/>
	<path d="M431.61,246.522l0.48,1.523l3.562-9.129h3.105l-6.422,14.602c-0.141,0.32-0.324,0.666-0.551,1.037
		s-0.506,0.717-0.838,1.037s-0.729,0.588-1.189,0.803s-1,0.322-1.617,0.322c-0.258,0-0.518-0.021-0.779-0.064
		s-0.494-0.092-0.697-0.146l0.398-2.18c0.055,0,0.129,0.002,0.223,0.006s0.191,0.01,0.293,0.018s0.197,0.014,0.287,0.018
		s0.162,0.006,0.217,0.006c0.273,0,0.518-0.08,0.732-0.24s0.404-0.344,0.568-0.551s0.299-0.41,0.404-0.609s0.182-0.334,0.229-0.404
		l0.832-1.57l-5.391-12.082h3.094L431.61,246.522z"/>
	<path d="M449.341,244.846c0,1.117-0.09,2.166-0.27,3.146s-0.422,1.887-0.727,2.719s-0.656,1.592-1.055,2.279
		s-0.818,1.297-1.26,1.828s-0.887,0.982-1.336,1.354s-0.873,0.654-1.271,0.85l-0.551-1.57c0.438-0.336,0.883-0.801,1.336-1.395
		s0.863-1.326,1.23-2.197s0.668-1.887,0.902-3.047s0.352-2.475,0.352-3.943v-0.234c0-1.469-0.123-2.783-0.369-3.943
		s-0.557-2.178-0.932-3.053s-0.787-1.609-1.236-2.203s-0.877-1.059-1.283-1.395l0.551-1.57c0.398,0.203,0.822,0.488,1.271,0.855
		s0.895,0.816,1.336,1.348s0.861,1.143,1.26,1.834s0.75,1.455,1.055,2.291s0.547,1.744,0.727,2.725s0.27,2.025,0.27,3.135V244.846z"
		/>
	<path d="M75.841,279.565v7.031h-1.406v-17.062h5.367c0.75,0.016,1.451,0.141,2.104,0.375s1.223,0.568,1.711,1.002
		s0.873,0.959,1.154,1.576s0.422,1.316,0.422,2.098s-0.141,1.479-0.422,2.092s-0.666,1.133-1.154,1.559s-1.061,0.752-1.717,0.979
		s-1.355,0.344-2.098,0.352H75.841z M75.841,278.381h3.961c0.562-0.008,1.086-0.102,1.57-0.281s0.906-0.43,1.266-0.75
		s0.643-0.711,0.85-1.172s0.311-0.984,0.311-1.57s-0.102-1.117-0.305-1.594s-0.484-0.881-0.844-1.213s-0.781-0.59-1.266-0.773
		s-1.012-0.283-1.582-0.299h-3.961V278.381z"/>
	<path d="M98.798,277.081H88.345v-1.242h10.453V277.081z M98.798,281.897H88.345v-1.242h10.453V281.897z"/>
	<path d="M108.384,286.831c-0.883,0-1.688-0.164-2.414-0.492s-1.35-0.773-1.869-1.336s-0.922-1.221-1.207-1.975
		s-0.432-1.557-0.439-2.408v-0.504c0.008-0.906,0.158-1.75,0.451-2.531s0.693-1.461,1.201-2.039s1.105-1.033,1.793-1.365
		s1.426-0.498,2.215-0.498c0.844,0,1.59,0.152,2.238,0.457s1.193,0.721,1.635,1.248s0.777,1.143,1.008,1.846s0.35,1.457,0.357,2.262
		v0.855h-9.492v0.27c0.008,0.664,0.121,1.299,0.34,1.904s0.527,1.139,0.926,1.6s0.879,0.83,1.441,1.107s1.188,0.416,1.875,0.416
		c0.781,0.008,1.488-0.137,2.121-0.434s1.172-0.727,1.617-1.289l0.891,0.668c-0.234,0.328-0.512,0.631-0.832,0.908
		s-0.678,0.514-1.072,0.709s-0.826,0.348-1.295,0.457S108.907,286.831,108.384,286.831z M108.114,274.877
		c-0.57,0-1.094,0.107-1.57,0.322s-0.895,0.514-1.254,0.896s-0.656,0.834-0.891,1.354s-0.395,1.088-0.48,1.705h8.027v-0.152
		c-0.016-0.523-0.111-1.033-0.287-1.529s-0.426-0.936-0.75-1.318s-0.721-0.691-1.189-0.926S108.716,274.877,108.114,274.877z"/>
	<path d="M121.649,278.194c0-0.266,0.09-0.494,0.27-0.686s0.422-0.287,0.727-0.287s0.549,0.096,0.732,0.287s0.275,0.42,0.275,0.686
		s-0.092,0.492-0.275,0.68s-0.428,0.281-0.732,0.281s-0.547-0.094-0.727-0.281S121.649,278.459,121.649,278.194z"/>
	<path d="M142.368,284.569c-0.336,0.398-0.707,0.742-1.113,1.031s-0.838,0.525-1.295,0.709s-0.936,0.316-1.436,0.398
		s-1.008,0.123-1.523,0.123c-0.68-0.008-1.303-0.115-1.869-0.322s-1.076-0.492-1.529-0.855s-0.848-0.789-1.184-1.277
		s-0.615-1.014-0.838-1.576s-0.393-1.15-0.51-1.764s-0.18-1.225-0.188-1.834v-2.391c0.008-0.594,0.064-1.191,0.17-1.793
		s0.266-1.182,0.48-1.74s0.482-1.078,0.803-1.559s0.699-0.9,1.137-1.26s0.932-0.643,1.482-0.85s1.166-0.311,1.846-0.311
		c0.758,0,1.459,0.123,2.104,0.369s1.209,0.59,1.693,1.031s0.877,0.971,1.178,1.588s0.49,1.301,0.568,2.051h-1.383
		c-0.109-0.547-0.275-1.055-0.498-1.523s-0.506-0.871-0.85-1.207s-0.748-0.6-1.213-0.791s-0.994-0.287-1.588-0.287
		c-0.547,0-1.039,0.092-1.477,0.275s-0.822,0.43-1.154,0.738s-0.617,0.668-0.855,1.078s-0.434,0.848-0.586,1.312
		s-0.264,0.941-0.334,1.43s-0.109,0.963-0.117,1.424v2.414c0.008,0.477,0.053,0.965,0.135,1.465s0.205,0.986,0.369,1.459
		s0.371,0.92,0.621,1.342s0.549,0.791,0.896,1.107s0.744,0.566,1.189,0.75s0.949,0.279,1.512,0.287
		c0.352,0.008,0.715-0.01,1.09-0.053s0.74-0.121,1.096-0.234s0.688-0.268,0.996-0.463s0.576-0.441,0.803-0.738l0.012-4.406h-4.043
		v-1.219h5.379L142.368,284.569z"/>
	<path d="M160.157,280.139c0-0.844,0.105-1.654,0.316-2.432s0.525-1.465,0.943-2.062s0.941-1.074,1.57-1.43s1.369-0.533,2.221-0.533
		c0.805,0,1.525,0.172,2.162,0.516s1.17,0.824,1.6,1.441v-7.043h1.395v18h-1.312l-0.059-1.652c-0.445,0.609-0.992,1.076-1.641,1.4
		s-1.371,0.486-2.168,0.486c-0.836,0-1.568-0.182-2.197-0.545s-1.152-0.844-1.57-1.441s-0.732-1.285-0.943-2.062
		s-0.316-1.576-0.316-2.396V280.139z M161.575,280.385c0,0.633,0.068,1.262,0.205,1.887s0.357,1.186,0.662,1.682
		s0.703,0.896,1.195,1.201s1.094,0.457,1.805,0.457c0.398,0,0.775-0.051,1.131-0.152s0.684-0.248,0.984-0.439
		s0.57-0.422,0.809-0.691s0.439-0.572,0.604-0.908v-6.141c-0.156-0.352-0.35-0.672-0.58-0.961s-0.494-0.539-0.791-0.75
		s-0.625-0.375-0.984-0.492s-0.742-0.176-1.148-0.176c-0.719,0-1.324,0.154-1.816,0.463s-0.893,0.711-1.201,1.207
		s-0.531,1.057-0.668,1.682s-0.205,1.254-0.205,1.887V280.385z"/>
	<path d="M175.31,273.917h5.883v11.438h4.312v1.242H175.31v-1.242h4.477V275.17h-4.477V273.917z M179.376,270.448
		c0-0.289,0.082-0.539,0.246-0.75s0.438-0.316,0.82-0.316c0.375,0,0.646,0.105,0.814,0.316s0.252,0.461,0.252,0.75
		c0,0.273-0.084,0.514-0.252,0.721s-0.439,0.311-0.814,0.311c-0.383,0-0.656-0.104-0.82-0.311S179.376,270.721,179.376,270.448z"/>
	<path d="M198.231,283.374c0-0.391-0.098-0.73-0.293-1.02s-0.463-0.537-0.803-0.744s-0.732-0.381-1.178-0.521
		s-0.918-0.262-1.418-0.363c-0.609-0.125-1.199-0.275-1.77-0.451s-1.078-0.4-1.523-0.674s-0.801-0.607-1.066-1.002
		s-0.398-0.881-0.398-1.459c0-0.547,0.137-1.035,0.41-1.465s0.633-0.793,1.078-1.09s0.953-0.521,1.523-0.674
		s1.156-0.229,1.758-0.229c0.688,0,1.33,0.084,1.928,0.252s1.121,0.414,1.57,0.738s0.807,0.721,1.072,1.189s0.41,1.004,0.434,1.605
		h-1.406c-0.016-0.406-0.125-0.771-0.328-1.096s-0.473-0.596-0.809-0.814s-0.717-0.387-1.143-0.504s-0.865-0.176-1.318-0.176
		c-0.422,0-0.834,0.045-1.236,0.135s-0.762,0.227-1.078,0.41s-0.57,0.414-0.762,0.691s-0.287,0.604-0.287,0.979
		c-0.008,0.398,0.084,0.732,0.275,1.002s0.451,0.496,0.779,0.68s0.713,0.336,1.154,0.457s0.912,0.232,1.412,0.334
		c0.641,0.133,1.252,0.295,1.834,0.486s1.096,0.43,1.541,0.715s0.797,0.635,1.055,1.049s0.387,0.91,0.387,1.488
		c0,0.594-0.143,1.111-0.428,1.553s-0.66,0.809-1.125,1.102s-0.996,0.512-1.594,0.656s-1.213,0.217-1.846,0.217
		c-0.711,0-1.381-0.086-2.01-0.258s-1.184-0.42-1.664-0.744s-0.865-0.721-1.154-1.189s-0.445-1-0.469-1.594h1.406
		c0.047,0.5,0.197,0.918,0.451,1.254s0.566,0.604,0.938,0.803s0.775,0.34,1.213,0.422s0.867,0.123,1.289,0.123
		c0.43,0,0.857-0.045,1.283-0.135s0.809-0.227,1.148-0.41s0.617-0.418,0.832-0.703S198.224,283.772,198.231,283.374z"/>
	<path d="M208.931,285.647c0.469,0,0.916-0.068,1.342-0.205s0.803-0.334,1.131-0.592s0.596-0.568,0.803-0.932
		s0.326-0.775,0.357-1.236h1.348c-0.031,0.602-0.188,1.156-0.469,1.664s-0.648,0.945-1.102,1.312s-0.973,0.654-1.559,0.861
		s-1.203,0.311-1.852,0.311c-0.93,0-1.738-0.176-2.426-0.527s-1.26-0.82-1.717-1.406s-0.801-1.26-1.031-2.021
		s-0.346-1.553-0.346-2.373v-0.492c0-0.82,0.115-1.611,0.346-2.373s0.574-1.436,1.031-2.021s1.029-1.055,1.717-1.406
		s1.492-0.527,2.414-0.527c0.703,0,1.354,0.111,1.951,0.334s1.117,0.535,1.559,0.938s0.791,0.879,1.049,1.43
		s0.402,1.154,0.434,1.811h-1.348c-0.023-0.477-0.133-0.918-0.328-1.324s-0.453-0.758-0.773-1.055s-0.697-0.527-1.131-0.691
		s-0.904-0.246-1.412-0.246c-0.734,0-1.361,0.148-1.881,0.445s-0.943,0.688-1.271,1.172s-0.568,1.033-0.721,1.646
		s-0.229,1.236-0.229,1.869v0.492c0,0.641,0.076,1.27,0.229,1.887s0.393,1.166,0.721,1.646s0.752,0.869,1.271,1.166
		S208.188,285.647,208.931,285.647z"/>
	<path d="M226.579,273.682c0.352,0,0.703,0.021,1.055,0.064s0.645,0.104,0.879,0.182l-0.176,1.348
		c-0.328-0.07-0.656-0.125-0.984-0.164s-0.664-0.059-1.008-0.059c-1.188,0-2.195,0.281-3.023,0.844s-1.41,1.426-1.746,2.59
		l0.012,8.109h-1.453v-12.68h1.348l0.094,2.203v0.258c0.516-0.836,1.199-1.494,2.051-1.975S225.462,273.682,226.579,273.682z"/>
	<path d="M238.005,286.831c-0.883,0-1.688-0.164-2.414-0.492s-1.35-0.773-1.869-1.336s-0.922-1.221-1.207-1.975
		s-0.432-1.557-0.439-2.408v-0.504c0.008-0.906,0.158-1.75,0.451-2.531s0.693-1.461,1.201-2.039s1.105-1.033,1.793-1.365
		s1.426-0.498,2.215-0.498c0.844,0,1.59,0.152,2.238,0.457s1.193,0.721,1.635,1.248s0.777,1.143,1.008,1.846s0.35,1.457,0.357,2.262
		v0.855h-9.492v0.27c0.008,0.664,0.121,1.299,0.34,1.904s0.527,1.139,0.926,1.6s0.879,0.83,1.441,1.107s1.188,0.416,1.875,0.416
		c0.781,0.008,1.488-0.137,2.121-0.434s1.172-0.727,1.617-1.289l0.891,0.668c-0.234,0.328-0.512,0.631-0.832,0.908
		s-0.678,0.514-1.072,0.709s-0.826,0.348-1.295,0.457S238.528,286.831,238.005,286.831z M237.735,274.877
		c-0.57,0-1.094,0.107-1.57,0.322s-0.895,0.514-1.254,0.896s-0.656,0.834-0.891,1.354s-0.395,1.088-0.48,1.705h8.027v-0.152
		c-0.016-0.523-0.111-1.033-0.287-1.529s-0.426-0.936-0.75-1.318s-0.721-0.691-1.189-0.926S238.337,274.877,237.735,274.877z"/>
	<path d="M251.669,270.67v3.246h4.699v1.148h-4.699v7.98c0.008,0.492,0.084,0.9,0.229,1.225s0.34,0.586,0.586,0.785
		s0.535,0.342,0.867,0.428s0.693,0.129,1.084,0.129s0.791-0.027,1.201-0.082s0.76-0.109,1.049-0.164l0.211,1.066
		c-0.336,0.133-0.746,0.232-1.23,0.299s-0.977,0.1-1.477,0.1c-0.562,0-1.082-0.068-1.559-0.205s-0.891-0.355-1.242-0.656
		s-0.629-0.691-0.832-1.172s-0.309-1.068-0.316-1.764v-7.969h-3.527v-1.148h3.527v-3.246H251.669z"/>
	<path d="M266.81,286.831c-0.883,0-1.688-0.164-2.414-0.492s-1.35-0.773-1.869-1.336s-0.922-1.221-1.207-1.975
		s-0.432-1.557-0.439-2.408v-0.504c0.008-0.906,0.158-1.75,0.451-2.531s0.693-1.461,1.201-2.039s1.105-1.033,1.793-1.365
		s1.426-0.498,2.215-0.498c0.844,0,1.59,0.152,2.238,0.457s1.193,0.721,1.635,1.248s0.777,1.143,1.008,1.846s0.35,1.457,0.357,2.262
		v0.855h-9.492v0.27c0.008,0.664,0.121,1.299,0.34,1.904s0.527,1.139,0.926,1.6s0.879,0.83,1.441,1.107s1.188,0.416,1.875,0.416
		c0.781,0.008,1.488-0.137,2.121-0.434s1.172-0.727,1.617-1.289l0.891,0.668c-0.234,0.328-0.512,0.631-0.832,0.908
		s-0.678,0.514-1.072,0.709s-0.826,0.348-1.295,0.457S267.333,286.831,266.81,286.831z M266.54,274.877
		c-0.57,0-1.094,0.107-1.57,0.322s-0.895,0.514-1.254,0.896s-0.656,0.834-0.891,1.354s-0.395,1.088-0.48,1.705h8.027v-0.152
		c-0.016-0.523-0.111-1.033-0.287-1.529s-0.426-0.936-0.75-1.318s-0.721-0.691-1.189-0.926S267.142,274.877,266.54,274.877z"/>
	<path d="M290.528,268.596h5.906v16.758h4.289v1.242h-10.195v-1.242h4.5V269.85h-4.5V268.596z"/>
	<path d="M303.876,280.069c0.008-0.859,0.141-1.676,0.398-2.449s0.627-1.451,1.107-2.033s1.07-1.045,1.77-1.389
		s1.49-0.516,2.373-0.516c0.891,0,1.686,0.172,2.385,0.516s1.291,0.807,1.775,1.389s0.855,1.26,1.113,2.033s0.391,1.59,0.398,2.449
		v0.387c-0.008,0.859-0.139,1.676-0.393,2.449s-0.623,1.451-1.107,2.033s-1.074,1.043-1.77,1.383s-1.488,0.51-2.379,0.51
		s-1.686-0.17-2.385-0.51s-1.291-0.801-1.775-1.383s-0.855-1.26-1.113-2.033s-0.391-1.59-0.398-2.449V280.069z M305.282,280.456
		c0,0.672,0.094,1.32,0.281,1.945s0.461,1.178,0.82,1.658s0.803,0.865,1.33,1.154s1.139,0.434,1.834,0.434
		c0.688,0,1.295-0.145,1.822-0.434s0.969-0.674,1.324-1.154s0.627-1.033,0.814-1.658s0.281-1.273,0.281-1.945v-0.387
		c0-0.664-0.094-1.309-0.281-1.934s-0.461-1.178-0.82-1.658s-0.805-0.867-1.336-1.16s-1.141-0.439-1.828-0.439
		s-1.295,0.146-1.822,0.439s-0.969,0.68-1.324,1.16s-0.627,1.033-0.814,1.658s-0.281,1.27-0.281,1.934V280.456z"/>
	<path d="M318.606,280.139c0-0.844,0.102-1.654,0.305-2.432s0.514-1.465,0.932-2.062s0.941-1.074,1.57-1.43s1.373-0.533,2.232-0.533
		c0.812,0,1.541,0.174,2.186,0.521s1.182,0.838,1.611,1.471l0.059-1.758h1.312v12.457c-0.008,0.773-0.129,1.484-0.363,2.133
		s-0.572,1.205-1.014,1.67s-0.975,0.826-1.6,1.084s-1.328,0.387-2.109,0.387c-0.375,0-0.766-0.043-1.172-0.129
		s-0.805-0.219-1.195-0.398s-0.764-0.404-1.119-0.674s-0.666-0.592-0.932-0.967l0.785-0.844c1.008,1.219,2.188,1.828,3.539,1.828
		c0.602,0,1.137-0.098,1.605-0.293s0.861-0.471,1.178-0.826s0.559-0.781,0.727-1.277s0.256-1.041,0.264-1.635v-1.441
		c-0.445,0.594-0.99,1.049-1.635,1.365s-1.361,0.475-2.15,0.475c-0.844,0-1.58-0.182-2.209-0.545s-1.15-0.844-1.564-1.441
		s-0.725-1.285-0.932-2.062s-0.311-1.576-0.311-2.396V280.139z M320.013,280.385c0,0.633,0.068,1.262,0.205,1.887
		s0.357,1.186,0.662,1.682s0.703,0.896,1.195,1.201s1.094,0.457,1.805,0.457c0.398,0,0.777-0.053,1.137-0.158
		s0.689-0.256,0.99-0.451s0.57-0.432,0.809-0.709s0.436-0.588,0.592-0.932v-6.035c-0.156-0.352-0.348-0.676-0.574-0.973
		s-0.488-0.553-0.785-0.768s-0.625-0.383-0.984-0.504s-0.746-0.182-1.16-0.182c-0.719,0-1.324,0.154-1.816,0.463
		s-0.893,0.711-1.201,1.207s-0.531,1.057-0.668,1.682s-0.205,1.254-0.205,1.887V280.385z"/>
	<path d="M347.083,280.069c0.008-0.859,0.141-1.676,0.398-2.449s0.627-1.451,1.107-2.033s1.07-1.045,1.77-1.389
		s1.49-0.516,2.373-0.516c0.891,0,1.686,0.172,2.385,0.516s1.291,0.807,1.775,1.389s0.855,1.26,1.113,2.033s0.391,1.59,0.398,2.449
		v0.387c-0.008,0.859-0.139,1.676-0.393,2.449s-0.623,1.451-1.107,2.033s-1.074,1.043-1.77,1.383s-1.488,0.51-2.379,0.51
		s-1.686-0.17-2.385-0.51s-1.291-0.801-1.775-1.383s-0.855-1.26-1.113-2.033s-0.391-1.59-0.398-2.449V280.069z M348.489,280.456
		c0,0.672,0.094,1.32,0.281,1.945s0.461,1.178,0.82,1.658s0.803,0.865,1.33,1.154s1.139,0.434,1.834,0.434
		c0.688,0,1.295-0.145,1.822-0.434s0.969-0.674,1.324-1.154s0.627-1.033,0.814-1.658s0.281-1.273,0.281-1.945v-0.387
		c0-0.664-0.094-1.309-0.281-1.934s-0.461-1.178-0.82-1.658s-0.805-0.867-1.336-1.16s-1.141-0.439-1.828-0.439
		s-1.295,0.146-1.822,0.439s-0.969,0.68-1.324,1.16s-0.627,1.033-0.814,1.658s-0.281,1.27-0.281,1.934V280.456z"/>
	<path d="M363.501,273.917l0.105,2.379c0.445-0.789,1.039-1.42,1.781-1.893s1.586-0.713,2.531-0.721
		c1.391,0,2.453,0.416,3.188,1.248s1.105,2.014,1.113,3.545v8.121h-1.406v-8.098c-0.008-1.164-0.273-2.057-0.797-2.678
		s-1.336-0.928-2.438-0.92c-0.453,0-0.885,0.074-1.295,0.223s-0.785,0.352-1.125,0.609s-0.641,0.562-0.902,0.914
		s-0.475,0.734-0.639,1.148v8.801h-1.406v-12.68H363.501z"/>
	<path d="M376.942,268.596h5.906v16.758h4.289v1.242h-10.195v-1.242h4.5V269.85h-4.5V268.596z"/>
	<path d="M395.786,284.018l0.258,0.691l4.582-10.793h1.594l-6.551,14.707c-0.172,0.383-0.375,0.758-0.609,1.125
		s-0.512,0.697-0.832,0.99s-0.689,0.529-1.107,0.709s-0.896,0.27-1.436,0.27c-0.188,0-0.395-0.018-0.621-0.053
		s-0.418-0.072-0.574-0.111l0.164-1.172c0.133,0.016,0.299,0.033,0.498,0.053s0.365,0.029,0.498,0.029
		c0.359,0,0.688-0.07,0.984-0.211s0.561-0.322,0.791-0.545s0.434-0.473,0.609-0.75s0.322-0.549,0.439-0.814l0.867-1.875
		l-5.695-12.352h1.582L395.786,284.018z"/>
	<path d="M423.302,280.186l-1.793,1.605v4.805h-1.418v-18h1.418v11.578l1.512-1.488l5.145-4.77h1.793l-5.66,5.344l6.246,7.336
		h-1.805L423.302,280.186z"/>
	<path d="M435.513,273.917l0.105,2.379c0.445-0.789,1.039-1.42,1.781-1.893s1.586-0.713,2.531-0.721
		c1.391,0,2.453,0.416,3.188,1.248s1.105,2.014,1.113,3.545v8.121h-1.406v-8.098c-0.008-1.164-0.273-2.057-0.797-2.678
		s-1.336-0.928-2.438-0.92c-0.453,0-0.885,0.074-1.295,0.223s-0.785,0.352-1.125,0.609s-0.641,0.562-0.902,0.914
		s-0.475,0.734-0.639,1.148v8.801h-1.406v-12.68H435.513z"/>
	<path d="M447.899,280.069c0.008-0.859,0.141-1.676,0.398-2.449s0.627-1.451,1.107-2.033s1.07-1.045,1.77-1.389
		s1.49-0.516,2.373-0.516c0.891,0,1.686,0.172,2.385,0.516s1.291,0.807,1.775,1.389s0.855,1.26,1.113,2.033s0.391,1.59,0.398,2.449
		v0.387c-0.008,0.859-0.139,1.676-0.393,2.449s-0.623,1.451-1.107,2.033s-1.074,1.043-1.77,1.383s-1.488,0.51-2.379,0.51
		s-1.686-0.17-2.385-0.51s-1.291-0.801-1.775-1.383s-0.855-1.26-1.113-2.033s-0.391-1.59-0.398-2.449V280.069z M449.306,280.456
		c0,0.672,0.094,1.32,0.281,1.945s0.461,1.178,0.82,1.658s0.803,0.865,1.33,1.154s1.139,0.434,1.834,0.434
		c0.688,0,1.295-0.145,1.822-0.434s0.969-0.674,1.324-1.154s0.627-1.033,0.814-1.658s0.281-1.273,0.281-1.945v-0.387
		c0-0.664-0.094-1.309-0.281-1.934s-0.461-1.178-0.82-1.658s-0.805-0.867-1.336-1.16s-1.141-0.439-1.828-0.439
		s-1.295,0.146-1.822,0.439s-0.969,0.68-1.324,1.16s-0.627,1.033-0.814,1.658s-0.281,1.27-0.281,1.934V280.456z"/>
	<path d="M464.563,282.483l0.375,2.25l0.469-2.25l2.145-8.566h0.984l2.145,8.566l0.469,2.309l0.41-2.309l1.734-8.566h1.301
		l-2.812,12.68h-1.137l-2.238-8.672l-0.375-2.027l-0.375,2.027l-2.215,8.672h-1.137l-2.812-12.68h1.301L464.563,282.483z"/>
	<path d="M478.72,273.917l0.105,2.379c0.445-0.789,1.039-1.42,1.781-1.893s1.586-0.713,2.531-0.721c1.391,0,2.453,0.416,3.188,1.248
		s1.105,2.014,1.113,3.545v8.121h-1.406v-8.098c-0.008-1.164-0.273-2.057-0.797-2.678s-1.336-0.928-2.438-0.92
		c-0.453,0-0.885,0.074-1.295,0.223s-0.785,0.352-1.125,0.609s-0.641,0.562-0.902,0.914s-0.475,0.734-0.639,1.148v8.801h-1.406
		v-12.68H478.72z"/>
	<path d="M516.536,280.385c0,0.82-0.1,1.619-0.299,2.396s-0.504,1.465-0.914,2.062s-0.928,1.078-1.553,1.441
		s-1.367,0.545-2.227,0.545c-0.812,0-1.549-0.166-2.209-0.498s-1.213-0.811-1.658-1.436l-0.059,1.699h-1.312v-18h1.406v7.09
		c0.43-0.633,0.967-1.125,1.611-1.477s1.377-0.527,2.197-0.527c0.867,0,1.617,0.178,2.25,0.533s1.152,0.832,1.559,1.43
		s0.709,1.285,0.908,2.062s0.299,1.588,0.299,2.432V280.385z M515.118,280.139c0-0.633-0.066-1.262-0.199-1.887
		s-0.348-1.186-0.645-1.682s-0.693-0.898-1.189-1.207s-1.107-0.463-1.834-0.463c-0.422,0-0.816,0.062-1.184,0.188
		s-0.701,0.297-1.002,0.516s-0.564,0.482-0.791,0.791s-0.414,0.643-0.562,1.002v5.918c0.156,0.344,0.354,0.658,0.592,0.943
		s0.512,0.527,0.82,0.727s0.645,0.354,1.008,0.463s0.744,0.164,1.143,0.164c0.711,0,1.311-0.152,1.799-0.457
		s0.883-0.705,1.184-1.201s0.52-1.057,0.656-1.682s0.205-1.254,0.205-1.887V280.139z"/>
	<path d="M525.407,284.018l0.258,0.691l4.582-10.793h1.594l-6.551,14.707c-0.172,0.383-0.375,0.758-0.609,1.125
		s-0.512,0.697-0.832,0.99s-0.689,0.529-1.107,0.709s-0.896,0.27-1.436,0.27c-0.188,0-0.395-0.018-0.621-0.053
		s-0.418-0.072-0.574-0.111l0.164-1.172c0.133,0.016,0.299,0.033,0.498,0.053s0.365,0.029,0.498,0.029
		c0.359,0,0.688-0.07,0.984-0.211s0.561-0.322,0.791-0.545s0.434-0.473,0.609-0.75s0.322-0.549,0.439-0.814l0.867-1.875
		l-5.695-12.352h1.582L525.407,284.018z"/>
	<path d="M558.29,283.374c0-0.391-0.098-0.73-0.293-1.02s-0.463-0.537-0.803-0.744s-0.732-0.381-1.178-0.521
		s-0.918-0.262-1.418-0.363c-0.609-0.125-1.199-0.275-1.77-0.451s-1.078-0.4-1.523-0.674s-0.801-0.607-1.066-1.002
		s-0.398-0.881-0.398-1.459c0-0.547,0.137-1.035,0.41-1.465s0.633-0.793,1.078-1.09s0.953-0.521,1.523-0.674
		s1.156-0.229,1.758-0.229c0.688,0,1.33,0.084,1.928,0.252s1.121,0.414,1.57,0.738s0.807,0.721,1.072,1.189s0.41,1.004,0.434,1.605
		h-1.406c-0.016-0.406-0.125-0.771-0.328-1.096s-0.473-0.596-0.809-0.814s-0.717-0.387-1.143-0.504s-0.865-0.176-1.318-0.176
		c-0.422,0-0.834,0.045-1.236,0.135s-0.762,0.227-1.078,0.41s-0.57,0.414-0.762,0.691s-0.287,0.604-0.287,0.979
		c-0.008,0.398,0.084,0.732,0.275,1.002s0.451,0.496,0.779,0.68s0.713,0.336,1.154,0.457s0.912,0.232,1.412,0.334
		c0.641,0.133,1.252,0.295,1.834,0.486s1.096,0.43,1.541,0.715s0.797,0.635,1.055,1.049s0.387,0.91,0.387,1.488
		c0,0.594-0.143,1.111-0.428,1.553s-0.66,0.809-1.125,1.102s-0.996,0.512-1.594,0.656s-1.213,0.217-1.846,0.217
		c-0.711,0-1.381-0.086-2.01-0.258s-1.184-0.42-1.664-0.744s-0.865-0.721-1.154-1.189s-0.445-1-0.469-1.594h1.406
		c0.047,0.5,0.197,0.918,0.451,1.254s0.566,0.604,0.938,0.803s0.775,0.34,1.213,0.422s0.867,0.123,1.289,0.123
		c0.43,0,0.857-0.045,1.283-0.135s0.809-0.227,1.148-0.41s0.617-0.418,0.832-0.703S558.282,283.772,558.29,283.374z"/>
	<path d="M564.173,273.917h5.883v11.438h4.312v1.242h-10.195v-1.242h4.477V275.17h-4.477V273.917z M568.239,270.448
		c0-0.289,0.082-0.539,0.246-0.75s0.438-0.316,0.82-0.316c0.375,0,0.646,0.105,0.814,0.316s0.252,0.461,0.252,0.75
		c0,0.273-0.084,0.514-0.252,0.721s-0.439,0.311-0.814,0.311c-0.383,0-0.656-0.104-0.82-0.311S568.239,270.721,568.239,270.448z"/>
	<path d="M577.849,280.139c0-0.844,0.102-1.654,0.305-2.432s0.514-1.465,0.932-2.062s0.941-1.074,1.57-1.43s1.373-0.533,2.232-0.533
		c0.812,0,1.541,0.174,2.186,0.521s1.182,0.838,1.611,1.471l0.059-1.758h1.312v12.457c-0.008,0.773-0.129,1.484-0.363,2.133
		s-0.572,1.205-1.014,1.67s-0.975,0.826-1.6,1.084s-1.328,0.387-2.109,0.387c-0.375,0-0.766-0.043-1.172-0.129
		s-0.805-0.219-1.195-0.398s-0.764-0.404-1.119-0.674s-0.666-0.592-0.932-0.967l0.785-0.844c1.008,1.219,2.188,1.828,3.539,1.828
		c0.602,0,1.137-0.098,1.605-0.293s0.861-0.471,1.178-0.826s0.559-0.781,0.727-1.277s0.256-1.041,0.264-1.635v-1.441
		c-0.445,0.594-0.99,1.049-1.635,1.365s-1.361,0.475-2.15,0.475c-0.844,0-1.58-0.182-2.209-0.545s-1.15-0.844-1.564-1.441
		s-0.725-1.285-0.932-2.062s-0.311-1.576-0.311-2.396V280.139z M579.255,280.385c0,0.633,0.068,1.262,0.205,1.887
		s0.357,1.186,0.662,1.682s0.703,0.896,1.195,1.201s1.094,0.457,1.805,0.457c0.398,0,0.777-0.053,1.137-0.158
		s0.689-0.256,0.99-0.451s0.57-0.432,0.809-0.709s0.436-0.588,0.592-0.932v-6.035c-0.156-0.352-0.348-0.676-0.574-0.973
		s-0.488-0.553-0.785-0.768s-0.625-0.383-0.984-0.504s-0.746-0.182-1.16-0.182c-0.719,0-1.324,0.154-1.816,0.463
		s-0.893,0.711-1.201,1.207s-0.531,1.057-0.668,1.682s-0.205,1.254-0.205,1.887V280.385z"/>
	<path d="M593.938,273.917l0.105,2.379c0.445-0.789,1.039-1.42,1.781-1.893s1.586-0.713,2.531-0.721
		c1.391,0,2.453,0.416,3.188,1.248s1.105,2.014,1.113,3.545v8.121h-1.406v-8.098c-0.008-1.164-0.273-2.057-0.797-2.678
		s-1.336-0.928-2.438-0.92c-0.453,0-0.885,0.074-1.295,0.223s-0.785,0.352-1.125,0.609s-0.641,0.562-0.902,0.914
		s-0.475,0.734-0.639,1.148v8.801h-1.406v-12.68H593.938z"/>
	<path d="M612.466,286.831c-0.883,0-1.688-0.164-2.414-0.492s-1.35-0.773-1.869-1.336s-0.922-1.221-1.207-1.975
		s-0.432-1.557-0.439-2.408v-0.504c0.008-0.906,0.158-1.75,0.451-2.531s0.693-1.461,1.201-2.039s1.105-1.033,1.793-1.365
		s1.426-0.498,2.215-0.498c0.844,0,1.59,0.152,2.238,0.457s1.193,0.721,1.635,1.248s0.777,1.143,1.008,1.846s0.35,1.457,0.357,2.262
		v0.855h-9.492v0.27c0.008,0.664,0.121,1.299,0.34,1.904s0.527,1.139,0.926,1.6s0.879,0.83,1.441,1.107s1.188,0.416,1.875,0.416
		c0.781,0.008,1.488-0.137,2.121-0.434s1.172-0.727,1.617-1.289l0.891,0.668c-0.234,0.328-0.512,0.631-0.832,0.908
		s-0.678,0.514-1.072,0.709s-0.826,0.348-1.295,0.457S612.989,286.831,612.466,286.831z M612.196,274.877
		c-0.57,0-1.094,0.107-1.57,0.322s-0.895,0.514-1.254,0.896s-0.656,0.834-0.891,1.354s-0.395,1.088-0.48,1.705h8.027v-0.152
		c-0.016-0.523-0.111-1.033-0.287-1.529s-0.426-0.936-0.75-1.318s-0.721-0.691-1.189-0.926S612.798,274.877,612.196,274.877z"/>
	<path d="M629.845,273.682c0.352,0,0.703,0.021,1.055,0.064s0.645,0.104,0.879,0.182l-0.176,1.348
		c-0.328-0.07-0.656-0.125-0.984-0.164s-0.664-0.059-1.008-0.059c-1.188,0-2.195,0.281-3.023,0.844s-1.41,1.426-1.746,2.59
		l0.012,8.109h-1.453v-12.68h1.348l0.094,2.203v0.258c0.516-0.836,1.199-1.494,2.051-1.975S628.728,273.682,629.845,273.682z"/>
	<path d="M77.646,315.186l-1.793,1.605v4.805h-1.418v-18h1.418v11.578l1.512-1.488l5.145-4.77h1.793l-5.66,5.344l6.246,7.336h-1.805
		L77.646,315.186z"/>
	<path d="M103.298,308.917h5.883v11.438h4.312v1.242h-10.195v-1.242h4.477V310.17h-4.477V308.917z M107.364,305.448
		c0-0.289,0.082-0.539,0.246-0.75s0.438-0.316,0.82-0.316c0.375,0,0.646,0.105,0.814,0.316s0.252,0.461,0.252,0.75
		c0,0.273-0.084,0.514-0.252,0.721s-0.439,0.311-0.814,0.311c-0.383,0-0.656-0.104-0.82-0.311S107.364,305.721,107.364,305.448z"/>
	<path d="M126.22,318.374c0-0.391-0.098-0.73-0.293-1.02s-0.463-0.537-0.803-0.744s-0.732-0.381-1.178-0.521
		s-0.918-0.262-1.418-0.363c-0.609-0.125-1.199-0.275-1.77-0.451s-1.078-0.4-1.523-0.674s-0.801-0.607-1.066-1.002
		s-0.398-0.881-0.398-1.459c0-0.547,0.137-1.035,0.41-1.465s0.633-0.793,1.078-1.09s0.953-0.521,1.523-0.674
		s1.156-0.229,1.758-0.229c0.688,0,1.33,0.084,1.928,0.252s1.121,0.414,1.57,0.738s0.807,0.721,1.072,1.189s0.41,1.004,0.434,1.605
		h-1.406c-0.016-0.406-0.125-0.771-0.328-1.096s-0.473-0.596-0.809-0.814s-0.717-0.387-1.143-0.504s-0.865-0.176-1.318-0.176
		c-0.422,0-0.834,0.045-1.236,0.135s-0.762,0.227-1.078,0.41s-0.57,0.414-0.762,0.691s-0.287,0.604-0.287,0.979
		c-0.008,0.398,0.084,0.732,0.275,1.002s0.451,0.496,0.779,0.68s0.713,0.336,1.154,0.457s0.912,0.232,1.412,0.334
		c0.641,0.133,1.252,0.295,1.834,0.486s1.096,0.43,1.541,0.715s0.797,0.635,1.055,1.049s0.387,0.91,0.387,1.488
		c0,0.594-0.143,1.111-0.428,1.553s-0.66,0.809-1.125,1.102s-0.996,0.512-1.594,0.656s-1.213,0.217-1.846,0.217
		c-0.711,0-1.381-0.086-2.01-0.258s-1.184-0.42-1.664-0.744s-0.865-0.721-1.154-1.189s-0.445-1-0.469-1.594h1.406
		c0.047,0.5,0.197,0.918,0.451,1.254s0.566,0.604,0.938,0.803s0.775,0.34,1.213,0.422s0.867,0.123,1.289,0.123
		c0.43,0,0.857-0.045,1.283-0.135s0.809-0.227,1.148-0.41s0.617-0.418,0.832-0.703S126.212,318.772,126.22,318.374z"/>
	<path d="M154.567,308.682c0.352,0,0.703,0.021,1.055,0.064s0.645,0.104,0.879,0.182l-0.176,1.348
		c-0.328-0.07-0.656-0.125-0.984-0.164s-0.664-0.059-1.008-0.059c-1.188,0-2.195,0.281-3.023,0.844s-1.41,1.426-1.746,2.59
		l0.012,8.109h-1.453v-12.68h1.348l0.094,2.203v0.258c0.516-0.836,1.199-1.494,2.051-1.975S153.45,308.682,154.567,308.682z"/>
	<path d="M169.298,321.596c-0.086-0.258-0.152-0.545-0.199-0.861s-0.078-0.639-0.094-0.967c-0.242,0.297-0.523,0.57-0.844,0.82
		s-0.67,0.467-1.049,0.65s-0.787,0.328-1.225,0.434s-0.895,0.158-1.371,0.158c-0.594,0-1.146-0.086-1.658-0.258
		s-0.957-0.414-1.336-0.727s-0.676-0.689-0.891-1.131s-0.322-0.936-0.322-1.482c0-0.727,0.16-1.344,0.48-1.852
		s0.754-0.92,1.301-1.236s1.18-0.549,1.898-0.697s1.473-0.223,2.262-0.223h2.742v-1.441c-0.008-0.477-0.102-0.896-0.281-1.26
		s-0.424-0.668-0.732-0.914s-0.676-0.432-1.102-0.557s-0.889-0.188-1.389-0.188c-0.453,0-0.885,0.059-1.295,0.176
		s-0.773,0.285-1.09,0.504s-0.572,0.486-0.768,0.803s-0.301,0.674-0.316,1.072l-1.406-0.012c0.023-0.539,0.166-1.035,0.428-1.488
		s0.615-0.846,1.061-1.178s0.963-0.592,1.553-0.779s1.221-0.281,1.893-0.281s1.303,0.086,1.893,0.258s1.102,0.43,1.535,0.773
		s0.777,0.773,1.031,1.289s0.385,1.117,0.393,1.805v6.141c0,0.422,0.037,0.848,0.111,1.277s0.166,0.84,0.275,1.23l0.012,0.141
		H169.298z M164.669,320.588c0.492,0.008,0.963-0.051,1.412-0.176s0.861-0.299,1.236-0.521s0.707-0.488,0.996-0.797
		s0.516-0.646,0.68-1.014v-2.777h-2.555c-0.617,0-1.211,0.047-1.781,0.141s-1.074,0.248-1.512,0.463s-0.787,0.502-1.049,0.861
		s-0.393,0.809-0.393,1.348c0,0.383,0.078,0.727,0.234,1.031s0.367,0.564,0.633,0.779s0.578,0.379,0.938,0.492
		S164.255,320.588,164.669,320.588z"/>
	<path d="M176.271,308.917l0.105,2.379c0.445-0.789,1.039-1.42,1.781-1.893s1.586-0.713,2.531-0.721
		c1.391,0,2.453,0.416,3.188,1.248s1.105,2.014,1.113,3.545v8.121h-1.406v-8.098c-0.008-1.164-0.273-2.057-0.797-2.678
		s-1.336-0.928-2.438-0.92c-0.453,0-0.885,0.074-1.295,0.223s-0.785,0.352-1.125,0.609s-0.641,0.562-0.902,0.914
		s-0.475,0.734-0.639,1.148v8.801h-1.406v-12.68H176.271z"/>
	<path d="M188.962,315.139c0-0.844,0.105-1.654,0.316-2.432s0.525-1.465,0.943-2.062s0.941-1.074,1.57-1.43s1.369-0.533,2.221-0.533
		c0.805,0,1.525,0.172,2.162,0.516s1.17,0.824,1.6,1.441v-7.043h1.395v18h-1.312l-0.059-1.652c-0.445,0.609-0.992,1.076-1.641,1.4
		s-1.371,0.486-2.168,0.486c-0.836,0-1.568-0.182-2.197-0.545s-1.152-0.844-1.57-1.441s-0.732-1.285-0.943-2.062
		s-0.316-1.576-0.316-2.396V315.139z M190.38,315.385c0,0.633,0.068,1.262,0.205,1.887s0.357,1.186,0.662,1.682
		s0.703,0.896,1.195,1.201s1.094,0.457,1.805,0.457c0.398,0,0.775-0.051,1.131-0.152s0.684-0.248,0.984-0.439
		s0.57-0.422,0.809-0.691s0.439-0.572,0.604-0.908v-6.141c-0.156-0.352-0.35-0.672-0.58-0.961s-0.494-0.539-0.791-0.75
		s-0.625-0.375-0.984-0.492s-0.742-0.176-1.148-0.176c-0.719,0-1.324,0.154-1.816,0.463s-0.893,0.711-1.201,1.207
		s-0.531,1.057-0.668,1.682s-0.205,1.254-0.205,1.887V315.385z"/>
	<path d="M203.06,315.069c0.008-0.859,0.141-1.676,0.398-2.449s0.627-1.451,1.107-2.033s1.07-1.045,1.77-1.389
		s1.49-0.516,2.373-0.516c0.891,0,1.686,0.172,2.385,0.516s1.291,0.807,1.775,1.389s0.855,1.26,1.113,2.033s0.391,1.59,0.398,2.449
		v0.387c-0.008,0.859-0.139,1.676-0.393,2.449s-0.623,1.451-1.107,2.033s-1.074,1.043-1.77,1.383s-1.488,0.51-2.379,0.51
		s-1.686-0.17-2.385-0.51s-1.291-0.801-1.775-1.383s-0.855-1.26-1.113-2.033s-0.391-1.59-0.398-2.449V315.069z M204.466,315.456
		c0,0.672,0.094,1.32,0.281,1.945s0.461,1.178,0.82,1.658s0.803,0.865,1.33,1.154s1.139,0.434,1.834,0.434
		c0.688,0,1.295-0.145,1.822-0.434s0.969-0.674,1.324-1.154s0.627-1.033,0.814-1.658s0.281-1.273,0.281-1.945v-0.387
		c0-0.664-0.094-1.309-0.281-1.934s-0.461-1.178-0.82-1.658s-0.805-0.867-1.336-1.16s-1.141-0.439-1.828-0.439
		s-1.295,0.146-1.822,0.439s-0.969,0.68-1.324,1.16s-0.627,1.033-0.814,1.658s-0.281,1.27-0.281,1.934V315.456z"/>
	<path d="M218.235,308.917l0.035,1.418c0.258-0.492,0.611-0.889,1.061-1.189s1.018-0.455,1.705-0.463
		c0.359,0,0.678,0.041,0.955,0.123s0.518,0.197,0.721,0.346s0.375,0.326,0.516,0.533s0.254,0.432,0.34,0.674
		c0.266-0.477,0.631-0.873,1.096-1.189s1.045-0.479,1.74-0.486c0.547,0,1.004,0.094,1.371,0.281s0.664,0.441,0.891,0.762
		s0.389,0.691,0.486,1.113s0.146,0.867,0.146,1.336l-0.012,9.422h-1.312l-0.012-9.422c0-0.273-0.027-0.547-0.082-0.82
		s-0.15-0.52-0.287-0.738s-0.328-0.395-0.574-0.527s-0.561-0.195-0.943-0.188c-0.391,0.008-0.721,0.07-0.99,0.188
		s-0.492,0.27-0.668,0.457s-0.312,0.396-0.41,0.627s-0.17,0.463-0.217,0.697l-0.012,9.727h-1.312l-0.012-9.551
		c0-0.266-0.027-0.527-0.082-0.785s-0.15-0.488-0.287-0.691s-0.326-0.367-0.568-0.492s-0.551-0.184-0.926-0.176
		s-0.693,0.066-0.955,0.176s-0.48,0.256-0.656,0.439s-0.316,0.395-0.422,0.633s-0.189,0.486-0.252,0.744l-0.012,9.703h-1.324v-12.68
		H218.235z"/>
	<path d="M248.282,308.917l0.105,2.379c0.445-0.789,1.039-1.42,1.781-1.893s1.586-0.713,2.531-0.721
		c1.391,0,2.453,0.416,3.188,1.248s1.105,2.014,1.113,3.545v8.121h-1.406v-8.098c-0.008-1.164-0.273-2.057-0.797-2.678
		s-1.336-0.928-2.438-0.92c-0.453,0-0.885,0.074-1.295,0.223s-0.785,0.352-1.125,0.609s-0.641,0.562-0.902,0.914
		s-0.475,0.734-0.639,1.148v8.801h-1.406v-12.68H248.282z"/>
	<path d="M269.903,319.616c-0.422,0.695-0.979,1.238-1.67,1.629s-1.51,0.586-2.455,0.586c-0.703,0-1.322-0.113-1.857-0.34
		s-0.984-0.559-1.348-0.996s-0.641-0.973-0.832-1.605s-0.287-1.355-0.287-2.168v-7.805h1.395v7.828
		c0.016,1.273,0.273,2.238,0.773,2.895s1.273,0.984,2.32,0.984c1.055,0,1.91-0.242,2.566-0.727s1.113-1.141,1.371-1.969
		l-0.012-9.012h1.418v12.68h-1.312L269.903,319.616z"/>
	<path d="M275.845,308.917l0.035,1.418c0.258-0.492,0.611-0.889,1.061-1.189s1.018-0.455,1.705-0.463
		c0.359,0,0.678,0.041,0.955,0.123s0.518,0.197,0.721,0.346s0.375,0.326,0.516,0.533s0.254,0.432,0.34,0.674
		c0.266-0.477,0.631-0.873,1.096-1.189s1.045-0.479,1.74-0.486c0.547,0,1.004,0.094,1.371,0.281s0.664,0.441,0.891,0.762
		s0.389,0.691,0.486,1.113s0.146,0.867,0.146,1.336l-0.012,9.422h-1.312l-0.012-9.422c0-0.273-0.027-0.547-0.082-0.82
		s-0.15-0.52-0.287-0.738s-0.328-0.395-0.574-0.527s-0.561-0.195-0.943-0.188c-0.391,0.008-0.721,0.07-0.99,0.188
		s-0.492,0.27-0.668,0.457s-0.312,0.396-0.41,0.627s-0.17,0.463-0.217,0.697l-0.012,9.727h-1.312l-0.012-9.551
		c0-0.266-0.027-0.527-0.082-0.785s-0.15-0.488-0.287-0.691s-0.326-0.367-0.568-0.492s-0.551-0.184-0.926-0.176
		s-0.693,0.066-0.955,0.176s-0.48,0.256-0.656,0.439s-0.316,0.395-0.422,0.633s-0.189,0.486-0.252,0.744l-0.012,9.703h-1.324v-12.68
		H275.845z"/>
	<path d="M300.501,315.385c0,0.82-0.1,1.619-0.299,2.396s-0.504,1.465-0.914,2.062s-0.928,1.078-1.553,1.441
		s-1.367,0.545-2.227,0.545c-0.812,0-1.549-0.166-2.209-0.498s-1.213-0.811-1.658-1.436l-0.059,1.699h-1.312v-18h1.406v7.09
		c0.43-0.633,0.967-1.125,1.611-1.477s1.377-0.527,2.197-0.527c0.867,0,1.617,0.178,2.25,0.533s1.152,0.832,1.559,1.43
		s0.709,1.285,0.908,2.062s0.299,1.588,0.299,2.432V315.385z M299.083,315.139c0-0.633-0.066-1.262-0.199-1.887
		s-0.348-1.186-0.645-1.682s-0.693-0.898-1.189-1.207s-1.107-0.463-1.834-0.463c-0.422,0-0.816,0.062-1.184,0.188
		s-0.701,0.297-1.002,0.516s-0.564,0.482-0.791,0.791s-0.414,0.643-0.562,1.002v5.918c0.156,0.344,0.354,0.658,0.592,0.943
		s0.512,0.527,0.82,0.727s0.645,0.354,1.008,0.463s0.744,0.164,1.143,0.164c0.711,0,1.311-0.152,1.799-0.457
		s0.883-0.705,1.184-1.201s0.52-1.057,0.656-1.682s0.205-1.254,0.205-1.887V315.139z"/>
	<path d="M310.017,321.831c-0.883,0-1.688-0.164-2.414-0.492s-1.35-0.773-1.869-1.336s-0.922-1.221-1.207-1.975
		s-0.432-1.557-0.439-2.408v-0.504c0.008-0.906,0.158-1.75,0.451-2.531s0.693-1.461,1.201-2.039s1.105-1.033,1.793-1.365
		s1.426-0.498,2.215-0.498c0.844,0,1.59,0.152,2.238,0.457s1.193,0.721,1.635,1.248s0.777,1.143,1.008,1.846s0.35,1.457,0.357,2.262
		v0.855h-9.492v0.27c0.008,0.664,0.121,1.299,0.34,1.904s0.527,1.139,0.926,1.6s0.879,0.83,1.441,1.107s1.188,0.416,1.875,0.416
		c0.781,0.008,1.488-0.137,2.121-0.434s1.172-0.727,1.617-1.289l0.891,0.668c-0.234,0.328-0.512,0.631-0.832,0.908
		s-0.678,0.514-1.072,0.709s-0.826,0.348-1.295,0.457S310.54,321.831,310.017,321.831z M309.747,309.877
		c-0.57,0-1.094,0.107-1.57,0.322s-0.895,0.514-1.254,0.896s-0.656,0.834-0.891,1.354s-0.395,1.088-0.48,1.705h8.027v-0.152
		c-0.016-0.523-0.111-1.033-0.287-1.529s-0.426-0.936-0.75-1.318s-0.721-0.691-1.189-0.926S310.349,309.877,309.747,309.877z"/>
	<path d="M327.396,308.682c0.352,0,0.703,0.021,1.055,0.064s0.645,0.104,0.879,0.182l-0.176,1.348
		c-0.328-0.07-0.656-0.125-0.984-0.164s-0.664-0.059-1.008-0.059c-1.188,0-2.195,0.281-3.023,0.844s-1.41,1.426-1.746,2.59
		l0.012,8.109h-1.453v-12.68h1.348l0.094,2.203v0.258c0.516-0.836,1.199-1.494,2.051-1.975S326.278,308.682,327.396,308.682z"/>
	<path d="M352.954,320.647c0.469,0,0.916-0.068,1.342-0.205s0.803-0.334,1.131-0.592s0.596-0.568,0.803-0.932
		s0.326-0.775,0.357-1.236h1.348c-0.031,0.602-0.188,1.156-0.469,1.664s-0.648,0.945-1.102,1.312s-0.973,0.654-1.559,0.861
		s-1.203,0.311-1.852,0.311c-0.93,0-1.738-0.176-2.426-0.527s-1.26-0.82-1.717-1.406s-0.801-1.26-1.031-2.021
		s-0.346-1.553-0.346-2.373v-0.492c0-0.82,0.115-1.611,0.346-2.373s0.574-1.436,1.031-2.021s1.029-1.055,1.717-1.406
		s1.492-0.527,2.414-0.527c0.703,0,1.354,0.111,1.951,0.334s1.117,0.535,1.559,0.938s0.791,0.879,1.049,1.43
		s0.402,1.154,0.434,1.811h-1.348c-0.023-0.477-0.133-0.918-0.328-1.324s-0.453-0.758-0.773-1.055s-0.697-0.527-1.131-0.691
		s-0.904-0.246-1.412-0.246c-0.734,0-1.361,0.148-1.881,0.445s-0.943,0.688-1.271,1.172s-0.568,1.033-0.721,1.646
		s-0.229,1.236-0.229,1.869v0.492c0,0.641,0.076,1.27,0.229,1.887s0.393,1.166,0.721,1.646s0.752,0.869,1.271,1.166
		S352.212,320.647,352.954,320.647z"/>
	<path d="M363.618,311.366c0.445-0.812,1.039-1.461,1.781-1.945s1.59-0.73,2.543-0.738c0.695,0,1.311,0.107,1.846,0.322
		s0.984,0.527,1.348,0.938s0.641,0.914,0.832,1.512s0.287,1.279,0.287,2.045v8.098h-1.406v-8.098c0-0.562-0.066-1.066-0.199-1.512
		s-0.334-0.822-0.604-1.131s-0.607-0.545-1.014-0.709s-0.883-0.246-1.43-0.246c-0.445,0-0.871,0.07-1.277,0.211
		s-0.781,0.336-1.125,0.586s-0.65,0.545-0.92,0.885s-0.49,0.713-0.662,1.119v8.895h-1.406v-18h1.406V311.366z"/>
	<path d="M375.888,315.069c0.008-0.859,0.141-1.676,0.398-2.449s0.627-1.451,1.107-2.033s1.07-1.045,1.77-1.389
		s1.49-0.516,2.373-0.516c0.891,0,1.686,0.172,2.385,0.516s1.291,0.807,1.775,1.389s0.855,1.26,1.113,2.033s0.391,1.59,0.398,2.449
		v0.387c-0.008,0.859-0.139,1.676-0.393,2.449s-0.623,1.451-1.107,2.033s-1.074,1.043-1.77,1.383s-1.488,0.51-2.379,0.51
		s-1.686-0.17-2.385-0.51s-1.291-0.801-1.775-1.383s-0.855-1.26-1.113-2.033s-0.391-1.59-0.398-2.449V315.069z M377.294,315.456
		c0,0.672,0.094,1.32,0.281,1.945s0.461,1.178,0.82,1.658s0.803,0.865,1.33,1.154s1.139,0.434,1.834,0.434
		c0.688,0,1.295-0.145,1.822-0.434s0.969-0.674,1.324-1.154s0.627-1.033,0.814-1.658s0.281-1.273,0.281-1.945v-0.387
		c0-0.664-0.094-1.309-0.281-1.934s-0.461-1.178-0.82-1.658s-0.805-0.867-1.336-1.16s-1.141-0.439-1.828-0.439
		s-1.295,0.146-1.822,0.439s-0.969,0.68-1.324,1.16s-0.627,1.033-0.814,1.658s-0.281,1.27-0.281,1.934V315.456z"/>
	<path d="M399.864,318.374c0-0.391-0.098-0.73-0.293-1.02s-0.463-0.537-0.803-0.744s-0.732-0.381-1.178-0.521
		s-0.918-0.262-1.418-0.363c-0.609-0.125-1.199-0.275-1.77-0.451s-1.078-0.4-1.523-0.674s-0.801-0.607-1.066-1.002
		s-0.398-0.881-0.398-1.459c0-0.547,0.137-1.035,0.41-1.465s0.633-0.793,1.078-1.09s0.953-0.521,1.523-0.674
		s1.156-0.229,1.758-0.229c0.688,0,1.33,0.084,1.928,0.252s1.121,0.414,1.57,0.738s0.807,0.721,1.072,1.189s0.41,1.004,0.434,1.605
		h-1.406c-0.016-0.406-0.125-0.771-0.328-1.096s-0.473-0.596-0.809-0.814s-0.717-0.387-1.143-0.504s-0.865-0.176-1.318-0.176
		c-0.422,0-0.834,0.045-1.236,0.135s-0.762,0.227-1.078,0.41s-0.57,0.414-0.762,0.691s-0.287,0.604-0.287,0.979
		c-0.008,0.398,0.084,0.732,0.275,1.002s0.451,0.496,0.779,0.68s0.713,0.336,1.154,0.457s0.912,0.232,1.412,0.334
		c0.641,0.133,1.252,0.295,1.834,0.486s1.096,0.43,1.541,0.715s0.797,0.635,1.055,1.049s0.387,0.91,0.387,1.488
		c0,0.594-0.143,1.111-0.428,1.553s-0.66,0.809-1.125,1.102s-0.996,0.512-1.594,0.656s-1.213,0.217-1.846,0.217
		c-0.711,0-1.381-0.086-2.01-0.258s-1.184-0.42-1.664-0.744s-0.865-0.721-1.154-1.189s-0.445-1-0.469-1.594h1.406
		c0.047,0.5,0.197,0.918,0.451,1.254s0.566,0.604,0.938,0.803s0.775,0.34,1.213,0.422s0.867,0.123,1.289,0.123
		c0.43,0,0.857-0.045,1.283-0.135s0.809-0.227,1.148-0.41s0.617-0.418,0.832-0.703S399.856,318.772,399.864,318.374z"/>
	<path d="M410.833,321.831c-0.883,0-1.688-0.164-2.414-0.492s-1.35-0.773-1.869-1.336s-0.922-1.221-1.207-1.975
		s-0.432-1.557-0.439-2.408v-0.504c0.008-0.906,0.158-1.75,0.451-2.531s0.693-1.461,1.201-2.039s1.105-1.033,1.793-1.365
		s1.426-0.498,2.215-0.498c0.844,0,1.59,0.152,2.238,0.457s1.193,0.721,1.635,1.248s0.777,1.143,1.008,1.846s0.35,1.457,0.357,2.262
		v0.855h-9.492v0.27c0.008,0.664,0.121,1.299,0.34,1.904s0.527,1.139,0.926,1.6s0.879,0.83,1.441,1.107s1.188,0.416,1.875,0.416
		c0.781,0.008,1.488-0.137,2.121-0.434s1.172-0.727,1.617-1.289l0.891,0.668c-0.234,0.328-0.512,0.631-0.832,0.908
		s-0.678,0.514-1.072,0.709s-0.826,0.348-1.295,0.457S411.356,321.831,410.833,321.831z M410.563,309.877
		c-0.57,0-1.094,0.107-1.57,0.322s-0.895,0.514-1.254,0.896s-0.656,0.834-0.891,1.354s-0.395,1.088-0.48,1.705h8.027v-0.152
		c-0.016-0.523-0.111-1.033-0.287-1.529s-0.426-0.936-0.75-1.318s-0.721-0.691-1.189-0.926S411.165,309.877,410.563,309.877z"/>
	<path d="M421.11,308.917l0.105,2.379c0.445-0.789,1.039-1.42,1.781-1.893s1.586-0.713,2.531-0.721c1.391,0,2.453,0.416,3.188,1.248
		s1.105,2.014,1.113,3.545v8.121h-1.406v-8.098c-0.008-1.164-0.273-2.057-0.797-2.678s-1.336-0.928-2.438-0.92
		c-0.453,0-0.885,0.074-1.295,0.223s-0.785,0.352-1.125,0.609s-0.641,0.562-0.902,0.914s-0.475,0.734-0.639,1.148v8.801h-1.406
		v-12.68H421.11z"/>
	<path d="M458.927,315.385c0,0.82-0.1,1.619-0.299,2.396s-0.504,1.465-0.914,2.062s-0.928,1.078-1.553,1.441
		s-1.367,0.545-2.227,0.545c-0.812,0-1.549-0.166-2.209-0.498s-1.213-0.811-1.658-1.436l-0.059,1.699h-1.312v-18h1.406v7.09
		c0.43-0.633,0.967-1.125,1.611-1.477s1.377-0.527,2.197-0.527c0.867,0,1.617,0.178,2.25,0.533s1.152,0.832,1.559,1.43
		s0.709,1.285,0.908,2.062s0.299,1.588,0.299,2.432V315.385z M457.509,315.139c0-0.633-0.066-1.262-0.199-1.887
		s-0.348-1.186-0.645-1.682s-0.693-0.898-1.189-1.207s-1.107-0.463-1.834-0.463c-0.422,0-0.816,0.062-1.184,0.188
		s-0.701,0.297-1.002,0.516s-0.564,0.482-0.791,0.791s-0.414,0.643-0.562,1.002v5.918c0.156,0.344,0.354,0.658,0.592,0.943
		s0.512,0.527,0.82,0.727s0.645,0.354,1.008,0.463s0.744,0.164,1.143,0.164c0.711,0,1.311-0.152,1.799-0.457
		s0.883-0.705,1.184-1.201s0.52-1.057,0.656-1.682s0.205-1.254,0.205-1.887V315.139z"/>
	<path d="M467.798,319.018l0.258,0.691l4.582-10.793h1.594l-6.551,14.707c-0.172,0.383-0.375,0.758-0.609,1.125
		s-0.512,0.697-0.832,0.99s-0.689,0.529-1.107,0.709s-0.896,0.27-1.436,0.27c-0.188,0-0.395-0.018-0.621-0.053
		s-0.418-0.072-0.574-0.111l0.164-1.172c0.133,0.016,0.299,0.033,0.498,0.053s0.365,0.029,0.498,0.029
		c0.359,0,0.688-0.07,0.984-0.211s0.561-0.322,0.791-0.545s0.434-0.473,0.609-0.75s0.322-0.549,0.439-0.814l0.867-1.875
		l-5.695-12.352h1.582L467.798,319.018z"/>
	<path d="M500.681,318.374c0-0.391-0.098-0.73-0.293-1.02s-0.463-0.537-0.803-0.744s-0.732-0.381-1.178-0.521
		s-0.918-0.262-1.418-0.363c-0.609-0.125-1.199-0.275-1.77-0.451s-1.078-0.4-1.523-0.674s-0.801-0.607-1.066-1.002
		s-0.398-0.881-0.398-1.459c0-0.547,0.137-1.035,0.41-1.465s0.633-0.793,1.078-1.09s0.953-0.521,1.523-0.674
		s1.156-0.229,1.758-0.229c0.688,0,1.33,0.084,1.928,0.252s1.121,0.414,1.57,0.738s0.807,0.721,1.072,1.189s0.41,1.004,0.434,1.605
		h-1.406c-0.016-0.406-0.125-0.771-0.328-1.096s-0.473-0.596-0.809-0.814s-0.717-0.387-1.143-0.504s-0.865-0.176-1.318-0.176
		c-0.422,0-0.834,0.045-1.236,0.135s-0.762,0.227-1.078,0.41s-0.57,0.414-0.762,0.691s-0.287,0.604-0.287,0.979
		c-0.008,0.398,0.084,0.732,0.275,1.002s0.451,0.496,0.779,0.68s0.713,0.336,1.154,0.457s0.912,0.232,1.412,0.334
		c0.641,0.133,1.252,0.295,1.834,0.486s1.096,0.43,1.541,0.715s0.797,0.635,1.055,1.049s0.387,0.91,0.387,1.488
		c0,0.594-0.143,1.111-0.428,1.553s-0.66,0.809-1.125,1.102s-0.996,0.512-1.594,0.656s-1.213,0.217-1.846,0.217
		c-0.711,0-1.381-0.086-2.01-0.258s-1.184-0.42-1.664-0.744s-0.865-0.721-1.154-1.189s-0.445-1-0.469-1.594h1.406
		c0.047,0.5,0.197,0.918,0.451,1.254s0.566,0.604,0.938,0.803s0.775,0.34,1.213,0.422s0.867,0.123,1.289,0.123
		c0.43,0,0.857-0.045,1.283-0.135s0.809-0.227,1.148-0.41s0.617-0.418,0.832-0.703S500.673,318.772,500.681,318.374z"/>
	<path d="M506.563,308.917h5.883v11.438h4.312v1.242h-10.195v-1.242h4.477V310.17h-4.477V308.917z M510.63,305.448
		c0-0.289,0.082-0.539,0.246-0.75s0.438-0.316,0.82-0.316c0.375,0,0.646,0.105,0.814,0.316s0.252,0.461,0.252,0.75
		c0,0.273-0.084,0.514-0.252,0.721s-0.439,0.311-0.814,0.311c-0.383,0-0.656-0.104-0.82-0.311S510.63,305.721,510.63,305.448z"/>
	<path d="M520.239,315.139c0-0.844,0.102-1.654,0.305-2.432s0.514-1.465,0.932-2.062s0.941-1.074,1.57-1.43s1.373-0.533,2.232-0.533
		c0.812,0,1.541,0.174,2.186,0.521s1.182,0.838,1.611,1.471l0.059-1.758h1.312v12.457c-0.008,0.773-0.129,1.484-0.363,2.133
		s-0.572,1.205-1.014,1.67s-0.975,0.826-1.6,1.084s-1.328,0.387-2.109,0.387c-0.375,0-0.766-0.043-1.172-0.129
		s-0.805-0.219-1.195-0.398s-0.764-0.404-1.119-0.674s-0.666-0.592-0.932-0.967l0.785-0.844c1.008,1.219,2.188,1.828,3.539,1.828
		c0.602,0,1.137-0.098,1.605-0.293s0.861-0.471,1.178-0.826s0.559-0.781,0.727-1.277s0.256-1.041,0.264-1.635v-1.441
		c-0.445,0.594-0.99,1.049-1.635,1.365s-1.361,0.475-2.15,0.475c-0.844,0-1.58-0.182-2.209-0.545s-1.15-0.844-1.564-1.441
		s-0.725-1.285-0.932-2.062s-0.311-1.576-0.311-2.396V315.139z M521.646,315.385c0,0.633,0.068,1.262,0.205,1.887
		s0.357,1.186,0.662,1.682s0.703,0.896,1.195,1.201s1.094,0.457,1.805,0.457c0.398,0,0.777-0.053,1.137-0.158
		s0.689-0.256,0.99-0.451s0.57-0.432,0.809-0.709s0.436-0.588,0.592-0.932v-6.035c-0.156-0.352-0.348-0.676-0.574-0.973
		s-0.488-0.553-0.785-0.768s-0.625-0.383-0.984-0.504s-0.746-0.182-1.16-0.182c-0.719,0-1.324,0.154-1.816,0.463
		s-0.893,0.711-1.201,1.207s-0.531,1.057-0.668,1.682s-0.205,1.254-0.205,1.887V315.385z"/>
	<path d="M536.329,308.917l0.105,2.379c0.445-0.789,1.039-1.42,1.781-1.893s1.586-0.713,2.531-0.721
		c1.391,0,2.453,0.416,3.188,1.248s1.105,2.014,1.113,3.545v8.121h-1.406v-8.098c-0.008-1.164-0.273-2.057-0.797-2.678
		s-1.336-0.928-2.438-0.92c-0.453,0-0.885,0.074-1.295,0.223s-0.785,0.352-1.125,0.609s-0.641,0.562-0.902,0.914
		s-0.475,0.734-0.639,1.148v8.801h-1.406v-12.68H536.329z"/>
	<path d="M554.856,321.831c-0.883,0-1.688-0.164-2.414-0.492s-1.35-0.773-1.869-1.336s-0.922-1.221-1.207-1.975
		s-0.432-1.557-0.439-2.408v-0.504c0.008-0.906,0.158-1.75,0.451-2.531s0.693-1.461,1.201-2.039s1.105-1.033,1.793-1.365
		s1.426-0.498,2.215-0.498c0.844,0,1.59,0.152,2.238,0.457s1.193,0.721,1.635,1.248s0.777,1.143,1.008,1.846s0.35,1.457,0.357,2.262
		v0.855h-9.492v0.27c0.008,0.664,0.121,1.299,0.34,1.904s0.527,1.139,0.926,1.6s0.879,0.83,1.441,1.107s1.188,0.416,1.875,0.416
		c0.781,0.008,1.488-0.137,2.121-0.434s1.172-0.727,1.617-1.289l0.891,0.668c-0.234,0.328-0.512,0.631-0.832,0.908
		s-0.678,0.514-1.072,0.709s-0.826,0.348-1.295,0.457S555.38,321.831,554.856,321.831z M554.587,309.877
		c-0.57,0-1.094,0.107-1.57,0.322s-0.895,0.514-1.254,0.896s-0.656,0.834-0.891,1.354s-0.395,1.088-0.48,1.705h8.027v-0.152
		c-0.016-0.523-0.111-1.033-0.287-1.529s-0.426-0.936-0.75-1.318s-0.721-0.691-1.189-0.926S555.188,309.877,554.587,309.877z"/>
	<path d="M572.235,308.682c0.352,0,0.703,0.021,1.055,0.064s0.645,0.104,0.879,0.182l-0.176,1.348
		c-0.328-0.07-0.656-0.125-0.984-0.164s-0.664-0.059-1.008-0.059c-1.188,0-2.195,0.281-3.023,0.844s-1.41,1.426-1.746,2.59
		l0.012,8.109h-1.453v-12.68h1.348l0.094,2.203v0.258c0.516-0.836,1.199-1.494,2.051-1.975S571.118,308.682,572.235,308.682z"/>
</g>
<g>
</g>
<g>
</g>
<g>
</g>
<g>
</g>
<g>
</g>
<g>
</g>
<g>
</g>
<g>
</g>
<g>
</g>
<g>
</g>
<g>
</g>
<g>
</g>
<g>
</g>
<g>
</g>
<g>
</g>
</svg>
