<?xml version="1.0" encoding="utf-8"?>
<!-- Generator: Adobe Illustrator 16.0.4, SVG Export Plug-In . SVG Version: 6.00 Build 0)  -->
<!DOCTYPE svg PUBLIC "-//W3C//DTD SVG 1.1//EN" "http://www.w3.org/Graphics/SVG/1.1/DTD/svg11.dtd">
<svg version="1.1" id="Layer_13" xmlns="http://www.w3.org/2000/svg" xmlns:xlink="http://www.w3.org/1999/xlink" x="0px" y="0px"
	 width="1366px" height="768px" viewBox="0 0 1366 768" enable-background="new 0 0 1366 768" xml:space="preserve">
<rect x="-1" y="1" fill="#FFFFFF" width="1366" height="768"/>
<rect x="97" y="246" fill="#C8D7E3" enable-background="new    " width="86" height="27"/>
<rect x="67" y="393" fill="#C8D7E3" enable-background="new    " width="163" height="27"/>
<rect x="67" y="451" fill="#C8D7E3" enable-background="new    " width="92" height="27"/>
<rect x="183" y="246" fill="#97B2C3" enable-background="new    " width="31" height="27"/>
<rect x="350" y="384" fill="#97B2C3" enable-background="new    " width="88" height="18"/>
<rect x="274" y="439" fill="#97B2C3" enable-background="new    " width="24" height="18"/>
<g>
	<rect x="66.903" y="202.098" fill="none" width="576.971" height="42.001"/>
	<path d="M83.274,211.607c0,2.82-0.803,4.98-2.408,6.48s-3.924,2.25-6.955,2.25H69.06v-17.133h5.379
		c2.797,0,4.969,0.738,6.516,2.215S83.274,208.959,83.274,211.607z M79.501,211.701c0-3.68-1.625-5.52-4.875-5.52h-1.934v11.156
		h1.559C77.751,217.338,79.501,215.459,79.501,211.701z"/>
	<path d="M86.392,203.85c0-1.164,0.648-1.746,1.945-1.746s1.945,0.582,1.945,1.746c0,0.555-0.162,0.986-0.486,1.295
		s-0.811,0.463-1.459,0.463C87.04,205.607,86.392,205.021,86.392,203.85z M90.118,220.338h-3.574v-13.102h3.574V220.338z"/>
	<path d="M101.11,209.92h-3.094v10.418h-3.574V209.92h-1.969v-1.723l1.969-0.961v-0.961c0-1.492,0.367-2.582,1.102-3.27
		s1.91-1.031,3.527-1.031c1.234,0,2.332,0.184,3.293,0.551l-0.914,2.625c-0.719-0.227-1.383-0.34-1.992-0.34
		c-0.508,0-0.875,0.15-1.102,0.451s-0.34,0.686-0.34,1.154v0.82h3.094V209.92z M110.403,209.92h-3.094v10.418h-3.574V209.92h-1.969
		v-1.723l1.969-0.961v-0.961c0-1.492,0.367-2.582,1.102-3.27s1.91-1.031,3.527-1.031c1.234,0,2.332,0.184,3.293,0.551l-0.914,2.625
		c-0.719-0.227-1.383-0.34-1.992-0.34c-0.508,0-0.875,0.15-1.102,0.451s-0.34,0.686-0.34,1.154v0.82h3.094V209.92z M112.267,203.85
		c0-1.164,0.648-1.746,1.945-1.746s1.945,0.582,1.945,1.746c0,0.555-0.162,0.986-0.486,1.295s-0.811,0.463-1.459,0.463
		C112.915,205.607,112.267,205.021,112.267,203.85z M115.993,220.338h-3.574v-13.102h3.574V220.338z"/>
	<path d="M125.063,220.572c-4.078,0-6.117-2.238-6.117-6.715c0-2.227,0.555-3.928,1.664-5.104s2.699-1.764,4.77-1.764
		c1.516,0,2.875,0.297,4.078,0.891l-1.055,2.766c-0.562-0.227-1.086-0.412-1.57-0.557s-0.969-0.217-1.453-0.217
		c-1.859,0-2.789,1.32-2.789,3.961c0,2.562,0.93,3.844,2.789,3.844c0.688,0,1.324-0.092,1.91-0.275s1.172-0.471,1.758-0.861v3.059
		c-0.578,0.367-1.162,0.621-1.752,0.762S125.962,220.572,125.063,220.572z"/>
	<path d="M141.364,220.338l-0.48-1.676h-0.188c-0.383,0.609-0.926,1.08-1.629,1.412s-1.504,0.498-2.402,0.498
		c-1.539,0-2.699-0.412-3.48-1.236s-1.172-2.01-1.172-3.557v-8.543h3.574v7.652c0,0.945,0.168,1.654,0.504,2.127
		s0.871,0.709,1.605,0.709c1,0,1.723-0.334,2.168-1.002s0.668-1.775,0.668-3.322v-6.164h3.574v13.102H141.364z"/>
	<path d="M151.431,220.338h-3.574v-18.234h3.574V220.338z"/>
	<path d="M160.7,217.725c0.625,0,1.375-0.137,2.25-0.41v2.66c-0.891,0.398-1.984,0.598-3.281,0.598c-1.43,0-2.471-0.361-3.123-1.084
		s-0.979-1.807-0.979-3.252v-6.316h-1.711v-1.512l1.969-1.195l1.031-2.766h2.285v2.789h3.668v2.684h-3.668v6.316
		c0,0.508,0.143,0.883,0.428,1.125S160.231,217.725,160.7,217.725z"/>
	<path d="M163.724,207.236h3.914l2.473,7.371c0.211,0.641,0.355,1.398,0.434,2.273h0.07c0.086-0.805,0.254-1.562,0.504-2.273
		l2.426-7.371h3.832l-5.543,14.777c-0.508,1.367-1.232,2.391-2.174,3.07s-2.041,1.02-3.299,1.02c-0.617,0-1.223-0.066-1.816-0.199
		v-2.836c0.43,0.102,0.898,0.152,1.406,0.152c0.633,0,1.186-0.193,1.658-0.58s0.842-0.971,1.107-1.752l0.211-0.645L163.724,207.236z
		"/>
	<path d="M185.767,203.205h5.332c2.43,0,4.193,0.346,5.291,1.037s1.646,1.791,1.646,3.299c0,1.023-0.24,1.863-0.721,2.52
		s-1.119,1.051-1.916,1.184v0.117c1.086,0.242,1.869,0.695,2.35,1.359s0.721,1.547,0.721,2.648c0,1.562-0.564,2.781-1.693,3.656
		s-2.662,1.312-4.6,1.312h-6.41V203.205z M189.399,209.99h2.109c0.984,0,1.697-0.152,2.139-0.457s0.662-0.809,0.662-1.512
		c0-0.656-0.24-1.127-0.721-1.412s-1.24-0.428-2.279-0.428h-1.91V209.99z M189.399,212.873v4.465h2.367c1,0,1.738-0.191,2.215-0.574
		s0.715-0.969,0.715-1.758c0-1.422-1.016-2.133-3.047-2.133H189.399z"/>
	<path d="M201.458,203.85c0-1.164,0.648-1.746,1.945-1.746s1.945,0.582,1.945,1.746c0,0.555-0.162,0.986-0.486,1.295
		s-0.811,0.463-1.459,0.463C202.106,205.607,201.458,205.021,201.458,203.85z M205.185,220.338h-3.574v-13.102h3.574V220.338z"/>
	<path d="M214.454,217.725c0.625,0,1.375-0.137,2.25-0.41v2.66c-0.891,0.398-1.984,0.598-3.281,0.598
		c-1.43,0-2.471-0.361-3.123-1.084s-0.979-1.807-0.979-3.252v-6.316h-1.711v-1.512l1.969-1.195l1.031-2.766h2.285v2.789h3.668v2.684
		h-3.668v6.316c0,0.508,0.143,0.883,0.428,1.125S213.985,217.725,214.454,217.725z"/>
	<path d="M228.493,216.447c0,1.344-0.467,2.367-1.4,3.07s-2.33,1.055-4.189,1.055c-0.953,0-1.766-0.064-2.438-0.193
		s-1.301-0.318-1.887-0.568v-2.953c0.664,0.312,1.412,0.574,2.244,0.785s1.564,0.316,2.197,0.316c1.297,0,1.945-0.375,1.945-1.125
		c0-0.281-0.086-0.51-0.258-0.686s-0.469-0.375-0.891-0.598s-0.984-0.482-1.688-0.779c-1.008-0.422-1.748-0.812-2.221-1.172
		s-0.816-0.771-1.031-1.236s-0.322-1.037-0.322-1.717c0-1.164,0.451-2.064,1.354-2.701s2.182-0.955,3.838-0.955
		c1.578,0,3.113,0.344,4.605,1.031l-1.078,2.578c-0.656-0.281-1.27-0.512-1.84-0.691s-1.152-0.27-1.746-0.27
		c-1.055,0-1.582,0.285-1.582,0.855c0,0.32,0.17,0.598,0.51,0.832s1.084,0.582,2.232,1.043c1.023,0.414,1.773,0.801,2.25,1.16
		s0.828,0.773,1.055,1.242S228.493,215.799,228.493,216.447z"/>
	<path d="M230.778,208.982c0-0.656,0.176-1.152,0.527-1.488s0.863-0.504,1.535-0.504c0.648,0,1.15,0.172,1.506,0.516
		s0.533,0.836,0.533,1.477c0,0.633-0.182,1.123-0.545,1.471s-0.861,0.521-1.494,0.521c-0.656,0-1.164-0.172-1.523-0.516
		S230.778,209.623,230.778,208.982z M230.778,218.662c0-0.656,0.176-1.152,0.527-1.488s0.863-0.504,1.535-0.504
		c0.648,0,1.15,0.172,1.506,0.516s0.533,0.836,0.533,1.477c0,0.617-0.18,1.104-0.539,1.459s-0.859,0.533-1.5,0.533
		c-0.656,0-1.164-0.174-1.523-0.521S230.778,219.295,230.778,218.662z"/>
</g>
<g>
	<rect x="66.903" y="349.999" fill="none" width="576.971" height="42.001"/>
	<path d="M75.669,368.239h-3.633v-14.109h-4.652v-3.023h12.938v3.023h-4.652V368.239z"/>
	<path d="M90.997,368.239l-0.691-1.781h-0.094c-0.602,0.758-1.221,1.283-1.857,1.576s-1.467,0.439-2.49,0.439
		c-1.258,0-2.248-0.359-2.971-1.078s-1.084-1.742-1.084-3.07c0-1.391,0.486-2.416,1.459-3.076s2.439-1.025,4.4-1.096l2.273-0.07
		v-0.574c0-1.328-0.68-1.992-2.039-1.992c-1.047,0-2.277,0.316-3.691,0.949l-1.184-2.414c1.508-0.789,3.18-1.184,5.016-1.184
		c1.758,0,3.105,0.383,4.043,1.148s1.406,1.93,1.406,3.492v8.73H90.997z M89.942,362.168l-1.383,0.047
		c-1.039,0.031-1.812,0.219-2.32,0.562s-0.762,0.867-0.762,1.57c0,1.008,0.578,1.512,1.734,1.512c0.828,0,1.49-0.238,1.986-0.715
		s0.744-1.109,0.744-1.898V362.168z"/>
	<path d="M104.485,354.891c0.484,0,0.887,0.035,1.207,0.105l-0.27,3.352c-0.289-0.078-0.641-0.117-1.055-0.117
		c-1.141,0-2.029,0.293-2.666,0.879s-0.955,1.406-0.955,2.461v6.668h-3.574v-13.102h2.707l0.527,2.203h0.176
		c0.406-0.734,0.955-1.326,1.646-1.775S103.673,354.891,104.485,354.891z"/>
	<path d="M119.474,355.137v1.816l-2.051,0.527c0.375,0.586,0.562,1.242,0.562,1.969c0,1.406-0.49,2.502-1.471,3.287
		s-2.342,1.178-4.084,1.178l-0.645-0.035l-0.527-0.059c-0.367,0.281-0.551,0.594-0.551,0.938c0,0.516,0.656,0.773,1.969,0.773h2.227
		c1.438,0,2.533,0.309,3.287,0.926s1.131,1.523,1.131,2.719c0,1.531-0.639,2.719-1.916,3.562s-3.111,1.266-5.502,1.266
		c-1.828,0-3.225-0.318-4.189-0.955s-1.447-1.529-1.447-2.678c0-0.789,0.246-1.449,0.738-1.98s1.215-0.91,2.168-1.137
		c-0.367-0.156-0.688-0.412-0.961-0.768s-0.41-0.732-0.41-1.131c0-0.5,0.145-0.916,0.434-1.248s0.707-0.658,1.254-0.979
		c-0.688-0.297-1.232-0.773-1.635-1.43s-0.604-1.43-0.604-2.32c0-1.43,0.465-2.535,1.395-3.316s2.258-1.172,3.984-1.172
		c0.367,0,0.803,0.033,1.307,0.1s0.826,0.115,0.967,0.146H119.474z M109.36,370.09c0,0.492,0.236,0.879,0.709,1.16
		s1.135,0.422,1.986,0.422c1.281,0,2.285-0.176,3.012-0.527s1.09-0.832,1.09-1.441c0-0.492-0.215-0.832-0.645-1.02
		s-1.094-0.281-1.992-0.281h-1.852c-0.656,0-1.205,0.154-1.646,0.463S109.36,369.583,109.36,370.09z M110.661,359.426
		c0,0.711,0.162,1.273,0.486,1.688s0.818,0.621,1.482,0.621c0.672,0,1.164-0.207,1.477-0.621s0.469-0.977,0.469-1.688
		c0-1.578-0.648-2.367-1.945-2.367C111.317,357.059,110.661,357.848,110.661,359.426z"/>
	<path d="M127.56,368.473c-2.109,0-3.758-0.582-4.945-1.746s-1.781-2.812-1.781-4.945c0-2.195,0.549-3.893,1.646-5.092
		s2.615-1.799,4.553-1.799c1.852,0,3.293,0.527,4.324,1.582s1.547,2.512,1.547,4.371v1.734h-8.449
		c0.039,1.016,0.34,1.809,0.902,2.379s1.352,0.855,2.367,0.855c0.789,0,1.535-0.082,2.238-0.246s1.438-0.426,2.203-0.785v2.766
		c-0.625,0.312-1.293,0.545-2.004,0.697S128.583,368.473,127.56,368.473z M127.056,357.434c-0.758,0-1.352,0.24-1.781,0.721
		s-0.676,1.162-0.738,2.045h5.016c-0.016-0.883-0.246-1.564-0.691-2.045S127.813,357.434,127.056,357.434z"/>
	<path d="M141.329,365.625c0.625,0,1.375-0.137,2.25-0.41v2.66c-0.891,0.398-1.984,0.598-3.281,0.598
		c-1.43,0-2.471-0.361-3.123-1.084s-0.979-1.807-0.979-3.252v-6.316h-1.711v-1.512l1.969-1.195l1.031-2.766h2.285v2.789h3.668v2.684
		h-3.668v6.316c0,0.508,0.143,0.883,0.428,1.125S140.86,365.625,141.329,365.625z"/>
	<path d="M145.724,356.883c0-0.656,0.176-1.152,0.527-1.488s0.863-0.504,1.535-0.504c0.648,0,1.15,0.172,1.506,0.516
		s0.533,0.836,0.533,1.477c0,0.633-0.182,1.123-0.545,1.471s-0.861,0.521-1.494,0.521c-0.656,0-1.164-0.172-1.523-0.516
		S145.724,357.524,145.724,356.883z M145.724,366.563c0-0.656,0.176-1.152,0.527-1.488s0.863-0.504,1.535-0.504
		c0.648,0,1.15,0.172,1.506,0.516s0.533,0.836,0.533,1.477c0,0.617-0.18,1.104-0.539,1.459s-0.859,0.533-1.5,0.533
		c-0.656,0-1.164-0.174-1.523-0.521S145.724,367.196,145.724,366.563z"/>
</g>
<g>
	<rect x="66.903" y="613.724" fill="none" width="576.971" height="76.335"/>
	<path d="M83.099,631.963h-3.621v-7.395h-6.785v7.395H69.06V614.83h3.633v6.715h6.785v-6.715h3.621V631.963z"/>
	<path d="M93.071,632.197c-2.109,0-3.758-0.582-4.945-1.746s-1.781-2.812-1.781-4.945c0-2.195,0.549-3.893,1.646-5.092
		s2.615-1.799,4.553-1.799c1.852,0,3.293,0.527,4.324,1.582s1.547,2.512,1.547,4.371v1.734h-8.449
		c0.039,1.016,0.34,1.809,0.902,2.379s1.352,0.855,2.367,0.855c0.789,0,1.535-0.082,2.238-0.246s1.438-0.426,2.203-0.785v2.766
		c-0.625,0.312-1.293,0.545-2.004,0.697S94.095,632.197,93.071,632.197z M92.567,621.158c-0.758,0-1.352,0.24-1.781,0.721
		s-0.676,1.162-0.738,2.045h5.016c-0.016-0.883-0.246-1.564-0.691-2.045S93.325,621.158,92.567,621.158z"/>
	<path d="M109.642,631.963l-0.691-1.781h-0.094c-0.602,0.758-1.221,1.283-1.857,1.576s-1.467,0.439-2.49,0.439
		c-1.258,0-2.248-0.359-2.971-1.078s-1.084-1.742-1.084-3.07c0-1.391,0.486-2.416,1.459-3.076s2.439-1.025,4.4-1.096l2.273-0.07
		v-0.574c0-1.328-0.68-1.992-2.039-1.992c-1.047,0-2.277,0.316-3.691,0.949l-1.184-2.414c1.508-0.789,3.18-1.184,5.016-1.184
		c1.758,0,3.105,0.383,4.043,1.148s1.406,1.93,1.406,3.492v8.73H109.642z M108.587,625.893l-1.383,0.047
		c-1.039,0.031-1.812,0.219-2.32,0.562s-0.762,0.867-0.762,1.57c0,1.008,0.578,1.512,1.734,1.512c0.828,0,1.49-0.238,1.986-0.715
		s0.744-1.109,0.744-1.898V625.893z"/>
	<path d="M119.966,632.197c-1.539,0-2.748-0.598-3.627-1.793s-1.318-2.852-1.318-4.969c0-2.148,0.447-3.822,1.342-5.021
		s2.127-1.799,3.697-1.799c1.648,0,2.906,0.641,3.773,1.922h0.117c-0.18-0.977-0.27-1.848-0.27-2.613v-4.195h3.586v18.234h-2.742
		l-0.691-1.699h-0.152C122.868,631.553,121.63,632.197,119.966,632.197z M121.22,629.35c0.914,0,1.584-0.266,2.01-0.797
		s0.658-1.434,0.697-2.707v-0.387c0-1.406-0.217-2.414-0.65-3.023s-1.139-0.914-2.115-0.914c-0.797,0-1.416,0.338-1.857,1.014
		s-0.662,1.658-0.662,2.947s0.223,2.256,0.668,2.9S120.392,629.35,121.22,629.35z"/>
	<path d="M136.935,632.197c-2.109,0-3.758-0.582-4.945-1.746s-1.781-2.812-1.781-4.945c0-2.195,0.549-3.893,1.646-5.092
		s2.615-1.799,4.553-1.799c1.852,0,3.293,0.527,4.324,1.582s1.547,2.512,1.547,4.371v1.734h-8.449
		c0.039,1.016,0.34,1.809,0.902,2.379s1.352,0.855,2.367,0.855c0.789,0,1.535-0.082,2.238-0.246s1.438-0.426,2.203-0.785v2.766
		c-0.625,0.312-1.293,0.545-2.004,0.697S137.958,632.197,136.935,632.197z M136.431,621.158c-0.758,0-1.352,0.24-1.781,0.721
		s-0.676,1.162-0.738,2.045h5.016c-0.016-0.883-0.246-1.564-0.691-2.045S137.188,621.158,136.431,621.158z"/>
	<path d="M152.497,618.615c0.484,0,0.887,0.035,1.207,0.105l-0.27,3.352c-0.289-0.078-0.641-0.117-1.055-0.117
		c-1.141,0-2.029,0.293-2.666,0.879s-0.955,1.406-0.955,2.461v6.668h-3.574v-13.102h2.707l0.527,2.203h0.176
		c0.406-0.734,0.955-1.326,1.646-1.775S151.685,618.615,152.497,618.615z"/>
	<path d="M176.638,631.963h-3.621v-7.395h-6.785v7.395h-3.633V614.83h3.633v6.715h6.785v-6.715h3.621V631.963z"/>
	<path d="M189.001,631.963l-0.691-1.781h-0.094c-0.602,0.758-1.221,1.283-1.857,1.576s-1.467,0.439-2.49,0.439
		c-1.258,0-2.248-0.359-2.971-1.078s-1.084-1.742-1.084-3.07c0-1.391,0.486-2.416,1.459-3.076s2.439-1.025,4.4-1.096l2.273-0.07
		v-0.574c0-1.328-0.68-1.992-2.039-1.992c-1.047,0-2.277,0.316-3.691,0.949l-1.184-2.414c1.508-0.789,3.18-1.184,5.016-1.184
		c1.758,0,3.105,0.383,4.043,1.148s1.406,1.93,1.406,3.492v8.73H189.001z M187.946,625.893l-1.383,0.047
		c-1.039,0.031-1.812,0.219-2.32,0.562s-0.762,0.867-0.762,1.57c0,1.008,0.578,1.512,1.734,1.512c0.828,0,1.49-0.238,1.986-0.715
		s0.744-1.109,0.744-1.898V625.893z"/>
	<path d="M204.317,628.072c0,1.344-0.467,2.367-1.4,3.07s-2.33,1.055-4.189,1.055c-0.953,0-1.766-0.064-2.438-0.193
		s-1.301-0.318-1.887-0.568v-2.953c0.664,0.312,1.412,0.574,2.244,0.785s1.564,0.316,2.197,0.316c1.297,0,1.945-0.375,1.945-1.125
		c0-0.281-0.086-0.51-0.258-0.686s-0.469-0.375-0.891-0.598s-0.984-0.482-1.688-0.779c-1.008-0.422-1.748-0.812-2.221-1.172
		s-0.816-0.771-1.031-1.236s-0.322-1.037-0.322-1.717c0-1.164,0.451-2.064,1.354-2.701s2.182-0.955,3.838-0.955
		c1.578,0,3.113,0.344,4.605,1.031l-1.078,2.578c-0.656-0.281-1.27-0.512-1.84-0.691s-1.152-0.27-1.746-0.27
		c-1.055,0-1.582,0.285-1.582,0.855c0,0.32,0.17,0.598,0.51,0.832s1.084,0.582,2.232,1.043c1.023,0.414,1.773,0.801,2.25,1.16
		s0.828,0.773,1.055,1.242S204.317,627.424,204.317,628.072z"/>
	<path d="M219.2,631.963h-3.574v-7.652c0-1.891-0.703-2.836-2.109-2.836c-1,0-1.723,0.34-2.168,1.02s-0.668,1.781-0.668,3.305v6.164
		h-3.574v-18.234h3.574v3.715c0,0.289-0.027,0.969-0.082,2.039l-0.082,1.055h0.188c0.797-1.281,2.062-1.922,3.797-1.922
		c1.539,0,2.707,0.414,3.504,1.242s1.195,2.016,1.195,3.562V631.963z"/>
	<path d="M222.376,620.607c0-0.656,0.176-1.152,0.527-1.488s0.863-0.504,1.535-0.504c0.648,0,1.15,0.172,1.506,0.516
		s0.533,0.836,0.533,1.477c0,0.633-0.182,1.123-0.545,1.471s-0.861,0.521-1.494,0.521c-0.656,0-1.164-0.172-1.523-0.516
		S222.376,621.248,222.376,620.607z M222.376,630.287c0-0.656,0.176-1.152,0.527-1.488s0.863-0.504,1.535-0.504
		c0.648,0,1.15,0.172,1.506,0.516s0.533,0.836,0.533,1.477c0,0.617-0.18,1.104-0.539,1.459s-0.859,0.533-1.5,0.533
		c-0.656,0-1.164-0.174-1.523-0.521S222.376,630.92,222.376,630.287z"/>
</g>
<g>
	<rect x="66.903" y="250.596" fill="none" width="655.097" height="29.404"/>
	<path d="M79.653,262.069c0,1.086-0.125,2.049-0.375,2.889s-0.609,1.547-1.078,2.121s-1.043,1.01-1.723,1.307
		s-1.457,0.445-2.332,0.445c-0.867,0-1.643-0.148-2.326-0.445s-1.264-0.732-1.74-1.307s-0.842-1.281-1.096-2.121
		s-0.381-1.803-0.381-2.889v-3.996c0-1.086,0.125-2.049,0.375-2.889s0.611-1.549,1.084-2.127s1.051-1.018,1.734-1.318
		s1.459-0.451,2.326-0.451c0.875,0,1.654,0.15,2.338,0.451s1.262,0.74,1.734,1.318s0.834,1.287,1.084,2.127s0.375,1.803,0.375,2.889
		V262.069z M70.782,261.635l6.645-5.098c-0.125-1.133-0.455-1.994-0.99-2.584s-1.307-0.885-2.314-0.885
		c-1.141,0-1.982,0.385-2.525,1.154s-0.814,1.893-0.814,3.369V261.635z M77.474,258.612l-6.633,5.074
		c0.133,1.102,0.473,1.941,1.02,2.52s1.309,0.867,2.285,0.867c1.148,0,1.99-0.391,2.525-1.172s0.803-1.906,0.803-3.375V258.612z"/>
	<path d="M88.583,260.616l3.387-4.699h2.543l-4.723,6.27l4.852,6.41h-2.508l-3.504-4.828l-3.504,4.828h-2.531l4.852-6.41
		l-4.723-6.27h2.508L88.583,260.616z"/>
	<path d="M100.981,268.596v-11.004h-3.492v-1.676h3.492v-0.891c0-0.812,0.119-1.525,0.357-2.139s0.574-1.127,1.008-1.541
		s0.955-0.727,1.564-0.938s1.289-0.316,2.039-0.316c0.516,0,1.018,0.043,1.506,0.129s0.99,0.195,1.506,0.328l-0.258,1.793
		c-0.32-0.109-0.693-0.205-1.119-0.287s-0.881-0.123-1.365-0.123c-1.016,0.008-1.779,0.266-2.291,0.773s-0.768,1.281-0.768,2.32
		v0.891h4.887v1.676h-4.887v11.004H100.981z"/>
	<path d="M115.396,268.596v-11.004h-3.492v-1.676h3.492v-0.891c0-0.812,0.119-1.525,0.357-2.139s0.574-1.127,1.008-1.541
		s0.955-0.727,1.564-0.938s1.289-0.316,2.039-0.316c0.516,0,1.018,0.043,1.506,0.129s0.99,0.195,1.506,0.328l-0.258,1.793
		c-0.32-0.109-0.693-0.205-1.119-0.287s-0.881-0.123-1.365-0.123c-1.016,0.008-1.779,0.266-2.291,0.773s-0.768,1.281-0.768,2.32
		v0.891h4.887v1.676h-4.887v11.004H115.396z"/>
	<path d="M129.81,268.596v-11.004h-3.492v-1.676h3.492v-0.891c0-0.812,0.119-1.525,0.357-2.139s0.574-1.127,1.008-1.541
		s0.955-0.727,1.564-0.938s1.289-0.316,2.039-0.316c0.516,0,1.018,0.043,1.506,0.129s0.99,0.195,1.506,0.328l-0.258,1.793
		c-0.32-0.109-0.693-0.205-1.119-0.287s-0.881-0.123-1.365-0.123c-1.016,0.008-1.779,0.266-2.291,0.773s-0.768,1.281-0.768,2.32
		v0.891h4.887v1.676h-4.887v11.004H129.81z"/>
	<path d="M144.224,268.596v-11.004h-3.492v-1.676h3.492v-0.891c0-0.812,0.119-1.525,0.357-2.139s0.574-1.127,1.008-1.541
		s0.955-0.727,1.564-0.938s1.289-0.316,2.039-0.316c0.516,0,1.018,0.043,1.506,0.129s0.99,0.195,1.506,0.328l-0.258,1.793
		c-0.32-0.109-0.693-0.205-1.119-0.287s-0.881-0.123-1.365-0.123c-1.016,0.008-1.779,0.266-2.291,0.773s-0.768,1.281-0.768,2.32
		v0.891h4.887v1.676h-4.887v11.004H144.224z"/>
	<path d="M166.114,262.069c0,1.086-0.125,2.049-0.375,2.889s-0.609,1.547-1.078,2.121s-1.043,1.01-1.723,1.307
		s-1.457,0.445-2.332,0.445c-0.867,0-1.643-0.148-2.326-0.445s-1.264-0.732-1.74-1.307s-0.842-1.281-1.096-2.121
		s-0.381-1.803-0.381-2.889v-3.996c0-1.086,0.125-2.049,0.375-2.889s0.611-1.549,1.084-2.127s1.051-1.018,1.734-1.318
		s1.459-0.451,2.326-0.451c0.875,0,1.654,0.15,2.338,0.451s1.262,0.74,1.734,1.318s0.834,1.287,1.084,2.127s0.375,1.803,0.375,2.889
		V262.069z M157.243,261.635l6.645-5.098c-0.125-1.133-0.455-1.994-0.99-2.584s-1.307-0.885-2.314-0.885
		c-1.141,0-1.982,0.385-2.525,1.154s-0.814,1.893-0.814,3.369V261.635z M163.935,258.612l-6.633,5.074
		c0.133,1.102,0.473,1.941,1.02,2.52s1.309,0.867,2.285,0.867c1.148,0,1.99-0.391,2.525-1.172s0.803-1.906,0.803-3.375V258.612z"/>
	<path d="M180.517,262.069c0,1.086-0.125,2.049-0.375,2.889s-0.609,1.547-1.078,2.121s-1.043,1.01-1.723,1.307
		s-1.457,0.445-2.332,0.445c-0.867,0-1.643-0.148-2.326-0.445s-1.264-0.732-1.74-1.307s-0.842-1.281-1.096-2.121
		s-0.381-1.803-0.381-2.889v-3.996c0-1.086,0.125-2.049,0.375-2.889s0.611-1.549,1.084-2.127s1.051-1.018,1.734-1.318
		s1.459-0.451,2.326-0.451c0.875,0,1.654,0.15,2.338,0.451s1.262,0.74,1.734,1.318s0.834,1.287,1.084,2.127s0.375,1.803,0.375,2.889
		V262.069z M171.646,261.635l6.645-5.098c-0.125-1.133-0.455-1.994-0.99-2.584s-1.307-0.885-2.314-0.885
		c-1.141,0-1.982,0.385-2.525,1.154s-0.814,1.893-0.814,3.369V261.635z M178.337,258.612l-6.633,5.074
		c0.133,1.102,0.473,1.941,1.02,2.52s1.309,0.867,2.285,0.867c1.148,0,1.99-0.391,2.525-1.172s0.803-1.906,0.803-3.375V258.612z"/>
	<path d="M191.239,268.596h-2.168v-14.297l-4.465,1.699v-1.98l6.457-2.484h0.176V268.596z"/>
	<path d="M198.2,262.151c0-0.945,0.119-1.814,0.357-2.607s0.578-1.475,1.02-2.045s0.975-1.016,1.6-1.336s1.324-0.48,2.098-0.48
		c0.758,0,1.42,0.127,1.986,0.381s1.057,0.623,1.471,1.107v-6.574h2.168v18h-1.992l-0.094-1.336
		c-0.422,0.516-0.926,0.906-1.512,1.172s-1.27,0.398-2.051,0.398c-0.766,0-1.459-0.164-2.08-0.492s-1.15-0.781-1.588-1.359
		s-0.777-1.26-1.02-2.045s-0.363-1.631-0.363-2.537V262.151z M200.368,262.397c0,0.617,0.066,1.203,0.199,1.758
		s0.338,1.043,0.615,1.465s0.631,0.756,1.061,1.002s0.945,0.369,1.547,0.369c0.367,0,0.699-0.043,0.996-0.129
		s0.566-0.209,0.809-0.369s0.457-0.352,0.645-0.574s0.352-0.471,0.492-0.744v-5.883c-0.281-0.516-0.66-0.939-1.137-1.271
		s-1.07-0.498-1.781-0.498c-0.609,0-1.131,0.125-1.564,0.375s-0.789,0.588-1.066,1.014s-0.482,0.918-0.615,1.477
		s-0.199,1.146-0.199,1.764V262.397z"/>
</g>
<g>
	<rect x="66.903" y="456.276" fill="none" width="600.097" height="44.404"/>
	<path d="M79.653,467.748c0,1.086-0.125,2.049-0.375,2.889s-0.609,1.547-1.078,2.121s-1.043,1.01-1.723,1.307
		s-1.457,0.445-2.332,0.445c-0.867,0-1.643-0.148-2.326-0.445s-1.264-0.732-1.74-1.307s-0.842-1.281-1.096-2.121
		s-0.381-1.803-0.381-2.889v-3.996c0-1.086,0.125-2.049,0.375-2.889s0.611-1.549,1.084-2.127s1.051-1.018,1.734-1.318
		s1.459-0.451,2.326-0.451c0.875,0,1.654,0.15,2.338,0.451s1.262,0.74,1.734,1.318s0.834,1.287,1.084,2.127s0.375,1.803,0.375,2.889
		V467.748z M70.782,467.314l6.645-5.098c-0.125-1.133-0.455-1.994-0.99-2.584s-1.307-0.885-2.314-0.885
		c-1.141,0-1.982,0.385-2.525,1.154s-0.814,1.893-0.814,3.369V467.314z M77.474,464.291l-6.633,5.074
		c0.133,1.102,0.473,1.941,1.02,2.52s1.309,0.867,2.285,0.867c1.148,0,1.99-0.391,2.525-1.172s0.803-1.906,0.803-3.375V464.291z"/>
	<path d="M94.056,467.748c0,1.086-0.125,2.049-0.375,2.889s-0.609,1.547-1.078,2.121s-1.043,1.01-1.723,1.307
		s-1.457,0.445-2.332,0.445c-0.867,0-1.643-0.148-2.326-0.445s-1.264-0.732-1.74-1.307s-0.842-1.281-1.096-2.121
		s-0.381-1.803-0.381-2.889v-3.996c0-1.086,0.125-2.049,0.375-2.889s0.611-1.549,1.084-2.127s1.051-1.018,1.734-1.318
		s1.459-0.451,2.326-0.451c0.875,0,1.654,0.15,2.338,0.451s1.262,0.74,1.734,1.318s0.834,1.287,1.084,2.127s0.375,1.803,0.375,2.889
		V467.748z M85.185,467.314l6.645-5.098c-0.125-1.133-0.455-1.994-0.99-2.584s-1.307-0.885-2.314-0.885
		c-1.141,0-1.982,0.385-2.525,1.154s-0.814,1.893-0.814,3.369V467.314z M91.876,464.291l-6.633,5.074
		c0.133,1.102,0.473,1.941,1.02,2.52s1.309,0.867,2.285,0.867c1.148,0,1.99-0.391,2.525-1.172s0.803-1.906,0.803-3.375V464.291z"/>
	<path d="M100.981,474.275v-11.004h-3.492v-1.676h3.492v-0.891c0-0.812,0.119-1.525,0.357-2.139s0.574-1.127,1.008-1.541
		s0.955-0.727,1.564-0.938s1.289-0.316,2.039-0.316c0.516,0,1.018,0.043,1.506,0.129s0.99,0.195,1.506,0.328l-0.258,1.793
		c-0.32-0.109-0.693-0.205-1.119-0.287s-0.881-0.123-1.365-0.123c-1.016,0.008-1.779,0.266-2.291,0.773s-0.768,1.281-0.768,2.32
		v0.891h4.887v1.676h-4.887v11.004H100.981z"/>
	<path d="M115.396,474.275v-11.004h-3.492v-1.676h3.492v-0.891c0-0.812,0.119-1.525,0.357-2.139s0.574-1.127,1.008-1.541
		s0.955-0.727,1.564-0.938s1.289-0.316,2.039-0.316c0.516,0,1.018,0.043,1.506,0.129s0.99,0.195,1.506,0.328l-0.258,1.793
		c-0.32-0.109-0.693-0.205-1.119-0.287s-0.881-0.123-1.365-0.123c-1.016,0.008-1.779,0.266-2.291,0.773s-0.768,1.281-0.768,2.32
		v0.891h4.887v1.676h-4.887v11.004H115.396z"/>
	<path d="M129.81,474.275v-11.004h-3.492v-1.676h3.492v-0.891c0-0.812,0.119-1.525,0.357-2.139s0.574-1.127,1.008-1.541
		s0.955-0.727,1.564-0.938s1.289-0.316,2.039-0.316c0.516,0,1.018,0.043,1.506,0.129s0.99,0.195,1.506,0.328l-0.258,1.793
		c-0.32-0.109-0.693-0.205-1.119-0.287s-0.881-0.123-1.365-0.123c-1.016,0.008-1.779,0.266-2.291,0.773s-0.768,1.281-0.768,2.32
		v0.891h4.887v1.676h-4.887v11.004H129.81z"/>
	<path d="M144.224,474.275v-11.004h-3.492v-1.676h3.492v-0.891c0-0.812,0.119-1.525,0.357-2.139s0.574-1.127,1.008-1.541
		s0.955-0.727,1.564-0.938s1.289-0.316,2.039-0.316c0.516,0,1.018,0.043,1.506,0.129s0.99,0.195,1.506,0.328l-0.258,1.793
		c-0.32-0.109-0.693-0.205-1.119-0.287s-0.881-0.123-1.365-0.123c-1.016,0.008-1.779,0.266-2.291,0.773s-0.768,1.281-0.768,2.32
		v0.891h4.887v1.676h-4.887v11.004H144.224z"/>
	<path d="M175.044,466.295l3.387-4.699h2.543l-4.723,6.27l4.852,6.41h-2.508l-3.504-4.828l-3.504,4.828h-2.531l4.852-6.41
		l-4.723-6.27h2.508L175.044,466.295z"/>
	<path d="M209.075,474.275h-11.18v-1.559l5.59-6.211c0.5-0.555,0.918-1.047,1.254-1.477s0.605-0.826,0.809-1.189
		s0.348-0.707,0.434-1.031s0.129-0.658,0.129-1.002c0-0.422-0.068-0.818-0.205-1.189s-0.336-0.693-0.598-0.967
		s-0.578-0.49-0.949-0.65s-0.791-0.24-1.26-0.24c-0.57,0-1.064,0.082-1.482,0.246s-0.766,0.396-1.043,0.697
		s-0.484,0.666-0.621,1.096s-0.205,0.91-0.205,1.441h-2.18c0-0.719,0.125-1.396,0.375-2.033s0.611-1.193,1.084-1.67
		s1.051-0.855,1.734-1.137s1.463-0.422,2.338-0.422c0.805,0,1.529,0.119,2.174,0.357s1.189,0.568,1.635,0.99s0.787,0.922,1.025,1.5
		s0.357,1.207,0.357,1.887c0,0.508-0.086,1.01-0.258,1.506s-0.404,0.986-0.697,1.471s-0.633,0.963-1.02,1.436
		s-0.795,0.943-1.225,1.412l-4.582,4.969h8.566V474.275z"/>
</g>
<g>
	<rect x="66.903" y="510.276" fill="none" width="1014.097" height="29.724"/>
	<path d="M79.653,521.749c0,1.086-0.125,2.049-0.375,2.889s-0.609,1.547-1.078,2.121s-1.043,1.01-1.723,1.307
		s-1.457,0.445-2.332,0.445c-0.867,0-1.643-0.148-2.326-0.445s-1.264-0.732-1.74-1.307s-0.842-1.281-1.096-2.121
		s-0.381-1.803-0.381-2.889v-3.996c0-1.086,0.125-2.049,0.375-2.889s0.611-1.549,1.084-2.127s1.051-1.018,1.734-1.318
		s1.459-0.451,2.326-0.451c0.875,0,1.654,0.15,2.338,0.451s1.262,0.74,1.734,1.318s0.834,1.287,1.084,2.127s0.375,1.803,0.375,2.889
		V521.749z M70.782,521.315l6.645-5.098c-0.125-1.133-0.455-1.994-0.99-2.584s-1.307-0.885-2.314-0.885
		c-1.141,0-1.982,0.385-2.525,1.154s-0.814,1.893-0.814,3.369V521.315z M77.474,518.292l-6.633,5.074
		c0.133,1.102,0.473,1.941,1.02,2.52s1.309,0.867,2.285,0.867c1.148,0,1.99-0.391,2.525-1.172s0.803-1.906,0.803-3.375V518.292z"/>
	<path d="M88.583,520.296l3.387-4.699h2.543l-4.723,6.27l4.852,6.41h-2.508l-3.504-4.828l-3.504,4.828h-2.531l4.852-6.41
		l-4.723-6.27h2.508L88.583,520.296z"/>
	<path d="M108.458,521.749c0,1.086-0.125,2.049-0.375,2.889s-0.609,1.547-1.078,2.121s-1.043,1.01-1.723,1.307
		s-1.457,0.445-2.332,0.445c-0.867,0-1.643-0.148-2.326-0.445s-1.264-0.732-1.74-1.307s-0.842-1.281-1.096-2.121
		s-0.381-1.803-0.381-2.889v-3.996c0-1.086,0.125-2.049,0.375-2.889s0.611-1.549,1.084-2.127s1.051-1.018,1.734-1.318
		s1.459-0.451,2.326-0.451c0.875,0,1.654,0.15,2.338,0.451s1.262,0.74,1.734,1.318s0.834,1.287,1.084,2.127s0.375,1.803,0.375,2.889
		V521.749z M99.587,521.315l6.645-5.098c-0.125-1.133-0.455-1.994-0.99-2.584s-1.307-0.885-2.314-0.885
		c-1.141,0-1.982,0.385-2.525,1.154s-0.814,1.893-0.814,3.369V521.315z M106.278,518.292l-6.633,5.074
		c0.133,1.102,0.473,1.941,1.02,2.52s1.309,0.867,2.285,0.867c1.148,0,1.99-0.391,2.525-1.172s0.803-1.906,0.803-3.375V518.292z"/>
	<path d="M122.86,521.749c0,1.086-0.125,2.049-0.375,2.889s-0.609,1.547-1.078,2.121s-1.043,1.01-1.723,1.307
		s-1.457,0.445-2.332,0.445c-0.867,0-1.643-0.148-2.326-0.445s-1.264-0.732-1.74-1.307s-0.842-1.281-1.096-2.121
		s-0.381-1.803-0.381-2.889v-3.996c0-1.086,0.125-2.049,0.375-2.889s0.611-1.549,1.084-2.127s1.051-1.018,1.734-1.318
		s1.459-0.451,2.326-0.451c0.875,0,1.654,0.15,2.338,0.451s1.262,0.74,1.734,1.318s0.834,1.287,1.084,2.127s0.375,1.803,0.375,2.889
		V521.749z M113.989,521.315l6.645-5.098c-0.125-1.133-0.455-1.994-0.99-2.584s-1.307-0.885-2.314-0.885
		c-1.141,0-1.982,0.385-2.525,1.154s-0.814,1.893-0.814,3.369V521.315z M120.681,518.292l-6.633,5.074
		c0.133,1.102,0.473,1.941,1.02,2.52s1.309,0.867,2.285,0.867c1.148,0,1.99-0.391,2.525-1.172s0.803-1.906,0.803-3.375V518.292z"/>
	<path d="M137.263,521.749c0,1.086-0.125,2.049-0.375,2.889s-0.609,1.547-1.078,2.121s-1.043,1.01-1.723,1.307
		s-1.457,0.445-2.332,0.445c-0.867,0-1.643-0.148-2.326-0.445s-1.264-0.732-1.74-1.307s-0.842-1.281-1.096-2.121
		s-0.381-1.803-0.381-2.889v-3.996c0-1.086,0.125-2.049,0.375-2.889s0.611-1.549,1.084-2.127s1.051-1.018,1.734-1.318
		s1.459-0.451,2.326-0.451c0.875,0,1.654,0.15,2.338,0.451s1.262,0.74,1.734,1.318s0.834,1.287,1.084,2.127s0.375,1.803,0.375,2.889
		V521.749z M128.392,521.315l6.645-5.098c-0.125-1.133-0.455-1.994-0.99-2.584s-1.307-0.885-2.314-0.885
		c-1.141,0-1.982,0.385-2.525,1.154s-0.814,1.893-0.814,3.369V521.315z M135.083,518.292l-6.633,5.074
		c0.133,1.102,0.473,1.941,1.02,2.52s1.309,0.867,2.285,0.867c1.148,0,1.99-0.391,2.525-1.172s0.803-1.906,0.803-3.375V518.292z"/>
	<path d="M151.665,521.749c0,1.086-0.125,2.049-0.375,2.889s-0.609,1.547-1.078,2.121s-1.043,1.01-1.723,1.307
		s-1.457,0.445-2.332,0.445c-0.867,0-1.643-0.148-2.326-0.445s-1.264-0.732-1.74-1.307s-0.842-1.281-1.096-2.121
		s-0.381-1.803-0.381-2.889v-3.996c0-1.086,0.125-2.049,0.375-2.889s0.611-1.549,1.084-2.127s1.051-1.018,1.734-1.318
		s1.459-0.451,2.326-0.451c0.875,0,1.654,0.15,2.338,0.451s1.262,0.74,1.734,1.318s0.834,1.287,1.084,2.127s0.375,1.803,0.375,2.889
		V521.749z M142.794,521.315l6.645-5.098c-0.125-1.133-0.455-1.994-0.99-2.584s-1.307-0.885-2.314-0.885
		c-1.141,0-1.982,0.385-2.525,1.154s-0.814,1.893-0.814,3.369V521.315z M149.485,518.292l-6.633,5.074
		c0.133,1.102,0.473,1.941,1.02,2.52s1.309,0.867,2.285,0.867c1.148,0,1.99-0.391,2.525-1.172s0.803-1.906,0.803-3.375V518.292z"/>
	<path d="M166.067,521.749c0,1.086-0.125,2.049-0.375,2.889s-0.609,1.547-1.078,2.121s-1.043,1.01-1.723,1.307
		s-1.457,0.445-2.332,0.445c-0.867,0-1.643-0.148-2.326-0.445s-1.264-0.732-1.74-1.307s-0.842-1.281-1.096-2.121
		s-0.381-1.803-0.381-2.889v-3.996c0-1.086,0.125-2.049,0.375-2.889s0.611-1.549,1.084-2.127s1.051-1.018,1.734-1.318
		s1.459-0.451,2.326-0.451c0.875,0,1.654,0.15,2.338,0.451s1.262,0.74,1.734,1.318s0.834,1.287,1.084,2.127s0.375,1.803,0.375,2.889
		V521.749z M157.196,521.315l6.645-5.098c-0.125-1.133-0.455-1.994-0.99-2.584s-1.307-0.885-2.314-0.885
		c-1.141,0-1.982,0.385-2.525,1.154s-0.814,1.893-0.814,3.369V521.315z M163.888,518.292l-6.633,5.074
		c0.133,1.102,0.473,1.941,1.02,2.52s1.309,0.867,2.285,0.867c1.148,0,1.99-0.391,2.525-1.172s0.803-1.906,0.803-3.375V518.292z"/>
	<path d="M180.47,521.749c0,1.086-0.125,2.049-0.375,2.889s-0.609,1.547-1.078,2.121s-1.043,1.01-1.723,1.307
		s-1.457,0.445-2.332,0.445c-0.867,0-1.643-0.148-2.326-0.445s-1.264-0.732-1.74-1.307s-0.842-1.281-1.096-2.121
		s-0.381-1.803-0.381-2.889v-3.996c0-1.086,0.125-2.049,0.375-2.889s0.611-1.549,1.084-2.127s1.051-1.018,1.734-1.318
		s1.459-0.451,2.326-0.451c0.875,0,1.654,0.15,2.338,0.451s1.262,0.74,1.734,1.318s0.834,1.287,1.084,2.127s0.375,1.803,0.375,2.889
		V521.749z M171.599,521.315l6.645-5.098c-0.125-1.133-0.455-1.994-0.99-2.584s-1.307-0.885-2.314-0.885
		c-1.141,0-1.982,0.385-2.525,1.154s-0.814,1.893-0.814,3.369V521.315z M178.29,518.292l-6.633,5.074
		c0.133,1.102,0.473,1.941,1.02,2.52s1.309,0.867,2.285,0.867c1.148,0,1.99-0.391,2.525-1.172s0.803-1.906,0.803-3.375V518.292z"/>
	<path d="M194.872,521.749c0,1.086-0.125,2.049-0.375,2.889s-0.609,1.547-1.078,2.121s-1.043,1.01-1.723,1.307
		s-1.457,0.445-2.332,0.445c-0.867,0-1.643-0.148-2.326-0.445s-1.264-0.732-1.74-1.307s-0.842-1.281-1.096-2.121
		s-0.381-1.803-0.381-2.889v-3.996c0-1.086,0.125-2.049,0.375-2.889s0.611-1.549,1.084-2.127s1.051-1.018,1.734-1.318
		s1.459-0.451,2.326-0.451c0.875,0,1.654,0.15,2.338,0.451s1.262,0.74,1.734,1.318s0.834,1.287,1.084,2.127s0.375,1.803,0.375,2.889
		V521.749z M186.001,521.315l6.645-5.098c-0.125-1.133-0.455-1.994-0.99-2.584s-1.307-0.885-2.314-0.885
		c-1.141,0-1.982,0.385-2.525,1.154s-0.814,1.893-0.814,3.369V521.315z M192.692,518.292l-6.633,5.074
		c0.133,1.102,0.473,1.941,1.02,2.52s1.309,0.867,2.285,0.867c1.148,0,1.99-0.391,2.525-1.172s0.803-1.906,0.803-3.375V518.292z"/>
	<path d="M209.274,521.749c0,1.086-0.125,2.049-0.375,2.889s-0.609,1.547-1.078,2.121s-1.043,1.01-1.723,1.307
		s-1.457,0.445-2.332,0.445c-0.867,0-1.643-0.148-2.326-0.445s-1.264-0.732-1.74-1.307s-0.842-1.281-1.096-2.121
		s-0.381-1.803-0.381-2.889v-3.996c0-1.086,0.125-2.049,0.375-2.889s0.611-1.549,1.084-2.127s1.051-1.018,1.734-1.318
		s1.459-0.451,2.326-0.451c0.875,0,1.654,0.15,2.338,0.451s1.262,0.74,1.734,1.318s0.834,1.287,1.084,2.127s0.375,1.803,0.375,2.889
		V521.749z M200.403,521.315l6.645-5.098c-0.125-1.133-0.455-1.994-0.99-2.584s-1.307-0.885-2.314-0.885
		c-1.141,0-1.982,0.385-2.525,1.154s-0.814,1.893-0.814,3.369V521.315z M207.095,518.292l-6.633,5.074
		c0.133,1.102,0.473,1.941,1.02,2.52s1.309,0.867,2.285,0.867c1.148,0,1.99-0.391,2.525-1.172s0.803-1.906,0.803-3.375V518.292z"/>
	<path d="M215.931,528.276v-10.594h-3.41v-2.086h3.41v-0.785c0-0.82,0.123-1.545,0.369-2.174s0.602-1.156,1.066-1.582
		s1.025-0.75,1.682-0.973s1.395-0.334,2.215-0.334c0.539,0,1.053,0.041,1.541,0.123s0.998,0.178,1.529,0.287l-0.246,2.227
		c-0.305-0.086-0.66-0.162-1.066-0.229s-0.863-0.1-1.371-0.1c-1.008,0-1.744,0.238-2.209,0.715s-0.697,1.156-0.697,2.039v0.785
		h4.711v2.086h-4.711v10.594H215.931z"/>
	<path d="M230.333,528.276v-10.594h-3.41v-2.086h3.41v-0.785c0-0.82,0.123-1.545,0.369-2.174s0.602-1.156,1.066-1.582
		s1.025-0.75,1.682-0.973s1.395-0.334,2.215-0.334c0.539,0,1.053,0.041,1.541,0.123s0.998,0.178,1.529,0.287l-0.246,2.227
		c-0.305-0.086-0.66-0.162-1.066-0.229s-0.863-0.1-1.371-0.1c-1.008,0-1.744,0.238-2.209,0.715s-0.697,1.156-0.697,2.039v0.785
		h4.711v2.086h-4.711v10.594H230.333z"/>
	<path d="M244.735,528.276v-10.594h-3.41v-2.086h3.41v-0.785c0-0.82,0.123-1.545,0.369-2.174s0.602-1.156,1.066-1.582
		s1.025-0.75,1.682-0.973s1.395-0.334,2.215-0.334c0.539,0,1.053,0.041,1.541,0.123s0.998,0.178,1.529,0.287l-0.246,2.227
		c-0.305-0.086-0.66-0.162-1.066-0.229s-0.863-0.1-1.371-0.1c-1.008,0-1.744,0.238-2.209,0.715s-0.697,1.156-0.697,2.039v0.785
		h4.711v2.086h-4.711v10.594H244.735z"/>
	<path d="M259.138,528.276v-10.594h-3.41v-2.086h3.41v-0.785c0-0.82,0.123-1.545,0.369-2.174s0.602-1.156,1.066-1.582
		s1.025-0.75,1.682-0.973s1.395-0.334,2.215-0.334c0.539,0,1.053,0.041,1.541,0.123s0.998,0.178,1.529,0.287l-0.246,2.227
		c-0.305-0.086-0.66-0.162-1.066-0.229s-0.863-0.1-1.371-0.1c-1.008,0-1.744,0.238-2.209,0.715s-0.697,1.156-0.697,2.039v0.785
		h4.711v2.086h-4.711v10.594H259.138z"/>
	<path d="M281.31,521.784c0,1.102-0.127,2.072-0.381,2.912s-0.619,1.543-1.096,2.109s-1.059,0.994-1.746,1.283
		s-1.461,0.434-2.32,0.434c-0.852,0-1.621-0.145-2.309-0.434s-1.271-0.717-1.752-1.283s-0.852-1.27-1.113-2.109
		s-0.393-1.811-0.393-2.912v-4.078c0-1.102,0.129-2.072,0.387-2.912s0.627-1.543,1.107-2.109s1.062-0.994,1.746-1.283
		s1.451-0.434,2.303-0.434c0.859,0,1.633,0.145,2.32,0.434s1.271,0.717,1.752,1.283s0.85,1.27,1.107,2.109s0.387,1.811,0.387,2.912
		V521.784z M273.013,520.718l5.461-4.066c-0.062-1.164-0.318-2.025-0.768-2.584s-1.104-0.838-1.963-0.838
		c-0.914,0-1.598,0.324-2.051,0.973s-0.68,1.645-0.68,2.988V520.718z M278.497,518.854l-5.461,4.066
		c0.141,2.234,1.051,3.352,2.73,3.352c1.82,0,2.73-1.332,2.73-3.996V518.854z"/>
	<path d="M295.712,521.784c0,1.102-0.127,2.072-0.381,2.912s-0.619,1.543-1.096,2.109s-1.059,0.994-1.746,1.283
		s-1.461,0.434-2.32,0.434c-0.852,0-1.621-0.145-2.309-0.434s-1.271-0.717-1.752-1.283s-0.852-1.27-1.113-2.109
		s-0.393-1.811-0.393-2.912v-4.078c0-1.102,0.129-2.072,0.387-2.912s0.627-1.543,1.107-2.109s1.062-0.994,1.746-1.283
		s1.451-0.434,2.303-0.434c0.859,0,1.633,0.145,2.32,0.434s1.271,0.717,1.752,1.283s0.85,1.27,1.107,2.109s0.387,1.811,0.387,2.912
		V521.784z M287.415,520.718l5.461-4.066c-0.062-1.164-0.318-2.025-0.768-2.584s-1.104-0.838-1.963-0.838
		c-0.914,0-1.598,0.324-2.051,0.973s-0.68,1.645-0.68,2.988V520.718z M292.899,518.854l-5.461,4.066
		c0.141,2.234,1.051,3.352,2.73,3.352c1.82,0,2.73-1.332,2.73-3.996V518.854z"/>
	<path d="M310.114,521.784c0,1.102-0.127,2.072-0.381,2.912s-0.619,1.543-1.096,2.109s-1.059,0.994-1.746,1.283
		s-1.461,0.434-2.32,0.434c-0.852,0-1.621-0.145-2.309-0.434s-1.271-0.717-1.752-1.283s-0.852-1.27-1.113-2.109
		s-0.393-1.811-0.393-2.912v-4.078c0-1.102,0.129-2.072,0.387-2.912s0.627-1.543,1.107-2.109s1.062-0.994,1.746-1.283
		s1.451-0.434,2.303-0.434c0.859,0,1.633,0.145,2.32,0.434s1.271,0.717,1.752,1.283s0.85,1.27,1.107,2.109s0.387,1.811,0.387,2.912
		V521.784z M301.817,520.718l5.461-4.066c-0.062-1.164-0.318-2.025-0.768-2.584s-1.104-0.838-1.963-0.838
		c-0.914,0-1.598,0.324-2.051,0.973s-0.68,1.645-0.68,2.988V520.718z M307.302,518.854l-5.461,4.066
		c0.141,2.234,1.051,3.352,2.73,3.352c1.82,0,2.73-1.332,2.73-3.996V518.854z"/>
	<path d="M324.517,521.784c0,1.102-0.127,2.072-0.381,2.912s-0.619,1.543-1.096,2.109s-1.059,0.994-1.746,1.283
		s-1.461,0.434-2.32,0.434c-0.852,0-1.621-0.145-2.309-0.434s-1.271-0.717-1.752-1.283s-0.852-1.27-1.113-2.109
		s-0.393-1.811-0.393-2.912v-4.078c0-1.102,0.129-2.072,0.387-2.912s0.627-1.543,1.107-2.109s1.062-0.994,1.746-1.283
		s1.451-0.434,2.303-0.434c0.859,0,1.633,0.145,2.32,0.434s1.271,0.717,1.752,1.283s0.85,1.27,1.107,2.109s0.387,1.811,0.387,2.912
		V521.784z M316.22,520.718l5.461-4.066c-0.062-1.164-0.318-2.025-0.768-2.584s-1.104-0.838-1.963-0.838
		c-0.914,0-1.598,0.324-2.051,0.973s-0.68,1.645-0.68,2.988V520.718z M321.704,518.854l-5.461,4.066
		c0.141,2.234,1.051,3.352,2.73,3.352c1.82,0,2.73-1.332,2.73-3.996V518.854z"/>
	<path d="M331.466,526.601c0-0.273,0.045-0.531,0.135-0.773s0.221-0.451,0.393-0.627s0.385-0.314,0.639-0.416
		s0.545-0.152,0.873-0.152s0.619,0.051,0.873,0.152s0.469,0.24,0.645,0.416s0.309,0.385,0.398,0.627s0.135,0.5,0.135,0.773
		s-0.045,0.525-0.135,0.756s-0.223,0.432-0.398,0.604s-0.391,0.307-0.645,0.404s-0.545,0.146-0.873,0.146s-0.619-0.049-0.873-0.146
		s-0.467-0.232-0.639-0.404s-0.303-0.373-0.393-0.604S331.466,526.874,331.466,526.601z"/>
	<path d="M345.868,526.601c0-0.273,0.045-0.531,0.135-0.773s0.221-0.451,0.393-0.627s0.385-0.314,0.639-0.416
		s0.545-0.152,0.873-0.152s0.619,0.051,0.873,0.152s0.469,0.24,0.645,0.416s0.309,0.385,0.398,0.627s0.135,0.5,0.135,0.773
		s-0.045,0.525-0.135,0.756s-0.223,0.432-0.398,0.604s-0.391,0.307-0.645,0.404s-0.545,0.146-0.873,0.146s-0.619-0.049-0.873-0.146
		s-0.467-0.232-0.639-0.404s-0.303-0.373-0.393-0.604S345.868,526.874,345.868,526.601z"/>
	<path d="M360.271,526.601c0-0.273,0.045-0.531,0.135-0.773s0.221-0.451,0.393-0.627s0.385-0.314,0.639-0.416
		s0.545-0.152,0.873-0.152s0.619,0.051,0.873,0.152s0.469,0.24,0.645,0.416s0.309,0.385,0.398,0.627s0.135,0.5,0.135,0.773
		s-0.045,0.525-0.135,0.756s-0.223,0.432-0.398,0.604s-0.391,0.307-0.645,0.404s-0.545,0.146-0.873,0.146s-0.619-0.049-0.873-0.146
		s-0.467-0.232-0.639-0.404s-0.303-0.373-0.393-0.604S360.271,526.874,360.271,526.601z"/>
	<path d="M382.126,521.784c0,1.102-0.127,2.072-0.381,2.912s-0.619,1.543-1.096,2.109s-1.059,0.994-1.746,1.283
		s-1.461,0.434-2.32,0.434c-0.852,0-1.621-0.145-2.309-0.434s-1.271-0.717-1.752-1.283s-0.852-1.27-1.113-2.109
		s-0.393-1.811-0.393-2.912v-4.078c0-1.102,0.129-2.072,0.387-2.912s0.627-1.543,1.107-2.109s1.062-0.994,1.746-1.283
		s1.451-0.434,2.303-0.434c0.859,0,1.633,0.145,2.32,0.434s1.271,0.717,1.752,1.283s0.85,1.27,1.107,2.109s0.387,1.811,0.387,2.912
		V521.784z M373.829,520.718l5.461-4.066c-0.062-1.164-0.318-2.025-0.768-2.584s-1.104-0.838-1.963-0.838
		c-0.914,0-1.598,0.324-2.051,0.973s-0.68,1.645-0.68,2.988V520.718z M379.313,518.854l-5.461,4.066
		c0.141,2.234,1.051,3.352,2.73,3.352c1.82,0,2.73-1.332,2.73-3.996V518.854z"/>
	<path d="M396.528,521.784c0,1.102-0.127,2.072-0.381,2.912s-0.619,1.543-1.096,2.109s-1.059,0.994-1.746,1.283
		s-1.461,0.434-2.32,0.434c-0.852,0-1.621-0.145-2.309-0.434s-1.271-0.717-1.752-1.283s-0.852-1.27-1.113-2.109
		s-0.393-1.811-0.393-2.912v-4.078c0-1.102,0.129-2.072,0.387-2.912s0.627-1.543,1.107-2.109s1.062-0.994,1.746-1.283
		s1.451-0.434,2.303-0.434c0.859,0,1.633,0.145,2.32,0.434s1.271,0.717,1.752,1.283s0.85,1.27,1.107,2.109s0.387,1.811,0.387,2.912
		V521.784z M388.231,520.718l5.461-4.066c-0.062-1.164-0.318-2.025-0.768-2.584s-1.104-0.838-1.963-0.838
		c-0.914,0-1.598,0.324-2.051,0.973s-0.68,1.645-0.68,2.988V520.718z M393.716,518.854l-5.461,4.066
		c0.141,2.234,1.051,3.352,2.73,3.352c1.82,0,2.73-1.332,2.73-3.996V518.854z"/>
</g>
<g>
	<rect x="66.903" y="656.892" fill="none" width="1014.097" height="29.724"/>
	<path d="M79.653,668.364c0,1.086-0.125,2.049-0.375,2.889s-0.609,1.547-1.078,2.121s-1.043,1.01-1.723,1.307
		s-1.457,0.445-2.332,0.445c-0.867,0-1.643-0.148-2.326-0.445s-1.264-0.732-1.74-1.307s-0.842-1.281-1.096-2.121
		s-0.381-1.803-0.381-2.889v-3.996c0-1.086,0.125-2.049,0.375-2.889s0.611-1.549,1.084-2.127s1.051-1.018,1.734-1.318
		s1.459-0.451,2.326-0.451c0.875,0,1.654,0.15,2.338,0.451s1.262,0.74,1.734,1.318s0.834,1.287,1.084,2.127s0.375,1.803,0.375,2.889
		V668.364z M70.782,667.931l6.645-5.098c-0.125-1.133-0.455-1.994-0.99-2.584s-1.307-0.885-2.314-0.885
		c-1.141,0-1.982,0.385-2.525,1.154s-0.814,1.893-0.814,3.369V667.931z M77.474,664.907l-6.633,5.074
		c0.133,1.102,0.473,1.941,1.02,2.52s1.309,0.867,2.285,0.867c1.148,0,1.99-0.391,2.525-1.172s0.803-1.906,0.803-3.375V664.907z"/>
	<path d="M88.583,666.911l3.387-4.699h2.543l-4.723,6.27l4.852,6.41h-2.508l-3.504-4.828l-3.504,4.828h-2.531l4.852-6.41
		l-4.723-6.27h2.508L88.583,666.911z"/>
	<path d="M108.458,668.364c0,1.086-0.125,2.049-0.375,2.889s-0.609,1.547-1.078,2.121s-1.043,1.01-1.723,1.307
		s-1.457,0.445-2.332,0.445c-0.867,0-1.643-0.148-2.326-0.445s-1.264-0.732-1.74-1.307s-0.842-1.281-1.096-2.121
		s-0.381-1.803-0.381-2.889v-3.996c0-1.086,0.125-2.049,0.375-2.889s0.611-1.549,1.084-2.127s1.051-1.018,1.734-1.318
		s1.459-0.451,2.326-0.451c0.875,0,1.654,0.15,2.338,0.451s1.262,0.74,1.734,1.318s0.834,1.287,1.084,2.127s0.375,1.803,0.375,2.889
		V668.364z M99.587,667.931l6.645-5.098c-0.125-1.133-0.455-1.994-0.99-2.584s-1.307-0.885-2.314-0.885
		c-1.141,0-1.982,0.385-2.525,1.154s-0.814,1.893-0.814,3.369V667.931z M106.278,664.907l-6.633,5.074
		c0.133,1.102,0.473,1.941,1.02,2.52s1.309,0.867,2.285,0.867c1.148,0,1.99-0.391,2.525-1.172s0.803-1.906,0.803-3.375V664.907z"/>
	<path d="M122.86,668.364c0,1.086-0.125,2.049-0.375,2.889s-0.609,1.547-1.078,2.121s-1.043,1.01-1.723,1.307
		s-1.457,0.445-2.332,0.445c-0.867,0-1.643-0.148-2.326-0.445s-1.264-0.732-1.74-1.307s-0.842-1.281-1.096-2.121
		s-0.381-1.803-0.381-2.889v-3.996c0-1.086,0.125-2.049,0.375-2.889s0.611-1.549,1.084-2.127s1.051-1.018,1.734-1.318
		s1.459-0.451,2.326-0.451c0.875,0,1.654,0.15,2.338,0.451s1.262,0.74,1.734,1.318s0.834,1.287,1.084,2.127s0.375,1.803,0.375,2.889
		V668.364z M113.989,667.931l6.645-5.098c-0.125-1.133-0.455-1.994-0.99-2.584s-1.307-0.885-2.314-0.885
		c-1.141,0-1.982,0.385-2.525,1.154s-0.814,1.893-0.814,3.369V667.931z M120.681,664.907l-6.633,5.074
		c0.133,1.102,0.473,1.941,1.02,2.52s1.309,0.867,2.285,0.867c1.148,0,1.99-0.391,2.525-1.172s0.803-1.906,0.803-3.375V664.907z"/>
	<path d="M137.263,668.364c0,1.086-0.125,2.049-0.375,2.889s-0.609,1.547-1.078,2.121s-1.043,1.01-1.723,1.307
		s-1.457,0.445-2.332,0.445c-0.867,0-1.643-0.148-2.326-0.445s-1.264-0.732-1.74-1.307s-0.842-1.281-1.096-2.121
		s-0.381-1.803-0.381-2.889v-3.996c0-1.086,0.125-2.049,0.375-2.889s0.611-1.549,1.084-2.127s1.051-1.018,1.734-1.318
		s1.459-0.451,2.326-0.451c0.875,0,1.654,0.15,2.338,0.451s1.262,0.74,1.734,1.318s0.834,1.287,1.084,2.127s0.375,1.803,0.375,2.889
		V668.364z M128.392,667.931l6.645-5.098c-0.125-1.133-0.455-1.994-0.99-2.584s-1.307-0.885-2.314-0.885
		c-1.141,0-1.982,0.385-2.525,1.154s-0.814,1.893-0.814,3.369V667.931z M135.083,664.907l-6.633,5.074
		c0.133,1.102,0.473,1.941,1.02,2.52s1.309,0.867,2.285,0.867c1.148,0,1.99-0.391,2.525-1.172s0.803-1.906,0.803-3.375V664.907z"/>
	<path d="M151.665,668.364c0,1.086-0.125,2.049-0.375,2.889s-0.609,1.547-1.078,2.121s-1.043,1.01-1.723,1.307
		s-1.457,0.445-2.332,0.445c-0.867,0-1.643-0.148-2.326-0.445s-1.264-0.732-1.74-1.307s-0.842-1.281-1.096-2.121
		s-0.381-1.803-0.381-2.889v-3.996c0-1.086,0.125-2.049,0.375-2.889s0.611-1.549,1.084-2.127s1.051-1.018,1.734-1.318
		s1.459-0.451,2.326-0.451c0.875,0,1.654,0.15,2.338,0.451s1.262,0.74,1.734,1.318s0.834,1.287,1.084,2.127s0.375,1.803,0.375,2.889
		V668.364z M142.794,667.931l6.645-5.098c-0.125-1.133-0.455-1.994-0.99-2.584s-1.307-0.885-2.314-0.885
		c-1.141,0-1.982,0.385-2.525,1.154s-0.814,1.893-0.814,3.369V667.931z M149.485,664.907l-6.633,5.074
		c0.133,1.102,0.473,1.941,1.02,2.52s1.309,0.867,2.285,0.867c1.148,0,1.99-0.391,2.525-1.172s0.803-1.906,0.803-3.375V664.907z"/>
	<path d="M166.067,668.364c0,1.086-0.125,2.049-0.375,2.889s-0.609,1.547-1.078,2.121s-1.043,1.01-1.723,1.307
		s-1.457,0.445-2.332,0.445c-0.867,0-1.643-0.148-2.326-0.445s-1.264-0.732-1.74-1.307s-0.842-1.281-1.096-2.121
		s-0.381-1.803-0.381-2.889v-3.996c0-1.086,0.125-2.049,0.375-2.889s0.611-1.549,1.084-2.127s1.051-1.018,1.734-1.318
		s1.459-0.451,2.326-0.451c0.875,0,1.654,0.15,2.338,0.451s1.262,0.74,1.734,1.318s0.834,1.287,1.084,2.127s0.375,1.803,0.375,2.889
		V668.364z M157.196,667.931l6.645-5.098c-0.125-1.133-0.455-1.994-0.99-2.584s-1.307-0.885-2.314-0.885
		c-1.141,0-1.982,0.385-2.525,1.154s-0.814,1.893-0.814,3.369V667.931z M163.888,664.907l-6.633,5.074
		c0.133,1.102,0.473,1.941,1.02,2.52s1.309,0.867,2.285,0.867c1.148,0,1.99-0.391,2.525-1.172s0.803-1.906,0.803-3.375V664.907z"/>
	<path d="M180.47,668.364c0,1.086-0.125,2.049-0.375,2.889s-0.609,1.547-1.078,2.121s-1.043,1.01-1.723,1.307
		s-1.457,0.445-2.332,0.445c-0.867,0-1.643-0.148-2.326-0.445s-1.264-0.732-1.74-1.307s-0.842-1.281-1.096-2.121
		s-0.381-1.803-0.381-2.889v-3.996c0-1.086,0.125-2.049,0.375-2.889s0.611-1.549,1.084-2.127s1.051-1.018,1.734-1.318
		s1.459-0.451,2.326-0.451c0.875,0,1.654,0.15,2.338,0.451s1.262,0.74,1.734,1.318s0.834,1.287,1.084,2.127s0.375,1.803,0.375,2.889
		V668.364z M171.599,667.931l6.645-5.098c-0.125-1.133-0.455-1.994-0.99-2.584s-1.307-0.885-2.314-0.885
		c-1.141,0-1.982,0.385-2.525,1.154s-0.814,1.893-0.814,3.369V667.931z M178.29,664.907l-6.633,5.074
		c0.133,1.102,0.473,1.941,1.02,2.52s1.309,0.867,2.285,0.867c1.148,0,1.99-0.391,2.525-1.172s0.803-1.906,0.803-3.375V664.907z"/>
	<path d="M194.872,668.364c0,1.086-0.125,2.049-0.375,2.889s-0.609,1.547-1.078,2.121s-1.043,1.01-1.723,1.307
		s-1.457,0.445-2.332,0.445c-0.867,0-1.643-0.148-2.326-0.445s-1.264-0.732-1.74-1.307s-0.842-1.281-1.096-2.121
		s-0.381-1.803-0.381-2.889v-3.996c0-1.086,0.125-2.049,0.375-2.889s0.611-1.549,1.084-2.127s1.051-1.018,1.734-1.318
		s1.459-0.451,2.326-0.451c0.875,0,1.654,0.15,2.338,0.451s1.262,0.74,1.734,1.318s0.834,1.287,1.084,2.127s0.375,1.803,0.375,2.889
		V668.364z M186.001,667.931l6.645-5.098c-0.125-1.133-0.455-1.994-0.99-2.584s-1.307-0.885-2.314-0.885
		c-1.141,0-1.982,0.385-2.525,1.154s-0.814,1.893-0.814,3.369V667.931z M192.692,664.907l-6.633,5.074
		c0.133,1.102,0.473,1.941,1.02,2.52s1.309,0.867,2.285,0.867c1.148,0,1.99-0.391,2.525-1.172s0.803-1.906,0.803-3.375V664.907z"/>
	<path d="M209.274,668.364c0,1.086-0.125,2.049-0.375,2.889s-0.609,1.547-1.078,2.121s-1.043,1.01-1.723,1.307
		s-1.457,0.445-2.332,0.445c-0.867,0-1.643-0.148-2.326-0.445s-1.264-0.732-1.74-1.307s-0.842-1.281-1.096-2.121
		s-0.381-1.803-0.381-2.889v-3.996c0-1.086,0.125-2.049,0.375-2.889s0.611-1.549,1.084-2.127s1.051-1.018,1.734-1.318
		s1.459-0.451,2.326-0.451c0.875,0,1.654,0.15,2.338,0.451s1.262,0.74,1.734,1.318s0.834,1.287,1.084,2.127s0.375,1.803,0.375,2.889
		V668.364z M200.403,667.931l6.645-5.098c-0.125-1.133-0.455-1.994-0.99-2.584s-1.307-0.885-2.314-0.885
		c-1.141,0-1.982,0.385-2.525,1.154s-0.814,1.893-0.814,3.369V667.931z M207.095,664.907l-6.633,5.074
		c0.133,1.102,0.473,1.941,1.02,2.52s1.309,0.867,2.285,0.867c1.148,0,1.99-0.391,2.525-1.172s0.803-1.906,0.803-3.375V664.907z"/>
	<path d="M223.384,662.329c0,0.836-0.215,1.58-0.645,2.232s-1.016,1.166-1.758,1.541c0.422,0.195,0.803,0.434,1.143,0.715
		s0.631,0.598,0.873,0.949s0.428,0.736,0.557,1.154s0.193,0.861,0.193,1.33c0,0.789-0.145,1.488-0.434,2.098
		s-0.684,1.119-1.184,1.529s-1.088,0.721-1.764,0.932s-1.4,0.316-2.174,0.316c-0.789,0-1.525-0.105-2.209-0.316
		s-1.275-0.521-1.775-0.932s-0.893-0.92-1.178-1.529s-0.428-1.309-0.428-2.098c0-0.469,0.064-0.914,0.193-1.336
		s0.312-0.809,0.551-1.16s0.527-0.668,0.867-0.949s0.721-0.516,1.143-0.703c-0.734-0.375-1.312-0.889-1.734-1.541
		s-0.633-1.396-0.633-2.232c0-0.758,0.129-1.432,0.387-2.021s0.615-1.086,1.072-1.488s1.002-0.707,1.635-0.914
		s1.324-0.311,2.074-0.311s1.443,0.104,2.08,0.311s1.189,0.512,1.658,0.914s0.834,0.898,1.096,1.488
		S223.384,661.571,223.384,662.329z M220.946,670.11c0-0.43-0.066-0.82-0.199-1.172s-0.32-0.652-0.562-0.902
		s-0.533-0.443-0.873-0.58s-0.721-0.205-1.143-0.205s-0.803,0.068-1.143,0.205s-0.629,0.33-0.867,0.58s-0.422,0.551-0.551,0.902
		s-0.193,0.742-0.193,1.172c0,0.875,0.246,1.557,0.738,2.045s1.172,0.732,2.039,0.732c0.406,0,0.779-0.062,1.119-0.188
		s0.631-0.309,0.873-0.551s0.43-0.533,0.562-0.873S220.946,670.548,220.946,670.11z M220.583,662.423
		c0-0.375-0.059-0.721-0.176-1.037s-0.281-0.588-0.492-0.814s-0.467-0.402-0.768-0.527s-0.631-0.188-0.99-0.188
		c-0.367,0-0.697,0.059-0.99,0.176s-0.541,0.287-0.744,0.51s-0.359,0.492-0.469,0.809s-0.164,0.674-0.164,1.072
		c0,0.391,0.057,0.744,0.17,1.061s0.273,0.586,0.48,0.809s0.459,0.396,0.756,0.521s0.629,0.188,0.996,0.188
		c0.359,0,0.688-0.062,0.984-0.188s0.549-0.299,0.756-0.521s0.367-0.492,0.48-0.809S220.583,662.813,220.583,662.423z"/>
	<path d="M230.063,665.095h1.676c0.492,0,0.922-0.064,1.289-0.193s0.672-0.311,0.914-0.545s0.424-0.514,0.545-0.838
		s0.182-0.682,0.182-1.072c0-0.828-0.217-1.467-0.65-1.916s-1.088-0.674-1.963-0.674c-0.383,0-0.736,0.057-1.061,0.17
		s-0.605,0.275-0.844,0.486s-0.424,0.465-0.557,0.762s-0.199,0.633-0.199,1.008h-2.801c0-0.672,0.135-1.293,0.404-1.863
		s0.645-1.064,1.125-1.482s1.053-0.746,1.717-0.984s1.391-0.357,2.18-0.357c0.805,0,1.543,0.104,2.215,0.311s1.246,0.514,1.723,0.92
		s0.848,0.912,1.113,1.518s0.398,1.307,0.398,2.104c0,0.336-0.051,0.68-0.152,1.031s-0.256,0.691-0.463,1.02
		s-0.469,0.635-0.785,0.92s-0.689,0.525-1.119,0.721c0.516,0.18,0.949,0.41,1.301,0.691s0.637,0.596,0.855,0.943
		s0.375,0.721,0.469,1.119s0.141,0.805,0.141,1.219c0,0.797-0.145,1.508-0.434,2.133s-0.689,1.15-1.201,1.576
		s-1.115,0.75-1.811,0.973s-1.445,0.334-2.25,0.334c-0.742,0-1.449-0.102-2.121-0.305s-1.264-0.506-1.775-0.908
		s-0.92-0.902-1.225-1.5s-0.457-1.291-0.457-2.08h2.801c0,0.375,0.066,0.721,0.199,1.037s0.322,0.586,0.568,0.809
		s0.541,0.396,0.885,0.521s0.73,0.188,1.16,0.188c0.891,0,1.592-0.236,2.104-0.709s0.768-1.158,0.768-2.057
		c0-0.492-0.074-0.916-0.223-1.271s-0.361-0.648-0.639-0.879s-0.611-0.4-1.002-0.51s-0.832-0.164-1.324-0.164h-1.676V665.095z"/>
	<path d="M243.845,672.571c1.016,0,1.869-0.119,2.561-0.357s1.252-0.568,1.682-0.99s0.748-0.92,0.955-1.494s0.338-1.197,0.393-1.869
		c-0.172,0.195-0.369,0.377-0.592,0.545s-0.473,0.316-0.75,0.445s-0.582,0.23-0.914,0.305s-0.697,0.111-1.096,0.111
		c-0.836,0-1.562-0.158-2.18-0.475s-1.129-0.738-1.535-1.266s-0.709-1.135-0.908-1.822s-0.299-1.406-0.299-2.156
		c0-0.82,0.121-1.592,0.363-2.314s0.598-1.354,1.066-1.893s1.045-0.965,1.729-1.277s1.463-0.469,2.338-0.469
		c0.945,0,1.768,0.188,2.467,0.562s1.281,0.879,1.746,1.512s0.812,1.369,1.043,2.209s0.346,1.725,0.346,2.654v0.914
		c0,0.812-0.053,1.611-0.158,2.396s-0.285,1.531-0.539,2.238s-0.59,1.357-1.008,1.951s-0.938,1.107-1.559,1.541
		s-1.355,0.773-2.203,1.02s-1.826,0.369-2.936,0.369h-0.223v-2.391H243.845z M246.657,667.052c0.32,0,0.627-0.051,0.92-0.152
		s0.561-0.242,0.803-0.422s0.457-0.395,0.645-0.645s0.336-0.523,0.445-0.82v-0.926c0-0.688-0.076-1.295-0.229-1.822
		s-0.357-0.969-0.615-1.324s-0.557-0.623-0.896-0.803s-0.697-0.27-1.072-0.27c-0.438,0-0.824,0.094-1.16,0.281
		s-0.619,0.443-0.85,0.768s-0.406,0.705-0.527,1.143s-0.182,0.906-0.182,1.406c0,0.469,0.055,0.918,0.164,1.348
		s0.275,0.811,0.498,1.143s0.506,0.598,0.85,0.797S246.196,667.052,246.657,667.052z"/>
	<path d="M264.036,674.892c-0.078-0.156-0.143-0.34-0.193-0.551s-0.096-0.438-0.135-0.68c-0.195,0.203-0.416,0.393-0.662,0.568
		s-0.52,0.33-0.82,0.463s-0.625,0.238-0.973,0.316s-0.721,0.117-1.119,0.117c-0.672,0-1.279-0.096-1.822-0.287
		s-1.008-0.457-1.395-0.797s-0.686-0.74-0.896-1.201s-0.316-0.961-0.316-1.5c0-1.359,0.506-2.398,1.518-3.117
		s2.463-1.078,4.354-1.078h2.051v-0.832c0-0.672-0.227-1.205-0.68-1.6s-1.094-0.592-1.922-0.592c-0.375,0-0.703,0.045-0.984,0.135
		s-0.516,0.213-0.703,0.369s-0.328,0.34-0.422,0.551s-0.141,0.438-0.141,0.68h-2.801c0-0.492,0.115-0.971,0.346-1.436
		s0.568-0.879,1.014-1.242s0.99-0.654,1.635-0.873s1.381-0.328,2.209-0.328c0.75,0,1.445,0.092,2.086,0.275s1.195,0.457,1.664,0.82
		s0.836,0.816,1.102,1.359s0.398,1.178,0.398,1.904v5.648c0,0.555,0.041,1.061,0.123,1.518s0.201,0.854,0.357,1.189v0.199H264.036z
		 M260.661,672.864c0.359,0,0.697-0.045,1.014-0.135s0.602-0.207,0.855-0.352s0.473-0.311,0.656-0.498s0.33-0.379,0.439-0.574
		v-2.379h-1.781c-1.141,0-1.982,0.184-2.525,0.551s-0.814,0.891-0.814,1.57c0,0.258,0.043,0.498,0.129,0.721
		s0.217,0.414,0.393,0.574s0.398,0.287,0.668,0.381S260.286,672.864,260.661,672.864z"/>
	<path d="M280.993,662.329c0,0.836-0.215,1.58-0.645,2.232s-1.016,1.166-1.758,1.541c0.422,0.195,0.803,0.434,1.143,0.715
		s0.631,0.598,0.873,0.949s0.428,0.736,0.557,1.154s0.193,0.861,0.193,1.33c0,0.789-0.145,1.488-0.434,2.098
		s-0.684,1.119-1.184,1.529s-1.088,0.721-1.764,0.932s-1.4,0.316-2.174,0.316c-0.789,0-1.525-0.105-2.209-0.316
		s-1.275-0.521-1.775-0.932s-0.893-0.92-1.178-1.529s-0.428-1.309-0.428-2.098c0-0.469,0.064-0.914,0.193-1.336
		s0.312-0.809,0.551-1.16s0.527-0.668,0.867-0.949s0.721-0.516,1.143-0.703c-0.734-0.375-1.312-0.889-1.734-1.541
		s-0.633-1.396-0.633-2.232c0-0.758,0.129-1.432,0.387-2.021s0.615-1.086,1.072-1.488s1.002-0.707,1.635-0.914
		s1.324-0.311,2.074-0.311s1.443,0.104,2.08,0.311s1.189,0.512,1.658,0.914s0.834,0.898,1.096,1.488
		S280.993,661.571,280.993,662.329z M278.556,670.11c0-0.43-0.066-0.82-0.199-1.172s-0.32-0.652-0.562-0.902
		s-0.533-0.443-0.873-0.58s-0.721-0.205-1.143-0.205s-0.803,0.068-1.143,0.205s-0.629,0.33-0.867,0.58s-0.422,0.551-0.551,0.902
		s-0.193,0.742-0.193,1.172c0,0.875,0.246,1.557,0.738,2.045s1.172,0.732,2.039,0.732c0.406,0,0.779-0.062,1.119-0.188
		s0.631-0.309,0.873-0.551s0.43-0.533,0.562-0.873S278.556,670.548,278.556,670.11z M278.192,662.423
		c0-0.375-0.059-0.721-0.176-1.037s-0.281-0.588-0.492-0.814s-0.467-0.402-0.768-0.527s-0.631-0.188-0.99-0.188
		c-0.367,0-0.697,0.059-0.99,0.176s-0.541,0.287-0.744,0.51s-0.359,0.492-0.469,0.809s-0.164,0.674-0.164,1.072
		c0,0.391,0.057,0.744,0.17,1.061s0.273,0.586,0.48,0.809s0.459,0.396,0.756,0.521s0.629,0.188,0.996,0.188
		c0.359,0,0.688-0.062,0.984-0.188s0.549-0.299,0.756-0.521s0.367-0.492,0.48-0.809S278.192,662.813,278.192,662.423z"/>
	<path d="M290.661,675.126c-0.938,0-1.793-0.156-2.566-0.469s-1.436-0.742-1.986-1.289s-0.979-1.193-1.283-1.939
		s-0.457-1.553-0.457-2.42v-0.48c0-1.008,0.162-1.914,0.486-2.719s0.758-1.492,1.301-2.062s1.176-1.008,1.898-1.312
		s1.482-0.457,2.279-0.457c0.922,0,1.734,0.154,2.438,0.463s1.291,0.742,1.764,1.301s0.83,1.221,1.072,1.986s0.363,1.605,0.363,2.52
		v1.184h-8.789c0.047,0.492,0.168,0.949,0.363,1.371s0.451,0.787,0.768,1.096s0.688,0.551,1.113,0.727s0.893,0.264,1.4,0.264
		c0.711,0,1.365-0.141,1.963-0.422s1.084-0.668,1.459-1.16l1.523,1.43c-0.203,0.305-0.465,0.6-0.785,0.885s-0.695,0.539-1.125,0.762
		s-0.912,0.402-1.447,0.539S291.294,675.126,290.661,675.126z M290.321,664.239c-0.391,0-0.754,0.07-1.09,0.211
		s-0.637,0.346-0.902,0.615s-0.49,0.598-0.674,0.984s-0.314,0.826-0.393,1.318h5.941v-0.211c-0.023-0.375-0.096-0.736-0.217-1.084
		s-0.299-0.658-0.533-0.932s-0.529-0.492-0.885-0.656S290.798,664.239,290.321,664.239z"/>
	<path d="M307.501,657.759v2.391h-0.188c-0.961,0-1.787,0.135-2.479,0.404s-1.266,0.635-1.723,1.096s-0.805,0.998-1.043,1.611
		s-0.389,1.268-0.451,1.963c0.188-0.211,0.402-0.412,0.645-0.604s0.512-0.363,0.809-0.516s0.617-0.273,0.961-0.363
		s0.711-0.135,1.102-0.135c0.836,0,1.561,0.16,2.174,0.48s1.119,0.744,1.518,1.271s0.695,1.133,0.891,1.816s0.293,1.393,0.293,2.127
		c0,0.82-0.123,1.584-0.369,2.291s-0.604,1.322-1.072,1.846s-1.047,0.936-1.734,1.236s-1.469,0.451-2.344,0.451
		c-0.93,0-1.75-0.184-2.461-0.551s-1.307-0.857-1.787-1.471s-0.846-1.322-1.096-2.127s-0.375-1.648-0.375-2.531v-1.09
		c0-0.836,0.062-1.654,0.188-2.455s0.326-1.557,0.604-2.268s0.637-1.365,1.078-1.963s0.973-1.111,1.594-1.541
		s1.342-0.766,2.162-1.008s1.75-0.363,2.789-0.363H307.501z M304.466,665.868c-0.32,0-0.629,0.049-0.926,0.146
		s-0.57,0.234-0.82,0.41s-0.473,0.389-0.668,0.639s-0.352,0.523-0.469,0.82v0.797c0,0.695,0.076,1.303,0.229,1.822
		s0.361,0.955,0.627,1.307s0.57,0.615,0.914,0.791s0.711,0.264,1.102,0.264c0.438,0,0.828-0.086,1.172-0.258
		s0.635-0.412,0.873-0.721s0.42-0.676,0.545-1.102s0.188-0.893,0.188-1.4c0-0.477-0.059-0.928-0.176-1.354s-0.293-0.799-0.527-1.119
		s-0.523-0.574-0.867-0.762S304.919,665.868,304.466,665.868z"/>
	<path d="M324.2,662.329c0,0.836-0.215,1.58-0.645,2.232s-1.016,1.166-1.758,1.541c0.422,0.195,0.803,0.434,1.143,0.715
		s0.631,0.598,0.873,0.949s0.428,0.736,0.557,1.154s0.193,0.861,0.193,1.33c0,0.789-0.145,1.488-0.434,2.098
		s-0.684,1.119-1.184,1.529s-1.088,0.721-1.764,0.932s-1.4,0.316-2.174,0.316c-0.789,0-1.525-0.105-2.209-0.316
		s-1.275-0.521-1.775-0.932s-0.893-0.92-1.178-1.529s-0.428-1.309-0.428-2.098c0-0.469,0.064-0.914,0.193-1.336
		s0.312-0.809,0.551-1.16s0.527-0.668,0.867-0.949s0.721-0.516,1.143-0.703c-0.734-0.375-1.312-0.889-1.734-1.541
		s-0.633-1.396-0.633-2.232c0-0.758,0.129-1.432,0.387-2.021s0.615-1.086,1.072-1.488s1.002-0.707,1.635-0.914
		s1.324-0.311,2.074-0.311s1.443,0.104,2.08,0.311s1.189,0.512,1.658,0.914s0.834,0.898,1.096,1.488S324.2,661.571,324.2,662.329z
		 M321.763,670.11c0-0.43-0.066-0.82-0.199-1.172s-0.32-0.652-0.562-0.902s-0.533-0.443-0.873-0.58s-0.721-0.205-1.143-0.205
		s-0.803,0.068-1.143,0.205s-0.629,0.33-0.867,0.58s-0.422,0.551-0.551,0.902s-0.193,0.742-0.193,1.172
		c0,0.875,0.246,1.557,0.738,2.045s1.172,0.732,2.039,0.732c0.406,0,0.779-0.062,1.119-0.188s0.631-0.309,0.873-0.551
		s0.43-0.533,0.562-0.873S321.763,670.548,321.763,670.11z M321.399,662.423c0-0.375-0.059-0.721-0.176-1.037
		s-0.281-0.588-0.492-0.814s-0.467-0.402-0.768-0.527s-0.631-0.188-0.99-0.188c-0.367,0-0.697,0.059-0.99,0.176
		s-0.541,0.287-0.744,0.51s-0.359,0.492-0.469,0.809s-0.164,0.674-0.164,1.072c0,0.391,0.057,0.744,0.17,1.061
		s0.273,0.586,0.48,0.809s0.459,0.396,0.756,0.521s0.629,0.188,0.996,0.188c0.359,0,0.688-0.062,0.984-0.188
		s0.549-0.299,0.756-0.521s0.367-0.492,0.48-0.809S321.399,662.813,321.399,662.423z"/>
	<path d="M331.466,673.216c0-0.273,0.045-0.531,0.135-0.773s0.221-0.451,0.393-0.627s0.385-0.314,0.639-0.416
		s0.545-0.152,0.873-0.152s0.619,0.051,0.873,0.152s0.469,0.24,0.645,0.416s0.309,0.385,0.398,0.627s0.135,0.5,0.135,0.773
		s-0.045,0.525-0.135,0.756s-0.223,0.432-0.398,0.604s-0.391,0.307-0.645,0.404s-0.545,0.146-0.873,0.146s-0.619-0.049-0.873-0.146
		s-0.467-0.232-0.639-0.404s-0.303-0.373-0.393-0.604S331.466,673.489,331.466,673.216z"/>
	<path d="M345.868,673.216c0-0.273,0.045-0.531,0.135-0.773s0.221-0.451,0.393-0.627s0.385-0.314,0.639-0.416
		s0.545-0.152,0.873-0.152s0.619,0.051,0.873,0.152s0.469,0.24,0.645,0.416s0.309,0.385,0.398,0.627s0.135,0.5,0.135,0.773
		s-0.045,0.525-0.135,0.756s-0.223,0.432-0.398,0.604s-0.391,0.307-0.645,0.404s-0.545,0.146-0.873,0.146s-0.619-0.049-0.873-0.146
		s-0.467-0.232-0.639-0.404s-0.303-0.373-0.393-0.604S345.868,673.489,345.868,673.216z"/>
	<path d="M360.271,673.216c0-0.273,0.045-0.531,0.135-0.773s0.221-0.451,0.393-0.627s0.385-0.314,0.639-0.416
		s0.545-0.152,0.873-0.152s0.619,0.051,0.873,0.152s0.469,0.24,0.645,0.416s0.309,0.385,0.398,0.627s0.135,0.5,0.135,0.773
		s-0.045,0.525-0.135,0.756s-0.223,0.432-0.398,0.604s-0.391,0.307-0.645,0.404s-0.545,0.146-0.873,0.146s-0.619-0.049-0.873-0.146
		s-0.467-0.232-0.639-0.404s-0.303-0.373-0.393-0.604S360.271,673.489,360.271,673.216z"/>
	<path d="M380.403,668.833h2.145v2.262h-2.145v3.797h-2.801v-3.797h-7.406l-0.07-1.699l7.383-11.566h2.895V668.833z
		 M373.009,668.833h4.594v-7.266l-0.305,0.551L373.009,668.833z"/>
	<path d="M396.212,662.329c0,0.836-0.215,1.58-0.645,2.232s-1.016,1.166-1.758,1.541c0.422,0.195,0.803,0.434,1.143,0.715
		s0.631,0.598,0.873,0.949s0.428,0.736,0.557,1.154s0.193,0.861,0.193,1.33c0,0.789-0.145,1.488-0.434,2.098
		s-0.684,1.119-1.184,1.529s-1.088,0.721-1.764,0.932s-1.4,0.316-2.174,0.316c-0.789,0-1.525-0.105-2.209-0.316
		s-1.275-0.521-1.775-0.932s-0.893-0.92-1.178-1.529s-0.428-1.309-0.428-2.098c0-0.469,0.064-0.914,0.193-1.336
		s0.312-0.809,0.551-1.16s0.527-0.668,0.867-0.949s0.721-0.516,1.143-0.703c-0.734-0.375-1.312-0.889-1.734-1.541
		s-0.633-1.396-0.633-2.232c0-0.758,0.129-1.432,0.387-2.021s0.615-1.086,1.072-1.488s1.002-0.707,1.635-0.914
		s1.324-0.311,2.074-0.311s1.443,0.104,2.08,0.311s1.189,0.512,1.658,0.914s0.834,0.898,1.096,1.488
		S396.212,661.571,396.212,662.329z M393.774,670.11c0-0.43-0.066-0.82-0.199-1.172s-0.32-0.652-0.562-0.902
		s-0.533-0.443-0.873-0.58s-0.721-0.205-1.143-0.205s-0.803,0.068-1.143,0.205s-0.629,0.33-0.867,0.58s-0.422,0.551-0.551,0.902
		s-0.193,0.742-0.193,1.172c0,0.875,0.246,1.557,0.738,2.045s1.172,0.732,2.039,0.732c0.406,0,0.779-0.062,1.119-0.188
		s0.631-0.309,0.873-0.551s0.43-0.533,0.562-0.873S393.774,670.548,393.774,670.11z M393.411,662.423
		c0-0.375-0.059-0.721-0.176-1.037s-0.281-0.588-0.492-0.814s-0.467-0.402-0.768-0.527s-0.631-0.188-0.99-0.188
		c-0.367,0-0.697,0.059-0.99,0.176s-0.541,0.287-0.744,0.51s-0.359,0.492-0.469,0.809s-0.164,0.674-0.164,1.072
		c0,0.391,0.057,0.744,0.17,1.061s0.273,0.586,0.48,0.809s0.459,0.396,0.756,0.521s0.629,0.188,0.996,0.188
		c0.359,0,0.688-0.062,0.984-0.188s0.549-0.299,0.756-0.521s0.367-0.492,0.48-0.809S393.411,662.813,393.411,662.423z"/>
</g>
<g>
	<rect x="209.903" y="440.404" fill="none" width="600.097" height="44.404"/>
	<path d="M213.041,448.709c0-0.838,0.065-1.625,0.198-2.363c0.131-0.738,0.309-1.423,0.531-2.053s0.479-1.205,0.77-1.727
		c0.289-0.521,0.594-0.984,0.914-1.389c0.318-0.404,0.64-0.75,0.962-1.037s0.63-0.514,0.923-0.678l0.343,1.072
		c-0.363,0.275-0.726,0.65-1.085,1.125c-0.361,0.475-0.684,1.051-0.967,1.728c-0.285,0.677-0.517,1.456-0.695,2.338
		s-0.268,1.87-0.268,2.966v0.123c0,1.096,0.089,2.086,0.268,2.971s0.41,1.668,0.695,2.348c0.283,0.68,0.605,1.261,0.967,1.744
		c0.359,0.483,0.722,0.871,1.085,1.164l-0.343,0.994c-0.293-0.164-0.602-0.389-0.928-0.673c-0.324-0.284-0.647-0.63-0.967-1.037
		s-0.623-0.87-0.914-1.389c-0.289-0.519-0.545-1.093-0.764-1.723c-0.221-0.63-0.396-1.313-0.527-2.052
		c-0.133-0.738-0.198-1.527-0.198-2.365V448.709z"/>
	<path d="M230.109,444.447c-0.006,0.639-0.179,1.207-0.519,1.705s-0.794,0.887-1.362,1.168c0.328,0.141,0.625,0.315,0.893,0.523
		c0.266,0.208,0.494,0.447,0.686,0.717c0.189,0.27,0.336,0.562,0.439,0.879c0.102,0.316,0.153,0.652,0.153,1.01
		c0,0.58-0.107,1.096-0.321,1.547s-0.504,0.831-0.869,1.139c-0.367,0.308-0.796,0.542-1.288,0.703s-1.02,0.242-1.582,0.242
		c-0.574,0-1.109-0.08-1.604-0.238s-0.926-0.391-1.291-0.698c-0.367-0.308-0.655-0.687-0.866-1.138s-0.316-0.971-0.316-1.557
		c0-0.357,0.05-0.695,0.149-1.015s0.243-0.612,0.431-0.879s0.413-0.505,0.677-0.716s0.56-0.387,0.888-0.527
		c-0.281-0.141-0.536-0.31-0.765-0.506s-0.422-0.416-0.58-0.659s-0.281-0.509-0.369-0.796s-0.132-0.588-0.132-0.904
		c0-0.557,0.094-1.054,0.281-1.49s0.446-0.805,0.778-1.104c0.33-0.299,0.726-0.527,1.186-0.686s0.963-0.236,1.508-0.236
		c0.539,0,1.04,0.078,1.503,0.236s0.864,0.387,1.204,0.686s0.606,0.667,0.8,1.104S230.109,443.891,230.109,444.447z
		 M228.773,450.414c0-0.357-0.061-0.686-0.18-0.984c-0.121-0.299-0.289-0.555-0.506-0.769s-0.477-0.38-0.777-0.497
		c-0.303-0.117-0.632-0.176-0.989-0.176c-0.369,0-0.703,0.059-1.002,0.176s-0.554,0.283-0.765,0.497s-0.373,0.47-0.488,0.769
		c-0.113,0.299-0.171,0.627-0.171,0.984c0,0.369,0.058,0.699,0.171,0.989c0.115,0.29,0.277,0.534,0.488,0.733
		s0.467,0.352,0.77,0.457c0.301,0.105,0.64,0.158,1.015,0.158c0.357,0,0.686-0.053,0.984-0.158s0.555-0.258,0.769-0.457
		s0.381-0.443,0.502-0.733C228.713,451.113,228.773,450.783,228.773,450.414z M228.475,444.473c0-0.322-0.055-0.617-0.162-0.887
		c-0.109-0.27-0.259-0.503-0.449-0.699s-0.417-0.349-0.681-0.457s-0.554-0.162-0.87-0.162s-0.604,0.051-0.861,0.153
		s-0.48,0.251-0.668,0.444s-0.333,0.426-0.436,0.698s-0.153,0.575-0.153,0.909s0.051,0.635,0.153,0.901s0.249,0.495,0.439,0.686
		s0.416,0.337,0.678,0.439c0.26,0.103,0.549,0.153,0.865,0.153c0.311,0,0.598-0.051,0.861-0.153s0.49-0.249,0.682-0.439
		c0.189-0.19,0.338-0.421,0.443-0.69S228.475,444.801,228.475,444.473z"/>
	<path d="M247.767,447.918l2.54-3.523h1.907l-3.542,4.701l3.639,4.809h-1.881l-2.628-3.621l-2.628,3.621h-1.898l3.639-4.809
		l-3.542-4.701h1.881L247.767,447.918z"/>
	<path d="M267.05,448.709c0-0.838,0.065-1.625,0.198-2.363c0.131-0.738,0.309-1.423,0.531-2.053s0.479-1.205,0.77-1.727
		c0.289-0.521,0.594-0.984,0.914-1.389c0.318-0.404,0.64-0.75,0.962-1.037s0.63-0.514,0.923-0.678l0.343,1.072
		c-0.363,0.275-0.726,0.65-1.085,1.125c-0.361,0.475-0.684,1.051-0.967,1.728c-0.285,0.677-0.517,1.456-0.695,2.338
		s-0.268,1.87-0.268,2.966v0.123c0,1.096,0.089,2.086,0.268,2.971s0.41,1.668,0.695,2.348c0.283,0.68,0.605,1.261,0.967,1.744
		c0.359,0.483,0.722,0.871,1.085,1.164l-0.343,0.994c-0.293-0.164-0.602-0.389-0.928-0.673c-0.324-0.284-0.647-0.63-0.967-1.037
		s-0.623-0.87-0.914-1.389c-0.289-0.519-0.545-1.093-0.764-1.723c-0.221-0.63-0.396-1.313-0.527-2.052
		c-0.133-0.738-0.198-1.527-0.198-2.365V448.709z"/>
	<path d="M284.092,453.904h-8.385v-1.17l4.192-4.658c0.375-0.416,0.688-0.785,0.94-1.107s0.454-0.619,0.606-0.892
		s0.261-0.53,0.325-0.773s0.097-0.493,0.097-0.751c0-0.316-0.052-0.614-0.154-0.893s-0.252-0.52-0.447-0.725
		c-0.197-0.205-0.435-0.368-0.713-0.488s-0.593-0.18-0.944-0.18c-0.428,0-0.799,0.061-1.112,0.184s-0.574,0.298-0.781,0.523
		c-0.209,0.226-0.364,0.5-0.467,0.822s-0.153,0.682-0.153,1.08h-1.635c0-0.539,0.094-1.047,0.281-1.524s0.458-0.896,0.813-1.253
		c0.354-0.357,0.787-0.641,1.301-0.852c0.512-0.211,1.097-0.316,1.753-0.316c0.604,0,1.147,0.089,1.63,0.268
		c0.484,0.179,0.893,0.426,1.227,0.742s0.59,0.691,0.77,1.125c0.178,0.434,0.268,0.906,0.268,1.416c0,0.381-0.064,0.757-0.193,1.129
		s-0.303,0.74-0.523,1.104c-0.219,0.363-0.475,0.722-0.764,1.076c-0.291,0.354-0.597,0.707-0.919,1.059l-3.437,3.727h6.425V453.904z
		"/>
	<path d="M288.794,452.463c0.58,0,1.09-0.052,1.529-0.154s0.821-0.248,1.147-0.436c0.324-0.188,0.596-0.408,0.812-0.663
		s0.394-0.536,0.531-0.844s0.239-0.633,0.304-0.976s0.105-0.693,0.123-1.051c-0.141,0.176-0.302,0.342-0.483,0.497
		s-0.387,0.292-0.615,0.409s-0.482,0.209-0.76,0.276c-0.279,0.067-0.582,0.101-0.91,0.101c-0.633,0-1.18-0.124-1.639-0.373
		c-0.461-0.249-0.84-0.576-1.139-0.98s-0.519-0.861-0.659-1.371s-0.211-1.021-0.211-1.537c0-0.604,0.083-1.174,0.251-1.71
		c0.166-0.536,0.415-1.005,0.746-1.406s0.744-0.721,1.24-0.958c0.494-0.237,1.07-0.355,1.727-0.355c0.492,0,0.936,0.068,1.332,0.206
		c0.395,0.138,0.743,0.328,1.045,0.571s0.562,0.53,0.778,0.861s0.394,0.688,0.532,1.072c0.137,0.384,0.238,0.785,0.303,1.204
		s0.097,0.839,0.097,1.261v0.59c0,0.545-0.026,1.103-0.079,1.674s-0.157,1.123-0.312,1.656s-0.373,1.036-0.654,1.508
		s-0.647,0.883-1.099,1.234s-0.999,0.631-1.644,0.836s-1.409,0.307-2.294,0.307h-0.167v-1.449H288.794z M290.736,448.279
		c0.275,0,0.543-0.046,0.805-0.137c0.26-0.091,0.5-0.22,0.721-0.387c0.219-0.167,0.415-0.363,0.588-0.589s0.31-0.476,0.409-0.751
		v-0.527c0-0.568-0.065-1.076-0.198-1.521c-0.131-0.445-0.311-0.821-0.535-1.129c-0.227-0.308-0.487-0.543-0.783-0.707
		s-0.61-0.246-0.944-0.246c-0.381,0-0.718,0.076-1.011,0.229s-0.541,0.361-0.742,0.628c-0.203,0.267-0.356,0.583-0.462,0.949
		s-0.158,0.761-0.158,1.183c0,0.375,0.047,0.742,0.141,1.103s0.235,0.681,0.427,0.962c0.189,0.281,0.43,0.509,0.721,0.682
		C290.002,448.192,290.344,448.279,290.736,448.279z"/>
	<path d="M315.759,448.973h-6.724v-1.336h6.724V448.973z"/>
	<path d="M332.159,446.723h1.16c0.41,0,0.771-0.055,1.086-0.166c0.312-0.111,0.576-0.264,0.791-0.457
		c0.213-0.193,0.376-0.426,0.487-0.695s0.167-0.564,0.167-0.887c0-0.744-0.19-1.306-0.571-1.684s-0.938-0.566-1.67-0.566
		c-0.346,0-0.661,0.051-0.944,0.153c-0.285,0.103-0.527,0.251-0.73,0.444c-0.201,0.193-0.358,0.424-0.47,0.693
		s-0.167,0.572-0.167,0.906h-1.635c0-0.486,0.095-0.945,0.285-1.376s0.459-0.806,0.805-1.125s0.76-0.571,1.244-0.756
		c0.482-0.185,1.021-0.276,1.612-0.276c0.574,0,1.099,0.077,1.573,0.232s0.882,0.385,1.222,0.689s0.604,0.684,0.791,1.135
		s0.281,0.973,0.281,1.564c0,0.246-0.038,0.5-0.114,0.764s-0.193,0.521-0.352,0.77s-0.362,0.483-0.611,0.703
		s-0.546,0.402-0.892,0.549c0.416,0.135,0.763,0.311,1.042,0.527c0.277,0.217,0.5,0.461,0.668,0.73
		c0.166,0.27,0.283,0.553,0.352,0.852c0.066,0.299,0.101,0.596,0.101,0.889c0,0.598-0.103,1.127-0.308,1.59
		s-0.489,0.854-0.853,1.174s-0.793,0.562-1.288,0.729s-1.029,0.251-1.604,0.251c-0.562,0-1.092-0.08-1.586-0.238
		c-0.496-0.158-0.925-0.389-1.288-0.693s-0.652-0.678-0.866-1.117s-0.32-0.939-0.32-1.502h1.626c0,0.334,0.058,0.639,0.171,0.914
		c0.115,0.275,0.277,0.51,0.488,0.703s0.467,0.342,0.77,0.447c0.301,0.105,0.637,0.158,1.006,0.158s0.703-0.048,1.002-0.145
		s0.554-0.244,0.765-0.443s0.374-0.447,0.487-0.743c0.115-0.296,0.172-0.646,0.172-1.05c0-0.398-0.066-0.743-0.197-1.033
		c-0.133-0.29-0.316-0.531-0.555-0.725c-0.236-0.193-0.524-0.338-0.861-0.432s-0.707-0.141-1.111-0.141h-1.16V446.723z"/>
	<path d="M346.995,448.797c0,0.838-0.065,1.627-0.198,2.365c-0.131,0.738-0.309,1.422-0.531,2.052s-0.479,1.204-0.77,1.723
		c-0.289,0.519-0.595,0.981-0.914,1.389s-0.641,0.753-0.967,1.037c-0.324,0.284-0.634,0.509-0.927,0.673l-0.343-0.994
		c0.363-0.27,0.725-0.646,1.086-1.129c0.359-0.483,0.682-1.068,0.967-1.754c0.283-0.686,0.515-1.473,0.693-2.363
		s0.269-1.885,0.269-2.98v-0.123c0-1.096-0.094-2.09-0.281-2.983s-0.43-1.685-0.726-2.373s-0.621-1.272-0.975-1.753
		c-0.355-0.48-0.699-0.855-1.033-1.125l0.343-0.994c0.293,0.164,0.603,0.391,0.927,0.678c0.326,0.287,0.647,0.633,0.967,1.037
		s0.625,0.867,0.914,1.389c0.291,0.521,0.547,1.097,0.77,1.727s0.4,1.314,0.531,2.053c0.133,0.738,0.198,1.525,0.198,2.363V448.797z
		"/>
	<path d="M357.797,448.797c0,0.838-0.065,1.627-0.198,2.365c-0.131,0.738-0.309,1.422-0.531,2.052s-0.479,1.204-0.77,1.723
		c-0.289,0.519-0.595,0.981-0.914,1.389s-0.641,0.753-0.967,1.037c-0.324,0.284-0.634,0.509-0.927,0.673l-0.343-0.994
		c0.363-0.27,0.725-0.646,1.086-1.129c0.359-0.483,0.682-1.068,0.967-1.754c0.283-0.686,0.515-1.473,0.693-2.363
		s0.269-1.885,0.269-2.98v-0.123c0-1.096-0.094-2.09-0.281-2.983s-0.43-1.685-0.726-2.373s-0.621-1.272-0.975-1.753
		c-0.355-0.48-0.699-0.855-1.033-1.125l0.343-0.994c0.293,0.164,0.603,0.391,0.927,0.678c0.326,0.287,0.647,0.633,0.967,1.037
		s0.625,0.867,0.914,1.389c0.291,0.521,0.547,1.097,0.77,1.727s0.4,1.314,0.531,2.053c0.133,0.738,0.198,1.525,0.198,2.363V448.797z
		"/>
</g>
<g>
	<rect x="66.903" y="396" fill="none" width="600.097" height="44.404"/>
	<path d="M74.345,412.477c0.391,0,0.771-0.062,1.143-0.188s0.701-0.299,0.99-0.521s0.521-0.484,0.697-0.785s0.268-0.627,0.275-0.979
		h2.051c-0.008,0.562-0.154,1.1-0.439,1.611s-0.666,0.961-1.143,1.348s-1.023,0.695-1.641,0.926s-1.262,0.346-1.934,0.346
		c-0.961,0-1.801-0.172-2.52-0.516s-1.318-0.807-1.799-1.389s-0.842-1.254-1.084-2.016s-0.363-1.564-0.363-2.408v-0.492
		c0-0.836,0.121-1.637,0.363-2.402s0.604-1.439,1.084-2.021s1.08-1.045,1.799-1.389s1.559-0.516,2.52-0.516
		c0.75,0,1.439,0.119,2.068,0.357s1.172,0.562,1.629,0.973s0.814,0.896,1.072,1.459s0.387,1.164,0.387,1.805H77.45
		c-0.008-0.383-0.092-0.744-0.252-1.084s-0.377-0.639-0.65-0.896s-0.6-0.461-0.979-0.609s-0.787-0.223-1.225-0.223
		c-0.672,0-1.236,0.135-1.693,0.404s-0.826,0.621-1.107,1.055s-0.482,0.92-0.604,1.459s-0.182,1.082-0.182,1.629v0.492
		c0,0.555,0.061,1.104,0.182,1.646s0.32,1.031,0.598,1.465s0.645,0.785,1.102,1.055S73.665,412.477,74.345,412.477z"/>
	<path d="M82.735,407.543c0-0.914,0.133-1.764,0.398-2.549s0.646-1.467,1.143-2.045s1.1-1.033,1.811-1.365s1.512-0.498,2.402-0.498
		c0.898,0,1.705,0.166,2.42,0.498s1.32,0.787,1.816,1.365s0.877,1.26,1.143,2.045s0.398,1.635,0.398,2.549v0.258
		c0,0.914-0.133,1.762-0.398,2.543s-0.646,1.461-1.143,2.039s-1.1,1.031-1.811,1.359s-1.512,0.492-2.402,0.492
		c-0.898,0-1.705-0.164-2.42-0.492s-1.32-0.781-1.816-1.359s-0.877-1.258-1.143-2.039s-0.398-1.629-0.398-2.543V407.543z
		 M84.903,407.801c0,0.625,0.074,1.221,0.223,1.787s0.373,1.064,0.674,1.494s0.678,0.77,1.131,1.02s0.98,0.375,1.582,0.375
		c0.594,0,1.115-0.125,1.564-0.375s0.824-0.59,1.125-1.02s0.525-0.928,0.674-1.494s0.223-1.162,0.223-1.787v-0.258
		c0-0.617-0.076-1.209-0.229-1.775s-0.379-1.064-0.68-1.494s-0.676-0.771-1.125-1.025s-0.975-0.381-1.576-0.381
		s-1.125,0.127-1.57,0.381s-0.818,0.596-1.119,1.025s-0.525,0.928-0.674,1.494s-0.223,1.158-0.223,1.775V407.801z"/>
	<path d="M103.349,414.234c-0.891,0-1.709-0.152-2.455-0.457s-1.385-0.73-1.916-1.277s-0.945-1.195-1.242-1.945
		s-0.445-1.566-0.445-2.449v-0.492c0-1.023,0.164-1.939,0.492-2.748s0.764-1.492,1.307-2.051s1.16-0.986,1.852-1.283
		s1.4-0.445,2.127-0.445c0.914,0,1.713,0.158,2.396,0.475s1.252,0.754,1.705,1.312s0.791,1.217,1.014,1.975s0.334,1.578,0.334,2.461
		v0.973h-9.059c0.023,0.578,0.135,1.121,0.334,1.629s0.473,0.951,0.82,1.33s0.764,0.678,1.248,0.896s1.02,0.328,1.605,0.328
		c0.773,0,1.461-0.156,2.062-0.469s1.102-0.727,1.5-1.242l1.324,1.031c-0.211,0.32-0.475,0.627-0.791,0.92s-0.682,0.553-1.096,0.779
		s-0.883,0.408-1.406,0.545S103.966,414.234,103.349,414.234z M103.067,402.867c-0.438,0-0.852,0.08-1.242,0.24
		s-0.742,0.395-1.055,0.703s-0.576,0.688-0.791,1.137s-0.365,0.967-0.451,1.553h6.82v-0.164c-0.023-0.422-0.104-0.84-0.24-1.254
		s-0.338-0.785-0.604-1.113s-0.6-0.594-1.002-0.797S103.622,402.867,103.067,402.867z"/>
	<path d="M115.384,414v-11.004h-3.492v-1.676h3.492v-0.891c0-0.812,0.119-1.525,0.357-2.139s0.574-1.127,1.008-1.541
		s0.955-0.727,1.564-0.938s1.289-0.316,2.039-0.316c0.516,0,1.018,0.043,1.506,0.129s0.99,0.195,1.506,0.328l-0.258,1.793
		c-0.32-0.109-0.693-0.205-1.119-0.287s-0.881-0.123-1.365-0.123c-1.016,0.008-1.779,0.266-2.291,0.773s-0.768,1.281-0.768,2.32
		v0.891h4.887v1.676h-4.887V414H115.384z"/>
	<path d="M129.798,414v-11.004h-3.492v-1.676h3.492v-0.891c0-0.812,0.119-1.525,0.357-2.139s0.574-1.127,1.008-1.541
		s0.955-0.727,1.564-0.938s1.289-0.316,2.039-0.316c0.516,0,1.018,0.043,1.506,0.129s0.99,0.195,1.506,0.328l-0.258,1.793
		c-0.32-0.109-0.693-0.205-1.119-0.287s-0.881-0.123-1.365-0.123c-1.016,0.008-1.779,0.266-2.291,0.773s-0.768,1.281-0.768,2.32
		v0.891h4.887v1.676h-4.887V414H129.798z"/>
	<path d="M141.317,401.32h6.48v10.805h4.137V414h-10.617v-1.875h4.312v-8.918h-4.312V401.32z M145.349,397.992
		c0-0.359,0.107-0.662,0.322-0.908s0.541-0.369,0.979-0.369c0.43,0,0.754,0.123,0.973,0.369s0.328,0.549,0.328,0.908
		c0,0.352-0.109,0.645-0.328,0.879s-0.543,0.352-0.973,0.352c-0.438,0-0.764-0.117-0.979-0.352S145.349,398.344,145.349,397.992z"/>
	<path d="M160.782,412.477c0.391,0,0.771-0.062,1.143-0.188s0.701-0.299,0.99-0.521s0.521-0.484,0.697-0.785
		s0.268-0.627,0.275-0.979h2.051c-0.008,0.562-0.154,1.1-0.439,1.611s-0.666,0.961-1.143,1.348s-1.023,0.695-1.641,0.926
		s-1.262,0.346-1.934,0.346c-0.961,0-1.801-0.172-2.52-0.516s-1.318-0.807-1.799-1.389s-0.842-1.254-1.084-2.016
		s-0.363-1.564-0.363-2.408v-0.492c0-0.836,0.121-1.637,0.363-2.402s0.604-1.439,1.084-2.021s1.08-1.045,1.799-1.389
		s1.559-0.516,2.52-0.516c0.75,0,1.439,0.119,2.068,0.357s1.172,0.562,1.629,0.973s0.814,0.896,1.072,1.459s0.387,1.164,0.387,1.805
		h-2.051c-0.008-0.383-0.092-0.744-0.252-1.084s-0.377-0.639-0.65-0.896s-0.6-0.461-0.979-0.609s-0.787-0.223-1.225-0.223
		c-0.672,0-1.236,0.135-1.693,0.404s-0.826,0.621-1.107,1.055s-0.482,0.92-0.604,1.459s-0.182,1.082-0.182,1.629v0.492
		c0,0.555,0.061,1.104,0.182,1.646s0.32,1.031,0.598,1.465s0.645,0.785,1.102,1.055S160.103,412.477,160.782,412.477z"/>
	<path d="M170.122,401.32h6.48v10.805h4.137V414h-10.617v-1.875h4.312v-8.918h-4.312V401.32z M174.153,397.992
		c0-0.359,0.107-0.662,0.322-0.908s0.541-0.369,0.979-0.369c0.43,0,0.754,0.123,0.973,0.369s0.328,0.549,0.328,0.908
		c0,0.352-0.109,0.645-0.328,0.879s-0.543,0.352-0.973,0.352c-0.438,0-0.764-0.117-0.979-0.352S174.153,398.344,174.153,397.992z"/>
	<path d="M189.786,414.234c-0.891,0-1.709-0.152-2.455-0.457s-1.385-0.73-1.916-1.277s-0.945-1.195-1.242-1.945
		s-0.445-1.566-0.445-2.449v-0.492c0-1.023,0.164-1.939,0.492-2.748s0.764-1.492,1.307-2.051s1.16-0.986,1.852-1.283
		s1.4-0.445,2.127-0.445c0.914,0,1.713,0.158,2.396,0.475s1.252,0.754,1.705,1.312s0.791,1.217,1.014,1.975s0.334,1.578,0.334,2.461
		v0.973h-9.059c0.023,0.578,0.135,1.121,0.334,1.629s0.473,0.951,0.82,1.33s0.764,0.678,1.248,0.896s1.02,0.328,1.605,0.328
		c0.773,0,1.461-0.156,2.062-0.469s1.102-0.727,1.5-1.242l1.324,1.031c-0.211,0.32-0.475,0.627-0.791,0.92s-0.682,0.553-1.096,0.779
		s-0.883,0.408-1.406,0.545S190.403,414.234,189.786,414.234z M189.505,402.867c-0.438,0-0.852,0.08-1.242,0.24
		s-0.742,0.395-1.055,0.703s-0.576,0.688-0.791,1.137s-0.365,0.967-0.451,1.553h6.82v-0.164c-0.023-0.422-0.104-0.84-0.24-1.254
		s-0.338-0.785-0.604-1.113s-0.6-0.594-1.002-0.797S190.06,402.867,189.505,402.867z"/>
	<path d="M200.532,401.32l0.152,1.875c0.461-0.656,1.027-1.17,1.699-1.541s1.422-0.561,2.25-0.568c0.664,0,1.268,0.094,1.811,0.281
		s1.006,0.48,1.389,0.879s0.678,0.904,0.885,1.518s0.311,1.342,0.311,2.186V414h-2.168v-8.004c0-0.562-0.062-1.039-0.188-1.43
		s-0.311-0.707-0.557-0.949s-0.547-0.418-0.902-0.527s-0.764-0.164-1.225-0.164c-0.727,0-1.365,0.182-1.916,0.545
		s-0.99,0.842-1.318,1.436V414h-2.168v-12.68H200.532z"/>
	<path d="M218.122,398.25v3.07h4.828v1.676h-4.828v6.891c0,0.492,0.062,0.898,0.188,1.219s0.297,0.576,0.516,0.768
		s0.471,0.326,0.756,0.404s0.588,0.117,0.908,0.117c0.234,0,0.477-0.014,0.727-0.041s0.494-0.061,0.732-0.1s0.461-0.08,0.668-0.123
		s0.377-0.08,0.51-0.111l0.305,1.535c-0.18,0.109-0.398,0.205-0.656,0.287s-0.539,0.152-0.844,0.211s-0.627,0.104-0.967,0.135
		s-0.678,0.047-1.014,0.047c-0.562,0-1.088-0.08-1.576-0.24s-0.912-0.414-1.271-0.762s-0.643-0.797-0.85-1.348
		s-0.311-1.217-0.311-1.998v-6.891h-3.328v-1.676h3.328v-3.07H218.122z"/>
	<path d="M247.032,406.02l3.387-4.699h2.543l-4.723,6.27l4.852,6.41h-2.508l-3.504-4.828L243.575,414h-2.531l4.852-6.41l-4.723-6.27
		h2.508L247.032,406.02z"/>
	<path d="M281.063,414h-11.18v-1.559l5.59-6.211c0.5-0.555,0.918-1.047,1.254-1.477s0.605-0.826,0.809-1.189
		s0.348-0.707,0.434-1.031s0.129-0.658,0.129-1.002c0-0.422-0.068-0.818-0.205-1.189s-0.336-0.693-0.598-0.967
		s-0.578-0.49-0.949-0.65s-0.791-0.24-1.26-0.24c-0.57,0-1.064,0.082-1.482,0.246s-0.766,0.396-1.043,0.697
		s-0.484,0.666-0.621,1.096s-0.205,0.91-0.205,1.441h-2.18c0-0.719,0.125-1.396,0.375-2.033s0.611-1.193,1.084-1.67
		s1.051-0.855,1.734-1.137s1.463-0.422,2.338-0.422c0.805,0,1.529,0.119,2.174,0.357s1.189,0.568,1.635,0.99s0.787,0.922,1.025,1.5
		s0.357,1.207,0.357,1.887c0,0.508-0.086,1.01-0.258,1.506s-0.404,0.986-0.697,1.471s-0.633,0.963-1.02,1.436
		s-0.795,0.943-1.225,1.412l-4.582,4.969h8.566V414z"/>
</g>
<g>
	<rect x="285.903" y="384" fill="none" width="600.097" height="44.404"/>
	<path d="M289.041,392.306c0-0.838,0.065-1.626,0.198-2.364c0.131-0.738,0.309-1.422,0.531-2.053
		c0.223-0.629,0.479-1.205,0.77-1.727c0.289-0.521,0.594-0.984,0.914-1.389c0.318-0.404,0.64-0.75,0.962-1.037
		s0.63-0.513,0.923-0.677l0.343,1.072c-0.363,0.275-0.726,0.65-1.085,1.125c-0.361,0.475-0.684,1.05-0.967,1.728
		c-0.285,0.676-0.517,1.455-0.695,2.338c-0.179,0.881-0.268,1.87-0.268,2.966v0.123c0,1.096,0.089,2.086,0.268,2.971
		s0.41,1.667,0.695,2.347c0.283,0.68,0.605,1.262,0.967,1.744c0.359,0.484,0.722,0.872,1.085,1.165l-0.343,0.993
		c-0.293-0.164-0.602-0.389-0.928-0.672c-0.324-0.285-0.647-0.631-0.967-1.037c-0.319-0.408-0.623-0.871-0.914-1.389
		c-0.289-0.52-0.545-1.094-0.764-1.723c-0.221-0.631-0.396-1.314-0.527-2.053c-0.133-0.738-0.198-1.526-0.198-2.364V392.306z"/>
	<path d="M306.109,388.043c-0.006,0.639-0.179,1.207-0.519,1.705s-0.794,0.888-1.362,1.169c0.328,0.141,0.625,0.315,0.893,0.522
		c0.266,0.209,0.494,0.447,0.686,0.717c0.189,0.27,0.336,0.562,0.439,0.879c0.102,0.316,0.153,0.653,0.153,1.011
		c0,0.58-0.107,1.096-0.321,1.547s-0.504,0.831-0.869,1.138c-0.367,0.309-0.796,0.543-1.288,0.703
		c-0.492,0.162-1.02,0.242-1.582,0.242c-0.574,0-1.109-0.079-1.604-0.237s-0.926-0.392-1.291-0.698
		c-0.367-0.309-0.655-0.688-0.866-1.139s-0.316-0.97-0.316-1.556c0-0.357,0.05-0.696,0.149-1.015c0.1-0.32,0.243-0.613,0.431-0.879
		c0.188-0.268,0.413-0.506,0.677-0.717s0.56-0.387,0.888-0.527c-0.281-0.141-0.536-0.309-0.765-0.506
		c-0.229-0.195-0.422-0.416-0.58-0.658c-0.158-0.244-0.281-0.509-0.369-0.796s-0.132-0.589-0.132-0.905
		c0-0.557,0.094-1.053,0.281-1.49c0.188-0.436,0.446-0.804,0.778-1.103c0.33-0.299,0.726-0.527,1.186-0.686s0.963-0.237,1.508-0.237
		c0.539,0,1.04,0.079,1.503,0.237s0.864,0.387,1.204,0.686s0.606,0.667,0.8,1.103C306.013,386.99,306.109,387.486,306.109,388.043z
		 M304.773,394.011c0-0.357-0.061-0.686-0.18-0.984c-0.121-0.299-0.289-0.556-0.506-0.769c-0.217-0.215-0.477-0.38-0.777-0.497
		c-0.303-0.117-0.632-0.176-0.989-0.176c-0.369,0-0.703,0.059-1.002,0.176s-0.554,0.282-0.765,0.497
		c-0.211,0.213-0.373,0.47-0.488,0.769c-0.113,0.299-0.171,0.627-0.171,0.984c0,0.369,0.058,0.698,0.171,0.989
		c0.115,0.289,0.277,0.534,0.488,0.733s0.467,0.352,0.77,0.457c0.301,0.105,0.64,0.158,1.015,0.158c0.357,0,0.686-0.053,0.984-0.158
		s0.555-0.258,0.769-0.457s0.381-0.444,0.502-0.733C304.713,394.709,304.773,394.38,304.773,394.011z M304.475,388.069
		c0-0.322-0.055-0.618-0.162-0.888c-0.109-0.27-0.259-0.502-0.449-0.699c-0.19-0.195-0.417-0.348-0.681-0.457
		c-0.264-0.107-0.554-0.162-0.87-0.162s-0.604,0.051-0.861,0.154c-0.258,0.102-0.48,0.25-0.668,0.443s-0.333,0.426-0.436,0.699
		c-0.103,0.271-0.153,0.575-0.153,0.909s0.051,0.634,0.153,0.901c0.103,0.266,0.249,0.494,0.439,0.686
		c0.19,0.189,0.416,0.336,0.678,0.439c0.26,0.102,0.549,0.153,0.865,0.153c0.311,0,0.598-0.052,0.861-0.153
		c0.264-0.104,0.49-0.25,0.682-0.439c0.189-0.191,0.338-0.421,0.443-0.69S304.475,388.397,304.475,388.069z"/>
	<path d="M323.767,391.515l2.54-3.524h1.907l-3.542,4.702l3.639,4.808h-1.881l-2.628-3.621l-2.628,3.621h-1.898l3.639-4.808
		l-3.542-4.702h1.881L323.767,391.515z"/>
	<path d="M343.05,392.306c0-0.838,0.065-1.626,0.198-2.364c0.131-0.738,0.309-1.422,0.531-2.053c0.223-0.629,0.479-1.205,0.77-1.727
		c0.289-0.521,0.594-0.984,0.914-1.389c0.318-0.404,0.64-0.75,0.962-1.037s0.63-0.513,0.923-0.677l0.343,1.072
		c-0.363,0.275-0.726,0.65-1.085,1.125c-0.361,0.475-0.684,1.05-0.967,1.728c-0.285,0.676-0.517,1.455-0.695,2.338
		c-0.179,0.881-0.268,1.87-0.268,2.966v0.123c0,1.096,0.089,2.086,0.268,2.971s0.41,1.667,0.695,2.347
		c0.283,0.68,0.605,1.262,0.967,1.744c0.359,0.484,0.722,0.872,1.085,1.165l-0.343,0.993c-0.293-0.164-0.602-0.389-0.928-0.672
		c-0.324-0.285-0.647-0.631-0.967-1.037c-0.319-0.408-0.623-0.871-0.914-1.389c-0.289-0.52-0.545-1.094-0.764-1.723
		c-0.221-0.631-0.396-1.314-0.527-2.053c-0.133-0.738-0.198-1.526-0.198-2.364V392.306z"/>
	<path d="M356.444,397.676c-0.668,0-1.282-0.114-1.842-0.343s-1.038-0.548-1.437-0.958s-0.709-0.896-0.932-1.459
		s-0.334-1.175-0.334-1.837v-0.369c0-0.768,0.123-1.454,0.369-2.062c0.246-0.605,0.572-1.119,0.979-1.537
		c0.407-0.42,0.871-0.74,1.389-0.963c0.52-0.223,1.051-0.334,1.596-0.334c0.686,0,1.284,0.119,1.797,0.355
		c0.513,0.238,0.939,0.566,1.279,0.984c0.34,0.42,0.594,0.913,0.76,1.481c0.168,0.568,0.251,1.184,0.251,1.846v0.729h-6.794
		c0.018,0.434,0.102,0.841,0.25,1.222c0.15,0.381,0.354,0.714,0.615,0.997c0.261,0.285,0.573,0.509,0.937,0.673
		s0.765,0.246,1.204,0.246c0.58,0,1.096-0.117,1.547-0.352s0.826-0.545,1.125-0.932l0.993,0.773c-0.158,0.24-0.356,0.47-0.593,0.69
		c-0.238,0.219-0.512,0.414-0.822,0.584s-0.662,0.307-1.055,0.408C357.335,397.625,356.907,397.676,356.444,397.676z
		 M356.233,389.15c-0.328,0-0.639,0.061-0.932,0.18c-0.293,0.121-0.557,0.297-0.791,0.527c-0.234,0.232-0.433,0.516-0.594,0.854
		c-0.161,0.336-0.273,0.725-0.338,1.164h5.115v-0.123c-0.018-0.316-0.078-0.63-0.18-0.94c-0.104-0.311-0.254-0.589-0.453-0.835
		s-0.45-0.445-0.752-0.598S356.649,389.15,356.233,389.15z"/>
	<path d="M366.974,391.515l2.54-3.524h1.907l-3.542,4.702l3.639,4.808h-1.881l-2.628-3.621l-2.628,3.621h-1.898l3.639-4.808
		l-3.542-4.702h1.881L366.974,391.515z"/>
	<path d="M381.871,392.851c0,0.68-0.082,1.313-0.246,1.903c-0.164,0.588-0.404,1.1-0.721,1.533s-0.708,0.773-1.173,1.02
		c-0.467,0.246-0.998,0.369-1.596,0.369c-0.58,0-1.092-0.094-1.533-0.281c-0.443-0.188-0.822-0.457-1.139-0.809v4.57h-1.626V387.99
		h1.485l0.079,1.037c0.316-0.393,0.698-0.693,1.147-0.9c0.447-0.209,0.968-0.312,1.56-0.312c0.609,0,1.148,0.12,1.617,0.36
		s0.861,0.574,1.178,1.002s0.557,0.938,0.721,1.534c0.164,0.594,0.246,1.246,0.246,1.955V392.851z M380.245,392.666
		c0-0.463-0.052-0.904-0.154-1.322c-0.103-0.42-0.261-0.789-0.475-1.107c-0.214-0.32-0.484-0.573-0.812-0.761
		s-0.721-0.281-1.178-0.281c-0.521,0-0.96,0.122-1.314,0.364c-0.354,0.244-0.637,0.556-0.848,0.937v4.579
		c0.211,0.375,0.492,0.682,0.844,0.918c0.352,0.238,0.797,0.356,1.336,0.356c0.451,0,0.841-0.095,1.169-0.286
		c0.328-0.189,0.598-0.446,0.809-0.769s0.367-0.694,0.47-1.116s0.154-0.864,0.154-1.327V392.666z"/>
	<path d="M384.191,392.657c0-0.686,0.1-1.323,0.299-1.911c0.199-0.59,0.484-1.101,0.857-1.534c0.371-0.434,0.824-0.774,1.357-1.024
		c0.533-0.248,1.134-0.373,1.802-0.373c0.674,0,1.278,0.125,1.815,0.373c0.535,0.25,0.989,0.591,1.361,1.024
		s0.658,0.944,0.857,1.534c0.199,0.588,0.299,1.226,0.299,1.911v0.193c0,0.686-0.1,1.321-0.299,1.907s-0.485,1.096-0.857,1.529
		s-0.824,0.773-1.357,1.02s-1.134,0.369-1.802,0.369c-0.674,0-1.278-0.123-1.815-0.369c-0.535-0.246-0.99-0.586-1.361-1.02
		c-0.373-0.434-0.658-0.943-0.857-1.529s-0.299-1.222-0.299-1.907V392.657z M385.817,392.851c0,0.469,0.056,0.915,0.167,1.341
		c0.111,0.424,0.279,0.798,0.506,1.12c0.225,0.322,0.508,0.577,0.848,0.765s0.735,0.281,1.187,0.281
		c0.445,0,0.836-0.094,1.173-0.281s0.618-0.442,0.844-0.765s0.395-0.696,0.506-1.12c0.111-0.426,0.167-0.872,0.167-1.341v-0.193
		c0-0.463-0.058-0.907-0.171-1.331c-0.115-0.426-0.285-0.799-0.51-1.121c-0.227-0.322-0.508-0.578-0.844-0.77
		c-0.338-0.189-0.731-0.285-1.183-0.285s-0.844,0.096-1.178,0.285c-0.334,0.191-0.614,0.447-0.839,0.77
		c-0.227,0.322-0.395,0.695-0.506,1.121c-0.111,0.424-0.167,0.868-0.167,1.331V392.851z"/>
	<path d="M396.909,387.99l0.114,1.406c0.346-0.492,0.771-0.877,1.274-1.156c0.504-0.277,1.066-0.42,1.688-0.426
		c0.498,0,0.95,0.07,1.357,0.211s0.755,0.36,1.042,0.659s0.508,0.679,0.663,1.138c0.155,0.461,0.233,1.007,0.233,1.64v6.038h-1.626
		v-6.003c0-0.422-0.047-0.779-0.141-1.072s-0.232-0.53-0.418-0.712c-0.184-0.182-0.41-0.313-0.676-0.396
		c-0.268-0.082-0.573-0.123-0.919-0.123c-0.545,0-1.024,0.136-1.437,0.409c-0.414,0.271-0.743,0.631-0.989,1.076v6.82h-1.626v-9.51
		H396.909z"/>
	<path d="M410.453,397.676c-0.668,0-1.282-0.114-1.842-0.343s-1.038-0.548-1.437-0.958s-0.709-0.896-0.932-1.459
		s-0.334-1.175-0.334-1.837v-0.369c0-0.768,0.123-1.454,0.369-2.062c0.246-0.605,0.572-1.119,0.979-1.537
		c0.407-0.42,0.871-0.74,1.389-0.963c0.52-0.223,1.051-0.334,1.596-0.334c0.686,0,1.284,0.119,1.797,0.355
		c0.513,0.238,0.939,0.566,1.279,0.984c0.34,0.42,0.594,0.913,0.76,1.481c0.168,0.568,0.251,1.184,0.251,1.846v0.729h-6.794
		c0.018,0.434,0.102,0.841,0.25,1.222c0.15,0.381,0.354,0.714,0.615,0.997c0.261,0.285,0.573,0.509,0.937,0.673
		s0.765,0.246,1.204,0.246c0.58,0,1.096-0.117,1.547-0.352s0.826-0.545,1.125-0.932l0.993,0.773c-0.158,0.24-0.356,0.47-0.593,0.69
		c-0.238,0.219-0.512,0.414-0.822,0.584s-0.662,0.307-1.055,0.408C411.344,397.625,410.916,397.676,410.453,397.676z
		 M410.242,389.15c-0.328,0-0.639,0.061-0.932,0.18c-0.293,0.121-0.557,0.297-0.791,0.527c-0.234,0.232-0.433,0.516-0.594,0.854
		c-0.161,0.336-0.273,0.725-0.338,1.164h5.115v-0.123c-0.018-0.316-0.078-0.63-0.18-0.94c-0.104-0.311-0.254-0.589-0.453-0.835
		s-0.45-0.445-0.752-0.598S410.658,389.15,410.242,389.15z"/>
	<path d="M418.513,387.99l0.114,1.406c0.346-0.492,0.771-0.877,1.274-1.156c0.504-0.277,1.066-0.42,1.688-0.426
		c0.498,0,0.95,0.07,1.357,0.211s0.755,0.36,1.042,0.659s0.508,0.679,0.663,1.138c0.155,0.461,0.233,1.007,0.233,1.64v6.038h-1.626
		v-6.003c0-0.422-0.047-0.779-0.141-1.072s-0.232-0.53-0.418-0.712c-0.184-0.182-0.41-0.313-0.676-0.396
		c-0.268-0.082-0.573-0.123-0.919-0.123c-0.545,0-1.024,0.136-1.437,0.409c-0.414,0.271-0.743,0.631-0.989,1.076v6.82h-1.626v-9.51
		H418.513z"/>
	<path d="M431.705,385.688v2.303h3.621v1.257h-3.621v5.168c0,0.369,0.047,0.674,0.141,0.914s0.223,0.433,0.387,0.575
		c0.164,0.145,0.353,0.245,0.566,0.304s0.441,0.088,0.682,0.088c0.176,0,0.357-0.011,0.545-0.03c0.188-0.021,0.37-0.046,0.549-0.075
		s0.346-0.06,0.502-0.093c0.154-0.031,0.282-0.06,0.382-0.083l0.229,1.151c-0.135,0.082-0.299,0.154-0.492,0.215
		c-0.193,0.062-0.404,0.115-0.633,0.158c-0.229,0.045-0.47,0.078-0.726,0.102c-0.254,0.023-0.508,0.035-0.76,0.035
		c-0.422,0-0.816-0.061-1.182-0.18c-0.367-0.121-0.685-0.311-0.954-0.572c-0.27-0.26-0.482-0.598-0.638-1.01
		c-0.155-0.414-0.232-0.913-0.232-1.499v-5.168h-2.496v-1.257h2.496v-2.303H431.705z"/>
	<path d="M456.569,392.569h-6.724v-1.336h6.724V392.569z"/>
	<path d="M472.97,390.319h1.16c0.41,0,0.771-0.056,1.086-0.167c0.312-0.111,0.576-0.264,0.791-0.457
		c0.213-0.193,0.376-0.425,0.487-0.694s0.167-0.565,0.167-0.888c0-0.744-0.19-1.305-0.571-1.684
		c-0.381-0.377-0.938-0.566-1.67-0.566c-0.346,0-0.661,0.051-0.944,0.154c-0.285,0.102-0.527,0.25-0.73,0.443
		c-0.201,0.193-0.358,0.425-0.47,0.694s-0.167,0.571-0.167,0.905h-1.635c0-0.486,0.095-0.945,0.285-1.375
		c0.19-0.432,0.459-0.807,0.805-1.125c0.346-0.32,0.76-0.572,1.244-0.756c0.482-0.185,1.021-0.277,1.612-0.277
		c0.574,0,1.099,0.078,1.573,0.233s0.882,0.385,1.222,0.69s0.604,0.683,0.791,1.134s0.281,0.973,0.281,1.564
		c0,0.246-0.038,0.501-0.114,0.765s-0.193,0.521-0.352,0.769c-0.158,0.25-0.362,0.484-0.611,0.703
		c-0.249,0.221-0.546,0.403-0.892,0.55c0.416,0.135,0.763,0.311,1.042,0.527c0.277,0.217,0.5,0.46,0.668,0.729
		c0.166,0.27,0.283,0.554,0.352,0.853c0.066,0.299,0.101,0.595,0.101,0.888c0,0.598-0.103,1.128-0.308,1.591
		s-0.489,0.854-0.853,1.173c-0.363,0.32-0.793,0.562-1.288,0.73c-0.495,0.166-1.029,0.25-1.604,0.25
		c-0.562,0-1.092-0.079-1.586-0.237c-0.496-0.158-0.925-0.39-1.288-0.694s-0.652-0.677-0.866-1.116s-0.32-0.94-0.32-1.503h1.626
		c0,0.334,0.058,0.639,0.171,0.914c0.115,0.275,0.277,0.51,0.488,0.703s0.467,0.343,0.77,0.448c0.301,0.105,0.637,0.158,1.006,0.158
		s0.703-0.048,1.002-0.146c0.299-0.096,0.554-0.244,0.765-0.443s0.374-0.447,0.487-0.742c0.115-0.297,0.172-0.646,0.172-1.051
		c0-0.398-0.066-0.742-0.197-1.033c-0.133-0.289-0.316-0.531-0.555-0.725c-0.236-0.193-0.524-0.337-0.861-0.431
		s-0.707-0.141-1.111-0.141h-1.16V390.319z"/>
	<path d="M487.806,392.394c0,0.838-0.065,1.626-0.198,2.364c-0.131,0.738-0.309,1.422-0.531,2.053
		c-0.223,0.629-0.479,1.203-0.77,1.723c-0.289,0.518-0.595,0.98-0.914,1.389c-0.319,0.406-0.641,0.752-0.967,1.037
		c-0.324,0.283-0.634,0.508-0.927,0.672l-0.343-0.993c0.363-0.27,0.725-0.646,1.086-1.13c0.359-0.482,0.682-1.067,0.967-1.753
		c0.283-0.686,0.515-1.474,0.693-2.364s0.269-1.884,0.269-2.979v-0.123c0-1.096-0.094-2.091-0.281-2.983
		c-0.188-0.895-0.43-1.686-0.726-2.373c-0.296-0.689-0.621-1.273-0.975-1.754c-0.355-0.48-0.699-0.855-1.033-1.125l0.343-0.993
		c0.293,0.164,0.603,0.39,0.927,0.677c0.326,0.287,0.647,0.633,0.967,1.037s0.625,0.867,0.914,1.389
		c0.291,0.521,0.547,1.098,0.77,1.727c0.223,0.631,0.4,1.314,0.531,2.053c0.133,0.738,0.198,1.526,0.198,2.364V392.394z"/>
	<path d="M498.607,392.394c0,0.838-0.065,1.626-0.198,2.364c-0.131,0.738-0.309,1.422-0.531,2.053
		c-0.223,0.629-0.479,1.203-0.77,1.723c-0.289,0.518-0.595,0.98-0.914,1.389c-0.319,0.406-0.641,0.752-0.967,1.037
		c-0.324,0.283-0.634,0.508-0.927,0.672l-0.343-0.993c0.363-0.27,0.725-0.646,1.086-1.13c0.359-0.482,0.682-1.067,0.967-1.753
		c0.283-0.686,0.515-1.474,0.693-2.364s0.269-1.884,0.269-2.979v-0.123c0-1.096-0.094-2.091-0.281-2.983
		c-0.188-0.895-0.43-1.686-0.726-2.373c-0.296-0.689-0.621-1.273-0.975-1.754c-0.355-0.48-0.699-0.855-1.033-1.125l0.343-0.993
		c0.293,0.164,0.603,0.39,0.927,0.677c0.326,0.287,0.647,0.633,0.967,1.037s0.625,0.867,0.914,1.389
		c0.291,0.521,0.547,1.098,0.77,1.727c0.223,0.631,0.4,1.314,0.531,2.053c0.133,0.738,0.198,1.526,0.198,2.364V392.394z"/>
</g>
<polyline fill="none" stroke="#E15218" stroke-miterlimit="10" enable-background="new    " points="272.5,463 272.5,470.5 
	338.5,470.5 338.5,463 "/>
<polyline fill="none" stroke="#E15218" stroke-miterlimit="10" points="267.5,532 267.5,540.5 398.5,540.5 398.5,532 "/>
<path fill="none" stroke="#E15218" stroke-miterlimit="10" d="M305.5,470.5"/>
<g>
	<rect x="268.167" y="543.143" fill="none" width="129.833" height="17.19"/>
	<path d="M328.038,552.143h-5.432l0.129-0.826l3.152-3.064c0.16-0.16,0.332-0.329,0.516-0.507s0.355-0.366,0.516-0.565
		s0.298-0.408,0.413-0.627s0.188-0.449,0.22-0.691c0.023-0.199,0.014-0.388-0.029-0.565s-0.117-0.333-0.223-0.466
		s-0.238-0.239-0.398-0.319s-0.344-0.124-0.551-0.132c-0.277-0.008-0.523,0.03-0.738,0.114s-0.401,0.203-0.56,0.357
		s-0.286,0.34-0.384,0.557s-0.164,0.454-0.199,0.712l-1.055,0.006c0.039-0.391,0.143-0.749,0.311-1.075s0.385-0.605,0.65-0.838
		s0.571-0.412,0.917-0.539s0.716-0.187,1.11-0.179c0.336,0.008,0.646,0.067,0.932,0.179s0.528,0.269,0.729,0.472
		s0.353,0.446,0.454,0.729s0.139,0.597,0.111,0.94c-0.023,0.301-0.101,0.588-0.231,0.861s-0.289,0.533-0.475,0.779
		s-0.389,0.479-0.609,0.697s-0.435,0.426-0.642,0.621l-2.613,2.484h4.119L328.038,552.143z"/>
	<path d="M335.187,543.6l-0.1,0.973h-0.07c-0.469-0.004-0.887,0.063-1.254,0.202s-0.689,0.333-0.967,0.583s-0.515,0.549-0.712,0.896
		s-0.362,0.73-0.495,1.148c0.25-0.258,0.532-0.466,0.847-0.624s0.655-0.235,1.022-0.231c0.383,0.008,0.709,0.093,0.979,0.255
		s0.486,0.373,0.65,0.633s0.277,0.554,0.34,0.882s0.078,0.662,0.047,1.002c-0.035,0.398-0.128,0.777-0.278,1.137
		s-0.351,0.675-0.601,0.946s-0.547,0.485-0.891,0.642s-0.729,0.229-1.154,0.217c-0.434-0.012-0.802-0.117-1.104-0.316
		s-0.546-0.455-0.729-0.768s-0.308-0.66-0.372-1.043s-0.075-0.764-0.032-1.143l0.07-0.51c0.062-0.441,0.154-0.869,0.275-1.283
		s0.273-0.802,0.457-1.163s0.401-0.69,0.653-0.987s0.541-0.553,0.867-0.768s0.691-0.382,1.096-0.501s0.851-0.179,1.339-0.179
		H335.187z M333.247,547.449c-0.199-0.008-0.39,0.02-0.571,0.082s-0.35,0.148-0.504,0.258s-0.294,0.238-0.419,0.387
		s-0.232,0.307-0.322,0.475l-0.047,0.375c-0.016,0.145-0.023,0.303-0.023,0.475s0.014,0.343,0.041,0.513s0.069,0.335,0.126,0.495
		s0.132,0.303,0.226,0.428s0.211,0.227,0.352,0.305s0.307,0.121,0.498,0.129c0.277,0.008,0.523-0.045,0.738-0.158
		s0.398-0.266,0.551-0.457s0.273-0.408,0.363-0.65s0.148-0.486,0.176-0.732c0.023-0.211,0.022-0.429-0.003-0.653
		s-0.084-0.43-0.176-0.615s-0.219-0.339-0.381-0.46S333.501,547.457,333.247,547.449z"/>
	<path d="M336.968,552.143l1.482-8.531l2.396,0.006c0.328,0.012,0.642,0.065,0.94,0.161s0.561,0.236,0.785,0.422
		s0.397,0.414,0.519,0.686s0.166,0.589,0.135,0.952c-0.02,0.238-0.075,0.452-0.167,0.642s-0.209,0.358-0.352,0.507
		s-0.307,0.28-0.492,0.396s-0.38,0.216-0.583,0.302c0.203,0.078,0.379,0.185,0.527,0.319s0.271,0.287,0.369,0.457
		s0.167,0.354,0.208,0.554s0.054,0.404,0.038,0.615c-0.027,0.402-0.133,0.76-0.316,1.072s-0.417,0.576-0.7,0.791
		s-0.604,0.377-0.964,0.486s-0.727,0.164-1.102,0.164H336.968z M338.726,548.152l-0.533,3.07l1.559,0.012
		c0.238-0.004,0.468-0.043,0.688-0.117s0.421-0.179,0.601-0.313s0.329-0.3,0.448-0.495s0.194-0.416,0.226-0.662
		c0.027-0.211,0.017-0.405-0.032-0.583s-0.128-0.332-0.237-0.463s-0.247-0.234-0.413-0.311s-0.354-0.12-0.565-0.132L338.726,548.152
		z M338.884,547.25l1.406,0.012c0.215-0.004,0.428-0.037,0.639-0.1s0.402-0.154,0.574-0.275s0.316-0.27,0.434-0.445
		s0.189-0.379,0.217-0.609c0.027-0.211,0.011-0.396-0.05-0.554s-0.151-0.29-0.272-0.396s-0.267-0.187-0.437-0.243
		s-0.351-0.089-0.542-0.097l-1.5-0.006L338.884,547.25z"/>
</g>
<g>
	<rect x="240.583" y="476.213" fill="none" width="129.833" height="17.19"/>
	<path d="M303.977,485.213h-5.432l0.129-0.826l3.152-3.064c0.16-0.16,0.332-0.329,0.516-0.507s0.355-0.366,0.516-0.565
		s0.298-0.408,0.413-0.627s0.188-0.449,0.22-0.691c0.023-0.199,0.014-0.388-0.029-0.565s-0.117-0.333-0.223-0.466
		s-0.238-0.239-0.398-0.319s-0.344-0.124-0.551-0.132c-0.277-0.008-0.523,0.03-0.738,0.114s-0.401,0.203-0.56,0.357
		s-0.286,0.34-0.384,0.557s-0.164,0.454-0.199,0.712l-1.055,0.006c0.039-0.391,0.143-0.749,0.311-1.075s0.385-0.605,0.65-0.838
		s0.571-0.412,0.917-0.539s0.716-0.187,1.11-0.179c0.336,0.008,0.646,0.067,0.932,0.179s0.528,0.269,0.729,0.472
		s0.353,0.446,0.454,0.729s0.139,0.597,0.111,0.94c-0.023,0.301-0.101,0.588-0.231,0.861s-0.289,0.533-0.475,0.779
		s-0.389,0.479-0.609,0.697s-0.435,0.426-0.642,0.621l-2.613,2.484h4.119L303.977,485.213z"/>
	<path d="M311.125,476.67l-0.1,0.973h-0.07c-0.469-0.004-0.887,0.063-1.254,0.202s-0.689,0.333-0.967,0.583
		s-0.515,0.549-0.712,0.896s-0.362,0.73-0.495,1.148c0.25-0.258,0.532-0.466,0.847-0.624s0.655-0.235,1.022-0.231
		c0.383,0.008,0.709,0.093,0.979,0.255s0.486,0.373,0.65,0.633s0.277,0.554,0.34,0.882s0.078,0.662,0.047,1.002
		c-0.035,0.398-0.128,0.777-0.278,1.137s-0.351,0.675-0.601,0.946s-0.547,0.485-0.891,0.642s-0.729,0.229-1.154,0.217
		c-0.434-0.012-0.802-0.117-1.104-0.316s-0.546-0.455-0.729-0.768s-0.308-0.66-0.372-1.043s-0.075-0.764-0.032-1.143l0.07-0.51
		c0.062-0.441,0.154-0.869,0.275-1.283s0.273-0.802,0.457-1.163s0.401-0.69,0.653-0.987s0.541-0.553,0.867-0.768
		s0.691-0.382,1.096-0.501s0.851-0.179,1.339-0.179H311.125z M309.186,480.52c-0.199-0.008-0.39,0.02-0.571,0.082
		s-0.35,0.148-0.504,0.258s-0.294,0.238-0.419,0.387s-0.232,0.307-0.322,0.475l-0.047,0.375c-0.016,0.145-0.023,0.303-0.023,0.475
		s0.014,0.343,0.041,0.513s0.069,0.335,0.126,0.495s0.132,0.303,0.226,0.428s0.211,0.227,0.352,0.305s0.307,0.121,0.498,0.129
		c0.277,0.008,0.523-0.045,0.738-0.158s0.398-0.266,0.551-0.457s0.273-0.408,0.363-0.65s0.148-0.486,0.176-0.732
		c0.023-0.211,0.022-0.429-0.003-0.653s-0.084-0.43-0.176-0.615s-0.219-0.339-0.381-0.46S309.439,480.527,309.186,480.52z"/>
</g>
<g enable-background="new    ">
	<g>
		<path fill="none" stroke="#E15218" stroke-width="2" stroke-miterlimit="10" d="M404,667h81.5c5.5,0,9.5-5,9.5-10.5V530
			c0-5.5-4-10-9.5-10H413"/>
		<g>
			<polygon fill="#E15218" points="404,520 417.133,514.634 414.017,520 417.133,525.365 			"/>
		</g>
	</g>
</g>
<g enable-background="new    ">
	<path fill="none" stroke="#E15218" stroke-width="2" stroke-miterlimit="10" d="M404,680c0,2.75-2.25,5-5,5H64c-2.75,0-5-2.25-5-5
		v-27c0-2.75,2.25-5,5-5h335c2.75,0,5,2.25,5,5V680z"/>
</g>
<g>
	<path fill="none" stroke="#1B4E6E" stroke-width="2" stroke-miterlimit="10" d="M604,569c0,5.522-4.477,10-10,10H51
		c-5.523,0-10-4.478-10-10V180c0-5.523,4.477-10,10-10h543c5.523,0,10,4.477,10,10V569z"/>
</g>
<line fill="none" stroke="#1B4E6E" stroke-width="2" stroke-miterlimit="10" x1="67" y1="307" x2="575" y2="307"/>
<g enable-background="new    ">
	<path fill="#FFFFFF" d="M522,592c0,2.762-2.239,5-5,5h-45c-2.761,0-5-2.238-5-5v-27c0-2.762,2.239-5,5-5h45c2.761,0,5,2.238,5,5
		V592z"/>
	<path fill="none" stroke="#E15218" stroke-width="2" stroke-miterlimit="10" d="M522,592c0,2.762-2.239,5-5,5h-45
		c-2.761,0-5-2.238-5-5v-27c0-2.762,2.239-5,5-5h45c2.761,0,5,2.238,5,5V592z"/>
</g>
<g enable-background="new    ">
	<rect x="467" y="568" fill="none" width="54.667" height="38.168"/>
	<path fill="#E15218" d="M493.216,585.183l-12.606-5.561v-1.815l12.606-6.297v3.047l-8.684,4.024l8.684,3.567V585.183z"/>
	<path fill="#E15218" d="M495.451,577.54v-2.78h12.606v2.78H495.451z M495.451,582.453v-2.78h12.606v2.78H495.451z"/>
</g>
<g>
</g>
<g>
</g>
<g>
</g>
<g>
</g>
<g>
</g>
<g>
</g>
<g>
</g>
<g>
</g>
<g>
</g>
<g>
</g>
<g>
</g>
<g>
</g>
<g>
</g>
<g>
</g>
<g>
</g>
<g>
</g>
</svg>
