<?xml version="1.0" encoding="utf-8"?>
<!-- Generator: Adobe Illustrator 16.0.4, SVG Export Plug-In . SVG Version: 6.00 Build 0)  -->
<!DOCTYPE svg PUBLIC "-//W3C//DTD SVG 1.1//EN" "http://www.w3.org/Graphics/SVG/1.1/DTD/svg11.dtd">
<svg version="1.1" id="Layer_1" xmlns="http://www.w3.org/2000/svg" xmlns:xlink="http://www.w3.org/1999/xlink" x="0px" y="0px"
	 width="1366px" height="768px" viewBox="0 0 1366 768" enable-background="new 0 0 1366 768" xml:space="preserve">
<rect fill="#FFFFFF" width="1366" height="768"/>
<g enable-background="new    ">
	<path fill="#FFFFFF" d="M494,457.05"/>
</g>
<g enable-background="new    ">
	<line fill="none" x1="240" y1="337" x2="240" y2="478"/>
	<g>
		<line fill="none" stroke="#2D4E6E" stroke-miterlimit="10" x1="239.5" y1="337" x2="239.5" y2="470"/>
		<g>
			<polygon fill="#2D4E6E" points="240,478.449 235.244,466.809 240,469.57 244.755,466.809 			"/>
		</g>
	</g>
</g>
<rect x="156" y="370" fill="#FFFFFF" width="184" height="38"/>
<g enable-background="new    ">
	<path fill="#FFFFFF" d="M356,334c0,2.209-1.791,4-4,4H10c-2.209,0-4-1.791-4-4V133c0-2.209,1.791-4,4-4h342c2.209,0,4,1.791,4,4
		V334z"/>
	<path fill="none" stroke="#2D4E6E" stroke-width="2" stroke-miterlimit="10" d="M356,334c0,2.209-1.791,4-4,4H10
		c-2.209,0-4-1.791-4-4V133c0-2.209,1.791-4,4-4h342c2.209,0,4,1.791,4,4V334z"/>
</g>
<g>
	<g>
		<path d="M123.795,140.303h-3.802v10.39h-2.388v-10.39h-3.751v-1.938h9.941V140.303z"/>
		<path d="M131.805,141.362c0.355,0,0.685,0.024,0.986,0.072c0.302,0.048,0.546,0.101,0.732,0.157l-0.347,2.346
			c-0.311-0.073-0.628-0.128-0.953-0.165c-0.325-0.037-0.634-0.055-0.927-0.055c-0.66,0-1.189,0.127-1.587,0.381
			c-0.398,0.254-0.696,0.618-0.894,1.092v5.504h-2.354v-9.162h2.193l0.11,1.499c0.373-0.52,0.818-0.927,1.338-1.223
			C130.622,141.512,131.19,141.362,131.805,141.362z"/>
		<path d="M141.356,150.693c-0.056-0.113-0.104-0.243-0.144-0.39c-0.04-0.146-0.074-0.302-0.102-0.466
			c-0.13,0.142-0.28,0.274-0.449,0.398s-0.357,0.232-0.563,0.326s-0.433,0.167-0.682,0.22c-0.249,0.053-0.517,0.081-0.804,0.081
			c-0.469,0-0.899-0.068-1.292-0.203c-0.393-0.136-0.729-0.325-1.012-0.567c-0.283-0.243-0.503-0.532-0.661-0.868
			s-0.237-0.701-0.237-1.097c0-0.965,0.36-1.711,1.08-2.24c0.72-0.528,1.794-0.792,3.222-0.792h1.312v-0.542
			c0-0.44-0.144-0.789-0.432-1.046c-0.288-0.257-0.703-0.385-1.245-0.385c-0.479,0-0.83,0.103-1.05,0.309
			c-0.22,0.206-0.33,0.481-0.33,0.826h-2.354c0-0.39,0.086-0.759,0.258-1.109s0.424-0.657,0.754-0.923
			c0.33-0.265,0.734-0.476,1.211-0.631c0.477-0.155,1.023-0.233,1.639-0.233c0.553,0,1.068,0.068,1.545,0.203
			c0.477,0.136,0.891,0.336,1.241,0.602c0.35,0.265,0.624,0.6,0.821,1.003c0.198,0.403,0.296,0.871,0.296,1.401v3.929
			c0,0.491,0.031,0.898,0.093,1.22c0.062,0.322,0.152,0.598,0.271,0.83v0.144H141.356z M139.113,149.042
			c0.237,0,0.457-0.028,0.66-0.084c0.204-0.057,0.387-0.13,0.551-0.22c0.164-0.09,0.305-0.193,0.423-0.309
			c0.118-0.116,0.211-0.233,0.279-0.352v-1.575h-1.202c-0.367,0-0.681,0.035-0.94,0.105c-0.26,0.071-0.472,0.169-0.635,0.296
			c-0.164,0.127-0.285,0.28-0.364,0.458c-0.079,0.178-0.119,0.371-0.119,0.58c0,0.316,0.112,0.579,0.334,0.788
			C138.324,148.938,138.661,149.042,139.113,149.042z"/>
		<path d="M148.173,141.531l0.144,1.27c0.328-0.457,0.726-0.812,1.194-1.062c0.469-0.251,0.988-0.377,1.558-0.377
			c0.463,0,0.886,0.068,1.271,0.203c0.384,0.136,0.715,0.352,0.995,0.648c0.28,0.296,0.497,0.677,0.652,1.143
			c0.155,0.466,0.233,1.032,0.233,1.698v5.64h-2.354v-5.605c0-0.361-0.041-0.659-0.123-0.894c-0.082-0.235-0.199-0.419-0.352-0.555
			c-0.152-0.135-0.336-0.23-0.55-0.284c-0.214-0.054-0.457-0.081-0.728-0.081c-0.401,0-0.743,0.081-1.025,0.242
			c-0.282,0.161-0.511,0.382-0.686,0.665v6.512h-2.363v-9.162L148.173,141.531L148.173,141.531z"/>
		<path d="M162.356,148.178c0-0.141-0.033-0.265-0.097-0.373c-0.065-0.107-0.181-0.208-0.347-0.3
			c-0.167-0.093-0.389-0.179-0.665-0.258s-0.626-0.158-1.05-0.237c-0.537-0.107-1.026-0.241-1.469-0.402
			c-0.443-0.161-0.823-0.355-1.139-0.584c-0.316-0.229-0.563-0.493-0.741-0.792c-0.178-0.299-0.267-0.644-0.267-1.033
			c0-0.378,0.09-0.74,0.271-1.084c0.181-0.344,0.44-0.646,0.779-0.906c0.339-0.259,0.751-0.466,1.236-0.618
			c0.485-0.152,1.033-0.229,1.643-0.229c0.638,0,1.211,0.075,1.719,0.225c0.508,0.149,0.938,0.355,1.292,0.618
			c0.353,0.262,0.622,0.574,0.809,0.936c0.186,0.361,0.279,0.753,0.279,1.177h-2.354c0-0.355-0.144-0.653-0.432-0.893
			c-0.288-0.24-0.725-0.36-1.312-0.36c-0.547,0-0.961,0.099-1.24,0.296c-0.279,0.197-0.419,0.44-0.419,0.728
			c0,0.136,0.028,0.261,0.085,0.377c0.056,0.116,0.157,0.22,0.3,0.313c0.144,0.093,0.34,0.178,0.589,0.254
			c0.248,0.076,0.564,0.143,0.948,0.199c0.553,0.09,1.067,0.207,1.541,0.347c0.474,0.142,0.884,0.323,1.228,0.546
			c0.344,0.223,0.614,0.494,0.809,0.813s0.292,0.699,0.292,1.139c0,0.407-0.097,0.781-0.292,1.122
			c-0.195,0.342-0.471,0.637-0.83,0.885c-0.359,0.249-0.792,0.442-1.3,0.58c-0.508,0.138-1.075,0.208-1.702,0.208
			c-0.689,0-1.297-0.09-1.825-0.271c-0.528-0.181-0.97-0.416-1.325-0.707c-0.356-0.291-0.625-0.621-0.809-0.991
			c-0.183-0.37-0.275-0.741-0.275-1.113h2.244c0.017,0.249,0.085,0.461,0.204,0.639c0.118,0.178,0.271,0.322,0.457,0.432
			c0.187,0.11,0.399,0.191,0.639,0.242c0.24,0.051,0.487,0.076,0.741,0.076c0.581,0,1.024-0.093,1.33-0.28
			C162.204,148.712,162.356,148.472,162.356,148.178z"/>
		<path d="M172.577,150.693c-0.056-0.113-0.104-0.243-0.144-0.39c-0.04-0.146-0.074-0.302-0.102-0.466
			c-0.13,0.142-0.28,0.274-0.449,0.398s-0.357,0.232-0.563,0.326s-0.433,0.167-0.682,0.22c-0.249,0.053-0.517,0.081-0.804,0.081
			c-0.469,0-0.899-0.068-1.292-0.203c-0.393-0.136-0.729-0.325-1.012-0.567c-0.283-0.243-0.503-0.532-0.661-0.868
			c-0.158-0.336-0.237-0.701-0.237-1.097c0-0.965,0.36-1.711,1.08-2.24c0.72-0.528,1.794-0.792,3.222-0.792h1.312v-0.542
			c0-0.44-0.144-0.789-0.432-1.046c-0.288-0.257-0.703-0.385-1.245-0.385c-0.479,0-0.83,0.103-1.05,0.309
			c-0.22,0.206-0.33,0.481-0.33,0.826h-2.354c0-0.39,0.086-0.759,0.258-1.109c0.172-0.35,0.424-0.657,0.754-0.923
			c0.33-0.265,0.734-0.476,1.211-0.631c0.477-0.155,1.023-0.233,1.639-0.233c0.553,0,1.068,0.068,1.545,0.203
			c0.477,0.136,0.891,0.336,1.241,0.602c0.35,0.265,0.624,0.6,0.821,1.003c0.198,0.403,0.296,0.871,0.296,1.401v3.929
			c0,0.491,0.031,0.898,0.093,1.22c0.062,0.322,0.152,0.598,0.271,0.83v0.144H172.577z M170.333,149.042
			c0.237,0,0.457-0.028,0.66-0.084c0.204-0.057,0.387-0.13,0.551-0.22c0.164-0.09,0.305-0.193,0.423-0.309
			c0.118-0.116,0.211-0.233,0.279-0.352v-1.575h-1.202c-0.367,0-0.681,0.035-0.94,0.105c-0.26,0.071-0.472,0.169-0.635,0.296
			c-0.164,0.127-0.285,0.28-0.364,0.458c-0.079,0.178-0.119,0.371-0.119,0.58c0,0.316,0.112,0.579,0.334,0.788
			C169.544,148.938,169.881,149.042,170.333,149.042z"/>
		<path d="M181.315,148.983c0.231,0,0.452-0.034,0.661-0.102c0.208-0.068,0.392-0.164,0.55-0.288
			c0.158-0.124,0.281-0.273,0.368-0.449c0.087-0.175,0.126-0.37,0.114-0.584h2.219c0.011,0.475-0.086,0.915-0.292,1.321
			c-0.206,0.406-0.487,0.756-0.843,1.05c-0.355,0.293-0.769,0.524-1.24,0.69c-0.472,0.166-0.97,0.25-1.495,0.25
			c-0.711,0-1.335-0.12-1.872-0.36c-0.537-0.24-0.983-0.568-1.342-0.986c-0.358-0.418-0.629-0.908-0.812-1.469
			c-0.184-0.562-0.275-1.165-0.275-1.808v-0.254c0-0.644,0.09-1.246,0.271-1.808c0.181-0.562,0.452-1.051,0.813-1.469
			c0.361-0.418,0.809-0.748,1.342-0.991c0.533-0.243,1.153-0.364,1.858-0.364c0.564,0,1.087,0.084,1.566,0.254
			c0.479,0.169,0.894,0.408,1.241,0.716s0.617,0.68,0.809,1.118s0.282,0.927,0.271,1.469h-2.219c0.012-0.226-0.022-0.44-0.102-0.644
			c-0.08-0.204-0.194-0.378-0.347-0.525c-0.152-0.147-0.336-0.264-0.55-0.352c-0.214-0.088-0.449-0.131-0.703-0.131
			c-0.373,0-0.681,0.076-0.923,0.229c-0.242,0.153-0.436,0.356-0.58,0.61c-0.144,0.254-0.246,0.545-0.305,0.872
			c-0.059,0.328-0.089,0.666-0.089,1.016v0.254c0,0.356,0.028,0.699,0.085,1.029c0.056,0.331,0.156,0.621,0.3,0.873
			c0.144,0.251,0.339,0.453,0.584,0.605C180.623,148.907,180.937,148.983,181.315,148.983z"/>
		<path d="M191.985,139.287v2.244h3.421v1.736h-3.421v3.938c0,0.333,0.038,0.611,0.114,0.834c0.076,0.223,0.185,0.401,0.326,0.534
			c0.141,0.133,0.312,0.227,0.513,0.284c0.2,0.056,0.424,0.084,0.673,0.084c0.181,0,0.366-0.008,0.555-0.025s0.37-0.038,0.542-0.063
			s0.333-0.052,0.483-0.081c0.149-0.028,0.278-0.056,0.385-0.084l0.229,1.617c-0.164,0.096-0.355,0.179-0.576,0.25
			c-0.221,0.071-0.455,0.128-0.703,0.173c-0.249,0.045-0.507,0.081-0.775,0.106s-0.532,0.038-0.792,0.038
			c-0.502,0-0.958-0.066-1.368-0.199c-0.409-0.133-0.759-0.339-1.05-0.618c-0.291-0.28-0.515-0.635-0.673-1.067
			c-0.158-0.432-0.237-0.95-0.237-1.554v-4.166h-2.092v-1.736h2.092v-2.244L191.985,139.287L191.985,139.287z"/>
		<path d="M198.7,141.531h4.987v7.249h2.481v1.914H198.7v-1.914h2.608v-5.326H198.7V141.531z M201.138,139.186
			c0-0.181,0.032-0.349,0.097-0.504c0.065-0.155,0.157-0.288,0.275-0.398c0.119-0.11,0.261-0.196,0.428-0.258
			s0.352-0.093,0.555-0.093c0.417,0,0.75,0.117,0.995,0.351c0.246,0.234,0.369,0.535,0.369,0.902c0,0.367-0.123,0.667-0.369,0.902
			c-0.245,0.234-0.577,0.352-0.995,0.352c-0.203,0-0.388-0.031-0.555-0.093s-0.309-0.148-0.428-0.258
			c-0.119-0.11-0.21-0.243-0.275-0.398C201.17,139.536,201.138,139.366,201.138,139.186z"/>
		<path d="M208.158,146.028c0-0.667,0.096-1.283,0.288-1.851c0.192-0.568,0.473-1.06,0.842-1.478
			c0.37-0.417,0.822-0.745,1.355-0.982c0.534-0.237,1.145-0.355,1.833-0.355s1.301,0.119,1.837,0.355
			c0.536,0.237,0.989,0.565,1.359,0.982c0.37,0.418,0.651,0.91,0.843,1.478c0.192,0.568,0.288,1.184,0.288,1.851v0.178
			c0,0.672-0.096,1.291-0.288,1.858s-0.472,1.06-0.838,1.478c-0.367,0.418-0.819,0.744-1.355,0.978
			c-0.536,0.234-1.146,0.352-1.829,0.352c-0.688,0-1.303-0.117-1.842-0.352c-0.539-0.234-0.994-0.56-1.363-0.978
			c-0.37-0.417-0.65-0.91-0.842-1.478c-0.192-0.568-0.288-1.187-0.288-1.858V146.028z M210.512,146.206
			c0,0.384,0.037,0.744,0.11,1.08c0.073,0.336,0.189,0.629,0.347,0.88c0.158,0.251,0.363,0.451,0.614,0.597
			c0.251,0.147,0.555,0.22,0.91,0.22c0.344,0,0.641-0.073,0.889-0.22c0.249-0.146,0.45-0.346,0.605-0.597
			c0.155-0.251,0.27-0.544,0.343-0.88c0.073-0.336,0.11-0.696,0.11-1.08v-0.178c0-0.373-0.037-0.726-0.11-1.059
			c-0.074-0.333-0.188-0.627-0.343-0.881c-0.155-0.254-0.357-0.454-0.605-0.601s-0.55-0.22-0.906-0.22
			c-0.35,0-0.649,0.073-0.898,0.22c-0.248,0.147-0.452,0.347-0.609,0.601c-0.158,0.254-0.274,0.548-0.347,0.881
			c-0.074,0.333-0.11,0.687-0.11,1.059V146.206L210.512,146.206z"/>
		<path d="M221.02,141.531l0.144,1.27c0.328-0.457,0.726-0.812,1.194-1.062c0.469-0.251,0.988-0.377,1.558-0.377
			c0.463,0,0.886,0.068,1.271,0.203c0.384,0.136,0.715,0.352,0.995,0.648c0.28,0.296,0.497,0.677,0.652,1.143
			c0.155,0.466,0.233,1.032,0.233,1.698v5.64h-2.354v-5.605c0-0.361-0.041-0.659-0.123-0.894c-0.082-0.235-0.199-0.419-0.352-0.555
			c-0.152-0.135-0.336-0.23-0.55-0.284s-0.457-0.081-0.728-0.081c-0.401,0-0.743,0.081-1.025,0.242
			c-0.282,0.161-0.511,0.382-0.686,0.665v6.512h-2.363v-9.162L221.02,141.531L221.02,141.531z"/>
		<path d="M237.075,152.531h-7.723v-1.837h7.723V152.531z"/>
		<path d="M247.727,146.002c0,0.796-0.092,1.497-0.275,2.104c-0.184,0.607-0.448,1.115-0.792,1.524
			c-0.344,0.409-0.765,0.718-1.262,0.927c-0.497,0.208-1.056,0.313-1.676,0.313c-0.616,0-1.171-0.104-1.668-0.313
			c-0.497-0.209-0.918-0.518-1.266-0.927c-0.347-0.41-0.616-0.917-0.805-1.524s-0.284-1.308-0.284-2.104v-2.947
			c0-0.796,0.093-1.497,0.28-2.104c0.186-0.607,0.453-1.115,0.8-1.524c0.347-0.409,0.768-0.718,1.262-0.927
			c0.494-0.208,1.049-0.313,1.664-0.313c0.621,0,1.18,0.104,1.677,0.313s0.918,0.518,1.266,0.927c0.347,0.41,0.614,0.917,0.8,1.524
			c0.187,0.607,0.279,1.308,0.279,2.104V146.002L247.727,146.002z M242.071,144.986l3.286-2.447
			c-0.017-0.83-0.161-1.445-0.432-1.846s-0.677-0.601-1.219-0.601c-0.548,0-0.957,0.211-1.228,0.635
			c-0.271,0.424-0.406,1.076-0.406,1.956v2.303H242.071z M245.356,144.139l-3.286,2.439c0.028,0.813,0.178,1.416,0.449,1.808
			c0.271,0.393,0.672,0.589,1.203,0.589c0.553,0,0.964-0.215,1.232-0.644c0.268-0.429,0.402-1.087,0.402-1.973V144.139z"/>
	</g>
</g>
<g enable-background="new    ">
	<path fill="#FFFFFF" d="M175,257c0,2.209-1.791,4-4,4H21c-2.209,0-4-1.791-4-4v-45c0-2.209,1.791-4,4-4h150c2.209,0,4,1.791,4,4
		V257z"/>
	<path fill="none" stroke="#2D4E6E" stroke-width="2" stroke-miterlimit="10" d="M175,257c0,2.209-1.791,4-4,4H21
		c-2.209,0-4-1.791-4-4v-45c0-2.209,1.791-4,4-4h150c2.209,0,4,1.791,4,4V257z"/>
</g>
<g enable-background="new    ">
	<path fill="#FFFFFF" d="M345,257c0,2.209-1.791,4-4,4H191c-2.209,0-4-1.791-4-4v-45c0-2.209,1.791-4,4-4h150c2.209,0,4,1.791,4,4
		V257z"/>
	<path fill="none" stroke="#2D4E6E" stroke-width="2" stroke-miterlimit="10" d="M345,257c0,2.209-1.791,4-4,4H191
		c-2.209,0-4-1.791-4-4v-45c0-2.209,1.791-4,4-4h150c2.209,0,4,1.791,4,4V257z"/>
</g>
<g enable-background="new    ">
	<path fill="#FFFFFF" d="M176,190c0,2.209-1.791,4-4,4H22c-2.209,0-4-1.791-4-4v-18c0-2.209,1.791-4,4-4h150c2.209,0,4,1.791,4,4
		V190z"/>
	<path fill="none" stroke="#8C8C8C" stroke-miterlimit="10" d="M175.5,190.5c0,2.209-1.791,4-4,4h-150c-2.209,0-4-1.791-4-4v-18
		c0-2.209,1.791-4,4-4h150c2.209,0,4,1.791,4,4V190.5z"/>
</g>
<g enable-background="new    ">
	<path fill="#FFFFFF" d="M345,190c0,2.209-1.791,4-4,4H191c-2.209,0-4-1.791-4-4v-18c0-2.209,1.791-4,4-4h150c2.209,0,4,1.791,4,4
		V190z"/>
	<path fill="none" stroke="#8C8C8C" stroke-miterlimit="10" d="M344.5,190.5c0,2.209-1.791,4-4,4h-150c-2.209,0-4-1.791-4-4v-18
		c0-2.209,1.791-4,4-4h150c2.209,0,4,1.791,4,4V190.5z"/>
</g>
<g>
	<rect x="19.48" y="174.727" fill="none" width="156.182" height="20.811"/>
	<path d="M72.336,183.189l2.352-7.916h1.347l-3.138,9.953h-1.101l-3.145-9.953h1.354L72.336,183.189z"/>
	<path d="M81.025,185.363c-0.52,0-0.997-0.089-1.432-0.267c-0.435-0.178-0.808-0.426-1.118-0.745s-0.551-0.697-0.725-1.135
		s-0.26-0.914-0.26-1.429V181.5c0-0.597,0.096-1.131,0.287-1.603s0.445-0.871,0.762-1.196c0.317-0.325,0.677-0.575,1.08-0.749
		c0.403-0.174,0.817-0.26,1.241-0.26c0.533,0,0.999,0.092,1.398,0.277c0.399,0.185,0.73,0.44,0.995,0.766
		c0.265,0.326,0.461,0.71,0.591,1.152c0.13,0.442,0.195,0.92,0.195,1.436v0.567h-5.284c0.014,0.337,0.079,0.654,0.195,0.95
		c0.116,0.296,0.276,0.555,0.479,0.776c0.203,0.221,0.445,0.396,0.728,0.523c0.283,0.127,0.595,0.191,0.937,0.191
		c0.451,0,0.852-0.091,1.203-0.273s0.643-0.424,0.875-0.725l0.772,0.602c-0.123,0.187-0.277,0.366-0.461,0.537
		c-0.184,0.171-0.397,0.322-0.639,0.455c-0.242,0.133-0.515,0.238-0.82,0.318C81.719,185.324,81.385,185.363,81.025,185.363z
		 M80.861,178.732c-0.255,0-0.497,0.047-0.725,0.14c-0.228,0.093-0.433,0.23-0.615,0.41c-0.182,0.18-0.336,0.401-0.461,0.663
		c-0.125,0.262-0.213,0.564-0.263,0.906h3.979v-0.096c-0.014-0.246-0.061-0.49-0.14-0.731c-0.079-0.241-0.197-0.458-0.352-0.649
		c-0.155-0.191-0.35-0.346-0.584-0.465C81.466,178.791,81.185,178.732,80.861,178.732z"/>
	<path d="M91.005,177.693c0.119,0,0.242,0.003,0.369,0.01c0.127,0.007,0.25,0.018,0.366,0.034c0.116,0.016,0.223,0.035,0.321,0.058
		s0.179,0.048,0.243,0.075l-0.171,1.237c-0.246-0.055-0.479-0.095-0.701-0.12c-0.222-0.025-0.452-0.038-0.694-0.038
		c-0.592,0-1.072,0.134-1.439,0.403c-0.367,0.269-0.637,0.645-0.81,1.128v4.744h-1.271v-7.396h1.203l0.062,1.176
		c0.301-0.406,0.662-0.726,1.083-0.96S90.468,177.693,91.005,177.693z"/>
	<path d="M99.475,183.265c0-0.15-0.03-0.286-0.089-0.407c-0.059-0.121-0.16-0.231-0.301-0.332s-0.328-0.192-0.561-0.277
		s-0.522-0.161-0.868-0.229c-0.424-0.086-0.81-0.191-1.159-0.314s-0.647-0.27-0.896-0.441s-0.441-0.372-0.578-0.602
		s-0.205-0.498-0.205-0.803c0-0.301,0.071-0.582,0.212-0.844c0.141-0.262,0.339-0.491,0.595-0.687
		c0.256-0.196,0.56-0.351,0.913-0.465c0.353-0.114,0.742-0.171,1.166-0.171c0.456,0,0.866,0.059,1.23,0.178
		c0.364,0.119,0.674,0.283,0.93,0.492c0.256,0.209,0.452,0.455,0.591,0.735c0.139,0.28,0.208,0.582,0.208,0.906H99.4
		c0-0.16-0.041-0.315-0.123-0.468c-0.082-0.153-0.196-0.288-0.342-0.407s-0.322-0.214-0.53-0.287
		c-0.208-0.073-0.441-0.109-0.701-0.109c-0.269,0-0.505,0.03-0.708,0.089c-0.203,0.059-0.372,0.139-0.506,0.239
		c-0.134,0.1-0.236,0.216-0.304,0.349c-0.068,0.133-0.103,0.269-0.103,0.41c0,0.146,0.027,0.276,0.082,0.39
		c0.055,0.114,0.149,0.216,0.284,0.308c0.135,0.092,0.314,0.173,0.54,0.246c0.226,0.073,0.512,0.144,0.858,0.212
		c0.456,0.096,0.864,0.206,1.224,0.332c0.36,0.126,0.663,0.276,0.909,0.451c0.246,0.175,0.434,0.379,0.564,0.612
		s0.195,0.501,0.195,0.807c0,0.328-0.074,0.626-0.222,0.896s-0.354,0.499-0.619,0.69s-0.581,0.339-0.95,0.444
		c-0.369,0.105-0.772,0.157-1.21,0.157c-0.501,0-0.948-0.067-1.34-0.202s-0.724-0.312-0.995-0.533
		c-0.271-0.221-0.479-0.478-0.622-0.769c-0.143-0.291-0.215-0.595-0.215-0.909h1.265c0.018,0.26,0.088,0.479,0.208,0.656
		c0.12,0.177,0.271,0.321,0.451,0.431c0.18,0.11,0.379,0.187,0.598,0.232c0.219,0.045,0.435,0.068,0.649,0.068
		c0.533,0,0.955-0.098,1.265-0.294C99.312,183.849,99.471,183.588,99.475,183.265z"/>
	<path d="M103.16,177.83h3.78v6.303h2.413v1.094h-6.193v-1.094h2.516v-5.202h-2.516V177.83z M105.511,175.889
		c0-0.209,0.062-0.386,0.188-0.53s0.315-0.215,0.571-0.215c0.25,0,0.44,0.072,0.567,0.215s0.191,0.32,0.191,0.53
		c0,0.205-0.064,0.376-0.191,0.513c-0.127,0.137-0.317,0.205-0.567,0.205c-0.255,0-0.445-0.068-0.571-0.205
		C105.573,176.265,105.511,176.094,105.511,175.889z"/>
	<path d="M111.007,181.46c0-0.533,0.078-1.029,0.232-1.487c0.154-0.458,0.377-0.855,0.667-1.193c0.29-0.338,0.642-0.604,1.056-0.796
		s0.882-0.291,1.401-0.291c0.524,0,0.995,0.097,1.412,0.291c0.417,0.194,0.77,0.459,1.06,0.796c0.29,0.337,0.512,0.735,0.667,1.193
		c0.155,0.458,0.232,0.954,0.232,1.487v0.15c0,0.533-0.078,1.028-0.232,1.483c-0.154,0.455-0.377,0.852-0.667,1.189
		c-0.29,0.337-0.642,0.602-1.056,0.793c-0.414,0.191-0.882,0.287-1.401,0.287c-0.524,0-0.995-0.096-1.412-0.287
		c-0.417-0.191-0.77-0.456-1.06-0.793c-0.29-0.337-0.512-0.734-0.667-1.189c-0.155-0.455-0.232-0.95-0.232-1.483V181.46z
		 M112.272,181.61c0,0.365,0.043,0.712,0.13,1.042c0.087,0.33,0.218,0.621,0.393,0.872c0.175,0.251,0.396,0.449,0.66,0.595
		c0.264,0.146,0.572,0.219,0.923,0.219c0.346,0,0.65-0.073,0.913-0.219s0.481-0.344,0.656-0.595
		c0.175-0.251,0.307-0.541,0.393-0.872s0.13-0.678,0.13-1.042v-0.15c0-0.36-0.044-0.705-0.133-1.036s-0.221-0.621-0.396-0.872
		c-0.175-0.251-0.394-0.45-0.656-0.598c-0.262-0.148-0.568-0.222-0.919-0.222c-0.351,0-0.656,0.074-0.916,0.222
		c-0.26,0.148-0.478,0.348-0.653,0.598c-0.175,0.25-0.307,0.541-0.393,0.872c-0.086,0.331-0.13,0.676-0.13,1.036v0.15H112.272z"/>
	<path d="M120.899,177.83l0.089,1.094c0.269-0.383,0.599-0.683,0.991-0.899c0.392-0.216,0.83-0.327,1.312-0.332
		c0.387,0,0.739,0.055,1.056,0.164c0.317,0.109,0.587,0.28,0.81,0.513c0.223,0.233,0.396,0.527,0.516,0.885s0.181,0.783,0.181,1.275
		v4.696h-1.265v-4.669c0-0.328-0.037-0.606-0.109-0.834s-0.181-0.413-0.325-0.554s-0.319-0.244-0.526-0.308
		s-0.445-0.096-0.714-0.096c-0.424,0-0.796,0.106-1.118,0.318c-0.322,0.212-0.578,0.491-0.769,0.837v5.305h-1.265v-7.396
		L120.899,177.83L120.899,177.83z"/>
</g>
<g>
	<rect x="187.595" y="174.727" fill="none" width="157.188" height="20.811"/>
	<path d="M235.202,184.153h4.867v1.073h-6.132v-9.953h1.265V184.153z"/>
	<path d="M241.819,181.46c0-0.533,0.078-1.029,0.232-1.487c0.154-0.458,0.377-0.855,0.667-1.193c0.29-0.338,0.642-0.604,1.056-0.796
		s0.882-0.291,1.401-0.291c0.524,0,0.995,0.097,1.412,0.291c0.417,0.194,0.77,0.459,1.06,0.796c0.29,0.337,0.512,0.735,0.667,1.193
		s0.232,0.954,0.232,1.487v0.15c0,0.533-0.078,1.028-0.232,1.483c-0.154,0.455-0.377,0.852-0.667,1.189
		c-0.29,0.337-0.642,0.602-1.056,0.793c-0.414,0.191-0.882,0.287-1.401,0.287c-0.524,0-0.995-0.096-1.412-0.287
		c-0.417-0.191-0.77-0.456-1.06-0.793c-0.29-0.337-0.512-0.734-0.667-1.189c-0.155-0.455-0.232-0.95-0.232-1.483V181.46z
		 M243.084,181.61c0,0.365,0.043,0.712,0.13,1.042c0.087,0.33,0.218,0.621,0.393,0.872c0.175,0.251,0.396,0.449,0.66,0.595
		s0.572,0.219,0.923,0.219c0.346,0,0.65-0.073,0.913-0.219s0.481-0.344,0.656-0.595c0.175-0.251,0.307-0.541,0.393-0.872
		c0.086-0.331,0.13-0.678,0.13-1.042v-0.15c0-0.36-0.044-0.705-0.133-1.036c-0.089-0.331-0.221-0.621-0.396-0.872
		c-0.175-0.251-0.394-0.45-0.656-0.598c-0.262-0.148-0.568-0.222-0.919-0.222s-0.656,0.074-0.916,0.222
		c-0.26,0.148-0.478,0.348-0.653,0.598c-0.175,0.25-0.307,0.541-0.393,0.872s-0.13,0.676-0.13,1.036v0.15H243.084z"/>
	<path d="M253.728,184.338c0.228,0,0.45-0.037,0.667-0.109c0.217-0.072,0.409-0.174,0.578-0.304c0.169-0.13,0.304-0.283,0.407-0.458
		c0.103-0.175,0.156-0.366,0.161-0.571h1.196c-0.004,0.328-0.09,0.642-0.256,0.94s-0.389,0.561-0.667,0.786s-0.597,0.406-0.957,0.54
		c-0.36,0.134-0.736,0.202-1.128,0.202c-0.561,0-1.05-0.1-1.47-0.301s-0.769-0.471-1.049-0.81c-0.28-0.339-0.491-0.731-0.632-1.176
		c-0.141-0.445-0.212-0.913-0.212-1.405v-0.287c0-0.488,0.071-0.955,0.212-1.401c0.141-0.446,0.352-0.84,0.632-1.179
		c0.28-0.339,0.63-0.609,1.049-0.81c0.419-0.201,0.909-0.301,1.47-0.301c0.438,0,0.84,0.069,1.207,0.208
		c0.367,0.139,0.684,0.328,0.95,0.567c0.266,0.239,0.475,0.523,0.625,0.851c0.15,0.328,0.226,0.679,0.226,1.053h-1.196
		c-0.004-0.223-0.054-0.434-0.147-0.632c-0.093-0.198-0.22-0.373-0.379-0.523c-0.159-0.15-0.35-0.269-0.571-0.355
		c-0.221-0.086-0.459-0.13-0.714-0.13c-0.392,0-0.721,0.079-0.988,0.236c-0.267,0.157-0.482,0.362-0.646,0.615
		c-0.164,0.253-0.281,0.537-0.352,0.851c-0.071,0.314-0.106,0.631-0.106,0.95v0.287c0,0.324,0.035,0.644,0.106,0.96
		c0.071,0.316,0.187,0.602,0.349,0.854c0.162,0.252,0.376,0.458,0.643,0.615C253.003,184.258,253.331,184.338,253.728,184.338z"/>
	<path d="M261.192,181.774l-0.93,0.896v2.557h-1.271v-10.5h1.271v6.426l0.827-0.889l2.427-2.434h1.538l-2.994,3.083l3.452,4.313
		h-1.605L261.192,181.774z"/>
	<path d="M270.373,176.039v1.791h2.816v0.978h-2.816v4.02c0,0.287,0.037,0.524,0.109,0.711c0.072,0.187,0.173,0.336,0.301,0.448
		c0.128,0.112,0.274,0.19,0.441,0.236c0.167,0.046,0.343,0.068,0.53,0.068c0.137,0,0.278-0.008,0.424-0.024
		c0.146-0.016,0.288-0.035,0.427-0.058s0.269-0.047,0.39-0.072c0.121-0.025,0.22-0.047,0.297-0.065l0.178,0.896
		c-0.105,0.064-0.232,0.12-0.383,0.167c-0.151,0.047-0.314,0.089-0.492,0.123c-0.178,0.034-0.366,0.061-0.564,0.079
		c-0.198,0.018-0.396,0.027-0.591,0.027c-0.328,0-0.635-0.047-0.919-0.14c-0.284-0.093-0.532-0.242-0.742-0.444
		c-0.21-0.202-0.375-0.465-0.496-0.786c-0.121-0.321-0.181-0.71-0.181-1.166v-4.02h-1.941v-0.978h1.941v-1.791H270.373
		L270.373,176.039z"/>
	<path d="M275.979,177.83h3.78v6.303h2.413v1.094h-6.193v-1.094h2.516v-5.202h-2.516V177.83z M278.33,175.889
		c0-0.209,0.062-0.386,0.188-0.53s0.315-0.215,0.571-0.215c0.25,0,0.44,0.072,0.567,0.215c0.127,0.143,0.191,0.32,0.191,0.53
		c0,0.205-0.064,0.376-0.191,0.513c-0.127,0.137-0.317,0.205-0.567,0.205c-0.255,0-0.445-0.068-0.571-0.205
		C278.392,176.265,278.33,176.094,278.33,175.889z"/>
	<path d="M284.763,177.83l0.034,0.697c0.15-0.26,0.348-0.462,0.591-0.608c0.243-0.146,0.539-0.221,0.885-0.226
		c0.679,0,1.132,0.264,1.36,0.793c0.146-0.237,0.338-0.427,0.578-0.571c0.24-0.144,0.53-0.218,0.872-0.222
		c0.542,0,0.959,0.167,1.251,0.499s0.438,0.836,0.438,1.511v5.523h-1.203v-5.537c0-0.62-0.285-0.927-0.854-0.923
		c-0.15,0-0.28,0.021-0.39,0.062c-0.11,0.041-0.201,0.097-0.273,0.167c-0.072,0.07-0.13,0.153-0.171,0.246
		c-0.041,0.093-0.068,0.19-0.082,0.291v5.694h-1.203v-5.544c0-0.296-0.066-0.524-0.198-0.684s-0.342-0.237-0.629-0.232
		c-0.264,0-0.469,0.052-0.615,0.157s-0.253,0.244-0.321,0.417v5.886h-1.203v-7.396H284.763z"/>
	<path d="M295.851,185.363c-0.52,0-0.997-0.089-1.432-0.267c-0.435-0.178-0.808-0.426-1.118-0.745
		c-0.31-0.319-0.551-0.697-0.725-1.135c-0.174-0.438-0.26-0.914-0.26-1.429V181.5c0-0.597,0.096-1.131,0.287-1.603
		s0.445-0.871,0.762-1.196c0.317-0.325,0.677-0.575,1.08-0.749c0.403-0.174,0.817-0.26,1.241-0.26c0.533,0,0.999,0.092,1.398,0.277
		c0.399,0.185,0.73,0.44,0.995,0.766c0.265,0.326,0.461,0.71,0.591,1.152c0.13,0.442,0.195,0.92,0.195,1.436v0.567h-5.284
		c0.014,0.337,0.079,0.654,0.195,0.95c0.116,0.296,0.276,0.555,0.479,0.776c0.203,0.221,0.445,0.396,0.728,0.523
		c0.283,0.127,0.595,0.191,0.937,0.191c0.451,0,0.852-0.091,1.203-0.273s0.643-0.424,0.875-0.725l0.772,0.602
		c-0.123,0.187-0.277,0.366-0.461,0.537c-0.184,0.171-0.397,0.322-0.639,0.455c-0.242,0.133-0.515,0.238-0.82,0.318
		C296.545,185.324,296.21,185.363,295.851,185.363z M295.687,178.732c-0.255,0-0.497,0.047-0.725,0.14
		c-0.228,0.093-0.433,0.23-0.615,0.41c-0.182,0.18-0.336,0.401-0.461,0.663c-0.125,0.262-0.213,0.564-0.263,0.906h3.979v-0.096
		c-0.014-0.246-0.061-0.49-0.14-0.731c-0.079-0.241-0.197-0.458-0.352-0.649c-0.155-0.191-0.35-0.346-0.584-0.465
		C296.292,178.791,296.01,178.732,295.687,178.732z"/>
</g>
<g>
	<rect x="161.221" y="375.363" fill="none" width="168.141" height="54.087"/>
	<path d="M221.827,383.286h-3.322l-0.8,2.577h-1.265l3.213-9.953h1.06l3.158,9.953h-1.258L221.827,383.286z M218.847,382.186h2.646
		l-1.312-4.319L218.847,382.186z"/>
	<path d="M225.676,375.363h3.78v9.405h2.413v1.095h-6.193v-1.095h2.516v-8.306h-2.516V375.363z"/>
	<path d="M234.077,378.467h3.78v6.303h2.413v1.095h-6.193v-1.095h2.516v-5.201h-2.516V378.467z M236.429,376.525
		c0-0.209,0.062-0.387,0.188-0.53c0.126-0.145,0.315-0.215,0.571-0.215c0.25,0,0.44,0.071,0.567,0.215
		c0.127,0.143,0.191,0.32,0.191,0.53c0,0.205-0.064,0.376-0.191,0.513s-0.317,0.205-0.567,0.205c-0.255,0-0.445-0.068-0.571-0.205
		S236.429,376.73,236.429,376.525z"/>
	<path d="M245.432,384.975c0.228,0,0.45-0.036,0.667-0.108c0.217-0.072,0.409-0.174,0.578-0.304
		c0.169-0.131,0.304-0.283,0.407-0.459c0.103-0.175,0.156-0.365,0.161-0.57h1.196c-0.004,0.328-0.09,0.642-0.256,0.939
		c-0.166,0.299-0.389,0.562-0.667,0.786c-0.278,0.228-0.597,0.406-0.957,0.541c-0.36,0.134-0.736,0.201-1.128,0.201
		c-0.561,0-1.05-0.1-1.47-0.301s-0.769-0.472-1.049-0.811c-0.28-0.339-0.491-0.73-0.632-1.176c-0.141-0.445-0.212-0.913-0.212-1.405
		v-0.286c0-0.488,0.071-0.955,0.212-1.401c0.141-0.446,0.352-0.84,0.632-1.179c0.28-0.339,0.63-0.609,1.049-0.811
		s0.909-0.301,1.47-0.301c0.438,0,0.84,0.069,1.207,0.208c0.367,0.139,0.684,0.328,0.95,0.567c0.266,0.238,0.475,0.522,0.625,0.851
		c0.15,0.328,0.226,0.679,0.226,1.053h-1.196c-0.004-0.223-0.054-0.434-0.147-0.632c-0.093-0.198-0.22-0.373-0.379-0.522
		c-0.159-0.15-0.35-0.27-0.571-0.355s-0.459-0.13-0.714-0.13c-0.392,0-0.721,0.079-0.988,0.236
		c-0.267,0.156-0.482,0.361-0.646,0.614s-0.281,0.537-0.352,0.852c-0.071,0.313-0.106,0.631-0.106,0.95v0.286
		c0,0.324,0.035,0.645,0.106,0.96c0.071,0.316,0.187,0.603,0.349,0.854s0.376,0.458,0.643,0.615
		C244.707,384.895,245.035,384.975,245.432,384.975z"/>
	<path d="M253.949,386c-0.52,0-0.997-0.089-1.432-0.267c-0.435-0.179-0.808-0.428-1.118-0.745c-0.31-0.319-0.551-0.697-0.725-1.136
		c-0.174-0.438-0.26-0.913-0.26-1.429v-0.287c0-0.597,0.096-1.131,0.287-1.603c0.191-0.472,0.445-0.871,0.762-1.196
		s0.677-0.575,1.08-0.749s0.817-0.26,1.241-0.26c0.533,0,0.999,0.092,1.398,0.277c0.399,0.185,0.73,0.439,0.995,0.766
		c0.265,0.326,0.461,0.71,0.591,1.152c0.13,0.441,0.195,0.92,0.195,1.436v0.567h-5.284c0.014,0.337,0.079,0.653,0.195,0.949
		c0.116,0.297,0.276,0.556,0.479,0.776s0.445,0.396,0.728,0.523s0.595,0.19,0.937,0.19c0.451,0,0.852-0.091,1.203-0.272
		c0.351-0.183,0.643-0.425,0.875-0.726l0.772,0.603c-0.123,0.187-0.277,0.366-0.461,0.536c-0.185,0.172-0.397,0.321-0.639,0.455
		c-0.242,0.133-0.515,0.237-0.82,0.317C254.642,385.96,254.309,386,253.949,386z M253.785,379.369c-0.255,0-0.497,0.047-0.725,0.14
		s-0.433,0.23-0.615,0.41c-0.182,0.18-0.336,0.401-0.461,0.663s-0.213,0.564-0.263,0.906h3.979v-0.097
		c-0.014-0.245-0.061-0.489-0.14-0.73s-0.197-0.458-0.352-0.649c-0.155-0.19-0.35-0.346-0.584-0.465
		S254.109,379.369,253.785,379.369z"/>
	<path d="M262.925,376.218c0,0.214-0.026,0.44-0.079,0.677c-0.053,0.237-0.13,0.472-0.231,0.701c-0.103,0.23-0.228,0.45-0.373,0.66
		c-0.146,0.21-0.314,0.396-0.506,0.562l-0.69-0.492c0.214-0.324,0.375-0.654,0.482-0.991s0.161-0.702,0.161-1.094v-1.025h1.237
		V376.218z"/>
	<path d="M272.399,383.901c0-0.15-0.03-0.286-0.089-0.407s-0.16-0.231-0.301-0.332c-0.141-0.102-0.328-0.192-0.561-0.277
		c-0.233-0.085-0.522-0.161-0.868-0.229c-0.424-0.086-0.81-0.191-1.159-0.314c-0.349-0.123-0.647-0.27-0.896-0.44
		c-0.249-0.172-0.441-0.372-0.578-0.603c-0.137-0.229-0.205-0.498-0.205-0.803c0-0.301,0.071-0.582,0.212-0.844
		c0.141-0.263,0.339-0.491,0.595-0.688c0.256-0.196,0.56-0.351,0.913-0.465s0.742-0.171,1.166-0.171c0.456,0,0.866,0.059,1.23,0.178
		c0.364,0.119,0.674,0.283,0.93,0.492s0.452,0.455,0.591,0.735c0.139,0.279,0.208,0.582,0.208,0.905h-1.265
		c0-0.159-0.041-0.314-0.123-0.468s-0.196-0.288-0.342-0.407s-0.322-0.214-0.53-0.287c-0.208-0.072-0.441-0.108-0.701-0.108
		c-0.269,0-0.505,0.03-0.708,0.089s-0.372,0.139-0.506,0.239c-0.134,0.1-0.236,0.216-0.304,0.349s-0.103,0.27-0.103,0.41
		c0,0.146,0.027,0.276,0.082,0.39c0.055,0.114,0.149,0.217,0.284,0.309c0.135,0.092,0.314,0.173,0.54,0.246
		c0.226,0.072,0.512,0.144,0.858,0.212c0.456,0.096,0.864,0.206,1.224,0.332c0.36,0.126,0.663,0.275,0.909,0.45
		c0.246,0.176,0.434,0.38,0.564,0.612c0.13,0.233,0.195,0.501,0.195,0.808c0,0.327-0.074,0.626-0.222,0.896
		c-0.148,0.271-0.354,0.499-0.619,0.69c-0.265,0.19-0.581,0.34-0.95,0.443c-0.369,0.104-0.772,0.157-1.21,0.157
		c-0.501,0-0.948-0.067-1.34-0.201c-0.392-0.135-0.724-0.312-0.995-0.533s-0.479-0.478-0.622-0.77s-0.215-0.595-0.215-0.909h1.265
		c0.018,0.26,0.088,0.479,0.208,0.656s0.271,0.321,0.451,0.431c0.18,0.11,0.379,0.188,0.598,0.232
		c0.219,0.045,0.436,0.067,0.649,0.067c0.533,0,0.955-0.098,1.265-0.294C272.234,384.485,272.395,384.225,272.399,383.901z"/>
	<path d="M169.936,402.8c-0.52,0-0.997-0.089-1.432-0.267s-0.808-0.426-1.118-0.745c-0.31-0.319-0.551-0.697-0.725-1.135
		c-0.174-0.438-0.26-0.913-0.26-1.43v-0.286c0-0.599,0.096-1.132,0.287-1.604c0.191-0.471,0.445-0.87,0.762-1.195
		c0.317-0.325,0.677-0.575,1.08-0.749c0.403-0.173,0.817-0.26,1.241-0.26c0.533,0,0.999,0.093,1.398,0.276
		c0.399,0.186,0.73,0.439,0.995,0.766c0.264,0.326,0.461,0.711,0.591,1.152c0.13,0.44,0.195,0.92,0.195,1.436v0.567h-5.284
		c0.014,0.337,0.079,0.652,0.195,0.95c0.116,0.297,0.276,0.555,0.479,0.774c0.203,0.223,0.445,0.396,0.728,0.523
		c0.283,0.127,0.595,0.19,0.937,0.19c0.451,0,0.852-0.092,1.203-0.272c0.351-0.182,0.643-0.424,0.875-0.726l0.772,0.603
		c-0.123,0.188-0.277,0.365-0.461,0.537c-0.185,0.17-0.397,0.321-0.639,0.454c-0.242,0.132-0.515,0.237-0.82,0.316
		C170.628,402.76,170.295,402.8,169.936,402.8z M169.771,396.169c-0.255,0-0.497,0.047-0.725,0.14
		c-0.228,0.095-0.433,0.23-0.615,0.41c-0.182,0.182-0.336,0.401-0.461,0.664c-0.125,0.262-0.213,0.563-0.263,0.905h3.979v-0.096
		c-0.014-0.246-0.061-0.489-0.14-0.731s-0.197-0.458-0.352-0.648c-0.155-0.191-0.35-0.348-0.584-0.466
		C170.376,396.229,170.095,396.169,169.771,396.169z"/>
	<path d="M176.204,395.267l0.089,1.095c0.269-0.384,0.599-0.684,0.991-0.899c0.392-0.216,0.83-0.326,1.312-0.331
		c0.387,0,0.739,0.055,1.056,0.164s0.587,0.28,0.81,0.513c0.223,0.233,0.396,0.527,0.516,0.886c0.121,0.357,0.181,0.782,0.181,1.274
		v4.696h-1.265v-4.669c0-0.328-0.037-0.605-0.109-0.834c-0.072-0.229-0.181-0.412-0.325-0.554c-0.144-0.143-0.319-0.243-0.526-0.309
		c-0.207-0.064-0.445-0.096-0.714-0.096c-0.424,0-0.796,0.104-1.118,0.318c-0.321,0.211-0.578,0.489-0.769,0.837v5.305h-1.265
		v-7.396H176.204z"/>
	<path d="M183.231,398.903c0-0.553,0.069-1.06,0.208-1.521c0.139-0.463,0.337-0.86,0.595-1.192c0.258-0.332,0.568-0.593,0.933-0.779
		c0.365-0.188,0.772-0.28,1.224-0.28c0.442,0,0.828,0.074,1.159,0.222c0.331,0.148,0.616,0.363,0.858,0.646v-3.835h1.265v10.5
		h-1.162l-0.055-0.779c-0.246,0.301-0.54,0.528-0.882,0.685c-0.342,0.155-0.741,0.231-1.196,0.231c-0.447,0-0.851-0.096-1.213-0.287
		c-0.362-0.19-0.671-0.456-0.926-0.793s-0.454-0.734-0.595-1.191c-0.141-0.459-0.212-0.951-0.212-1.48L183.231,398.903
		L183.231,398.903z M184.496,399.047c0,0.359,0.039,0.701,0.116,1.025c0.077,0.324,0.197,0.607,0.359,0.854
		c0.162,0.246,0.368,0.44,0.619,0.585c0.25,0.144,0.551,0.215,0.902,0.215c0.214,0,0.408-0.024,0.581-0.074
		c0.173-0.051,0.331-0.122,0.472-0.217c0.141-0.093,0.267-0.204,0.376-0.334c0.109-0.131,0.205-0.274,0.287-0.435v-3.432
		c-0.164-0.302-0.385-0.549-0.663-0.741c-0.278-0.194-0.625-0.291-1.039-0.291c-0.355,0-0.66,0.072-0.913,0.219
		c-0.253,0.147-0.46,0.343-0.622,0.592c-0.162,0.248-0.281,0.535-0.359,0.861c-0.078,0.325-0.116,0.668-0.116,1.028V399.047
		L184.496,399.047z"/>
	<path d="M191.517,398.896c0-0.533,0.078-1.029,0.232-1.486c0.155-0.459,0.377-0.855,0.667-1.193s0.642-0.603,1.056-0.797
		c0.415-0.193,0.882-0.29,1.401-0.29c0.524,0,0.995,0.097,1.412,0.29c0.417,0.194,0.77,0.459,1.06,0.797
		c0.29,0.338,0.512,0.734,0.667,1.193c0.155,0.457,0.232,0.953,0.232,1.486v0.149c0,0.533-0.078,1.027-0.232,1.483
		c-0.154,0.456-0.377,0.853-0.667,1.188c-0.29,0.336-0.642,0.603-1.056,0.793c-0.414,0.191-0.882,0.287-1.401,0.287
		c-0.524,0-0.995-0.096-1.412-0.287c-0.417-0.19-0.77-0.456-1.06-0.793s-0.512-0.732-0.667-1.188
		c-0.155-0.456-0.232-0.95-0.232-1.483V398.896z M192.781,399.047c0,0.365,0.043,0.712,0.13,1.043
		c0.086,0.33,0.218,0.621,0.393,0.871c0.175,0.25,0.396,0.449,0.66,0.595c0.264,0.146,0.572,0.22,0.923,0.22
		c0.346,0,0.65-0.073,0.913-0.22c0.263-0.146,0.481-0.345,0.656-0.595s0.307-0.541,0.393-0.871c0.086-0.331,0.13-0.678,0.13-1.043
		v-0.149c0-0.359-0.044-0.705-0.133-1.035c-0.089-0.331-0.221-0.621-0.396-0.872c-0.175-0.251-0.394-0.45-0.656-0.6
		c-0.262-0.146-0.568-0.222-0.919-0.222s-0.656,0.074-0.916,0.222c-0.26,0.148-0.478,0.349-0.653,0.6
		c-0.175,0.251-0.307,0.541-0.393,0.872c-0.086,0.33-0.13,0.676-0.13,1.035v0.149H192.781z"/>
	<path d="M205.12,395.13c0.119,0,0.242,0.003,0.369,0.011c0.127,0.007,0.25,0.019,0.366,0.033c0.116,0.018,0.223,0.035,0.321,0.06
		c0.098,0.023,0.179,0.048,0.243,0.074l-0.171,1.237c-0.246-0.055-0.479-0.095-0.701-0.119c-0.221-0.024-0.452-0.038-0.694-0.038
		c-0.592,0-1.072,0.135-1.439,0.403c-0.367,0.269-0.637,0.645-0.81,1.128v4.744h-1.271v-7.396h1.203l0.062,1.177
		c0.301-0.405,0.662-0.727,1.083-0.96C204.103,395.247,204.583,395.13,205.12,395.13z"/>
	<path d="M213.59,400.701c0-0.15-0.03-0.286-0.089-0.406c-0.059-0.121-0.16-0.232-0.301-0.332c-0.141-0.1-0.328-0.191-0.561-0.277
		c-0.232-0.084-0.522-0.159-0.868-0.229c-0.424-0.086-0.81-0.191-1.159-0.314c-0.349-0.123-0.647-0.27-0.896-0.44
		c-0.249-0.17-0.441-0.371-0.578-0.603c-0.137-0.229-0.205-0.498-0.205-0.803c0-0.301,0.071-0.582,0.212-0.844
		c0.141-0.263,0.339-0.492,0.595-0.688c0.256-0.195,0.56-0.352,0.913-0.465s0.742-0.171,1.166-0.171c0.456,0,0.866,0.061,1.23,0.178
		c0.364,0.118,0.674,0.282,0.93,0.492s0.452,0.454,0.591,0.735c0.139,0.278,0.208,0.582,0.208,0.905h-1.265
		c0-0.159-0.041-0.315-0.123-0.469c-0.082-0.152-0.196-0.289-0.342-0.406c-0.146-0.118-0.322-0.215-0.53-0.287
		c-0.208-0.073-0.441-0.109-0.701-0.109c-0.269,0-0.505,0.03-0.708,0.089c-0.203,0.06-0.372,0.14-0.506,0.239
		c-0.134,0.1-0.236,0.216-0.304,0.349c-0.068,0.133-0.103,0.271-0.103,0.41c0,0.146,0.027,0.275,0.082,0.39
		c0.055,0.115,0.149,0.217,0.284,0.309c0.135,0.092,0.314,0.174,0.54,0.246s0.512,0.144,0.858,0.212
		c0.456,0.096,0.864,0.206,1.224,0.331c0.36,0.126,0.663,0.275,0.909,0.451c0.246,0.176,0.434,0.38,0.564,0.611
		c0.13,0.232,0.195,0.501,0.195,0.808c0,0.328-0.074,0.626-0.222,0.896c-0.148,0.271-0.354,0.499-0.619,0.69
		c-0.265,0.19-0.581,0.339-0.95,0.443c-0.369,0.105-0.772,0.157-1.21,0.157c-0.501,0-0.948-0.066-1.34-0.202
		c-0.392-0.134-0.724-0.312-0.995-0.532c-0.271-0.222-0.479-0.478-0.622-0.77s-0.215-0.595-0.215-0.909h1.265
		c0.018,0.261,0.088,0.479,0.208,0.656c0.12,0.177,0.271,0.321,0.451,0.431c0.18,0.11,0.379,0.188,0.598,0.232
		c0.219,0.045,0.435,0.068,0.649,0.068c0.533,0,0.955-0.1,1.265-0.294C213.425,401.284,213.585,401.025,213.59,400.701z"/>
	<path d="M220.344,402.8c-0.52,0-0.997-0.089-1.432-0.267s-0.808-0.426-1.118-0.745s-0.551-0.697-0.725-1.135
		c-0.174-0.438-0.26-0.913-0.26-1.43v-0.286c0-0.599,0.096-1.132,0.287-1.604c0.191-0.471,0.445-0.87,0.762-1.195
		s0.677-0.575,1.08-0.749c0.403-0.173,0.817-0.26,1.241-0.26c0.533,0,0.999,0.093,1.398,0.276c0.399,0.186,0.73,0.439,0.995,0.766
		c0.264,0.326,0.461,0.711,0.591,1.152c0.13,0.44,0.195,0.92,0.195,1.436v0.567h-5.284c0.014,0.337,0.079,0.652,0.195,0.95
		c0.116,0.297,0.276,0.555,0.479,0.774c0.203,0.223,0.445,0.396,0.728,0.523c0.283,0.127,0.595,0.19,0.937,0.19
		c0.451,0,0.852-0.092,1.203-0.272c0.351-0.182,0.643-0.424,0.875-0.726l0.772,0.603c-0.123,0.188-0.277,0.365-0.461,0.537
		c-0.185,0.17-0.397,0.321-0.639,0.454c-0.242,0.132-0.515,0.237-0.82,0.316C221.037,402.76,220.704,402.8,220.344,402.8z
		 M220.18,396.169c-0.255,0-0.497,0.047-0.725,0.14c-0.228,0.095-0.433,0.23-0.615,0.41c-0.182,0.182-0.336,0.401-0.461,0.664
		c-0.125,0.262-0.213,0.563-0.263,0.905h3.979v-0.096c-0.014-0.246-0.061-0.489-0.14-0.731s-0.197-0.458-0.352-0.648
		c-0.155-0.191-0.35-0.348-0.584-0.466C220.785,396.229,220.503,396.169,220.18,396.169z"/>
	<path d="M226.059,395.267l0.034,0.697c0.15-0.26,0.348-0.462,0.591-0.607c0.243-0.146,0.539-0.222,0.885-0.227
		c0.679,0,1.132,0.265,1.36,0.793c0.146-0.237,0.338-0.427,0.578-0.571c0.239-0.143,0.53-0.217,0.872-0.222
		c0.542,0,0.959,0.167,1.251,0.499s0.438,0.836,0.438,1.511v5.523h-1.203v-5.537c0-0.62-0.285-0.927-0.854-0.923
		c-0.15,0-0.28,0.021-0.39,0.062c-0.11,0.041-0.201,0.098-0.273,0.167c-0.073,0.071-0.13,0.153-0.171,0.246
		c-0.041,0.094-0.068,0.191-0.082,0.291v5.694h-1.203v-5.544c0-0.297-0.066-0.523-0.198-0.685c-0.132-0.16-0.342-0.235-0.629-0.231
		c-0.264,0-0.469,0.053-0.615,0.157c-0.146,0.104-0.253,0.242-0.321,0.417v5.886h-1.203v-7.396H226.059L226.059,395.267z"/>
	<path d="M237.146,402.8c-0.52,0-0.997-0.089-1.432-0.267s-0.808-0.426-1.118-0.745s-0.551-0.697-0.725-1.135
		c-0.174-0.438-0.26-0.913-0.26-1.43v-0.286c0-0.599,0.096-1.132,0.287-1.604c0.191-0.471,0.445-0.87,0.762-1.195
		c0.317-0.325,0.677-0.575,1.08-0.749c0.403-0.173,0.817-0.26,1.241-0.26c0.533,0,0.999,0.093,1.398,0.276
		c0.399,0.186,0.73,0.439,0.995,0.766c0.264,0.326,0.461,0.711,0.591,1.152c0.13,0.44,0.195,0.92,0.195,1.436v0.567h-5.284
		c0.014,0.337,0.079,0.652,0.195,0.95c0.116,0.297,0.276,0.555,0.479,0.774c0.203,0.223,0.445,0.396,0.728,0.523
		c0.283,0.127,0.595,0.19,0.937,0.19c0.451,0,0.852-0.092,1.203-0.272c0.351-0.182,0.643-0.424,0.875-0.726l0.772,0.603
		c-0.123,0.188-0.277,0.365-0.461,0.537c-0.185,0.17-0.397,0.321-0.639,0.454c-0.242,0.132-0.515,0.237-0.82,0.316
		C237.839,402.76,237.506,402.8,237.146,402.8z M236.982,396.169c-0.255,0-0.497,0.047-0.725,0.14
		c-0.228,0.095-0.433,0.23-0.615,0.41c-0.182,0.182-0.336,0.401-0.461,0.664c-0.125,0.262-0.213,0.563-0.263,0.905h3.979v-0.096
		c-0.014-0.246-0.061-0.489-0.14-0.731s-0.197-0.458-0.352-0.648c-0.155-0.191-0.35-0.348-0.584-0.466
		C237.587,396.229,237.306,396.169,236.982,396.169z"/>
	<path d="M243.415,395.267l0.089,1.095c0.269-0.384,0.599-0.684,0.991-0.899c0.392-0.216,0.83-0.326,1.312-0.331
		c0.387,0,0.739,0.055,1.056,0.164c0.317,0.109,0.587,0.28,0.81,0.513c0.223,0.233,0.396,0.527,0.516,0.886
		c0.121,0.357,0.181,0.782,0.181,1.274v4.696h-1.265v-4.669c0-0.328-0.037-0.605-0.109-0.834c-0.072-0.229-0.181-0.412-0.325-0.554
		c-0.144-0.143-0.319-0.243-0.526-0.309c-0.207-0.064-0.445-0.096-0.714-0.096c-0.424,0-0.796,0.104-1.118,0.318
		c-0.321,0.211-0.578,0.489-0.769,0.837v5.305h-1.265v-7.396H243.415z"/>
	<path d="M253.676,393.476v1.791h2.816v0.979h-2.816v4.02c0,0.287,0.037,0.523,0.109,0.711c0.072,0.188,0.173,0.336,0.301,0.447
		c0.127,0.112,0.274,0.191,0.441,0.236s0.343,0.067,0.53,0.067c0.137,0,0.278-0.008,0.424-0.022c0.146-0.018,0.288-0.035,0.427-0.06
		c0.139-0.023,0.269-0.047,0.39-0.071s0.22-0.047,0.297-0.064l0.178,0.896c-0.105,0.062-0.232,0.12-0.383,0.167
		c-0.15,0.049-0.314,0.09-0.492,0.123c-0.178,0.034-0.366,0.061-0.564,0.079c-0.198,0.018-0.396,0.026-0.591,0.026
		c-0.328,0-0.635-0.047-0.919-0.14c-0.285-0.094-0.532-0.242-0.742-0.445c-0.209-0.202-0.375-0.465-0.496-0.785
		c-0.121-0.321-0.181-0.711-0.181-1.166v-4.02h-1.941v-0.979h1.941v-1.791H253.676L253.676,393.476z"/>
	<path d="M260.334,398.623c0-0.652,0.051-1.265,0.154-1.839c0.103-0.574,0.24-1.106,0.414-1.597
		c0.173-0.489,0.373-0.938,0.598-1.344c0.225-0.404,0.462-0.766,0.711-1.08c0.249-0.313,0.498-0.583,0.749-0.807
		s0.49-0.399,0.718-0.526l0.267,0.834c-0.283,0.216-0.564,0.507-0.844,0.875c-0.28,0.369-0.531,0.816-0.752,1.345
		c-0.221,0.524-0.401,1.132-0.54,1.817c-0.139,0.687-0.208,1.455-0.208,2.308v0.096c0,0.852,0.069,1.623,0.208,2.311
		c0.139,0.688,0.319,1.298,0.54,1.825c0.221,0.528,0.472,0.981,0.752,1.356c0.28,0.377,0.562,0.678,0.844,0.906l-0.267,0.771
		c-0.228-0.128-0.468-0.302-0.721-0.521c-0.253-0.223-0.503-0.49-0.752-0.808c-0.249-0.316-0.485-0.678-0.711-1.08
		c-0.226-0.403-0.424-0.851-0.595-1.34c-0.171-0.49-0.308-1.021-0.41-1.597s-0.154-1.188-0.154-1.839L260.334,398.623
		L260.334,398.623z"/>
	<path d="M272.693,400.147c0-0.307-0.069-0.563-0.208-0.772s-0.318-0.387-0.537-0.529c-0.219-0.145-0.459-0.264-0.721-0.358
		c-0.262-0.096-0.514-0.183-0.755-0.261c-0.351-0.112-0.708-0.25-1.07-0.409c-0.362-0.16-0.693-0.355-0.991-0.589
		c-0.298-0.232-0.542-0.507-0.731-0.823s-0.284-0.689-0.284-1.117s0.095-0.812,0.284-1.148s0.437-0.622,0.742-0.854
		c0.305-0.232,0.652-0.409,1.039-0.53c0.387-0.12,0.777-0.181,1.169-0.181c0.433,0,0.85,0.07,1.251,0.216
		c0.401,0.143,0.756,0.345,1.066,0.604c0.31,0.26,0.558,0.574,0.745,0.943s0.285,0.782,0.294,1.237h-1.299
		c-0.037-0.287-0.107-0.548-0.212-0.783c-0.105-0.234-0.244-0.437-0.417-0.604c-0.173-0.168-0.379-0.3-0.619-0.394
		c-0.239-0.093-0.509-0.14-0.81-0.14c-0.242,0-0.478,0.033-0.708,0.103s-0.435,0.171-0.615,0.308
		c-0.18,0.138-0.324,0.307-0.431,0.507c-0.107,0.199-0.161,0.433-0.161,0.696c0.004,0.287,0.078,0.53,0.219,0.729
		c0.141,0.199,0.32,0.366,0.537,0.503c0.217,0.137,0.451,0.251,0.704,0.342s0.491,0.171,0.714,0.239
		c0.246,0.078,0.495,0.165,0.745,0.264s0.492,0.211,0.725,0.338s0.449,0.271,0.649,0.432c0.2,0.16,0.376,0.341,0.526,0.544
		c0.15,0.202,0.268,0.426,0.352,0.67c0.084,0.243,0.126,0.514,0.126,0.81c0,0.446-0.099,0.837-0.297,1.169
		c-0.198,0.332-0.455,0.609-0.769,0.83c-0.314,0.223-0.67,0.389-1.066,0.5s-0.793,0.167-1.189,0.167
		c-0.442,0-0.875-0.067-1.299-0.205c-0.424-0.137-0.803-0.334-1.138-0.591c-0.335-0.258-0.607-0.572-0.817-0.942
		c-0.209-0.372-0.321-0.796-0.335-1.27h1.292c0.041,0.311,0.125,0.585,0.253,0.823c0.127,0.24,0.292,0.441,0.492,0.608
		c0.201,0.166,0.432,0.291,0.694,0.375c0.262,0.085,0.548,0.127,0.858,0.127c0.246,0,0.489-0.03,0.728-0.092
		s0.452-0.158,0.639-0.287c0.187-0.131,0.339-0.295,0.458-0.491C272.634,400.656,272.693,400.421,272.693,400.147z"/>
	<path d="M275.886,392.71h6.016v1.101h-2.386v7.76h2.386v1.094h-6.016v-1.094h2.331v-7.76h-2.331V392.71z"/>
	<path d="M290.521,402.663h-1.285l-3.862-7.438l-0.021,7.438h-1.278v-9.953h1.285l3.862,7.424l0.021-7.424h1.278V402.663z"/>
	<path d="M299.128,401.357c-0.419,0.491-0.9,0.856-1.442,1.094c-0.542,0.236-1.137,0.354-1.784,0.349
		c-0.41-0.005-0.787-0.066-1.131-0.188c-0.344-0.12-0.653-0.287-0.926-0.498c-0.272-0.213-0.513-0.462-0.718-0.749
		s-0.377-0.6-0.516-0.934c-0.139-0.336-0.244-0.687-0.314-1.053c-0.071-0.367-0.108-0.738-0.113-1.111v-1.154
		c0.004-0.369,0.038-0.737,0.099-1.104c0.062-0.366,0.156-0.719,0.284-1.056s0.287-0.65,0.479-0.94
		c0.191-0.289,0.42-0.539,0.687-0.752c0.267-0.211,0.568-0.379,0.906-0.502c0.338-0.123,0.715-0.185,1.135-0.185
		c0.465,0,0.893,0.07,1.285,0.216c0.392,0.143,0.734,0.348,1.025,0.615c0.292,0.266,0.526,0.588,0.704,0.963
		c0.178,0.377,0.287,0.797,0.328,1.262h-1.251c-0.05-0.287-0.127-0.553-0.232-0.797c-0.104-0.243-0.243-0.451-0.414-0.625
		c-0.171-0.174-0.375-0.309-0.612-0.406c-0.237-0.099-0.513-0.146-0.827-0.146c-0.301,0-0.567,0.052-0.8,0.152
		c-0.232,0.104-0.435,0.24-0.608,0.414c-0.173,0.175-0.317,0.375-0.431,0.605c-0.114,0.229-0.208,0.473-0.28,0.728
		c-0.072,0.255-0.125,0.516-0.157,0.779c-0.032,0.264-0.048,0.52-0.048,0.766v1.169c0.004,0.25,0.026,0.511,0.065,0.775
		c0.039,0.268,0.099,0.527,0.181,0.783s0.187,0.496,0.314,0.725c0.127,0.229,0.281,0.429,0.461,0.603s0.389,0.311,0.625,0.414
		c0.237,0.102,0.506,0.155,0.807,0.159c0.173,0.005,0.354-0.002,0.543-0.021c0.189-0.02,0.373-0.055,0.55-0.109
		c0.177-0.054,0.344-0.129,0.499-0.222c0.155-0.094,0.285-0.216,0.39-0.366l0.014-2.234h-2.023v-1.066h3.227L299.128,401.357z"/>
	<path d="M302.519,401.59h4.867v1.073h-6.132v-9.953h1.265V401.59z"/>
	<path d="M314.967,398.062h-4.156v3.526h4.847v1.073h-6.111v-9.953h6.05v1.08h-4.785v3.199h4.156L314.967,398.062L314.967,398.062z"
		/>
	<path d="M322.507,398.691c0,0.651-0.051,1.265-0.154,1.839c-0.103,0.573-0.24,1.105-0.414,1.597
		c-0.173,0.489-0.373,0.936-0.598,1.34c-0.226,0.402-0.462,0.764-0.711,1.08s-0.499,0.585-0.752,0.807s-0.493,0.396-0.721,0.522
		l-0.267-0.772c0.283-0.209,0.564-0.502,0.844-0.879c0.28-0.375,0.531-0.83,0.752-1.362c0.221-0.533,0.401-1.146,0.54-1.839
		c0.139-0.693,0.208-1.467,0.208-2.317v-0.096c0-0.853-0.073-1.626-0.219-2.32c-0.146-0.695-0.334-1.312-0.564-1.846
		c-0.23-0.536-0.483-0.99-0.759-1.364s-0.543-0.665-0.803-0.875l0.267-0.772c0.228,0.127,0.468,0.304,0.721,0.526
		s0.503,0.492,0.752,0.807c0.249,0.315,0.485,0.676,0.711,1.08c0.226,0.405,0.425,0.854,0.598,1.343
		c0.173,0.49,0.311,1.022,0.414,1.598s0.154,1.187,0.154,1.839L322.507,398.691L322.507,398.691z"/>
</g>
<g>
	<rect x="498.347" y="408.051" fill="none" width="248.561" height="21.399"/>
	<path d="M593.674,418.277h-3.511l-1.129,2.522h-2.465l5.935-12.086h2.067l1.677,12.086h-2.333L593.674,418.277z M591.067,416.293
		h2.416l-0.423-4.424L591.067,416.293z"/>
	<path d="M600.173,408.051h4.881l-1.884,10.874h2.499l-0.332,1.876h-7.379l0.332-1.876h2.606l1.561-8.989h-2.615L600.173,408.051z"
		/>
	<path d="M609.628,411.819h4.756l-1.237,7.104h2.366l-0.332,1.876h-7.113l0.323-1.876h2.482l0.905-5.222h-2.482L609.628,411.819z
		 M612.342,409.562c0-0.188,0.033-0.36,0.101-0.516c0.066-0.155,0.158-0.289,0.277-0.402c0.119-0.112,0.258-0.201,0.415-0.266
		c0.158-0.063,0.328-0.096,0.511-0.096c0.178-0.006,0.344,0.02,0.498,0.074c0.155,0.056,0.291,0.137,0.407,0.24
		c0.116,0.104,0.209,0.232,0.278,0.383c0.068,0.148,0.104,0.314,0.104,0.497c0,0.188-0.032,0.359-0.1,0.516
		s-0.158,0.289-0.274,0.401c-0.115,0.114-0.254,0.202-0.415,0.267c-0.16,0.063-0.331,0.096-0.515,0.096
		c-0.177,0.005-0.343-0.02-0.498-0.075c-0.155-0.055-0.291-0.135-0.407-0.239c-0.115-0.105-0.209-0.232-0.277-0.383
		C612.377,409.91,612.342,409.744,612.342,409.562z"/>
	<path d="M621.589,419.133c0.221,0.005,0.433-0.021,0.635-0.084c0.202-0.061,0.385-0.149,0.548-0.27
		c0.163-0.119,0.302-0.268,0.415-0.443c0.113-0.178,0.188-0.377,0.221-0.598l2.107-0.019c-0.027,0.511-0.163,0.968-0.407,1.374
		c-0.243,0.407-0.555,0.751-0.934,1.034c-0.379,0.281-0.802,0.496-1.27,0.644c-0.469,0.146-0.942,0.215-1.425,0.202
		c-0.646-0.011-1.202-0.141-1.664-0.39s-0.836-0.579-1.12-0.992c-0.285-0.412-0.482-0.888-0.594-1.428
		c-0.11-0.539-0.136-1.104-0.074-1.697l0.024-0.257c0.078-0.626,0.241-1.218,0.49-1.777c0.249-0.559,0.576-1.047,0.979-1.465
		c0.403-0.418,0.878-0.746,1.425-0.982c0.545-0.237,1.148-0.35,1.812-0.332c0.515,0.011,0.979,0.103,1.396,0.273
		c0.415,0.171,0.768,0.41,1.059,0.718c0.29,0.308,0.509,0.673,0.655,1.097c0.146,0.423,0.207,0.892,0.179,1.407l-2.117-0.01
		c0.018-0.222,0-0.431-0.05-0.627c-0.05-0.195-0.133-0.366-0.249-0.511c-0.116-0.144-0.263-0.258-0.44-0.344
		c-0.177-0.086-0.385-0.136-0.622-0.146c-0.383-0.011-0.707,0.063-0.976,0.225s-0.491,0.373-0.668,0.636s-0.314,0.556-0.415,0.88
		c-0.1,0.323-0.169,0.643-0.208,0.959l-0.033,0.248c-0.027,0.266-0.042,0.554-0.042,0.863c0,0.311,0.042,0.597,0.125,0.858
		c0.083,0.265,0.221,0.484,0.411,0.664C620.954,419.025,621.229,419.121,621.589,419.133z"/>
	<path d="M631.774,420.967c-0.614-0.012-1.169-0.129-1.664-0.353c-0.496-0.226-0.913-0.528-1.255-0.913
		c-0.34-0.385-0.59-0.838-0.75-1.357c-0.161-0.519-0.214-1.084-0.158-1.692l0.033-0.341c0.071-0.631,0.24-1.231,0.506-1.802
		c0.265-0.569,0.609-1.066,1.032-1.494c0.425-0.427,0.917-0.764,1.482-1.013s1.179-0.365,1.843-0.349
		c0.625,0.017,1.165,0.146,1.619,0.39s0.82,0.569,1.1,0.977c0.28,0.406,0.472,0.872,0.573,1.398c0.103,0.525,0.117,1.078,0.045,1.66
		l-0.148,0.979h-5.869c-0.011,0.288,0.024,0.556,0.107,0.803c0.083,0.246,0.204,0.46,0.361,0.644
		c0.158,0.183,0.354,0.327,0.585,0.437c0.232,0.106,0.498,0.164,0.797,0.17c0.471,0.017,0.915-0.064,1.333-0.245
		c0.417-0.18,0.787-0.437,1.108-0.769l1.021,1.253c-0.198,0.288-0.44,0.535-0.727,0.739c-0.285,0.204-0.592,0.374-0.921,0.507
		c-0.33,0.134-0.671,0.229-1.025,0.29C632.449,420.946,632.106,420.973,631.774,420.967z M632.679,413.513
		c-0.299-0.011-0.566,0.038-0.805,0.149s-0.45,0.26-0.635,0.448c-0.187,0.188-0.349,0.4-0.486,0.64
		c-0.138,0.237-0.26,0.479-0.365,0.722h3.661l0.042-0.208c0.039-0.243,0.033-0.47-0.017-0.68c-0.05-0.211-0.138-0.394-0.262-0.549
		c-0.125-0.154-0.281-0.277-0.474-0.369C633.148,413.575,632.928,413.523,632.679,413.513z"/>
	<path d="M649.979,415.928c0.077-0.542,0.188-1.1,0.336-1.672c0.146-0.573,0.325-1.142,0.539-1.706
		c0.213-0.563,0.464-1.111,0.75-1.644c0.287-0.532,0.611-1.032,0.972-1.502c0.359-0.472,0.76-0.896,1.199-1.279
		c0.439-0.381,0.923-0.705,1.448-0.971l0.225,1.028c-0.609,0.448-1.137,0.968-1.581,1.558c-0.446,0.589-0.826,1.217-1.143,1.884
		c-0.315,0.667-0.572,1.362-0.771,2.088c-0.199,0.727-0.354,1.45-0.465,2.175l-0.018,0.125c-0.061,0.398-0.11,0.824-0.148,1.277
		c-0.039,0.454-0.056,0.919-0.051,1.395c0.006,0.478,0.036,0.952,0.092,1.429c0.055,0.477,0.148,0.936,0.281,1.379
		c0.134,0.441,0.311,0.857,0.531,1.249c0.221,0.39,0.498,0.733,0.83,1.033l-0.39,0.93c-0.433-0.304-0.808-0.664-1.125-1.079
		c-0.318-0.415-0.587-0.865-0.807-1.349c-0.218-0.484-0.391-0.992-0.519-1.523s-0.217-1.066-0.271-1.606
		c-0.053-0.538-0.071-1.073-0.059-1.604c0.014-0.531,0.054-1.038,0.121-1.521L649.979,415.928z"/>
	<path d="M666.198,415.447c-0.072,0.426-0.173,0.857-0.304,1.299c-0.13,0.438-0.293,0.865-0.488,1.278
		c-0.197,0.411-0.428,0.801-0.693,1.166c-0.265,0.364-0.568,0.681-0.909,0.945c-0.34,0.267-0.719,0.474-1.137,0.623
		c-0.418,0.148-0.876,0.219-1.374,0.207c-0.476-0.012-0.895-0.102-1.258-0.27c-0.362-0.169-0.673-0.393-0.935-0.668
		c-0.26-0.277-0.473-0.599-0.639-0.963c-0.166-0.365-0.291-0.75-0.374-1.154s-0.129-0.816-0.137-1.236
		c-0.009-0.421,0.015-0.828,0.069-1.221l0.217-1.378c0.071-0.427,0.173-0.859,0.303-1.299c0.13-0.44,0.293-0.866,0.49-1.278
		c0.195-0.412,0.429-0.801,0.696-1.166c0.269-0.365,0.572-0.683,0.913-0.951c0.341-0.268,0.72-0.477,1.138-0.627
		c0.418-0.147,0.876-0.219,1.374-0.207c0.48,0.012,0.902,0.103,1.266,0.271c0.363,0.169,0.674,0.392,0.934,0.668
		c0.261,0.276,0.473,0.598,0.636,0.963s0.285,0.752,0.364,1.158c0.08,0.406,0.124,0.821,0.134,1.244
		c0.008,0.425-0.017,0.831-0.071,1.226L666.198,415.447z M664.928,414.044c0.033-0.255,0.061-0.531,0.079-0.83
		c0.02-0.299,0.018-0.599-0.009-0.899c-0.024-0.303-0.076-0.596-0.153-0.881c-0.077-0.284-0.191-0.539-0.345-0.76
		c-0.152-0.221-0.346-0.4-0.581-0.539s-0.524-0.213-0.867-0.225c-0.359-0.012-0.685,0.043-0.976,0.162
		c-0.29,0.119-0.55,0.285-0.78,0.498c-0.229,0.213-0.432,0.459-0.604,0.737c-0.176,0.279-0.325,0.576-0.453,0.89
		c-0.128,0.312-0.232,0.629-0.315,0.95c-0.083,0.32-0.148,0.626-0.199,0.912l-0.231,1.402c-0.033,0.25-0.059,0.523-0.075,0.822
		s-0.011,0.601,0.017,0.903c0.028,0.306,0.08,0.603,0.158,0.89s0.194,0.544,0.35,0.768c0.154,0.226,0.35,0.407,0.585,0.548
		c0.234,0.143,0.523,0.219,0.866,0.229c0.36,0.011,0.687-0.043,0.979-0.162c0.293-0.118,0.553-0.284,0.78-0.498
		c0.227-0.213,0.426-0.46,0.598-0.743c0.171-0.28,0.319-0.579,0.444-0.892c0.124-0.313,0.228-0.63,0.311-0.95
		c0.083-0.321,0.149-0.629,0.199-0.922L664.928,414.044z"/>
	<path d="M669.825,420.801l1.353-7.795h-2.406l0.216-1.187h2.391l0.091-0.632c0.072-0.53,0.214-1.015,0.429-1.447
		c0.213-0.436,0.486-0.807,0.82-1.112c0.335-0.308,0.729-0.542,1.18-0.706c0.45-0.163,0.953-0.242,1.507-0.236
		c0.359,0.007,0.712,0.041,1.059,0.107c0.346,0.066,0.693,0.145,1.042,0.232l-0.307,1.262c-0.271-0.094-0.546-0.168-0.826-0.225
		c-0.279-0.056-0.563-0.086-0.851-0.091c-0.36-0.006-0.685,0.041-0.972,0.142c-0.287,0.1-0.54,0.245-0.755,0.436
		c-0.216,0.191-0.392,0.424-0.527,0.697c-0.135,0.273-0.23,0.586-0.285,0.934l-0.092,0.641h3.362l-0.208,1.187h-3.354l-1.354,7.795
		L669.825,420.801L669.825,420.801z"/>
	<path d="M679.811,420.801l1.354-7.795h-2.407l0.216-1.187h2.392l0.091-0.632c0.072-0.53,0.214-1.015,0.428-1.447
		c0.213-0.436,0.487-0.807,0.821-1.112c0.335-0.308,0.728-0.542,1.179-0.706c0.452-0.163,0.954-0.242,1.506-0.236
		c0.36,0.007,0.713,0.041,1.06,0.107c0.346,0.066,0.692,0.145,1.042,0.232l-0.309,1.262c-0.271-0.094-0.546-0.168-0.825-0.225
		c-0.279-0.056-0.562-0.086-0.851-0.091c-0.359-0.006-0.684,0.041-0.972,0.142c-0.288,0.1-0.54,0.245-0.755,0.436
		c-0.216,0.191-0.393,0.424-0.527,0.697s-0.23,0.586-0.286,0.934l-0.091,0.641h3.362l-0.208,1.187h-3.354l-1.353,7.795
		L679.811,420.801L679.811,420.801z"/>
	<path d="M691.465,419.73c0.271,0.005,0.54-0.032,0.807-0.112c0.266-0.081,0.508-0.196,0.727-0.35
		c0.218-0.151,0.405-0.338,0.56-0.557c0.155-0.219,0.265-0.463,0.324-0.734l1.42-0.008c-0.051,0.459-0.198,0.875-0.448,1.249
		c-0.248,0.373-0.557,0.691-0.922,0.954c-0.364,0.265-0.769,0.465-1.212,0.606c-0.442,0.141-0.883,0.206-1.319,0.193
		c-0.631-0.016-1.167-0.151-1.609-0.405c-0.443-0.255-0.801-0.589-1.071-1c-0.27-0.412-0.456-0.886-0.556-1.416
		c-0.1-0.531-0.122-1.078-0.066-1.644l0.041-0.356c0.051-0.404,0.14-0.798,0.267-1.18s0.289-0.74,0.484-1.079
		c0.196-0.338,0.428-0.646,0.689-0.926c0.262-0.279,0.558-0.519,0.884-0.718s0.682-0.352,1.062-0.456
		c0.382-0.104,0.789-0.152,1.221-0.142c0.465,0.011,0.893,0.1,1.286,0.266c0.393,0.166,0.729,0.392,1.009,0.677
		s0.494,0.625,0.643,1.021c0.15,0.396,0.214,0.829,0.191,1.3l-1.411-0.009c0.011-0.276-0.021-0.534-0.1-0.772
		c-0.077-0.236-0.195-0.446-0.354-0.626c-0.158-0.181-0.35-0.323-0.577-0.428c-0.227-0.105-0.483-0.163-0.771-0.175
		c-0.459-0.017-0.864,0.067-1.216,0.254c-0.352,0.186-0.651,0.433-0.9,0.742c-0.249,0.311-0.45,0.661-0.602,1.055
		c-0.152,0.393-0.258,0.791-0.312,1.195l-0.041,0.349c-0.028,0.237-0.042,0.481-0.042,0.73s0.021,0.49,0.062,0.727
		c0.041,0.235,0.105,0.459,0.193,0.672c0.089,0.214,0.208,0.398,0.357,0.557c0.148,0.157,0.33,0.286,0.544,0.387
		C690.919,419.672,691.172,419.725,691.465,419.73z"/>
	<path d="M700.306,413.164c0.184-0.221,0.38-0.426,0.595-0.614c0.213-0.188,0.438-0.349,0.681-0.48
		c0.24-0.134,0.495-0.236,0.764-0.312c0.269-0.074,0.553-0.107,0.852-0.104c0.509,0.011,0.935,0.112,1.277,0.308
		c0.345,0.193,0.614,0.451,0.813,0.771c0.199,0.319,0.332,0.689,0.398,1.107c0.065,0.417,0.074,0.854,0.023,1.309l-0.945,5.651
		h-1.503l0.954-5.678c0.033-0.293,0.033-0.568,0-0.826c-0.033-0.257-0.109-0.483-0.231-0.681c-0.121-0.196-0.289-0.352-0.502-0.465
		c-0.214-0.113-0.482-0.176-0.81-0.188c-0.255-0.006-0.497,0.023-0.727,0.087c-0.23,0.063-0.448,0.155-0.656,0.274
		c-0.207,0.119-0.404,0.258-0.589,0.419c-0.187,0.161-0.356,0.335-0.511,0.521l-1.138,6.533h-1.503l2.216-12.75h1.503
		L700.306,413.164z"/>
	<path d="M713.338,420.801c-0.045-0.166-0.065-0.329-0.065-0.49c0-0.159,0.008-0.322,0.024-0.488
		c-0.394,0.349-0.82,0.628-1.283,0.839c-0.462,0.21-0.961,0.31-1.498,0.299c-0.377-0.006-0.731-0.07-1.065-0.191
		c-0.335-0.12-0.625-0.293-0.872-0.515c-0.246-0.222-0.438-0.489-0.572-0.806c-0.136-0.314-0.191-0.672-0.171-1.07
		c0.022-0.387,0.103-0.729,0.237-1.029c0.135-0.299,0.312-0.561,0.525-0.783c0.218-0.226,0.466-0.414,0.748-0.569
		c0.281-0.154,0.582-0.28,0.9-0.377c0.318-0.099,0.646-0.166,0.987-0.208c0.341-0.041,0.677-0.062,1.009-0.062l1.71,0.009
		l0.107-0.715c0.033-0.281,0.013-0.53-0.062-0.747c-0.075-0.216-0.189-0.397-0.345-0.548c-0.156-0.149-0.346-0.263-0.568-0.341
		c-0.225-0.077-0.472-0.119-0.743-0.124c-0.237-0.005-0.472,0.021-0.701,0.075s-0.439,0.141-0.631,0.257
		c-0.19,0.116-0.354,0.265-0.494,0.444c-0.139,0.179-0.234,0.395-0.291,0.643l-1.502,0.009c0.051-0.453,0.196-0.849,0.439-1.183
		c0.244-0.335,0.544-0.613,0.901-0.834c0.355-0.222,0.747-0.387,1.175-0.494c0.426-0.107,0.844-0.159,1.253-0.154
		c0.454,0.013,0.877,0.084,1.271,0.218c0.394,0.133,0.729,0.326,1.008,0.585c0.279,0.257,0.491,0.57,0.636,0.941
		c0.145,0.37,0.19,0.797,0.142,1.277l-0.697,4.176c-0.05,0.305-0.075,0.609-0.078,0.913c-0.002,0.304,0.031,0.606,0.104,0.905
		l-0.016,0.141L713.338,420.801L713.338,420.801z M710.807,419.639c0.531,0.013,1.025-0.108,1.485-0.36s0.844-0.588,1.153-1.009
		l0.323-1.825l-1.286-0.01c-0.305,0-0.63,0.021-0.976,0.059c-0.346,0.039-0.672,0.119-0.976,0.241
		c-0.305,0.122-0.564,0.296-0.78,0.521c-0.216,0.229-0.346,0.526-0.391,0.896c-0.027,0.237-0.012,0.448,0.051,0.631
		c0.061,0.184,0.157,0.337,0.29,0.461c0.133,0.125,0.294,0.221,0.48,0.287C710.369,419.597,710.579,419.633,710.807,419.639z"/>
	<path d="M719.298,411.819h4.466l-1.328,7.652h2.849l-0.241,1.328h-7.305l0.24-1.328h2.955l1.097-6.315h-2.964L719.298,411.819z
		 M722.477,409.486c0.007-0.267,0.093-0.485,0.259-0.659c0.166-0.175,0.382-0.268,0.646-0.278c0.133-0.006,0.253,0.014,0.361,0.06
		c0.106,0.044,0.202,0.104,0.282,0.182s0.141,0.172,0.183,0.283c0.041,0.109,0.062,0.231,0.062,0.364
		c0,0.267-0.082,0.479-0.248,0.644s-0.383,0.25-0.647,0.262c-0.26,0.012-0.475-0.062-0.644-0.22
		C722.562,409.964,722.477,409.752,722.477,409.486z"/>
	<path d="M730.379,411.811l-0.189,1.338c0.183-0.223,0.382-0.428,0.598-0.614c0.216-0.188,0.445-0.35,0.688-0.481
		c0.244-0.133,0.502-0.232,0.772-0.303c0.27-0.07,0.556-0.101,0.854-0.096c0.505,0.011,0.929,0.109,1.271,0.299
		c0.343,0.188,0.616,0.438,0.817,0.751c0.201,0.312,0.338,0.677,0.406,1.092c0.069,0.415,0.079,0.851,0.028,1.303l-0.954,5.703
		h-1.503l0.955-5.678c0.033-0.305,0.035-0.586,0.004-0.847c-0.03-0.262-0.104-0.487-0.224-0.682
		c-0.119-0.192-0.286-0.348-0.503-0.461c-0.216-0.112-0.489-0.173-0.821-0.178c-0.261-0.006-0.508,0.025-0.743,0.095
		c-0.233,0.069-0.455,0.166-0.66,0.291c-0.204,0.124-0.396,0.273-0.575,0.448c-0.181,0.174-0.346,0.361-0.494,0.561l-1.121,6.449
		h-1.502l1.561-8.98L730.379,411.811z"/>
	<path d="M743.744,415.945c-0.078,0.542-0.189,1.1-0.337,1.672c-0.146,0.573-0.326,1.141-0.539,1.702
		c-0.214,0.562-0.464,1.108-0.751,1.644c-0.288,0.533-0.613,1.035-0.977,1.502c-0.361,0.468-0.764,0.896-1.203,1.278
		c-0.439,0.385-0.922,0.707-1.448,0.968l-0.232-0.955c0.614-0.448,1.145-0.97,1.591-1.563c0.444-0.597,0.824-1.231,1.142-1.909
		c0.313-0.679,0.572-1.382,0.771-2.112c0.199-0.729,0.354-1.459,0.465-2.184l0.018-0.125c0.056-0.394,0.104-0.816,0.143-1.271
		c0.037-0.453,0.055-0.918,0.049-1.395c-0.006-0.478-0.037-0.955-0.096-1.437s-0.152-0.944-0.285-1.391
		c-0.134-0.446-0.31-0.862-0.527-1.25c-0.219-0.387-0.491-0.73-0.818-1.029l0.383-0.93c0.438,0.305,0.816,0.664,1.138,1.08
		c0.319,0.414,0.591,0.864,0.81,1.349c0.219,0.483,0.393,0.991,0.52,1.522s0.217,1.067,0.27,1.61
		c0.053,0.542,0.072,1.078,0.059,1.609c-0.013,0.531-0.055,1.038-0.12,1.521L743.744,415.945z"/>
</g>
<g>
	<rect x="498.347" y="457.05" fill="none" width="248.561" height="21.399"/>
	<path d="M607.37,469.8l2.1-12.086l3.818,0.009c0.509,0.012,1.001,0.076,1.478,0.194c0.477,0.119,0.895,0.308,1.253,0.564
		c0.36,0.258,0.64,0.589,0.839,0.991c0.198,0.403,0.276,0.896,0.231,1.479c-0.028,0.332-0.1,0.635-0.216,0.909
		c-0.116,0.272-0.271,0.519-0.46,0.733c-0.191,0.216-0.413,0.408-0.664,0.577c-0.252,0.168-0.524,0.314-0.818,0.437
		c0.277,0.1,0.514,0.237,0.709,0.415c0.197,0.177,0.356,0.379,0.479,0.605c0.122,0.228,0.208,0.475,0.257,0.742
		c0.05,0.269,0.066,0.541,0.05,0.817c-0.044,0.637-0.202,1.185-0.473,1.644c-0.271,0.46-0.618,0.836-1.042,1.129
		c-0.423,0.294-0.906,0.508-1.448,0.644c-0.542,0.137-1.104,0.2-1.685,0.195L607.37,469.8L607.37,469.8z M610.583,464.471
		l-0.598,3.445l1.9,0.016c0.277-0.005,0.544-0.044,0.802-0.114c0.258-0.072,0.489-0.183,0.696-0.328
		c0.208-0.146,0.381-0.328,0.52-0.544c0.138-0.217,0.229-0.471,0.273-0.765c0.078-0.521-0.003-0.929-0.241-1.225
		c-0.237-0.296-0.616-0.455-1.137-0.479L610.583,464.471z M610.873,462.785l1.585,0.018c0.271,0,0.537-0.03,0.797-0.092
		c0.26-0.061,0.497-0.158,0.709-0.291c0.213-0.133,0.393-0.303,0.536-0.51c0.144-0.208,0.238-0.461,0.282-0.76
		c0.039-0.277,0.024-0.512-0.042-0.701c-0.066-0.191-0.171-0.347-0.315-0.465c-0.144-0.119-0.321-0.208-0.531-0.267
		s-0.439-0.09-0.688-0.096l-1.776-0.008L610.873,462.785z"/>
	<path d="M617.938,465.284c0.077-0.631,0.241-1.229,0.493-1.797s0.58-1.063,0.984-1.49s0.881-0.761,1.432-1.005
		c0.551-0.243,1.163-0.356,1.839-0.34c0.646,0.012,1.203,0.145,1.668,0.397c0.464,0.253,0.843,0.591,1.133,1.009
		c0.291,0.417,0.491,0.897,0.602,1.44c0.111,0.542,0.136,1.109,0.075,1.701l-0.025,0.183c-0.077,0.631-0.241,1.229-0.493,1.789
		c-0.253,0.562-0.58,1.053-0.984,1.475c-0.404,0.42-0.881,0.751-1.432,0.99c-0.551,0.241-1.161,0.354-1.83,0.337
		c-0.643-0.012-1.195-0.143-1.66-0.395s-0.844-0.584-1.133-0.996c-0.291-0.412-0.493-0.889-0.606-1.428
		c-0.113-0.54-0.14-1.105-0.079-1.697L617.938,465.284z M620.17,465.459c-0.028,0.276-0.039,0.568-0.033,0.875
		c0.005,0.308,0.055,0.592,0.146,0.855c0.091,0.263,0.237,0.483,0.438,0.664c0.202,0.18,0.483,0.274,0.844,0.285
		c0.376,0.012,0.7-0.066,0.976-0.235c0.273-0.169,0.503-0.389,0.688-0.656c0.187-0.269,0.33-0.567,0.433-0.896
		c0.103-0.328,0.176-0.65,0.22-0.967l0.018-0.175c0.017-0.182,0.028-0.375,0.037-0.576c0.009-0.202,0-0.4-0.024-0.598
		s-0.066-0.385-0.124-0.564c-0.06-0.18-0.143-0.34-0.249-0.478c-0.108-0.138-0.245-0.251-0.411-0.336
		c-0.166-0.086-0.368-0.134-0.606-0.146c-0.382-0.012-0.709,0.066-0.983,0.232c-0.273,0.166-0.503,0.385-0.688,0.656
		c-0.186,0.271-0.332,0.571-0.439,0.903s-0.182,0.658-0.22,0.979L620.17,465.459z"/>
	<path d="M636.049,465.351c-0.044,0.37-0.115,0.745-0.211,1.125c-0.097,0.38-0.223,0.741-0.378,1.088
		c-0.155,0.346-0.34,0.668-0.556,0.967c-0.217,0.299-0.465,0.557-0.747,0.771s-0.603,0.384-0.958,0.502
		c-0.357,0.119-0.751,0.173-1.184,0.162c-0.447-0.011-0.858-0.108-1.232-0.295c-0.373-0.185-0.686-0.464-0.935-0.834l-0.332,0.963
		h-2.042l2.208-12.75h2.259l-0.881,4.591c0.305-0.32,0.643-0.568,1.014-0.742c0.371-0.176,0.78-0.258,1.229-0.245
		c0.41,0.012,0.769,0.083,1.075,0.216c0.308,0.133,0.57,0.31,0.788,0.531c0.219,0.222,0.396,0.479,0.531,0.775
		c0.136,0.296,0.236,0.609,0.303,0.941s0.104,0.674,0.112,1.024c0.009,0.353-0.004,0.696-0.037,1.033L636.049,465.351z
		 M633.816,465.176c0.017-0.171,0.029-0.354,0.042-0.552c0.012-0.197,0.01-0.392-0.005-0.585c-0.014-0.193-0.044-0.381-0.091-0.562
		c-0.047-0.18-0.119-0.339-0.216-0.477c-0.097-0.139-0.223-0.251-0.378-0.337c-0.155-0.085-0.349-0.132-0.581-0.137
		c-0.393-0.012-0.732,0.072-1.021,0.253c-0.288,0.18-0.537,0.425-0.747,0.733l-0.623,3.604c0.11,0.332,0.285,0.576,0.522,0.733
		c0.238,0.157,0.531,0.242,0.88,0.254c0.388,0.011,0.712-0.066,0.976-0.232c0.263-0.166,0.479-0.382,0.646-0.647
		c0.169-0.266,0.298-0.563,0.386-0.896c0.089-0.332,0.152-0.658,0.191-0.979L633.816,465.176z"/>
	<path d="M649.979,464.928c0.077-0.543,0.188-1.101,0.336-1.673c0.146-0.573,0.325-1.142,0.539-1.706
		c0.213-0.563,0.464-1.111,0.75-1.644c0.287-0.532,0.611-1.032,0.972-1.503c0.359-0.471,0.76-0.896,1.199-1.277
		c0.439-0.383,0.923-0.706,1.448-0.972l0.225,1.028c-0.609,0.448-1.137,0.968-1.581,1.558c-0.446,0.589-0.826,1.218-1.143,1.884
		c-0.314,0.667-0.572,1.363-0.771,2.088s-0.354,1.449-0.465,2.175l-0.018,0.124c-0.061,0.398-0.11,0.825-0.148,1.279
		c-0.039,0.453-0.056,0.918-0.051,1.395c0.006,0.477,0.036,0.951,0.092,1.429c0.055,0.476,0.148,0.935,0.281,1.377
		c0.134,0.442,0.311,0.858,0.531,1.25c0.221,0.39,0.498,0.733,0.83,1.033l-0.39,0.93c-0.433-0.305-0.808-0.664-1.125-1.079
		c-0.318-0.415-0.587-0.864-0.807-1.349c-0.218-0.484-0.391-0.992-0.519-1.523s-0.217-1.066-0.271-1.606
		c-0.053-0.538-0.071-1.074-0.059-1.605c0.014-0.531,0.054-1.037,0.121-1.52L649.979,464.928z"/>
	<path d="M666.198,464.445c-0.072,0.427-0.173,0.858-0.304,1.3c-0.13,0.438-0.293,0.866-0.488,1.278
		c-0.197,0.411-0.428,0.801-0.693,1.166c-0.265,0.364-0.568,0.681-0.909,0.945c-0.34,0.267-0.719,0.475-1.137,0.622
		c-0.418,0.15-0.876,0.219-1.374,0.208c-0.476-0.011-0.895-0.101-1.258-0.27c-0.362-0.169-0.673-0.393-0.935-0.669
		c-0.26-0.276-0.473-0.599-0.639-0.963c-0.166-0.365-0.291-0.75-0.374-1.153s-0.129-0.816-0.137-1.237
		c-0.009-0.42,0.015-0.826,0.069-1.22l0.217-1.378c0.071-0.426,0.173-0.859,0.303-1.299c0.13-0.44,0.293-0.866,0.49-1.278
		c0.195-0.413,0.429-0.802,0.696-1.167c0.269-0.365,0.572-0.682,0.913-0.95s0.72-0.478,1.138-0.626
		c0.418-0.149,0.876-0.219,1.374-0.208c0.48,0.011,0.902,0.102,1.266,0.271s0.674,0.392,0.934,0.669
		c0.261,0.275,0.473,0.598,0.636,0.963s0.285,0.751,0.364,1.157c0.08,0.406,0.124,0.821,0.134,1.244
		c0.008,0.425-0.017,0.832-0.071,1.226L666.198,464.445z M664.928,463.043c0.033-0.254,0.061-0.531,0.079-0.83
		c0.02-0.299,0.018-0.6-0.009-0.899c-0.024-0.303-0.076-0.597-0.153-0.881c-0.078-0.284-0.191-0.538-0.345-0.76
		c-0.152-0.222-0.346-0.4-0.581-0.54c-0.235-0.138-0.524-0.213-0.867-0.224c-0.359-0.011-0.685,0.043-0.976,0.162
		c-0.29,0.118-0.55,0.284-0.78,0.498c-0.229,0.213-0.432,0.459-0.604,0.737c-0.176,0.28-0.325,0.575-0.453,0.89
		c-0.127,0.312-0.232,0.63-0.315,0.95c-0.083,0.319-0.148,0.625-0.199,0.912l-0.231,1.403c-0.033,0.248-0.059,0.522-0.075,0.821
		s-0.011,0.601,0.017,0.905c0.028,0.304,0.08,0.6,0.158,0.888s0.194,0.544,0.35,0.768c0.154,0.226,0.35,0.407,0.585,0.548
		c0.234,0.143,0.523,0.218,0.866,0.229c0.36,0.012,0.687-0.043,0.979-0.162s0.553-0.285,0.78-0.498
		c0.227-0.213,0.426-0.461,0.598-0.742c0.171-0.282,0.319-0.58,0.444-0.893c0.124-0.312,0.228-0.63,0.311-0.951
		c0.083-0.32,0.149-0.627,0.199-0.921L664.928,463.043z"/>
	<path d="M669.825,469.8l1.353-7.794h-2.406l0.216-1.188h2.391l0.091-0.632c0.072-0.53,0.214-1.014,0.429-1.447
		c0.213-0.436,0.486-0.807,0.82-1.112c0.335-0.308,0.729-0.543,1.18-0.706c0.45-0.163,0.953-0.241,1.507-0.236
		c0.359,0.006,0.712,0.042,1.059,0.108c0.346,0.066,0.693,0.145,1.042,0.232l-0.307,1.262c-0.271-0.095-0.546-0.17-0.826-0.226
		c-0.279-0.055-0.563-0.086-0.851-0.092c-0.36-0.005-0.685,0.042-0.972,0.143c-0.287,0.1-0.54,0.245-0.755,0.436
		c-0.216,0.191-0.392,0.424-0.527,0.697c-0.135,0.273-0.23,0.585-0.285,0.935l-0.092,0.64h3.362l-0.208,1.188h-3.354l-1.354,7.794
		L669.825,469.8L669.825,469.8z"/>
	<path d="M679.811,469.8l1.354-7.794h-2.407l0.216-1.188h2.392l0.091-0.632c0.072-0.53,0.214-1.014,0.428-1.447
		c0.213-0.436,0.487-0.807,0.821-1.112c0.335-0.308,0.728-0.543,1.179-0.706c0.452-0.163,0.954-0.241,1.506-0.236
		c0.36,0.006,0.713,0.042,1.06,0.108c0.346,0.066,0.692,0.145,1.042,0.232l-0.309,1.262c-0.271-0.095-0.546-0.17-0.825-0.226
		c-0.279-0.055-0.562-0.086-0.851-0.092c-0.359-0.005-0.684,0.042-0.972,0.143c-0.288,0.1-0.54,0.245-0.755,0.436
		c-0.216,0.191-0.393,0.424-0.527,0.697s-0.23,0.585-0.286,0.935l-0.091,0.64h3.362l-0.208,1.188h-3.354l-1.353,7.794L679.811,469.8
		L679.811,469.8z"/>
	<path d="M691.465,468.729c0.271,0.007,0.54-0.03,0.807-0.11c0.266-0.08,0.508-0.197,0.727-0.35c0.218-0.151,0.405-0.338,0.56-0.557
		c0.155-0.218,0.265-0.464,0.324-0.734l1.42-0.009c-0.051,0.46-0.198,0.876-0.448,1.25c-0.248,0.373-0.557,0.691-0.922,0.954
		c-0.364,0.263-0.769,0.465-1.212,0.606c-0.442,0.141-0.883,0.206-1.319,0.194c-0.631-0.018-1.167-0.151-1.609-0.406
		c-0.443-0.256-0.801-0.589-1.071-1c-0.271-0.413-0.456-0.885-0.556-1.415c-0.1-0.531-0.122-1.08-0.066-1.646l0.041-0.355
		c0.051-0.403,0.14-0.798,0.267-1.18s0.289-0.741,0.484-1.079c0.196-0.337,0.428-0.646,0.689-0.926
		c0.263-0.278,0.558-0.519,0.884-0.718s0.682-0.352,1.062-0.457c0.382-0.104,0.789-0.152,1.221-0.141
		c0.465,0.012,0.893,0.1,1.286,0.266c0.393,0.166,0.729,0.392,1.009,0.677c0.279,0.284,0.494,0.625,0.643,1.021
		c0.15,0.396,0.214,0.829,0.191,1.299l-1.411-0.008c0.011-0.277-0.021-0.534-0.1-0.771c-0.077-0.237-0.195-0.446-0.354-0.627
		c-0.158-0.18-0.35-0.322-0.577-0.428c-0.227-0.106-0.483-0.163-0.771-0.174c-0.459-0.019-0.864,0.066-1.216,0.253
		c-0.352,0.185-0.651,0.433-0.9,0.743c-0.249,0.31-0.45,0.66-0.602,1.054c-0.152,0.394-0.258,0.792-0.312,1.195l-0.041,0.349
		c-0.028,0.238-0.042,0.481-0.042,0.73s0.021,0.49,0.062,0.727c0.041,0.234,0.105,0.459,0.193,0.672
		c0.089,0.213,0.208,0.398,0.357,0.557c0.148,0.157,0.33,0.286,0.544,0.387C690.919,468.671,691.172,468.724,691.465,468.729z"/>
	<path d="M700.306,462.163c0.184-0.222,0.38-0.427,0.595-0.614c0.213-0.188,0.438-0.349,0.681-0.48
		c0.24-0.134,0.495-0.236,0.764-0.312c0.269-0.074,0.553-0.109,0.852-0.104c0.509,0.012,0.935,0.112,1.277,0.307
		c0.345,0.194,0.614,0.451,0.813,0.772c0.199,0.32,0.332,0.689,0.398,1.107c0.065,0.418,0.074,0.854,0.023,1.308l-0.945,5.652
		h-1.503l0.954-5.678c0.033-0.294,0.033-0.568,0-0.826c-0.033-0.257-0.109-0.482-0.231-0.681c-0.121-0.196-0.289-0.353-0.502-0.465
		c-0.214-0.113-0.482-0.177-0.81-0.188c-0.255-0.005-0.497,0.023-0.727,0.087c-0.23,0.064-0.448,0.155-0.656,0.274
		c-0.207,0.118-0.404,0.259-0.589,0.419c-0.187,0.16-0.356,0.335-0.511,0.522l-1.138,6.532h-1.503l2.216-12.75h1.503
		L700.306,462.163z"/>
	<path d="M713.338,469.8c-0.045-0.166-0.065-0.329-0.065-0.489s0.008-0.323,0.024-0.489c-0.394,0.349-0.82,0.628-1.283,0.838
		c-0.462,0.211-0.961,0.311-1.498,0.299c-0.377-0.005-0.731-0.068-1.065-0.19c-0.335-0.121-0.625-0.294-0.872-0.515
		c-0.246-0.221-0.438-0.49-0.572-0.805c-0.136-0.316-0.191-0.673-0.171-1.071c0.022-0.388,0.103-0.73,0.237-1.029
		s0.312-0.561,0.525-0.783c0.218-0.226,0.466-0.414,0.748-0.568c0.281-0.155,0.582-0.281,0.9-0.378s0.646-0.166,0.987-0.208
		c0.341-0.041,0.677-0.062,1.009-0.062l1.71,0.01l0.107-0.715c0.033-0.281,0.013-0.53-0.062-0.746
		c-0.075-0.217-0.189-0.398-0.345-0.549c-0.156-0.149-0.346-0.263-0.568-0.34c-0.225-0.078-0.472-0.119-0.743-0.125
		c-0.237-0.006-0.472,0.021-0.701,0.074c-0.229,0.056-0.439,0.142-0.631,0.258c-0.19,0.116-0.354,0.264-0.494,0.444
		c-0.139,0.18-0.234,0.394-0.291,0.644l-1.502,0.008c0.051-0.452,0.196-0.848,0.439-1.183c0.244-0.335,0.544-0.613,0.901-0.835
		c0.355-0.221,0.747-0.386,1.175-0.493c0.426-0.107,0.844-0.159,1.253-0.153c0.454,0.012,0.877,0.082,1.271,0.216
		c0.394,0.133,0.729,0.328,1.008,0.586c0.279,0.257,0.491,0.57,0.636,0.94c0.145,0.371,0.19,0.797,0.142,1.279l-0.697,4.175
		c-0.05,0.304-0.075,0.608-0.078,0.913c-0.002,0.305,0.031,0.605,0.104,0.904l-0.016,0.142h-1.521V469.8z M710.807,468.638
		c0.531,0.012,1.025-0.108,1.485-0.36c0.46-0.251,0.844-0.588,1.153-1.01l0.323-1.825l-1.286-0.009c-0.305,0-0.63,0.021-0.976,0.06
		c-0.346,0.038-0.672,0.119-0.976,0.24c-0.305,0.12-0.564,0.296-0.78,0.522c-0.216,0.228-0.346,0.525-0.391,0.896
		c-0.027,0.236-0.012,0.446,0.051,0.631c0.061,0.182,0.157,0.336,0.29,0.46c0.133,0.125,0.294,0.22,0.48,0.286
		C710.369,468.595,710.579,468.633,710.807,468.638z"/>
	<path d="M719.298,460.818h4.466l-1.328,7.652h2.849l-0.241,1.328h-7.305l0.24-1.328h2.955l1.097-6.316h-2.964L719.298,460.818z
		 M722.477,458.486c0.007-0.267,0.093-0.486,0.259-0.66c0.166-0.175,0.382-0.269,0.646-0.278c0.133-0.005,0.253,0.014,0.361,0.059
		c0.106,0.045,0.202,0.104,0.282,0.184c0.08,0.077,0.141,0.171,0.183,0.281c0.041,0.11,0.062,0.231,0.062,0.364
		c0,0.267-0.082,0.48-0.248,0.645s-0.383,0.251-0.647,0.262c-0.26,0.011-0.475-0.062-0.644-0.22
		C722.562,458.963,722.477,458.752,722.477,458.486z"/>
	<path d="M730.379,460.811l-0.189,1.337c0.183-0.222,0.382-0.427,0.598-0.614c0.216-0.188,0.445-0.35,0.688-0.481
		c0.244-0.133,0.502-0.233,0.772-0.303s0.556-0.102,0.854-0.096c0.505,0.012,0.929,0.11,1.271,0.299
		c0.343,0.188,0.616,0.438,0.817,0.751c0.201,0.312,0.338,0.677,0.406,1.092c0.069,0.415,0.079,0.85,0.028,1.304l-0.954,5.702
		h-1.503l0.955-5.678c0.033-0.304,0.035-0.587,0.004-0.847c-0.03-0.261-0.104-0.486-0.224-0.682
		c-0.119-0.193-0.286-0.347-0.503-0.461c-0.216-0.112-0.489-0.173-0.821-0.179c-0.261-0.005-0.508,0.027-0.743,0.096
		c-0.233,0.069-0.455,0.166-0.66,0.291c-0.204,0.124-0.396,0.273-0.575,0.448c-0.181,0.174-0.346,0.36-0.494,0.56l-1.121,6.45
		h-1.502l1.561-8.98L730.379,460.811z"/>
	<path d="M743.744,464.943c-0.078,0.543-0.189,1.101-0.337,1.673c-0.146,0.573-0.326,1.14-0.539,1.702
		c-0.214,0.562-0.464,1.108-0.751,1.644c-0.288,0.534-0.613,1.034-0.977,1.502c-0.362,0.468-0.764,0.895-1.203,1.278
		c-0.439,0.385-0.922,0.707-1.448,0.967l-0.232-0.954c0.614-0.448,1.145-0.97,1.591-1.563c0.444-0.596,0.824-1.231,1.142-1.909
		c0.313-0.678,0.572-1.383,0.771-2.113c0.199-0.729,0.354-1.457,0.465-2.183l0.018-0.124c0.056-0.395,0.104-0.816,0.143-1.271
		c0.037-0.454,0.055-0.919,0.049-1.395c-0.006-0.477-0.037-0.954-0.096-1.438c-0.059-0.479-0.152-0.943-0.285-1.39
		c-0.134-0.446-0.31-0.862-0.527-1.249c-0.219-0.388-0.491-0.73-0.818-1.029l0.383-0.93c0.438,0.304,0.816,0.664,1.138,1.078
		c0.319,0.416,0.591,0.865,0.81,1.35s0.393,0.992,0.52,1.523c0.127,0.53,0.217,1.066,0.27,1.608c0.053,0.543,0.072,1.08,0.059,1.611
		c-0.013,0.531-0.055,1.037-0.12,1.52L743.744,464.943z"/>
</g>
<g>
	<rect x="16.85" y="217.352" fill="none" width="158.483" height="38.308"/>
	<path d="M56.244,225.18v4.172h-2.195v-11.375h3.891c0.62,0,1.18,0.09,1.68,0.27c0.5,0.18,0.926,0.43,1.277,0.75
		c0.351,0.32,0.622,0.705,0.812,1.152c0.19,0.448,0.285,0.945,0.285,1.492c0,0.511-0.095,0.982-0.285,1.414
		c-0.19,0.433-0.461,0.806-0.812,1.121c-0.352,0.315-0.777,0.562-1.277,0.738c-0.5,0.177-1.06,0.266-1.68,0.266H56.244z
		 M56.244,223.398h1.695c0.312,0,0.583-0.047,0.812-0.141c0.229-0.094,0.42-0.221,0.574-0.383c0.153-0.161,0.268-0.348,0.344-0.559
		c0.075-0.211,0.113-0.431,0.113-0.66c0-0.266-0.038-0.513-0.113-0.742c-0.076-0.229-0.19-0.43-0.344-0.602
		c-0.154-0.172-0.345-0.307-0.574-0.406c-0.229-0.099-0.5-0.148-0.812-0.148h-1.695V223.398z"/>
	<path d="M63.291,225.047c0-0.614,0.088-1.184,0.266-1.707c0.177-0.523,0.436-0.978,0.777-1.363c0.341-0.385,0.758-0.688,1.25-0.906
		c0.492-0.218,1.056-0.328,1.691-0.328c0.635,0,1.2,0.109,1.695,0.328c0.495,0.219,0.913,0.521,1.254,0.906
		c0.341,0.386,0.6,0.84,0.777,1.363c0.177,0.523,0.266,1.093,0.266,1.707v0.164c0,0.62-0.089,1.191-0.266,1.715
		c-0.177,0.523-0.435,0.978-0.773,1.363c-0.339,0.386-0.755,0.687-1.25,0.902c-0.495,0.216-1.058,0.324-1.688,0.324
		c-0.636,0-1.202-0.108-1.699-0.324c-0.498-0.216-0.917-0.517-1.258-0.902c-0.341-0.385-0.601-0.84-0.777-1.363
		c-0.177-0.523-0.266-1.095-0.266-1.715L63.291,225.047L63.291,225.047z M65.463,225.211c0,0.354,0.034,0.687,0.102,0.996
		c0.067,0.31,0.174,0.581,0.32,0.812c0.146,0.232,0.334,0.416,0.566,0.551c0.231,0.136,0.512,0.203,0.84,0.203
		c0.317,0,0.591-0.067,0.82-0.203c0.229-0.135,0.415-0.319,0.559-0.551c0.143-0.231,0.249-0.502,0.316-0.812
		s0.102-0.642,0.102-0.996v-0.164c0-0.344-0.034-0.669-0.102-0.977c-0.068-0.307-0.173-0.578-0.316-0.812
		c-0.144-0.234-0.33-0.419-0.559-0.555c-0.229-0.135-0.508-0.203-0.836-0.203c-0.323,0-0.599,0.068-0.828,0.203
		c-0.229,0.136-0.417,0.32-0.562,0.555c-0.146,0.234-0.253,0.505-0.32,0.812c-0.068,0.308-0.102,0.633-0.102,0.977V225.211z"/>
	<path d="M73.768,220.898h4.602v6.688h2.289v1.766h-6.891v-1.766h2.406v-4.914h-2.406V220.898z M76.018,218.734
		c0-0.167,0.03-0.321,0.09-0.465c0.06-0.143,0.145-0.266,0.254-0.367c0.109-0.101,0.241-0.181,0.395-0.238
		c0.153-0.057,0.324-0.086,0.512-0.086c0.385,0,0.691,0.108,0.918,0.324c0.227,0.216,0.34,0.494,0.34,0.832
		c0,0.339-0.113,0.616-0.34,0.832c-0.227,0.216-0.533,0.324-0.918,0.324c-0.188,0-0.358-0.028-0.512-0.086
		c-0.154-0.057-0.285-0.137-0.395-0.238c-0.11-0.101-0.194-0.224-0.254-0.367C76.047,219.056,76.018,218.901,76.018,218.734z"/>
	<path d="M84.76,220.898l0.133,1.172c0.302-0.422,0.669-0.749,1.102-0.98c0.432-0.231,0.911-0.348,1.438-0.348
		c0.427,0,0.817,0.062,1.172,0.188c0.354,0.125,0.66,0.324,0.918,0.598c0.258,0.274,0.458,0.625,0.602,1.055
		c0.143,0.43,0.215,0.952,0.215,1.566v5.203h-2.172v-5.172c0-0.333-0.038-0.608-0.113-0.824c-0.076-0.216-0.184-0.387-0.324-0.512
		s-0.31-0.212-0.508-0.262c-0.198-0.049-0.422-0.074-0.672-0.074c-0.37,0-0.685,0.074-0.945,0.223
		c-0.261,0.148-0.472,0.353-0.633,0.613v6.008h-2.18v-8.453L84.76,220.898L84.76,220.898z"/>
	<path d="M96.377,218.828v2.07h3.156v1.602h-3.156v3.633c0,0.308,0.035,0.564,0.105,0.77c0.07,0.206,0.17,0.37,0.301,0.492
		c0.13,0.123,0.288,0.21,0.473,0.262c0.185,0.052,0.392,0.078,0.621,0.078c0.167,0,0.337-0.008,0.512-0.023
		c0.174-0.016,0.341-0.035,0.5-0.059c0.159-0.023,0.307-0.048,0.445-0.074s0.256-0.052,0.355-0.078l0.211,1.492
		c-0.151,0.089-0.328,0.166-0.531,0.23c-0.203,0.065-0.419,0.119-0.648,0.16c-0.229,0.042-0.468,0.074-0.715,0.098
		c-0.248,0.023-0.491,0.035-0.73,0.035c-0.464,0-0.884-0.062-1.262-0.184s-0.701-0.312-0.969-0.57
		c-0.269-0.258-0.476-0.586-0.621-0.984c-0.146-0.398-0.219-0.876-0.219-1.434V222.5h-1.93v-1.602h1.93v-2.07H96.377z"/>
	<path d="M107.447,227.031c0-0.13-0.03-0.245-0.09-0.344s-0.167-0.191-0.32-0.277c-0.154-0.086-0.358-0.165-0.613-0.238
		c-0.255-0.073-0.578-0.146-0.969-0.219c-0.495-0.099-0.947-0.223-1.355-0.371c-0.409-0.148-0.759-0.328-1.051-0.539
		s-0.52-0.454-0.684-0.73c-0.164-0.276-0.246-0.594-0.246-0.953c0-0.349,0.083-0.682,0.25-1c0.167-0.317,0.406-0.596,0.719-0.836
		c0.312-0.239,0.692-0.43,1.141-0.57c0.448-0.141,0.953-0.211,1.516-0.211c0.588,0,1.117,0.069,1.586,0.207
		c0.469,0.138,0.866,0.328,1.191,0.57s0.574,0.53,0.746,0.863s0.258,0.695,0.258,1.086h-2.172c0-0.328-0.133-0.603-0.398-0.824
		c-0.266-0.221-0.669-0.332-1.211-0.332c-0.505,0-0.887,0.091-1.145,0.273c-0.258,0.183-0.387,0.406-0.387,0.672
		c0,0.125,0.026,0.241,0.078,0.348s0.145,0.203,0.277,0.289c0.132,0.086,0.313,0.164,0.543,0.234
		c0.229,0.07,0.521,0.132,0.875,0.184c0.51,0.083,0.984,0.19,1.422,0.32c0.438,0.13,0.815,0.298,1.133,0.504
		c0.317,0.206,0.566,0.456,0.746,0.75c0.18,0.294,0.27,0.645,0.27,1.051c0,0.375-0.09,0.72-0.27,1.035
		c-0.18,0.315-0.435,0.587-0.766,0.816s-0.73,0.408-1.199,0.535c-0.469,0.127-0.992,0.191-1.57,0.191
		c-0.636,0-1.197-0.083-1.684-0.25c-0.487-0.167-0.895-0.384-1.223-0.652c-0.328-0.268-0.577-0.573-0.746-0.914
		c-0.169-0.341-0.254-0.684-0.254-1.027h2.07c0.016,0.229,0.078,0.426,0.188,0.59c0.11,0.164,0.25,0.297,0.422,0.398
		c0.172,0.101,0.368,0.176,0.59,0.223c0.221,0.047,0.449,0.07,0.684,0.07c0.536,0,0.945-0.086,1.227-0.258
		C107.308,227.523,107.447,227.302,107.447,227.031z"/>
	<path d="M125.182,218.828v2.07h3.156v1.602h-3.156v3.633c0,0.308,0.035,0.564,0.105,0.77c0.07,0.206,0.17,0.37,0.301,0.492
		c0.13,0.123,0.288,0.21,0.473,0.262c0.185,0.052,0.392,0.078,0.621,0.078c0.167,0,0.337-0.008,0.512-0.023
		c0.174-0.016,0.341-0.035,0.5-0.059c0.159-0.023,0.307-0.048,0.445-0.074c0.138-0.026,0.256-0.052,0.355-0.078l0.211,1.492
		c-0.151,0.089-0.328,0.166-0.531,0.23c-0.203,0.065-0.419,0.119-0.648,0.16c-0.229,0.042-0.468,0.074-0.715,0.098
		c-0.248,0.023-0.491,0.035-0.73,0.035c-0.464,0-0.884-0.062-1.262-0.184s-0.701-0.312-0.969-0.57
		c-0.269-0.258-0.476-0.586-0.621-0.984c-0.146-0.398-0.219-0.876-0.219-1.434V222.5h-1.93v-1.602h1.93v-2.07H125.182z"/>
	<path d="M130.502,225.047c0-0.614,0.088-1.184,0.266-1.707c0.177-0.523,0.436-0.978,0.777-1.363
		c0.341-0.385,0.758-0.688,1.25-0.906c0.492-0.218,1.056-0.328,1.691-0.328c0.635,0,1.2,0.109,1.695,0.328
		c0.495,0.219,0.913,0.521,1.254,0.906c0.341,0.386,0.6,0.84,0.777,1.363c0.177,0.523,0.266,1.093,0.266,1.707v0.164
		c0,0.62-0.089,1.191-0.266,1.715c-0.177,0.523-0.435,0.978-0.773,1.363c-0.339,0.386-0.755,0.687-1.25,0.902
		c-0.495,0.216-1.058,0.324-1.688,0.324c-0.636,0-1.202-0.108-1.699-0.324c-0.498-0.216-0.917-0.517-1.258-0.902
		c-0.341-0.385-0.601-0.84-0.777-1.363c-0.177-0.523-0.266-1.095-0.266-1.715L130.502,225.047L130.502,225.047z M132.674,225.211
		c0,0.354,0.034,0.687,0.102,0.996c0.067,0.31,0.174,0.581,0.32,0.812c0.146,0.232,0.334,0.416,0.566,0.551
		c0.231,0.136,0.512,0.203,0.84,0.203c0.317,0,0.591-0.067,0.82-0.203c0.229-0.135,0.415-0.319,0.559-0.551
		c0.143-0.231,0.249-0.502,0.316-0.812c0.067-0.31,0.102-0.642,0.102-0.996v-0.164c0-0.344-0.034-0.669-0.102-0.977
		c-0.068-0.307-0.173-0.578-0.316-0.812c-0.144-0.234-0.33-0.419-0.559-0.555c-0.229-0.135-0.508-0.203-0.836-0.203
		c-0.323,0-0.599,0.068-0.828,0.203c-0.229,0.136-0.417,0.32-0.562,0.555c-0.146,0.234-0.253,0.505-0.32,0.812
		c-0.068,0.308-0.102,0.633-0.102,0.977V225.211z"/>
	<path d="M32.6,237.177l1.078,4.273l1.227-4.273h2.727v11.375h-2.016v-3.367l0.094-5.32l-1.492,4.938h-1.086l-1.336-4.727
		l0.094,5.109v3.367h-2.016v-11.375H32.6z"/>
	<path d="M44.975,247.364c-0.287,0.422-0.632,0.753-1.035,0.992c-0.404,0.239-0.845,0.359-1.324,0.359
		c-0.438,0-0.839-0.068-1.203-0.203c-0.365-0.135-0.677-0.35-0.938-0.645c-0.261-0.294-0.462-0.669-0.605-1.125
		c-0.144-0.456-0.215-1.004-0.215-1.645v-5h2.172v5.016c0,0.344,0.024,0.633,0.074,0.867c0.049,0.234,0.129,0.423,0.238,0.566
		c0.109,0.144,0.252,0.246,0.43,0.309c0.177,0.062,0.393,0.094,0.648,0.094c0.432,0,0.784-0.082,1.055-0.246
		s0.477-0.389,0.617-0.676v-5.93h2.18v8.453H45.1L44.975,247.364z"/>
	<path d="M49.639,236.552h4.727v10.234h2.422v1.766H49.64v-1.766h2.531v-8.461H49.64L49.639,236.552L49.639,236.552z"/>
	<path d="M62.771,238.028v2.07h3.156v1.602h-3.156v3.633c0,0.308,0.035,0.564,0.105,0.77s0.17,0.37,0.301,0.492
		c0.13,0.123,0.288,0.21,0.473,0.262c0.185,0.052,0.392,0.078,0.621,0.078c0.167,0,0.337-0.008,0.512-0.023
		c0.174-0.016,0.341-0.035,0.5-0.059c0.159-0.023,0.307-0.048,0.445-0.074c0.138-0.026,0.256-0.052,0.355-0.078l0.211,1.492
		c-0.151,0.089-0.328,0.166-0.531,0.23c-0.203,0.065-0.419,0.119-0.648,0.16c-0.229,0.042-0.468,0.074-0.715,0.098
		c-0.248,0.023-0.491,0.035-0.73,0.035c-0.464,0-0.884-0.062-1.262-0.184c-0.378-0.122-0.701-0.312-0.969-0.57
		c-0.269-0.258-0.476-0.586-0.621-0.984c-0.146-0.398-0.219-0.876-0.219-1.434V241.7h-1.93v-1.602h1.93v-2.07H62.771L62.771,238.028
		z"/>
	<path d="M68.967,240.099h4.602v6.688h2.289v1.766h-6.891v-1.766h2.406v-4.914h-2.406V240.099z M71.217,237.935
		c0-0.167,0.03-0.321,0.09-0.465c0.06-0.143,0.145-0.266,0.254-0.367s0.241-0.181,0.395-0.238c0.153-0.057,0.324-0.086,0.512-0.086
		c0.385,0,0.691,0.108,0.918,0.324c0.227,0.216,0.34,0.494,0.34,0.832c0,0.339-0.113,0.616-0.34,0.832
		c-0.227,0.216-0.533,0.324-0.918,0.324c-0.188,0-0.358-0.028-0.512-0.086c-0.154-0.057-0.285-0.137-0.395-0.238
		s-0.194-0.224-0.254-0.367C71.247,238.256,71.217,238.102,71.217,237.935z"/>
	<path d="M83.443,246.231c0-0.13-0.03-0.245-0.09-0.344c-0.06-0.099-0.167-0.191-0.32-0.277c-0.154-0.086-0.358-0.165-0.613-0.238
		c-0.255-0.073-0.578-0.146-0.969-0.219c-0.495-0.099-0.947-0.223-1.355-0.371c-0.409-0.148-0.759-0.328-1.051-0.539
		s-0.52-0.454-0.684-0.73c-0.164-0.276-0.246-0.594-0.246-0.953c0-0.349,0.083-0.682,0.25-1c0.167-0.317,0.406-0.596,0.719-0.836
		c0.312-0.239,0.692-0.43,1.141-0.57c0.448-0.141,0.953-0.211,1.516-0.211c0.588,0,1.117,0.069,1.586,0.207
		c0.469,0.138,0.866,0.328,1.191,0.57c0.325,0.242,0.574,0.53,0.746,0.863c0.172,0.333,0.258,0.695,0.258,1.086H83.35
		c0-0.328-0.133-0.603-0.398-0.824c-0.266-0.221-0.669-0.332-1.211-0.332c-0.505,0-0.887,0.091-1.145,0.273
		c-0.258,0.183-0.387,0.406-0.387,0.672c0,0.125,0.026,0.241,0.078,0.348c0.052,0.107,0.145,0.203,0.277,0.289
		c0.132,0.086,0.313,0.164,0.543,0.234c0.229,0.07,0.521,0.132,0.875,0.184c0.51,0.083,0.984,0.19,1.422,0.32
		s0.815,0.298,1.133,0.504c0.317,0.206,0.566,0.456,0.746,0.75c0.18,0.294,0.27,0.645,0.27,1.051c0,0.375-0.09,0.72-0.27,1.035
		c-0.18,0.315-0.435,0.587-0.766,0.816c-0.331,0.229-0.73,0.408-1.199,0.535c-0.469,0.127-0.992,0.191-1.57,0.191
		c-0.636,0-1.197-0.083-1.684-0.25s-0.895-0.384-1.223-0.652c-0.328-0.268-0.577-0.573-0.746-0.914
		c-0.169-0.341-0.254-0.684-0.254-1.027h2.07c0.016,0.229,0.078,0.426,0.188,0.59s0.25,0.297,0.422,0.398s0.368,0.176,0.59,0.223
		c0.221,0.047,0.449,0.07,0.684,0.07c0.536,0,0.945-0.086,1.227-0.258C83.304,246.723,83.443,246.502,83.443,246.231z"/>
	<path d="M88.17,240.099h4.602v6.688h2.289v1.766H88.17v-1.766h2.406v-4.914H88.17V240.099z M90.42,237.935
		c0-0.167,0.03-0.321,0.09-0.465c0.06-0.143,0.145-0.266,0.254-0.367c0.109-0.101,0.241-0.181,0.395-0.238
		c0.153-0.057,0.324-0.086,0.512-0.086c0.385,0,0.691,0.108,0.918,0.324s0.34,0.494,0.34,0.832c0,0.339-0.113,0.616-0.34,0.832
		c-0.227,0.216-0.533,0.324-0.918,0.324c-0.188,0-0.358-0.028-0.512-0.086c-0.154-0.057-0.285-0.137-0.395-0.238
		c-0.11-0.101-0.194-0.224-0.254-0.367C90.45,238.256,90.42,238.102,90.42,237.935z"/>
	<path d="M96.975,244.263c0-0.641,0.079-1.227,0.238-1.758c0.159-0.531,0.387-0.987,0.684-1.367c0.297-0.38,0.656-0.674,1.078-0.883
		c0.422-0.208,0.898-0.312,1.43-0.312c0.495,0,0.919,0.083,1.273,0.25s0.656,0.404,0.906,0.711l0.086-0.805h1.977v8.18
		c0,0.573-0.098,1.083-0.293,1.531c-0.195,0.448-0.469,0.825-0.82,1.133c-0.352,0.307-0.773,0.54-1.266,0.699
		c-0.492,0.159-1.035,0.238-1.629,0.238c-0.255,0-0.529-0.026-0.82-0.078c-0.292-0.052-0.581-0.133-0.867-0.242
		c-0.287-0.109-0.558-0.249-0.812-0.418c-0.255-0.169-0.474-0.371-0.656-0.605l0.977-1.32c0.276,0.312,0.588,0.551,0.938,0.715
		c0.349,0.164,0.727,0.246,1.133,0.246c0.609,0,1.084-0.163,1.426-0.488c0.341-0.326,0.512-0.788,0.512-1.387v-0.484
		c-0.255,0.281-0.554,0.5-0.895,0.656c-0.341,0.156-0.736,0.234-1.184,0.234c-0.526,0-0.999-0.108-1.418-0.324
		c-0.419-0.216-0.777-0.514-1.074-0.895c-0.297-0.38-0.525-0.832-0.684-1.355c-0.159-0.523-0.238-1.092-0.238-1.707v-0.165H96.975z
		 M99.154,244.427c0,0.354,0.035,0.684,0.105,0.988c0.07,0.304,0.178,0.57,0.324,0.797s0.331,0.405,0.555,0.535
		c0.224,0.13,0.489,0.195,0.797,0.195c0.38,0,0.694-0.073,0.941-0.219s0.444-0.349,0.59-0.609v-3.578
		c-0.146-0.266-0.343-0.47-0.59-0.613c-0.248-0.143-0.556-0.215-0.926-0.215c-0.308,0-0.573,0.066-0.797,0.199
		c-0.224,0.133-0.41,0.315-0.559,0.547c-0.148,0.232-0.259,0.503-0.332,0.812c-0.073,0.31-0.109,0.642-0.109,0.996L99.154,244.427
		L99.154,244.427z"/>
	<path d="M121.912,246.177h-3.414l-0.672,2.375h-2.312l3.727-11.375h1.992l3.656,11.375h-2.312L121.912,246.177z M119.037,244.31
		h2.359l-1.164-4.188L119.037,244.31z"/>
	<path d="M140.209,242.208h2.859v1.984h-2.859v3.219h-2.07v-3.219h-2.867v-1.984h2.867v-3.078h2.07V242.208z"/>
	<path d="M154.709,248.552v-11.375h3.82c0.62,0,1.184,0.062,1.691,0.188c0.507,0.126,0.941,0.315,1.301,0.57
		c0.359,0.255,0.637,0.578,0.832,0.969c0.195,0.391,0.293,0.852,0.293,1.383c-0.005,0.531-0.147,1.008-0.426,1.43
		c-0.279,0.422-0.689,0.742-1.23,0.961c0.328,0.083,0.612,0.208,0.852,0.375c0.239,0.167,0.438,0.363,0.598,0.59
		c0.159,0.227,0.276,0.474,0.352,0.742c0.075,0.269,0.113,0.546,0.113,0.832c0,0.547-0.094,1.029-0.281,1.445
		c-0.188,0.417-0.456,0.766-0.805,1.047c-0.349,0.281-0.773,0.492-1.273,0.633c-0.5,0.141-1.062,0.211-1.688,0.211L154.709,248.552
		L154.709,248.552z M156.912,241.95h1.633c0.609-0.005,1.078-0.133,1.406-0.383c0.328-0.25,0.495-0.617,0.5-1.102
		c0-0.531-0.164-0.913-0.492-1.145c-0.328-0.231-0.802-0.35-1.422-0.355h-1.625V241.95z M156.912,243.536v3.242h1.953
		c0.599-0.005,1.056-0.152,1.371-0.441s0.473-0.668,0.473-1.137c0.005-0.521-0.136-0.927-0.422-1.219
		c-0.287-0.292-0.729-0.44-1.328-0.445H156.912z"/>
</g>
<g>
	<rect x="187.595" y="226.946" fill="none" width="155.63" height="20.811"/>
	<path d="M205.129,235.978c0-0.203-0.035-0.393-0.105-0.57c-0.07-0.177-0.19-0.342-0.359-0.496
		c-0.169-0.153-0.391-0.294-0.664-0.422c-0.273-0.127-0.613-0.246-1.02-0.355c-0.495-0.135-0.968-0.305-1.418-0.508
		c-0.451-0.203-0.848-0.448-1.191-0.734c-0.344-0.286-0.619-0.62-0.824-1c-0.206-0.38-0.309-0.817-0.309-1.312
		c0-0.479,0.102-0.914,0.305-1.305s0.484-0.724,0.844-1c0.359-0.276,0.784-0.488,1.273-0.637c0.489-0.148,1.021-0.223,1.594-0.223
		c0.594,0,1.137,0.086,1.629,0.258c0.492,0.172,0.915,0.413,1.27,0.723c0.354,0.31,0.63,0.679,0.828,1.105
		c0.198,0.427,0.297,0.896,0.297,1.406h-2.141c-0.011-0.255-0.056-0.489-0.137-0.703c-0.081-0.213-0.201-0.397-0.359-0.551
		c-0.159-0.153-0.357-0.273-0.594-0.359c-0.237-0.086-0.515-0.129-0.832-0.129c-0.292,0-0.551,0.035-0.777,0.105
		s-0.418,0.169-0.574,0.297c-0.156,0.128-0.275,0.279-0.355,0.453c-0.081,0.175-0.121,0.363-0.121,0.566
		c0,0.214,0.053,0.406,0.16,0.578c0.106,0.172,0.262,0.327,0.465,0.465c0.203,0.138,0.449,0.265,0.738,0.379
		c0.289,0.115,0.616,0.222,0.98,0.32c0.521,0.151,1,0.336,1.438,0.555c0.438,0.219,0.813,0.478,1.129,0.777
		c0.315,0.3,0.56,0.641,0.734,1.023c0.174,0.383,0.262,0.809,0.262,1.277c0,0.5-0.101,0.944-0.301,1.332
		c-0.201,0.388-0.478,0.716-0.832,0.984c-0.354,0.269-0.776,0.472-1.266,0.609c-0.49,0.138-1.023,0.207-1.602,0.207
		c-0.359,0-0.718-0.033-1.074-0.098c-0.357-0.065-0.698-0.165-1.023-0.301c-0.326-0.135-0.629-0.305-0.91-0.508
		c-0.281-0.203-0.525-0.44-0.73-0.711c-0.206-0.271-0.367-0.578-0.484-0.922c-0.117-0.344-0.176-0.724-0.176-1.141h2.156
		c0.01,0.344,0.07,0.638,0.18,0.883c0.109,0.245,0.262,0.445,0.457,0.602c0.195,0.157,0.43,0.271,0.703,0.344
		c0.273,0.073,0.574,0.109,0.902,0.109c0.292,0,0.551-0.034,0.777-0.102c0.227-0.067,0.418-0.161,0.574-0.281
		c0.156-0.12,0.276-0.264,0.359-0.434C205.087,236.367,205.129,236.181,205.129,235.978z"/>
	<path d="M216.496,234.798c0,0.615-0.072,1.185-0.215,1.711c-0.144,0.526-0.354,0.98-0.633,1.363s-0.624,0.684-1.035,0.902
		c-0.412,0.219-0.883,0.328-1.414,0.328c-0.453,0-0.852-0.078-1.195-0.234c-0.343-0.156-0.644-0.375-0.898-0.656v3.984h-2.172
		v-11.703h2.008l0.078,0.828c0.26-0.312,0.567-0.555,0.922-0.727c0.354-0.172,0.768-0.258,1.242-0.258
		c0.536,0,1.01,0.103,1.422,0.309c0.411,0.206,0.758,0.498,1.039,0.875c0.281,0.378,0.493,0.831,0.637,1.359
		c0.143,0.529,0.215,1.113,0.215,1.754L216.496,234.798L216.496,234.798z M214.324,234.634c0-0.354-0.033-0.686-0.098-0.996
		s-0.167-0.578-0.305-0.805c-0.138-0.227-0.315-0.405-0.531-0.535c-0.216-0.13-0.478-0.195-0.785-0.195
		c-0.38,0-0.691,0.074-0.934,0.223c-0.243,0.149-0.431,0.358-0.566,0.629v3.531c0.135,0.266,0.324,0.478,0.566,0.637
		c0.242,0.159,0.559,0.238,0.949,0.238c0.307,0,0.569-0.067,0.785-0.203c0.216-0.135,0.392-0.32,0.527-0.555
		c0.135-0.234,0.234-0.506,0.297-0.816c0.062-0.31,0.094-0.639,0.094-0.988L214.324,234.634L214.324,234.634z"/>
	<path d="M222.605,239.103c-0.651,0-1.242-0.107-1.773-0.32c-0.531-0.213-0.987-0.504-1.367-0.871
		c-0.38-0.367-0.673-0.799-0.879-1.297c-0.206-0.497-0.309-1.03-0.309-1.598v-0.312c0-0.646,0.102-1.235,0.305-1.77
		c0.203-0.534,0.487-0.993,0.852-1.379c0.364-0.385,0.797-0.685,1.297-0.898c0.5-0.213,1.044-0.32,1.633-0.32
		c0.609,0,1.152,0.101,1.629,0.301c0.477,0.201,0.88,0.483,1.211,0.848c0.331,0.365,0.582,0.804,0.754,1.316
		c0.172,0.513,0.258,1.08,0.258,1.699v0.922h-5.734c0.042,0.287,0.126,0.548,0.254,0.785c0.127,0.237,0.29,0.441,0.488,0.613
		c0.198,0.172,0.424,0.305,0.68,0.398c0.255,0.094,0.534,0.141,0.836,0.141c0.213,0,0.426-0.021,0.637-0.062
		c0.211-0.042,0.413-0.103,0.605-0.184c0.192-0.081,0.372-0.181,0.539-0.301s0.312-0.26,0.438-0.422l1.086,1.172
		c-0.136,0.193-0.312,0.382-0.527,0.566c-0.216,0.185-0.472,0.349-0.766,0.492c-0.294,0.144-0.621,0.259-0.98,0.348
		C223.413,239.059,223.022,239.103,222.605,239.103z M222.348,232.095c-0.245,0-0.469,0.043-0.672,0.129
		c-0.203,0.086-0.382,0.21-0.535,0.371c-0.154,0.162-0.283,0.354-0.387,0.578c-0.104,0.224-0.183,0.474-0.234,0.75h3.562v-0.172
		c-0.011-0.229-0.055-0.445-0.133-0.648c-0.078-0.203-0.19-0.379-0.336-0.527c-0.146-0.148-0.324-0.266-0.535-0.352
		S222.624,232.095,222.348,232.095z"/>
	<path d="M230.074,230.493l0.133,1.172c0.302-0.422,0.669-0.749,1.102-0.98c0.432-0.231,0.911-0.348,1.438-0.348
		c0.427,0,0.817,0.062,1.172,0.188c0.354,0.125,0.66,0.324,0.918,0.598s0.458,0.625,0.602,1.055c0.143,0.43,0.215,0.952,0.215,1.566
		v5.203h-2.172v-5.172c0-0.333-0.038-0.608-0.113-0.824c-0.076-0.216-0.184-0.387-0.324-0.512c-0.14-0.125-0.31-0.212-0.508-0.262
		c-0.198-0.049-0.422-0.074-0.672-0.074c-0.37,0-0.685,0.074-0.945,0.223c-0.261,0.148-0.472,0.353-0.633,0.613v6.008h-2.18v-8.453
		L230.074,230.493L230.074,230.493z"/>
	<path d="M237.48,234.657c0-0.641,0.074-1.227,0.223-1.758c0.149-0.531,0.366-0.987,0.652-1.367c0.286-0.38,0.634-0.674,1.043-0.883
		c0.409-0.208,0.876-0.312,1.402-0.312c0.442,0,0.832,0.08,1.168,0.238c0.336,0.159,0.634,0.384,0.895,0.676v-4.305h2.18v12h-1.961
		l-0.109-0.883c-0.266,0.328-0.578,0.583-0.938,0.766c-0.36,0.183-0.776,0.273-1.25,0.273c-0.516,0-0.978-0.108-1.387-0.324
		c-0.409-0.216-0.755-0.514-1.039-0.895c-0.284-0.38-0.501-0.832-0.652-1.355s-0.227-1.092-0.227-1.707V234.657z M239.652,234.821
		c0,0.354,0.03,0.684,0.09,0.988c0.06,0.305,0.157,0.57,0.293,0.797c0.135,0.227,0.31,0.405,0.523,0.535
		c0.213,0.13,0.474,0.195,0.781,0.195c0.375,0,0.686-0.081,0.934-0.242c0.247-0.161,0.444-0.383,0.59-0.664v-3.422
		c-0.146-0.286-0.341-0.509-0.586-0.668c-0.245-0.159-0.552-0.238-0.922-0.238c-0.308,0-0.569,0.066-0.785,0.199
		c-0.216,0.133-0.392,0.315-0.527,0.547c-0.136,0.232-0.234,0.503-0.297,0.812c-0.062,0.31-0.094,0.642-0.094,0.996V234.821z"/>
	<path d="M252.59,238.946c-0.052-0.104-0.097-0.224-0.133-0.359c-0.037-0.135-0.068-0.278-0.094-0.43
		c-0.12,0.13-0.258,0.253-0.414,0.367c-0.156,0.115-0.33,0.215-0.52,0.301s-0.4,0.153-0.629,0.203
		c-0.229,0.049-0.477,0.074-0.742,0.074c-0.433,0-0.83-0.062-1.191-0.188c-0.362-0.125-0.673-0.299-0.934-0.523
		c-0.261-0.224-0.464-0.491-0.609-0.801c-0.146-0.31-0.219-0.647-0.219-1.012c0-0.891,0.332-1.579,0.996-2.066
		c0.664-0.487,1.655-0.73,2.973-0.73h1.211v-0.5c0-0.406-0.133-0.728-0.398-0.965c-0.266-0.237-0.648-0.355-1.148-0.355
		c-0.443,0-0.766,0.095-0.969,0.285s-0.305,0.444-0.305,0.762h-2.172c0-0.359,0.079-0.7,0.238-1.023
		c0.159-0.323,0.391-0.606,0.695-0.852c0.305-0.245,0.677-0.438,1.117-0.582c0.44-0.143,0.944-0.215,1.512-0.215
		c0.51,0,0.985,0.062,1.426,0.188c0.44,0.125,0.821,0.31,1.145,0.555c0.323,0.245,0.575,0.554,0.758,0.926
		c0.182,0.373,0.273,0.804,0.273,1.293v3.625c0,0.453,0.028,0.828,0.086,1.125c0.057,0.297,0.141,0.552,0.25,0.766v0.133h-2.203
		V238.946z M250.52,237.423c0.219,0,0.422-0.026,0.609-0.078c0.188-0.052,0.356-0.12,0.508-0.203
		c0.151-0.083,0.281-0.178,0.391-0.285c0.109-0.106,0.195-0.215,0.258-0.324v-1.453h-1.109c-0.339,0-0.628,0.033-0.867,0.098
		c-0.24,0.065-0.435,0.156-0.586,0.273c-0.151,0.117-0.263,0.258-0.336,0.422c-0.073,0.164-0.109,0.343-0.109,0.535
		c0,0.292,0.103,0.534,0.309,0.727C249.792,237.327,250.103,237.423,250.52,237.423z"/>
	<path d="M264.527,234.806c0,0.63-0.069,1.208-0.207,1.734c-0.138,0.526-0.345,0.979-0.621,1.359
		c-0.276,0.38-0.62,0.676-1.031,0.887c-0.412,0.211-0.891,0.316-1.438,0.316c-0.495,0-0.923-0.093-1.285-0.277
		c-0.362-0.185-0.673-0.444-0.934-0.777l-0.102,0.898h-1.953v-12h2.172v4.312c0.25-0.292,0.545-0.518,0.887-0.68
		c0.341-0.161,0.741-0.242,1.199-0.242c0.552,0,1.035,0.107,1.449,0.32c0.414,0.214,0.759,0.511,1.035,0.891
		c0.276,0.38,0.483,0.835,0.621,1.363c0.138,0.529,0.207,1.105,0.207,1.73L264.527,234.806L264.527,234.806z M262.355,234.642
		c0-0.344-0.026-0.669-0.078-0.977c-0.052-0.307-0.142-0.577-0.27-0.809c-0.128-0.231-0.301-0.415-0.52-0.551
		c-0.219-0.135-0.492-0.203-0.82-0.203c-0.396,0-0.718,0.083-0.965,0.25c-0.248,0.167-0.439,0.396-0.574,0.688v3.367
		c0.135,0.292,0.327,0.521,0.574,0.688c0.247,0.167,0.574,0.25,0.98,0.25c0.328,0,0.599-0.063,0.812-0.191
		c0.213-0.127,0.384-0.305,0.512-0.531c0.127-0.227,0.217-0.495,0.27-0.805c0.052-0.31,0.078-0.647,0.078-1.012L262.355,234.642
		L262.355,234.642z"/>
	<path d="M266.965,226.946h4.727v10.234h2.422v1.766h-7.148v-1.766h2.531v-8.461h-2.531L266.965,226.946L266.965,226.946z"/>
	<path d="M280.215,239.103c-0.651,0-1.242-0.107-1.773-0.32c-0.531-0.213-0.987-0.504-1.367-0.871
		c-0.38-0.367-0.673-0.799-0.879-1.297c-0.206-0.497-0.309-1.03-0.309-1.598v-0.312c0-0.646,0.103-1.235,0.305-1.77
		c0.203-0.534,0.487-0.993,0.852-1.379c0.364-0.385,0.797-0.685,1.297-0.898c0.5-0.213,1.044-0.32,1.633-0.32
		c0.609,0,1.152,0.101,1.629,0.301c0.477,0.201,0.88,0.483,1.211,0.848c0.331,0.365,0.582,0.804,0.754,1.316
		c0.172,0.513,0.258,1.08,0.258,1.699v0.922h-5.734c0.042,0.287,0.126,0.548,0.254,0.785c0.127,0.237,0.29,0.441,0.488,0.613
		c0.198,0.172,0.424,0.305,0.68,0.398c0.255,0.094,0.534,0.141,0.836,0.141c0.213,0,0.426-0.021,0.637-0.062
		c0.211-0.042,0.413-0.103,0.605-0.184c0.192-0.081,0.372-0.181,0.539-0.301s0.312-0.26,0.438-0.422l1.086,1.172
		c-0.136,0.193-0.312,0.382-0.527,0.566c-0.216,0.185-0.472,0.349-0.766,0.492c-0.294,0.144-0.621,0.259-0.98,0.348
		C281.023,239.059,280.631,239.103,280.215,239.103z M279.957,232.095c-0.245,0-0.469,0.043-0.672,0.129s-0.382,0.21-0.535,0.371
		c-0.154,0.162-0.283,0.354-0.387,0.578c-0.104,0.224-0.183,0.474-0.234,0.75h3.562v-0.172c-0.011-0.229-0.055-0.445-0.133-0.648
		c-0.078-0.203-0.19-0.379-0.336-0.527s-0.324-0.266-0.535-0.352S280.233,232.095,279.957,232.095z"/>
	<path d="M302.934,234.806c0,0.63-0.069,1.208-0.207,1.734s-0.345,0.979-0.621,1.359s-0.62,0.676-1.031,0.887
		c-0.412,0.211-0.891,0.316-1.438,0.316c-0.495,0-0.923-0.093-1.285-0.277c-0.362-0.185-0.673-0.444-0.934-0.777l-0.102,0.898
		h-1.953v-12h2.172v4.312c0.25-0.292,0.545-0.518,0.887-0.68c0.341-0.161,0.741-0.242,1.199-0.242c0.552,0,1.035,0.107,1.449,0.32
		c0.414,0.214,0.759,0.511,1.035,0.891s0.483,0.835,0.621,1.363c0.138,0.529,0.207,1.105,0.207,1.73L302.934,234.806
		L302.934,234.806z M300.762,234.642c0-0.344-0.026-0.669-0.078-0.977c-0.052-0.307-0.142-0.577-0.27-0.809
		c-0.128-0.231-0.301-0.415-0.52-0.551c-0.219-0.135-0.492-0.203-0.82-0.203c-0.396,0-0.718,0.083-0.965,0.25
		c-0.248,0.167-0.439,0.396-0.574,0.688v3.367c0.135,0.292,0.327,0.521,0.574,0.688c0.247,0.167,0.574,0.25,0.98,0.25
		c0.328,0,0.599-0.063,0.812-0.191c0.213-0.127,0.384-0.305,0.512-0.531c0.127-0.227,0.217-0.495,0.27-0.805
		c0.052-0.31,0.078-0.647,0.078-1.012L300.762,234.642L300.762,234.642z"/>
	<path d="M308.52,235.399l0.25,0.906l2.25-5.812h2.398l-4.289,9.719c-0.094,0.213-0.215,0.445-0.363,0.695s-0.335,0.481-0.559,0.695
		c-0.224,0.213-0.496,0.393-0.816,0.539c-0.32,0.146-0.699,0.219-1.137,0.219c-0.104,0-0.201-0.004-0.289-0.012
		c-0.089-0.008-0.175-0.019-0.258-0.031c-0.083-0.013-0.166-0.029-0.246-0.047c-0.081-0.019-0.168-0.041-0.262-0.066l0.266-1.656
		c0.088,0,0.202,0.004,0.34,0.012c0.138,0.008,0.249,0.012,0.332,0.012c0.172,0,0.324-0.052,0.457-0.156
		c0.133-0.104,0.246-0.219,0.34-0.344c0.094-0.125,0.169-0.24,0.227-0.344c0.057-0.104,0.096-0.156,0.117-0.156l0.523-0.984
		l-3.578-8.094h2.375L308.52,235.399z"/>
	<path d="M329.637,236.571h-3.414l-0.672,2.375h-2.312l3.727-11.375h1.992l3.656,11.375h-2.312L329.637,236.571z M326.762,234.704
		h2.359l-1.164-4.188L326.762,234.704z"/>
</g>
<g>
	<g>
		<line fill="none" stroke="#000000" stroke-miterlimit="10" x1="6" y1="440.5" x2="10" y2="440.5"/>
		<line fill="none" stroke="#000000" stroke-miterlimit="10" stroke-dasharray="8,8" x1="18" y1="440.5" x2="734" y2="440.5"/>
		<line fill="none" stroke="#000000" stroke-miterlimit="10" x1="738" y1="440.5" x2="742" y2="440.5"/>
	</g>
</g>
<g enable-background="new    ">
	<line fill="none" x1="115" y1="337" x2="115" y2="478"/>
	<g>
		<line fill="none" stroke="#2D4E6E" stroke-miterlimit="10" x1="114.5" y1="337" x2="114.5" y2="470"/>
		<g>
			<polygon fill="#2D4E6E" points="115,478.449 110.244,466.809 115,469.57 119.755,466.809 			"/>
		</g>
	</g>
</g>
</svg>
