<?xml version="1.0" encoding="utf-8"?>
<!-- Generator: Adobe Illustrator 16.0.4, SVG Export Plug-In . SVG Version: 6.00 Build 0)  -->
<!DOCTYPE svg PUBLIC "-//W3C//DTD SVG 1.1//EN" "http://www.w3.org/Graphics/SVG/1.1/DTD/svg11.dtd">
<svg version="1.1" id="Script_Verify2__x28_P2PKH_x29_"
	 xmlns="http://www.w3.org/2000/svg" xmlns:xlink="http://www.w3.org/1999/xlink" x="0px" y="0px" width="1366px" height="768px"
	 viewBox="0 0 1366 768" enable-background="new 0 0 1366 768" xml:space="preserve">
<rect x="-1" y="1" fill="#FFFFFF" width="1366" height="768"/>
<line fill="none" stroke="#000000" stroke-width="3" stroke-miterlimit="10" x1="116" y1="213.5" x2="579" y2="213.5"/>
<g>
	<rect x="-5.5" y="172.098" fill="none" width="163" height="43"/>
	<path d="M49.295,188.817v-15.705h3.33v12.955h6.37v2.75H49.295z"/>
	<path d="M72.38,182.791c0,1.955-0.516,3.484-1.547,4.587c-1.031,1.103-2.467,1.654-4.308,1.654c-1.153,0-2.17-0.252-3.051-0.757
		s-1.558-1.23-2.03-2.175s-0.709-2.048-0.709-3.309c0-1.962,0.512-3.487,1.536-4.576c1.024-1.088,2.463-1.633,4.318-1.633
		c1.153,0,2.17,0.251,3.051,0.752c0.881,0.501,1.558,1.221,2.03,2.159C72.144,180.432,72.38,181.531,72.38,182.791z M64.076,182.791
		c0,1.189,0.195,2.088,0.585,2.696c0.39,0.609,1.026,0.913,1.907,0.913c0.874,0,1.502-0.302,1.885-0.908
		c0.383-0.605,0.575-1.505,0.575-2.702c0-1.188-0.193-2.08-0.58-2.675c-0.387-0.594-1.021-0.892-1.901-0.892
		c-0.874,0-1.504,0.295-1.891,0.886S64.076,181.595,64.076,182.791z"/>
	<path d="M79.964,189.032c-3.738,0-5.607-2.052-5.607-6.155c0-2.041,0.508-3.6,1.525-4.678c1.017-1.078,2.474-1.617,4.372-1.617
		c1.389,0,2.635,0.272,3.738,0.816l-0.967,2.535c-0.516-0.208-0.996-0.377-1.439-0.51c-0.444-0.132-0.888-0.199-1.332-0.199
		c-1.705,0-2.557,1.21-2.557,3.631c0,2.349,0.852,3.523,2.557,3.523c0.63,0,1.214-0.084,1.751-0.252
		c0.537-0.168,1.074-0.431,1.611-0.79v2.804c-0.53,0.337-1.065,0.569-1.606,0.698C81.469,188.968,80.787,189.032,79.964,189.032z"/>
	<path d="M94.025,188.817l-0.634-1.633h-0.086c-0.552,0.695-1.119,1.176-1.703,1.445c-0.584,0.269-1.345,0.403-2.283,0.403
		c-1.153,0-2.061-0.329-2.723-0.988c-0.663-0.659-0.994-1.597-0.994-2.814c0-1.274,0.446-2.214,1.337-2.82
		c0.892-0.605,2.236-0.94,4.034-1.004l2.084-0.064v-0.526c0-1.217-0.623-1.826-1.869-1.826c-0.96,0-2.088,0.29-3.384,0.87
		l-1.085-2.213c1.382-0.723,2.915-1.085,4.598-1.085c1.611,0,2.847,0.351,3.706,1.053c0.859,0.702,1.289,1.769,1.289,3.201v8.003
		H94.025z M93.059,183.253l-1.268,0.043c-0.953,0.029-1.662,0.201-2.127,0.516c-0.466,0.315-0.698,0.795-0.698,1.439
		c0,0.924,0.53,1.386,1.59,1.386c0.759,0,1.366-0.218,1.821-0.655c0.455-0.437,0.682-1.017,0.682-1.74V183.253z"/>
	<path d="M102.963,188.817h-3.276v-16.715h3.276V188.817z"/>
</g>
<line fill="none" stroke="#000000" stroke-width="3" stroke-miterlimit="10" x1="76" y1="213.5" x2="627" y2="213.5"/>
<g>
	<rect x="490" y="172.098" fill="none" width="163" height="43"/>
	<path d="M573.014,182.791v6.026h-3.33v-15.705h4.576c2.134,0,3.713,0.389,4.737,1.166c1.024,0.777,1.536,1.957,1.536,3.54
		c0,0.924-0.254,1.746-0.763,2.465c-0.509,0.72-1.229,1.284-2.159,1.692c2.363,3.531,3.903,5.812,4.619,6.843h-3.695l-3.749-6.026
		H573.014z M573.014,180.084h1.074c1.053,0,1.83-0.175,2.331-0.526c0.501-0.351,0.752-0.902,0.752-1.654
		c0-0.745-0.256-1.274-0.768-1.59c-0.512-0.315-1.305-0.473-2.379-0.473h-1.01V180.084z"/>
	<path d="M589.385,189.032c-1.934,0-3.445-0.533-4.533-1.601c-1.089-1.067-1.633-2.578-1.633-4.533c0-2.012,0.503-3.568,1.509-4.667
		c1.006-1.099,2.397-1.649,4.173-1.649c1.697,0,3.019,0.483,3.964,1.45s1.418,2.303,1.418,4.007v1.59h-7.745
		c0.036,0.931,0.312,1.658,0.827,2.181c0.516,0.523,1.239,0.784,2.17,0.784c0.723,0,1.407-0.075,2.052-0.226s1.317-0.39,2.02-0.72
		v2.535c-0.573,0.287-1.186,0.5-1.837,0.639C591.118,188.962,590.323,189.032,589.385,189.032z M588.923,178.913
		c-0.695,0-1.239,0.22-1.633,0.661c-0.394,0.44-0.62,1.065-0.677,1.875h4.598c-0.015-0.809-0.226-1.434-0.634-1.875
		S589.617,178.913,588.923,178.913z"/>
	<path d="M607.7,188.817h-3.276v-7.015c0-0.866-0.145-1.516-0.435-1.95c-0.29-0.433-0.747-0.65-1.37-0.65
		c-0.838,0-1.447,0.308-1.826,0.924c-0.38,0.616-0.569,1.629-0.569,3.04v5.65h-3.276v-12.01h2.503l0.44,1.536h0.183
		c0.322-0.551,0.788-0.983,1.396-1.294c0.608-0.312,1.307-0.467,2.095-0.467c1.797,0,3.015,0.587,3.652,1.762h0.29
		c0.322-0.559,0.796-0.992,1.423-1.3c0.626-0.308,1.333-0.462,2.122-0.462c1.36,0,2.39,0.349,3.088,1.047s1.047,1.817,1.047,3.357
		v7.831H611.9v-7.015c0-0.866-0.145-1.516-0.435-1.95c-0.29-0.433-0.747-0.65-1.37-0.65c-0.802,0-1.402,0.287-1.799,0.859
		c-0.397,0.573-0.596,1.482-0.596,2.729V188.817z"/>
	<path d="M629.464,182.791c0,1.955-0.516,3.484-1.547,4.587c-1.031,1.103-2.467,1.654-4.308,1.654c-1.153,0-2.17-0.252-3.051-0.757
		s-1.558-1.23-2.03-2.175s-0.709-2.048-0.709-3.309c0-1.962,0.512-3.487,1.536-4.576c1.024-1.088,2.463-1.633,4.318-1.633
		c1.153,0,2.17,0.251,3.051,0.752c0.881,0.501,1.558,1.221,2.03,2.159C629.228,180.432,629.464,181.531,629.464,182.791z
		 M621.16,182.791c0,1.189,0.195,2.088,0.585,2.696c0.39,0.609,1.026,0.913,1.907,0.913c0.874,0,1.502-0.302,1.885-0.908
		c0.383-0.605,0.575-1.505,0.575-2.702c0-1.188-0.193-2.08-0.58-2.675c-0.387-0.594-1.021-0.892-1.901-0.892
		c-0.874,0-1.504,0.295-1.891,0.886S621.16,181.595,621.16,182.791z"/>
	<path d="M637.23,186.422c0.573,0,1.26-0.125,2.062-0.376v2.438c-0.816,0.365-1.819,0.548-3.008,0.548
		c-1.311,0-2.265-0.331-2.863-0.994c-0.598-0.662-0.897-1.656-0.897-2.981v-5.79h-1.568v-1.386l1.805-1.096l0.945-2.535h2.095v2.557
		h3.362v2.46h-3.362v5.79c0,0.466,0.13,0.81,0.392,1.031C636.455,186.311,636.801,186.422,637.23,186.422z"/>
	<path d="M647.156,189.032c-1.934,0-3.445-0.533-4.533-1.601c-1.089-1.067-1.633-2.578-1.633-4.533c0-2.012,0.503-3.568,1.509-4.667
		c1.006-1.099,2.397-1.649,4.173-1.649c1.697,0,3.019,0.483,3.964,1.45s1.418,2.303,1.418,4.007v1.59h-7.745
		c0.036,0.931,0.312,1.658,0.827,2.181c0.516,0.523,1.239,0.784,2.17,0.784c0.723,0,1.407-0.075,2.052-0.226s1.317-0.39,2.02-0.72
		v2.535c-0.573,0.287-1.186,0.5-1.837,0.639C648.889,188.962,648.094,189.032,647.156,189.032z M646.694,178.913
		c-0.695,0-1.239,0.22-1.633,0.661c-0.394,0.44-0.62,1.065-0.677,1.875h4.598c-0.015-0.809-0.226-1.434-0.634-1.875
		S647.389,178.913,646.694,178.913z"/>
</g>
<circle cx="63" cy="213" r="13"/>
<circle fill="none" stroke="#000000" stroke-width="3" stroke-miterlimit="10" cx="640" cy="213" r="13"/>
<g>
	<g>
		<path d="M87.196,323.479c0-0.13-0.03-0.245-0.09-0.344c-0.06-0.099-0.167-0.191-0.32-0.277c-0.154-0.086-0.358-0.165-0.613-0.238
			c-0.255-0.073-0.578-0.146-0.969-0.219c-0.495-0.099-0.947-0.223-1.355-0.371c-0.409-0.148-0.759-0.328-1.051-0.539
			c-0.292-0.211-0.52-0.454-0.684-0.73c-0.164-0.276-0.246-0.594-0.246-0.953c0-0.349,0.083-0.682,0.25-1
			c0.167-0.317,0.406-0.596,0.719-0.836c0.312-0.239,0.692-0.43,1.141-0.57c0.448-0.141,0.953-0.211,1.516-0.211
			c0.588,0,1.117,0.069,1.586,0.207c0.469,0.138,0.866,0.328,1.191,0.57c0.325,0.242,0.574,0.53,0.746,0.863
			c0.172,0.333,0.258,0.695,0.258,1.086h-2.172c0-0.328-0.133-0.603-0.398-0.824c-0.266-0.221-0.669-0.332-1.211-0.332
			c-0.505,0-0.887,0.091-1.145,0.273c-0.258,0.183-0.387,0.406-0.387,0.672c0,0.125,0.026,0.241,0.078,0.348
			c0.052,0.107,0.145,0.203,0.277,0.289s0.313,0.164,0.543,0.234c0.229,0.07,0.521,0.132,0.875,0.184
			c0.51,0.083,0.984,0.19,1.422,0.32c0.438,0.13,0.815,0.298,1.133,0.504c0.317,0.206,0.566,0.456,0.746,0.75
			c0.18,0.294,0.27,0.645,0.27,1.051c0,0.375-0.09,0.72-0.27,1.035c-0.18,0.315-0.435,0.587-0.766,0.816
			c-0.331,0.229-0.73,0.408-1.199,0.535s-0.992,0.191-1.57,0.191c-0.636,0-1.197-0.083-1.684-0.25
			c-0.487-0.167-0.895-0.384-1.223-0.652c-0.328-0.268-0.577-0.573-0.746-0.914c-0.169-0.341-0.254-0.684-0.254-1.027h2.07
			c0.016,0.229,0.078,0.426,0.188,0.59s0.25,0.297,0.422,0.398s0.368,0.176,0.59,0.223c0.221,0.047,0.449,0.07,0.684,0.07
			c0.536,0,0.945-0.086,1.227-0.258S87.196,323.75,87.196,323.479z"/>
		<path d="M96.735,324.612c-0.287,0.422-0.632,0.753-1.035,0.992c-0.404,0.239-0.845,0.359-1.324,0.359
			c-0.438,0-0.839-0.068-1.203-0.203c-0.365-0.135-0.677-0.35-0.938-0.645c-0.261-0.294-0.462-0.669-0.605-1.125
			c-0.144-0.456-0.215-1.004-0.215-1.645v-5h2.172v5.016c0,0.344,0.024,0.633,0.074,0.867c0.049,0.234,0.129,0.423,0.238,0.566
			c0.109,0.144,0.252,0.246,0.43,0.309c0.177,0.062,0.393,0.094,0.648,0.094c0.432,0,0.784-0.082,1.055-0.246
			c0.271-0.164,0.477-0.389,0.617-0.676v-5.93h2.18v8.453H96.86L96.735,324.612z"/>
		<path d="M108.563,321.659c0,0.63-0.069,1.208-0.207,1.734c-0.138,0.526-0.345,0.979-0.621,1.359
			c-0.276,0.38-0.62,0.676-1.031,0.887c-0.412,0.211-0.891,0.316-1.438,0.316c-0.495,0-0.923-0.093-1.285-0.277
			c-0.362-0.185-0.673-0.444-0.934-0.777l-0.102,0.898h-1.953v-12h2.172v4.312c0.25-0.292,0.545-0.518,0.887-0.68
			c0.341-0.161,0.741-0.242,1.199-0.242c0.552,0,1.035,0.107,1.449,0.32c0.414,0.214,0.759,0.511,1.035,0.891
			c0.276,0.38,0.483,0.835,0.621,1.363c0.138,0.529,0.207,1.105,0.207,1.73V321.659z M106.392,321.495
			c0-0.344-0.026-0.669-0.078-0.977c-0.052-0.307-0.142-0.577-0.27-0.809c-0.128-0.231-0.301-0.415-0.52-0.551
			c-0.219-0.135-0.492-0.203-0.82-0.203c-0.396,0-0.718,0.083-0.965,0.25c-0.248,0.167-0.439,0.396-0.574,0.688v3.367
			c0.135,0.292,0.327,0.521,0.574,0.688c0.247,0.167,0.574,0.25,0.98,0.25c0.328,0,0.599-0.063,0.812-0.191
			c0.213-0.127,0.384-0.305,0.512-0.531c0.127-0.227,0.217-0.495,0.27-0.805c0.052-0.31,0.078-0.647,0.078-1.012V321.495z"/>
		<path d="M116.001,323.479c0-0.13-0.03-0.245-0.09-0.344c-0.06-0.099-0.167-0.191-0.32-0.277c-0.154-0.086-0.358-0.165-0.613-0.238
			c-0.255-0.073-0.578-0.146-0.969-0.219c-0.495-0.099-0.947-0.223-1.355-0.371c-0.409-0.148-0.759-0.328-1.051-0.539
			c-0.292-0.211-0.52-0.454-0.684-0.73c-0.164-0.276-0.246-0.594-0.246-0.953c0-0.349,0.083-0.682,0.25-1
			c0.167-0.317,0.406-0.596,0.719-0.836c0.312-0.239,0.692-0.43,1.141-0.57c0.448-0.141,0.953-0.211,1.516-0.211
			c0.588,0,1.117,0.069,1.586,0.207c0.469,0.138,0.866,0.328,1.191,0.57c0.325,0.242,0.574,0.53,0.746,0.863
			c0.172,0.333,0.258,0.695,0.258,1.086h-2.172c0-0.328-0.133-0.603-0.398-0.824c-0.266-0.221-0.669-0.332-1.211-0.332
			c-0.505,0-0.887,0.091-1.145,0.273c-0.258,0.183-0.387,0.406-0.387,0.672c0,0.125,0.026,0.241,0.078,0.348
			c0.052,0.107,0.145,0.203,0.277,0.289s0.313,0.164,0.543,0.234c0.229,0.07,0.521,0.132,0.875,0.184
			c0.51,0.083,0.984,0.19,1.422,0.32c0.438,0.13,0.815,0.298,1.133,0.504c0.317,0.206,0.566,0.456,0.746,0.75
			c0.18,0.294,0.27,0.645,0.27,1.051c0,0.375-0.09,0.72-0.27,1.035c-0.18,0.315-0.435,0.587-0.766,0.816
			c-0.331,0.229-0.73,0.408-1.199,0.535s-0.992,0.191-1.57,0.191c-0.636,0-1.197-0.083-1.684-0.25
			c-0.487-0.167-0.895-0.384-1.223-0.652c-0.328-0.268-0.577-0.573-0.746-0.914c-0.169-0.341-0.254-0.684-0.254-1.027h2.07
			c0.016,0.229,0.078,0.426,0.188,0.59s0.25,0.297,0.422,0.398s0.368,0.176,0.59,0.223c0.221,0.047,0.449,0.07,0.684,0.07
			c0.536,0,0.945-0.086,1.227-0.258S116.001,323.75,116.001,323.479z"/>
		<path d="M123.892,324.221c0.213,0,0.417-0.031,0.609-0.094c0.192-0.062,0.362-0.151,0.508-0.266
			c0.146-0.114,0.259-0.252,0.34-0.414c0.081-0.161,0.116-0.341,0.105-0.539h2.047c0.01,0.438-0.08,0.844-0.27,1.219
			c-0.19,0.375-0.449,0.698-0.777,0.969c-0.328,0.271-0.71,0.483-1.145,0.637c-0.435,0.153-0.895,0.23-1.379,0.23
			c-0.656,0-1.232-0.111-1.727-0.332c-0.495-0.221-0.908-0.524-1.238-0.91c-0.331-0.385-0.581-0.837-0.75-1.355
			c-0.169-0.518-0.254-1.074-0.254-1.668v-0.234c0-0.594,0.083-1.149,0.25-1.668c0.167-0.518,0.417-0.97,0.75-1.355
			c0.333-0.385,0.746-0.69,1.238-0.914c0.492-0.224,1.063-0.336,1.715-0.336c0.521,0,1.002,0.078,1.445,0.234
			c0.442,0.156,0.824,0.376,1.145,0.66c0.32,0.284,0.569,0.628,0.746,1.031c0.177,0.404,0.26,0.855,0.25,1.355h-2.047
			c0.01-0.208-0.021-0.406-0.094-0.594c-0.073-0.188-0.18-0.349-0.32-0.484c-0.141-0.135-0.31-0.243-0.508-0.324
			c-0.198-0.081-0.414-0.121-0.648-0.121c-0.344,0-0.628,0.07-0.852,0.211c-0.224,0.141-0.402,0.328-0.535,0.562
			s-0.227,0.503-0.281,0.805c-0.055,0.302-0.082,0.615-0.082,0.938v0.234c0,0.328,0.026,0.645,0.078,0.949
			c0.052,0.305,0.145,0.573,0.277,0.805c0.133,0.232,0.312,0.418,0.539,0.559S123.542,324.221,123.892,324.221z"/>
		<path d="M135.821,317.19c0.328,0,0.631,0.022,0.91,0.066c0.278,0.044,0.504,0.093,0.676,0.145l-0.32,2.164
			c-0.287-0.067-0.58-0.118-0.879-0.152c-0.3-0.034-0.585-0.051-0.855-0.051c-0.609,0-1.098,0.117-1.465,0.352
			s-0.642,0.57-0.824,1.008v5.078h-2.172v-8.453h2.023l0.102,1.383c0.344-0.479,0.755-0.855,1.234-1.129
			C134.73,317.327,135.253,317.19,135.821,317.19z"/>
		<path d="M139.931,317.346h4.602v6.688h2.289v1.766h-6.891v-1.766h2.406v-4.914h-2.406V317.346z M142.181,315.182
			c0-0.167,0.03-0.321,0.09-0.465c0.06-0.143,0.145-0.266,0.254-0.367s0.241-0.181,0.395-0.238c0.153-0.057,0.324-0.086,0.512-0.086
			c0.385,0,0.691,0.108,0.918,0.324c0.227,0.216,0.34,0.494,0.34,0.832c0,0.339-0.113,0.616-0.34,0.832
			c-0.227,0.216-0.533,0.324-0.918,0.324c-0.188,0-0.358-0.028-0.512-0.086c-0.154-0.057-0.285-0.137-0.395-0.238
			s-0.194-0.224-0.254-0.367C142.21,315.504,142.181,315.349,142.181,315.182z"/>
		<path d="M156.571,321.659c0,0.63-0.069,1.208-0.207,1.734c-0.138,0.526-0.345,0.979-0.621,1.359
			c-0.276,0.38-0.62,0.676-1.031,0.887c-0.412,0.211-0.891,0.316-1.438,0.316c-0.495,0-0.923-0.093-1.285-0.277
			c-0.362-0.185-0.673-0.444-0.934-0.777l-0.102,0.898h-1.953v-12h2.172v4.312c0.25-0.292,0.545-0.518,0.887-0.68
			c0.341-0.161,0.741-0.242,1.199-0.242c0.552,0,1.035,0.107,1.449,0.32c0.414,0.214,0.759,0.511,1.035,0.891
			c0.276,0.38,0.483,0.835,0.621,1.363c0.138,0.529,0.207,1.105,0.207,1.73V321.659z M154.399,321.495
			c0-0.344-0.026-0.669-0.078-0.977c-0.052-0.307-0.142-0.577-0.27-0.809c-0.128-0.231-0.301-0.415-0.52-0.551
			c-0.219-0.135-0.492-0.203-0.82-0.203c-0.396,0-0.718,0.083-0.965,0.25c-0.248,0.167-0.439,0.396-0.574,0.688v3.367
			c0.135,0.292,0.327,0.521,0.574,0.688c0.247,0.167,0.574,0.25,0.98,0.25c0.328,0,0.599-0.063,0.812-0.191
			c0.213-0.127,0.384-0.305,0.512-0.531c0.127-0.227,0.217-0.495,0.27-0.805c0.052-0.31,0.078-0.647,0.078-1.012V321.495z"/>
		<path d="M162.657,325.956c-0.651,0-1.242-0.107-1.773-0.32s-0.987-0.504-1.367-0.871c-0.38-0.367-0.673-0.799-0.879-1.297
			c-0.206-0.497-0.309-1.03-0.309-1.598v-0.312c0-0.646,0.102-1.235,0.305-1.77c0.203-0.534,0.487-0.993,0.852-1.379
			c0.364-0.385,0.797-0.685,1.297-0.898c0.5-0.213,1.044-0.32,1.633-0.32c0.609,0,1.152,0.101,1.629,0.301
			c0.477,0.201,0.88,0.483,1.211,0.848c0.331,0.365,0.582,0.804,0.754,1.316c0.172,0.513,0.258,1.08,0.258,1.699v0.922h-5.734
			c0.042,0.287,0.126,0.548,0.254,0.785c0.127,0.237,0.29,0.441,0.488,0.613c0.198,0.172,0.424,0.305,0.68,0.398
			c0.255,0.094,0.534,0.141,0.836,0.141c0.213,0,0.426-0.021,0.637-0.062c0.211-0.042,0.413-0.103,0.605-0.184
			c0.192-0.081,0.372-0.181,0.539-0.301c0.167-0.12,0.312-0.26,0.438-0.422l1.086,1.172c-0.136,0.193-0.312,0.382-0.527,0.566
			c-0.216,0.185-0.472,0.349-0.766,0.492c-0.294,0.144-0.621,0.259-0.98,0.348S163.074,325.956,162.657,325.956z M162.399,318.948
			c-0.245,0-0.469,0.043-0.672,0.129s-0.382,0.21-0.535,0.371c-0.154,0.162-0.283,0.354-0.387,0.578
			c-0.104,0.224-0.183,0.474-0.234,0.75h3.562v-0.172c-0.011-0.229-0.055-0.445-0.133-0.648s-0.19-0.379-0.336-0.527
			c-0.146-0.148-0.324-0.266-0.535-0.352S162.675,318.948,162.399,318.948z"/>
		<path d="M169.751,321.174c0-0.734,0.056-1.426,0.168-2.074c0.112-0.648,0.264-1.247,0.457-1.797
			c0.192-0.549,0.418-1.051,0.676-1.504s0.53-0.854,0.816-1.203c0.286-0.349,0.582-0.645,0.887-0.887s0.6-0.428,0.887-0.559
			l0.422,1.188c-0.292,0.224-0.583,0.525-0.875,0.902c-0.292,0.378-0.554,0.847-0.785,1.406c-0.232,0.56-0.421,1.212-0.566,1.957
			c-0.146,0.745-0.219,1.597-0.219,2.555v0.203c0,0.964,0.073,1.818,0.219,2.562c0.146,0.745,0.334,1.397,0.566,1.957
			c0.231,0.56,0.493,1.03,0.785,1.41c0.292,0.38,0.583,0.682,0.875,0.906l-0.422,1.172c-0.287-0.13-0.582-0.318-0.887-0.562
			c-0.305-0.245-0.601-0.541-0.887-0.887c-0.287-0.347-0.559-0.746-0.816-1.199s-0.483-0.954-0.676-1.504
			c-0.193-0.549-0.345-1.147-0.457-1.793c-0.112-0.646-0.168-1.338-0.168-2.078V321.174z"/>
		<path d="M185.501,324.471c-0.141,0.172-0.333,0.347-0.578,0.523c-0.245,0.177-0.535,0.337-0.871,0.48
			c-0.336,0.144-0.712,0.259-1.129,0.348c-0.417,0.088-0.865,0.133-1.344,0.133c-0.646,0-1.229-0.115-1.75-0.344
			c-0.521-0.229-0.966-0.56-1.336-0.992c-0.37-0.432-0.655-0.962-0.855-1.59c-0.201-0.627-0.301-1.34-0.301-2.137v-1.547
			c0-0.797,0.105-1.509,0.316-2.137c0.211-0.627,0.502-1.16,0.875-1.598c0.372-0.438,0.81-0.771,1.312-1
			c0.502-0.229,1.048-0.344,1.637-0.344c0.641,0,1.199,0.081,1.676,0.242c0.477,0.162,0.879,0.395,1.207,0.699
			s0.584,0.676,0.77,1.113c0.185,0.438,0.306,0.93,0.363,1.477h-2.141c-0.073-0.583-0.249-1.022-0.527-1.316
			c-0.279-0.294-0.71-0.441-1.293-0.441c-0.281,0-0.542,0.072-0.781,0.215c-0.24,0.144-0.448,0.353-0.625,0.629
			c-0.177,0.276-0.318,0.619-0.422,1.027c-0.104,0.409-0.156,0.882-0.156,1.418v1.562c0.005,1.062,0.182,1.876,0.531,2.441
			c0.349,0.565,0.883,0.851,1.602,0.855c0.172,0,0.341-0.013,0.508-0.039c0.167-0.026,0.323-0.062,0.469-0.109
			c0.146-0.047,0.274-0.1,0.387-0.16c0.112-0.06,0.196-0.124,0.254-0.191l0.008-2.062h-1.883v-1.641h4.07L185.501,324.471z"/>
		<path d="M194.282,320.815h-4.672v3.211h5.461v1.773h-7.664v-11.375h7.641v1.789h-5.438v2.867h4.672V320.815z"/>
		<path d="M205.243,316.213h-3.508v9.586h-2.203v-9.586h-3.461v-1.789h9.172V316.213z"/>
		<path d="M212.079,323.424h-3.414l-0.672,2.375h-2.312l3.727-11.375h1.992l3.656,11.375h-2.312L212.079,323.424z M209.204,321.557
			h2.359l-1.164-4.188L209.204,321.557z"/>
		<path d="M216.04,325.799v-11.375h2.945c0.755,0,1.438,0.129,2.051,0.387c0.612,0.258,1.135,0.617,1.57,1.078
			c0.435,0.461,0.771,1.012,1.008,1.652c0.237,0.641,0.355,1.344,0.355,2.109v0.938c0,0.766-0.119,1.468-0.355,2.105
			c-0.237,0.638-0.569,1.188-0.996,1.648c-0.427,0.461-0.94,0.819-1.539,1.074c-0.599,0.255-1.261,0.383-1.984,0.383H216.04z
			 M218.251,316.206v7.828h0.844c0.411,0,0.78-0.078,1.105-0.234c0.325-0.156,0.602-0.383,0.828-0.68s0.399-0.657,0.52-1.082
			c0.12-0.424,0.18-0.907,0.18-1.449v-0.953c0-0.51-0.059-0.975-0.176-1.395c-0.117-0.419-0.292-0.78-0.523-1.082
			c-0.232-0.302-0.519-0.536-0.859-0.703c-0.341-0.167-0.736-0.25-1.184-0.25H218.251z"/>
		<path d="M225.642,325.799v-11.375h2.945c0.755,0,1.438,0.129,2.051,0.387c0.612,0.258,1.135,0.617,1.57,1.078
			c0.435,0.461,0.771,1.012,1.008,1.652c0.237,0.641,0.355,1.344,0.355,2.109v0.938c0,0.766-0.119,1.468-0.355,2.105
			c-0.237,0.638-0.569,1.188-0.996,1.648c-0.427,0.461-0.94,0.819-1.539,1.074c-0.599,0.255-1.261,0.383-1.984,0.383H225.642z
			 M227.853,316.206v7.828h0.844c0.411,0,0.78-0.078,1.105-0.234c0.325-0.156,0.602-0.383,0.828-0.68s0.399-0.657,0.52-1.082
			c0.12-0.424,0.18-0.907,0.18-1.449v-0.953c0-0.51-0.059-0.975-0.176-1.395c-0.117-0.419-0.292-0.78-0.523-1.082
			c-0.232-0.302-0.519-0.536-0.859-0.703c-0.341-0.167-0.736-0.25-1.184-0.25H227.853z"/>
		<path d="M239.149,321.549h-1.664v4.25h-2.195v-11.375h3.812c0.63,0,1.2,0.074,1.711,0.223c0.51,0.148,0.946,0.366,1.309,0.652
			c0.362,0.287,0.641,0.644,0.836,1.07c0.195,0.427,0.293,0.922,0.293,1.484c0,0.406-0.048,0.772-0.145,1.098
			c-0.097,0.326-0.234,0.617-0.414,0.875s-0.396,0.483-0.648,0.676c-0.253,0.193-0.535,0.359-0.848,0.5l2.445,4.695v0.102h-2.352
			L239.149,321.549z M237.485,319.768h1.625c0.62,0,1.098-0.157,1.434-0.473c0.336-0.315,0.504-0.746,0.504-1.293
			c0-0.567-0.164-1.009-0.492-1.324c-0.328-0.315-0.812-0.473-1.453-0.473h-1.617V319.768z"/>
		<path d="M250.751,321.346c0,0.714-0.058,1.39-0.172,2.027c-0.115,0.638-0.271,1.233-0.469,1.785
			c-0.198,0.552-0.429,1.056-0.691,1.512c-0.263,0.456-0.543,0.862-0.84,1.219c-0.297,0.356-0.602,0.66-0.914,0.91
			s-0.617,0.44-0.914,0.57l-0.414-1.172c0.286-0.219,0.575-0.519,0.867-0.898c0.292-0.38,0.555-0.849,0.789-1.406
			s0.424-1.211,0.57-1.961c0.146-0.75,0.219-1.606,0.219-2.57v-0.203c0-0.958-0.076-1.812-0.227-2.562
			c-0.151-0.75-0.344-1.406-0.578-1.969s-0.496-1.034-0.785-1.414c-0.289-0.38-0.574-0.68-0.855-0.898l0.414-1.164
			c0.297,0.13,0.602,0.32,0.914,0.57s0.617,0.554,0.914,0.91c0.297,0.357,0.577,0.763,0.84,1.219
			c0.263,0.456,0.493,0.96,0.691,1.512c0.198,0.552,0.354,1.147,0.469,1.785c0.114,0.638,0.172,1.314,0.172,2.027V321.346z"/>
	</g>
</g>
<g>
	<g>
		<path d="M415.565,367.359h-1.285l-3.862-7.438l-0.021,7.438h-1.278v-9.953h1.285l3.862,7.424l0.021-7.424h1.278V367.359z"/>
		<path d="M421,367.496c-0.52,0-0.997-0.089-1.432-0.267s-0.808-0.426-1.118-0.745s-0.551-0.697-0.725-1.135s-0.26-0.914-0.26-1.429
			v-0.287c0-0.597,0.096-1.131,0.287-1.603s0.445-0.871,0.762-1.196s0.677-0.575,1.08-0.749s0.817-0.26,1.241-0.26
			c0.533,0,0.999,0.092,1.398,0.277s0.73,0.44,0.995,0.766s0.461,0.71,0.591,1.152s0.195,0.92,0.195,1.436v0.567h-5.284
			c0.014,0.337,0.079,0.654,0.195,0.95s0.276,0.555,0.479,0.776s0.445,0.396,0.728,0.523s0.595,0.191,0.937,0.191
			c0.451,0,0.852-0.091,1.203-0.273s0.643-0.424,0.875-0.725l0.772,0.602c-0.123,0.187-0.277,0.366-0.461,0.537
			s-0.397,0.322-0.639,0.455s-0.515,0.238-0.82,0.318S421.36,367.496,421,367.496z M420.836,360.865
			c-0.255,0-0.497,0.047-0.725,0.14s-0.433,0.23-0.615,0.41s-0.336,0.401-0.461,0.663s-0.213,0.564-0.263,0.906h3.979v-0.096
			c-0.014-0.246-0.061-0.49-0.14-0.731s-0.197-0.458-0.352-0.649s-0.35-0.346-0.584-0.465S421.16,360.865,420.836,360.865z"/>
		<path d="M427.255,364.68l0.15,1.06l0.185-1.06l1.183-4.717h0.813l1.176,4.717l0.198,1.162l0.185-1.162l0.82-4.717h1.121
			l-1.572,7.396h-0.998l-1.155-4.532l-0.191-1.148l-0.185,1.148l-1.142,4.532h-0.998l-1.572-7.396h1.121L427.255,364.68z"/>
		<path d="M444.317,363.367v3.992h-1.265v-9.953h3.227c0.447,0.009,0.869,0.08,1.268,0.212s0.749,0.324,1.049,0.574
			s0.539,0.561,0.714,0.93s0.263,0.793,0.263,1.271s-0.088,0.901-0.263,1.268s-0.414,0.676-0.714,0.926s-0.65,0.442-1.049,0.574
			s-0.821,0.201-1.268,0.205H444.317z M444.317,362.328h1.962c0.292-0.004,0.561-0.051,0.807-0.14s0.46-0.215,0.643-0.379
			s0.325-0.363,0.427-0.598s0.154-0.502,0.154-0.803s-0.051-0.572-0.154-0.813s-0.244-0.447-0.424-0.615s-0.394-0.298-0.643-0.39
			s-0.519-0.139-0.81-0.144h-1.962V362.328z"/>
		<path d="M454.605,367.496c-0.52,0-0.997-0.089-1.432-0.267s-0.808-0.426-1.118-0.745s-0.551-0.697-0.725-1.135
			s-0.26-0.914-0.26-1.429v-0.287c0-0.597,0.096-1.131,0.287-1.603s0.445-0.871,0.762-1.196s0.677-0.575,1.08-0.749
			s0.817-0.26,1.241-0.26c0.533,0,0.999,0.092,1.398,0.277s0.73,0.44,0.995,0.766s0.461,0.71,0.591,1.152s0.195,0.92,0.195,1.436
			v0.567h-5.284c0.014,0.337,0.079,0.654,0.195,0.95s0.276,0.555,0.479,0.776s0.445,0.396,0.728,0.523s0.595,0.191,0.937,0.191
			c0.451,0,0.852-0.091,1.203-0.273s0.643-0.424,0.875-0.725l0.772,0.602c-0.123,0.187-0.277,0.366-0.461,0.537
			s-0.397,0.322-0.639,0.455s-0.515,0.238-0.82,0.318S454.965,367.496,454.605,367.496z M454.441,360.865
			c-0.255,0-0.497,0.047-0.725,0.14s-0.433,0.23-0.615,0.41s-0.336,0.401-0.461,0.663s-0.213,0.564-0.263,0.906h3.979v-0.096
			c-0.014-0.246-0.061-0.49-0.14-0.731s-0.197-0.458-0.352-0.649s-0.35-0.346-0.584-0.465S454.765,360.865,454.441,360.865z"/>
		<path d="M463.007,367.496c-0.52,0-0.997-0.089-1.432-0.267s-0.808-0.426-1.118-0.745s-0.551-0.697-0.725-1.135
			s-0.26-0.914-0.26-1.429v-0.287c0-0.597,0.096-1.131,0.287-1.603s0.445-0.871,0.762-1.196s0.677-0.575,1.08-0.749
			s0.817-0.26,1.241-0.26c0.533,0,0.999,0.092,1.398,0.277s0.73,0.44,0.995,0.766s0.461,0.71,0.591,1.152s0.195,0.92,0.195,1.436
			v0.567h-5.284c0.014,0.337,0.079,0.654,0.195,0.95s0.276,0.555,0.479,0.776s0.445,0.396,0.728,0.523s0.595,0.191,0.937,0.191
			c0.451,0,0.852-0.091,1.203-0.273s0.643-0.424,0.875-0.725l0.772,0.602c-0.123,0.187-0.277,0.366-0.461,0.537
			s-0.397,0.322-0.639,0.455s-0.515,0.238-0.82,0.318S463.367,367.496,463.007,367.496z M462.843,360.865
			c-0.255,0-0.497,0.047-0.725,0.14s-0.433,0.23-0.615,0.41s-0.336,0.401-0.461,0.663s-0.213,0.564-0.263,0.906h3.979v-0.096
			c-0.014-0.246-0.061-0.49-0.14-0.731s-0.197-0.458-0.352-0.649s-0.35-0.346-0.584-0.465S463.167,360.865,462.843,360.865z"/>
		<path d="M472.987,359.826c0.119,0,0.242,0.003,0.369,0.01s0.25,0.018,0.366,0.034s0.223,0.035,0.321,0.058
			s0.179,0.048,0.243,0.075l-0.171,1.237c-0.246-0.055-0.479-0.095-0.701-0.12s-0.452-0.038-0.694-0.038
			c-0.592,0-1.072,0.134-1.439,0.403s-0.637,0.645-0.81,1.128v4.744H469.2v-7.396h1.203l0.062,1.176
			c0.301-0.406,0.662-0.726,1.083-0.96S472.45,359.826,472.987,359.826z"/>
		<path d="M489.694,364.782h-3.322l-0.8,2.577h-1.265l3.213-9.953h1.06l3.158,9.953h-1.258L489.694,364.782z M486.714,363.682h2.646
			l-1.312-4.32L486.714,363.682z"/>
		<path d="M493.105,363.6c0-0.551,0.069-1.059,0.208-1.521s0.337-0.86,0.595-1.193s0.568-0.592,0.933-0.779s0.772-0.28,1.224-0.28
			c0.442,0,0.828,0.074,1.159,0.222s0.616,0.363,0.858,0.646v-3.835h1.265v10.5h-1.162l-0.055-0.779
			c-0.246,0.301-0.54,0.529-0.882,0.684s-0.741,0.232-1.196,0.232c-0.447,0-0.851-0.096-1.213-0.287s-0.671-0.456-0.926-0.793
			s-0.454-0.735-0.595-1.193s-0.212-0.951-0.212-1.48V363.6z M494.37,363.743c0,0.36,0.039,0.702,0.116,1.025
			s0.197,0.608,0.359,0.854s0.368,0.441,0.619,0.584s0.551,0.215,0.902,0.215c0.214,0,0.408-0.025,0.581-0.075
			s0.331-0.122,0.472-0.215s0.267-0.205,0.376-0.335s0.205-0.274,0.287-0.434v-3.432c-0.164-0.301-0.385-0.548-0.663-0.742
			s-0.625-0.291-1.039-0.291c-0.355,0-0.66,0.073-0.913,0.219s-0.46,0.343-0.622,0.591s-0.281,0.536-0.359,0.861
			s-0.116,0.669-0.116,1.029V363.743z"/>
		<path d="M501.507,363.6c0-0.551,0.069-1.059,0.208-1.521s0.337-0.86,0.595-1.193s0.568-0.592,0.933-0.779s0.772-0.28,1.224-0.28
			c0.442,0,0.828,0.074,1.159,0.222s0.616,0.363,0.858,0.646v-3.835h1.265v10.5h-1.162l-0.055-0.779
			c-0.246,0.301-0.54,0.529-0.882,0.684s-0.741,0.232-1.196,0.232c-0.447,0-0.851-0.096-1.213-0.287s-0.671-0.456-0.926-0.793
			s-0.454-0.735-0.595-1.193s-0.212-0.951-0.212-1.48V363.6z M502.771,363.743c0,0.36,0.039,0.702,0.116,1.025
			s0.197,0.608,0.359,0.854s0.368,0.441,0.619,0.584s0.551,0.215,0.902,0.215c0.214,0,0.408-0.025,0.581-0.075
			s0.331-0.122,0.472-0.215s0.267-0.205,0.376-0.335s0.205-0.274,0.287-0.434v-3.432c-0.164-0.301-0.385-0.548-0.663-0.742
			s-0.625-0.291-1.039-0.291c-0.355,0-0.66,0.073-0.913,0.219s-0.46,0.343-0.622,0.591s-0.281,0.536-0.359,0.861
			s-0.116,0.669-0.116,1.029V363.743z"/>
		<path d="M514.994,359.826c0.119,0,0.242,0.003,0.369,0.01s0.25,0.018,0.366,0.034s0.223,0.035,0.321,0.058
			s0.179,0.048,0.243,0.075l-0.171,1.237c-0.246-0.055-0.479-0.095-0.701-0.12s-0.452-0.038-0.694-0.038
			c-0.592,0-1.072,0.134-1.439,0.403s-0.637,0.645-0.81,1.128v4.744h-1.271v-7.396h1.203l0.062,1.176
			c0.301-0.406,0.662-0.726,1.083-0.96S514.457,359.826,514.994,359.826z"/>
		<path d="M521.816,367.496c-0.52,0-0.997-0.089-1.432-0.267s-0.808-0.426-1.118-0.745s-0.551-0.697-0.725-1.135
			s-0.26-0.914-0.26-1.429v-0.287c0-0.597,0.096-1.131,0.287-1.603s0.445-0.871,0.762-1.196s0.677-0.575,1.08-0.749
			s0.817-0.26,1.241-0.26c0.533,0,0.999,0.092,1.398,0.277s0.73,0.44,0.995,0.766s0.461,0.71,0.591,1.152s0.195,0.92,0.195,1.436
			v0.567h-5.284c0.014,0.337,0.079,0.654,0.195,0.95s0.276,0.555,0.479,0.776s0.445,0.396,0.728,0.523s0.595,0.191,0.937,0.191
			c0.451,0,0.852-0.091,1.203-0.273s0.643-0.424,0.875-0.725l0.772,0.602c-0.123,0.187-0.277,0.366-0.461,0.537
			s-0.397,0.322-0.639,0.455s-0.515,0.238-0.82,0.318S522.176,367.496,521.816,367.496z M521.652,360.865
			c-0.255,0-0.497,0.047-0.725,0.14s-0.433,0.23-0.615,0.41s-0.336,0.401-0.461,0.663s-0.213,0.564-0.263,0.906h3.979v-0.096
			c-0.014-0.246-0.061-0.49-0.14-0.731s-0.197-0.458-0.352-0.649s-0.35-0.346-0.584-0.465S521.976,360.865,521.652,360.865z"/>
		<path d="M531.865,365.397c0-0.15-0.03-0.286-0.089-0.407s-0.16-0.231-0.301-0.332s-0.328-0.192-0.561-0.277
			s-0.522-0.161-0.868-0.229c-0.424-0.086-0.81-0.191-1.159-0.314s-0.647-0.27-0.896-0.441s-0.441-0.372-0.578-0.602
			s-0.205-0.498-0.205-0.803c0-0.301,0.071-0.582,0.212-0.844s0.339-0.491,0.595-0.687s0.56-0.351,0.913-0.465
			s0.742-0.171,1.166-0.171c0.456,0,0.866,0.059,1.23,0.178s0.674,0.283,0.93,0.492s0.452,0.455,0.591,0.735
			s0.208,0.582,0.208,0.906h-1.265c0-0.16-0.041-0.315-0.123-0.468s-0.196-0.288-0.342-0.407s-0.322-0.214-0.53-0.287
			s-0.441-0.109-0.701-0.109c-0.269,0-0.505,0.03-0.708,0.089s-0.372,0.139-0.506,0.239s-0.236,0.216-0.304,0.349
			s-0.103,0.269-0.103,0.41c0,0.146,0.027,0.276,0.082,0.39s0.149,0.216,0.284,0.308s0.314,0.173,0.54,0.246
			s0.512,0.144,0.858,0.212c0.456,0.096,0.864,0.206,1.224,0.332s0.663,0.276,0.909,0.451s0.434,0.379,0.564,0.612
			s0.195,0.501,0.195,0.807c0,0.328-0.074,0.626-0.222,0.896s-0.354,0.499-0.619,0.69s-0.581,0.339-0.95,0.444
			s-0.772,0.157-1.21,0.157c-0.501,0-0.948-0.067-1.34-0.202s-0.724-0.312-0.995-0.533s-0.479-0.478-0.622-0.769
			s-0.215-0.595-0.215-0.909h1.265c0.018,0.26,0.088,0.479,0.208,0.656s0.271,0.321,0.451,0.431s0.379,0.187,0.598,0.232
			s0.435,0.068,0.649,0.068c0.533,0,0.955-0.098,1.265-0.294S531.861,365.721,531.865,365.397z"/>
		<path d="M540.267,365.397c0-0.15-0.03-0.286-0.089-0.407s-0.16-0.231-0.301-0.332s-0.328-0.192-0.561-0.277
			s-0.522-0.161-0.868-0.229c-0.424-0.086-0.81-0.191-1.159-0.314s-0.647-0.27-0.896-0.441s-0.441-0.372-0.578-0.602
			s-0.205-0.498-0.205-0.803c0-0.301,0.071-0.582,0.212-0.844s0.339-0.491,0.595-0.687s0.56-0.351,0.913-0.465
			s0.742-0.171,1.166-0.171c0.456,0,0.866,0.059,1.23,0.178s0.674,0.283,0.93,0.492s0.452,0.455,0.591,0.735
			s0.208,0.582,0.208,0.906h-1.265c0-0.16-0.041-0.315-0.123-0.468s-0.196-0.288-0.342-0.407s-0.322-0.214-0.53-0.287
			s-0.441-0.109-0.701-0.109c-0.269,0-0.505,0.03-0.708,0.089s-0.372,0.139-0.506,0.239s-0.236,0.216-0.304,0.349
			s-0.103,0.269-0.103,0.41c0,0.146,0.027,0.276,0.082,0.39s0.149,0.216,0.284,0.308s0.314,0.173,0.54,0.246
			s0.512,0.144,0.858,0.212c0.456,0.096,0.864,0.206,1.224,0.332s0.663,0.276,0.909,0.451s0.434,0.379,0.564,0.612
			s0.195,0.501,0.195,0.807c0,0.328-0.074,0.626-0.222,0.896s-0.354,0.499-0.619,0.69s-0.581,0.339-0.95,0.444
			s-0.772,0.157-1.21,0.157c-0.501,0-0.948-0.067-1.34-0.202s-0.724-0.312-0.995-0.533s-0.479-0.478-0.622-0.769
			s-0.215-0.595-0.215-0.909h1.265c0.018,0.26,0.088,0.479,0.208,0.656s0.271,0.321,0.451,0.431s0.379,0.187,0.598,0.232
			s0.435,0.068,0.649,0.068c0.533,0,0.955-0.098,1.265-0.294S540.262,365.721,540.267,365.397z"/>
		<path d="M547.021,367.496c-0.52,0-0.997-0.089-1.432-0.267s-0.808-0.426-1.118-0.745s-0.551-0.697-0.725-1.135
			s-0.26-0.914-0.26-1.429v-0.287c0-0.597,0.096-1.131,0.287-1.603s0.445-0.871,0.762-1.196s0.677-0.575,1.08-0.749
			s0.817-0.26,1.241-0.26c0.533,0,0.999,0.092,1.398,0.277s0.73,0.44,0.995,0.766s0.461,0.71,0.591,1.152s0.195,0.92,0.195,1.436
			v0.567h-5.284c0.014,0.337,0.079,0.654,0.195,0.95s0.276,0.555,0.479,0.776s0.445,0.396,0.728,0.523s0.595,0.191,0.937,0.191
			c0.451,0,0.852-0.091,1.203-0.273s0.643-0.424,0.875-0.725l0.772,0.602c-0.123,0.187-0.277,0.366-0.461,0.537
			s-0.397,0.322-0.639,0.455s-0.515,0.238-0.82,0.318S547.38,367.496,547.021,367.496z M546.856,360.865
			c-0.255,0-0.497,0.047-0.725,0.14s-0.433,0.23-0.615,0.41s-0.336,0.401-0.461,0.663s-0.213,0.564-0.263,0.906h3.979v-0.096
			c-0.014-0.246-0.061-0.49-0.14-0.731s-0.197-0.458-0.352-0.649s-0.35-0.346-0.584-0.465S547.18,360.865,546.856,360.865z"/>
		<path d="M557.069,365.397c0-0.15-0.03-0.286-0.089-0.407s-0.16-0.231-0.301-0.332s-0.328-0.192-0.561-0.277
			s-0.522-0.161-0.868-0.229c-0.424-0.086-0.81-0.191-1.159-0.314s-0.647-0.27-0.896-0.441s-0.441-0.372-0.578-0.602
			s-0.205-0.498-0.205-0.803c0-0.301,0.071-0.582,0.212-0.844s0.339-0.491,0.595-0.687s0.56-0.351,0.913-0.465
			s0.742-0.171,1.166-0.171c0.456,0,0.866,0.059,1.23,0.178s0.674,0.283,0.93,0.492s0.452,0.455,0.591,0.735
			s0.208,0.582,0.208,0.906h-1.265c0-0.16-0.041-0.315-0.123-0.468s-0.196-0.288-0.342-0.407s-0.322-0.214-0.53-0.287
			s-0.441-0.109-0.701-0.109c-0.269,0-0.505,0.03-0.708,0.089s-0.372,0.139-0.506,0.239s-0.236,0.216-0.304,0.349
			s-0.103,0.269-0.103,0.41c0,0.146,0.027,0.276,0.082,0.39s0.149,0.216,0.284,0.308s0.314,0.173,0.54,0.246
			s0.512,0.144,0.858,0.212c0.456,0.096,0.864,0.206,1.224,0.332s0.663,0.276,0.909,0.451s0.434,0.379,0.564,0.612
			s0.195,0.501,0.195,0.807c0,0.328-0.074,0.626-0.222,0.896s-0.354,0.499-0.619,0.69s-0.581,0.339-0.95,0.444
			s-0.772,0.157-1.21,0.157c-0.501,0-0.948-0.067-1.34-0.202s-0.724-0.312-0.995-0.533s-0.479-0.478-0.622-0.769
			s-0.215-0.595-0.215-0.909h1.265c0.018,0.26,0.088,0.479,0.208,0.656s0.271,0.321,0.451,0.431s0.379,0.187,0.598,0.232
			s0.435,0.068,0.649,0.068c0.533,0,0.955-0.098,1.265-0.294S557.065,365.721,557.069,365.397z"/>
		<path d="M414.191,389.359c-0.05-0.096-0.09-0.215-0.12-0.359c-0.03-0.143-0.051-0.293-0.065-0.447
			c-0.127,0.127-0.27,0.248-0.427,0.362s-0.331,0.214-0.52,0.301s-0.391,0.155-0.605,0.205s-0.442,0.075-0.684,0.075
			c-0.392,0-0.746-0.057-1.063-0.171s-0.585-0.268-0.807-0.462c-0.221-0.193-0.392-0.424-0.513-0.689
			c-0.121-0.268-0.181-0.555-0.181-0.865c0-0.406,0.081-0.762,0.243-1.066s0.391-0.56,0.687-0.762
			c0.296-0.203,0.653-0.355,1.07-0.455c0.417-0.1,0.883-0.15,1.398-0.15h1.381v-0.581c0-0.223-0.041-0.424-0.123-0.602
			s-0.198-0.329-0.349-0.455s-0.334-0.222-0.55-0.291s-0.459-0.103-0.728-0.103c-0.25,0-0.475,0.032-0.673,0.096
			s-0.366,0.148-0.502,0.253s-0.243,0.229-0.318,0.373s-0.113,0.293-0.113,0.448h-1.271c0.004-0.269,0.074-0.533,0.208-0.793
			s0.328-0.493,0.581-0.701s0.561-0.375,0.923-0.502s0.773-0.191,1.234-0.191c0.419,0,0.809,0.051,1.169,0.154
			s0.671,0.257,0.933,0.465s0.468,0.466,0.619,0.776s0.226,0.672,0.226,1.087v3.438c0,0.246,0.023,0.507,0.068,0.783
			c0.045,0.275,0.109,0.516,0.191,0.721v0.109H414.191z M411.956,388.396c0.246,0,0.476-0.032,0.69-0.096s0.409-0.147,0.584-0.253
			s0.327-0.225,0.455-0.359c0.127-0.134,0.228-0.273,0.301-0.42v-1.497h-1.176c-0.738,0-1.312,0.109-1.723,0.328
			s-0.615,0.563-0.615,1.032c0,0.182,0.031,0.352,0.092,0.506s0.154,0.288,0.277,0.4c0.123,0.111,0.278,0.199,0.465,0.263
			S411.71,388.396,411.956,388.396z"/>
		<path d="M417.493,385.6c0-0.551,0.069-1.059,0.208-1.521s0.337-0.86,0.595-1.193s0.568-0.592,0.933-0.779s0.772-0.28,1.224-0.28
			c0.442,0,0.828,0.074,1.159,0.222s0.616,0.363,0.858,0.646v-3.835h1.265v10.5h-1.162l-0.055-0.779
			c-0.246,0.301-0.54,0.529-0.882,0.684s-0.741,0.232-1.196,0.232c-0.447,0-0.851-0.096-1.213-0.287s-0.671-0.455-0.926-0.793
			s-0.454-0.734-0.595-1.193c-0.141-0.457-0.212-0.951-0.212-1.479V385.6z M418.758,385.743c0,0.36,0.039,0.702,0.116,1.025
			s0.197,0.608,0.359,0.854s0.368,0.441,0.619,0.584c0.25,0.145,0.551,0.216,0.902,0.216c0.214,0,0.408-0.024,0.581-0.075
			s0.331-0.122,0.472-0.215c0.141-0.094,0.267-0.205,0.376-0.336c0.109-0.129,0.205-0.273,0.287-0.434v-3.432
			c-0.164-0.301-0.385-0.548-0.663-0.742s-0.625-0.291-1.039-0.291c-0.355,0-0.66,0.073-0.913,0.219s-0.46,0.343-0.622,0.591
			s-0.281,0.536-0.359,0.861s-0.116,0.669-0.116,1.029V385.743z"/>
		<path d="M425.895,385.6c0-0.551,0.069-1.059,0.208-1.521s0.337-0.86,0.595-1.193s0.568-0.592,0.933-0.779s0.772-0.28,1.224-0.28
			c0.442,0,0.828,0.074,1.159,0.222s0.616,0.363,0.858,0.646v-3.835h1.265v10.5h-1.162l-0.055-0.779
			c-0.246,0.301-0.54,0.529-0.882,0.684s-0.741,0.232-1.196,0.232c-0.447,0-0.851-0.096-1.213-0.287s-0.671-0.455-0.926-0.793
			s-0.454-0.734-0.595-1.193c-0.141-0.457-0.212-0.951-0.212-1.479V385.6z M427.159,385.743c0,0.36,0.039,0.702,0.116,1.025
			s0.197,0.608,0.359,0.854s0.368,0.441,0.619,0.584c0.25,0.145,0.551,0.216,0.902,0.216c0.214,0,0.408-0.024,0.581-0.075
			s0.331-0.122,0.472-0.215c0.141-0.094,0.267-0.205,0.376-0.336c0.109-0.129,0.205-0.273,0.287-0.434v-3.432
			c-0.164-0.301-0.385-0.548-0.663-0.742s-0.625-0.291-1.039-0.291c-0.355,0-0.66,0.073-0.913,0.219s-0.46,0.343-0.622,0.591
			s-0.281,0.536-0.359,0.861s-0.116,0.669-0.116,1.029V385.743z"/>
		<path d="M437.803,389.496c-0.52,0-0.997-0.089-1.432-0.267s-0.808-0.427-1.118-0.745s-0.551-0.697-0.725-1.135
			s-0.26-0.914-0.26-1.429v-0.287c0-0.597,0.096-1.131,0.287-1.603s0.445-0.871,0.762-1.196s0.677-0.575,1.08-0.749
			s0.817-0.26,1.241-0.26c0.533,0,0.999,0.092,1.398,0.277s0.73,0.44,0.995,0.766s0.461,0.71,0.591,1.152s0.195,0.92,0.195,1.436
			v0.567h-5.284c0.014,0.338,0.079,0.654,0.195,0.95s0.276,0.555,0.479,0.776c0.203,0.221,0.445,0.395,0.728,0.522
			s0.595,0.191,0.937,0.191c0.451,0,0.852-0.091,1.203-0.273s0.643-0.424,0.875-0.725l0.772,0.602
			c-0.123,0.187-0.277,0.366-0.461,0.536c-0.185,0.172-0.397,0.322-0.639,0.455s-0.515,0.238-0.82,0.318
			C438.496,389.456,438.163,389.496,437.803,389.496z M437.639,382.865c-0.255,0-0.497,0.047-0.725,0.14s-0.433,0.23-0.615,0.41
			s-0.336,0.401-0.461,0.663s-0.213,0.564-0.263,0.906h3.979v-0.096c-0.014-0.246-0.061-0.49-0.14-0.731s-0.197-0.458-0.352-0.649
			s-0.35-0.346-0.584-0.465S437.962,382.865,437.639,382.865z"/>
		<path d="M442.697,385.6c0-0.551,0.069-1.059,0.208-1.521s0.337-0.86,0.595-1.193s0.568-0.592,0.933-0.779s0.772-0.28,1.224-0.28
			c0.442,0,0.828,0.074,1.159,0.222s0.616,0.363,0.858,0.646v-3.835h1.265v10.5h-1.162l-0.055-0.779
			c-0.246,0.301-0.54,0.529-0.882,0.684s-0.741,0.232-1.196,0.232c-0.447,0-0.851-0.096-1.213-0.287s-0.671-0.455-0.926-0.793
			s-0.454-0.734-0.595-1.193c-0.141-0.457-0.212-0.951-0.212-1.479V385.6z M443.962,385.743c0,0.36,0.039,0.702,0.116,1.025
			s0.197,0.608,0.359,0.854s0.368,0.441,0.619,0.584c0.25,0.145,0.551,0.216,0.902,0.216c0.214,0,0.408-0.024,0.581-0.075
			s0.331-0.122,0.472-0.215c0.141-0.094,0.267-0.205,0.376-0.336c0.109-0.129,0.205-0.273,0.287-0.434v-3.432
			c-0.164-0.301-0.385-0.548-0.663-0.742s-0.625-0.291-1.039-0.291c-0.355,0-0.66,0.073-0.913,0.219s-0.46,0.343-0.622,0.591
			s-0.281,0.536-0.359,0.861s-0.116,0.669-0.116,1.029V385.743z"/>
		<path d="M462.733,380.172v1.791h2.816v0.978h-2.816v4.02c0,0.287,0.037,0.524,0.109,0.711s0.173,0.336,0.301,0.448
			c0.127,0.111,0.274,0.189,0.441,0.235s0.343,0.068,0.53,0.068c0.137,0,0.278-0.008,0.424-0.024
			c0.146-0.016,0.288-0.035,0.427-0.058s0.269-0.047,0.39-0.071c0.121-0.025,0.22-0.047,0.297-0.065l0.178,0.896
			c-0.105,0.064-0.232,0.119-0.383,0.168c-0.15,0.047-0.314,0.088-0.492,0.123c-0.178,0.033-0.366,0.061-0.564,0.078
			s-0.396,0.027-0.591,0.027c-0.328,0-0.635-0.047-0.919-0.141c-0.285-0.093-0.532-0.241-0.742-0.443
			c-0.209-0.203-0.375-0.465-0.496-0.787c-0.121-0.32-0.181-0.709-0.181-1.165v-4.02h-1.941v-0.978h1.941v-1.791H462.733z"/>
		<path d="M467.785,385.593c0-0.533,0.078-1.029,0.232-1.487s0.377-0.855,0.667-1.193s0.642-0.603,1.056-0.796
			s0.882-0.291,1.401-0.291c0.524,0,0.995,0.097,1.412,0.291s0.77,0.459,1.06,0.796s0.512,0.735,0.667,1.193
			s0.232,0.954,0.232,1.487v0.15c0,0.533-0.078,1.028-0.232,1.483s-0.377,0.852-0.667,1.189s-0.642,0.602-1.056,0.793
			s-0.882,0.287-1.401,0.287c-0.524,0-0.995-0.096-1.412-0.287s-0.77-0.455-1.06-0.793s-0.512-0.734-0.667-1.189
			s-0.232-0.95-0.232-1.483V385.593z M469.05,385.743c0,0.364,0.043,0.712,0.13,1.042c0.086,0.331,0.218,0.621,0.393,0.872
			s0.396,0.448,0.66,0.595s0.572,0.219,0.923,0.219c0.346,0,0.65-0.072,0.913-0.219s0.481-0.344,0.656-0.595
			s0.307-0.541,0.393-0.872c0.086-0.33,0.13-0.678,0.13-1.042v-0.15c0-0.36-0.044-0.705-0.133-1.036s-0.221-0.621-0.396-0.872
			s-0.394-0.45-0.656-0.598s-0.568-0.222-0.919-0.222s-0.656,0.074-0.916,0.222s-0.478,0.348-0.653,0.598s-0.307,0.541-0.393,0.872
			s-0.13,0.675-0.13,1.036V385.743z"/>
		<path d="M485.142,378.859h3.78v9.406h2.413v1.094h-6.193v-1.094h2.516v-8.306h-2.516V378.859z"/>
		<path d="M492.989,385.593c0-0.533,0.078-1.029,0.232-1.487s0.377-0.855,0.667-1.193s0.642-0.603,1.056-0.796
			s0.882-0.291,1.401-0.291c0.524,0,0.995,0.097,1.412,0.291s0.77,0.459,1.06,0.796s0.512,0.735,0.667,1.193
			s0.232,0.954,0.232,1.487v0.15c0,0.533-0.078,1.028-0.232,1.483s-0.377,0.852-0.667,1.189s-0.642,0.602-1.056,0.793
			s-0.882,0.287-1.401,0.287c-0.524,0-0.995-0.096-1.412-0.287s-0.77-0.455-1.06-0.793s-0.512-0.734-0.667-1.189
			s-0.232-0.95-0.232-1.483V385.593z M494.254,385.743c0,0.364,0.043,0.712,0.13,1.042c0.086,0.331,0.218,0.621,0.393,0.872
			s0.396,0.448,0.66,0.595s0.572,0.219,0.923,0.219c0.346,0,0.65-0.072,0.913-0.219s0.481-0.344,0.656-0.595
			s0.307-0.541,0.393-0.872c0.086-0.33,0.13-0.678,0.13-1.042v-0.15c0-0.36-0.044-0.705-0.133-1.036s-0.221-0.621-0.396-0.872
			s-0.394-0.45-0.656-0.598s-0.568-0.222-0.919-0.222s-0.656,0.074-0.916,0.222s-0.478,0.348-0.653,0.598s-0.307,0.541-0.393,0.872
			s-0.13,0.675-0.13,1.036V385.743z"/>
		<path d="M504.897,388.471c0.228,0,0.45-0.037,0.667-0.109s0.409-0.174,0.578-0.305c0.168-0.129,0.304-0.282,0.407-0.457
			c0.103-0.176,0.156-0.366,0.161-0.571h1.196c-0.004,0.328-0.09,0.642-0.256,0.94c-0.167,0.298-0.389,0.561-0.667,0.785
			c-0.278,0.227-0.597,0.406-0.957,0.541c-0.36,0.134-0.736,0.201-1.128,0.201c-0.561,0-1.05-0.1-1.47-0.301
			s-0.769-0.471-1.049-0.811c-0.28-0.339-0.491-0.73-0.632-1.176c-0.141-0.443-0.212-0.912-0.212-1.404v-0.287
			c0-0.488,0.071-0.955,0.212-1.401s0.352-0.84,0.632-1.179s0.63-0.609,1.049-0.81s0.909-0.301,1.47-0.301
			c0.438,0,0.84,0.069,1.207,0.208s0.684,0.328,0.95,0.567s0.475,0.523,0.625,0.851s0.226,0.679,0.226,1.053h-1.196
			c-0.004-0.223-0.054-0.434-0.147-0.632s-0.22-0.373-0.379-0.523s-0.35-0.269-0.571-0.355s-0.459-0.13-0.714-0.13
			c-0.392,0-0.721,0.079-0.988,0.236s-0.482,0.362-0.646,0.615s-0.281,0.537-0.352,0.851s-0.106,0.632-0.106,0.95v0.287
			c0,0.324,0.035,0.644,0.106,0.961c0.071,0.316,0.187,0.602,0.349,0.854c0.162,0.254,0.376,0.459,0.643,0.615
			C504.169,388.393,504.501,388.471,504.897,388.471z"/>
		<path d="M515.008,389.359c-0.05-0.096-0.09-0.215-0.12-0.359c-0.03-0.143-0.051-0.293-0.065-0.447
			c-0.127,0.127-0.27,0.248-0.427,0.362s-0.331,0.214-0.52,0.301s-0.391,0.155-0.605,0.205s-0.442,0.075-0.684,0.075
			c-0.392,0-0.746-0.057-1.063-0.171s-0.585-0.268-0.807-0.462c-0.221-0.193-0.392-0.424-0.513-0.689
			c-0.121-0.268-0.181-0.555-0.181-0.865c0-0.406,0.081-0.762,0.243-1.066s0.391-0.56,0.687-0.762
			c0.296-0.203,0.653-0.355,1.07-0.455c0.417-0.1,0.883-0.15,1.398-0.15h1.381v-0.581c0-0.223-0.041-0.424-0.123-0.602
			s-0.198-0.329-0.349-0.455s-0.334-0.222-0.55-0.291s-0.459-0.103-0.728-0.103c-0.25,0-0.475,0.032-0.673,0.096
			s-0.366,0.148-0.502,0.253s-0.243,0.229-0.318,0.373s-0.113,0.293-0.113,0.448h-1.271c0.004-0.269,0.074-0.533,0.208-0.793
			s0.328-0.493,0.581-0.701s0.561-0.375,0.923-0.502s0.773-0.191,1.234-0.191c0.419,0,0.809,0.051,1.169,0.154
			s0.671,0.257,0.933,0.465s0.468,0.466,0.619,0.776s0.226,0.672,0.226,1.087v3.438c0,0.246,0.023,0.507,0.068,0.783
			c0.045,0.275,0.109,0.516,0.191,0.721v0.109H515.008z M512.772,388.396c0.246,0,0.476-0.032,0.69-0.096s0.409-0.147,0.584-0.253
			s0.327-0.225,0.455-0.359c0.127-0.134,0.228-0.273,0.301-0.42v-1.497h-1.176c-0.738,0-1.312,0.109-1.723,0.328
			s-0.615,0.563-0.615,1.032c0,0.182,0.031,0.352,0.092,0.506s0.154,0.288,0.277,0.4c0.123,0.111,0.278,0.199,0.465,0.263
			S512.526,388.396,512.772,388.396z"/>
		<path d="M518.747,378.859h3.78v9.406h2.413v1.094h-6.193v-1.094h2.516v-8.306h-2.516V378.859z"/>
		<path d="M535.55,378.859h3.78v9.406h2.413v1.094h-6.193v-1.094h2.516v-8.306h-2.516V378.859z"/>
		<path d="M543.951,381.963h3.78v6.303h2.413v1.094h-6.193v-1.094h2.516v-5.202h-2.516V381.963z M546.303,380.021
			c0-0.209,0.062-0.386,0.188-0.53s0.315-0.215,0.571-0.215c0.25,0,0.44,0.072,0.567,0.215s0.191,0.32,0.191,0.53
			c0,0.205-0.064,0.376-0.191,0.513s-0.317,0.205-0.567,0.205c-0.255,0-0.445-0.068-0.571-0.205S546.303,380.227,546.303,380.021z"
			/>
		<path d="M557.069,387.397c0-0.15-0.03-0.286-0.089-0.407c-0.059-0.12-0.16-0.23-0.301-0.331s-0.328-0.192-0.561-0.276
			c-0.232-0.085-0.522-0.161-0.868-0.229c-0.424-0.087-0.81-0.191-1.159-0.314s-0.647-0.271-0.896-0.44
			c-0.249-0.172-0.441-0.372-0.578-0.602s-0.205-0.498-0.205-0.803c0-0.301,0.071-0.582,0.212-0.844s0.339-0.491,0.595-0.687
			s0.56-0.351,0.913-0.465s0.742-0.171,1.166-0.171c0.456,0,0.866,0.059,1.23,0.178s0.674,0.283,0.93,0.492s0.452,0.455,0.591,0.735
			s0.208,0.582,0.208,0.906h-1.265c0-0.16-0.041-0.315-0.123-0.468s-0.196-0.288-0.342-0.407s-0.322-0.214-0.53-0.287
			s-0.441-0.109-0.701-0.109c-0.269,0-0.505,0.03-0.708,0.089s-0.372,0.139-0.506,0.239s-0.236,0.216-0.304,0.349
			s-0.103,0.269-0.103,0.41c0,0.146,0.027,0.276,0.082,0.39s0.149,0.216,0.284,0.308s0.314,0.173,0.54,0.246
			s0.512,0.144,0.858,0.212c0.456,0.096,0.864,0.206,1.224,0.332c0.36,0.125,0.663,0.275,0.909,0.451
			c0.246,0.175,0.434,0.379,0.564,0.611s0.195,0.502,0.195,0.807c0,0.328-0.074,0.627-0.222,0.896s-0.354,0.499-0.619,0.69
			s-0.581,0.34-0.95,0.444s-0.772,0.157-1.21,0.157c-0.501,0-0.948-0.067-1.34-0.201c-0.392-0.135-0.724-0.312-0.995-0.533
			c-0.271-0.222-0.479-0.479-0.622-0.77s-0.215-0.595-0.215-0.909h1.265c0.018,0.26,0.088,0.479,0.208,0.656
			s0.271,0.321,0.451,0.431s0.379,0.188,0.598,0.232s0.435,0.068,0.649,0.068c0.533,0,0.955-0.098,1.265-0.294
			S557.065,387.721,557.069,387.397z"/>
		<path d="M563.55,380.172v1.791h2.816v0.978h-2.816v4.02c0,0.287,0.037,0.524,0.109,0.711s0.173,0.336,0.301,0.448
			c0.127,0.111,0.274,0.189,0.441,0.235s0.343,0.068,0.53,0.068c0.137,0,0.278-0.008,0.424-0.024
			c0.146-0.016,0.288-0.035,0.427-0.058s0.269-0.047,0.39-0.071c0.121-0.025,0.22-0.047,0.297-0.065l0.178,0.896
			c-0.105,0.064-0.232,0.119-0.383,0.168c-0.15,0.047-0.314,0.088-0.492,0.123c-0.178,0.033-0.366,0.061-0.564,0.078
			s-0.396,0.027-0.591,0.027c-0.328,0-0.635-0.047-0.919-0.141c-0.285-0.093-0.532-0.241-0.742-0.443
			c-0.209-0.203-0.375-0.465-0.496-0.787c-0.121-0.32-0.181-0.709-0.181-1.165v-4.02h-1.941v-0.978h1.941v-1.791H563.55z"/>
		<path d="M571.158,388.539c0-0.137,0.021-0.264,0.065-0.383s0.106-0.223,0.188-0.311c0.082-0.09,0.185-0.158,0.308-0.209
			s0.267-0.075,0.431-0.075s0.309,0.024,0.434,0.075s0.23,0.119,0.314,0.209c0.084,0.088,0.148,0.191,0.191,0.311
			s0.065,0.246,0.065,0.383c0,0.133-0.021,0.256-0.065,0.373c-0.043,0.115-0.107,0.217-0.191,0.304s-0.189,0.153-0.314,0.202
			c-0.125,0.047-0.27,0.071-0.434,0.071s-0.308-0.024-0.431-0.071c-0.123-0.049-0.226-0.115-0.308-0.202s-0.145-0.188-0.188-0.304
			C571.18,388.795,571.158,388.672,571.158,388.539z"/>
	</g>
</g>
<g>
	<g>
		<path d="M413.932,311.354h-2.987l-0.588,2.078h-2.023l3.261-9.953h1.743l3.199,9.953h-2.023L413.932,311.354z M411.416,309.721
			h2.064l-1.019-3.664L411.416,309.721z"/>
		<path d="M417.397,313.433v-9.953h2.577c0.661,0,1.259,0.113,1.794,0.338s0.994,0.54,1.374,0.943s0.674,0.885,0.882,1.446
			s0.311,1.176,0.311,1.846v0.82c0,0.67-0.104,1.284-0.311,1.842s-0.498,1.039-0.872,1.442s-0.823,0.717-1.347,0.94
			s-1.103,0.335-1.736,0.335H417.397z M419.332,305.038v6.85h0.738c0.36,0,0.683-0.068,0.967-0.205s0.526-0.335,0.725-0.595
			s0.35-0.575,0.455-0.947s0.157-0.794,0.157-1.268v-0.834c0-0.447-0.051-0.854-0.154-1.22s-0.255-0.683-0.458-0.947
			s-0.454-0.469-0.752-0.615s-0.644-0.219-1.036-0.219H419.332z"/>
		<path d="M425.799,313.433v-9.953h2.577c0.661,0,1.259,0.113,1.794,0.338s0.994,0.54,1.374,0.943s0.674,0.885,0.882,1.446
			s0.311,1.176,0.311,1.846v0.82c0,0.67-0.104,1.284-0.311,1.842s-0.498,1.039-0.872,1.442s-0.823,0.717-1.347,0.94
			s-1.103,0.335-1.736,0.335H425.799z M427.733,305.038v6.85h0.738c0.36,0,0.683-0.068,0.967-0.205s0.526-0.335,0.725-0.595
			s0.35-0.575,0.455-0.947s0.157-0.794,0.157-1.268v-0.834c0-0.447-0.051-0.854-0.154-1.22s-0.255-0.683-0.458-0.947
			s-0.454-0.469-0.752-0.615s-0.644-0.219-1.036-0.219H427.733z"/>
		<path d="M437.618,309.714h-1.456v3.719h-1.921v-9.953h3.336c0.551,0,1.05,0.065,1.497,0.195s0.828,0.32,1.145,0.571
			s0.561,0.563,0.731,0.937s0.256,0.807,0.256,1.299c0,0.355-0.042,0.676-0.126,0.96s-0.205,0.54-0.362,0.766
			s-0.346,0.423-0.567,0.591s-0.468,0.314-0.742,0.438l2.14,4.108v0.089h-2.058L437.618,309.714z M436.162,308.155h1.422
			c0.542,0,0.96-0.138,1.254-0.414s0.441-0.653,0.441-1.131c0-0.497-0.144-0.883-0.431-1.159s-0.711-0.414-1.271-0.414h-1.415
			V308.155z"/>
		<path d="M444.188,309.393c0-0.652,0.051-1.265,0.154-1.839s0.24-1.106,0.414-1.596s0.373-0.938,0.598-1.343
			s0.462-0.766,0.711-1.08s0.498-0.583,0.749-0.807s0.49-0.399,0.718-0.526l0.267,0.834c-0.283,0.214-0.564,0.506-0.844,0.875
			s-0.531,0.817-0.752,1.343s-0.401,1.132-0.54,1.818s-0.208,1.455-0.208,2.307v0.096c0,0.852,0.069,1.623,0.208,2.311
			s0.319,1.296,0.54,1.825s0.472,0.981,0.752,1.357s0.562,0.678,0.844,0.906l-0.267,0.772c-0.228-0.127-0.468-0.302-0.721-0.523
			s-0.503-0.49-0.752-0.807s-0.485-0.677-0.711-1.08s-0.424-0.85-0.595-1.34s-0.308-1.022-0.41-1.596s-0.154-1.187-0.154-1.839
			V309.393z"/>
		<path d="M451.536,302.933h3.78v9.406h2.413v1.094h-6.193v-1.094h2.516v-8.306h-2.516V302.933z"/>
		<path d="M459.384,309.666c0-0.533,0.078-1.029,0.232-1.487s0.377-0.855,0.667-1.193s0.642-0.603,1.056-0.796
			s0.882-0.291,1.401-0.291c0.524,0,0.995,0.097,1.412,0.291s0.77,0.459,1.06,0.796s0.512,0.735,0.667,1.193
			s0.232,0.954,0.232,1.487v0.15c0,0.533-0.078,1.028-0.232,1.483s-0.377,0.852-0.667,1.189s-0.642,0.602-1.056,0.793
			s-0.882,0.287-1.401,0.287c-0.524,0-0.995-0.096-1.412-0.287s-0.77-0.456-1.06-0.793s-0.512-0.734-0.667-1.189
			s-0.232-0.95-0.232-1.483V309.666z M460.648,309.816c0,0.365,0.043,0.712,0.13,1.042s0.218,0.621,0.393,0.872
			s0.396,0.449,0.66,0.595s0.572,0.219,0.923,0.219c0.346,0,0.65-0.073,0.913-0.219s0.481-0.344,0.656-0.595
			s0.307-0.541,0.393-0.872s0.13-0.678,0.13-1.042v-0.15c0-0.36-0.044-0.705-0.133-1.036s-0.221-0.621-0.396-0.872
			s-0.394-0.45-0.656-0.598s-0.568-0.222-0.919-0.222s-0.656,0.074-0.916,0.222s-0.478,0.348-0.653,0.598s-0.307,0.541-0.393,0.872
			s-0.13,0.676-0.13,1.036V309.816z"/>
		<path d="M471.292,312.544c0.228,0,0.45-0.037,0.667-0.109s0.409-0.174,0.578-0.304s0.304-0.283,0.407-0.458
			s0.156-0.366,0.161-0.571h1.196c-0.004,0.328-0.09,0.642-0.256,0.94s-0.389,0.561-0.667,0.786s-0.597,0.406-0.957,0.54
			s-0.736,0.202-1.128,0.202c-0.561,0-1.05-0.1-1.47-0.301s-0.769-0.471-1.049-0.81s-0.491-0.731-0.632-1.176
			s-0.212-0.913-0.212-1.405v-0.287c0-0.488,0.071-0.955,0.212-1.401s0.352-0.84,0.632-1.179s0.63-0.609,1.049-0.81
			s0.909-0.301,1.47-0.301c0.438,0,0.84,0.069,1.207,0.208s0.684,0.328,0.95,0.567s0.475,0.523,0.625,0.851s0.226,0.679,0.226,1.053
			h-1.196c-0.004-0.223-0.054-0.434-0.147-0.632s-0.22-0.373-0.379-0.523s-0.35-0.269-0.571-0.355s-0.459-0.13-0.714-0.13
			c-0.392,0-0.721,0.079-0.988,0.236s-0.482,0.362-0.646,0.615s-0.281,0.537-0.352,0.851s-0.106,0.631-0.106,0.95v0.287
			c0,0.324,0.035,0.644,0.106,0.96s0.187,0.602,0.349,0.854s0.376,0.458,0.643,0.615S470.896,312.544,471.292,312.544z"/>
		<path d="M481.402,313.433c-0.05-0.096-0.09-0.215-0.12-0.359s-0.051-0.293-0.065-0.448c-0.127,0.127-0.27,0.249-0.427,0.362
			s-0.331,0.214-0.52,0.301s-0.391,0.155-0.605,0.205s-0.442,0.075-0.684,0.075c-0.392,0-0.746-0.057-1.063-0.171
			s-0.585-0.268-0.807-0.461s-0.392-0.424-0.513-0.69s-0.181-0.555-0.181-0.865c0-0.406,0.081-0.761,0.243-1.066
			s0.391-0.56,0.687-0.762s0.653-0.354,1.07-0.455s0.883-0.15,1.398-0.15h1.381v-0.581c0-0.223-0.041-0.424-0.123-0.602
			s-0.198-0.329-0.349-0.455s-0.334-0.222-0.55-0.291s-0.459-0.103-0.728-0.103c-0.25,0-0.475,0.032-0.673,0.096
			s-0.366,0.148-0.502,0.253s-0.243,0.229-0.318,0.373s-0.113,0.293-0.113,0.448h-1.271c0.004-0.269,0.074-0.533,0.208-0.793
			s0.328-0.493,0.581-0.701s0.561-0.375,0.923-0.502s0.773-0.191,1.234-0.191c0.419,0,0.809,0.051,1.169,0.154
			s0.671,0.257,0.933,0.465s0.468,0.466,0.619,0.776s0.226,0.672,0.226,1.087v3.438c0,0.246,0.023,0.507,0.068,0.783
			s0.109,0.516,0.191,0.721v0.109H481.402z M479.167,312.469c0.246,0,0.476-0.032,0.69-0.096s0.409-0.148,0.584-0.253
			s0.327-0.225,0.455-0.359s0.228-0.274,0.301-0.42v-1.497h-1.176c-0.738,0-1.312,0.109-1.723,0.328s-0.615,0.563-0.615,1.032
			c0,0.182,0.031,0.351,0.092,0.506s0.154,0.288,0.277,0.4s0.278,0.199,0.465,0.263S478.921,312.469,479.167,312.469z"/>
		<path d="M485.142,302.933h3.78v9.406h2.413v1.094h-6.193v-1.094h2.516v-8.306h-2.516V302.933z"/>
		<path d="M497.959,309.461c0,0.652-0.051,1.265-0.154,1.839s-0.24,1.106-0.414,1.596s-0.373,0.937-0.598,1.34
			s-0.462,0.763-0.711,1.08s-0.499,0.585-0.752,0.807s-0.493,0.396-0.721,0.523l-0.267-0.772c0.283-0.209,0.564-0.502,0.844-0.878
			s0.531-0.831,0.752-1.364s0.401-1.146,0.54-1.839s0.208-1.465,0.208-2.317v-0.096c0-0.852-0.073-1.626-0.219-2.321
			s-0.334-1.31-0.564-1.846s-0.483-0.99-0.759-1.364s-0.543-0.666-0.803-0.875l0.267-0.772c0.228,0.127,0.468,0.303,0.721,0.526
			s0.503,0.492,0.752,0.807s0.485,0.674,0.711,1.08s0.425,0.854,0.598,1.343s0.311,1.022,0.414,1.596s0.154,1.187,0.154,1.839
			V309.461z"/>
		<path d="M504.952,313.139c0,0.214-0.026,0.438-0.079,0.673s-0.13,0.467-0.232,0.697s-0.227,0.45-0.373,0.66
			s-0.314,0.396-0.506,0.561l-0.786-0.431c0.219-0.319,0.374-0.659,0.465-1.019s0.137-0.734,0.137-1.121v-1.224h1.374V313.139z"/>
		<path d="M414.246,333.471c0-0.15-0.03-0.286-0.089-0.407s-0.16-0.231-0.301-0.332s-0.328-0.192-0.561-0.277
			s-0.522-0.161-0.868-0.229c-0.424-0.086-0.81-0.191-1.159-0.314s-0.647-0.27-0.896-0.441s-0.441-0.372-0.578-0.602
			s-0.205-0.498-0.205-0.803c0-0.301,0.071-0.582,0.212-0.844s0.339-0.491,0.595-0.687s0.56-0.351,0.913-0.465
			s0.742-0.171,1.166-0.171c0.456,0,0.866,0.059,1.23,0.178s0.674,0.283,0.93,0.492s0.452,0.455,0.591,0.735
			s0.208,0.582,0.208,0.906h-1.265c0-0.16-0.041-0.315-0.123-0.468s-0.196-0.288-0.342-0.407s-0.322-0.214-0.53-0.287
			s-0.441-0.109-0.701-0.109c-0.269,0-0.505,0.03-0.708,0.089s-0.372,0.139-0.506,0.239s-0.236,0.216-0.304,0.349
			s-0.103,0.269-0.103,0.41c0,0.146,0.027,0.276,0.082,0.39s0.149,0.216,0.284,0.308s0.314,0.173,0.54,0.246
			s0.512,0.144,0.858,0.212c0.456,0.096,0.864,0.206,1.224,0.332s0.663,0.276,0.909,0.451s0.434,0.379,0.564,0.612
			s0.195,0.501,0.195,0.807c0,0.328-0.074,0.626-0.222,0.896s-0.354,0.499-0.619,0.69s-0.581,0.339-0.95,0.444
			s-0.772,0.157-1.21,0.157c-0.501,0-0.948-0.067-1.34-0.202s-0.724-0.312-0.995-0.533s-0.479-0.478-0.622-0.769
			s-0.215-0.595-0.215-0.909h1.265c0.018,0.26,0.088,0.479,0.208,0.656s0.271,0.321,0.451,0.431s0.379,0.187,0.598,0.232
			s0.435,0.068,0.649,0.068c0.533,0,0.955-0.098,1.265-0.294S414.242,333.794,414.246,333.471z"/>
		<path d="M421,335.569c-0.52,0-0.997-0.089-1.432-0.267s-0.808-0.426-1.118-0.745s-0.551-0.697-0.725-1.135s-0.26-0.914-0.26-1.429
			v-0.287c0-0.597,0.096-1.131,0.287-1.603s0.445-0.871,0.762-1.196s0.677-0.575,1.08-0.749s0.817-0.26,1.241-0.26
			c0.533,0,0.999,0.092,1.398,0.277s0.73,0.44,0.995,0.766s0.461,0.71,0.591,1.152s0.195,0.92,0.195,1.436v0.567h-5.284
			c0.014,0.337,0.079,0.654,0.195,0.95s0.276,0.555,0.479,0.776s0.445,0.396,0.728,0.523s0.595,0.191,0.937,0.191
			c0.451,0,0.852-0.091,1.203-0.273s0.643-0.424,0.875-0.725l0.772,0.602c-0.123,0.187-0.277,0.366-0.461,0.537
			s-0.397,0.322-0.639,0.455s-0.515,0.238-0.82,0.318S421.36,335.569,421,335.569z M420.836,328.938
			c-0.255,0-0.497,0.047-0.725,0.14s-0.433,0.23-0.615,0.41s-0.336,0.401-0.461,0.663s-0.213,0.564-0.263,0.906h3.979v-0.096
			c-0.014-0.246-0.061-0.49-0.14-0.731s-0.197-0.458-0.352-0.649s-0.35-0.346-0.584-0.465S421.16,328.938,420.836,328.938z"/>
		<path d="M427.269,328.036l0.089,1.094c0.269-0.383,0.599-0.683,0.991-0.899s0.83-0.327,1.312-0.332
			c0.387,0,0.739,0.055,1.056,0.164s0.587,0.28,0.81,0.513s0.396,0.527,0.516,0.885s0.181,0.783,0.181,1.275v4.696h-1.265v-4.669
			c0-0.328-0.037-0.606-0.109-0.834s-0.181-0.413-0.325-0.554s-0.319-0.244-0.526-0.308s-0.445-0.096-0.714-0.096
			c-0.424,0-0.796,0.106-1.118,0.318s-0.578,0.491-0.769,0.837v5.305h-1.265v-7.396H427.269z"/>
		<path d="M434.296,331.673c0-0.551,0.069-1.059,0.208-1.521s0.337-0.86,0.595-1.193s0.568-0.592,0.933-0.779s0.772-0.28,1.224-0.28
			c0.442,0,0.828,0.074,1.159,0.222s0.616,0.363,0.858,0.646v-3.835h1.265v10.5h-1.162l-0.055-0.779
			c-0.246,0.301-0.54,0.529-0.882,0.684s-0.741,0.232-1.196,0.232c-0.447,0-0.851-0.096-1.213-0.287s-0.671-0.456-0.926-0.793
			s-0.454-0.735-0.595-1.193s-0.212-0.951-0.212-1.48V331.673z M435.561,331.816c0,0.36,0.039,0.702,0.116,1.025
			s0.197,0.608,0.359,0.854s0.368,0.441,0.619,0.584s0.551,0.215,0.902,0.215c0.214,0,0.408-0.025,0.581-0.075
			s0.331-0.122,0.472-0.215s0.267-0.205,0.376-0.335s0.205-0.274,0.287-0.434v-3.432c-0.164-0.301-0.385-0.548-0.663-0.742
			s-0.625-0.291-1.039-0.291c-0.355,0-0.66,0.073-0.913,0.219s-0.46,0.343-0.622,0.591s-0.281,0.536-0.359,0.861
			s-0.116,0.669-0.116,1.029V331.816z"/>
		<path d="M444.188,331.393c0-0.652,0.051-1.265,0.154-1.839s0.24-1.106,0.414-1.596s0.373-0.938,0.598-1.343
			s0.462-0.766,0.711-1.08s0.498-0.583,0.749-0.807s0.49-0.399,0.718-0.526l0.267,0.834c-0.283,0.214-0.564,0.506-0.844,0.875
			s-0.531,0.817-0.752,1.343s-0.401,1.132-0.54,1.818s-0.208,1.455-0.208,2.307v0.096c0,0.852,0.069,1.623,0.208,2.311
			s0.319,1.296,0.54,1.825s0.472,0.981,0.752,1.357s0.562,0.678,0.844,0.906l-0.267,0.772c-0.228-0.127-0.468-0.302-0.721-0.523
			s-0.503-0.49-0.752-0.807s-0.485-0.677-0.711-1.08s-0.424-0.85-0.595-1.34s-0.308-1.022-0.41-1.596s-0.154-1.187-0.154-1.839
			V331.393z"/>
		<path d="M455.938,333.354h-2.987l-0.588,2.078h-2.023l3.261-9.953h1.743l3.199,9.953h-2.023L455.938,333.354z M453.423,331.721
			h2.064l-1.019-3.664L453.423,331.721z"/>
		<path d="M459.404,335.433v-9.953h2.577c0.661,0,1.259,0.113,1.794,0.338s0.994,0.54,1.374,0.943s0.674,0.885,0.882,1.446
			s0.311,1.176,0.311,1.846v0.82c0,0.67-0.104,1.284-0.311,1.842s-0.498,1.039-0.872,1.442s-0.823,0.717-1.347,0.94
			s-1.103,0.335-1.736,0.335H459.404z M461.339,327.038v6.85h0.738c0.36,0,0.683-0.068,0.967-0.205s0.526-0.335,0.725-0.595
			s0.35-0.575,0.455-0.947s0.157-0.794,0.157-1.268v-0.834c0-0.447-0.051-0.854-0.154-1.22s-0.255-0.683-0.458-0.947
			s-0.454-0.469-0.752-0.615s-0.644-0.219-1.036-0.219H461.339z"/>
		<path d="M467.806,335.433v-9.953h2.577c0.661,0,1.259,0.113,1.794,0.338s0.994,0.54,1.374,0.943s0.674,0.885,0.882,1.446
			s0.311,1.176,0.311,1.846v0.82c0,0.67-0.104,1.284-0.311,1.842s-0.498,1.039-0.872,1.442s-0.823,0.717-1.347,0.94
			s-1.103,0.335-1.736,0.335H467.806z M469.74,327.038v6.85h0.738c0.36,0,0.683-0.068,0.967-0.205s0.526-0.335,0.725-0.595
			s0.35-0.575,0.455-0.947s0.157-0.794,0.157-1.268v-0.834c0-0.447-0.051-0.854-0.154-1.22s-0.255-0.683-0.458-0.947
			s-0.454-0.469-0.752-0.615s-0.644-0.219-1.036-0.219H469.74z"/>
		<path d="M479.625,331.714h-1.456v3.719h-1.921v-9.953h3.336c0.551,0,1.05,0.065,1.497,0.195s0.828,0.32,1.145,0.571
			s0.561,0.563,0.731,0.937s0.256,0.807,0.256,1.299c0,0.355-0.042,0.676-0.126,0.96s-0.205,0.54-0.362,0.766
			s-0.346,0.423-0.567,0.591s-0.468,0.314-0.742,0.438l2.14,4.108v0.089h-2.058L479.625,331.714z M478.169,330.155h1.422
			c0.542,0,0.96-0.138,1.254-0.414s0.441-0.653,0.441-1.131c0-0.497-0.144-0.883-0.431-1.159s-0.711-0.414-1.271-0.414h-1.415
			V330.155z"/>
		<path d="M489.558,331.461c0,0.652-0.051,1.265-0.154,1.839s-0.24,1.106-0.414,1.596s-0.373,0.937-0.598,1.34
			s-0.462,0.763-0.711,1.08s-0.499,0.585-0.752,0.807s-0.493,0.396-0.721,0.523l-0.267-0.772c0.283-0.209,0.564-0.502,0.844-0.878
			s0.531-0.831,0.752-1.364s0.401-1.146,0.54-1.839s0.208-1.465,0.208-2.317v-0.096c0-0.852-0.073-1.626-0.219-2.321
			s-0.334-1.31-0.564-1.846s-0.483-0.99-0.759-1.364s-0.543-0.666-0.803-0.875l0.267-0.772c0.228,0.127,0.468,0.303,0.721,0.526
			s0.503,0.492,0.752,0.807s0.485,0.674,0.711,1.08s0.425,0.854,0.598,1.343s0.311,1.022,0.414,1.596s0.154,1.187,0.154,1.839
			V331.461z"/>
	</g>
</g>
<g>
	<g>
		<path d="M87.813,368.367c0.328,0,0.631,0.022,0.91,0.066c0.278,0.044,0.504,0.093,0.676,0.145l-0.32,2.164
			c-0.287-0.067-0.58-0.118-0.879-0.152c-0.3-0.034-0.585-0.051-0.855-0.051c-0.609,0-1.098,0.117-1.465,0.352
			s-0.642,0.57-0.824,1.008v5.078h-2.172v-8.453h2.023l0.102,1.383c0.344-0.479,0.755-0.855,1.234-1.129
			C86.722,368.503,87.246,368.367,87.813,368.367z"/>
		<path d="M95.446,377.132c-0.651,0-1.242-0.107-1.773-0.32s-0.987-0.504-1.367-0.871c-0.38-0.367-0.673-0.799-0.879-1.297
			c-0.206-0.497-0.309-1.03-0.309-1.598v-0.312c0-0.646,0.102-1.235,0.305-1.77c0.203-0.534,0.487-0.993,0.852-1.379
			c0.364-0.385,0.797-0.685,1.297-0.898c0.5-0.213,1.044-0.32,1.633-0.32c0.609,0,1.152,0.101,1.629,0.301
			c0.477,0.201,0.88,0.483,1.211,0.848c0.331,0.365,0.582,0.804,0.754,1.316c0.172,0.513,0.258,1.08,0.258,1.699v0.922h-5.734
			c0.042,0.287,0.126,0.548,0.254,0.785c0.127,0.237,0.29,0.441,0.488,0.613c0.198,0.172,0.424,0.305,0.68,0.398
			c0.255,0.094,0.534,0.141,0.836,0.141c0.213,0,0.426-0.021,0.637-0.062c0.211-0.042,0.413-0.103,0.605-0.184
			c0.192-0.081,0.372-0.181,0.539-0.301c0.167-0.12,0.312-0.26,0.438-0.422l1.086,1.172c-0.136,0.193-0.312,0.382-0.527,0.566
			c-0.216,0.185-0.472,0.349-0.766,0.492c-0.294,0.144-0.621,0.259-0.98,0.348S95.863,377.132,95.446,377.132z M95.188,370.125
			c-0.245,0-0.469,0.043-0.672,0.129s-0.382,0.21-0.535,0.371c-0.154,0.162-0.283,0.354-0.387,0.578
			c-0.104,0.224-0.183,0.474-0.234,0.75h3.562v-0.172c-0.011-0.229-0.055-0.445-0.133-0.648s-0.19-0.379-0.336-0.527
			c-0.146-0.148-0.324-0.266-0.535-0.352S95.464,370.125,95.188,370.125z"/>
		<path d="M106.399,374.656c0-0.13-0.03-0.245-0.09-0.344c-0.06-0.099-0.167-0.191-0.32-0.277c-0.154-0.086-0.358-0.165-0.613-0.238
			c-0.255-0.073-0.578-0.146-0.969-0.219c-0.495-0.099-0.947-0.223-1.355-0.371c-0.409-0.148-0.759-0.328-1.051-0.539
			c-0.292-0.211-0.52-0.454-0.684-0.73c-0.164-0.276-0.246-0.594-0.246-0.953c0-0.349,0.083-0.682,0.25-1
			c0.167-0.317,0.406-0.596,0.719-0.836c0.312-0.239,0.692-0.43,1.141-0.57c0.448-0.141,0.953-0.211,1.516-0.211
			c0.588,0,1.117,0.069,1.586,0.207c0.469,0.138,0.866,0.328,1.191,0.57c0.325,0.242,0.574,0.53,0.746,0.863
			c0.172,0.333,0.258,0.695,0.258,1.086h-2.172c0-0.328-0.133-0.603-0.398-0.824c-0.266-0.221-0.669-0.332-1.211-0.332
			c-0.505,0-0.887,0.091-1.145,0.273c-0.258,0.183-0.387,0.406-0.387,0.672c0,0.125,0.026,0.241,0.078,0.348
			c0.052,0.107,0.145,0.203,0.277,0.289s0.313,0.164,0.543,0.234c0.229,0.07,0.521,0.132,0.875,0.184
			c0.51,0.083,0.984,0.19,1.422,0.32c0.438,0.13,0.815,0.298,1.133,0.504c0.317,0.206,0.566,0.456,0.746,0.75
			c0.18,0.294,0.27,0.645,0.27,1.051c0,0.375-0.09,0.72-0.27,1.035c-0.18,0.315-0.435,0.587-0.766,0.816
			c-0.331,0.229-0.73,0.408-1.199,0.535s-0.992,0.191-1.57,0.191c-0.636,0-1.197-0.083-1.684-0.25
			c-0.487-0.167-0.895-0.384-1.223-0.652c-0.328-0.268-0.577-0.573-0.746-0.914c-0.169-0.341-0.254-0.684-0.254-1.027h2.07
			c0.016,0.229,0.078,0.426,0.188,0.59s0.25,0.297,0.422,0.398s0.368,0.176,0.59,0.223c0.221,0.047,0.449,0.07,0.684,0.07
			c0.536,0,0.945-0.086,1.227-0.258S106.399,374.927,106.399,374.656z"/>
		<path d="M115.938,375.789c-0.287,0.422-0.632,0.753-1.035,0.992c-0.404,0.239-0.845,0.359-1.324,0.359
			c-0.438,0-0.839-0.068-1.203-0.203c-0.365-0.135-0.677-0.35-0.938-0.645c-0.261-0.294-0.462-0.669-0.605-1.125
			c-0.144-0.456-0.215-1.004-0.215-1.645v-5h2.172v5.016c0,0.344,0.024,0.633,0.074,0.867c0.049,0.234,0.129,0.423,0.238,0.566
			c0.109,0.144,0.252,0.246,0.43,0.309c0.177,0.062,0.393,0.094,0.648,0.094c0.432,0,0.784-0.082,1.055-0.246
			c0.271-0.164,0.477-0.389,0.617-0.676v-5.93h2.18v8.453h-1.969L115.938,375.789z"/>
		<path d="M127.767,372.835c0,0.63-0.069,1.208-0.207,1.734c-0.138,0.526-0.345,0.979-0.621,1.359
			c-0.276,0.38-0.62,0.676-1.031,0.887c-0.412,0.211-0.891,0.316-1.438,0.316c-0.495,0-0.923-0.093-1.285-0.277
			c-0.362-0.185-0.673-0.444-0.934-0.777l-0.102,0.898h-1.953v-12h2.172v4.312c0.25-0.292,0.545-0.518,0.887-0.68
			c0.341-0.161,0.741-0.242,1.199-0.242c0.552,0,1.035,0.107,1.449,0.32c0.414,0.214,0.759,0.511,1.035,0.891
			c0.276,0.38,0.483,0.835,0.621,1.363c0.138,0.529,0.207,1.105,0.207,1.73V372.835z M125.595,372.671
			c0-0.344-0.026-0.669-0.078-0.977c-0.052-0.307-0.142-0.577-0.27-0.809c-0.128-0.231-0.301-0.415-0.52-0.551
			c-0.219-0.135-0.492-0.203-0.82-0.203c-0.396,0-0.718,0.083-0.965,0.25c-0.248,0.167-0.439,0.396-0.574,0.688v3.367
			c0.135,0.292,0.327,0.521,0.574,0.688c0.247,0.167,0.574,0.25,0.98,0.25c0.328,0,0.599-0.063,0.812-0.191
			c0.213-0.127,0.384-0.305,0.512-0.531c0.127-0.227,0.217-0.495,0.27-0.805c0.052-0.31,0.078-0.647,0.078-1.012V372.671z"/>
		<path d="M135.204,374.656c0-0.13-0.03-0.245-0.09-0.344c-0.06-0.099-0.167-0.191-0.32-0.277c-0.154-0.086-0.358-0.165-0.613-0.238
			c-0.255-0.073-0.578-0.146-0.969-0.219c-0.495-0.099-0.947-0.223-1.355-0.371c-0.409-0.148-0.759-0.328-1.051-0.539
			c-0.292-0.211-0.52-0.454-0.684-0.73c-0.164-0.276-0.246-0.594-0.246-0.953c0-0.349,0.083-0.682,0.25-1
			c0.167-0.317,0.406-0.596,0.719-0.836c0.312-0.239,0.692-0.43,1.141-0.57c0.448-0.141,0.953-0.211,1.516-0.211
			c0.588,0,1.117,0.069,1.586,0.207c0.469,0.138,0.866,0.328,1.191,0.57c0.325,0.242,0.574,0.53,0.746,0.863
			c0.172,0.333,0.258,0.695,0.258,1.086h-2.172c0-0.328-0.133-0.603-0.398-0.824c-0.266-0.221-0.669-0.332-1.211-0.332
			c-0.505,0-0.887,0.091-1.145,0.273c-0.258,0.183-0.387,0.406-0.387,0.672c0,0.125,0.026,0.241,0.078,0.348
			c0.052,0.107,0.145,0.203,0.277,0.289s0.313,0.164,0.543,0.234c0.229,0.07,0.521,0.132,0.875,0.184
			c0.51,0.083,0.984,0.19,1.422,0.32c0.438,0.13,0.815,0.298,1.133,0.504c0.317,0.206,0.566,0.456,0.746,0.75
			c0.18,0.294,0.27,0.645,0.27,1.051c0,0.375-0.09,0.72-0.27,1.035c-0.18,0.315-0.435,0.587-0.766,0.816
			c-0.331,0.229-0.73,0.408-1.199,0.535s-0.992,0.191-1.57,0.191c-0.636,0-1.197-0.083-1.684-0.25
			c-0.487-0.167-0.895-0.384-1.223-0.652c-0.328-0.268-0.577-0.573-0.746-0.914c-0.169-0.341-0.254-0.684-0.254-1.027h2.07
			c0.016,0.229,0.078,0.426,0.188,0.59s0.25,0.297,0.422,0.398s0.368,0.176,0.59,0.223c0.221,0.047,0.449,0.07,0.684,0.07
			c0.536,0,0.945-0.086,1.227-0.258S135.204,374.927,135.204,374.656z"/>
		<path d="M143.095,375.398c0.213,0,0.417-0.031,0.609-0.094c0.192-0.062,0.362-0.151,0.508-0.266
			c0.146-0.114,0.259-0.252,0.34-0.414c0.081-0.161,0.116-0.341,0.105-0.539h2.047c0.01,0.438-0.08,0.844-0.27,1.219
			c-0.19,0.375-0.449,0.698-0.777,0.969c-0.328,0.271-0.71,0.483-1.145,0.637c-0.435,0.153-0.895,0.23-1.379,0.23
			c-0.656,0-1.232-0.111-1.727-0.332c-0.495-0.221-0.908-0.524-1.238-0.91c-0.331-0.385-0.581-0.837-0.75-1.355
			c-0.169-0.518-0.254-1.074-0.254-1.668v-0.234c0-0.594,0.083-1.149,0.25-1.668c0.167-0.518,0.417-0.97,0.75-1.355
			c0.333-0.385,0.746-0.69,1.238-0.914c0.492-0.224,1.063-0.336,1.715-0.336c0.521,0,1.002,0.078,1.445,0.234
			c0.442,0.156,0.824,0.376,1.145,0.66c0.32,0.284,0.569,0.628,0.746,1.031c0.177,0.404,0.26,0.855,0.25,1.355h-2.047
			c0.01-0.208-0.021-0.406-0.094-0.594c-0.073-0.188-0.18-0.349-0.32-0.484c-0.141-0.135-0.31-0.243-0.508-0.324
			c-0.198-0.081-0.414-0.121-0.648-0.121c-0.344,0-0.628,0.07-0.852,0.211c-0.224,0.141-0.402,0.328-0.535,0.562
			s-0.227,0.503-0.281,0.805c-0.055,0.302-0.082,0.615-0.082,0.938v0.234c0,0.328,0.026,0.645,0.078,0.949
			c0.052,0.305,0.145,0.573,0.277,0.805c0.133,0.232,0.312,0.418,0.539,0.559S142.746,375.398,143.095,375.398z"/>
		<path d="M155.024,368.367c0.328,0,0.631,0.022,0.91,0.066c0.278,0.044,0.504,0.093,0.676,0.145l-0.32,2.164
			c-0.287-0.067-0.58-0.118-0.879-0.152c-0.3-0.034-0.585-0.051-0.855-0.051c-0.609,0-1.098,0.117-1.465,0.352
			s-0.642,0.57-0.824,1.008v5.078h-2.172v-8.453h2.023l0.102,1.383c0.344-0.479,0.755-0.855,1.234-1.129
			C153.933,368.503,154.457,368.367,155.024,368.367z"/>
		<path d="M159.134,368.523h4.602v6.688h2.289v1.766h-6.891v-1.766h2.406v-4.914h-2.406V368.523z M161.384,366.359
			c0-0.167,0.03-0.321,0.09-0.465c0.06-0.143,0.145-0.266,0.254-0.367s0.241-0.181,0.395-0.238c0.153-0.057,0.324-0.086,0.512-0.086
			c0.385,0,0.691,0.108,0.918,0.324c0.227,0.216,0.34,0.494,0.34,0.832c0,0.339-0.113,0.616-0.34,0.832
			c-0.227,0.216-0.533,0.324-0.918,0.324c-0.188,0-0.358-0.028-0.512-0.086c-0.154-0.057-0.285-0.137-0.395-0.238
			s-0.194-0.224-0.254-0.367C161.414,366.681,161.384,366.526,161.384,366.359z"/>
		<path d="M175.774,372.835c0,0.63-0.069,1.208-0.207,1.734c-0.138,0.526-0.345,0.979-0.621,1.359
			c-0.276,0.38-0.62,0.676-1.031,0.887c-0.412,0.211-0.891,0.316-1.438,0.316c-0.495,0-0.923-0.093-1.285-0.277
			c-0.362-0.185-0.673-0.444-0.934-0.777l-0.102,0.898h-1.953v-12h2.172v4.312c0.25-0.292,0.545-0.518,0.887-0.68
			c0.341-0.161,0.741-0.242,1.199-0.242c0.552,0,1.035,0.107,1.449,0.32c0.414,0.214,0.759,0.511,1.035,0.891
			c0.276,0.38,0.483,0.835,0.621,1.363c0.138,0.529,0.207,1.105,0.207,1.73V372.835z M173.603,372.671
			c0-0.344-0.026-0.669-0.078-0.977c-0.052-0.307-0.142-0.577-0.27-0.809c-0.128-0.231-0.301-0.415-0.52-0.551
			c-0.219-0.135-0.492-0.203-0.82-0.203c-0.396,0-0.718,0.083-0.965,0.25c-0.248,0.167-0.439,0.396-0.574,0.688v3.367
			c0.135,0.292,0.327,0.521,0.574,0.688c0.247,0.167,0.574,0.25,0.98,0.25c0.328,0,0.599-0.063,0.812-0.191
			c0.213-0.127,0.384-0.305,0.512-0.531c0.127-0.227,0.217-0.495,0.27-0.805c0.052-0.31,0.078-0.647,0.078-1.012V372.671z"/>
		<path d="M181.86,377.132c-0.651,0-1.242-0.107-1.773-0.32s-0.987-0.504-1.367-0.871c-0.38-0.367-0.673-0.799-0.879-1.297
			c-0.206-0.497-0.309-1.03-0.309-1.598v-0.312c0-0.646,0.102-1.235,0.305-1.77c0.203-0.534,0.487-0.993,0.852-1.379
			c0.364-0.385,0.797-0.685,1.297-0.898c0.5-0.213,1.044-0.32,1.633-0.32c0.609,0,1.152,0.101,1.629,0.301
			c0.477,0.201,0.88,0.483,1.211,0.848c0.331,0.365,0.582,0.804,0.754,1.316c0.172,0.513,0.258,1.08,0.258,1.699v0.922h-5.734
			c0.042,0.287,0.126,0.548,0.254,0.785c0.127,0.237,0.29,0.441,0.488,0.613c0.198,0.172,0.424,0.305,0.68,0.398
			c0.255,0.094,0.534,0.141,0.836,0.141c0.213,0,0.426-0.021,0.637-0.062c0.211-0.042,0.413-0.103,0.605-0.184
			c0.192-0.081,0.372-0.181,0.539-0.301c0.167-0.12,0.312-0.26,0.438-0.422l1.086,1.172c-0.136,0.193-0.312,0.382-0.527,0.566
			c-0.216,0.185-0.472,0.349-0.766,0.492c-0.294,0.144-0.621,0.259-0.98,0.348S182.277,377.132,181.86,377.132z M181.603,370.125
			c-0.245,0-0.469,0.043-0.672,0.129s-0.382,0.21-0.535,0.371c-0.154,0.162-0.283,0.354-0.387,0.578
			c-0.104,0.224-0.183,0.474-0.234,0.75h3.562v-0.172c-0.011-0.229-0.055-0.445-0.133-0.648s-0.19-0.379-0.336-0.527
			c-0.146-0.148-0.324-0.266-0.535-0.352S181.878,370.125,181.603,370.125z"/>
		<path d="M188.954,372.351c0-0.734,0.056-1.426,0.168-2.074c0.112-0.648,0.264-1.247,0.457-1.797
			c0.192-0.549,0.418-1.051,0.676-1.504s0.53-0.854,0.816-1.203c0.286-0.349,0.582-0.645,0.887-0.887s0.6-0.428,0.887-0.559
			l0.422,1.188c-0.292,0.224-0.583,0.525-0.875,0.902c-0.292,0.378-0.554,0.847-0.785,1.406c-0.232,0.56-0.421,1.212-0.566,1.957
			c-0.146,0.745-0.219,1.597-0.219,2.555v0.203c0,0.964,0.073,1.818,0.219,2.562c0.146,0.745,0.334,1.397,0.566,1.957
			c0.231,0.56,0.493,1.03,0.785,1.41c0.292,0.38,0.583,0.682,0.875,0.906l-0.422,1.172c-0.287-0.13-0.582-0.318-0.887-0.562
			c-0.305-0.245-0.601-0.541-0.887-0.887c-0.287-0.347-0.559-0.746-0.816-1.199s-0.483-0.954-0.676-1.504
			c-0.193-0.549-0.345-1.147-0.457-1.793c-0.112-0.646-0.168-1.338-0.168-2.078V372.351z"/>
		<path d="M202.478,374.601h-3.414l-0.672,2.375h-2.312l3.727-11.375h1.992l3.656,11.375h-2.312L202.478,374.601z M199.603,372.734
			h2.359l-1.164-4.188L199.603,372.734z"/>
		<path d="M206.438,376.976v-11.375h2.945c0.755,0,1.438,0.129,2.051,0.387c0.612,0.258,1.135,0.617,1.57,1.078
			c0.435,0.461,0.771,1.012,1.008,1.652c0.237,0.641,0.355,1.344,0.355,2.109v0.938c0,0.766-0.119,1.468-0.355,2.105
			c-0.237,0.638-0.569,1.188-0.996,1.648c-0.427,0.461-0.94,0.819-1.539,1.074c-0.599,0.255-1.261,0.383-1.984,0.383H206.438z
			 M208.649,367.382v7.828h0.844c0.411,0,0.78-0.078,1.105-0.234c0.325-0.156,0.602-0.383,0.828-0.68s0.399-0.657,0.52-1.082
			c0.12-0.424,0.18-0.907,0.18-1.449v-0.953c0-0.51-0.059-0.975-0.176-1.395c-0.117-0.419-0.292-0.78-0.523-1.082
			c-0.232-0.302-0.519-0.536-0.859-0.703c-0.341-0.167-0.736-0.25-1.184-0.25H208.649z"/>
		<path d="M216.04,376.976v-11.375h2.945c0.755,0,1.438,0.129,2.051,0.387c0.612,0.258,1.135,0.617,1.57,1.078
			c0.435,0.461,0.771,1.012,1.008,1.652c0.237,0.641,0.355,1.344,0.355,2.109v0.938c0,0.766-0.119,1.468-0.355,2.105
			c-0.237,0.638-0.569,1.188-0.996,1.648c-0.427,0.461-0.94,0.819-1.539,1.074c-0.599,0.255-1.261,0.383-1.984,0.383H216.04z
			 M218.251,367.382v7.828h0.844c0.411,0,0.78-0.078,1.105-0.234c0.325-0.156,0.602-0.383,0.828-0.68s0.399-0.657,0.52-1.082
			c0.12-0.424,0.18-0.907,0.18-1.449v-0.953c0-0.51-0.059-0.975-0.176-1.395c-0.117-0.419-0.292-0.78-0.523-1.082
			c-0.232-0.302-0.519-0.536-0.859-0.703c-0.341-0.167-0.736-0.25-1.184-0.25H218.251z"/>
		<path d="M229.548,372.726h-1.664v4.25h-2.195v-11.375h3.812c0.63,0,1.2,0.074,1.711,0.223c0.51,0.148,0.946,0.366,1.309,0.652
			c0.362,0.287,0.641,0.644,0.836,1.07c0.195,0.427,0.293,0.922,0.293,1.484c0,0.406-0.048,0.772-0.145,1.098
			c-0.097,0.326-0.234,0.617-0.414,0.875s-0.396,0.483-0.648,0.676c-0.253,0.193-0.535,0.359-0.848,0.5l2.445,4.695v0.102h-2.352
			L229.548,372.726z M227.884,370.945h1.625c0.62,0,1.098-0.157,1.434-0.473c0.336-0.315,0.504-0.746,0.504-1.293
			c0-0.567-0.164-1.009-0.492-1.324c-0.328-0.315-0.812-0.473-1.453-0.473h-1.617V370.945z"/>
		<path d="M241.149,372.523c0,0.714-0.058,1.39-0.172,2.027c-0.115,0.638-0.271,1.233-0.469,1.785
			c-0.198,0.552-0.429,1.056-0.691,1.512c-0.263,0.456-0.543,0.862-0.84,1.219c-0.297,0.356-0.602,0.66-0.914,0.91
			s-0.617,0.44-0.914,0.57l-0.414-1.172c0.286-0.219,0.575-0.519,0.867-0.898c0.292-0.38,0.555-0.849,0.789-1.406
			s0.424-1.211,0.57-1.961c0.146-0.75,0.219-1.606,0.219-2.57v-0.203c0-0.958-0.076-1.812-0.227-2.562
			c-0.151-0.75-0.344-1.406-0.578-1.969s-0.496-1.034-0.785-1.414c-0.289-0.38-0.574-0.68-0.855-0.898l0.414-1.164
			c0.297,0.13,0.602,0.32,0.914,0.57s0.617,0.554,0.914,0.91c0.297,0.357,0.577,0.763,0.84,1.219
			c0.263,0.456,0.493,0.96,0.691,1.512c0.198,0.552,0.354,1.147,0.469,1.785c0.114,0.638,0.172,1.314,0.172,2.027V372.523z"/>
	</g>
</g>
<g>
	<g>
		<path d="M87.196,425.832c0-0.131-0.03-0.245-0.09-0.344c-0.06-0.1-0.167-0.191-0.32-0.277c-0.154-0.086-0.358-0.166-0.613-0.238
			c-0.255-0.073-0.578-0.146-0.969-0.219c-0.495-0.1-0.947-0.223-1.355-0.371c-0.409-0.148-0.759-0.328-1.051-0.539
			c-0.292-0.211-0.52-0.455-0.684-0.73c-0.164-0.276-0.246-0.594-0.246-0.953c0-0.35,0.083-0.683,0.25-1
			c0.167-0.318,0.406-0.597,0.719-0.836c0.312-0.24,0.692-0.43,1.141-0.57c0.448-0.141,0.953-0.211,1.516-0.211
			c0.588,0,1.117,0.068,1.586,0.207c0.469,0.138,0.866,0.328,1.191,0.57c0.325,0.242,0.574,0.529,0.746,0.863
			c0.172,0.333,0.258,0.695,0.258,1.086h-2.172c0-0.328-0.133-0.604-0.398-0.824c-0.266-0.222-0.669-0.332-1.211-0.332
			c-0.505,0-0.887,0.091-1.145,0.273c-0.258,0.182-0.387,0.406-0.387,0.672c0,0.125,0.026,0.24,0.078,0.348
			c0.052,0.106,0.145,0.203,0.277,0.289s0.313,0.164,0.543,0.234c0.229,0.07,0.521,0.131,0.875,0.184
			c0.51,0.083,0.984,0.189,1.422,0.32c0.438,0.13,0.815,0.298,1.133,0.504c0.317,0.205,0.566,0.455,0.746,0.75
			c0.18,0.294,0.27,0.645,0.27,1.051c0,0.375-0.09,0.72-0.27,1.035c-0.18,0.314-0.435,0.587-0.766,0.816
			c-0.331,0.229-0.73,0.407-1.199,0.535c-0.469,0.127-0.992,0.191-1.57,0.191c-0.636,0-1.197-0.084-1.684-0.25
			c-0.487-0.167-0.895-0.385-1.223-0.652c-0.328-0.269-0.577-0.573-0.746-0.914c-0.169-0.342-0.254-0.684-0.254-1.027h2.07
			c0.016,0.229,0.078,0.426,0.188,0.59s0.25,0.297,0.422,0.398s0.368,0.176,0.59,0.223c0.221,0.047,0.449,0.07,0.684,0.07
			c0.536,0,0.945-0.086,1.227-0.258S87.196,426.103,87.196,425.832z"/>
		<path d="M95.446,428.309c-0.651,0-1.242-0.107-1.773-0.32c-0.531-0.214-0.987-0.504-1.367-0.871
			c-0.38-0.367-0.673-0.8-0.879-1.297c-0.206-0.498-0.309-1.03-0.309-1.598v-0.312c0-0.646,0.102-1.236,0.305-1.77
			c0.203-0.534,0.487-0.994,0.852-1.379c0.364-0.386,0.797-0.686,1.297-0.898c0.5-0.214,1.044-0.32,1.633-0.32
			c0.609,0,1.152,0.1,1.629,0.301c0.477,0.2,0.88,0.482,1.211,0.848c0.331,0.364,0.582,0.803,0.754,1.316
			c0.172,0.513,0.258,1.079,0.258,1.699v0.922h-5.734c0.042,0.286,0.126,0.548,0.254,0.785c0.127,0.236,0.29,0.441,0.488,0.613
			c0.198,0.172,0.424,0.305,0.68,0.398c0.255,0.094,0.534,0.141,0.836,0.141c0.213,0,0.426-0.021,0.637-0.062
			c0.211-0.042,0.413-0.104,0.605-0.184c0.192-0.081,0.372-0.182,0.539-0.301c0.167-0.12,0.312-0.261,0.438-0.422l1.086,1.172
			c-0.136,0.192-0.312,0.381-0.527,0.566c-0.216,0.185-0.472,0.349-0.766,0.492c-0.294,0.143-0.621,0.259-0.98,0.348
			C96.251,428.264,95.863,428.309,95.446,428.309z M95.188,421.301c-0.245,0-0.469,0.043-0.672,0.129s-0.382,0.209-0.535,0.371
			c-0.154,0.161-0.283,0.354-0.387,0.578c-0.104,0.224-0.183,0.474-0.234,0.75h3.562v-0.172c-0.011-0.229-0.055-0.445-0.133-0.648
			s-0.19-0.379-0.336-0.527c-0.146-0.148-0.324-0.266-0.535-0.352S95.464,421.301,95.188,421.301z"/>
		<path d="M102.915,419.699l0.133,1.172c0.302-0.422,0.669-0.749,1.102-0.98c0.432-0.232,0.911-0.348,1.438-0.348
			c0.427,0,0.817,0.062,1.172,0.188c0.354,0.125,0.66,0.324,0.918,0.598s0.458,0.625,0.602,1.055
			c0.143,0.43,0.215,0.951,0.215,1.566v5.203h-2.172v-5.172c0-0.334-0.038-0.608-0.113-0.824c-0.076-0.217-0.184-0.387-0.324-0.512
			s-0.31-0.213-0.508-0.262c-0.198-0.05-0.422-0.074-0.672-0.074c-0.37,0-0.685,0.074-0.945,0.223
			c-0.261,0.148-0.472,0.353-0.633,0.613v6.008h-2.18v-8.453H102.915z"/>
		<path d="M110.321,423.863c0-0.641,0.074-1.227,0.223-1.758s0.366-0.987,0.652-1.367c0.286-0.381,0.634-0.675,1.043-0.883
			c0.409-0.209,0.876-0.312,1.402-0.312c0.442,0,0.832,0.079,1.168,0.238c0.336,0.158,0.634,0.384,0.895,0.676v-4.305h2.18v12
			h-1.961l-0.109-0.883c-0.266,0.328-0.578,0.583-0.938,0.766c-0.359,0.182-0.776,0.273-1.25,0.273
			c-0.516,0-0.978-0.109-1.387-0.324c-0.409-0.217-0.755-0.515-1.039-0.895c-0.284-0.381-0.501-0.832-0.652-1.355
			c-0.151-0.523-0.227-1.093-0.227-1.707V423.863z M112.493,424.027c0,0.354,0.03,0.684,0.09,0.988
			c0.06,0.305,0.157,0.57,0.293,0.797c0.135,0.227,0.31,0.404,0.523,0.535c0.213,0.13,0.474,0.195,0.781,0.195
			c0.375,0,0.686-0.081,0.934-0.242c0.247-0.162,0.444-0.383,0.59-0.664v-3.422c-0.146-0.287-0.341-0.51-0.586-0.668
			c-0.245-0.159-0.552-0.238-0.922-0.238c-0.308,0-0.569,0.066-0.785,0.199c-0.216,0.133-0.392,0.314-0.527,0.547
			c-0.136,0.231-0.234,0.502-0.297,0.812c-0.062,0.31-0.094,0.642-0.094,0.996V424.027z"/>
		<path d="M121.743,423.527c0-0.734,0.056-1.426,0.168-2.074c0.112-0.648,0.264-1.248,0.457-1.797
			c0.192-0.55,0.418-1.051,0.676-1.504s0.53-0.854,0.816-1.203c0.286-0.35,0.582-0.645,0.887-0.887s0.6-0.429,0.887-0.559
			l0.422,1.188c-0.292,0.224-0.583,0.524-0.875,0.902c-0.292,0.377-0.554,0.846-0.785,1.406c-0.232,0.56-0.421,1.212-0.566,1.957
			c-0.146,0.744-0.219,1.596-0.219,2.555v0.203c0,0.963,0.073,1.817,0.219,2.562c0.146,0.744,0.334,1.396,0.566,1.957
			c0.231,0.559,0.493,1.029,0.785,1.41c0.292,0.379,0.583,0.682,0.875,0.906l-0.422,1.172c-0.287-0.131-0.582-0.318-0.887-0.562
			c-0.305-0.246-0.601-0.541-0.887-0.887c-0.287-0.348-0.559-0.746-0.816-1.199s-0.483-0.955-0.676-1.504
			c-0.193-0.55-0.345-1.147-0.457-1.793c-0.112-0.646-0.168-1.339-0.168-2.078V423.527z"/>
		<path d="M137.493,426.824c-0.141,0.172-0.333,0.346-0.578,0.523c-0.245,0.177-0.535,0.337-0.871,0.48
			c-0.336,0.143-0.712,0.259-1.129,0.348c-0.417,0.088-0.865,0.133-1.344,0.133c-0.646,0-1.229-0.115-1.75-0.344
			c-0.521-0.229-0.966-0.561-1.336-0.992c-0.37-0.433-0.655-0.963-0.855-1.59c-0.201-0.628-0.301-1.34-0.301-2.137v-1.547
			c0-0.797,0.105-1.51,0.316-2.137c0.211-0.628,0.502-1.16,0.875-1.598c0.372-0.438,0.81-0.771,1.312-1
			c0.502-0.229,1.048-0.344,1.637-0.344c0.641,0,1.199,0.08,1.676,0.242c0.477,0.161,0.879,0.395,1.207,0.699
			s0.584,0.676,0.77,1.113c0.185,0.438,0.306,0.93,0.363,1.477h-2.141c-0.073-0.584-0.249-1.022-0.527-1.316
			c-0.279-0.295-0.71-0.441-1.293-0.441c-0.281,0-0.542,0.071-0.781,0.215c-0.24,0.143-0.448,0.353-0.625,0.629
			c-0.177,0.275-0.318,0.618-0.422,1.027c-0.104,0.408-0.156,0.881-0.156,1.418v1.562c0.005,1.062,0.182,1.876,0.531,2.441
			c0.349,0.564,0.883,0.85,1.602,0.855c0.172,0,0.341-0.014,0.508-0.039c0.167-0.026,0.323-0.062,0.469-0.109
			c0.146-0.047,0.274-0.101,0.387-0.16c0.112-0.061,0.196-0.124,0.254-0.191l0.008-2.062h-1.883v-1.641h4.07L137.493,426.824z"/>
		<path d="M146.274,423.168h-4.672v3.211h5.461v1.773h-7.664v-11.375h7.641v1.789h-5.438v2.867h4.672V423.168z"/>
		<path d="M157.235,418.566h-3.508v9.586h-2.203v-9.586h-3.461v-1.789h9.172V418.566z"/>
		<path d="M164.071,425.777h-3.414l-0.672,2.375h-2.312l3.727-11.375h1.992l3.656,11.375h-2.312L164.071,425.777z M161.196,423.91
			h2.359l-1.164-4.188L161.196,423.91z"/>
		<path d="M168.032,428.152v-11.375h2.945c0.755,0,1.438,0.129,2.051,0.387c0.612,0.258,1.135,0.617,1.57,1.078
			c0.435,0.461,0.771,1.012,1.008,1.652c0.237,0.641,0.355,1.344,0.355,2.109v0.938c0,0.766-0.119,1.467-0.355,2.105
			c-0.237,0.638-0.569,1.188-0.996,1.648c-0.427,0.461-0.94,0.818-1.539,1.074c-0.599,0.255-1.261,0.383-1.984,0.383H168.032z
			 M170.243,418.559v7.828h0.844c0.411,0,0.78-0.078,1.105-0.234c0.325-0.156,0.602-0.383,0.828-0.68s0.399-0.658,0.52-1.082
			c0.12-0.425,0.18-0.908,0.18-1.449v-0.953c0-0.511-0.059-0.976-0.176-1.395c-0.117-0.42-0.292-0.78-0.523-1.082
			c-0.232-0.303-0.519-0.537-0.859-0.703c-0.341-0.167-0.736-0.25-1.184-0.25H170.243z"/>
		<path d="M177.634,428.152v-11.375h2.945c0.755,0,1.438,0.129,2.051,0.387c0.612,0.258,1.135,0.617,1.57,1.078
			c0.435,0.461,0.771,1.012,1.008,1.652c0.237,0.641,0.355,1.344,0.355,2.109v0.938c0,0.766-0.119,1.467-0.355,2.105
			c-0.237,0.638-0.569,1.188-0.996,1.648c-0.427,0.461-0.94,0.818-1.539,1.074c-0.599,0.255-1.261,0.383-1.984,0.383H177.634z
			 M179.845,418.559v7.828h0.844c0.411,0,0.78-0.078,1.105-0.234c0.325-0.156,0.602-0.383,0.828-0.68s0.399-0.658,0.52-1.082
			c0.12-0.425,0.18-0.908,0.18-1.449v-0.953c0-0.511-0.059-0.976-0.176-1.395c-0.117-0.42-0.292-0.78-0.523-1.082
			c-0.232-0.303-0.519-0.537-0.859-0.703c-0.341-0.167-0.736-0.25-1.184-0.25H179.845z"/>
		<path d="M191.142,423.902h-1.664v4.25h-2.195v-11.375h3.812c0.63,0,1.2,0.074,1.711,0.223c0.51,0.148,0.946,0.365,1.309,0.652
			c0.362,0.286,0.641,0.643,0.836,1.07c0.195,0.427,0.293,0.922,0.293,1.484c0,0.406-0.048,0.771-0.145,1.098
			c-0.097,0.325-0.234,0.617-0.414,0.875s-0.396,0.482-0.648,0.676c-0.253,0.192-0.535,0.359-0.848,0.5l2.445,4.695v0.102h-2.352
			L191.142,423.902z M189.478,422.121h1.625c0.62,0,1.098-0.158,1.434-0.473c0.336-0.315,0.504-0.746,0.504-1.293
			c0-0.568-0.164-1.01-0.492-1.324c-0.328-0.315-0.812-0.473-1.453-0.473h-1.617V422.121z"/>
		<path d="M202.743,423.699c0,0.713-0.058,1.389-0.172,2.027c-0.115,0.638-0.271,1.232-0.469,1.785
			c-0.198,0.552-0.429,1.055-0.691,1.512c-0.263,0.455-0.543,0.861-0.84,1.219c-0.297,0.355-0.602,0.66-0.914,0.91
			s-0.617,0.439-0.914,0.57l-0.414-1.172c0.286-0.219,0.575-0.52,0.867-0.898c0.292-0.381,0.555-0.85,0.789-1.406
			c0.234-0.558,0.424-1.211,0.57-1.961c0.146-0.75,0.219-1.607,0.219-2.57v-0.203c0-0.959-0.076-1.812-0.227-2.562
			c-0.151-0.75-0.344-1.406-0.578-1.969s-0.496-1.034-0.785-1.414c-0.289-0.381-0.574-0.68-0.855-0.898l0.414-1.164
			c0.297,0.13,0.602,0.32,0.914,0.57s0.617,0.553,0.914,0.91c0.297,0.356,0.577,0.763,0.84,1.219
			c0.263,0.455,0.493,0.959,0.691,1.512c0.198,0.552,0.354,1.146,0.469,1.785c0.114,0.638,0.172,1.313,0.172,2.027V423.699z"/>
	</g>
</g>
<g>
	<path fill="none" stroke="#000000" stroke-width="2" stroke-miterlimit="10" d="M62,232v230.586c0,5.5,4.5,10.414,10,10.414h558
		c5.5,0,10-4.914,10-10.414V278c0-5.5-4.5-10-10-10H80c-5.5,0-10.985-4.391-12.188-9.758L62,232.333"/>
</g>
<line opacity="0.22" fill="none" stroke="#000000" stroke-miterlimit="10" x1="76" y1="344.5" x2="620" y2="344.5"/>
<line opacity="0.22" fill="none" stroke="#000000" stroke-miterlimit="10" x1="76" y1="399.5" x2="620" y2="399.5"/>
<polygon fill="#43EF60" points="344,317.371 334,300 334,317.371 334,334.742 "/>
<polygon fill="#43EF60" points="344,372.621 334,355.25 334,372.621 334,389.992 "/>
<g>
</g>
<g>
</g>
<g>
</g>
<g>
</g>
<g>
</g>
<g>
</g>
<g>
</g>
<g>
</g>
<g>
</g>
<g>
</g>
<g>
</g>
<g>
</g>
<g>
</g>
<g>
</g>
<g>
</g>
</svg>
