<?xml version="1.0" encoding="utf-8"?>
<!-- Generator: Adobe Illustrator 16.0.4, SVG Export Plug-In . SVG Version: 6.00 Build 0)  -->
<!DOCTYPE svg PUBLIC "-//W3C//DTD SVG 1.1//EN" "http://www.w3.org/Graphics/SVG/1.1/DTD/svg11.dtd">
<svg version="1.1" id="Script_Verify2__x28_P2PKH_x29_"
	 xmlns="http://www.w3.org/2000/svg" xmlns:xlink="http://www.w3.org/1999/xlink" x="0px" y="0px" width="1366px" height="768px"
	 viewBox="0 0 1366 768" enable-background="new 0 0 1366 768" xml:space="preserve">
<rect x="-1" y="1" fill="#FFFFFF" width="1366" height="768"/>
<line fill="none" stroke="#000000" stroke-width="3" stroke-miterlimit="10" x1="116" y1="213.5" x2="579" y2="213.5"/>
<g>
	<rect x="-5.5" y="172.098" fill="none" width="163" height="43"/>
	<path d="M49.295,188.817v-15.705h3.33v12.955h6.37v2.75H49.295z"/>
	<path d="M72.38,182.791c0,1.955-0.516,3.484-1.547,4.587c-1.031,1.103-2.467,1.654-4.308,1.654c-1.153,0-2.17-0.252-3.051-0.757
		s-1.558-1.23-2.03-2.175s-0.709-2.048-0.709-3.309c0-1.962,0.512-3.487,1.536-4.576c1.024-1.088,2.463-1.633,4.318-1.633
		c1.153,0,2.17,0.251,3.051,0.752c0.881,0.501,1.558,1.221,2.03,2.159C72.144,180.432,72.38,181.531,72.38,182.791z M64.076,182.791
		c0,1.189,0.195,2.088,0.585,2.696c0.39,0.609,1.026,0.913,1.907,0.913c0.874,0,1.502-0.302,1.885-0.908
		c0.383-0.605,0.575-1.505,0.575-2.702c0-1.188-0.193-2.08-0.58-2.675c-0.387-0.594-1.021-0.892-1.901-0.892
		c-0.874,0-1.504,0.295-1.891,0.886S64.076,181.595,64.076,182.791z"/>
	<path d="M79.964,189.032c-3.738,0-5.607-2.052-5.607-6.155c0-2.041,0.508-3.6,1.525-4.678c1.017-1.078,2.474-1.617,4.372-1.617
		c1.389,0,2.635,0.272,3.738,0.816l-0.967,2.535c-0.516-0.208-0.996-0.377-1.439-0.51c-0.444-0.132-0.888-0.199-1.332-0.199
		c-1.705,0-2.557,1.21-2.557,3.631c0,2.349,0.852,3.523,2.557,3.523c0.63,0,1.214-0.084,1.751-0.252
		c0.537-0.168,1.074-0.431,1.611-0.79v2.804c-0.53,0.337-1.065,0.569-1.606,0.698C81.469,188.968,80.787,189.032,79.964,189.032z"/>
	<path d="M94.025,188.817l-0.634-1.633h-0.086c-0.552,0.695-1.119,1.176-1.703,1.445c-0.584,0.269-1.345,0.403-2.283,0.403
		c-1.153,0-2.061-0.329-2.723-0.988c-0.663-0.659-0.994-1.597-0.994-2.814c0-1.274,0.446-2.214,1.337-2.82
		c0.892-0.605,2.236-0.94,4.034-1.004l2.084-0.064v-0.526c0-1.217-0.623-1.826-1.869-1.826c-0.96,0-2.088,0.29-3.384,0.87
		l-1.085-2.213c1.382-0.723,2.915-1.085,4.598-1.085c1.611,0,2.847,0.351,3.706,1.053c0.859,0.702,1.289,1.769,1.289,3.201v8.003
		H94.025z M93.059,183.253l-1.268,0.043c-0.953,0.029-1.662,0.201-2.127,0.516c-0.466,0.315-0.698,0.795-0.698,1.439
		c0,0.924,0.53,1.386,1.59,1.386c0.759,0,1.366-0.218,1.821-0.655c0.455-0.437,0.682-1.017,0.682-1.74V183.253z"/>
	<path d="M102.963,188.817h-3.276v-16.715h3.276V188.817z"/>
</g>
<line fill="none" stroke="#000000" stroke-width="3" stroke-miterlimit="10" x1="76" y1="213.5" x2="627" y2="213.5"/>
<g>
	<rect x="490" y="172.098" fill="none" width="163" height="43"/>
	<path d="M573.014,182.791v6.026h-3.33v-15.705h4.576c2.134,0,3.713,0.389,4.737,1.166c1.024,0.777,1.536,1.957,1.536,3.54
		c0,0.924-0.254,1.746-0.763,2.465c-0.509,0.72-1.229,1.284-2.159,1.692c2.363,3.531,3.903,5.812,4.619,6.843h-3.695l-3.749-6.026
		H573.014z M573.014,180.084h1.074c1.053,0,1.83-0.175,2.331-0.526c0.501-0.351,0.752-0.902,0.752-1.654
		c0-0.745-0.256-1.274-0.768-1.59c-0.512-0.315-1.305-0.473-2.379-0.473h-1.01V180.084z"/>
	<path d="M589.385,189.032c-1.934,0-3.445-0.533-4.533-1.601c-1.089-1.067-1.633-2.578-1.633-4.533c0-2.012,0.503-3.568,1.509-4.667
		c1.006-1.099,2.397-1.649,4.173-1.649c1.697,0,3.019,0.483,3.964,1.45s1.418,2.303,1.418,4.007v1.59h-7.745
		c0.036,0.931,0.312,1.658,0.827,2.181c0.516,0.523,1.239,0.784,2.17,0.784c0.723,0,1.407-0.075,2.052-0.226s1.317-0.39,2.02-0.72
		v2.535c-0.573,0.287-1.186,0.5-1.837,0.639C591.118,188.962,590.323,189.032,589.385,189.032z M588.923,178.913
		c-0.695,0-1.239,0.22-1.633,0.661c-0.394,0.44-0.62,1.065-0.677,1.875h4.598c-0.015-0.809-0.226-1.434-0.634-1.875
		S589.617,178.913,588.923,178.913z"/>
	<path d="M607.7,188.817h-3.276v-7.015c0-0.866-0.145-1.516-0.435-1.95c-0.29-0.433-0.747-0.65-1.37-0.65
		c-0.838,0-1.447,0.308-1.826,0.924c-0.38,0.616-0.569,1.629-0.569,3.04v5.65h-3.276v-12.01h2.503l0.44,1.536h0.183
		c0.322-0.551,0.788-0.983,1.396-1.294c0.608-0.312,1.307-0.467,2.095-0.467c1.797,0,3.015,0.587,3.652,1.762h0.29
		c0.322-0.559,0.796-0.992,1.423-1.3c0.626-0.308,1.333-0.462,2.122-0.462c1.36,0,2.39,0.349,3.088,1.047s1.047,1.817,1.047,3.357
		v7.831H611.9v-7.015c0-0.866-0.145-1.516-0.435-1.95c-0.29-0.433-0.747-0.65-1.37-0.65c-0.802,0-1.402,0.287-1.799,0.859
		c-0.397,0.573-0.596,1.482-0.596,2.729V188.817z"/>
	<path d="M629.464,182.791c0,1.955-0.516,3.484-1.547,4.587c-1.031,1.103-2.467,1.654-4.308,1.654c-1.153,0-2.17-0.252-3.051-0.757
		s-1.558-1.23-2.03-2.175s-0.709-2.048-0.709-3.309c0-1.962,0.512-3.487,1.536-4.576c1.024-1.088,2.463-1.633,4.318-1.633
		c1.153,0,2.17,0.251,3.051,0.752c0.881,0.501,1.558,1.221,2.03,2.159C629.228,180.432,629.464,181.531,629.464,182.791z
		 M621.16,182.791c0,1.189,0.195,2.088,0.585,2.696c0.39,0.609,1.026,0.913,1.907,0.913c0.874,0,1.502-0.302,1.885-0.908
		c0.383-0.605,0.575-1.505,0.575-2.702c0-1.188-0.193-2.08-0.58-2.675c-0.387-0.594-1.021-0.892-1.901-0.892
		c-0.874,0-1.504,0.295-1.891,0.886S621.16,181.595,621.16,182.791z"/>
	<path d="M637.23,186.422c0.573,0,1.26-0.125,2.062-0.376v2.438c-0.816,0.365-1.819,0.548-3.008,0.548
		c-1.311,0-2.265-0.331-2.863-0.994c-0.598-0.662-0.897-1.656-0.897-2.981v-5.79h-1.568v-1.386l1.805-1.096l0.945-2.535h2.095v2.557
		h3.362v2.46h-3.362v5.79c0,0.466,0.13,0.81,0.392,1.031C636.455,186.311,636.801,186.422,637.23,186.422z"/>
	<path d="M647.156,189.032c-1.934,0-3.445-0.533-4.533-1.601c-1.089-1.067-1.633-2.578-1.633-4.533c0-2.012,0.503-3.568,1.509-4.667
		c1.006-1.099,2.397-1.649,4.173-1.649c1.697,0,3.019,0.483,3.964,1.45s1.418,2.303,1.418,4.007v1.59h-7.745
		c0.036,0.931,0.312,1.658,0.827,2.181c0.516,0.523,1.239,0.784,2.17,0.784c0.723,0,1.407-0.075,2.052-0.226s1.317-0.39,2.02-0.72
		v2.535c-0.573,0.287-1.186,0.5-1.837,0.639C648.889,188.962,648.094,189.032,647.156,189.032z M646.694,178.913
		c-0.695,0-1.239,0.22-1.633,0.661c-0.394,0.44-0.62,1.065-0.677,1.875h4.598c-0.015-0.809-0.226-1.434-0.634-1.875
		S647.389,178.913,646.694,178.913z"/>
</g>
<circle cx="63" cy="213" r="13"/>
<circle fill="none" stroke="#000000" stroke-width="3" stroke-miterlimit="10" cx="640" cy="213" r="13"/>
<g>
	<g>
		<path d="M87.813,321.19c0.328,0,0.631,0.022,0.91,0.066c0.278,0.044,0.504,0.093,0.676,0.145l-0.32,2.164
			c-0.287-0.067-0.58-0.118-0.879-0.152c-0.3-0.034-0.585-0.051-0.855-0.051c-0.609,0-1.098,0.117-1.465,0.352
			s-0.642,0.57-0.824,1.008v5.078h-2.172v-8.453h2.023l0.102,1.383c0.344-0.479,0.755-0.855,1.234-1.129
			C86.722,321.327,87.246,321.19,87.813,321.19z"/>
		<path d="M95.446,329.956c-0.651,0-1.242-0.107-1.773-0.32s-0.987-0.504-1.367-0.871c-0.38-0.367-0.673-0.799-0.879-1.297
			c-0.206-0.497-0.309-1.03-0.309-1.598v-0.312c0-0.646,0.102-1.235,0.305-1.77c0.203-0.534,0.487-0.993,0.852-1.379
			c0.364-0.385,0.797-0.685,1.297-0.898c0.5-0.213,1.044-0.32,1.633-0.32c0.609,0,1.152,0.101,1.629,0.301
			c0.477,0.201,0.88,0.483,1.211,0.848c0.331,0.365,0.582,0.804,0.754,1.316c0.172,0.513,0.258,1.08,0.258,1.699v0.922h-5.734
			c0.042,0.287,0.126,0.548,0.254,0.785c0.127,0.237,0.29,0.441,0.488,0.613c0.198,0.172,0.424,0.305,0.68,0.398
			c0.255,0.094,0.534,0.141,0.836,0.141c0.213,0,0.426-0.021,0.637-0.062c0.211-0.042,0.413-0.103,0.605-0.184
			c0.192-0.081,0.372-0.181,0.539-0.301c0.167-0.12,0.312-0.26,0.438-0.422l1.086,1.172c-0.136,0.193-0.312,0.382-0.527,0.566
			c-0.216,0.185-0.472,0.349-0.766,0.492c-0.294,0.144-0.621,0.259-0.98,0.348S95.863,329.956,95.446,329.956z M95.188,322.948
			c-0.245,0-0.469,0.043-0.672,0.129s-0.382,0.21-0.535,0.371c-0.154,0.162-0.283,0.354-0.387,0.578
			c-0.104,0.224-0.183,0.474-0.234,0.75h3.562v-0.172c-0.011-0.229-0.055-0.445-0.133-0.648s-0.19-0.379-0.336-0.527
			c-0.146-0.148-0.324-0.266-0.535-0.352S95.464,322.948,95.188,322.948z"/>
		<path d="M106.399,327.479c0-0.13-0.03-0.245-0.09-0.344c-0.06-0.099-0.167-0.191-0.32-0.277c-0.154-0.086-0.358-0.165-0.613-0.238
			c-0.255-0.073-0.578-0.146-0.969-0.219c-0.495-0.099-0.947-0.223-1.355-0.371c-0.409-0.148-0.759-0.328-1.051-0.539
			c-0.292-0.211-0.52-0.454-0.684-0.73c-0.164-0.276-0.246-0.594-0.246-0.953c0-0.349,0.083-0.682,0.25-1
			c0.167-0.317,0.406-0.596,0.719-0.836c0.312-0.239,0.692-0.43,1.141-0.57c0.448-0.141,0.953-0.211,1.516-0.211
			c0.588,0,1.117,0.069,1.586,0.207c0.469,0.138,0.866,0.328,1.191,0.57c0.325,0.242,0.574,0.53,0.746,0.863
			c0.172,0.333,0.258,0.695,0.258,1.086h-2.172c0-0.328-0.133-0.603-0.398-0.824c-0.266-0.221-0.669-0.332-1.211-0.332
			c-0.505,0-0.887,0.091-1.145,0.273c-0.258,0.183-0.387,0.406-0.387,0.672c0,0.125,0.026,0.241,0.078,0.348
			c0.052,0.107,0.145,0.203,0.277,0.289s0.313,0.164,0.543,0.234c0.229,0.07,0.521,0.132,0.875,0.184
			c0.51,0.083,0.984,0.19,1.422,0.32c0.438,0.13,0.815,0.298,1.133,0.504c0.317,0.206,0.566,0.456,0.746,0.75
			c0.18,0.294,0.27,0.645,0.27,1.051c0,0.375-0.09,0.72-0.27,1.035c-0.18,0.315-0.435,0.587-0.766,0.816
			c-0.331,0.229-0.73,0.408-1.199,0.535s-0.992,0.191-1.57,0.191c-0.636,0-1.197-0.083-1.684-0.25
			c-0.487-0.167-0.895-0.384-1.223-0.652c-0.328-0.268-0.577-0.573-0.746-0.914c-0.169-0.341-0.254-0.684-0.254-1.027h2.07
			c0.016,0.229,0.078,0.426,0.188,0.59s0.25,0.297,0.422,0.398s0.368,0.176,0.59,0.223c0.221,0.047,0.449,0.07,0.684,0.07
			c0.536,0,0.945-0.086,1.227-0.258S106.399,327.75,106.399,327.479z"/>
		<path d="M115.938,328.612c-0.287,0.422-0.632,0.753-1.035,0.992c-0.404,0.239-0.845,0.359-1.324,0.359
			c-0.438,0-0.839-0.068-1.203-0.203c-0.365-0.135-0.677-0.35-0.938-0.645c-0.261-0.294-0.462-0.669-0.605-1.125
			c-0.144-0.456-0.215-1.004-0.215-1.645v-5h2.172v5.016c0,0.344,0.024,0.633,0.074,0.867c0.049,0.234,0.129,0.423,0.238,0.566
			c0.109,0.144,0.252,0.246,0.43,0.309c0.177,0.062,0.393,0.094,0.648,0.094c0.432,0,0.784-0.082,1.055-0.246
			c0.271-0.164,0.477-0.389,0.617-0.676v-5.93h2.18v8.453h-1.969L115.938,328.612z"/>
		<path d="M127.767,325.659c0,0.63-0.069,1.208-0.207,1.734c-0.138,0.526-0.345,0.979-0.621,1.359
			c-0.276,0.38-0.62,0.676-1.031,0.887c-0.412,0.211-0.891,0.316-1.438,0.316c-0.495,0-0.923-0.093-1.285-0.277
			c-0.362-0.185-0.673-0.444-0.934-0.777l-0.102,0.898h-1.953v-12h2.172v4.312c0.25-0.292,0.545-0.518,0.887-0.68
			c0.341-0.161,0.741-0.242,1.199-0.242c0.552,0,1.035,0.107,1.449,0.32c0.414,0.214,0.759,0.511,1.035,0.891
			c0.276,0.38,0.483,0.835,0.621,1.363c0.138,0.529,0.207,1.105,0.207,1.73V325.659z M125.595,325.495
			c0-0.344-0.026-0.669-0.078-0.977c-0.052-0.307-0.142-0.577-0.27-0.809c-0.128-0.231-0.301-0.415-0.52-0.551
			c-0.219-0.135-0.492-0.203-0.82-0.203c-0.396,0-0.718,0.083-0.965,0.25c-0.248,0.167-0.439,0.396-0.574,0.688v3.367
			c0.135,0.292,0.327,0.521,0.574,0.688c0.247,0.167,0.574,0.25,0.98,0.25c0.328,0,0.599-0.063,0.812-0.191
			c0.213-0.127,0.384-0.305,0.512-0.531c0.127-0.227,0.217-0.495,0.27-0.805c0.052-0.31,0.078-0.647,0.078-1.012V325.495z"/>
		<path d="M135.204,327.479c0-0.13-0.03-0.245-0.09-0.344c-0.06-0.099-0.167-0.191-0.32-0.277c-0.154-0.086-0.358-0.165-0.613-0.238
			c-0.255-0.073-0.578-0.146-0.969-0.219c-0.495-0.099-0.947-0.223-1.355-0.371c-0.409-0.148-0.759-0.328-1.051-0.539
			c-0.292-0.211-0.52-0.454-0.684-0.73c-0.164-0.276-0.246-0.594-0.246-0.953c0-0.349,0.083-0.682,0.25-1
			c0.167-0.317,0.406-0.596,0.719-0.836c0.312-0.239,0.692-0.43,1.141-0.57c0.448-0.141,0.953-0.211,1.516-0.211
			c0.588,0,1.117,0.069,1.586,0.207c0.469,0.138,0.866,0.328,1.191,0.57c0.325,0.242,0.574,0.53,0.746,0.863
			c0.172,0.333,0.258,0.695,0.258,1.086h-2.172c0-0.328-0.133-0.603-0.398-0.824c-0.266-0.221-0.669-0.332-1.211-0.332
			c-0.505,0-0.887,0.091-1.145,0.273c-0.258,0.183-0.387,0.406-0.387,0.672c0,0.125,0.026,0.241,0.078,0.348
			c0.052,0.107,0.145,0.203,0.277,0.289s0.313,0.164,0.543,0.234c0.229,0.07,0.521,0.132,0.875,0.184
			c0.51,0.083,0.984,0.19,1.422,0.32c0.438,0.13,0.815,0.298,1.133,0.504c0.317,0.206,0.566,0.456,0.746,0.75
			c0.18,0.294,0.27,0.645,0.27,1.051c0,0.375-0.09,0.72-0.27,1.035c-0.18,0.315-0.435,0.587-0.766,0.816
			c-0.331,0.229-0.73,0.408-1.199,0.535s-0.992,0.191-1.57,0.191c-0.636,0-1.197-0.083-1.684-0.25
			c-0.487-0.167-0.895-0.384-1.223-0.652c-0.328-0.268-0.577-0.573-0.746-0.914c-0.169-0.341-0.254-0.684-0.254-1.027h2.07
			c0.016,0.229,0.078,0.426,0.188,0.59s0.25,0.297,0.422,0.398s0.368,0.176,0.59,0.223c0.221,0.047,0.449,0.07,0.684,0.07
			c0.536,0,0.945-0.086,1.227-0.258S135.204,327.75,135.204,327.479z"/>
		<path d="M143.095,328.221c0.213,0,0.417-0.031,0.609-0.094c0.192-0.062,0.362-0.151,0.508-0.266
			c0.146-0.114,0.259-0.252,0.34-0.414c0.081-0.161,0.116-0.341,0.105-0.539h2.047c0.01,0.438-0.08,0.844-0.27,1.219
			c-0.19,0.375-0.449,0.698-0.777,0.969c-0.328,0.271-0.71,0.483-1.145,0.637c-0.435,0.153-0.895,0.23-1.379,0.23
			c-0.656,0-1.232-0.111-1.727-0.332c-0.495-0.221-0.908-0.524-1.238-0.91c-0.331-0.385-0.581-0.837-0.75-1.355
			c-0.169-0.518-0.254-1.074-0.254-1.668v-0.234c0-0.594,0.083-1.149,0.25-1.668c0.167-0.518,0.417-0.97,0.75-1.355
			c0.333-0.385,0.746-0.69,1.238-0.914c0.492-0.224,1.063-0.336,1.715-0.336c0.521,0,1.002,0.078,1.445,0.234
			c0.442,0.156,0.824,0.376,1.145,0.66c0.32,0.284,0.569,0.628,0.746,1.031c0.177,0.404,0.26,0.855,0.25,1.355h-2.047
			c0.01-0.208-0.021-0.406-0.094-0.594c-0.073-0.188-0.18-0.349-0.32-0.484c-0.141-0.135-0.31-0.243-0.508-0.324
			c-0.198-0.081-0.414-0.121-0.648-0.121c-0.344,0-0.628,0.07-0.852,0.211c-0.224,0.141-0.402,0.328-0.535,0.562
			s-0.227,0.503-0.281,0.805c-0.055,0.302-0.082,0.615-0.082,0.938v0.234c0,0.328,0.026,0.645,0.078,0.949
			c0.052,0.305,0.145,0.573,0.277,0.805c0.133,0.232,0.312,0.418,0.539,0.559S142.746,328.221,143.095,328.221z"/>
		<path d="M155.024,321.19c0.328,0,0.631,0.022,0.91,0.066c0.278,0.044,0.504,0.093,0.676,0.145l-0.32,2.164
			c-0.287-0.067-0.58-0.118-0.879-0.152c-0.3-0.034-0.585-0.051-0.855-0.051c-0.609,0-1.098,0.117-1.465,0.352
			s-0.642,0.57-0.824,1.008v5.078h-2.172v-8.453h2.023l0.102,1.383c0.344-0.479,0.755-0.855,1.234-1.129
			C153.933,321.327,154.457,321.19,155.024,321.19z"/>
		<path d="M159.134,321.346h4.602v6.688h2.289v1.766h-6.891v-1.766h2.406v-4.914h-2.406V321.346z M161.384,319.182
			c0-0.167,0.03-0.321,0.09-0.465c0.06-0.143,0.145-0.266,0.254-0.367s0.241-0.181,0.395-0.238c0.153-0.057,0.324-0.086,0.512-0.086
			c0.385,0,0.691,0.108,0.918,0.324c0.227,0.216,0.34,0.494,0.34,0.832c0,0.339-0.113,0.616-0.34,0.832
			c-0.227,0.216-0.533,0.324-0.918,0.324c-0.188,0-0.358-0.028-0.512-0.086c-0.154-0.057-0.285-0.137-0.395-0.238
			s-0.194-0.224-0.254-0.367C161.414,319.504,161.384,319.349,161.384,319.182z"/>
		<path d="M175.774,325.659c0,0.63-0.069,1.208-0.207,1.734c-0.138,0.526-0.345,0.979-0.621,1.359
			c-0.276,0.38-0.62,0.676-1.031,0.887c-0.412,0.211-0.891,0.316-1.438,0.316c-0.495,0-0.923-0.093-1.285-0.277
			c-0.362-0.185-0.673-0.444-0.934-0.777l-0.102,0.898h-1.953v-12h2.172v4.312c0.25-0.292,0.545-0.518,0.887-0.68
			c0.341-0.161,0.741-0.242,1.199-0.242c0.552,0,1.035,0.107,1.449,0.32c0.414,0.214,0.759,0.511,1.035,0.891
			c0.276,0.38,0.483,0.835,0.621,1.363c0.138,0.529,0.207,1.105,0.207,1.73V325.659z M173.603,325.495
			c0-0.344-0.026-0.669-0.078-0.977c-0.052-0.307-0.142-0.577-0.27-0.809c-0.128-0.231-0.301-0.415-0.52-0.551
			c-0.219-0.135-0.492-0.203-0.82-0.203c-0.396,0-0.718,0.083-0.965,0.25c-0.248,0.167-0.439,0.396-0.574,0.688v3.367
			c0.135,0.292,0.327,0.521,0.574,0.688c0.247,0.167,0.574,0.25,0.98,0.25c0.328,0,0.599-0.063,0.812-0.191
			c0.213-0.127,0.384-0.305,0.512-0.531c0.127-0.227,0.217-0.495,0.27-0.805c0.052-0.31,0.078-0.647,0.078-1.012V325.495z"/>
		<path d="M181.86,329.956c-0.651,0-1.242-0.107-1.773-0.32s-0.987-0.504-1.367-0.871c-0.38-0.367-0.673-0.799-0.879-1.297
			c-0.206-0.497-0.309-1.03-0.309-1.598v-0.312c0-0.646,0.102-1.235,0.305-1.77c0.203-0.534,0.487-0.993,0.852-1.379
			c0.364-0.385,0.797-0.685,1.297-0.898c0.5-0.213,1.044-0.32,1.633-0.32c0.609,0,1.152,0.101,1.629,0.301
			c0.477,0.201,0.88,0.483,1.211,0.848c0.331,0.365,0.582,0.804,0.754,1.316c0.172,0.513,0.258,1.08,0.258,1.699v0.922h-5.734
			c0.042,0.287,0.126,0.548,0.254,0.785c0.127,0.237,0.29,0.441,0.488,0.613c0.198,0.172,0.424,0.305,0.68,0.398
			c0.255,0.094,0.534,0.141,0.836,0.141c0.213,0,0.426-0.021,0.637-0.062c0.211-0.042,0.413-0.103,0.605-0.184
			c0.192-0.081,0.372-0.181,0.539-0.301c0.167-0.12,0.312-0.26,0.438-0.422l1.086,1.172c-0.136,0.193-0.312,0.382-0.527,0.566
			c-0.216,0.185-0.472,0.349-0.766,0.492c-0.294,0.144-0.621,0.259-0.98,0.348S182.277,329.956,181.86,329.956z M181.603,322.948
			c-0.245,0-0.469,0.043-0.672,0.129s-0.382,0.21-0.535,0.371c-0.154,0.162-0.283,0.354-0.387,0.578
			c-0.104,0.224-0.183,0.474-0.234,0.75h3.562v-0.172c-0.011-0.229-0.055-0.445-0.133-0.648s-0.19-0.379-0.336-0.527
			c-0.146-0.148-0.324-0.266-0.535-0.352S181.878,322.948,181.603,322.948z"/>
		<path d="M188.954,325.174c0-0.734,0.056-1.426,0.168-2.074c0.112-0.648,0.264-1.247,0.457-1.797
			c0.192-0.549,0.418-1.051,0.676-1.504s0.53-0.854,0.816-1.203c0.286-0.349,0.582-0.645,0.887-0.887s0.6-0.428,0.887-0.559
			l0.422,1.188c-0.292,0.224-0.583,0.525-0.875,0.902c-0.292,0.378-0.554,0.847-0.785,1.406c-0.232,0.56-0.421,1.212-0.566,1.957
			c-0.146,0.745-0.219,1.597-0.219,2.555v0.203c0,0.964,0.073,1.818,0.219,2.562c0.146,0.745,0.334,1.397,0.566,1.957
			c0.231,0.56,0.493,1.03,0.785,1.41c0.292,0.38,0.583,0.682,0.875,0.906l-0.422,1.172c-0.287-0.13-0.582-0.318-0.887-0.562
			c-0.305-0.245-0.601-0.541-0.887-0.887c-0.287-0.347-0.559-0.746-0.816-1.199s-0.483-0.954-0.676-1.504
			c-0.193-0.549-0.345-1.147-0.457-1.793c-0.112-0.646-0.168-1.338-0.168-2.078V325.174z"/>
		<path d="M199.22,325.627v4.172h-2.195v-11.375h3.891c0.62,0,1.18,0.09,1.68,0.27s0.926,0.43,1.277,0.75s0.622,0.705,0.812,1.152
			c0.19,0.448,0.285,0.945,0.285,1.492c0,0.511-0.095,0.982-0.285,1.414c-0.19,0.433-0.461,0.806-0.812,1.121
			c-0.352,0.315-0.777,0.562-1.277,0.738c-0.5,0.177-1.06,0.266-1.68,0.266H199.22z M199.22,323.846h1.695
			c0.312,0,0.583-0.047,0.812-0.141c0.229-0.094,0.42-0.221,0.574-0.383c0.153-0.161,0.268-0.348,0.344-0.559
			c0.075-0.211,0.113-0.431,0.113-0.66c0-0.266-0.038-0.513-0.113-0.742c-0.076-0.229-0.19-0.43-0.344-0.602
			c-0.154-0.172-0.345-0.307-0.574-0.406c-0.229-0.099-0.5-0.148-0.812-0.148h-1.695V323.846z"/>
		<path d="M206.97,318.424h6.578v1.773h-2.219v7.836h2.219v1.766h-6.578v-1.766h2.164v-7.836h-2.164V318.424z"/>
		<path d="M223.587,329.799h-2.188l-3.164-7.336v7.336h-2.211v-11.375h2.211l3.141,7.305l0.008-7.305h2.203V329.799z"/>
		<path d="M233.509,328.471c-0.141,0.172-0.333,0.347-0.578,0.523c-0.245,0.177-0.535,0.337-0.871,0.48
			c-0.336,0.144-0.712,0.259-1.129,0.348c-0.417,0.088-0.865,0.133-1.344,0.133c-0.646,0-1.229-0.115-1.75-0.344
			c-0.521-0.229-0.966-0.56-1.336-0.992c-0.37-0.432-0.655-0.962-0.855-1.59c-0.201-0.627-0.301-1.34-0.301-2.137v-1.547
			c0-0.797,0.105-1.509,0.316-2.137c0.211-0.627,0.502-1.16,0.875-1.598c0.372-0.438,0.81-0.771,1.312-1
			c0.502-0.229,1.048-0.344,1.637-0.344c0.641,0,1.199,0.081,1.676,0.242c0.477,0.162,0.879,0.395,1.207,0.699
			s0.584,0.676,0.77,1.113c0.185,0.438,0.306,0.93,0.363,1.477h-2.141c-0.073-0.583-0.249-1.022-0.527-1.316
			c-0.279-0.294-0.71-0.441-1.293-0.441c-0.281,0-0.542,0.072-0.781,0.215c-0.24,0.144-0.448,0.353-0.625,0.629
			c-0.177,0.276-0.318,0.619-0.422,1.027c-0.104,0.409-0.156,0.882-0.156,1.418v1.562c0.005,1.062,0.182,1.876,0.531,2.441
			c0.349,0.565,0.883,0.851,1.602,0.855c0.172,0,0.341-0.013,0.508-0.039c0.167-0.026,0.323-0.062,0.469-0.109
			c0.146-0.047,0.274-0.1,0.387-0.16c0.112-0.06,0.196-0.124,0.254-0.191l0.008-2.062h-1.883v-1.641h4.07L233.509,328.471z"/>
		<path d="M241.149,325.346c0,0.714-0.058,1.39-0.172,2.027c-0.115,0.638-0.271,1.233-0.469,1.785
			c-0.198,0.552-0.429,1.056-0.691,1.512c-0.263,0.456-0.543,0.862-0.84,1.219c-0.297,0.356-0.602,0.66-0.914,0.91
			s-0.617,0.44-0.914,0.57l-0.414-1.172c0.286-0.219,0.575-0.519,0.867-0.898c0.292-0.38,0.555-0.849,0.789-1.406
			s0.424-1.211,0.57-1.961c0.146-0.75,0.219-1.606,0.219-2.57v-0.203c0-0.958-0.076-1.812-0.227-2.562
			c-0.151-0.75-0.344-1.406-0.578-1.969s-0.496-1.034-0.785-1.414c-0.289-0.38-0.574-0.68-0.855-0.898l0.414-1.164
			c0.297,0.13,0.602,0.32,0.914,0.57s0.617,0.554,0.914,0.91c0.297,0.357,0.577,0.763,0.84,1.219
			c0.263,0.456,0.493,0.96,0.691,1.512c0.198,0.552,0.354,1.147,0.469,1.785c0.114,0.638,0.172,1.314,0.172,2.027V325.346z"/>
	</g>
</g>
<g>
	<rect x="394.142" y="371.14" fill="none" width="296.858" height="44.136"/>
	<path d="M399.267,378.5h-2.273v4.641h-1.438v-11.375h3.336c0.531,0.011,1.031,0.086,1.5,0.227s0.879,0.352,1.23,0.633
		s0.627,0.634,0.828,1.059c0.2,0.425,0.301,0.923,0.301,1.496c0,0.37-0.054,0.708-0.16,1.016c-0.107,0.308-0.254,0.586-0.441,0.836
		s-0.412,0.472-0.672,0.664c-0.261,0.193-0.547,0.357-0.859,0.492l2.414,4.859l-0.008,0.094h-1.523L399.267,378.5z M396.993,377.312
		h1.938c0.323-0.005,0.627-0.056,0.914-0.152c0.286-0.096,0.538-0.235,0.754-0.418c0.216-0.182,0.387-0.405,0.512-0.668
		c0.125-0.263,0.188-0.566,0.188-0.91c0-0.364-0.06-0.684-0.18-0.957c-0.12-0.273-0.287-0.502-0.5-0.688
		c-0.214-0.185-0.468-0.324-0.762-0.418c-0.294-0.094-0.616-0.143-0.965-0.148h-1.898V377.312z"/>
	<path d="M404.696,378.835c0-0.609,0.088-1.176,0.266-1.699c0.177-0.523,0.431-0.978,0.762-1.363
		c0.331-0.385,0.733-0.688,1.207-0.91c0.474-0.221,1.008-0.332,1.602-0.332c0.599,0,1.137,0.111,1.613,0.332
		c0.477,0.222,0.88,0.525,1.211,0.91c0.331,0.386,0.584,0.84,0.762,1.363c0.177,0.523,0.266,1.09,0.266,1.699v0.172
		c0,0.609-0.089,1.175-0.266,1.695c-0.177,0.521-0.431,0.974-0.762,1.359c-0.331,0.386-0.733,0.688-1.207,0.906
		c-0.474,0.219-1.008,0.328-1.602,0.328c-0.599,0-1.137-0.109-1.613-0.328s-0.88-0.521-1.211-0.906
		c-0.331-0.385-0.585-0.838-0.762-1.359c-0.177-0.521-0.266-1.086-0.266-1.695V378.835z M406.142,379.007
		c0,0.417,0.049,0.814,0.148,1.191c0.099,0.378,0.249,0.71,0.449,0.996c0.2,0.287,0.452,0.513,0.754,0.68
		c0.302,0.167,0.653,0.25,1.055,0.25c0.396,0,0.743-0.083,1.043-0.25c0.299-0.167,0.549-0.393,0.75-0.68
		c0.2-0.286,0.35-0.618,0.449-0.996c0.099-0.377,0.148-0.774,0.148-1.191v-0.172c0-0.411-0.051-0.806-0.152-1.184
		c-0.102-0.377-0.253-0.709-0.453-0.996c-0.201-0.286-0.451-0.514-0.75-0.684c-0.3-0.169-0.65-0.254-1.051-0.254
		c-0.401,0-0.75,0.085-1.047,0.254c-0.297,0.169-0.546,0.397-0.746,0.684c-0.201,0.287-0.351,0.619-0.449,0.996
		c-0.099,0.378-0.148,0.772-0.148,1.184V379.007z"/>
	<path d="M420.188,381.976c-0.281,0.417-0.633,0.741-1.055,0.973s-0.909,0.348-1.461,0.348c-0.443,0-0.844-0.069-1.203-0.207
		s-0.667-0.353-0.922-0.645c-0.255-0.292-0.452-0.663-0.59-1.113c-0.138-0.45-0.207-0.991-0.207-1.621v-5.023h1.445v5.039
		c0,0.458,0.036,0.839,0.109,1.141c0.073,0.302,0.182,0.543,0.328,0.723c0.146,0.18,0.324,0.306,0.535,0.379
		c0.211,0.073,0.454,0.109,0.73,0.109c0.588,0,1.063-0.12,1.426-0.359c0.362-0.239,0.631-0.562,0.809-0.969v-6.062h1.453v8.453
		h-1.312L420.188,381.976z"/>
	<path d="M425.603,374.687l0.102,1.25c0.307-0.438,0.685-0.78,1.133-1.027c0.448-0.247,0.948-0.374,1.5-0.379
		c0.442,0,0.845,0.062,1.207,0.188c0.362,0.125,0.67,0.32,0.926,0.586c0.255,0.266,0.452,0.603,0.59,1.012
		c0.138,0.409,0.207,0.895,0.207,1.457v5.367h-1.445v-5.336c0-0.375-0.042-0.692-0.125-0.953c-0.083-0.26-0.207-0.471-0.371-0.633
		c-0.164-0.161-0.365-0.278-0.602-0.352c-0.237-0.073-0.509-0.109-0.816-0.109c-0.484,0-0.91,0.121-1.277,0.363
		s-0.66,0.562-0.879,0.957v6.062h-1.445v-8.453H425.603z"/>
	<path d="M433.634,378.843c0-0.63,0.079-1.209,0.238-1.738c0.159-0.528,0.385-0.983,0.68-1.363c0.294-0.38,0.649-0.677,1.066-0.891
		c0.417-0.213,0.883-0.32,1.398-0.32c0.505,0,0.946,0.085,1.324,0.254c0.377,0.169,0.704,0.416,0.98,0.738v-4.383h1.445v12h-1.328
		l-0.062-0.891c-0.281,0.344-0.617,0.604-1.008,0.781s-0.847,0.266-1.367,0.266c-0.511,0-0.973-0.109-1.387-0.328
		s-0.767-0.521-1.059-0.906c-0.292-0.385-0.519-0.84-0.68-1.363c-0.162-0.523-0.242-1.087-0.242-1.691V378.843z M435.079,379.007
		c0,0.412,0.044,0.802,0.133,1.172c0.088,0.37,0.225,0.695,0.41,0.977c0.185,0.281,0.42,0.504,0.707,0.668
		c0.286,0.164,0.63,0.246,1.031,0.246c0.245,0,0.466-0.028,0.664-0.086c0.198-0.057,0.377-0.139,0.539-0.246
		c0.161-0.106,0.305-0.234,0.43-0.383s0.234-0.313,0.328-0.496v-3.922c-0.188-0.344-0.44-0.626-0.758-0.848
		c-0.318-0.221-0.714-0.332-1.188-0.332c-0.406,0-0.754,0.083-1.043,0.25c-0.289,0.167-0.526,0.392-0.711,0.676
		c-0.185,0.284-0.322,0.612-0.41,0.984c-0.089,0.373-0.133,0.765-0.133,1.176V379.007z"/>
	<path d="M456.532,372.64v2.047h3.219v1.117h-3.219v4.594c0,0.328,0.042,0.599,0.125,0.812c0.083,0.214,0.198,0.384,0.344,0.512
		c0.146,0.128,0.313,0.218,0.504,0.27c0.19,0.052,0.392,0.078,0.605,0.078c0.156,0,0.317-0.009,0.484-0.027
		c0.167-0.018,0.329-0.04,0.488-0.066c0.159-0.026,0.307-0.053,0.445-0.082c0.138-0.028,0.251-0.053,0.34-0.074l0.203,1.023
		c-0.12,0.073-0.266,0.137-0.438,0.191s-0.359,0.102-0.562,0.141s-0.418,0.069-0.645,0.09c-0.227,0.021-0.452,0.031-0.676,0.031
		c-0.375,0-0.726-0.054-1.051-0.16c-0.326-0.106-0.608-0.276-0.848-0.508c-0.24-0.231-0.429-0.531-0.566-0.898
		c-0.138-0.367-0.207-0.811-0.207-1.332v-4.594h-2.219v-1.117h2.219v-2.047H456.532z"/>
	<path d="M468.251,374.531c0.135,0,0.276,0.004,0.422,0.012c0.146,0.008,0.285,0.021,0.418,0.039
		c0.133,0.019,0.255,0.041,0.367,0.066c0.112,0.026,0.204,0.055,0.277,0.086l-0.195,1.414c-0.281-0.062-0.548-0.108-0.801-0.137
		c-0.253-0.028-0.517-0.043-0.793-0.043c-0.677,0-1.226,0.154-1.645,0.461c-0.419,0.308-0.728,0.737-0.926,1.289v5.422h-1.453
		v-8.453h1.375l0.07,1.344c0.344-0.463,0.756-0.829,1.238-1.098C467.088,374.665,467.636,374.531,468.251,374.531z"/>
	<path d="M472.54,374.687h4.32v7.203h2.758v1.25h-7.078v-1.25h2.875v-5.945h-2.875V374.687z M475.228,372.468
		c0-0.239,0.071-0.441,0.215-0.605c0.143-0.164,0.36-0.246,0.652-0.246c0.286,0,0.502,0.082,0.648,0.246
		c0.146,0.164,0.219,0.366,0.219,0.605c0,0.234-0.073,0.43-0.219,0.586c-0.146,0.156-0.362,0.234-0.648,0.234
		c-0.292,0-0.509-0.078-0.652-0.234C475.299,372.898,475.228,372.703,475.228,372.468z"/>
	<path d="M489.048,379.007c0,0.604-0.073,1.168-0.219,1.691c-0.146,0.523-0.359,0.978-0.641,1.363
		c-0.281,0.386-0.629,0.688-1.043,0.906s-0.887,0.328-1.418,0.328c-0.516,0-0.97-0.083-1.363-0.25
		c-0.394-0.167-0.73-0.406-1.012-0.719v4.063h-1.445v-11.704h1.32l0.07,0.922c0.281-0.349,0.621-0.616,1.02-0.801
		c0.398-0.185,0.86-0.277,1.387-0.277c0.542,0,1.021,0.107,1.438,0.32c0.417,0.214,0.766,0.511,1.047,0.891
		c0.281,0.38,0.495,0.835,0.641,1.363c0.146,0.529,0.219,1.108,0.219,1.738V379.007z M487.603,378.843
		c0-0.411-0.046-0.803-0.137-1.176c-0.091-0.372-0.232-0.7-0.422-0.984c-0.19-0.284-0.431-0.509-0.723-0.676
		c-0.292-0.167-0.641-0.25-1.047-0.25c-0.464,0-0.853,0.108-1.168,0.324c-0.315,0.216-0.566,0.494-0.754,0.832v4.07
		c0.188,0.333,0.438,0.605,0.75,0.816s0.708,0.316,1.188,0.316c0.401,0,0.747-0.084,1.039-0.254
		c0.292-0.169,0.531-0.397,0.719-0.684c0.188-0.286,0.327-0.617,0.418-0.992c0.091-0.375,0.137-0.768,0.137-1.18V378.843z"/>
	<path d="M504.72,382.125c0.26,0,0.514-0.042,0.762-0.125c0.247-0.083,0.467-0.199,0.66-0.348c0.192-0.148,0.348-0.323,0.465-0.523
		c0.117-0.2,0.178-0.418,0.184-0.652h1.367c-0.005,0.375-0.103,0.733-0.293,1.074c-0.19,0.341-0.444,0.641-0.762,0.898
		c-0.318,0.258-0.683,0.464-1.094,0.617c-0.412,0.153-0.841,0.23-1.289,0.23c-0.641,0-1.201-0.115-1.68-0.344
		c-0.479-0.229-0.879-0.538-1.199-0.926c-0.32-0.388-0.562-0.836-0.723-1.344c-0.162-0.508-0.242-1.043-0.242-1.605v-0.328
		c0-0.557,0.081-1.091,0.242-1.602c0.161-0.51,0.402-0.959,0.723-1.348c0.32-0.388,0.72-0.696,1.199-0.926
		c0.479-0.229,1.039-0.344,1.68-0.344c0.5,0,0.959,0.08,1.379,0.238c0.419,0.159,0.781,0.375,1.086,0.648s0.543,0.598,0.715,0.973
		s0.258,0.776,0.258,1.203h-1.367c-0.005-0.255-0.062-0.496-0.168-0.723c-0.107-0.227-0.251-0.426-0.434-0.598
		c-0.183-0.172-0.4-0.307-0.652-0.406c-0.253-0.099-0.525-0.148-0.816-0.148c-0.448,0-0.824,0.09-1.129,0.27
		s-0.551,0.414-0.738,0.703s-0.322,0.613-0.402,0.973c-0.081,0.359-0.121,0.722-0.121,1.086v0.328c0,0.37,0.04,0.736,0.121,1.098
		c0.081,0.362,0.213,0.688,0.398,0.977c0.185,0.289,0.43,0.523,0.734,0.703S504.267,382.125,504.72,382.125z"/>
	<path d="M510.313,378.835c0-0.609,0.088-1.176,0.266-1.699c0.177-0.523,0.431-0.978,0.762-1.363
		c0.331-0.385,0.733-0.688,1.207-0.91c0.474-0.221,1.008-0.332,1.602-0.332c0.599,0,1.137,0.111,1.613,0.332
		c0.477,0.222,0.88,0.525,1.211,0.91c0.331,0.386,0.584,0.84,0.762,1.363c0.177,0.523,0.266,1.09,0.266,1.699v0.172
		c0,0.609-0.089,1.175-0.266,1.695c-0.177,0.521-0.431,0.974-0.762,1.359c-0.331,0.386-0.733,0.688-1.207,0.906
		c-0.474,0.219-1.008,0.328-1.602,0.328c-0.599,0-1.137-0.109-1.613-0.328s-0.88-0.521-1.211-0.906
		c-0.331-0.385-0.585-0.838-0.762-1.359c-0.177-0.521-0.266-1.086-0.266-1.695V378.835z M511.759,379.007
		c0,0.417,0.049,0.814,0.148,1.191c0.099,0.378,0.249,0.71,0.449,0.996c0.2,0.287,0.452,0.513,0.754,0.68
		c0.302,0.167,0.653,0.25,1.055,0.25c0.396,0,0.743-0.083,1.043-0.25c0.299-0.167,0.549-0.393,0.75-0.68
		c0.2-0.286,0.35-0.618,0.449-0.996c0.099-0.377,0.148-0.774,0.148-1.191v-0.172c0-0.411-0.051-0.806-0.152-1.184
		c-0.102-0.377-0.253-0.709-0.453-0.996c-0.201-0.286-0.451-0.514-0.75-0.684c-0.3-0.169-0.65-0.254-1.051-0.254
		c-0.401,0-0.75,0.085-1.047,0.254c-0.297,0.169-0.546,0.397-0.746,0.684c-0.201,0.287-0.351,0.619-0.449,0.996
		c-0.099,0.378-0.148,0.772-0.148,1.184V379.007z"/>
	<path d="M520.985,374.687l0.039,0.797c0.172-0.297,0.397-0.528,0.676-0.695c0.278-0.167,0.616-0.252,1.012-0.258
		c0.776,0,1.294,0.302,1.555,0.906c0.167-0.271,0.387-0.488,0.66-0.652s0.605-0.249,0.996-0.254c0.62,0,1.096,0.19,1.43,0.57
		c0.333,0.38,0.5,0.956,0.5,1.727v6.312h-1.375v-6.328c0-0.708-0.326-1.06-0.977-1.055c-0.172,0-0.32,0.023-0.445,0.07
		s-0.229,0.111-0.312,0.191c-0.083,0.081-0.148,0.175-0.195,0.281c-0.047,0.107-0.078,0.218-0.094,0.332v6.508h-1.375v-6.336
		c0-0.338-0.076-0.599-0.227-0.781c-0.151-0.182-0.391-0.271-0.719-0.266c-0.302,0-0.537,0.06-0.703,0.18
		c-0.167,0.12-0.289,0.279-0.367,0.477v6.727h-1.375v-8.453H520.985z"/>
	<path d="M537.056,379.007c0,0.604-0.073,1.168-0.219,1.691c-0.146,0.523-0.359,0.978-0.641,1.363
		c-0.281,0.386-0.629,0.688-1.043,0.906s-0.887,0.328-1.418,0.328c-0.516,0-0.97-0.083-1.363-0.25
		c-0.394-0.167-0.73-0.406-1.012-0.719v4.063h-1.445v-11.704h1.32l0.07,0.922c0.281-0.349,0.621-0.616,1.02-0.801
		c0.398-0.185,0.86-0.277,1.387-0.277c0.542,0,1.021,0.107,1.438,0.32c0.417,0.214,0.766,0.511,1.047,0.891
		c0.281,0.38,0.495,0.835,0.641,1.363c0.146,0.529,0.219,1.108,0.219,1.738V379.007z M535.61,378.843
		c0-0.411-0.046-0.803-0.137-1.176c-0.091-0.372-0.232-0.7-0.422-0.984c-0.19-0.284-0.431-0.509-0.723-0.676
		c-0.292-0.167-0.641-0.25-1.047-0.25c-0.464,0-0.853,0.108-1.168,0.324c-0.315,0.216-0.566,0.494-0.754,0.832v4.07
		c0.188,0.333,0.438,0.605,0.75,0.816s0.708,0.316,1.188,0.316c0.401,0,0.747-0.084,1.039-0.254
		c0.292-0.169,0.531-0.397,0.719-0.684c0.188-0.286,0.327-0.617,0.418-0.992c0.091-0.375,0.137-0.768,0.137-1.18V378.843z"/>
	<path d="M539.751,371.14h4.32v10.75h2.758v1.25h-7.078v-1.25h2.875v-9.492h-2.875V371.14z"/>
	<path d="M552.86,383.296c-0.594,0-1.14-0.102-1.637-0.305c-0.498-0.203-0.923-0.487-1.277-0.852
		c-0.354-0.364-0.63-0.797-0.828-1.297c-0.198-0.5-0.297-1.044-0.297-1.633v-0.328c0-0.682,0.109-1.293,0.328-1.832
		s0.509-0.995,0.871-1.367c0.362-0.372,0.773-0.657,1.234-0.855c0.461-0.198,0.934-0.297,1.418-0.297
		c0.609,0,1.142,0.105,1.598,0.316c0.456,0.211,0.834,0.503,1.137,0.875c0.302,0.373,0.527,0.812,0.676,1.316
		c0.148,0.505,0.223,1.052,0.223,1.641v0.648h-6.039c0.016,0.386,0.09,0.748,0.223,1.086c0.133,0.339,0.315,0.634,0.547,0.887
		c0.231,0.253,0.509,0.452,0.832,0.598c0.323,0.146,0.68,0.219,1.07,0.219c0.516,0,0.974-0.104,1.375-0.312
		c0.401-0.208,0.734-0.484,1-0.828l0.883,0.688c-0.141,0.214-0.316,0.418-0.527,0.613s-0.455,0.369-0.73,0.52
		c-0.276,0.151-0.589,0.272-0.938,0.363C553.652,383.25,553.271,383.296,552.86,383.296z M552.673,375.718
		c-0.292,0-0.568,0.054-0.828,0.16c-0.261,0.107-0.495,0.263-0.703,0.469c-0.208,0.206-0.384,0.458-0.527,0.758
		c-0.144,0.3-0.244,0.645-0.301,1.035h4.547v-0.109c-0.016-0.281-0.069-0.56-0.16-0.836c-0.091-0.276-0.226-0.523-0.402-0.742
		c-0.177-0.219-0.4-0.396-0.668-0.531C553.361,375.786,553.042,375.718,552.673,375.718z"/>
	<path d="M562.149,372.64v2.047h3.219v1.117h-3.219v4.594c0,0.328,0.042,0.599,0.125,0.812c0.083,0.214,0.198,0.384,0.344,0.512
		c0.146,0.128,0.313,0.218,0.504,0.27c0.19,0.052,0.392,0.078,0.605,0.078c0.156,0,0.317-0.009,0.484-0.027
		c0.167-0.018,0.329-0.04,0.488-0.066c0.159-0.026,0.307-0.053,0.445-0.082c0.138-0.028,0.251-0.053,0.34-0.074l0.203,1.023
		c-0.12,0.073-0.266,0.137-0.438,0.191s-0.359,0.102-0.562,0.141s-0.418,0.069-0.645,0.09c-0.227,0.021-0.452,0.031-0.676,0.031
		c-0.375,0-0.726-0.054-1.051-0.16c-0.326-0.106-0.608-0.276-0.848-0.508c-0.24-0.231-0.429-0.531-0.566-0.898
		c-0.138-0.367-0.207-0.811-0.207-1.332v-4.594h-2.219v-1.117h2.219v-2.047H562.149z"/>
	<path d="M572.063,383.296c-0.594,0-1.14-0.102-1.637-0.305c-0.498-0.203-0.923-0.487-1.277-0.852
		c-0.354-0.364-0.63-0.797-0.828-1.297c-0.198-0.5-0.297-1.044-0.297-1.633v-0.328c0-0.682,0.109-1.293,0.328-1.832
		s0.509-0.995,0.871-1.367c0.362-0.372,0.773-0.657,1.234-0.855c0.461-0.198,0.934-0.297,1.418-0.297
		c0.609,0,1.142,0.105,1.598,0.316c0.456,0.211,0.834,0.503,1.137,0.875c0.302,0.373,0.527,0.812,0.676,1.316
		c0.148,0.505,0.223,1.052,0.223,1.641v0.648h-6.039c0.016,0.386,0.09,0.748,0.223,1.086c0.133,0.339,0.315,0.634,0.547,0.887
		c0.231,0.253,0.509,0.452,0.832,0.598c0.323,0.146,0.68,0.219,1.07,0.219c0.516,0,0.974-0.104,1.375-0.312
		c0.401-0.208,0.734-0.484,1-0.828l0.883,0.688c-0.141,0.214-0.316,0.418-0.527,0.613s-0.455,0.369-0.73,0.52
		c-0.276,0.151-0.589,0.272-0.938,0.363C572.855,383.25,572.475,383.296,572.063,383.296z M571.876,375.718
		c-0.292,0-0.568,0.054-0.828,0.16c-0.261,0.107-0.495,0.263-0.703,0.469c-0.208,0.206-0.384,0.458-0.527,0.758
		c-0.144,0.3-0.244,0.645-0.301,1.035h4.547v-0.109c-0.016-0.281-0.069-0.56-0.16-0.836c-0.091-0.276-0.226-0.523-0.402-0.742
		c-0.177-0.219-0.4-0.396-0.668-0.531C572.564,375.786,572.246,375.718,571.876,375.718z"/>
	<path d="M581.595,382.804c0,0.245-0.03,0.501-0.09,0.77c-0.06,0.268-0.148,0.534-0.266,0.797c-0.117,0.263-0.259,0.514-0.426,0.754
		c-0.167,0.238-0.359,0.453-0.578,0.641l-0.898-0.492c0.25-0.365,0.427-0.753,0.531-1.165c0.104-0.412,0.156-0.839,0.156-1.281
		v-1.398h1.57V382.804z"/>
	<path d="M400.931,399.395h-3.797l-0.914,2.945h-1.445l3.672-11.375h1.211l3.609,11.375h-1.438L400.931,399.395z M397.524,398.137
		h3.023l-1.5-4.938L397.524,398.137z"/>
	<path d="M407.259,402.34v-7.336h-2.328v-1.117h2.328v-0.594c0-0.541,0.079-1.016,0.238-1.426c0.159-0.408,0.383-0.75,0.672-1.027
		c0.289-0.275,0.637-0.484,1.043-0.625s0.859-0.211,1.359-0.211c0.344,0,0.678,0.029,1.004,0.086
		c0.325,0.059,0.66,0.131,1.004,0.219l-0.172,1.195c-0.214-0.072-0.462-0.137-0.746-0.191c-0.284-0.055-0.587-0.082-0.91-0.082
		c-0.677,0.006-1.187,0.178-1.527,0.516c-0.341,0.34-0.512,0.855-0.512,1.547v0.594h3.258v1.117h-3.258v7.336H407.259z"/>
	<path d="M418.134,391.84v2.047h3.219v1.117h-3.219v4.594c0,0.328,0.042,0.6,0.125,0.812c0.083,0.215,0.198,0.385,0.344,0.512
		c0.146,0.129,0.313,0.219,0.504,0.27c0.19,0.053,0.392,0.078,0.605,0.078c0.156,0,0.317-0.008,0.484-0.027
		c0.167-0.018,0.329-0.039,0.488-0.066c0.159-0.025,0.307-0.053,0.445-0.082c0.138-0.027,0.251-0.053,0.34-0.074l0.203,1.023
		c-0.12,0.074-0.266,0.137-0.438,0.191s-0.359,0.102-0.562,0.141s-0.418,0.069-0.645,0.09c-0.227,0.021-0.452,0.031-0.676,0.031
		c-0.375,0-0.726-0.053-1.051-0.16c-0.326-0.105-0.608-0.275-0.848-0.508c-0.24-0.23-0.429-0.531-0.566-0.898
		c-0.138-0.367-0.207-0.811-0.207-1.332v-4.594h-2.219v-1.117h2.219v-2.047H418.134z"/>
	<path d="M428.048,402.496c-0.594,0-1.14-0.102-1.637-0.305c-0.498-0.203-0.923-0.486-1.277-0.852
		c-0.354-0.363-0.63-0.797-0.828-1.297c-0.198-0.5-0.297-1.043-0.297-1.633v-0.328c0-0.682,0.109-1.293,0.328-1.832
		s0.509-0.994,0.871-1.367c0.362-0.371,0.773-0.656,1.234-0.855c0.461-0.197,0.934-0.297,1.418-0.297
		c0.609,0,1.142,0.105,1.598,0.316c0.456,0.211,0.834,0.504,1.137,0.875c0.302,0.373,0.527,0.812,0.676,1.316
		c0.148,0.506,0.223,1.053,0.223,1.641v0.648h-6.039c0.016,0.387,0.09,0.748,0.223,1.086c0.133,0.34,0.315,0.635,0.547,0.887
		c0.231,0.254,0.509,0.453,0.832,0.598c0.323,0.146,0.68,0.219,1.07,0.219c0.516,0,0.974-0.104,1.375-0.312
		c0.401-0.207,0.734-0.484,1-0.828l0.883,0.688c-0.141,0.215-0.316,0.418-0.527,0.613s-0.455,0.369-0.73,0.52
		c-0.276,0.152-0.589,0.273-0.938,0.363C428.839,402.451,428.459,402.496,428.048,402.496z M427.86,394.918
		c-0.292,0-0.568,0.055-0.828,0.16c-0.261,0.107-0.495,0.264-0.703,0.469c-0.208,0.207-0.384,0.459-0.527,0.758
		c-0.144,0.301-0.244,0.645-0.301,1.035h4.547v-0.109c-0.016-0.281-0.069-0.559-0.16-0.836c-0.091-0.275-0.226-0.523-0.402-0.742
		c-0.177-0.219-0.4-0.395-0.668-0.531C428.549,394.986,428.23,394.918,427.86,394.918z"/>
	<path d="M439.454,393.73c0.135,0,0.276,0.004,0.422,0.012c0.146,0.008,0.285,0.021,0.418,0.039c0.133,0.02,0.255,0.041,0.367,0.066
		c0.112,0.027,0.204,0.055,0.277,0.086l-0.195,1.414c-0.281-0.062-0.548-0.107-0.801-0.137c-0.253-0.027-0.517-0.043-0.793-0.043
		c-0.677,0-1.226,0.154-1.645,0.461c-0.419,0.309-0.728,0.738-0.926,1.289v5.422h-1.453v-8.453h1.375l0.07,1.344
		c0.344-0.463,0.756-0.828,1.238-1.098C438.291,393.865,438.839,393.73,439.454,393.73z"/>
	<path d="M453.345,393.887h4.32v7.203h2.758v1.25h-7.078v-1.25h2.875v-5.945h-2.875V393.887z M456.032,391.668
		c0-0.238,0.071-0.441,0.215-0.605c0.143-0.164,0.36-0.246,0.652-0.246c0.286,0,0.502,0.082,0.648,0.246
		c0.146,0.164,0.219,0.367,0.219,0.605c0,0.234-0.073,0.43-0.219,0.586c-0.146,0.156-0.362,0.234-0.648,0.234
		c-0.292,0-0.509-0.078-0.652-0.234C456.104,392.098,456.032,391.902,456.032,391.668z"/>
	<path d="M464.017,393.887l0.102,1.25c0.307-0.438,0.685-0.779,1.133-1.027c0.448-0.246,0.948-0.373,1.5-0.379
		c0.442,0,0.845,0.062,1.207,0.188c0.362,0.125,0.67,0.32,0.926,0.586c0.255,0.266,0.452,0.604,0.59,1.012
		c0.138,0.41,0.207,0.895,0.207,1.457v5.367h-1.445v-5.336c0-0.375-0.042-0.691-0.125-0.953c-0.083-0.26-0.207-0.471-0.371-0.633
		c-0.164-0.16-0.365-0.277-0.602-0.352c-0.237-0.072-0.509-0.109-0.816-0.109c-0.484,0-0.91,0.121-1.277,0.363
		s-0.66,0.562-0.879,0.957v6.062h-1.445v-8.453H464.017z"/>
	<path d="M475.743,391.84v2.047h3.219v1.117h-3.219v4.594c0,0.328,0.042,0.6,0.125,0.812c0.083,0.215,0.198,0.385,0.344,0.512
		c0.146,0.129,0.313,0.219,0.504,0.27c0.19,0.053,0.392,0.078,0.605,0.078c0.156,0,0.317-0.008,0.484-0.027
		c0.167-0.018,0.329-0.039,0.488-0.066c0.159-0.025,0.307-0.053,0.445-0.082c0.138-0.027,0.251-0.053,0.34-0.074l0.203,1.023
		c-0.12,0.074-0.266,0.137-0.438,0.191s-0.359,0.102-0.562,0.141s-0.418,0.069-0.645,0.09c-0.227,0.021-0.452,0.031-0.676,0.031
		c-0.375,0-0.726-0.053-1.051-0.16c-0.326-0.105-0.608-0.275-0.848-0.508c-0.24-0.23-0.429-0.531-0.566-0.898
		c-0.138-0.367-0.207-0.811-0.207-1.332v-4.594h-2.219v-1.117h2.219v-2.047H475.743z"/>
	<path d="M485.657,402.496c-0.594,0-1.14-0.102-1.637-0.305c-0.498-0.203-0.923-0.486-1.277-0.852
		c-0.354-0.363-0.63-0.797-0.828-1.297c-0.198-0.5-0.297-1.043-0.297-1.633v-0.328c0-0.682,0.109-1.293,0.328-1.832
		s0.509-0.994,0.871-1.367c0.362-0.371,0.773-0.656,1.234-0.855c0.461-0.197,0.934-0.297,1.418-0.297
		c0.609,0,1.142,0.105,1.598,0.316c0.456,0.211,0.834,0.504,1.137,0.875c0.302,0.373,0.527,0.812,0.676,1.316
		c0.148,0.506,0.223,1.053,0.223,1.641v0.648h-6.039c0.016,0.387,0.09,0.748,0.223,1.086c0.133,0.34,0.315,0.635,0.547,0.887
		c0.231,0.254,0.509,0.453,0.832,0.598c0.323,0.146,0.68,0.219,1.07,0.219c0.516,0,0.974-0.104,1.375-0.312
		c0.401-0.207,0.734-0.484,1-0.828l0.883,0.688c-0.141,0.215-0.316,0.418-0.527,0.613s-0.455,0.369-0.73,0.52
		c-0.276,0.152-0.589,0.273-0.938,0.363C486.449,402.451,486.068,402.496,485.657,402.496z M485.47,394.918
		c-0.292,0-0.568,0.055-0.828,0.16c-0.261,0.107-0.495,0.264-0.703,0.469c-0.208,0.207-0.384,0.459-0.527,0.758
		c-0.144,0.301-0.244,0.645-0.301,1.035h4.547v-0.109c-0.016-0.281-0.069-0.559-0.16-0.836c-0.091-0.275-0.226-0.523-0.402-0.742
		c-0.177-0.219-0.4-0.395-0.668-0.531C486.158,394.986,485.839,394.918,485.47,394.918z"/>
	<path d="M497.063,393.73c0.135,0,0.276,0.004,0.422,0.012c0.146,0.008,0.285,0.021,0.418,0.039c0.133,0.02,0.255,0.041,0.367,0.066
		c0.112,0.027,0.204,0.055,0.277,0.086l-0.195,1.414c-0.281-0.062-0.548-0.107-0.801-0.137c-0.253-0.027-0.517-0.043-0.793-0.043
		c-0.677,0-1.226,0.154-1.645,0.461c-0.419,0.309-0.728,0.738-0.926,1.289v5.422h-1.453v-8.453h1.375l0.07,1.344
		c0.344-0.463,0.756-0.828,1.238-1.098C495.9,393.865,496.449,393.73,497.063,393.73z"/>
	<path d="M504.438,400.262l0.133,0.523l0.141-0.523l2.367-6.375h1.477l-3.445,8.453h-1.102l-3.477-8.453h1.484L504.438,400.262z"/>
	<path d="M516.282,402.34c-0.058-0.109-0.103-0.246-0.137-0.41c-0.034-0.164-0.059-0.334-0.074-0.512
		c-0.146,0.146-0.309,0.285-0.488,0.414c-0.18,0.131-0.378,0.246-0.594,0.344c-0.216,0.1-0.447,0.178-0.691,0.234
		c-0.245,0.058-0.505,0.086-0.781,0.086c-0.448,0-0.853-0.064-1.215-0.195c-0.362-0.129-0.669-0.305-0.922-0.527
		c-0.253-0.221-0.448-0.484-0.586-0.789c-0.138-0.305-0.207-0.633-0.207-0.988c0-0.463,0.092-0.869,0.277-1.219
		c0.185-0.348,0.446-0.639,0.785-0.871c0.338-0.23,0.746-0.404,1.223-0.52c0.477-0.113,1.009-0.172,1.598-0.172h1.578v-0.664
		c0-0.254-0.047-0.484-0.141-0.688s-0.227-0.375-0.398-0.52c-0.172-0.143-0.382-0.254-0.629-0.332
		c-0.248-0.078-0.525-0.117-0.832-0.117c-0.287,0-0.543,0.037-0.77,0.109c-0.227,0.074-0.418,0.17-0.574,0.289
		c-0.156,0.121-0.277,0.262-0.363,0.426s-0.129,0.336-0.129,0.512h-1.453c0.005-0.307,0.084-0.609,0.238-0.906
		c0.153-0.297,0.375-0.562,0.664-0.801c0.289-0.236,0.641-0.428,1.055-0.574c0.414-0.145,0.884-0.219,1.41-0.219
		c0.479,0,0.924,0.059,1.336,0.176c0.411,0.117,0.767,0.295,1.066,0.531c0.299,0.238,0.535,0.533,0.707,0.887
		c0.172,0.355,0.258,0.77,0.258,1.242v3.93c0,0.281,0.026,0.58,0.078,0.895c0.052,0.316,0.125,0.59,0.219,0.824v0.125H516.282z
		 M513.728,401.238c0.281,0,0.544-0.035,0.789-0.109c0.245-0.072,0.467-0.168,0.668-0.289c0.2-0.119,0.374-0.256,0.52-0.41
		c0.146-0.152,0.26-0.312,0.344-0.48v-1.711h-1.344c-0.844,0-1.5,0.125-1.969,0.375s-0.703,0.645-0.703,1.18
		c0,0.209,0.035,0.402,0.105,0.578c0.07,0.178,0.176,0.33,0.316,0.457c0.141,0.129,0.317,0.229,0.531,0.301
		C513.199,401.203,513.446,401.238,513.728,401.238z"/>
	<path d="M520.556,390.34h4.32v10.75h2.758v1.25h-7.078v-1.25h2.875v-9.492h-2.875V390.34z"/>
	<path d="M532.837,394.559c0-0.156,0.024-0.301,0.074-0.438c0.049-0.135,0.121-0.254,0.215-0.355s0.211-0.18,0.352-0.238
		c0.141-0.057,0.305-0.086,0.492-0.086s0.353,0.029,0.496,0.086c0.143,0.059,0.263,0.137,0.359,0.238
		c0.096,0.102,0.169,0.221,0.219,0.355c0.049,0.137,0.074,0.281,0.074,0.438c0,0.152-0.025,0.293-0.074,0.426
		c-0.05,0.133-0.123,0.25-0.219,0.348c-0.097,0.1-0.216,0.176-0.359,0.23c-0.144,0.055-0.309,0.082-0.496,0.082
		s-0.352-0.027-0.492-0.082s-0.258-0.131-0.352-0.23c-0.094-0.098-0.166-0.215-0.215-0.348
		C532.861,394.852,532.837,394.711,532.837,394.559z M532.837,401.402c0-0.156,0.024-0.301,0.074-0.438
		c0.049-0.135,0.121-0.254,0.215-0.355s0.211-0.18,0.352-0.238c0.141-0.057,0.305-0.086,0.492-0.086s0.353,0.029,0.496,0.086
		c0.143,0.059,0.263,0.137,0.359,0.238c0.096,0.102,0.169,0.221,0.219,0.355c0.049,0.137,0.074,0.281,0.074,0.438
		c0,0.152-0.025,0.293-0.074,0.426c-0.05,0.133-0.123,0.25-0.219,0.348c-0.097,0.1-0.216,0.176-0.359,0.23
		c-0.144,0.055-0.309,0.082-0.496,0.082s-0.352-0.027-0.492-0.082s-0.258-0.131-0.352-0.23c-0.094-0.098-0.166-0.215-0.215-0.348
		C532.861,401.695,532.837,401.555,532.837,401.402z"/>
</g>
<g>
	<g>
		<path d="M400.696,430.922c0-0.13-0.03-0.244-0.09-0.344c-0.06-0.099-0.167-0.191-0.32-0.277c-0.154-0.086-0.358-0.165-0.613-0.238
			c-0.255-0.072-0.578-0.146-0.969-0.219c-0.495-0.099-0.947-0.223-1.355-0.371c-0.409-0.148-0.759-0.328-1.051-0.539
			c-0.292-0.211-0.52-0.454-0.684-0.73c-0.164-0.275-0.246-0.594-0.246-0.953c0-0.349,0.083-0.682,0.25-1
			c0.167-0.317,0.406-0.596,0.719-0.836c0.312-0.239,0.692-0.43,1.141-0.57c0.448-0.141,0.953-0.211,1.516-0.211
			c0.588,0,1.117,0.069,1.586,0.207c0.469,0.139,0.866,0.328,1.191,0.57c0.325,0.242,0.574,0.53,0.746,0.863
			c0.172,0.334,0.258,0.695,0.258,1.086h-2.172c0-0.328-0.133-0.603-0.398-0.824c-0.266-0.221-0.669-0.332-1.211-0.332
			c-0.505,0-0.887,0.092-1.145,0.273c-0.258,0.183-0.387,0.406-0.387,0.672c0,0.125,0.026,0.241,0.078,0.348
			c0.052,0.107,0.145,0.203,0.277,0.289s0.313,0.164,0.543,0.234c0.229,0.07,0.521,0.132,0.875,0.184
			c0.51,0.084,0.984,0.19,1.422,0.32c0.438,0.131,0.815,0.299,1.133,0.504c0.317,0.206,0.566,0.456,0.746,0.75
			c0.18,0.295,0.27,0.645,0.27,1.051c0,0.375-0.09,0.721-0.27,1.035c-0.18,0.315-0.435,0.588-0.766,0.816
			c-0.331,0.229-0.73,0.408-1.199,0.535s-0.992,0.191-1.57,0.191c-0.636,0-1.197-0.084-1.684-0.25
			c-0.487-0.166-0.895-0.384-1.223-0.652c-0.328-0.268-0.577-0.572-0.746-0.914c-0.169-0.341-0.254-0.684-0.254-1.027h2.07
			c0.016,0.229,0.078,0.426,0.188,0.59s0.25,0.297,0.422,0.398s0.368,0.176,0.59,0.223c0.221,0.047,0.449,0.07,0.684,0.07
			c0.536,0,0.945-0.086,1.227-0.258S400.696,431.193,400.696,430.922z"/>
		<path d="M408.946,433.398c-0.651,0-1.242-0.107-1.773-0.32s-0.987-0.504-1.367-0.871c-0.38-0.367-0.673-0.799-0.879-1.297
			c-0.206-0.497-0.309-1.029-0.309-1.598V429c0-0.646,0.102-1.235,0.305-1.77c0.203-0.533,0.487-0.993,0.852-1.379
			c0.364-0.385,0.797-0.685,1.297-0.898c0.5-0.213,1.044-0.32,1.633-0.32c0.609,0,1.152,0.101,1.629,0.301
			c0.477,0.201,0.88,0.483,1.211,0.848c0.331,0.365,0.582,0.804,0.754,1.316c0.172,0.514,0.258,1.08,0.258,1.699v0.922h-5.734
			c0.042,0.287,0.126,0.549,0.254,0.785c0.127,0.237,0.29,0.441,0.488,0.613c0.198,0.172,0.424,0.305,0.68,0.398
			c0.255,0.094,0.534,0.141,0.836,0.141c0.213,0,0.426-0.021,0.637-0.062c0.211-0.041,0.413-0.103,0.605-0.184
			c0.192-0.08,0.372-0.181,0.539-0.301c0.167-0.119,0.312-0.26,0.438-0.422l1.086,1.172c-0.136,0.193-0.312,0.382-0.527,0.566
			c-0.216,0.186-0.472,0.35-0.766,0.492c-0.294,0.144-0.621,0.26-0.98,0.348S409.363,433.398,408.946,433.398z M408.688,426.391
			c-0.245,0-0.469,0.043-0.672,0.129s-0.382,0.21-0.535,0.371c-0.154,0.162-0.283,0.354-0.387,0.578
			c-0.104,0.225-0.183,0.475-0.234,0.75h3.562v-0.172c-0.011-0.229-0.055-0.445-0.133-0.648s-0.19-0.379-0.336-0.527
			c-0.146-0.148-0.324-0.266-0.535-0.352S408.964,426.391,408.688,426.391z"/>
		<path d="M416.415,424.789l0.133,1.172c0.302-0.422,0.669-0.748,1.102-0.98c0.432-0.231,0.911-0.348,1.438-0.348
			c0.427,0,0.817,0.062,1.172,0.188c0.354,0.125,0.66,0.324,0.918,0.598s0.458,0.625,0.602,1.055
			c0.143,0.43,0.215,0.952,0.215,1.566v5.203h-2.172v-5.172c0-0.333-0.038-0.607-0.113-0.824c-0.076-0.216-0.184-0.387-0.324-0.512
			s-0.31-0.212-0.508-0.262c-0.198-0.049-0.422-0.074-0.672-0.074c-0.37,0-0.685,0.074-0.945,0.223
			c-0.261,0.148-0.472,0.354-0.633,0.613v6.008h-2.18v-8.453H416.415z"/>
		<path d="M423.821,428.953c0-0.641,0.074-1.227,0.223-1.758s0.366-0.986,0.652-1.367c0.286-0.38,0.634-0.674,1.043-0.883
			c0.409-0.208,0.876-0.312,1.402-0.312c0.442,0,0.832,0.08,1.168,0.238c0.336,0.159,0.634,0.385,0.895,0.676v-4.305h2.18v12h-1.961
			l-0.109-0.883c-0.266,0.328-0.578,0.584-0.938,0.766s-0.776,0.273-1.25,0.273c-0.516,0-0.978-0.108-1.387-0.324
			c-0.409-0.216-0.755-0.514-1.039-0.895c-0.284-0.38-0.501-0.832-0.652-1.355c-0.151-0.523-0.227-1.092-0.227-1.707V428.953z
			 M425.993,429.117c0,0.354,0.03,0.684,0.09,0.988c0.06,0.305,0.157,0.57,0.293,0.797c0.135,0.227,0.31,0.405,0.523,0.535
			c0.213,0.131,0.474,0.195,0.781,0.195c0.375,0,0.686-0.08,0.934-0.242c0.247-0.161,0.444-0.383,0.59-0.664v-3.422
			c-0.146-0.286-0.341-0.509-0.586-0.668c-0.245-0.158-0.552-0.238-0.922-0.238c-0.308,0-0.569,0.066-0.785,0.199
			c-0.216,0.133-0.392,0.315-0.527,0.547c-0.136,0.232-0.234,0.503-0.297,0.812c-0.062,0.311-0.094,0.643-0.094,0.996V429.117z"/>
		<path d="M435.243,428.617c0-0.734,0.056-1.426,0.168-2.074c0.112-0.648,0.264-1.247,0.457-1.797
			c0.192-0.549,0.418-1.051,0.676-1.504s0.53-0.854,0.816-1.203c0.286-0.349,0.582-0.645,0.887-0.887s0.6-0.428,0.887-0.559
			l0.422,1.188c-0.292,0.225-0.583,0.525-0.875,0.902c-0.292,0.378-0.554,0.847-0.785,1.406c-0.232,0.561-0.421,1.213-0.566,1.957
			c-0.146,0.745-0.219,1.597-0.219,2.555v0.203c0,0.964,0.073,1.818,0.219,2.562c0.146,0.745,0.334,1.397,0.566,1.957
			c0.231,0.56,0.493,1.029,0.785,1.41c0.292,0.38,0.583,0.682,0.875,0.906l-0.422,1.172c-0.287-0.131-0.582-0.318-0.887-0.562
			c-0.305-0.245-0.601-0.541-0.887-0.887c-0.287-0.347-0.559-0.746-0.816-1.199s-0.483-0.954-0.676-1.504
			c-0.193-0.549-0.345-1.146-0.457-1.793c-0.112-0.646-0.168-1.338-0.168-2.078V428.617z"/>
		<path d="M445.509,429.07v4.172h-2.195v-11.375h3.891c0.62,0,1.18,0.09,1.68,0.27s0.926,0.43,1.277,0.75s0.622,0.705,0.812,1.152
			c0.19,0.448,0.285,0.945,0.285,1.492c0,0.511-0.095,0.982-0.285,1.414c-0.19,0.433-0.461,0.807-0.812,1.121
			c-0.352,0.315-0.777,0.562-1.277,0.738c-0.5,0.178-1.06,0.266-1.68,0.266H445.509z M445.509,427.289h1.695
			c0.312,0,0.583-0.047,0.812-0.141c0.229-0.094,0.42-0.221,0.574-0.383c0.153-0.161,0.268-0.348,0.344-0.559
			c0.075-0.211,0.113-0.431,0.113-0.66c0-0.266-0.038-0.513-0.113-0.742c-0.076-0.229-0.19-0.43-0.344-0.602
			c-0.154-0.172-0.345-0.307-0.574-0.406c-0.229-0.099-0.5-0.148-0.812-0.148h-1.695V427.289z"/>
		<path d="M453.259,421.867h6.578v1.773h-2.219v7.836h2.219v1.766h-6.578v-1.766h2.164v-7.836h-2.164V421.867z"/>
		<path d="M469.876,433.242h-2.188l-3.164-7.336v7.336h-2.211v-11.375h2.211l3.141,7.305l0.008-7.305h2.203V433.242z"/>
		<path d="M479.798,431.914c-0.141,0.172-0.333,0.347-0.578,0.523c-0.245,0.178-0.535,0.338-0.871,0.48
			c-0.336,0.144-0.712,0.26-1.129,0.348c-0.417,0.088-0.865,0.133-1.344,0.133c-0.646,0-1.229-0.115-1.75-0.344
			c-0.521-0.229-0.966-0.56-1.336-0.992c-0.37-0.432-0.655-0.962-0.855-1.59c-0.201-0.627-0.301-1.34-0.301-2.137v-1.547
			c0-0.797,0.105-1.509,0.316-2.137c0.211-0.627,0.502-1.16,0.875-1.598c0.372-0.438,0.81-0.771,1.312-1
			c0.502-0.229,1.048-0.344,1.637-0.344c0.641,0,1.199,0.081,1.676,0.242c0.477,0.162,0.879,0.395,1.207,0.699
			s0.584,0.676,0.77,1.113c0.185,0.438,0.306,0.93,0.363,1.477h-2.141c-0.073-0.583-0.249-1.021-0.527-1.316
			c-0.279-0.294-0.71-0.441-1.293-0.441c-0.281,0-0.542,0.072-0.781,0.215c-0.24,0.144-0.448,0.354-0.625,0.629
			c-0.177,0.276-0.318,0.619-0.422,1.027c-0.104,0.409-0.156,0.882-0.156,1.418v1.562c0.005,1.062,0.182,1.877,0.531,2.441
			c0.349,0.565,0.883,0.851,1.602,0.855c0.172,0,0.341-0.013,0.508-0.039c0.167-0.025,0.323-0.062,0.469-0.109
			c0.146-0.047,0.274-0.1,0.387-0.16c0.112-0.06,0.196-0.123,0.254-0.191l0.008-2.062h-1.883v-1.641h4.07L479.798,431.914z"/>
		<path d="M487.438,428.789c0,0.714-0.058,1.39-0.172,2.027c-0.115,0.639-0.271,1.233-0.469,1.785
			c-0.198,0.553-0.429,1.056-0.691,1.512c-0.263,0.455-0.543,0.861-0.84,1.219c-0.297,0.356-0.602,0.66-0.914,0.91
			s-0.617,0.439-0.914,0.57l-0.414-1.172c0.286-0.219,0.575-0.519,0.867-0.898c0.292-0.381,0.555-0.85,0.789-1.406
			s0.424-1.211,0.57-1.961c0.146-0.75,0.219-1.606,0.219-2.57v-0.203c0-0.958-0.076-1.812-0.227-2.562
			c-0.151-0.75-0.344-1.406-0.578-1.969s-0.496-1.033-0.785-1.414c-0.289-0.38-0.574-0.68-0.855-0.898l0.414-1.164
			c0.297,0.131,0.602,0.32,0.914,0.57s0.617,0.554,0.914,0.91c0.297,0.357,0.577,0.764,0.84,1.219
			c0.263,0.456,0.493,0.96,0.691,1.512c0.198,0.553,0.354,1.147,0.469,1.785c0.114,0.639,0.172,1.314,0.172,2.027V428.789z"/>
	</g>
</g>
<g>
	<g>
		<path d="M401.363,327.479c0-0.13-0.03-0.245-0.09-0.344c-0.06-0.099-0.167-0.191-0.32-0.277c-0.154-0.086-0.358-0.165-0.613-0.238
			c-0.255-0.073-0.578-0.146-0.969-0.219c-0.495-0.099-0.947-0.223-1.355-0.371c-0.409-0.148-0.759-0.328-1.051-0.539
			c-0.292-0.211-0.52-0.454-0.684-0.73c-0.164-0.276-0.246-0.594-0.246-0.953c0-0.349,0.083-0.682,0.25-1
			c0.167-0.317,0.406-0.596,0.719-0.836c0.312-0.239,0.692-0.43,1.141-0.57c0.448-0.141,0.953-0.211,1.516-0.211
			c0.588,0,1.117,0.069,1.586,0.207c0.469,0.138,0.866,0.328,1.191,0.57c0.325,0.242,0.574,0.53,0.746,0.863
			c0.172,0.333,0.258,0.695,0.258,1.086h-2.172c0-0.328-0.133-0.603-0.398-0.824c-0.266-0.221-0.669-0.332-1.211-0.332
			c-0.505,0-0.887,0.091-1.145,0.273c-0.258,0.183-0.387,0.406-0.387,0.672c0,0.125,0.026,0.241,0.078,0.348
			c0.052,0.107,0.145,0.203,0.277,0.289s0.313,0.164,0.543,0.234c0.229,0.07,0.521,0.132,0.875,0.184
			c0.51,0.083,0.984,0.19,1.422,0.32c0.438,0.13,0.815,0.298,1.133,0.504c0.317,0.206,0.566,0.456,0.746,0.75
			c0.18,0.294,0.27,0.645,0.27,1.051c0,0.375-0.09,0.72-0.27,1.035c-0.18,0.315-0.435,0.587-0.766,0.816
			c-0.331,0.229-0.73,0.408-1.199,0.535s-0.992,0.191-1.57,0.191c-0.636,0-1.197-0.083-1.684-0.25
			c-0.487-0.167-0.895-0.384-1.223-0.652c-0.328-0.268-0.577-0.573-0.746-0.914c-0.169-0.341-0.254-0.684-0.254-1.027h2.07
			c0.016,0.229,0.078,0.426,0.188,0.59s0.25,0.297,0.422,0.398s0.368,0.176,0.59,0.223c0.221,0.047,0.449,0.07,0.684,0.07
			c0.536,0,0.945-0.086,1.227-0.258S401.363,327.75,401.363,327.479z"/>
		<path d="M409.613,329.956c-0.651,0-1.242-0.107-1.773-0.32s-0.987-0.504-1.367-0.871c-0.38-0.367-0.673-0.799-0.879-1.297
			c-0.206-0.497-0.309-1.03-0.309-1.598v-0.312c0-0.646,0.102-1.235,0.305-1.77c0.203-0.534,0.487-0.993,0.852-1.379
			c0.364-0.385,0.797-0.685,1.297-0.898c0.5-0.213,1.044-0.32,1.633-0.32c0.609,0,1.152,0.101,1.629,0.301
			c0.477,0.201,0.88,0.483,1.211,0.848c0.331,0.365,0.582,0.804,0.754,1.316c0.172,0.513,0.258,1.08,0.258,1.699v0.922h-5.734
			c0.042,0.287,0.126,0.548,0.254,0.785c0.127,0.237,0.29,0.441,0.488,0.613c0.198,0.172,0.424,0.305,0.68,0.398
			c0.255,0.094,0.534,0.141,0.836,0.141c0.213,0,0.426-0.021,0.637-0.062c0.211-0.042,0.413-0.103,0.605-0.184
			c0.192-0.081,0.372-0.181,0.539-0.301c0.167-0.12,0.312-0.26,0.438-0.422l1.086,1.172c-0.136,0.193-0.312,0.382-0.527,0.566
			c-0.216,0.185-0.472,0.349-0.766,0.492c-0.294,0.144-0.621,0.259-0.98,0.348S410.03,329.956,409.613,329.956z M409.355,322.948
			c-0.245,0-0.469,0.043-0.672,0.129s-0.382,0.21-0.535,0.371c-0.154,0.162-0.283,0.354-0.387,0.578
			c-0.104,0.224-0.183,0.474-0.234,0.75h3.562v-0.172c-0.011-0.229-0.055-0.445-0.133-0.648s-0.19-0.379-0.336-0.527
			c-0.146-0.148-0.324-0.266-0.535-0.352S409.631,322.948,409.355,322.948z"/>
		<path d="M417.082,321.346l0.133,1.172c0.302-0.422,0.669-0.749,1.102-0.98c0.432-0.231,0.911-0.348,1.438-0.348
			c0.427,0,0.817,0.062,1.172,0.188c0.354,0.125,0.66,0.324,0.918,0.598s0.458,0.625,0.602,1.055
			c0.143,0.43,0.215,0.952,0.215,1.566v5.203h-2.172v-5.172c0-0.333-0.038-0.608-0.113-0.824c-0.076-0.216-0.184-0.387-0.324-0.512
			s-0.31-0.212-0.508-0.262c-0.198-0.049-0.422-0.074-0.672-0.074c-0.37,0-0.685,0.074-0.945,0.223
			c-0.261,0.148-0.472,0.353-0.633,0.613v6.008h-2.18v-8.453H417.082z"/>
		<path d="M424.488,325.51c0-0.641,0.074-1.227,0.223-1.758s0.366-0.987,0.652-1.367c0.286-0.38,0.634-0.674,1.043-0.883
			c0.409-0.208,0.876-0.312,1.402-0.312c0.442,0,0.832,0.08,1.168,0.238c0.336,0.159,0.634,0.384,0.895,0.676v-4.305h2.18v12h-1.961
			l-0.109-0.883c-0.266,0.328-0.578,0.583-0.938,0.766s-0.776,0.273-1.25,0.273c-0.516,0-0.978-0.108-1.387-0.324
			c-0.409-0.216-0.755-0.514-1.039-0.895c-0.284-0.38-0.501-0.832-0.652-1.355c-0.151-0.523-0.227-1.092-0.227-1.707V325.51z
			 M426.66,325.674c0,0.354,0.03,0.684,0.09,0.988c0.06,0.305,0.157,0.57,0.293,0.797c0.135,0.227,0.31,0.405,0.523,0.535
			c0.213,0.13,0.474,0.195,0.781,0.195c0.375,0,0.686-0.081,0.934-0.242c0.247-0.161,0.444-0.383,0.59-0.664v-3.422
			c-0.146-0.286-0.341-0.509-0.586-0.668c-0.245-0.159-0.552-0.238-0.922-0.238c-0.308,0-0.569,0.066-0.785,0.199
			c-0.216,0.133-0.392,0.315-0.527,0.547c-0.136,0.232-0.234,0.503-0.297,0.812c-0.062,0.31-0.094,0.642-0.094,0.996V325.674z"/>
		<path d="M435.91,325.174c0-0.734,0.056-1.426,0.168-2.074c0.112-0.648,0.264-1.247,0.457-1.797
			c0.192-0.549,0.418-1.051,0.676-1.504s0.53-0.854,0.816-1.203c0.286-0.349,0.582-0.645,0.887-0.887s0.6-0.428,0.887-0.559
			l0.422,1.188c-0.292,0.224-0.583,0.525-0.875,0.902c-0.292,0.378-0.554,0.847-0.785,1.406c-0.232,0.56-0.421,1.212-0.566,1.957
			c-0.146,0.745-0.219,1.597-0.219,2.555v0.203c0,0.964,0.073,1.818,0.219,2.562c0.146,0.745,0.334,1.397,0.566,1.957
			c0.231,0.56,0.493,1.03,0.785,1.41c0.292,0.38,0.583,0.682,0.875,0.906l-0.422,1.172c-0.287-0.13-0.582-0.318-0.887-0.562
			c-0.305-0.245-0.601-0.541-0.887-0.887c-0.287-0.347-0.559-0.746-0.816-1.199s-0.483-0.954-0.676-1.504
			c-0.193-0.549-0.345-1.147-0.457-1.793c-0.112-0.646-0.168-1.338-0.168-2.078V325.174z"/>
		<path d="M446.176,325.627v4.172h-2.195v-11.375h3.891c0.62,0,1.18,0.09,1.68,0.27s0.926,0.43,1.277,0.75s0.622,0.705,0.812,1.152
			c0.19,0.448,0.285,0.945,0.285,1.492c0,0.511-0.095,0.982-0.285,1.414c-0.19,0.433-0.461,0.806-0.812,1.121
			c-0.352,0.315-0.777,0.562-1.277,0.738c-0.5,0.177-1.06,0.266-1.68,0.266H446.176z M446.176,323.846h1.695
			c0.312,0,0.583-0.047,0.812-0.141c0.229-0.094,0.42-0.221,0.574-0.383c0.153-0.161,0.268-0.348,0.344-0.559
			c0.075-0.211,0.113-0.431,0.113-0.66c0-0.266-0.038-0.513-0.113-0.742c-0.076-0.229-0.19-0.43-0.344-0.602
			c-0.154-0.172-0.345-0.307-0.574-0.406c-0.229-0.099-0.5-0.148-0.812-0.148h-1.695V323.846z"/>
		<path d="M461.379,324.948c0,0.729-0.097,1.401-0.289,2.016c-0.193,0.615-0.472,1.144-0.836,1.586
			c-0.365,0.443-0.809,0.788-1.332,1.035s-1.113,0.371-1.77,0.371s-1.24-0.124-1.75-0.371c-0.511-0.247-0.94-0.594-1.289-1.039
			c-0.349-0.445-0.615-0.974-0.797-1.586c-0.183-0.612-0.273-1.282-0.273-2.012v-1.656c0-0.729,0.091-1.401,0.273-2.016
			c0.182-0.614,0.448-1.145,0.797-1.59c0.349-0.445,0.777-0.793,1.285-1.043s1.09-0.375,1.746-0.375
			c0.661,0,1.254,0.125,1.777,0.375s0.967,0.598,1.332,1.043c0.364,0.445,0.643,0.976,0.836,1.59
			c0.192,0.615,0.289,1.287,0.289,2.016V324.948z M459.152,323.276c0-0.463-0.038-0.891-0.113-1.281
			c-0.076-0.391-0.194-0.727-0.355-1.008c-0.162-0.281-0.369-0.501-0.621-0.66c-0.253-0.159-0.559-0.238-0.918-0.238
			c-0.354,0-0.651,0.08-0.891,0.238c-0.24,0.159-0.433,0.379-0.578,0.66c-0.146,0.281-0.25,0.617-0.312,1.008
			s-0.094,0.818-0.094,1.281v1.672c0,0.458,0.031,0.883,0.094,1.273s0.167,0.729,0.312,1.016c0.146,0.287,0.338,0.511,0.578,0.672
			c0.239,0.162,0.539,0.242,0.898,0.242c0.354,0,0.657-0.081,0.91-0.242c0.252-0.161,0.458-0.384,0.617-0.668
			c0.159-0.284,0.277-0.621,0.355-1.012s0.117-0.817,0.117-1.281V323.276z"/>
		<path d="M470.543,329.799h-2.188l-3.164-7.336v7.336h-2.211v-11.375h2.211l3.141,7.305l0.008-7.305h2.203V329.799z"/>
		<path d="M480.465,328.471c-0.141,0.172-0.333,0.347-0.578,0.523c-0.245,0.177-0.535,0.337-0.871,0.48
			c-0.336,0.144-0.712,0.259-1.129,0.348c-0.417,0.088-0.865,0.133-1.344,0.133c-0.646,0-1.229-0.115-1.75-0.344
			c-0.521-0.229-0.966-0.56-1.336-0.992c-0.37-0.432-0.655-0.962-0.855-1.59c-0.201-0.627-0.301-1.34-0.301-2.137v-1.547
			c0-0.797,0.105-1.509,0.316-2.137c0.211-0.627,0.502-1.16,0.875-1.598c0.372-0.438,0.81-0.771,1.312-1
			c0.502-0.229,1.048-0.344,1.637-0.344c0.641,0,1.199,0.081,1.676,0.242c0.477,0.162,0.879,0.395,1.207,0.699
			s0.584,0.676,0.77,1.113c0.185,0.438,0.306,0.93,0.363,1.477h-2.141c-0.073-0.583-0.249-1.022-0.527-1.316
			c-0.279-0.294-0.71-0.441-1.293-0.441c-0.281,0-0.542,0.072-0.781,0.215c-0.24,0.144-0.448,0.353-0.625,0.629
			c-0.177,0.276-0.318,0.619-0.422,1.027c-0.104,0.409-0.156,0.882-0.156,1.418v1.562c0.005,1.062,0.182,1.876,0.531,2.441
			c0.349,0.565,0.883,0.851,1.602,0.855c0.172,0,0.341-0.013,0.508-0.039c0.167-0.026,0.323-0.062,0.469-0.109
			c0.146-0.047,0.274-0.1,0.387-0.16c0.112-0.06,0.196-0.124,0.254-0.191l0.008-2.062h-1.883v-1.641h4.07L480.465,328.471z"/>
		<path d="M488.105,325.346c0,0.714-0.058,1.39-0.172,2.027c-0.115,0.638-0.271,1.233-0.469,1.785
			c-0.198,0.552-0.429,1.056-0.691,1.512c-0.263,0.456-0.543,0.862-0.84,1.219c-0.297,0.356-0.602,0.66-0.914,0.91
			s-0.617,0.44-0.914,0.57l-0.414-1.172c0.286-0.219,0.575-0.519,0.867-0.898c0.292-0.38,0.555-0.849,0.789-1.406
			s0.424-1.211,0.57-1.961c0.146-0.75,0.219-1.606,0.219-2.57v-0.203c0-0.958-0.076-1.812-0.227-2.562
			c-0.151-0.75-0.344-1.406-0.578-1.969s-0.496-1.034-0.785-1.414c-0.289-0.38-0.574-0.68-0.855-0.898l0.414-1.164
			c0.297,0.13,0.602,0.32,0.914,0.57s0.617,0.554,0.914,0.91c0.297,0.357,0.577,0.763,0.84,1.219
			c0.263,0.456,0.493,0.96,0.691,1.512c0.198,0.552,0.354,1.147,0.469,1.785c0.114,0.638,0.172,1.314,0.172,2.027V325.346z"/>
	</g>
</g>
<g>
	<g>
		<path d="M87.813,374.012c0.328,0,0.631,0.022,0.91,0.066c0.278,0.044,0.504,0.093,0.676,0.145l-0.32,2.164
			c-0.287-0.067-0.58-0.118-0.879-0.152c-0.3-0.034-0.585-0.051-0.855-0.051c-0.609,0-1.098,0.117-1.465,0.352
			s-0.642,0.57-0.824,1.008v5.078h-2.172v-8.453h2.023l0.102,1.383c0.344-0.479,0.755-0.855,1.234-1.129
			C86.722,374.148,87.246,374.012,87.813,374.012z"/>
		<path d="M95.446,382.777c-0.651,0-1.242-0.107-1.773-0.32s-0.987-0.504-1.367-0.871c-0.38-0.367-0.673-0.799-0.879-1.297
			c-0.206-0.497-0.309-1.03-0.309-1.598v-0.312c0-0.646,0.102-1.235,0.305-1.77c0.203-0.534,0.487-0.993,0.852-1.379
			c0.364-0.385,0.797-0.685,1.297-0.898c0.5-0.213,1.044-0.32,1.633-0.32c0.609,0,1.152,0.101,1.629,0.301
			c0.477,0.201,0.88,0.483,1.211,0.848c0.331,0.365,0.582,0.804,0.754,1.316c0.172,0.513,0.258,1.08,0.258,1.699v0.922h-5.734
			c0.042,0.287,0.126,0.548,0.254,0.785c0.127,0.237,0.29,0.441,0.488,0.613c0.198,0.172,0.424,0.305,0.68,0.398
			c0.255,0.094,0.534,0.141,0.836,0.141c0.213,0,0.426-0.021,0.637-0.062c0.211-0.042,0.413-0.103,0.605-0.184
			c0.192-0.081,0.372-0.181,0.539-0.301c0.167-0.12,0.312-0.26,0.438-0.422l1.086,1.172c-0.136,0.193-0.312,0.382-0.527,0.566
			c-0.216,0.185-0.472,0.349-0.766,0.492c-0.294,0.144-0.621,0.259-0.98,0.348S95.863,382.777,95.446,382.777z M95.188,375.77
			c-0.245,0-0.469,0.043-0.672,0.129s-0.382,0.21-0.535,0.371c-0.154,0.162-0.283,0.354-0.387,0.578
			c-0.104,0.224-0.183,0.474-0.234,0.75h3.562v-0.172c-0.011-0.229-0.055-0.445-0.133-0.648s-0.19-0.379-0.336-0.527
			c-0.146-0.148-0.324-0.266-0.535-0.352S95.464,375.77,95.188,375.77z"/>
		<path d="M106.399,380.301c0-0.13-0.03-0.245-0.09-0.344c-0.06-0.099-0.167-0.191-0.32-0.277c-0.154-0.086-0.358-0.165-0.613-0.238
			c-0.255-0.073-0.578-0.146-0.969-0.219c-0.495-0.099-0.947-0.223-1.355-0.371c-0.409-0.148-0.759-0.328-1.051-0.539
			c-0.292-0.211-0.52-0.454-0.684-0.73c-0.164-0.276-0.246-0.594-0.246-0.953c0-0.349,0.083-0.682,0.25-1
			c0.167-0.317,0.406-0.596,0.719-0.836c0.312-0.239,0.692-0.43,1.141-0.57c0.448-0.141,0.953-0.211,1.516-0.211
			c0.588,0,1.117,0.069,1.586,0.207c0.469,0.138,0.866,0.328,1.191,0.57c0.325,0.242,0.574,0.53,0.746,0.863
			c0.172,0.333,0.258,0.695,0.258,1.086h-2.172c0-0.328-0.133-0.603-0.398-0.824c-0.266-0.221-0.669-0.332-1.211-0.332
			c-0.505,0-0.887,0.091-1.145,0.273c-0.258,0.183-0.387,0.406-0.387,0.672c0,0.125,0.026,0.241,0.078,0.348
			c0.052,0.107,0.145,0.203,0.277,0.289s0.313,0.164,0.543,0.234c0.229,0.07,0.521,0.132,0.875,0.184
			c0.51,0.083,0.984,0.19,1.422,0.32c0.438,0.13,0.815,0.298,1.133,0.504c0.317,0.206,0.566,0.456,0.746,0.75
			c0.18,0.294,0.27,0.645,0.27,1.051c0,0.375-0.09,0.72-0.27,1.035c-0.18,0.315-0.435,0.587-0.766,0.816
			c-0.331,0.229-0.73,0.408-1.199,0.535s-0.992,0.191-1.57,0.191c-0.636,0-1.197-0.083-1.684-0.25
			c-0.487-0.167-0.895-0.384-1.223-0.652c-0.328-0.268-0.577-0.573-0.746-0.914c-0.169-0.341-0.254-0.684-0.254-1.027h2.07
			c0.016,0.229,0.078,0.426,0.188,0.59s0.25,0.297,0.422,0.398s0.368,0.176,0.59,0.223c0.221,0.047,0.449,0.07,0.684,0.07
			c0.536,0,0.945-0.086,1.227-0.258S106.399,380.572,106.399,380.301z"/>
		<path d="M115.938,381.434c-0.287,0.422-0.632,0.753-1.035,0.992c-0.404,0.239-0.845,0.359-1.324,0.359
			c-0.438,0-0.839-0.068-1.203-0.203c-0.365-0.135-0.677-0.35-0.938-0.645c-0.261-0.294-0.462-0.669-0.605-1.125
			c-0.144-0.456-0.215-1.004-0.215-1.645v-5h2.172v5.016c0,0.344,0.024,0.633,0.074,0.867c0.049,0.234,0.129,0.423,0.238,0.566
			c0.109,0.144,0.252,0.246,0.43,0.309c0.177,0.062,0.393,0.094,0.648,0.094c0.432,0,0.784-0.082,1.055-0.246
			c0.271-0.164,0.477-0.389,0.617-0.676v-5.93h2.18v8.453h-1.969L115.938,381.434z"/>
		<path d="M127.767,378.48c0,0.63-0.069,1.208-0.207,1.734c-0.138,0.526-0.345,0.979-0.621,1.359
			c-0.276,0.38-0.62,0.676-1.031,0.887c-0.412,0.211-0.891,0.316-1.438,0.316c-0.495,0-0.923-0.093-1.285-0.277
			c-0.362-0.185-0.673-0.444-0.934-0.777l-0.102,0.898h-1.953v-12h2.172v4.312c0.25-0.292,0.545-0.518,0.887-0.68
			c0.341-0.161,0.741-0.242,1.199-0.242c0.552,0,1.035,0.107,1.449,0.32c0.414,0.214,0.759,0.511,1.035,0.891
			c0.276,0.38,0.483,0.835,0.621,1.363c0.138,0.529,0.207,1.105,0.207,1.73V378.48z M125.595,378.316
			c0-0.344-0.026-0.669-0.078-0.977c-0.052-0.307-0.142-0.577-0.27-0.809c-0.128-0.231-0.301-0.415-0.52-0.551
			c-0.219-0.135-0.492-0.203-0.82-0.203c-0.396,0-0.718,0.083-0.965,0.25c-0.248,0.167-0.439,0.396-0.574,0.688v3.367
			c0.135,0.292,0.327,0.521,0.574,0.688c0.247,0.167,0.574,0.25,0.98,0.25c0.328,0,0.599-0.063,0.812-0.191
			c0.213-0.127,0.384-0.305,0.512-0.531c0.127-0.227,0.217-0.495,0.27-0.805c0.052-0.31,0.078-0.647,0.078-1.012V378.316z"/>
		<path d="M135.204,380.301c0-0.13-0.03-0.245-0.09-0.344c-0.06-0.099-0.167-0.191-0.32-0.277c-0.154-0.086-0.358-0.165-0.613-0.238
			c-0.255-0.073-0.578-0.146-0.969-0.219c-0.495-0.099-0.947-0.223-1.355-0.371c-0.409-0.148-0.759-0.328-1.051-0.539
			c-0.292-0.211-0.52-0.454-0.684-0.73c-0.164-0.276-0.246-0.594-0.246-0.953c0-0.349,0.083-0.682,0.25-1
			c0.167-0.317,0.406-0.596,0.719-0.836c0.312-0.239,0.692-0.43,1.141-0.57c0.448-0.141,0.953-0.211,1.516-0.211
			c0.588,0,1.117,0.069,1.586,0.207c0.469,0.138,0.866,0.328,1.191,0.57c0.325,0.242,0.574,0.53,0.746,0.863
			c0.172,0.333,0.258,0.695,0.258,1.086h-2.172c0-0.328-0.133-0.603-0.398-0.824c-0.266-0.221-0.669-0.332-1.211-0.332
			c-0.505,0-0.887,0.091-1.145,0.273c-0.258,0.183-0.387,0.406-0.387,0.672c0,0.125,0.026,0.241,0.078,0.348
			c0.052,0.107,0.145,0.203,0.277,0.289s0.313,0.164,0.543,0.234c0.229,0.07,0.521,0.132,0.875,0.184
			c0.51,0.083,0.984,0.19,1.422,0.32c0.438,0.13,0.815,0.298,1.133,0.504c0.317,0.206,0.566,0.456,0.746,0.75
			c0.18,0.294,0.27,0.645,0.27,1.051c0,0.375-0.09,0.72-0.27,1.035c-0.18,0.315-0.435,0.587-0.766,0.816
			c-0.331,0.229-0.73,0.408-1.199,0.535s-0.992,0.191-1.57,0.191c-0.636,0-1.197-0.083-1.684-0.25
			c-0.487-0.167-0.895-0.384-1.223-0.652c-0.328-0.268-0.577-0.573-0.746-0.914c-0.169-0.341-0.254-0.684-0.254-1.027h2.07
			c0.016,0.229,0.078,0.426,0.188,0.59s0.25,0.297,0.422,0.398s0.368,0.176,0.59,0.223c0.221,0.047,0.449,0.07,0.684,0.07
			c0.536,0,0.945-0.086,1.227-0.258S135.204,380.572,135.204,380.301z"/>
		<path d="M143.095,381.043c0.213,0,0.417-0.031,0.609-0.094c0.192-0.062,0.362-0.151,0.508-0.266
			c0.146-0.114,0.259-0.252,0.34-0.414c0.081-0.161,0.116-0.341,0.105-0.539h2.047c0.01,0.438-0.08,0.844-0.27,1.219
			c-0.19,0.375-0.449,0.698-0.777,0.969c-0.328,0.271-0.71,0.483-1.145,0.637c-0.435,0.153-0.895,0.23-1.379,0.23
			c-0.656,0-1.232-0.111-1.727-0.332c-0.495-0.221-0.908-0.524-1.238-0.91c-0.331-0.385-0.581-0.837-0.75-1.355
			c-0.169-0.518-0.254-1.074-0.254-1.668v-0.234c0-0.594,0.083-1.149,0.25-1.668c0.167-0.518,0.417-0.97,0.75-1.355
			c0.333-0.385,0.746-0.69,1.238-0.914c0.492-0.224,1.063-0.336,1.715-0.336c0.521,0,1.002,0.078,1.445,0.234
			c0.442,0.156,0.824,0.376,1.145,0.66c0.32,0.284,0.569,0.628,0.746,1.031c0.177,0.404,0.26,0.855,0.25,1.355h-2.047
			c0.01-0.208-0.021-0.406-0.094-0.594c-0.073-0.188-0.18-0.349-0.32-0.484c-0.141-0.135-0.31-0.243-0.508-0.324
			c-0.198-0.081-0.414-0.121-0.648-0.121c-0.344,0-0.628,0.07-0.852,0.211c-0.224,0.141-0.402,0.328-0.535,0.562
			s-0.227,0.503-0.281,0.805c-0.055,0.302-0.082,0.615-0.082,0.938v0.234c0,0.328,0.026,0.645,0.078,0.949
			c0.052,0.305,0.145,0.573,0.277,0.805c0.133,0.232,0.312,0.418,0.539,0.559S142.746,381.043,143.095,381.043z"/>
		<path d="M155.024,374.012c0.328,0,0.631,0.022,0.91,0.066c0.278,0.044,0.504,0.093,0.676,0.145l-0.32,2.164
			c-0.287-0.067-0.58-0.118-0.879-0.152c-0.3-0.034-0.585-0.051-0.855-0.051c-0.609,0-1.098,0.117-1.465,0.352
			s-0.642,0.57-0.824,1.008v5.078h-2.172v-8.453h2.023l0.102,1.383c0.344-0.479,0.755-0.855,1.234-1.129
			C153.933,374.148,154.457,374.012,155.024,374.012z"/>
		<path d="M159.134,374.168h4.602v6.688h2.289v1.766h-6.891v-1.766h2.406v-4.914h-2.406V374.168z M161.384,372.004
			c0-0.167,0.03-0.321,0.09-0.465c0.06-0.143,0.145-0.266,0.254-0.367s0.241-0.181,0.395-0.238c0.153-0.057,0.324-0.086,0.512-0.086
			c0.385,0,0.691,0.108,0.918,0.324c0.227,0.216,0.34,0.494,0.34,0.832c0,0.339-0.113,0.616-0.34,0.832
			c-0.227,0.216-0.533,0.324-0.918,0.324c-0.188,0-0.358-0.028-0.512-0.086c-0.154-0.057-0.285-0.137-0.395-0.238
			s-0.194-0.224-0.254-0.367C161.414,372.326,161.384,372.171,161.384,372.004z"/>
		<path d="M175.774,378.48c0,0.63-0.069,1.208-0.207,1.734c-0.138,0.526-0.345,0.979-0.621,1.359
			c-0.276,0.38-0.62,0.676-1.031,0.887c-0.412,0.211-0.891,0.316-1.438,0.316c-0.495,0-0.923-0.093-1.285-0.277
			c-0.362-0.185-0.673-0.444-0.934-0.777l-0.102,0.898h-1.953v-12h2.172v4.312c0.25-0.292,0.545-0.518,0.887-0.68
			c0.341-0.161,0.741-0.242,1.199-0.242c0.552,0,1.035,0.107,1.449,0.32c0.414,0.214,0.759,0.511,1.035,0.891
			c0.276,0.38,0.483,0.835,0.621,1.363c0.138,0.529,0.207,1.105,0.207,1.73V378.48z M173.603,378.316
			c0-0.344-0.026-0.669-0.078-0.977c-0.052-0.307-0.142-0.577-0.27-0.809c-0.128-0.231-0.301-0.415-0.52-0.551
			c-0.219-0.135-0.492-0.203-0.82-0.203c-0.396,0-0.718,0.083-0.965,0.25c-0.248,0.167-0.439,0.396-0.574,0.688v3.367
			c0.135,0.292,0.327,0.521,0.574,0.688c0.247,0.167,0.574,0.25,0.98,0.25c0.328,0,0.599-0.063,0.812-0.191
			c0.213-0.127,0.384-0.305,0.512-0.531c0.127-0.227,0.217-0.495,0.27-0.805c0.052-0.31,0.078-0.647,0.078-1.012V378.316z"/>
		<path d="M181.86,382.777c-0.651,0-1.242-0.107-1.773-0.32s-0.987-0.504-1.367-0.871c-0.38-0.367-0.673-0.799-0.879-1.297
			c-0.206-0.497-0.309-1.03-0.309-1.598v-0.312c0-0.646,0.102-1.235,0.305-1.77c0.203-0.534,0.487-0.993,0.852-1.379
			c0.364-0.385,0.797-0.685,1.297-0.898c0.5-0.213,1.044-0.32,1.633-0.32c0.609,0,1.152,0.101,1.629,0.301
			c0.477,0.201,0.88,0.483,1.211,0.848c0.331,0.365,0.582,0.804,0.754,1.316c0.172,0.513,0.258,1.08,0.258,1.699v0.922h-5.734
			c0.042,0.287,0.126,0.548,0.254,0.785c0.127,0.237,0.29,0.441,0.488,0.613c0.198,0.172,0.424,0.305,0.68,0.398
			c0.255,0.094,0.534,0.141,0.836,0.141c0.213,0,0.426-0.021,0.637-0.062c0.211-0.042,0.413-0.103,0.605-0.184
			c0.192-0.081,0.372-0.181,0.539-0.301c0.167-0.12,0.312-0.26,0.438-0.422l1.086,1.172c-0.136,0.193-0.312,0.382-0.527,0.566
			c-0.216,0.185-0.472,0.349-0.766,0.492c-0.294,0.144-0.621,0.259-0.98,0.348S182.277,382.777,181.86,382.777z M181.603,375.77
			c-0.245,0-0.469,0.043-0.672,0.129s-0.382,0.21-0.535,0.371c-0.154,0.162-0.283,0.354-0.387,0.578
			c-0.104,0.224-0.183,0.474-0.234,0.75h3.562v-0.172c-0.011-0.229-0.055-0.445-0.133-0.648s-0.19-0.379-0.336-0.527
			c-0.146-0.148-0.324-0.266-0.535-0.352S181.878,375.77,181.603,375.77z"/>
		<path d="M188.954,377.996c0-0.734,0.056-1.426,0.168-2.074c0.112-0.648,0.264-1.247,0.457-1.797
			c0.192-0.549,0.418-1.051,0.676-1.504s0.53-0.854,0.816-1.203c0.286-0.349,0.582-0.645,0.887-0.887s0.6-0.428,0.887-0.559
			l0.422,1.188c-0.292,0.224-0.583,0.525-0.875,0.902c-0.292,0.378-0.554,0.847-0.785,1.406c-0.232,0.56-0.421,1.212-0.566,1.957
			c-0.146,0.745-0.219,1.597-0.219,2.555v0.203c0,0.964,0.073,1.818,0.219,2.562c0.146,0.745,0.334,1.397,0.566,1.957
			c0.231,0.56,0.493,1.03,0.785,1.41c0.292,0.38,0.583,0.682,0.875,0.906l-0.422,1.172c-0.287-0.131-0.582-0.318-0.887-0.562
			c-0.305-0.245-0.601-0.541-0.887-0.887c-0.287-0.347-0.559-0.746-0.816-1.199s-0.483-0.954-0.676-1.504
			c-0.193-0.549-0.345-1.147-0.457-1.793c-0.112-0.646-0.168-1.338-0.168-2.078V377.996z"/>
		<path d="M199.22,378.449v4.172h-2.195v-11.375h3.891c0.62,0,1.18,0.09,1.68,0.27s0.926,0.43,1.277,0.75s0.622,0.705,0.812,1.152
			c0.19,0.448,0.285,0.945,0.285,1.492c0,0.511-0.095,0.982-0.285,1.414c-0.19,0.433-0.461,0.806-0.812,1.121
			c-0.352,0.315-0.777,0.562-1.277,0.738c-0.5,0.177-1.06,0.266-1.68,0.266H199.22z M199.22,376.668h1.695
			c0.312,0,0.583-0.047,0.812-0.141c0.229-0.094,0.42-0.221,0.574-0.383c0.153-0.161,0.268-0.348,0.344-0.559
			c0.075-0.211,0.113-0.431,0.113-0.66c0-0.266-0.038-0.513-0.113-0.742c-0.076-0.229-0.19-0.43-0.344-0.602
			c-0.154-0.172-0.345-0.307-0.574-0.406c-0.229-0.099-0.5-0.148-0.812-0.148h-1.695V376.668z"/>
		<path d="M214.423,377.77c0,0.729-0.097,1.401-0.289,2.016c-0.193,0.615-0.472,1.144-0.836,1.586
			c-0.365,0.443-0.809,0.788-1.332,1.035s-1.113,0.371-1.77,0.371s-1.24-0.124-1.75-0.371c-0.511-0.247-0.94-0.594-1.289-1.039
			c-0.349-0.445-0.615-0.974-0.797-1.586c-0.183-0.612-0.273-1.282-0.273-2.012v-1.656c0-0.729,0.091-1.401,0.273-2.016
			c0.182-0.614,0.448-1.145,0.797-1.59c0.349-0.445,0.777-0.793,1.285-1.043s1.09-0.375,1.746-0.375
			c0.661,0,1.254,0.125,1.777,0.375s0.967,0.598,1.332,1.043c0.364,0.445,0.643,0.976,0.836,1.59
			c0.192,0.615,0.289,1.287,0.289,2.016V377.77z M212.196,376.098c0-0.463-0.038-0.891-0.113-1.281
			c-0.076-0.391-0.194-0.727-0.355-1.008c-0.162-0.281-0.369-0.501-0.621-0.66c-0.253-0.159-0.559-0.238-0.918-0.238
			c-0.354,0-0.651,0.08-0.891,0.238c-0.24,0.159-0.433,0.379-0.578,0.66c-0.146,0.281-0.25,0.617-0.312,1.008
			s-0.094,0.818-0.094,1.281v1.672c0,0.458,0.031,0.883,0.094,1.273s0.167,0.729,0.312,1.016c0.146,0.287,0.338,0.511,0.578,0.672
			c0.239,0.162,0.539,0.242,0.898,0.242c0.354,0,0.657-0.081,0.91-0.242c0.252-0.161,0.458-0.384,0.617-0.668
			c0.159-0.284,0.277-0.621,0.355-1.012s0.117-0.817,0.117-1.281V376.098z"/>
		<path d="M223.587,382.621h-2.188l-3.164-7.336v7.336h-2.211v-11.375h2.211l3.141,7.305l0.008-7.305h2.203V382.621z"/>
		<path d="M233.509,381.293c-0.141,0.172-0.333,0.347-0.578,0.523c-0.245,0.177-0.535,0.337-0.871,0.48
			c-0.336,0.144-0.712,0.259-1.129,0.348c-0.417,0.088-0.865,0.133-1.344,0.133c-0.646,0-1.229-0.115-1.75-0.344
			c-0.521-0.229-0.966-0.56-1.336-0.992c-0.37-0.432-0.655-0.962-0.855-1.59c-0.201-0.627-0.301-1.34-0.301-2.137v-1.547
			c0-0.797,0.105-1.509,0.316-2.137c0.211-0.627,0.502-1.16,0.875-1.598c0.372-0.438,0.81-0.771,1.312-1
			c0.502-0.229,1.048-0.344,1.637-0.344c0.641,0,1.199,0.081,1.676,0.242c0.477,0.162,0.879,0.395,1.207,0.699
			s0.584,0.676,0.77,1.113c0.185,0.438,0.306,0.93,0.363,1.477h-2.141c-0.073-0.583-0.249-1.022-0.527-1.316
			c-0.279-0.294-0.71-0.441-1.293-0.441c-0.281,0-0.542,0.072-0.781,0.215c-0.24,0.144-0.448,0.353-0.625,0.629
			c-0.177,0.276-0.318,0.619-0.422,1.027c-0.104,0.409-0.156,0.882-0.156,1.418v1.562c0.005,1.062,0.182,1.876,0.531,2.441
			c0.349,0.565,0.883,0.851,1.602,0.855c0.172,0,0.341-0.013,0.508-0.039c0.167-0.026,0.323-0.062,0.469-0.109
			c0.146-0.047,0.274-0.1,0.387-0.16c0.112-0.06,0.196-0.124,0.254-0.191l0.008-2.062h-1.883v-1.641h4.07L233.509,381.293z"/>
		<path d="M241.149,378.168c0,0.714-0.058,1.39-0.172,2.027c-0.115,0.638-0.271,1.233-0.469,1.785
			c-0.198,0.552-0.429,1.056-0.691,1.512c-0.263,0.456-0.543,0.862-0.84,1.219c-0.297,0.356-0.602,0.66-0.914,0.91
			s-0.617,0.439-0.914,0.57l-0.414-1.172c0.286-0.219,0.575-0.519,0.867-0.898c0.292-0.38,0.555-0.849,0.789-1.406
			s0.424-1.211,0.57-1.961c0.146-0.75,0.219-1.606,0.219-2.57v-0.203c0-0.958-0.076-1.812-0.227-2.562
			c-0.151-0.75-0.344-1.406-0.578-1.969s-0.496-1.034-0.785-1.414c-0.289-0.38-0.574-0.68-0.855-0.898l0.414-1.164
			c0.297,0.13,0.602,0.32,0.914,0.57s0.617,0.554,0.914,0.91c0.297,0.357,0.577,0.763,0.84,1.219
			c0.263,0.456,0.493,0.96,0.691,1.512c0.198,0.552,0.354,1.147,0.469,1.785c0.114,0.638,0.172,1.314,0.172,2.027V378.168z"/>
	</g>
</g>
<g>
	<g>
		<path d="M87.196,430.922c0-0.131-0.03-0.245-0.09-0.344c-0.06-0.1-0.167-0.191-0.32-0.277c-0.154-0.086-0.358-0.166-0.613-0.238
			c-0.255-0.073-0.578-0.146-0.969-0.219c-0.495-0.1-0.947-0.223-1.355-0.371c-0.409-0.148-0.759-0.328-1.051-0.539
			c-0.292-0.211-0.52-0.455-0.684-0.73c-0.164-0.276-0.246-0.594-0.246-0.953c0-0.35,0.083-0.683,0.25-1
			c0.167-0.318,0.406-0.597,0.719-0.836c0.312-0.24,0.692-0.43,1.141-0.57c0.448-0.141,0.953-0.211,1.516-0.211
			c0.588,0,1.117,0.068,1.586,0.207c0.469,0.138,0.866,0.328,1.191,0.57c0.325,0.242,0.574,0.529,0.746,0.863
			c0.172,0.333,0.258,0.695,0.258,1.086h-2.172c0-0.328-0.133-0.604-0.398-0.824c-0.266-0.222-0.669-0.332-1.211-0.332
			c-0.505,0-0.887,0.091-1.145,0.273c-0.258,0.182-0.387,0.406-0.387,0.672c0,0.125,0.026,0.24,0.078,0.348
			c0.052,0.106,0.145,0.203,0.277,0.289s0.313,0.164,0.543,0.234c0.229,0.07,0.521,0.131,0.875,0.184
			c0.51,0.083,0.984,0.189,1.422,0.32c0.438,0.13,0.815,0.298,1.133,0.504c0.317,0.205,0.566,0.455,0.746,0.75
			c0.18,0.294,0.27,0.645,0.27,1.051c0,0.375-0.09,0.72-0.27,1.035c-0.18,0.314-0.435,0.587-0.766,0.816
			c-0.331,0.229-0.73,0.407-1.199,0.535c-0.469,0.127-0.992,0.191-1.57,0.191c-0.636,0-1.197-0.084-1.684-0.25
			c-0.487-0.167-0.895-0.385-1.223-0.652c-0.328-0.269-0.577-0.573-0.746-0.914c-0.169-0.342-0.254-0.684-0.254-1.027h2.07
			c0.016,0.229,0.078,0.426,0.188,0.59s0.25,0.297,0.422,0.398s0.368,0.176,0.59,0.223c0.221,0.047,0.449,0.07,0.684,0.07
			c0.536,0,0.945-0.086,1.227-0.258S87.196,431.192,87.196,430.922z"/>
		<path d="M95.446,433.398c-0.651,0-1.242-0.107-1.773-0.32c-0.531-0.214-0.987-0.504-1.367-0.871
			c-0.38-0.367-0.673-0.8-0.879-1.297c-0.206-0.498-0.309-1.03-0.309-1.598V429c0-0.646,0.102-1.236,0.305-1.77
			c0.203-0.534,0.487-0.994,0.852-1.379c0.364-0.386,0.797-0.686,1.297-0.898c0.5-0.214,1.044-0.32,1.633-0.32
			c0.609,0,1.152,0.1,1.629,0.301c0.477,0.2,0.88,0.482,1.211,0.848c0.331,0.364,0.582,0.803,0.754,1.316
			c0.172,0.513,0.258,1.079,0.258,1.699v0.922h-5.734c0.042,0.286,0.126,0.548,0.254,0.785c0.127,0.236,0.29,0.441,0.488,0.613
			c0.198,0.172,0.424,0.305,0.68,0.398c0.255,0.094,0.534,0.141,0.836,0.141c0.213,0,0.426-0.021,0.637-0.062
			c0.211-0.042,0.413-0.104,0.605-0.184c0.192-0.081,0.372-0.182,0.539-0.301c0.167-0.12,0.312-0.261,0.438-0.422l1.086,1.172
			c-0.136,0.192-0.312,0.381-0.527,0.566c-0.216,0.185-0.472,0.349-0.766,0.492c-0.294,0.143-0.621,0.259-0.98,0.348
			C96.251,433.354,95.863,433.398,95.446,433.398z M95.188,426.391c-0.245,0-0.469,0.043-0.672,0.129s-0.382,0.209-0.535,0.371
			c-0.154,0.161-0.283,0.354-0.387,0.578c-0.104,0.224-0.183,0.474-0.234,0.75h3.562v-0.172c-0.011-0.229-0.055-0.445-0.133-0.648
			s-0.19-0.379-0.336-0.527c-0.146-0.148-0.324-0.266-0.535-0.352S95.464,426.391,95.188,426.391z"/>
		<path d="M102.915,424.789l0.133,1.172c0.302-0.422,0.669-0.749,1.102-0.98c0.432-0.232,0.911-0.348,1.438-0.348
			c0.427,0,0.817,0.062,1.172,0.188c0.354,0.125,0.66,0.324,0.918,0.598s0.458,0.625,0.602,1.055
			c0.143,0.43,0.215,0.951,0.215,1.566v5.203h-2.172v-5.172c0-0.334-0.038-0.608-0.113-0.824c-0.076-0.217-0.184-0.387-0.324-0.512
			s-0.31-0.213-0.508-0.262c-0.198-0.05-0.422-0.074-0.672-0.074c-0.37,0-0.685,0.074-0.945,0.223
			c-0.261,0.148-0.472,0.353-0.633,0.613v6.008h-2.18v-8.453H102.915z"/>
		<path d="M110.321,428.953c0-0.641,0.074-1.227,0.223-1.758s0.366-0.987,0.652-1.367c0.286-0.381,0.634-0.675,1.043-0.883
			c0.409-0.209,0.876-0.312,1.402-0.312c0.442,0,0.832,0.079,1.168,0.238c0.336,0.158,0.634,0.384,0.895,0.676v-4.305h2.18v12
			h-1.961l-0.109-0.883c-0.266,0.328-0.578,0.583-0.938,0.766c-0.359,0.182-0.776,0.273-1.25,0.273
			c-0.516,0-0.978-0.109-1.387-0.324c-0.409-0.217-0.755-0.515-1.039-0.895c-0.284-0.381-0.501-0.832-0.652-1.355
			c-0.151-0.523-0.227-1.093-0.227-1.707V428.953z M112.493,429.117c0,0.354,0.03,0.684,0.09,0.988
			c0.06,0.305,0.157,0.57,0.293,0.797c0.135,0.227,0.31,0.404,0.523,0.535c0.213,0.13,0.474,0.195,0.781,0.195
			c0.375,0,0.686-0.081,0.934-0.242c0.247-0.162,0.444-0.383,0.59-0.664v-3.422c-0.146-0.287-0.341-0.51-0.586-0.668
			c-0.245-0.159-0.552-0.238-0.922-0.238c-0.308,0-0.569,0.066-0.785,0.199c-0.216,0.133-0.392,0.314-0.527,0.547
			c-0.136,0.231-0.234,0.502-0.297,0.812c-0.062,0.31-0.094,0.642-0.094,0.996V429.117z"/>
		<path d="M121.743,428.617c0-0.734,0.056-1.426,0.168-2.074c0.112-0.648,0.264-1.248,0.457-1.797
			c0.192-0.55,0.418-1.051,0.676-1.504s0.53-0.854,0.816-1.203c0.286-0.35,0.582-0.645,0.887-0.887s0.6-0.429,0.887-0.559
			l0.422,1.188c-0.292,0.224-0.583,0.524-0.875,0.902c-0.292,0.377-0.554,0.846-0.785,1.406c-0.232,0.56-0.421,1.212-0.566,1.957
			c-0.146,0.744-0.219,1.596-0.219,2.555v0.203c0,0.963,0.073,1.817,0.219,2.562c0.146,0.744,0.334,1.396,0.566,1.957
			c0.231,0.559,0.493,1.029,0.785,1.41c0.292,0.379,0.583,0.682,0.875,0.906l-0.422,1.172c-0.287-0.131-0.582-0.318-0.887-0.562
			c-0.305-0.246-0.601-0.541-0.887-0.887c-0.287-0.348-0.559-0.746-0.816-1.199s-0.483-0.955-0.676-1.504
			c-0.193-0.55-0.345-1.147-0.457-1.793c-0.112-0.646-0.168-1.339-0.168-2.078V428.617z"/>
		<path d="M132.009,429.07v4.172h-2.195v-11.375h3.891c0.62,0,1.18,0.09,1.68,0.27s0.926,0.43,1.277,0.75s0.622,0.704,0.812,1.152
			c0.19,0.447,0.285,0.945,0.285,1.492c0,0.51-0.095,0.981-0.285,1.414c-0.19,0.432-0.461,0.806-0.812,1.121
			c-0.352,0.314-0.777,0.561-1.277,0.738c-0.5,0.177-1.06,0.266-1.68,0.266H132.009z M132.009,427.289h1.695
			c0.312,0,0.583-0.047,0.812-0.141c0.229-0.094,0.42-0.222,0.574-0.383c0.153-0.162,0.268-0.348,0.344-0.559
			c0.075-0.211,0.113-0.432,0.113-0.66c0-0.266-0.038-0.514-0.113-0.742c-0.076-0.229-0.19-0.43-0.344-0.602
			c-0.154-0.172-0.345-0.308-0.574-0.406c-0.229-0.1-0.5-0.148-0.812-0.148h-1.695V427.289z"/>
		<path d="M139.759,421.867h6.578v1.773h-2.219v7.836h2.219v1.766h-6.578v-1.766h2.164v-7.836h-2.164V421.867z"/>
		<path d="M156.376,433.242h-2.188l-3.164-7.336v7.336h-2.211v-11.375h2.211l3.141,7.305l0.008-7.305h2.203V433.242z"/>
		<path d="M166.298,431.914c-0.141,0.172-0.333,0.346-0.578,0.523c-0.245,0.177-0.535,0.337-0.871,0.48
			c-0.336,0.143-0.712,0.259-1.129,0.348c-0.417,0.088-0.865,0.133-1.344,0.133c-0.646,0-1.229-0.115-1.75-0.344
			c-0.521-0.229-0.966-0.561-1.336-0.992c-0.37-0.433-0.655-0.963-0.855-1.59c-0.201-0.628-0.301-1.34-0.301-2.137v-1.547
			c0-0.797,0.105-1.51,0.316-2.137c0.211-0.628,0.502-1.16,0.875-1.598c0.372-0.438,0.81-0.771,1.312-1
			c0.502-0.229,1.048-0.344,1.637-0.344c0.641,0,1.199,0.08,1.676,0.242c0.477,0.161,0.879,0.395,1.207,0.699
			s0.584,0.676,0.77,1.113c0.185,0.438,0.306,0.93,0.363,1.477h-2.141c-0.073-0.584-0.249-1.022-0.527-1.316
			c-0.279-0.295-0.71-0.441-1.293-0.441c-0.281,0-0.542,0.071-0.781,0.215c-0.24,0.143-0.448,0.353-0.625,0.629
			c-0.177,0.275-0.318,0.618-0.422,1.027c-0.104,0.408-0.156,0.881-0.156,1.418v1.562c0.005,1.062,0.182,1.876,0.531,2.441
			c0.349,0.564,0.883,0.85,1.602,0.855c0.172,0,0.341-0.014,0.508-0.039c0.167-0.026,0.323-0.062,0.469-0.109
			c0.146-0.047,0.274-0.101,0.387-0.16c0.112-0.061,0.196-0.124,0.254-0.191l0.008-2.062h-1.883v-1.641h4.07L166.298,431.914z"/>
		<path d="M173.938,428.789c0,0.713-0.058,1.389-0.172,2.027c-0.115,0.638-0.271,1.232-0.469,1.785
			c-0.198,0.552-0.429,1.055-0.691,1.512c-0.263,0.455-0.543,0.861-0.84,1.219c-0.297,0.355-0.602,0.66-0.914,0.91
			s-0.617,0.439-0.914,0.57l-0.414-1.172c0.286-0.219,0.575-0.52,0.867-0.898c0.292-0.381,0.555-0.85,0.789-1.406
			c0.234-0.558,0.424-1.211,0.57-1.961c0.146-0.75,0.219-1.607,0.219-2.57v-0.203c0-0.959-0.076-1.812-0.227-2.562
			c-0.151-0.75-0.344-1.406-0.578-1.969s-0.496-1.034-0.785-1.414c-0.289-0.381-0.574-0.68-0.855-0.898l0.414-1.164
			c0.297,0.13,0.602,0.32,0.914,0.57s0.617,0.553,0.914,0.91c0.297,0.356,0.577,0.763,0.84,1.219
			c0.263,0.455,0.493,0.959,0.691,1.512c0.198,0.552,0.354,1.146,0.469,1.785c0.114,0.638,0.172,1.313,0.172,2.027V428.789z"/>
	</g>
</g>
<g>
	<path fill="none" stroke="#000000" stroke-width="2" stroke-miterlimit="10" d="M62,232v230.586c0,5.5,4.5,10.414,10,10.414h558
		c5.5,0,10-4.914,10-10.414V278c0-5.5-4.5-10-10-10H80c-5.5,0-10.985-4.391-12.188-9.758L62,232.333"/>
</g>
<line opacity="0.22" fill="none" stroke="#000000" stroke-miterlimit="10" x1="76" y1="351.5" x2="620" y2="351.5"/>
<path opacity="0.22" fill="none" stroke="#000000" stroke-miterlimit="10" d="M76,406.5"/>
<polygon fill="#43EF60" points="344,323.371 334,306 334,323.371 334,340.742 "/>
<polygon fill="#43EF60" points="344,402.818 334,362.25 334,402.818 334,443.387 "/>
<g>
</g>
<g>
</g>
<g>
</g>
<g>
</g>
<g>
</g>
<g>
</g>
<g>
</g>
<g>
</g>
<g>
</g>
<g>
</g>
<g>
</g>
<g>
</g>
<g>
</g>
<g>
</g>
<g>
</g>
</svg>
