<?xml version="1.0" encoding="utf-8"?>
<!-- Generator: Adobe Illustrator 16.0.4, SVG Export Plug-In . SVG Version: 6.00 Build 0)  -->
<!DOCTYPE svg PUBLIC "-//W3C//DTD SVG 1.1//EN" "http://www.w3.org/Graphics/SVG/1.1/DTD/svg11.dtd">
<svg version="1.1" id="Script_Verify2__x28_P2PKH_x29_"
	 xmlns="http://www.w3.org/2000/svg" xmlns:xlink="http://www.w3.org/1999/xlink" x="0px" y="0px" width="1366px" height="768px"
	 viewBox="0 0 1366 768" enable-background="new 0 0 1366 768" xml:space="preserve">
<circle fill="none" stroke="#000000" stroke-width="3" stroke-miterlimit="10" cx="554" cy="273" r="13"/>
<circle fill="none" stroke="#000000" stroke-width="3" stroke-miterlimit="10" cx="554" cy="549" r="13"/>
<g>
	<rect x="23.203" y="320" fill="none" width="109.593" height="60"/>
	<path d="M47.653,339v-17.847h3.784v14.722h7.239V339H47.653z"/>
	<path d="M73.886,332.152c0,2.222-0.586,3.959-1.758,5.212c-1.172,1.253-2.804,1.88-4.895,1.88c-1.311,0-2.466-0.287-3.467-0.86
		c-1.001-0.574-1.77-1.398-2.307-2.472s-0.806-2.327-0.806-3.76c0-2.229,0.582-3.963,1.746-5.2c1.164-1.237,2.799-1.855,4.907-1.855
		c1.31,0,2.466,0.285,3.467,0.854c1.001,0.57,1.77,1.388,2.307,2.454C73.618,329.471,73.886,330.72,73.886,332.152z M64.45,332.152
		c0,1.351,0.222,2.373,0.666,3.064c0.443,0.692,1.166,1.038,2.167,1.038c0.993,0,1.707-0.344,2.142-1.032
		c0.436-0.688,0.653-1.71,0.653-3.07c0-1.351-0.22-2.364-0.659-3.04c-0.439-0.675-1.16-1.013-2.161-1.013
		c-0.993,0-1.709,0.335-2.148,1.007C64.67,329.777,64.45,330.793,64.45,332.152z"/>
	<path d="M82.504,339.244c-4.248,0-6.372-2.332-6.372-6.995c0-2.319,0.578-4.091,1.733-5.316c1.155-1.225,2.812-1.837,4.968-1.837
		c1.579,0,2.995,0.31,4.248,0.928l-1.099,2.881c-0.586-0.236-1.131-0.429-1.636-0.58c-0.505-0.151-1.009-0.226-1.514-0.226
		c-1.937,0-2.905,1.375-2.905,4.126c0,2.669,0.968,4.004,2.905,4.004c0.716,0,1.379-0.096,1.99-0.287
		c0.61-0.191,1.221-0.49,1.831-0.897v3.186c-0.603,0.383-1.21,0.647-1.825,0.793C84.215,339.171,83.44,339.244,82.504,339.244z"/>
	<path d="M98.483,339l-0.72-1.855h-0.098c-0.627,0.79-1.271,1.337-1.935,1.642c-0.663,0.306-1.528,0.458-2.594,0.458
		c-1.311,0-2.342-0.374-3.095-1.123c-0.752-0.749-1.129-1.814-1.129-3.198c0-1.448,0.507-2.517,1.52-3.204
		c1.014-0.688,2.541-1.068,4.584-1.142l2.368-0.073v-0.598c0-1.383-0.708-2.075-2.124-2.075c-1.091,0-2.373,0.33-3.845,0.989
		l-1.233-2.515c1.57-0.822,3.312-1.233,5.225-1.233c1.831,0,3.235,0.399,4.211,1.196c0.977,0.798,1.465,2.01,1.465,3.638V339H98.483
		z M97.385,332.677l-1.44,0.049c-1.083,0.033-1.888,0.228-2.417,0.586c-0.529,0.358-0.793,0.903-0.793,1.636
		c0,1.05,0.602,1.575,1.807,1.575c0.862,0,1.552-0.248,2.069-0.745c0.517-0.496,0.775-1.155,0.775-1.978V332.677z"/>
	<path d="M108.64,339h-3.723v-18.994h3.723V339z"/>
	<path d="M62.881,369h-4.81l-7.764-13.501h-0.11c0.154,2.385,0.232,4.085,0.232,5.103V369h-3.381v-17.847h4.773l7.751,13.367h0.085
		c-0.122-2.319-0.183-3.959-0.183-4.919v-8.447h3.406V369z"/>
	<path d="M79.483,362.152c0,2.222-0.586,3.959-1.758,5.212c-1.172,1.253-2.804,1.88-4.895,1.88c-1.311,0-2.466-0.287-3.467-0.86
		c-1.001-0.574-1.77-1.398-2.307-2.472s-0.806-2.327-0.806-3.76c0-2.229,0.582-3.963,1.746-5.2c1.164-1.237,2.799-1.855,4.907-1.855
		c1.31,0,2.466,0.285,3.467,0.854c1.001,0.57,1.77,1.388,2.307,2.454C79.214,359.471,79.483,360.72,79.483,362.152z M70.047,362.152
		c0,1.351,0.222,2.373,0.666,3.064c0.443,0.692,1.166,1.038,2.167,1.038c0.993,0,1.707-0.344,2.142-1.032
		c0.436-0.688,0.653-1.71,0.653-3.07c0-1.351-0.22-2.364-0.659-3.04c-0.439-0.675-1.16-1.013-2.161-1.013
		c-0.993,0-1.709,0.335-2.148,1.007C70.267,359.777,70.047,360.793,70.047,362.152z"/>
	<path d="M86.88,369.244c-1.604,0-2.862-0.623-3.778-1.868c-0.915-1.245-1.373-2.97-1.373-5.176c0-2.238,0.466-3.981,1.397-5.231
		c0.932-1.249,2.216-1.874,3.852-1.874c1.717,0,3.027,0.667,3.931,2.002h0.122c-0.188-1.017-0.281-1.924-0.281-2.722v-4.37h3.735
		V369h-2.856l-0.72-1.77H90.75C89.903,368.573,88.614,369.244,86.88,369.244z M88.187,366.278c0.952,0,1.65-0.276,2.093-0.83
		c0.444-0.553,0.686-1.493,0.727-2.82v-0.403c0-1.465-0.226-2.515-0.678-3.149c-0.451-0.635-1.186-0.952-2.203-0.952
		c-0.83,0-1.475,0.352-1.935,1.056c-0.46,0.704-0.69,1.727-0.69,3.07s0.232,2.35,0.696,3.021
		C86.661,365.942,87.324,366.278,88.187,366.278z"/>
	<path d="M104.556,369.244c-2.197,0-3.915-0.606-5.151-1.819c-1.237-1.212-1.855-2.93-1.855-5.151c0-2.287,0.572-4.055,1.715-5.304
		c1.144-1.249,2.724-1.874,4.743-1.874c1.929,0,3.43,0.549,4.504,1.648s1.611,2.617,1.611,4.553v1.807h-8.801
		c0.041,1.058,0.354,1.884,0.94,2.478c0.586,0.594,1.408,0.891,2.466,0.891c0.822,0,1.599-0.085,2.332-0.256
		s1.497-0.443,2.295-0.818v2.881c-0.651,0.326-1.347,0.568-2.087,0.726C106.525,369.165,105.622,369.244,104.556,369.244z
		 M104.031,357.745c-0.79,0-1.408,0.25-1.855,0.751c-0.448,0.5-0.704,1.21-0.769,2.13h5.225c-0.017-0.919-0.256-1.63-0.72-2.13
		C105.447,357.995,104.82,357.745,104.031,357.745z"/>
</g>
<g enable-background="new    ">
	<g>
		<line fill="none" stroke="#97B2C3" stroke-width="3" stroke-miterlimit="10" x1="85" y1="411.5" x2="515" y2="411.5"/>
		<g>
			<polygon fill="#97B2C3" points="529,411.502 509.301,419.552 513.975,411.502 509.301,403.454 			"/>
		</g>
	</g>
</g>
<g enable-background="new    ">
	<g>
		<path fill="none" stroke="#97B2C3" stroke-width="3" stroke-miterlimit="10" d="M515,272.5H334
			c-13.75,0-34.673,5.744-46.497,12.764L84.99,405.5"/>
		<g>
			<polygon fill="#97B2C3" points="529,272.5 509.301,264.45 513.975,272.5 509.301,280.548 			"/>
		</g>
	</g>
</g>
<g enable-background="new    ">
	<g>
		<path fill="none" stroke="#E15218" stroke-width="3" stroke-miterlimit="10" d="M541,548.5H334
			c-13.75,0-34.673-5.743-46.496-12.764L106.935,428.461"/>
		<g>
			<polygon fill="#E15218" points="541,548.5 540.702,548.378 540.772,548.5 540.702,548.622 			"/>
		</g>
		<g>
			<polygon fill="#E15218" points="94.808,421.323 115.856,424.459 107.728,428.994 107.638,438.301 			"/>
		</g>
	</g>
</g>
<g>
	<rect x="370.75" y="206" fill="none" width="196.25" height="66.096"/>
	<path d="M395.198,216.052c0,2.954-0.732,5.225-2.197,6.812s-3.564,2.38-6.299,2.38s-4.834-0.793-6.299-2.38
		s-2.197-3.865-2.197-6.836c0-2.97,0.734-5.239,2.204-6.805c1.469-1.567,3.574-2.35,6.317-2.35c2.742,0,4.84,0.79,6.292,2.368
		C394.472,210.82,395.198,213.09,395.198,216.052z M382.173,216.052c0,1.994,0.378,3.496,1.135,4.504
		c0.757,1.009,1.888,1.514,3.394,1.514c3.019,0,4.529-2.006,4.529-6.018c0-4.02-1.501-6.03-4.504-6.03
		c-1.506,0-2.641,0.506-3.406,1.52C382.556,212.555,382.173,214.059,382.173,216.052z"/>
	<path d="M408.272,225l-0.5-1.746h-0.195c-0.399,0.635-0.964,1.125-1.697,1.471c-0.732,0.346-1.567,0.519-2.502,0.519
		c-1.604,0-2.812-0.429-3.625-1.288c-0.814-0.858-1.221-2.093-1.221-3.705v-8.899h3.723v7.971c0,0.985,0.175,1.723,0.525,2.215
		c0.35,0.493,0.907,0.739,1.672,0.739c1.042,0,1.794-0.348,2.258-1.043c0.464-0.696,0.696-1.85,0.696-3.461v-6.421h3.723V225
		H408.272z"/>
	<path d="M420.784,222.278c0.651,0,1.432-0.142,2.344-0.427v2.771c-0.928,0.415-2.067,0.623-3.418,0.623
		c-1.489,0-2.574-0.376-3.253-1.129c-0.679-0.753-1.019-1.882-1.019-3.388v-6.58h-1.782v-1.575l2.051-1.245l1.074-2.881h2.38v2.905
		h3.821v2.795h-3.821v6.58c0,0.529,0.148,0.92,0.445,1.172C419.903,222.152,420.296,222.278,420.784,222.278z"/>
	<path d="M433.479,211.096c1.611,0,2.873,0.628,3.784,1.886c0.911,1.257,1.367,2.98,1.367,5.169c0,2.254-0.47,4-1.41,5.237
		c-0.939,1.237-2.22,1.855-3.839,1.855c-1.604,0-2.861-0.582-3.772-1.746h-0.256L428.731,225h-2.844v-18.994h3.723v4.419
		c0,0.562-0.049,1.461-0.146,2.698h0.146C430.48,211.772,431.771,211.096,433.479,211.096z M432.283,214.075
		c-0.92,0-1.591,0.283-2.014,0.848c-0.423,0.566-0.643,1.5-0.659,2.802v0.403c0,1.465,0.218,2.515,0.653,3.149
		c0.436,0.635,1.125,0.952,2.069,0.952c0.765,0,1.373-0.352,1.825-1.056c0.451-0.704,0.677-1.727,0.677-3.07
		s-0.228-2.35-0.684-3.021C433.695,214.41,433.072,214.075,432.283,214.075z"/>
	<path d="M454.109,218.152c0,2.222-0.586,3.959-1.758,5.212c-1.172,1.253-2.804,1.88-4.895,1.88c-1.311,0-2.466-0.287-3.467-0.86
		c-1.001-0.574-1.77-1.398-2.307-2.472s-0.806-2.327-0.806-3.76c0-2.229,0.582-3.963,1.746-5.2c1.164-1.237,2.799-1.855,4.907-1.855
		c1.31,0,2.466,0.285,3.467,0.854c1.001,0.57,1.77,1.388,2.307,2.454C453.841,215.471,454.109,216.72,454.109,218.152z
		 M444.673,218.152c0,1.351,0.222,2.373,0.666,3.064c0.443,0.692,1.166,1.038,2.167,1.038c0.993,0,1.707-0.344,2.142-1.032
		c0.436-0.688,0.653-1.71,0.653-3.07c0-1.351-0.22-2.364-0.659-3.04c-0.439-0.675-1.16-1.013-2.161-1.013
		c-0.993,0-1.709,0.335-2.148,1.007C444.893,215.777,444.673,216.793,444.673,218.152z"/>
	<path d="M466.854,225l-0.5-1.746h-0.195c-0.399,0.635-0.964,1.125-1.697,1.471c-0.732,0.346-1.567,0.519-2.502,0.519
		c-1.604,0-2.812-0.429-3.625-1.288c-0.814-0.858-1.221-2.093-1.221-3.705v-8.899h3.723v7.971c0,0.985,0.175,1.723,0.525,2.215
		c0.35,0.493,0.907,0.739,1.672,0.739c1.042,0,1.794-0.348,2.258-1.043c0.464-0.696,0.696-1.85,0.696-3.461v-6.421h3.723V225
		H466.854z"/>
	<path d="M486.214,225h-3.723v-7.971c0-0.984-0.175-1.723-0.525-2.215c-0.35-0.493-0.908-0.739-1.672-0.739
		c-1.042,0-1.794,0.348-2.258,1.043c-0.464,0.696-0.696,1.85-0.696,3.461V225h-3.723v-13.647h2.844l0.5,1.746h0.208
		c0.415-0.659,0.987-1.158,1.715-1.496c0.728-0.337,1.556-0.506,2.484-0.506c1.587,0,2.791,0.429,3.613,1.288
		c0.822,0.859,1.233,2.098,1.233,3.717V225z"/>
	<path d="M494.368,225.244c-1.604,0-2.862-0.623-3.778-1.868c-0.915-1.245-1.373-2.97-1.373-5.176c0-2.238,0.466-3.981,1.397-5.231
		c0.932-1.249,2.216-1.874,3.852-1.874c1.717,0,3.027,0.667,3.931,2.002h0.122c-0.188-1.017-0.281-1.924-0.281-2.722v-4.37h3.735
		V225h-2.856l-0.72-1.77h-0.159C497.391,224.573,496.102,225.244,494.368,225.244z M495.674,222.278c0.952,0,1.65-0.276,2.093-0.83
		c0.444-0.553,0.686-1.493,0.727-2.82v-0.403c0-1.465-0.226-2.515-0.678-3.149c-0.451-0.635-1.186-0.952-2.203-0.952
		c-0.83,0-1.475,0.352-1.935,1.056c-0.46,0.704-0.69,1.727-0.69,3.07s0.232,2.35,0.696,3.021
		C494.148,221.942,494.812,222.278,495.674,222.278z"/>
	<path d="M524.983,212.72c0,1.921-0.6,3.39-1.801,4.407c-1.2,1.018-2.907,1.526-5.121,1.526h-1.624V225h-3.784v-17.847h5.701
		c2.165,0,3.811,0.466,4.938,1.397C524.42,209.483,524.983,210.873,524.983,212.72z M516.438,215.552h1.245
		c1.164,0,2.034-0.23,2.612-0.689c0.578-0.46,0.867-1.129,0.867-2.008c0-0.887-0.242-1.542-0.726-1.965
		c-0.484-0.423-1.244-0.635-2.277-0.635h-1.721V215.552z"/>
	<path d="M534.236,225.244c-2.197,0-3.915-0.606-5.151-1.819c-1.237-1.212-1.855-2.93-1.855-5.151c0-2.287,0.572-4.055,1.715-5.304
		c1.144-1.249,2.724-1.874,4.743-1.874c1.929,0,3.43,0.549,4.504,1.648s1.611,2.617,1.611,4.553v1.807h-8.801
		c0.041,1.058,0.354,1.884,0.94,2.478c0.586,0.594,1.408,0.891,2.466,0.891c0.822,0,1.599-0.085,2.332-0.256
		s1.497-0.443,2.295-0.818v2.881c-0.651,0.326-1.347,0.568-2.087,0.726C536.206,225.165,535.302,225.244,534.236,225.244z
		 M533.711,213.745c-0.79,0-1.408,0.25-1.855,0.751c-0.448,0.5-0.704,1.21-0.769,2.13h5.225c-0.017-0.919-0.256-1.63-0.72-2.13
		C535.127,213.995,534.5,213.745,533.711,213.745z"/>
	<path d="M549.007,225.244c-2.197,0-3.915-0.606-5.151-1.819c-1.237-1.212-1.855-2.93-1.855-5.151c0-2.287,0.572-4.055,1.715-5.304
		c1.144-1.249,2.724-1.874,4.743-1.874c1.929,0,3.43,0.549,4.504,1.648s1.611,2.617,1.611,4.553v1.807h-8.801
		c0.041,1.058,0.354,1.884,0.94,2.478c0.586,0.594,1.408,0.891,2.466,0.891c0.822,0,1.599-0.085,2.332-0.256
		s1.497-0.443,2.295-0.818v2.881c-0.651,0.326-1.347,0.568-2.087,0.726C550.976,225.165,550.073,225.244,549.007,225.244z
		 M548.482,213.745c-0.79,0-1.408,0.25-1.855,0.751c-0.448,0.5-0.704,1.21-0.769,2.13h5.225c-0.017-0.919-0.256-1.63-0.72-2.13
		C549.898,213.995,549.271,213.745,548.482,213.745z"/>
	<path d="M565.218,211.096c0.504,0,0.923,0.037,1.257,0.11l-0.281,3.491c-0.301-0.081-0.667-0.122-1.099-0.122
		c-1.188,0-2.114,0.305-2.777,0.916c-0.663,0.61-0.995,1.465-0.995,2.563V225h-3.723v-13.647h2.82l0.549,2.295h0.183
		c0.423-0.765,0.995-1.381,1.715-1.85C563.588,211.33,564.371,211.096,565.218,211.096z"/>
	<path d="M487.994,233.091c-1.168,1.568-2.017,3.649-2.017,6.546c0,2.849,0.88,4.898,2.017,6.499h-1.104
		c-1.008-1.329-2.097-3.377-2.097-6.499c0.016-3.153,1.088-5.202,2.097-6.546H487.994z"/>
	<path d="M489.529,233.555c0.849-0.128,1.857-0.224,2.961-0.224c2.001,0,3.425,0.464,4.37,1.344c0.96,0.88,1.521,2.129,1.521,3.874
		c0,1.761-0.544,3.201-1.552,4.194c-1.009,1.008-2.673,1.553-4.77,1.553c-0.993,0-1.825-0.048-2.529-0.128V233.555z
		 M490.921,243.095c0.353,0.064,0.865,0.08,1.409,0.08c2.977,0,4.594-1.665,4.594-4.578c0.016-2.545-1.424-4.162-4.37-4.162
		c-0.72,0-1.265,0.064-1.633,0.144V243.095z"/>
	<path d="M501.706,234.276c0.016,0.48-0.336,0.864-0.896,0.864c-0.496,0-0.849-0.384-0.849-0.864c0-0.497,0.368-0.88,0.88-0.88
		C501.369,233.396,501.706,233.779,501.706,234.276z M500.137,244.2v-7.747h1.409v7.747H500.137z"/>
	<path d="M503.688,242.759c0.416,0.272,1.152,0.56,1.856,0.56c1.024,0,1.505-0.512,1.505-1.152c0-0.672-0.4-1.041-1.441-1.425
		c-1.393-0.496-2.049-1.264-2.049-2.193c0-1.249,1.009-2.273,2.673-2.273c0.784,0,1.473,0.224,1.905,0.48l-0.352,1.024
		c-0.304-0.192-0.865-0.448-1.585-0.448c-0.832,0-1.296,0.48-1.296,1.056c0,0.641,0.464,0.929,1.473,1.312
		c1.345,0.512,2.033,1.185,2.033,2.337c0,1.36-1.056,2.321-2.897,2.321c-0.849,0-1.633-0.208-2.177-0.528L503.688,242.759z"/>
	<path d="M515.739,243.912c-0.368,0.192-1.185,0.448-2.225,0.448c-2.337,0-3.857-1.585-3.857-3.954c0-2.385,1.632-4.114,4.162-4.114
		c0.832,0,1.568,0.208,1.953,0.4l-0.32,1.088c-0.336-0.192-0.864-0.368-1.632-0.368c-1.777,0-2.737,1.312-2.737,2.929
		c0,1.792,1.152,2.897,2.689,2.897c0.801,0,1.329-0.208,1.729-0.384L515.739,243.912z"/>
	<path d="M524.299,240.262c0,2.865-1.985,4.114-3.857,4.114c-2.097,0-3.713-1.537-3.713-3.986c0-2.593,1.696-4.114,3.841-4.114
		C522.795,236.276,524.299,237.893,524.299,240.262z M518.153,240.342c0,1.697,0.977,2.977,2.353,2.977
		c1.345,0,2.353-1.265,2.353-3.009c0-1.312-0.656-2.977-2.321-2.977C518.873,237.333,518.153,238.87,518.153,240.342z"/>
	<path d="M526.505,236.453l1.521,4.354c0.256,0.705,0.464,1.345,0.624,1.985h0.048c0.176-0.64,0.4-1.28,0.656-1.985l1.504-4.354
		h1.473l-3.041,7.747h-1.345L525,236.453H526.505z"/>
	<path d="M534.281,240.582c0.032,1.905,1.249,2.689,2.657,2.689c1.008,0,1.617-0.176,2.145-0.4l0.24,1.008
		c-0.496,0.224-1.344,0.48-2.577,0.48c-2.385,0-3.81-1.569-3.81-3.906s1.376-4.178,3.633-4.178c2.529,0,3.201,2.225,3.201,3.649
		c0,0.288-0.032,0.512-0.048,0.656H534.281z M538.411,239.574c0.016-0.896-0.368-2.289-1.953-2.289
		c-1.425,0-2.049,1.312-2.161,2.289H538.411z"/>
	<path d="M541.513,238.87c0-0.913-0.016-1.697-0.064-2.417h1.232l0.048,1.521h0.064c0.352-1.041,1.2-1.697,2.145-1.697
		c0.16,0,0.272,0.016,0.4,0.048v1.328c-0.144-0.032-0.288-0.048-0.48-0.048c-0.992,0-1.697,0.752-1.889,1.809
		c-0.032,0.192-0.064,0.417-0.064,0.656v4.13h-1.393V238.87z"/>
	<path d="M547.369,240.582c0.032,1.905,1.249,2.689,2.657,2.689c1.008,0,1.617-0.176,2.145-0.4l0.24,1.008
		c-0.496,0.224-1.344,0.48-2.577,0.48c-2.385,0-3.81-1.569-3.81-3.906s1.376-4.178,3.633-4.178c2.529,0,3.201,2.225,3.201,3.649
		c0,0.288-0.032,0.512-0.048,0.656H547.369z M551.499,239.574c0.016-0.896-0.368-2.289-1.953-2.289
		c-1.425,0-2.049,1.312-2.161,2.289H551.499z"/>
	<path d="M561.292,232.835v9.364c0,0.688,0.016,1.473,0.064,2.001h-1.265l-0.064-1.345h-0.032c-0.432,0.865-1.376,1.521-2.641,1.521
		c-1.873,0-3.313-1.585-3.313-3.938c-0.016-2.577,1.584-4.162,3.473-4.162c1.185,0,1.985,0.561,2.337,1.185h0.032v-4.626H561.292z
		 M559.883,239.606c0-0.176-0.016-0.417-0.064-0.592c-0.208-0.896-0.977-1.633-2.033-1.633c-1.457,0-2.321,1.281-2.321,2.993
		c0,1.569,0.769,2.865,2.289,2.865c0.944,0,1.809-0.624,2.065-1.681c0.048-0.192,0.064-0.384,0.064-0.608V239.606z"/>
	<path d="M562.776,246.137c1.136-1.585,2.017-3.666,2.017-6.547c0-2.865-0.864-4.914-2.017-6.499h1.088
		c1.024,1.312,2.097,3.361,2.097,6.515c0,3.137-1.072,5.17-2.097,6.531H562.776z"/>
</g>
<g>
	<rect x="370.75" y="486.912" fill="none" width="196.25" height="66.096"/>
	<path d="M401.473,505.912v-17.848h3.784v17.848H401.473z"/>
	<path d="M422.054,505.912h-3.723v-7.972c0-0.984-0.175-1.724-0.525-2.216c-0.35-0.492-0.908-0.738-1.672-0.738
		c-1.042,0-1.794,0.348-2.258,1.043c-0.464,0.697-0.696,1.85-0.696,3.461v6.422h-3.723v-13.648h2.844l0.5,1.746h0.208
		c0.415-0.659,0.987-1.158,1.715-1.496c0.728-0.337,1.556-0.506,2.484-0.506c1.587,0,2.791,0.43,3.613,1.287
		c0.822,0.859,1.233,2.099,1.233,3.718V505.912z"/>
	<path d="M433.479,492.008c1.611,0,2.873,0.629,3.784,1.887c0.911,1.256,1.367,2.98,1.367,5.169c0,2.255-0.47,4-1.41,5.237
		c-0.939,1.236-2.22,1.855-3.839,1.855c-1.604,0-2.861-0.582-3.772-1.746h-0.256l-0.623,1.502h-2.844v-18.994h3.723v4.418
		c0,0.562-0.049,1.461-0.146,2.698h0.146C430.48,492.684,431.771,492.008,433.479,492.008z M432.283,494.986
		c-0.92,0-1.591,0.283-2.014,0.848c-0.423,0.566-0.643,1.5-0.659,2.803v0.402c0,1.465,0.218,2.515,0.653,3.149
		c0.436,0.635,1.125,0.952,2.069,0.952c0.765,0,1.373-0.352,1.825-1.057c0.451-0.703,0.677-1.727,0.677-3.069
		s-0.228-2.351-0.684-3.021C433.695,495.322,433.072,494.986,432.283,494.986z"/>
	<path d="M454.109,499.063c0,2.222-0.586,3.96-1.758,5.212c-1.172,1.254-2.804,1.881-4.895,1.881c-1.311,0-2.466-0.287-3.467-0.861
		s-1.77-1.397-2.307-2.472s-0.806-2.327-0.806-3.76c0-2.229,0.582-3.963,1.746-5.2c1.164-1.236,2.799-1.855,4.907-1.855
		c1.31,0,2.466,0.285,3.467,0.854s1.77,1.388,2.307,2.454S454.109,497.631,454.109,499.063z M444.673,499.063
		c0,1.351,0.222,2.372,0.666,3.063c0.443,0.692,1.166,1.038,2.167,1.038c0.993,0,1.707-0.344,2.142-1.032
		c0.436-0.688,0.653-1.71,0.653-3.069c0-1.351-0.22-2.364-0.659-3.04c-0.439-0.675-1.16-1.013-2.161-1.013
		c-0.993,0-1.709,0.335-2.148,1.007S444.673,497.705,444.673,499.063z"/>
	<path d="M466.854,505.912l-0.5-1.746h-0.195c-0.399,0.635-0.964,1.125-1.697,1.471s-1.567,0.52-2.502,0.52
		c-1.604,0-2.812-0.43-3.625-1.289c-0.814-0.857-1.221-2.093-1.221-3.704v-8.899h3.723v7.972c0,0.985,0.175,1.724,0.525,2.216
		c0.35,0.492,0.907,0.738,1.672,0.738c1.042,0,1.794-0.348,2.258-1.043c0.464-0.697,0.696-1.85,0.696-3.461v-6.422h3.723v13.648
		H466.854z"/>
	<path d="M486.214,505.912h-3.723v-7.972c0-0.984-0.175-1.724-0.525-2.216c-0.35-0.492-0.908-0.738-1.672-0.738
		c-1.042,0-1.794,0.348-2.258,1.043c-0.464,0.697-0.696,1.85-0.696,3.461v6.422h-3.723v-13.648h2.844l0.5,1.746h0.208
		c0.415-0.659,0.987-1.158,1.715-1.496c0.728-0.337,1.556-0.506,2.484-0.506c1.587,0,2.791,0.43,3.613,1.287
		c0.822,0.859,1.233,2.099,1.233,3.718V505.912z"/>
	<path d="M494.368,506.156c-1.604,0-2.862-0.623-3.778-1.868c-0.915-1.245-1.373-2.97-1.373-5.176c0-2.237,0.466-3.981,1.397-5.231
		c0.932-1.248,2.216-1.873,3.852-1.873c1.717,0,3.027,0.668,3.931,2.002h0.122c-0.188-1.018-0.281-1.924-0.281-2.723v-4.369h3.735
		v18.994h-2.856l-0.72-1.771h-0.159C497.391,505.484,496.102,506.156,494.368,506.156z M495.674,503.189
		c0.952,0,1.65-0.276,2.093-0.83c0.444-0.553,0.686-1.493,0.727-2.82v-0.402c0-1.465-0.226-2.515-0.678-3.149
		c-0.451-0.635-1.186-0.952-2.203-0.952c-0.83,0-1.475,0.352-1.935,1.057c-0.46,0.703-0.69,1.727-0.69,3.069
		s0.232,2.351,0.696,3.021C494.148,502.854,494.812,503.189,495.674,503.189z"/>
	<path d="M524.983,493.631c0,1.922-0.6,3.391-1.801,4.407c-1.2,1.018-2.907,1.526-5.121,1.526h-1.624v6.348h-3.784v-17.848h5.701
		c2.165,0,3.811,0.467,4.938,1.398C524.42,490.395,524.983,491.784,524.983,493.631z M516.438,496.463h1.245
		c1.164,0,2.034-0.229,2.612-0.689c0.578-0.459,0.867-1.129,0.867-2.008c0-0.887-0.242-1.542-0.726-1.965
		c-0.484-0.424-1.244-0.635-2.277-0.635h-1.721V496.463z"/>
	<path d="M534.236,506.156c-2.197,0-3.915-0.606-5.151-1.819c-1.237-1.212-1.855-2.93-1.855-5.151c0-2.287,0.572-4.055,1.715-5.305
		c1.144-1.248,2.724-1.873,4.743-1.873c1.929,0,3.43,0.549,4.504,1.648c1.074,1.098,1.611,2.616,1.611,4.553v1.807h-8.801
		c0.041,1.059,0.354,1.885,0.94,2.479s1.408,0.891,2.466,0.891c0.822,0,1.599-0.086,2.332-0.256
		c0.732-0.172,1.497-0.443,2.295-0.818v2.881c-0.651,0.326-1.347,0.568-2.087,0.727
		C536.206,506.076,535.302,506.156,534.236,506.156z M533.711,494.656c-0.79,0-1.408,0.25-1.855,0.752
		c-0.448,0.5-0.704,1.21-0.769,2.129h5.225c-0.017-0.919-0.256-1.629-0.72-2.129C535.127,494.906,534.5,494.656,533.711,494.656z"/>
	<path d="M549.007,506.156c-2.197,0-3.915-0.606-5.151-1.819c-1.237-1.212-1.855-2.93-1.855-5.151c0-2.287,0.572-4.055,1.715-5.305
		c1.144-1.248,2.724-1.873,4.743-1.873c1.929,0,3.43,0.549,4.504,1.648c1.074,1.098,1.611,2.616,1.611,4.553v1.807h-8.801
		c0.041,1.059,0.354,1.885,0.94,2.479s1.408,0.891,2.466,0.891c0.822,0,1.599-0.086,2.332-0.256
		c0.732-0.172,1.497-0.443,2.295-0.818v2.881c-0.651,0.326-1.347,0.568-2.087,0.727
		C550.976,506.076,550.073,506.156,549.007,506.156z M548.482,494.656c-0.79,0-1.408,0.25-1.855,0.752
		c-0.448,0.5-0.704,1.21-0.769,2.129h5.225c-0.017-0.919-0.256-1.629-0.72-2.129C549.898,494.906,549.271,494.656,548.482,494.656z"
		/>
	<path d="M565.218,492.008c0.504,0,0.923,0.037,1.257,0.109l-0.281,3.492c-0.301-0.082-0.667-0.123-1.099-0.123
		c-1.188,0-2.114,0.306-2.777,0.916c-0.663,0.61-0.995,1.465-0.995,2.563v6.946h-3.723v-13.648h2.82l0.549,2.295h0.183
		c0.423-0.764,0.995-1.381,1.715-1.85C563.588,492.242,564.371,492.008,565.218,492.008z"/>
</g>
<g>
	<rect x="370.75" y="344.952" fill="none" width="196.25" height="66.095"/>
	<path d="M419.454,363.952l-4.297-14.001h-0.11c0.154,2.849,0.232,4.749,0.232,5.701v8.301h-3.381v-17.847h5.151l4.224,13.647h0.073
		l4.48-13.647h5.151v17.847h-3.528v-8.447c0-0.398,0.006-0.858,0.019-1.379c0.012-0.521,0.067-1.904,0.165-4.15h-0.11l-4.602,13.977
		H419.454z"/>
	<path d="M443.843,363.952l-0.72-1.855h-0.098c-0.627,0.79-1.271,1.337-1.935,1.642c-0.663,0.306-1.528,0.458-2.594,0.458
		c-1.311,0-2.342-0.374-3.095-1.123c-0.752-0.749-1.129-1.814-1.129-3.198c0-1.448,0.507-2.517,1.52-3.204
		c1.014-0.688,2.541-1.068,4.584-1.142l2.368-0.073v-0.598c0-1.383-0.708-2.075-2.124-2.075c-1.091,0-2.373,0.33-3.845,0.989
		l-1.233-2.515c1.57-0.822,3.312-1.233,5.225-1.233c1.831,0,3.235,0.399,4.211,1.196c0.977,0.798,1.465,2.01,1.465,3.638v9.094
		H443.843z M442.745,357.628l-1.44,0.049c-1.083,0.033-1.888,0.228-2.417,0.586c-0.529,0.358-0.793,0.903-0.793,1.636
		c0,1.05,0.602,1.575,1.807,1.575c0.862,0,1.552-0.248,2.069-0.745c0.517-0.496,0.775-1.155,0.775-1.978V357.628z"/>
	<path d="M462.874,363.952h-3.723v-7.971c0-0.984-0.175-1.723-0.525-2.215c-0.35-0.493-0.908-0.739-1.672-0.739
		c-1.042,0-1.794,0.348-2.258,1.043c-0.464,0.696-0.696,1.85-0.696,3.461v6.421h-3.723v-13.647h2.844l0.5,1.746h0.208
		c0.415-0.659,0.987-1.158,1.715-1.496c0.728-0.337,1.556-0.506,2.484-0.506c1.587,0,2.791,0.429,3.613,1.288
		c0.822,0.859,1.233,2.098,1.233,3.717V363.952z"/>
	<path d="M476.375,363.952l-0.5-1.746h-0.195c-0.399,0.635-0.964,1.125-1.697,1.471c-0.732,0.346-1.567,0.519-2.502,0.519
		c-1.604,0-2.812-0.429-3.625-1.288c-0.814-0.858-1.221-2.093-1.221-3.705v-8.899h3.723v7.971c0,0.985,0.175,1.723,0.525,2.215
		c0.35,0.493,0.907,0.739,1.672,0.739c1.042,0,1.794-0.348,2.258-1.043c0.464-0.696,0.696-1.85,0.696-3.461v-6.421h3.723v13.647
		H476.375z"/>
	<path d="M491.805,363.952l-0.72-1.855h-0.098c-0.627,0.79-1.271,1.337-1.935,1.642c-0.663,0.306-1.528,0.458-2.594,0.458
		c-1.311,0-2.342-0.374-3.095-1.123c-0.752-0.749-1.129-1.814-1.129-3.198c0-1.448,0.507-2.517,1.52-3.204
		c1.014-0.688,2.541-1.068,4.584-1.142l2.368-0.073v-0.598c0-1.383-0.708-2.075-2.124-2.075c-1.091,0-2.373,0.33-3.845,0.989
		l-1.233-2.515c1.57-0.822,3.312-1.233,5.225-1.233c1.831,0,3.235,0.399,4.211,1.196c0.977,0.798,1.465,2.01,1.465,3.638v9.094
		H491.805z M490.706,357.628l-1.44,0.049c-1.083,0.033-1.888,0.228-2.417,0.586c-0.529,0.358-0.793,0.903-0.793,1.636
		c0,1.05,0.602,1.575,1.807,1.575c0.862,0,1.552-0.248,2.069-0.745c0.517-0.496,0.775-1.155,0.775-1.978V357.628z"/>
	<path d="M501.961,363.952h-3.723v-18.994h3.723V363.952z"/>
	<path d="M524.983,351.671c0,1.921-0.6,3.39-1.801,4.407c-1.2,1.018-2.907,1.526-5.121,1.526h-1.624v6.348h-3.784v-17.847h5.701
		c2.165,0,3.811,0.466,4.938,1.397C524.42,348.435,524.983,349.824,524.983,351.671z M516.438,354.503h1.245
		c1.164,0,2.034-0.23,2.612-0.689c0.578-0.46,0.867-1.129,0.867-2.008c0-0.887-0.242-1.542-0.726-1.965
		c-0.484-0.423-1.244-0.635-2.277-0.635h-1.721V354.503z"/>
	<path d="M534.236,364.196c-2.197,0-3.915-0.606-5.151-1.819c-1.237-1.212-1.855-2.93-1.855-5.151c0-2.287,0.572-4.055,1.715-5.304
		c1.144-1.249,2.724-1.874,4.743-1.874c1.929,0,3.43,0.549,4.504,1.648s1.611,2.617,1.611,4.553v1.807h-8.801
		c0.041,1.058,0.354,1.884,0.94,2.478c0.586,0.594,1.408,0.891,2.466,0.891c0.822,0,1.599-0.085,2.332-0.256
		s1.497-0.443,2.295-0.818v2.881c-0.651,0.326-1.347,0.568-2.087,0.726C536.206,364.117,535.302,364.196,534.236,364.196z
		 M533.711,352.697c-0.79,0-1.408,0.25-1.855,0.751c-0.448,0.5-0.704,1.21-0.769,2.13h5.225c-0.017-0.919-0.256-1.63-0.72-2.13
		C535.127,352.947,534.5,352.697,533.711,352.697z"/>
	<path d="M549.007,364.196c-2.197,0-3.915-0.606-5.151-1.819c-1.237-1.212-1.855-2.93-1.855-5.151c0-2.287,0.572-4.055,1.715-5.304
		c1.144-1.249,2.724-1.874,4.743-1.874c1.929,0,3.43,0.549,4.504,1.648s1.611,2.617,1.611,4.553v1.807h-8.801
		c0.041,1.058,0.354,1.884,0.94,2.478c0.586,0.594,1.408,0.891,2.466,0.891c0.822,0,1.599-0.085,2.332-0.256
		s1.497-0.443,2.295-0.818v2.881c-0.651,0.326-1.347,0.568-2.087,0.726C550.976,364.117,550.073,364.196,549.007,364.196z
		 M548.482,352.697c-0.79,0-1.408,0.25-1.855,0.751c-0.448,0.5-0.704,1.21-0.769,2.13h5.225c-0.017-0.919-0.256-1.63-0.72-2.13
		C549.898,352.947,549.271,352.697,548.482,352.697z"/>
	<path d="M565.218,350.048c0.504,0,0.923,0.037,1.257,0.11l-0.281,3.491c-0.301-0.081-0.667-0.122-1.099-0.122
		c-1.188,0-2.114,0.305-2.777,0.916c-0.663,0.61-0.995,1.465-0.995,2.563v6.946h-3.723v-13.647h2.82l0.549,2.295h0.183
		c0.423-0.765,0.995-1.381,1.715-1.85C563.588,350.282,564.371,350.048,565.218,350.048z"/>
	<path d="M487.322,372.043c-1.168,1.568-2.017,3.649-2.017,6.546c0,2.849,0.88,4.898,2.017,6.499h-1.104
		c-1.008-1.328-2.097-3.377-2.097-6.499c0.016-3.153,1.088-5.202,2.097-6.546H487.322z"/>
	<path d="M496.204,382.799c-0.512,0.256-1.537,0.512-2.849,0.512c-3.041,0-5.33-1.921-5.33-5.458c0-3.377,2.289-5.666,5.634-5.666
		c1.345,0,2.193,0.288,2.561,0.48l-0.336,1.137c-0.528-0.256-1.281-0.448-2.177-0.448c-2.529,0-4.209,1.617-4.209,4.45
		c0,2.641,1.521,4.338,4.146,4.338c0.849,0,1.713-0.176,2.273-0.448L496.204,382.799z"/>
	<path d="M504.732,379.214c0,2.865-1.985,4.114-3.857,4.114c-2.097,0-3.713-1.537-3.713-3.986c0-2.593,1.696-4.114,3.841-4.114
		C503.228,375.228,504.732,376.845,504.732,379.214z M498.585,379.294c0,1.697,0.977,2.977,2.353,2.977
		c1.345,0,2.353-1.265,2.353-3.009c0-1.312-0.656-2.977-2.321-2.977C499.306,376.285,498.585,377.821,498.585,379.294z"/>
	<path d="M506.505,377.501c0-0.8-0.016-1.457-0.064-2.097h1.249l0.08,1.28h0.032c0.384-0.736,1.281-1.457,2.561-1.457
		c1.073,0,2.737,0.641,2.737,3.297v4.626h-1.409v-4.466c0-1.249-0.464-2.289-1.792-2.289c-0.929,0-1.649,0.656-1.889,1.441
		c-0.064,0.176-0.096,0.416-0.096,0.656v4.658h-1.409V377.501z"/>
	<path d="M515.529,383.151v-6.675h-1.088v-1.072h1.088v-0.416c0-2.049,1.201-3.377,3.377-3.377c0.72,0,1.568,0.224,1.969,0.512
		l-0.4,1.072c-0.336-0.24-0.944-0.448-1.632-0.448c-1.489,0-1.921,1.041-1.921,2.273v0.384h4.498v7.747h-1.393v-6.675h-3.105v6.675
		H515.529z"/>
	<path d="M530.428,375.404c-0.032,0.56-0.064,1.185-0.064,2.129v4.498c0,1.777-0.352,2.865-1.104,3.538
		c-0.752,0.704-1.841,0.928-2.817,0.928c-0.928,0-1.953-0.224-2.577-0.64l0.352-1.072c0.512,0.319,1.312,0.608,2.273,0.608
		c1.44,0,2.497-0.752,2.497-2.706v-0.864h-0.032c-0.432,0.72-1.265,1.296-2.465,1.296c-1.921,0-3.297-1.632-3.297-3.777
		c0-2.625,1.712-4.114,3.489-4.114c1.345,0,2.081,0.705,2.417,1.345h0.032l0.064-1.168H530.428z M528.971,378.461
		c0-0.24-0.016-0.448-0.08-0.64c-0.256-0.816-0.944-1.489-1.969-1.489c-1.345,0-2.305,1.137-2.305,2.929
		c0,1.521,0.769,2.785,2.289,2.785c0.864,0,1.648-0.544,1.953-1.44c0.08-0.24,0.112-0.512,0.112-0.752V378.461z"/>
	<path d="M539.179,381.039c0,0.8,0.016,1.504,0.064,2.113h-1.249l-0.08-1.265h-0.032c-0.368,0.625-1.185,1.441-2.561,1.441
		c-1.216,0-2.673-0.672-2.673-3.394v-4.53h1.408v4.29c0,1.473,0.448,2.465,1.729,2.465c0.944,0,1.601-0.656,1.856-1.281
		c0.08-0.208,0.128-0.464,0.128-0.72v-4.754h1.408V381.039z"/>
	<path d="M541.513,377.821c0-0.913-0.016-1.697-0.064-2.417h1.232l0.048,1.521h0.064c0.352-1.041,1.2-1.697,2.145-1.697
		c0.16,0,0.272,0.016,0.4,0.048v1.328c-0.144-0.032-0.288-0.048-0.48-0.048c-0.992,0-1.697,0.752-1.889,1.809
		c-0.032,0.192-0.064,0.417-0.064,0.656v4.13h-1.393V377.821z"/>
	<path d="M547.369,379.534c0.032,1.905,1.249,2.689,2.657,2.689c1.008,0,1.617-0.176,2.145-0.4l0.24,1.008
		c-0.496,0.224-1.344,0.48-2.577,0.48c-2.385,0-3.81-1.569-3.81-3.906s1.376-4.178,3.633-4.178c2.529,0,3.201,2.225,3.201,3.649
		c0,0.288-0.032,0.512-0.048,0.656H547.369z M551.499,378.525c0.016-0.896-0.368-2.289-1.953-2.289
		c-1.425,0-2.049,1.312-2.161,2.289H551.499z"/>
	<path d="M561.292,371.787v9.364c0,0.688,0.016,1.473,0.064,2.001h-1.265l-0.064-1.345h-0.032c-0.432,0.865-1.376,1.521-2.641,1.521
		c-1.873,0-3.313-1.585-3.313-3.938c-0.016-2.577,1.584-4.162,3.473-4.162c1.185,0,1.985,0.561,2.337,1.185h0.032v-4.626H561.292z
		 M559.883,378.558c0-0.176-0.016-0.417-0.064-0.592c-0.208-0.896-0.977-1.633-2.033-1.633c-1.457,0-2.321,1.281-2.321,2.993
		c0,1.569,0.769,2.865,2.289,2.865c0.944,0,1.809-0.624,2.065-1.681c0.048-0.192,0.064-0.384,0.064-0.608V378.558z"/>
	<path d="M562.776,385.088c1.136-1.584,2.017-3.665,2.017-6.546c0-2.865-0.864-4.914-2.017-6.499h1.088
		c1.024,1.312,2.097,3.361,2.097,6.515c0,3.137-1.072,5.17-2.097,6.53H562.776z"/>
</g>
<circle fill="#FFFFFF" stroke="#000000" stroke-width="3" stroke-miterlimit="10" cx="554" cy="411" r="13"/>
<circle cx="78" cy="412" r="13"/>
<g>
</g>
<g>
</g>
<g>
</g>
<g>
</g>
<g>
</g>
<g>
</g>
<g>
</g>
<g>
</g>
<g>
</g>
<g>
</g>
<g>
</g>
<g>
</g>
<g>
</g>
<g>
</g>
<g>
</g>
<g>
</g>
</svg>
