<?xml version="1.0" encoding="utf-8"?>
<!-- Generator: Adobe Illustrator 16.0.4, SVG Export Plug-In . SVG Version: 6.00 Build 0)  -->
<!DOCTYPE svg PUBLIC "-//W3C//DTD SVG 1.1//EN" "http://www.w3.org/Graphics/SVG/1.1/DTD/svg11.dtd">
<svg version="1.1" id="Script_Verify2__x28_P2PKH_x29_"
	 xmlns="http://www.w3.org/2000/svg" xmlns:xlink="http://www.w3.org/1999/xlink" x="0px" y="0px" width="1366px" height="768px"
	 viewBox="0 0 1366 768" enable-background="new 0 0 1366 768" xml:space="preserve">
<rect fill="#FFFFFF" width="1366" height="768"/>
<line fill="none" stroke="#000000" stroke-width="3" stroke-miterlimit="10" x1="116" y1="213.5" x2="579" y2="213.5"/>
<g>
	<rect x="-5.5" y="172.098" fill="none" width="163" height="43"/>
	<path d="M49.295,188.817v-15.705h3.33v12.955h6.37v2.75H49.295z"/>
	<path d="M72.38,182.791c0,1.955-0.516,3.484-1.547,4.587c-1.031,1.103-2.467,1.654-4.308,1.654c-1.153,0-2.17-0.252-3.051-0.757
		s-1.558-1.23-2.03-2.175s-0.709-2.048-0.709-3.309c0-1.962,0.512-3.487,1.536-4.576c1.024-1.088,2.463-1.633,4.318-1.633
		c1.153,0,2.17,0.251,3.051,0.752c0.881,0.501,1.558,1.221,2.03,2.159C72.144,180.432,72.38,181.531,72.38,182.791z M64.076,182.791
		c0,1.189,0.195,2.088,0.585,2.696c0.39,0.609,1.026,0.913,1.907,0.913c0.874,0,1.502-0.302,1.885-0.908
		c0.383-0.605,0.575-1.505,0.575-2.702c0-1.188-0.193-2.08-0.58-2.675c-0.387-0.594-1.021-0.892-1.901-0.892
		c-0.874,0-1.504,0.295-1.891,0.886S64.076,181.595,64.076,182.791z"/>
	<path d="M79.964,189.032c-3.738,0-5.607-2.052-5.607-6.155c0-2.041,0.508-3.6,1.525-4.678c1.017-1.078,2.474-1.617,4.372-1.617
		c1.389,0,2.635,0.272,3.738,0.816l-0.967,2.535c-0.516-0.208-0.996-0.377-1.439-0.51c-0.444-0.132-0.888-0.199-1.332-0.199
		c-1.705,0-2.557,1.21-2.557,3.631c0,2.349,0.852,3.523,2.557,3.523c0.63,0,1.214-0.084,1.751-0.252
		c0.537-0.168,1.074-0.431,1.611-0.79v2.804c-0.53,0.337-1.065,0.569-1.606,0.698C81.469,188.968,80.787,189.032,79.964,189.032z"/>
	<path d="M94.025,188.817l-0.634-1.633h-0.086c-0.552,0.695-1.119,1.176-1.703,1.445c-0.584,0.269-1.345,0.403-2.283,0.403
		c-1.153,0-2.061-0.329-2.723-0.988c-0.663-0.659-0.994-1.597-0.994-2.814c0-1.274,0.446-2.214,1.337-2.82
		c0.892-0.605,2.236-0.94,4.034-1.004l2.084-0.064v-0.526c0-1.217-0.623-1.826-1.869-1.826c-0.96,0-2.088,0.29-3.384,0.87
		l-1.085-2.213c1.382-0.723,2.915-1.085,4.598-1.085c1.611,0,2.847,0.351,3.706,1.053c0.859,0.702,1.289,1.769,1.289,3.201v8.003
		H94.025z M93.059,183.253l-1.268,0.043c-0.953,0.029-1.662,0.201-2.127,0.516c-0.466,0.315-0.698,0.795-0.698,1.439
		c0,0.924,0.53,1.386,1.59,1.386c0.759,0,1.366-0.218,1.821-0.655c0.455-0.437,0.682-1.017,0.682-1.74V183.253z"/>
	<path d="M102.963,188.817h-3.276v-16.715h3.276V188.817z"/>
</g>
<line fill="none" stroke="#000000" stroke-width="3" stroke-miterlimit="10" x1="76" y1="213.5" x2="627" y2="213.5"/>
<g>
	<rect x="490" y="172.098" fill="none" width="163" height="43"/>
	<path d="M573.014,182.791v6.026h-3.33v-15.705h4.576c2.134,0,3.713,0.389,4.737,1.166c1.024,0.777,1.536,1.957,1.536,3.54
		c0,0.924-0.254,1.746-0.763,2.465c-0.509,0.72-1.229,1.284-2.159,1.692c2.363,3.531,3.903,5.812,4.619,6.843h-3.695l-3.749-6.026
		H573.014z M573.014,180.084h1.074c1.053,0,1.83-0.175,2.331-0.526c0.501-0.351,0.752-0.902,0.752-1.654
		c0-0.745-0.256-1.274-0.768-1.59c-0.512-0.315-1.305-0.473-2.379-0.473h-1.01V180.084z"/>
	<path d="M589.385,189.032c-1.934,0-3.445-0.533-4.533-1.601c-1.089-1.067-1.633-2.578-1.633-4.533c0-2.012,0.503-3.568,1.509-4.667
		c1.006-1.099,2.397-1.649,4.173-1.649c1.697,0,3.019,0.483,3.964,1.45s1.418,2.303,1.418,4.007v1.59h-7.745
		c0.036,0.931,0.312,1.658,0.827,2.181c0.516,0.523,1.239,0.784,2.17,0.784c0.723,0,1.407-0.075,2.052-0.226s1.317-0.39,2.02-0.72
		v2.535c-0.573,0.287-1.186,0.5-1.837,0.639C591.118,188.962,590.323,189.032,589.385,189.032z M588.923,178.913
		c-0.695,0-1.239,0.22-1.633,0.661c-0.394,0.44-0.62,1.065-0.677,1.875h4.598c-0.015-0.809-0.226-1.434-0.634-1.875
		S589.617,178.913,588.923,178.913z"/>
	<path d="M607.7,188.817h-3.276v-7.015c0-0.866-0.145-1.516-0.435-1.95c-0.29-0.433-0.747-0.65-1.37-0.65
		c-0.838,0-1.447,0.308-1.826,0.924c-0.38,0.616-0.569,1.629-0.569,3.04v5.65h-3.276v-12.01h2.503l0.44,1.536h0.183
		c0.322-0.551,0.788-0.983,1.396-1.294c0.608-0.312,1.307-0.467,2.095-0.467c1.797,0,3.015,0.587,3.652,1.762h0.29
		c0.322-0.559,0.796-0.992,1.423-1.3c0.626-0.308,1.333-0.462,2.122-0.462c1.36,0,2.39,0.349,3.088,1.047s1.047,1.817,1.047,3.357
		v7.831H611.9v-7.015c0-0.866-0.145-1.516-0.435-1.95c-0.29-0.433-0.747-0.65-1.37-0.65c-0.802,0-1.402,0.287-1.799,0.859
		c-0.397,0.573-0.596,1.482-0.596,2.729V188.817z"/>
	<path d="M629.464,182.791c0,1.955-0.516,3.484-1.547,4.587c-1.031,1.103-2.467,1.654-4.308,1.654c-1.153,0-2.17-0.252-3.051-0.757
		s-1.558-1.23-2.03-2.175s-0.709-2.048-0.709-3.309c0-1.962,0.512-3.487,1.536-4.576c1.024-1.088,2.463-1.633,4.318-1.633
		c1.153,0,2.17,0.251,3.051,0.752c0.881,0.501,1.558,1.221,2.03,2.159C629.228,180.432,629.464,181.531,629.464,182.791z
		 M621.16,182.791c0,1.189,0.195,2.088,0.585,2.696c0.39,0.609,1.026,0.913,1.907,0.913c0.874,0,1.502-0.302,1.885-0.908
		c0.383-0.605,0.575-1.505,0.575-2.702c0-1.188-0.193-2.08-0.58-2.675c-0.387-0.594-1.021-0.892-1.901-0.892
		c-0.874,0-1.504,0.295-1.891,0.886S621.16,181.595,621.16,182.791z"/>
	<path d="M637.23,186.422c0.573,0,1.26-0.125,2.062-0.376v2.438c-0.816,0.365-1.819,0.548-3.008,0.548
		c-1.311,0-2.265-0.331-2.863-0.994c-0.598-0.662-0.897-1.656-0.897-2.981v-5.79h-1.568v-1.386l1.805-1.096l0.945-2.535h2.095v2.557
		h3.362v2.46h-3.362v5.79c0,0.466,0.13,0.81,0.392,1.031C636.455,186.311,636.801,186.422,637.23,186.422z"/>
	<path d="M647.156,189.032c-1.934,0-3.445-0.533-4.533-1.601c-1.089-1.067-1.633-2.578-1.633-4.533c0-2.012,0.503-3.568,1.509-4.667
		c1.006-1.099,2.397-1.649,4.173-1.649c1.697,0,3.019,0.483,3.964,1.45s1.418,2.303,1.418,4.007v1.59h-7.745
		c0.036,0.931,0.312,1.658,0.827,2.181c0.516,0.523,1.239,0.784,2.17,0.784c0.723,0,1.407-0.075,2.052-0.226s1.317-0.39,2.02-0.72
		v2.535c-0.573,0.287-1.186,0.5-1.837,0.639C648.889,188.962,648.094,189.032,647.156,189.032z M646.694,178.913
		c-0.695,0-1.239,0.22-1.633,0.661c-0.394,0.44-0.62,1.065-0.677,1.875h4.598c-0.015-0.809-0.226-1.434-0.634-1.875
		S647.389,178.913,646.694,178.913z"/>
</g>
<circle cx="63" cy="213" r="13"/>
<circle fill="none" stroke="#000000" stroke-width="3" stroke-miterlimit="10" cx="640" cy="213" r="13"/>
<g>
	<rect x="80.642" y="313.799" fill="none" width="242.858" height="27.902"/>
	<path d="M90.234,327.216c0-0.236-0.047-0.449-0.14-0.639c-0.093-0.189-0.251-0.363-0.473-0.521
		c-0.222-0.157-0.516-0.302-0.881-0.435c-0.365-0.132-0.82-0.252-1.364-0.36c-0.666-0.136-1.273-0.301-1.821-0.494
		s-1.017-0.424-1.407-0.693c-0.391-0.269-0.693-0.583-0.908-0.945c-0.215-0.361-0.322-0.782-0.322-1.262
		c0-0.473,0.111-0.915,0.333-1.327c0.222-0.412,0.533-0.771,0.935-1.08c0.401-0.308,0.879-0.551,1.434-0.73
		c0.555-0.179,1.166-0.269,1.832-0.269c0.716,0,1.36,0.093,1.934,0.279c0.573,0.187,1.06,0.444,1.461,0.773
		c0.401,0.33,0.71,0.714,0.929,1.155c0.218,0.44,0.328,0.915,0.328,1.423h-1.987c0-0.25-0.064-0.496-0.193-0.736
		c-0.129-0.24-0.308-0.453-0.537-0.639c-0.229-0.186-0.507-0.336-0.833-0.451c-0.326-0.114-0.693-0.172-1.101-0.172
		c-0.423,0-0.793,0.047-1.112,0.14c-0.319,0.093-0.584,0.219-0.795,0.376c-0.211,0.158-0.371,0.34-0.478,0.548
		c-0.107,0.208-0.161,0.423-0.161,0.645c0,0.229,0.043,0.434,0.129,0.612c0.086,0.179,0.234,0.34,0.446,0.483
		c0.211,0.144,0.494,0.272,0.849,0.387c0.354,0.115,0.804,0.226,1.348,0.333c0.716,0.15,1.357,0.324,1.923,0.521
		c0.565,0.197,1.042,0.434,1.429,0.709c0.387,0.276,0.682,0.596,0.886,0.961s0.306,0.788,0.306,1.268
		c0,0.516-0.117,0.985-0.349,1.407c-0.233,0.423-0.557,0.784-0.972,1.085c-0.416,0.301-0.913,0.534-1.493,0.698
		s-1.214,0.247-1.901,0.247c-0.788,0-1.49-0.106-2.105-0.317c-0.616-0.211-1.137-0.49-1.563-0.838
		c-0.426-0.347-0.752-0.75-0.978-1.208c-0.226-0.458-0.338-0.935-0.338-1.429h1.987c0.028,0.408,0.138,0.752,0.328,1.031
		c0.189,0.279,0.426,0.505,0.709,0.677c0.283,0.172,0.596,0.294,0.94,0.365c0.344,0.072,0.684,0.107,1.021,0.107
		c0.838,0,1.5-0.154,1.987-0.462C89.98,328.133,90.227,327.725,90.234,327.216z"/>
	<path d="M103.254,328.699c-0.387,0.573-0.87,1.019-1.45,1.337s-1.25,0.478-2.009,0.478c-0.609,0-1.16-0.095-1.654-0.285
		s-0.917-0.485-1.268-0.886c-0.351-0.401-0.622-0.911-0.811-1.531c-0.19-0.619-0.285-1.362-0.285-2.229v-6.907h1.987v6.929
		c0,0.63,0.05,1.153,0.15,1.568c0.1,0.416,0.25,0.747,0.451,0.994c0.2,0.247,0.446,0.421,0.736,0.521
		c0.29,0.101,0.625,0.15,1.004,0.15c0.809,0,1.462-0.165,1.96-0.494c0.498-0.329,0.868-0.773,1.112-1.332v-8.336h1.998v11.623
		h-1.805L103.254,328.699z"/>
	<path d="M118.766,324.617c0,0.831-0.101,1.606-0.301,2.326c-0.201,0.72-0.494,1.345-0.881,1.875
		c-0.387,0.53-0.865,0.945-1.434,1.246s-1.223,0.451-1.96,0.451c-0.745,0-1.391-0.133-1.939-0.397s-1.015-0.645-1.402-1.139
		l-0.097,1.321h-1.826v-16.5h1.987v6.123c0.379-0.473,0.838-0.834,1.375-1.085c0.537-0.25,1.164-0.376,1.88-0.376
		c0.745,0,1.403,0.147,1.977,0.44c0.573,0.294,1.053,0.702,1.439,1.225c0.387,0.523,0.68,1.148,0.881,1.875
		c0.2,0.727,0.301,1.524,0.301,2.39V324.617z M116.778,324.391c0-0.565-0.056-1.104-0.167-1.617
		c-0.111-0.512-0.289-0.963-0.532-1.354c-0.244-0.39-0.562-0.7-0.956-0.929c-0.394-0.229-0.877-0.344-1.45-0.344
		c-0.344,0-0.659,0.045-0.945,0.134c-0.287,0.09-0.542,0.215-0.768,0.376s-0.426,0.351-0.602,0.569
		c-0.176,0.219-0.324,0.457-0.446,0.714v5.081c0.129,0.258,0.281,0.496,0.457,0.714c0.175,0.219,0.377,0.41,0.607,0.575
		c0.229,0.165,0.487,0.292,0.773,0.381c0.286,0.09,0.602,0.134,0.945,0.134c0.544,0,1.011-0.113,1.402-0.338
		c0.39-0.226,0.709-0.532,0.956-0.918s0.43-0.834,0.548-1.343c0.118-0.508,0.177-1.045,0.177-1.611V324.391z"/>
	<path d="M129.841,327.216c0-0.236-0.047-0.449-0.14-0.639c-0.093-0.189-0.251-0.363-0.473-0.521
		c-0.222-0.157-0.516-0.302-0.881-0.435c-0.365-0.132-0.82-0.252-1.364-0.36c-0.666-0.136-1.273-0.301-1.821-0.494
		s-1.017-0.424-1.407-0.693c-0.391-0.269-0.693-0.583-0.908-0.945c-0.215-0.361-0.322-0.782-0.322-1.262
		c0-0.473,0.111-0.915,0.333-1.327c0.222-0.412,0.533-0.771,0.935-1.08c0.401-0.308,0.879-0.551,1.434-0.73
		c0.555-0.179,1.166-0.269,1.832-0.269c0.716,0,1.36,0.093,1.934,0.279c0.573,0.187,1.06,0.444,1.461,0.773
		c0.401,0.33,0.71,0.714,0.929,1.155c0.218,0.44,0.328,0.915,0.328,1.423h-1.987c0-0.25-0.064-0.496-0.193-0.736
		c-0.129-0.24-0.308-0.453-0.537-0.639c-0.229-0.186-0.507-0.336-0.833-0.451c-0.326-0.114-0.693-0.172-1.101-0.172
		c-0.423,0-0.793,0.047-1.112,0.14c-0.319,0.093-0.584,0.219-0.795,0.376c-0.211,0.158-0.371,0.34-0.478,0.548
		c-0.107,0.208-0.161,0.423-0.161,0.645c0,0.229,0.043,0.434,0.129,0.612c0.086,0.179,0.234,0.34,0.446,0.483
		c0.211,0.144,0.494,0.272,0.849,0.387c0.354,0.115,0.804,0.226,1.348,0.333c0.716,0.15,1.357,0.324,1.923,0.521
		c0.565,0.197,1.042,0.434,1.429,0.709c0.387,0.276,0.682,0.596,0.886,0.961s0.306,0.788,0.306,1.268
		c0,0.516-0.117,0.985-0.349,1.407c-0.233,0.423-0.557,0.784-0.972,1.085c-0.416,0.301-0.913,0.534-1.493,0.698
		s-1.214,0.247-1.901,0.247c-0.788,0-1.49-0.106-2.105-0.317c-0.616-0.211-1.137-0.49-1.563-0.838
		c-0.426-0.347-0.752-0.75-0.978-1.208c-0.226-0.458-0.338-0.935-0.338-1.429h1.987c0.028,0.408,0.138,0.752,0.328,1.031
		c0.189,0.279,0.426,0.505,0.709,0.677c0.283,0.172,0.596,0.294,0.94,0.365c0.344,0.072,0.684,0.107,1.021,0.107
		c0.838,0,1.5-0.154,1.987-0.462C129.586,328.133,129.833,327.725,129.841,327.216z"/>
	<path d="M140.271,328.903c0.358,0,0.707-0.057,1.047-0.172c0.34-0.114,0.643-0.274,0.908-0.478c0.265-0.204,0.478-0.444,0.639-0.72
		c0.161-0.275,0.245-0.575,0.252-0.897h1.88c-0.007,0.516-0.142,1.008-0.403,1.477c-0.262,0.469-0.611,0.881-1.047,1.235
		c-0.437,0.354-0.938,0.638-1.504,0.849c-0.566,0.211-1.157,0.317-1.772,0.317c-0.881,0-1.651-0.158-2.31-0.473
		c-0.659-0.315-1.208-0.739-1.649-1.273c-0.44-0.533-0.772-1.149-0.994-1.848c-0.222-0.698-0.333-1.434-0.333-2.208v-0.451
		c0-0.766,0.111-1.5,0.333-2.202c0.222-0.702,0.553-1.319,0.994-1.853c0.44-0.533,0.99-0.958,1.649-1.273
		c0.659-0.315,1.429-0.473,2.31-0.473c0.688,0,1.319,0.109,1.896,0.328c0.576,0.219,1.074,0.516,1.493,0.892
		s0.747,0.822,0.983,1.337s0.354,1.067,0.354,1.654h-1.88c-0.007-0.351-0.084-0.682-0.231-0.994
		c-0.147-0.312-0.346-0.585-0.596-0.822c-0.251-0.236-0.55-0.422-0.897-0.559c-0.348-0.136-0.722-0.204-1.123-0.204
		c-0.616,0-1.133,0.124-1.552,0.371s-0.757,0.569-1.015,0.967s-0.442,0.843-0.553,1.337c-0.111,0.494-0.167,0.992-0.167,1.493v0.451
		c0,0.509,0.055,1.012,0.167,1.509c0.111,0.498,0.293,0.945,0.548,1.343c0.254,0.397,0.591,0.72,1.01,0.967
		S139.648,328.903,140.271,328.903z"/>
	<path d="M156.138,318.461c0.186,0,0.379,0.005,0.58,0.016c0.2,0.011,0.392,0.029,0.575,0.054c0.183,0.025,0.351,0.056,0.505,0.091
		c0.154,0.036,0.281,0.075,0.381,0.118l-0.269,1.944c-0.387-0.086-0.754-0.148-1.101-0.188c-0.348-0.039-0.711-0.059-1.09-0.059
		c-0.931,0-1.685,0.211-2.261,0.634c-0.577,0.423-1.001,1.014-1.273,1.772v7.455h-1.998v-11.623h1.891l0.097,1.848
		c0.473-0.637,1.04-1.14,1.703-1.509C154.539,318.646,155.292,318.461,156.138,318.461z"/>
	<path d="M162.035,318.676h5.94v9.904h3.792v1.719h-9.732v-1.719h3.953v-8.175h-3.953V318.676z M165.73,315.625
		c0-0.329,0.098-0.607,0.295-0.833c0.197-0.226,0.496-0.338,0.897-0.338c0.394,0,0.691,0.113,0.892,0.338
		c0.2,0.226,0.301,0.503,0.301,0.833c0,0.322-0.101,0.591-0.301,0.806c-0.201,0.215-0.498,0.322-0.892,0.322
		c-0.401,0-0.7-0.107-0.897-0.322C165.829,316.216,165.73,315.948,165.73,315.625z"/>
	<path d="M184.776,324.617c0,0.831-0.101,1.606-0.301,2.326c-0.201,0.72-0.494,1.345-0.881,1.875
		c-0.387,0.53-0.865,0.945-1.434,1.246s-1.223,0.451-1.96,0.451c-0.745,0-1.391-0.133-1.939-0.397s-1.015-0.645-1.402-1.139
		l-0.097,1.321h-1.826v-16.5h1.987v6.123c0.379-0.473,0.838-0.834,1.375-1.085c0.537-0.25,1.164-0.376,1.88-0.376
		c0.745,0,1.403,0.147,1.977,0.44c0.573,0.294,1.053,0.702,1.439,1.225c0.387,0.523,0.68,1.148,0.881,1.875
		c0.2,0.727,0.301,1.524,0.301,2.39V324.617z M182.789,324.391c0-0.565-0.056-1.104-0.167-1.617
		c-0.111-0.512-0.289-0.963-0.532-1.354c-0.244-0.39-0.562-0.7-0.956-0.929c-0.394-0.229-0.877-0.344-1.45-0.344
		c-0.344,0-0.659,0.045-0.945,0.134c-0.287,0.09-0.542,0.215-0.768,0.376s-0.426,0.351-0.602,0.569
		c-0.176,0.219-0.324,0.457-0.446,0.714v5.081c0.129,0.258,0.281,0.496,0.457,0.714c0.175,0.219,0.377,0.41,0.607,0.575
		c0.229,0.165,0.487,0.292,0.773,0.381c0.286,0.09,0.602,0.134,0.945,0.134c0.544,0,1.011-0.113,1.402-0.338
		c0.39-0.226,0.709-0.532,0.956-0.918s0.43-0.834,0.548-1.343c0.118-0.508,0.177-1.045,0.177-1.611V324.391z"/>
	<path d="M193.263,330.514c-0.816,0-1.567-0.14-2.25-0.419c-0.684-0.279-1.27-0.669-1.756-1.171
		c-0.487-0.501-0.867-1.096-1.139-1.783c-0.272-0.688-0.408-1.436-0.408-2.245v-0.451c0-0.938,0.15-1.778,0.451-2.519
		s0.7-1.368,1.198-1.88c0.498-0.512,1.063-0.904,1.697-1.176c0.634-0.272,1.284-0.408,1.95-0.408c0.838,0,1.57,0.145,2.197,0.435
		c0.626,0.29,1.147,0.691,1.563,1.203c0.415,0.512,0.725,1.116,0.929,1.81c0.204,0.695,0.306,1.447,0.306,2.256v0.892h-8.304
		c0.021,0.53,0.124,1.028,0.306,1.493c0.183,0.466,0.433,0.872,0.752,1.219c0.318,0.348,0.7,0.622,1.144,0.822
		c0.444,0.201,0.935,0.301,1.472,0.301c0.709,0,1.339-0.143,1.891-0.43c0.551-0.286,1.01-0.666,1.375-1.139l1.214,0.945
		c-0.193,0.294-0.435,0.575-0.725,0.843s-0.625,0.507-1.004,0.714c-0.38,0.208-0.81,0.375-1.289,0.5
		C194.351,330.451,193.828,330.514,193.263,330.514z M193.005,320.094c-0.401,0-0.781,0.074-1.139,0.22
		c-0.358,0.147-0.681,0.362-0.967,0.645c-0.287,0.283-0.528,0.63-0.725,1.042c-0.197,0.412-0.335,0.886-0.414,1.423h6.252v-0.15
		c-0.021-0.387-0.095-0.77-0.22-1.149c-0.125-0.379-0.31-0.72-0.553-1.021c-0.244-0.301-0.55-0.544-0.918-0.73
		C193.952,320.188,193.513,320.094,193.005,320.094z"/>
	<path d="M203.296,323.951c0-1.024,0.081-1.987,0.242-2.89s0.377-1.738,0.65-2.508c0.272-0.77,0.585-1.473,0.94-2.111
		c0.354-0.637,0.727-1.203,1.117-1.697c0.39-0.494,0.782-0.917,1.176-1.268c0.394-0.351,0.77-0.626,1.128-0.827l0.419,1.311
		c-0.444,0.337-0.886,0.795-1.327,1.375s-0.834,1.284-1.182,2.111c-0.348,0.827-0.63,1.78-0.849,2.857
		c-0.219,1.078-0.328,2.287-0.328,3.625v0.15c0,1.339,0.109,2.55,0.328,3.631c0.218,1.082,0.501,2.038,0.849,2.868
		c0.347,0.831,0.741,1.542,1.182,2.132s0.882,1.065,1.327,1.423l-0.419,1.214c-0.358-0.201-0.736-0.475-1.133-0.822
		c-0.397-0.348-0.792-0.77-1.182-1.268c-0.391-0.498-0.763-1.063-1.117-1.697s-0.666-1.335-0.935-2.105
		c-0.269-0.77-0.483-1.606-0.645-2.508s-0.242-1.865-0.242-2.89V323.951z"/>
	<path d="M219.119,326.851l0.15,0.838l0.15-0.806l2.557-8.207h3.115l-4.415,11.623h-2.804l-4.437-11.623h3.115L219.119,326.851z"/>
	<path d="M233.02,330.514c-0.896,0-1.708-0.147-2.438-0.44s-1.357-0.693-1.88-1.198c-0.523-0.505-0.926-1.099-1.208-1.783
		c-0.283-0.684-0.424-1.416-0.424-2.197v-0.43c0-0.888,0.14-1.699,0.419-2.433c0.279-0.734,0.669-1.366,1.171-1.896
		c0.501-0.53,1.096-0.941,1.783-1.235c0.688-0.293,1.436-0.44,2.245-0.44c0.838,0,1.584,0.138,2.24,0.414
		c0.655,0.276,1.21,0.665,1.665,1.166c0.455,0.501,0.8,1.105,1.037,1.81c0.236,0.706,0.354,1.484,0.354,2.336v1.268h-7.885
		c0.057,0.394,0.173,0.754,0.349,1.08c0.175,0.326,0.399,0.607,0.671,0.843c0.272,0.236,0.583,0.419,0.935,0.548
		c0.351,0.129,0.734,0.193,1.149,0.193c0.293,0,0.585-0.028,0.875-0.086c0.29-0.057,0.567-0.141,0.833-0.252
		c0.265-0.111,0.512-0.249,0.741-0.414c0.229-0.165,0.43-0.358,0.602-0.58l1.493,1.611c-0.187,0.265-0.428,0.525-0.725,0.779
		c-0.297,0.254-0.648,0.48-1.053,0.677c-0.405,0.197-0.854,0.356-1.348,0.478S233.592,330.514,233.02,330.514z M232.665,320.878
		c-0.337,0-0.645,0.059-0.924,0.177s-0.525,0.289-0.736,0.51c-0.211,0.222-0.389,0.487-0.532,0.795
		c-0.144,0.308-0.251,0.652-0.322,1.031h4.898v-0.236c-0.015-0.315-0.075-0.612-0.183-0.892s-0.262-0.521-0.462-0.725
		c-0.201-0.204-0.446-0.365-0.736-0.483S233.044,320.878,232.665,320.878z"/>
	<path d="M248.929,318.461c0.451,0,0.868,0.031,1.251,0.091c0.383,0.061,0.693,0.127,0.929,0.199l-0.44,2.976
		c-0.394-0.093-0.797-0.163-1.208-0.209c-0.412-0.046-0.804-0.07-1.176-0.07c-0.838,0-1.509,0.161-2.014,0.483
		s-0.883,0.784-1.133,1.386v6.982h-2.986v-11.623h2.782l0.14,1.901c0.473-0.659,1.038-1.176,1.697-1.552
		C247.428,318.649,248.148,318.461,248.929,318.461z"/>
	<path d="M261.282,327.109c0-0.179-0.042-0.336-0.124-0.473c-0.083-0.136-0.229-0.263-0.44-0.381
		c-0.211-0.118-0.493-0.227-0.843-0.328c-0.351-0.1-0.795-0.2-1.332-0.301c-0.681-0.136-1.302-0.306-1.864-0.51
		c-0.562-0.204-1.044-0.451-1.445-0.741c-0.401-0.29-0.714-0.625-0.94-1.004c-0.226-0.379-0.338-0.816-0.338-1.311
		c0-0.479,0.114-0.938,0.344-1.375c0.229-0.437,0.559-0.82,0.988-1.149c0.43-0.329,0.952-0.591,1.568-0.784
		c0.616-0.193,1.311-0.29,2.084-0.29c0.809,0,1.536,0.095,2.181,0.285c0.645,0.19,1.19,0.451,1.638,0.784
		c0.447,0.333,0.79,0.729,1.026,1.187c0.236,0.458,0.354,0.956,0.354,1.493h-2.986c0-0.451-0.183-0.829-0.548-1.133
		c-0.365-0.304-0.92-0.457-1.665-0.457c-0.695,0-1.219,0.125-1.574,0.376c-0.354,0.251-0.532,0.559-0.532,0.924
		c0,0.172,0.036,0.332,0.107,0.478c0.071,0.147,0.199,0.279,0.381,0.397s0.431,0.226,0.747,0.322
		c0.315,0.097,0.716,0.181,1.203,0.252c0.702,0.115,1.354,0.262,1.955,0.44c0.602,0.179,1.121,0.41,1.558,0.693
		c0.437,0.283,0.779,0.627,1.026,1.031c0.247,0.405,0.371,0.886,0.371,1.445c0,0.516-0.124,0.99-0.371,1.423
		c-0.247,0.434-0.598,0.808-1.053,1.123c-0.455,0.315-1.004,0.561-1.649,0.736s-1.364,0.263-2.159,0.263
		c-0.874,0-1.646-0.115-2.315-0.344c-0.67-0.229-1.23-0.528-1.681-0.897c-0.451-0.369-0.793-0.788-1.026-1.257
		c-0.233-0.469-0.349-0.94-0.349-1.413h2.847c0.021,0.315,0.107,0.585,0.258,0.811s0.344,0.408,0.58,0.548s0.506,0.242,0.811,0.306
		c0.304,0.064,0.618,0.097,0.94,0.097c0.737,0,1.3-0.118,1.687-0.354S261.282,327.481,261.282,327.109z"/>
	<path d="M267.781,318.676h6.327v9.195h3.147v2.428h-9.475v-2.428h3.309v-6.757h-3.309V318.676z M270.875,315.701
		c0-0.229,0.041-0.442,0.124-0.639c0.082-0.197,0.199-0.365,0.349-0.505s0.331-0.249,0.542-0.328
		c0.211-0.079,0.446-0.118,0.704-0.118c0.53,0,0.951,0.149,1.262,0.446c0.312,0.297,0.467,0.679,0.467,1.144
		c0,0.466-0.156,0.847-0.467,1.144c-0.312,0.297-0.732,0.446-1.262,0.446c-0.258,0-0.493-0.039-0.704-0.118
		c-0.211-0.079-0.392-0.188-0.542-0.328s-0.267-0.308-0.349-0.505C270.916,316.143,270.875,315.93,270.875,315.701z"/>
	<path d="M279.78,324.38c0-0.845,0.122-1.627,0.365-2.347c0.243-0.72,0.6-1.344,1.069-1.875c0.469-0.53,1.042-0.945,1.719-1.246
		s1.452-0.451,2.326-0.451c0.874,0,1.65,0.15,2.331,0.451c0.68,0.301,1.255,0.716,1.724,1.246c0.469,0.53,0.825,1.155,1.069,1.875
		c0.243,0.72,0.365,1.502,0.365,2.347v0.226c0,0.853-0.122,1.638-0.365,2.358c-0.244,0.72-0.598,1.345-1.063,1.875
		c-0.466,0.53-1.039,0.944-1.719,1.241c-0.681,0.297-1.454,0.446-2.32,0.446c-0.874,0-1.653-0.149-2.336-0.446
		c-0.684-0.297-1.261-0.71-1.729-1.241c-0.469-0.53-0.826-1.155-1.069-1.875c-0.244-0.72-0.365-1.505-0.365-2.358V324.38z
		 M282.767,324.606c0,0.487,0.046,0.944,0.14,1.37c0.093,0.426,0.24,0.799,0.44,1.117c0.2,0.319,0.46,0.571,0.779,0.757
		c0.318,0.187,0.704,0.279,1.155,0.279c0.437,0,0.812-0.093,1.128-0.279c0.315-0.186,0.571-0.438,0.768-0.757
		c0.197-0.318,0.342-0.691,0.435-1.117c0.093-0.426,0.14-0.882,0.14-1.37v-0.226c0-0.473-0.047-0.92-0.14-1.343
		c-0.093-0.422-0.238-0.795-0.435-1.117c-0.197-0.322-0.453-0.576-0.768-0.763c-0.315-0.186-0.698-0.279-1.149-0.279
		c-0.444,0-0.824,0.093-1.139,0.279c-0.315,0.187-0.573,0.44-0.773,0.763c-0.201,0.322-0.348,0.695-0.44,1.117
		c-0.093,0.423-0.14,0.87-0.14,1.343V324.606z"/>
	<path d="M296.098,318.676l0.183,1.611c0.415-0.58,0.92-1.029,1.515-1.348c0.594-0.318,1.253-0.478,1.977-0.478
		c0.587,0,1.124,0.086,1.611,0.258c0.487,0.172,0.908,0.446,1.262,0.822s0.63,0.859,0.827,1.45c0.197,0.591,0.295,1.309,0.295,2.154
		v7.154h-2.986v-7.111c0-0.458-0.052-0.836-0.156-1.133c-0.104-0.297-0.252-0.532-0.446-0.704s-0.426-0.292-0.698-0.36
		c-0.272-0.068-0.58-0.102-0.924-0.102c-0.509,0-0.942,0.102-1.3,0.306c-0.358,0.204-0.648,0.485-0.87,0.843v8.261h-2.997v-11.623
		H296.098z"/>
	<path d="M314.198,324.058c0,1.024-0.081,1.987-0.242,2.89s-0.378,1.739-0.65,2.508c-0.272,0.77-0.585,1.472-0.94,2.105
		s-0.727,1.199-1.117,1.697c-0.391,0.498-0.784,0.92-1.182,1.268c-0.397,0.347-0.775,0.621-1.133,0.822l-0.419-1.214
		c0.444-0.33,0.886-0.79,1.327-1.38s0.834-1.305,1.182-2.143c0.347-0.838,0.63-1.801,0.849-2.89
		c0.218-1.088,0.328-2.302,0.328-3.642v-0.15c0-1.339-0.115-2.555-0.344-3.647c-0.229-1.092-0.525-2.059-0.886-2.9
		c-0.362-0.841-0.759-1.556-1.192-2.143c-0.434-0.587-0.854-1.045-1.262-1.375l0.419-1.214c0.358,0.201,0.736,0.477,1.133,0.827
		c0.397,0.351,0.791,0.773,1.182,1.268c0.39,0.494,0.763,1.06,1.117,1.697c0.354,0.638,0.667,1.341,0.94,2.111
		c0.272,0.77,0.489,1.606,0.65,2.508s0.242,1.866,0.242,2.89V324.058z"/>
</g>
<g>
	<rect x="394.142" y="352.2" fill="none" width="242.858" height="42.6"/>
	<path d="M399.503,363.081l3.023-10.178h1.731l-4.034,12.797h-1.415l-4.043-12.797h1.74L399.503,363.081z"/>
	<path d="M410.674,365.875c-0.668,0-1.282-0.114-1.841-0.343s-1.039-0.548-1.437-0.958s-0.709-0.896-0.932-1.459
		s-0.334-1.175-0.334-1.837v-0.369c0-0.768,0.123-1.455,0.369-2.061s0.573-1.119,0.98-1.538s0.87-0.74,1.389-0.962
		s1.05-0.334,1.595-0.334c0.686,0,1.285,0.119,1.797,0.356s0.939,0.565,1.279,0.984s0.593,0.913,0.76,1.481s0.25,1.184,0.25,1.846
		v0.729h-6.794c0.018,0.434,0.101,0.841,0.25,1.222s0.354,0.713,0.615,0.998s0.573,0.508,0.936,0.672s0.765,0.246,1.204,0.246
		c0.58,0,1.096-0.117,1.547-0.352s0.826-0.545,1.125-0.932l0.993,0.773c-0.158,0.24-0.356,0.47-0.593,0.69s-0.511,0.415-0.822,0.584
		s-0.662,0.306-1.055,0.409S411.137,365.875,410.674,365.875z M410.463,357.35c-0.328,0-0.639,0.06-0.932,0.18
		s-0.557,0.296-0.791,0.527s-0.432,0.516-0.593,0.853s-0.274,0.725-0.338,1.165h5.115v-0.123c-0.018-0.316-0.078-0.63-0.18-0.94
		s-0.253-0.589-0.453-0.835s-0.45-0.445-0.751-0.598S410.879,357.35,410.463,357.35z"/>
	<path d="M423.506,356.014c0.152,0,0.311,0.004,0.475,0.013s0.321,0.023,0.47,0.044s0.287,0.045,0.413,0.075s0.23,0.062,0.312,0.097
		l-0.22,1.591c-0.316-0.07-0.617-0.122-0.901-0.154s-0.582-0.048-0.892-0.048c-0.762,0-1.378,0.173-1.85,0.519
		s-0.819,0.829-1.042,1.45v6.1h-1.635v-9.51h1.547l0.079,1.512c0.387-0.521,0.851-0.933,1.393-1.235
		S422.814,356.014,423.506,356.014z"/>
	<path d="M434.396,363.177c0-0.193-0.038-0.368-0.114-0.523s-0.205-0.297-0.387-0.426s-0.422-0.248-0.721-0.356
		s-0.671-0.207-1.116-0.294c-0.545-0.111-1.042-0.246-1.49-0.404s-0.832-0.347-1.151-0.567s-0.567-0.478-0.743-0.773
		s-0.264-0.64-0.264-1.033c0-0.387,0.091-0.749,0.272-1.085s0.437-0.631,0.765-0.883s0.719-0.451,1.173-0.598s0.954-0.22,1.499-0.22
		c0.586,0,1.113,0.076,1.582,0.229s0.867,0.363,1.195,0.633s0.582,0.584,0.76,0.945s0.268,0.749,0.268,1.165h-1.626
		c0-0.205-0.053-0.406-0.158-0.602s-0.252-0.371-0.439-0.523s-0.415-0.275-0.681-0.369s-0.567-0.141-0.901-0.141
		c-0.346,0-0.649,0.038-0.91,0.114s-0.478,0.179-0.65,0.308s-0.303,0.278-0.391,0.448s-0.132,0.346-0.132,0.527
		c0,0.188,0.035,0.354,0.105,0.501s0.192,0.278,0.365,0.396s0.404,0.223,0.694,0.316s0.658,0.185,1.103,0.272
		c0.586,0.123,1.11,0.265,1.573,0.426s0.853,0.354,1.169,0.58s0.558,0.488,0.725,0.787s0.25,0.645,0.25,1.037
		c0,0.422-0.095,0.806-0.286,1.151s-0.456,0.642-0.795,0.888s-0.747,0.437-1.222,0.571s-0.993,0.202-1.556,0.202
		c-0.645,0-1.219-0.086-1.723-0.259s-0.93-0.401-1.279-0.686s-0.615-0.614-0.8-0.989s-0.277-0.765-0.277-1.169h1.626
		c0.023,0.334,0.113,0.615,0.268,0.844s0.349,0.413,0.58,0.554s0.488,0.24,0.769,0.299s0.56,0.088,0.835,0.088
		c0.686,0,1.228-0.126,1.626-0.378S434.39,363.593,434.396,363.177z"/>
	<path d="M439.133,356.19h4.86v8.104h3.103v1.406h-7.963v-1.406h3.234v-6.688h-3.234V356.19z M442.156,353.694
		c0-0.27,0.081-0.497,0.242-0.681s0.406-0.277,0.734-0.277c0.322,0,0.565,0.092,0.729,0.277s0.246,0.412,0.246,0.681
		c0,0.264-0.082,0.483-0.246,0.659s-0.407,0.264-0.729,0.264c-0.328,0-0.573-0.088-0.734-0.264S442.156,353.958,442.156,353.694z"/>
	<path d="M449.223,360.857c0-0.686,0.1-1.323,0.299-1.912s0.485-1.1,0.857-1.534s0.825-0.775,1.358-1.024s1.134-0.374,1.802-0.374
		c0.674,0,1.279,0.125,1.815,0.374s0.99,0.59,1.362,1.024s0.658,0.945,0.857,1.534s0.299,1.226,0.299,1.912v0.193
		c0,0.686-0.1,1.321-0.299,1.907s-0.485,1.096-0.857,1.529s-0.825,0.773-1.358,1.02s-1.134,0.369-1.802,0.369
		c-0.674,0-1.279-0.123-1.815-0.369s-0.99-0.586-1.362-1.02s-0.658-0.943-0.857-1.529s-0.299-1.222-0.299-1.907V360.857z
		 M450.849,361.05c0,0.469,0.056,0.916,0.167,1.34s0.28,0.798,0.505,1.121s0.508,0.577,0.848,0.765s0.735,0.281,1.187,0.281
		c0.445,0,0.836-0.094,1.173-0.281s0.618-0.442,0.844-0.765s0.394-0.696,0.505-1.121s0.167-0.872,0.167-1.34v-0.193
		c0-0.463-0.057-0.907-0.171-1.332s-0.284-0.798-0.51-1.121s-0.507-0.579-0.844-0.769s-0.731-0.286-1.182-0.286
		s-0.844,0.095-1.178,0.286s-0.614,0.447-0.839,0.769s-0.394,0.696-0.505,1.121s-0.167,0.869-0.167,1.332V361.05z"/>
	<path d="M461.94,356.19l0.114,1.406c0.346-0.492,0.771-0.877,1.274-1.156s1.066-0.42,1.688-0.426c0.498,0,0.951,0.07,1.358,0.211
		s0.754,0.36,1.042,0.659s0.508,0.678,0.664,1.138s0.233,1.006,0.233,1.639v6.038h-1.626v-6.003c0-0.422-0.047-0.779-0.141-1.072
		s-0.233-0.53-0.417-0.712s-0.41-0.313-0.677-0.396s-0.573-0.123-0.918-0.123c-0.545,0-1.024,0.136-1.437,0.409
		s-0.743,0.631-0.989,1.077v6.82h-1.626v-9.51H461.94z"/>
	<path d="M483.544,356.19l0.114,1.406c0.346-0.492,0.771-0.877,1.274-1.156s1.066-0.42,1.688-0.426c0.498,0,0.951,0.07,1.358,0.211
		s0.754,0.36,1.042,0.659s0.508,0.678,0.664,1.138s0.233,1.006,0.233,1.639v6.038h-1.626v-6.003c0-0.422-0.047-0.779-0.141-1.072
		s-0.233-0.53-0.417-0.712s-0.41-0.313-0.677-0.396s-0.573-0.123-0.918-0.123c-0.545,0-1.024,0.136-1.437,0.409
		s-0.743,0.631-0.989,1.077v6.82h-1.626v-9.51H483.544z"/>
	<path d="M497.088,365.875c-0.668,0-1.282-0.114-1.841-0.343s-1.039-0.548-1.437-0.958s-0.709-0.896-0.932-1.459
		s-0.334-1.175-0.334-1.837v-0.369c0-0.768,0.123-1.455,0.369-2.061s0.573-1.119,0.98-1.538s0.87-0.74,1.389-0.962
		s1.05-0.334,1.595-0.334c0.686,0,1.285,0.119,1.797,0.356s0.939,0.565,1.279,0.984s0.593,0.913,0.76,1.481s0.25,1.184,0.25,1.846
		v0.729h-6.794c0.018,0.434,0.101,0.841,0.25,1.222s0.354,0.713,0.615,0.998s0.573,0.508,0.936,0.672s0.765,0.246,1.204,0.246
		c0.58,0,1.096-0.117,1.547-0.352s0.826-0.545,1.125-0.932l0.993,0.773c-0.158,0.24-0.356,0.47-0.593,0.69s-0.511,0.415-0.822,0.584
		s-0.662,0.306-1.055,0.409S497.551,365.875,497.088,365.875z M496.877,357.35c-0.328,0-0.639,0.06-0.932,0.18
		s-0.557,0.296-0.791,0.527s-0.432,0.516-0.593,0.853s-0.274,0.725-0.338,1.165h5.115v-0.123c-0.018-0.316-0.078-0.63-0.18-0.94
		s-0.253-0.589-0.453-0.835s-0.45-0.445-0.751-0.598S497.293,357.35,496.877,357.35z"/>
	<path d="M503.39,360.866c0-0.709,0.086-1.361,0.259-1.956s0.423-1.106,0.751-1.534s0.727-0.762,1.195-1.002s0.999-0.36,1.591-0.36
		c0.586,0,1.1,0.104,1.542,0.312s0.819,0.508,1.129,0.901l0.079-1.037h1.477v9.308c0,0.627-0.098,1.184-0.294,1.67
		s-0.472,0.899-0.826,1.239s-0.778,0.598-1.27,0.773s-1.037,0.264-1.635,0.264c-0.246,0-0.527-0.028-0.844-0.083
		s-0.637-0.146-0.962-0.272s-0.639-0.294-0.94-0.505s-0.561-0.472-0.778-0.782l0.844-0.976c0.199,0.24,0.404,0.444,0.615,0.611
		s0.425,0.3,0.642,0.4s0.434,0.171,0.65,0.215s0.434,0.066,0.65,0.066c0.387,0,0.735-0.056,1.046-0.167s0.576-0.274,0.795-0.488
		s0.388-0.479,0.505-0.795s0.176-0.68,0.176-1.09v-0.817c-0.316,0.363-0.69,0.64-1.121,0.831s-0.93,0.286-1.499,0.286
		c-0.58,0-1.104-0.123-1.573-0.369s-0.866-0.586-1.191-1.02s-0.576-0.945-0.751-1.534s-0.264-1.223-0.264-1.903V360.866z
		 M505.016,361.05c0,0.463,0.048,0.902,0.145,1.318s0.249,0.782,0.457,1.099s0.473,0.567,0.795,0.751s0.709,0.277,1.16,0.277
		c0.281,0,0.535-0.034,0.76-0.101s0.428-0.163,0.606-0.286s0.338-0.27,0.479-0.439s0.264-0.357,0.369-0.562v-4.359
		c-0.105-0.199-0.229-0.381-0.369-0.545s-0.302-0.306-0.483-0.426s-0.384-0.214-0.606-0.281s-0.469-0.101-0.738-0.101
		c-0.457,0-0.848,0.094-1.173,0.281s-0.592,0.441-0.8,0.76s-0.36,0.688-0.457,1.107s-0.145,0.86-0.145,1.323V361.05z"/>
	<path d="M514.033,360.857c0-0.686,0.1-1.323,0.299-1.912s0.485-1.1,0.857-1.534s0.825-0.775,1.358-1.024s1.134-0.374,1.802-0.374
		c0.674,0,1.279,0.125,1.815,0.374s0.99,0.59,1.362,1.024s0.658,0.945,0.857,1.534s0.299,1.226,0.299,1.912v0.193
		c0,0.686-0.1,1.321-0.299,1.907s-0.485,1.096-0.857,1.529s-0.825,0.773-1.358,1.02s-1.134,0.369-1.802,0.369
		c-0.674,0-1.279-0.123-1.815-0.369s-0.99-0.586-1.362-1.02s-0.658-0.943-0.857-1.529s-0.299-1.222-0.299-1.907V360.857z
		 M515.659,361.05c0,0.469,0.056,0.916,0.167,1.34s0.28,0.798,0.505,1.121s0.508,0.577,0.848,0.765s0.735,0.281,1.187,0.281
		c0.445,0,0.836-0.094,1.173-0.281s0.618-0.442,0.844-0.765s0.394-0.696,0.505-1.121s0.167-0.872,0.167-1.34v-0.193
		c0-0.463-0.057-0.907-0.171-1.332s-0.284-0.798-0.51-1.121s-0.507-0.579-0.844-0.769s-0.731-0.286-1.182-0.286
		s-0.844,0.095-1.178,0.286s-0.614,0.447-0.839,0.769s-0.394,0.696-0.505,1.121s-0.167,0.869-0.167,1.332V361.05z"/>
	<path d="M529.142,353.887v2.303h3.621v1.257h-3.621v5.168c0,0.369,0.047,0.674,0.141,0.914s0.223,0.432,0.387,0.576
		s0.353,0.245,0.567,0.303s0.441,0.088,0.681,0.088c0.176,0,0.357-0.01,0.545-0.031s0.371-0.045,0.549-0.075s0.346-0.06,0.501-0.092
		s0.283-0.06,0.382-0.083l0.229,1.151c-0.135,0.082-0.299,0.154-0.492,0.215s-0.404,0.114-0.633,0.158s-0.47,0.078-0.725,0.101
		s-0.508,0.035-0.76,0.035c-0.422,0-0.816-0.06-1.182-0.18s-0.684-0.311-0.954-0.571s-0.482-0.598-0.637-1.011
		s-0.233-0.913-0.233-1.499v-5.168h-2.496v-1.257h2.496v-2.303H529.142z"/>
	<path d="M536.349,356.19h4.86v8.104h3.103v1.406h-7.963v-1.406h3.234v-6.688h-3.234V356.19z M539.372,353.694
		c0-0.27,0.081-0.497,0.242-0.681s0.406-0.277,0.734-0.277c0.322,0,0.565,0.092,0.729,0.277s0.246,0.412,0.246,0.681
		c0,0.264-0.082,0.483-0.246,0.659s-0.407,0.264-0.729,0.264c-0.328,0-0.573-0.088-0.734-0.264S539.372,353.958,539.372,353.694z"/>
	<path d="M553.145,365.7c-0.064-0.123-0.116-0.277-0.154-0.461s-0.066-0.376-0.083-0.576c-0.164,0.164-0.347,0.319-0.549,0.466
		s-0.425,0.275-0.668,0.387s-0.502,0.199-0.778,0.264s-0.568,0.097-0.879,0.097c-0.504,0-0.959-0.073-1.367-0.22
		s-0.753-0.344-1.037-0.593s-0.504-0.545-0.659-0.888s-0.233-0.713-0.233-1.112c0-0.521,0.104-0.979,0.312-1.371
		s0.502-0.719,0.883-0.98s0.839-0.456,1.375-0.584s1.135-0.193,1.797-0.193h1.775v-0.747c0-0.287-0.053-0.545-0.158-0.773
		s-0.255-0.423-0.448-0.584s-0.429-0.286-0.708-0.374s-0.59-0.132-0.936-0.132c-0.322,0-0.611,0.041-0.866,0.123
		s-0.47,0.19-0.646,0.325s-0.312,0.294-0.409,0.479s-0.145,0.376-0.145,0.576h-1.635c0.006-0.346,0.095-0.686,0.268-1.02
		s0.422-0.634,0.747-0.901s0.721-0.482,1.187-0.646s0.995-0.246,1.586-0.246c0.539,0,1.04,0.066,1.503,0.198s0.863,0.331,1.2,0.598
		s0.602,0.599,0.795,0.998s0.29,0.864,0.29,1.397v4.421c0,0.316,0.029,0.652,0.088,1.006s0.141,0.664,0.246,0.927v0.141H553.145z
		 M550.271,364.46c0.316,0,0.612-0.041,0.888-0.123s0.526-0.19,0.751-0.325s0.42-0.289,0.584-0.461s0.293-0.353,0.387-0.541v-1.925
		h-1.512c-0.949,0-1.688,0.141-2.215,0.422s-0.791,0.724-0.791,1.327c0,0.234,0.04,0.451,0.119,0.65s0.198,0.371,0.356,0.514
		s0.357,0.256,0.598,0.338S549.954,364.46,550.271,364.46z"/>
	<path d="M561.547,353.887v2.303h3.621v1.257h-3.621v5.168c0,0.369,0.047,0.674,0.141,0.914s0.223,0.432,0.387,0.576
		s0.353,0.245,0.567,0.303s0.441,0.088,0.681,0.088c0.176,0,0.357-0.01,0.545-0.031s0.371-0.045,0.549-0.075s0.346-0.06,0.501-0.092
		s0.283-0.06,0.382-0.083l0.229,1.151c-0.135,0.082-0.299,0.154-0.492,0.215s-0.404,0.114-0.633,0.158s-0.47,0.078-0.725,0.101
		s-0.508,0.035-0.76,0.035c-0.422,0-0.816-0.06-1.182-0.18s-0.684-0.311-0.954-0.571s-0.482-0.598-0.637-1.011
		s-0.233-0.913-0.233-1.499v-5.168h-2.496v-1.257h2.496v-2.303H561.547z"/>
	<path d="M572.7,365.875c-0.668,0-1.282-0.114-1.841-0.343s-1.039-0.548-1.437-0.958s-0.709-0.896-0.932-1.459
		s-0.334-1.175-0.334-1.837v-0.369c0-0.768,0.123-1.455,0.369-2.061s0.573-1.119,0.98-1.538s0.87-0.74,1.389-0.962
		s1.05-0.334,1.595-0.334c0.686,0,1.285,0.119,1.797,0.356s0.939,0.565,1.279,0.984s0.593,0.913,0.76,1.481s0.25,1.184,0.25,1.846
		v0.729h-6.794c0.018,0.434,0.101,0.841,0.25,1.222s0.354,0.713,0.615,0.998s0.573,0.508,0.936,0.672s0.765,0.246,1.204,0.246
		c0.58,0,1.096-0.117,1.547-0.352s0.826-0.545,1.125-0.932l0.993,0.773c-0.158,0.24-0.356,0.47-0.593,0.69s-0.511,0.415-0.822,0.584
		s-0.662,0.306-1.055,0.409S573.163,365.875,572.7,365.875z M572.489,357.35c-0.328,0-0.639,0.06-0.932,0.18
		s-0.557,0.296-0.791,0.527s-0.432,0.516-0.593,0.853s-0.274,0.725-0.338,1.165h5.115v-0.123c-0.018-0.316-0.078-0.63-0.18-0.94
		s-0.253-0.589-0.453-0.835s-0.45-0.445-0.751-0.598S572.905,357.35,572.489,357.35z"/>
	<path d="M578.993,360.866c0-0.709,0.089-1.361,0.268-1.956s0.434-1.106,0.765-1.534s0.731-0.762,1.2-1.002s0.993-0.36,1.573-0.36
		c0.568,0,1.065,0.095,1.49,0.286s0.792,0.467,1.103,0.831V352.2h1.626v13.5h-1.494l-0.07-1.002
		c-0.316,0.387-0.694,0.68-1.134,0.879s-0.952,0.299-1.538,0.299c-0.574,0-1.094-0.123-1.56-0.369s-0.863-0.586-1.191-1.02
		s-0.583-0.945-0.765-1.534s-0.272-1.223-0.272-1.903V360.866z M580.619,361.05c0,0.463,0.05,0.902,0.149,1.318
		s0.253,0.782,0.461,1.099s0.473,0.567,0.795,0.751s0.709,0.277,1.16,0.277c0.275,0,0.524-0.032,0.747-0.097
		s0.425-0.157,0.606-0.277s0.343-0.264,0.483-0.431s0.264-0.353,0.369-0.558v-4.412c-0.211-0.387-0.495-0.705-0.853-0.954
		s-0.803-0.374-1.336-0.374c-0.457,0-0.848,0.094-1.173,0.281s-0.592,0.441-0.8,0.76s-0.362,0.688-0.461,1.107
		s-0.149,0.86-0.149,1.323V361.05z"/>
	<path d="M594.225,365.322c0,0.275-0.034,0.564-0.101,0.866s-0.167,0.601-0.299,0.896s-0.292,0.579-0.479,0.848
		s-0.404,0.51-0.65,0.721l-1.011-0.554c0.281-0.41,0.48-0.847,0.598-1.31s0.176-0.943,0.176-1.441v-1.573h1.767V365.322z"/>
	<path d="M403.695,387.3h-1.538v-5.915h-5.247v5.915h-1.529v-12.797h1.529v5.502h5.247v-5.502h1.538V387.3z"/>
	<path d="M412.722,387.3c-0.064-0.123-0.116-0.276-0.154-0.462c-0.038-0.184-0.066-0.376-0.083-0.575
		c-0.164,0.164-0.347,0.319-0.549,0.466s-0.425,0.275-0.668,0.387s-0.502,0.199-0.778,0.264s-0.568,0.097-0.879,0.097
		c-0.504,0-0.959-0.073-1.367-0.22s-0.753-0.344-1.037-0.594c-0.284-0.248-0.504-0.545-0.659-0.887
		c-0.155-0.344-0.233-0.714-0.233-1.112c0-0.521,0.104-0.979,0.312-1.371s0.502-0.719,0.883-0.98s0.839-0.456,1.375-0.584
		s1.135-0.193,1.797-0.193h1.775v-0.747c0-0.287-0.053-0.545-0.158-0.773s-0.255-0.423-0.448-0.584s-0.429-0.286-0.708-0.374
		s-0.59-0.132-0.936-0.132c-0.322,0-0.611,0.041-0.866,0.123s-0.47,0.19-0.646,0.325s-0.312,0.294-0.409,0.479
		s-0.145,0.376-0.145,0.576h-1.635c0.006-0.346,0.095-0.686,0.268-1.02s0.422-0.634,0.747-0.901s0.721-0.482,1.187-0.646
		s0.995-0.246,1.586-0.246c0.539,0,1.04,0.066,1.503,0.198s0.863,0.331,1.2,0.598s0.602,0.599,0.795,0.998s0.29,0.864,0.29,1.397
		v4.421c0,0.316,0.029,0.651,0.088,1.007c0.059,0.354,0.141,0.663,0.246,0.927v0.141H412.722z M409.848,386.061
		c0.316,0,0.612-0.041,0.888-0.123s0.526-0.19,0.751-0.325s0.42-0.288,0.584-0.462c0.164-0.172,0.293-0.353,0.387-0.54v-1.925
		h-1.512c-0.949,0-1.688,0.141-2.215,0.422s-0.791,0.724-0.791,1.327c0,0.234,0.04,0.451,0.119,0.65s0.198,0.37,0.356,0.515
		c0.158,0.143,0.357,0.256,0.598,0.338S409.531,386.061,409.848,386.061z"/>
	<path d="M418.733,377.79l0.114,1.406c0.346-0.492,0.771-0.877,1.274-1.156s1.066-0.42,1.688-0.426c0.498,0,0.951,0.07,1.358,0.211
		s0.754,0.36,1.042,0.659s0.508,0.678,0.664,1.138s0.233,1.006,0.233,1.639v6.038h-1.626v-6.003c0-0.422-0.047-0.779-0.141-1.072
		s-0.233-0.53-0.417-0.712s-0.41-0.313-0.677-0.396s-0.573-0.123-0.918-0.123c-0.545,0-1.024,0.136-1.437,0.409
		s-0.743,0.631-0.989,1.077v6.82h-1.626v-9.51H418.733z"/>
	<path d="M427.769,382.466c0-0.709,0.089-1.361,0.268-1.956s0.434-1.106,0.765-1.534s0.731-0.762,1.2-1.002s0.993-0.36,1.573-0.36
		c0.568,0,1.065,0.095,1.49,0.286s0.792,0.467,1.103,0.831V373.8h1.626v13.5h-1.494l-0.07-1.002
		c-0.316,0.387-0.694,0.68-1.134,0.879s-0.952,0.299-1.538,0.299c-0.574,0-1.094-0.123-1.56-0.369s-0.863-0.586-1.191-1.02
		s-0.583-0.944-0.765-1.534c-0.182-0.589-0.272-1.223-0.272-1.903V382.466z M429.395,382.65c0,0.463,0.05,0.902,0.149,1.318
		s0.253,0.782,0.461,1.099s0.473,0.567,0.795,0.751c0.322,0.186,0.709,0.277,1.16,0.277c0.275,0,0.524-0.032,0.747-0.097
		s0.425-0.157,0.606-0.276c0.182-0.121,0.343-0.264,0.483-0.432c0.141-0.166,0.264-0.353,0.369-0.558v-4.412
		c-0.211-0.387-0.495-0.705-0.853-0.954s-0.803-0.374-1.336-0.374c-0.457,0-0.848,0.094-1.173,0.281s-0.592,0.441-0.8,0.76
		s-0.362,0.688-0.461,1.107s-0.149,0.86-0.149,1.323V382.65z"/>
	<path d="M445.197,384.777c0-0.193-0.038-0.368-0.114-0.523s-0.205-0.297-0.387-0.426s-0.422-0.248-0.721-0.356
		s-0.671-0.207-1.116-0.294c-0.545-0.111-1.042-0.246-1.49-0.404s-0.832-0.347-1.151-0.567s-0.567-0.478-0.743-0.773
		s-0.264-0.64-0.264-1.033c0-0.387,0.091-0.749,0.272-1.085s0.437-0.631,0.765-0.883s0.719-0.451,1.173-0.598s0.954-0.22,1.499-0.22
		c0.586,0,1.113,0.076,1.582,0.229s0.867,0.363,1.195,0.633s0.582,0.584,0.76,0.945s0.268,0.749,0.268,1.165h-1.626
		c0-0.205-0.053-0.406-0.158-0.602s-0.252-0.371-0.439-0.523s-0.415-0.275-0.681-0.369s-0.567-0.141-0.901-0.141
		c-0.346,0-0.649,0.038-0.91,0.114s-0.478,0.179-0.65,0.308s-0.303,0.278-0.391,0.448s-0.132,0.346-0.132,0.527
		c0,0.188,0.035,0.354,0.105,0.501s0.192,0.278,0.365,0.396s0.404,0.223,0.694,0.316s0.658,0.185,1.103,0.272
		c0.586,0.123,1.11,0.265,1.573,0.426s0.853,0.354,1.169,0.58s0.558,0.488,0.725,0.787s0.25,0.645,0.25,1.037
		c0,0.422-0.095,0.806-0.286,1.151s-0.456,0.642-0.795,0.888s-0.747,0.437-1.222,0.571s-0.993,0.202-1.556,0.202
		c-0.645,0-1.219-0.087-1.723-0.259c-0.504-0.174-0.93-0.402-1.279-0.686c-0.349-0.285-0.615-0.614-0.8-0.989
		s-0.277-0.765-0.277-1.169h1.626c0.023,0.334,0.113,0.615,0.268,0.844s0.349,0.413,0.58,0.554s0.488,0.24,0.769,0.299
		s0.56,0.088,0.835,0.088c0.686,0,1.228-0.126,1.626-0.378S445.191,385.193,445.197,384.777z"/>
	<path d="M451.306,379.205c0.34-0.498,0.759-0.886,1.257-1.165s1.058-0.42,1.679-0.426c0.498,0,0.951,0.072,1.358,0.215
		s0.754,0.368,1.042,0.672s0.508,0.69,0.664,1.156s0.233,1.018,0.233,1.657v5.985h-1.626v-6.003c0-0.779-0.186-1.359-0.558-1.74
		s-0.904-0.568-1.595-0.562c-0.521,0-0.995,0.127-1.419,0.382s-0.769,0.593-1.033,1.015v6.908h-1.626v-13.5h1.626V379.205z"/>
	<path d="M466.73,387.3c-0.064-0.123-0.116-0.276-0.154-0.462c-0.038-0.184-0.066-0.376-0.083-0.575
		c-0.164,0.164-0.347,0.319-0.549,0.466s-0.425,0.275-0.668,0.387s-0.502,0.199-0.778,0.264s-0.568,0.097-0.879,0.097
		c-0.504,0-0.959-0.073-1.367-0.22s-0.753-0.344-1.037-0.594c-0.284-0.248-0.504-0.545-0.659-0.887
		c-0.155-0.344-0.233-0.714-0.233-1.112c0-0.521,0.104-0.979,0.312-1.371s0.502-0.719,0.883-0.98s0.839-0.456,1.375-0.584
		s1.135-0.193,1.797-0.193h1.775v-0.747c0-0.287-0.053-0.545-0.158-0.773s-0.255-0.423-0.448-0.584s-0.429-0.286-0.708-0.374
		s-0.59-0.132-0.936-0.132c-0.322,0-0.611,0.041-0.866,0.123s-0.47,0.19-0.646,0.325s-0.312,0.294-0.409,0.479
		s-0.145,0.376-0.145,0.576h-1.635c0.006-0.346,0.095-0.686,0.268-1.02s0.422-0.634,0.747-0.901s0.721-0.482,1.187-0.646
		s0.995-0.246,1.586-0.246c0.539,0,1.04,0.066,1.503,0.198s0.863,0.331,1.2,0.598s0.602,0.599,0.795,0.998s0.29,0.864,0.29,1.397
		v4.421c0,0.316,0.029,0.651,0.088,1.007c0.059,0.354,0.141,0.663,0.246,0.927v0.141H466.73z M463.856,386.061
		c0.316,0,0.612-0.041,0.888-0.123s0.526-0.19,0.751-0.325s0.42-0.288,0.584-0.462c0.164-0.172,0.293-0.353,0.387-0.54v-1.925
		h-1.512c-0.949,0-1.688,0.141-2.215,0.422s-0.791,0.724-0.791,1.327c0,0.234,0.04,0.451,0.119,0.65s0.198,0.37,0.356,0.515
		c0.158,0.143,0.357,0.256,0.598,0.338S463.54,386.061,463.856,386.061z"/>
	<path d="M474.131,382.861l-1.195,1.151v3.287h-1.635v-13.5h1.635v8.262l1.063-1.143l3.12-3.129h1.978l-3.85,3.964l4.438,5.546
		h-2.065L474.131,382.861z"/>
	<path d="M486.286,387.476c-0.668,0-1.282-0.114-1.841-0.343s-1.039-0.548-1.437-0.958s-0.709-0.896-0.932-1.459
		s-0.334-1.175-0.334-1.837v-0.369c0-0.768,0.123-1.455,0.369-2.061s0.573-1.119,0.98-1.538s0.87-0.74,1.389-0.962
		s1.05-0.334,1.595-0.334c0.686,0,1.285,0.119,1.797,0.356s0.939,0.565,1.279,0.984s0.593,0.913,0.76,1.481s0.25,1.184,0.25,1.846
		v0.729h-6.794c0.018,0.434,0.101,0.841,0.25,1.222s0.354,0.713,0.615,0.998c0.261,0.283,0.573,0.508,0.936,0.672
		s0.765,0.246,1.204,0.246c0.58,0,1.096-0.117,1.547-0.352s0.826-0.545,1.125-0.932l0.993,0.773
		c-0.158,0.24-0.356,0.471-0.593,0.689c-0.237,0.221-0.511,0.415-0.822,0.585s-0.662,0.306-1.055,0.409
		C487.177,387.424,486.749,387.476,486.286,387.476z M486.075,378.95c-0.328,0-0.639,0.06-0.932,0.18s-0.557,0.296-0.791,0.527
		s-0.432,0.516-0.593,0.853s-0.274,0.725-0.338,1.165h5.115v-0.123c-0.018-0.316-0.078-0.63-0.18-0.94s-0.253-0.589-0.453-0.835
		s-0.45-0.445-0.751-0.598S486.491,378.95,486.075,378.95z"/>
	<path d="M507.74,386.157c0.293,0,0.579-0.047,0.857-0.141s0.526-0.224,0.743-0.392c0.217-0.166,0.391-0.363,0.523-0.588
		c0.132-0.226,0.201-0.471,0.207-0.734h1.538c-0.006,0.422-0.116,0.824-0.33,1.209c-0.214,0.383-0.5,0.721-0.857,1.01
		c-0.357,0.291-0.768,0.521-1.23,0.695c-0.463,0.172-0.946,0.259-1.45,0.259c-0.721,0-1.351-0.129-1.89-0.387
		s-0.989-0.604-1.349-1.042c-0.36-0.436-0.631-0.939-0.813-1.511c-0.182-0.571-0.272-1.173-0.272-1.806v-0.369
		c0-0.627,0.091-1.228,0.272-1.802s0.453-1.08,0.813-1.516s0.81-0.784,1.349-1.042s1.169-0.387,1.89-0.387
		c0.562,0,1.08,0.089,1.551,0.268s0.879,0.422,1.222,0.729s0.611,0.672,0.804,1.094s0.29,0.873,0.29,1.354h-1.538
		c-0.006-0.287-0.069-0.558-0.189-0.813s-0.283-0.479-0.488-0.672s-0.45-0.346-0.734-0.457s-0.59-0.167-0.918-0.167
		c-0.504,0-0.927,0.101-1.27,0.303s-0.62,0.466-0.831,0.791s-0.362,0.69-0.453,1.094s-0.136,0.812-0.136,1.222v0.369
		c0,0.416,0.045,0.828,0.136,1.235s0.24,0.773,0.448,1.098c0.208,0.326,0.483,0.59,0.826,0.791
		C506.804,386.057,507.23,386.157,507.74,386.157z"/>
	<path d="M514.033,382.457c0-0.686,0.1-1.323,0.299-1.912s0.485-1.1,0.857-1.534s0.825-0.775,1.358-1.024s1.134-0.374,1.802-0.374
		c0.674,0,1.279,0.125,1.815,0.374s0.99,0.59,1.362,1.024s0.658,0.945,0.857,1.534s0.299,1.226,0.299,1.912v0.193
		c0,0.686-0.1,1.321-0.299,1.907s-0.485,1.096-0.857,1.529s-0.825,0.773-1.358,1.02s-1.134,0.369-1.802,0.369
		c-0.674,0-1.279-0.123-1.815-0.369s-0.99-0.586-1.362-1.02s-0.658-0.943-0.857-1.529s-0.299-1.222-0.299-1.907V382.457z
		 M515.659,382.65c0,0.469,0.056,0.916,0.167,1.34s0.28,0.798,0.505,1.121s0.508,0.577,0.848,0.765s0.735,0.281,1.187,0.281
		c0.445,0,0.836-0.094,1.173-0.281s0.618-0.442,0.844-0.765s0.394-0.696,0.505-1.121s0.167-0.872,0.167-1.34v-0.193
		c0-0.463-0.057-0.907-0.171-1.332s-0.284-0.798-0.51-1.121s-0.507-0.579-0.844-0.769s-0.731-0.286-1.182-0.286
		s-0.844,0.095-1.178,0.286s-0.614,0.447-0.839,0.769s-0.394,0.696-0.505,1.121s-0.167,0.869-0.167,1.332V382.65z"/>
	<path d="M526.039,377.79l0.044,0.896c0.193-0.334,0.447-0.595,0.76-0.782s0.693-0.284,1.138-0.29c0.873,0,1.456,0.34,1.749,1.02
		c0.188-0.305,0.435-0.549,0.743-0.734s0.681-0.28,1.121-0.286c0.697,0,1.233,0.214,1.608,0.642s0.562,1.075,0.562,1.942v7.102
		h-1.547v-7.119c0-0.797-0.366-1.192-1.099-1.187c-0.193,0-0.36,0.026-0.501,0.079s-0.258,0.125-0.352,0.215
		s-0.167,0.196-0.22,0.316s-0.088,0.245-0.105,0.374v7.321h-1.547v-7.128c0-0.381-0.085-0.674-0.255-0.879s-0.439-0.305-0.809-0.299
		c-0.34,0-0.604,0.067-0.791,0.202s-0.325,0.313-0.413,0.536v7.567h-1.547v-9.51H526.039z"/>
	<path d="M544.118,382.65c0,0.68-0.082,1.314-0.246,1.903c-0.164,0.589-0.404,1.1-0.721,1.534s-0.708,0.773-1.173,1.02
		s-0.998,0.369-1.595,0.369c-0.58,0-1.091-0.094-1.534-0.281s-0.822-0.457-1.138-0.809v4.57h-1.626V377.79h1.485l0.079,1.037
		c0.316-0.393,0.699-0.693,1.147-0.901s0.968-0.312,1.56-0.312c0.609,0,1.148,0.12,1.617,0.36s0.861,0.574,1.178,1.002
		s0.557,0.939,0.721,1.534s0.246,1.247,0.246,1.956V382.65z M542.492,382.466c0-0.463-0.051-0.904-0.154-1.323
		s-0.261-0.788-0.475-1.107s-0.485-0.573-0.813-0.76s-0.721-0.281-1.178-0.281c-0.521,0-0.959,0.122-1.314,0.365
		s-0.637,0.555-0.848,0.936v4.579c0.211,0.375,0.492,0.681,0.844,0.919c0.352,0.236,0.797,0.355,1.336,0.355
		c0.451,0,0.841-0.096,1.169-0.285c0.328-0.191,0.598-0.447,0.809-0.77s0.368-0.694,0.47-1.116s0.154-0.864,0.154-1.327V382.466z"/>
	<path d="M547.15,373.8h4.86v12.094h3.103v1.406h-7.963v-1.406h3.234v-10.679h-3.234V373.8z"/>
	<path d="M561.898,387.476c-0.668,0-1.282-0.114-1.841-0.343s-1.039-0.548-1.437-0.958s-0.709-0.896-0.932-1.459
		s-0.334-1.175-0.334-1.837v-0.369c0-0.768,0.123-1.455,0.369-2.061s0.573-1.119,0.98-1.538s0.87-0.74,1.389-0.962
		s1.05-0.334,1.595-0.334c0.686,0,1.285,0.119,1.797,0.356s0.939,0.565,1.279,0.984s0.593,0.913,0.76,1.481s0.25,1.184,0.25,1.846
		v0.729h-6.794c0.018,0.434,0.101,0.841,0.25,1.222s0.354,0.713,0.615,0.998c0.261,0.283,0.573,0.508,0.936,0.672
		s0.765,0.246,1.204,0.246c0.58,0,1.096-0.117,1.547-0.352s0.826-0.545,1.125-0.932l0.993,0.773
		c-0.158,0.24-0.356,0.471-0.593,0.689c-0.237,0.221-0.511,0.415-0.822,0.585s-0.662,0.306-1.055,0.409
		C562.789,387.424,562.361,387.476,561.898,387.476z M561.688,378.95c-0.328,0-0.639,0.06-0.932,0.18s-0.557,0.296-0.791,0.527
		s-0.432,0.516-0.593,0.853s-0.274,0.725-0.338,1.165h5.115v-0.123c-0.018-0.316-0.078-0.63-0.18-0.94s-0.253-0.589-0.453-0.835
		s-0.45-0.445-0.751-0.598S562.104,378.95,561.688,378.95z"/>
	<path d="M572.349,375.487v2.303h3.621v1.257h-3.621v5.168c0,0.369,0.047,0.674,0.141,0.914s0.223,0.432,0.387,0.576
		c0.164,0.143,0.353,0.244,0.567,0.303s0.441,0.088,0.681,0.088c0.176,0,0.357-0.01,0.545-0.031c0.188-0.02,0.371-0.045,0.549-0.074
		s0.346-0.061,0.501-0.092c0.155-0.033,0.283-0.061,0.382-0.084l0.229,1.151c-0.135,0.082-0.299,0.153-0.492,0.216
		c-0.193,0.061-0.404,0.113-0.633,0.158c-0.229,0.043-0.47,0.077-0.725,0.101s-0.508,0.035-0.76,0.035
		c-0.422,0-0.816-0.06-1.182-0.181c-0.366-0.119-0.684-0.311-0.954-0.57c-0.27-0.262-0.482-0.598-0.637-1.012
		c-0.155-0.412-0.233-0.912-0.233-1.498v-5.168h-2.496v-1.257h2.496v-2.303H572.349z"/>
	<path d="M583.502,387.476c-0.668,0-1.282-0.114-1.841-0.343s-1.039-0.548-1.437-0.958s-0.709-0.896-0.932-1.459
		s-0.334-1.175-0.334-1.837v-0.369c0-0.768,0.123-1.455,0.369-2.061s0.573-1.119,0.98-1.538s0.87-0.74,1.389-0.962
		s1.05-0.334,1.595-0.334c0.686,0,1.285,0.119,1.797,0.356s0.939,0.565,1.279,0.984s0.593,0.913,0.76,1.481s0.25,1.184,0.25,1.846
		v0.729h-6.794c0.018,0.434,0.101,0.841,0.25,1.222s0.354,0.713,0.615,0.998c0.261,0.283,0.573,0.508,0.936,0.672
		s0.765,0.246,1.204,0.246c0.58,0,1.096-0.117,1.547-0.352s0.826-0.545,1.125-0.932l0.993,0.773
		c-0.158,0.24-0.356,0.471-0.593,0.689c-0.237,0.221-0.511,0.415-0.822,0.585s-0.662,0.306-1.055,0.409
		C584.393,387.424,583.965,387.476,583.502,387.476z M583.291,378.95c-0.328,0-0.639,0.06-0.932,0.18s-0.557,0.296-0.791,0.527
		s-0.432,0.516-0.593,0.853s-0.274,0.725-0.338,1.165h5.115v-0.123c-0.018-0.316-0.078-0.63-0.18-0.94s-0.253-0.589-0.453-0.835
		s-0.45-0.445-0.751-0.598S583.707,378.95,583.291,378.95z"/>
</g>
<g>
	<rect x="80.642" y="364.976" fill="none" width="242.858" height="27.903"/>
	<path d="M90.234,378.393c0-0.236-0.047-0.449-0.14-0.639c-0.093-0.189-0.251-0.363-0.473-0.521
		c-0.222-0.157-0.516-0.302-0.881-0.435c-0.365-0.132-0.82-0.252-1.364-0.36c-0.666-0.136-1.273-0.301-1.821-0.494
		s-1.017-0.424-1.407-0.693c-0.391-0.269-0.693-0.583-0.908-0.945c-0.215-0.361-0.322-0.782-0.322-1.262
		c0-0.473,0.111-0.915,0.333-1.327c0.222-0.412,0.533-0.771,0.935-1.08c0.401-0.308,0.879-0.551,1.434-0.73
		c0.555-0.179,1.166-0.269,1.832-0.269c0.716,0,1.36,0.093,1.934,0.279c0.573,0.187,1.06,0.444,1.461,0.773
		c0.401,0.33,0.71,0.714,0.929,1.155c0.218,0.44,0.328,0.915,0.328,1.423h-1.987c0-0.25-0.064-0.496-0.193-0.736
		c-0.129-0.24-0.308-0.453-0.537-0.639c-0.229-0.186-0.507-0.336-0.833-0.451c-0.326-0.114-0.693-0.172-1.101-0.172
		c-0.423,0-0.793,0.047-1.112,0.14c-0.319,0.093-0.584,0.219-0.795,0.376c-0.211,0.158-0.371,0.34-0.478,0.548
		c-0.107,0.208-0.161,0.423-0.161,0.645c0,0.229,0.043,0.434,0.129,0.612c0.086,0.179,0.234,0.34,0.446,0.483
		c0.211,0.144,0.494,0.272,0.849,0.387c0.354,0.115,0.804,0.226,1.348,0.333c0.716,0.15,1.357,0.324,1.923,0.521
		c0.565,0.197,1.042,0.434,1.429,0.709c0.387,0.276,0.682,0.596,0.886,0.961s0.306,0.788,0.306,1.268
		c0,0.516-0.117,0.985-0.349,1.407c-0.233,0.423-0.557,0.784-0.972,1.085c-0.416,0.301-0.913,0.534-1.493,0.698
		s-1.214,0.247-1.901,0.247c-0.788,0-1.49-0.106-2.105-0.317c-0.616-0.211-1.137-0.49-1.563-0.838
		c-0.426-0.347-0.752-0.75-0.978-1.208c-0.226-0.458-0.338-0.935-0.338-1.429h1.987c0.028,0.408,0.138,0.752,0.328,1.031
		c0.189,0.279,0.426,0.505,0.709,0.677c0.283,0.172,0.596,0.294,0.94,0.365c0.344,0.072,0.684,0.107,1.021,0.107
		c0.838,0,1.5-0.154,1.987-0.462C89.98,379.31,90.227,378.902,90.234,378.393z"/>
	<path d="M103.254,379.875c-0.387,0.573-0.87,1.019-1.45,1.337s-1.25,0.478-2.009,0.478c-0.609,0-1.16-0.095-1.654-0.285
		s-0.917-0.485-1.268-0.886c-0.351-0.401-0.622-0.911-0.811-1.531c-0.19-0.619-0.285-1.362-0.285-2.229v-6.907h1.987v6.929
		c0,0.63,0.05,1.153,0.15,1.568c0.1,0.416,0.25,0.747,0.451,0.994c0.2,0.247,0.446,0.421,0.736,0.521
		c0.29,0.101,0.625,0.15,1.004,0.15c0.809,0,1.462-0.165,1.96-0.494c0.498-0.329,0.868-0.773,1.112-1.332v-8.336h1.998v11.623
		h-1.805L103.254,379.875z"/>
	<path d="M118.766,375.793c0,0.831-0.101,1.606-0.301,2.326c-0.201,0.72-0.494,1.345-0.881,1.875
		c-0.387,0.53-0.865,0.945-1.434,1.246s-1.223,0.451-1.96,0.451c-0.745,0-1.391-0.133-1.939-0.397s-1.015-0.645-1.402-1.139
		l-0.097,1.321h-1.826v-16.5h1.987v6.123c0.379-0.473,0.838-0.834,1.375-1.085c0.537-0.25,1.164-0.376,1.88-0.376
		c0.745,0,1.403,0.147,1.977,0.44c0.573,0.294,1.053,0.702,1.439,1.225c0.387,0.523,0.68,1.148,0.881,1.875
		c0.2,0.727,0.301,1.524,0.301,2.39V375.793z M116.778,375.568c0-0.565-0.056-1.104-0.167-1.617
		c-0.111-0.512-0.289-0.963-0.532-1.354c-0.244-0.39-0.562-0.7-0.956-0.929c-0.394-0.229-0.877-0.344-1.45-0.344
		c-0.344,0-0.659,0.045-0.945,0.134c-0.287,0.09-0.542,0.215-0.768,0.376s-0.426,0.351-0.602,0.569
		c-0.176,0.219-0.324,0.457-0.446,0.714v5.081c0.129,0.258,0.281,0.496,0.457,0.714c0.175,0.219,0.377,0.41,0.607,0.575
		c0.229,0.165,0.487,0.292,0.773,0.381c0.286,0.09,0.602,0.134,0.945,0.134c0.544,0,1.011-0.113,1.402-0.338
		c0.39-0.226,0.709-0.532,0.956-0.918s0.43-0.834,0.548-1.343c0.118-0.508,0.177-1.045,0.177-1.611V375.568z"/>
	<path d="M129.841,378.393c0-0.236-0.047-0.449-0.14-0.639c-0.093-0.189-0.251-0.363-0.473-0.521
		c-0.222-0.157-0.516-0.302-0.881-0.435c-0.365-0.132-0.82-0.252-1.364-0.36c-0.666-0.136-1.273-0.301-1.821-0.494
		s-1.017-0.424-1.407-0.693c-0.391-0.269-0.693-0.583-0.908-0.945c-0.215-0.361-0.322-0.782-0.322-1.262
		c0-0.473,0.111-0.915,0.333-1.327c0.222-0.412,0.533-0.771,0.935-1.08c0.401-0.308,0.879-0.551,1.434-0.73
		c0.555-0.179,1.166-0.269,1.832-0.269c0.716,0,1.36,0.093,1.934,0.279c0.573,0.187,1.06,0.444,1.461,0.773
		c0.401,0.33,0.71,0.714,0.929,1.155c0.218,0.44,0.328,0.915,0.328,1.423h-1.987c0-0.25-0.064-0.496-0.193-0.736
		c-0.129-0.24-0.308-0.453-0.537-0.639c-0.229-0.186-0.507-0.336-0.833-0.451c-0.326-0.114-0.693-0.172-1.101-0.172
		c-0.423,0-0.793,0.047-1.112,0.14c-0.319,0.093-0.584,0.219-0.795,0.376c-0.211,0.158-0.371,0.34-0.478,0.548
		c-0.107,0.208-0.161,0.423-0.161,0.645c0,0.229,0.043,0.434,0.129,0.612c0.086,0.179,0.234,0.34,0.446,0.483
		c0.211,0.144,0.494,0.272,0.849,0.387c0.354,0.115,0.804,0.226,1.348,0.333c0.716,0.15,1.357,0.324,1.923,0.521
		c0.565,0.197,1.042,0.434,1.429,0.709c0.387,0.276,0.682,0.596,0.886,0.961s0.306,0.788,0.306,1.268
		c0,0.516-0.117,0.985-0.349,1.407c-0.233,0.423-0.557,0.784-0.972,1.085c-0.416,0.301-0.913,0.534-1.493,0.698
		s-1.214,0.247-1.901,0.247c-0.788,0-1.49-0.106-2.105-0.317c-0.616-0.211-1.137-0.49-1.563-0.838
		c-0.426-0.347-0.752-0.75-0.978-1.208c-0.226-0.458-0.338-0.935-0.338-1.429h1.987c0.028,0.408,0.138,0.752,0.328,1.031
		c0.189,0.279,0.426,0.505,0.709,0.677c0.283,0.172,0.596,0.294,0.94,0.365c0.344,0.072,0.684,0.107,1.021,0.107
		c0.838,0,1.5-0.154,1.987-0.462C129.586,379.31,129.833,378.902,129.841,378.393z"/>
	<path d="M140.271,380.08c0.358,0,0.707-0.057,1.047-0.172c0.34-0.114,0.643-0.274,0.908-0.478c0.265-0.204,0.478-0.444,0.639-0.72
		c0.161-0.275,0.245-0.575,0.252-0.897h1.88c-0.007,0.516-0.142,1.008-0.403,1.477c-0.262,0.469-0.611,0.881-1.047,1.235
		c-0.437,0.354-0.938,0.638-1.504,0.849c-0.566,0.211-1.157,0.317-1.772,0.317c-0.881,0-1.651-0.158-2.31-0.473
		c-0.659-0.315-1.208-0.739-1.649-1.273c-0.44-0.533-0.772-1.149-0.994-1.848c-0.222-0.698-0.333-1.434-0.333-2.208v-0.451
		c0-0.766,0.111-1.5,0.333-2.202c0.222-0.702,0.553-1.319,0.994-1.853c0.44-0.533,0.99-0.958,1.649-1.273
		c0.659-0.315,1.429-0.473,2.31-0.473c0.688,0,1.319,0.109,1.896,0.328c0.576,0.219,1.074,0.516,1.493,0.892
		s0.747,0.822,0.983,1.337s0.354,1.067,0.354,1.654h-1.88c-0.007-0.351-0.084-0.682-0.231-0.994
		c-0.147-0.312-0.346-0.585-0.596-0.822c-0.251-0.236-0.55-0.422-0.897-0.559c-0.348-0.136-0.722-0.204-1.123-0.204
		c-0.616,0-1.133,0.124-1.552,0.371s-0.757,0.569-1.015,0.967s-0.442,0.843-0.553,1.337c-0.111,0.494-0.167,0.992-0.167,1.493v0.451
		c0,0.509,0.055,1.012,0.167,1.509c0.111,0.498,0.293,0.945,0.548,1.343c0.254,0.397,0.591,0.72,1.01,0.967
		S139.648,380.08,140.271,380.08z"/>
	<path d="M156.138,369.638c0.186,0,0.379,0.005,0.58,0.016c0.2,0.011,0.392,0.029,0.575,0.054c0.183,0.025,0.351,0.056,0.505,0.091
		c0.154,0.036,0.281,0.075,0.381,0.118l-0.269,1.944c-0.387-0.086-0.754-0.148-1.101-0.188c-0.348-0.039-0.711-0.059-1.09-0.059
		c-0.931,0-1.685,0.211-2.261,0.634c-0.577,0.423-1.001,1.014-1.273,1.772v7.455h-1.998v-11.623h1.891l0.097,1.848
		c0.473-0.637,1.04-1.14,1.703-1.509C154.539,369.823,155.292,369.638,156.138,369.638z"/>
	<path d="M162.035,369.853h5.94v9.904h3.792v1.719h-9.732v-1.719h3.953v-8.175h-3.953V369.853z M165.73,366.802
		c0-0.329,0.098-0.607,0.295-0.833c0.197-0.226,0.496-0.338,0.897-0.338c0.394,0,0.691,0.113,0.892,0.338
		c0.2,0.226,0.301,0.503,0.301,0.833c0,0.322-0.101,0.591-0.301,0.806c-0.201,0.215-0.498,0.322-0.892,0.322
		c-0.401,0-0.7-0.107-0.897-0.322C165.829,367.393,165.73,367.125,165.73,366.802z"/>
	<path d="M184.776,375.793c0,0.831-0.101,1.606-0.301,2.326c-0.201,0.72-0.494,1.345-0.881,1.875
		c-0.387,0.53-0.865,0.945-1.434,1.246s-1.223,0.451-1.96,0.451c-0.745,0-1.391-0.133-1.939-0.397s-1.015-0.645-1.402-1.139
		l-0.097,1.321h-1.826v-16.5h1.987v6.123c0.379-0.473,0.838-0.834,1.375-1.085c0.537-0.25,1.164-0.376,1.88-0.376
		c0.745,0,1.403,0.147,1.977,0.44c0.573,0.294,1.053,0.702,1.439,1.225c0.387,0.523,0.68,1.148,0.881,1.875
		c0.2,0.727,0.301,1.524,0.301,2.39V375.793z M182.789,375.568c0-0.565-0.056-1.104-0.167-1.617
		c-0.111-0.512-0.289-0.963-0.532-1.354c-0.244-0.39-0.562-0.7-0.956-0.929c-0.394-0.229-0.877-0.344-1.45-0.344
		c-0.344,0-0.659,0.045-0.945,0.134c-0.287,0.09-0.542,0.215-0.768,0.376s-0.426,0.351-0.602,0.569
		c-0.176,0.219-0.324,0.457-0.446,0.714v5.081c0.129,0.258,0.281,0.496,0.457,0.714c0.175,0.219,0.377,0.41,0.607,0.575
		c0.229,0.165,0.487,0.292,0.773,0.381c0.286,0.09,0.602,0.134,0.945,0.134c0.544,0,1.011-0.113,1.402-0.338
		c0.39-0.226,0.709-0.532,0.956-0.918s0.43-0.834,0.548-1.343c0.118-0.508,0.177-1.045,0.177-1.611V375.568z"/>
	<path d="M193.263,381.691c-0.816,0-1.567-0.14-2.25-0.419c-0.684-0.279-1.27-0.669-1.756-1.171
		c-0.487-0.501-0.867-1.096-1.139-1.783c-0.272-0.688-0.408-1.436-0.408-2.245v-0.451c0-0.938,0.15-1.778,0.451-2.519
		s0.7-1.368,1.198-1.88c0.498-0.512,1.063-0.904,1.697-1.176c0.634-0.272,1.284-0.408,1.95-0.408c0.838,0,1.57,0.145,2.197,0.435
		c0.626,0.29,1.147,0.691,1.563,1.203c0.415,0.512,0.725,1.116,0.929,1.81c0.204,0.695,0.306,1.447,0.306,2.256v0.892h-8.304
		c0.021,0.53,0.124,1.028,0.306,1.493c0.183,0.466,0.433,0.872,0.752,1.219c0.318,0.348,0.7,0.622,1.144,0.822
		c0.444,0.201,0.935,0.301,1.472,0.301c0.709,0,1.339-0.143,1.891-0.43c0.551-0.286,1.01-0.666,1.375-1.139l1.214,0.945
		c-0.193,0.294-0.435,0.575-0.725,0.843s-0.625,0.507-1.004,0.714c-0.38,0.208-0.81,0.375-1.289,0.5
		C194.351,381.628,193.828,381.691,193.263,381.691z M193.005,371.271c-0.401,0-0.781,0.074-1.139,0.22
		c-0.358,0.147-0.681,0.362-0.967,0.645c-0.287,0.283-0.528,0.63-0.725,1.042c-0.197,0.412-0.335,0.886-0.414,1.423h6.252v-0.15
		c-0.021-0.387-0.095-0.77-0.22-1.149c-0.125-0.379-0.31-0.72-0.553-1.021c-0.244-0.301-0.55-0.544-0.918-0.73
		C193.952,371.364,193.513,371.271,193.005,371.271z"/>
	<path d="M203.296,375.127c0-1.024,0.081-1.987,0.242-2.89s0.377-1.738,0.65-2.508c0.272-0.77,0.585-1.473,0.94-2.111
		c0.354-0.637,0.727-1.203,1.117-1.697c0.39-0.494,0.782-0.917,1.176-1.268c0.394-0.351,0.77-0.626,1.128-0.827l0.419,1.311
		c-0.444,0.337-0.886,0.795-1.327,1.375s-0.834,1.284-1.182,2.111c-0.348,0.827-0.63,1.78-0.849,2.857
		c-0.219,1.078-0.328,2.287-0.328,3.625v0.15c0,1.339,0.109,2.55,0.328,3.631c0.218,1.082,0.501,2.038,0.849,2.868
		c0.347,0.831,0.741,1.542,1.182,2.132s0.882,1.065,1.327,1.423l-0.419,1.215c-0.358-0.201-0.736-0.475-1.133-0.822
		s-0.792-0.77-1.182-1.268c-0.391-0.498-0.763-1.063-1.117-1.697s-0.666-1.335-0.935-2.105c-0.269-0.77-0.483-1.606-0.645-2.508
		s-0.242-1.865-0.242-2.89V375.127z"/>
	<path d="M219.119,378.028l0.15,0.838l0.15-0.806l2.557-8.207h3.115l-4.415,11.623h-2.804l-4.437-11.623h3.115L219.119,378.028z"/>
	<path d="M233.02,381.691c-0.896,0-1.708-0.147-2.438-0.44s-1.357-0.693-1.88-1.198c-0.523-0.505-0.926-1.099-1.208-1.783
		c-0.283-0.684-0.424-1.416-0.424-2.197v-0.43c0-0.888,0.14-1.699,0.419-2.433c0.279-0.734,0.669-1.366,1.171-1.896
		c0.501-0.53,1.096-0.941,1.783-1.235c0.688-0.293,1.436-0.44,2.245-0.44c0.838,0,1.584,0.138,2.24,0.414
		c0.655,0.276,1.21,0.665,1.665,1.166c0.455,0.501,0.8,1.105,1.037,1.81c0.236,0.706,0.354,1.484,0.354,2.336v1.268h-7.885
		c0.057,0.394,0.173,0.754,0.349,1.08c0.175,0.326,0.399,0.607,0.671,0.843c0.272,0.236,0.583,0.419,0.935,0.548
		c0.351,0.129,0.734,0.193,1.149,0.193c0.293,0,0.585-0.028,0.875-0.086c0.29-0.057,0.567-0.141,0.833-0.252
		c0.265-0.111,0.512-0.249,0.741-0.414c0.229-0.165,0.43-0.358,0.602-0.58l1.493,1.611c-0.187,0.265-0.428,0.525-0.725,0.779
		c-0.297,0.254-0.648,0.48-1.053,0.677c-0.405,0.197-0.854,0.356-1.348,0.478S233.592,381.691,233.02,381.691z M232.665,372.055
		c-0.337,0-0.645,0.059-0.924,0.177s-0.525,0.289-0.736,0.51c-0.211,0.222-0.389,0.487-0.532,0.795
		c-0.144,0.308-0.251,0.652-0.322,1.031h4.898v-0.236c-0.015-0.315-0.075-0.612-0.183-0.892s-0.262-0.521-0.462-0.725
		c-0.201-0.204-0.446-0.365-0.736-0.483S233.044,372.055,232.665,372.055z"/>
	<path d="M248.929,369.638c0.451,0,0.868,0.031,1.251,0.091c0.383,0.061,0.693,0.127,0.929,0.199l-0.44,2.976
		c-0.394-0.093-0.797-0.163-1.208-0.209c-0.412-0.046-0.804-0.07-1.176-0.07c-0.838,0-1.509,0.161-2.014,0.483
		s-0.883,0.784-1.133,1.386v6.982h-2.986v-11.623h2.782l0.14,1.901c0.473-0.659,1.038-1.176,1.697-1.552
		C247.428,369.826,248.148,369.638,248.929,369.638z"/>
	<path d="M261.046,381.476c-0.072-0.143-0.133-0.308-0.183-0.494c-0.05-0.186-0.093-0.383-0.129-0.591
		c-0.165,0.179-0.354,0.348-0.569,0.505c-0.215,0.158-0.453,0.295-0.714,0.414c-0.262,0.118-0.55,0.211-0.865,0.279
		c-0.315,0.068-0.655,0.102-1.021,0.102c-0.595,0-1.141-0.086-1.638-0.258c-0.498-0.172-0.926-0.412-1.284-0.72
		c-0.358-0.308-0.638-0.675-0.838-1.101c-0.201-0.426-0.301-0.89-0.301-1.391c0-1.225,0.457-2.171,1.37-2.841
		c0.913-0.669,2.275-1.004,4.087-1.004h1.665v-0.688c0-0.559-0.183-1-0.548-1.327c-0.365-0.326-0.892-0.489-1.579-0.489
		c-0.609,0-1.053,0.131-1.332,0.392c-0.279,0.262-0.419,0.611-0.419,1.047h-2.986c0-0.494,0.109-0.963,0.328-1.407
		c0.218-0.444,0.537-0.834,0.956-1.171c0.419-0.336,0.931-0.603,1.536-0.8c0.605-0.197,1.298-0.295,2.079-0.295
		c0.702,0,1.355,0.086,1.96,0.258c0.605,0.172,1.129,0.426,1.574,0.763c0.444,0.337,0.791,0.761,1.042,1.273
		c0.25,0.512,0.376,1.105,0.376,1.778v4.984c0,0.623,0.039,1.139,0.118,1.547c0.079,0.408,0.193,0.759,0.344,1.053v0.183H261.046z
		 M258.199,379.381c0.301,0,0.58-0.036,0.838-0.107c0.258-0.071,0.49-0.165,0.698-0.279c0.208-0.114,0.387-0.245,0.537-0.392
		c0.15-0.146,0.269-0.295,0.354-0.446v-1.998h-1.525c-0.466,0-0.863,0.045-1.192,0.134c-0.33,0.09-0.598,0.215-0.806,0.376
		c-0.208,0.161-0.362,0.354-0.462,0.58c-0.101,0.226-0.15,0.471-0.15,0.736c0,0.401,0.141,0.734,0.424,0.999
		C257.198,379.249,257.626,379.381,258.199,379.381z"/>
	<path d="M272.132,379.306c0.293,0,0.573-0.043,0.838-0.129c0.265-0.086,0.498-0.208,0.698-0.365c0.2-0.157,0.356-0.347,0.467-0.569
		c0.111-0.222,0.159-0.469,0.145-0.741h2.814c0.014,0.602-0.109,1.16-0.371,1.676c-0.262,0.516-0.618,0.96-1.069,1.332
		c-0.451,0.373-0.976,0.665-1.574,0.875c-0.598,0.211-1.23,0.317-1.896,0.317c-0.902,0-1.694-0.152-2.374-0.457
		c-0.681-0.304-1.248-0.721-1.703-1.251c-0.455-0.53-0.799-1.151-1.031-1.864c-0.233-0.712-0.349-1.477-0.349-2.293v-0.322
		c0-0.816,0.114-1.581,0.344-2.293c0.229-0.712,0.573-1.333,1.031-1.864c0.458-0.53,1.026-0.949,1.703-1.257
		c0.677-0.308,1.462-0.462,2.358-0.462c0.716,0,1.378,0.107,1.987,0.322c0.608,0.215,1.133,0.518,1.574,0.908
		c0.44,0.391,0.782,0.863,1.026,1.418c0.243,0.555,0.358,1.176,0.344,1.864h-2.814c0.014-0.286-0.029-0.559-0.129-0.816
		c-0.101-0.258-0.247-0.479-0.44-0.666c-0.193-0.186-0.426-0.334-0.698-0.446c-0.272-0.111-0.569-0.167-0.892-0.167
		c-0.473,0-0.863,0.097-1.171,0.29c-0.308,0.193-0.553,0.451-0.736,0.773s-0.312,0.691-0.387,1.106
		c-0.075,0.416-0.113,0.845-0.113,1.289v0.322c0,0.451,0.036,0.886,0.107,1.305c0.071,0.419,0.199,0.788,0.381,1.106
		c0.183,0.319,0.43,0.575,0.741,0.768S271.652,379.306,272.132,379.306z"/>
	<path d="M284.561,376.674l-1.354,1.257v3.545h-2.986v-16.5h2.986v9.432l0.902-1.031l3.212-3.523h3.588l-4.383,4.845l4.995,6.778
		h-3.663L284.561,376.674z"/>
	<path d="M300.996,375.235c0,1.024-0.081,1.987-0.242,2.89s-0.378,1.739-0.65,2.508c-0.272,0.77-0.585,1.472-0.94,2.105
		s-0.727,1.199-1.117,1.697c-0.391,0.498-0.784,0.92-1.182,1.268s-0.775,0.621-1.133,0.822l-0.419-1.215
		c0.444-0.329,0.886-0.789,1.327-1.38s0.834-1.305,1.182-2.143c0.347-0.838,0.63-1.801,0.849-2.89
		c0.218-1.088,0.328-2.302,0.328-3.642v-0.15c0-1.339-0.115-2.555-0.344-3.647c-0.229-1.092-0.525-2.059-0.886-2.9
		c-0.362-0.841-0.759-1.556-1.192-2.143c-0.434-0.587-0.854-1.045-1.262-1.375l0.419-1.214c0.358,0.201,0.736,0.477,1.133,0.827
		c0.397,0.351,0.791,0.773,1.182,1.268c0.39,0.494,0.763,1.06,1.117,1.697c0.354,0.638,0.667,1.341,0.94,2.111
		c0.272,0.77,0.489,1.606,0.65,2.508s0.242,1.866,0.242,2.89V375.235z"/>
</g>
<g>
	<rect x="80.642" y="416.152" fill="none" width="242.858" height="27.902"/>
	<path d="M90.234,429.568c0-0.236-0.047-0.449-0.14-0.639c-0.093-0.189-0.251-0.363-0.473-0.521
		c-0.222-0.156-0.516-0.302-0.881-0.435c-0.365-0.132-0.82-0.253-1.364-0.36c-0.666-0.135-1.273-0.301-1.821-0.494
		s-1.017-0.424-1.407-0.692c-0.391-0.269-0.693-0.583-0.908-0.945c-0.215-0.361-0.322-0.782-0.322-1.263
		c0-0.473,0.111-0.914,0.333-1.326c0.222-0.412,0.533-0.771,0.935-1.08c0.401-0.307,0.879-0.551,1.434-0.73
		c0.555-0.178,1.166-0.268,1.832-0.268c0.716,0,1.36,0.093,1.934,0.279c0.573,0.186,1.06,0.443,1.461,0.773
		c0.401,0.329,0.71,0.714,0.929,1.154c0.218,0.44,0.328,0.915,0.328,1.424h-1.987c0-0.251-0.064-0.496-0.193-0.736
		s-0.308-0.453-0.537-0.639c-0.229-0.187-0.507-0.337-0.833-0.451c-0.326-0.115-0.693-0.172-1.101-0.172
		c-0.423,0-0.793,0.047-1.112,0.139c-0.319,0.094-0.584,0.219-0.795,0.377c-0.211,0.157-0.371,0.34-0.478,0.547
		c-0.107,0.209-0.161,0.424-0.161,0.645c0,0.23,0.043,0.434,0.129,0.613c0.086,0.179,0.234,0.34,0.446,0.482
		c0.211,0.145,0.494,0.273,0.849,0.387c0.354,0.115,0.804,0.227,1.348,0.334c0.716,0.15,1.357,0.324,1.923,0.521
		c0.565,0.197,1.042,0.434,1.429,0.709c0.387,0.276,0.682,0.597,0.886,0.962s0.306,0.787,0.306,1.268
		c0,0.516-0.117,0.984-0.349,1.406c-0.233,0.424-0.557,0.785-0.972,1.086c-0.416,0.301-0.913,0.533-1.493,0.697
		c-0.58,0.165-1.214,0.248-1.901,0.248c-0.788,0-1.49-0.106-2.105-0.317c-0.616-0.211-1.137-0.49-1.563-0.838
		c-0.426-0.347-0.752-0.75-0.978-1.208c-0.226-0.459-0.338-0.936-0.338-1.43h1.987c0.028,0.408,0.138,0.752,0.328,1.031
		c0.189,0.279,0.426,0.506,0.709,0.678c0.283,0.172,0.596,0.293,0.94,0.365c0.344,0.071,0.684,0.107,1.021,0.107
		c0.838,0,1.5-0.154,1.987-0.463C89.98,430.486,90.227,430.078,90.234,429.568z"/>
	<path d="M100.848,432.867c-0.816,0-1.567-0.141-2.25-0.42c-0.684-0.279-1.27-0.669-1.756-1.17
		c-0.487-0.502-0.867-1.096-1.139-1.783c-0.272-0.688-0.408-1.436-0.408-2.246v-0.451c0-0.938,0.15-1.777,0.451-2.519
		s0.7-1.368,1.198-1.88c0.498-0.512,1.063-0.904,1.697-1.176c0.634-0.272,1.284-0.408,1.95-0.408c0.838,0,1.57,0.145,2.197,0.435
		c0.626,0.29,1.147,0.691,1.563,1.203c0.415,0.513,0.725,1.116,0.929,1.81c0.204,0.695,0.306,1.447,0.306,2.256v0.893h-8.304
		c0.021,0.529,0.124,1.027,0.306,1.492c0.183,0.467,0.433,0.873,0.752,1.22c0.318,0.348,0.7,0.622,1.144,0.821
		c0.444,0.201,0.935,0.301,1.472,0.301c0.709,0,1.339-0.143,1.891-0.43c0.551-0.285,1.01-0.666,1.375-1.139l1.214,0.945
		c-0.193,0.295-0.435,0.575-0.725,0.844s-0.625,0.507-1.004,0.715c-0.38,0.207-0.81,0.374-1.289,0.499
		C101.936,432.804,101.413,432.867,100.848,432.867z M100.59,422.447c-0.401,0-0.781,0.073-1.139,0.22
		c-0.358,0.147-0.681,0.362-0.967,0.645c-0.287,0.283-0.528,0.63-0.725,1.042c-0.197,0.412-0.335,0.887-0.414,1.424h6.252v-0.15
		c-0.021-0.387-0.095-0.77-0.22-1.15c-0.125-0.379-0.31-0.719-0.553-1.02c-0.244-0.301-0.55-0.545-0.918-0.73
		C101.537,422.54,101.098,422.447,100.59,422.447z"/>
	<path d="M110.698,421.029l0.14,1.719c0.422-0.602,0.941-1.072,1.558-1.413c0.616-0.34,1.303-0.514,2.062-0.521
		c0.608,0,1.162,0.086,1.66,0.258c0.498,0.172,0.922,0.439,1.273,0.805c0.351,0.365,0.621,0.83,0.811,1.392
		c0.189,0.562,0.285,1.229,0.285,2.003v7.381h-1.987v-7.338c0-0.516-0.058-0.951-0.172-1.311c-0.115-0.357-0.285-0.647-0.51-0.869
		c-0.226-0.223-0.501-0.383-0.827-0.484c-0.326-0.1-0.7-0.15-1.123-0.15c-0.666,0-1.251,0.167-1.756,0.5s-0.908,0.771-1.208,1.316
		v8.336h-1.987v-11.623H110.698z"/>
	<path d="M121.741,426.744c0-0.867,0.109-1.664,0.328-2.391c0.218-0.727,0.53-1.352,0.935-1.875c0.404-0.521,0.893-0.93,1.466-1.225
		c0.573-0.293,1.214-0.439,1.923-0.439c0.694,0,1.301,0.116,1.821,0.349c0.519,0.233,0.968,0.571,1.348,1.015v-6.025h1.987v16.5
		h-1.826l-0.086-1.225c-0.387,0.473-0.849,0.83-1.386,1.074c-0.537,0.242-1.164,0.365-1.88,0.365c-0.702,0-1.337-0.15-1.907-0.451
		s-1.055-0.717-1.456-1.246c-0.401-0.53-0.713-1.155-0.935-1.875c-0.222-0.72-0.333-1.494-0.333-2.326V426.744z M123.729,426.969
		c0,0.566,0.061,1.104,0.183,1.611c0.122,0.51,0.31,0.957,0.564,1.344c0.254,0.387,0.578,0.692,0.972,0.918
		c0.394,0.226,0.866,0.338,1.418,0.338c0.336,0,0.641-0.039,0.913-0.117c0.272-0.079,0.519-0.191,0.741-0.339
		c0.222-0.146,0.419-0.322,0.591-0.526s0.322-0.432,0.451-0.682v-5.393c-0.258-0.473-0.605-0.861-1.042-1.166
		c-0.437-0.305-0.981-0.457-1.633-0.457c-0.559,0-1.037,0.115-1.434,0.344c-0.397,0.23-0.724,0.539-0.978,0.93
		c-0.254,0.391-0.442,0.842-0.564,1.354c-0.122,0.512-0.183,1.051-0.183,1.617V426.969z"/>
	<path d="M137.285,426.303c0-1.023,0.081-1.986,0.242-2.889s0.377-1.738,0.65-2.509c0.272-0.77,0.585-1.474,0.94-2.11
		c0.354-0.638,0.727-1.203,1.117-1.697c0.39-0.494,0.782-0.917,1.176-1.268c0.394-0.352,0.77-0.627,1.128-0.828l0.419,1.311
		c-0.444,0.338-0.886,0.795-1.327,1.375s-0.834,1.284-1.182,2.111c-0.348,0.827-0.63,1.779-0.849,2.857
		c-0.219,1.078-0.328,2.287-0.328,3.625v0.15c0,1.34,0.109,2.551,0.328,3.631c0.218,1.082,0.501,2.038,0.849,2.869
		c0.347,0.83,0.741,1.541,1.182,2.132s0.882,1.065,1.327,1.423l-0.419,1.215c-0.358-0.201-0.736-0.475-1.133-0.822
		s-0.792-0.77-1.182-1.268c-0.391-0.498-0.763-1.063-1.117-1.697s-0.666-1.336-0.935-2.105s-0.483-1.605-0.645-2.508
		s-0.242-1.865-0.242-2.891V426.303z"/>
	<path d="M153.108,429.203l0.15,0.838l0.15-0.805l2.557-8.207h3.115l-4.415,11.623h-2.804l-4.437-11.623h3.115L153.108,429.203z"/>
	<path d="M167.009,432.867c-0.896,0-1.708-0.147-2.438-0.441c-0.73-0.293-1.357-0.692-1.88-1.197
		c-0.523-0.505-0.926-1.1-1.208-1.783c-0.283-0.684-0.424-1.416-0.424-2.197v-0.43c0-0.887,0.14-1.698,0.419-2.433
		c0.279-0.733,0.669-1.366,1.171-1.896c0.501-0.53,1.096-0.941,1.783-1.236c0.688-0.293,1.436-0.439,2.245-0.439
		c0.838,0,1.584,0.138,2.24,0.413c0.655,0.276,1.21,0.665,1.665,1.165c0.455,0.502,0.8,1.105,1.037,1.811s0.354,1.484,0.354,2.336
		v1.268h-7.885c0.057,0.395,0.173,0.754,0.349,1.08c0.175,0.326,0.399,0.607,0.671,0.844c0.272,0.236,0.583,0.418,0.935,0.547
		c0.351,0.129,0.734,0.193,1.149,0.193c0.293,0,0.585-0.027,0.875-0.086c0.29-0.057,0.567-0.141,0.833-0.252
		c0.265-0.111,0.512-0.248,0.741-0.414c0.229-0.164,0.43-0.357,0.602-0.58l1.493,1.611c-0.187,0.266-0.428,0.525-0.725,0.779
		c-0.297,0.254-0.648,0.48-1.053,0.677c-0.405,0.197-0.854,0.356-1.348,0.478C168.115,432.806,167.582,432.867,167.009,432.867z
		 M166.654,423.23c-0.337,0-0.645,0.06-0.924,0.178s-0.525,0.289-0.736,0.51c-0.211,0.223-0.389,0.488-0.532,0.795
		c-0.144,0.309-0.251,0.652-0.322,1.031h4.898v-0.236c-0.015-0.314-0.075-0.611-0.183-0.891s-0.262-0.521-0.462-0.726
		c-0.201-0.204-0.446-0.365-0.736-0.483S167.034,423.23,166.654,423.23z"/>
	<path d="M182.918,420.814c0.451,0,0.868,0.03,1.251,0.091c0.383,0.062,0.693,0.128,0.929,0.198l-0.44,2.977
		c-0.394-0.094-0.797-0.163-1.208-0.21c-0.412-0.046-0.804-0.069-1.176-0.069c-0.838,0-1.509,0.16-2.014,0.482
		s-0.883,0.785-1.133,1.387v6.982h-2.986v-11.623h2.782l0.14,1.9c0.473-0.658,1.038-1.176,1.697-1.552
		C181.417,421.002,182.137,420.814,182.918,420.814z"/>
	<path d="M195.271,429.461c0-0.178-0.042-0.336-0.124-0.473c-0.083-0.135-0.229-0.263-0.44-0.381
		c-0.211-0.118-0.493-0.227-0.843-0.328c-0.351-0.1-0.795-0.199-1.332-0.301c-0.681-0.135-1.302-0.306-1.864-0.51
		c-0.562-0.204-1.044-0.451-1.445-0.741c-0.401-0.29-0.714-0.624-0.94-1.005c-0.226-0.379-0.338-0.816-0.338-1.311
		c0-0.479,0.114-0.938,0.344-1.375c0.229-0.436,0.559-0.819,0.988-1.148c0.43-0.33,0.952-0.592,1.568-0.785
		c0.616-0.193,1.311-0.289,2.084-0.289c0.809,0,1.536,0.095,2.181,0.284c0.645,0.19,1.19,0.451,1.638,0.784
		c0.447,0.333,0.79,0.729,1.026,1.188c0.236,0.458,0.354,0.955,0.354,1.492h-2.986c0-0.451-0.183-0.828-0.548-1.133
		s-0.92-0.457-1.665-0.457c-0.695,0-1.219,0.126-1.574,0.377c-0.354,0.25-0.532,0.559-0.532,0.924c0,0.172,0.036,0.331,0.107,0.478
		c0.071,0.147,0.199,0.279,0.381,0.397s0.431,0.226,0.747,0.322c0.315,0.097,0.716,0.182,1.203,0.252
		c0.702,0.115,1.354,0.262,1.955,0.441c0.602,0.179,1.121,0.41,1.558,0.692c0.437,0.283,0.779,0.627,1.026,1.031
		c0.247,0.405,0.371,0.886,0.371,1.444c0,0.516-0.124,0.99-0.371,1.424s-0.598,0.808-1.053,1.123
		c-0.455,0.314-1.004,0.561-1.649,0.735s-1.364,0.263-2.159,0.263c-0.874,0-1.646-0.114-2.315-0.344
		c-0.67-0.229-1.23-0.527-1.681-0.896s-0.793-0.787-1.026-1.257c-0.233-0.469-0.349-0.94-0.349-1.413h2.847
		c0.021,0.316,0.107,0.586,0.258,0.812s0.344,0.408,0.58,0.548s0.506,0.242,0.811,0.307c0.304,0.064,0.618,0.096,0.94,0.096
		c0.737,0,1.3-0.117,1.687-0.354S195.271,429.834,195.271,429.461z"/>
	<path d="M201.771,421.029h6.327v9.195h3.147v2.428h-9.475v-2.428h3.309v-6.758h-3.309V421.029z M204.864,418.053
		c0-0.229,0.041-0.441,0.124-0.639c0.082-0.197,0.199-0.365,0.349-0.505s0.331-0.249,0.542-0.327
		c0.211-0.079,0.446-0.119,0.704-0.119c0.53,0,0.951,0.149,1.262,0.446c0.312,0.298,0.467,0.679,0.467,1.144
		c0,0.467-0.156,0.848-0.467,1.145s-0.732,0.445-1.262,0.445c-0.258,0-0.493-0.039-0.704-0.117
		c-0.211-0.079-0.392-0.188-0.542-0.328s-0.267-0.308-0.349-0.505C204.905,418.496,204.864,418.283,204.864,418.053z"/>
	<path d="M213.77,426.732c0-0.844,0.122-1.627,0.365-2.347c0.243-0.72,0.6-1.345,1.069-1.874c0.469-0.53,1.042-0.945,1.719-1.246
		s1.452-0.451,2.326-0.451c0.874,0,1.65,0.15,2.331,0.451c0.68,0.301,1.255,0.716,1.724,1.246c0.469,0.529,0.825,1.154,1.069,1.874
		c0.243,0.72,0.365,1.503,0.365,2.347v0.227c0,0.852-0.122,1.638-0.365,2.357c-0.244,0.72-0.598,1.345-1.063,1.875
		c-0.466,0.529-1.039,0.943-1.719,1.24c-0.681,0.297-1.454,0.445-2.32,0.445c-0.874,0-1.653-0.148-2.336-0.445
		c-0.684-0.297-1.261-0.711-1.729-1.24c-0.469-0.53-0.826-1.155-1.069-1.875c-0.244-0.72-0.365-1.506-0.365-2.357V426.732z
		 M216.756,426.959c0,0.486,0.046,0.943,0.14,1.369c0.093,0.426,0.24,0.799,0.44,1.117c0.2,0.318,0.46,0.571,0.779,0.758
		c0.318,0.186,0.704,0.279,1.155,0.279c0.437,0,0.812-0.094,1.128-0.279c0.315-0.187,0.571-0.439,0.768-0.758
		c0.197-0.318,0.342-0.691,0.435-1.117c0.093-0.426,0.14-0.883,0.14-1.369v-0.227c0-0.473-0.047-0.92-0.14-1.342
		c-0.093-0.423-0.238-0.795-0.435-1.117c-0.197-0.322-0.453-0.576-0.768-0.764c-0.315-0.186-0.698-0.279-1.149-0.279
		c-0.444,0-0.824,0.094-1.139,0.279c-0.315,0.188-0.573,0.441-0.773,0.764c-0.201,0.322-0.348,0.694-0.44,1.117
		c-0.093,0.422-0.14,0.869-0.14,1.342V426.959z"/>
	<path d="M230.087,421.029l0.183,1.611c0.415-0.58,0.92-1.029,1.515-1.349c0.594-0.318,1.253-0.478,1.977-0.478
		c0.587,0,1.124,0.086,1.611,0.258c0.487,0.172,0.908,0.445,1.262,0.821s0.63,0.859,0.827,1.45c0.197,0.591,0.295,1.309,0.295,2.154
		v7.154h-2.986v-7.111c0-0.459-0.052-0.836-0.156-1.134c-0.104-0.297-0.252-0.532-0.446-0.704s-0.426-0.291-0.698-0.359
		c-0.272-0.068-0.58-0.102-0.924-0.102c-0.509,0-0.942,0.102-1.3,0.306c-0.358,0.204-0.648,0.485-0.87,0.843v8.262h-2.997v-11.623
		H230.087z"/>
	<path d="M248.188,426.41c0,1.025-0.081,1.988-0.242,2.891s-0.378,1.738-0.65,2.508c-0.272,0.77-0.585,1.472-0.94,2.105
		s-0.727,1.199-1.117,1.697c-0.391,0.498-0.784,0.92-1.182,1.268s-0.775,0.621-1.133,0.822l-0.419-1.215
		c0.444-0.329,0.886-0.789,1.327-1.38s0.834-1.306,1.182-2.144c0.347-0.838,0.63-1.801,0.849-2.889
		c0.218-1.089,0.328-2.303,0.328-3.643v-0.15c0-1.338-0.115-2.555-0.344-3.646c-0.229-1.092-0.525-2.059-0.886-2.9
		c-0.362-0.842-0.759-1.556-1.192-2.143c-0.434-0.588-0.854-1.046-1.262-1.375l0.419-1.215c0.358,0.201,0.736,0.477,1.133,0.828
		c0.397,0.351,0.791,0.773,1.182,1.268c0.39,0.494,0.763,1.06,1.117,1.697c0.354,0.637,0.667,1.341,0.94,2.11
		c0.272,0.771,0.489,1.606,0.65,2.509s0.242,1.865,0.242,2.889V426.41z"/>
</g>
<g>
	<path fill="none" stroke="#000000" stroke-width="2" stroke-miterlimit="10" d="M62,232v230.586c0,5.5,4.5,10.414,10,10.414h558
		c5.5,0,10-4.914,10-10.414V278c0-5.5-4.5-10-10-10H80c-5.5,0-10.985-4.391-12.188-9.758L62,232.333"/>
</g>
<polygon fill="#43EF60" points="360,375.121 344,312 344,375.121 344,438.242 "/>
<g>
</g>
<g>
</g>
<g>
</g>
<g>
</g>
<g>
</g>
<g>
</g>
<g>
</g>
<g>
</g>
<g>
</g>
<g>
</g>
<g>
</g>
<g>
</g>
<g>
</g>
<g>
</g>
<g>
</g>
</svg>
