<?xml version="1.0" encoding="utf-8"?>
<!-- Generator: Adobe Illustrator 16.0.4, SVG Export Plug-In . SVG Version: 6.00 Build 0)  -->
<!DOCTYPE svg PUBLIC "-//W3C//DTD SVG 1.1//EN" "http://www.w3.org/Graphics/SVG/1.1/DTD/svg11.dtd">
<svg version="1.1" id="Script_Verify2__x28_P2PKH_x29_"
	 xmlns="http://www.w3.org/2000/svg" xmlns:xlink="http://www.w3.org/1999/xlink" x="0px" y="0px" width="1366px" height="768px"
	 viewBox="0 0 1366 768" enable-background="new 0 0 1366 768" xml:space="preserve">
<rect x="-0.5" y="0.5" fill="#FFFFFF" width="1366" height="768"/>
<line fill="none" stroke="#000000" stroke-width="3" stroke-miterlimit="10" x1="116" y1="213.5" x2="579" y2="213.5"/>
<g>
	<rect x="-5.5" y="172.098" fill="none" width="163" height="43"/>
	<path d="M49.295,188.817v-15.705h3.33v12.955h6.37v2.75H49.295z"/>
	<path d="M72.38,182.791c0,1.955-0.517,3.484-1.547,4.587c-1.031,1.104-2.467,1.654-4.309,1.654c-1.152,0-2.17-0.252-3.051-0.757
		s-1.558-1.23-2.03-2.175c-0.472-0.945-0.709-2.048-0.709-3.31c0-1.962,0.513-3.486,1.536-4.576
		c1.024-1.088,2.463-1.633,4.318-1.633c1.153,0,2.17,0.251,3.051,0.752s1.559,1.222,2.03,2.159
		C72.144,180.432,72.38,181.531,72.38,182.791z M64.076,182.791c0,1.189,0.194,2.088,0.585,2.696
		c0.39,0.609,1.025,0.913,1.906,0.913c0.874,0,1.502-0.302,1.886-0.908c0.383-0.604,0.574-1.505,0.574-2.702
		c0-1.188-0.192-2.08-0.58-2.675c-0.387-0.594-1.021-0.892-1.9-0.892c-0.874,0-1.504,0.295-1.892,0.886
		C64.269,180.7,64.076,181.595,64.076,182.791z"/>
	<path d="M79.964,189.032c-3.738,0-5.607-2.052-5.607-6.155c0-2.041,0.509-3.6,1.525-4.678s2.474-1.617,4.372-1.617
		c1.389,0,2.635,0.272,3.738,0.816l-0.968,2.535c-0.516-0.208-0.996-0.377-1.438-0.511c-0.444-0.132-0.889-0.198-1.332-0.198
		c-1.705,0-2.558,1.21-2.558,3.631c0,2.349,0.853,3.522,2.558,3.522c0.63,0,1.214-0.084,1.751-0.252s1.074-0.431,1.611-0.79v2.805
		c-0.53,0.337-1.065,0.568-1.606,0.697C81.469,188.969,80.787,189.032,79.964,189.032z"/>
	<path d="M94.025,188.817l-0.634-1.633h-0.086c-0.552,0.694-1.119,1.176-1.703,1.444c-0.584,0.27-1.345,0.403-2.283,0.403
		c-1.152,0-2.061-0.329-2.723-0.988c-0.663-0.658-0.994-1.597-0.994-2.813c0-1.274,0.446-2.214,1.337-2.82
		c0.893-0.604,2.236-0.939,4.034-1.004l2.084-0.064v-0.525c0-1.217-0.623-1.826-1.869-1.826c-0.96,0-2.088,0.29-3.384,0.87
		l-1.085-2.213c1.382-0.724,2.915-1.085,4.598-1.085c1.611,0,2.848,0.351,3.706,1.053c0.859,0.702,1.289,1.769,1.289,3.201v8.003
		h-2.287V188.817z M93.059,183.253l-1.268,0.043c-0.953,0.029-1.662,0.201-2.127,0.517c-0.467,0.314-0.698,0.795-0.698,1.438
		c0,0.924,0.53,1.387,1.59,1.387c0.759,0,1.366-0.219,1.821-0.655c0.455-0.438,0.682-1.018,0.682-1.74V183.253z"/>
	<path d="M102.963,188.817h-3.276v-16.715h3.276V188.817z"/>
</g>
<line fill="none" stroke="#000000" stroke-width="3" stroke-miterlimit="10" x1="76" y1="213.5" x2="627" y2="213.5"/>
<g>
	<rect x="490" y="172.098" fill="none" width="163" height="43"/>
	<path d="M573.014,182.791v6.026h-3.33v-15.705h4.576c2.134,0,3.713,0.389,4.736,1.166c1.024,0.777,1.536,1.957,1.536,3.54
		c0,0.924-0.254,1.746-0.763,2.465c-0.509,0.72-1.229,1.284-2.159,1.692c2.363,3.53,3.903,5.812,4.619,6.843h-3.695l-3.749-6.026
		L573.014,182.791L573.014,182.791z M573.014,180.084h1.074c1.053,0,1.83-0.175,2.33-0.525c0.502-0.352,0.753-0.902,0.753-1.654
		c0-0.745-0.257-1.274-0.769-1.59s-1.305-0.474-2.379-0.474h-1.01V180.084L573.014,180.084z"/>
	<path d="M589.385,189.032c-1.935,0-3.445-0.533-4.533-1.601c-1.089-1.067-1.633-2.578-1.633-4.533c0-2.012,0.503-3.568,1.509-4.667
		c1.006-1.1,2.396-1.649,4.173-1.649c1.697,0,3.02,0.483,3.964,1.45c0.945,0.967,1.418,2.303,1.418,4.007v1.59h-7.745
		c0.036,0.932,0.312,1.658,0.827,2.182c0.517,0.522,1.239,0.784,2.17,0.784c0.724,0,1.407-0.075,2.053-0.227
		c0.645-0.151,1.316-0.39,2.02-0.72v2.535c-0.573,0.287-1.186,0.5-1.837,0.639C591.117,188.962,590.323,189.032,589.385,189.032z
		 M588.923,178.913c-0.695,0-1.239,0.22-1.634,0.661c-0.394,0.44-0.619,1.065-0.677,1.875h4.599
		c-0.016-0.809-0.227-1.434-0.635-1.875C590.169,179.133,589.616,178.913,588.923,178.913z"/>
	<path d="M607.699,188.817h-3.275v-7.015c0-0.866-0.146-1.517-0.436-1.95s-0.747-0.65-1.37-0.65c-0.838,0-1.446,0.309-1.825,0.924
		c-0.381,0.616-0.569,1.629-0.569,3.04v5.65h-3.276v-12.01h2.503l0.44,1.535h0.183c0.322-0.551,0.788-0.982,1.396-1.294
		c0.607-0.312,1.307-0.467,2.095-0.467c1.797,0,3.015,0.587,3.652,1.762h0.29c0.321-0.559,0.796-0.991,1.423-1.3
		c0.626-0.308,1.333-0.462,2.122-0.462c1.359,0,2.39,0.35,3.088,1.047c0.698,0.698,1.047,1.817,1.047,3.357v7.831H611.9v-7.016
		c0-0.865-0.145-1.516-0.435-1.949s-0.747-0.65-1.37-0.65c-0.802,0-1.402,0.287-1.799,0.859c-0.397,0.572-0.597,1.481-0.597,2.729
		V188.817z"/>
	<path d="M629.464,182.791c0,1.955-0.517,3.484-1.548,4.587c-1.03,1.104-2.467,1.654-4.308,1.654c-1.153,0-2.17-0.252-3.051-0.757
		s-1.558-1.23-2.03-2.175c-0.472-0.945-0.709-2.048-0.709-3.31c0-1.962,0.512-3.486,1.536-4.576
		c1.024-1.088,2.463-1.633,4.318-1.633c1.152,0,2.17,0.251,3.051,0.752s1.558,1.222,2.03,2.159
		C629.228,180.432,629.464,181.531,629.464,182.791z M621.159,182.791c0,1.189,0.195,2.088,0.585,2.696
		c0.391,0.609,1.026,0.913,1.907,0.913c0.874,0,1.502-0.302,1.885-0.908c0.384-0.604,0.575-1.505,0.575-2.702
		c0-1.188-0.192-2.08-0.58-2.675c-0.387-0.594-1.021-0.892-1.9-0.892c-0.874,0-1.504,0.295-1.892,0.886
		C621.353,180.7,621.159,181.595,621.159,182.791z"/>
	<path d="M637.23,186.422c0.573,0,1.26-0.125,2.062-0.376v2.438c-0.815,0.365-1.818,0.548-3.008,0.548
		c-1.311,0-2.265-0.331-2.862-0.994c-0.599-0.662-0.897-1.656-0.897-2.98v-5.79h-1.568v-1.387l1.806-1.096l0.944-2.535h2.096v2.558
		h3.361v2.46h-3.361v5.79c0,0.466,0.13,0.81,0.392,1.03C636.454,186.311,636.801,186.422,637.23,186.422z"/>
	<path d="M647.156,189.032c-1.934,0-3.444-0.533-4.533-1.601s-1.633-2.578-1.633-4.533c0-2.012,0.503-3.568,1.509-4.667
		c1.007-1.1,2.397-1.649,4.174-1.649c1.696,0,3.019,0.483,3.964,1.45c0.944,0.967,1.418,2.303,1.418,4.007v1.59h-7.745
		c0.036,0.932,0.312,1.658,0.827,2.182c0.516,0.522,1.239,0.784,2.17,0.784c0.723,0,1.407-0.075,2.052-0.227
		c0.646-0.151,1.317-0.39,2.021-0.72v2.535c-0.573,0.287-1.187,0.5-1.837,0.639C648.889,188.962,648.094,189.032,647.156,189.032z
		 M646.694,178.913c-0.695,0-1.239,0.22-1.633,0.661c-0.395,0.44-0.62,1.065-0.677,1.875h4.598
		c-0.015-0.809-0.226-1.434-0.634-1.875S647.389,178.913,646.694,178.913z"/>
</g>
<circle cx="63" cy="213" r="13"/>
<circle fill="none" stroke="#000000" stroke-width="3" stroke-miterlimit="10" cx="640" cy="213" r="13"/>
<g>
	<g>
		
			<line fill="none" stroke="#E15218" stroke-width="2" stroke-linecap="round" stroke-miterlimit="10" x1="87" y1="304" x2="627" y2="304"/>
		<g>
			<polygon fill="#E15218" points="89,311.179 75.702,303.5 89,295.821 			"/>
		</g>
	</g>
</g>
<g>
	<g>
		
			<line fill="none" stroke="#E15218" stroke-width="2" stroke-linecap="round" stroke-miterlimit="10" x1="76" y1="374" x2="616" y2="374"/>
		<g>
			<polygon fill="#E15218" points="614,381.179 627.298,373.5 614,365.821 			"/>
		</g>
	</g>
</g>
<g>
	<g>
		
			<line fill="none" stroke="#E15218" stroke-width="2" stroke-linecap="round" stroke-miterlimit="10" x1="616" y1="444" x2="76" y2="444"/>
		<g>
			<polygon fill="#E15218" points="614,435.823 627.298,443.503 614,451.181 			"/>
		</g>
	</g>
</g>
<g>
	<g>
		
			<line fill="none" stroke="#E15218" stroke-width="2" stroke-linecap="round" stroke-miterlimit="10" x1="627" y1="514" x2="87" y2="514"/>
		<g>
			<polygon fill="#E15218" points="89,505.823 75.702,513.503 89,521.181 			"/>
		</g>
	</g>
</g>
<g>
	<rect x="245.438" y="270" fill="none" width="204.998" height="33.5"/>
	<path d="M255.506,282.128l2.954-11.269h3.33l-4.737,15.641h-3.072l-4.727-15.641h3.33L255.506,282.128z"/>
	<path d="M273.156,279.646h-6.424v4.415h7.51v2.438h-10.538v-15.641h10.506v2.46h-7.478v3.941h6.425L273.156,279.646
		L273.156,279.646z"/>
	<path d="M282.04,280.656h-2.288v5.844h-3.02v-15.641h5.242c0.866,0,1.65,0.102,2.354,0.306c0.701,0.204,1.301,0.503,1.799,0.897
		c0.498,0.394,0.881,0.885,1.148,1.472c0.27,0.587,0.403,1.269,0.403,2.041c0,0.559-0.066,1.062-0.199,1.509
		c-0.133,0.448-0.321,0.85-0.568,1.203c-0.247,0.354-0.544,0.665-0.893,0.929c-0.348,0.266-0.735,0.494-1.166,0.688l3.362,6.456
		v0.14h-3.233L282.04,280.656z M279.751,278.207h2.233c0.853,0,1.51-0.216,1.972-0.649s0.692-1.026,0.692-1.778
		c0-0.78-0.226-1.387-0.677-1.821c-0.451-0.433-1.117-0.649-1.998-0.649h-2.224L279.751,278.207L279.751,278.207z"/>
	<path d="M298.056,282.418c0-0.278-0.048-0.541-0.145-0.784c-0.098-0.242-0.263-0.471-0.494-0.682
		c-0.233-0.211-0.537-0.404-0.913-0.58c-0.376-0.175-0.843-0.338-1.402-0.489c-0.681-0.186-1.331-0.419-1.95-0.697
		c-0.619-0.279-1.166-0.616-1.638-1.011c-0.473-0.394-0.851-0.852-1.133-1.375c-0.283-0.521-0.424-1.124-0.424-1.805
		c0-0.659,0.14-1.257,0.419-1.794c0.278-0.537,0.666-0.995,1.16-1.375c0.493-0.379,1.077-0.671,1.751-0.875
		c0.673-0.204,1.402-0.306,2.19-0.306c0.816,0,1.563,0.118,2.24,0.354c0.677,0.236,1.258,0.568,1.746,0.994
		c0.487,0.426,0.866,0.933,1.139,1.521c0.272,0.587,0.408,1.231,0.408,1.934h-2.943c-0.015-0.351-0.076-0.673-0.188-0.967
		c-0.111-0.293-0.276-0.546-0.494-0.757c-0.219-0.211-0.491-0.376-0.816-0.494s-0.708-0.178-1.144-0.178
		c-0.401,0-0.757,0.049-1.069,0.146c-0.312,0.097-0.574,0.233-0.79,0.408c-0.215,0.176-0.378,0.383-0.488,0.623
		c-0.111,0.239-0.167,0.5-0.167,0.778c0,0.294,0.072,0.56,0.22,0.795c0.146,0.236,0.36,0.45,0.639,0.64
		c0.279,0.189,0.618,0.364,1.016,0.521c0.396,0.158,0.847,0.306,1.348,0.44c0.716,0.208,1.375,0.462,1.977,0.763
		c0.603,0.301,1.119,0.657,1.553,1.069c0.433,0.412,0.77,0.881,1.01,1.407c0.24,0.525,0.36,1.111,0.36,1.756
		c0,0.688-0.139,1.298-0.414,1.832c-0.276,0.534-0.657,0.984-1.145,1.354s-1.066,0.648-1.74,0.838
		c-0.673,0.189-1.406,0.285-2.201,0.285c-0.494,0-0.987-0.045-1.478-0.134c-0.491-0.089-0.96-0.227-1.407-0.414
		c-0.447-0.186-0.864-0.419-1.251-0.698c-0.386-0.278-0.722-0.604-1.004-0.978c-0.283-0.372-0.505-0.795-0.666-1.269
		c-0.161-0.473-0.242-0.994-0.242-1.567h2.966c0.014,0.473,0.097,0.877,0.246,1.214c0.15,0.337,0.36,0.612,0.629,0.827
		c0.268,0.215,0.591,0.373,0.967,0.473c0.376,0.102,0.79,0.15,1.241,0.15c0.4,0,0.757-0.046,1.068-0.141
		c0.312-0.093,0.575-0.222,0.79-0.387s0.379-0.363,0.494-0.596C297.999,282.954,298.056,282.697,298.056,282.418z"/>
	<path d="M303.803,270.859h9.045v2.438h-3.051v10.774h3.051v2.428h-9.045v-2.428h2.976v-10.774h-2.976V270.859z"/>
	<path d="M327.253,279.829c0,1.003-0.133,1.927-0.397,2.771s-0.647,1.571-1.148,2.181s-1.112,1.083-1.832,1.423
		c-0.721,0.34-1.531,0.51-2.434,0.51c-0.901,0-1.705-0.17-2.405-0.51c-0.702-0.34-1.293-0.815-1.772-1.429
		c-0.479-0.612-0.845-1.339-1.096-2.181s-0.376-1.764-0.376-2.767v-2.276c0-1.003,0.125-1.927,0.376-2.771
		c0.25-0.845,0.616-1.574,1.096-2.186c0.479-0.612,1.069-1.091,1.767-1.435c0.698-0.344,1.499-0.516,2.401-0.516
		c0.909,0,1.724,0.172,2.444,0.516c0.72,0.344,1.33,0.822,1.832,1.435c0.501,0.611,0.884,1.341,1.148,2.186
		c0.266,0.845,0.397,1.769,0.397,2.771L327.253,279.829L327.253,279.829z M324.192,277.53c0-0.637-0.052-1.225-0.155-1.762
		c-0.104-0.537-0.268-0.999-0.489-1.387c-0.222-0.387-0.507-0.688-0.854-0.907s-0.768-0.328-1.262-0.328
		c-0.487,0-0.896,0.108-1.225,0.328c-0.33,0.219-0.596,0.521-0.795,0.907c-0.201,0.388-0.345,0.85-0.431,1.387
		s-0.129,1.125-0.129,1.762v2.299c0,0.63,0.043,1.214,0.129,1.751s0.229,1.003,0.431,1.396c0.199,0.394,0.465,0.702,0.795,0.924
		c0.329,0.222,0.74,0.333,1.234,0.333c0.487,0,0.904-0.111,1.251-0.333c0.348-0.222,0.63-0.528,0.85-0.918
		c0.218-0.391,0.381-0.854,0.488-1.392c0.108-0.536,0.161-1.123,0.161-1.762L324.192,277.53L324.192,277.53z"/>
	<path d="M339.854,286.5h-3.008l-4.351-10.087V286.5h-3.04v-15.641h3.04l4.317,10.044l0.011-10.044h3.029L339.854,286.5
		L339.854,286.5z"/>
	<path d="M345.042,280.141c0-1.011,0.077-1.96,0.23-2.853c0.154-0.892,0.363-1.715,0.628-2.471c0.266-0.755,0.575-1.445,0.93-2.068
		c0.354-0.623,0.729-1.174,1.123-1.653c0.394-0.479,0.8-0.887,1.219-1.22s0.825-0.589,1.219-0.768l0.58,1.633
		c-0.401,0.308-0.802,0.722-1.203,1.241s-0.761,1.164-1.08,1.934c-0.318,0.771-0.579,1.667-0.779,2.691
		c-0.2,1.023-0.301,2.195-0.301,3.513v0.279c0,1.325,0.101,2.5,0.301,3.522c0.2,1.024,0.461,1.922,0.779,2.691
		s0.678,1.416,1.08,1.939c0.401,0.521,0.802,0.938,1.203,1.245l-0.58,1.611c-0.394-0.179-0.8-0.437-1.219-0.772
		c-0.419-0.338-0.826-0.743-1.219-1.22c-0.395-0.477-0.769-1.025-1.123-1.648c-0.355-0.623-0.665-1.312-0.93-2.068
		c-0.265-0.755-0.475-1.577-0.628-2.465s-0.23-1.84-0.23-2.857V280.141z"/>
	<path d="M364.4,274.662c0.451,0,0.868,0.031,1.251,0.091c0.384,0.062,0.693,0.127,0.93,0.199l-0.44,2.977
		c-0.394-0.094-0.797-0.163-1.208-0.209c-0.412-0.047-0.804-0.07-1.176-0.07c-0.838,0-1.509,0.161-2.014,0.482
		c-0.506,0.322-0.884,0.784-1.134,1.387v6.981h-2.985v-11.623h2.781l0.141,1.901c0.473-0.659,1.038-1.176,1.697-1.552
		C362.899,274.85,363.619,274.662,364.4,274.662z"/>
	<path d="M374.895,286.715c-0.896,0-1.708-0.146-2.438-0.439c-0.73-0.293-1.357-0.693-1.88-1.198
		c-0.523-0.505-0.927-1.099-1.208-1.783c-0.283-0.684-0.425-1.416-0.425-2.196v-0.431c0-0.888,0.141-1.698,0.419-2.433
		c0.279-0.734,0.67-1.366,1.172-1.896c0.501-0.529,1.096-0.94,1.782-1.234c0.688-0.293,1.437-0.44,2.245-0.44
		c0.838,0,1.584,0.139,2.24,0.414c0.655,0.276,1.21,0.665,1.665,1.166s0.8,1.105,1.037,1.811c0.235,0.705,0.354,1.483,0.354,2.336
		v1.268h-7.885c0.057,0.395,0.173,0.754,0.349,1.08s0.399,0.607,0.672,0.843c0.271,0.236,0.583,0.419,0.935,0.548
		c0.351,0.129,0.734,0.193,1.149,0.193c0.293,0,0.585-0.028,0.875-0.086c0.289-0.057,0.566-0.141,0.833-0.252
		c0.265-0.111,0.512-0.249,0.74-0.414c0.229-0.165,0.431-0.358,0.603-0.58l1.493,1.611c-0.188,0.265-0.429,0.524-0.726,0.778
		s-0.647,0.48-1.053,0.678c-0.405,0.196-0.854,0.355-1.348,0.478C376.002,286.656,375.468,286.715,374.895,286.715z
		 M374.541,277.079c-0.337,0-0.646,0.06-0.924,0.177c-0.279,0.118-0.525,0.289-0.736,0.511s-0.389,0.486-0.532,0.795
		c-0.144,0.308-0.251,0.651-0.322,1.031h4.898v-0.236c-0.015-0.315-0.075-0.612-0.183-0.893c-0.108-0.279-0.263-0.521-0.463-0.725
		s-0.445-0.365-0.735-0.483C375.254,277.138,374.92,277.079,374.541,277.079z"/>
	<path d="M384.316,274.877l0.086,1.407c0.223-0.501,0.528-0.896,0.918-1.187c0.391-0.29,0.865-0.436,1.424-0.436
		c0.938,0,1.55,0.412,1.837,1.235c0.229-0.387,0.521-0.689,0.875-0.908c0.354-0.218,0.781-0.328,1.283-0.328
		c0.352,0,0.679,0.064,0.983,0.193c0.304,0.129,0.569,0.335,0.795,0.618c0.227,0.282,0.401,0.647,0.526,1.096
		s0.188,0.994,0.188,1.638v8.293h-2.718v-8.304c0-0.222-0.022-0.404-0.07-0.548c-0.047-0.144-0.108-0.256-0.188-0.338
		s-0.17-0.141-0.274-0.172c-0.104-0.032-0.209-0.049-0.316-0.049c-0.208,0-0.383,0.049-0.526,0.146s-0.254,0.228-0.333,0.392v8.873
		h-2.632v-8.313c0-0.223-0.021-0.404-0.064-0.548s-0.102-0.255-0.177-0.333c-0.075-0.079-0.163-0.135-0.263-0.167
		c-0.102-0.032-0.208-0.049-0.322-0.049c-0.229,0-0.414,0.064-0.553,0.193s-0.249,0.301-0.328,0.516v8.701h-2.718v-11.623
		L384.316,274.877L384.316,274.877z"/>
	<path d="M395.251,280.581c0-0.845,0.122-1.627,0.365-2.347c0.242-0.72,0.6-1.344,1.068-1.875c0.469-0.53,1.042-0.945,1.719-1.246
		s1.452-0.451,2.326-0.451s1.65,0.15,2.331,0.451c0.68,0.301,1.255,0.716,1.724,1.246c0.47,0.53,0.825,1.155,1.069,1.875
		c0.243,0.72,0.365,1.502,0.365,2.347v0.227c0,0.853-0.122,1.638-0.365,2.357c-0.244,0.721-0.598,1.346-1.063,1.875
		c-0.466,0.53-1.038,0.944-1.719,1.241s-1.454,0.446-2.319,0.446c-0.874,0-1.653-0.149-2.337-0.446s-1.261-0.71-1.729-1.241
		c-0.469-0.529-0.826-1.154-1.068-1.875c-0.244-0.72-0.365-1.505-0.365-2.357v-0.227H395.251z M398.238,280.807
		c0,0.486,0.046,0.943,0.141,1.37c0.093,0.426,0.239,0.799,0.439,1.116c0.2,0.319,0.46,0.571,0.779,0.757
		c0.317,0.188,0.704,0.279,1.155,0.279c0.437,0,0.812-0.093,1.128-0.279c0.314-0.186,0.57-0.438,0.768-0.757
		c0.197-0.317,0.342-0.69,0.435-1.116c0.094-0.427,0.141-0.883,0.141-1.37v-0.227c0-0.473-0.047-0.92-0.141-1.343
		c-0.093-0.422-0.237-0.795-0.435-1.117s-0.453-0.576-0.768-0.763c-0.315-0.187-0.698-0.279-1.149-0.279
		c-0.444,0-0.824,0.093-1.139,0.279c-0.315,0.187-0.573,0.439-0.773,0.763c-0.201,0.322-0.348,0.695-0.439,1.117
		c-0.094,0.423-0.141,0.87-0.141,1.343L398.238,280.807L398.238,280.807z"/>
	<path d="M414.34,272.03v2.847h4.34v2.202h-4.34v4.995c0,0.423,0.048,0.775,0.145,1.058c0.097,0.283,0.234,0.51,0.414,0.678
		c0.179,0.168,0.396,0.289,0.65,0.359c0.254,0.072,0.539,0.107,0.854,0.107c0.229,0,0.463-0.011,0.704-0.032
		c0.24-0.021,0.469-0.048,0.688-0.081c0.218-0.032,0.422-0.065,0.611-0.102s0.354-0.071,0.489-0.107l0.29,2.052
		c-0.208,0.122-0.451,0.229-0.73,0.317c-0.278,0.09-0.576,0.163-0.892,0.22c-0.315,0.058-0.643,0.103-0.983,0.134
		c-0.34,0.032-0.675,0.049-1.004,0.049c-0.638,0-1.216-0.084-1.734-0.252c-0.521-0.168-0.963-0.431-1.332-0.784
		c-0.369-0.354-0.654-0.807-0.854-1.354c-0.201-0.548-0.301-1.205-0.301-1.971v-5.285h-2.653v-2.202h2.653v-2.847H414.34
		L414.34,272.03z"/>
	<path d="M427.703,286.715c-0.896,0-1.708-0.146-2.438-0.439c-0.73-0.293-1.357-0.693-1.88-1.198
		c-0.523-0.505-0.926-1.099-1.208-1.783c-0.283-0.684-0.424-1.416-0.424-2.196v-0.431c0-0.888,0.14-1.698,0.419-2.433
		c0.278-0.734,0.669-1.366,1.171-1.896c0.501-0.529,1.096-0.94,1.783-1.234c0.688-0.293,1.436-0.44,2.244-0.44
		c0.839,0,1.584,0.139,2.24,0.414c0.655,0.276,1.21,0.665,1.665,1.166s0.8,1.105,1.037,1.811c0.236,0.705,0.354,1.483,0.354,2.336
		v1.268h-7.886c0.058,0.395,0.173,0.754,0.35,1.08c0.175,0.326,0.398,0.607,0.671,0.843c0.271,0.236,0.583,0.419,0.935,0.548
		s0.734,0.193,1.149,0.193c0.293,0,0.585-0.028,0.875-0.086c0.29-0.057,0.566-0.141,0.833-0.252
		c0.265-0.111,0.512-0.249,0.741-0.414c0.229-0.165,0.43-0.358,0.602-0.58l1.493,1.611c-0.188,0.265-0.429,0.524-0.726,0.778
		s-0.647,0.48-1.053,0.678c-0.405,0.196-0.854,0.355-1.348,0.478S428.276,286.715,427.703,286.715z M427.349,277.079
		c-0.337,0-0.646,0.06-0.924,0.177c-0.279,0.118-0.525,0.289-0.736,0.511s-0.389,0.486-0.532,0.795
		c-0.144,0.308-0.251,0.651-0.321,1.031h4.897v-0.236c-0.015-0.315-0.075-0.612-0.183-0.893c-0.108-0.279-0.263-0.521-0.462-0.725
		c-0.201-0.204-0.446-0.365-0.736-0.483C428.062,277.138,427.729,277.079,427.349,277.079z"/>
	<path d="M443.215,280.377c0,0.981-0.079,1.911-0.236,2.788c-0.158,0.877-0.373,1.696-0.645,2.455
		c-0.272,0.759-0.59,1.452-0.951,2.079c-0.362,0.626-0.747,1.185-1.155,1.676c-0.408,0.49-0.827,0.908-1.257,1.251
		c-0.43,0.344-0.85,0.605-1.257,0.784l-0.569-1.611c0.395-0.301,0.791-0.713,1.192-1.234c0.4-0.523,0.763-1.167,1.085-1.935
		c0.321-0.767,0.583-1.665,0.783-2.695c0.2-1.031,0.302-2.209,0.302-3.534v-0.279c0-1.316-0.104-2.492-0.312-3.522
		c-0.208-1.031-0.473-1.935-0.795-2.707c-0.322-0.773-0.682-1.421-1.08-1.944c-0.396-0.522-0.79-0.935-1.176-1.235l0.569-1.601
		c0.407,0.179,0.826,0.44,1.257,0.784c0.43,0.344,0.849,0.761,1.257,1.251c0.408,0.491,0.793,1.049,1.155,1.676
		c0.36,0.627,0.678,1.32,0.95,2.079s0.487,1.578,0.646,2.455c0.157,0.877,0.236,1.807,0.236,2.788L443.215,280.377L443.215,280.377z
		"/>
</g>
<g>
	<rect x="231.939" y="340" fill="none" width="231.997" height="33.5"/>
	<path d="M314.916,352.129l2.954-11.27h3.33l-4.737,15.641h-3.072l-4.727-15.641h3.33L314.916,352.129z"/>
	<path d="M332.565,349.646h-6.424v4.415h7.509v2.438h-10.538v-15.641h10.507v2.46h-7.478v3.942h6.424V349.646L332.565,349.646z"/>
	<path d="M341.449,350.656h-2.288v5.844h-3.02v-15.641h5.242c0.866,0,1.65,0.103,2.353,0.306c0.702,0.204,1.302,0.504,1.8,0.897
		s0.881,0.885,1.148,1.472c0.27,0.587,0.403,1.269,0.403,2.041c0,0.56-0.066,1.062-0.199,1.509c-0.133,0.448-0.322,0.85-0.569,1.203
		c-0.247,0.354-0.544,0.665-0.892,0.93s-0.736,0.494-1.166,0.688l3.362,6.456v0.14h-3.233L341.449,350.656z M339.161,348.207h2.233
		c0.853,0,1.509-0.216,1.972-0.649c0.462-0.434,0.692-1.026,0.692-1.778c0-0.78-0.226-1.387-0.677-1.821
		c-0.451-0.433-1.117-0.649-1.998-0.649h-2.224L339.161,348.207L339.161,348.207z"/>
	<path d="M357.036,353.234h-4.694l-0.924,3.266h-3.181l5.124-15.641h2.739l5.027,15.641h-3.18L357.036,353.234z M353.083,350.668
		h3.244l-1.602-5.759L353.083,350.668z"/>
	<path d="M373.407,351.602c-0.051,0.788-0.221,1.497-0.511,2.127s-0.679,1.167-1.166,1.611c-0.486,0.443-1.066,0.786-1.739,1.025
		c-0.674,0.24-1.418,0.36-2.234,0.36c-0.924,0-1.744-0.17-2.46-0.51s-1.318-0.816-1.805-1.43c-0.487-0.611-0.859-1.348-1.117-2.208
		c-0.258-0.859-0.388-1.805-0.388-2.836v-2.104c0-1.038,0.137-1.987,0.408-2.848c0.272-0.858,0.659-1.597,1.16-2.213
		c0.501-0.615,1.108-1.094,1.821-1.434c0.712-0.34,1.513-0.51,2.4-0.51c0.859,0,1.624,0.122,2.293,0.364
		c0.67,0.244,1.241,0.592,1.714,1.042c0.472,0.451,0.845,1.004,1.116,1.654c0.272,0.652,0.444,1.386,0.517,2.202h-3.008
		c-0.029-0.465-0.1-0.874-0.209-1.225c-0.111-0.352-0.272-0.644-0.483-0.875c-0.211-0.232-0.477-0.408-0.795-0.526
		c-0.319-0.118-0.7-0.177-1.145-0.177c-0.466,0-0.869,0.101-1.214,0.301c-0.344,0.201-0.628,0.494-0.854,0.881
		c-0.227,0.387-0.393,0.861-0.5,1.423c-0.107,0.562-0.161,1.202-0.161,1.917v2.127c0,1.54,0.216,2.68,0.65,3.416
		c0.433,0.738,1.118,1.106,2.057,1.106c0.788,0,1.411-0.209,1.869-0.628s0.712-1.098,0.763-2.036L373.407,351.602L373.407,351.602z"
		/>
	<path d="M380.411,350.076l-1.654,1.815v4.607h-3.029v-15.641h3.029v7.165l1.418-1.912l3.803-5.253h3.695l-5.264,6.918l5.457,8.724
		h-3.589L380.411,350.076z"/>
</g>
<g>
	<rect x="235.938" y="412.276" fill="none" width="224" height="33.5"/>
	<path d="M262.107,424.404l2.954-11.269h3.33l-4.737,15.641h-3.071l-4.728-15.641h3.33L262.107,424.404z"/>
	<path d="M279.757,421.924h-6.424v4.415h7.509v2.438h-10.538v-15.641h10.506v2.46h-7.477v3.941h6.424V421.924L279.757,421.924z"/>
	<path d="M288.641,422.933h-2.288v5.844h-3.019v-15.641h5.242c0.865,0,1.649,0.103,2.353,0.306c0.702,0.205,1.301,0.504,1.799,0.897
		s0.881,0.885,1.149,1.472c0.269,0.588,0.402,1.268,0.402,2.041c0,0.559-0.065,1.062-0.198,1.51
		c-0.134,0.447-0.322,0.849-0.569,1.203s-0.544,0.664-0.892,0.929c-0.349,0.266-0.736,0.494-1.166,0.688l3.361,6.456v0.14h-3.232
		L288.641,422.933z M286.353,420.483h2.234c0.852,0,1.509-0.216,1.971-0.648c0.462-0.434,0.693-1.026,0.693-1.778
		c0-0.78-0.227-1.388-0.677-1.821c-0.451-0.433-1.117-0.648-1.998-0.648h-2.225L286.353,420.483L286.353,420.483z"/>
	<path d="M304.657,424.694c0-0.279-0.049-0.54-0.146-0.784c-0.097-0.242-0.262-0.471-0.494-0.682s-0.537-0.404-0.913-0.58
		s-0.843-0.339-1.401-0.489c-0.682-0.187-1.331-0.419-1.95-0.697c-0.62-0.279-1.166-0.615-1.638-1.011
		c-0.474-0.394-0.852-0.852-1.134-1.375c-0.282-0.521-0.424-1.124-0.424-1.805c0-0.658,0.141-1.257,0.419-1.794
		c0.279-0.537,0.666-0.995,1.16-1.375s1.078-0.671,1.751-0.876c0.673-0.203,1.403-0.306,2.191-0.306
		c0.815,0,1.562,0.117,2.239,0.354c0.678,0.236,1.259,0.568,1.746,0.994s0.866,0.933,1.14,1.52c0.271,0.589,0.407,1.232,0.407,1.935
		h-2.942c-0.016-0.352-0.077-0.673-0.188-0.967c-0.11-0.293-0.275-0.547-0.494-0.759c-0.219-0.211-0.49-0.375-0.815-0.493
		c-0.326-0.117-0.708-0.178-1.145-0.178c-0.4,0-0.757,0.048-1.068,0.146c-0.312,0.096-0.575,0.231-0.79,0.408
		c-0.215,0.176-0.378,0.383-0.489,0.623c-0.111,0.239-0.167,0.498-0.167,0.777c0,0.294,0.073,0.56,0.22,0.795
		c0.146,0.236,0.36,0.45,0.64,0.641c0.278,0.189,0.618,0.362,1.015,0.521c0.397,0.158,0.847,0.305,1.348,0.44
		c0.717,0.208,1.375,0.462,1.978,0.763c0.602,0.301,1.119,0.657,1.552,1.069s0.771,0.881,1.01,1.405
		c0.24,0.527,0.36,1.112,0.36,1.758c0,0.688-0.138,1.298-0.414,1.831s-0.657,0.984-1.144,1.354c-0.487,0.369-1.067,0.648-1.74,0.838
		s-1.407,0.285-2.202,0.285c-0.494,0-0.987-0.045-1.477-0.135c-0.491-0.089-0.961-0.228-1.407-0.413
		c-0.448-0.188-0.865-0.419-1.251-0.698c-0.387-0.279-0.723-0.604-1.004-0.978c-0.283-0.372-0.506-0.795-0.666-1.269
		c-0.161-0.473-0.242-0.995-0.242-1.567h2.965c0.014,0.473,0.097,0.878,0.247,1.214c0.15,0.337,0.36,0.611,0.628,0.827
		c0.268,0.215,0.591,0.371,0.967,0.473c0.376,0.101,0.79,0.149,1.241,0.149c0.401,0,0.757-0.046,1.069-0.14
		c0.312-0.093,0.574-0.222,0.79-0.387c0.215-0.164,0.379-0.363,0.493-0.597C304.6,425.23,304.657,424.974,304.657,424.694z"/>
	<path d="M310.404,413.136h9.046v2.438h-3.052v10.774h3.052v2.428h-9.046v-2.428h2.977v-10.774h-2.977V413.136z"/>
	<path d="M333.854,422.105c0,1.003-0.133,1.927-0.396,2.771c-0.266,0.846-0.648,1.571-1.149,2.181
		c-0.501,0.607-1.112,1.083-1.832,1.423s-1.531,0.511-2.433,0.511c-0.902,0-1.705-0.171-2.406-0.511
		c-0.702-0.34-1.293-0.816-1.772-1.428c-0.479-0.613-0.845-1.34-1.096-2.183c-0.251-0.841-0.376-1.763-0.376-2.766v-2.277
		c0-1.002,0.125-1.926,0.376-2.771c0.25-0.845,0.616-1.574,1.096-2.187s1.069-1.091,1.768-1.435s1.499-0.516,2.401-0.516
		c0.908,0,1.724,0.172,2.443,0.516s1.33,0.821,1.832,1.435c0.501,0.611,0.884,1.342,1.149,2.187c0.265,0.846,0.396,1.77,0.396,2.771
		L333.854,422.105L333.854,422.105z M330.793,419.807c0-0.637-0.052-1.226-0.156-1.762c-0.104-0.537-0.267-0.999-0.489-1.387
		c-0.222-0.387-0.507-0.688-0.854-0.906c-0.349-0.22-0.769-0.328-1.263-0.328c-0.486,0-0.896,0.108-1.225,0.328
		c-0.33,0.219-0.595,0.521-0.795,0.906c-0.201,0.388-0.344,0.85-0.43,1.387c-0.086,0.536-0.129,1.125-0.129,1.762v2.299
		c0,0.631,0.043,1.214,0.129,1.751s0.229,1.003,0.43,1.396c0.2,0.394,0.465,0.701,0.795,0.924c0.329,0.222,0.741,0.333,1.235,0.333
		c0.486,0,0.903-0.111,1.251-0.333c0.347-0.223,0.63-0.528,0.849-0.919c0.218-0.391,0.381-0.854,0.489-1.392
		c0.107-0.537,0.161-1.124,0.161-1.762L330.793,419.807L330.793,419.807z"/>
	<path d="M346.455,428.776h-3.009l-4.351-10.087v10.087h-3.04v-15.641h3.04l4.318,10.044l0.011-10.044h3.029L346.455,428.776
		L346.455,428.776z"/>
	<path d="M351.644,422.418c0-1.011,0.077-1.961,0.231-2.854c0.153-0.891,0.362-1.715,0.628-2.471
		c0.265-0.755,0.575-1.444,0.929-2.067c0.354-0.623,0.729-1.175,1.123-1.654c0.394-0.479,0.8-0.886,1.219-1.22
		c0.419-0.332,0.825-0.588,1.22-0.768l0.579,1.633c-0.4,0.309-0.802,0.722-1.202,1.24c-0.401,0.52-0.762,1.164-1.08,1.934
		c-0.319,0.771-0.579,1.668-0.779,2.691c-0.201,1.023-0.301,2.194-0.301,3.513v0.279c0,1.324,0.1,2.499,0.301,3.522
		c0.2,1.024,0.46,1.921,0.779,2.69c0.317,0.77,0.678,1.416,1.08,1.938c0.4,0.522,0.802,0.938,1.202,1.246l-0.579,1.611
		c-0.395-0.18-0.801-0.438-1.22-0.773c-0.419-0.337-0.826-0.743-1.219-1.219c-0.394-0.477-0.768-1.026-1.123-1.648
		c-0.354-0.623-0.665-1.312-0.929-2.067c-0.266-0.756-0.476-1.578-0.628-2.466c-0.154-0.889-0.231-1.841-0.231-2.857V422.418z"/>
	<path d="M363.277,412.276h6.499v14.072h3.33v2.428h-9.829v-2.428h3.48v-11.634h-3.48V412.276L363.277,412.276z"/>
	<path d="M375.448,422.857c0-0.845,0.122-1.627,0.365-2.348c0.243-0.72,0.601-1.345,1.069-1.874c0.469-0.53,1.042-0.945,1.719-1.246
		s1.452-0.451,2.326-0.451s1.65,0.15,2.331,0.451c0.68,0.301,1.255,0.716,1.724,1.246c0.47,0.529,0.825,1.154,1.069,1.874
		c0.243,0.721,0.365,1.503,0.365,2.348v0.227c0,0.853-0.122,1.638-0.365,2.357c-0.244,0.719-0.598,1.344-1.063,1.874
		s-1.039,0.944-1.719,1.241c-0.681,0.297-1.454,0.445-2.32,0.445c-0.873,0-1.652-0.148-2.336-0.445s-1.261-0.711-1.729-1.241
		c-0.469-0.53-0.826-1.155-1.069-1.874c-0.244-0.721-0.364-1.506-0.364-2.357v-0.227H375.448z M378.435,423.084
		c0,0.486,0.046,0.943,0.141,1.369c0.093,0.427,0.239,0.8,0.439,1.117c0.2,0.318,0.46,0.57,0.779,0.757
		c0.317,0.188,0.704,0.279,1.155,0.279c0.437,0,0.812-0.093,1.128-0.279c0.314-0.187,0.57-0.438,0.768-0.757
		c0.197-0.317,0.342-0.69,0.435-1.117c0.094-0.426,0.141-0.883,0.141-1.369v-0.227c0-0.473-0.047-0.92-0.141-1.343
		c-0.093-0.423-0.237-0.795-0.435-1.117s-0.453-0.576-0.768-0.763c-0.315-0.187-0.698-0.279-1.149-0.279
		c-0.444,0-0.824,0.094-1.139,0.279c-0.315,0.187-0.573,0.439-0.773,0.763c-0.201,0.322-0.348,0.694-0.439,1.117
		c-0.094,0.423-0.141,0.87-0.141,1.343L378.435,423.084L378.435,423.084z"/>
	<path d="M394.204,426.606c0.293,0,0.572-0.043,0.838-0.129c0.265-0.086,0.498-0.208,0.698-0.365
		c0.199-0.157,0.355-0.347,0.467-0.568c0.11-0.223,0.158-0.47,0.145-0.741h2.814c0.014,0.602-0.109,1.16-0.371,1.676
		c-0.263,0.516-0.618,0.96-1.069,1.332s-0.976,0.665-1.574,0.876c-0.598,0.211-1.229,0.316-1.896,0.316
		c-0.902,0-1.694-0.152-2.374-0.457c-0.681-0.305-1.248-0.722-1.703-1.251c-0.455-0.53-0.799-1.151-1.031-1.864
		c-0.232-0.712-0.349-1.478-0.349-2.293v-0.322c0-0.816,0.114-1.58,0.344-2.293s0.573-1.334,1.031-1.864
		c0.458-0.529,1.026-0.947,1.703-1.257c0.677-0.308,1.462-0.462,2.357-0.462c0.717,0,1.378,0.107,1.987,0.322
		c0.607,0.215,1.133,0.518,1.574,0.907c0.439,0.391,0.781,0.862,1.025,1.418c0.243,0.556,0.358,1.177,0.345,1.863h-2.814
		c0.014-0.286-0.029-0.559-0.129-0.815c-0.102-0.258-0.247-0.479-0.439-0.666c-0.193-0.188-0.427-0.335-0.698-0.446
		c-0.272-0.11-0.569-0.166-0.893-0.166c-0.473,0-0.862,0.097-1.171,0.29c-0.308,0.193-0.553,0.451-0.735,0.773
		c-0.184,0.321-0.312,0.69-0.388,1.105c-0.074,0.416-0.112,0.846-0.112,1.289v0.322c0,0.451,0.036,0.887,0.106,1.305
		c0.071,0.42,0.199,0.789,0.381,1.107c0.183,0.317,0.431,0.573,0.741,0.768C393.326,426.51,393.724,426.606,394.204,426.606z"/>
	<path d="M409.522,428.776c-0.072-0.144-0.133-0.308-0.183-0.494c-0.051-0.187-0.094-0.383-0.129-0.591
		c-0.165,0.18-0.354,0.348-0.569,0.505s-0.453,0.296-0.714,0.413c-0.263,0.119-0.55,0.211-0.865,0.279
		c-0.315,0.067-0.655,0.103-1.021,0.103c-0.596,0-1.142-0.086-1.639-0.258c-0.498-0.172-0.926-0.411-1.284-0.72
		c-0.357-0.309-0.638-0.675-0.838-1.103c-0.201-0.426-0.301-0.889-0.301-1.391c0-1.225,0.457-2.172,1.37-2.842
		c0.913-0.669,2.275-1.004,4.087-1.004h1.665v-0.688c0-0.559-0.183-1-0.548-1.326c-0.365-0.325-0.893-0.488-1.579-0.488
		c-0.609,0-1.053,0.131-1.332,0.392c-0.279,0.262-0.419,0.611-0.419,1.048h-2.986c0-0.494,0.109-0.963,0.328-1.407
		c0.218-0.442,0.537-0.834,0.956-1.171s0.931-0.603,1.536-0.8c0.604-0.197,1.298-0.296,2.079-0.296c0.702,0,1.354,0.086,1.96,0.258
		c0.604,0.172,1.129,0.427,1.574,0.764c0.443,0.337,0.791,0.762,1.042,1.272c0.25,0.512,0.376,1.104,0.376,1.777v4.983
		c0,0.623,0.039,1.14,0.118,1.547c0.078,0.408,0.192,0.761,0.344,1.054v0.183L409.522,428.776L409.522,428.776z M406.676,426.682
		c0.301,0,0.58-0.035,0.838-0.107c0.258-0.07,0.49-0.164,0.698-0.278s0.387-0.245,0.536-0.394c0.15-0.146,0.27-0.295,0.354-0.444
		v-1.998h-1.525c-0.466,0-0.862,0.045-1.191,0.135c-0.33,0.09-0.599,0.215-0.807,0.375c-0.208,0.162-0.361,0.354-0.462,0.58
		c-0.101,0.227-0.149,0.472-0.149,0.735c0,0.401,0.141,0.734,0.424,0.999S406.103,426.682,406.676,426.682z"/>
	<path d="M416.086,412.276h6.499v14.072h3.329v2.428h-9.828v-2.428h3.479v-11.634h-3.479V412.276L416.086,412.276z"/>
	<path d="M436.614,422.653c0,0.981-0.079,1.911-0.235,2.788c-0.158,0.877-0.373,1.695-0.646,2.454
		c-0.271,0.759-0.589,1.452-0.951,2.079c-0.361,0.626-0.747,1.185-1.154,1.676c-0.408,0.49-0.827,0.907-1.258,1.251
		c-0.43,0.344-0.849,0.604-1.257,0.784l-0.568-1.611c0.394-0.301,0.791-0.713,1.191-1.234c0.401-0.522,0.764-1.167,1.085-1.935
		c0.322-0.767,0.583-1.665,0.784-2.695c0.2-1.031,0.301-2.209,0.301-3.534v-0.279c0-1.317-0.104-2.492-0.312-3.523
		c-0.208-1.03-0.474-1.934-0.795-2.706c-0.322-0.773-0.683-1.422-1.08-1.944s-0.79-0.936-1.176-1.235l0.568-1.601
		c0.408,0.18,0.827,0.439,1.257,0.784c0.431,0.344,0.85,0.761,1.258,1.251c0.407,0.49,0.793,1.05,1.154,1.676
		c0.361,0.627,0.679,1.32,0.951,2.079s0.487,1.577,0.646,2.454c0.156,0.878,0.235,1.807,0.235,2.788L436.614,422.653
		L436.614,422.653z"/>
</g>
<g>
	<rect x="235.938" y="480" fill="none" width="224" height="33.5"/>
	<path d="M314.916,492.129l2.954-11.27h3.33l-4.737,15.641h-3.072l-4.727-15.641h3.33L314.916,492.129z"/>
	<path d="M332.565,489.646h-6.424v4.415h7.509v2.438h-10.538v-15.641h10.507v2.46h-7.478v3.942h6.424V489.646L332.565,489.646z"/>
	<path d="M341.449,490.656h-2.288v5.844h-3.02v-15.641h5.242c0.866,0,1.65,0.103,2.353,0.307c0.702,0.203,1.302,0.504,1.8,0.896
		c0.498,0.395,0.881,0.885,1.148,1.472c0.269,0.587,0.403,1.269,0.403,2.041c0,0.56-0.066,1.062-0.199,1.509
		c-0.133,0.448-0.322,0.851-0.569,1.203c-0.247,0.355-0.544,0.665-0.892,0.931s-0.736,0.494-1.166,0.688l3.362,6.456v0.141h-3.233
		L341.449,490.656z M339.161,488.207h2.233c0.853,0,1.509-0.217,1.972-0.649c0.462-0.434,0.692-1.025,0.692-1.777
		c0-0.78-0.226-1.387-0.677-1.819c-0.451-0.434-1.117-0.65-1.998-0.65h-2.224L339.161,488.207L339.161,488.207z"/>
	<path d="M357.036,493.234h-4.694l-0.924,3.266h-3.181l5.124-15.641h2.739l5.027,15.641h-3.18L357.036,493.234z M353.083,490.668
		h3.244l-1.602-5.759L353.083,490.668z"/>
	<path d="M373.407,491.602c-0.051,0.788-0.221,1.497-0.511,2.127c-0.29,0.631-0.679,1.168-1.166,1.611
		c-0.486,0.443-1.066,0.786-1.739,1.024c-0.674,0.24-1.418,0.36-2.234,0.36c-0.924,0-1.744-0.171-2.46-0.511
		c-0.716-0.341-1.318-0.816-1.805-1.429c-0.487-0.612-0.859-1.349-1.117-2.208c-0.258-0.858-0.388-1.805-0.388-2.836v-2.104
		c0-1.038,0.137-1.987,0.408-2.848c0.272-0.858,0.659-1.597,1.16-2.213c0.501-0.614,1.108-1.094,1.821-1.434
		c0.712-0.34,1.513-0.511,2.4-0.511c0.859,0,1.624,0.122,2.293,0.364c0.67,0.243,1.241,0.592,1.714,1.042
		c0.472,0.451,0.845,1.003,1.116,1.654c0.272,0.652,0.444,1.386,0.517,2.202h-3.008c-0.029-0.466-0.1-0.874-0.209-1.225
		c-0.111-0.352-0.272-0.644-0.483-0.876s-0.477-0.408-0.795-0.525c-0.319-0.119-0.7-0.178-1.145-0.178
		c-0.466,0-0.869,0.101-1.214,0.301c-0.344,0.201-0.628,0.494-0.854,0.881c-0.227,0.387-0.393,0.861-0.5,1.424
		c-0.108,0.563-0.161,1.201-0.161,1.917v2.127c0,1.54,0.216,2.68,0.65,3.416c0.433,0.737,1.118,1.106,2.057,1.106
		c0.788,0,1.411-0.209,1.869-0.629c0.458-0.418,0.712-1.098,0.763-2.035h3.02V491.602z"/>
	<path d="M380.411,490.076l-1.654,1.815v4.607h-3.029v-15.641h3.029v7.165l1.418-1.912l3.803-5.253h3.695l-5.264,6.918l5.457,8.724
		h-3.589L380.411,490.076z"/>
</g>
<line fill="none" stroke="#000000" stroke-width="3" stroke-linecap="round" stroke-miterlimit="10" x1="61.5" y1="258" x2="61.5" y2="557"/>
<line fill="none" stroke="#000000" stroke-width="3" stroke-linecap="round" stroke-miterlimit="10" x1="639.5" y1="258" x2="639.5" y2="557"/>
</svg>
