<?xml version="1.0" encoding="utf-8"?>
<!-- Generator: Adobe Illustrator 16.0.4, SVG Export Plug-In . SVG Version: 6.00 Build 0)  -->
<!DOCTYPE svg PUBLIC "-//W3C//DTD SVG 1.1//EN" "http://www.w3.org/Graphics/SVG/1.1/DTD/svg11.dtd">
<svg version="1.1" id="Script_Verify2__x28_P2PKH_x29_"
	 xmlns="http://www.w3.org/2000/svg" xmlns:xlink="http://www.w3.org/1999/xlink" x="0px" y="0px" width="1366px" height="768px"
	 viewBox="0 0 1366 768" enable-background="new 0 0 1366 768" xml:space="preserve">
<line fill="none" stroke="#000000" stroke-width="3" stroke-miterlimit="10" x1="116" y1="213.5" x2="579" y2="213.5"/>
<g>
	<rect x="-5.5" y="172.098" fill="none" width="163" height="43"/>
	<path d="M49.295,188.817v-15.705h3.33v12.955h6.37v2.75H49.295z"/>
	<path d="M72.38,182.791c0,1.955-0.516,3.484-1.547,4.587c-1.031,1.103-2.467,1.654-4.308,1.654c-1.153,0-2.17-0.252-3.051-0.757
		s-1.558-1.23-2.03-2.175s-0.709-2.048-0.709-3.309c0-1.962,0.512-3.487,1.536-4.576c1.024-1.088,2.463-1.633,4.318-1.633
		c1.153,0,2.17,0.251,3.051,0.752c0.881,0.501,1.558,1.221,2.03,2.159C72.144,180.432,72.38,181.531,72.38,182.791z M64.076,182.791
		c0,1.189,0.195,2.088,0.585,2.696c0.39,0.609,1.026,0.913,1.907,0.913c0.874,0,1.502-0.302,1.885-0.908
		c0.383-0.605,0.575-1.505,0.575-2.702c0-1.188-0.193-2.08-0.58-2.675c-0.387-0.594-1.021-0.892-1.901-0.892
		c-0.874,0-1.504,0.295-1.891,0.886S64.076,181.595,64.076,182.791z"/>
	<path d="M79.964,189.032c-3.738,0-5.607-2.052-5.607-6.155c0-2.041,0.508-3.6,1.525-4.678c1.017-1.078,2.474-1.617,4.372-1.617
		c1.389,0,2.635,0.272,3.738,0.816l-0.967,2.535c-0.516-0.208-0.996-0.377-1.439-0.51c-0.444-0.132-0.888-0.199-1.332-0.199
		c-1.705,0-2.557,1.21-2.557,3.631c0,2.349,0.852,3.523,2.557,3.523c0.63,0,1.214-0.084,1.751-0.252
		c0.537-0.168,1.074-0.431,1.611-0.79v2.804c-0.53,0.337-1.065,0.569-1.606,0.698C81.469,188.968,80.787,189.032,79.964,189.032z"/>
	<path d="M94.025,188.817l-0.634-1.633h-0.086c-0.552,0.695-1.119,1.176-1.703,1.445c-0.584,0.269-1.345,0.403-2.283,0.403
		c-1.153,0-2.061-0.329-2.723-0.988c-0.663-0.659-0.994-1.597-0.994-2.814c0-1.274,0.446-2.214,1.337-2.82
		c0.892-0.605,2.236-0.94,4.034-1.004l2.084-0.064v-0.526c0-1.217-0.623-1.826-1.869-1.826c-0.96,0-2.088,0.29-3.384,0.87
		l-1.085-2.213c1.382-0.723,2.915-1.085,4.598-1.085c1.611,0,2.847,0.351,3.706,1.053c0.859,0.702,1.289,1.769,1.289,3.201v8.003
		H94.025z M93.059,183.253l-1.268,0.043c-0.953,0.029-1.662,0.201-2.127,0.516c-0.466,0.315-0.698,0.795-0.698,1.439
		c0,0.924,0.53,1.386,1.59,1.386c0.759,0,1.366-0.218,1.821-0.655c0.455-0.437,0.682-1.017,0.682-1.74V183.253z"/>
	<path d="M102.963,188.817h-3.276v-16.715h3.276V188.817z"/>
</g>
<line fill="none" stroke="#000000" stroke-width="3" stroke-miterlimit="10" x1="76" y1="213.5" x2="627" y2="213.5"/>
<g>
	<rect x="490" y="172.098" fill="none" width="163" height="43"/>
	<path d="M573.014,182.791v6.026h-3.33v-15.705h4.576c2.134,0,3.713,0.389,4.737,1.166c1.024,0.777,1.536,1.957,1.536,3.54
		c0,0.924-0.254,1.746-0.763,2.465c-0.509,0.72-1.229,1.284-2.159,1.692c2.363,3.531,3.903,5.812,4.619,6.843h-3.695l-3.749-6.026
		H573.014z M573.014,180.084h1.074c1.053,0,1.83-0.175,2.331-0.526c0.501-0.351,0.752-0.902,0.752-1.654
		c0-0.745-0.256-1.274-0.768-1.59c-0.512-0.315-1.305-0.473-2.379-0.473h-1.01V180.084z"/>
	<path d="M589.385,189.032c-1.934,0-3.445-0.533-4.533-1.601c-1.089-1.067-1.633-2.578-1.633-4.533c0-2.012,0.503-3.568,1.509-4.667
		c1.006-1.099,2.397-1.649,4.173-1.649c1.697,0,3.019,0.483,3.964,1.45s1.418,2.303,1.418,4.007v1.59h-7.745
		c0.036,0.931,0.312,1.658,0.827,2.181c0.516,0.523,1.239,0.784,2.17,0.784c0.723,0,1.407-0.075,2.052-0.226s1.317-0.39,2.02-0.72
		v2.535c-0.573,0.287-1.186,0.5-1.837,0.639C591.118,188.962,590.323,189.032,589.385,189.032z M588.923,178.913
		c-0.695,0-1.239,0.22-1.633,0.661c-0.394,0.44-0.62,1.065-0.677,1.875h4.598c-0.015-0.809-0.226-1.434-0.634-1.875
		S589.617,178.913,588.923,178.913z"/>
	<path d="M607.7,188.817h-3.276v-7.015c0-0.866-0.145-1.516-0.435-1.95c-0.29-0.433-0.747-0.65-1.37-0.65
		c-0.838,0-1.447,0.308-1.826,0.924c-0.38,0.616-0.569,1.629-0.569,3.04v5.65h-3.276v-12.01h2.503l0.44,1.536h0.183
		c0.322-0.551,0.788-0.983,1.396-1.294c0.608-0.312,1.307-0.467,2.095-0.467c1.797,0,3.015,0.587,3.652,1.762h0.29
		c0.322-0.559,0.796-0.992,1.423-1.3c0.626-0.308,1.333-0.462,2.122-0.462c1.36,0,2.39,0.349,3.088,1.047s1.047,1.817,1.047,3.357
		v7.831H611.9v-7.015c0-0.866-0.145-1.516-0.435-1.95c-0.29-0.433-0.747-0.65-1.37-0.65c-0.802,0-1.402,0.287-1.799,0.859
		c-0.397,0.573-0.596,1.482-0.596,2.729V188.817z"/>
	<path d="M629.464,182.791c0,1.955-0.516,3.484-1.547,4.587c-1.031,1.103-2.467,1.654-4.308,1.654c-1.153,0-2.17-0.252-3.051-0.757
		s-1.558-1.23-2.03-2.175s-0.709-2.048-0.709-3.309c0-1.962,0.512-3.487,1.536-4.576c1.024-1.088,2.463-1.633,4.318-1.633
		c1.153,0,2.17,0.251,3.051,0.752c0.881,0.501,1.558,1.221,2.03,2.159C629.228,180.432,629.464,181.531,629.464,182.791z
		 M621.16,182.791c0,1.189,0.195,2.088,0.585,2.696c0.39,0.609,1.026,0.913,1.907,0.913c0.874,0,1.502-0.302,1.885-0.908
		c0.383-0.605,0.575-1.505,0.575-2.702c0-1.188-0.193-2.08-0.58-2.675c-0.387-0.594-1.021-0.892-1.901-0.892
		c-0.874,0-1.504,0.295-1.891,0.886S621.16,181.595,621.16,182.791z"/>
	<path d="M637.23,186.422c0.573,0,1.26-0.125,2.062-0.376v2.438c-0.816,0.365-1.819,0.548-3.008,0.548
		c-1.311,0-2.265-0.331-2.863-0.994c-0.598-0.662-0.897-1.656-0.897-2.981v-5.79h-1.568v-1.386l1.805-1.096l0.945-2.535h2.095v2.557
		h3.362v2.46h-3.362v5.79c0,0.466,0.13,0.81,0.392,1.031C636.455,186.311,636.801,186.422,637.23,186.422z"/>
	<path d="M647.156,189.032c-1.934,0-3.445-0.533-4.533-1.601c-1.089-1.067-1.633-2.578-1.633-4.533c0-2.012,0.503-3.568,1.509-4.667
		c1.006-1.099,2.397-1.649,4.173-1.649c1.697,0,3.019,0.483,3.964,1.45s1.418,2.303,1.418,4.007v1.59h-7.745
		c0.036,0.931,0.312,1.658,0.827,2.181c0.516,0.523,1.239,0.784,2.17,0.784c0.723,0,1.407-0.075,2.052-0.226s1.317-0.39,2.02-0.72
		v2.535c-0.573,0.287-1.186,0.5-1.837,0.639C648.889,188.962,648.094,189.032,647.156,189.032z M646.694,178.913
		c-0.695,0-1.239,0.22-1.633,0.661c-0.394,0.44-0.62,1.065-0.677,1.875h4.598c-0.015-0.809-0.226-1.434-0.634-1.875
		S647.389,178.913,646.694,178.913z"/>
</g>
<circle cx="63" cy="213" r="13"/>
<circle fill="none" stroke="#000000" stroke-width="3" stroke-miterlimit="10" cx="640" cy="213" r="13"/>
<g>
	<g>
		
			<line fill="none" stroke="#E15218" stroke-width="2" stroke-linecap="round" stroke-miterlimit="10" x1="616" y1="304" x2="76" y2="304"/>
		<g>
			<polygon fill="#E15218" points="614,295.821 627.298,303.5 614,311.179 			"/>
		</g>
	</g>
</g>
<g>
	<g>
		
			<line fill="none" stroke="#E15218" stroke-width="2" stroke-linecap="round" stroke-miterlimit="10" x1="627" y1="374" x2="87" y2="374"/>
		<g>
			<polygon fill="#E15218" points="89,365.821 75.702,373.5 89,381.179 			"/>
		</g>
	</g>
</g>
<g>
	<g>
		
			<line fill="none" stroke="#E15218" stroke-width="2" stroke-linecap="round" stroke-miterlimit="10" x1="616" y1="444" x2="76" y2="444"/>
		<g>
			<polygon fill="#E15218" points="614,435.823 627.298,443.502 614,451.181 			"/>
		</g>
	</g>
</g>
<g>
	<g>
		
			<line fill="none" stroke="#E15218" stroke-width="2" stroke-linecap="round" stroke-miterlimit="10" x1="627" y1="514" x2="87" y2="514"/>
		<g>
			<polygon fill="#E15218" points="89,505.823 75.702,513.502 89,521.181 			"/>
		</g>
	</g>
</g>
<g>
	<rect x="245.438" y="270" fill="none" width="204.998" height="33.5"/>
	<path d="M262.107,282.128l2.954-11.269h3.33l-4.737,15.641h-3.072l-4.727-15.641h3.33L262.107,282.128z"/>
	<path d="M279.757,279.646h-6.424v4.415h7.509v2.438h-10.538v-15.641h10.506v2.46h-7.477v3.942h6.424V279.646z"/>
	<path d="M288.641,280.656h-2.288v5.844h-3.019v-15.641h5.242c0.866,0,1.65,0.102,2.353,0.306c0.702,0.204,1.301,0.503,1.799,0.897
		c0.498,0.394,0.881,0.885,1.149,1.472c0.269,0.587,0.403,1.268,0.403,2.041c0,0.559-0.066,1.062-0.199,1.509
		c-0.133,0.448-0.322,0.849-0.569,1.203s-0.544,0.665-0.892,0.929c-0.348,0.265-0.736,0.494-1.166,0.688l3.362,6.456v0.14h-3.233
		L288.641,280.656z M286.353,278.207h2.234c0.852,0,1.509-0.216,1.971-0.65c0.462-0.433,0.693-1.026,0.693-1.778
		c0-0.78-0.226-1.387-0.677-1.821c-0.451-0.433-1.117-0.65-1.998-0.65h-2.224V278.207z"/>
	<path d="M304.657,282.418c0-0.279-0.048-0.541-0.145-0.784c-0.097-0.243-0.262-0.471-0.494-0.682
		c-0.233-0.211-0.537-0.404-0.913-0.58c-0.376-0.175-0.843-0.338-1.402-0.489c-0.681-0.186-1.331-0.419-1.95-0.698
		c-0.62-0.279-1.166-0.616-1.638-1.01c-0.473-0.394-0.851-0.852-1.133-1.375c-0.283-0.522-0.424-1.124-0.424-1.805
		c0-0.659,0.14-1.257,0.419-1.794s0.666-0.995,1.16-1.375c0.494-0.379,1.078-0.671,1.751-0.875c0.673-0.204,1.403-0.306,2.191-0.306
		c0.816,0,1.563,0.118,2.24,0.354s1.258,0.568,1.746,0.994c0.487,0.426,0.866,0.933,1.139,1.52c0.272,0.587,0.408,1.232,0.408,1.934
		h-2.943c-0.015-0.351-0.077-0.673-0.188-0.967c-0.111-0.293-0.276-0.546-0.494-0.757c-0.219-0.211-0.491-0.376-0.816-0.494
		c-0.326-0.118-0.708-0.177-1.144-0.177c-0.401,0-0.757,0.048-1.069,0.145s-0.575,0.233-0.79,0.408
		c-0.215,0.176-0.378,0.383-0.489,0.623c-0.111,0.24-0.167,0.5-0.167,0.779c0,0.294,0.073,0.559,0.22,0.795
		c0.146,0.236,0.36,0.45,0.639,0.639c0.279,0.19,0.618,0.364,1.015,0.521c0.397,0.158,0.847,0.305,1.348,0.44
		c0.716,0.208,1.375,0.462,1.977,0.763s1.119,0.657,1.552,1.069c0.433,0.412,0.77,0.881,1.01,1.407
		c0.24,0.526,0.36,1.112,0.36,1.756c0,0.688-0.138,1.298-0.414,1.832c-0.276,0.534-0.657,0.985-1.144,1.354
		c-0.487,0.369-1.067,0.648-1.74,0.838c-0.673,0.189-1.407,0.285-2.202,0.285c-0.494,0-0.987-0.045-1.477-0.134
		c-0.491-0.089-0.96-0.227-1.407-0.414c-0.448-0.186-0.865-0.419-1.251-0.698s-0.722-0.605-1.004-0.978
		c-0.283-0.372-0.505-0.795-0.666-1.268s-0.242-0.995-0.242-1.568h2.965c0.014,0.473,0.097,0.877,0.247,1.214
		c0.15,0.337,0.36,0.612,0.628,0.827s0.591,0.373,0.967,0.473c0.376,0.101,0.79,0.15,1.241,0.15c0.401,0,0.757-0.046,1.069-0.14
		c0.312-0.093,0.575-0.222,0.79-0.387c0.215-0.165,0.379-0.363,0.494-0.596C304.6,282.954,304.657,282.697,304.657,282.418z"/>
	<path d="M310.404,270.859h9.045v2.438h-3.051v10.774h3.051v2.428h-9.045v-2.428h2.976v-10.774h-2.976V270.859z"/>
	<path d="M333.854,279.829c0,1.003-0.133,1.927-0.397,2.771c-0.265,0.845-0.648,1.572-1.149,2.181
		c-0.501,0.609-1.112,1.083-1.832,1.423s-1.531,0.51-2.433,0.51s-1.705-0.17-2.406-0.51c-0.702-0.34-1.293-0.816-1.772-1.429
		c-0.48-0.612-0.845-1.339-1.096-2.181c-0.251-0.841-0.376-1.763-0.376-2.766v-2.277c0-1.002,0.125-1.926,0.376-2.771
		c0.25-0.845,0.616-1.574,1.096-2.186c0.479-0.612,1.069-1.09,1.767-1.434s1.499-0.516,2.401-0.516c0.909,0,1.724,0.172,2.444,0.516
		s1.33,0.822,1.832,1.434c0.501,0.612,0.884,1.341,1.149,2.186c0.265,0.845,0.397,1.769,0.397,2.771V279.829z M330.793,277.53
		c0-0.637-0.052-1.225-0.156-1.762c-0.104-0.537-0.267-0.999-0.489-1.386c-0.222-0.387-0.507-0.689-0.854-0.908
		c-0.348-0.218-0.768-0.328-1.262-0.328c-0.487,0-0.896,0.109-1.225,0.328c-0.33,0.219-0.595,0.521-0.795,0.908
		c-0.201,0.387-0.344,0.849-0.43,1.386s-0.129,1.125-0.129,1.762v2.299c0,0.63,0.043,1.214,0.129,1.751s0.229,1.003,0.43,1.396
		c0.2,0.394,0.465,0.702,0.795,0.924c0.329,0.222,0.741,0.333,1.235,0.333c0.487,0,0.904-0.111,1.251-0.333
		c0.347-0.222,0.63-0.528,0.849-0.918c0.218-0.39,0.381-0.854,0.489-1.391s0.161-1.124,0.161-1.762V277.53z"/>
	<path d="M346.455,286.5h-3.008l-4.351-10.087V286.5h-3.04v-15.641h3.04l4.318,10.044l0.011-10.044h3.029V286.5z"/>
	<path d="M351.644,280.141c0-1.01,0.077-1.96,0.231-2.852c0.154-0.892,0.363-1.715,0.628-2.471c0.265-0.755,0.575-1.445,0.929-2.068
		s0.729-1.174,1.123-1.654c0.394-0.479,0.8-0.886,1.219-1.219s0.825-0.589,1.219-0.768l0.58,1.633
		c-0.401,0.308-0.802,0.722-1.203,1.241c-0.401,0.52-0.761,1.164-1.08,1.934c-0.319,0.77-0.579,1.667-0.779,2.691
		c-0.201,1.024-0.301,2.195-0.301,3.513v0.279c0,1.325,0.1,2.5,0.301,3.523c0.2,1.024,0.46,1.921,0.779,2.691
		c0.318,0.77,0.678,1.416,1.08,1.939c0.401,0.522,0.802,0.938,1.203,1.246l-0.58,1.611c-0.394-0.179-0.8-0.437-1.219-0.773
		c-0.419-0.337-0.826-0.743-1.219-1.219c-0.394-0.477-0.768-1.026-1.123-1.649s-0.665-1.312-0.929-2.068
		c-0.265-0.755-0.475-1.577-0.628-2.465c-0.154-0.888-0.231-1.84-0.231-2.857V280.141z"/>
	<path d="M363.277,270h6.499v14.072h3.33v2.428h-9.829v-2.428h3.48v-11.634h-3.48V270z"/>
	<path d="M375.448,280.581c0-0.845,0.122-1.627,0.365-2.347c0.243-0.72,0.6-1.344,1.069-1.875c0.469-0.53,1.042-0.945,1.719-1.246
		s1.452-0.451,2.326-0.451c0.874,0,1.65,0.15,2.331,0.451c0.68,0.301,1.255,0.716,1.724,1.246c0.469,0.53,0.825,1.155,1.069,1.875
		c0.243,0.72,0.365,1.502,0.365,2.347v0.226c0,0.853-0.122,1.638-0.365,2.358c-0.244,0.72-0.598,1.345-1.063,1.875
		c-0.466,0.53-1.039,0.944-1.719,1.241c-0.681,0.297-1.454,0.446-2.32,0.446c-0.874,0-1.653-0.149-2.336-0.446
		c-0.684-0.297-1.261-0.71-1.729-1.241c-0.469-0.53-0.826-1.155-1.069-1.875c-0.244-0.72-0.365-1.505-0.365-2.358V280.581z
		 M378.435,280.807c0,0.487,0.046,0.944,0.14,1.37c0.093,0.426,0.24,0.799,0.44,1.117c0.2,0.319,0.46,0.571,0.779,0.757
		c0.318,0.187,0.704,0.279,1.155,0.279c0.437,0,0.812-0.093,1.128-0.279c0.315-0.186,0.571-0.438,0.768-0.757
		c0.197-0.318,0.342-0.691,0.435-1.117c0.093-0.426,0.14-0.882,0.14-1.37v-0.226c0-0.473-0.047-0.92-0.14-1.343
		c-0.093-0.422-0.238-0.795-0.435-1.117c-0.197-0.322-0.453-0.576-0.768-0.763c-0.315-0.186-0.698-0.279-1.149-0.279
		c-0.444,0-0.824,0.093-1.139,0.279c-0.315,0.187-0.573,0.44-0.773,0.763c-0.201,0.322-0.348,0.695-0.44,1.117
		c-0.093,0.423-0.14,0.87-0.14,1.343V280.807z"/>
	<path d="M394.204,284.33c0.293,0,0.573-0.043,0.838-0.129c0.265-0.086,0.498-0.208,0.698-0.365c0.2-0.157,0.356-0.347,0.467-0.569
		c0.111-0.222,0.159-0.469,0.145-0.741h2.814c0.014,0.602-0.109,1.16-0.371,1.676c-0.262,0.516-0.618,0.96-1.069,1.332
		c-0.451,0.373-0.976,0.665-1.574,0.875c-0.598,0.211-1.23,0.317-1.896,0.317c-0.902,0-1.694-0.152-2.374-0.457
		c-0.681-0.304-1.248-0.721-1.703-1.251c-0.455-0.53-0.799-1.151-1.031-1.864c-0.233-0.712-0.349-1.477-0.349-2.293v-0.322
		c0-0.816,0.114-1.581,0.344-2.293c0.229-0.712,0.573-1.333,1.031-1.864c0.458-0.53,1.026-0.949,1.703-1.257
		c0.677-0.308,1.462-0.462,2.358-0.462c0.716,0,1.378,0.107,1.987,0.322c0.608,0.215,1.133,0.518,1.574,0.908
		c0.44,0.391,0.782,0.863,1.026,1.418c0.243,0.555,0.358,1.176,0.344,1.864h-2.814c0.014-0.286-0.029-0.559-0.129-0.816
		c-0.101-0.258-0.247-0.479-0.44-0.666c-0.193-0.186-0.426-0.334-0.698-0.446c-0.272-0.111-0.569-0.167-0.892-0.167
		c-0.473,0-0.863,0.097-1.171,0.29c-0.308,0.193-0.553,0.451-0.736,0.773s-0.312,0.691-0.387,1.106
		c-0.075,0.416-0.113,0.845-0.113,1.289v0.322c0,0.451,0.036,0.886,0.107,1.305c0.071,0.419,0.199,0.788,0.381,1.106
		c0.183,0.319,0.43,0.575,0.741,0.768S393.724,284.33,394.204,284.33z"/>
	<path d="M409.522,286.5c-0.072-0.143-0.133-0.308-0.183-0.494c-0.05-0.186-0.093-0.383-0.129-0.591
		c-0.165,0.179-0.354,0.348-0.569,0.505c-0.215,0.158-0.453,0.295-0.714,0.414c-0.262,0.118-0.55,0.211-0.865,0.279
		c-0.315,0.068-0.655,0.102-1.021,0.102c-0.595,0-1.141-0.086-1.638-0.258c-0.498-0.172-0.926-0.412-1.284-0.72
		c-0.358-0.308-0.638-0.675-0.838-1.101c-0.201-0.426-0.301-0.89-0.301-1.391c0-1.225,0.457-2.171,1.37-2.841
		c0.913-0.669,2.275-1.004,4.087-1.004h1.665v-0.688c0-0.559-0.183-1-0.548-1.327c-0.365-0.326-0.892-0.489-1.579-0.489
		c-0.609,0-1.053,0.131-1.332,0.392c-0.279,0.262-0.419,0.611-0.419,1.047h-2.986c0-0.494,0.109-0.963,0.328-1.407
		c0.218-0.444,0.537-0.834,0.956-1.171c0.419-0.336,0.931-0.603,1.536-0.8c0.605-0.197,1.298-0.295,2.079-0.295
		c0.702,0,1.355,0.086,1.96,0.258c0.605,0.172,1.129,0.426,1.574,0.763c0.444,0.337,0.791,0.761,1.042,1.273
		c0.25,0.512,0.376,1.105,0.376,1.778v4.984c0,0.623,0.039,1.139,0.118,1.547c0.079,0.408,0.193,0.759,0.344,1.053v0.183H409.522z
		 M406.676,284.405c0.301,0,0.58-0.036,0.838-0.107c0.258-0.071,0.49-0.165,0.698-0.279c0.208-0.114,0.387-0.245,0.537-0.392
		c0.15-0.146,0.269-0.295,0.354-0.446v-1.998h-1.525c-0.466,0-0.863,0.045-1.192,0.134c-0.33,0.09-0.598,0.215-0.806,0.376
		c-0.208,0.161-0.362,0.354-0.462,0.58c-0.101,0.226-0.15,0.471-0.15,0.736c0,0.401,0.141,0.734,0.424,0.999
		C405.675,284.273,406.103,284.405,406.676,284.405z"/>
	<path d="M416.086,270h6.499v14.072h3.33v2.428h-9.829v-2.428h3.48v-11.634h-3.48V270z"/>
	<path d="M436.614,280.377c0,0.981-0.079,1.911-0.236,2.788c-0.158,0.877-0.373,1.696-0.645,2.455
		c-0.272,0.759-0.589,1.452-0.951,2.079c-0.362,0.626-0.747,1.185-1.155,1.676c-0.408,0.49-0.827,0.908-1.257,1.251
		s-0.849,0.605-1.257,0.784l-0.569-1.611c0.394-0.301,0.791-0.713,1.192-1.235c0.401-0.523,0.763-1.167,1.085-1.934
		s0.583-1.665,0.784-2.696c0.2-1.031,0.301-2.209,0.301-3.534v-0.279c0-1.317-0.104-2.492-0.312-3.523
		c-0.208-1.031-0.473-1.934-0.795-2.707s-0.682-1.421-1.08-1.944c-0.397-0.522-0.79-0.935-1.176-1.235l0.569-1.601
		c0.408,0.179,0.827,0.44,1.257,0.784s0.849,0.761,1.257,1.251c0.408,0.491,0.793,1.049,1.155,1.676
		c0.361,0.627,0.678,1.32,0.951,2.079c0.272,0.759,0.487,1.578,0.645,2.455c0.157,0.877,0.236,1.807,0.236,2.788V280.377z"/>
</g>
<g>
	<rect x="231.939" y="340" fill="none" width="231.997" height="33.5"/>
	<path d="M255.506,352.128l2.954-11.269h3.33l-4.737,15.641h-3.072l-4.727-15.641h3.33L255.506,352.128z"/>
	<path d="M273.156,349.646h-6.424v4.415h7.509v2.438h-10.538v-15.641h10.506v2.46h-7.477v3.942h6.424V349.646z"/>
	<path d="M282.04,350.656h-2.288v5.844h-3.019v-15.641h5.242c0.866,0,1.65,0.102,2.353,0.306c0.702,0.204,1.301,0.503,1.799,0.897
		c0.498,0.394,0.881,0.885,1.149,1.472c0.269,0.587,0.403,1.268,0.403,2.041c0,0.559-0.066,1.062-0.199,1.509
		c-0.133,0.448-0.322,0.849-0.569,1.203s-0.544,0.665-0.892,0.929c-0.348,0.265-0.736,0.494-1.166,0.688l3.362,6.456v0.14h-3.233
		L282.04,350.656z M279.751,348.207h2.234c0.852,0,1.509-0.216,1.971-0.65c0.462-0.433,0.693-1.026,0.693-1.778
		c0-0.78-0.226-1.387-0.677-1.821c-0.451-0.433-1.117-0.65-1.998-0.65h-2.224V348.207z"/>
	<path d="M298.056,352.418c0-0.279-0.048-0.541-0.145-0.784c-0.097-0.243-0.262-0.471-0.494-0.682
		c-0.233-0.211-0.537-0.404-0.913-0.58c-0.376-0.175-0.843-0.338-1.402-0.489c-0.681-0.186-1.331-0.419-1.95-0.698
		c-0.62-0.279-1.166-0.616-1.638-1.01c-0.473-0.394-0.851-0.852-1.133-1.375c-0.283-0.522-0.424-1.124-0.424-1.805
		c0-0.659,0.14-1.257,0.419-1.794s0.666-0.995,1.16-1.375c0.494-0.379,1.078-0.671,1.751-0.875c0.673-0.204,1.403-0.306,2.191-0.306
		c0.816,0,1.563,0.118,2.24,0.354s1.258,0.568,1.746,0.994c0.487,0.426,0.866,0.933,1.139,1.52c0.272,0.587,0.408,1.232,0.408,1.934
		h-2.943c-0.015-0.351-0.077-0.673-0.188-0.967c-0.111-0.293-0.276-0.546-0.494-0.757c-0.219-0.211-0.491-0.376-0.816-0.494
		c-0.326-0.118-0.708-0.177-1.144-0.177c-0.401,0-0.757,0.048-1.069,0.145s-0.575,0.233-0.79,0.408
		c-0.215,0.176-0.378,0.383-0.489,0.623c-0.111,0.24-0.167,0.5-0.167,0.779c0,0.294,0.073,0.559,0.22,0.795
		c0.146,0.236,0.36,0.45,0.639,0.639c0.279,0.19,0.618,0.364,1.015,0.521c0.397,0.158,0.847,0.305,1.348,0.44
		c0.716,0.208,1.375,0.462,1.977,0.763s1.119,0.657,1.552,1.069c0.433,0.412,0.77,0.881,1.01,1.407
		c0.24,0.526,0.36,1.112,0.36,1.756c0,0.688-0.138,1.298-0.414,1.832c-0.276,0.534-0.657,0.985-1.144,1.354
		c-0.487,0.369-1.067,0.648-1.74,0.838c-0.673,0.189-1.407,0.285-2.202,0.285c-0.494,0-0.987-0.045-1.477-0.134
		c-0.491-0.089-0.96-0.227-1.407-0.414c-0.448-0.186-0.865-0.419-1.251-0.698s-0.722-0.605-1.004-0.978
		c-0.283-0.372-0.505-0.795-0.666-1.268s-0.242-0.995-0.242-1.568h2.965c0.014,0.473,0.097,0.877,0.247,1.214
		c0.15,0.337,0.36,0.612,0.628,0.827s0.591,0.373,0.967,0.473c0.376,0.101,0.79,0.15,1.241,0.15c0.401,0,0.757-0.046,1.069-0.14
		c0.312-0.093,0.575-0.222,0.79-0.387c0.215-0.165,0.379-0.363,0.494-0.596C297.999,352.954,298.056,352.697,298.056,352.418z"/>
	<path d="M303.803,340.859h9.045v2.438h-3.051v10.774h3.051v2.428h-9.045v-2.428h2.976v-10.774h-2.976V340.859z"/>
	<path d="M327.253,349.829c0,1.003-0.133,1.927-0.397,2.771c-0.265,0.845-0.648,1.572-1.149,2.181
		c-0.501,0.609-1.112,1.083-1.832,1.423s-1.531,0.51-2.433,0.51s-1.705-0.17-2.406-0.51c-0.702-0.34-1.293-0.816-1.772-1.429
		c-0.48-0.612-0.845-1.339-1.096-2.181c-0.251-0.841-0.376-1.763-0.376-2.766v-2.277c0-1.002,0.125-1.926,0.376-2.771
		c0.25-0.845,0.616-1.574,1.096-2.186c0.479-0.612,1.069-1.09,1.767-1.434s1.499-0.516,2.401-0.516c0.909,0,1.724,0.172,2.444,0.516
		s1.33,0.822,1.832,1.434c0.501,0.612,0.884,1.341,1.149,2.186c0.265,0.845,0.397,1.769,0.397,2.771V349.829z M324.192,347.53
		c0-0.637-0.052-1.225-0.156-1.762c-0.104-0.537-0.267-0.999-0.489-1.386c-0.222-0.387-0.507-0.689-0.854-0.908
		c-0.348-0.218-0.768-0.328-1.262-0.328c-0.487,0-0.896,0.109-1.225,0.328c-0.33,0.219-0.595,0.521-0.795,0.908
		c-0.201,0.387-0.344,0.849-0.43,1.386s-0.129,1.125-0.129,1.762v2.299c0,0.63,0.043,1.214,0.129,1.751s0.229,1.003,0.43,1.396
		c0.2,0.394,0.465,0.702,0.795,0.924c0.329,0.222,0.741,0.333,1.235,0.333c0.487,0,0.904-0.111,1.251-0.333
		c0.347-0.222,0.63-0.528,0.849-0.918c0.218-0.39,0.381-0.854,0.489-1.391s0.161-1.124,0.161-1.762V347.53z"/>
	<path d="M339.854,356.5h-3.008l-4.351-10.087V356.5h-3.04v-15.641h3.04l4.318,10.044l0.011-10.044h3.029V356.5z"/>
	<path d="M345.042,350.141c0-1.01,0.077-1.96,0.231-2.852c0.154-0.892,0.363-1.715,0.628-2.471c0.265-0.755,0.575-1.445,0.929-2.068
		s0.729-1.174,1.123-1.654c0.394-0.479,0.8-0.886,1.219-1.219s0.825-0.589,1.219-0.768l0.58,1.633
		c-0.401,0.308-0.802,0.722-1.203,1.241c-0.401,0.52-0.761,1.164-1.08,1.934c-0.319,0.77-0.579,1.667-0.779,2.691
		c-0.201,1.024-0.301,2.195-0.301,3.513v0.279c0,1.325,0.1,2.5,0.301,3.523c0.2,1.024,0.46,1.921,0.779,2.691
		c0.318,0.77,0.678,1.416,1.08,1.939c0.401,0.522,0.802,0.938,1.203,1.246l-0.58,1.611c-0.394-0.179-0.8-0.437-1.219-0.773
		c-0.419-0.337-0.826-0.743-1.219-1.219c-0.394-0.477-0.768-1.026-1.123-1.649s-0.665-1.312-0.929-2.068
		c-0.265-0.755-0.475-1.577-0.628-2.465c-0.154-0.888-0.231-1.84-0.231-2.857V350.141z"/>
	<path d="M364.4,344.662c0.451,0,0.868,0.031,1.251,0.091c0.383,0.061,0.693,0.127,0.929,0.199l-0.44,2.976
		c-0.394-0.093-0.797-0.163-1.208-0.209c-0.412-0.046-0.804-0.07-1.176-0.07c-0.838,0-1.509,0.161-2.014,0.483
		s-0.883,0.784-1.133,1.386v6.982h-2.986v-11.623h2.782l0.14,1.901c0.473-0.659,1.038-1.176,1.697-1.552
		C362.899,344.85,363.619,344.662,364.4,344.662z"/>
	<path d="M374.895,356.715c-0.896,0-1.708-0.147-2.438-0.44s-1.357-0.693-1.88-1.198c-0.523-0.505-0.926-1.099-1.208-1.783
		c-0.283-0.684-0.424-1.416-0.424-2.197v-0.43c0-0.888,0.14-1.699,0.419-2.433c0.279-0.734,0.669-1.366,1.171-1.896
		c0.501-0.53,1.096-0.941,1.783-1.235c0.688-0.293,1.436-0.44,2.245-0.44c0.838,0,1.584,0.138,2.24,0.414
		c0.655,0.276,1.21,0.665,1.665,1.166c0.455,0.501,0.8,1.105,1.037,1.81c0.236,0.706,0.354,1.484,0.354,2.336v1.268h-7.885
		c0.057,0.394,0.173,0.754,0.349,1.08c0.175,0.326,0.399,0.607,0.671,0.843c0.272,0.236,0.583,0.419,0.935,0.548
		c0.351,0.129,0.734,0.193,1.149,0.193c0.293,0,0.585-0.028,0.875-0.086c0.29-0.057,0.567-0.141,0.833-0.252
		c0.265-0.111,0.512-0.249,0.741-0.414c0.229-0.165,0.43-0.358,0.602-0.58l1.493,1.611c-0.187,0.265-0.428,0.525-0.725,0.779
		c-0.297,0.254-0.648,0.48-1.053,0.677c-0.405,0.197-0.854,0.356-1.348,0.478S375.468,356.715,374.895,356.715z M374.541,347.079
		c-0.337,0-0.645,0.059-0.924,0.177s-0.525,0.289-0.736,0.51c-0.211,0.222-0.389,0.487-0.532,0.795
		c-0.144,0.308-0.251,0.652-0.322,1.031h4.898v-0.236c-0.015-0.315-0.075-0.612-0.183-0.892s-0.262-0.521-0.462-0.725
		c-0.201-0.204-0.446-0.365-0.736-0.483S374.92,347.079,374.541,347.079z"/>
	<path d="M384.316,344.877l0.086,1.407c0.222-0.501,0.528-0.897,0.918-1.187c0.39-0.29,0.865-0.435,1.423-0.435
		c0.938,0,1.55,0.412,1.837,1.235c0.229-0.387,0.521-0.689,0.875-0.908c0.354-0.218,0.782-0.328,1.284-0.328
		c0.351,0,0.678,0.064,0.983,0.193c0.304,0.129,0.569,0.335,0.795,0.618c0.226,0.283,0.401,0.648,0.526,1.096
		c0.125,0.448,0.188,0.994,0.188,1.638v8.293h-2.718v-8.304c0-0.222-0.023-0.404-0.07-0.548c-0.047-0.143-0.109-0.256-0.188-0.338
		c-0.079-0.082-0.17-0.14-0.274-0.172c-0.104-0.032-0.209-0.048-0.317-0.048c-0.208,0-0.383,0.048-0.526,0.145
		c-0.144,0.097-0.254,0.228-0.333,0.392v8.873h-2.632v-8.314c0-0.222-0.021-0.404-0.064-0.548c-0.043-0.143-0.102-0.254-0.177-0.333
		c-0.075-0.079-0.163-0.134-0.263-0.167c-0.101-0.032-0.208-0.048-0.322-0.048c-0.229,0-0.414,0.064-0.553,0.193
		s-0.249,0.301-0.328,0.516v8.701h-2.718v-11.623H384.316z"/>
	<path d="M395.251,350.581c0-0.845,0.122-1.627,0.365-2.347c0.243-0.72,0.6-1.344,1.069-1.875c0.469-0.53,1.042-0.945,1.719-1.246
		s1.452-0.451,2.326-0.451c0.874,0,1.65,0.15,2.331,0.451c0.68,0.301,1.255,0.716,1.724,1.246c0.469,0.53,0.825,1.155,1.069,1.875
		c0.243,0.72,0.365,1.502,0.365,2.347v0.226c0,0.853-0.122,1.638-0.365,2.358c-0.244,0.72-0.598,1.345-1.063,1.875
		c-0.466,0.53-1.039,0.944-1.719,1.241c-0.681,0.297-1.454,0.446-2.32,0.446c-0.874,0-1.653-0.149-2.336-0.446
		c-0.684-0.297-1.261-0.71-1.729-1.241c-0.469-0.53-0.826-1.155-1.069-1.875c-0.244-0.72-0.365-1.505-0.365-2.358V350.581z
		 M398.238,350.807c0,0.487,0.046,0.944,0.14,1.37c0.093,0.426,0.24,0.799,0.44,1.117c0.2,0.319,0.46,0.571,0.779,0.757
		c0.318,0.187,0.704,0.279,1.155,0.279c0.437,0,0.812-0.093,1.128-0.279c0.315-0.186,0.571-0.438,0.768-0.757
		c0.197-0.318,0.342-0.691,0.435-1.117c0.093-0.426,0.14-0.882,0.14-1.37v-0.226c0-0.473-0.047-0.92-0.14-1.343
		c-0.093-0.422-0.238-0.795-0.435-1.117c-0.197-0.322-0.453-0.576-0.768-0.763c-0.315-0.186-0.698-0.279-1.149-0.279
		c-0.444,0-0.824,0.093-1.139,0.279c-0.315,0.187-0.573,0.44-0.773,0.763c-0.201,0.322-0.348,0.695-0.44,1.117
		c-0.093,0.423-0.14,0.87-0.14,1.343V350.807z"/>
	<path d="M414.34,342.03v2.847h4.34v2.202h-4.34v4.995c0,0.423,0.048,0.775,0.145,1.058c0.097,0.283,0.234,0.509,0.414,0.677
		c0.179,0.168,0.396,0.289,0.65,0.36c0.254,0.072,0.539,0.107,0.854,0.107c0.229,0,0.463-0.011,0.704-0.032
		c0.24-0.021,0.469-0.048,0.688-0.081c0.218-0.032,0.422-0.066,0.612-0.102c0.189-0.036,0.353-0.071,0.489-0.107l0.29,2.052
		c-0.208,0.122-0.451,0.228-0.73,0.317c-0.279,0.09-0.577,0.163-0.892,0.22c-0.315,0.057-0.643,0.102-0.983,0.134
		c-0.34,0.032-0.675,0.048-1.004,0.048c-0.638,0-1.216-0.084-1.735-0.252c-0.52-0.168-0.963-0.43-1.332-0.784
		c-0.369-0.354-0.654-0.806-0.854-1.354c-0.201-0.548-0.301-1.205-0.301-1.971v-5.285h-2.653v-2.202h2.653v-2.847H414.34z"/>
	<path d="M427.704,356.715c-0.896,0-1.708-0.147-2.438-0.44s-1.357-0.693-1.88-1.198c-0.523-0.505-0.926-1.099-1.208-1.783
		c-0.283-0.684-0.424-1.416-0.424-2.197v-0.43c0-0.888,0.14-1.699,0.419-2.433c0.279-0.734,0.669-1.366,1.171-1.896
		c0.501-0.53,1.096-0.941,1.783-1.235c0.688-0.293,1.436-0.44,2.245-0.44c0.838,0,1.584,0.138,2.24,0.414
		c0.655,0.276,1.21,0.665,1.665,1.166c0.455,0.501,0.8,1.105,1.037,1.81c0.236,0.706,0.354,1.484,0.354,2.336v1.268h-7.885
		c0.057,0.394,0.173,0.754,0.349,1.08c0.175,0.326,0.399,0.607,0.671,0.843c0.272,0.236,0.583,0.419,0.935,0.548
		c0.351,0.129,0.734,0.193,1.149,0.193c0.293,0,0.585-0.028,0.875-0.086c0.29-0.057,0.567-0.141,0.833-0.252
		c0.265-0.111,0.512-0.249,0.741-0.414c0.229-0.165,0.43-0.358,0.602-0.58l1.493,1.611c-0.187,0.265-0.428,0.525-0.725,0.779
		c-0.297,0.254-0.648,0.48-1.053,0.677c-0.405,0.197-0.854,0.356-1.348,0.478S428.276,356.715,427.704,356.715z M427.349,347.079
		c-0.337,0-0.645,0.059-0.924,0.177s-0.525,0.289-0.736,0.51c-0.211,0.222-0.389,0.487-0.532,0.795
		c-0.144,0.308-0.251,0.652-0.322,1.031h4.898v-0.236c-0.015-0.315-0.075-0.612-0.183-0.892s-0.262-0.521-0.462-0.725
		c-0.201-0.204-0.446-0.365-0.736-0.483S427.729,347.079,427.349,347.079z"/>
	<path d="M443.215,350.377c0,0.981-0.079,1.911-0.236,2.788c-0.158,0.877-0.373,1.696-0.645,2.455
		c-0.272,0.759-0.589,1.452-0.951,2.079c-0.362,0.626-0.747,1.185-1.155,1.676c-0.408,0.49-0.827,0.908-1.257,1.251
		s-0.849,0.605-1.257,0.784l-0.569-1.611c0.394-0.301,0.791-0.713,1.192-1.235c0.401-0.523,0.763-1.167,1.085-1.934
		s0.583-1.665,0.784-2.696c0.2-1.031,0.301-2.209,0.301-3.534v-0.279c0-1.317-0.104-2.492-0.312-3.523
		c-0.208-1.031-0.473-1.934-0.795-2.707s-0.682-1.421-1.08-1.944c-0.397-0.522-0.79-0.935-1.176-1.235l0.569-1.601
		c0.408,0.179,0.827,0.44,1.257,0.784s0.849,0.761,1.257,1.251c0.408,0.491,0.793,1.049,1.155,1.676
		c0.361,0.627,0.678,1.32,0.951,2.079c0.272,0.759,0.487,1.578,0.645,2.455c0.157,0.877,0.236,1.807,0.236,2.788V350.377z"/>
</g>
<g>
	<rect x="235.938" y="412.276" fill="none" width="224" height="33.5"/>
	<path d="M314.916,424.404l2.954-11.269h3.33l-4.737,15.641h-3.072l-4.727-15.641h3.33L314.916,424.404z"/>
	<path d="M332.565,421.923h-6.424v4.415h7.509v2.438h-10.538v-15.641h10.506v2.46h-7.477v3.942h6.424V421.923z"/>
	<path d="M341.449,422.933h-2.288v5.844h-3.019v-15.641h5.242c0.866,0,1.65,0.103,2.353,0.306c0.702,0.205,1.301,0.504,1.799,0.897
		c0.498,0.394,0.881,0.885,1.149,1.472c0.269,0.588,0.403,1.268,0.403,2.041c0,0.559-0.066,1.062-0.199,1.51
		c-0.133,0.447-0.322,0.848-0.569,1.203c-0.247,0.354-0.544,0.664-0.892,0.929c-0.348,0.265-0.736,0.494-1.166,0.688l3.362,6.456
		v0.14h-3.233L341.449,422.933z M339.161,420.483h2.234c0.852,0,1.509-0.216,1.971-0.649s0.693-1.026,0.693-1.778
		c0-0.78-0.226-1.388-0.677-1.821c-0.451-0.433-1.117-0.649-1.998-0.649h-2.224V420.483z"/>
	<path d="M357.036,425.511h-4.694l-0.924,3.266h-3.18l5.124-15.641h2.739l5.027,15.641h-3.18L357.036,425.511z M353.083,422.943
		h3.244l-1.601-5.758L353.083,422.943z"/>
	<path d="M373.407,423.878c-0.05,0.788-0.22,1.497-0.51,2.127s-0.679,1.167-1.166,1.611c-0.487,0.444-1.067,0.786-1.74,1.026
		c-0.673,0.239-1.418,0.359-2.234,0.359c-0.924,0-1.744-0.17-2.46-0.51c-0.716-0.34-1.318-0.816-1.805-1.43
		c-0.487-0.611-0.859-1.348-1.117-2.207s-0.387-1.805-0.387-2.836v-2.105c0-1.038,0.136-1.987,0.408-2.847
		c0.272-0.859,0.659-1.597,1.16-2.213c0.501-0.616,1.108-1.094,1.821-1.435c0.712-0.34,1.513-0.51,2.401-0.51
		c0.859,0,1.624,0.122,2.293,0.365c0.669,0.244,1.241,0.591,1.713,1.042s0.845,1.003,1.117,1.654
		c0.272,0.651,0.444,1.386,0.516,2.202h-3.008c-0.029-0.465-0.099-0.873-0.209-1.225c-0.111-0.351-0.272-0.643-0.483-0.875
		c-0.211-0.232-0.477-0.408-0.795-0.527c-0.319-0.117-0.7-0.177-1.144-0.177c-0.466,0-0.87,0.101-1.214,0.301
		s-0.628,0.494-0.854,0.881s-0.392,0.861-0.5,1.423c-0.107,0.562-0.161,1.202-0.161,1.918v2.127c0,1.54,0.216,2.679,0.65,3.416
		c0.433,0.738,1.119,1.106,2.057,1.106c0.788,0,1.411-0.21,1.869-0.628c0.458-0.42,0.712-1.098,0.763-2.036H373.407z"/>
	<path d="M380.411,422.353l-1.654,1.815v4.608h-3.029v-15.641h3.029v7.165l1.418-1.912l3.803-5.253h3.695l-5.264,6.918l5.457,8.723
		h-3.588L380.411,422.353z"/>
</g>
<g>
	<rect x="235.938" y="480" fill="none" width="224" height="33.5"/>
	<path d="M314.916,492.128l2.954-11.269h3.33l-4.737,15.641h-3.072l-4.727-15.641h3.33L314.916,492.128z"/>
	<path d="M332.565,489.646h-6.424v4.415h7.509v2.438h-10.538v-15.641h10.506v2.46h-7.477v3.942h6.424V489.646z"/>
	<path d="M341.449,490.656h-2.288v5.844h-3.019v-15.641h5.242c0.866,0,1.65,0.102,2.353,0.307c0.702,0.203,1.301,0.503,1.799,0.896
		c0.498,0.395,0.881,0.885,1.149,1.472s0.403,1.268,0.403,2.041c0,0.559-0.066,1.062-0.199,1.509
		c-0.133,0.448-0.322,0.85-0.569,1.203c-0.247,0.355-0.544,0.665-0.892,0.93c-0.348,0.266-0.736,0.494-1.166,0.688l3.362,6.456v0.14
		h-3.233L341.449,490.656z M339.161,488.207h2.234c0.852,0,1.509-0.217,1.971-0.65c0.462-0.433,0.693-1.025,0.693-1.777
		c0-0.78-0.226-1.387-0.677-1.82s-1.117-0.65-1.998-0.65h-2.224V488.207z"/>
	<path d="M357.036,493.234h-4.694l-0.924,3.266h-3.18l5.124-15.641h2.739l5.027,15.641h-3.18L357.036,493.234z M353.083,490.667
		h3.244l-1.601-5.758L353.083,490.667z"/>
	<path d="M373.407,491.602c-0.05,0.788-0.22,1.497-0.51,2.127c-0.29,0.631-0.679,1.168-1.166,1.611
		c-0.487,0.444-1.067,0.786-1.74,1.025c-0.673,0.24-1.418,0.36-2.234,0.36c-0.924,0-1.744-0.171-2.46-0.511
		c-0.716-0.34-1.318-0.816-1.805-1.428c-0.487-0.613-0.859-1.349-1.117-2.208s-0.387-1.805-0.387-2.836v-2.105
		c0-1.038,0.136-1.987,0.408-2.847c0.272-0.859,0.659-1.597,1.16-2.213c0.501-0.615,1.108-1.094,1.821-1.434
		c0.712-0.34,1.513-0.511,2.401-0.511c0.859,0,1.624,0.122,2.293,0.365c0.669,0.243,1.241,0.591,1.713,1.042
		s0.845,1.003,1.117,1.654c0.272,0.652,0.444,1.386,0.516,2.202h-3.008c-0.029-0.466-0.099-0.874-0.209-1.225
		c-0.111-0.351-0.272-0.643-0.483-0.876c-0.211-0.232-0.477-0.408-0.795-0.525c-0.319-0.119-0.7-0.178-1.144-0.178
		c-0.466,0-0.87,0.101-1.214,0.301c-0.344,0.201-0.628,0.494-0.854,0.881s-0.392,0.861-0.5,1.424s-0.161,1.201-0.161,1.917v2.127
		c0,1.54,0.216,2.679,0.65,3.416c0.433,0.737,1.119,1.106,2.057,1.106c0.788,0,1.411-0.209,1.869-0.629
		c0.458-0.418,0.712-1.097,0.763-2.035H373.407z"/>
	<path d="M380.411,490.076l-1.654,1.815v4.608h-3.029v-15.641h3.029v7.165l1.418-1.912l3.803-5.253h3.695l-5.264,6.918l5.457,8.723
		h-3.588L380.411,490.076z"/>
</g>
<line fill="none" stroke="#000000" stroke-width="3" stroke-linecap="round" stroke-miterlimit="10" enable-background="new    " x1="61.5" y1="258" x2="61.5" y2="557"/>
<line fill="none" stroke="#000000" stroke-width="3" stroke-linecap="round" stroke-miterlimit="10" enable-background="new    " x1="639.5" y1="258" x2="639.5" y2="557"/>
<g>
</g>
<g>
</g>
<g>
</g>
<g>
</g>
<g>
</g>
<g>
</g>
<g>
</g>
<g>
</g>
<g>
</g>
<g>
</g>
<g>
</g>
<g>
</g>
<g>
</g>
<g>
</g>
<g>
</g>
<g>
</g>
</svg>
