<?xml version="1.0" encoding="utf-8"?>
<!-- Generator: Adobe Illustrator 16.0.4, SVG Export Plug-In . SVG Version: 6.00 Build 0)  -->
<!DOCTYPE svg PUBLIC "-//W3C//DTD SVG 1.1//EN" "http://www.w3.org/Graphics/SVG/1.1/DTD/svg11.dtd">
<svg version="1.1" id="Layer_1" xmlns="http://www.w3.org/2000/svg" xmlns:xlink="http://www.w3.org/1999/xlink" x="0px" y="0px"
	 width="1366px" height="768px" viewBox="0 0 1366 768" enable-background="new 0 0 1366 768" xml:space="preserve">
<rect x="359.674" y="237.258" fill="#C9D8E3" enable-background="new    " width="840.798" height="93.086"/>
<rect x="359.674" y="359.251" fill="#C9D8E3" enable-background="new    " width="840.798" height="93.087"/>
<rect x="359.674" y="481.245" fill="none" stroke="#97B2C3" stroke-width="3" stroke-miterlimit="10" enable-background="new    " width="840.798" height="93.086"/>
<rect x="359.674" y="603.239" fill="none" stroke="#97B2C3" stroke-width="3" stroke-miterlimit="10" enable-background="new    " width="411.911" height="93.086"/>
<g enable-background="new    ">
	<g>
		<polyline fill="none" stroke="#97B2C3" stroke-width="3" stroke-miterlimit="10" points="1200.475,693.325 1200.475,696.325 
			1197.475,696.325 		"/>
		
			<line fill="none" stroke="#97B2C3" stroke-width="3" stroke-miterlimit="10" stroke-dasharray="6.0431,6.0431" x1="1191.432" y1="696.325" x2="795.605" y2="696.325"/>
		<polyline fill="none" stroke="#97B2C3" stroke-width="3" stroke-miterlimit="10" points="792.584,696.325 789.584,696.325 
			789.584,693.325 		"/>
		
			<line fill="none" stroke="#97B2C3" stroke-width="3" stroke-miterlimit="10" stroke-dasharray="5.8057,5.8057" x1="789.584" y1="687.52" x2="789.584" y2="609.143"/>
		<polyline fill="none" stroke="#97B2C3" stroke-width="3" stroke-miterlimit="10" points="789.584,606.239 789.584,603.239 
			792.584,603.239 		"/>
		
			<line fill="none" stroke="#97B2C3" stroke-width="3" stroke-miterlimit="10" stroke-dasharray="6.0431,6.0431" x1="798.627" y1="603.239" x2="1194.453" y2="603.239"/>
		<polyline fill="none" stroke="#97B2C3" stroke-width="3" stroke-miterlimit="10" points="1197.475,603.239 1200.475,603.239 
			1200.475,606.239 		"/>
		
			<line fill="none" stroke="#97B2C3" stroke-width="3" stroke-miterlimit="10" stroke-dasharray="5.8057,5.8057" x1="1200.475" y1="612.045" x2="1200.475" y2="690.422"/>
	</g>
</g>
<g>
	<rect x="117.527" y="271.847" fill="none" width="180.741" height="79.496"/>
	<path d="M201.645,291.607v-18.561h3.936v15.311h7.528v3.25H201.645z"/>
	<path d="M222.452,291.861c-2.285,0-4.071-0.63-5.357-1.892s-1.93-3.047-1.93-5.357c0-2.378,0.595-4.217,1.784-5.516
		s2.833-1.949,4.932-1.949c2.006,0,3.567,0.571,4.685,1.714s1.676,2.721,1.676,4.735v1.879h-9.153
		c0.042,1.1,0.368,1.959,0.978,2.577s1.464,0.927,2.564,0.927c0.855,0,1.663-0.089,2.425-0.267s1.557-0.461,2.387-0.851v2.996
		c-0.677,0.338-1.401,0.59-2.171,0.755S223.561,291.861,222.452,291.861z M221.906,279.902c-0.821,0-1.464,0.26-1.93,0.781
		s-0.732,1.259-0.8,2.215h5.434c-0.017-0.957-0.267-1.695-0.749-2.215S222.727,279.902,221.906,279.902z"/>
	<path d="M237.153,291.861c-4.418,0-6.627-2.425-6.627-7.274c0-2.412,0.601-4.255,1.803-5.529s2.924-1.911,5.167-1.911
		c1.642,0,3.115,0.322,4.418,0.965l-1.143,2.996c-0.609-0.246-1.176-0.446-1.701-0.603s-1.049-0.235-1.574-0.235
		c-2.014,0-3.021,1.43-3.021,4.291c0,2.776,1.007,4.164,3.021,4.164c0.745,0,1.435-0.1,2.069-0.298s1.27-0.51,1.904-0.933v3.313
		c-0.626,0.398-1.259,0.673-1.898,0.825S238.126,291.861,237.153,291.861z"/>
	<path d="M250.737,288.776c0.677,0,1.49-0.148,2.438-0.444v2.882c-0.965,0.432-2.15,0.647-3.555,0.647
		c-1.549,0-2.677-0.392-3.383-1.174s-1.06-1.957-1.06-3.523v-6.843h-1.854v-1.638l2.133-1.295l1.117-2.996h2.476v3.021h3.974v2.907
		h-3.974v6.843c0,0.55,0.154,0.957,0.463,1.219S250.229,288.776,250.737,288.776z"/>
	<path d="M266.099,291.607l-0.521-1.815h-0.203c-0.415,0.66-1.003,1.17-1.765,1.53s-1.629,0.54-2.603,0.54
		c-1.667,0-2.924-0.446-3.771-1.339s-1.27-2.177-1.27-3.853v-9.255h3.872v8.29c0,1.024,0.182,1.792,0.546,2.304
		s0.944,0.768,1.739,0.768c1.083,0,1.866-0.362,2.349-1.085s0.724-1.923,0.724-3.599v-6.678h3.872v14.193H266.099z"/>
	<path d="M281.054,277.147c0.525,0,0.96,0.038,1.308,0.114l-0.292,3.631c-0.313-0.084-0.694-0.127-1.143-0.127
		c-1.236,0-2.198,0.317-2.888,0.952s-1.035,1.523-1.035,2.666v7.224h-3.872v-14.193h2.933l0.571,2.387h0.19
		c0.44-0.795,1.035-1.437,1.784-1.923S280.173,277.147,281.054,277.147z"/>
	<path d="M291.362,291.861c-2.285,0-4.071-0.63-5.357-1.892s-1.93-3.047-1.93-5.357c0-2.378,0.595-4.217,1.784-5.516
		s2.833-1.949,4.932-1.949c2.006,0,3.567,0.571,4.685,1.714s1.676,2.721,1.676,4.735v1.879h-9.153
		c0.042,1.1,0.368,1.959,0.978,2.577s1.464,0.927,2.564,0.927c0.855,0,1.663-0.089,2.425-0.267s1.557-0.461,2.387-0.851v2.996
		c-0.677,0.338-1.401,0.59-2.171,0.755S292.471,291.861,291.362,291.861z M290.816,279.902c-0.821,0-1.464,0.26-1.93,0.781
		s-0.732,1.259-0.8,2.215h5.434c-0.017-0.957-0.267-1.695-0.749-2.215S291.637,279.902,290.816,279.902z"/>
</g>
<g>
	<rect x="359.674" y="168.352" fill="none" width="178.491" height="55.498"/>
	<path d="M372.966,182.958c0,1.676-0.603,2.996-1.809,3.961s-2.884,1.447-5.034,1.447c-1.98,0-3.732-0.373-5.256-1.117v-3.656
		c1.252,0.559,2.312,0.952,3.18,1.181s1.661,0.343,2.38,0.343c0.863,0,1.525-0.165,1.987-0.495s0.692-0.821,0.692-1.473
		c0-0.364-0.102-0.688-0.305-0.971s-0.501-0.557-0.895-0.819s-1.195-0.681-2.406-1.257c-1.134-0.533-1.985-1.045-2.552-1.536
		s-1.02-1.062-1.358-1.714s-0.508-1.414-0.508-2.285c0-1.642,0.557-2.933,1.669-3.872s2.651-1.409,4.615-1.409
		c0.965,0,1.885,0.114,2.761,0.343s1.792,0.55,2.749,0.965l-1.27,3.06c-0.99-0.406-1.809-0.69-2.457-0.851s-1.284-0.241-1.911-0.241
		c-0.745,0-1.316,0.173-1.714,0.521s-0.597,0.8-0.597,1.358c0,0.347,0.081,0.649,0.241,0.908s0.417,0.508,0.768,0.749
		s1.183,0.675,2.495,1.301c1.735,0.83,2.924,1.661,3.567,2.495S372.966,181.747,372.966,182.958z"/>
	<path d="M382.45,188.366c-2.285,0-4.071-0.63-5.357-1.892s-1.93-3.047-1.93-5.357c0-2.378,0.595-4.217,1.784-5.516
		s2.833-1.949,4.932-1.949c2.006,0,3.567,0.571,4.685,1.714s1.676,2.721,1.676,4.735v1.879h-9.153
		c0.042,1.1,0.368,1.959,0.978,2.577s1.464,0.927,2.564,0.927c0.855,0,1.663-0.089,2.425-0.267s1.557-0.461,2.387-0.851v2.996
		c-0.677,0.338-1.401,0.59-2.171,0.755S383.559,188.366,382.45,188.366z M381.904,176.407c-0.821,0-1.464,0.26-1.93,0.781
		s-0.732,1.259-0.8,2.215h5.434c-0.017-0.957-0.267-1.695-0.749-2.215S382.725,176.407,381.904,176.407z"/>
	<path d="M401.29,183.897c0,1.456-0.506,2.564-1.517,3.326s-2.524,1.143-4.539,1.143c-1.033,0-1.913-0.07-2.641-0.209
		s-1.409-0.345-2.044-0.616v-3.199c0.719,0.338,1.53,0.622,2.431,0.851s1.695,0.343,2.38,0.343c1.405,0,2.107-0.406,2.107-1.219
		c0-0.305-0.093-0.552-0.279-0.743s-0.508-0.406-0.965-0.647s-1.066-0.522-1.828-0.844c-1.092-0.457-1.894-0.88-2.406-1.27
		s-0.884-0.836-1.117-1.339s-0.349-1.124-0.349-1.86c0-1.261,0.489-2.236,1.466-2.926s2.363-1.035,4.158-1.035
		c1.709,0,3.373,0.373,4.989,1.117l-1.168,2.793c-0.711-0.305-1.375-0.554-1.993-0.749s-1.249-0.292-1.892-0.292
		c-1.143,0-1.714,0.309-1.714,0.927c0,0.347,0.184,0.647,0.552,0.901s1.174,0.63,2.418,1.13c1.109,0.449,1.921,0.868,2.438,1.257
		s0.897,0.838,1.143,1.346S401.29,183.194,401.29,183.897z"/>
	<path d="M414.213,183.897c0,1.456-0.506,2.564-1.517,3.326s-2.524,1.143-4.539,1.143c-1.033,0-1.913-0.07-2.641-0.209
		s-1.409-0.345-2.044-0.616v-3.199c0.719,0.338,1.53,0.622,2.431,0.851s1.695,0.343,2.38,0.343c1.405,0,2.107-0.406,2.107-1.219
		c0-0.305-0.093-0.552-0.279-0.743s-0.508-0.406-0.965-0.647s-1.066-0.522-1.828-0.844c-1.092-0.457-1.894-0.88-2.406-1.27
		s-0.884-0.836-1.117-1.339s-0.349-1.124-0.349-1.86c0-1.261,0.489-2.236,1.466-2.926s2.363-1.035,4.158-1.035
		c1.709,0,3.373,0.373,4.989,1.117l-1.168,2.793c-0.711-0.305-1.375-0.554-1.993-0.749s-1.249-0.292-1.892-0.292
		c-1.143,0-1.714,0.309-1.714,0.927c0,0.347,0.184,0.647,0.552,0.901s1.174,0.63,2.418,1.13c1.109,0.449,1.921,0.868,2.438,1.257
		s0.897,0.838,1.143,1.346S414.213,183.194,414.213,183.897z"/>
	<path d="M417.07,170.25c0-1.261,0.703-1.892,2.107-1.892s2.107,0.63,2.107,1.892c0,0.601-0.176,1.068-0.527,1.403
		s-0.878,0.501-1.581,0.501C417.772,172.154,417.07,171.519,417.07,170.25z M421.107,188.112h-3.872v-14.193h3.872V188.112z"/>
	<path d="M438.068,180.99c0,2.311-0.609,4.118-1.828,5.421s-2.916,1.955-5.091,1.955c-1.363,0-2.564-0.298-3.605-0.895
		s-1.841-1.454-2.399-2.571s-0.838-2.42-0.838-3.91c0-2.319,0.605-4.122,1.815-5.408s2.912-1.93,5.104-1.93
		c1.363,0,2.564,0.296,3.605,0.889s1.841,1.443,2.399,2.552S438.068,179.5,438.068,180.99z M428.254,180.99
		c0,1.405,0.23,2.467,0.692,3.187s1.212,1.079,2.253,1.079c1.033,0,1.775-0.357,2.228-1.073s0.679-1.779,0.679-3.193
		c0-1.405-0.229-2.458-0.686-3.161s-1.206-1.054-2.247-1.054c-1.033,0-1.777,0.349-2.234,1.047S428.254,179.576,428.254,180.99z"/>
	<path d="M454.369,188.112h-3.872v-8.29c0-1.024-0.182-1.792-0.546-2.304s-0.944-0.768-1.739-0.768
		c-1.083,0-1.866,0.362-2.349,1.085s-0.724,1.923-0.724,3.599v6.678h-3.872v-14.193h2.958l0.521,1.815h0.216
		c0.432-0.686,1.026-1.204,1.784-1.555s1.619-0.527,2.583-0.527c1.65,0,2.903,0.446,3.758,1.339s1.282,2.182,1.282,3.866V188.112z"
		/>
	<path d="M473.818,188.112h-3.923v-10.74l0.038-1.765l0.063-1.93c-0.652,0.652-1.104,1.079-1.358,1.282l-2.133,1.714l-1.892-2.361
		l5.979-4.761h3.225V188.112z"/>
</g>
<g>
	<rect x="690.828" y="514.836" fill="none" width="178.492" height="55.498"/>
	<path d="M739.348,520.822c0,2.099-0.693,3.702-2.082,4.811c-1.389,1.109-3.424,1.664-6.106,1.664h-1.714l-1.562,7.299h-2.158
		l3.923-18.561h4.189c1.811,0,3.182,0.4,4.113,1.2S739.348,519.23,739.348,520.822z M729.839,525.443h1.688
		c1.828,0,3.217-0.386,4.164-1.156c0.947-0.77,1.422-1.899,1.422-3.389c0-1.059-0.294-1.822-0.883-2.292
		c-0.588-0.47-1.491-0.704-2.71-0.704h-2.069L729.839,525.443z"/>
	<path d="M748.895,520.428c0.584,0,1.092,0.06,1.523,0.178l-0.457,1.904c-0.449-0.109-0.893-0.164-1.333-0.164
		c-0.771,0-1.491,0.254-2.165,0.762c-0.672,0.508-1.261,1.212-1.764,2.113c-0.504,0.901-0.875,1.902-1.111,3.002l-1.358,6.373
		h-2.133l2.971-13.914h1.765l-0.279,2.578h0.127c0.609-0.805,1.113-1.383,1.511-1.733s0.814-0.622,1.251-0.812
		C747.877,520.523,748.361,520.428,748.895,520.428z"/>
	<path d="M757.807,520.504c1.607,0,2.877,0.477,3.809,1.429s1.396,2.262,1.396,3.929c0,1.592-0.305,3.094-0.914,4.508
		c-0.609,1.413-1.435,2.505-2.476,3.275c-1.041,0.77-2.218,1.154-3.529,1.154c-1.625,0-2.899-0.478-3.821-1.434
		c-0.922-0.957-1.384-2.265-1.384-3.924c0-1.607,0.31-3.121,0.927-4.538s1.451-2.505,2.501-3.263S756.529,520.504,757.807,520.504z
		 M760.803,525.57c0-0.974-0.265-1.764-0.793-2.368c-0.529-0.604-1.246-0.907-2.152-0.907c-0.922,0-1.75,0.312-2.482,0.939
		c-0.731,0.626-1.299,1.496-1.701,2.608c-0.401,1.112-0.603,2.351-0.603,3.714c0,1.108,0.269,1.965,0.806,2.57
		c0.538,0.605,1.311,0.908,2.317,0.908c0.88,0,1.671-0.31,2.374-0.928c0.703-0.617,1.25-1.496,1.645-2.634
		C760.605,528.336,760.803,527.034,760.803,525.57z"/>
	<path d="M769.245,533.111c0.466,0,1.075-0.11,1.828-0.33v1.637c-0.288,0.119-0.644,0.221-1.066,0.305
		c-0.423,0.085-0.762,0.127-1.016,0.127c-1.058,0-1.868-0.252-2.431-0.755c-0.563-0.503-0.845-1.255-0.845-2.253
		c0-0.559,0.076-1.193,0.229-1.904l1.612-7.643h-2.184l0.178-0.928l2.349-0.99l1.587-2.895h1.244l-0.698,3.199h3.479l-0.33,1.613
		h-3.466l-1.638,7.668c-0.152,0.736-0.229,1.295-0.229,1.676c0,0.474,0.122,0.838,0.368,1.092S768.805,533.111,769.245,533.111z"/>
	<path d="M780.823,520.504c1.608,0,2.878,0.477,3.809,1.429s1.396,2.262,1.396,3.929c0,1.592-0.305,3.094-0.914,4.508
		c-0.609,1.413-1.435,2.505-2.476,3.275c-1.041,0.77-2.217,1.154-3.529,1.154c-1.625,0-2.898-0.478-3.821-1.434
		c-0.923-0.957-1.384-2.265-1.384-3.924c0-1.607,0.309-3.121,0.927-4.538s1.452-2.505,2.501-3.263S779.545,520.504,780.823,520.504z
		 M783.819,525.57c0-0.974-0.265-1.764-0.794-2.368c-0.528-0.604-1.246-0.907-2.151-0.907c-0.923,0-1.75,0.312-2.481,0.939
		c-0.732,0.626-1.3,1.496-1.701,2.608c-0.402,1.112-0.604,2.351-0.604,3.714c0,1.108,0.269,1.965,0.807,2.57
		c0.537,0.605,1.309,0.908,2.316,0.908c0.881,0,1.672-0.31,2.374-0.928c0.702-0.617,1.251-1.496,1.644-2.634
		C783.623,528.336,783.819,527.034,783.819,525.57z"/>
	<path d="M792.262,533.111c0.465,0,1.074-0.11,1.828-0.33v1.637c-0.287,0.119-0.643,0.221-1.066,0.305
		c-0.424,0.085-0.762,0.127-1.016,0.127c-1.059,0-1.868-0.252-2.432-0.755c-0.562-0.503-0.844-1.255-0.844-2.253
		c0-0.559,0.076-1.193,0.229-1.904l1.612-7.643h-2.184l0.178-0.928l2.349-0.99l1.587-2.895h1.244l-0.698,3.199h3.479l-0.33,1.613
		h-3.466l-1.638,7.668c-0.152,0.736-0.229,1.295-0.229,1.676c0,0.474,0.123,0.838,0.368,1.092S791.822,533.111,792.262,533.111z"/>
	<path d="M796.921,520.682h2.133l0.939,6.92c0.085,0.584,0.167,1.445,0.247,2.583c0.081,1.138,0.121,2.055,0.121,2.749h0.076
		c0.297-0.736,0.664-1.583,1.104-2.539c0.44-0.957,0.767-1.617,0.978-1.98l4.126-7.732h2.26l-8.836,16.275
		c-0.787,1.456-1.565,2.468-2.336,3.035c-0.771,0.566-1.696,0.85-2.78,0.85c-0.609,0-1.201-0.088-1.777-0.266v-1.715
		c0.533,0.152,1.088,0.229,1.663,0.229c0.694,0,1.288-0.213,1.784-0.641c0.494-0.428,0.975-1.061,1.44-1.898l0.965-1.727
		L796.921,520.682z"/>
	<path d="M814.605,534.85c-0.82,0-1.541-0.211-2.158-0.635c-0.617-0.423-1.096-1.016-1.435-1.777h-0.127l-0.051,0.482
		c-0.025,0.212-0.069,0.508-0.134,0.889c-0.062,0.381-0.547,2.726-1.453,7.033h-2.107l4.266-20.16h1.765l-0.33,2.654h0.102
		c1.515-1.922,3.089-2.883,4.723-2.883c1.159,0,2.073,0.413,2.742,1.238s1.003,1.982,1.003,3.473c0,1.794-0.292,3.439-0.876,4.938
		s-1.392,2.664-2.425,3.498S815.908,534.85,814.605,534.85z M816.967,522.219c-0.812,0-1.64,0.401-2.482,1.205
		c-0.842,0.805-1.51,1.816-2.006,3.035c-0.494,1.219-0.742,2.467-0.742,3.744c0,0.932,0.234,1.645,0.705,2.14
		c0.469,0.495,1.148,0.743,2.037,0.743c0.838,0,1.619-0.344,2.342-1.029c0.725-0.686,1.307-1.66,1.746-2.926s0.66-2.609,0.66-4.031
		C819.227,523.179,818.473,522.219,816.967,522.219z"/>
	<path d="M828.938,534.85c-1.558,0-2.78-0.461-3.669-1.383c-0.889-0.923-1.333-2.201-1.333-3.834c0-1.592,0.315-3.117,0.946-4.577
		c0.63-1.46,1.466-2.597,2.507-3.409s2.188-1.219,3.44-1.219c1.295,0,2.268,0.281,2.92,0.845s0.978,1.348,0.978,2.354
		c0,1.523-0.702,2.719-2.107,3.587s-3.415,1.302-6.03,1.302h-0.419l-0.051,1.016c0,1.108,0.261,1.974,0.78,2.596
		c0.521,0.622,1.327,0.934,2.419,0.934c0.533,0,1.081-0.076,1.644-0.229c0.563-0.152,1.264-0.432,2.102-0.838v1.854
		c-0.795,0.372-1.498,0.633-2.107,0.78S829.675,534.85,828.938,534.85z M830.703,522.244c-0.871,0-1.69,0.397-2.457,1.193
		c-0.766,0.795-1.352,1.899-1.758,3.312h0.152c1.93,0,3.408-0.252,4.438-0.755c1.027-0.503,1.542-1.233,1.542-2.19
		c0-0.448-0.154-0.82-0.464-1.117C831.848,522.392,831.363,522.244,830.703,522.244z"/>
</g>
<g>
	<rect x="412.458" y="640.329" fill="none" width="295.203" height="55.498"/>
	<path d="M448.41,646.314c0,2.1-0.694,3.703-2.082,4.812s-3.423,1.663-6.106,1.663h-1.714l-1.562,7.3h-2.158l3.923-18.561h4.189
		c1.811,0,3.182,0.399,4.113,1.2C447.944,643.527,448.41,644.723,448.41,646.314z M438.901,650.936h1.688
		c1.828,0,3.216-0.385,4.164-1.155s1.422-1.899,1.422-3.39c0-1.059-0.294-1.822-0.882-2.291c-0.588-0.471-1.492-0.705-2.71-0.705
		h-2.069L438.901,650.936z"/>
	<path d="M457.957,645.921c0.584,0,1.092,0.06,1.523,0.178l-0.457,1.904c-0.449-0.11-0.893-0.165-1.333-0.165
		c-0.77,0-1.492,0.254-2.165,0.762s-1.261,1.213-1.765,2.113c-0.503,0.902-0.874,1.902-1.111,3.003l-1.358,6.373h-2.133
		l2.971-13.914h1.765l-0.279,2.577h0.127c0.609-0.805,1.113-1.382,1.511-1.732c0.398-0.352,0.814-0.623,1.25-0.812
		C456.939,646.016,457.423,645.921,457.957,645.921z"/>
	<path d="M466.869,645.997c1.608,0,2.877,0.476,3.809,1.429c0.931,0.951,1.396,2.262,1.396,3.929c0,1.591-0.305,3.093-0.914,4.507
		s-1.435,2.506-2.476,3.275s-2.217,1.155-3.529,1.155c-1.625,0-2.899-0.478-3.821-1.435s-1.384-2.264-1.384-3.923
		c0-1.608,0.309-3.121,0.927-4.538c0.618-1.418,1.452-2.506,2.501-3.264C464.427,646.376,465.591,645.997,466.869,645.997z
		 M469.865,651.062c0-0.973-0.265-1.763-0.793-2.367c-0.529-0.605-1.246-0.908-2.152-0.908c-0.922,0-1.75,0.312-2.482,0.939
		s-1.299,1.496-1.701,2.609c-0.402,1.112-0.603,2.35-0.603,3.713c0,1.109,0.269,1.966,0.806,2.57
		c0.538,0.605,1.31,0.908,2.317,0.908c0.88,0,1.671-0.309,2.374-0.927s1.25-1.496,1.644-2.634
		C469.668,653.828,469.865,652.527,469.865,651.062z"/>
	<path d="M478.307,658.604c0.465,0,1.075-0.109,1.828-0.33v1.638c-0.288,0.118-0.643,0.22-1.066,0.305s-0.762,0.127-1.016,0.127
		c-1.058,0-1.868-0.252-2.431-0.755c-0.563-0.504-0.844-1.256-0.844-2.254c0-0.559,0.076-1.193,0.229-1.904l1.612-7.643h-2.184
		l0.178-0.927l2.349-0.99l1.587-2.895h1.244l-0.698,3.199h3.479l-0.33,1.612h-3.466l-1.638,7.668
		c-0.152,0.736-0.229,1.295-0.229,1.676c0,0.475,0.123,0.838,0.368,1.092S477.867,658.604,478.307,658.604z"/>
	<path d="M489.885,645.997c1.608,0,2.877,0.476,3.809,1.429c0.931,0.951,1.396,2.262,1.396,3.929c0,1.591-0.305,3.093-0.914,4.507
		s-1.435,2.506-2.476,3.275s-2.217,1.155-3.529,1.155c-1.625,0-2.899-0.478-3.821-1.435s-1.384-2.264-1.384-3.923
		c0-1.608,0.309-3.121,0.927-4.538c0.618-1.418,1.452-2.506,2.501-3.264C487.443,646.376,488.607,645.997,489.885,645.997z
		 M492.881,651.062c0-0.973-0.265-1.763-0.793-2.367c-0.529-0.605-1.246-0.908-2.152-0.908c-0.922,0-1.75,0.312-2.482,0.939
		s-1.299,1.496-1.701,2.609c-0.402,1.112-0.603,2.35-0.603,3.713c0,1.109,0.269,1.966,0.806,2.57
		c0.538,0.605,1.31,0.908,2.317,0.908c0.88,0,1.671-0.309,2.374-0.927s1.25-1.496,1.644-2.634
		C492.685,653.828,492.881,652.527,492.881,651.062z"/>
	<path d="M501.324,658.604c0.465,0,1.075-0.109,1.828-0.33v1.638c-0.288,0.118-0.643,0.22-1.066,0.305s-0.762,0.127-1.016,0.127
		c-1.058,0-1.868-0.252-2.431-0.755c-0.563-0.504-0.844-1.256-0.844-2.254c0-0.559,0.076-1.193,0.229-1.904l1.612-7.643h-2.184
		l0.178-0.927l2.349-0.99l1.587-2.895h1.244l-0.698,3.199h3.479l-0.33,1.612h-3.466l-1.638,7.668
		c-0.152,0.736-0.229,1.295-0.229,1.676c0,0.475,0.123,0.838,0.368,1.092S500.884,658.604,501.324,658.604z"/>
	<path d="M505.983,646.175h2.133l0.939,6.919c0.084,0.584,0.167,1.445,0.248,2.584c0.081,1.138,0.121,2.055,0.121,2.748h0.076
		c0.296-0.736,0.665-1.582,1.104-2.539s0.766-1.617,0.978-1.98l4.126-7.731h2.26l-8.836,16.275
		c-0.787,1.456-1.566,2.468-2.336,3.034s-1.697,0.851-2.78,0.851c-0.609,0-1.202-0.089-1.777-0.267v-1.714
		c0.533,0.152,1.087,0.229,1.663,0.229c0.694,0,1.289-0.214,1.784-0.642c0.495-0.427,0.976-1.06,1.441-1.897l0.965-1.727
		L505.983,646.175z"/>
	<path d="M523.667,660.343c-0.821,0-1.541-0.212-2.158-0.635s-1.096-1.016-1.435-1.777h-0.127l-0.051,0.482
		c-0.025,0.212-0.07,0.508-0.133,0.889s-0.548,2.726-1.454,7.033h-2.107l4.266-20.16h1.765l-0.33,2.653h0.102
		c1.515-1.922,3.089-2.882,4.723-2.882c1.16,0,2.074,0.413,2.742,1.237c0.668,0.826,1.003,1.982,1.003,3.473
		c0,1.795-0.292,3.44-0.876,4.938s-1.392,2.664-2.425,3.497C526.139,659.926,524.971,660.343,523.667,660.343z M526.029,647.711
		c-0.812,0-1.64,0.402-2.482,1.206s-1.511,1.815-2.006,3.034s-0.743,2.467-0.743,3.745c0,0.931,0.235,1.644,0.705,2.14
		c0.47,0.494,1.149,0.742,2.038,0.742c0.838,0,1.619-0.343,2.342-1.028s1.306-1.661,1.746-2.927c0.44-1.265,0.66-2.608,0.66-4.03
		C528.289,648.672,527.535,647.711,526.029,647.711z"/>
	<path d="M538,660.343c-1.557,0-2.78-0.462-3.669-1.384s-1.333-2.201-1.333-3.834c0-1.592,0.315-3.117,0.946-4.576
		c0.63-1.461,1.466-2.597,2.507-3.409s2.188-1.219,3.44-1.219c1.295,0,2.268,0.281,2.92,0.845c0.652,0.562,0.978,1.348,0.978,2.354
		c0,1.523-0.703,2.719-2.107,3.587c-1.405,0.867-3.415,1.301-6.03,1.301h-0.419l-0.051,1.016c0,1.109,0.26,1.975,0.781,2.596
		c0.521,0.623,1.327,0.934,2.418,0.934c0.533,0,1.081-0.076,1.644-0.229s1.263-0.432,2.101-0.838v1.854
		c-0.795,0.373-1.498,0.633-2.107,0.781C539.41,660.269,538.737,660.343,538,660.343z M539.765,647.736
		c-0.872,0-1.69,0.398-2.457,1.193s-1.352,1.9-1.758,3.313h0.152c1.93,0,3.409-0.252,4.437-0.755
		c1.028-0.504,1.542-1.234,1.542-2.19c0-0.448-0.154-0.821-0.463-1.117S540.425,647.736,539.765,647.736z"/>
	<path d="M552.372,656.636c0-2.869,0.508-5.522,1.523-7.96s2.641-4.82,4.875-7.147h1.993c-2.082,2.285-3.654,4.697-4.716,7.236
		s-1.593,5.154-1.593,7.846c0,2.869,0.482,5.399,1.447,7.592h-1.663C552.994,661.951,552.372,659.429,552.372,656.636z"/>
	<path d="M570.704,643.191c-1.473,0-2.791,0.41-3.955,1.231s-2.086,2.024-2.768,3.612c-0.681,1.586-1.022,3.314-1.022,5.186
		c0,1.582,0.413,2.846,1.238,3.789c0.825,0.944,1.961,1.416,3.409,1.416c1.176,0,2.539-0.241,4.088-0.724v1.892
		c-0.728,0.262-1.422,0.453-2.082,0.571s-1.456,0.178-2.387,0.178c-2.048,0-3.656-0.633-4.824-1.897
		c-1.168-1.266-1.752-2.99-1.752-5.174c0-2.209,0.446-4.264,1.339-6.164c0.893-1.899,2.093-3.35,3.599-4.348
		s3.212-1.498,5.116-1.498c1.667,0,3.14,0.338,4.418,1.016l-0.876,1.79C573.078,643.483,571.897,643.191,570.704,643.191z"/>
	<path d="M576.81,660.089h-2.133l4.215-19.754h2.133L576.81,660.089z"/>
	<path d="M583.437,660.089h-2.133l2.971-13.914h2.133L583.437,660.089z M584.872,642.62c0-0.474,0.135-0.861,0.406-1.161
		c0.271-0.301,0.622-0.451,1.054-0.451c0.745,0,1.117,0.381,1.117,1.143c0,0.465-0.142,0.859-0.425,1.181s-0.611,0.482-0.984,0.482
		c-0.338,0-0.618-0.104-0.838-0.312C584.981,643.295,584.872,643.001,584.872,642.62z"/>
	<path d="M593.403,660.343c-1.557,0-2.78-0.462-3.669-1.384s-1.333-2.201-1.333-3.834c0-1.592,0.315-3.117,0.946-4.576
		c0.63-1.461,1.466-2.597,2.507-3.409s2.188-1.219,3.44-1.219c1.295,0,2.268,0.281,2.92,0.845c0.652,0.562,0.978,1.348,0.978,2.354
		c0,1.523-0.703,2.719-2.107,3.587c-1.405,0.867-3.415,1.301-6.03,1.301h-0.419l-0.051,1.016c0,1.109,0.26,1.975,0.781,2.596
		c0.521,0.623,1.327,0.934,2.418,0.934c0.533,0,1.081-0.076,1.644-0.229s1.263-0.432,2.101-0.838v1.854
		c-0.795,0.373-1.498,0.633-2.107,0.781C594.812,660.269,594.139,660.343,593.403,660.343z M595.167,647.736
		c-0.872,0-1.69,0.398-2.457,1.193s-1.352,1.9-1.758,3.313h0.152c1.93,0,3.409-0.252,4.437-0.755
		c1.028-0.504,1.542-1.234,1.542-2.19c0-0.448-0.154-0.821-0.463-1.117S595.828,647.736,595.167,647.736z"/>
	<path d="M609.234,660.089l1.879-8.785c0.169-0.88,0.254-1.489,0.254-1.828c0-0.533-0.15-0.96-0.451-1.282s-0.781-0.482-1.441-0.482
		c-0.753,0-1.487,0.254-2.203,0.762s-1.346,1.231-1.892,2.171s-0.958,2.077-1.238,3.415l-1.282,6.03h-2.133l2.971-13.914h1.765
		l-0.279,2.577h0.127c0.812-1.033,1.598-1.763,2.355-2.189c0.757-0.428,1.542-0.642,2.355-0.642c1.075,0,1.923,0.294,2.545,0.882
		c0.622,0.589,0.933,1.412,0.933,2.47c0,0.669-0.097,1.431-0.292,2.285l-1.815,8.531H609.234z"/>
	<path d="M620,658.604c0.465,0,1.075-0.109,1.828-0.33v1.638c-0.288,0.118-0.643,0.22-1.066,0.305s-0.762,0.127-1.016,0.127
		c-1.058,0-1.868-0.252-2.431-0.755c-0.563-0.504-0.844-1.256-0.844-2.254c0-0.559,0.076-1.193,0.229-1.904l1.612-7.643h-2.184
		l0.178-0.927l2.349-0.99l1.587-2.895h1.244l-0.698,3.199h3.479l-0.33,1.612h-3.466l-1.638,7.668
		c-0.152,0.736-0.229,1.295-0.229,1.676c0,0.475,0.123,0.838,0.368,1.092S619.56,658.604,620,658.604z"/>
	<path d="M624.113,654.135l0.444-2.006h6.081l-0.432,2.006H624.113z"/>
	<path d="M643.118,654.706c0,1.786-0.595,3.172-1.784,4.157c-1.189,0.986-2.863,1.479-5.021,1.479c-0.897,0-1.687-0.062-2.368-0.185
		c-0.681-0.122-1.322-0.328-1.923-0.615v-2.158c1.371,0.711,2.81,1.066,4.316,1.066c1.371,0,2.458-0.319,3.263-0.959
		c0.804-0.639,1.206-1.517,1.206-2.634c0-0.66-0.222-1.242-0.667-1.745c-0.444-0.504-1.271-1.099-2.482-1.784
		c-1.278-0.72-2.165-1.438-2.66-2.158s-0.743-1.569-0.743-2.552c0-1.582,0.559-2.871,1.676-3.865
		c1.117-0.995,2.585-1.492,4.405-1.492c0.838,0,1.619,0.08,2.342,0.241s1.487,0.437,2.292,0.825l-0.838,1.904
		c-0.559-0.322-1.185-0.576-1.879-0.762s-1.333-0.279-1.917-0.279c-1.134,0-2.046,0.294-2.736,0.883
		c-0.69,0.588-1.035,1.385-1.035,2.393c0,0.457,0.072,0.849,0.216,1.174c0.144,0.326,0.373,0.633,0.686,0.921
		s0.914,0.69,1.803,1.206c1.244,0.744,2.084,1.328,2.52,1.752s0.766,0.891,0.99,1.402
		C643.005,653.435,643.118,654.029,643.118,654.706z"/>
	<path d="M647.459,660.089h-2.133l2.971-13.914h2.133L647.459,660.089z M648.894,642.62c0-0.474,0.135-0.861,0.406-1.161
		c0.271-0.301,0.622-0.451,1.054-0.451c0.745,0,1.117,0.381,1.117,1.143c0,0.465-0.142,0.859-0.425,1.181s-0.611,0.482-0.984,0.482
		c-0.338,0-0.618-0.104-0.838-0.312C649.004,643.295,648.894,643.001,648.894,642.62z"/>
	<path d="M659.292,645.946c1.642,0,2.831,0.804,3.567,2.412h0.127c0.144-1.312,0.334-2.472,0.571-3.479l0.99-4.545h2.107
		l-4.189,19.754h-1.765l0.279-2.653h-0.102c-0.855,1.059-1.655,1.807-2.399,2.247s-1.515,0.66-2.311,0.66
		c-1.176,0-2.095-0.415-2.755-1.244s-0.99-1.98-0.99-3.453c0-1.812,0.305-3.47,0.914-4.977s1.433-2.671,2.469-3.491
		S658.005,645.946,659.292,645.946z M656.879,658.578c0.795,0,1.617-0.396,2.463-1.188c0.846-0.791,1.517-1.803,2.012-3.033
		c0.495-1.232,0.743-2.486,0.743-3.765c0-0.939-0.229-1.655-0.686-2.146s-1.122-0.736-1.993-0.736c-0.855,0-1.648,0.35-2.38,1.047
		c-0.732,0.699-1.32,1.681-1.765,2.945c-0.444,1.266-0.667,2.597-0.667,3.993C654.607,657.617,655.364,658.578,656.879,658.578z"/>
	<path d="M672.431,660.343c-1.557,0-2.78-0.462-3.669-1.384s-1.333-2.201-1.333-3.834c0-1.592,0.315-3.117,0.946-4.576
		c0.63-1.461,1.466-2.597,2.507-3.409s2.188-1.219,3.44-1.219c1.295,0,2.268,0.281,2.92,0.845c0.652,0.562,0.978,1.348,0.978,2.354
		c0,1.523-0.703,2.719-2.107,3.587c-1.405,0.867-3.415,1.301-6.03,1.301h-0.419l-0.051,1.016c0,1.109,0.26,1.975,0.781,2.596
		c0.521,0.623,1.327,0.934,2.418,0.934c0.533,0,1.081-0.076,1.644-0.229s1.263-0.432,2.101-0.838v1.854
		c-0.795,0.373-1.498,0.633-2.107,0.781C673.84,660.269,673.167,660.343,672.431,660.343z M674.196,647.736
		c-0.872,0-1.69,0.398-2.457,1.193s-1.352,1.9-1.758,3.313h0.152c1.93,0,3.409-0.252,4.437-0.755
		c1.028-0.504,1.542-1.234,1.542-2.19c0-0.448-0.154-0.821-0.463-1.117S674.856,647.736,674.196,647.736z"/>
	<path d="M685.355,649.12c0,2.886-0.515,5.55-1.543,7.991c-1.028,2.442-2.647,4.806-4.856,7.091h-1.98
		c4.198-4.663,6.297-9.69,6.297-15.082c0-2.886-0.478-5.417-1.435-7.592h1.663C684.737,643.805,685.355,646.336,685.355,649.12z"/>
</g>
<g>
	<rect x="869.45" y="640.329" fill="none" width="251.157" height="55.498"/>
	<path d="M904.066,660.089h-2.184l3.518-16.644h-5.154l0.418-1.917h12.506l-0.381,1.917h-5.18L904.066,660.089z"/>
	<path d="M920.609,641.528c3.656,0,5.484,1.422,5.484,4.266c0,1.193-0.369,2.2-1.105,3.021s-1.772,1.354-3.109,1.6v0.127
		c0.973,0.271,1.72,0.738,2.24,1.403c0.521,0.664,0.781,1.461,0.781,2.393c0,1.795-0.644,3.201-1.93,4.221
		c-1.287,1.021-3.01,1.53-5.168,1.53h-5.877l3.922-18.561H920.609z M914.477,658.248h3.377c1.532,0,2.709-0.341,3.529-1.021
		c0.821-0.682,1.232-1.645,1.232-2.889c0-0.982-0.316-1.732-0.946-2.254c-0.63-0.52-1.538-0.78-2.724-0.78h-2.996L914.477,658.248z
		 M916.344,649.476h3.148c1.32,0,2.373-0.31,3.16-0.927s1.182-1.46,1.182-2.526c0-0.88-0.281-1.538-0.845-1.974
		c-0.563-0.437-1.449-0.654-2.659-0.654h-2.68L916.344,649.476z"/>
	<path d="M942.889,648.955c0,2.209-0.443,4.16-1.332,5.853s-2.158,2.996-3.809,3.91s-3.585,1.371-5.803,1.371h-4.469l3.924-18.561
		h4.342c2.336,0,4.111,0.633,5.325,1.897C942.281,644.691,942.889,646.535,942.889,648.955z M932.086,658.223
		c1.709,0,3.211-0.387,4.506-1.162c1.295-0.773,2.287-1.867,2.978-3.281s1.034-3.029,1.034-4.85s-0.436-3.197-1.307-4.133
		c-0.872-0.935-2.15-1.402-3.834-1.402h-2.26l-3.174,14.828H932.086z"/>
	<path d="M951.496,656.636c0-2.869,0.508-5.522,1.523-7.96s2.641-4.82,4.875-7.147h1.994c-2.082,2.285-3.654,4.697-4.717,7.236
		s-1.594,5.154-1.594,7.846c0,2.869,0.482,5.399,1.447,7.592h-1.662C952.119,661.951,951.496,659.429,951.496,656.636z"/>
	<path d="M969.461,654.706c0,1.786-0.596,3.172-1.784,4.157c-1.188,0.986-2.862,1.479-5.021,1.479c-0.897,0-1.688-0.062-2.368-0.185
		c-0.681-0.122-1.322-0.328-1.923-0.615v-2.158c1.371,0.711,2.81,1.066,4.316,1.066c1.371,0,2.458-0.319,3.262-0.959
		c0.805-0.639,1.207-1.517,1.207-2.634c0-0.66-0.223-1.242-0.667-1.745c-0.444-0.504-1.271-1.099-2.481-1.784
		c-1.278-0.72-2.165-1.438-2.66-2.158s-0.742-1.569-0.742-2.552c0-1.582,0.559-2.871,1.676-3.865
		c1.117-0.995,2.585-1.492,4.404-1.492c0.838,0,1.619,0.08,2.343,0.241s1.487,0.437,2.292,0.825l-0.838,1.904
		c-0.559-0.322-1.186-0.576-1.879-0.762c-0.694-0.186-1.334-0.279-1.918-0.279c-1.134,0-2.045,0.294-2.735,0.883
		c-0.69,0.588-1.034,1.385-1.034,2.393c0,0.457,0.071,0.849,0.215,1.174c0.145,0.326,0.373,0.633,0.686,0.921
		c0.313,0.288,0.914,0.69,1.803,1.206c1.244,0.744,2.084,1.328,2.521,1.752s0.767,0.891,0.99,1.402
		C969.348,653.435,969.461,654.029,969.461,654.706z"/>
	<path d="M977.166,660.343c-1.557,0-2.779-0.462-3.668-1.384s-1.334-2.201-1.334-3.834c0-1.592,0.316-3.117,0.946-4.576
		c0.63-1.461,1.466-2.597,2.507-3.409s2.188-1.219,3.441-1.219c1.295,0,2.268,0.281,2.92,0.845c0.651,0.562,0.977,1.348,0.977,2.354
		c0,1.523-0.702,2.719-2.107,3.587c-1.404,0.867-3.414,1.301-6.029,1.301h-0.42l-0.051,1.016c0,1.109,0.261,1.975,0.781,2.596
		c0.521,0.623,1.326,0.934,2.418,0.934c0.533,0,1.082-0.076,1.645-0.229s1.264-0.432,2.102-0.838v1.854
		c-0.796,0.373-1.498,0.633-2.107,0.781C978.576,660.269,977.902,660.343,977.166,660.343z M978.932,647.736
		c-0.872,0-1.691,0.398-2.457,1.193s-1.352,1.9-1.758,3.313h0.152c1.93,0,3.408-0.252,4.437-0.755
		c1.028-0.504,1.542-1.234,1.542-2.19c0-0.448-0.154-0.821-0.463-1.117S979.592,647.736,978.932,647.736z"/>
	<path d="M993.289,645.921c0.584,0,1.092,0.06,1.523,0.178l-0.457,1.904c-0.448-0.11-0.893-0.165-1.332-0.165
		c-0.771,0-1.492,0.254-2.165,0.762s-1.261,1.213-1.765,2.113c-0.504,0.902-0.874,1.902-1.111,3.003l-1.357,6.373h-2.133
		l2.971-13.914h1.764l-0.279,2.577h0.127c0.609-0.805,1.113-1.382,1.512-1.732c0.397-0.352,0.814-0.623,1.25-0.812
		C992.271,646.016,992.756,645.921,993.289,645.921z"/>
	<path d="M996.869,660.089l-1.586-13.914h2.133l0.812,7.782c0.203,2.184,0.305,3.715,0.305,4.596h0.076
		c1.074-2.328,1.832-3.897,2.271-4.71l4.127-7.668h2.26l-7.504,13.914H996.869z"/>
	<path d="M1012.295,660.343c-1.558,0-2.781-0.462-3.67-1.384s-1.332-2.201-1.332-3.834c0-1.592,0.314-3.117,0.945-4.576
		c0.631-1.461,1.467-2.597,2.508-3.409s2.188-1.219,3.439-1.219c1.295,0,2.269,0.281,2.92,0.845
		c0.652,0.562,0.979,1.348,0.979,2.354c0,1.523-0.703,2.719-2.107,3.587c-1.405,0.867-3.416,1.301-6.031,1.301h-0.418l-0.051,1.016
		c0,1.109,0.26,1.975,0.78,2.596c0.521,0.623,1.327,0.934,2.419,0.934c0.533,0,1.08-0.076,1.644-0.229s1.263-0.432,2.101-0.838
		v1.854c-0.795,0.373-1.498,0.633-2.107,0.781C1013.703,660.269,1013.031,660.343,1012.295,660.343z M1014.059,647.736
		c-0.871,0-1.689,0.398-2.456,1.193s-1.353,1.9-1.759,3.313h0.152c1.93,0,3.409-0.252,4.438-0.755
		c1.028-0.504,1.543-1.234,1.543-2.19c0-0.448-0.154-0.821-0.464-1.117S1014.719,647.736,1014.059,647.736z"/>
	<path d="M1028.418,645.921c0.584,0,1.092,0.06,1.523,0.178l-0.457,1.904c-0.449-0.11-0.894-0.165-1.334-0.165
		c-0.77,0-1.491,0.254-2.164,0.762s-1.262,1.213-1.765,2.113c-0.503,0.902-0.874,1.902-1.11,3.003l-1.359,6.373h-2.133l2.971-13.914
		h1.766l-0.279,2.577h0.127c0.609-0.805,1.112-1.382,1.51-1.732c0.398-0.352,0.814-0.623,1.251-0.812
		C1027.4,646.016,1027.885,645.921,1028.418,645.921z"/>
	<path d="M1029.865,654.135l0.443-2.006h6.082l-0.432,2.006H1029.865z"/>
	<path d="M1048.869,654.706c0,1.786-0.594,3.172-1.783,4.157c-1.189,0.986-2.863,1.479-5.021,1.479
		c-0.896,0-1.686-0.062-2.367-0.185c-0.682-0.122-1.322-0.328-1.924-0.615v-2.158c1.371,0.711,2.811,1.066,4.316,1.066
		c1.371,0,2.459-0.319,3.264-0.959c0.804-0.639,1.205-1.517,1.205-2.634c0-0.66-0.222-1.242-0.666-1.745
		c-0.444-0.504-1.271-1.099-2.482-1.784c-1.277-0.72-2.164-1.438-2.659-2.158s-0.743-1.569-0.743-2.552
		c0-1.582,0.559-2.871,1.676-3.865c1.117-0.995,2.586-1.492,4.406-1.492c0.838,0,1.618,0.08,2.342,0.241s1.487,0.437,2.291,0.825
		l-0.838,1.904c-0.559-0.322-1.185-0.576-1.879-0.762c-0.693-0.186-1.332-0.279-1.916-0.279c-1.135,0-2.047,0.294-2.736,0.883
		c-0.689,0.588-1.035,1.385-1.035,2.393c0,0.457,0.072,0.849,0.217,1.174c0.144,0.326,0.372,0.633,0.686,0.921
		c0.312,0.288,0.914,0.69,1.803,1.206c1.244,0.744,2.084,1.328,2.52,1.752s0.766,0.891,0.99,1.402
		C1048.758,653.435,1048.869,654.029,1048.869,654.706z"/>
	<path d="M1053.211,660.089h-2.133l2.971-13.914h2.133L1053.211,660.089z M1054.646,642.62c0-0.474,0.135-0.861,0.406-1.161
		c0.271-0.301,0.621-0.451,1.053-0.451c0.745,0,1.117,0.381,1.117,1.143c0,0.465-0.141,0.859-0.425,1.181s-0.611,0.482-0.983,0.482
		c-0.339,0-0.618-0.104-0.838-0.312C1054.756,643.295,1054.646,643.001,1054.646,642.62z"/>
	<path d="M1065.043,645.946c1.643,0,2.832,0.804,3.568,2.412h0.127c0.144-1.312,0.334-2.472,0.57-3.479l0.99-4.545h2.107
		l-4.189,19.754h-1.764l0.279-2.653h-0.102c-0.855,1.059-1.655,1.807-2.4,2.247c-0.744,0.44-1.515,0.66-2.311,0.66
		c-1.176,0-2.094-0.415-2.754-1.244s-0.99-1.98-0.99-3.453c0-1.812,0.305-3.47,0.914-4.977s1.432-2.671,2.469-3.491
		S1063.757,645.946,1065.043,645.946z M1062.631,658.578c0.796,0,1.617-0.396,2.463-1.188c0.847-0.791,1.518-1.803,2.013-3.033
		c0.495-1.232,0.743-2.486,0.743-3.765c0-0.939-0.229-1.655-0.686-2.146s-1.122-0.736-1.994-0.736c-0.854,0-1.648,0.35-2.38,1.047
		c-0.731,0.699-1.32,1.681-1.765,2.945c-0.444,1.266-0.666,2.597-0.666,3.993C1060.359,657.617,1061.116,658.578,1062.631,658.578z"
		/>
	<path d="M1078.184,660.343c-1.558,0-2.781-0.462-3.67-1.384s-1.332-2.201-1.332-3.834c0-1.592,0.314-3.117,0.945-4.576
		c0.631-1.461,1.467-2.597,2.508-3.409s2.188-1.219,3.439-1.219c1.295,0,2.269,0.281,2.92,0.845
		c0.652,0.562,0.979,1.348,0.979,2.354c0,1.523-0.703,2.719-2.107,3.587c-1.405,0.867-3.416,1.301-6.031,1.301h-0.418l-0.051,1.016
		c0,1.109,0.26,1.975,0.78,2.596c0.521,0.623,1.327,0.934,2.419,0.934c0.533,0,1.08-0.076,1.644-0.229s1.263-0.432,2.101-0.838
		v1.854c-0.795,0.373-1.498,0.633-2.107,0.781C1079.592,660.269,1078.92,660.343,1078.184,660.343z M1079.947,647.736
		c-0.871,0-1.689,0.398-2.456,1.193s-1.353,1.9-1.759,3.313h0.152c1.93,0,3.409-0.252,4.438-0.755
		c1.028-0.504,1.543-1.234,1.543-2.19c0-0.448-0.154-0.821-0.464-1.117S1080.607,647.736,1079.947,647.736z"/>
	<path d="M1091.107,649.12c0,2.886-0.515,5.55-1.543,7.991c-1.028,2.442-2.646,4.806-4.855,7.091h-1.98
		c4.197-4.663,6.297-9.69,6.297-15.082c0-2.886-0.479-5.417-1.436-7.592h1.664C1090.489,643.805,1091.107,646.336,1091.107,649.12z"
		/>
</g>
<g>
	<rect x="560.059" y="271.847" fill="none" width="440.03" height="55.498"/>
	<path d="M671.624,283.888l-1.638,7.719h-2.158l3.923-18.561h4.062c3.775,0,5.662,1.549,5.662,4.646c0,2.945-1.557,4.845-4.672,5.7
		l3.034,8.214h-2.361l-2.653-7.719H671.624z M673.49,274.938c-0.863,4.181-1.354,6.546-1.473,7.097h2.133
		c1.633,0,2.89-0.36,3.771-1.079s1.32-1.752,1.32-3.098c0-1.024-0.286-1.767-0.857-2.228s-1.5-0.692-2.787-0.692H673.49z"/>
	<path d="M687.772,291.861c-1.558,0-2.78-0.461-3.669-1.384s-1.333-2.201-1.333-3.834c0-1.591,0.315-3.117,0.946-4.577
		s1.466-2.596,2.507-3.409s2.188-1.219,3.44-1.219c1.295,0,2.268,0.281,2.92,0.844s0.978,1.348,0.978,2.355
		c0,1.523-0.702,2.719-2.107,3.586s-3.415,1.301-6.03,1.301h-0.419l-0.051,1.016c0,1.109,0.261,1.974,0.78,2.596
		c0.521,0.622,1.327,0.933,2.419,0.933c0.533,0,1.081-0.076,1.644-0.229c0.563-0.152,1.264-0.432,2.102-0.838v1.854
		c-0.795,0.373-1.498,0.633-2.107,0.781S688.509,291.861,687.772,291.861z M689.537,279.254c-0.871,0-1.69,0.398-2.457,1.193
		c-0.766,0.795-1.352,1.9-1.758,3.313h0.152c1.93,0,3.408-0.252,4.438-0.755c1.027-0.503,1.542-1.233,1.542-2.19
		c0-0.449-0.154-0.821-0.464-1.117C690.682,279.402,690.197,279.254,689.537,279.254z"/>
	<path d="M697.18,291.607l-1.587-13.914h2.133l0.812,7.782c0.203,2.184,0.305,3.715,0.305,4.596h0.076
		c1.075-2.328,1.833-3.897,2.272-4.71l4.126-7.668h2.26l-7.503,13.914H697.18z"/>
	<path d="M709.24,291.607h-2.133l2.971-13.914h2.133L709.24,291.607z M710.675,274.138c0-0.474,0.136-0.861,0.406-1.162
		s0.622-0.451,1.054-0.451c0.744,0,1.117,0.381,1.117,1.143c0,0.465-0.142,0.859-0.426,1.181c-0.283,0.322-0.611,0.482-0.983,0.482
		c-0.339,0-0.618-0.104-0.838-0.311S710.675,274.519,710.675,274.138z"/>
	<path d="M722.291,287.659c0,1.32-0.468,2.351-1.402,3.091c-0.936,0.741-2.254,1.111-3.955,1.111c-1.43,0-2.721-0.292-3.872-0.876
		v-2.006c0.593,0.355,1.231,0.63,1.917,0.825s1.32,0.292,1.904,0.292c1.066,0,1.871-0.211,2.412-0.635s0.812-0.965,0.812-1.625
		c0-0.482-0.148-0.889-0.444-1.219s-0.935-0.783-1.917-1.358c-1.1-0.618-1.879-1.223-2.336-1.815s-0.686-1.295-0.686-2.107
		c0-1.168,0.428-2.109,1.282-2.825s1.98-1.073,3.377-1.073c1.447,0,2.844,0.313,4.189,0.939l-0.686,1.739l-0.711-0.317
		c-0.854-0.364-1.786-0.546-2.793-0.546c-0.787,0-1.405,0.184-1.854,0.552s-0.673,0.844-0.673,1.428c0,0.474,0.15,0.88,0.451,1.219
		c0.3,0.338,0.92,0.774,1.859,1.308c0.906,0.508,1.555,0.944,1.949,1.308c0.393,0.364,0.688,0.755,0.882,1.174
		S722.291,287.134,722.291,287.659z"/>
	<path d="M726.976,291.607h-2.133l2.971-13.914h2.133L726.976,291.607z M728.41,274.138c0-0.474,0.135-0.861,0.406-1.162
		s0.622-0.451,1.054-0.451c0.745,0,1.117,0.381,1.117,1.143c0,0.465-0.142,0.859-0.425,1.181c-0.284,0.322-0.611,0.482-0.984,0.482
		c-0.338,0-0.617-0.104-0.838-0.311S728.41,274.519,728.41,274.138z"/>
	<path d="M738.858,277.515c1.608,0,2.878,0.476,3.809,1.428s1.396,2.262,1.396,3.929c0,1.591-0.305,3.093-0.914,4.507
		s-1.435,2.505-2.476,3.275s-2.217,1.155-3.529,1.155c-1.625,0-2.898-0.478-3.821-1.435s-1.384-2.264-1.384-3.923
		c0-1.608,0.309-3.121,0.927-4.539s1.452-2.505,2.501-3.263S737.58,277.515,738.858,277.515z M741.854,282.581
		c0-0.973-0.265-1.763-0.794-2.368c-0.528-0.605-1.246-0.908-2.151-0.908c-0.923,0-1.75,0.313-2.481,0.939
		c-0.732,0.626-1.3,1.496-1.701,2.609c-0.402,1.113-0.604,2.351-0.604,3.713c0,1.109,0.269,1.966,0.807,2.571
		c0.537,0.605,1.309,0.908,2.316,0.908c0.881,0,1.672-0.309,2.374-0.927s1.251-1.496,1.644-2.634
		C741.658,285.346,741.854,284.045,741.854,282.581z"/>
	<path d="M754.537,291.607l1.879-8.785c0.17-0.88,0.254-1.49,0.254-1.828c0-0.533-0.15-0.96-0.451-1.282
		c-0.3-0.322-0.78-0.482-1.44-0.482c-0.753,0-1.487,0.254-2.202,0.762c-0.716,0.508-1.346,1.231-1.893,2.171
		c-0.545,0.939-0.958,2.078-1.237,3.415l-1.282,6.03h-2.133l2.971-13.914h1.765l-0.279,2.577h0.127
		c0.812-1.033,1.598-1.763,2.354-2.19c0.758-0.427,1.543-0.641,2.355-0.641c1.074,0,1.924,0.294,2.545,0.882
		c0.623,0.588,0.934,1.411,0.934,2.469c0,0.668-0.098,1.43-0.292,2.285l-1.815,8.531H754.537z"/>
	<path d="M769.924,291.607h-2.133l2.971-13.914h2.133L769.924,291.607z M771.358,274.138c0-0.474,0.136-0.861,0.406-1.162
		s0.622-0.451,1.054-0.451c0.744,0,1.117,0.381,1.117,1.143c0,0.465-0.142,0.859-0.426,1.181c-0.283,0.322-0.611,0.482-0.983,0.482
		c-0.339,0-0.618-0.104-0.838-0.311S771.358,274.519,771.358,274.138z"/>
	<path d="M782.898,291.607l1.879-8.785c0.17-0.88,0.254-1.49,0.254-1.828c0-0.533-0.15-0.96-0.451-1.282
		c-0.3-0.322-0.78-0.482-1.44-0.482c-0.753,0-1.487,0.254-2.202,0.762c-0.716,0.508-1.346,1.231-1.893,2.171
		c-0.545,0.939-0.958,2.078-1.237,3.415l-1.282,6.03h-2.133l2.971-13.914h1.765l-0.279,2.577h0.127
		c0.812-1.033,1.598-1.763,2.354-2.19c0.758-0.427,1.543-0.641,2.355-0.641c1.074,0,1.924,0.294,2.545,0.882
		c0.623,0.588,0.934,1.411,0.934,2.469c0,0.668-0.098,1.43-0.292,2.285l-1.815,8.531H782.898z"/>
	<path d="M810.117,277.833c0,2.099-0.693,3.703-2.082,4.812s-3.424,1.663-6.106,1.663h-1.714l-1.562,7.3h-2.158l3.923-18.561h4.189
		c1.811,0,3.182,0.4,4.113,1.2S810.117,276.241,810.117,277.833z M800.608,282.454h1.688c1.828,0,3.217-0.385,4.164-1.155
		s1.422-1.9,1.422-3.39c0-1.058-0.294-1.822-0.883-2.292c-0.588-0.47-1.491-0.705-2.71-0.705h-2.069L800.608,282.454z"/>
	<path d="M819.664,277.439c0.584,0,1.092,0.059,1.523,0.178l-0.457,1.904c-0.449-0.11-0.893-0.165-1.333-0.165
		c-0.771,0-1.491,0.254-2.165,0.762c-0.672,0.508-1.261,1.212-1.764,2.114c-0.504,0.901-0.875,1.902-1.111,3.002l-1.358,6.373
		h-2.133l2.971-13.914h1.765l-0.279,2.577h0.127c0.609-0.804,1.113-1.382,1.511-1.733s0.814-0.622,1.251-0.812
		C818.646,277.534,819.131,277.439,819.664,277.439z"/>
	<path d="M828.576,277.515c1.607,0,2.877,0.476,3.809,1.428s1.396,2.262,1.396,3.929c0,1.591-0.305,3.093-0.914,4.507
		s-1.435,2.505-2.476,3.275s-2.218,1.155-3.529,1.155c-1.625,0-2.899-0.478-3.821-1.435s-1.384-2.264-1.384-3.923
		c0-1.608,0.31-3.121,0.927-4.539s1.451-2.505,2.501-3.263S827.299,277.515,828.576,277.515z M831.572,282.581
		c0-0.973-0.265-1.763-0.793-2.368c-0.529-0.605-1.246-0.908-2.152-0.908c-0.922,0-1.75,0.313-2.482,0.939
		c-0.731,0.626-1.299,1.496-1.701,2.609c-0.401,1.113-0.603,2.351-0.603,3.713c0,1.109,0.269,1.966,0.806,2.571
		c0.538,0.605,1.311,0.908,2.317,0.908c0.88,0,1.671-0.309,2.374-0.927s1.25-1.496,1.645-2.634
		C831.375,285.346,831.572,284.045,831.572,282.581z"/>
	<path d="M848.965,277.693l-0.317,1.358l-2.679,0.305c0.348,0.525,0.521,1.193,0.521,2.006c0,1.617-0.493,2.905-1.479,3.866
		c-0.985,0.96-2.304,1.441-3.954,1.441c-0.466,0-0.821-0.034-1.066-0.102c-1.177,0.449-1.765,1.003-1.765,1.663
		c0,0.347,0.14,0.578,0.419,0.692s0.686,0.205,1.219,0.273l1.485,0.178c1.531,0.186,2.643,0.559,3.332,1.117
		c0.69,0.559,1.035,1.379,1.035,2.463c0,1.557-0.617,2.763-1.854,3.618s-2.975,1.282-5.218,1.282c-1.642,0-2.929-0.311-3.859-0.933
		s-1.396-1.5-1.396-2.634c0-0.889,0.305-1.659,0.914-2.311s1.595-1.206,2.958-1.663c-0.66-0.347-0.99-0.859-0.99-1.536
		c0-0.584,0.216-1.085,0.647-1.504s1.032-0.811,1.803-1.174c-0.533-0.271-0.97-0.671-1.308-1.2s-0.508-1.145-0.508-1.847
		c0-1.642,0.506-2.988,1.518-4.037c1.011-1.049,2.304-1.574,3.878-1.574c0.66,0,1.312,0.084,1.955,0.254H848.965z M835.444,294.083
		c0,0.652,0.274,1.168,0.825,1.549s1.367,0.571,2.45,0.571c1.54,0,2.744-0.269,3.612-0.806c0.867-0.538,1.301-1.297,1.301-2.279
		c0-0.525-0.229-0.939-0.686-1.244s-1.236-0.516-2.336-0.635l-2.019-0.203c-1.016,0.211-1.794,0.584-2.336,1.117
		S835.444,293.329,835.444,294.083z M838.974,282.974c0,0.719,0.19,1.268,0.571,1.644s0.91,0.565,1.587,0.565
		c0.669,0,1.253-0.178,1.752-0.533s0.882-0.844,1.149-1.466c0.266-0.622,0.399-1.297,0.399-2.025c0-0.694-0.187-1.223-0.559-1.587
		s-0.905-0.546-1.6-0.546c-0.66,0-1.237,0.171-1.733,0.514c-0.494,0.343-0.88,0.821-1.154,1.435
		C839.111,281.588,838.974,282.255,838.974,282.974z"/>
	<path d="M857.572,277.439c0.584,0,1.092,0.059,1.523,0.178l-0.457,1.904c-0.449-0.11-0.893-0.165-1.333-0.165
		c-0.771,0-1.491,0.254-2.165,0.762c-0.672,0.508-1.261,1.212-1.764,2.114c-0.504,0.901-0.875,1.902-1.111,3.002l-1.358,6.373
		h-2.133l2.971-13.914h1.765l-0.279,2.577h0.127c0.609-0.804,1.113-1.382,1.511-1.733s0.814-0.622,1.251-0.812
		C856.555,277.534,857.039,277.439,857.572,277.439z"/>
	<path d="M864.567,291.861c-1.558,0-2.78-0.461-3.669-1.384s-1.333-2.201-1.333-3.834c0-1.591,0.315-3.117,0.946-4.577
		c0.63-1.46,1.466-2.596,2.507-3.409s2.188-1.219,3.44-1.219c1.295,0,2.268,0.281,2.92,0.844s0.978,1.348,0.978,2.355
		c0,1.523-0.702,2.719-2.107,3.586s-3.415,1.301-6.03,1.301H861.8l-0.051,1.016c0,1.109,0.261,1.974,0.78,2.596
		c0.521,0.622,1.327,0.933,2.419,0.933c0.533,0,1.081-0.076,1.644-0.229c0.563-0.152,1.264-0.432,2.102-0.838v1.854
		c-0.795,0.373-1.498,0.633-2.107,0.781S865.304,291.861,864.567,291.861z M866.332,279.254c-0.871,0-1.69,0.398-2.457,1.193
		c-0.766,0.795-1.352,1.9-1.758,3.313h0.152c1.93,0,3.408-0.252,4.438-0.755c1.027-0.503,1.542-1.233,1.542-2.19
		c0-0.449-0.154-0.821-0.464-1.117C867.477,279.402,866.992,279.254,866.332,279.254z"/>
	<path d="M880.475,287.659c0,1.32-0.468,2.351-1.402,3.091c-0.936,0.741-2.254,1.111-3.955,1.111c-1.43,0-2.721-0.292-3.872-0.876
		v-2.006c0.593,0.355,1.231,0.63,1.917,0.825s1.32,0.292,1.904,0.292c1.066,0,1.871-0.211,2.412-0.635s0.812-0.965,0.812-1.625
		c0-0.482-0.148-0.889-0.444-1.219s-0.935-0.783-1.917-1.358c-1.1-0.618-1.879-1.223-2.336-1.815s-0.686-1.295-0.686-2.107
		c0-1.168,0.428-2.109,1.282-2.825s1.98-1.073,3.377-1.073c1.447,0,2.844,0.313,4.189,0.939l-0.686,1.739l-0.711-0.317
		c-0.854-0.364-1.786-0.546-2.793-0.546c-0.787,0-1.405,0.184-1.854,0.552s-0.673,0.844-0.673,1.428c0,0.474,0.15,0.88,0.451,1.219
		c0.3,0.338,0.92,0.774,1.859,1.308c0.906,0.508,1.555,0.944,1.949,1.308c0.393,0.364,0.688,0.755,0.882,1.174
		S880.475,287.134,880.475,287.659z"/>
	<path d="M891.608,287.659c0,1.32-0.468,2.351-1.403,3.091c-0.935,0.741-2.253,1.111-3.954,1.111c-1.431,0-2.722-0.292-3.872-0.876
		v-2.006c0.592,0.355,1.231,0.63,1.917,0.825s1.32,0.292,1.904,0.292c1.066,0,1.87-0.211,2.412-0.635s0.812-0.965,0.812-1.625
		c0-0.482-0.147-0.889-0.444-1.219s-0.936-0.783-1.917-1.358c-1.101-0.618-1.879-1.223-2.336-1.815s-0.686-1.295-0.686-2.107
		c0-1.168,0.427-2.109,1.282-2.825s1.98-1.073,3.377-1.073c1.447,0,2.844,0.313,4.189,0.939l-0.686,1.739l-0.711-0.317
		c-0.855-0.364-1.785-0.546-2.793-0.546c-0.787,0-1.404,0.184-1.854,0.552s-0.673,0.844-0.673,1.428c0,0.474,0.15,0.88,0.45,1.219
		c0.301,0.338,0.921,0.774,1.86,1.308c0.905,0.508,1.556,0.944,1.948,1.308c0.395,0.364,0.688,0.755,0.883,1.174
		S891.608,287.134,891.608,287.659z"/>
</g>
<g>
	<rect x="560.059" y="392.342" fill="none" width="440.03" height="55.498"/>
	<path d="M671.624,404.383l-1.638,7.719h-2.158l3.923-18.561h4.062c3.775,0,5.662,1.549,5.662,4.646
		c0,2.945-1.557,4.845-4.672,5.699l3.034,8.215h-2.361l-2.653-7.719H671.624z M673.49,395.432c-0.863,4.182-1.354,6.547-1.473,7.098
		h2.133c1.633,0,2.89-0.36,3.771-1.08c0.88-0.719,1.32-1.752,1.32-3.098c0-1.023-0.286-1.766-0.857-2.228s-1.5-0.692-2.787-0.692
		H673.49z"/>
	<path d="M687.772,412.355c-1.558,0-2.78-0.462-3.669-1.385c-0.889-0.922-1.333-2.2-1.333-3.834c0-1.591,0.315-3.116,0.946-4.576
		s1.466-2.596,2.507-3.408s2.188-1.219,3.44-1.219c1.295,0,2.268,0.281,2.92,0.844s0.978,1.348,0.978,2.355
		c0,1.523-0.702,2.719-2.107,3.586s-3.415,1.301-6.03,1.301h-0.419l-0.051,1.016c0,1.109,0.261,1.975,0.78,2.597
		c0.521,0.622,1.327,0.933,2.419,0.933c0.533,0,1.081-0.076,1.644-0.229c0.563-0.152,1.264-0.432,2.102-0.838v1.854
		c-0.795,0.373-1.498,0.633-2.107,0.781S688.509,412.355,687.772,412.355z M689.537,399.748c-0.871,0-1.69,0.398-2.457,1.193
		c-0.766,0.796-1.352,1.9-1.758,3.314h0.152c1.93,0,3.408-0.252,4.438-0.756c1.027-0.504,1.542-1.233,1.542-2.189
		c0-0.449-0.154-0.821-0.464-1.117C690.682,399.896,690.197,399.748,689.537,399.748z"/>
	<path d="M697.18,412.102l-1.587-13.914h2.133l0.812,7.781c0.203,2.184,0.305,3.716,0.305,4.596h0.076
		c1.075-2.327,1.833-3.896,2.272-4.709l4.126-7.668h2.26l-7.503,13.914H697.18z"/>
	<path d="M709.24,412.102h-2.133l2.971-13.914h2.133L709.24,412.102z M710.675,394.633c0-0.475,0.136-0.861,0.406-1.162
		s0.622-0.451,1.054-0.451c0.744,0,1.117,0.381,1.117,1.143c0,0.466-0.142,0.859-0.426,1.182c-0.283,0.321-0.611,0.482-0.983,0.482
		c-0.339,0-0.618-0.104-0.838-0.312S710.675,395.014,710.675,394.633z"/>
	<path d="M722.291,408.152c0,1.32-0.468,2.352-1.402,3.092c-0.936,0.74-2.254,1.111-3.955,1.111c-1.43,0-2.721-0.293-3.872-0.877
		v-2.006c0.593,0.355,1.231,0.631,1.917,0.826c0.686,0.194,1.32,0.291,1.904,0.291c1.066,0,1.871-0.211,2.412-0.635
		c0.541-0.423,0.812-0.965,0.812-1.625c0-0.482-0.148-0.889-0.444-1.219s-0.935-0.782-1.917-1.357
		c-1.1-0.618-1.879-1.224-2.336-1.816c-0.457-0.592-0.686-1.295-0.686-2.107c0-1.168,0.428-2.109,1.282-2.824
		s1.98-1.072,3.377-1.072c1.447,0,2.844,0.312,4.189,0.939l-0.686,1.738l-0.711-0.316c-0.854-0.364-1.786-0.547-2.793-0.547
		c-0.787,0-1.405,0.185-1.854,0.553s-0.673,0.844-0.673,1.428c0,0.475,0.15,0.881,0.451,1.219c0.3,0.339,0.92,0.775,1.859,1.309
		c0.906,0.508,1.555,0.943,1.949,1.307c0.393,0.364,0.688,0.756,0.882,1.175S722.291,407.628,722.291,408.152z"/>
	<path d="M726.976,412.102h-2.133l2.971-13.914h2.133L726.976,412.102z M728.41,394.633c0-0.475,0.135-0.861,0.406-1.162
		s0.622-0.451,1.054-0.451c0.745,0,1.117,0.381,1.117,1.143c0,0.466-0.142,0.859-0.425,1.182c-0.284,0.321-0.611,0.482-0.984,0.482
		c-0.338,0-0.617-0.104-0.838-0.312S728.41,395.014,728.41,394.633z"/>
	<path d="M738.858,398.01c1.608,0,2.878,0.476,3.809,1.428s1.396,2.262,1.396,3.93c0,1.591-0.305,3.093-0.914,4.506
		c-0.609,1.414-1.435,2.506-2.476,3.275c-1.041,0.771-2.217,1.156-3.529,1.156c-1.625,0-2.898-0.479-3.821-1.436
		c-0.923-0.956-1.384-2.264-1.384-3.922c0-1.608,0.309-3.121,0.927-4.539s1.452-2.506,2.501-3.263S737.58,398.01,738.858,398.01z
		 M741.854,403.074c0-0.973-0.265-1.762-0.794-2.367c-0.528-0.605-1.246-0.908-2.151-0.908c-0.923,0-1.75,0.313-2.481,0.939
		c-0.732,0.627-1.3,1.496-1.701,2.609c-0.402,1.113-0.604,2.351-0.604,3.713c0,1.109,0.269,1.967,0.807,2.571
		c0.537,0.604,1.309,0.907,2.316,0.907c0.881,0,1.672-0.309,2.374-0.926c0.702-0.618,1.251-1.496,1.644-2.635
		C741.658,405.84,741.854,404.539,741.854,403.074z"/>
	<path d="M754.537,412.102l1.879-8.785c0.17-0.881,0.254-1.49,0.254-1.828c0-0.533-0.15-0.961-0.451-1.283
		c-0.3-0.321-0.78-0.482-1.44-0.482c-0.753,0-1.487,0.254-2.202,0.762c-0.716,0.508-1.346,1.232-1.893,2.172
		c-0.545,0.939-0.958,2.077-1.237,3.414l-1.282,6.031h-2.133l2.971-13.914h1.765l-0.279,2.576h0.127
		c0.812-1.032,1.598-1.762,2.354-2.189c0.758-0.428,1.543-0.641,2.355-0.641c1.074,0,1.924,0.293,2.545,0.882
		c0.623,0.589,0.934,1.411,0.934,2.47c0,0.668-0.098,1.43-0.292,2.285l-1.815,8.531H754.537z"/>
	<path d="M769.924,412.102h-2.133l2.971-13.914h2.133L769.924,412.102z M771.358,394.633c0-0.475,0.136-0.861,0.406-1.162
		s0.622-0.451,1.054-0.451c0.744,0,1.117,0.381,1.117,1.143c0,0.466-0.142,0.859-0.426,1.182c-0.283,0.321-0.611,0.482-0.983,0.482
		c-0.339,0-0.618-0.104-0.838-0.312S771.358,395.014,771.358,394.633z"/>
	<path d="M782.898,412.102l1.879-8.785c0.17-0.881,0.254-1.49,0.254-1.828c0-0.533-0.15-0.961-0.451-1.283
		c-0.3-0.321-0.78-0.482-1.44-0.482c-0.753,0-1.487,0.254-2.202,0.762c-0.716,0.508-1.346,1.232-1.893,2.172
		c-0.545,0.939-0.958,2.077-1.237,3.414l-1.282,6.031h-2.133l2.971-13.914h1.765l-0.279,2.576h0.127
		c0.812-1.032,1.598-1.762,2.354-2.189c0.758-0.428,1.543-0.641,2.355-0.641c1.074,0,1.924,0.293,2.545,0.882
		c0.623,0.589,0.934,1.411,0.934,2.47c0,0.668-0.098,1.43-0.292,2.285l-1.815,8.531H782.898z"/>
	<path d="M810.117,398.326c0,2.1-0.693,3.703-2.082,4.812c-1.389,1.108-3.424,1.662-6.106,1.662h-1.714l-1.562,7.301h-2.158
		l3.923-18.561h4.189c1.811,0,3.182,0.399,4.113,1.199S810.117,396.735,810.117,398.326z M800.608,402.947h1.688
		c1.828,0,3.217-0.385,4.164-1.154c0.947-0.771,1.422-1.9,1.422-3.391c0-1.058-0.294-1.821-0.883-2.291
		c-0.588-0.47-1.491-0.705-2.71-0.705h-2.069L800.608,402.947z"/>
	<path d="M819.664,397.934c0.584,0,1.092,0.059,1.523,0.178l-0.457,1.904c-0.449-0.11-0.893-0.166-1.333-0.166
		c-0.771,0-1.491,0.254-2.165,0.762c-0.672,0.508-1.261,1.213-1.764,2.114c-0.504,0.901-0.875,1.902-1.111,3.003l-1.358,6.373
		h-2.133l2.971-13.914h1.765l-0.279,2.576h0.127c0.609-0.804,1.113-1.381,1.511-1.732s0.814-0.622,1.251-0.812
		C818.646,398.028,819.131,397.934,819.664,397.934z"/>
	<path d="M828.576,398.01c1.607,0,2.877,0.476,3.809,1.428s1.396,2.262,1.396,3.93c0,1.591-0.305,3.093-0.914,4.506
		c-0.609,1.414-1.435,2.506-2.476,3.275c-1.041,0.771-2.218,1.156-3.529,1.156c-1.625,0-2.899-0.479-3.821-1.436
		c-0.922-0.956-1.384-2.264-1.384-3.922c0-1.608,0.31-3.121,0.927-4.539s1.451-2.506,2.501-3.263S827.299,398.01,828.576,398.01z
		 M831.572,403.074c0-0.973-0.265-1.762-0.793-2.367c-0.529-0.605-1.246-0.908-2.152-0.908c-0.922,0-1.75,0.313-2.482,0.939
		c-0.731,0.627-1.299,1.496-1.701,2.609c-0.401,1.113-0.603,2.351-0.603,3.713c0,1.109,0.269,1.967,0.806,2.571
		c0.538,0.604,1.311,0.907,2.317,0.907c0.88,0,1.671-0.309,2.374-0.926c0.703-0.618,1.25-1.496,1.645-2.635
		C831.375,405.84,831.572,404.539,831.572,403.074z"/>
	<path d="M848.965,398.188l-0.317,1.357l-2.679,0.305c0.348,0.525,0.521,1.193,0.521,2.006c0,1.617-0.493,2.906-1.479,3.866
		c-0.985,0.96-2.304,1.44-3.954,1.44c-0.466,0-0.821-0.033-1.066-0.102c-1.177,0.449-1.765,1.004-1.765,1.664
		c0,0.347,0.14,0.577,0.419,0.691s0.686,0.205,1.219,0.273l1.485,0.178c1.531,0.186,2.643,0.559,3.332,1.117
		c0.69,0.559,1.035,1.379,1.035,2.463c0,1.557-0.617,2.763-1.854,3.617c-1.236,0.855-2.975,1.283-5.218,1.283
		c-1.642,0-2.929-0.312-3.859-0.934s-1.396-1.5-1.396-2.635c0-0.889,0.305-1.658,0.914-2.311c0.609-0.651,1.595-1.205,2.958-1.662
		c-0.66-0.348-0.99-0.859-0.99-1.537c0-0.584,0.216-1.085,0.647-1.504s1.032-0.811,1.803-1.174c-0.533-0.271-0.97-0.672-1.308-1.2
		s-0.508-1.145-0.508-1.847c0-1.643,0.506-2.988,1.518-4.037c1.011-1.05,2.304-1.574,3.878-1.574c0.66,0,1.312,0.084,1.955,0.254
		H848.965z M835.444,414.576c0,0.652,0.274,1.168,0.825,1.549s1.367,0.572,2.45,0.572c1.54,0,2.744-0.27,3.612-0.807
		c0.867-0.537,1.301-1.297,1.301-2.279c0-0.524-0.229-0.939-0.686-1.244s-1.236-0.516-2.336-0.635l-2.019-0.203
		c-1.016,0.212-1.794,0.584-2.336,1.117S835.444,413.823,835.444,414.576z M838.974,403.469c0,0.719,0.19,1.268,0.571,1.644
		s0.91,0.565,1.587,0.565c0.669,0,1.253-0.178,1.752-0.533s0.882-0.845,1.149-1.467c0.266-0.622,0.399-1.297,0.399-2.025
		c0-0.693-0.187-1.223-0.559-1.586c-0.372-0.364-0.905-0.547-1.6-0.547c-0.66,0-1.237,0.172-1.733,0.515
		c-0.494,0.343-0.88,0.821-1.154,1.435C839.111,402.082,838.974,402.749,838.974,403.469z"/>
	<path d="M857.572,397.934c0.584,0,1.092,0.059,1.523,0.178l-0.457,1.904c-0.449-0.11-0.893-0.166-1.333-0.166
		c-0.771,0-1.491,0.254-2.165,0.762c-0.672,0.508-1.261,1.213-1.764,2.114c-0.504,0.901-0.875,1.902-1.111,3.003l-1.358,6.373
		h-2.133l2.971-13.914h1.765l-0.279,2.576h0.127c0.609-0.804,1.113-1.381,1.511-1.732s0.814-0.622,1.251-0.812
		C856.555,398.028,857.039,397.934,857.572,397.934z"/>
	<path d="M864.567,412.355c-1.558,0-2.78-0.462-3.669-1.385c-0.889-0.922-1.333-2.2-1.333-3.834c0-1.591,0.315-3.116,0.946-4.576
		c0.63-1.46,1.466-2.596,2.507-3.408s2.188-1.219,3.44-1.219c1.295,0,2.268,0.281,2.92,0.844s0.978,1.348,0.978,2.355
		c0,1.523-0.702,2.719-2.107,3.586s-3.415,1.301-6.03,1.301H861.8l-0.051,1.016c0,1.109,0.261,1.975,0.78,2.597
		c0.521,0.622,1.327,0.933,2.419,0.933c0.533,0,1.081-0.076,1.644-0.229c0.563-0.152,1.264-0.432,2.102-0.838v1.854
		c-0.795,0.373-1.498,0.633-2.107,0.781S865.304,412.355,864.567,412.355z M866.332,399.748c-0.871,0-1.69,0.398-2.457,1.193
		c-0.766,0.796-1.352,1.9-1.758,3.314h0.152c1.93,0,3.408-0.252,4.438-0.756c1.027-0.504,1.542-1.233,1.542-2.189
		c0-0.449-0.154-0.821-0.464-1.117C867.477,399.896,866.992,399.748,866.332,399.748z"/>
	<path d="M880.475,408.152c0,1.32-0.468,2.352-1.402,3.092c-0.936,0.74-2.254,1.111-3.955,1.111c-1.43,0-2.721-0.293-3.872-0.877
		v-2.006c0.593,0.355,1.231,0.631,1.917,0.826c0.686,0.194,1.32,0.291,1.904,0.291c1.066,0,1.871-0.211,2.412-0.635
		c0.541-0.423,0.812-0.965,0.812-1.625c0-0.482-0.148-0.889-0.444-1.219s-0.935-0.782-1.917-1.357
		c-1.1-0.618-1.879-1.224-2.336-1.816c-0.457-0.592-0.686-1.295-0.686-2.107c0-1.168,0.428-2.109,1.282-2.824
		s1.98-1.072,3.377-1.072c1.447,0,2.844,0.312,4.189,0.939l-0.686,1.738l-0.711-0.316c-0.854-0.364-1.786-0.547-2.793-0.547
		c-0.787,0-1.405,0.185-1.854,0.553s-0.673,0.844-0.673,1.428c0,0.475,0.15,0.881,0.451,1.219c0.3,0.339,0.92,0.775,1.859,1.309
		c0.906,0.508,1.555,0.943,1.949,1.307c0.393,0.364,0.688,0.756,0.882,1.175S880.475,407.628,880.475,408.152z"/>
	<path d="M891.608,408.152c0,1.32-0.468,2.352-1.403,3.092c-0.935,0.74-2.253,1.111-3.954,1.111c-1.431,0-2.722-0.293-3.872-0.877
		v-2.006c0.592,0.355,1.231,0.631,1.917,0.826c0.686,0.194,1.32,0.291,1.904,0.291c1.066,0,1.87-0.211,2.412-0.635
		c0.542-0.423,0.812-0.965,0.812-1.625c0-0.482-0.147-0.889-0.444-1.219s-0.936-0.782-1.917-1.357
		c-1.101-0.618-1.879-1.224-2.336-1.816c-0.457-0.592-0.686-1.295-0.686-2.107c0-1.168,0.427-2.109,1.282-2.824
		s1.98-1.072,3.377-1.072c1.447,0,2.844,0.312,4.189,0.939l-0.686,1.738l-0.711-0.316c-0.855-0.364-1.785-0.547-2.793-0.547
		c-0.787,0-1.404,0.185-1.854,0.553s-0.673,0.844-0.673,1.428c0,0.475,0.15,0.881,0.45,1.219c0.301,0.339,0.921,0.775,1.86,1.309
		c0.905,0.508,1.556,0.943,1.948,1.307c0.395,0.364,0.688,0.756,0.883,1.175S891.608,407.628,891.608,408.152z"/>
</g>
<g>
	<rect x="1021.98" y="168.352" fill="none" width="178.492" height="55.498"/>
	<path d="M1095.521,182.958c0,1.676-0.604,2.996-1.81,3.961s-2.884,1.447-5.034,1.447c-1.98,0-3.732-0.373-5.256-1.117v-3.656
		c1.253,0.559,2.312,0.952,3.181,1.181s1.661,0.343,2.38,0.343c0.863,0,1.525-0.165,1.987-0.495s0.692-0.821,0.692-1.473
		c0-0.364-0.102-0.688-0.305-0.971s-0.502-0.557-0.896-0.819s-1.195-0.681-2.405-1.257c-1.135-0.533-1.985-1.045-2.553-1.536
		c-0.566-0.491-1.02-1.062-1.357-1.714c-0.339-0.652-0.508-1.414-0.508-2.285c0-1.642,0.557-2.933,1.669-3.872
		s2.651-1.409,4.614-1.409c0.965,0,1.886,0.114,2.762,0.343s1.792,0.55,2.748,0.965l-1.27,3.06c-0.99-0.406-1.809-0.69-2.456-0.851
		s-1.284-0.241-1.911-0.241c-0.744,0-1.315,0.173-1.713,0.521c-0.398,0.347-0.598,0.8-0.598,1.358c0,0.347,0.081,0.649,0.242,0.908
		c0.16,0.258,0.416,0.508,0.768,0.749s1.183,0.675,2.494,1.301c1.735,0.83,2.925,1.661,3.568,2.495
		C1095.199,180.725,1095.521,181.747,1095.521,182.958z"/>
	<path d="M1105.004,188.366c-2.285,0-4.07-0.63-5.357-1.892c-1.286-1.261-1.93-3.047-1.93-5.357c0-2.378,0.596-4.217,1.784-5.516
		s2.833-1.949,4.933-1.949c2.006,0,3.566,0.571,4.684,1.714s1.676,2.721,1.676,4.735v1.879h-9.152
		c0.042,1.1,0.367,1.959,0.977,2.577s1.465,0.927,2.564,0.927c0.855,0,1.664-0.089,2.426-0.267s1.557-0.461,2.387-0.851v2.996
		c-0.678,0.338-1.401,0.59-2.172,0.755C1107.053,188.283,1106.113,188.366,1105.004,188.366z M1104.459,176.407
		c-0.821,0-1.465,0.26-1.93,0.781c-0.466,0.521-0.732,1.259-0.801,2.215h5.434c-0.017-0.957-0.266-1.695-0.748-2.215
		S1105.279,176.407,1104.459,176.407z"/>
	<path d="M1123.844,183.897c0,1.456-0.506,2.564-1.517,3.326s-2.524,1.143-4.538,1.143c-1.033,0-1.913-0.07-2.641-0.209
		c-0.729-0.14-1.41-0.345-2.045-0.616v-3.199c0.72,0.338,1.53,0.622,2.432,0.851s1.695,0.343,2.381,0.343
		c1.404,0,2.107-0.406,2.107-1.219c0-0.305-0.094-0.552-0.279-0.743c-0.187-0.19-0.508-0.406-0.965-0.647s-1.066-0.522-1.828-0.844
		c-1.092-0.457-1.895-0.88-2.406-1.27s-0.885-0.836-1.117-1.339s-0.35-1.124-0.35-1.86c0-1.261,0.489-2.236,1.467-2.926
		s2.363-1.035,4.158-1.035c1.709,0,3.372,0.373,4.988,1.117l-1.168,2.793c-0.711-0.305-1.375-0.554-1.992-0.749
		c-0.618-0.195-1.249-0.292-1.893-0.292c-1.143,0-1.713,0.309-1.713,0.927c0,0.347,0.184,0.647,0.552,0.901s1.175,0.63,2.419,1.13
		c1.108,0.449,1.921,0.868,2.438,1.257c0.516,0.389,0.896,0.838,1.143,1.346C1123.722,182.589,1123.844,183.194,1123.844,183.897z"
		/>
	<path d="M1136.768,183.897c0,1.456-0.506,2.564-1.517,3.326s-2.524,1.143-4.538,1.143c-1.033,0-1.913-0.07-2.641-0.209
		c-0.729-0.14-1.41-0.345-2.045-0.616v-3.199c0.72,0.338,1.53,0.622,2.432,0.851s1.695,0.343,2.381,0.343
		c1.404,0,2.107-0.406,2.107-1.219c0-0.305-0.094-0.552-0.279-0.743c-0.187-0.19-0.508-0.406-0.965-0.647s-1.066-0.522-1.828-0.844
		c-1.092-0.457-1.895-0.88-2.406-1.27s-0.885-0.836-1.117-1.339s-0.35-1.124-0.35-1.86c0-1.261,0.489-2.236,1.467-2.926
		s2.363-1.035,4.158-1.035c1.709,0,3.372,0.373,4.988,1.117l-1.168,2.793c-0.711-0.305-1.375-0.554-1.992-0.749
		c-0.618-0.195-1.249-0.292-1.893-0.292c-1.143,0-1.713,0.309-1.713,0.927c0,0.347,0.184,0.647,0.552,0.901s1.175,0.63,2.419,1.13
		c1.108,0.449,1.921,0.868,2.438,1.257c0.516,0.389,0.896,0.838,1.143,1.346C1136.646,182.589,1136.768,183.194,1136.768,183.897z"
		/>
	<path d="M1139.625,170.25c0-1.261,0.702-1.892,2.107-1.892c1.404,0,2.107,0.63,2.107,1.892c0,0.601-0.176,1.068-0.527,1.403
		s-0.878,0.501-1.58,0.501C1140.327,172.154,1139.625,171.519,1139.625,170.25z M1143.662,188.112h-3.873v-14.193h3.873V188.112z"/>
	<path d="M1160.623,180.99c0,2.311-0.609,4.118-1.828,5.421s-2.916,1.955-5.092,1.955c-1.362,0-2.564-0.298-3.605-0.895
		s-1.84-1.454-2.398-2.571s-0.838-2.42-0.838-3.91c0-2.319,0.604-4.122,1.814-5.408c1.211-1.287,2.912-1.93,5.104-1.93
		c1.363,0,2.564,0.296,3.605,0.889s1.842,1.443,2.4,2.552S1160.623,179.5,1160.623,180.99z M1150.809,180.99
		c0,1.405,0.23,2.467,0.692,3.187s1.212,1.079,2.253,1.079c1.033,0,1.775-0.357,2.229-1.073s0.68-1.779,0.68-3.193
		c0-1.405-0.229-2.458-0.686-3.161s-1.207-1.054-2.248-1.054c-1.032,0-1.777,0.349-2.234,1.047S1150.809,179.576,1150.809,180.99z"
		/>
	<path d="M1176.924,188.112h-3.873v-8.29c0-1.024-0.182-1.792-0.545-2.304c-0.364-0.512-0.944-0.768-1.74-0.768
		c-1.083,0-1.865,0.362-2.348,1.085s-0.725,1.923-0.725,3.599v6.678h-3.871v-14.193h2.957l0.521,1.815h0.215
		c0.432-0.686,1.027-1.204,1.784-1.555s1.618-0.527,2.583-0.527c1.65,0,2.903,0.446,3.758,1.339
		c0.855,0.893,1.283,2.182,1.283,3.866V188.112z"/>
	<path d="M1193.072,169.31c1.777,0,3.209,0.404,4.297,1.212s1.631,1.898,1.631,3.269c0,0.948-0.262,1.792-0.787,2.533
		c-0.524,0.741-1.371,1.403-2.539,1.987c1.389,0.745,2.385,1.521,2.99,2.33s0.908,1.695,0.908,2.66c0,1.523-0.598,2.749-1.791,3.675
		s-2.763,1.39-4.709,1.39c-2.031,0-3.627-0.432-4.787-1.295c-1.159-0.863-1.738-2.086-1.738-3.669c0-1.058,0.281-1.998,0.844-2.818
		s1.467-1.544,2.711-2.171c-1.059-0.668-1.82-1.384-2.285-2.146c-0.466-0.762-0.699-1.595-0.699-2.501
		c0-1.329,0.551-2.404,1.65-3.225C1189.868,169.721,1191.303,169.31,1193.072,169.31z M1190.178,183.173
		c0,0.728,0.254,1.295,0.762,1.701s1.201,0.609,2.082,0.609c0.973,0,1.701-0.209,2.184-0.628s0.723-0.971,0.723-1.657
		c0-0.567-0.238-1.098-0.717-1.593s-1.255-1.022-2.33-1.581C1191.078,180.854,1190.178,181.904,1190.178,183.173z M1193.047,172.179
		c-0.669,0-1.209,0.171-1.619,0.514s-0.615,0.802-0.615,1.377c0,0.508,0.162,0.963,0.488,1.365s0.916,0.814,1.771,1.238
		c0.829-0.389,1.408-0.787,1.738-1.193s0.496-0.876,0.496-1.409c0-0.584-0.212-1.045-0.635-1.384
		C1194.248,172.349,1193.707,172.179,1193.047,172.179z"/>
</g>
<g>
	<rect x="117.527" y="392.342" fill="none" width="180.741" height="79.495"/>
	<path d="M139.768,393.541h5.776c2.632,0,4.543,0.375,5.732,1.123c1.189,0.75,1.784,1.941,1.784,3.574
		c0,1.109-0.26,2.019-0.781,2.729s-1.212,1.138-2.076,1.282v0.127c1.176,0.262,2.025,0.754,2.545,1.473s0.781,1.676,0.781,2.869
		c0,1.693-0.611,3.014-1.834,3.961s-2.884,1.422-4.983,1.422h-6.944V393.541z M143.703,400.892h2.285
		c1.066,0,1.839-0.165,2.317-0.495s0.717-0.876,0.717-1.638c0-0.711-0.26-1.221-0.781-1.53c-0.521-0.309-1.344-0.463-2.469-0.463
		h-2.069V400.892z M143.703,404.015v4.837h2.564c1.083,0,1.883-0.207,2.399-0.622s0.774-1.05,0.774-1.904
		c0-1.54-1.1-2.311-3.301-2.311H143.703z"/>
	<path d="M172.242,412.102h-4.494l-4.316-7.021l-4.316,7.021H154.9l6.157-9.572l-5.764-8.988h4.342l3.999,6.678l3.923-6.678h4.24
		l-5.827,9.204L172.242,412.102z"/>
	<path d="M192.021,412.102h-10.689v-18.561h10.689v3.225h-6.754v4.075h6.284v3.225h-6.284v4.786h6.754V412.102z"/>
	<path d="M198.496,404.853l-4.57-6.944h4.393l2.755,4.52l2.78-4.52h4.393l-4.621,6.944l4.837,7.249h-4.405l-2.983-4.862
		l-2.996,4.862h-4.393L198.496,404.853z"/>
	<path d="M217.044,412.355c-2.285,0-4.071-0.631-5.357-1.892s-1.93-3.047-1.93-5.357c0-2.378,0.595-4.217,1.784-5.517
		c1.189-1.299,2.833-1.948,4.932-1.948c2.006,0,3.567,0.571,4.685,1.714s1.676,2.721,1.676,4.735v1.879h-9.153
		c0.042,1.101,0.368,1.96,0.978,2.577s1.464,0.927,2.564,0.927c0.855,0,1.663-0.089,2.425-0.267s1.557-0.461,2.387-0.851v2.996
		c-0.677,0.339-1.401,0.591-2.171,0.755C219.092,412.273,218.153,412.355,217.044,412.355z M216.498,400.396
		c-0.821,0-1.464,0.26-1.93,0.781c-0.465,0.52-0.732,1.258-0.8,2.215h5.434c-0.017-0.957-0.267-1.695-0.749-2.215
		C217.971,400.656,217.319,400.396,216.498,400.396z"/>
	<path d="M233.903,397.642c0.525,0,0.96,0.038,1.308,0.114l-0.292,3.631c-0.313-0.084-0.694-0.127-1.143-0.127
		c-1.236,0-2.198,0.317-2.888,0.952s-1.035,1.523-1.035,2.666v7.224h-3.872v-14.193h2.933l0.571,2.387h0.19
		c0.44-0.795,1.035-1.437,1.784-1.924C232.208,397.885,233.023,397.642,233.903,397.642z"/>
	<path d="M243.552,412.355c-4.418,0-6.627-2.425-6.627-7.274c0-2.412,0.601-4.255,1.803-5.528c1.202-1.274,2.924-1.911,5.167-1.911
		c1.642,0,3.115,0.321,4.418,0.965l-1.143,2.996c-0.609-0.245-1.176-0.446-1.701-0.603c-0.525-0.157-1.049-0.235-1.574-0.235
		c-2.014,0-3.021,1.431-3.021,4.291c0,2.776,1.007,4.164,3.021,4.164c0.745,0,1.435-0.1,2.069-0.298
		c0.635-0.199,1.27-0.51,1.904-0.934v3.313c-0.626,0.397-1.259,0.673-1.898,0.825S244.525,412.355,243.552,412.355z"/>
	<path d="M250.991,394.239c0-1.261,0.703-1.892,2.107-1.892s2.107,0.631,2.107,1.892c0,0.601-0.176,1.068-0.527,1.403
		c-0.351,0.334-0.878,0.501-1.581,0.501C251.694,396.144,250.991,395.509,250.991,394.239z M255.028,412.102h-3.872v-14.193h3.872
		V412.102z"/>
	<path d="M268.993,407.887c0,1.455-0.506,2.564-1.517,3.326s-2.524,1.143-4.539,1.143c-1.033,0-1.913-0.07-2.641-0.209
		c-0.728-0.141-1.409-0.346-2.044-0.616v-3.199c0.719,0.339,1.53,0.622,2.431,0.851s1.695,0.343,2.38,0.343
		c1.405,0,2.107-0.406,2.107-1.219c0-0.305-0.093-0.552-0.279-0.743c-0.186-0.189-0.508-0.406-0.965-0.646
		c-0.457-0.242-1.066-0.523-1.828-0.845c-1.092-0.457-1.894-0.88-2.406-1.27s-0.884-0.836-1.117-1.339
		c-0.233-0.504-0.349-1.124-0.349-1.86c0-1.261,0.489-2.236,1.466-2.927c0.978-0.689,2.363-1.034,4.158-1.034
		c1.709,0,3.373,0.372,4.989,1.117l-1.168,2.793c-0.711-0.305-1.375-0.554-1.993-0.749s-1.249-0.292-1.892-0.292
		c-1.143,0-1.714,0.31-1.714,0.927c0,0.348,0.184,0.647,0.552,0.901s1.174,0.63,2.418,1.13c1.109,0.449,1.921,0.867,2.438,1.257
		s0.897,0.838,1.143,1.346S268.993,407.184,268.993,407.887z"/>
	<path d="M278.438,412.355c-2.285,0-4.071-0.631-5.357-1.892s-1.93-3.047-1.93-5.357c0-2.378,0.595-4.217,1.784-5.517
		c1.189-1.299,2.833-1.948,4.932-1.948c2.006,0,3.567,0.571,4.685,1.714s1.676,2.721,1.676,4.735v1.879h-9.153
		c0.042,1.101,0.368,1.96,0.978,2.577s1.464,0.927,2.564,0.927c0.855,0,1.663-0.089,2.425-0.267s1.557-0.461,2.387-0.851v2.996
		c-0.677,0.339-1.401,0.591-2.171,0.755C280.487,412.273,279.547,412.355,278.438,412.355z M277.893,400.396
		c-0.821,0-1.464,0.26-1.93,0.781c-0.465,0.52-0.732,1.258-0.8,2.215h5.434c-0.017-0.957-0.267-1.695-0.749-2.215
		C279.365,400.656,278.713,400.396,277.893,400.396z"/>
	<path d="M297.278,407.887c0,1.455-0.506,2.564-1.517,3.326s-2.524,1.143-4.539,1.143c-1.033,0-1.913-0.07-2.641-0.209
		c-0.728-0.141-1.409-0.346-2.044-0.616v-3.199c0.719,0.339,1.53,0.622,2.431,0.851s1.695,0.343,2.38,0.343
		c1.405,0,2.107-0.406,2.107-1.219c0-0.305-0.093-0.552-0.279-0.743c-0.186-0.189-0.508-0.406-0.965-0.646
		c-0.457-0.242-1.066-0.523-1.828-0.845c-1.092-0.457-1.894-0.88-2.406-1.27s-0.884-0.836-1.117-1.339
		c-0.233-0.504-0.349-1.124-0.349-1.86c0-1.261,0.489-2.236,1.466-2.927c0.978-0.689,2.363-1.034,4.158-1.034
		c1.709,0,3.373,0.372,4.989,1.117l-1.168,2.793c-0.711-0.305-1.375-0.554-1.993-0.749s-1.249-0.292-1.892-0.292
		c-1.143,0-1.714,0.31-1.714,0.927c0,0.348,0.184,0.647,0.552,0.901s1.174,0.63,2.418,1.13c1.109,0.449,1.921,0.867,2.438,1.257
		s0.897,0.838,1.143,1.346S297.278,407.184,297.278,407.887z"/>
</g>
<g>
	<rect x="117.527" y="512.837" fill="none" width="180.741" height="79.494"/>
	<path d="M167.393,517.045c-1.481,0-2.628,0.557-3.44,1.669s-1.219,2.664-1.219,4.653c0,4.139,1.553,6.207,4.659,6.207
		c1.303,0,2.882-0.325,4.735-0.977v3.301c-1.523,0.635-3.225,0.951-5.104,0.951c-2.7,0-4.765-0.818-6.195-2.456
		s-2.146-3.988-2.146-7.052c0-1.93,0.351-3.621,1.054-5.072s1.712-2.564,3.028-3.339s2.858-1.161,4.627-1.161
		c1.803,0,3.614,0.436,5.434,1.307l-1.27,3.199c-0.694-0.33-1.392-0.617-2.095-0.863
		C168.759,517.167,168.07,517.045,167.393,517.045z"/>
	<path d="M179.771,524.826h-4.913v-2.779h4.913v-4.951h2.78v4.951h4.913v2.779h-4.913v4.889h-2.78V524.826z"/>
	<path d="M194.611,524.826h-4.913v-2.779h4.913v-4.951h2.78v4.951h4.913v2.779h-4.913v4.889h-2.78V524.826z"/>
	<path d="M223.468,527.441c0,1.676-0.603,2.996-1.809,3.961s-2.884,1.447-5.034,1.447c-1.98,0-3.732-0.372-5.256-1.117v-3.656
		c1.252,0.559,2.312,0.953,3.18,1.182s1.661,0.342,2.38,0.342c0.863,0,1.525-0.164,1.987-0.494s0.692-0.821,0.692-1.473
		c0-0.364-0.102-0.688-0.305-0.972s-0.501-0.557-0.895-0.819c-0.394-0.262-1.195-0.681-2.406-1.256
		c-1.134-0.533-1.985-1.046-2.552-1.537c-0.567-0.49-1.02-1.062-1.358-1.713c-0.338-0.652-0.508-1.414-0.508-2.285
		c0-1.643,0.557-2.934,1.669-3.873s2.651-1.408,4.615-1.408c0.965,0,1.885,0.113,2.761,0.342s1.792,0.551,2.749,0.965l-1.27,3.061
		c-0.99-0.406-1.809-0.69-2.457-0.852c-0.647-0.16-1.284-0.24-1.911-0.24c-0.745,0-1.316,0.173-1.714,0.52
		c-0.398,0.348-0.597,0.801-0.597,1.359c0,0.347,0.081,0.648,0.241,0.907s0.417,0.508,0.768,0.749s1.183,0.675,2.495,1.301
		c1.735,0.83,2.924,1.662,3.567,2.495S223.468,526.231,223.468,527.441z"/>
	<path d="M232.291,532.85c-4.418,0-6.627-2.424-6.627-7.273c0-2.412,0.601-4.256,1.803-5.529s2.924-1.91,5.167-1.91
		c1.642,0,3.115,0.321,4.418,0.965l-1.143,2.996c-0.609-0.246-1.176-0.447-1.701-0.604s-1.049-0.234-1.574-0.234
		c-2.014,0-3.021,1.43-3.021,4.291c0,2.775,1.007,4.164,3.021,4.164c0.745,0,1.435-0.1,2.069-0.299s1.27-0.51,1.904-0.934v3.314
		c-0.626,0.397-1.259,0.672-1.898,0.824S233.264,532.85,232.291,532.85z"/>
	<path d="M247.817,518.137c0.525,0,0.96,0.037,1.308,0.113l-0.292,3.631c-0.313-0.084-0.694-0.127-1.143-0.127
		c-1.236,0-2.198,0.318-2.888,0.953s-1.035,1.523-1.035,2.666v7.223h-3.872v-14.193h2.933l0.571,2.387h0.19
		c0.44-0.795,1.035-1.436,1.784-1.923S246.937,518.137,247.817,518.137z"/>
	<path d="M251.537,514.734c0-1.262,0.703-1.893,2.107-1.893s2.107,0.631,2.107,1.893c0,0.601-0.176,1.068-0.527,1.402
		s-0.878,0.502-1.581,0.502C252.24,516.639,251.537,516.004,251.537,514.734z M255.574,532.596h-3.872v-14.193h3.872V532.596z"/>
	<path d="M267.432,532.85c-1.667,0-2.975-0.604-3.923-1.814h-0.203c0.135,1.185,0.203,1.87,0.203,2.057v5.75h-3.872v-20.439h3.148
		l0.546,1.842h0.178c0.906-1.405,2.247-2.107,4.024-2.107c1.676,0,2.988,0.646,3.936,1.941s1.422,3.094,1.422,5.396
		c0,1.515-0.222,2.83-0.667,3.947s-1.077,1.969-1.898,2.553S268.541,532.85,267.432,532.85z M266.289,521.234
		c-0.957,0-1.655,0.293-2.095,0.882s-0.668,1.56-0.686,2.913v0.42c0,1.523,0.227,2.615,0.679,3.275s1.17,0.99,2.152,0.99
		c1.735,0,2.603-1.431,2.603-4.291c0-1.396-0.214-2.444-0.641-3.143S267.203,521.234,266.289,521.234z"/>
	<path d="M282.069,529.766c0.677,0,1.49-0.148,2.438-0.445v2.883c-0.965,0.432-2.15,0.646-3.555,0.646
		c-1.549,0-2.677-0.391-3.383-1.174s-1.06-1.957-1.06-3.523v-6.842h-1.854v-1.639l2.133-1.295l1.117-2.996h2.476v3.021h3.974v2.908
		h-3.974v6.842c0,0.551,0.154,0.957,0.463,1.219C281.153,529.634,281.562,529.766,282.069,529.766z"/>
	<path d="M297.278,528.381c0,1.456-0.506,2.564-1.517,3.326s-2.524,1.143-4.539,1.143c-1.033,0-1.913-0.069-2.641-0.209
		s-1.409-0.345-2.044-0.615v-3.199c0.719,0.338,1.53,0.621,2.431,0.85s1.695,0.344,2.38,0.344c1.405,0,2.107-0.406,2.107-1.219
		c0-0.305-0.093-0.553-0.279-0.743s-0.508-0.406-0.965-0.647s-1.066-0.522-1.828-0.844c-1.092-0.457-1.894-0.881-2.406-1.27
		c-0.512-0.39-0.884-0.836-1.117-1.34s-0.349-1.123-0.349-1.859c0-1.262,0.489-2.236,1.466-2.927s2.363-1.034,4.158-1.034
		c1.709,0,3.373,0.372,4.989,1.117l-1.168,2.793c-0.711-0.305-1.375-0.555-1.993-0.75c-0.618-0.194-1.249-0.291-1.892-0.291
		c-1.143,0-1.714,0.309-1.714,0.926c0,0.348,0.184,0.648,0.552,0.902s1.174,0.63,2.418,1.129c1.109,0.449,1.921,0.868,2.438,1.258
		c0.516,0.389,0.897,0.838,1.143,1.346S297.278,527.679,297.278,528.381z"/>
</g>
<g>
	<rect x="117.527" y="633.331" fill="none" width="180.741" height="79.494"/>
	<path d="M150.381,637.539c-1.481,0-2.628,0.557-3.44,1.669s-1.219,2.664-1.219,4.653c0,4.139,1.553,6.207,4.659,6.207
		c1.303,0,2.882-0.325,4.735-0.977v3.301c-1.523,0.635-3.225,0.951-5.104,0.951c-2.7,0-4.765-0.818-6.195-2.456
		s-2.146-3.988-2.146-7.052c0-1.93,0.351-3.621,1.054-5.072s1.712-2.564,3.028-3.339s2.858-1.161,4.627-1.161
		c1.803,0,3.614,0.436,5.434,1.307l-1.27,3.199c-0.694-0.33-1.392-0.617-2.095-0.863
		C151.748,637.661,151.058,637.539,150.381,637.539z"/>
	<path d="M162.759,645.32h-4.913v-2.779h4.913v-4.951h2.78v4.951h4.913v2.779h-4.913v4.889h-2.78V645.32z"/>
	<path d="M177.6,645.32h-4.913v-2.779h4.913v-4.951h2.78v4.951h4.913v2.779h-4.913v4.889h-2.78V645.32z"/>
	<path d="M208.322,640.318c0,1.998-0.624,3.525-1.873,4.584c-1.249,1.058-3.023,1.586-5.326,1.586h-1.688v6.602H195.5v-18.561h5.929
		c2.251,0,3.963,0.484,5.135,1.454S208.322,638.397,208.322,640.318z M199.436,643.264h1.295c1.21,0,2.116-0.238,2.717-0.717
		s0.901-1.174,0.901-2.088c0-0.923-0.252-1.604-0.755-2.045c-0.503-0.439-1.293-0.66-2.368-0.66h-1.79V643.264z"/>
	<path d="M219.443,638.631c0.525,0,0.96,0.037,1.308,0.113l-0.292,3.631c-0.313-0.084-0.694-0.127-1.143-0.127
		c-1.236,0-2.198,0.318-2.888,0.953s-1.035,1.523-1.035,2.666v7.223h-3.872v-14.193h2.933l0.571,2.387h0.19
		c0.44-0.795,1.035-1.436,1.784-1.923S218.563,638.631,219.443,638.631z"/>
	<path d="M236.227,645.969c0,2.311-0.609,4.117-1.828,5.42c-1.219,1.304-2.916,1.955-5.091,1.955c-1.363,0-2.564-0.298-3.605-0.895
		s-1.841-1.453-2.399-2.57s-0.838-2.421-0.838-3.91c0-2.319,0.605-4.122,1.815-5.408c1.21-1.287,2.912-1.93,5.104-1.93
		c1.363,0,2.564,0.296,3.605,0.889c1.041,0.592,1.841,1.442,2.399,2.551C235.947,643.18,236.227,644.479,236.227,645.969z
		 M226.413,645.969c0,1.404,0.23,2.467,0.692,3.186c0.461,0.72,1.212,1.08,2.253,1.08c1.033,0,1.775-0.357,2.228-1.073
		s0.679-1.779,0.679-3.192c0-1.405-0.229-2.459-0.686-3.162c-0.457-0.702-1.206-1.053-2.247-1.053c-1.033,0-1.777,0.349-2.234,1.047
		S226.413,644.555,226.413,645.969z"/>
	<path d="M238.283,659.336c-0.99,0-1.841-0.105-2.552-0.316v-3.047c0.592,0.16,1.198,0.24,1.815,0.24
		c0.652,0,1.128-0.182,1.428-0.545c0.3-0.364,0.451-0.902,0.451-1.613v-15.158h3.872v15.73c0,1.506-0.436,2.668-1.308,3.484
		S239.883,659.336,238.283,659.336z M239.261,635.229c0-1.262,0.703-1.893,2.107-1.893s2.107,0.631,2.107,1.893
		c0,0.601-0.176,1.068-0.527,1.402s-0.878,0.502-1.581,0.502C239.963,637.133,239.261,636.498,239.261,635.229z"/>
	<path d="M253.784,653.344c-2.285,0-4.071-0.63-5.357-1.891c-1.287-1.262-1.93-3.047-1.93-5.357c0-2.379,0.595-4.217,1.784-5.517
		s2.833-1.948,4.932-1.948c2.006,0,3.567,0.57,4.685,1.713s1.676,2.722,1.676,4.736v1.879h-9.153c0.042,1.1,0.368,1.959,0.978,2.576
		c0.609,0.618,1.464,0.928,2.564,0.928c0.855,0,1.663-0.09,2.425-0.268s1.557-0.461,2.387-0.85v2.996
		c-0.677,0.338-1.401,0.59-2.171,0.755S254.893,653.344,253.784,653.344z M253.238,641.385c-0.821,0-1.464,0.261-1.93,0.781
		s-0.732,1.259-0.8,2.215h5.434c-0.017-0.956-0.267-1.694-0.749-2.215S254.059,641.385,253.238,641.385z"/>
	<path d="M268.485,653.344c-4.418,0-6.627-2.424-6.627-7.273c0-2.412,0.601-4.256,1.803-5.529s2.924-1.91,5.167-1.91
		c1.642,0,3.115,0.321,4.418,0.965l-1.143,2.996c-0.609-0.246-1.176-0.447-1.701-0.604s-1.049-0.234-1.574-0.234
		c-2.014,0-3.021,1.43-3.021,4.291c0,2.775,1.007,4.164,3.021,4.164c0.745,0,1.435-0.1,2.069-0.299s1.27-0.51,1.904-0.934v3.314
		c-0.626,0.397-1.259,0.672-1.898,0.824S269.458,653.344,268.485,653.344z"/>
	<path d="M282.069,650.26c0.677,0,1.49-0.148,2.438-0.445v2.883c-0.965,0.432-2.15,0.646-3.555,0.646
		c-1.549,0-2.677-0.391-3.383-1.174s-1.06-1.957-1.06-3.523v-6.842h-1.854v-1.639l2.133-1.295l1.117-2.996h2.476v3.021h3.974v2.908
		h-3.974v6.842c0,0.551,0.154,0.957,0.463,1.219C281.153,650.128,281.562,650.26,282.069,650.26z"/>
	<path d="M297.278,648.875c0,1.456-0.506,2.564-1.517,3.326s-2.524,1.143-4.539,1.143c-1.033,0-1.913-0.069-2.641-0.209
		s-1.409-0.345-2.044-0.615v-3.199c0.719,0.338,1.53,0.621,2.431,0.85s1.695,0.344,2.38,0.344c1.405,0,2.107-0.406,2.107-1.219
		c0-0.305-0.093-0.553-0.279-0.743s-0.508-0.406-0.965-0.647s-1.066-0.522-1.828-0.844c-1.092-0.457-1.894-0.881-2.406-1.27
		c-0.512-0.39-0.884-0.836-1.117-1.34s-0.349-1.123-0.349-1.859c0-1.262,0.489-2.236,1.466-2.927s2.363-1.034,4.158-1.034
		c1.709,0,3.373,0.372,4.989,1.117l-1.168,2.793c-0.711-0.305-1.375-0.555-1.993-0.75c-0.618-0.194-1.249-0.291-1.892-0.291
		c-1.143,0-1.714,0.309-1.714,0.926c0,0.348,0.184,0.648,0.552,0.902s1.174,0.63,2.418,1.129c1.109,0.449,1.921,0.868,2.438,1.258
		c0.516,0.389,0.897,0.838,1.143,1.346S297.278,648.173,297.278,648.875z"/>
</g>
<g>
	<line x1="359.674" y1="212.146" x2="1200.473" y2="212.146"/>
	<g>
		
			<line fill="none" stroke="#000000" stroke-width="2" stroke-miterlimit="10" x1="360.674" y1="212.146" x2="1190.588" y2="212.146"/>
		<g>
			<rect x="359.674" y="205.646" width="2" height="13"/>
		</g>
		<g>
			<polygon points="1200.473,212.146 1186.543,217.838 1189.848,212.146 1186.543,206.456 			"/>
		</g>
	</g>
</g>
<g>
	<line x1="331.176" y1="237.258" x2="331.176" y2="696.325"/>
	<g>
		
			<line fill="none" stroke="#000000" stroke-width="2" stroke-miterlimit="10" x1="331.176" y1="238.258" x2="331.176" y2="686.44"/>
		<g>
			<rect x="324.676" y="237.258" width="13" height="2"/>
		</g>
		<g>
			<polygon points="331.176,696.325 325.484,682.397 331.176,685.702 336.866,682.397 			"/>
		</g>
	</g>
</g>
<rect x="-48.9" y="-442.5" fill="#97B2C3" enable-background="new    " width="98" height="146"/>
<rect x="58.9" y="-442.5" fill="#C9D8E3" enable-background="new    " width="98" height="146"/>
<rect x="166.7" y="-442.5" fill="#DF5526" enable-background="new    " width="98" height="146"/>
<rect x="274.5" y="-442.5" fill="#CDCCCC" enable-background="new    " width="98" height="146"/>
<rect x="-156.7" y="-442.5" fill="#2D4F6F" enable-background="new    " width="98" height="146"/>
<rect x="-264.5" y="-442.5" fill="#010101" enable-background="new    " width="98" height="146"/>
<rect x="-48.9" y="-279.031" fill="none" stroke="#97B2C3" stroke-width="6" stroke-miterlimit="10" enable-background="new    " width="98" height="146"/>
<rect x="58.9" y="-279.031" fill="none" stroke="#C9D8E3" stroke-width="6" stroke-miterlimit="10" enable-background="new    " width="98" height="146"/>
<rect x="166.7" y="-279.031" fill="none" stroke="#DF5526" stroke-width="6" stroke-miterlimit="10" enable-background="new    " width="98" height="146"/>
<rect x="274.5" y="-279.031" fill="none" stroke="#CDCCCC" stroke-width="6" stroke-miterlimit="10" enable-background="new    " width="98" height="146"/>
<rect x="-156.7" y="-279.031" fill="none" stroke="#2D4F6F" stroke-width="6" stroke-miterlimit="10" enable-background="new    " width="98" height="146"/>
<rect x="-264.5" y="-279.031" fill="none" stroke="#010101" stroke-width="6" stroke-miterlimit="10" enable-background="new    " width="98" height="146"/>
<rect x="-48.9" y="-442.5" fill="#97B2C3" enable-background="new    " width="98" height="146"/>
<rect x="58.9" y="-442.5" fill="#C9D8E3" enable-background="new    " width="98" height="146"/>
<rect x="166.7" y="-442.5" fill="#DF5526" enable-background="new    " width="98" height="146"/>
<rect x="274.5" y="-442.5" fill="#CDCCCC" enable-background="new    " width="98" height="146"/>
<rect x="-156.7" y="-442.5" fill="#2D4F6F" enable-background="new    " width="98" height="146"/>
<rect x="-264.5" y="-442.5" fill="#010101" enable-background="new    " width="98" height="146"/>
<rect x="-48.9" y="-279.031" fill="none" stroke="#97B2C3" stroke-width="6" stroke-miterlimit="10" enable-background="new    " width="98" height="146"/>
<rect x="58.9" y="-279.031" fill="none" stroke="#C9D8E3" stroke-width="6" stroke-miterlimit="10" enable-background="new    " width="98" height="146"/>
<rect x="166.7" y="-279.031" fill="none" stroke="#DF5526" stroke-width="6" stroke-miterlimit="10" enable-background="new    " width="98" height="146"/>
<rect x="274.5" y="-279.031" fill="none" stroke="#CDCCCC" stroke-width="6" stroke-miterlimit="10" enable-background="new    " width="98" height="146"/>
<rect x="-156.7" y="-279.031" fill="none" stroke="#2D4F6F" stroke-width="6" stroke-miterlimit="10" enable-background="new    " width="98" height="146"/>
<rect x="-264.5" y="-279.031" fill="none" stroke="#010101" stroke-width="6" stroke-miterlimit="10" enable-background="new    " width="98" height="146"/>
<g>
</g>
<g>
</g>
<g>
</g>
<g>
</g>
<g>
</g>
<g>
</g>
<g>
</g>
<g>
</g>
</svg>
