<?xml version="1.0" encoding="utf-8"?>
<!-- Generator: Adobe Illustrator 16.0.4, SVG Export Plug-In . SVG Version: 6.00 Build 0)  -->
<!DOCTYPE svg PUBLIC "-//W3C//DTD SVG 1.1//EN" "http://www.w3.org/Graphics/SVG/1.1/DTD/svg11.dtd">
<svg version="1.1" id="Journaling" xmlns="http://www.w3.org/2000/svg" xmlns:xlink="http://www.w3.org/1999/xlink" x="0px" y="0px"
	 width="1366px" height="768px" viewBox="0 0 1366 768" enable-background="new 0 0 1366 768" xml:space="preserve">
<rect x="0" fill="#FFFFFF" width="1366" height="768"/>
<polyline opacity="0.44" fill="#C8D7E3" enable-background="new    " points="81.526,218.013 81.526,543.058 1283.533,543.058 
	1283.534,218.013 "/>
<g enable-background="new    ">
	<path fill="#C8D7E3" d="M1288.166,242.544c0,3.85-3.148,6.986-7,6.969L82.495,244.231c-3.851-0.018-7-3.182-7-7.031l-0.003-41.719
		c0-3.85,3.148-7,7-7h1198.676c3.851,0,7,3.15,7,7v47.063H1288.166z"/>
</g>
<g>
	<rect x="609.592" y="153.8" fill="none" width="145.552" height="26.125"/>
	<path d="M622.016,169l-3.438-11.201h-0.088c0.124,2.278,0.187,3.799,0.187,4.561V169h-2.705v-14.277h4.121l3.379,10.918h0.059
		l3.584-10.918h4.121V169h-2.822v-6.758c0-0.319,0.005-0.687,0.016-1.104c0.01-0.417,0.054-1.523,0.132-3.32h-0.088L624.789,169
		H622.016z"/>
	<path d="M639.535,169.196c-1.758,0-3.131-0.485-4.121-1.455c-0.989-0.97-1.483-2.344-1.483-4.121c0-1.829,0.458-3.244,1.372-4.243
		s2.179-1.499,3.794-1.499c1.543,0,2.744,0.439,3.604,1.318c0.86,0.879,1.289,2.093,1.289,3.643v1.445h-7.041
		c0.033,0.847,0.283,1.507,0.752,1.982c0.47,0.475,1.126,0.713,1.974,0.713c0.658,0,1.278-0.068,1.865-0.205
		c0.586-0.137,1.197-0.354,1.836-0.654v2.305c-0.521,0.261-1.078,0.454-1.67,0.581C641.113,169.133,640.389,169.196,639.535,169.196
		z M639.115,159.997c-0.631,0-1.126,0.2-1.483,0.601c-0.358,0.401-0.563,0.969-0.615,1.704h4.18
		c-0.013-0.735-0.205-1.304-0.576-1.704C640.25,160.198,639.746,159.997,639.115,159.997z"/>
	<path d="M656.186,169h-2.979v-6.377c0-0.788-0.132-1.379-0.396-1.772s-0.679-0.591-1.245-0.591c-0.762,0-1.315,0.28-1.66,0.84
		s-0.518,1.481-0.518,2.764V169h-2.979v-10.918h2.275l0.4,1.396h0.166c0.293-0.501,0.716-0.894,1.27-1.177
		c0.554-0.283,1.188-0.425,1.904-0.425c1.634,0,2.741,0.534,3.319,1.602h0.265c0.293-0.508,0.724-0.901,1.294-1.182
		c0.569-0.281,1.212-0.42,1.929-0.42c1.237,0,2.173,0.317,2.809,0.952c0.635,0.635,0.951,1.652,0.951,3.052V169h-2.987v-6.377
		c0-0.788-0.132-1.379-0.396-1.772c-0.264-0.393-0.679-0.591-1.245-0.591c-0.729,0-1.273,0.261-1.636,0.781s-0.542,1.348-0.542,2.48
		V169H656.186z"/>
	<path d="M675.971,163.522c0,1.777-0.469,3.167-1.406,4.17c-0.937,1.003-2.243,1.504-3.916,1.504c-1.048,0-1.973-0.229-2.773-0.688
		c-0.8-0.459-1.416-1.118-1.846-1.978c-0.43-0.86-0.645-1.862-0.645-3.008c0-1.784,0.465-3.171,1.396-4.16
		c0.931-0.989,2.24-1.484,3.926-1.484c1.049,0,1.974,0.228,2.773,0.684s1.416,1.11,1.846,1.963
		C675.756,161.378,675.971,162.376,675.971,163.522z M668.422,163.522c0,1.081,0.177,1.897,0.531,2.451
		c0.355,0.554,0.934,0.83,1.733,0.83c0.794,0,1.366-0.275,1.714-0.825c0.348-0.55,0.522-1.369,0.522-2.456
		c0-1.081-0.177-1.892-0.527-2.432s-0.928-0.811-1.729-0.811c-0.794,0-1.366,0.269-1.719,0.806
		C668.596,161.622,668.422,162.435,668.422,163.522z"/>
	<path d="M684.525,157.877c0.404,0,0.739,0.029,1.006,0.088l-0.225,2.793c-0.24-0.065-0.533-0.098-0.879-0.098
		c-0.95,0-1.69,0.244-2.222,0.732c-0.53,0.488-0.796,1.172-0.796,2.051V169h-2.979v-10.918h2.256l0.438,1.836h0.146
		c0.338-0.612,0.796-1.105,1.372-1.479S683.849,157.877,684.525,157.877z"/>
	<path d="M685.95,158.083h3.263l2.061,6.143c0.176,0.534,0.297,1.165,0.361,1.895h0.059c0.072-0.671,0.212-1.302,0.42-1.895
		l2.021-6.143h3.192l-4.618,12.314c-0.424,1.14-1.026,1.992-1.812,2.559c-0.785,0.566-1.701,0.85-2.75,0.85
		c-0.514,0-1.019-0.056-1.514-0.166v-2.363c0.357,0.085,0.749,0.127,1.172,0.127c0.526,0,0.988-0.161,1.383-0.483
		c0.394-0.322,0.701-0.809,0.922-1.46l0.176-0.537L685.95,158.083z"/>
	<path d="M712.465,154.723h3.057L710.668,169h-3.302l-4.844-14.277h3.057l2.687,8.496c0.15,0.501,0.305,1.086,0.465,1.753
		c0.159,0.667,0.258,1.131,0.297,1.392c0.072-0.599,0.316-1.647,0.732-3.146L712.465,154.723z"/>
	<path d="M716.956,155.26c0-0.97,0.541-1.455,1.621-1.455c1.081,0,1.621,0.485,1.621,1.455c0,0.462-0.135,0.822-0.403,1.079
		c-0.271,0.257-0.677,0.386-1.218,0.386C717.497,156.725,716.956,156.237,716.956,155.26z M720.062,169h-2.979v-10.918h2.979V169z"
		/>
	<path d="M728.129,169.196c-1.759,0-3.131-0.485-4.121-1.455c-0.989-0.97-1.484-2.344-1.484-4.121c0-1.829,0.458-3.244,1.373-4.243
		c0.914-0.999,2.179-1.499,3.793-1.499c1.543,0,2.744,0.439,3.604,1.318c0.859,0.879,1.289,2.093,1.289,3.643v1.445h-7.041
		c0.032,0.847,0.282,1.507,0.752,1.982c0.469,0.475,1.127,0.713,1.973,0.713c0.658,0,1.279-0.068,1.865-0.205
		s1.198-0.354,1.836-0.654v2.305c-0.521,0.261-1.077,0.454-1.67,0.581C729.704,169.132,728.982,169.196,728.129,169.196z
		 M727.709,159.997c-0.632,0-1.127,0.2-1.484,0.601c-0.357,0.4-0.562,0.969-0.615,1.704h4.18c-0.013-0.735-0.205-1.304-0.575-1.704
		C728.843,160.198,728.341,159.997,727.709,159.997z"/>
	<path d="M743.979,169l-0.84-3.818l-1.133-4.824h-0.068L739.945,169h-3.203l-3.104-10.918h2.969l1.26,4.834
		c0.202,0.866,0.407,2.061,0.615,3.584h0.059c0.026-0.495,0.142-1.279,0.343-2.354l0.155-0.83l1.349-5.234h3.281l1.278,5.234
		c0.026,0.144,0.067,0.354,0.123,0.635c0.055,0.28,0.108,0.578,0.16,0.894c0.053,0.315,0.1,0.625,0.143,0.928
		c0.042,0.303,0.066,0.545,0.072,0.728h0.06c0.059-0.469,0.163-1.111,0.312-1.929c0.15-0.817,0.258-1.369,0.322-1.655l1.309-4.834
		h2.92L747.221,169H743.979z"/>
</g>
<g>
	<rect x="610.225" y="559.966" fill="none" width="145.552" height="26.125"/>
	<path d="M634.24,567.89c0,2.352-0.669,4.15-2.007,5.4s-3.27,1.875-5.796,1.875h-4.043v-14.277h4.482c2.33,0,4.141,0.615,5.43,1.847
		C633.596,563.965,634.24,565.683,634.24,567.89z M631.096,567.968c0-3.065-1.354-4.6-4.062-4.6h-1.61v9.297h1.299
		C629.638,572.665,631.096,571.1,631.096,567.968z"/>
	<path d="M636.838,561.425c0-0.97,0.541-1.455,1.621-1.455c1.079,0,1.62,0.485,1.62,1.455c0,0.462-0.135,0.822-0.404,1.079
		c-0.271,0.257-0.676,0.386-1.217,0.386C637.379,562.89,636.838,562.401,636.838,561.425z M639.944,575.165h-2.979v-10.918h2.979
		V575.165z"/>
	<path d="M650.686,571.923c0,1.12-0.389,1.974-1.167,2.56s-1.942,0.879-3.491,0.879c-0.794,0-1.471-0.055-2.031-0.161
		c-0.56-0.107-1.084-0.267-1.571-0.475v-2.461c0.553,0.262,1.177,0.479,1.87,0.654c0.692,0.175,1.304,0.264,1.83,0.264
		c1.081,0,1.621-0.312,1.621-0.938c0-0.234-0.071-0.425-0.215-0.571c-0.143-0.146-0.391-0.312-0.742-0.498
		c-0.351-0.186-0.819-0.401-1.405-0.648c-0.841-0.353-1.457-0.678-1.852-0.978c-0.394-0.3-0.68-0.643-0.858-1.03
		c-0.18-0.387-0.27-0.863-0.27-1.431c0-0.97,0.376-1.721,1.128-2.251s1.818-0.796,3.198-0.796c1.314,0,2.594,0.286,3.838,0.859
		l-0.898,2.147c-0.547-0.233-1.058-0.427-1.532-0.576c-0.476-0.148-0.96-0.225-1.455-0.225c-0.879,0-1.318,0.237-1.318,0.713
		c0,0.268,0.142,0.498,0.425,0.693c0.283,0.194,0.903,0.484,1.86,0.869c0.853,0.345,1.478,0.667,1.875,0.967
		c0.396,0.3,0.689,0.645,0.879,1.035C650.593,570.915,650.686,571.383,650.686,571.923z"/>
	<path d="M655.871,569.229l1.3-1.66l3.057-3.32h3.359l-4.336,4.736l4.6,6.182h-3.438l-3.145-4.424l-1.279,1.025v3.397h-2.979V559.97
		h2.979v6.777l-0.156,2.479h0.039V569.229z"/>
	<path d="M679.27,571.2c0,1.289-0.464,2.305-1.392,3.047c-0.929,0.742-2.219,1.113-3.872,1.113c-1.523,0-2.871-0.286-4.043-0.859
		v-2.812c0.963,0.43,1.778,0.731,2.445,0.907c0.667,0.177,1.278,0.265,1.831,0.265c0.664,0,1.173-0.127,1.528-0.381
		c0.354-0.255,0.532-0.633,0.532-1.134c0-0.279-0.078-0.528-0.234-0.747c-0.156-0.218-0.386-0.428-0.688-0.63
		c-0.302-0.202-0.919-0.523-1.851-0.967c-0.873-0.41-1.527-0.804-1.963-1.182c-0.437-0.378-0.785-0.817-1.045-1.318
		s-0.392-1.087-0.392-1.758c0-1.263,0.429-2.256,1.284-2.979c0.856-0.723,2.04-1.084,3.55-1.084c0.742,0,1.45,0.088,2.125,0.265
		c0.674,0.176,1.378,0.423,2.113,0.741l-0.977,2.354c-0.762-0.312-1.393-0.53-1.891-0.654s-0.987-0.186-1.47-0.186
		c-0.573,0-1.012,0.134-1.317,0.399c-0.307,0.267-0.459,0.615-0.459,1.046c0,0.267,0.062,0.5,0.186,0.697
		c0.124,0.198,0.321,0.392,0.591,0.576c0.271,0.186,0.91,0.521,1.919,1.001c1.334,0.638,2.25,1.277,2.744,1.919
		C679.02,569.483,679.27,570.27,679.27,571.2z"/>
	<path d="M686.223,572.987c0.521,0,1.146-0.114,1.875-0.343v2.218c-0.742,0.332-1.653,0.498-2.734,0.498
		c-1.19,0-2.059-0.302-2.602-0.903s-0.815-1.506-0.815-2.71v-5.264h-1.426v-1.261l1.641-0.996l0.859-2.305h1.904v2.324h3.057v2.236
		h-3.057v5.264c0,0.423,0.119,0.734,0.356,0.938S685.831,572.987,686.223,572.987z"/>
	<path d="M700.227,569.688c0,1.776-0.469,3.166-1.406,4.17c-0.937,1.003-2.242,1.504-3.916,1.504c-1.048,0-1.973-0.229-2.772-0.688
		c-0.801-0.459-1.416-1.118-1.847-1.978c-0.43-0.86-0.645-1.862-0.645-3.008c0-1.784,0.466-3.172,1.396-4.16
		c0.933-0.989,2.24-1.484,3.927-1.484c1.049,0,1.973,0.229,2.772,0.684c0.8,0.456,1.416,1.11,1.846,1.964
		C700.012,567.543,700.227,568.541,700.227,569.688z M692.678,569.688c0,1.08,0.178,1.896,0.533,2.45
		c0.354,0.555,0.932,0.83,1.731,0.83c0.795,0,1.366-0.274,1.715-0.825c0.349-0.55,0.521-1.368,0.521-2.455
		c0-1.081-0.176-1.893-0.527-2.433c-0.351-0.54-0.928-0.811-1.729-0.811c-0.794,0-1.367,0.269-1.72,0.806
		C692.852,567.787,692.678,568.6,692.678,569.688z"/>
	<path d="M708.781,564.042c0.404,0,0.739,0.029,1.006,0.088l-0.225,2.793c-0.24-0.064-0.533-0.098-0.879-0.098
		c-0.95,0-1.69,0.244-2.221,0.731c-0.531,0.488-0.798,1.172-0.798,2.052v5.557h-2.979v-10.918h2.256l0.439,1.836h0.146
		c0.339-0.612,0.797-1.104,1.373-1.479C707.476,564.23,708.104,564.042,708.781,564.042z"/>
	<path d="M718.702,575.165l-0.575-1.484h-0.078c-0.501,0.632-1.018,1.069-1.547,1.313c-0.531,0.244-1.224,0.366-2.076,0.366
		c-1.048,0-1.873-0.301-2.476-0.898c-0.603-0.599-0.903-1.452-0.903-2.559c0-1.159,0.405-2.015,1.217-2.563
		c0.811-0.549,2.032-0.854,3.666-0.913l1.895-0.059v-0.479c0-1.105-0.565-1.66-1.698-1.66c-0.872,0-1.897,0.265-3.076,0.791
		l-0.986-2.012c1.257-0.657,2.65-0.986,4.18-0.986c1.466,0,2.589,0.319,3.369,0.957c0.781,0.639,1.172,1.608,1.172,2.91v7.275
		L718.702,575.165L718.702,575.165z M717.823,570.106l-1.151,0.038c-0.865,0.026-1.511,0.184-1.935,0.47
		c-0.423,0.286-0.635,0.723-0.635,1.309c0,0.84,0.481,1.26,1.445,1.26c0.689,0,1.241-0.197,1.655-0.596
		c0.413-0.396,0.619-0.925,0.619-1.582L717.823,570.106L717.823,570.106z"/>
	<path d="M733.352,564.247v1.514l-1.709,0.439c0.312,0.487,0.469,1.035,0.469,1.641c0,1.172-0.408,2.085-1.225,2.739
		c-0.817,0.654-1.952,0.98-3.404,0.98l-0.537-0.028l-0.438-0.049c-0.307,0.233-0.459,0.495-0.459,0.78
		c0,0.431,0.547,0.646,1.641,0.646h1.855c1.197,0,2.11,0.257,2.739,0.771c0.628,0.516,0.941,1.271,0.941,2.267
		c0,1.275-0.531,2.266-1.596,2.969c-1.065,0.703-2.595,1.055-4.586,1.055c-1.523,0-2.688-0.266-3.49-0.796
		c-0.806-0.53-1.207-1.273-1.207-2.23c0-0.657,0.205-1.208,0.615-1.65c0.409-0.442,1.013-0.759,1.807-0.947
		c-0.306-0.13-0.572-0.344-0.801-0.64s-0.342-0.61-0.342-0.942c0-0.417,0.12-0.764,0.36-1.04c0.241-0.275,0.59-0.549,1.045-0.814
		c-0.571-0.247-1.025-0.646-1.36-1.191c-0.336-0.547-0.505-1.19-0.505-1.934c0-1.191,0.389-2.112,1.162-2.765
		c0.775-0.65,1.882-0.977,3.32-0.977c0.307,0,0.67,0.027,1.09,0.083s0.688,0.096,0.806,0.122L733.352,564.247L733.352,564.247z
		 M724.924,576.708c0,0.41,0.196,0.732,0.592,0.967c0.394,0.234,0.945,0.353,1.654,0.353c1.067,0,1.903-0.146,2.51-0.439
		c0.605-0.293,0.908-0.693,0.908-1.201c0-0.41-0.18-0.692-0.537-0.85c-0.357-0.156-0.911-0.234-1.66-0.234h-1.543
		c-0.547,0-1.004,0.129-1.371,0.387C725.108,575.944,724.924,576.285,724.924,576.708z M726.008,567.821
		c0,0.593,0.136,1.062,0.405,1.405c0.271,0.346,0.683,0.519,1.234,0.519c0.562,0,0.971-0.173,1.23-0.519
		c0.261-0.345,0.391-0.812,0.391-1.405c0-1.315-0.54-1.974-1.621-1.974C726.555,565.849,726.008,566.506,726.008,567.821z"/>
	<path d="M740.09,575.36c-1.758,0-3.131-0.485-4.121-1.455c-0.989-0.971-1.484-2.345-1.484-4.121c0-1.829,0.458-3.244,1.373-4.243
		c0.914-0.999,2.179-1.499,3.793-1.499c1.543,0,2.744,0.439,3.604,1.318c0.859,0.879,1.289,2.093,1.289,3.643v1.445h-7.041
		c0.032,0.847,0.282,1.507,0.752,1.981c0.469,0.476,1.127,0.713,1.973,0.713c0.658,0,1.279-0.067,1.865-0.205
		c0.586-0.137,1.198-0.354,1.836-0.653v2.305c-0.521,0.261-1.077,0.454-1.67,0.581S740.943,575.36,740.09,575.36z M739.67,566.161
		c-0.632,0-1.126,0.2-1.484,0.601c-0.357,0.4-0.562,0.97-0.615,1.704h4.18c-0.013-0.734-0.204-1.304-0.575-1.704
		C740.804,566.362,740.302,566.161,739.67,566.161z"/>
</g>
<rect x="81.526" y="508.134" fill="#FFFFFF" stroke="#000000" stroke-miterlimit="10" width="10.936" height="34.924"/>
<rect x="99.835" y="508.134" fill="#FFFFFF" stroke="#000000" stroke-miterlimit="10" width="10.935" height="34.924"/>
<rect x="118.144" y="508.134" fill="#FFFFFF" stroke="#000000" stroke-miterlimit="10" width="10.936" height="34.924"/>
<rect x="136.452" y="508.134" fill="#FFFFFF" stroke="#000000" stroke-miterlimit="10" width="10.936" height="34.924"/>
<rect x="154.761" y="508.134" fill="#FFFFFF" stroke="#000000" stroke-miterlimit="10" width="10.936" height="34.924"/>
<rect x="173.069" y="508.134" fill="#FFFFFF" stroke="#000000" stroke-miterlimit="10" width="10.937" height="34.924"/>
<rect x="191.378" y="508.134" fill="#FFFFFF" stroke="#000000" stroke-miterlimit="10" width="10.936" height="34.924"/>
<rect x="209.687" y="508.134" fill="#FFFFFF" stroke="#000000" stroke-miterlimit="10" width="10.937" height="34.924"/>
<rect x="227.995" y="508.134" fill="#FFFFFF" stroke="#000000" stroke-miterlimit="10" width="10.936" height="34.924"/>
<rect x="246.304" y="508.134" fill="#FFFFFF" stroke="#000000" stroke-miterlimit="10" width="10.936" height="34.924"/>
<rect x="264.612" y="508.134" fill="#FFFFFF" stroke="#000000" stroke-miterlimit="10" width="10.937" height="34.924"/>
<rect x="282.921" y="508.134" fill="#FFFFFF" stroke="#000000" stroke-miterlimit="10" width="10.936" height="34.924"/>
<rect x="301.23" y="508.134" fill="#FFFFFF" stroke="#000000" stroke-miterlimit="10" width="10.935" height="34.924"/>
<rect x="319.538" y="508.134" fill="#FFFFFF" stroke="#000000" stroke-miterlimit="10" width="10.936" height="34.924"/>
<rect x="338.526" y="508.134" fill="#FFFFFF" stroke="#000000" stroke-miterlimit="10" width="10.936" height="34.924"/>
<rect x="356.835" y="508.134" fill="#FFFFFF" stroke="#000000" stroke-miterlimit="10" width="10.935" height="34.924"/>
<rect x="375.144" y="508.134" fill="#FFFFFF" stroke="#000000" stroke-miterlimit="10" width="10.935" height="34.924"/>
<rect x="393.451" y="508.134" fill="#FFFFFF" stroke="#000000" stroke-miterlimit="10" width="10.937" height="34.924"/>
<rect x="411.761" y="508.134" fill="#FFFFFF" stroke="#000000" stroke-miterlimit="10" width="10.936" height="34.924"/>
<rect x="430.069" y="508.134" fill="#FFFFFF" stroke="#000000" stroke-miterlimit="10" width="10.937" height="34.924"/>
<rect x="448.378" y="508.134" fill="#FFFFFF" stroke="#000000" stroke-miterlimit="10" width="10.936" height="34.924"/>
<rect x="466.687" y="508.134" fill="#FFFFFF" stroke="#000000" stroke-miterlimit="10" width="10.936" height="34.924"/>
<rect x="484.994" y="508.134" fill="#FFFFFF" stroke="#000000" stroke-miterlimit="10" width="10.937" height="34.924"/>
<rect x="503.304" y="508.134" fill="#FFFFFF" stroke="#000000" stroke-miterlimit="10" width="10.936" height="34.924"/>
<rect x="521.612" y="508.134" fill="#FFFFFF" stroke="#000000" stroke-miterlimit="10" width="10.937" height="34.924"/>
<rect x="539.921" y="508.134" fill="#FFFFFF" stroke="#000000" stroke-miterlimit="10" width="10.936" height="34.924"/>
<rect x="558.23" y="508.134" fill="#FFFFFF" stroke="#000000" stroke-miterlimit="10" width="10.935" height="34.924"/>
<rect x="576.538" y="508.134" fill="#FFFFFF" stroke="#000000" stroke-miterlimit="10" width="10.936" height="34.924"/>
<path d="M351.82,551.124"/>
<polyline opacity="0.33" fill="none" stroke="#000000" stroke-miterlimit="10" enable-background="new    " points="337.788,366.15 
	191.471,233.552 191.471,198.628 "/>
<polyline opacity="0.33" fill="none" stroke="#000000" stroke-miterlimit="10" enable-background="new    " points="447.611,366.15 
	301.293,233.552 301.293,198.628 "/>
<polyline opacity="0.33" fill="none" stroke="#000000" stroke-miterlimit="10" enable-background="new    " points="558.154,366.15 
	411.836,233.552 411.836,198.628 "/>
<polyline fill="none" stroke="#000000" stroke-width="2" stroke-miterlimit="10" points="669.006,367.15 522.688,234.552 
	522.688,199.628 "/>
<g>
	<g>
		<path fill="none" stroke="#E15218" stroke-width="1.5" stroke-miterlimit="10" d="M617.25,371.665l40.027,35.108
			c1.654,1.45,1.208,2.638-0.993,2.638H430.455c-2.199,0-5.347-1.193-6.993-2.652l-32.766-29.031"/>
		<g>
			<polygon fill="#E15218" points="395.484,376.773 391.669,378.588 390.326,382.594 386.006,373.571 			"/>
		</g>
	</g>
</g>
<rect x="594.847" y="508.134" fill="#FFFFFF" stroke="#000000" stroke-miterlimit="10" width="10.935" height="34.924"/>
<rect x="613.155" y="508.134" fill="#FFFFFF" stroke="#000000" stroke-miterlimit="10" width="10.936" height="34.924"/>
<rect x="631.464" y="508.134" fill="#FFFFFF" stroke="#000000" stroke-miterlimit="10" width="10.936" height="34.924"/>
<rect x="649.772" y="508.134" fill="#FFFFFF" stroke="#000000" stroke-miterlimit="10" width="10.936" height="34.924"/>
<rect x="668.08" y="508.134" fill="#FFFFFF" stroke="#000000" stroke-miterlimit="10" width="10.937" height="34.924"/>
<rect x="686.389" y="508.134" fill="#FFFFFF" stroke="#000000" stroke-miterlimit="10" width="10.936" height="34.924"/>
<rect x="704.697" y="508.134" fill="#FFFFFF" stroke="#000000" stroke-miterlimit="10" width="10.937" height="34.924"/>
<rect x="723.006" y="508.134" fill="#FFFFFF" stroke="#000000" stroke-miterlimit="10" width="10.936" height="34.924"/>
<rect x="741.314" y="508.134" fill="#FFFFFF" stroke="#000000" stroke-miterlimit="10" width="10.937" height="34.924"/>
<rect x="759.622" y="508.134" fill="#FFFFFF" stroke="#000000" stroke-miterlimit="10" width="10.937" height="34.924"/>
<rect x="777.932" y="508.134" fill="#FFFFFF" stroke="#000000" stroke-miterlimit="10" width="10.936" height="34.924"/>
<rect x="796.241" y="508.134" fill="#FFFFFF" stroke="#000000" stroke-miterlimit="10" width="10.935" height="34.924"/>
<rect x="814.551" y="508.134" fill="#FFFFFF" stroke="#000000" stroke-miterlimit="10" width="10.934" height="34.924"/>
<rect x="833.193" y="508.134" fill="#FFFFFF" stroke="#000000" stroke-miterlimit="10" width="10.936" height="34.924"/>
<rect x="851.502" y="508.134" fill="#FFFFFF" stroke="#000000" stroke-miterlimit="10" width="10.936" height="34.924"/>
<rect x="869.811" y="508.134" fill="#FFFFFF" stroke="#000000" stroke-miterlimit="10" width="10.936" height="34.924"/>
<rect x="888.118" y="508.134" fill="#FFFFFF" stroke="#000000" stroke-miterlimit="10" width="10.937" height="34.924"/>
<rect x="906.428" y="508.134" fill="#FFFFFF" stroke="#000000" stroke-miterlimit="10" width="10.936" height="34.924"/>
<rect x="924.736" y="508.134" fill="#FFFFFF" stroke="#000000" stroke-miterlimit="10" width="10.937" height="34.924"/>
<rect x="943.045" y="508.134" fill="#FFFFFF" stroke="#000000" stroke-miterlimit="10" width="10.936" height="34.924"/>
<rect x="961.354" y="508.134" fill="#FFFFFF" stroke="#000000" stroke-miterlimit="10" width="10.936" height="34.924"/>
<rect x="979.661" y="508.134" fill="#FFFFFF" stroke="#000000" stroke-miterlimit="10" width="10.937" height="34.924"/>
<rect x="997.971" y="508.134" fill="#FFFFFF" stroke="#000000" stroke-miterlimit="10" width="10.936" height="34.924"/>
<rect x="1016.28" y="508.134" fill="#FFFFFF" stroke="#000000" stroke-miterlimit="10" width="10.936" height="34.924"/>
<rect x="1034.589" y="508.134" fill="#FFFFFF" stroke="#000000" stroke-miterlimit="10" width="10.935" height="34.924"/>
<rect x="1052.896" y="508.134" fill="#FFFFFF" stroke="#000000" stroke-miterlimit="10" width="10.935" height="34.924"/>
<rect x="1071.204" y="508.134" fill="#FFFFFF" stroke="#000000" stroke-miterlimit="10" width="10.936" height="34.924"/>
<rect x="1089.514" y="508.134" fill="#FFFFFF" stroke="#000000" stroke-miterlimit="10" width="10.936" height="34.924"/>
<rect x="1107.822" y="508.134" fill="#FFFFFF" stroke="#000000" stroke-miterlimit="10" width="10.937" height="34.924"/>
<rect x="1126.131" y="508.134" fill="#FFFFFF" stroke="#000000" stroke-miterlimit="10" width="10.936" height="34.924"/>
<rect x="1144.439" y="508.134" fill="#FFFFFF" stroke="#000000" stroke-miterlimit="10" width="10.935" height="34.924"/>
<rect x="1162.746" y="508.134" fill="#FFFFFF" stroke="#000000" stroke-miterlimit="10" width="10.937" height="34.924"/>
<rect x="1181.056" y="508.134" fill="#FFFFFF" stroke="#000000" stroke-miterlimit="10" width="10.936" height="34.924"/>
<rect x="1199.364" y="508.134" fill="#FFFFFF" stroke="#000000" stroke-miterlimit="10" width="10.937" height="34.924"/>
<rect x="1217.673" y="508.134" fill="#FFFFFF" stroke="#000000" stroke-miterlimit="10" width="10.936" height="34.924"/>
<rect x="1235.981" y="508.134" fill="#FFFFFF" stroke="#000000" stroke-miterlimit="10" width="10.936" height="34.924"/>
<rect x="1254.291" y="508.134" fill="#FFFFFF" stroke="#000000" stroke-miterlimit="10" width="10.935" height="34.924"/>
<rect x="1272.601" y="508.134" fill="#FFFFFF" stroke="#000000" stroke-miterlimit="10" width="10.934" height="34.924"/>
<polyline fill="none" stroke="#000000" stroke-width="2" stroke-miterlimit="10" points="227.995,366.15 82.541,234.475 
	82.541,199.551 "/>
<g>
	<g>
		<path d="M163.9,266.492l7.611-8.454l2.189,1.971c0.561,0.506,0.981,1.059,1.265,1.66c0.282,0.602,0.431,1.219,0.445,1.852
			c0.015,0.634-0.104,1.268-0.356,1.902c-0.253,0.635-0.635,1.237-1.147,1.807l-0.627,0.696c-0.512,0.569-1.07,1.011-1.673,1.326
			c-0.602,0.315-1.217,0.502-1.843,0.559c-0.625,0.058-1.247-0.021-1.862-0.231c-0.614-0.21-1.192-0.559-1.729-1.043L163.9,266.492z
			 M171.962,260.842l-5.238,5.817l0.627,0.564c0.305,0.275,0.631,0.464,0.979,0.566c0.346,0.102,0.703,0.117,1.069,0.049
			c0.367-0.07,0.737-0.222,1.11-0.457c0.373-0.235,0.741-0.554,1.104-0.957l0.639-0.708c0.342-0.38,0.608-0.765,0.802-1.153
			c0.193-0.391,0.305-0.775,0.335-1.154c0.029-0.38-0.027-0.746-0.168-1.098c-0.142-0.354-0.379-0.679-0.712-0.979L171.962,260.842z
			"/>
		<path d="M175.053,276.534c0.031-0.112,0.077-0.23,0.141-0.355c0.064-0.126,0.137-0.253,0.219-0.383
			c-0.177,0.016-0.361,0.016-0.554-0.004s-0.389-0.061-0.587-0.125c-0.199-0.062-0.399-0.152-0.604-0.27
			c-0.204-0.116-0.404-0.264-0.602-0.441c-0.32-0.289-0.574-0.602-0.76-0.936c-0.186-0.336-0.3-0.674-0.344-1.014
			c-0.044-0.342-0.017-0.676,0.083-1.004c0.099-0.328,0.271-0.627,0.515-0.897c0.597-0.662,1.303-0.951,2.123-0.869
			s1.719,0.563,2.698,1.446l0.9,0.811l0.334-0.372c0.271-0.302,0.388-0.63,0.349-0.983c-0.039-0.354-0.244-0.698-0.615-1.033
			c-0.329-0.296-0.633-0.441-0.911-0.436c-0.277,0.005-0.522,0.126-0.735,0.361l-1.614-1.453c0.241-0.267,0.527-0.467,0.862-0.602
			c0.334-0.133,0.695-0.189,1.086-0.167c0.39,0.022,0.796,0.127,1.219,0.315s0.846,0.472,1.268,0.852
			c0.379,0.342,0.69,0.706,0.935,1.094c0.244,0.387,0.402,0.779,0.479,1.178c0.076,0.398,0.058,0.797-0.057,1.195
			s-0.334,0.779-0.662,1.144l-2.425,2.694c-0.303,0.336-0.533,0.634-0.689,0.893c-0.156,0.26-0.265,0.505-0.326,0.736l-0.089,0.1
			L175.053,276.534z M174.534,274.017c0.162,0.146,0.332,0.263,0.505,0.35s0.345,0.149,0.513,0.189
			c0.168,0.039,0.329,0.055,0.481,0.049c0.151-0.006,0.288-0.029,0.407-0.068l0.973-1.08l-0.825-0.742
			c-0.251-0.227-0.488-0.396-0.709-0.508s-0.428-0.175-0.618-0.188c-0.191-0.015-0.369,0.016-0.532,0.089
			c-0.165,0.072-0.311,0.182-0.439,0.324c-0.195,0.217-0.281,0.465-0.256,0.746C174.058,273.458,174.224,273.737,174.534,274.017z"
			/>
		<path d="M188.266,274.271l-1.385,1.539l2.346,2.111l-1.072,1.19l-2.346-2.112l-2.431,2.7c-0.206,0.229-0.352,0.442-0.438,0.642
			c-0.085,0.201-0.121,0.39-0.104,0.568c0.015,0.178,0.073,0.348,0.176,0.51c0.102,0.162,0.239,0.32,0.409,0.474
			c0.124,0.112,0.256,0.22,0.396,0.325c0.141,0.105,0.276,0.202,0.411,0.291c0.133,0.089,0.26,0.17,0.38,0.243
			c0.12,0.072,0.227,0.133,0.316,0.18l-0.842,1.25c-0.172-0.035-0.354-0.097-0.549-0.185c-0.194-0.087-0.391-0.192-0.59-0.314
			c-0.198-0.123-0.396-0.258-0.597-0.406s-0.389-0.303-0.566-0.463c-0.345-0.311-0.615-0.637-0.813-0.98
			c-0.199-0.344-0.312-0.701-0.338-1.071c-0.027-0.372,0.039-0.754,0.197-1.146c0.157-0.396,0.423-0.797,0.797-1.211l2.571-2.857
			l-1.434-1.291l1.072-1.19l1.434,1.292l1.385-1.539L188.266,274.271z"/>
		<path d="M189.324,289.384c0.03-0.113,0.077-0.231,0.142-0.355c0.062-0.126,0.136-0.253,0.218-0.383
			c-0.176,0.016-0.36,0.016-0.553-0.004c-0.193-0.02-0.389-0.062-0.587-0.125c-0.199-0.062-0.4-0.152-0.604-0.27
			c-0.204-0.116-0.402-0.264-0.601-0.441c-0.321-0.289-0.575-0.602-0.76-0.937c-0.187-0.335-0.301-0.673-0.345-1.014
			s-0.016-0.675,0.083-1.003c0.1-0.328,0.271-0.627,0.516-0.898c0.596-0.662,1.303-0.951,2.123-0.869
			c0.819,0.082,1.719,0.564,2.697,1.447l0.9,0.81l0.334-0.372c0.271-0.301,0.388-0.629,0.35-0.982
			c-0.038-0.354-0.243-0.698-0.615-1.033c-0.329-0.296-0.632-0.441-0.911-0.436c-0.278,0.006-0.523,0.125-0.736,0.361l-1.614-1.453
			c0.241-0.268,0.528-0.467,0.862-0.602c0.334-0.134,0.696-0.189,1.086-0.167c0.392,0.021,0.796,0.127,1.219,0.315
			c0.424,0.188,0.847,0.472,1.269,0.852c0.379,0.342,0.689,0.705,0.934,1.094c0.244,0.387,0.403,0.779,0.479,1.178
			c0.076,0.398,0.057,0.797-0.058,1.195c-0.112,0.397-0.334,0.779-0.661,1.144l-2.426,2.694c-0.303,0.336-0.532,0.633-0.688,0.893
			c-0.156,0.26-0.266,0.504-0.326,0.736l-0.089,0.1L189.324,289.384z M188.804,286.866c0.163,0.146,0.332,0.263,0.505,0.35
			s0.345,0.148,0.513,0.189c0.169,0.039,0.329,0.055,0.481,0.049s0.289-0.029,0.408-0.068l0.972-1.08l-0.824-0.742
			c-0.252-0.227-0.487-0.396-0.71-0.508c-0.222-0.112-0.428-0.175-0.618-0.188c-0.19-0.015-0.367,0.015-0.531,0.089
			c-0.165,0.072-0.312,0.181-0.44,0.324c-0.195,0.217-0.281,0.465-0.256,0.746C188.328,286.308,188.494,286.587,188.804,286.866z"/>
		<path d="M208.069,300.438c-0.49,0.545-0.987,0.97-1.487,1.273c-0.5,0.302-0.995,0.486-1.484,0.556
			c-0.489,0.068-0.968,0.021-1.438-0.144c-0.471-0.165-0.917-0.438-1.344-0.82c-0.422-0.38-0.738-0.795-0.949-1.244
			c-0.213-0.449-0.312-0.922-0.297-1.418c0.016-0.494,0.146-1.008,0.391-1.541c0.245-0.533,0.612-1.072,1.104-1.618l1.819-2.021
			c0.491-0.545,0.988-0.969,1.491-1.27c0.502-0.301,0.999-0.484,1.488-0.551c0.491-0.067,0.971-0.02,1.438,0.143
			c0.467,0.162,0.912,0.433,1.334,0.812c0.426,0.383,0.744,0.801,0.957,1.25c0.211,0.449,0.31,0.922,0.295,1.417
			c-0.015,0.495-0.146,1.009-0.392,1.539c-0.247,0.531-0.616,1.069-1.107,1.615L208.069,300.438z M207.594,297.698l-3.758-0.357
			c-0.482,0.574-0.751,1.08-0.809,1.518c-0.057,0.436,0.098,0.817,0.461,1.145c0.38,0.342,0.794,0.448,1.242,0.32
			c0.448-0.129,0.947-0.497,1.494-1.104L207.594,297.698z M204.818,296.25l3.765,0.351c0.5-0.58,0.78-1.09,0.844-1.533
			c0.062-0.441-0.094-0.83-0.465-1.164c-0.375-0.338-0.787-0.446-1.234-0.322c-0.447,0.122-0.942,0.486-1.485,1.09L204.818,296.25z"
			/>
		<path d="M215.083,316.888l-1.011-0.91l9.756-10.834l1.01,0.91L215.083,316.888z"/>
		<path d="M230.684,324.933c0.136-0.151,0.287-0.27,0.455-0.354c0.167-0.085,0.341-0.131,0.524-0.138
			c0.182-0.009,0.367,0.022,0.558,0.093c0.189,0.068,0.372,0.182,0.546,0.338c0.174,0.157,0.305,0.326,0.396,0.508
			c0.089,0.182,0.138,0.362,0.146,0.543c0.009,0.18-0.018,0.358-0.083,0.535c-0.064,0.178-0.165,0.341-0.301,0.492
			c-0.132,0.146-0.282,0.261-0.449,0.342c-0.167,0.08-0.341,0.125-0.521,0.135c-0.182,0.01-0.364-0.021-0.553-0.093
			c-0.188-0.071-0.369-0.186-0.543-0.343c-0.174-0.156-0.307-0.324-0.396-0.504c-0.091-0.18-0.144-0.36-0.153-0.543
			c-0.011-0.182,0.016-0.359,0.08-0.532C230.453,325.239,230.551,325.079,230.684,324.933z"/>
		<path d="M237.819,331.356c0.137-0.15,0.287-0.268,0.455-0.353c0.167-0.085,0.342-0.13,0.524-0.138
			c0.182-0.009,0.368,0.022,0.558,0.092c0.189,0.069,0.372,0.182,0.546,0.34c0.175,0.156,0.306,0.326,0.396,0.508
			c0.089,0.181,0.138,0.361,0.146,0.543c0.01,0.18-0.018,0.357-0.083,0.534c-0.064,0.177-0.165,0.341-0.301,0.491
			c-0.132,0.148-0.282,0.262-0.45,0.342c-0.167,0.081-0.341,0.125-0.521,0.136c-0.181,0.009-0.364-0.022-0.552-0.093
			c-0.189-0.071-0.37-0.186-0.543-0.342c-0.175-0.158-0.308-0.326-0.397-0.506c-0.091-0.18-0.143-0.359-0.153-0.542
			c-0.011-0.183,0.016-0.359,0.08-0.532C237.588,331.664,237.687,331.504,237.819,331.356z"/>
		<path d="M244.954,337.781c0.136-0.151,0.287-0.269,0.455-0.353c0.167-0.085,0.341-0.131,0.522-0.139s0.368,0.023,0.558,0.093
			c0.189,0.069,0.372,0.183,0.547,0.339c0.174,0.157,0.306,0.326,0.395,0.508s0.138,0.362,0.147,0.543
			c0.009,0.18-0.019,0.358-0.083,0.535c-0.065,0.178-0.165,0.341-0.302,0.492c-0.132,0.146-0.281,0.261-0.449,0.341
			c-0.167,0.081-0.342,0.126-0.521,0.136c-0.181,0.01-0.364-0.021-0.552-0.093c-0.188-0.071-0.369-0.186-0.543-0.343
			c-0.174-0.156-0.308-0.324-0.397-0.504c-0.091-0.181-0.143-0.361-0.152-0.543c-0.012-0.182,0.015-0.359,0.08-0.533
			C244.723,338.089,244.822,337.929,244.954,337.781z"/>
		<path d="M252.089,344.206c0.136-0.15,0.287-0.269,0.455-0.354c0.167-0.084,0.341-0.13,0.523-0.137
			c0.183-0.009,0.368,0.021,0.559,0.092c0.188,0.069,0.372,0.182,0.546,0.339s0.306,0.326,0.395,0.508
			c0.09,0.181,0.139,0.362,0.147,0.543c0.009,0.181-0.019,0.358-0.083,0.535c-0.065,0.177-0.165,0.341-0.301,0.491
			c-0.132,0.147-0.282,0.262-0.45,0.342c-0.167,0.081-0.341,0.125-0.521,0.135c-0.181,0.01-0.363-0.021-0.552-0.092
			c-0.188-0.072-0.369-0.186-0.543-0.343c-0.174-0.157-0.307-0.325-0.396-0.505c-0.092-0.18-0.144-0.359-0.153-0.542
			c-0.012-0.183,0.015-0.36,0.08-0.532C251.858,344.513,251.957,344.354,252.089,344.206z"/>
	</g>
</g>
<g>
	<g>
		<path d="M276.43,266.492l7.611-8.454l2.188,1.971c0.562,0.506,0.982,1.059,1.266,1.66c0.281,0.602,0.431,1.219,0.444,1.852
			c0.016,0.634-0.104,1.268-0.355,1.902c-0.253,0.635-0.635,1.237-1.147,1.807l-0.627,0.696c-0.512,0.569-1.071,1.011-1.673,1.326
			s-1.217,0.502-1.843,0.559c-0.625,0.058-1.247-0.021-1.862-0.231s-1.193-0.559-1.729-1.043L276.43,266.492z M284.493,260.842
			l-5.238,5.817l0.627,0.564c0.305,0.275,0.631,0.464,0.979,0.566c0.347,0.102,0.703,0.117,1.07,0.049
			c0.367-0.07,0.737-0.222,1.11-0.457c0.373-0.235,0.741-0.554,1.104-0.957l0.639-0.708c0.342-0.38,0.608-0.765,0.802-1.153
			c0.192-0.391,0.305-0.775,0.335-1.154c0.029-0.38-0.027-0.746-0.168-1.098c-0.143-0.354-0.379-0.679-0.712-0.979L284.493,260.842z
			"/>
		<path d="M287.583,276.534c0.03-0.112,0.077-0.23,0.141-0.355c0.064-0.126,0.136-0.253,0.218-0.383
			c-0.176,0.016-0.36,0.016-0.553-0.004c-0.193-0.02-0.389-0.061-0.587-0.125c-0.199-0.062-0.4-0.152-0.604-0.27
			c-0.203-0.116-0.403-0.264-0.601-0.441c-0.321-0.289-0.575-0.602-0.76-0.936c-0.187-0.336-0.3-0.674-0.344-1.014
			c-0.045-0.342-0.017-0.676,0.083-1.004c0.099-0.328,0.271-0.627,0.515-0.897c0.596-0.662,1.303-0.951,2.123-0.869
			c0.819,0.082,1.719,0.563,2.698,1.446l0.899,0.811l0.334-0.372c0.271-0.302,0.389-0.63,0.35-0.983
			c-0.039-0.354-0.244-0.698-0.615-1.033c-0.329-0.296-0.633-0.441-0.911-0.436s-0.523,0.126-0.736,0.361l-1.613-1.453
			c0.24-0.267,0.526-0.467,0.861-0.602c0.334-0.133,0.696-0.189,1.086-0.167c0.391,0.022,0.796,0.127,1.22,0.315
			c0.423,0.188,0.846,0.472,1.268,0.852c0.379,0.342,0.69,0.706,0.934,1.094c0.244,0.387,0.403,0.779,0.479,1.178
			c0.076,0.398,0.057,0.797-0.057,1.195c-0.114,0.398-0.335,0.779-0.662,1.144l-2.426,2.694c-0.303,0.336-0.532,0.634-0.688,0.893
			c-0.156,0.26-0.265,0.505-0.326,0.736l-0.089,0.1L287.583,276.534z M287.064,274.017c0.163,0.146,0.332,0.263,0.505,0.35
			c0.174,0.087,0.346,0.149,0.514,0.189c0.168,0.039,0.329,0.055,0.48,0.049c0.152-0.006,0.289-0.029,0.408-0.068l0.972-1.08
			l-0.824-0.742c-0.252-0.227-0.488-0.396-0.71-0.508c-0.221-0.112-0.428-0.175-0.617-0.188c-0.191-0.015-0.369,0.016-0.532,0.089
			c-0.165,0.072-0.312,0.182-0.44,0.324c-0.194,0.217-0.28,0.465-0.256,0.746C286.588,273.458,286.754,273.737,287.064,274.017z"/>
		<path d="M300.796,274.271l-1.385,1.539l2.346,2.111l-1.072,1.19l-2.346-2.112l-2.431,2.7c-0.206,0.229-0.352,0.442-0.438,0.642
			c-0.085,0.201-0.121,0.39-0.105,0.568c0.016,0.178,0.073,0.348,0.177,0.51c0.102,0.162,0.238,0.32,0.409,0.474
			c0.123,0.112,0.256,0.22,0.396,0.325c0.14,0.105,0.276,0.202,0.411,0.291c0.133,0.089,0.26,0.17,0.38,0.243
			c0.12,0.072,0.226,0.133,0.316,0.18l-0.843,1.25c-0.172-0.035-0.354-0.097-0.549-0.185c-0.193-0.087-0.39-0.192-0.589-0.314
			c-0.199-0.123-0.396-0.258-0.597-0.406s-0.39-0.303-0.566-0.463c-0.345-0.311-0.616-0.637-0.813-0.98
			c-0.199-0.344-0.312-0.701-0.338-1.071c-0.027-0.372,0.038-0.754,0.196-1.146c0.158-0.396,0.423-0.797,0.797-1.211l2.572-2.857
			l-1.434-1.291l1.071-1.19l1.435,1.292l1.385-1.539L300.796,274.271z"/>
		<path d="M301.854,289.384c0.031-0.113,0.078-0.231,0.143-0.355c0.062-0.126,0.136-0.253,0.218-0.383
			c-0.176,0.016-0.361,0.016-0.553-0.004c-0.193-0.02-0.39-0.062-0.588-0.125c-0.198-0.062-0.399-0.152-0.604-0.27
			c-0.204-0.116-0.403-0.264-0.601-0.441c-0.321-0.289-0.575-0.602-0.761-0.937s-0.3-0.673-0.344-1.014s-0.016-0.675,0.083-1.003
			s0.271-0.627,0.515-0.898c0.597-0.662,1.304-0.951,2.123-0.869c0.82,0.082,1.72,0.564,2.698,1.447l0.9,0.81l0.334-0.372
			c0.271-0.301,0.388-0.629,0.35-0.982c-0.039-0.354-0.244-0.698-0.616-1.033c-0.329-0.296-0.632-0.441-0.911-0.436
			c-0.277,0.006-0.522,0.125-0.735,0.361l-1.614-1.453c0.241-0.268,0.528-0.467,0.862-0.602c0.334-0.134,0.695-0.189,1.086-0.167
			c0.391,0.021,0.796,0.127,1.219,0.315s0.846,0.472,1.269,0.852c0.378,0.342,0.689,0.705,0.934,1.094
			c0.244,0.387,0.402,0.779,0.479,1.178c0.076,0.398,0.058,0.797-0.057,1.195c-0.113,0.397-0.334,0.779-0.662,1.144l-2.425,2.694
			c-0.303,0.336-0.533,0.633-0.689,0.893c-0.155,0.26-0.265,0.504-0.325,0.736l-0.089,0.1L301.854,289.384z M301.334,286.866
			c0.163,0.146,0.332,0.263,0.505,0.35s0.345,0.148,0.513,0.189c0.168,0.039,0.329,0.055,0.481,0.049
			c0.151-0.006,0.289-0.029,0.408-0.068l0.972-1.08l-0.824-0.742c-0.252-0.227-0.488-0.396-0.71-0.508
			c-0.222-0.112-0.428-0.175-0.618-0.188c-0.19-0.015-0.368,0.015-0.532,0.089c-0.165,0.072-0.311,0.181-0.439,0.324
			c-0.195,0.217-0.281,0.465-0.256,0.746C300.858,286.308,301.024,286.587,301.334,286.866z"/>
		<path d="M316.153,302.259l-1.631-1.469l5.839-6.484l-2.826-1.158l1.266-1.404l4.878,1.984l0.087,0.078L316.153,302.259z"/>
		<path d="M327.613,316.888l-1.01-0.91l9.755-10.834l1.01,0.91L327.613,316.888z"/>
		<path d="M343.214,324.933c0.136-0.151,0.286-0.27,0.455-0.354c0.167-0.085,0.341-0.131,0.523-0.138
			c0.182-0.009,0.368,0.022,0.558,0.093c0.189,0.068,0.372,0.182,0.547,0.338c0.174,0.157,0.305,0.326,0.395,0.508
			c0.089,0.182,0.138,0.362,0.147,0.543c0.009,0.18-0.019,0.358-0.083,0.535c-0.065,0.178-0.165,0.341-0.302,0.492
			c-0.132,0.146-0.281,0.261-0.448,0.342c-0.167,0.08-0.342,0.125-0.521,0.135c-0.181,0.01-0.364-0.021-0.552-0.093
			c-0.189-0.071-0.37-0.186-0.543-0.343c-0.174-0.156-0.308-0.324-0.397-0.504c-0.091-0.18-0.143-0.36-0.152-0.543
			c-0.012-0.182,0.015-0.359,0.08-0.532C342.983,325.239,343.081,325.079,343.214,324.933z"/>
		<path d="M350.349,331.356c0.136-0.15,0.287-0.268,0.455-0.353c0.167-0.085,0.341-0.13,0.523-0.138
			c0.183-0.009,0.368,0.022,0.559,0.092c0.188,0.069,0.372,0.182,0.546,0.34c0.174,0.156,0.305,0.326,0.395,0.508
			c0.089,0.181,0.139,0.361,0.147,0.543c0.009,0.18-0.019,0.357-0.083,0.534c-0.065,0.177-0.165,0.341-0.301,0.491
			c-0.133,0.148-0.282,0.262-0.45,0.342c-0.167,0.081-0.341,0.125-0.521,0.136c-0.181,0.009-0.363-0.022-0.552-0.093
			c-0.188-0.071-0.37-0.186-0.543-0.342c-0.174-0.158-0.307-0.326-0.396-0.506c-0.092-0.18-0.144-0.359-0.153-0.542
			c-0.011-0.183,0.015-0.359,0.08-0.532C350.117,331.664,350.217,331.504,350.349,331.356z"/>
		<path d="M357.484,337.781c0.136-0.151,0.287-0.269,0.455-0.353c0.167-0.085,0.341-0.131,0.523-0.139
			c0.182-0.008,0.367,0.023,0.558,0.093c0.189,0.069,0.372,0.183,0.546,0.339c0.174,0.157,0.306,0.326,0.396,0.508
			c0.089,0.182,0.138,0.362,0.146,0.543c0.009,0.18-0.018,0.358-0.083,0.535c-0.064,0.178-0.165,0.341-0.301,0.492
			c-0.132,0.146-0.282,0.261-0.45,0.341c-0.167,0.081-0.341,0.126-0.521,0.136c-0.182,0.01-0.364-0.021-0.553-0.093
			c-0.188-0.071-0.369-0.186-0.543-0.343c-0.174-0.156-0.307-0.324-0.396-0.504c-0.091-0.181-0.144-0.361-0.153-0.543
			c-0.011-0.182,0.015-0.359,0.08-0.533C357.253,338.089,357.352,337.929,357.484,337.781z"/>
		<path d="M364.619,344.206c0.137-0.15,0.287-0.269,0.455-0.354c0.167-0.084,0.341-0.13,0.524-0.137
			c0.182-0.009,0.368,0.021,0.558,0.092c0.189,0.069,0.372,0.182,0.546,0.339c0.175,0.157,0.307,0.326,0.396,0.508
			c0.089,0.181,0.138,0.362,0.146,0.543c0.01,0.181-0.018,0.358-0.083,0.535c-0.064,0.177-0.165,0.341-0.301,0.491
			c-0.132,0.147-0.282,0.262-0.45,0.342c-0.167,0.081-0.341,0.125-0.521,0.135c-0.182,0.01-0.364-0.021-0.552-0.092
			c-0.188-0.072-0.369-0.186-0.543-0.343c-0.175-0.157-0.308-0.325-0.397-0.505c-0.091-0.18-0.143-0.359-0.153-0.542
			c-0.012-0.183,0.016-0.36,0.08-0.532C364.389,344.513,364.487,344.354,364.619,344.206z"/>
	</g>
</g>
<g>
	<g>
		<path d="M386.282,266.492l7.611-8.454l2.188,1.971c0.562,0.506,0.982,1.059,1.266,1.66c0.282,0.602,0.431,1.219,0.445,1.852
			c0.015,0.634-0.104,1.268-0.356,1.902c-0.253,0.635-0.635,1.237-1.147,1.807l-0.627,0.696c-0.512,0.569-1.07,1.011-1.673,1.326
			c-0.602,0.315-1.217,0.502-1.843,0.559c-0.625,0.058-1.247-0.021-1.862-0.231c-0.614-0.21-1.192-0.559-1.729-1.043
			L386.282,266.492z M394.345,260.842l-5.238,5.817l0.627,0.564c0.305,0.275,0.631,0.464,0.979,0.566
			c0.346,0.102,0.703,0.117,1.069,0.049c0.367-0.07,0.737-0.222,1.11-0.457c0.373-0.235,0.741-0.554,1.104-0.957l0.639-0.708
			c0.342-0.38,0.608-0.765,0.802-1.153c0.193-0.391,0.305-0.775,0.335-1.154c0.029-0.38-0.027-0.746-0.168-1.098
			c-0.142-0.354-0.379-0.679-0.712-0.979L394.345,260.842z"/>
		<path d="M397.436,276.534c0.031-0.112,0.077-0.23,0.141-0.355c0.064-0.126,0.137-0.253,0.219-0.383
			c-0.177,0.016-0.361,0.016-0.554-0.004s-0.389-0.061-0.587-0.125c-0.199-0.062-0.399-0.152-0.604-0.27
			c-0.204-0.116-0.404-0.264-0.602-0.441c-0.32-0.289-0.575-0.602-0.76-0.936c-0.186-0.336-0.3-0.674-0.344-1.014
			c-0.044-0.342-0.017-0.676,0.083-1.004c0.099-0.328,0.271-0.627,0.515-0.897c0.596-0.662,1.303-0.951,2.123-0.869
			s1.719,0.563,2.698,1.446l0.899,0.811l0.334-0.372c0.271-0.302,0.389-0.63,0.35-0.983c-0.039-0.354-0.244-0.698-0.615-1.033
			c-0.329-0.296-0.633-0.441-0.911-0.436s-0.522,0.126-0.735,0.361l-1.614-1.453c0.241-0.267,0.526-0.467,0.861-0.602
			c0.335-0.133,0.696-0.189,1.087-0.167c0.39,0.022,0.796,0.127,1.219,0.315s0.846,0.472,1.268,0.852
			c0.379,0.342,0.69,0.706,0.935,1.094c0.243,0.387,0.402,0.779,0.479,1.178c0.076,0.398,0.058,0.797-0.057,1.195
			s-0.334,0.779-0.662,1.144l-2.425,2.694c-0.304,0.336-0.533,0.634-0.689,0.893c-0.156,0.26-0.265,0.505-0.326,0.736l-0.089,0.1
			L397.436,276.534z M396.916,274.017c0.163,0.146,0.332,0.263,0.506,0.35c0.173,0.087,0.345,0.149,0.513,0.189
			c0.168,0.039,0.329,0.055,0.48,0.049c0.152-0.006,0.289-0.029,0.408-0.068l0.973-1.08l-0.825-0.742
			c-0.251-0.227-0.488-0.396-0.709-0.508c-0.222-0.112-0.429-0.175-0.618-0.188c-0.191-0.015-0.369,0.016-0.532,0.089
			c-0.165,0.072-0.311,0.182-0.439,0.324c-0.195,0.217-0.281,0.465-0.257,0.746C396.44,273.458,396.606,273.737,396.916,274.017z"/>
		<path d="M410.649,274.271l-1.385,1.539l2.346,2.111l-1.072,1.19l-2.346-2.112l-2.431,2.7c-0.206,0.229-0.352,0.442-0.438,0.642
			c-0.085,0.201-0.121,0.39-0.104,0.568c0.015,0.178,0.072,0.348,0.176,0.51c0.102,0.162,0.239,0.32,0.409,0.474
			c0.124,0.112,0.256,0.22,0.396,0.325c0.141,0.105,0.276,0.202,0.411,0.291c0.133,0.089,0.26,0.17,0.38,0.243
			c0.12,0.072,0.227,0.133,0.316,0.18l-0.842,1.25c-0.172-0.035-0.354-0.097-0.55-0.185c-0.193-0.087-0.39-0.192-0.589-0.314
			c-0.198-0.123-0.396-0.258-0.597-0.406s-0.389-0.303-0.566-0.463c-0.345-0.311-0.615-0.637-0.813-0.98
			c-0.199-0.344-0.312-0.701-0.338-1.071c-0.027-0.372,0.039-0.754,0.196-1.146c0.158-0.396,0.424-0.797,0.798-1.211l2.571-2.857
			l-1.434-1.291l1.072-1.19l1.434,1.292l1.385-1.539L410.649,274.271z"/>
		<path d="M411.706,289.384c0.031-0.113,0.078-0.231,0.143-0.355c0.062-0.126,0.136-0.253,0.218-0.383
			c-0.176,0.016-0.361,0.016-0.553-0.004c-0.193-0.02-0.39-0.062-0.587-0.125c-0.199-0.062-0.4-0.152-0.604-0.27
			c-0.204-0.116-0.402-0.264-0.601-0.441c-0.321-0.289-0.575-0.602-0.76-0.937c-0.187-0.335-0.301-0.673-0.345-1.014
			s-0.016-0.675,0.083-1.003c0.1-0.328,0.271-0.627,0.516-0.898c0.596-0.662,1.303-0.951,2.123-0.869
			c0.819,0.082,1.719,0.564,2.697,1.447l0.9,0.81l0.334-0.372c0.271-0.301,0.388-0.629,0.35-0.982
			c-0.039-0.354-0.243-0.698-0.615-1.033c-0.329-0.296-0.633-0.441-0.911-0.436c-0.278,0.006-0.523,0.125-0.736,0.361l-1.614-1.453
			c0.241-0.268,0.528-0.467,0.862-0.602c0.334-0.134,0.696-0.189,1.086-0.167c0.391,0.021,0.796,0.127,1.219,0.315
			s0.847,0.472,1.269,0.852c0.379,0.342,0.689,0.705,0.934,1.094c0.244,0.387,0.403,0.779,0.479,1.178
			c0.075,0.398,0.057,0.797-0.058,1.195c-0.112,0.397-0.334,0.779-0.662,1.144l-2.425,2.694c-0.303,0.336-0.533,0.633-0.688,0.893
			c-0.156,0.26-0.266,0.504-0.326,0.736l-0.089,0.1L411.706,289.384z M411.187,286.866c0.163,0.146,0.332,0.263,0.505,0.35
			s0.345,0.148,0.513,0.189c0.168,0.039,0.329,0.055,0.481,0.049s0.289-0.029,0.408-0.068l0.972-1.08l-0.824-0.742
			c-0.252-0.227-0.487-0.396-0.71-0.508c-0.222-0.112-0.428-0.175-0.618-0.188c-0.19-0.015-0.367,0.015-0.531,0.089
			c-0.165,0.072-0.312,0.181-0.44,0.324c-0.195,0.217-0.281,0.465-0.256,0.746C410.711,286.308,410.877,286.587,411.187,286.866z"/>
		<path d="M427.579,303.676l-5.765-5.19l0.993-1.104l5.379-0.476c0.422-0.041,0.792-0.09,1.11-0.147
			c0.316-0.057,0.593-0.123,0.824-0.197c0.232-0.075,0.43-0.162,0.593-0.261c0.163-0.099,0.301-0.212,0.417-0.34
			c0.17-0.189,0.294-0.382,0.374-0.579c0.077-0.195,0.113-0.389,0.107-0.58c-0.007-0.191-0.054-0.377-0.143-0.555
			c-0.089-0.178-0.216-0.342-0.383-0.491c-0.445-0.401-0.89-0.575-1.33-0.524c-0.441,0.05-0.863,0.299-1.265,0.743l-1.62-1.458
			c0.338-0.375,0.729-0.666,1.175-0.872c0.443-0.206,0.91-0.317,1.397-0.333c0.488-0.018,0.982,0.068,1.482,0.256
			s0.975,0.484,1.424,0.889c0.43,0.387,0.756,0.789,0.979,1.207c0.224,0.418,0.349,0.835,0.375,1.253
			c0.027,0.417-0.037,0.829-0.194,1.238c-0.158,0.409-0.402,0.796-0.733,1.164c-0.251,0.278-0.534,0.506-0.849,0.681
			c-0.315,0.175-0.666,0.314-1.048,0.418c-0.385,0.102-0.805,0.182-1.261,0.236c-0.457,0.056-0.949,0.102-1.479,0.137l-3.107,0.25
			l3.71,3.341L427.579,303.676z"/>
		<path d="M437.465,316.888l-1.011-0.91l9.756-10.834l1.01,0.91L437.465,316.888z"/>
		<path d="M453.47,324.602l3.959,3.565l-1.188,1.317l-5.597-5.039l7.611-8.454l1.637,1.475L453.47,324.602z"/>
		<path d="M463.815,324.927l3.419,3.08l-4.475,4.969l1.701,1.532l-1.182,1.312l-5.121-4.61l1.182-1.312l1.788,1.609l3.287-3.651
			l-1.787-1.61L463.815,324.927z M466.935,324.825c0.112-0.124,0.237-0.219,0.378-0.285c0.14-0.067,0.285-0.102,0.435-0.104
			c0.15-0.002,0.301,0.027,0.453,0.087s0.298,0.153,0.438,0.278c0.287,0.258,0.44,0.543,0.466,0.855
			c0.023,0.312-0.078,0.594-0.305,0.846c-0.228,0.252-0.497,0.383-0.81,0.391c-0.312,0.01-0.612-0.115-0.898-0.373
			c-0.14-0.125-0.247-0.262-0.322-0.406c-0.076-0.146-0.121-0.292-0.134-0.441c-0.014-0.148,0.005-0.296,0.057-0.442
			C466.741,325.083,466.823,324.949,466.935,324.825z"/>
		<path d="M471.983,332.282l-0.686,0.961c0.507-0.112,0.998-0.109,1.475,0.008s0.91,0.352,1.301,0.703
			c0.317,0.286,0.565,0.594,0.745,0.924s0.274,0.683,0.282,1.059c0.009,0.375-0.078,0.771-0.258,1.186
			c-0.182,0.416-0.479,0.852-0.89,1.309l-3.48,3.867l-1.614-1.453l3.46-3.844c0.223-0.248,0.379-0.479,0.468-0.689
			c0.088-0.211,0.123-0.41,0.102-0.597s-0.088-0.365-0.202-0.534c-0.114-0.17-0.264-0.338-0.45-0.505
			c-0.274-0.247-0.559-0.403-0.852-0.467c-0.292-0.063-0.586-0.054-0.88,0.032l-4.021,4.465l-1.62-1.459l5.656-6.281
			L471.983,332.282z"/>
		<path d="M476.698,343.204l-1.343,0.021l-1.725,1.916l-1.614-1.453l8.029-8.918l1.613,1.453l-4.59,5.098l0.99-0.119l3.451-0.342
			l1.938,1.746l-4.727,0.486l-0.6,6.094l-1.979-1.781L476.698,343.204z"/>
	</g>
</g>
<g>
	<g>
		<path d="M496.134,266.492l7.61-8.454l2.189,1.971c0.561,0.506,0.981,1.059,1.265,1.66c0.282,0.602,0.432,1.219,0.445,1.852
			c0.015,0.634-0.104,1.268-0.356,1.902c-0.253,0.635-0.635,1.237-1.146,1.807l-0.627,0.696c-0.512,0.569-1.071,1.011-1.673,1.326
			c-0.603,0.315-1.218,0.502-1.844,0.559c-0.625,0.058-1.246-0.021-1.861-0.231s-1.193-0.559-1.73-1.043L496.134,266.492z
			 M504.197,260.842l-5.237,5.817l0.627,0.564c0.305,0.275,0.631,0.464,0.979,0.566c0.346,0.102,0.703,0.117,1.07,0.049
			c0.367-0.07,0.736-0.222,1.109-0.457c0.373-0.235,0.741-0.554,1.104-0.957l0.638-0.708c0.342-0.38,0.609-0.765,0.802-1.153
			c0.193-0.391,0.306-0.775,0.335-1.154c0.029-0.38-0.026-0.746-0.168-1.098c-0.142-0.354-0.379-0.679-0.712-0.979L504.197,260.842z
			"/>
		<path d="M507.287,276.534c0.031-0.112,0.077-0.23,0.142-0.355c0.063-0.126,0.136-0.253,0.218-0.383
			c-0.176,0.016-0.361,0.016-0.553-0.004c-0.193-0.02-0.39-0.061-0.587-0.125c-0.199-0.062-0.4-0.152-0.604-0.27
			c-0.204-0.116-0.404-0.264-0.601-0.441c-0.321-0.289-0.575-0.602-0.761-0.936c-0.186-0.336-0.3-0.674-0.344-1.014
			c-0.044-0.342-0.016-0.676,0.083-1.004c0.1-0.328,0.271-0.627,0.516-0.897c0.596-0.662,1.303-0.951,2.122-0.869
			c0.82,0.082,1.72,0.563,2.698,1.446l0.9,0.811l0.334-0.372c0.271-0.302,0.388-0.63,0.349-0.983
			c-0.039-0.354-0.244-0.698-0.615-1.033c-0.328-0.296-0.633-0.441-0.91-0.436c-0.278,0.005-0.523,0.126-0.736,0.361l-1.614-1.453
			c0.241-0.267,0.527-0.467,0.862-0.602c0.334-0.133,0.696-0.189,1.086-0.167s0.796,0.127,1.219,0.315s0.847,0.472,1.269,0.852
			c0.379,0.342,0.689,0.706,0.934,1.094c0.244,0.387,0.403,0.779,0.479,1.178c0.075,0.398,0.057,0.797-0.058,1.195
			s-0.334,0.779-0.662,1.144l-2.425,2.694c-0.303,0.336-0.533,0.634-0.688,0.893c-0.156,0.26-0.266,0.505-0.326,0.736l-0.089,0.1
			L507.287,276.534z M506.768,274.017c0.163,0.146,0.332,0.263,0.505,0.35s0.345,0.149,0.513,0.189
			c0.168,0.039,0.329,0.055,0.481,0.049s0.289-0.029,0.408-0.068l0.972-1.08l-0.825-0.742c-0.251-0.227-0.488-0.396-0.709-0.508
			s-0.428-0.175-0.618-0.188c-0.19-0.015-0.369,0.016-0.531,0.089c-0.165,0.072-0.312,0.182-0.44,0.324
			c-0.195,0.217-0.281,0.465-0.256,0.746C506.291,273.458,506.457,273.737,506.768,274.017z"/>
		<path d="M520.5,274.271l-1.386,1.539l2.347,2.111l-1.072,1.19l-2.346-2.112l-2.432,2.7c-0.206,0.229-0.351,0.442-0.437,0.642
			c-0.085,0.201-0.121,0.39-0.105,0.568c0.015,0.178,0.073,0.348,0.176,0.51s0.239,0.32,0.409,0.474
			c0.124,0.112,0.256,0.22,0.396,0.325c0.14,0.105,0.275,0.202,0.411,0.291c0.133,0.089,0.26,0.17,0.38,0.243
			c0.12,0.072,0.226,0.133,0.315,0.18l-0.842,1.25c-0.172-0.035-0.354-0.097-0.549-0.185c-0.194-0.087-0.39-0.192-0.589-0.314
			c-0.199-0.123-0.397-0.258-0.598-0.406c-0.199-0.148-0.389-0.303-0.565-0.463c-0.345-0.311-0.616-0.637-0.814-0.98
			c-0.198-0.344-0.312-0.701-0.338-1.071c-0.026-0.372,0.039-0.754,0.197-1.146c0.158-0.396,0.423-0.797,0.797-1.211l2.572-2.857
			l-1.435-1.291l1.072-1.19l1.435,1.292l1.385-1.539L520.5,274.271z"/>
		<path d="M521.558,289.384c0.031-0.113,0.078-0.231,0.142-0.355c0.063-0.126,0.137-0.253,0.219-0.383
			c-0.177,0.016-0.361,0.016-0.554-0.004s-0.389-0.062-0.587-0.125c-0.199-0.062-0.399-0.152-0.604-0.27
			c-0.204-0.116-0.403-0.264-0.602-0.441c-0.32-0.289-0.574-0.602-0.76-0.937s-0.3-0.673-0.344-1.014s-0.017-0.675,0.083-1.003
			c0.099-0.328,0.271-0.627,0.515-0.898c0.596-0.662,1.303-0.951,2.123-0.869s1.719,0.564,2.698,1.447l0.899,0.81l0.334-0.372
			c0.271-0.301,0.389-0.629,0.351-0.982c-0.039-0.354-0.244-0.698-0.616-1.033c-0.329-0.296-0.632-0.441-0.911-0.436
			c-0.278,0.006-0.522,0.125-0.735,0.361l-1.614-1.453c0.241-0.268,0.527-0.467,0.861-0.602c0.334-0.134,0.696-0.189,1.087-0.167
			c0.391,0.021,0.796,0.127,1.219,0.315s0.846,0.472,1.268,0.852c0.379,0.342,0.69,0.705,0.935,1.094
			c0.243,0.387,0.402,0.779,0.479,1.178c0.076,0.398,0.058,0.797-0.057,1.195c-0.113,0.397-0.334,0.779-0.662,1.144l-2.425,2.694
			c-0.304,0.336-0.533,0.633-0.689,0.893c-0.156,0.26-0.265,0.504-0.326,0.736l-0.089,0.1L521.558,289.384z M521.038,286.866
			c0.163,0.146,0.332,0.263,0.506,0.35c0.173,0.087,0.345,0.148,0.513,0.189c0.168,0.039,0.329,0.055,0.48,0.049
			c0.152-0.006,0.289-0.029,0.408-0.068l0.973-1.08l-0.824-0.742c-0.252-0.227-0.488-0.396-0.71-0.508
			c-0.223-0.112-0.429-0.175-0.618-0.188c-0.191-0.015-0.368,0.015-0.532,0.089c-0.165,0.072-0.311,0.181-0.439,0.324
			c-0.195,0.217-0.281,0.465-0.257,0.746C520.562,286.308,520.729,286.587,521.038,286.866z"/>
		<path d="M537.973,295.228l0.877,0.789c0.441,0.398,0.868,0.581,1.282,0.551c0.413-0.031,0.781-0.227,1.105-0.586
			c0.149-0.167,0.264-0.342,0.338-0.521c0.075-0.182,0.108-0.365,0.102-0.551c-0.008-0.186-0.062-0.373-0.162-0.562
			c-0.1-0.188-0.249-0.371-0.446-0.549c-0.163-0.146-0.336-0.261-0.519-0.341c-0.185-0.08-0.367-0.125-0.552-0.134
			c-0.186-0.009-0.364,0.021-0.537,0.089c-0.174,0.068-0.33,0.18-0.47,0.334l-1.613-1.453c0.311-0.345,0.663-0.595,1.059-0.75
			c0.396-0.154,0.81-0.223,1.24-0.203s0.864,0.125,1.3,0.313s0.847,0.458,1.234,0.808c0.418,0.376,0.755,0.771,1.011,1.188
			c0.256,0.415,0.416,0.837,0.481,1.264c0.063,0.426,0.029,0.851-0.103,1.274c-0.133,0.424-0.377,0.834-0.731,1.229
			c-0.164,0.182-0.353,0.336-0.565,0.463c-0.213,0.128-0.442,0.224-0.69,0.288c-0.248,0.065-0.509,0.095-0.783,0.089
			c-0.275-0.006-0.558-0.052-0.846-0.136c0.16,0.297,0.267,0.589,0.32,0.876c0.053,0.286,0.06,0.564,0.021,0.834
			c-0.04,0.27-0.125,0.529-0.25,0.779c-0.128,0.25-0.293,0.488-0.494,0.712c-0.355,0.396-0.748,0.679-1.179,0.853
			c-0.43,0.175-0.87,0.248-1.324,0.223c-0.453-0.026-0.91-0.147-1.371-0.363c-0.461-0.215-0.901-0.512-1.319-0.888
			c-0.36-0.324-0.667-0.689-0.92-1.097c-0.253-0.407-0.425-0.83-0.512-1.27c-0.087-0.441-0.076-0.885,0.036-1.33
			c0.11-0.447,0.352-0.875,0.721-1.285l1.614,1.453c-0.146,0.162-0.25,0.341-0.312,0.533c-0.062,0.193-0.08,0.391-0.055,0.592
			c0.024,0.201,0.089,0.4,0.193,0.596c0.105,0.196,0.25,0.377,0.437,0.545c0.41,0.369,0.829,0.55,1.256,0.542
			c0.428-0.007,0.809-0.196,1.143-0.568c0.206-0.229,0.35-0.454,0.43-0.675c0.08-0.223,0.104-0.443,0.073-0.66
			c-0.032-0.218-0.113-0.432-0.244-0.64c-0.131-0.209-0.308-0.413-0.527-0.612l-0.877-0.789L537.973,295.228z"/>
		<path d="M547.317,316.888l-1.01-0.91l9.755-10.834l1.01,0.91L547.317,316.888z"/>
		<path d="M563.321,324.602l3.959,3.565l-1.187,1.317l-5.598-5.039l7.611-8.454l1.637,1.475L563.321,324.602z"/>
		<path d="M573.666,324.927l3.42,3.08l-4.476,4.969l1.701,1.532l-1.181,1.312l-5.121-4.61l1.181-1.312l1.788,1.609l3.288-3.651
			l-1.788-1.61L573.666,324.927z M576.785,324.825c0.112-0.124,0.237-0.219,0.378-0.285c0.141-0.067,0.285-0.102,0.436-0.104
			c0.149-0.002,0.3,0.027,0.453,0.087c0.151,0.06,0.298,0.153,0.438,0.278c0.287,0.258,0.441,0.543,0.466,0.855
			c0.023,0.312-0.077,0.594-0.305,0.846c-0.227,0.252-0.497,0.383-0.809,0.391c-0.313,0.01-0.613-0.115-0.899-0.373
			c-0.139-0.125-0.247-0.262-0.322-0.406c-0.075-0.146-0.12-0.292-0.134-0.441c-0.013-0.148,0.005-0.296,0.058-0.442
			C576.593,325.083,576.675,324.949,576.785,324.825z"/>
		<path d="M581.835,332.282l-0.687,0.961c0.507-0.112,0.998-0.109,1.475,0.008c0.478,0.117,0.91,0.352,1.302,0.703
			c0.316,0.286,0.564,0.594,0.745,0.924c0.18,0.33,0.273,0.683,0.281,1.059c0.01,0.375-0.078,0.771-0.258,1.186
			c-0.181,0.416-0.478,0.852-0.889,1.309l-3.481,3.867l-1.613-1.453l3.46-3.844c0.223-0.248,0.379-0.479,0.468-0.689
			c0.088-0.211,0.123-0.41,0.101-0.597c-0.021-0.187-0.088-0.365-0.202-0.534c-0.113-0.17-0.264-0.338-0.449-0.505
			c-0.275-0.247-0.56-0.403-0.853-0.467c-0.292-0.063-0.586-0.054-0.88,0.032l-4.02,4.465l-1.62-1.459l5.655-6.281L581.835,332.282z
			"/>
		<path d="M586.55,343.204l-1.344,0.021l-1.725,1.916l-1.614-1.453l8.029-8.918l1.614,1.453l-4.59,5.098l0.989-0.119l3.451-0.342
			l1.939,1.746l-4.728,0.486l-0.599,6.094l-1.979-1.781L586.55,343.204z"/>
	</g>
</g>
<g>
	<rect x="81.526" y="199.551" fill="#97B2C3" stroke="#000000" stroke-miterlimit="10" width="10.936" height="34.924"/>
	<rect x="99.835" y="199.551" fill="#97B2C3" stroke="#000000" stroke-miterlimit="10" width="10.935" height="34.924"/>
	<rect x="118.144" y="199.551" fill="#97B2C3" stroke="#000000" stroke-miterlimit="10" width="10.936" height="34.924"/>
	<rect x="136.452" y="199.551" fill="#97B2C3" stroke="#000000" stroke-miterlimit="10" width="10.936" height="34.924"/>
	<rect x="154.761" y="199.551" fill="#97B2C3" stroke="#000000" stroke-miterlimit="10" width="10.936" height="34.924"/>
	<rect x="173.069" y="199.551" fill="#97B2C3" stroke="#000000" stroke-miterlimit="10" width="10.937" height="34.924"/>
	<rect x="191.378" y="199.551" fill="#97B2C3" stroke="#000000" stroke-miterlimit="10" width="10.936" height="34.924"/>
	<rect x="209.687" y="199.551" fill="#97B2C3" stroke="#000000" stroke-miterlimit="10" width="10.937" height="34.924"/>
	<rect x="227.995" y="199.551" fill="#97B2C3" stroke="#000000" stroke-miterlimit="10" width="10.936" height="34.924"/>
	<rect x="246.304" y="199.551" fill="#97B2C3" stroke="#000000" stroke-miterlimit="10" width="10.936" height="34.924"/>
	<rect x="264.612" y="199.551" fill="#97B2C3" stroke="#000000" stroke-miterlimit="10" width="10.937" height="34.924"/>
	<rect x="282.921" y="199.551" fill="#97B2C3" stroke="#000000" stroke-miterlimit="10" width="10.936" height="34.924"/>
	<rect x="301.23" y="199.551" fill="#97B2C3" stroke="#000000" stroke-miterlimit="10" width="10.935" height="34.924"/>
	<rect x="319.538" y="199.551" fill="#97B2C3" stroke="#000000" stroke-miterlimit="10" width="10.936" height="34.924"/>
	<rect x="338.526" y="199.551" fill="#97B2C3" stroke="#000000" stroke-miterlimit="10" width="10.936" height="34.924"/>
	<rect x="356.835" y="199.551" fill="#97B2C3" stroke="#000000" stroke-miterlimit="10" width="10.935" height="34.924"/>
	<rect x="375.144" y="199.551" fill="#97B2C3" stroke="#000000" stroke-miterlimit="10" width="10.935" height="34.924"/>
	<rect x="393.451" y="199.551" fill="#97B2C3" stroke="#000000" stroke-miterlimit="10" width="10.937" height="34.924"/>
	<rect x="411.761" y="199.551" fill="#97B2C3" stroke="#000000" stroke-miterlimit="10" width="10.936" height="34.924"/>
	<rect x="430.069" y="199.551" fill="#97B2C3" stroke="#000000" stroke-miterlimit="10" width="10.937" height="34.924"/>
	<rect x="448.378" y="199.551" fill="#97B2C3" stroke="#000000" stroke-miterlimit="10" width="10.936" height="34.924"/>
	<rect x="466.687" y="199.551" fill="#97B2C3" stroke="#000000" stroke-miterlimit="10" width="10.936" height="34.924"/>
	<rect x="484.994" y="199.551" fill="#97B2C3" stroke="#000000" stroke-miterlimit="10" width="10.937" height="34.924"/>
	<rect x="503.304" y="199.551" fill="#97B2C3" stroke="#000000" stroke-miterlimit="10" width="10.936" height="34.924"/>
	<rect x="521.612" y="199.551" fill="#FFFFFF" stroke="#000000" stroke-miterlimit="10" width="10.937" height="34.924"/>
	<rect x="539.921" y="199.551" fill="#FFFFFF" stroke="#000000" stroke-miterlimit="10" width="10.936" height="34.924"/>
	<rect x="558.23" y="199.551" fill="#FFFFFF" stroke="#000000" stroke-miterlimit="10" width="10.935" height="34.924"/>
	<rect x="576.538" y="199.551" fill="#FFFFFF" stroke="#000000" stroke-miterlimit="10" width="10.936" height="34.924"/>
	<rect x="594.847" y="199.551" fill="#FFFFFF" stroke="#000000" stroke-miterlimit="10" width="10.935" height="34.924"/>
	<rect x="613.155" y="199.551" fill="#FFFFFF" stroke="#000000" stroke-miterlimit="10" width="10.936" height="34.924"/>
	<rect x="631.464" y="199.551" fill="#FFFFFF" stroke="#000000" stroke-miterlimit="10" width="10.936" height="34.924"/>
	<rect x="649.772" y="199.551" fill="#FFFFFF" stroke="#000000" stroke-miterlimit="10" width="10.936" height="34.924"/>
	<rect x="668.08" y="199.551" fill="#FFFFFF" stroke="#000000" stroke-miterlimit="10" width="10.937" height="34.924"/>
	<rect x="686.389" y="199.551" fill="#FFFFFF" stroke="#000000" stroke-miterlimit="10" width="10.936" height="34.924"/>
	<rect x="704.697" y="199.551" fill="#FFFFFF" stroke="#000000" stroke-miterlimit="10" width="10.937" height="34.924"/>
	<rect x="723.006" y="199.551" fill="#FFFFFF" stroke="#000000" stroke-miterlimit="10" width="10.936" height="34.924"/>
	<rect x="741.314" y="199.551" fill="#FFFFFF" stroke="#000000" stroke-miterlimit="10" width="10.937" height="34.924"/>
	<rect x="759.622" y="199.551" fill="#FFFFFF" stroke="#000000" stroke-miterlimit="10" width="10.937" height="34.924"/>
	<rect x="777.932" y="199.551" fill="#FFFFFF" stroke="#000000" stroke-miterlimit="10" width="10.936" height="34.924"/>
	<rect x="796.241" y="199.551" fill="#FFFFFF" stroke="#000000" stroke-miterlimit="10" width="10.935" height="34.924"/>
	<rect x="814.551" y="199.551" fill="#FFFFFF" stroke="#000000" stroke-miterlimit="10" width="10.934" height="34.924"/>
	<rect x="833.193" y="199.551" fill="#FFFFFF" stroke="#000000" stroke-miterlimit="10" width="10.936" height="34.924"/>
	<rect x="851.502" y="199.551" fill="#FFFFFF" stroke="#000000" stroke-miterlimit="10" width="10.936" height="34.924"/>
	<rect x="869.811" y="199.551" fill="#FFFFFF" stroke="#000000" stroke-miterlimit="10" width="10.936" height="34.924"/>
	<rect x="888.118" y="199.551" fill="#FFFFFF" stroke="#000000" stroke-miterlimit="10" width="10.937" height="34.924"/>
	<rect x="906.428" y="199.551" fill="#FFFFFF" stroke="#000000" stroke-miterlimit="10" width="10.936" height="34.924"/>
	<rect x="924.736" y="199.551" fill="#FFFFFF" stroke="#000000" stroke-miterlimit="10" width="10.937" height="34.924"/>
	<rect x="943.045" y="199.551" fill="#FFFFFF" stroke="#000000" stroke-miterlimit="10" width="10.936" height="34.924"/>
	<rect x="961.354" y="199.551" fill="#FFFFFF" stroke="#000000" stroke-miterlimit="10" width="10.936" height="34.924"/>
	<rect x="979.661" y="199.551" fill="#FFFFFF" stroke="#000000" stroke-miterlimit="10" width="10.937" height="34.924"/>
	<rect x="997.971" y="199.551" fill="#FFFFFF" stroke="#000000" stroke-miterlimit="10" width="10.936" height="34.924"/>
	<rect x="1016.28" y="199.551" fill="#FFFFFF" stroke="#000000" stroke-miterlimit="10" width="10.936" height="34.924"/>
	<rect x="1034.589" y="199.551" fill="#FFFFFF" stroke="#000000" stroke-miterlimit="10" width="10.935" height="34.924"/>
	<rect x="1052.896" y="199.551" fill="#FFFFFF" stroke="#000000" stroke-miterlimit="10" width="10.935" height="34.924"/>
	<rect x="1071.204" y="199.551" fill="#FFFFFF" stroke="#000000" stroke-miterlimit="10" width="10.936" height="34.924"/>
	<rect x="1089.514" y="199.551" fill="#FFFFFF" stroke="#000000" stroke-miterlimit="10" width="10.936" height="34.924"/>
	<rect x="1107.822" y="199.551" fill="#FFFFFF" stroke="#000000" stroke-miterlimit="10" width="10.937" height="34.924"/>
	<rect x="1126.131" y="199.551" fill="#FFFFFF" stroke="#000000" stroke-miterlimit="10" width="10.936" height="34.924"/>
	<rect x="1144.439" y="199.551" fill="#FFFFFF" stroke="#000000" stroke-miterlimit="10" width="10.935" height="34.924"/>
	<rect x="1162.746" y="199.551" fill="#FFFFFF" stroke="#000000" stroke-miterlimit="10" width="10.937" height="34.924"/>
	<rect x="1181.056" y="199.551" fill="#FFFFFF" stroke="#000000" stroke-miterlimit="10" width="10.936" height="34.924"/>
	<rect x="1199.364" y="199.551" fill="#FFFFFF" stroke="#000000" stroke-miterlimit="10" width="10.937" height="34.924"/>
	<rect x="1217.673" y="199.551" fill="#FFFFFF" stroke="#000000" stroke-miterlimit="10" width="10.936" height="34.924"/>
	<rect x="1235.981" y="199.551" fill="#FFFFFF" stroke="#000000" stroke-miterlimit="10" width="10.936" height="34.924"/>
	<rect x="1254.291" y="199.551" fill="#FFFFFF" stroke="#000000" stroke-miterlimit="10" width="10.935" height="34.924"/>
	<rect x="1272.601" y="199.551" fill="#FFFFFF" stroke="#000000" stroke-miterlimit="10" width="10.934" height="34.924"/>
</g>
<g>
	<g>
		<path fill="none" stroke="#000000" stroke-miterlimit="10" d="M800.081,409.09"/>
	</g>
</g>
<g opacity="0.33">
	<g>
		<path fill="none" stroke="#E15218" stroke-width="1.5" stroke-miterlimit="10" d="M508.771,373.396l24.256,21.07
			c1.661,1.442,1.22,2.623-0.979,2.623H314.966c-2.2,0-5.335-1.207-6.969-2.682l-19.655-17.758"/>
		<g>
			<polygon fill="#E15218" points="293.136,375.742 289.304,377.52 287.923,381.512 283.69,372.448 			"/>
		</g>
	</g>
</g>
<rect x="81.526" y="508.134" fill="#2D4E6E" stroke="#000000" stroke-miterlimit="10" width="10.936" height="34.924"/>
<rect x="99.835" y="508.134" fill="#2D4E6E" stroke="#000000" stroke-miterlimit="10" width="10.935" height="34.924"/>
<rect x="118.144" y="508.134" fill="#2D4E6E" stroke="#000000" stroke-miterlimit="10" width="10.936" height="34.924"/>
<rect x="136.452" y="508.134" fill="#2D4E6E" stroke="#000000" stroke-miterlimit="10" width="10.936" height="34.924"/>
<rect x="154.761" y="508.134" fill="#2D4E6E" stroke="#000000" stroke-miterlimit="10" width="10.936" height="34.924"/>
<rect x="173.069" y="508.134" fill="#2D4E6E" stroke="#000000" stroke-miterlimit="10" width="10.937" height="34.924"/>
<rect x="191.378" y="508.134" fill="#2D4E6E" stroke="#000000" stroke-miterlimit="10" width="10.936" height="34.924"/>
<rect x="209.687" y="508.134" fill="#2D4E6E" stroke="#000000" stroke-miterlimit="10" width="10.937" height="34.924"/>
<rect x="227.995" y="508.134" fill="#2D4E6E" stroke="#000000" stroke-miterlimit="10" width="10.936" height="34.924"/>
<rect x="246.304" y="508.134" fill="#2D4E6E" stroke="#000000" stroke-miterlimit="10" width="10.936" height="34.924"/>
<rect x="264.612" y="508.134" fill="#2D4E6E" stroke="#000000" stroke-miterlimit="10" width="10.937" height="34.924"/>
<rect x="282.921" y="508.134" fill="#2D4E6E" stroke="#000000" stroke-miterlimit="10" width="10.936" height="34.924"/>
</svg>
