<?xml version="1.0" encoding="utf-8"?>
<!-- Generator: Adobe Illustrator 16.0.4, SVG Export Plug-In . SVG Version: 6.00 Build 0)  -->
<!DOCTYPE svg PUBLIC "-//W3C//DTD SVG 1.1//EN" "http://www.w3.org/Graphics/SVG/1.1/DTD/svg11.dtd">
<svg version="1.1" id="Journaling" xmlns="http://www.w3.org/2000/svg" xmlns:xlink="http://www.w3.org/1999/xlink" x="0px" y="0px"
	 width="1366px" height="768px" viewBox="0 0 1366 768" enable-background="new 0 0 1366 768" xml:space="preserve">
<rect fill="#FFFFFF" width="1366" height="768"/>
<path opacity="0.44" fill="#CCCCCC" enable-background="new    " d="M61.636,254.5c0,56-0.011,104.271-0.011,152.136v34.924h248.948
	v-34.924c0-57.089,0-85.942,0-141.942"/>
<path opacity="0.44" fill="#CCCCCC" enable-background="new    " d="M359.136,254.5c0,56-0.011,104.271-0.011,152.136v34.924
	h248.948v-34.924c0-57.089,0-85.942,0-141.942"/>
<rect x="359.125" y="406.636" fill="#FFFFFF" stroke="#000000" stroke-miterlimit="10" width="10.935" height="34.924"/>
<rect x="377.433" y="406.636" fill="#FFFFFF" stroke="#000000" stroke-miterlimit="10" width="10.935" height="34.924"/>
<rect x="395.742" y="406.636" fill="#FFFFFF" stroke="#000000" stroke-miterlimit="10" width="10.935" height="34.924"/>
<rect x="414.051" y="406.636" width="10.935" height="34.924"/>
<rect x="432.359" y="406.636" width="10.935" height="34.924"/>
<rect x="450.668" y="406.636" width="10.935" height="34.924"/>
<rect x="468.977" y="406.636" width="10.935" height="34.924"/>
<rect x="487.286" y="406.636" width="10.935" height="34.924"/>
<rect x="505.594" y="406.636" width="10.935" height="34.924"/>
<rect x="523.903" y="406.636" width="10.935" height="34.924"/>
<rect x="542.211" y="406.636" width="10.935" height="34.924"/>
<rect x="560.52" y="406.636" fill="#FFFFFF" stroke="#000000" stroke-miterlimit="10" width="10.936" height="34.924"/>
<rect x="578.829" y="406.636" fill="#FFFFFF" stroke="#000000" stroke-miterlimit="10" width="10.935" height="34.924"/>
<rect x="597.138" y="406.636" fill="#FFFFFF" stroke="#000000" stroke-miterlimit="10" width="10.935" height="34.924"/>
<rect x="61.625" y="406.636" fill="#FFFFFF" stroke="#000000" stroke-miterlimit="10" width="10.935" height="34.924"/>
<rect x="79.933" y="406.636" width="10.935" height="34.924"/>
<rect x="98.242" y="406.636" fill="#FFFFFF" stroke="#000000" stroke-miterlimit="10" width="10.935" height="34.924"/>
<rect x="116.551" y="406.636" width="10.935" height="34.924"/>
<rect x="134.859" y="406.636" fill="#FFFFFF" stroke="#000000" stroke-miterlimit="10" width="10.935" height="34.924"/>
<rect x="153.168" y="406.636" width="10.935" height="34.924"/>
<rect x="171.477" y="406.636" width="10.935" height="34.924"/>
<rect x="189.786" y="406.636" width="10.935" height="34.924"/>
<rect x="208.094" y="406.636" fill="#FFFFFF" stroke="#000000" stroke-miterlimit="10" width="10.935" height="34.924"/>
<rect x="226.403" y="406.636" fill="#FFFFFF" stroke="#000000" stroke-miterlimit="10" width="10.935" height="34.924"/>
<rect x="244.711" y="406.636" width="10.935" height="34.924"/>
<rect x="263.02" y="406.636" fill="#FFFFFF" stroke="#000000" stroke-miterlimit="10" width="10.936" height="34.924"/>
<rect x="281.329" y="406.636" width="10.935" height="34.924"/>
<rect x="299.638" y="406.636" width="10.935" height="34.924"/>
<path opacity="0.44" fill="#C8D7E3" enable-background="new    " d="M756.338,254.5c0,56,53.127,104.271,53.127,152.136v34.924
	h213.009v-34.924c0-57.089,280.819-85.942,280.819-141.942"/>
<g enable-background="new    ">
	<path fill="#CCCCCC" d="M608.56,191.676c0,3.85-3.15,7-7,7H68.667c-3.85,0-7-3.15-7-7v-47.062c0-3.85,3.15-7,7-7H601.56
		c3.85,0,7,3.15,7,7V191.676z"/>
</g>
<g enable-background="new    ">
	<path fill="#C8D7E3" d="M1303.293,191.676c0,3.85-3.15,7-7,7H763.4c-3.85,0-7-3.15-7-7v-47.062c0-3.85,3.15-7,7-7h532.893
		c3.85,0,7,3.15,7,7V191.676z"/>
</g>
<g enable-background="new    ">
	<path fill="#CCCCCC" d="M310.573,266.613c0,3.85-3.15,7-7,7H68.625c-3.85,0-7-3.15-7-7v-47.062c0-3.85,3.15-7,7-7h234.948
		c3.85,0,7,3.15,7,7V266.613z"/>
</g>
<g enable-background="new    ">
	<path fill="#C8D7E3" d="M1303.293,266.613c0,3.85-3.15,7-7,7H763.338c-3.85,0-7-3.15-7-7v-47.062c0-3.85,3.15-7,7-7h532.955
		c3.85,0,7,3.15,7,7V266.613z"/>
</g>
<g enable-background="new    ">
	<path fill="#CCCCCC" d="M608.073,266.613c0,3.85-3.15,7-7,7H366.125c-3.85,0-7-3.15-7-7v-47.062c0-3.85,3.15-7,7-7h234.948
		c3.85,0,7,3.15,7,7V266.613z"/>
</g>
<line fill="none" stroke="#2D4E6E" stroke-miterlimit="10" x1="683" y1="137.832" x2="683" y2="742"/>
<g>
	<rect x="61.754" y="235.363" fill="none" width="248.776" height="26.125"/>
	<path d="M153.09,243.288c0,2.356-0.64,4.158-1.919,5.405s-3.12,1.87-5.522,1.87h-3.955v-14.277h4.375
		c2.22,0,3.945,0.615,5.176,1.846S153.09,241.081,153.09,243.288z M151.332,243.347c0-1.862-0.467-3.265-1.401-4.209
		s-2.323-1.416-4.165-1.416h-2.412v11.406h2.021c1.979,0,3.467-0.486,4.463-1.46S151.332,245.254,151.332,243.347z"/>
	<path d="M162.611,250.563l-0.322-1.523h-0.078c-0.534,0.671-1.066,1.125-1.597,1.362s-1.193,0.356-1.987,0.356
		c-1.061,0-1.893-0.273-2.495-0.82s-0.903-1.325-0.903-2.334c0-2.161,1.729-3.294,5.186-3.398l1.816-0.059v-0.664
		c0-0.84-0.181-1.46-0.542-1.86s-0.939-0.601-1.733-0.601c-0.892,0-1.901,0.273-3.027,0.82l-0.498-1.24
		c0.527-0.286,1.105-0.511,1.733-0.674s1.258-0.244,1.89-0.244c1.276,0,2.222,0.283,2.837,0.85s0.923,1.475,0.923,2.725v7.305
		H162.611z M158.949,249.421c1.009,0,1.802-0.276,2.378-0.83s0.864-1.328,0.864-2.324V245.3l-1.621,0.068
		c-1.289,0.046-2.218,0.246-2.788,0.601s-0.854,0.906-0.854,1.655c0,0.586,0.177,1.032,0.532,1.338S158.311,249.421,158.949,249.421
		z"/>
	<path d="M170.609,249.421c0.287,0,0.563-0.021,0.83-0.063s0.479-0.086,0.635-0.132v1.24c-0.176,0.085-0.435,0.154-0.776,0.21
		s-0.649,0.083-0.923,0.083c-2.07,0-3.105-1.091-3.105-3.271v-6.367h-1.533v-0.781l1.533-0.674l0.684-2.285h0.938v2.48h3.105v1.26
		h-3.105v6.299c0,0.645,0.153,1.14,0.459,1.484S170.076,249.421,170.609,249.421z"/>
	<path d="M180.795,250.563l-0.322-1.523h-0.078c-0.534,0.671-1.066,1.125-1.597,1.362s-1.193,0.356-1.987,0.356
		c-1.061,0-1.893-0.273-2.495-0.82s-0.903-1.325-0.903-2.334c0-2.161,1.729-3.294,5.186-3.398l1.816-0.059v-0.664
		c0-0.84-0.181-1.46-0.542-1.86s-0.939-0.601-1.733-0.601c-0.892,0-1.901,0.273-3.027,0.82l-0.498-1.24
		c0.527-0.286,1.105-0.511,1.733-0.674s1.258-0.244,1.89-0.244c1.276,0,2.222,0.283,2.837,0.85s0.923,1.475,0.923,2.725v7.305
		H180.795z M177.133,249.421c1.009,0,1.802-0.276,2.378-0.83s0.864-1.328,0.864-2.324V245.3l-1.621,0.068
		c-1.289,0.046-2.218,0.246-2.788,0.601s-0.854,0.906-0.854,1.655c0,0.586,0.177,1.032,0.532,1.338S176.495,249.421,177.133,249.421
		z"/>
	<path d="M198.93,236.286h1.787l-5.146,14.277h-1.641l-5.117-14.277h1.758l3.281,9.238c0.377,1.062,0.677,2.093,0.898,3.096
		c0.234-1.055,0.541-2.106,0.918-3.154L198.93,236.286z"/>
	<path d="M202.299,236.96c0-0.371,0.091-0.643,0.273-0.815s0.41-0.259,0.684-0.259c0.26,0,0.485,0.088,0.674,0.264
		s0.283,0.446,0.283,0.811s-0.094,0.637-0.283,0.815s-0.414,0.269-0.674,0.269c-0.273,0-0.501-0.09-0.684-0.269
		S202.299,237.324,202.299,236.96z M204.057,250.563h-1.621V239.86h1.621V250.563z"/>
	<path d="M212.016,250.759c-1.582,0-2.831-0.481-3.745-1.445s-1.372-2.302-1.372-4.014c0-1.726,0.425-3.096,1.274-4.111
		s1.991-1.523,3.423-1.523c1.341,0,2.402,0.441,3.184,1.323s1.172,2.046,1.172,3.491v1.025h-7.373
		c0.033,1.257,0.35,2.21,0.952,2.861s1.45,0.977,2.544,0.977c1.152,0,2.292-0.241,3.418-0.723v1.445
		c-0.573,0.247-1.115,0.425-1.626,0.532S212.738,250.759,212.016,250.759z M211.576,241.022c-0.859,0-1.544,0.28-2.056,0.84
		s-0.812,1.335-0.903,2.324h5.596c0-1.022-0.228-1.805-0.684-2.349S212.422,241.022,211.576,241.022z"/>
	<path d="M227.455,250.563l-1.963-6.279c-0.124-0.384-0.355-1.257-0.693-2.617h-0.078c-0.26,1.14-0.488,2.019-0.684,2.637
		l-2.021,6.26h-1.875l-2.92-10.703h1.699c0.69,2.688,1.216,4.736,1.577,6.143s0.568,2.354,0.62,2.842h0.078
		c0.072-0.371,0.187-0.852,0.347-1.44s0.298-1.057,0.415-1.401l1.963-6.143h1.758l1.914,6.143c0.365,1.12,0.612,2.061,0.742,2.822
		h0.078c0.026-0.234,0.096-0.596,0.21-1.084s0.792-3.115,2.036-7.881h1.68l-2.959,10.703H227.455z"/>
</g>
<g>
	<rect x="377.247" y="479.082" fill="none" width="208.703" height="26.125"/>
	<path d="M443.368,491.398c-1.026,0-1.832-0.398-2.418-1.195s-0.879-1.901-0.879-3.312c0-1.433,0.298-2.548,0.895-3.348
		c0.596-0.8,1.418-1.199,2.465-1.199c1.099,0,1.938,0.427,2.516,1.281h0.078c-0.12-0.651-0.18-1.231-0.18-1.742v-2.797h2.391v12.156
		h-1.828l-0.461-1.133h-0.102C445.303,490.969,444.478,491.398,443.368,491.398z M444.204,489.5c0.609,0,1.056-0.177,1.34-0.531
		c0.284-0.354,0.438-0.956,0.465-1.805v-0.258c0-0.938-0.145-1.609-0.434-2.016s-0.759-0.609-1.41-0.609
		c-0.531,0-0.944,0.226-1.238,0.676c-0.294,0.45-0.441,1.105-0.441,1.965s0.148,1.504,0.445,1.934S443.652,489.5,444.204,489.5z"/>
	<path d="M455.587,482.344c1.031,0,1.838,0.402,2.422,1.207c0.583,0.805,0.875,1.907,0.875,3.309c0,1.442-0.301,2.56-0.902,3.352
		s-1.421,1.188-2.457,1.188c-1.026,0-1.831-0.372-2.414-1.117h-0.164l-0.398,0.961h-1.82v-12.156h2.383v2.828
		c0,0.359-0.031,0.935-0.094,1.727h0.094C453.667,482.776,454.493,482.344,455.587,482.344z M454.821,484.25
		c-0.589,0-1.019,0.181-1.289,0.543c-0.271,0.362-0.412,0.96-0.422,1.793v0.258c0,0.938,0.139,1.609,0.418,2.016
		c0.278,0.406,0.72,0.609,1.324,0.609c0.489,0,0.879-0.226,1.168-0.676s0.434-1.105,0.434-1.965s-0.146-1.504-0.438-1.934
		C455.725,484.465,455.326,484.25,454.821,484.25z"/>
	<path d="M466.134,479.82l-4.258,11.422h-2.164l4.258-11.422H466.134z"/>
	<path d="M466.759,495.086c-0.609,0-1.133-0.065-1.57-0.195v-1.875c0.365,0.099,0.737,0.148,1.117,0.148
		c0.401,0,0.694-0.112,0.879-0.336c0.185-0.224,0.277-0.555,0.277-0.992v-9.328h2.383v9.68c0,0.927-0.269,1.642-0.805,2.145
		C468.503,494.835,467.743,495.086,466.759,495.086z M467.36,480.25c0-0.776,0.432-1.164,1.297-1.164
		c0.864,0,1.297,0.388,1.297,1.164c0,0.37-0.108,0.657-0.324,0.863c-0.216,0.206-0.541,0.309-0.973,0.309
		C467.792,481.422,467.36,481.031,467.36,480.25z"/>
	<path d="M480.282,486.859c0,1.422-0.375,2.534-1.125,3.336s-1.794,1.203-3.133,1.203c-0.839,0-1.578-0.184-2.219-0.551
		s-1.133-0.895-1.477-1.582s-0.516-1.489-0.516-2.406c0-1.427,0.372-2.536,1.117-3.328c0.745-0.792,1.792-1.188,3.141-1.188
		c0.838,0,1.578,0.183,2.219,0.547s1.133,0.888,1.477,1.57S480.282,485.942,480.282,486.859z M474.243,486.859
		c0,0.864,0.142,1.519,0.426,1.961c0.284,0.442,0.746,0.664,1.387,0.664c0.635,0,1.092-0.22,1.371-0.66
		c0.278-0.44,0.418-1.095,0.418-1.965c0-0.864-0.141-1.513-0.422-1.945s-0.742-0.648-1.383-0.648c-0.636,0-1.094,0.215-1.375,0.645
		S474.243,485.989,474.243,486.859z"/>
	<path d="M488.438,491.242l-0.32-1.117h-0.125c-0.255,0.406-0.617,0.72-1.086,0.941s-1.003,0.332-1.602,0.332
		c-1.026,0-1.8-0.274-2.32-0.824c-0.521-0.55-0.781-1.34-0.781-2.371v-5.695h2.383v5.102c0,0.63,0.112,1.103,0.336,1.418
		c0.224,0.315,0.581,0.473,1.07,0.473c0.667,0,1.148-0.223,1.445-0.668s0.445-1.184,0.445-2.215v-4.109h2.383v8.734H488.438z"/>
	<path d="M497.642,482.344c0.323,0,0.591,0.023,0.805,0.07l-0.18,2.234c-0.193-0.052-0.427-0.078-0.703-0.078
		c-0.761,0-1.353,0.195-1.777,0.586c-0.425,0.391-0.637,0.938-0.637,1.641v4.445h-2.383v-8.734h1.805l0.352,1.469h0.117
		c0.271-0.489,0.637-0.884,1.098-1.184S497.1,482.344,497.642,482.344z"/>
	<path d="M508.095,491.242h-2.383v-5.102c0-0.63-0.112-1.103-0.336-1.418c-0.224-0.315-0.581-0.473-1.07-0.473
		c-0.667,0-1.148,0.223-1.445,0.668s-0.445,1.184-0.445,2.215v4.109h-2.383v-8.734h1.82l0.32,1.117h0.133
		c0.266-0.422,0.631-0.741,1.098-0.957c0.466-0.216,0.996-0.324,1.59-0.324c1.016,0,1.786,0.274,2.312,0.824
		c0.526,0.55,0.789,1.343,0.789,2.379V491.242z"/>
	<path d="M516.095,491.242l-0.461-1.188h-0.062c-0.401,0.505-0.814,0.855-1.238,1.051c-0.425,0.195-0.978,0.293-1.66,0.293
		c-0.839,0-1.499-0.239-1.98-0.719c-0.482-0.479-0.723-1.161-0.723-2.047c0-0.927,0.324-1.61,0.973-2.051s1.626-0.684,2.934-0.73
		l1.516-0.047v-0.383c0-0.886-0.453-1.328-1.359-1.328c-0.698,0-1.519,0.211-2.461,0.633l-0.789-1.609
		c1.005-0.526,2.12-0.789,3.344-0.789c1.172,0,2.07,0.255,2.695,0.766s0.938,1.286,0.938,2.328v5.82H516.095z M515.392,487.195
		l-0.922,0.031c-0.693,0.021-1.208,0.146-1.547,0.375c-0.339,0.229-0.508,0.578-0.508,1.047c0,0.672,0.385,1.008,1.156,1.008
		c0.552,0,0.993-0.159,1.324-0.477c0.331-0.317,0.496-0.739,0.496-1.266V487.195z"/>
	<path d="M522.595,491.242h-2.383v-12.156h2.383V491.242z"/>
</g>
<g>
	<rect x="81.747" y="479.082" fill="none" width="208.703" height="26.125"/>
	<path d="M158.485,491.398c-1.026,0-1.832-0.398-2.418-1.195s-0.879-1.901-0.879-3.312c0-1.433,0.298-2.548,0.895-3.348
		c0.596-0.8,1.418-1.199,2.465-1.199c1.099,0,1.938,0.427,2.516,1.281h0.078c-0.12-0.651-0.18-1.231-0.18-1.742v-2.797h2.391v12.156
		h-1.828l-0.461-1.133h-0.102C160.42,490.969,159.595,491.398,158.485,491.398z M159.321,489.5c0.609,0,1.056-0.177,1.34-0.531
		c0.284-0.354,0.438-0.956,0.465-1.805v-0.258c0-0.938-0.145-1.609-0.434-2.016s-0.759-0.609-1.41-0.609
		c-0.531,0-0.944,0.226-1.238,0.676c-0.294,0.45-0.441,1.105-0.441,1.965s0.148,1.504,0.445,1.934S158.769,489.5,159.321,489.5z"/>
	<path d="M170.704,482.344c1.031,0,1.838,0.402,2.422,1.207c0.583,0.805,0.875,1.907,0.875,3.309c0,1.442-0.301,2.56-0.902,3.352
		s-1.421,1.188-2.457,1.188c-1.026,0-1.831-0.372-2.414-1.117h-0.164l-0.398,0.961h-1.82v-12.156h2.383v2.828
		c0,0.359-0.031,0.935-0.094,1.727h0.094C168.785,482.776,169.61,482.344,170.704,482.344z M169.938,484.25
		c-0.589,0-1.019,0.181-1.289,0.543c-0.271,0.362-0.412,0.96-0.422,1.793v0.258c0,0.938,0.139,1.609,0.418,2.016
		c0.278,0.406,0.72,0.609,1.324,0.609c0.489,0,0.879-0.226,1.168-0.676s0.434-1.105,0.434-1.965s-0.146-1.504-0.438-1.934
		C170.842,484.465,170.443,484.25,169.938,484.25z"/>
	<path d="M181.251,479.82l-4.258,11.422h-2.164l4.258-11.422H181.251z"/>
	<path d="M185.345,491.398c-1.026,0-1.832-0.398-2.418-1.195s-0.879-1.901-0.879-3.312c0-1.433,0.298-2.548,0.895-3.348
		c0.596-0.8,1.418-1.199,2.465-1.199c1.099,0,1.938,0.427,2.516,1.281h0.078c-0.12-0.651-0.18-1.231-0.18-1.742v-2.797h2.391v12.156
		h-1.828l-0.461-1.133h-0.102C187.279,490.969,186.454,491.398,185.345,491.398z M186.181,489.5c0.609,0,1.056-0.177,1.34-0.531
		c0.284-0.354,0.438-0.956,0.465-1.805v-0.258c0-0.938-0.145-1.609-0.434-2.016s-0.759-0.609-1.41-0.609
		c-0.531,0-0.944,0.226-1.238,0.676c-0.294,0.45-0.441,1.105-0.441,1.965s0.148,1.504,0.445,1.934S185.628,489.5,186.181,489.5z"/>
	<path d="M198.251,491.242l-0.461-1.188h-0.062c-0.401,0.505-0.814,0.855-1.238,1.051c-0.425,0.195-0.978,0.293-1.66,0.293
		c-0.839,0-1.499-0.239-1.98-0.719c-0.482-0.479-0.723-1.161-0.723-2.047c0-0.927,0.324-1.61,0.973-2.051s1.626-0.684,2.934-0.73
		l1.516-0.047v-0.383c0-0.886-0.453-1.328-1.359-1.328c-0.698,0-1.519,0.211-2.461,0.633l-0.789-1.609
		c1.005-0.526,2.12-0.789,3.344-0.789c1.172,0,2.07,0.255,2.695,0.766s0.938,1.286,0.938,2.328v5.82H198.251z M197.548,487.195
		l-0.922,0.031c-0.693,0.021-1.208,0.146-1.547,0.375c-0.339,0.229-0.508,0.578-0.508,1.047c0,0.672,0.385,1.008,1.156,1.008
		c0.552,0,0.993-0.159,1.324-0.477c0.331-0.317,0.496-0.739,0.496-1.266V487.195z"/>
	<path d="M206.048,489.5c0.417,0,0.917-0.091,1.5-0.273V491c-0.594,0.266-1.323,0.398-2.188,0.398c-0.953,0-1.647-0.241-2.082-0.723
		c-0.435-0.481-0.652-1.204-0.652-2.168v-4.211h-1.141v-1.008l1.312-0.797l0.688-1.844h1.523v1.859h2.445v1.789h-2.445v4.211
		c0,0.339,0.095,0.589,0.285,0.75C205.484,489.419,205.735,489.5,206.048,489.5z"/>
	<path d="M214.86,491.242l-0.461-1.188h-0.062c-0.401,0.505-0.814,0.855-1.238,1.051c-0.425,0.195-0.978,0.293-1.66,0.293
		c-0.839,0-1.499-0.239-1.98-0.719c-0.482-0.479-0.723-1.161-0.723-2.047c0-0.927,0.324-1.61,0.973-2.051s1.626-0.684,2.934-0.73
		l1.516-0.047v-0.383c0-0.886-0.453-1.328-1.359-1.328c-0.698,0-1.519,0.211-2.461,0.633l-0.789-1.609
		c1.005-0.526,2.12-0.789,3.344-0.789c1.172,0,2.07,0.255,2.695,0.766s0.938,1.286,0.938,2.328v5.82H214.86z M214.157,487.195
		l-0.922,0.031c-0.693,0.021-1.208,0.146-1.547,0.375c-0.339,0.229-0.508,0.578-0.508,1.047c0,0.672,0.385,1.008,1.156,1.008
		c0.552,0,0.993-0.159,1.324-0.477c0.331-0.317,0.496-0.739,0.496-1.266V487.195z"/>
</g>
<g>
	<rect x="912.655" y="467.91" fill="none" width="208.703" height="26.125"/>
	<path d="M989.394,480.227c-1.026,0-1.832-0.398-2.418-1.195s-0.879-1.901-0.879-3.312c0-1.433,0.298-2.548,0.895-3.348
		s1.418-1.199,2.465-1.199c1.099,0,1.938,0.427,2.516,1.281h0.078c-0.12-0.651-0.18-1.231-0.18-1.742v-2.797h2.391v12.156h-1.828
		l-0.461-1.133h-0.102C991.328,479.797,990.503,480.227,989.394,480.227z M990.229,478.328c0.609,0,1.056-0.177,1.34-0.531
		s0.438-0.956,0.465-1.805v-0.258c0-0.938-0.145-1.609-0.434-2.016s-0.759-0.609-1.41-0.609c-0.531,0-0.944,0.226-1.238,0.676
		s-0.441,1.105-0.441,1.965s0.148,1.504,0.445,1.934S989.678,478.328,990.229,478.328z"/>
	<path d="M1001.612,471.172c1.031,0,1.839,0.402,2.422,1.207s0.875,1.907,0.875,3.309c0,1.442-0.301,2.56-0.902,3.352
		s-1.421,1.188-2.457,1.188c-1.026,0-1.831-0.372-2.414-1.117h-0.164l-0.398,0.961h-1.82v-12.156h2.383v2.828
		c0,0.359-0.031,0.935-0.094,1.727h0.094C999.693,471.604,1000.519,471.172,1001.612,471.172z M1000.847,473.078
		c-0.589,0-1.019,0.181-1.289,0.543s-0.411,0.96-0.422,1.793v0.258c0,0.938,0.14,1.609,0.418,2.016s0.72,0.609,1.324,0.609
		c0.489,0,0.879-0.226,1.168-0.676s0.434-1.105,0.434-1.965s-0.146-1.504-0.438-1.934S1001.352,473.078,1000.847,473.078z"/>
	<path d="M1012.159,468.648l-4.258,11.422h-2.164l4.258-11.422H1012.159z"/>
	<path d="M1016.253,480.227c-1.026,0-1.832-0.398-2.418-1.195s-0.879-1.901-0.879-3.312c0-1.433,0.298-2.548,0.895-3.348
		s1.418-1.199,2.465-1.199c1.099,0,1.938,0.427,2.516,1.281h0.078c-0.12-0.651-0.18-1.231-0.18-1.742v-2.797h2.391v12.156h-1.828
		l-0.461-1.133h-0.102C1018.188,479.797,1017.362,480.227,1016.253,480.227z M1017.089,478.328c0.609,0,1.056-0.177,1.34-0.531
		s0.438-0.956,0.465-1.805v-0.258c0-0.938-0.145-1.609-0.434-2.016s-0.759-0.609-1.41-0.609c-0.531,0-0.944,0.226-1.238,0.676
		s-0.441,1.105-0.441,1.965s0.148,1.504,0.445,1.934S1016.537,478.328,1017.089,478.328z"/>
	<path d="M1029.159,480.07l-0.461-1.188h-0.062c-0.401,0.505-0.813,0.855-1.238,1.051s-0.978,0.293-1.66,0.293
		c-0.839,0-1.499-0.239-1.98-0.719s-0.723-1.161-0.723-2.047c0-0.927,0.324-1.61,0.973-2.051s1.626-0.684,2.934-0.73l1.516-0.047
		v-0.383c0-0.886-0.453-1.328-1.359-1.328c-0.698,0-1.519,0.211-2.461,0.633l-0.789-1.609c1.005-0.526,2.12-0.789,3.344-0.789
		c1.172,0,2.07,0.255,2.695,0.766s0.938,1.286,0.938,2.328v5.82H1029.159z M1028.456,476.023l-0.922,0.031
		c-0.692,0.021-1.208,0.146-1.547,0.375s-0.508,0.578-0.508,1.047c0,0.672,0.386,1.008,1.156,1.008c0.552,0,0.993-0.159,1.324-0.477
		s0.496-0.739,0.496-1.266V476.023z"/>
	<path d="M1036.956,478.328c0.417,0,0.917-0.091,1.5-0.273v1.773c-0.594,0.266-1.323,0.398-2.188,0.398
		c-0.953,0-1.647-0.241-2.082-0.723s-0.652-1.204-0.652-2.168v-4.211h-1.141v-1.008l1.312-0.797l0.688-1.844h1.523v1.859h2.445
		v1.789h-2.445v4.211c0,0.339,0.095,0.589,0.285,0.75S1036.644,478.328,1036.956,478.328z"/>
	<path d="M1045.769,480.07l-0.461-1.188h-0.062c-0.401,0.505-0.813,0.855-1.238,1.051s-0.978,0.293-1.66,0.293
		c-0.839,0-1.499-0.239-1.98-0.719s-0.723-1.161-0.723-2.047c0-0.927,0.324-1.61,0.973-2.051s1.626-0.684,2.934-0.73l1.516-0.047
		v-0.383c0-0.886-0.453-1.328-1.359-1.328c-0.698,0-1.519,0.211-2.461,0.633l-0.789-1.609c1.005-0.526,2.12-0.789,3.344-0.789
		c1.172,0,2.07,0.255,2.695,0.766s0.938,1.286,0.938,2.328v5.82H1045.769z M1045.065,476.023l-0.922,0.031
		c-0.692,0.021-1.208,0.146-1.547,0.375s-0.508,0.578-0.508,1.047c0,0.672,0.386,1.008,1.156,1.008c0.552,0,0.993-0.159,1.324-0.477
		s0.496-0.739,0.496-1.266V476.023z"/>
</g>
<g enable-background="new    ">
	<rect x="81.747" y="499.426" fill="none" width="208.703" height="26.125"/>
	<path fill="#757575" d="M126.935,508.414c0,1.031-0.371,1.844-1.113,2.438s-1.775,0.891-3.098,0.891
		c-1.219,0-2.297-0.229-3.234-0.688v-2.25c0.771,0.344,1.423,0.586,1.957,0.727c0.534,0.141,1.022,0.211,1.465,0.211
		c0.531,0,0.938-0.102,1.223-0.305c0.284-0.203,0.426-0.505,0.426-0.906c0-0.224-0.062-0.423-0.188-0.598s-0.309-0.343-0.551-0.504
		s-0.736-0.419-1.48-0.773c-0.698-0.328-1.222-0.644-1.57-0.945c-0.349-0.302-0.628-0.653-0.836-1.055
		c-0.208-0.401-0.312-0.87-0.312-1.406c0-1.011,0.342-1.805,1.027-2.383c0.685-0.578,1.631-0.867,2.84-0.867
		c0.594,0,1.16,0.07,1.699,0.211s1.103,0.339,1.691,0.594l-0.781,1.883c-0.609-0.25-1.113-0.425-1.512-0.523
		s-0.791-0.148-1.176-0.148c-0.458,0-0.81,0.106-1.055,0.32c-0.245,0.214-0.367,0.492-0.367,0.836c0,0.214,0.049,0.399,0.148,0.559
		c0.099,0.159,0.256,0.312,0.473,0.461c0.216,0.148,0.728,0.415,1.535,0.801c1.067,0.511,1.799,1.022,2.195,1.535
		C126.736,507.04,126.935,507.669,126.935,508.414z"/>
	<path fill="#757575" d="M131.2,511.586h-2.383V499.43h2.383V511.586z"/>
	<path fill="#757575" d="M141.638,507.203c0,1.422-0.375,2.534-1.125,3.336s-1.794,1.203-3.133,1.203
		c-0.839,0-1.578-0.184-2.219-0.551s-1.133-0.895-1.477-1.582s-0.516-1.489-0.516-2.406c0-1.427,0.372-2.536,1.117-3.328
		c0.745-0.792,1.792-1.188,3.141-1.188c0.838,0,1.578,0.183,2.219,0.547s1.133,0.888,1.477,1.57S141.638,506.286,141.638,507.203z
		 M135.599,507.203c0,0.864,0.142,1.519,0.426,1.961c0.284,0.442,0.746,0.664,1.387,0.664c0.635,0,1.092-0.22,1.371-0.66
		c0.278-0.44,0.418-1.095,0.418-1.965c0-0.864-0.141-1.513-0.422-1.945s-0.742-0.648-1.383-0.648c-0.636,0-1.094,0.215-1.375,0.645
		S135.599,506.333,135.599,507.203z"/>
	<path fill="#757575" d="M150.786,511.586l-0.672-3.055l-0.906-3.859h-0.055l-1.594,6.914h-2.562l-2.484-8.734h2.375l1.008,3.867
		c0.161,0.692,0.325,1.648,0.492,2.867h0.047c0.021-0.396,0.112-1.023,0.273-1.883l0.125-0.664l1.078-4.188h2.625l1.023,4.188
		c0.021,0.114,0.053,0.284,0.098,0.508c0.044,0.224,0.087,0.462,0.129,0.715c0.042,0.253,0.079,0.5,0.113,0.742
		c0.034,0.242,0.053,0.437,0.059,0.582h0.047c0.047-0.375,0.13-0.89,0.25-1.543c0.12-0.653,0.206-1.095,0.258-1.324l1.047-3.867
		h2.336l-2.516,8.734H150.786z"/>
	<path fill="#757575" d="M156.966,504.016c0-0.438,0.117-0.769,0.352-0.992s0.575-0.336,1.023-0.336
		c0.432,0,0.767,0.114,1.004,0.344c0.237,0.229,0.355,0.558,0.355,0.984c0,0.422-0.121,0.749-0.363,0.98s-0.574,0.348-0.996,0.348
		c-0.438,0-0.776-0.114-1.016-0.344C157.085,504.771,156.966,504.442,156.966,504.016z M156.966,510.469
		c0-0.438,0.117-0.769,0.352-0.992s0.575-0.336,1.023-0.336c0.432,0,0.767,0.114,1.004,0.344c0.237,0.229,0.355,0.558,0.355,0.984
		c0,0.411-0.12,0.735-0.359,0.973c-0.24,0.237-0.573,0.355-1,0.355c-0.438,0-0.776-0.116-1.016-0.348
		C157.085,511.218,156.966,510.891,156.966,510.469z"/>
	<path fill="#757575" d="M168.63,507.203v4.383h-2.422v-11.422h3.328c1.552,0,2.7,0.282,3.445,0.848
		c0.745,0.565,1.117,1.423,1.117,2.574c0,0.672-0.185,1.27-0.555,1.793c-0.37,0.523-0.894,0.934-1.57,1.23
		c1.719,2.567,2.838,4.227,3.359,4.977h-2.688l-2.727-4.383H168.63z M168.63,505.234h0.781c0.766,0,1.331-0.128,1.695-0.383
		c0.364-0.255,0.547-0.656,0.547-1.203c0-0.542-0.187-0.927-0.559-1.156c-0.373-0.229-0.949-0.344-1.73-0.344h-0.734V505.234z"/>
	<path fill="#757575" d="M182.13,511.586l-0.461-1.188h-0.062c-0.401,0.505-0.814,0.855-1.238,1.051
		c-0.425,0.195-0.978,0.293-1.66,0.293c-0.839,0-1.499-0.239-1.98-0.719c-0.482-0.479-0.723-1.161-0.723-2.047
		c0-0.927,0.324-1.61,0.973-2.051s1.626-0.684,2.934-0.73l1.516-0.047v-0.383c0-0.886-0.453-1.328-1.359-1.328
		c-0.698,0-1.519,0.211-2.461,0.633l-0.789-1.609c1.005-0.526,2.12-0.789,3.344-0.789c1.172,0,2.07,0.255,2.695,0.766
		s0.938,1.286,0.938,2.328v5.82H182.13z M181.427,507.539l-0.922,0.031c-0.693,0.021-1.208,0.146-1.547,0.375
		c-0.339,0.229-0.508,0.578-0.508,1.047c0,0.672,0.385,1.008,1.156,1.008c0.552,0,0.993-0.159,1.324-0.477
		c0.331-0.317,0.496-0.739,0.496-1.266V507.539z"/>
	<path fill="#757575" d="M194.31,511.586h-2.383v-5.102c0-0.63-0.112-1.103-0.336-1.418c-0.224-0.315-0.581-0.473-1.07-0.473
		c-0.667,0-1.148,0.223-1.445,0.668s-0.445,1.184-0.445,2.215v4.109h-2.383v-8.734h1.82l0.32,1.117h0.133
		c0.266-0.422,0.631-0.741,1.098-0.957c0.466-0.216,0.996-0.324,1.59-0.324c1.016,0,1.786,0.274,2.312,0.824
		c0.526,0.55,0.789,1.343,0.789,2.379V511.586z"/>
	<path fill="#757575" d="M199.528,511.742c-1.026,0-1.832-0.398-2.418-1.195s-0.879-1.901-0.879-3.312
		c0-1.433,0.298-2.548,0.895-3.348c0.596-0.8,1.418-1.199,2.465-1.199c1.099,0,1.938,0.427,2.516,1.281h0.078
		c-0.12-0.651-0.18-1.231-0.18-1.742v-2.797h2.391v12.156h-1.828l-0.461-1.133h-0.102
		C201.463,511.312,200.638,511.742,199.528,511.742z M200.364,509.844c0.609,0,1.056-0.177,1.34-0.531
		c0.284-0.354,0.438-0.956,0.465-1.805v-0.258c0-0.938-0.145-1.609-0.434-2.016s-0.759-0.609-1.41-0.609
		c-0.531,0-0.944,0.226-1.238,0.676c-0.294,0.45-0.441,1.105-0.441,1.965s0.148,1.504,0.445,1.934S199.812,509.844,200.364,509.844z
		"/>
	<path fill="#757575" d="M214.825,507.203c0,1.422-0.375,2.534-1.125,3.336s-1.794,1.203-3.133,1.203
		c-0.839,0-1.578-0.184-2.219-0.551s-1.133-0.895-1.477-1.582s-0.516-1.489-0.516-2.406c0-1.427,0.372-2.536,1.117-3.328
		c0.745-0.792,1.792-1.188,3.141-1.188c0.838,0,1.578,0.183,2.219,0.547s1.133,0.888,1.477,1.57S214.825,506.286,214.825,507.203z
		 M208.786,507.203c0,0.864,0.142,1.519,0.426,1.961c0.284,0.442,0.746,0.664,1.387,0.664c0.635,0,1.092-0.22,1.371-0.66
		c0.278-0.44,0.418-1.095,0.418-1.965c0-0.864-0.141-1.513-0.422-1.945s-0.742-0.648-1.383-0.648c-0.636,0-1.094,0.215-1.375,0.645
		S208.786,506.333,208.786,507.203z"/>
	<path fill="#757575" d="M224.614,511.586h-2.383v-5.102c0-0.63-0.105-1.103-0.316-1.418s-0.543-0.473-0.996-0.473
		c-0.609,0-1.052,0.224-1.328,0.672c-0.276,0.448-0.414,1.185-0.414,2.211v4.109h-2.383v-8.734h1.82l0.32,1.117h0.133
		c0.234-0.401,0.573-0.715,1.016-0.941c0.442-0.227,0.95-0.34,1.523-0.34c1.307,0,2.192,0.427,2.656,1.281h0.211
		c0.234-0.406,0.579-0.722,1.035-0.945c0.456-0.224,0.97-0.336,1.543-0.336c0.989,0,1.738,0.254,2.246,0.762
		s0.762,1.321,0.762,2.441v5.695h-2.391v-5.102c0-0.63-0.105-1.103-0.316-1.418s-0.543-0.473-0.996-0.473
		c-0.583,0-1.02,0.208-1.309,0.625s-0.434,1.078-0.434,1.984V511.586z"/>
	<path fill="#757575" d="M236.849,511.586v-11.422h2.422v11.422H236.849z"/>
	<path fill="#757575" d="M252.513,505.859c0,1.891-0.469,3.344-1.406,4.359s-2.281,1.523-4.031,1.523s-3.094-0.508-4.031-1.523
		s-1.406-2.474-1.406-4.375s0.47-3.353,1.41-4.355c0.94-1.003,2.288-1.504,4.043-1.504c1.755,0,3.098,0.505,4.027,1.516
		S252.513,503.964,252.513,505.859z M244.177,505.859c0,1.276,0.242,2.237,0.727,2.883s1.208,0.969,2.172,0.969
		c1.932,0,2.898-1.284,2.898-3.852c0-2.573-0.961-3.859-2.883-3.859c-0.964,0-1.69,0.324-2.18,0.973
		C244.421,503.621,244.177,504.583,244.177,505.859z"/>
</g>
<g>
	<g>
		<path fill="#757575" d="M386.654,511.586h-2.383v-11.422h6.547v1.984h-4.164v2.945h3.875v1.977h-3.875V511.586z"/>
		<path fill="#757575" d="M398.412,511.586l-0.461-1.188h-0.062c-0.401,0.505-0.814,0.855-1.238,1.051
			c-0.425,0.195-0.978,0.293-1.66,0.293c-0.839,0-1.499-0.239-1.98-0.719c-0.482-0.479-0.723-1.161-0.723-2.047
			c0-0.927,0.324-1.61,0.973-2.051s1.626-0.684,2.934-0.73l1.516-0.047v-0.383c0-0.886-0.453-1.328-1.359-1.328
			c-0.698,0-1.519,0.211-2.461,0.633l-0.789-1.609c1.005-0.526,2.12-0.789,3.344-0.789c1.172,0,2.07,0.255,2.695,0.766
			s0.938,1.286,0.938,2.328v5.82H398.412z M397.709,507.539l-0.922,0.031c-0.693,0.021-1.208,0.146-1.547,0.375
			c-0.339,0.229-0.508,0.578-0.508,1.047c0,0.672,0.385,1.008,1.156,1.008c0.552,0,0.993-0.159,1.324-0.477
			c0.331-0.317,0.496-0.739,0.496-1.266V507.539z"/>
		<path fill="#757575" d="M408.623,508.992c0,0.896-0.312,1.578-0.934,2.047c-0.623,0.469-1.554,0.703-2.793,0.703
			c-0.636,0-1.177-0.043-1.625-0.129c-0.448-0.086-0.867-0.212-1.258-0.379v-1.969c0.442,0.208,0.941,0.383,1.496,0.523
			s1.043,0.211,1.465,0.211c0.864,0,1.297-0.25,1.297-0.75c0-0.188-0.058-0.34-0.172-0.457c-0.115-0.117-0.312-0.25-0.594-0.398
			s-0.656-0.321-1.125-0.52c-0.672-0.281-1.166-0.542-1.48-0.781c-0.315-0.239-0.544-0.515-0.688-0.824
			c-0.144-0.31-0.215-0.691-0.215-1.145c0-0.776,0.301-1.376,0.902-1.801s1.454-0.637,2.559-0.637c1.052,0,2.075,0.229,3.07,0.688
			l-0.719,1.719c-0.438-0.188-0.847-0.341-1.227-0.461c-0.38-0.12-0.769-0.18-1.164-0.18c-0.703,0-1.055,0.19-1.055,0.57
			c0,0.214,0.113,0.398,0.34,0.555s0.723,0.388,1.488,0.695c0.682,0.276,1.182,0.534,1.5,0.773c0.317,0.239,0.552,0.516,0.703,0.828
			C408.547,508.188,408.623,508.56,408.623,508.992z"/>
		<path fill="#757575" d="M414.162,509.844c0.417,0,0.917-0.091,1.5-0.273v1.773c-0.594,0.266-1.323,0.398-2.188,0.398
			c-0.953,0-1.647-0.241-2.082-0.723c-0.435-0.481-0.652-1.204-0.652-2.168v-4.211H409.6v-1.008l1.312-0.797l0.688-1.844h1.523
			v1.859h2.445v1.789h-2.445v4.211c0,0.339,0.095,0.589,0.285,0.75C413.598,509.763,413.85,509.844,414.162,509.844z"/>
		<path fill="#757575" d="M417.092,504.016c0-0.438,0.117-0.769,0.352-0.992s0.575-0.336,1.023-0.336
			c0.432,0,0.767,0.114,1.004,0.344c0.237,0.229,0.355,0.558,0.355,0.984c0,0.422-0.121,0.749-0.363,0.98s-0.574,0.348-0.996,0.348
			c-0.438,0-0.776-0.114-1.016-0.344C417.211,504.771,417.092,504.442,417.092,504.016z M417.092,510.469
			c0-0.438,0.117-0.769,0.352-0.992s0.575-0.336,1.023-0.336c0.432,0,0.767,0.114,1.004,0.344c0.237,0.229,0.355,0.558,0.355,0.984
			c0,0.411-0.12,0.735-0.359,0.973c-0.24,0.237-0.573,0.355-1,0.355c-0.438,0-0.776-0.116-1.016-0.348
			C417.211,511.218,417.092,510.891,417.092,510.469z"/>
		<path fill="#757575" d="M433.076,508.414c0,1.031-0.371,1.844-1.113,2.438s-1.775,0.891-3.098,0.891
			c-1.219,0-2.297-0.229-3.234-0.688v-2.25c0.771,0.344,1.423,0.586,1.957,0.727c0.534,0.141,1.022,0.211,1.465,0.211
			c0.531,0,0.938-0.102,1.223-0.305c0.284-0.203,0.426-0.505,0.426-0.906c0-0.224-0.062-0.423-0.188-0.598s-0.309-0.343-0.551-0.504
			s-0.736-0.419-1.48-0.773c-0.698-0.328-1.222-0.644-1.57-0.945c-0.349-0.302-0.628-0.653-0.836-1.055
			c-0.208-0.401-0.312-0.87-0.312-1.406c0-1.011,0.342-1.805,1.027-2.383c0.685-0.578,1.631-0.867,2.84-0.867
			c0.594,0,1.16,0.07,1.699,0.211s1.103,0.339,1.691,0.594l-0.781,1.883c-0.609-0.25-1.113-0.425-1.512-0.523
			s-0.791-0.148-1.176-0.148c-0.458,0-0.81,0.106-1.055,0.32c-0.245,0.214-0.367,0.492-0.367,0.836c0,0.214,0.049,0.399,0.148,0.559
			c0.099,0.159,0.256,0.312,0.473,0.461c0.216,0.148,0.728,0.415,1.535,0.801c1.067,0.511,1.799,1.022,2.195,1.535
			C432.878,507.04,433.076,507.669,433.076,508.414z"/>
		<path fill="#757575" d="M438.912,511.742c-1.406,0-2.505-0.388-3.297-1.164c-0.792-0.776-1.188-1.875-1.188-3.297
			c0-1.464,0.366-2.595,1.098-3.395c0.731-0.8,1.743-1.199,3.035-1.199c1.234,0,2.195,0.352,2.883,1.055s1.031,1.675,1.031,2.914
			v1.156h-5.633c0.026,0.677,0.227,1.206,0.602,1.586s0.901,0.57,1.578,0.57c0.526,0,1.023-0.055,1.492-0.164
			s0.958-0.284,1.469-0.523v1.844c-0.417,0.208-0.862,0.363-1.336,0.465C440.172,511.691,439.594,511.742,438.912,511.742z
			 M438.576,504.383c-0.505,0-0.901,0.16-1.188,0.48c-0.287,0.32-0.451,0.774-0.492,1.363h3.344
			c-0.011-0.589-0.164-1.043-0.461-1.363S439.081,504.383,438.576,504.383z"/>
		<path fill="#757575" d="M447.178,511.742c-1.031,0-1.839-0.397-2.422-1.191c-0.583-0.794-0.875-1.899-0.875-3.316
			c0-1.427,0.298-2.542,0.895-3.344c0.596-0.802,1.413-1.203,2.449-1.203c0.552,0,1.034,0.104,1.445,0.312
			c0.411,0.208,0.773,0.531,1.086,0.969h0.062l0.211-1.117h2.016v12.578h-2.391v-3.664c0-0.317,0.034-0.755,0.102-1.312h-0.102
			c-0.255,0.422-0.594,0.742-1.016,0.961S447.729,511.742,447.178,511.742z M448.029,509.875c0.604,0,1.047-0.173,1.328-0.52
			s0.435-0.952,0.461-1.816v-0.289c0-0.938-0.145-1.609-0.434-2.016s-0.754-0.609-1.395-0.609c-1.12,0-1.68,0.88-1.68,2.641
			c0,0.875,0.139,1.528,0.418,1.961C447.007,509.659,447.44,509.875,448.029,509.875z"/>
		<path fill="#757575" d="M460.725,511.586l-0.32-1.117h-0.125c-0.255,0.406-0.617,0.72-1.086,0.941s-1.003,0.332-1.602,0.332
			c-1.026,0-1.8-0.274-2.32-0.824c-0.521-0.55-0.781-1.34-0.781-2.371v-5.695h2.383v5.102c0,0.63,0.112,1.103,0.336,1.418
			c0.224,0.315,0.581,0.473,1.07,0.473c0.667,0,1.148-0.223,1.445-0.668s0.445-1.184,0.445-2.215v-4.109h2.383v8.734H460.725z"/>
		<path fill="#757575" d="M469.006,511.742c-1.406,0-2.505-0.388-3.297-1.164c-0.792-0.776-1.188-1.875-1.188-3.297
			c0-1.464,0.366-2.595,1.098-3.395c0.731-0.8,1.743-1.199,3.035-1.199c1.234,0,2.195,0.352,2.883,1.055s1.031,1.675,1.031,2.914
			v1.156h-5.633c0.026,0.677,0.227,1.206,0.602,1.586s0.901,0.57,1.578,0.57c0.526,0,1.023-0.055,1.492-0.164
			s0.958-0.284,1.469-0.523v1.844c-0.417,0.208-0.862,0.363-1.336,0.465C470.266,511.691,469.688,511.742,469.006,511.742z
			 M468.67,504.383c-0.505,0-0.901,0.16-1.188,0.48c-0.287,0.32-0.451,0.774-0.492,1.363h3.344
			c-0.011-0.589-0.164-1.043-0.461-1.363S469.175,504.383,468.67,504.383z"/>
		<path fill="#757575" d="M482.568,511.586h-2.383v-5.102c0-0.63-0.112-1.103-0.336-1.418c-0.224-0.315-0.581-0.473-1.07-0.473
			c-0.667,0-1.148,0.223-1.445,0.668s-0.445,1.184-0.445,2.215v4.109h-2.383v-8.734h1.82l0.32,1.117h0.133
			c0.266-0.422,0.631-0.741,1.098-0.957c0.466-0.216,0.996-0.324,1.59-0.324c1.016,0,1.786,0.274,2.312,0.824
			c0.526,0.55,0.789,1.343,0.789,2.379V511.586z"/>
		<path fill="#757575" d="M488.701,509.844c0.417,0,0.917-0.091,1.5-0.273v1.773c-0.594,0.266-1.323,0.398-2.188,0.398
			c-0.953,0-1.647-0.241-2.082-0.723c-0.435-0.481-0.652-1.204-0.652-2.168v-4.211h-1.141v-1.008l1.312-0.797l0.688-1.844h1.523
			v1.859h2.445v1.789h-2.445v4.211c0,0.339,0.095,0.589,0.285,0.75C488.137,509.763,488.389,509.844,488.701,509.844z"/>
		<path fill="#757575" d="M491.865,500.594c0-0.776,0.432-1.164,1.297-1.164c0.864,0,1.297,0.388,1.297,1.164
			c0,0.37-0.108,0.657-0.324,0.863c-0.216,0.206-0.541,0.309-0.973,0.309C492.297,501.766,491.865,501.375,491.865,500.594z
			 M494.35,511.586h-2.383v-8.734h2.383V511.586z"/>
		<path fill="#757575" d="M502.396,511.586l-0.461-1.188h-0.062c-0.401,0.505-0.814,0.855-1.238,1.051
			c-0.425,0.195-0.978,0.293-1.66,0.293c-0.839,0-1.499-0.239-1.98-0.719c-0.482-0.479-0.723-1.161-0.723-2.047
			c0-0.927,0.324-1.61,0.973-2.051s1.626-0.684,2.934-0.73l1.516-0.047v-0.383c0-0.886-0.453-1.328-1.359-1.328
			c-0.698,0-1.519,0.211-2.461,0.633l-0.789-1.609c1.005-0.526,2.12-0.789,3.344-0.789c1.172,0,2.07,0.255,2.695,0.766
			s0.938,1.286,0.938,2.328v5.82H502.396z M501.693,507.539l-0.922,0.031c-0.693,0.021-1.208,0.146-1.547,0.375
			c-0.339,0.229-0.508,0.578-0.508,1.047c0,0.672,0.385,1.008,1.156,1.008c0.552,0,0.993-0.159,1.324-0.477
			c0.331-0.317,0.496-0.739,0.496-1.266V507.539z"/>
		<path fill="#757575" d="M508.896,511.586h-2.383V499.43h2.383V511.586z"/>
		<path fill="#757575" d="M519.232,509.844c0.417,0,0.917-0.091,1.5-0.273v1.773c-0.594,0.266-1.323,0.398-2.188,0.398
			c-0.953,0-1.647-0.241-2.082-0.723c-0.435-0.481-0.652-1.204-0.652-2.168v-4.211h-1.141v-1.008l1.312-0.797l0.688-1.844h1.523
			v1.859h2.445v1.789h-2.445v4.211c0,0.339,0.095,0.589,0.285,0.75C518.668,509.763,518.92,509.844,519.232,509.844z"/>
		<path fill="#757575" d="M524.287,507.125l-2.812-4.273h2.703l1.695,2.781l1.711-2.781h2.703l-2.844,4.273l2.977,4.461h-2.711
			l-1.836-2.992l-1.844,2.992h-2.703L524.287,507.125z"/>
		<path fill="#757575" d="M543.084,511.586l-0.672-3.055l-0.906-3.859h-0.055l-1.594,6.914h-2.562l-2.484-8.734h2.375l1.008,3.867
			c0.161,0.692,0.325,1.648,0.492,2.867h0.047c0.021-0.396,0.112-1.023,0.273-1.883l0.125-0.664l1.078-4.188h2.625l1.023,4.188
			c0.021,0.114,0.053,0.284,0.098,0.508c0.044,0.224,0.087,0.462,0.129,0.715c0.042,0.253,0.079,0.5,0.113,0.742
			c0.034,0.242,0.053,0.437,0.059,0.582h0.047c0.047-0.375,0.13-0.89,0.25-1.543c0.12-0.653,0.206-1.095,0.258-1.324l1.047-3.867
			h2.336l-2.516,8.734H543.084z"/>
		<path fill="#757575" d="M554.475,502.688c0.323,0,0.591,0.023,0.805,0.07l-0.18,2.234c-0.193-0.052-0.427-0.078-0.703-0.078
			c-0.761,0-1.353,0.195-1.777,0.586c-0.425,0.391-0.637,0.938-0.637,1.641v4.445H549.6v-8.734h1.805l0.352,1.469h0.117
			c0.271-0.489,0.637-0.884,1.098-1.184S553.933,502.688,554.475,502.688z"/>
		<path fill="#757575" d="M556.764,500.594c0-0.776,0.432-1.164,1.297-1.164c0.864,0,1.297,0.388,1.297,1.164
			c0,0.37-0.108,0.657-0.324,0.863c-0.216,0.206-0.541,0.309-0.973,0.309C557.196,501.766,556.764,501.375,556.764,500.594z
			 M559.248,511.586h-2.383v-8.734h2.383V511.586z"/>
		<path fill="#757575" d="M565.428,509.844c0.417,0,0.917-0.091,1.5-0.273v1.773c-0.594,0.266-1.323,0.398-2.188,0.398
			c-0.953,0-1.647-0.241-2.082-0.723c-0.435-0.481-0.652-1.204-0.652-2.168v-4.211h-1.141v-1.008l1.312-0.797l0.688-1.844h1.523
			v1.859h2.445v1.789h-2.445v4.211c0,0.339,0.095,0.589,0.285,0.75C564.864,509.763,565.115,509.844,565.428,509.844z"/>
		<path fill="#757575" d="M572.646,511.742c-1.406,0-2.505-0.388-3.297-1.164c-0.792-0.776-1.188-1.875-1.188-3.297
			c0-1.464,0.366-2.595,1.098-3.395c0.731-0.8,1.743-1.199,3.035-1.199c1.234,0,2.195,0.352,2.883,1.055s1.031,1.675,1.031,2.914
			v1.156h-5.633c0.026,0.677,0.227,1.206,0.602,1.586s0.901,0.57,1.578,0.57c0.526,0,1.023-0.055,1.492-0.164
			s0.958-0.284,1.469-0.523v1.844c-0.417,0.208-0.862,0.363-1.336,0.465C573.907,511.691,573.329,511.742,572.646,511.742z
			 M572.311,504.383c-0.505,0-0.901,0.16-1.188,0.48c-0.287,0.32-0.451,0.774-0.492,1.363h3.344
			c-0.011-0.589-0.164-1.043-0.461-1.363S572.815,504.383,572.311,504.383z"/>
		<path fill="#757575" d="M584.24,508.992c0,0.896-0.312,1.578-0.934,2.047c-0.623,0.469-1.554,0.703-2.793,0.703
			c-0.636,0-1.177-0.043-1.625-0.129c-0.448-0.086-0.867-0.212-1.258-0.379v-1.969c0.442,0.208,0.941,0.383,1.496,0.523
			S580.17,510,580.592,510c0.864,0,1.297-0.25,1.297-0.75c0-0.188-0.058-0.34-0.172-0.457c-0.115-0.117-0.312-0.25-0.594-0.398
			s-0.656-0.321-1.125-0.52c-0.672-0.281-1.166-0.542-1.48-0.781c-0.315-0.239-0.544-0.515-0.688-0.824
			c-0.144-0.31-0.215-0.691-0.215-1.145c0-0.776,0.301-1.376,0.902-1.801s1.454-0.637,2.559-0.637c1.052,0,2.075,0.229,3.07,0.688
			l-0.719,1.719c-0.438-0.188-0.847-0.341-1.227-0.461c-0.38-0.12-0.769-0.18-1.164-0.18c-0.703,0-1.055,0.19-1.055,0.57
			c0,0.214,0.113,0.398,0.34,0.555s0.723,0.388,1.488,0.695c0.682,0.276,1.182,0.534,1.5,0.773c0.317,0.239,0.552,0.516,0.703,0.828
			C584.165,508.188,584.24,508.56,584.24,508.992z"/>
	</g>
</g>
<g>
	<rect x="492.786" y="313.826" fill="none" width="208.703" height="55.441"/>
	<path d="M500.455,322.253c0,0.967-0.348,1.729-1.043,2.285c-0.696,0.557-1.664,0.835-2.904,0.835c-1.143,0-2.153-0.215-3.032-0.645
		v-2.109c0.723,0.322,1.334,0.549,1.835,0.682c0.5,0.131,0.958,0.197,1.373,0.197c0.498,0,0.88-0.096,1.146-0.285
		c0.266-0.191,0.399-0.474,0.399-0.85c0-0.21-0.059-0.397-0.176-0.561c-0.117-0.164-0.29-0.321-0.516-0.473
		c-0.228-0.151-0.69-0.393-1.388-0.725c-0.654-0.309-1.145-0.604-1.472-0.887s-0.588-0.612-0.784-0.988s-0.293-0.815-0.293-1.318
		c0-0.947,0.321-1.692,0.963-2.234c0.642-0.542,1.529-0.812,2.662-0.812c0.557,0,1.088,0.065,1.593,0.197
		c0.506,0.132,1.034,0.317,1.586,0.557l-0.732,1.766c-0.571-0.234-1.044-0.398-1.417-0.491c-0.374-0.093-0.741-0.14-1.103-0.14
		c-0.43,0-0.759,0.101-0.989,0.301s-0.344,0.461-0.344,0.783c0,0.201,0.046,0.375,0.139,0.524c0.093,0.148,0.24,0.293,0.443,0.432
		c0.203,0.14,0.683,0.39,1.439,0.751c1.001,0.479,1.687,0.958,2.058,1.439C500.269,320.965,500.455,321.555,500.455,322.253z"/>
	<path d="M509.778,325.227h-2.234v-4.783c0-1.181-0.439-1.771-1.318-1.771c-0.625,0-1.077,0.212-1.355,0.637
		s-0.417,1.113-0.417,2.065v3.853h-2.234V313.83h2.234v2.322c0,0.181-0.017,0.605-0.051,1.273l-0.051,0.66h0.117
		c0.498-0.801,1.289-1.201,2.373-1.201c0.962,0,1.692,0.259,2.19,0.775c0.498,0.519,0.747,1.26,0.747,2.227V325.227z"/>
	<path d="M519.52,321.117c0,1.334-0.352,2.376-1.055,3.128s-1.682,1.128-2.937,1.128c-0.786,0-1.479-0.172-2.08-0.517
		c-0.601-0.344-1.062-0.839-1.384-1.483s-0.483-1.396-0.483-2.256c0-1.337,0.349-2.377,1.047-3.119s1.68-1.113,2.944-1.113
		c0.786,0,1.479,0.171,2.08,0.512c0.601,0.343,1.062,0.833,1.384,1.473S519.52,320.259,519.52,321.117z M513.858,321.117
		c0,0.812,0.133,1.424,0.399,1.839s0.7,0.622,1.3,0.622c0.596,0,1.024-0.206,1.286-0.618c0.261-0.413,0.392-1.026,0.392-1.843
		c0-0.81-0.132-1.418-0.396-1.823s-0.696-0.608-1.296-0.608c-0.596,0-1.025,0.202-1.289,0.604
		C513.99,319.693,513.858,320.303,513.858,321.117z"/>
	<path d="M525.936,316.885c0.303,0,0.554,0.021,0.754,0.065l-0.168,2.095c-0.181-0.049-0.4-0.073-0.659-0.073
		c-0.713,0-1.269,0.183-1.666,0.55c-0.398,0.365-0.597,0.879-0.597,1.537v4.168h-2.234v-8.188h1.692l0.33,1.377h0.11
		c0.254-0.459,0.597-0.829,1.029-1.109C524.958,317.024,525.428,316.885,525.936,316.885z"/>
	<path d="M531.626,323.594c0.391,0,0.859-0.086,1.406-0.257V325c-0.557,0.248-1.24,0.373-2.051,0.373
		c-0.894,0-1.544-0.226-1.952-0.678c-0.408-0.451-0.612-1.129-0.612-2.032v-3.948h-1.069v-0.944l1.23-0.747l0.645-1.729h1.428v1.743
		h2.292v1.677h-2.292v3.948c0,0.317,0.089,0.552,0.268,0.703C531.098,323.518,531.333,323.594,531.626,323.594z"/>
	<path d="M498.265,343.227h-2.271v-8.818h-2.908v-1.89h8.086v1.89h-2.908V343.227z"/>
	<path d="M511.478,343.227h-2.593l-2.49-4.051l-2.49,4.051h-2.432l3.552-5.522l-3.325-5.186h2.505l2.307,3.853l2.263-3.853h2.446
		l-3.362,5.31L511.478,343.227z"/>
	<path d="M518.956,343.227h-2.234v-10.708h6.138v1.86h-3.904v2.762h3.633v1.853h-3.633V343.227z"/>
	<path d="M527.012,343.227h-2.234V331.83h2.234V343.227z"/>
	<path d="M535.157,343.227l-0.3-1.047h-0.117c-0.239,0.381-0.579,0.675-1.018,0.882c-0.439,0.208-0.94,0.312-1.501,0.312
		c-0.962,0-1.687-0.258-2.175-0.772c-0.488-0.516-0.732-1.257-0.732-2.224v-5.339h2.234v4.782c0,0.592,0.105,1.034,0.315,1.33
		c0.21,0.295,0.544,0.443,1.003,0.443c0.625,0,1.077-0.209,1.355-0.627c0.278-0.417,0.417-1.109,0.417-2.076v-3.853h2.234v8.188
		H535.157z"/>
	<path d="M544.927,340.795c0,0.84-0.292,1.479-0.875,1.919c-0.584,0.439-1.457,0.659-2.619,0.659c-0.596,0-1.104-0.04-1.523-0.121
		c-0.42-0.08-0.813-0.198-1.179-0.355v-1.846c0.415,0.196,0.883,0.359,1.402,0.491c0.521,0.132,0.978,0.198,1.374,0.198
		c0.811,0,1.216-0.234,1.216-0.703c0-0.176-0.054-0.319-0.161-0.429c-0.107-0.11-0.293-0.234-0.557-0.374
		c-0.264-0.139-0.615-0.301-1.055-0.486c-0.63-0.264-1.093-0.508-1.388-0.732s-0.51-0.482-0.645-0.773
		c-0.134-0.29-0.201-0.648-0.201-1.072c0-0.728,0.282-1.291,0.846-1.688c0.564-0.398,1.364-0.597,2.399-0.597
		c0.986,0,1.946,0.215,2.878,0.645l-0.674,1.611c-0.41-0.176-0.793-0.32-1.15-0.433s-0.72-0.169-1.091-0.169
		c-0.659,0-0.989,0.179-0.989,0.535c0,0.2,0.106,0.373,0.319,0.52c0.212,0.146,0.677,0.364,1.395,0.652
		c0.64,0.259,1.108,0.501,1.406,0.725c0.298,0.226,0.518,0.484,0.659,0.777S544.927,340.39,544.927,340.795z"/>
	<path d="M554.229,343.227h-2.234v-4.783c0-1.181-0.439-1.771-1.318-1.771c-0.625,0-1.077,0.212-1.355,0.637
		s-0.417,1.113-0.417,2.065v3.853h-2.234V331.83h2.234v2.322c0,0.181-0.017,0.605-0.051,1.273l-0.051,0.66h0.117
		c0.498-0.801,1.289-1.201,2.373-1.201c0.962,0,1.692,0.259,2.19,0.775c0.498,0.519,0.747,1.26,0.747,2.227V343.227z"/>
	<path d="M494.134,361.227v-10.708h2.271v10.708H494.134z"/>
	<path d="M506.482,361.227h-2.234v-4.783c0-0.59-0.105-1.033-0.315-1.329c-0.21-0.295-0.544-0.442-1.003-0.442
		c-0.625,0-1.077,0.208-1.355,0.626c-0.278,0.417-0.417,1.109-0.417,2.076v3.853h-2.234v-8.188h1.707l0.3,1.048h0.125
		c0.249-0.396,0.592-0.695,1.029-0.897c0.437-0.203,0.934-0.304,1.491-0.304c0.952,0,1.675,0.257,2.168,0.772
		c0.493,0.515,0.74,1.259,0.74,2.229V361.227z"/>
	<path d="M512.232,359.594c0.391,0,0.859-0.086,1.406-0.257V361c-0.557,0.248-1.24,0.373-2.051,0.373
		c-0.894,0-1.544-0.226-1.952-0.678c-0.408-0.451-0.612-1.129-0.612-2.032v-3.948h-1.069v-0.944l1.23-0.747l0.645-1.729h1.428v1.743
		h2.292v1.677h-2.292v3.948c0,0.317,0.089,0.552,0.268,0.703C511.703,359.518,511.939,359.594,512.232,359.594z"/>
	<path d="M519,361.373c-1.318,0-2.349-0.363-3.091-1.092c-0.742-0.727-1.113-1.758-1.113-3.09c0-1.372,0.343-2.434,1.029-3.183
		c0.686-0.75,1.634-1.124,2.845-1.124c1.157,0,2.058,0.329,2.703,0.988s0.967,1.57,0.967,2.732v1.084h-5.281
		c0.024,0.635,0.212,1.13,0.564,1.486s0.845,0.535,1.479,0.535c0.493,0,0.959-0.052,1.399-0.154s0.898-0.266,1.377-0.49v1.729
		c-0.391,0.195-0.808,0.34-1.252,0.436C520.181,361.325,519.639,361.373,519,361.373z M518.685,354.474
		c-0.474,0-0.845,0.15-1.113,0.45c-0.269,0.301-0.422,0.727-0.461,1.278h3.135c-0.01-0.552-0.154-0.978-0.432-1.278
		C519.534,354.624,519.158,354.474,518.685,354.474z"/>
	<path d="M528.726,352.885c0.303,0,0.554,0.021,0.754,0.065l-0.168,2.095c-0.181-0.049-0.4-0.073-0.659-0.073
		c-0.713,0-1.269,0.183-1.666,0.55c-0.398,0.365-0.597,0.879-0.597,1.537v4.168h-2.234v-8.188h1.692l0.33,1.377h0.11
		c0.254-0.459,0.597-0.829,1.029-1.109C527.749,353.024,528.218,352.885,528.726,352.885z"/>
	<path d="M532.916,361.227l-3.12-8.188h2.336l1.582,4.665c0.176,0.592,0.286,1.15,0.33,1.678h0.044
		c0.024-0.469,0.134-1.027,0.33-1.678l1.575-4.665h2.336l-3.12,8.188H532.916z"/>
	<path d="M544.7,361.227l-0.432-1.113h-0.059c-0.376,0.474-0.763,0.802-1.161,0.985c-0.398,0.183-0.917,0.274-1.557,0.274
		c-0.786,0-1.405-0.225-1.856-0.674c-0.452-0.449-0.678-1.089-0.678-1.919c0-0.869,0.304-1.51,0.912-1.923
		c0.607-0.412,1.524-0.641,2.75-0.685l1.421-0.044v-0.359c0-0.829-0.425-1.244-1.274-1.244c-0.654,0-1.423,0.197-2.307,0.593
		l-0.74-1.509c0.942-0.493,1.987-0.74,3.135-0.74c1.099,0,1.941,0.24,2.527,0.719s0.879,1.206,0.879,2.182v5.457H544.7z
		 M544.041,357.433l-0.864,0.029c-0.649,0.02-1.133,0.137-1.45,0.352s-0.476,0.542-0.476,0.981c0,0.63,0.361,0.945,1.084,0.945
		c0.518,0,0.931-0.149,1.242-0.447c0.31-0.298,0.465-0.693,0.465-1.187V357.433z"/>
	<path d="M550.794,361.227h-2.234V349.83h2.234V361.227z"/>
</g>
<g>
	<rect x="140.36" y="313.826" fill="none" width="208.703" height="62.174"/>
	<path d="M141.708,325.227v-10.708h2.271v8.833h4.343v1.875H141.708z"/>
	<path d="M157.447,321.117c0,1.334-0.352,2.376-1.055,3.128s-1.682,1.128-2.937,1.128c-0.786,0-1.479-0.172-2.08-0.517
		c-0.601-0.344-1.062-0.839-1.384-1.483s-0.483-1.396-0.483-2.256c0-1.337,0.349-2.377,1.047-3.119s1.68-1.113,2.944-1.113
		c0.786,0,1.479,0.171,2.08,0.512c0.601,0.343,1.062,0.833,1.384,1.473S157.447,320.259,157.447,321.117z M151.786,321.117
		c0,0.812,0.133,1.424,0.399,1.839s0.7,0.622,1.3,0.622c0.596,0,1.024-0.206,1.286-0.618c0.261-0.413,0.392-1.026,0.392-1.843
		c0-0.81-0.132-1.418-0.396-1.823s-0.696-0.608-1.296-0.608c-0.596,0-1.025,0.202-1.289,0.604
		C151.917,319.693,151.786,320.303,151.786,321.117z"/>
	<path d="M166.852,325.227h-2.234v-4.783c0-0.59-0.105-1.033-0.315-1.329c-0.21-0.295-0.544-0.442-1.003-0.442
		c-0.625,0-1.077,0.208-1.355,0.626c-0.278,0.417-0.417,1.109-0.417,2.076v3.853h-2.234v-8.188H161l0.3,1.048h0.125
		c0.249-0.396,0.592-0.695,1.029-0.897c0.437-0.203,0.934-0.304,1.491-0.304c0.952,0,1.675,0.257,2.168,0.772
		c0.493,0.515,0.74,1.259,0.74,2.229V325.227z"/>
	<path d="M176.278,317.038v1.136l-1.282,0.329c0.234,0.366,0.352,0.776,0.352,1.23c0,0.879-0.307,1.563-0.919,2.055
		c-0.613,0.49-1.464,0.735-2.553,0.735l-0.403-0.021l-0.33-0.037c-0.229,0.176-0.344,0.372-0.344,0.586
		c0,0.322,0.41,0.484,1.23,0.484h1.392c0.898,0,1.583,0.192,2.054,0.578s0.707,0.952,0.707,1.699c0,0.957-0.399,1.699-1.197,2.227
		c-0.799,0.527-1.945,0.791-3.439,0.791c-1.143,0-2.016-0.199-2.619-0.597c-0.603-0.398-0.904-0.956-0.904-1.674
		c0-0.493,0.154-0.906,0.461-1.237c0.308-0.332,0.759-0.569,1.355-0.711c-0.229-0.098-0.43-0.258-0.601-0.479
		c-0.171-0.223-0.256-0.458-0.256-0.707c0-0.312,0.09-0.572,0.271-0.78c0.181-0.207,0.442-0.411,0.784-0.611
		c-0.43-0.186-0.771-0.483-1.022-0.894s-0.377-0.894-0.377-1.45c0-0.894,0.291-1.584,0.872-2.072s1.411-0.732,2.49-0.732
		c0.229,0,0.501,0.021,0.817,0.062c0.314,0.042,0.516,0.072,0.604,0.092H176.278z M169.957,326.384c0,0.308,0.147,0.55,0.443,0.726
		c0.295,0.176,0.709,0.264,1.241,0.264c0.801,0,1.428-0.11,1.882-0.33s0.681-0.52,0.681-0.9c0-0.309-0.134-0.521-0.403-0.638
		s-0.684-0.176-1.245-0.176H171.4c-0.41,0-0.753,0.097-1.029,0.289C170.095,325.812,169.957,326.066,169.957,326.384z
		 M170.77,319.719c0,0.444,0.101,0.796,0.304,1.055c0.202,0.259,0.511,0.389,0.926,0.389c0.42,0,0.728-0.13,0.923-0.389
		s0.293-0.61,0.293-1.055c0-0.986-0.405-1.479-1.216-1.479C171.18,318.239,170.77,318.732,170.77,319.719z"/>
	<path d="M150.592,337.77c0,1.764-0.501,3.113-1.505,4.051c-1.003,0.938-2.452,1.406-4.347,1.406h-3.032v-10.708h3.362
		c1.748,0,3.105,0.462,4.072,1.384C150.108,334.826,150.592,336.115,150.592,337.77z M148.233,337.828
		c0-2.299-1.016-3.449-3.047-3.449h-1.208v6.973h0.974C147.14,341.352,148.233,340.178,148.233,337.828z"/>
	<path d="M157.835,343.227l-0.432-1.113h-0.059c-0.376,0.474-0.763,0.802-1.161,0.985c-0.398,0.183-0.917,0.274-1.557,0.274
		c-0.786,0-1.405-0.225-1.856-0.674c-0.452-0.449-0.678-1.089-0.678-1.919c0-0.869,0.304-1.51,0.912-1.923
		c0.607-0.412,1.524-0.641,2.75-0.685l1.421-0.044v-0.359c0-0.829-0.425-1.244-1.274-1.244c-0.654,0-1.423,0.197-2.307,0.593
		l-0.74-1.509c0.942-0.493,1.987-0.74,3.135-0.74c1.099,0,1.941,0.24,2.527,0.719s0.879,1.206,0.879,2.182v5.457H157.835z
		 M157.176,339.433l-0.864,0.029c-0.649,0.02-1.133,0.137-1.45,0.352s-0.476,0.542-0.476,0.981c0,0.63,0.361,0.945,1.084,0.945
		c0.518,0,0.931-0.149,1.242-0.447c0.31-0.298,0.465-0.693,0.465-1.187V339.433z"/>
	<path d="M165.145,341.594c0.391,0,0.859-0.086,1.406-0.257V343c-0.557,0.248-1.24,0.373-2.051,0.373
		c-0.894,0-1.544-0.226-1.952-0.678c-0.408-0.451-0.612-1.129-0.612-2.032v-3.948h-1.069v-0.944l1.23-0.747l0.645-1.729h1.428v1.743
		h2.292v1.677h-2.292v3.948c0,0.317,0.089,0.552,0.268,0.703C164.616,341.518,164.852,341.594,165.145,341.594z"/>
	<path d="M173.407,343.227l-0.432-1.113h-0.059c-0.376,0.474-0.763,0.802-1.161,0.985c-0.398,0.183-0.917,0.274-1.557,0.274
		c-0.786,0-1.405-0.225-1.856-0.674c-0.452-0.449-0.678-1.089-0.678-1.919c0-0.869,0.304-1.51,0.912-1.923
		c0.607-0.412,1.524-0.641,2.75-0.685l1.421-0.044v-0.359c0-0.829-0.425-1.244-1.274-1.244c-0.654,0-1.423,0.197-2.307,0.593
		l-0.74-1.509c0.942-0.493,1.987-0.74,3.135-0.74c1.099,0,1.941,0.24,2.527,0.719s0.879,1.206,0.879,2.182v5.457H173.407z
		 M172.748,339.433l-0.864,0.029c-0.649,0.02-1.133,0.137-1.45,0.352s-0.476,0.542-0.476,0.981c0,0.63,0.361,0.945,1.084,0.945
		c0.518,0,0.931-0.149,1.242-0.447c0.31-0.298,0.465-0.693,0.465-1.187V339.433z"/>
	<path d="M183.573,343.227h-2.234v-10.708h6.138v1.86h-3.904v2.762h3.633v1.853h-3.633V343.227z"/>
	<path d="M191.629,343.227h-2.234V331.83h2.234V343.227z"/>
	<path d="M199.774,343.227l-0.3-1.047h-0.117c-0.239,0.381-0.579,0.675-1.018,0.882c-0.439,0.208-0.94,0.312-1.501,0.312
		c-0.962,0-1.687-0.258-2.175-0.772c-0.488-0.516-0.732-1.257-0.732-2.224v-5.339h2.234v4.782c0,0.592,0.105,1.034,0.315,1.33
		c0.21,0.295,0.544,0.443,1.003,0.443c0.625,0,1.077-0.209,1.355-0.627c0.278-0.417,0.417-1.109,0.417-2.076v-3.853h2.234v8.188
		H199.774z"/>
	<path d="M209.544,340.795c0,0.84-0.292,1.479-0.875,1.919c-0.584,0.439-1.457,0.659-2.619,0.659c-0.596,0-1.104-0.04-1.523-0.121
		c-0.42-0.08-0.813-0.198-1.179-0.355v-1.846c0.415,0.196,0.883,0.359,1.402,0.491c0.521,0.132,0.978,0.198,1.374,0.198
		c0.811,0,1.216-0.234,1.216-0.703c0-0.176-0.054-0.319-0.161-0.429c-0.107-0.11-0.293-0.234-0.557-0.374
		c-0.264-0.139-0.615-0.301-1.055-0.486c-0.63-0.264-1.093-0.508-1.388-0.732s-0.51-0.482-0.645-0.773
		c-0.134-0.29-0.201-0.648-0.201-1.072c0-0.728,0.282-1.291,0.846-1.688c0.564-0.398,1.364-0.597,2.399-0.597
		c0.986,0,1.946,0.215,2.878,0.645l-0.674,1.611c-0.41-0.176-0.793-0.32-1.15-0.433s-0.72-0.169-1.091-0.169
		c-0.659,0-0.989,0.179-0.989,0.535c0,0.2,0.106,0.373,0.319,0.52c0.212,0.146,0.677,0.364,1.395,0.652
		c0.64,0.259,1.108,0.501,1.406,0.725c0.298,0.226,0.518,0.484,0.659,0.777S209.544,340.39,209.544,340.795z"/>
	<path d="M218.846,343.227h-2.234v-4.783c0-1.181-0.439-1.771-1.318-1.771c-0.625,0-1.077,0.212-1.355,0.637
		s-0.417,1.113-0.417,2.065v3.853h-2.234V331.83h2.234v2.322c0,0.181-0.017,0.605-0.051,1.273l-0.051,0.66h0.117
		c0.498-0.801,1.289-1.201,2.373-1.201c0.962,0,1.692,0.259,2.19,0.775c0.498,0.519,0.747,1.26,0.747,2.227V343.227z"/>
	<path d="M141.708,361.227v-10.708h2.271v10.708H141.708z"/>
	<path d="M154.056,361.227h-2.234v-4.783c0-0.59-0.105-1.033-0.315-1.329c-0.21-0.295-0.544-0.442-1.003-0.442
		c-0.625,0-1.077,0.208-1.355,0.626c-0.278,0.417-0.417,1.109-0.417,2.076v3.853h-2.234v-8.188h1.707l0.3,1.048h0.125
		c0.249-0.396,0.592-0.695,1.029-0.897c0.437-0.203,0.934-0.304,1.491-0.304c0.952,0,1.675,0.257,2.168,0.772
		c0.493,0.515,0.74,1.259,0.74,2.229V361.227z"/>
	<path d="M159.806,359.594c0.391,0,0.859-0.086,1.406-0.257V361c-0.557,0.248-1.24,0.373-2.051,0.373
		c-0.894,0-1.544-0.226-1.952-0.678c-0.408-0.451-0.612-1.129-0.612-2.032v-3.948h-1.069v-0.944l1.23-0.747l0.645-1.729h1.428v1.743
		h2.292v1.677h-2.292v3.948c0,0.317,0.089,0.552,0.268,0.703C159.277,359.518,159.513,359.594,159.806,359.594z"/>
	<path d="M166.573,361.373c-1.318,0-2.349-0.363-3.091-1.092c-0.742-0.727-1.113-1.758-1.113-3.09c0-1.372,0.343-2.434,1.029-3.183
		c0.686-0.75,1.634-1.124,2.845-1.124c1.157,0,2.058,0.329,2.703,0.988s0.967,1.57,0.967,2.732v1.084h-5.281
		c0.024,0.635,0.212,1.13,0.564,1.486s0.845,0.535,1.479,0.535c0.493,0,0.959-0.052,1.399-0.154s0.898-0.266,1.377-0.49v1.729
		c-0.391,0.195-0.808,0.34-1.252,0.436C167.755,361.325,167.213,361.373,166.573,361.373z M166.258,354.474
		c-0.474,0-0.845,0.15-1.113,0.45c-0.269,0.301-0.422,0.727-0.461,1.278h3.135c-0.01-0.552-0.154-0.978-0.432-1.278
		C167.108,354.624,166.732,354.474,166.258,354.474z"/>
	<path d="M176.3,352.885c0.303,0,0.554,0.021,0.754,0.065l-0.168,2.095c-0.181-0.049-0.4-0.073-0.659-0.073
		c-0.713,0-1.269,0.183-1.666,0.55c-0.398,0.365-0.597,0.879-0.597,1.537v4.168h-2.234v-8.188h1.692l0.33,1.377h0.11
		c0.254-0.459,0.597-0.829,1.029-1.109C175.322,353.024,175.792,352.885,176.3,352.885z"/>
	<path d="M180.489,361.227l-3.12-8.188h2.336l1.582,4.665c0.176,0.592,0.286,1.15,0.33,1.678h0.044
		c0.024-0.469,0.134-1.027,0.33-1.678l1.575-4.665h2.336l-3.12,8.188H180.489z"/>
	<path d="M192.274,361.227l-0.432-1.113h-0.059c-0.376,0.474-0.763,0.802-1.161,0.985c-0.398,0.183-0.917,0.274-1.557,0.274
		c-0.786,0-1.405-0.225-1.856-0.674c-0.452-0.449-0.678-1.089-0.678-1.919c0-0.869,0.304-1.51,0.912-1.923
		c0.607-0.412,1.524-0.641,2.75-0.685l1.421-0.044v-0.359c0-0.829-0.425-1.244-1.274-1.244c-0.654,0-1.423,0.197-2.307,0.593
		l-0.74-1.509c0.942-0.493,1.987-0.74,3.135-0.74c1.099,0,1.941,0.24,2.527,0.719s0.879,1.206,0.879,2.182v5.457H192.274z
		 M191.615,357.433l-0.864,0.029c-0.649,0.02-1.133,0.137-1.45,0.352s-0.476,0.542-0.476,0.981c0,0.63,0.361,0.945,1.084,0.945
		c0.518,0,0.931-0.149,1.242-0.447c0.31-0.298,0.465-0.693,0.465-1.187V357.433z"/>
	<path d="M198.368,361.227h-2.234V349.83h2.234V361.227z"/>
</g>
<g>
	<rect x="956.23" y="234.363" fill="none" width="145.552" height="26.125"/>
	<path d="M973.719,249.563l-4.844-12.656h-0.078c0.091,1.003,0.137,2.194,0.137,3.574v9.082H967.4v-14.277h2.5l4.521,11.777h0.078
		l4.561-11.777h2.48v14.277h-1.66v-9.199c0-1.055,0.045-2.2,0.137-3.438h-0.078l-4.883,12.637H973.719z"/>
	<path d="M989.734,249.759c-1.582,0-2.831-0.481-3.746-1.445c-0.914-0.964-1.371-2.302-1.371-4.014c0-1.726,0.424-3.096,1.273-4.111
		s1.991-1.523,3.424-1.523c1.341,0,2.402,0.441,3.184,1.323s1.172,2.046,1.172,3.491v1.025h-7.373
		c0.032,1.257,0.35,2.21,0.951,2.861c0.603,0.651,1.451,0.977,2.545,0.977c1.152,0,2.291-0.241,3.418-0.723v1.445
		c-0.573,0.247-1.115,0.425-1.627,0.532C991.073,249.705,990.457,249.759,989.734,249.759z M989.295,240.022
		c-0.859,0-1.545,0.28-2.057,0.84c-0.511,0.56-0.812,1.335-0.902,2.324h5.596c0-1.022-0.229-1.805-0.684-2.349
		C990.792,240.294,990.141,240.022,989.295,240.022z"/>
	<path d="M1010.076,249.563v-6.963c0-0.853-0.183-1.492-0.547-1.919c-0.365-0.427-0.932-0.64-1.699-0.64
		c-1.01,0-1.755,0.29-2.236,0.869c-0.482,0.579-0.723,1.472-0.723,2.676v5.977h-1.621v-6.963c0-0.853-0.183-1.492-0.547-1.919
		c-0.365-0.427-0.935-0.64-1.709-0.64c-1.016,0-1.76,0.305-2.232,0.913c-0.472,0.608-0.707,1.606-0.707,2.993v5.615h-1.621V238.86
		h1.318l0.264,1.465h0.078c0.306-0.521,0.736-0.928,1.293-1.221s1.181-0.439,1.871-0.439c1.673,0,2.767,0.605,3.281,1.816h0.078
		c0.318-0.56,0.781-1.003,1.387-1.328s1.295-0.488,2.07-0.488c1.211,0,2.117,0.311,2.719,0.933c0.603,0.622,0.904,1.616,0.904,2.983
		v6.982H1010.076z"/>
	<path d="M1024.275,244.202c0,1.745-0.439,3.107-1.318,4.087s-2.094,1.47-3.643,1.47c-0.957,0-1.807-0.225-2.549-0.674
		s-1.315-1.094-1.719-1.934c-0.404-0.84-0.605-1.823-0.605-2.949c0-1.745,0.436-3.104,1.309-4.077
		c0.872-0.974,2.083-1.46,3.633-1.46c1.497,0,2.687,0.498,3.568,1.494C1023.834,241.155,1024.275,242.503,1024.275,244.202z
		 M1016.121,244.202c0,1.367,0.273,2.409,0.82,3.125s1.351,1.074,2.412,1.074c1.061,0,1.866-0.356,2.416-1.069
		c0.551-0.713,0.826-1.756,0.826-3.13c0-1.36-0.275-2.395-0.826-3.101c-0.55-0.706-1.361-1.06-2.436-1.06
		c-1.062,0-1.862,0.349-2.402,1.045C1016.391,241.783,1016.121,242.822,1016.121,244.202z"/>
	<path d="M1032,238.665c0.475,0,0.901,0.039,1.279,0.117l-0.225,1.504c-0.443-0.098-0.834-0.146-1.172-0.146
		c-0.866,0-1.607,0.352-2.223,1.055s-0.922,1.579-0.922,2.627v5.742h-1.621V238.86h1.338l0.186,1.982h0.078
		c0.396-0.696,0.875-1.233,1.436-1.611C1030.714,238.854,1031.329,238.665,1032,238.665z"/>
	<path d="M1033.582,238.86h1.738l2.344,6.104c0.514,1.394,0.833,2.399,0.957,3.018h0.078c0.084-0.332,0.262-0.9,0.531-1.704
		c0.271-0.804,1.154-3.276,2.652-7.417h1.738l-4.6,12.188c-0.456,1.204-0.988,2.059-1.598,2.563
		c-0.608,0.505-1.355,0.757-2.24,0.757c-0.495,0-0.983-0.056-1.465-0.166v-1.299c0.357,0.078,0.758,0.117,1.201,0.117
		c1.113,0,1.907-0.625,2.383-1.875l0.596-1.523L1033.582,238.86z"/>
	<path d="M1058.953,235.286h1.787l-5.146,14.277h-1.641l-5.117-14.277h1.758l3.281,9.238c0.377,1.062,0.677,2.093,0.898,3.096
		c0.234-1.055,0.54-2.106,0.918-3.154L1058.953,235.286z"/>
	<path d="M1062.322,235.96c0-0.371,0.091-0.643,0.273-0.815c0.182-0.173,0.41-0.259,0.684-0.259c0.26,0,0.484,0.088,0.674,0.264
		c0.188,0.176,0.283,0.446,0.283,0.811s-0.095,0.637-0.283,0.815c-0.189,0.179-0.414,0.269-0.674,0.269
		c-0.273,0-0.502-0.09-0.684-0.269C1062.413,236.597,1062.322,236.324,1062.322,235.96z M1064.08,249.563h-1.621V238.86h1.621
		V249.563z"/>
	<path d="M1072.039,249.759c-1.582,0-2.831-0.481-3.746-1.445c-0.914-0.964-1.371-2.302-1.371-4.014
		c0-1.726,0.424-3.096,1.273-4.111s1.991-1.523,3.424-1.523c1.341,0,2.402,0.441,3.184,1.323s1.172,2.046,1.172,3.491v1.025h-7.373
		c0.032,1.257,0.35,2.21,0.951,2.861c0.603,0.651,1.451,0.977,2.545,0.977c1.152,0,2.291-0.241,3.418-0.723v1.445
		c-0.573,0.247-1.115,0.425-1.627,0.532C1073.378,249.705,1072.762,249.759,1072.039,249.759z M1071.6,240.022
		c-0.859,0-1.545,0.28-2.057,0.84c-0.511,0.56-0.812,1.335-0.902,2.324h5.596c0-1.022-0.229-1.805-0.684-2.349
		C1073.097,240.294,1072.445,240.022,1071.6,240.022z"/>
	<path d="M1087.479,249.563l-1.963-6.279c-0.124-0.384-0.355-1.257-0.693-2.617h-0.078c-0.261,1.14-0.488,2.019-0.684,2.637
		l-2.021,6.26h-1.875l-2.92-10.703h1.699c0.689,2.688,1.215,4.736,1.576,6.143s0.568,2.354,0.621,2.842h0.078
		c0.071-0.371,0.187-0.852,0.346-1.44c0.16-0.589,0.299-1.057,0.416-1.401l1.963-6.143h1.758l1.914,6.143
		c0.364,1.12,0.611,2.061,0.742,2.822h0.078c0.025-0.234,0.096-0.596,0.209-1.084c0.114-0.488,0.793-3.115,2.037-7.881h1.68
		l-2.959,10.703H1087.479z"/>
</g>
<g>
	<rect x="359.211" y="235.363" fill="none" width="249.349" height="26.125"/>
	<path d="M426.141,254.323c-0.612,0-1.094-0.088-1.445-0.264v-1.416c0.462,0.13,0.944,0.195,1.445,0.195
		c0.645,0,1.134-0.195,1.47-0.586s0.503-0.954,0.503-1.689v-14.277h1.66v14.141c0,1.237-0.312,2.195-0.938,2.876
		S427.313,254.323,426.141,254.323z"/>
	<path d="M442.557,245.202c0,1.745-0.439,3.107-1.318,4.087s-2.093,1.47-3.643,1.47c-0.957,0-1.807-0.225-2.549-0.674
		s-1.315-1.094-1.719-1.934s-0.605-1.823-0.605-2.949c0-1.745,0.436-3.104,1.309-4.077s2.083-1.46,3.633-1.46
		c1.498,0,2.687,0.498,3.569,1.494S442.557,243.503,442.557,245.202z M434.403,245.202c0,1.367,0.273,2.409,0.82,3.125
		s1.351,1.074,2.412,1.074s1.867-0.356,2.417-1.069s0.825-1.756,0.825-3.13c0-1.36-0.275-2.395-0.825-3.101s-1.362-1.06-2.437-1.06
		c-1.061,0-1.862,0.349-2.402,1.045S434.403,243.822,434.403,245.202z"/>
	<path d="M446.922,239.86v6.943c0,0.872,0.199,1.523,0.596,1.953s1.019,0.645,1.865,0.645c1.12,0,1.938-0.306,2.456-0.918
		s0.776-1.611,0.776-2.998v-5.625h1.621v10.703h-1.338l-0.234-1.436h-0.088c-0.332,0.527-0.792,0.931-1.382,1.211
		s-1.261,0.42-2.017,0.42c-1.302,0-2.277-0.31-2.925-0.928s-0.972-1.608-0.972-2.969v-7.002H446.922z"/>
	<path d="M462.557,239.665c0.475,0,0.902,0.039,1.279,0.117l-0.225,1.504c-0.443-0.098-0.833-0.146-1.172-0.146
		c-0.866,0-1.606,0.352-2.222,1.055s-0.923,1.579-0.923,2.627v5.742h-1.621V239.86h1.338l0.186,1.982h0.078
		c0.397-0.696,0.875-1.233,1.436-1.611S461.887,239.665,462.557,239.665z"/>
	<path d="M473.163,250.563v-6.924c0-0.872-0.199-1.523-0.596-1.953s-1.019-0.645-1.865-0.645c-1.12,0-1.94,0.303-2.461,0.908
		s-0.781,1.604-0.781,2.998v5.615h-1.621V239.86h1.318l0.264,1.465h0.078c0.332-0.527,0.797-0.936,1.396-1.226
		s1.266-0.435,2.002-0.435c1.289,0,2.259,0.311,2.91,0.933s0.977,1.616,0.977,2.983v6.982H473.163z"/>
	<path d="M484.696,250.563l-0.322-1.523h-0.078c-0.534,0.671-1.066,1.125-1.597,1.362s-1.193,0.356-1.987,0.356
		c-1.061,0-1.893-0.273-2.495-0.82s-0.903-1.325-0.903-2.334c0-2.161,1.729-3.294,5.186-3.398l1.816-0.059v-0.664
		c0-0.84-0.181-1.46-0.542-1.86s-0.939-0.601-1.733-0.601c-0.892,0-1.901,0.273-3.027,0.82l-0.498-1.24
		c0.527-0.286,1.105-0.511,1.733-0.674s1.258-0.244,1.89-0.244c1.276,0,2.222,0.283,2.837,0.85s0.923,1.475,0.923,2.725v7.305
		H484.696z M481.034,249.421c1.009,0,1.802-0.276,2.378-0.83s0.864-1.328,0.864-2.324V245.3l-1.621,0.068
		c-1.289,0.046-2.218,0.246-2.788,0.601s-0.854,0.906-0.854,1.655c0,0.586,0.177,1.032,0.532,1.338S480.396,249.421,481.034,249.421
		z"/>
	<path d="M490.858,250.563h-1.621v-15.195h1.621V250.563z"/>
	<path d="M507.889,236.286h1.787l-5.146,14.277h-1.641l-5.117-14.277h1.758l3.281,9.238c0.377,1.062,0.677,2.093,0.898,3.096
		c0.234-1.055,0.541-2.106,0.918-3.154L507.889,236.286z"/>
	<path d="M511.258,236.96c0-0.371,0.091-0.643,0.273-0.815s0.41-0.259,0.684-0.259c0.26,0,0.485,0.088,0.674,0.264
		s0.283,0.446,0.283,0.811s-0.094,0.637-0.283,0.815s-0.414,0.269-0.674,0.269c-0.273,0-0.501-0.09-0.684-0.269
		S511.258,237.324,511.258,236.96z M513.016,250.563h-1.621V239.86h1.621V250.563z"/>
	<path d="M520.975,250.759c-1.582,0-2.831-0.481-3.745-1.445s-1.372-2.302-1.372-4.014c0-1.726,0.425-3.096,1.274-4.111
		s1.991-1.523,3.423-1.523c1.341,0,2.402,0.441,3.184,1.323s1.172,2.046,1.172,3.491v1.025h-7.373
		c0.033,1.257,0.35,2.21,0.952,2.861s1.45,0.977,2.544,0.977c1.152,0,2.292-0.241,3.418-0.723v1.445
		c-0.573,0.247-1.115,0.425-1.626,0.532S521.698,250.759,520.975,250.759z M520.536,241.022c-0.859,0-1.544,0.28-2.056,0.84
		s-0.812,1.335-0.903,2.324h5.596c0-1.022-0.228-1.805-0.684-2.349S521.382,241.022,520.536,241.022z"/>
	<path d="M536.415,250.563l-1.963-6.279c-0.124-0.384-0.355-1.257-0.693-2.617h-0.078c-0.26,1.14-0.488,2.019-0.684,2.637
		l-2.021,6.26H529.1l-2.92-10.703h1.699c0.69,2.688,1.216,4.736,1.577,6.143s0.568,2.354,0.62,2.842h0.078
		c0.072-0.371,0.187-0.852,0.347-1.44s0.298-1.057,0.415-1.401l1.963-6.143h1.758l1.914,6.143c0.365,1.12,0.612,2.061,0.742,2.822
		h0.078c0.026-0.234,0.096-0.596,0.21-1.084s0.792-3.115,2.036-7.881h1.68l-2.959,10.703H536.415z"/>
</g>
<g>
	<rect x="210.439" y="158.082" fill="none" width="249.349" height="26.125"/>
	<path d="M233.141,165.265h5.664v7.402c-0.918,0.3-1.782,0.51-2.593,0.63s-1.639,0.181-2.485,0.181c-2.155,0-3.8-0.633-4.937-1.899
		s-1.704-3.084-1.704-5.454c0-2.305,0.659-4.102,1.978-5.391s3.146-1.934,5.483-1.934c1.465,0,2.877,0.293,4.238,0.879l-1.006,2.422
		c-1.042-0.521-2.125-0.781-3.252-0.781c-1.309,0-2.357,0.439-3.145,1.318s-1.182,2.061-1.182,3.545c0,1.55,0.317,2.732,0.952,3.55
		s1.558,1.226,2.769,1.226c0.631,0,1.273-0.065,1.924-0.195v-2.979h-2.705V165.265z"/>
	<path d="M246.911,173.478c-1.758,0-3.131-0.485-4.121-1.455s-1.484-2.344-1.484-4.121c0-1.829,0.458-3.244,1.372-4.243
		s2.179-1.499,3.794-1.499c1.543,0,2.744,0.439,3.604,1.318s1.289,2.093,1.289,3.643v1.445h-7.041
		c0.033,0.847,0.283,1.507,0.752,1.982s1.126,0.713,1.973,0.713c0.658,0,1.279-0.068,1.865-0.205s1.198-0.354,1.836-0.654v2.305
		c-0.521,0.261-1.078,0.454-1.67,0.581S247.764,173.478,246.911,173.478z M246.491,164.278c-0.631,0-1.126,0.2-1.484,0.601
		s-0.563,0.969-0.615,1.704h4.18c-0.013-0.735-0.205-1.304-0.576-1.704S247.122,164.278,246.491,164.278z"/>
	<path d="M263.864,173.282h-2.979v-6.377c0-0.788-0.14-1.379-0.42-1.772s-0.726-0.591-1.338-0.591c-0.833,0-1.436,0.278-1.807,0.835
		s-0.557,1.479-0.557,2.769v5.137h-2.979v-10.918h2.275l0.4,1.396h0.166c0.332-0.527,0.79-0.926,1.372-1.196
		s1.245-0.405,1.987-0.405c1.27,0,2.233,0.344,2.891,1.03s0.986,1.678,0.986,2.974V173.282z"/>
	<path d="M271.872,173.478c-1.758,0-3.131-0.485-4.121-1.455s-1.484-2.344-1.484-4.121c0-1.829,0.458-3.244,1.372-4.243
		s2.179-1.499,3.794-1.499c1.543,0,2.744,0.439,3.604,1.318s1.289,2.093,1.289,3.643v1.445h-7.041
		c0.033,0.847,0.283,1.507,0.752,1.982s1.126,0.713,1.973,0.713c0.658,0,1.279-0.068,1.865-0.205s1.198-0.354,1.836-0.654v2.305
		c-0.521,0.261-1.078,0.454-1.67,0.581S272.725,173.478,271.872,173.478z M271.452,164.278c-0.631,0-1.126,0.2-1.484,0.601
		s-0.563,0.969-0.615,1.704h4.18c-0.013-0.735-0.205-1.304-0.576-1.704S272.083,164.278,271.452,164.278z"/>
	<path d="M284.84,162.159c0.404,0,0.739,0.029,1.006,0.088l-0.225,2.793c-0.241-0.065-0.534-0.098-0.879-0.098
		c-0.951,0-1.691,0.244-2.222,0.732s-0.796,1.172-0.796,2.051v5.557h-2.979v-10.918h2.256l0.439,1.836h0.146
		c0.338-0.612,0.796-1.105,1.372-1.479S284.163,162.159,284.84,162.159z"/>
	<path d="M294.762,173.282l-0.576-1.484h-0.078c-0.501,0.632-1.017,1.069-1.548,1.313s-1.222,0.366-2.075,0.366
		c-1.048,0-1.874-0.3-2.476-0.898s-0.903-1.452-0.903-2.559c0-1.159,0.405-2.014,1.216-2.563s2.033-0.854,3.667-0.913l1.895-0.059
		v-0.479c0-1.106-0.566-1.66-1.699-1.66c-0.873,0-1.898,0.264-3.076,0.791l-0.986-2.012c1.256-0.657,2.65-0.986,4.18-0.986
		c1.465,0,2.588,0.319,3.369,0.957s1.172,1.608,1.172,2.91v7.275H294.762z M293.883,168.224l-1.152,0.039
		c-0.866,0.026-1.51,0.183-1.934,0.469s-0.635,0.723-0.635,1.309c0,0.84,0.482,1.26,1.445,1.26c0.69,0,1.242-0.198,1.655-0.596
		s0.62-0.925,0.62-1.582V168.224z"/>
	<path d="M302.887,173.282h-2.979v-15.195h2.979V173.282z"/>
	<path d="M305.885,159.542c0-0.97,0.541-1.455,1.621-1.455s1.621,0.485,1.621,1.455c0,0.462-0.135,0.822-0.405,1.079
		s-0.675,0.386-1.216,0.386C306.426,161.007,305.885,160.519,305.885,159.542z M308.991,173.282h-2.979v-10.918h2.979V173.282z"/>
	<path d="M319.733,170.04c0,1.12-0.389,1.973-1.167,2.559s-1.942,0.879-3.491,0.879c-0.794,0-1.471-0.054-2.031-0.161
		s-1.084-0.266-1.572-0.474v-2.461c0.553,0.261,1.177,0.479,1.87,0.654s1.304,0.264,1.831,0.264c1.081,0,1.621-0.312,1.621-0.938
		c0-0.234-0.072-0.425-0.215-0.571s-0.391-0.312-0.742-0.498s-0.82-0.402-1.406-0.649c-0.84-0.352-1.457-0.677-1.851-0.977
		s-0.68-0.643-0.859-1.03s-0.269-0.864-0.269-1.431c0-0.97,0.376-1.721,1.128-2.251s1.818-0.796,3.198-0.796
		c1.315,0,2.594,0.286,3.838,0.859l-0.898,2.148c-0.547-0.234-1.058-0.427-1.533-0.576s-0.96-0.225-1.455-0.225
		c-0.879,0-1.318,0.237-1.318,0.713c0,0.267,0.142,0.498,0.425,0.693s0.903,0.485,1.86,0.869c0.853,0.345,1.478,0.667,1.875,0.967
		s0.69,0.645,0.879,1.035S319.733,169.5,319.733,170.04z"/>
	<path d="M326.999,173.478c-1.758,0-3.131-0.485-4.121-1.455s-1.484-2.344-1.484-4.121c0-1.829,0.458-3.244,1.372-4.243
		s2.179-1.499,3.794-1.499c1.543,0,2.744,0.439,3.604,1.318s1.289,2.093,1.289,3.643v1.445h-7.041
		c0.033,0.847,0.283,1.507,0.752,1.982s1.126,0.713,1.973,0.713c0.658,0,1.279-0.068,1.865-0.205s1.198-0.354,1.836-0.654v2.305
		c-0.521,0.261-1.078,0.454-1.67,0.581S327.852,173.478,326.999,173.478z M326.579,164.278c-0.631,0-1.126,0.2-1.484,0.601
		s-0.563,0.969-0.615,1.704h4.18c-0.013-0.735-0.205-1.304-0.576-1.704S327.21,164.278,326.579,164.278z"/>
	<path d="M337.331,173.478c-1.283,0-2.29-0.498-3.022-1.494s-1.099-2.376-1.099-4.141c0-1.79,0.373-3.186,1.118-4.185
		s1.772-1.499,3.081-1.499c1.374,0,2.422,0.534,3.145,1.602h0.098c-0.15-0.813-0.225-1.54-0.225-2.178v-3.496h2.988v15.195h-2.285
		l-0.576-1.416h-0.127C339.749,172.94,338.717,173.478,337.331,173.478z M338.375,171.104c0.762,0,1.32-0.222,1.675-0.664
		s0.548-1.194,0.581-2.256v-0.322c0-1.172-0.181-2.012-0.542-2.52s-0.949-0.762-1.763-0.762c-0.664,0-1.18,0.281-1.548,0.845
		s-0.552,1.382-0.552,2.456s0.186,1.88,0.557,2.417S337.686,171.104,338.375,171.104z"/>
	<path d="M363.805,166.007c0,2.351-0.669,4.15-2.007,5.4s-3.27,1.875-5.796,1.875h-4.043v-14.277h4.482
		c2.331,0,4.141,0.615,5.43,1.846S363.805,163.8,363.805,166.007z M360.661,166.085c0-3.066-1.354-4.6-4.062-4.6h-1.611v9.297h1.299
		C359.202,170.782,360.661,169.217,360.661,166.085z"/>
	<path d="M373.463,173.282l-0.576-1.484h-0.078c-0.501,0.632-1.017,1.069-1.548,1.313s-1.222,0.366-2.075,0.366
		c-1.048,0-1.874-0.3-2.476-0.898s-0.903-1.452-0.903-2.559c0-1.159,0.405-2.014,1.216-2.563s2.033-0.854,3.667-0.913l1.895-0.059
		v-0.479c0-1.106-0.566-1.66-1.699-1.66c-0.873,0-1.898,0.264-3.076,0.791l-0.986-2.012c1.256-0.657,2.65-0.986,4.18-0.986
		c1.465,0,2.588,0.319,3.369,0.957s1.172,1.608,1.172,2.91v7.275H373.463z M372.584,168.224l-1.152,0.039
		c-0.866,0.026-1.51,0.183-1.934,0.469s-0.635,0.723-0.635,1.309c0,0.84,0.482,1.26,1.445,1.26c0.69,0,1.242-0.198,1.655-0.596
		s0.62-0.925,0.62-1.582V168.224z"/>
	<path d="M383.209,171.104c0.521,0,1.146-0.114,1.875-0.342v2.217c-0.742,0.332-1.654,0.498-2.734,0.498
		c-1.191,0-2.059-0.301-2.603-0.903s-0.815-1.506-0.815-2.71v-5.264h-1.426v-1.26l1.641-0.996l0.859-2.305h1.904v2.324h3.057v2.236
		h-3.057v5.264c0,0.423,0.119,0.735,0.356,0.938S382.819,171.104,383.209,171.104z"/>
	<path d="M394.225,173.282l-0.576-1.484h-0.078c-0.501,0.632-1.017,1.069-1.548,1.313s-1.222,0.366-2.075,0.366
		c-1.048,0-1.874-0.3-2.476-0.898s-0.903-1.452-0.903-2.559c0-1.159,0.405-2.014,1.216-2.563s2.033-0.854,3.667-0.913l1.895-0.059
		v-0.479c0-1.106-0.566-1.66-1.699-1.66c-0.873,0-1.898,0.264-3.076,0.791l-0.986-2.012c1.256-0.657,2.65-0.986,4.18-0.986
		c1.465,0,2.588,0.319,3.369,0.957s1.172,1.608,1.172,2.91v7.275H394.225z M393.346,168.224l-1.152,0.039
		c-0.866,0.026-1.51,0.183-1.934,0.469s-0.635,0.723-0.635,1.309c0,0.84,0.482,1.26,1.445,1.26c0.69,0,1.242-0.198,1.655-0.596
		s0.62-0.925,0.62-1.582V168.224z"/>
	<path d="M405.446,162.159c1.289,0,2.298,0.503,3.027,1.509s1.094,2.385,1.094,4.136c0,1.804-0.376,3.2-1.128,4.189
		s-1.776,1.484-3.071,1.484c-1.283,0-2.289-0.466-3.018-1.396h-0.205l-0.498,1.201h-2.275v-15.195h2.979v3.535
		c0,0.449-0.039,1.169-0.117,2.158h0.117C403.047,162.699,404.079,162.159,405.446,162.159z M404.489,164.542
		c-0.736,0-1.273,0.227-1.611,0.679s-0.514,1.199-0.527,2.241v0.322c0,1.172,0.174,2.012,0.522,2.52s0.9,0.762,1.655,0.762
		c0.612,0,1.099-0.281,1.46-0.845s0.542-1.382,0.542-2.456s-0.182-1.88-0.547-2.417S405.12,164.542,404.489,164.542z"/>
	<path d="M418.961,173.282l-0.576-1.484h-0.078c-0.501,0.632-1.017,1.069-1.548,1.313s-1.222,0.366-2.075,0.366
		c-1.048,0-1.874-0.3-2.476-0.898s-0.903-1.452-0.903-2.559c0-1.159,0.405-2.014,1.216-2.563s2.033-0.854,3.667-0.913l1.895-0.059
		v-0.479c0-1.106-0.566-1.66-1.699-1.66c-0.873,0-1.898,0.264-3.076,0.791l-0.986-2.012c1.256-0.657,2.65-0.986,4.18-0.986
		c1.465,0,2.588,0.319,3.369,0.957s1.172,1.608,1.172,2.91v7.275H418.961z M418.083,168.224l-1.152,0.039
		c-0.866,0.026-1.51,0.183-1.934,0.469s-0.635,0.723-0.635,1.309c0,0.84,0.482,1.26,1.445,1.26c0.69,0,1.242-0.198,1.655-0.596
		s0.62-0.925,0.62-1.582V168.224z"/>
	<path d="M431.725,170.04c0,1.12-0.389,1.973-1.167,2.559s-1.942,0.879-3.491,0.879c-0.794,0-1.471-0.054-2.031-0.161
		s-1.084-0.266-1.572-0.474v-2.461c0.553,0.261,1.177,0.479,1.87,0.654s1.304,0.264,1.831,0.264c1.081,0,1.621-0.312,1.621-0.938
		c0-0.234-0.072-0.425-0.215-0.571s-0.391-0.312-0.742-0.498s-0.82-0.402-1.406-0.649c-0.84-0.352-1.457-0.677-1.851-0.977
		s-0.68-0.643-0.859-1.03s-0.269-0.864-0.269-1.431c0-0.97,0.376-1.721,1.128-2.251s1.818-0.796,3.198-0.796
		c1.315,0,2.594,0.286,3.838,0.859l-0.898,2.148c-0.547-0.234-1.058-0.427-1.533-0.576s-0.96-0.225-1.455-0.225
		c-0.879,0-1.318,0.237-1.318,0.713c0,0.267,0.142,0.498,0.425,0.693s0.903,0.485,1.86,0.869c0.853,0.345,1.478,0.667,1.875,0.967
		s0.69,0.645,0.879,1.035S431.725,169.5,431.725,170.04z"/>
	<path d="M438.991,173.478c-1.758,0-3.131-0.485-4.121-1.455s-1.484-2.344-1.484-4.121c0-1.829,0.458-3.244,1.372-4.243
		s2.179-1.499,3.794-1.499c1.543,0,2.744,0.439,3.604,1.318s1.289,2.093,1.289,3.643v1.445h-7.041
		c0.033,0.847,0.283,1.507,0.752,1.982s1.126,0.713,1.973,0.713c0.658,0,1.279-0.068,1.865-0.205s1.198-0.354,1.836-0.654v2.305
		c-0.521,0.261-1.078,0.454-1.67,0.581S439.844,173.478,438.991,173.478z M438.571,164.278c-0.631,0-1.126,0.2-1.484,0.601
		s-0.563,0.969-0.615,1.704h4.18c-0.013-0.735-0.205-1.304-0.576-1.704S439.202,164.278,438.571,164.278z"/>
</g>
<g>
	<rect x="897.036" y="158.082" fill="none" width="249.349" height="26.125"/>
	<path d="M924.133,173.282v-14.277h3.027v11.777h5.791v2.5H924.133z"/>
	<path d="M935.07,159.542c0-0.97,0.54-1.455,1.621-1.455c1.08,0,1.621,0.485,1.621,1.455c0,0.462-0.136,0.822-0.406,1.079
		c-0.27,0.257-0.675,0.386-1.215,0.386C935.61,161.007,935.07,160.519,935.07,159.542z M938.176,173.282h-2.979v-10.918h2.979
		V173.282z"/>
	<path d="M947.375,162.159c1.289,0,2.298,0.503,3.027,1.509c0.729,1.006,1.094,2.385,1.094,4.136c0,1.804-0.377,3.2-1.129,4.189
		s-1.775,1.484-3.07,1.484c-1.283,0-2.289-0.466-3.018-1.396h-0.205l-0.498,1.201h-2.275v-15.195h2.979v3.535
		c0,0.449-0.039,1.169-0.117,2.158h0.117C944.976,162.699,946.008,162.159,947.375,162.159z M946.418,164.542
		c-0.736,0-1.273,0.227-1.611,0.679c-0.339,0.452-0.515,1.199-0.527,2.241v0.322c0,1.172,0.174,2.012,0.521,2.52
		c0.349,0.508,0.9,0.762,1.656,0.762c0.611,0,1.098-0.281,1.459-0.845s0.543-1.382,0.543-2.456s-0.183-1.88-0.547-2.417
		C947.547,164.811,947.049,164.542,946.418,164.542z"/>
	<path d="M960.031,162.159c1.289,0,2.298,0.503,3.027,1.509c0.729,1.006,1.094,2.385,1.094,4.136c0,1.804-0.377,3.2-1.129,4.189
		s-1.775,1.484-3.07,1.484c-1.283,0-2.289-0.466-3.018-1.396h-0.205l-0.498,1.201h-2.275v-15.195h2.979v3.535
		c0,0.449-0.039,1.169-0.117,2.158h0.117C957.632,162.699,958.664,162.159,960.031,162.159z M959.074,164.542
		c-0.736,0-1.273,0.227-1.611,0.679c-0.339,0.452-0.515,1.199-0.527,2.241v0.322c0,1.172,0.174,2.012,0.521,2.52
		c0.349,0.508,0.9,0.762,1.656,0.762c0.611,0,1.098-0.281,1.459-0.845s0.543-1.382,0.543-2.456s-0.183-1.88-0.547-2.417
		C960.203,164.811,959.705,164.542,959.074,164.542z"/>
	<path d="M966.486,159.542c0-0.97,0.54-1.455,1.621-1.455c1.08,0,1.621,0.485,1.621,1.455c0,0.462-0.136,0.822-0.406,1.079
		c-0.27,0.257-0.675,0.386-1.215,0.386C967.026,161.007,966.486,160.519,966.486,159.542z M969.592,173.282h-2.979v-10.918h2.979
		V173.282z"/>
	<path d="M977.316,171.104c0.521,0,1.146-0.114,1.875-0.342v2.217c-0.742,0.332-1.654,0.498-2.734,0.498
		c-1.191,0-2.06-0.301-2.604-0.903c-0.543-0.603-0.814-1.506-0.814-2.71v-5.264h-1.426v-1.26l1.641-0.996l0.859-2.305h1.904v2.324
		h3.057v2.236h-3.057v5.264c0,0.423,0.118,0.735,0.355,0.938C976.611,171.004,976.926,171.104,977.316,171.104z"/>
	<path d="M985.832,173.478c-3.398,0-5.098-1.865-5.098-5.596c0-1.855,0.462-3.273,1.387-4.253c0.924-0.979,2.249-1.47,3.975-1.47
		c1.263,0,2.396,0.247,3.398,0.742l-0.879,2.305c-0.469-0.188-0.905-0.344-1.309-0.464c-0.404-0.12-0.808-0.181-1.211-0.181
		c-1.55,0-2.324,1.101-2.324,3.301c0,2.136,0.774,3.203,2.324,3.203c0.572,0,1.104-0.076,1.592-0.229s0.977-0.393,1.465-0.718v2.549
		c-0.482,0.306-0.969,0.518-1.461,0.635C987.2,173.419,986.58,173.478,985.832,173.478z"/>
	<path d="M1001.604,167.804c0,1.777-0.469,3.167-1.406,4.17s-2.243,1.504-3.916,1.504c-1.049,0-1.973-0.229-2.773-0.688
		s-1.416-1.118-1.846-1.978s-0.645-1.862-0.645-3.008c0-1.784,0.465-3.171,1.396-4.16c0.931-0.989,2.239-1.484,3.926-1.484
		c1.048,0,1.973,0.228,2.773,0.684s1.416,1.11,1.846,1.963S1001.604,166.658,1001.604,167.804z M994.055,167.804
		c0,1.081,0.177,1.897,0.531,2.451c0.355,0.554,0.934,0.83,1.734,0.83c0.794,0,1.365-0.275,1.713-0.825
		c0.349-0.55,0.523-1.369,0.523-2.456c0-1.081-0.176-1.892-0.527-2.432s-0.928-0.811-1.729-0.811c-0.795,0-1.367,0.269-1.719,0.806
		S994.055,166.717,994.055,167.804z"/>
	<path d="M1003.938,159.542c0-0.97,0.54-1.455,1.621-1.455c1.08,0,1.621,0.485,1.621,1.455c0,0.462-0.136,0.822-0.406,1.079
		c-0.27,0.257-0.675,0.386-1.215,0.386C1004.478,161.007,1003.938,160.519,1003.938,159.542z M1007.043,173.282h-2.979v-10.918
		h2.979V173.282z"/>
	<path d="M1020.246,173.282h-2.979v-6.377c0-0.788-0.141-1.379-0.42-1.772c-0.28-0.394-0.727-0.591-1.338-0.591
		c-0.834,0-1.436,0.278-1.807,0.835s-0.557,1.479-0.557,2.769v5.137h-2.979v-10.918h2.275l0.4,1.396h0.166
		c0.332-0.527,0.789-0.926,1.371-1.196c0.583-0.271,1.246-0.405,1.988-0.405c1.27,0,2.232,0.344,2.891,1.03
		c0.657,0.687,0.986,1.678,0.986,2.974V173.282z"/>
	<path d="M1040.588,166.007c0,2.351-0.67,4.15-2.008,5.4s-3.27,1.875-5.795,1.875h-4.043v-14.277h4.482
		c2.33,0,4.141,0.615,5.43,1.846S1040.588,163.8,1040.588,166.007z M1037.443,166.085c0-3.066-1.354-4.6-4.062-4.6h-1.611v9.297
		h1.299C1035.984,170.782,1037.443,169.217,1037.443,166.085z"/>
	<path d="M1050.246,173.282l-0.576-1.484h-0.078c-0.502,0.632-1.018,1.069-1.549,1.313c-0.53,0.244-1.222,0.366-2.074,0.366
		c-1.049,0-1.874-0.3-2.477-0.898c-0.602-0.599-0.902-1.452-0.902-2.559c0-1.159,0.404-2.014,1.215-2.563s2.033-0.854,3.668-0.913
		l1.895-0.059v-0.479c0-1.106-0.566-1.66-1.699-1.66c-0.873,0-1.898,0.264-3.076,0.791l-0.986-2.012
		c1.256-0.657,2.649-0.986,4.18-0.986c1.465,0,2.588,0.319,3.369,0.957s1.172,1.608,1.172,2.91v7.275H1050.246z M1049.367,168.224
		l-1.152,0.039c-0.866,0.026-1.511,0.183-1.934,0.469c-0.424,0.286-0.635,0.723-0.635,1.309c0,0.84,0.481,1.26,1.445,1.26
		c0.689,0,1.241-0.198,1.654-0.596c0.414-0.397,0.621-0.925,0.621-1.582V168.224z"/>
	<path d="M1059.992,171.104c0.521,0,1.146-0.114,1.875-0.342v2.217c-0.742,0.332-1.654,0.498-2.734,0.498
		c-1.191,0-2.06-0.301-2.604-0.903c-0.543-0.603-0.814-1.506-0.814-2.71v-5.264h-1.426v-1.26l1.641-0.996l0.859-2.305h1.904v2.324
		h3.057v2.236h-3.057v5.264c0,0.423,0.118,0.735,0.355,0.938C1059.287,171.004,1059.602,171.104,1059.992,171.104z"/>
	<path d="M1071.008,173.282l-0.576-1.484h-0.078c-0.502,0.632-1.018,1.069-1.549,1.313c-0.53,0.244-1.222,0.366-2.074,0.366
		c-1.049,0-1.874-0.3-2.477-0.898c-0.602-0.599-0.902-1.452-0.902-2.559c0-1.159,0.404-2.014,1.215-2.563s2.033-0.854,3.668-0.913
		l1.895-0.059v-0.479c0-1.106-0.566-1.66-1.699-1.66c-0.873,0-1.898,0.264-3.076,0.791l-0.986-2.012
		c1.256-0.657,2.649-0.986,4.18-0.986c1.465,0,2.588,0.319,3.369,0.957s1.172,1.608,1.172,2.91v7.275H1071.008z M1070.129,168.224
		l-1.152,0.039c-0.866,0.026-1.511,0.183-1.934,0.469c-0.424,0.286-0.635,0.723-0.635,1.309c0,0.84,0.481,1.26,1.445,1.26
		c0.689,0,1.241-0.198,1.654-0.596c0.414-0.397,0.621-0.925,0.621-1.582V168.224z"/>
	<path d="M1082.229,162.159c1.289,0,2.298,0.503,3.027,1.509c0.729,1.006,1.094,2.385,1.094,4.136c0,1.804-0.377,3.2-1.129,4.189
		s-1.775,1.484-3.07,1.484c-1.283,0-2.289-0.466-3.018-1.396h-0.205l-0.498,1.201h-2.275v-15.195h2.979v3.535
		c0,0.449-0.039,1.169-0.117,2.158h0.117C1079.829,162.699,1080.861,162.159,1082.229,162.159z M1081.271,164.542
		c-0.736,0-1.273,0.227-1.611,0.679c-0.339,0.452-0.515,1.199-0.527,2.241v0.322c0,1.172,0.174,2.012,0.521,2.52
		c0.349,0.508,0.9,0.762,1.656,0.762c0.611,0,1.098-0.281,1.459-0.845s0.543-1.382,0.543-2.456s-0.183-1.88-0.547-2.417
		C1082.4,164.811,1081.902,164.542,1081.271,164.542z"/>
	<path d="M1095.744,173.282l-0.576-1.484h-0.078c-0.502,0.632-1.018,1.069-1.549,1.313c-0.53,0.244-1.222,0.366-2.074,0.366
		c-1.049,0-1.874-0.3-2.477-0.898c-0.602-0.599-0.902-1.452-0.902-2.559c0-1.159,0.404-2.014,1.215-2.563s2.033-0.854,3.668-0.913
		l1.895-0.059v-0.479c0-1.106-0.566-1.66-1.699-1.66c-0.873,0-1.898,0.264-3.076,0.791l-0.986-2.012
		c1.256-0.657,2.649-0.986,4.18-0.986c1.465,0,2.588,0.319,3.369,0.957s1.172,1.608,1.172,2.91v7.275H1095.744z M1094.865,168.224
		l-1.152,0.039c-0.866,0.026-1.511,0.183-1.934,0.469c-0.424,0.286-0.635,0.723-0.635,1.309c0,0.84,0.481,1.26,1.445,1.26
		c0.689,0,1.241-0.198,1.654-0.596c0.414-0.397,0.621-0.925,0.621-1.582V168.224z"/>
	<path d="M1108.508,170.04c0,1.12-0.39,1.973-1.168,2.559c-0.777,0.586-1.941,0.879-3.49,0.879c-0.795,0-1.472-0.054-2.031-0.161
		c-0.561-0.107-1.084-0.266-1.572-0.474v-2.461c0.553,0.261,1.176,0.479,1.869,0.654s1.305,0.264,1.832,0.264
		c1.08,0,1.621-0.312,1.621-0.938c0-0.234-0.072-0.425-0.215-0.571c-0.144-0.146-0.391-0.312-0.742-0.498s-0.82-0.402-1.406-0.649
		c-0.84-0.352-1.457-0.677-1.852-0.977c-0.394-0.3-0.68-0.643-0.859-1.03c-0.179-0.388-0.268-0.864-0.268-1.431
		c0-0.97,0.375-1.721,1.127-2.251s1.818-0.796,3.199-0.796c1.314,0,2.594,0.286,3.838,0.859l-0.898,2.148
		c-0.547-0.234-1.059-0.427-1.533-0.576c-0.476-0.149-0.961-0.225-1.455-0.225c-0.879,0-1.318,0.237-1.318,0.713
		c0,0.267,0.141,0.498,0.424,0.693s0.904,0.485,1.861,0.869c0.853,0.345,1.478,0.667,1.875,0.967c0.396,0.3,0.689,0.645,0.879,1.035
		C1108.413,169.034,1108.508,169.5,1108.508,170.04z"/>
	<path d="M1115.773,173.478c-1.758,0-3.132-0.485-4.121-1.455c-0.99-0.97-1.484-2.344-1.484-4.121c0-1.829,0.457-3.244,1.371-4.243
		c0.915-0.999,2.18-1.499,3.795-1.499c1.543,0,2.744,0.439,3.604,1.318s1.289,2.093,1.289,3.643v1.445h-7.041
		c0.032,0.847,0.283,1.507,0.752,1.982s1.126,0.713,1.973,0.713c0.657,0,1.279-0.068,1.865-0.205s1.197-0.354,1.836-0.654v2.305
		c-0.521,0.261-1.078,0.454-1.67,0.581C1117.349,173.414,1116.626,173.478,1115.773,173.478z M1115.354,164.278
		c-0.632,0-1.127,0.2-1.484,0.601c-0.358,0.4-0.563,0.969-0.615,1.704h4.18c-0.014-0.735-0.205-1.304-0.576-1.704
		S1115.984,164.278,1115.354,164.278z"/>
</g>
<g>
	<g>
		
			<line fill="none" stroke="#000000" stroke-width="2" stroke-miterlimit="10" x1="122.019" y1="273.613" x2="122.019" y2="386.303"/>
		<g>
			<polygon points="122.019,397.176 115.758,381.854 122.019,385.489 128.278,381.854 			"/>
		</g>
	</g>
</g>
<g>
	<g>
		<line fill="none" stroke="#000000" stroke-miterlimit="10" x1="1103.832" y1="243.082" x2="1266.385" y2="243.082"/>
		<g>
			<rect x="1103.082" y="238.207" width="1.5" height="9.75"/>
		</g>
		<g>
			<polygon points="1264.926,248.068 1273.562,243.082 1264.926,238.096 			"/>
		</g>
	</g>
</g>
<g>
	<g>
		<line fill="none" stroke="#000000" stroke-miterlimit="10" x1="954.507" y1="243.082" x2="791.953" y2="243.082"/>
		<g>
			<rect x="953.757" y="238.207" width="1.5" height="9.75"/>
		</g>
		<g>
			<polygon points="793.412,238.096 784.777,243.082 793.412,248.068 			"/>
		</g>
	</g>
</g>
<g>
	<g>
		<line fill="none" stroke="#000000" stroke-miterlimit="10" x1="814.183" y1="449.625" x2="816.183" y2="449.625"/>
		
			<line fill="none" stroke="#000000" stroke-miterlimit="10" stroke-dasharray="4.0204,4.0204" x1="820.203" y1="449.625" x2="1003.131" y2="449.625"/>
		<line fill="none" stroke="#000000" stroke-miterlimit="10" x1="1005.141" y1="449.625" x2="1007.141" y2="449.625"/>
		<g>
			<rect x="813.933" y="448" width="0.5" height="3.25"/>
		</g>
	</g>
</g>
<g>
	<g>
		<line fill="none" stroke="#000000" stroke-miterlimit="10" x1="474.061" y1="463.167" x2="472.061" y2="463.167"/>
		
			<line fill="none" stroke="#000000" stroke-miterlimit="10" stroke-dasharray="3.8879,3.8879" x1="468.173" y1="463.167" x2="423.462" y2="463.167"/>
		<polyline fill="none" stroke="#000000" stroke-miterlimit="10" points="421.519,463.167 419.519,463.167 419.519,461.167 		"/>
		
			<line fill="none" stroke="#000000" stroke-miterlimit="10" stroke-dasharray="3.1807,3.1807" x1="419.519" y1="457.986" x2="419.519" y2="453.215"/>
		<polyline fill="none" stroke="#000000" stroke-miterlimit="10" points="419.519,451.625 419.519,449.625 421.519,449.625 		"/>
		
			<line fill="none" stroke="#000000" stroke-miterlimit="10" stroke-dasharray="4.0052,4.0052" x1="425.524" y1="449.625" x2="543.676" y2="449.625"/>
		<polyline fill="none" stroke="#000000" stroke-miterlimit="10" points="545.679,449.625 547.679,449.625 547.679,451.625 		"/>
		
			<line fill="none" stroke="#000000" stroke-miterlimit="10" stroke-dasharray="3.1807,3.1807" x1="547.679" y1="454.806" x2="547.679" y2="459.576"/>
		<polyline fill="none" stroke="#000000" stroke-miterlimit="10" points="547.679,461.167 547.679,463.167 545.679,463.167 		"/>
		
			<line fill="none" stroke="#000000" stroke-miterlimit="10" stroke-dasharray="3.9174,3.9174" x1="541.761" y1="463.167" x2="496.711" y2="463.167"/>
		<line fill="none" stroke="#000000" stroke-miterlimit="10" x1="494.753" y1="463.167" x2="492.753" y2="463.167"/>
		<g>
			<rect x="473.711" y="460.892" width="0.7" height="4.551"/>
		</g>
	</g>
</g>
<g>
	<g>
		
			<line fill="none" stroke="#000000" stroke-width="2" stroke-miterlimit="10" x1="473.238" y1="273.613" x2="473.238" y2="386.303"/>
		<g>
			<polygon points="473.238,397.176 466.978,381.854 473.238,385.489 479.498,381.854 			"/>
		</g>
	</g>
</g>
<g>
	<g>
		
			<line fill="none" stroke="#000000" stroke-width="2" stroke-miterlimit="10" x1="1017.006" y1="273.613" x2="1017.006" y2="386.303"/>
		<g>
			<polygon points="1017.006,397.176 1010.745,381.854 1017.006,385.489 1023.266,381.854 			"/>
		</g>
	</g>
</g>
<rect x="754.539" y="406.636" fill="none" stroke="#000000" stroke-miterlimit="10" width="10.935" height="34.924"/>
<rect x="772.848" y="406.636" fill="none" stroke="#000000" stroke-miterlimit="10" width="10.935" height="34.924"/>
<rect x="791.156" y="406.636" fill="none" stroke="#000000" stroke-miterlimit="10" width="10.935" height="34.924"/>
<rect x="809.465" y="406.636" width="10.936" height="34.924"/>
<rect x="827.773" y="406.636" width="10.936" height="34.924"/>
<rect x="846.082" y="406.636" width="10.936" height="34.924"/>
<rect x="864.391" y="406.636" width="10.936" height="34.924"/>
<rect x="882.699" y="406.636" width="10.936" height="34.924"/>
<rect x="901.008" y="406.636" width="10.936" height="34.924"/>
<rect x="919.316" y="406.636" width="10.936" height="34.924"/>
<rect x="937.625" y="406.636" width="10.936" height="34.924"/>
<rect x="955.934" y="406.636" width="10.936" height="34.924"/>
<rect x="974.243" y="406.636" width="10.935" height="34.924"/>
<rect x="992.552" y="406.636" width="10.935" height="34.924"/>
<rect x="1011.539" y="406.636" width="10.935" height="34.924"/>
<rect x="1029.848" y="406.636" fill="none" stroke="#000000" stroke-miterlimit="10" width="10.935" height="34.924"/>
<rect x="1048.156" y="406.636" fill="none" stroke="#000000" stroke-miterlimit="10" width="10.935" height="34.924"/>
<rect x="1066.465" y="406.636" fill="none" stroke="#000000" stroke-miterlimit="10" width="10.936" height="34.924"/>
<rect x="1084.773" y="406.636" fill="none" stroke="#000000" stroke-miterlimit="10" width="10.936" height="34.924"/>
<rect x="1103.082" y="406.636" fill="none" stroke="#000000" stroke-miterlimit="10" width="10.936" height="34.924"/>
<rect x="1121.391" y="406.636" fill="none" stroke="#000000" stroke-miterlimit="10" width="10.936" height="34.924"/>
<rect x="1139.699" y="406.636" fill="none" stroke="#000000" stroke-miterlimit="10" width="10.936" height="34.924"/>
<rect x="1158.008" y="406.636" fill="none" stroke="#000000" stroke-miterlimit="10" width="10.936" height="34.924"/>
<rect x="1176.316" y="406.636" fill="none" stroke="#000000" stroke-miterlimit="10" width="10.936" height="34.924"/>
<rect x="1194.625" y="406.636" fill="none" stroke="#000000" stroke-miterlimit="10" width="10.936" height="34.924"/>
<rect x="1212.934" y="406.636" fill="none" stroke="#000000" stroke-miterlimit="10" width="10.936" height="34.924"/>
<rect x="1231.243" y="406.636" fill="none" stroke="#000000" stroke-miterlimit="10" width="10.935" height="34.924"/>
<rect x="1249.552" y="406.636" fill="none" stroke="#000000" stroke-miterlimit="10" width="10.935" height="34.924"/>
<g>
	<g>
		<path fill="none" stroke="#000000" stroke-width="2" stroke-miterlimit="10" d="M456.136,391.947H345.5c-5.5,0-10-4.5-10-10
			V253.082c0-5.5-4.5-10-10-10h-5.607"/>
		<g>
			<polygon points="310.573,243.082 323.706,237.716 320.589,243.082 323.706,248.447 			"/>
		</g>
	</g>
</g>
<polygon fill="none" stroke="#000000" stroke-miterlimit="10" points="1014.308,449.625 999.975,449.625 999.975,454.333 "/>
<path d="M1024.833,449.625"/>
<polygon fill="none" stroke="#000000" stroke-miterlimit="10" points="485.587,463.167 499.92,463.167 499.92,467.875 "/>
<g>
</g>
<g>
</g>
<g>
</g>
</svg>
