<?xml version="1.0" encoding="utf-8"?>
<!-- Generator: Adobe Illustrator 16.0.4, SVG Export Plug-In . SVG Version: 6.00 Build 0)  -->
<!DOCTYPE svg PUBLIC "-//W3C//DTD SVG 1.1//EN" "http://www.w3.org/Graphics/SVG/1.1/DTD/svg11.dtd">
<svg version="1.1" id="Layer_1" xmlns="http://www.w3.org/2000/svg" xmlns:xlink="http://www.w3.org/1999/xlink" x="0px" y="0px"
	 width="1366px" height="768px" viewBox="0 0 1366 768" enable-background="new 0 0 1366 768" xml:space="preserve">
<g>
	<g>
		<circle fill="#2D4E6E" cx="153.671" cy="204.04" r="9.929"/>
		<g>
			<rect x="140.671" y="198.724" fill="none" width="26" height="11.746"/>
			<g enable-background="new    ">
				<path fill="#FFFFFF" d="M156.782,201.014c0,0.632-0.184,1.157-0.552,1.577c-0.368,0.421-0.886,0.703-1.553,0.849v0.055
					c0.799,0.1,1.399,0.349,1.798,0.745c0.399,0.397,0.6,0.926,0.6,1.584c0,0.959-0.338,1.697-1.015,2.218
					c-0.677,0.52-1.64,0.78-2.888,0.78c-1.104,0-2.035-0.18-2.793-0.539v-1.423c0.422,0.208,0.87,0.37,1.342,0.483
					s0.927,0.17,1.362,0.17c0.772,0,1.349-0.143,1.73-0.429s0.572-0.729,0.572-1.329c0-0.531-0.211-0.922-0.634-1.171
					c-0.422-0.25-1.085-0.375-1.989-0.375h-0.865v-1.301h0.879c1.589,0,2.384-0.55,2.384-1.648c0-0.427-0.139-0.757-0.416-0.988
					c-0.277-0.231-0.686-0.348-1.227-0.348c-0.377,0-0.74,0.054-1.09,0.16c-0.35,0.107-0.763,0.314-1.24,0.624l-0.783-1.117
					c0.913-0.673,1.973-1.009,3.181-1.009c1.003,0,1.787,0.216,2.35,0.647S156.782,200.256,156.782,201.014z"/>
			</g>
		</g>
	</g>
	<g enable-background="new    ">
		<g>
			<path fill="none" stroke="#97B2C3" stroke-miterlimit="10" d="M121.745,288.088c-8.255-26.102-4.11-65.714,19.927-79.549"/>
			<g>
				<polygon fill="#97B2C3" points="124.232,294.695 124.672,283.956 121.652,287.559 117.027,286.72 				"/>
			</g>
		</g>
	</g>
	
		<line fill="none" stroke="#000000" stroke-width="1.4487" stroke-miterlimit="10" x1="130.002" y1="316.989" x2="130.002" y2="280.833"/>
</g>
</svg>
