<?xml version="1.0" encoding="utf-8"?>
<!-- Generator: Adobe Illustrator 16.0.4, SVG Export Plug-In . SVG Version: 6.00 Build 0)  -->
<!DOCTYPE svg PUBLIC "-//W3C//DTD SVG 1.1//EN" "http://www.w3.org/Graphics/SVG/1.1/DTD/svg11.dtd">
<svg version="1.1" id="Layer_1" xmlns="http://www.w3.org/2000/svg" xmlns:xlink="http://www.w3.org/1999/xlink" x="0px" y="0px"
	 width="1366px" height="768px" viewBox="0 0 1366 768" enable-background="new 0 0 1366 768" xml:space="preserve">
<rect x="108.722" y="553.912" fill="none" width="28.973" height="20.281"/>
<g enable-background="new    ">
	<path d="M117.49,565.575v-1.792h5.789v1.792H117.49z"/>
	<path d="M125.649,563.783c0-3.388,0.658-5.921,1.975-7.599s3.264-2.518,5.842-2.518c0.888,0,1.587,0.075,2.099,0.225v1.686
		c-0.605-0.196-1.297-0.295-2.075-0.295c-1.847,0-3.258,0.576-4.232,1.728s-1.509,2.961-1.603,5.429h0.141
		c0.865-1.352,2.232-2.027,4.103-2.027c1.548,0,2.769,0.468,3.661,1.403c0.892,0.935,1.338,2.204,1.338,3.808
		c0,1.792-0.489,3.201-1.468,4.227s-2.301,1.538-3.967,1.538c-1.785,0-3.199-0.67-4.245-2.01S125.649,566.172,125.649,563.783z
		 M131.438,569.725c1.116,0,1.982-0.352,2.6-1.055s0.926-1.72,0.926-3.048c0-1.14-0.287-2.035-0.861-2.688
		c-0.574-0.652-1.431-0.979-2.57-0.979c-0.707,0-1.355,0.146-1.945,0.437c-0.589,0.291-1.059,0.691-1.409,1.202
		c-0.35,0.512-0.524,1.042-0.524,1.592c0,0.81,0.157,1.564,0.471,2.264c0.314,0.7,0.761,1.254,1.338,1.662
		C130.041,569.521,130.699,569.725,131.438,569.725z"/>
</g>
<rect x="108.722" y="606.579" fill="none" width="28.973" height="20.281"/>
<g enable-background="new    ">
	<path d="M117.49,618.242v-1.792h5.789v1.792H117.49z"/>
	<path d="M131.155,606.334c1.572,0,2.817,0.366,3.737,1.097c0.919,0.731,1.379,1.741,1.379,3.03c0,0.849-0.264,1.623-0.79,2.322
		c-0.527,0.7-1.368,1.336-2.523,1.91c1.399,0.668,2.393,1.369,2.983,2.104c0.589,0.734,0.884,1.586,0.884,2.553
		c0,1.43-0.5,2.571-1.498,3.425c-0.998,0.853-2.366,1.278-4.103,1.278c-1.839,0-3.254-0.402-4.245-1.208
		c-0.99-0.806-1.485-1.947-1.485-3.425c0-1.973,1.203-3.51,3.607-4.609c-1.084-0.613-1.862-1.275-2.334-1.987
		c-0.472-0.711-0.708-1.507-0.708-2.387c0-1.25,0.461-2.246,1.385-2.989C128.37,606.706,129.606,606.334,131.155,606.334z
		 M127.429,619.468c0,0.943,0.328,1.679,0.984,2.205s1.578,0.79,2.765,0.79c1.171,0,2.083-0.275,2.735-0.825
		c0.652-0.551,0.979-1.305,0.979-2.264c0-0.763-0.307-1.44-0.92-2.034c-0.613-0.593-1.682-1.169-3.207-1.727
		c-1.171,0.503-2.02,1.059-2.546,1.668C127.692,617.891,127.429,618.619,127.429,619.468z M131.131,607.926
		c-0.982,0-1.752,0.236-2.311,0.708c-0.558,0.471-0.837,1.1-0.837,1.886c0,0.724,0.231,1.344,0.695,1.863
		c0.464,0.519,1.321,1.037,2.57,1.556c1.124-0.472,1.919-0.979,2.387-1.521s0.702-1.175,0.702-1.898
		c0-0.794-0.285-1.425-0.855-1.892C132.913,608.16,132.129,607.926,131.131,607.926z"/>
</g>
<rect x="108.722" y="450.912" fill="none" width="28.973" height="20.281"/>
<g enable-background="new    ">
	<path d="M117.49,462.576v-1.792h5.789v1.792H117.49z"/>
	<path d="M136.778,468.152h-11.33v-1.686l4.539-4.562c1.383-1.399,2.295-2.397,2.735-2.995c0.44-0.597,0.77-1.179,0.99-1.745
		c0.22-0.565,0.33-1.175,0.33-1.827c0-0.92-0.279-1.648-0.837-2.187c-0.558-0.539-1.332-0.808-2.323-0.808
		c-0.715,0-1.393,0.117-2.034,0.354c-0.641,0.235-1.354,0.664-2.14,1.285l-1.038-1.332c1.588-1.321,3.317-1.981,5.188-1.981
		c1.619,0,2.889,0.415,3.808,1.244s1.379,1.943,1.379,3.343c0,1.092-0.307,2.173-0.919,3.242c-0.613,1.068-1.761,2.421-3.443,4.056
		l-3.772,3.689v0.095h8.866V468.152z"/>
</g>
<rect x="108.722" y="501.912" fill="none" width="28.973" height="20.281"/>
<g enable-background="new    ">
	<path d="M117.49,513.576v-1.792h5.789v1.792H117.49z"/>
	<path d="M137.592,515.191h-2.559v3.961h-1.875v-3.961h-8.382v-1.71l8.182-11.66h2.075v11.59h2.559V515.191z M133.159,513.411v-5.73
		c0-1.123,0.04-2.393,0.118-3.808h-0.094c-0.377,0.755-0.731,1.379-1.061,1.875l-5.388,7.663H133.159z"/>
</g>
<rect x="108.722" y="398.029" fill="none" width="28.973" height="20.278"/>
<g enable-background="new    ">
	<path d="M136.873,406.626c0,2.979-0.47,5.203-1.409,6.673c-0.939,1.47-2.375,2.204-4.309,2.204c-1.855,0-3.266-0.752-4.232-2.257
		c-0.967-1.506-1.45-3.712-1.45-6.62c0-3.003,0.467-5.23,1.403-6.685c0.935-1.454,2.362-2.182,4.28-2.182
		c1.871,0,3.291,0.759,4.262,2.275C136.387,401.553,136.873,403.749,136.873,406.626z M127.453,406.626
		c0,2.507,0.295,4.332,0.884,5.477c0.589,1.144,1.529,1.715,2.818,1.715c1.305,0,2.25-0.579,2.835-1.739
		c0.585-1.159,0.878-2.977,0.878-5.452s-0.292-4.29-0.878-5.441c-0.586-1.151-1.531-1.727-2.835-1.727
		c-1.289,0-2.229,0.567-2.818,1.703S127.453,404.119,127.453,406.626z"/>
</g>
<rect x="108.722" y="343.912" fill="none" width="28.973" height="20.281"/>
<g enable-background="new    ">
	<path d="M136.778,361.152h-11.33v-1.686l4.539-4.562c1.383-1.399,2.295-2.397,2.735-2.995c0.44-0.597,0.77-1.179,0.99-1.745
		c0.22-0.565,0.33-1.175,0.33-1.827c0-0.92-0.279-1.648-0.837-2.187c-0.558-0.539-1.332-0.808-2.323-0.808
		c-0.715,0-1.393,0.117-2.034,0.354c-0.641,0.235-1.354,0.664-2.14,1.285l-1.038-1.332c1.588-1.321,3.317-1.981,5.188-1.981
		c1.619,0,2.889,0.415,3.808,1.244s1.379,1.943,1.379,3.343c0,1.092-0.307,2.173-0.919,3.242c-0.613,1.068-1.761,2.421-3.443,4.056
		l-3.772,3.689v0.095h8.866V361.152z"/>
</g>
<rect x="108.722" y="293.912" fill="none" width="28.973" height="20.281"/>
<g enable-background="new    ">
	<path d="M137.592,307.191h-2.559v3.961h-1.875v-3.961h-8.382v-1.71l8.182-11.66h2.075v11.59h2.559V307.191z M133.159,305.411v-5.73
		c0-1.123,0.04-2.393,0.118-3.808h-0.094c-0.377,0.755-0.731,1.379-1.061,1.875l-5.388,7.663H133.159z"/>
</g>
<rect x="108.722" y="193.004" fill="none" width="28.973" height="20.28"/>
<g enable-background="new    ">
	<path d="M131.155,192.76c1.572,0,2.817,0.366,3.737,1.097c0.919,0.731,1.379,1.741,1.379,3.03c0,0.849-0.264,1.623-0.79,2.322
		c-0.527,0.7-1.368,1.336-2.523,1.91c1.399,0.668,2.393,1.369,2.983,2.104c0.589,0.734,0.884,1.586,0.884,2.553
		c0,1.43-0.5,2.571-1.498,3.425c-0.998,0.853-2.366,1.278-4.103,1.278c-1.839,0-3.254-0.402-4.245-1.208
		c-0.99-0.806-1.485-1.947-1.485-3.425c0-1.973,1.203-3.51,3.607-4.609c-1.084-0.613-1.862-1.275-2.334-1.987
		c-0.472-0.711-0.708-1.507-0.708-2.387c0-1.25,0.461-2.246,1.385-2.989C128.37,193.132,129.606,192.76,131.155,192.76z
		 M127.429,205.894c0,0.943,0.328,1.679,0.984,2.205s1.578,0.79,2.765,0.79c1.171,0,2.083-0.275,2.735-0.825
		c0.652-0.551,0.979-1.305,0.979-2.264c0-0.763-0.307-1.44-0.92-2.034c-0.613-0.593-1.682-1.169-3.207-1.727
		c-1.171,0.503-2.02,1.059-2.546,1.668C127.692,204.316,127.429,205.045,127.429,205.894z M131.131,194.352
		c-0.982,0-1.752,0.236-2.311,0.708c-0.558,0.471-0.837,1.1-0.837,1.886c0,0.724,0.231,1.344,0.695,1.863
		c0.464,0.519,1.321,1.037,2.57,1.556c1.124-0.472,1.919-0.979,2.387-1.521s0.702-1.175,0.702-1.898
		c0-0.794-0.285-1.425-0.855-1.892C132.913,194.586,132.129,194.352,131.131,194.352z"/>
</g>
<rect x="108.722" y="242.913" fill="none" width="28.973" height="20.28"/>
<g enable-background="new    ">
	<path d="M125.649,252.784c0-3.388,0.658-5.921,1.975-7.599s3.264-2.518,5.842-2.518c0.888,0,1.587,0.075,2.099,0.225v1.686
		c-0.605-0.196-1.297-0.295-2.075-0.295c-1.847,0-3.258,0.576-4.232,1.728s-1.509,2.961-1.603,5.429h0.141
		c0.865-1.352,2.232-2.027,4.103-2.027c1.548,0,2.769,0.468,3.661,1.403c0.892,0.935,1.338,2.204,1.338,3.808
		c0,1.792-0.489,3.201-1.468,4.227s-2.301,1.538-3.967,1.538c-1.785,0-3.199-0.67-4.245-2.01S125.649,255.173,125.649,252.784z
		 M131.438,258.726c1.116,0,1.982-0.352,2.6-1.055s0.926-1.72,0.926-3.048c0-1.14-0.287-2.035-0.861-2.688
		c-0.574-0.652-1.431-0.979-2.57-0.979c-0.707,0-1.355,0.146-1.945,0.437c-0.589,0.291-1.059,0.691-1.409,1.202
		c-0.35,0.512-0.524,1.042-0.524,1.592c0,0.81,0.157,1.564,0.471,2.264c0.314,0.7,0.761,1.254,1.338,1.662
		C130.041,258.521,130.699,258.726,131.438,258.726z"/>
</g>
<rect x="313.263" y="643.336" fill="none" width="28.973" height="20.279"/>
<g enable-background="new    ">
	<path d="M333.64,651.933c0,2.979-0.47,5.203-1.409,6.673c-0.939,1.47-2.375,2.204-4.309,2.204c-1.855,0-3.266-0.752-4.232-2.257
		c-0.967-1.506-1.45-3.712-1.45-6.62c0-3.003,0.467-5.23,1.403-6.685c0.935-1.454,2.362-2.182,4.28-2.182
		c1.871,0,3.291,0.759,4.262,2.275C333.155,646.859,333.64,649.056,333.64,651.933z M324.22,651.933
		c0,2.507,0.295,4.332,0.884,5.477c0.589,1.144,1.529,1.715,2.818,1.715c1.305,0,2.25-0.579,2.835-1.739
		c0.585-1.159,0.878-2.977,0.878-5.452s-0.292-4.29-0.878-5.441c-0.586-1.151-1.531-1.727-2.835-1.727
		c-1.289,0-2.229,0.567-2.818,1.703S324.22,649.426,324.22,651.933z"/>
</g>
<rect x="388.079" y="643.336" fill="none" width="28.973" height="20.279"/>
<g enable-background="new    ">
	<path d="M404.283,660.574h-1.91v-12.285c0-1.021,0.031-1.988,0.094-2.899c-0.165,0.165-0.35,0.338-0.554,0.519
		c-0.205,0.181-1.14,0.947-2.806,2.299l-1.038-1.344l4.562-3.525h1.651V660.574z"/>
</g>
<rect x="238.445" y="643.336" fill="none" width="28.973" height="20.279"/>
<g enable-background="new    ">
	<path d="M242.514,654.998v-1.792h5.789v1.792H242.514z"/>
	<path d="M257.723,660.574h-1.91v-12.285c0-1.021,0.031-1.988,0.094-2.899c-0.165,0.165-0.35,0.338-0.554,0.519
		c-0.205,0.181-1.14,0.947-2.806,2.299l-1.038-1.344l4.562-3.525h1.651V660.574z"/>
</g>
<rect x="163.629" y="643.336" fill="none" width="28.973" height="20.279"/>
<g enable-background="new    ">
	<path d="M167.697,654.998v-1.792h5.789v1.792H167.697z"/>
	<path d="M186.985,660.574h-11.33v-1.686l4.539-4.562c1.383-1.399,2.295-2.397,2.735-2.995c0.44-0.597,0.77-1.179,0.99-1.745
		c0.22-0.565,0.33-1.175,0.33-1.827c0-0.92-0.279-1.648-0.837-2.187c-0.558-0.539-1.332-0.808-2.323-0.808
		c-0.715,0-1.393,0.117-2.034,0.354c-0.641,0.235-1.354,0.664-2.14,1.285l-1.038-1.332c1.588-1.321,3.317-1.981,5.188-1.981
		c1.619,0,2.889,0.415,3.808,1.244s1.379,1.943,1.379,3.343c0,1.092-0.307,2.173-0.919,3.242c-0.613,1.068-1.761,2.421-3.443,4.056
		l-3.772,3.689v0.095h8.866V660.574z"/>
</g>
<rect x="462.896" y="643.336" fill="none" width="28.973" height="20.279"/>
<g enable-background="new    ">
	<path d="M483.178,660.574h-11.33v-1.686l4.539-4.562c1.383-1.399,2.295-2.397,2.735-2.995c0.44-0.597,0.77-1.179,0.99-1.745
		c0.22-0.565,0.33-1.175,0.33-1.827c0-0.92-0.279-1.648-0.837-2.187c-0.558-0.539-1.332-0.808-2.323-0.808
		c-0.715,0-1.393,0.117-2.034,0.354c-0.641,0.235-1.354,0.664-2.14,1.285l-1.038-1.332c1.588-1.321,3.317-1.981,5.188-1.981
		c1.619,0,2.889,0.415,3.808,1.244s1.379,1.943,1.379,3.343c0,1.092-0.307,2.173-0.919,3.242c-0.613,1.068-1.761,2.421-3.443,4.056
		l-3.772,3.689v0.095h8.866V660.574z"/>
</g>
<rect x="537.712" y="643.336" fill="none" width="28.973" height="20.279"/>
<g enable-background="new    ">
	<path d="M557.346,647.394c0,1.101-0.309,2-0.925,2.7c-0.617,0.699-1.492,1.167-2.624,1.402v0.095
		c1.383,0.173,2.409,0.612,3.077,1.32c0.668,0.707,1.002,1.635,1.002,2.782c0,1.643-0.57,2.906-1.709,3.79
		c-1.14,0.885-2.758,1.326-4.857,1.326c-0.912,0-1.747-0.068-2.505-0.206c-0.759-0.138-1.496-0.379-2.21-0.725v-1.863
		c0.747,0.37,1.542,0.65,2.387,0.843c0.845,0.193,1.645,0.289,2.399,0.289c2.979,0,4.468-1.167,4.468-3.501
		c0-2.091-1.643-3.137-4.928-3.137h-1.698v-1.686h1.721c1.344,0,2.409-0.297,3.195-0.89c0.786-0.594,1.179-1.417,1.179-2.471
		c0-0.841-0.289-1.501-0.867-1.98s-1.361-0.719-2.352-0.719c-0.754,0-1.466,0.102-2.134,0.307c-0.668,0.204-1.431,0.581-2.287,1.132
		l-0.99-1.321c0.708-0.558,1.522-0.996,2.446-1.314c0.923-0.318,1.896-0.478,2.918-0.478c1.674,0,2.975,0.384,3.902,1.149
		C556.882,645.006,557.346,646.058,557.346,647.394z"/>
</g>
<line opacity="0.1" fill="none" stroke="#000000" stroke-width="1.4487" stroke-miterlimit="10" enable-background="new    " x1="402.698" y1="622.857" x2="402.698" y2="193.004"/>
<line opacity="0.1" fill="none" stroke="#000000" stroke-width="1.4487" stroke-miterlimit="10" enable-background="new    " x1="477.448" y1="622.857" x2="477.448" y2="193.004"/>
<line opacity="0.1" fill="none" stroke="#000000" stroke-width="1.4487" stroke-miterlimit="10" enable-background="new    " x1="179.115" y1="622.857" x2="179.115" y2="193.004"/>
<line opacity="0.1" fill="none" stroke="#000000" stroke-width="1.4487" stroke-miterlimit="10" enable-background="new    " x1="253.865" y1="622.857" x2="253.865" y2="193.004"/>
<line opacity="0.1" fill="none" stroke="#000000" stroke-width="1.4487" stroke-miterlimit="10" enable-background="new    " x1="552.198" y1="622.857" x2="552.198" y2="193.004"/>
<line opacity="0.1" fill="none" stroke="#000000" stroke-width="1.4487" stroke-miterlimit="10" enable-background="new    " x1="151.524" y1="253.053" x2="581.378" y2="253.053"/>
<line opacity="0.1" fill="none" stroke="#000000" stroke-width="1.4487" stroke-miterlimit="10" enable-background="new    " x1="167.524" y1="202.145" x2="597.378" y2="202.145"/>
<line opacity="0.1" fill="none" stroke="#000000" stroke-width="1.4487" stroke-miterlimit="10" enable-background="new    " x1="151.524" y1="304.053" x2="581.378" y2="304.053"/>
<line opacity="0.1" fill="none" stroke="#000000" stroke-width="1.4487" stroke-miterlimit="10" enable-background="new    " x1="151.524" y1="354.053" x2="581.378" y2="354.053"/>
<line opacity="0.1" fill="none" stroke="#000000" stroke-width="1.4487" stroke-miterlimit="10" enable-background="new    " x1="151.524" y1="461.053" x2="581.378" y2="461.053"/>
<line opacity="0.1" fill="none" stroke="#000000" stroke-width="1.4487" stroke-miterlimit="10" enable-background="new    " x1="151.524" y1="512.053" x2="581.378" y2="512.053"/>
<line opacity="0.1" fill="none" stroke="#000000" stroke-width="1.4487" stroke-miterlimit="10" enable-background="new    " x1="151.524" y1="564.053" x2="581.378" y2="564.053"/>
<line opacity="0.1" fill="none" stroke="#000000" stroke-width="1.4487" stroke-miterlimit="10" enable-background="new    " x1="151.524" y1="615.72" x2="581.378" y2="615.72"/>
<path fill="none" stroke="#E15218" stroke-width="3" stroke-miterlimit="10" d="M185.448,407.449c0,22.104,14,73.021,142.5,69.354
	c108.971-3.108,161.75,30.25,253.43,107.25"/>
<path fill="none" stroke="#E15218" stroke-width="3" stroke-miterlimit="10" d="M185.448,406.64c0-22.104,14-73.02,142.5-69.353
	c108.971,3.109,161.75-30.25,253.43-107.25"/>
<g>
	<g>
		
			<line fill="none" stroke="#000000" stroke-width="1.449" stroke-miterlimit="10" x1="424.5" y1="614.979" x2="424.5" y2="612.479"/>
		
			<line fill="none" stroke="#000000" stroke-width="1.449" stroke-miterlimit="10" stroke-dasharray="5.0506,5.0506" x1="424.5" y1="607.429" x2="424.5" y2="205.907"/>
		
			<line fill="none" stroke="#000000" stroke-width="1.449" stroke-miterlimit="10" x1="424.5" y1="203.382" x2="424.5" y2="200.882"/>
		<g>
			<polygon points="424.5,622.857 429.036,611.757 424.5,614.391 419.965,611.757 			"/>
		</g>
		<g>
			<polygon points="424.5,193.004 429.036,204.105 424.5,201.471 419.965,204.105 			"/>
		</g>
	</g>
</g>
<g>
	<g>
		
			<line fill="none" stroke="#000000" stroke-width="1.449" stroke-miterlimit="10" x1="185.448" y1="614.979" x2="185.448" y2="612.479"/>
		
			<line fill="none" stroke="#000000" stroke-width="1.449" stroke-miterlimit="10" stroke-dasharray="5.0506,5.0506" x1="185.448" y1="607.429" x2="185.448" y2="205.907"/>
		
			<line fill="none" stroke="#000000" stroke-width="1.449" stroke-miterlimit="10" x1="185.448" y1="203.382" x2="185.448" y2="200.882"/>
		<g>
			<polygon points="185.448,622.857 189.984,611.757 185.448,614.391 180.914,611.757 			"/>
		</g>
		<g>
			<polygon points="185.448,193.004 189.984,204.105 185.448,201.471 180.914,204.105 			"/>
		</g>
	</g>
</g>
<circle cx="504.782" cy="289.165" r="3.536"/>
<circle cx="185.448" cy="407.449" r="3.536"/>
<circle cx="424.5" cy="487.108" r="3.536"/>
<circle cx="424.5" cy="326.799" r="3.536"/>
<rect x="431.627" y="300.321" fill="none" width="47.746" height="31.745"/>
<g enable-background="new    ">
	<path d="M432.104,308.433v-1.953h4.195v1.953H432.104z"/>
	<path d="M446.104,303.886c0,1.229-0.384,2.169-1.152,2.82c-0.769,0.651-1.861,0.977-3.277,0.977h-1.039v4.062h-2.422v-11.422h3.648
		c1.385,0,2.438,0.298,3.16,0.895C445.743,301.814,446.104,302.703,446.104,303.886z M440.635,305.698h0.797
		c0.745,0,1.302-0.147,1.672-0.441c0.37-0.294,0.555-0.723,0.555-1.285c0-0.567-0.155-0.987-0.465-1.258
		c-0.31-0.271-0.796-0.406-1.457-0.406h-1.102V305.698z"/>
</g>
<g enable-background="new    ">
	<path d="M455.421,311.745h-2.414v-6.609l0.023-1.086l0.039-1.188c-0.401,0.401-0.68,0.664-0.836,0.789l-1.312,1.055l-1.164-1.453
		l3.68-2.93h1.984V311.745z"/>
	<path d="M462.108,300.323l0.109,0.172c-0.261,1.026-0.719,2.273-1.375,3.742h-1.711c0.359-1.542,0.62-2.847,0.781-3.914H462.108z"
		/>
	<path d="M466.569,300.323l0.109,0.172c-0.261,1.026-0.719,2.273-1.375,3.742h-1.711c0.359-1.542,0.62-2.847,0.781-3.914H466.569z"
		/>
</g>
<rect x="431.627" y="469.699" fill="none" width="47.746" height="31.745"/>
<g enable-background="new    ">
	<path d="M440.956,473.264c0,1.229-0.384,2.169-1.152,2.82c-0.769,0.651-1.861,0.977-3.277,0.977h-1.039v4.062h-2.422v-11.422h3.648
		c1.385,0,2.438,0.298,3.16,0.895C440.595,471.192,440.956,472.081,440.956,473.264z M435.487,475.076h0.797
		c0.745,0,1.302-0.147,1.672-0.441c0.37-0.294,0.555-0.723,0.555-1.285c0-0.567-0.155-0.987-0.465-1.258
		c-0.31-0.271-0.796-0.406-1.457-0.406h-1.102V475.076z"/>
</g>
<g enable-background="new    ">
	<path d="M448.909,481.123h-2.414v-6.609l0.023-1.086l0.039-1.188c-0.401,0.401-0.68,0.664-0.836,0.789l-1.312,1.055l-1.164-1.453
		l3.68-2.93h1.984V481.123z"/>
	<path d="M455.596,469.701l0.109,0.172c-0.261,1.026-0.719,2.273-1.375,3.742h-1.711c0.359-1.542,0.62-2.847,0.781-3.914H455.596z"
		/>
	<path d="M460.057,469.701l0.109,0.172c-0.261,1.026-0.719,2.273-1.375,3.742h-1.711c0.359-1.542,0.62-2.847,0.781-3.914H460.057z"
		/>
</g>
<rect x="198.294" y="386.627" fill="none" width="47.746" height="31.745"/>
<g enable-background="new    ">
	<path d="M207.622,390.191c0,1.229-0.384,2.169-1.152,2.82c-0.769,0.651-1.861,0.977-3.277,0.977h-1.039v4.062h-2.422v-11.422h3.648
		c1.385,0,2.438,0.298,3.16,0.895C207.261,388.12,207.622,389.009,207.622,390.191z M202.153,392.004h0.797
		c0.745,0,1.302-0.147,1.672-0.441c0.37-0.294,0.555-0.723,0.555-1.285c0-0.567-0.155-0.987-0.465-1.258
		c-0.31-0.271-0.796-0.406-1.457-0.406h-1.102V392.004z"/>
</g>
<g enable-background="new    ">
	<path d="M215.575,398.051h-2.414v-6.609l0.023-1.086l0.039-1.188c-0.401,0.401-0.68,0.664-0.836,0.789l-1.312,1.055l-1.164-1.453
		l3.68-2.93h1.984V398.051z"/>
	<path d="M222.263,386.629l0.109,0.172c-0.261,1.026-0.719,2.273-1.375,3.742h-1.711c0.359-1.542,0.62-2.847,0.781-3.914H222.263z"
		/>
</g>
<line fill="none" stroke="#000000" stroke-width="1.4487" stroke-miterlimit="10" x1="151.524" y1="407.568" x2="581.378" y2="407.568"/>
<line fill="none" stroke="#000000" stroke-width="1.4487" stroke-miterlimit="10" x1="327.948" y1="622.857" x2="327.948" y2="193.004"/>
</svg>
