<?xml version="1.0" encoding="utf-8"?>
<!-- Generator: Adobe Illustrator 16.0.4, SVG Export Plug-In . SVG Version: 6.00 Build 0)  -->
<!DOCTYPE svg PUBLIC "-//W3C//DTD SVG 1.1//EN" "http://www.w3.org/Graphics/SVG/1.1/DTD/svg11.dtd">
<svg version="1.1" id="Layer_1" xmlns="http://www.w3.org/2000/svg" xmlns:xlink="http://www.w3.org/1999/xlink" x="0px" y="0px"
	 width="1366px" height="768px" viewBox="0 0 1366 768" enable-background="new 0 0 1366 768" xml:space="preserve">
<rect x="108.722" y="587.912" fill="none" width="28.973" height="20.281"/>
<text transform="matrix(1 0 0 1 114.8774 605.1514)" font-family="'HelveticaNeue'" font-size="24.1451">-6</text>
<rect x="108.722" y="640.579" fill="none" width="28.973" height="20.281"/>
<text transform="matrix(1 0 0 1 114.8774 657.8184)" font-family="'HelveticaNeue'" font-size="24.1451">-8</text>
<rect x="108.722" y="484.912" fill="none" width="28.973" height="20.281"/>
<text transform="matrix(1 0 0 1 114.8774 502.1523)" font-family="'HelveticaNeue'" font-size="24.1451">-2</text>
<rect x="108.722" y="535.912" fill="none" width="28.973" height="20.281"/>
<text transform="matrix(1 0 0 1 114.8774 553.1523)" font-family="'HelveticaNeue'" font-size="24.1451">-4</text>
<rect x="108.722" y="432.029" fill="none" width="28.973" height="20.279"/>
<text transform="matrix(1 0 0 1 124.2695 449.2676)" font-family="'HelveticaNeue'" font-size="24.1451">0</text>
<rect x="108.722" y="377.912" fill="none" width="28.973" height="20.281"/>
<text transform="matrix(1 0 0 1 124.2695 395.1523)" font-family="'HelveticaNeue'" font-size="24.1451">2</text>
<rect x="108.722" y="327.912" fill="none" width="28.973" height="20.281"/>
<text transform="matrix(1 0 0 1 124.2695 345.1519)" font-family="'HelveticaNeue'" font-size="24.1451">4</text>
<rect x="108.722" y="227.004" fill="none" width="28.973" height="20.28"/>
<text transform="matrix(1 0 0 1 124.2695 244.2441)" font-family="'HelveticaNeue'" font-size="24.1451">8</text>
<rect x="108.722" y="276.913" fill="none" width="28.973" height="20.28"/>
<text transform="matrix(1 0 0 1 124.2695 294.1523)" font-family="'HelveticaNeue'" font-size="24.1451">6</text>
<rect x="313.263" y="677.336" fill="none" width="28.973" height="20.279"/>
<text transform="matrix(1 0 0 1 321.0371 694.5742)" font-family="'HelveticaNeue'" font-size="24.1451">0</text>
<rect x="388.079" y="677.336" fill="none" width="28.973" height="20.279"/>
<text transform="matrix(1 0 0 1 395.8535 694.5742)" font-family="'HelveticaNeue'" font-size="24.1451">1</text>
<rect x="238.445" y="677.336" fill="none" width="28.973" height="20.279"/>
<text transform="matrix(1 0 0 1 241.5234 694.5742)" font-family="'HelveticaNeue'" font-size="24.1451">-1</text>
<rect x="163.629" y="677.336" fill="none" width="28.973" height="20.279"/>
<text transform="matrix(1 0 0 1 166.707 694.5742)" font-family="'HelveticaNeue'" font-size="24.1451">-2</text>
<rect x="462.896" y="677.336" fill="none" width="28.973" height="20.279"/>
<text transform="matrix(1 0 0 1 470.6694 694.5742)" font-family="'HelveticaNeue'" font-size="24.1451">2</text>
<rect x="537.712" y="677.336" fill="none" width="28.973" height="20.279"/>
<text transform="matrix(1 0 0 1 545.4858 694.5742)" font-family="'HelveticaNeue'" font-size="24.1451">3</text>
<line opacity="0.1" fill="none" stroke="#000000" stroke-width="1.4487" stroke-miterlimit="10" x1="402.698" y1="656.857" x2="402.698" y2="227.004"/>
<line opacity="0.1" fill="none" stroke="#000000" stroke-width="1.4487" stroke-miterlimit="10" x1="477.448" y1="656.857" x2="477.448" y2="227.004"/>
<line opacity="0.1" fill="none" stroke="#000000" stroke-width="1.4487" stroke-miterlimit="10" x1="179.115" y1="656.857" x2="179.115" y2="227.004"/>
<line opacity="0.1" fill="none" stroke="#000000" stroke-width="1.4487" stroke-miterlimit="10" x1="253.865" y1="656.857" x2="253.865" y2="227.004"/>
<line opacity="0.1" fill="none" stroke="#000000" stroke-width="1.4487" stroke-miterlimit="10" x1="552.198" y1="656.857" x2="552.198" y2="227.004"/>
<line opacity="0.1" fill="none" stroke="#000000" stroke-width="1.4487" stroke-miterlimit="10" x1="151.524" y1="287.053" x2="581.378" y2="287.053"/>
<line opacity="0.1" fill="none" stroke="#000000" stroke-width="1.4487" stroke-miterlimit="10" x1="167.524" y1="236.145" x2="597.378" y2="236.145"/>
<line opacity="0.1" fill="none" stroke="#000000" stroke-width="1.4487" stroke-miterlimit="10" x1="151.524" y1="338.053" x2="581.378" y2="338.053"/>
<line opacity="0.1" fill="none" stroke="#000000" stroke-width="1.4487" stroke-miterlimit="10" x1="151.524" y1="388.053" x2="581.378" y2="388.053"/>
<line opacity="0.1" fill="none" stroke="#000000" stroke-width="1.4487" stroke-miterlimit="10" x1="151.524" y1="495.053" x2="581.378" y2="495.053"/>
<line opacity="0.1" fill="none" stroke="#000000" stroke-width="1.4487" stroke-miterlimit="10" x1="151.524" y1="546.053" x2="581.378" y2="546.053"/>
<line opacity="0.1" fill="none" stroke="#000000" stroke-width="1.4487" stroke-miterlimit="10" x1="151.524" y1="598.053" x2="581.378" y2="598.053"/>
<line opacity="0.1" fill="none" stroke="#000000" stroke-width="1.4487" stroke-miterlimit="10" x1="151.524" y1="649.72" x2="581.378" y2="649.72"/>
<path fill="none" stroke="#E15218" stroke-width="3" stroke-miterlimit="10" enable-background="new    " d="M185.448,441.449
	c0,22.104,14,73.021,142.5,69.354c108.971-3.109,161.75,30.25,253.43,107.25"/>
<path fill="none" stroke="#E15218" stroke-width="3" stroke-miterlimit="10" enable-background="new    " d="M185.448,440.64
	c0-22.104,14-73.02,142.5-69.353c108.971,3.109,161.75-30.25,253.43-107.25"/>
<g>
	<g>
		
			<line fill="none" stroke="#000000" stroke-width="1.449" stroke-miterlimit="10" x1="424.5" y1="648.979" x2="424.5" y2="646.479"/>
		
			<line fill="none" stroke="#000000" stroke-width="1.449" stroke-miterlimit="10" stroke-dasharray="5.0506,5.0506" x1="424.5" y1="641.429" x2="424.5" y2="239.907"/>
		
			<line fill="none" stroke="#000000" stroke-width="1.449" stroke-miterlimit="10" x1="424.5" y1="237.382" x2="424.5" y2="234.882"/>
		<g>
			<polygon points="424.5,656.857 429.036,645.757 424.5,648.391 419.965,645.757 			"/>
		</g>
		<g>
			<polygon points="424.5,227.004 429.036,238.105 424.5,235.471 419.965,238.105 			"/>
		</g>
	</g>
</g>
<g>
	<g>
		
			<line fill="none" stroke="#000000" stroke-width="1.449" stroke-miterlimit="10" x1="185.448" y1="648.979" x2="185.448" y2="646.479"/>
		
			<line fill="none" stroke="#000000" stroke-width="1.449" stroke-miterlimit="10" stroke-dasharray="5.0506,5.0506" x1="185.448" y1="641.429" x2="185.448" y2="239.907"/>
		
			<line fill="none" stroke="#000000" stroke-width="1.449" stroke-miterlimit="10" x1="185.448" y1="237.382" x2="185.448" y2="234.882"/>
		<g>
			<polygon points="185.448,656.857 189.984,645.757 185.448,648.391 180.914,645.757 			"/>
		</g>
		<g>
			<polygon points="185.448,227.004 189.984,238.105 185.448,235.471 180.914,238.105 			"/>
		</g>
	</g>
</g>
<circle cx="504.782" cy="323.165" r="3.536"/>
<circle cx="185.448" cy="441.449" r="3.536"/>
<circle cx="424.5" cy="521.108" r="3.536"/>
<circle cx="424.5" cy="360.799" r="3.536"/>
<rect x="431.627" y="334.321" fill="none" width="47.746" height="31.745"/>
<text transform="matrix(1 0 0 1 431.6274 345.7451)"><tspan x="0" y="0" font-family="'HelveticaNeue-Bold'" font-size="16">-P</tspan><tspan x="17.184" y="0" font-family="'HelveticaNeue-Bold'" font-size="16" letter-spacing="1">1’’</tspan></text>
<rect x="431.627" y="503.699" fill="none" width="47.746" height="31.745"/>
<text transform="matrix(1 0 0 1 431.6274 515.123)"><tspan x="0" y="0" font-family="'HelveticaNeue-Bold'" font-size="16">P</tspan><tspan x="10.672" y="0" font-family="'HelveticaNeue-Bold'" font-size="16" letter-spacing="1">1’’</tspan></text>
<rect x="198.294" y="420.627" fill="none" width="47.746" height="31.745"/>
<text transform="matrix(1 0 0 1 198.2939 432.0508)"><tspan x="0" y="0" font-family="'HelveticaNeue-Bold'" font-size="16">P</tspan><tspan x="10.672" y="0" font-family="'HelveticaNeue-Bold'" font-size="16" letter-spacing="1">1’</tspan></text>
<line fill="none" stroke="#000000" stroke-width="1.4487" stroke-miterlimit="10" x1="151.524" y1="441.568" x2="581.378" y2="441.568"/>
<line fill="none" stroke="#000000" stroke-width="1.4487" stroke-miterlimit="10" x1="327.948" y1="656.857" x2="327.948" y2="227.004"/>
</svg>
