<?xml version="1.0" encoding="utf-8"?>
<!-- Generator: Adobe Illustrator 16.0.4, SVG Export Plug-In . SVG Version: 6.00 Build 0)  -->
<!DOCTYPE svg PUBLIC "-//W3C//DTD SVG 1.1//EN" "http://www.w3.org/Graphics/SVG/1.1/DTD/svg11.dtd">
<svg version="1.1" id="Layer_1" xmlns="http://www.w3.org/2000/svg" xmlns:xlink="http://www.w3.org/1999/xlink" x="0px" y="0px"
	 width="391.525px" height="384px" viewBox="0 0 391.525 384" enable-background="new 0 0 391.525 384" xml:space="preserve">
<g>
	
		<line opacity="0.22" fill="none" stroke="#000000" stroke-width="1.214" stroke-miterlimit="10" x1="99.177" y1="352.351" x2="99.177" y2="4.444"/>
	
		<line fill="none" stroke="#000000" stroke-width="1.214" stroke-miterlimit="10" x1="34.916" y1="352.351" x2="34.916" y2="4.444"/>
	
		<line opacity="0.22" fill="none" stroke="#000000" stroke-width="1.214" stroke-miterlimit="10" x1="162.117" y1="352.351" x2="162.117" y2="4.444"/>
	
		<line opacity="0.22" fill="none" stroke="#000000" stroke-width="1.214" stroke-miterlimit="10" x1="225.057" y1="352.351" x2="225.057" y2="4.444"/>
	
		<line opacity="0.22" fill="none" stroke="#000000" stroke-width="1.214" stroke-miterlimit="10" x1="287.997" y1="352.351" x2="287.997" y2="4.444"/>
	
		<line opacity="0.22" fill="none" stroke="#000000" stroke-width="1.214" stroke-miterlimit="10" x1="350.938" y1="352.351" x2="350.938" y2="4.444"/>
	
		<line opacity="0.22" fill="none" stroke="#000000" stroke-width="1.214" stroke-miterlimit="10" x1="388.907" y1="290.518" x2="34.916" y2="290.519"/>
	
		<line fill="none" stroke="#000000" stroke-width="1.214" stroke-miterlimit="10" x1="388.907" y1="352.35" x2="34.916" y2="352.351"/>
	
		<line opacity="0.22" fill="none" stroke="#000000" stroke-width="1.214" stroke-miterlimit="10" x1="388.907" y1="228.185" x2="34.916" y2="228.185"/>
	
		<line opacity="0.22" fill="none" stroke="#000000" stroke-width="1.214" stroke-miterlimit="10" x1="388.907" y1="165.852" x2="34.916" y2="165.852"/>
	
		<line opacity="0.22" fill="none" stroke="#000000" stroke-width="1.214" stroke-miterlimit="10" x1="388.907" y1="103.519" x2="34.916" y2="103.519"/>
	
		<line opacity="0.22" fill="none" stroke="#000000" stroke-width="1.214" stroke-miterlimit="10" x1="388.907" y1="41.186" x2="34.916" y2="41.186"/>
	<rect x="23.191" y="368.925" fill="none" width="23.449" height="16.415"/>
	<text transform="matrix(1 0 0 1 29.4834 382.8784)" font-family="'HelveticaNeue'" font-size="19.5421">0</text>
	<rect x="0.936" y="346.804" fill="none" width="23.448" height="16.412"/>
	<text transform="matrix(1 0 0 1 7.2266 360.7563)" font-family="'HelveticaNeue'" font-size="19.5421">0</text>
	<rect x="0.936" y="282.312" fill="none" width="23.448" height="16.412"/>
	<text transform="matrix(1 0 0 1 7.2266 296.2642)" font-family="'HelveticaNeue'" font-size="19.5421">5</text>
	<rect x="0.936" y="219.978" fill="none" width="23.448" height="16.414"/>
	<text transform="matrix(1 0 0 1 1.7939 233.9321)" font-family="'HelveticaNeue'" font-size="19.5421">10</text>
	<rect x="0.936" y="157.646" fill="none" width="23.448" height="16.413"/>
	<text transform="matrix(1 0 0 1 1.7939 171.5991)" font-family="'HelveticaNeue'" font-size="19.5421">15</text>
	<rect x="0.936" y="95.313" fill="none" width="23.448" height="16.413"/>
	<text transform="matrix(1 0 0 1 1.7939 109.2656)" font-family="'HelveticaNeue'" font-size="19.5421">20</text>
	<rect x="0.936" y="32.979" fill="none" width="23.448" height="16.414"/>
	<text transform="matrix(1 0 0 1 1.7939 46.9321)" font-family="'HelveticaNeue'" font-size="19.5421">25</text>
	<rect x="87.452" y="368.925" fill="none" width="23.449" height="16.415"/>
	<text transform="matrix(1 0 0 1 93.7441 382.8784)" font-family="'HelveticaNeue'" font-size="19.5421">5</text>
	<rect x="149.583" y="368.925" fill="none" width="23.449" height="16.415"/>
	<text transform="matrix(1 0 0 1 150.4424 382.8784)" font-family="'HelveticaNeue'" font-size="19.5421">10</text>
	<rect x="211.912" y="368.925" fill="none" width="23.449" height="16.415"/>
	<text transform="matrix(1 0 0 1 212.7715 382.8784)" font-family="'HelveticaNeue'" font-size="19.5421">15</text>
	<rect x="276.272" y="368.925" fill="none" width="23.449" height="16.415"/>
	<text transform="matrix(1 0 0 1 277.1318 382.8784)" font-family="'HelveticaNeue'" font-size="19.5421">20</text>
	<rect x="339.402" y="368.925" fill="none" width="23.449" height="16.415"/>
	<text transform="matrix(1 0 0 1 340.2617 382.8784)" font-family="'HelveticaNeue'" font-size="19.5421">25</text>
	<circle fill="#E15218" enable-background="new    " cx="99.176" cy="302.599" r="2.618"/>
	<circle fill="#E15218" enable-background="new    " cx="111.71" cy="265.638" r="2.618"/>
	<circle fill="#E15218" enable-background="new    " cx="186.917" cy="190.907" r="2.618"/>
	<circle fill="#E15218" enable-background="new    " cx="186.917" cy="153.069" r="2.618"/>
	<circle fill="#E15218" enable-background="new    " cx="34.916" cy="277.508" r="2.618"/>
	<circle fill="#E15218" enable-background="new    " cx="85.937" cy="228.184" r="2.618"/>
	<circle fill="#E15218" enable-background="new    " cx="73.796" cy="215.457" r="2.618"/>
	<circle fill="#E15218" enable-background="new    " cx="73.471" cy="128.316" r="2.618"/>
	<circle fill="#E15218" enable-background="new    " cx="86.286" cy="116.256" r="2.619"/>
	<circle fill="#E15218" enable-background="new    " cx="174.506" cy="327.689" r="2.619"/>
	<circle fill="#E15218" enable-background="new    " cx="199.785" cy="352.351" r="2.619"/>
	<circle fill="#E15218" enable-background="new    " cx="211.912" cy="290.519" r="2.618"/>
	<circle fill="#E15218" enable-background="new    " cx="34.916" cy="66.399" r="2.618"/>
	<circle fill="#E15218" enable-background="new    " cx="99.176" cy="41.186" r="2.618"/>
	<circle fill="#E15218" enable-background="new    " cx="111.498" cy="78.553" r="2.618"/>
	<circle fill="#E15218" enable-background="new    " cx="174.426" cy="16.624" r="2.618"/>
	<circle fill="#E15218" enable-background="new    " cx="212.249" cy="53.584" r="2.618"/>
	<circle fill="#E15218" enable-background="new    " cx="274.947" cy="178.398" r="2.618"/>
	<circle fill="#E15218" enable-background="new    " cx="274.947" cy="165.852" r="2.618"/>
	<circle fill="#E15218" enable-background="new    " cx="325.508" cy="103.519" r="2.618"/>
	<circle fill="#E15218" enable-background="new    " cx="388.908" cy="91.085" r="2.618"/>
	<circle fill="#E15218" enable-background="new    " cx="363.357" cy="29.035" r="2.618"/>
	<circle fill="#E15218" enable-background="new    " cx="350.937" cy="3.187" r="2.618"/>
	<circle fill="#E15218" enable-background="new    " cx="388.908" cy="252.958" r="2.618"/>
	<circle fill="#E15218" enable-background="new    " cx="375.958" cy="203.182" r="2.618"/>
	<circle fill="#E15218" enable-background="new    " cx="325.508" cy="240.197" r="2.618"/>
	<circle fill="#E15218" enable-background="new    " cx="363.738" cy="314.93" r="2.619"/>
	<circle fill="#E15218" enable-background="new    " cx="350.937" cy="340.107" r="2.618"/>
</g>
<g>
	<path d="M93.931,151.639c0.982,0,1.818,0.143,2.508,0.429s1.25,0.664,1.683,1.133c0.433,0.47,0.748,1.005,0.946,1.606
		c0.198,0.602,0.297,1.225,0.297,1.87c0,0.631-0.099,1.25-0.297,1.859c-0.198,0.608-0.513,1.147-0.946,1.616
		c-0.433,0.47-0.994,0.848-1.683,1.134c-0.689,0.285-1.525,0.429-2.508,0.429h-3.63v5.632h-3.454v-15.708H93.931z M92.985,159.031
		c0.396,0,0.777-0.029,1.144-0.088s0.689-0.172,0.968-0.341c0.278-0.168,0.502-0.407,0.671-0.715
		c0.168-0.308,0.253-0.711,0.253-1.21c0-0.498-0.084-0.902-0.253-1.21c-0.169-0.309-0.393-0.546-0.671-0.715
		c-0.279-0.169-0.602-0.282-0.968-0.341s-0.748-0.089-1.144-0.089h-2.684v4.708H92.985z"/>
	<path d="M105.503,167.347v-9.988h-3.872v-2.354c0.542,0.015,1.067-0.025,1.573-0.121c0.506-0.096,0.96-0.264,1.364-0.506
		s0.744-0.562,1.023-0.957c0.278-0.396,0.462-0.888,0.55-1.475h2.486v15.4H105.503z"/>
	<path d="M115.293,169.228c-0.426-0.813-0.789-1.639-1.089-2.475c-0.301-0.836-0.532-1.694-0.693-2.574
		c-0.162-0.88-0.242-1.804-0.242-2.772c0-1.73,0.289-3.476,0.869-5.235s1.441-3.396,2.585-4.906h1.43
		c-1.056,1.672-1.804,3.33-2.244,4.972c-0.44,1.644-0.66,3.366-0.66,5.17c0,1.849,0.223,3.602,0.671,5.259
		c0.447,1.657,1.191,3.329,2.233,5.016h-1.43C116.195,170.86,115.718,170.042,115.293,169.228z"/>
	<path d="M124.577,158.459c0.073,0,0.146,0,0.22,0h0.396c0.396,0,0.773-0.056,1.133-0.165c0.359-0.11,0.674-0.271,0.946-0.484
		c0.271-0.212,0.487-0.48,0.649-0.803c0.161-0.322,0.242-0.689,0.242-1.101c0-0.836-0.264-1.463-0.792-1.881
		c-0.528-0.418-1.188-0.627-1.98-0.627c-0.499,0-0.935,0.092-1.309,0.275s-0.682,0.429-0.924,0.737
		c-0.242,0.308-0.422,0.667-0.539,1.077c-0.118,0.411-0.176,0.844-0.176,1.299h-1.87c0.029-0.748,0.15-1.431,0.363-2.047
		c0.212-0.615,0.517-1.144,0.913-1.584c0.396-0.439,0.891-0.784,1.485-1.033c0.594-0.25,1.279-0.374,2.057-0.374
		c0.674,0,1.301,0.084,1.881,0.253c0.579,0.169,1.082,0.422,1.507,0.759c0.425,0.338,0.759,0.77,1.001,1.298
		c0.242,0.528,0.363,1.151,0.363,1.87c0,0.704-0.206,1.327-0.616,1.87s-0.924,0.953-1.54,1.231v0.044
		c0.954,0.206,1.661,0.653,2.123,1.343s0.693,1.503,0.693,2.441c0,0.778-0.143,1.463-0.429,2.058
		c-0.286,0.594-0.671,1.089-1.155,1.484c-0.484,0.396-1.053,0.693-1.705,0.892c-0.653,0.197-1.346,0.297-2.079,0.297
		c-0.792,0-1.511-0.11-2.156-0.33s-1.195-0.546-1.65-0.979c-0.455-0.432-0.803-0.964-1.045-1.595
		c-0.242-0.63-0.356-1.349-0.341-2.156h1.87c0.029,1.013,0.323,1.837,0.88,2.476c0.557,0.638,1.371,0.957,2.442,0.957
		c0.455,0,0.887-0.069,1.298-0.209s0.77-0.338,1.078-0.595c0.308-0.256,0.553-0.571,0.737-0.945s0.275-0.796,0.275-1.266
		c0-0.483-0.088-0.913-0.264-1.286c-0.176-0.374-0.411-0.689-0.704-0.946s-0.642-0.447-1.045-0.572
		c-0.404-0.124-0.84-0.187-1.309-0.187c-0.396,0-0.77,0.021-1.122,0.065v-1.584C124.452,158.452,124.518,158.459,124.577,158.459z"
		/>
	<path d="M136.083,164.905v2.223c0,0.836-0.191,1.554-0.572,2.155s-0.998,1.027-1.848,1.276v-1.1
		c0.249-0.088,0.458-0.217,0.627-0.386c0.168-0.168,0.304-0.352,0.407-0.55s0.172-0.399,0.209-0.604
		c0.037-0.206,0.048-0.396,0.033-0.572h-1.298v-2.442H136.083z"/>
	<path d="M145.542,167.347v-11.176h-4.048v-1.496c0.528,0,1.041-0.04,1.54-0.121c0.499-0.08,0.949-0.231,1.353-0.451
		c0.403-0.22,0.744-0.521,1.023-0.902c0.278-0.381,0.469-0.864,0.572-1.451h1.43v15.598H145.542z"/>
	<path d="M153.617,154.026c0.249-0.491,0.586-0.905,1.012-1.243c0.425-0.337,0.913-0.594,1.463-0.77
		c0.55-0.176,1.125-0.264,1.727-0.264c0.851,0,1.577,0.113,2.178,0.341c0.601,0.228,1.089,0.528,1.463,0.901
		c0.374,0.374,0.649,0.8,0.825,1.276c0.176,0.477,0.264,0.965,0.264,1.463c0,0.704-0.194,1.346-0.583,1.925
		c-0.389,0.58-0.913,1.017-1.573,1.31c0.938,0.293,1.635,0.773,2.09,1.44c0.455,0.668,0.682,1.485,0.682,2.453
		c0,0.763-0.136,1.438-0.407,2.024s-0.638,1.082-1.1,1.485c-0.462,0.403-1.009,0.707-1.639,0.912
		c-0.631,0.206-1.306,0.309-2.024,0.309c-0.748,0-1.445-0.096-2.09-0.286s-1.207-0.484-1.683-0.88
		c-0.477-0.396-0.851-0.892-1.122-1.485c-0.271-0.594-0.407-1.287-0.407-2.079c0-0.924,0.234-1.727,0.704-2.409
		c0.469-0.682,1.144-1.177,2.024-1.484c-0.66-0.265-1.188-0.693-1.584-1.287s-0.594-1.243-0.594-1.947
		C153.243,155.086,153.367,154.518,153.617,154.026z M155.607,165.158c0.624,0.536,1.419,0.804,2.387,0.804
		c0.469,0,0.898-0.077,1.287-0.231c0.388-0.154,0.726-0.366,1.012-0.638s0.506-0.591,0.66-0.957c0.154-0.366,0.231-0.771,0.231-1.21
		c0-0.426-0.084-0.817-0.253-1.177c-0.169-0.359-0.4-0.671-0.693-0.936c-0.293-0.264-0.634-0.473-1.023-0.627
		s-0.803-0.23-1.243-0.23c-0.455,0-0.884,0.069-1.287,0.209c-0.404,0.14-0.755,0.341-1.056,0.604s-0.536,0.58-0.704,0.946
		s-0.253,0.777-0.253,1.231C154.672,163.886,154.984,164.623,155.607,165.158z M155.442,156.908
		c0.146,0.316,0.345,0.576,0.594,0.781c0.249,0.206,0.542,0.359,0.88,0.462c0.337,0.104,0.696,0.154,1.078,0.154
		c0.748,0,1.364-0.22,1.848-0.66c0.484-0.439,0.726-1.056,0.726-1.848s-0.246-1.39-0.737-1.793
		c-0.492-0.403-1.119-0.605-1.881-0.605c-0.367,0-0.719,0.052-1.056,0.154s-0.627,0.257-0.869,0.462
		c-0.242,0.206-0.437,0.455-0.583,0.748c-0.146,0.294-0.22,0.638-0.22,1.034C155.223,156.223,155.296,156.593,155.442,156.908z"/>
	<path d="M167.719,166.72c0.44-1.65,0.66-3.369,0.66-5.159c0-1.848-0.224-3.604-0.671-5.269c-0.448-1.665-1.185-3.341-2.211-5.027
		h1.408c0.528,0.821,1.004,1.639,1.43,2.453c0.425,0.813,0.788,1.643,1.089,2.486c0.3,0.843,0.531,1.704,0.693,2.585
		c0.161,0.88,0.242,1.804,0.242,2.771c0,1.73-0.29,3.473-0.869,5.226c-0.58,1.752-1.441,3.384-2.585,4.895h-1.408
		C166.538,170.024,167.279,168.371,167.719,166.72z"/>
</g>
<line fill="none" stroke="#E15218" stroke-linecap="round" stroke-miterlimit="10" enable-background="new    " x1="73.471" y1="128.379" x2="85.329" y2="146.762"/>
<g>
	<path d="M220.851,74.256c0.982,0,1.818,0.143,2.508,0.429s1.25,0.664,1.683,1.133c0.433,0.47,0.748,1.005,0.946,1.606
		c0.198,0.602,0.297,1.225,0.297,1.87c0,0.631-0.099,1.25-0.297,1.859c-0.198,0.608-0.513,1.147-0.946,1.616
		c-0.433,0.47-0.994,0.848-1.683,1.134c-0.689,0.285-1.525,0.429-2.508,0.429h-3.63v5.632h-3.454V74.256H220.851z M219.905,81.648
		c0.396,0,0.777-0.029,1.144-0.088s0.689-0.172,0.968-0.341c0.278-0.168,0.502-0.407,0.671-0.715
		c0.168-0.308,0.253-0.711,0.253-1.21c0-0.498-0.084-0.902-0.253-1.21c-0.169-0.309-0.393-0.546-0.671-0.715
		c-0.279-0.169-0.602-0.282-0.968-0.341s-0.748-0.089-1.144-0.089h-2.684v4.708H219.905z"/>
	<path d="M228.045,78.03c0.234-0.756,0.586-1.416,1.056-1.98c0.469-0.564,1.059-1.005,1.771-1.32
		c0.711-0.314,1.529-0.473,2.453-0.473c0.704,0,1.375,0.11,2.013,0.33s1.199,0.535,1.683,0.946c0.484,0.41,0.869,0.916,1.155,1.518
		s0.429,1.276,0.429,2.024c0,0.777-0.125,1.444-0.374,2.002c-0.25,0.558-0.58,1.053-0.99,1.484
		c-0.411,0.433-0.876,0.825-1.397,1.178c-0.521,0.352-1.045,0.7-1.573,1.045c-0.528,0.345-1.042,0.715-1.54,1.11
		c-0.499,0.396-0.939,0.858-1.32,1.387h7.282v2.684h-11.308c0-0.895,0.128-1.672,0.385-2.332c0.256-0.66,0.605-1.25,1.045-1.771
		s0.957-1.001,1.551-1.441c0.594-0.44,1.221-0.888,1.881-1.342c0.337-0.234,0.696-0.474,1.078-0.715
		c0.381-0.242,0.729-0.51,1.045-0.804c0.315-0.293,0.58-0.623,0.792-0.989c0.213-0.367,0.319-0.785,0.319-1.255
		c0-0.748-0.217-1.33-0.649-1.749c-0.433-0.418-0.987-0.627-1.661-0.627c-0.455,0-0.84,0.107-1.155,0.319
		c-0.315,0.213-0.568,0.491-0.759,0.836c-0.191,0.345-0.327,0.727-0.407,1.145s-0.121,0.832-0.121,1.242h-2.992
		C227.708,79.602,227.81,78.785,228.045,78.03z"/>
	<path d="M242.213,91.845c-0.426-0.813-0.789-1.639-1.089-2.475c-0.301-0.836-0.532-1.694-0.693-2.574
		c-0.162-0.88-0.242-1.804-0.242-2.772c0-1.73,0.289-3.476,0.869-5.235s1.441-3.396,2.585-4.906h1.43
		c-1.056,1.672-1.804,3.33-2.244,4.972c-0.44,1.644-0.66,3.366-0.66,5.17c0,1.849,0.223,3.602,0.671,5.259
		c0.447,1.657,1.191,3.329,2.233,5.016h-1.43C243.115,93.477,242.638,92.66,242.213,91.845z"/>
	<path d="M247.712,77.688c0.205-0.674,0.524-1.257,0.957-1.749c0.433-0.491,0.972-0.876,1.617-1.154
		c0.645-0.278,1.378-0.418,2.2-0.418c0.674,0,1.309,0.099,1.903,0.297c0.594,0.198,1.111,0.483,1.551,0.857s0.788,0.84,1.045,1.397
		c0.256,0.558,0.385,1.203,0.385,1.936c0,0.689-0.107,1.299-0.319,1.826c-0.212,0.528-0.495,1.001-0.847,1.419
		s-0.756,0.796-1.21,1.133c-0.455,0.338-0.924,0.66-1.408,0.969c-0.484,0.293-0.968,0.583-1.452,0.869
		c-0.484,0.285-0.928,0.59-1.331,0.912c-0.403,0.323-0.748,0.672-1.034,1.046c-0.286,0.373-0.473,0.803-0.561,1.286h8.008v1.65
		H247.03c0.073-0.924,0.238-1.712,0.495-2.365c0.256-0.652,0.583-1.221,0.979-1.705c0.396-0.483,0.843-0.909,1.342-1.275
		c0.498-0.367,1.019-0.712,1.562-1.034c0.66-0.41,1.239-0.788,1.738-1.133c0.499-0.345,0.913-0.693,1.243-1.045
		c0.33-0.353,0.579-0.733,0.748-1.145c0.168-0.41,0.253-0.887,0.253-1.43c0-0.426-0.081-0.811-0.242-1.155
		c-0.162-0.345-0.378-0.642-0.649-0.891c-0.271-0.249-0.591-0.44-0.957-0.572c-0.367-0.132-0.755-0.198-1.166-0.198
		c-0.543,0-1.009,0.114-1.397,0.341c-0.389,0.228-0.708,0.525-0.957,0.892c-0.25,0.366-0.429,0.781-0.539,1.243
		s-0.158,0.928-0.143,1.396h-1.87C247.426,79.096,247.507,78.363,247.712,77.688z"/>
	<path d="M263.729,81.077c0.073,0,0.146,0,0.22,0h0.396c0.396,0,0.773-0.056,1.133-0.165c0.359-0.11,0.674-0.271,0.946-0.484
		c0.271-0.212,0.487-0.48,0.649-0.803c0.161-0.322,0.242-0.689,0.242-1.101c0-0.836-0.264-1.463-0.792-1.881
		c-0.528-0.418-1.188-0.627-1.98-0.627c-0.499,0-0.935,0.092-1.309,0.275s-0.682,0.429-0.924,0.737
		c-0.242,0.308-0.422,0.667-0.539,1.077c-0.118,0.411-0.176,0.844-0.176,1.299h-1.87c0.029-0.748,0.15-1.431,0.363-2.047
		c0.212-0.615,0.517-1.144,0.913-1.584c0.396-0.439,0.891-0.784,1.485-1.033c0.594-0.25,1.279-0.374,2.057-0.374
		c0.674,0,1.301,0.084,1.881,0.253c0.579,0.169,1.082,0.422,1.507,0.759c0.425,0.338,0.759,0.77,1.001,1.298
		c0.242,0.528,0.363,1.151,0.363,1.87c0,0.704-0.206,1.327-0.616,1.87s-0.924,0.953-1.54,1.231v0.044
		c0.954,0.206,1.661,0.653,2.123,1.343s0.693,1.503,0.693,2.441c0,0.778-0.143,1.463-0.429,2.058
		c-0.286,0.594-0.671,1.089-1.155,1.484c-0.484,0.396-1.053,0.693-1.705,0.892c-0.653,0.197-1.346,0.297-2.079,0.297
		c-0.792,0-1.511-0.11-2.156-0.33s-1.195-0.546-1.65-0.979c-0.455-0.432-0.803-0.964-1.045-1.595
		c-0.242-0.63-0.356-1.349-0.341-2.156h1.87c0.029,1.013,0.323,1.837,0.88,2.476c0.557,0.638,1.371,0.957,2.442,0.957
		c0.455,0,0.887-0.069,1.298-0.209s0.77-0.338,1.078-0.595c0.308-0.256,0.553-0.571,0.737-0.945s0.275-0.796,0.275-1.266
		c0-0.483-0.088-0.913-0.264-1.286c-0.176-0.374-0.411-0.689-0.704-0.946s-0.642-0.447-1.045-0.572
		c-0.404-0.124-0.84-0.187-1.309-0.187c-0.396,0-0.77,0.021-1.122,0.065v-1.584C263.604,81.069,263.669,81.077,263.729,81.077z"/>
	<path d="M275.234,87.522v2.223c0,0.836-0.191,1.554-0.572,2.155s-0.998,1.027-1.848,1.276v-1.1
		c0.249-0.088,0.458-0.217,0.627-0.386c0.168-0.168,0.304-0.352,0.407-0.55s0.172-0.399,0.209-0.604
		c0.037-0.206,0.048-0.396,0.033-0.572h-1.298v-2.442H275.234z"/>
	<path d="M279.942,77.688c0.205-0.674,0.524-1.257,0.957-1.749c0.433-0.491,0.972-0.876,1.617-1.154
		c0.645-0.278,1.378-0.418,2.2-0.418c0.674,0,1.309,0.099,1.903,0.297c0.594,0.198,1.111,0.483,1.551,0.857s0.788,0.84,1.045,1.397
		c0.256,0.558,0.385,1.203,0.385,1.936c0,0.689-0.107,1.299-0.319,1.826c-0.212,0.528-0.495,1.001-0.847,1.419
		s-0.756,0.796-1.21,1.133c-0.455,0.338-0.924,0.66-1.408,0.969c-0.484,0.293-0.968,0.583-1.452,0.869
		c-0.484,0.285-0.928,0.59-1.331,0.912c-0.403,0.323-0.748,0.672-1.034,1.046c-0.286,0.373-0.473,0.803-0.561,1.286h8.008v1.65
		H279.26c0.073-0.924,0.238-1.712,0.495-2.365c0.256-0.652,0.583-1.221,0.979-1.705c0.396-0.483,0.843-0.909,1.342-1.275
		c0.498-0.367,1.019-0.712,1.562-1.034c0.66-0.41,1.239-0.788,1.738-1.133c0.499-0.345,0.913-0.693,1.243-1.045
		c0.33-0.353,0.579-0.733,0.748-1.145c0.168-0.41,0.253-0.887,0.253-1.43c0-0.426-0.081-0.811-0.242-1.155
		c-0.162-0.345-0.378-0.642-0.649-0.891c-0.271-0.249-0.591-0.44-0.957-0.572c-0.367-0.132-0.755-0.198-1.166-0.198
		c-0.543,0-1.009,0.114-1.397,0.341c-0.389,0.228-0.708,0.525-0.957,0.892c-0.25,0.366-0.429,0.781-0.539,1.243
		s-0.158,0.928-0.143,1.396h-1.87C279.656,79.096,279.737,78.363,279.942,77.688z"/>
	<path d="M291.932,80.526c0.029-0.615,0.103-1.217,0.22-1.804c0.117-0.586,0.286-1.144,0.506-1.672
		c0.22-0.528,0.521-0.99,0.902-1.386c0.381-0.396,0.861-0.711,1.441-0.946c0.579-0.234,1.272-0.352,2.079-0.352
		c0.806,0,1.499,0.117,2.079,0.352c0.58,0.235,1.06,0.55,1.441,0.946c0.381,0.396,0.682,0.857,0.902,1.386
		c0.22,0.528,0.388,1.086,0.506,1.672c0.117,0.587,0.19,1.188,0.22,1.804c0.029,0.616,0.044,1.211,0.044,1.782
		c0,0.572-0.015,1.166-0.044,1.782c-0.03,0.616-0.103,1.218-0.22,1.804c-0.118,0.587-0.286,1.141-0.506,1.661
		c-0.22,0.521-0.521,0.979-0.902,1.375c-0.382,0.396-0.858,0.708-1.43,0.936c-0.572,0.227-1.269,0.341-2.09,0.341
		c-0.807,0-1.5-0.114-2.079-0.341c-0.58-0.228-1.06-0.539-1.441-0.936c-0.382-0.396-0.682-0.854-0.902-1.375
		c-0.22-0.521-0.389-1.074-0.506-1.661c-0.118-0.586-0.191-1.188-0.22-1.804s-0.044-1.21-0.044-1.782
		C291.888,81.737,291.903,81.142,291.932,80.526z M293.923,84.255c0.037,0.726,0.154,1.408,0.352,2.046
		c0.198,0.638,0.517,1.177,0.957,1.617c0.44,0.439,1.056,0.66,1.848,0.66s1.408-0.221,1.848-0.66c0.44-0.44,0.759-0.979,0.957-1.617
		c0.198-0.638,0.315-1.32,0.352-2.046s0.055-1.382,0.055-1.969c0-0.382-0.004-0.804-0.011-1.266s-0.044-0.924-0.11-1.386
		s-0.162-0.913-0.286-1.353c-0.125-0.44-0.308-0.825-0.55-1.155c-0.242-0.33-0.547-0.598-0.913-0.803
		c-0.367-0.206-0.814-0.309-1.342-0.309c-0.528,0-0.976,0.103-1.342,0.309c-0.367,0.205-0.671,0.473-0.913,0.803
		c-0.242,0.33-0.425,0.715-0.55,1.155c-0.125,0.439-0.22,0.891-0.286,1.353s-0.103,0.924-0.11,1.386
		c-0.008,0.462-0.011,0.884-0.011,1.266C293.868,82.874,293.887,83.53,293.923,84.255z"/>
	<path d="M306.871,89.337c0.44-1.65,0.66-3.369,0.66-5.159c0-1.848-0.224-3.604-0.671-5.269c-0.448-1.665-1.185-3.341-2.211-5.027
		h1.408c0.528,0.821,1.004,1.639,1.43,2.453c0.425,0.813,0.788,1.643,1.089,2.486c0.3,0.843,0.531,1.704,0.693,2.585
		c0.161,0.88,0.242,1.804,0.242,2.771c0,1.73-0.29,3.473-0.869,5.226c-0.58,1.752-1.441,3.384-2.585,4.895h-1.408
		C305.69,92.641,306.431,90.988,306.871,89.337z"/>
</g>
<g>
	<path d="M177.203,217.532c0.982,0,1.818,0.143,2.508,0.429s1.25,0.664,1.683,1.133c0.433,0.47,0.748,1.005,0.946,1.606
		c0.198,0.602,0.297,1.225,0.297,1.87c0,0.631-0.099,1.25-0.297,1.859c-0.198,0.608-0.513,1.147-0.946,1.616
		c-0.433,0.47-0.994,0.848-1.683,1.134c-0.689,0.285-1.525,0.429-2.508,0.429h-3.63v5.632h-3.454v-15.708H177.203z M176.257,224.923
		c0.396,0,0.777-0.029,1.144-0.088s0.689-0.172,0.968-0.341c0.278-0.168,0.502-0.407,0.671-0.715
		c0.168-0.308,0.253-0.711,0.253-1.21c0-0.498-0.084-0.902-0.253-1.21c-0.169-0.309-0.393-0.546-0.671-0.715
		c-0.279-0.169-0.602-0.282-0.968-0.341s-0.748-0.089-1.144-0.089h-2.684v4.708H176.257z"/>
	<path d="M188.775,233.24v-9.988h-3.872v-2.354c0.542,0.015,1.067-0.025,1.573-0.121c0.506-0.096,0.96-0.264,1.364-0.506
		s0.744-0.562,1.023-0.957c0.278-0.396,0.462-0.888,0.55-1.475h2.486v15.4H188.775z"/>
	<path d="M207.673,226.507v2.354h-4.378v4.378h-2.354v-4.378h-4.378v-2.354h4.378v-4.378h2.354v4.378H207.673z"/>
	<path d="M217.309,217.532c0.982,0,1.818,0.143,2.508,0.429s1.25,0.664,1.683,1.133c0.433,0.47,0.748,1.005,0.946,1.606
		c0.198,0.602,0.297,1.225,0.297,1.87c0,0.631-0.099,1.25-0.297,1.859c-0.198,0.608-0.513,1.147-0.946,1.616
		c-0.433,0.47-0.994,0.848-1.683,1.134c-0.689,0.285-1.525,0.429-2.508,0.429h-3.63v5.632h-3.454v-15.708H217.309z M216.362,224.923
		c0.396,0,0.777-0.029,1.144-0.088s0.689-0.172,0.968-0.341c0.278-0.168,0.502-0.407,0.671-0.715
		c0.168-0.308,0.253-0.711,0.253-1.21c0-0.498-0.084-0.902-0.253-1.21c-0.169-0.309-0.393-0.546-0.671-0.715
		c-0.279-0.169-0.602-0.282-0.968-0.341s-0.748-0.089-1.144-0.089h-2.684v4.708H216.362z"/>
	<path d="M224.502,221.305c0.234-0.756,0.586-1.416,1.056-1.98c0.469-0.564,1.059-1.005,1.771-1.32
		c0.711-0.314,1.529-0.473,2.453-0.473c0.704,0,1.375,0.11,2.013,0.33s1.199,0.535,1.683,0.946c0.484,0.41,0.869,0.916,1.155,1.518
		s0.429,1.276,0.429,2.024c0,0.777-0.125,1.444-0.374,2.002c-0.25,0.558-0.58,1.053-0.99,1.484
		c-0.411,0.433-0.876,0.825-1.397,1.178c-0.521,0.352-1.045,0.7-1.573,1.045c-0.528,0.345-1.042,0.715-1.54,1.11
		c-0.499,0.396-0.939,0.858-1.32,1.387h7.282v2.684h-11.308c0-0.895,0.128-1.672,0.385-2.332c0.256-0.66,0.605-1.25,1.045-1.771
		s0.957-1.001,1.551-1.441c0.594-0.44,1.221-0.888,1.881-1.342c0.337-0.234,0.696-0.474,1.078-0.715
		c0.381-0.242,0.729-0.51,1.045-0.804c0.315-0.293,0.58-0.623,0.792-0.989c0.213-0.367,0.319-0.785,0.319-1.255
		c0-0.748-0.217-1.33-0.649-1.749c-0.433-0.418-0.987-0.627-1.661-0.627c-0.455,0-0.84,0.107-1.155,0.319
		c-0.315,0.213-0.568,0.491-0.759,0.836c-0.191,0.345-0.327,0.727-0.407,1.145s-0.121,0.832-0.121,1.242h-2.992
		C224.165,222.877,224.268,222.06,224.502,221.305z"/>
	<path d="M238.67,235.121c-0.426-0.813-0.789-1.639-1.089-2.475c-0.301-0.836-0.532-1.694-0.693-2.574
		c-0.162-0.88-0.242-1.804-0.242-2.772c0-1.73,0.289-3.476,0.869-5.235s1.441-3.396,2.585-4.906h1.43
		c-1.056,1.672-1.804,3.33-2.244,4.972c-0.44,1.644-0.66,3.366-0.66,5.17c0,1.849,0.223,3.602,0.671,5.259
		c0.447,1.657,1.191,3.329,2.233,5.016h-1.43C239.572,236.752,239.096,235.935,238.67,235.121z"/>
	<path d="M248.922,233.24v-11.176h-4.048v-1.496c0.528,0,1.041-0.04,1.54-0.121c0.499-0.08,0.949-0.231,1.353-0.451
		c0.403-0.22,0.744-0.521,1.023-0.902c0.278-0.381,0.469-0.864,0.572-1.451h1.43v15.598H248.922z"/>
	<path d="M256.402,220.963c0.205-0.674,0.524-1.257,0.957-1.749c0.433-0.491,0.972-0.876,1.617-1.154
		c0.645-0.278,1.378-0.418,2.2-0.418c0.674,0,1.309,0.099,1.903,0.297c0.594,0.198,1.111,0.483,1.551,0.857s0.788,0.84,1.045,1.397
		c0.256,0.558,0.385,1.203,0.385,1.936c0,0.689-0.107,1.299-0.319,1.826c-0.212,0.528-0.495,1.001-0.847,1.419
		s-0.756,0.796-1.21,1.133c-0.455,0.338-0.924,0.66-1.408,0.969c-0.484,0.293-0.968,0.583-1.452,0.869
		c-0.484,0.285-0.928,0.59-1.331,0.912c-0.403,0.323-0.748,0.672-1.034,1.046c-0.286,0.373-0.473,0.803-0.561,1.286h8.008v1.65
		H255.72c0.073-0.924,0.238-1.712,0.495-2.365c0.256-0.652,0.583-1.221,0.979-1.705c0.396-0.483,0.843-0.909,1.342-1.275
		c0.498-0.367,1.019-0.712,1.562-1.034c0.66-0.41,1.239-0.788,1.738-1.133c0.499-0.345,0.913-0.693,1.243-1.045
		c0.33-0.353,0.579-0.733,0.748-1.145c0.168-0.41,0.253-0.887,0.253-1.43c0-0.426-0.081-0.811-0.242-1.155
		c-0.162-0.345-0.378-0.642-0.649-0.891c-0.271-0.249-0.591-0.44-0.957-0.572c-0.367-0.132-0.755-0.198-1.166-0.198
		c-0.543,0-1.009,0.114-1.397,0.341c-0.389,0.228-0.708,0.525-0.957,0.892c-0.25,0.366-0.429,0.781-0.539,1.243
		s-0.158,0.928-0.143,1.396h-1.87C256.116,222.372,256.196,221.638,256.402,220.963z"/>
	<path d="M271.692,230.797v2.223c0,0.836-0.191,1.554-0.572,2.155s-0.998,1.027-1.848,1.276v-1.1
		c0.249-0.088,0.458-0.217,0.627-0.386c0.168-0.168,0.304-0.352,0.407-0.55s0.172-0.399,0.209-0.604
		c0.037-0.206,0.048-0.396,0.033-0.572h-1.298v-2.442H271.692z"/>
	<path d="M281.152,233.24v-11.176h-4.048v-1.496c0.528,0,1.041-0.04,1.54-0.121c0.499-0.08,0.949-0.231,1.353-0.451
		c0.403-0.22,0.744-0.521,1.023-0.902c0.278-0.381,0.469-0.864,0.572-1.451h1.43v15.598H281.152z"/>
	<path d="M292.416,224.352c0.073,0,0.146,0,0.22,0h0.396c0.396,0,0.773-0.056,1.133-0.165c0.359-0.11,0.674-0.271,0.946-0.484
		c0.271-0.212,0.487-0.48,0.649-0.803c0.161-0.322,0.242-0.689,0.242-1.101c0-0.836-0.264-1.463-0.792-1.881
		c-0.528-0.418-1.188-0.627-1.98-0.627c-0.499,0-0.935,0.092-1.309,0.275s-0.682,0.429-0.924,0.737
		c-0.242,0.308-0.422,0.667-0.539,1.077c-0.118,0.411-0.176,0.844-0.176,1.299h-1.87c0.029-0.748,0.15-1.431,0.363-2.047
		c0.212-0.615,0.517-1.144,0.913-1.584c0.396-0.439,0.891-0.784,1.485-1.033c0.594-0.25,1.279-0.374,2.057-0.374
		c0.674,0,1.301,0.084,1.881,0.253c0.579,0.169,1.082,0.422,1.507,0.759c0.425,0.338,0.759,0.77,1.001,1.298
		c0.242,0.528,0.363,1.151,0.363,1.87c0,0.704-0.206,1.327-0.616,1.87s-0.924,0.953-1.54,1.231v0.044
		c0.954,0.206,1.661,0.653,2.123,1.343s0.693,1.503,0.693,2.441c0,0.778-0.143,1.463-0.429,2.058
		c-0.286,0.594-0.671,1.089-1.155,1.484c-0.484,0.396-1.053,0.693-1.705,0.892c-0.653,0.197-1.346,0.297-2.079,0.297
		c-0.792,0-1.511-0.11-2.156-0.33s-1.195-0.546-1.65-0.979c-0.455-0.432-0.803-0.964-1.045-1.595
		c-0.242-0.63-0.356-1.349-0.341-2.156h1.87c0.029,1.013,0.323,1.837,0.88,2.476c0.557,0.638,1.371,0.957,2.442,0.957
		c0.455,0,0.887-0.069,1.298-0.209s0.77-0.338,1.078-0.595c0.308-0.256,0.553-0.571,0.737-0.945s0.275-0.796,0.275-1.266
		c0-0.483-0.088-0.913-0.264-1.286c-0.176-0.374-0.411-0.689-0.704-0.946s-0.642-0.447-1.045-0.572
		c-0.404-0.124-0.84-0.187-1.309-0.187c-0.396,0-0.77,0.021-1.122,0.065v-1.584C292.291,224.344,292.357,224.352,292.416,224.352z"
		/>
	<path d="M301.678,232.613c0.44-1.65,0.66-3.369,0.66-5.159c0-1.848-0.224-3.604-0.671-5.269c-0.448-1.665-1.185-3.341-2.211-5.027
		h1.408c0.528,0.821,1.004,1.639,1.43,2.453c0.425,0.813,0.788,1.643,1.089,2.486c0.3,0.843,0.531,1.704,0.693,2.585
		c0.161,0.88,0.242,1.804,0.242,2.771c0,1.73-0.29,3.473-0.869,5.226c-0.58,1.752-1.441,3.384-2.585,4.895h-1.408
		C300.497,235.917,301.238,234.263,301.678,232.613z"/>
</g>
<line fill="none" stroke="#E15218" stroke-linecap="round" stroke-miterlimit="10" enable-background="new    " x1="325.507" y1="103.582" x2="313.934" y2="85.477"/>
<line fill="none" stroke="#E15218" stroke-linecap="round" stroke-miterlimit="10" enable-background="new    " x1="199.784" y1="212.902" x2="186.917" y2="190.969"/>
</svg>
