<?xml version="1.0" encoding="utf-8"?>
<!-- Generator: Adobe Illustrator 16.0.4, SVG Export Plug-In . SVG Version: 6.00 Build 0)  -->
<!DOCTYPE svg PUBLIC "-//W3C//DTD SVG 1.1//EN" "http://www.w3.org/Graphics/SVG/1.1/DTD/svg11.dtd">
<svg version="1.1" id="Layer_1" xmlns="http://www.w3.org/2000/svg" xmlns:xlink="http://www.w3.org/1999/xlink" x="0px" y="0px"
	 width="482.59px" height="470.611px" viewBox="0 0 482.59 470.611" enable-background="new 0 0 482.59 470.611"
	 xml:space="preserve">
<line opacity="0.22" fill="none" stroke="#000000" stroke-width="1.5" stroke-miterlimit="10" enable-background="new    " x1="121.382" y1="429.853" x2="121.381" y2="0"/>
<line fill="none" stroke="#000000" stroke-width="1.5" stroke-miterlimit="10" x1="41.985" y1="429.853" x2="41.985" y2="0"/>
<line opacity="0.22" fill="none" stroke="#000000" stroke-width="1.5" stroke-miterlimit="10" enable-background="new    " x1="199.146" y1="429.853" x2="199.146" y2="0"/>
<line opacity="0.22" fill="none" stroke="#000000" stroke-width="1.5" stroke-miterlimit="10" enable-background="new    " x1="276.913" y1="429.853" x2="276.913" y2="0"/>
<line opacity="0.22" fill="none" stroke="#000000" stroke-width="1.5" stroke-miterlimit="10" enable-background="new    " x1="354.676" y1="429.853" x2="354.676" y2="0"/>
<line opacity="0.22" fill="none" stroke="#000000" stroke-width="1.5" stroke-miterlimit="10" enable-background="new    " x1="432.442" y1="429.853" x2="432.442" y2="0"/>
<line opacity="0.22" fill="none" stroke="#000000" stroke-width="1.5" stroke-miterlimit="10" enable-background="new    " x1="479.356" y1="353.456" x2="41.985" y2="353.457"/>
<line fill="none" stroke="#000000" stroke-width="1.5" stroke-miterlimit="10" x1="479.356" y1="429.852" x2="41.985" y2="429.853"/>
<line opacity="0.22" fill="none" stroke="#000000" stroke-width="1.5" stroke-miterlimit="10" enable-background="new    " x1="479.356" y1="276.44" x2="41.985" y2="276.44"/>
<line opacity="0.22" fill="none" stroke="#000000" stroke-width="1.5" stroke-miterlimit="10" enable-background="new    " x1="479.356" y1="199.426" x2="41.985" y2="199.426"/>
<line opacity="0.22" fill="none" stroke="#000000" stroke-width="1.5" stroke-miterlimit="10" enable-background="new    " x1="479.356" y1="122.411" x2="41.985" y2="122.411"/>
<line opacity="0.22" fill="none" stroke="#000000" stroke-width="1.5" stroke-miterlimit="10" enable-background="new    " x1="479.356" y1="45.396" x2="41.985" y2="45.396"/>
<rect x="27.499" y="450.332" fill="none" width="28.972" height="20.279"/>
<g enable-background="new    ">
	<path d="M47.876,458.928c0,2.979-0.47,5.203-1.409,6.673c-0.939,1.47-2.375,2.204-4.309,2.204c-1.855,0-3.266-0.752-4.232-2.257
		c-0.967-1.506-1.45-3.712-1.45-6.62c0-3.003,0.467-5.23,1.403-6.685c0.935-1.454,2.362-2.182,4.28-2.182
		c1.871,0,3.291,0.759,4.262,2.275C47.391,453.854,47.876,456.051,47.876,458.928z M38.456,458.928c0,2.507,0.295,4.332,0.884,5.477
		c0.589,1.144,1.529,1.715,2.818,1.715c1.305,0,2.25-0.579,2.835-1.739c0.585-1.159,0.878-2.977,0.878-5.452
		s-0.292-4.29-0.878-5.441c-0.586-1.151-1.531-1.727-2.835-1.727c-1.289,0-2.229,0.567-2.818,1.703S38.456,456.421,38.456,458.928z"
		/>
</g>
<rect y="422.999" fill="none" width="28.972" height="20.279"/>
<g enable-background="new    ">
	<path d="M20.377,431.595c0,2.979-0.47,5.203-1.409,6.673c-0.939,1.47-2.375,2.204-4.309,2.204c-1.855,0-3.266-0.752-4.232-2.257
		c-0.967-1.506-1.45-3.712-1.45-6.62c0-3.003,0.467-5.23,1.403-6.685c0.935-1.454,2.362-2.182,4.28-2.182
		c1.871,0,3.291,0.759,4.262,2.275C19.892,426.521,20.377,428.718,20.377,431.595z M10.957,431.595c0,2.507,0.295,4.332,0.884,5.477
		c0.589,1.144,1.529,1.715,2.818,1.715c1.305,0,2.25-0.579,2.835-1.739c0.585-1.159,0.878-2.977,0.878-5.452
		s-0.292-4.29-0.878-5.441c-0.586-1.151-1.531-1.727-2.835-1.727c-1.289,0-2.229,0.567-2.818,1.703S10.957,429.088,10.957,431.595z"
		/>
</g>
<rect y="343.316" fill="none" width="28.972" height="20.278"/>
<g enable-background="new    ">
	<path d="M14.341,350.026c1.815,0,3.244,0.45,4.286,1.351c1.041,0.899,1.562,2.132,1.562,3.695c0,1.784-0.568,3.184-1.704,4.197
		s-2.702,1.521-4.698,1.521c-1.941,0-3.423-0.31-4.445-0.931v-1.887c0.55,0.354,1.234,0.631,2.052,0.831
		c0.817,0.2,1.623,0.301,2.417,0.301c1.383,0,2.458-0.326,3.225-0.979s1.149-1.596,1.149-2.829c0-2.405-1.474-3.608-4.421-3.608
		c-0.747,0-1.745,0.114-2.995,0.343l-1.014-0.648l0.648-8.064h8.571v1.804h-6.897l-0.436,5.176
		C12.544,350.117,13.445,350.026,14.341,350.026z"/>
</g>
<rect y="266.301" fill="none" width="28.972" height="20.279"/>
<g enable-background="new    ">
	<path d="M9.491,283.54h-1.91v-12.285c0-1.021,0.031-1.988,0.094-2.899c-0.165,0.165-0.35,0.338-0.554,0.519
		c-0.205,0.181-1.14,0.947-2.806,2.299l-1.038-1.344l4.562-3.525h1.651V283.54z"/>
	<path d="M27.47,274.898c0,2.979-0.47,5.203-1.409,6.673c-0.939,1.47-2.375,2.204-4.309,2.204c-1.855,0-3.266-0.752-4.232-2.257
		c-0.967-1.506-1.45-3.712-1.45-6.62c0-3.003,0.467-5.23,1.403-6.685c0.935-1.454,2.362-2.182,4.28-2.182
		c1.871,0,3.291,0.759,4.262,2.275C26.985,269.825,27.47,272.021,27.47,274.898z M18.05,274.898c0,2.507,0.295,4.332,0.884,5.477
		c0.589,1.144,1.529,1.715,2.818,1.715c1.305,0,2.25-0.579,2.835-1.739c0.585-1.159,0.878-2.977,0.878-5.452
		s-0.292-4.29-0.878-5.441c-0.586-1.151-1.531-1.727-2.835-1.727c-1.289,0-2.229,0.567-2.818,1.703S18.05,272.392,18.05,274.898z"/>
</g>
<rect y="189.287" fill="none" width="28.972" height="20.279"/>
<g enable-background="new    ">
	<path d="M9.491,206.525h-1.91V194.24c0-1.021,0.031-1.988,0.094-2.899c-0.165,0.165-0.35,0.338-0.554,0.519
		c-0.205,0.181-1.14,0.947-2.806,2.299l-1.038-1.344l4.562-3.525h1.651V206.525z"/>
	<path d="M21.434,195.997c1.815,0,3.244,0.45,4.286,1.351c1.041,0.899,1.562,2.132,1.562,3.695c0,1.784-0.568,3.184-1.704,4.197
		s-2.702,1.521-4.698,1.521c-1.941,0-3.423-0.31-4.445-0.931v-1.887c0.55,0.354,1.234,0.631,2.052,0.831
		c0.817,0.2,1.623,0.301,2.417,0.301c1.383,0,2.458-0.326,3.225-0.979s1.149-1.596,1.149-2.829c0-2.405-1.474-3.608-4.421-3.608
		c-0.747,0-1.745,0.114-2.995,0.343l-1.014-0.648l0.648-8.064h8.571v1.804H19.17l-0.436,5.176
		C19.638,196.088,20.538,195.997,21.434,195.997z"/>
</g>
<rect y="112.271" fill="none" width="28.972" height="20.279"/>
<g enable-background="new    ">
	<path d="M13.57,129.511H2.241v-1.686l4.539-4.562c1.383-1.399,2.295-2.397,2.735-2.995c0.44-0.597,0.77-1.179,0.99-1.745
		c0.22-0.565,0.33-1.175,0.33-1.827c0-0.92-0.279-1.648-0.837-2.187c-0.558-0.539-1.332-0.808-2.323-0.808
		c-0.715,0-1.393,0.117-2.034,0.354c-0.641,0.235-1.354,0.664-2.14,1.285l-1.038-1.332c1.588-1.321,3.317-1.981,5.188-1.981
		c1.619,0,2.889,0.415,3.808,1.244s1.379,1.943,1.379,3.343c0,1.092-0.307,2.173-0.919,3.242c-0.613,1.068-1.761,2.421-3.443,4.056
		l-3.772,3.689v0.095h8.866V129.511z"/>
	<path d="M27.47,120.869c0,2.979-0.47,5.203-1.409,6.673c-0.939,1.47-2.375,2.204-4.309,2.204c-1.855,0-3.266-0.752-4.232-2.257
		c-0.967-1.506-1.45-3.712-1.45-6.62c0-3.003,0.467-5.23,1.403-6.685c0.935-1.454,2.362-2.182,4.28-2.182
		c1.871,0,3.291,0.759,4.262,2.275C26.985,115.796,27.47,117.992,27.47,120.869z M18.05,120.869c0,2.507,0.295,4.332,0.884,5.477
		c0.589,1.144,1.529,1.715,2.818,1.715c1.305,0,2.25-0.579,2.835-1.739c0.585-1.159,0.878-2.977,0.878-5.452
		s-0.292-4.29-0.878-5.441c-0.586-1.151-1.531-1.727-2.835-1.727c-1.289,0-2.229,0.567-2.818,1.703S18.05,118.362,18.05,120.869z"/>
</g>
<rect y="35.256" fill="none" width="28.972" height="20.279"/>
<g enable-background="new    ">
	<path d="M13.57,52.494H2.241v-1.686l4.539-4.562c1.383-1.399,2.295-2.397,2.735-2.995c0.44-0.597,0.77-1.179,0.99-1.745
		c0.22-0.565,0.33-1.175,0.33-1.827c0-0.92-0.279-1.648-0.837-2.187c-0.558-0.539-1.332-0.808-2.323-0.808
		c-0.715,0-1.393,0.117-2.034,0.354c-0.641,0.235-1.354,0.664-2.14,1.285l-1.038-1.332c1.588-1.321,3.317-1.981,5.188-1.981
		c1.619,0,2.889,0.415,3.808,1.244s1.379,1.943,1.379,3.343c0,1.092-0.307,2.173-0.919,3.242c-0.613,1.068-1.761,2.421-3.443,4.056
		l-3.772,3.689v0.095h8.866V52.494z"/>
	<path d="M21.434,41.966c1.815,0,3.244,0.45,4.286,1.351c1.041,0.899,1.562,2.132,1.562,3.695c0,1.784-0.568,3.184-1.704,4.197
		s-2.702,1.521-4.698,1.521c-1.941,0-3.423-0.31-4.445-0.931v-1.887c0.55,0.354,1.234,0.631,2.052,0.831
		c0.817,0.2,1.623,0.301,2.417,0.301c1.383,0,2.458-0.326,3.225-0.979s1.149-1.596,1.149-2.829c0-2.405-1.474-3.608-4.421-3.608
		c-0.747,0-1.745,0.114-2.995,0.343l-1.014-0.648l0.648-8.064h8.571v1.804H19.17l-0.436,5.176
		C19.638,42.057,20.538,41.966,21.434,41.966z"/>
</g>
<rect x="106.896" y="450.332" fill="none" width="28.972" height="20.279"/>
<g enable-background="new    ">
	<path d="M121.236,457.041c1.815,0,3.244,0.45,4.286,1.351c1.041,0.899,1.562,2.132,1.562,3.695c0,1.784-0.568,3.184-1.704,4.197
		s-2.702,1.521-4.698,1.521c-1.941,0-3.423-0.31-4.445-0.931v-1.887c0.55,0.354,1.234,0.631,2.052,0.831
		c0.817,0.2,1.623,0.301,2.417,0.301c1.383,0,2.458-0.326,3.225-0.979s1.149-1.596,1.149-2.829c0-2.405-1.474-3.608-4.421-3.608
		c-0.747,0-1.745,0.114-2.995,0.343l-1.014-0.648l0.648-8.064h8.571v1.804h-6.897l-0.436,5.176
		C119.44,457.132,120.34,457.041,121.236,457.041z"/>
</g>
<rect x="183.66" y="450.332" fill="none" width="28.972" height="20.279"/>
<g enable-background="new    ">
	<path d="M193.151,467.569h-1.91v-12.285c0-1.021,0.031-1.988,0.094-2.899c-0.165,0.165-0.35,0.338-0.554,0.519
		c-0.205,0.181-1.14,0.947-2.806,2.299l-1.038-1.344l4.562-3.525h1.651V467.569z"/>
	<path d="M211.13,458.928c0,2.979-0.47,5.203-1.409,6.673c-0.939,1.47-2.375,2.204-4.309,2.204c-1.855,0-3.266-0.752-4.232-2.257
		c-0.967-1.506-1.45-3.712-1.45-6.62c0-3.003,0.467-5.23,1.403-6.685c0.935-1.454,2.362-2.182,4.28-2.182
		c1.871,0,3.291,0.759,4.262,2.275C210.645,453.854,211.13,456.051,211.13,458.928z M201.71,458.928
		c0,2.507,0.295,4.332,0.884,5.477c0.589,1.144,1.529,1.715,2.818,1.715c1.305,0,2.25-0.579,2.835-1.739
		c0.585-1.159,0.878-2.977,0.878-5.452s-0.292-4.29-0.878-5.441c-0.586-1.151-1.531-1.727-2.835-1.727
		c-1.289,0-2.229,0.567-2.818,1.703S201.71,456.421,201.71,458.928z"/>
</g>
<rect x="260.67" y="450.332" fill="none" width="28.972" height="20.279"/>
<g enable-background="new    ">
	<path d="M270.162,467.569h-1.91v-12.285c0-1.021,0.031-1.988,0.095-2.899c-0.166,0.165-0.35,0.338-0.555,0.519
		c-0.204,0.181-1.14,0.947-2.806,2.299l-1.038-1.344l4.562-3.525h1.651V467.569z"/>
	<path d="M282.104,457.041c1.816,0,3.244,0.45,4.286,1.351c1.041,0.899,1.562,2.132,1.562,3.695c0,1.784-0.567,3.184-1.703,4.197
		s-2.702,1.521-4.698,1.521c-1.941,0-3.423-0.31-4.444-0.931v-1.887c0.55,0.354,1.233,0.631,2.051,0.831s1.623,0.301,2.417,0.301
		c1.384,0,2.458-0.326,3.225-0.979s1.149-1.596,1.149-2.829c0-2.405-1.474-3.608-4.421-3.608c-0.747,0-1.745,0.114-2.995,0.343
		l-1.014-0.648l0.648-8.064h8.571v1.804h-6.897l-0.436,5.176C280.308,457.132,281.208,457.041,282.104,457.041z"/>
</g>
<rect x="340.19" y="450.332" fill="none" width="28.973" height="20.279"/>
<g enable-background="new    ">
	<path d="M353.76,467.569h-11.33v-1.686l4.539-4.562c1.383-1.399,2.295-2.397,2.735-2.995c0.44-0.597,0.771-1.179,0.99-1.745
		c0.22-0.565,0.33-1.175,0.33-1.827c0-0.92-0.278-1.648-0.837-2.187c-0.559-0.539-1.332-0.808-2.322-0.808
		c-0.716,0-1.394,0.117-2.034,0.354c-0.641,0.235-1.354,0.664-2.14,1.285l-1.037-1.332c1.588-1.321,3.316-1.981,5.188-1.981
		c1.619,0,2.889,0.415,3.808,1.244s1.38,1.943,1.38,3.343c0,1.092-0.307,2.173-0.92,3.242c-0.613,1.068-1.761,2.421-3.443,4.056
		l-3.771,3.689v0.095h8.865V467.569z"/>
	<path d="M367.661,458.928c0,2.979-0.471,5.203-1.409,6.673c-0.939,1.47-2.376,2.204-4.31,2.204c-1.854,0-3.266-0.752-4.232-2.257
		c-0.967-1.506-1.449-3.712-1.449-6.62c0-3.003,0.467-5.23,1.402-6.685s2.361-2.182,4.279-2.182c1.871,0,3.291,0.759,4.262,2.275
		C367.174,453.854,367.661,456.051,367.661,458.928z M358.241,458.928c0,2.507,0.295,4.332,0.884,5.477
		c0.589,1.144,1.528,1.715,2.817,1.715c1.305,0,2.25-0.579,2.836-1.739c0.586-1.159,0.878-2.977,0.878-5.452
		s-0.292-4.29-0.878-5.441s-1.531-1.727-2.836-1.727c-1.289,0-2.229,0.567-2.817,1.703S358.241,456.421,358.241,458.928z"/>
</g>
<rect x="418.19" y="450.332" fill="none" width="28.973" height="20.279"/>
<g enable-background="new    ">
	<path d="M431.76,467.569h-11.33v-1.686l4.539-4.562c1.383-1.399,2.295-2.397,2.735-2.995c0.44-0.597,0.771-1.179,0.99-1.745
		c0.22-0.565,0.33-1.175,0.33-1.827c0-0.92-0.278-1.648-0.837-2.187c-0.559-0.539-1.332-0.808-2.322-0.808
		c-0.716,0-1.394,0.117-2.034,0.354c-0.641,0.235-1.354,0.664-2.14,1.285l-1.037-1.332c1.588-1.321,3.316-1.981,5.188-1.981
		c1.619,0,2.889,0.415,3.808,1.244s1.38,1.943,1.38,3.343c0,1.092-0.307,2.173-0.92,3.242c-0.613,1.068-1.761,2.421-3.443,4.056
		l-3.771,3.689v0.095h8.865V467.569z"/>
	<path d="M439.624,457.041c1.816,0,3.244,0.45,4.286,1.351c1.041,0.899,1.562,2.132,1.562,3.695c0,1.784-0.567,3.184-1.703,4.197
		s-2.702,1.521-4.698,1.521c-1.941,0-3.423-0.31-4.444-0.931v-1.887c0.55,0.354,1.233,0.631,2.051,0.831s1.623,0.301,2.417,0.301
		c1.384,0,2.458-0.326,3.225-0.979s1.149-1.596,1.149-2.829c0-2.405-1.474-3.608-4.421-3.608c-0.747,0-1.745,0.114-2.995,0.343
		l-1.014-0.648l0.648-8.064h8.571v1.804h-6.897l-0.436,5.176C437.828,457.132,438.728,457.041,439.624,457.041z"/>
</g>
<circle fill="#E15218" cx="121.381" cy="368.382" r="3.235"/>
<circle fill="#E15218" cx="136.868" cy="322.715" r="3.235"/>
<circle fill="#E15218" cx="229.788" cy="230.381" r="3.235"/>
<circle fill="#E15218" cx="229.788" cy="183.631" r="3.235"/>
<circle fill="#E15218" cx="41.985" cy="337.381" r="3.235"/>
<circle fill="#E15218" cx="105.022" cy="276.44" r="3.235"/>
<circle fill="#E15218" cx="90.022" cy="260.714" r="3.235"/>
<circle fill="#E15218" cx="89.622" cy="153.048" r="3.235"/>
<circle fill="#E15218" cx="105.455" cy="138.147" r="3.235"/>
<circle fill="#E15218" cx="214.455" cy="399.381" r="3.235"/>
<circle fill="#E15218" cx="245.687" cy="429.853" r="3.235"/>
<circle fill="#E15218" cx="260.67" cy="353.457" r="3.235"/>
<circle fill="#E15218" cx="41.985" cy="76.548" r="3.235"/>
<circle fill="#E15218" cx="121.381" cy="45.396" r="3.235"/>
<circle fill="#E15218" cx="136.604" cy="91.564" r="3.235"/>
<circle fill="#E15218" cx="214.356" cy="15.048" r="3.235"/>
<circle fill="#E15218" cx="261.086" cy="60.714" r="3.235"/>
<circle fill="#E15218" cx="338.553" cy="214.926" r="3.235"/>
<circle fill="#E15218" cx="338.553" cy="199.426" r="3.235"/>
<circle fill="#E15218" cx="401.022" cy="122.411" r="3.235"/>
<circle fill="#E15218" cx="479.356" cy="107.048" r="3.235"/>
<circle fill="#E15218" cx="447.788" cy="30.382" r="3.235"/>
<circle fill="#E15218" cx="479.356" cy="307.048" r="3.235"/>
<circle fill="#E15218" cx="463.356" cy="245.548" r="3.235"/>
<circle fill="#E15218" cx="401.022" cy="291.282" r="3.235"/>
<circle fill="#E15218" cx="448.256" cy="383.618" r="3.235"/>
<circle fill="#E15218" cx="432.442" cy="414.725" r="3.235"/>
<line fill="none" stroke="#E15218" stroke-width="1.202" stroke-linecap="round" stroke-miterlimit="10" x1="90.191" y1="153.715" x2="104.443" y2="175.812"/>
<line fill="none" stroke="#E15218" stroke-width="1.202" stroke-linecap="round" stroke-miterlimit="10" x1="401.022" y1="122.906" x2="387.112" y2="101.144"/>
<g>
	<rect x="254.295" y="83.894" fill="none" width="133" height="34.5"/>
	<path d="M278.459,90.882c0,1.998-0.625,3.525-1.873,4.583s-3.023,1.587-5.326,1.587h-1.688v6.602h-3.936V85.093h5.928
		c2.252,0,3.963,0.484,5.136,1.454S278.459,88.96,278.459,90.882z M269.573,93.827h1.295c1.21,0,2.115-0.239,2.717-0.717
		c0.601-0.478,0.9-1.174,0.9-2.088c0-0.922-0.252-1.604-0.755-2.044s-1.293-0.66-2.368-0.66h-1.789V93.827z"/>
	<path d="M293.643,103.653h-12.975v-2.729l4.658-4.71c1.38-1.414,2.281-2.393,2.705-2.939c0.423-0.546,0.728-1.052,0.914-1.517
		c0.186-0.465,0.279-0.948,0.279-1.447c0-0.745-0.205-1.299-0.616-1.663s-0.958-0.546-1.644-0.546c-0.72,0-1.418,0.165-2.096,0.495
		c-0.677,0.33-1.383,0.8-2.119,1.409l-2.133-2.526c0.914-0.779,1.671-1.329,2.271-1.65c0.602-0.322,1.258-0.569,1.969-0.743
		s1.506-0.26,2.387-0.26c1.159,0,2.184,0.211,3.072,0.635s1.578,1.016,2.068,1.777c0.491,0.762,0.736,1.633,0.736,2.615
		c0,0.855-0.15,1.657-0.45,2.406s-0.767,1.517-1.396,2.304s-1.741,1.909-3.333,3.364l-2.387,2.247v0.178h8.088V103.653z"/>
	<path d="M295.508,96.531c0-2.243,0.328-4.342,0.984-6.297s1.602-3.669,2.838-5.142h2.057c-1.219,1.633-2.135,3.428-2.749,5.383
		s-0.921,3.965-0.921,6.03c0,2.031,0.313,4.016,0.939,5.954c0.627,1.938,1.528,3.707,2.705,5.307h-2.031
		c-1.244-1.439-2.192-3.119-2.844-5.04C295.834,100.805,295.508,98.74,295.508,96.531z"/>
	<path d="M315.631,103.653H303.43v-1.815l4.889-4.913c1.489-1.506,2.471-2.582,2.945-3.225c0.474-0.643,0.829-1.27,1.066-1.879
		c0.236-0.609,0.355-1.265,0.355-1.968c0-0.99-0.301-1.775-0.902-2.355c-0.601-0.58-1.434-0.87-2.5-0.87
		c-0.771,0-1.5,0.127-2.19,0.381s-1.458,0.715-2.304,1.384l-1.117-1.435c1.709-1.422,3.571-2.133,5.586-2.133
		c1.743,0,3.109,0.446,4.1,1.339s1.486,2.093,1.486,3.599c0,1.176-0.33,2.34-0.99,3.491s-1.896,2.607-3.707,4.367l-4.062,3.974
		v0.102h9.547V103.653z"/>
	<path d="M329.799,89.46c0,1.185-0.332,2.154-0.996,2.907c-0.665,0.753-1.606,1.257-2.825,1.511v0.102
		c1.489,0.186,2.594,0.66,3.313,1.422s1.079,1.76,1.079,2.996c0,1.769-0.613,3.129-1.841,4.082s-2.971,1.428-5.23,1.428
		c-0.981,0-1.881-0.074-2.697-0.222c-0.817-0.148-1.61-0.408-2.381-0.781v-2.006c0.804,0.398,1.661,0.7,2.57,0.908
		c0.91,0.208,1.771,0.311,2.584,0.311c3.208,0,4.812-1.257,4.812-3.771c0-2.251-1.769-3.377-5.307-3.377h-1.828v-1.815h1.854
		c1.447,0,2.594-0.319,3.44-0.958s1.27-1.525,1.27-2.66c0-0.906-0.311-1.617-0.934-2.133c-0.621-0.516-1.466-0.774-2.532-0.774
		c-0.812,0-1.578,0.11-2.298,0.33s-1.54,0.626-2.463,1.219l-1.066-1.422c0.762-0.601,1.64-1.073,2.635-1.416
		c0.994-0.343,2.041-0.514,3.142-0.514c1.803,0,3.203,0.413,4.202,1.238S329.799,88.021,329.799,89.46z"/>
	<path d="M336.337,100.632l0.19,0.292c-0.22,0.846-0.537,1.83-0.952,2.952s-0.847,2.165-1.295,3.129h-1.587
		c0.229-0.88,0.48-1.968,0.755-3.263c0.275-1.295,0.468-2.332,0.578-3.11H336.337z"/>
	<path d="M354.334,103.653h-12.2v-1.815l4.888-4.913c1.489-1.506,2.472-2.582,2.945-3.225s0.829-1.27,1.066-1.879
		s0.355-1.265,0.355-1.968c0-0.99-0.301-1.775-0.901-2.355s-1.435-0.87-2.501-0.87c-0.771,0-1.5,0.127-2.19,0.381
		c-0.689,0.254-1.457,0.715-2.304,1.384l-1.117-1.435c1.71-1.422,3.571-2.133,5.586-2.133c1.743,0,3.11,0.446,4.101,1.339
		s1.485,2.093,1.485,3.599c0,1.176-0.33,2.34-0.99,3.491s-1.896,2.607-3.707,4.367l-4.062,3.974v0.102h9.547V103.653z"/>
	<path d="M369.302,94.348c0,3.208-0.506,5.603-1.517,7.186c-1.012,1.583-2.559,2.374-4.641,2.374c-1.997,0-3.517-0.811-4.558-2.431
		s-1.562-3.997-1.562-7.128c0-3.233,0.504-5.632,1.511-7.198s2.543-2.349,4.608-2.349c2.015,0,3.544,0.817,4.59,2.45
		C368.78,88.884,369.302,91.25,369.302,94.348z M359.159,94.348c0,2.7,0.317,4.666,0.952,5.897s1.646,1.847,3.034,1.847
		c1.405,0,2.423-0.624,3.053-1.873c0.631-1.249,0.946-3.206,0.946-5.872s-0.315-4.619-0.946-5.859c-0.63-1.24-1.647-1.86-3.053-1.86
		c-1.388,0-2.399,0.611-3.034,1.834S359.159,91.648,359.159,94.348z"/>
	<path d="M377.25,96.531c0,2.226-0.328,4.299-0.984,6.221c-0.655,1.921-1.602,3.593-2.837,5.015h-2.031
		c1.177-1.591,2.078-3.358,2.704-5.3s0.939-3.929,0.939-5.96c0-2.065-0.307-4.075-0.92-6.03c-0.614-1.955-1.53-3.75-2.749-5.383
		h2.057c1.244,1.481,2.192,3.201,2.844,5.161S377.25,94.305,377.25,96.531z"/>
</g>
<g>
	<rect x="78.121" y="185.411" fill="none" width="133" height="34.5"/>
	<path d="M109.718,192.399c0,1.998-0.624,3.525-1.873,4.583s-3.023,1.587-5.326,1.587h-1.688v6.602h-3.936V186.61h5.929
		c2.251,0,3.963,0.484,5.135,1.454S109.718,190.478,109.718,192.399z M100.831,195.345h1.295c1.21,0,2.116-0.239,2.717-0.717
		s0.901-1.174,0.901-2.088c0-0.922-0.252-1.604-0.755-2.044s-1.293-0.66-2.368-0.66h-1.79V195.345z"/>
	<path d="M121.626,205.171h-3.923v-10.74l0.038-1.765l0.063-1.93c-0.652,0.652-1.104,1.079-1.358,1.282l-2.133,1.714l-1.892-2.361
		l5.979-4.761h3.225V205.171z"/>
	<path d="M126.768,198.049c0-2.243,0.328-4.342,0.984-6.297s1.602-3.669,2.837-5.142h2.057c-1.219,1.633-2.135,3.428-2.749,5.383
		s-0.92,3.965-0.92,6.03c0,2.031,0.313,4.016,0.939,5.954s1.528,3.707,2.704,5.307h-2.031c-1.244-1.439-2.192-3.119-2.844-5.04
		S126.768,200.258,126.768,198.049z"/>
	<path d="M146.191,190.978c0,1.185-0.332,2.154-0.996,2.907c-0.665,0.753-1.606,1.257-2.825,1.511v0.102
		c1.489,0.186,2.594,0.66,3.313,1.422s1.079,1.76,1.079,2.996c0,1.769-0.613,3.129-1.841,4.082s-2.971,1.428-5.23,1.428
		c-0.981,0-1.881-0.074-2.697-0.222c-0.817-0.148-1.611-0.408-2.381-0.781v-2.006c0.805,0.398,1.661,0.7,2.57,0.908
		c0.91,0.208,1.771,0.311,2.584,0.311c3.208,0,4.812-1.257,4.812-3.771c0-2.251-1.769-3.377-5.307-3.377h-1.828v-1.815h1.854
		c1.447,0,2.594-0.319,3.44-0.958s1.27-1.525,1.27-2.66c0-0.906-0.311-1.617-0.934-2.133c-0.621-0.516-1.466-0.774-2.532-0.774
		c-0.812,0-1.578,0.11-2.298,0.33s-1.54,0.626-2.463,1.219l-1.066-1.422c0.762-0.601,1.64-1.073,2.635-1.416
		c0.994-0.343,2.041-0.514,3.142-0.514c1.803,0,3.203,0.413,4.202,1.238S146.191,189.539,146.191,190.978z"/>
	<path d="M152.729,202.149l0.19,0.292c-0.22,0.846-0.537,1.83-0.952,2.952s-0.847,2.165-1.295,3.129h-1.587
		c0.229-0.88,0.48-1.968,0.755-3.263c0.275-1.295,0.468-2.332,0.578-3.11H152.729z"/>
	<path d="M166.334,205.171h-2.057v-13.229c0-1.1,0.034-2.141,0.102-3.123c-0.178,0.178-0.377,0.364-0.597,0.559
		s-1.228,1.02-3.021,2.476l-1.117-1.447l4.913-3.796h1.777V205.171z"/>
	<path d="M179.537,186.344c1.692,0,3.034,0.394,4.024,1.181s1.485,1.875,1.485,3.263c0,0.914-0.283,1.748-0.851,2.501
		s-1.473,1.439-2.717,2.057c1.507,0.719,2.577,1.475,3.212,2.266s0.952,1.708,0.952,2.749c0,1.541-0.537,2.77-1.612,3.688
		s-2.548,1.377-4.418,1.377c-1.98,0-3.504-0.434-4.57-1.301s-1.6-2.097-1.6-3.688c0-2.125,1.295-3.779,3.885-4.964
		c-1.168-0.66-2.006-1.373-2.514-2.139s-0.762-1.623-0.762-2.571c0-1.346,0.497-2.418,1.492-3.218
		C176.539,186.744,177.87,186.344,179.537,186.344z M175.525,200.486c0,1.016,0.354,1.807,1.061,2.374
		c0.706,0.567,1.698,0.851,2.977,0.851c1.261,0,2.243-0.296,2.945-0.889s1.054-1.405,1.054-2.438c0-0.821-0.33-1.551-0.99-2.19
		s-1.812-1.259-3.453-1.86c-1.261,0.542-2.175,1.141-2.742,1.796S175.525,199.572,175.525,200.486z M179.512,188.058
		c-1.058,0-1.888,0.254-2.488,0.762s-0.901,1.185-0.901,2.031c0,0.779,0.25,1.447,0.749,2.006s1.422,1.117,2.768,1.676
		c1.21-0.508,2.067-1.054,2.57-1.638c0.504-0.584,0.756-1.265,0.756-2.044c0-0.855-0.307-1.534-0.92-2.038
		C181.431,188.31,180.587,188.058,179.512,188.058z"/>
	<path d="M193.642,198.049c0,2.226-0.328,4.299-0.984,6.221c-0.655,1.921-1.602,3.593-2.837,5.015h-2.031
		c1.177-1.591,2.078-3.358,2.704-5.3s0.939-3.929,0.939-5.96c0-2.065-0.307-4.075-0.92-6.03c-0.614-1.955-1.53-3.75-2.749-5.383
		h2.057c1.244,1.481,2.192,3.201,2.844,5.161S193.642,195.823,193.642,198.049z"/>
</g>
</svg>
