<?xml version="1.0" encoding="utf-8"?>
<!-- Generator: Adobe Illustrator 16.0.4, SVG Export Plug-In . SVG Version: 6.00 Build 0)  -->
<!DOCTYPE svg PUBLIC "-//W3C//DTD SVG 1.1//EN" "http://www.w3.org/Graphics/SVG/1.1/DTD/svg11.dtd">
<svg version="1.1" id="Layer_1" xmlns="http://www.w3.org/2000/svg" xmlns:xlink="http://www.w3.org/1999/xlink" x="0px" y="0px"
	 width="1366px" height="768px" viewBox="0 0 1366 768" enable-background="new 0 0 1366 768" xml:space="preserve">
<g>
	
		<line opacity="0.22" fill="none" stroke="#000000" stroke-width="1.214" stroke-miterlimit="10" x1="1000.742" y1="625.771" x2="1000.742" y2="277.864"/>
	
		<line fill="none" stroke="#000000" stroke-width="1.214" stroke-miterlimit="10" x1="936.481" y1="625.771" x2="936.481" y2="277.864"/>
	
		<line opacity="0.22" fill="none" stroke="#000000" stroke-width="1.214" stroke-miterlimit="10" x1="1063.683" y1="625.771" x2="1063.683" y2="277.864"/>
	
		<line opacity="0.22" fill="none" stroke="#000000" stroke-width="1.214" stroke-miterlimit="10" x1="1126.622" y1="625.771" x2="1126.622" y2="277.864"/>
	
		<line opacity="0.22" fill="none" stroke="#000000" stroke-width="1.214" stroke-miterlimit="10" x1="1189.562" y1="625.771" x2="1189.562" y2="277.864"/>
	
		<line opacity="0.22" fill="none" stroke="#000000" stroke-width="1.214" stroke-miterlimit="10" x1="1252.503" y1="625.771" x2="1252.503" y2="277.864"/>
	
		<line opacity="0.22" fill="none" stroke="#000000" stroke-width="1.214" stroke-miterlimit="10" x1="1290.473" y1="563.938" x2="936.481" y2="563.938"/>
	
		<line fill="none" stroke="#000000" stroke-width="1.214" stroke-miterlimit="10" x1="1290.473" y1="625.77" x2="936.481" y2="625.771"/>
	
		<line opacity="0.22" fill="none" stroke="#000000" stroke-width="1.214" stroke-miterlimit="10" x1="1290.473" y1="501.604" x2="936.481" y2="501.604"/>
	
		<line opacity="0.22" fill="none" stroke="#000000" stroke-width="1.214" stroke-miterlimit="10" x1="1290.473" y1="439.271" x2="936.481" y2="439.271"/>
	
		<line opacity="0.22" fill="none" stroke="#000000" stroke-width="1.214" stroke-miterlimit="10" x1="1290.473" y1="376.938" x2="936.481" y2="376.938"/>
	
		<line opacity="0.22" fill="none" stroke="#000000" stroke-width="1.214" stroke-miterlimit="10" x1="1290.473" y1="314.605" x2="936.481" y2="314.605"/>
	<rect x="924.757" y="642.345" fill="none" width="23.449" height="16.414"/>
	<text transform="matrix(1 0 0 1 931.0488 656.2979)" font-family="'HelveticaNeue'" font-size="19.5421">0</text>
	<rect x="902.501" y="620.224" fill="none" width="23.448" height="16.412"/>
	<text transform="matrix(1 0 0 1 908.792 634.1758)" font-family="'HelveticaNeue'" font-size="19.5421">0</text>
	<rect x="902.501" y="555.731" fill="none" width="23.448" height="16.412"/>
	<text transform="matrix(1 0 0 1 908.792 569.6836)" font-family="'HelveticaNeue'" font-size="19.5421">5</text>
	<rect x="902.501" y="493.397" fill="none" width="23.448" height="16.414"/>
	<text transform="matrix(1 0 0 1 903.3594 507.3516)" font-family="'HelveticaNeue'" font-size="19.5421">10</text>
	<rect x="902.501" y="431.065" fill="none" width="23.448" height="16.413"/>
	<text transform="matrix(1 0 0 1 903.3594 445.0186)" font-family="'HelveticaNeue'" font-size="19.5421">15</text>
	<rect x="902.501" y="368.732" fill="none" width="23.448" height="16.413"/>
	<text transform="matrix(1 0 0 1 903.3594 382.6851)" font-family="'HelveticaNeue'" font-size="19.5421">20</text>
	<rect x="902.501" y="306.399" fill="none" width="23.448" height="16.414"/>
	<text transform="matrix(1 0 0 1 903.3594 320.3516)" font-family="'HelveticaNeue'" font-size="19.5421">25</text>
	<rect x="989.018" y="642.345" fill="none" width="23.449" height="16.414"/>
	<text transform="matrix(1 0 0 1 995.3096 656.2979)" font-family="'HelveticaNeue'" font-size="19.5421">5</text>
	<rect x="1051.148" y="642.345" fill="none" width="23.449" height="16.414"/>
	<text transform="matrix(1 0 0 1 1052.0078 656.2979)" font-family="'HelveticaNeue'" font-size="19.5421">10</text>
	<rect x="1113.478" y="642.345" fill="none" width="23.449" height="16.414"/>
	<text transform="matrix(1 0 0 1 1114.3369 656.2979)" font-family="'HelveticaNeue'" font-size="19.5421">15</text>
	<rect x="1177.838" y="642.345" fill="none" width="23.449" height="16.414"/>
	<text transform="matrix(1 0 0 1 1178.6973 656.2979)" font-family="'HelveticaNeue'" font-size="19.5421">20</text>
	<rect x="1240.968" y="642.345" fill="none" width="23.449" height="16.414"/>
	<text transform="matrix(1 0 0 1 1241.8271 656.2979)" font-family="'HelveticaNeue'" font-size="19.5421">25</text>
	<circle fill="#E15218" enable-background="new    " cx="1000.742" cy="576.019" r="2.618"/>
	<circle fill="#E15218" enable-background="new    " cx="1013.276" cy="539.058" r="2.618"/>
	<circle fill="#E15218" enable-background="new    " cx="1088.482" cy="464.326" r="2.618"/>
	<circle fill="#E15218" enable-background="new    " cx="1088.482" cy="426.488" r="2.618"/>
	<circle fill="#E15218" enable-background="new    " cx="936.481" cy="550.928" r="2.618"/>
	<circle fill="#E15218" enable-background="new    " cx="987.502" cy="501.604" r="2.618"/>
	<circle fill="#E15218" enable-background="new    " cx="975.361" cy="488.876" r="2.618"/>
	<circle fill="#E15218" enable-background="new    " cx="975.037" cy="401.735" r="2.618"/>
	<circle fill="#E15218" enable-background="new    " cx="987.851" cy="389.676" r="2.619"/>
	<circle fill="#E15218" enable-background="new    " cx="1076.072" cy="601.108" r="2.619"/>
	<circle fill="#E15218" enable-background="new    " cx="1101.35" cy="625.771" r="2.619"/>
	<circle fill="#E15218" enable-background="new    " cx="1113.477" cy="563.938" r="2.618"/>
	<circle fill="#E15218" enable-background="new    " cx="936.481" cy="339.819" r="2.618"/>
	<circle fill="#E15218" enable-background="new    " cx="1000.742" cy="314.605" r="2.618"/>
	<circle fill="#E15218" enable-background="new    " cx="1013.063" cy="351.972" r="2.618"/>
	<circle fill="#E15218" enable-background="new    " cx="1075.992" cy="290.043" r="2.618"/>
	<circle fill="#E15218" enable-background="new    " cx="1113.814" cy="327.004" r="2.618"/>
	<circle fill="#E15218" enable-background="new    " cx="1176.513" cy="451.817" r="2.618"/>
	<circle fill="#E15218" enable-background="new    " cx="1176.513" cy="439.271" r="2.618"/>
	<circle fill="#E15218" enable-background="new    " cx="1227.073" cy="376.938" r="2.618"/>
	<circle fill="#E15218" enable-background="new    " cx="1290.473" cy="364.505" r="2.618"/>
	<circle fill="#E15218" enable-background="new    " cx="1264.923" cy="302.454" r="2.618"/>
	<circle fill="#E15218" enable-background="new    " cx="1252.502" cy="276.606" r="2.618"/>
	<circle fill="#E15218" enable-background="new    " cx="1290.473" cy="526.377" r="2.618"/>
	<circle fill="#E15218" enable-background="new    " cx="1277.523" cy="476.602" r="2.618"/>
	<circle fill="#E15218" enable-background="new    " cx="1227.073" cy="513.616" r="2.618"/>
	<circle fill="#E15218" enable-background="new    " cx="1265.303" cy="588.35" r="2.619"/>
	<circle fill="#E15218" enable-background="new    " cx="1252.502" cy="613.526" r="2.618"/>
</g>
<rect x="986.895" y="424.996" fill="none" width="132.904" height="28.551"/>
<text transform="matrix(1 0 0 1 986.8945 440.7041)"><tspan x="0" y="0" font-family="'HelveticaNeue-Bold'" font-size="22">P1</tspan><tspan x="26.906" y="0" font-family="'HelveticaNeue'" font-size="22" letter-spacing="1">(</tspan><tspan x="34.254" y="0" font-family="'HelveticaNeue'" font-size="22">3</tspan><tspan x="46.486" y="0" font-family="'HelveticaNeue'" font-size="22" letter-spacing="1">,</tspan><tspan x="54.252" y="0" font-family="'HelveticaNeue'" font-size="22">1</tspan><tspan x="66.484" y="0" font-family="'HelveticaNeue'" font-size="22" letter-spacing="1">8)</tspan></text>
<line fill="none" stroke="#E15218" stroke-linecap="round" stroke-miterlimit="10" enable-background="new    " x1="975.037" y1="401.736" x2="986.895" y2="420.119"/>
<rect x="1113.814" y="347.613" fill="none" width="132.904" height="28.55"/>
<text transform="matrix(1 0 0 1 1113.8145 363.3213)"><tspan x="0" y="0" font-family="'HelveticaNeue-Bold'" font-size="22">P2</tspan><tspan x="26.906" y="0" font-family="'HelveticaNeue'" font-size="22" letter-spacing="1">(</tspan><tspan x="34.254" y="0" font-family="'HelveticaNeue'" font-size="22">23</tspan><tspan x="58.718" y="0" font-family="'HelveticaNeue'" font-size="22" letter-spacing="1">,</tspan><tspan x="66.484" y="0" font-family="'HelveticaNeue'" font-size="22">2</tspan><tspan x="78.716" y="0" font-family="'HelveticaNeue'" font-size="22" letter-spacing="1">0)</tspan></text>
<rect x="1070.167" y="490.889" fill="none" width="156.906" height="28.666"/>
<text transform="matrix(1 0 0 1 1070.167 506.5967)"><tspan x="0" y="0" font-family="'HelveticaNeue-Bold'" font-size="22">P1+P2</tspan><tspan x="67.011" y="0" font-family="'HelveticaNeue'" font-size="22" letter-spacing="1">(</tspan><tspan x="74.358" y="0" font-family="'HelveticaNeue'" font-size="22">12</tspan><tspan x="98.823" y="0" font-family="'HelveticaNeue'" font-size="22" letter-spacing="1">,</tspan><tspan x="106.589" y="0" font-family="'HelveticaNeue'" font-size="22">13</tspan><tspan x="131.053" y="0" font-family="'HelveticaNeue'" font-size="22" letter-spacing="1">)</tspan></text>
<line fill="none" stroke="#E15218" stroke-linecap="round" stroke-miterlimit="10" enable-background="new    " x1="1227.073" y1="376.938" x2="1215.5" y2="358.833"/>
<line fill="none" stroke="#E15218" stroke-linecap="round" stroke-miterlimit="10" enable-background="new    " x1="1101.35" y1="486.259" x2="1088.482" y2="464.326"/>
</svg>
