<?xml version="1.0" encoding="utf-8"?>
<!-- Generator: Adobe Illustrator 16.0.4, SVG Export Plug-In . SVG Version: 6.00 Build 0)  -->
<!DOCTYPE svg PUBLIC "-//W3C//DTD SVG 1.1//EN" "http://www.w3.org/Graphics/SVG/1.1/DTD/svg11.dtd">
<svg version="1.1" id="Layer_1" xmlns="http://www.w3.org/2000/svg" xmlns:xlink="http://www.w3.org/1999/xlink" x="0px" y="0px"
	 width="1366px" height="768px" viewBox="0 0 1366 768" enable-background="new 0 0 1366 768" xml:space="preserve">
<line fill="none" stroke="#000000" stroke-width="1.4487" stroke-miterlimit="10" x1="151.524" y1="441.568" x2="581.378" y2="441.568"/>
<line fill="none" stroke="#000000" stroke-width="1.4487" stroke-miterlimit="10" x1="327.948" y1="656.857" x2="327.948" y2="227.004"/>
<rect x="108.722" y="587.912" fill="none" width="28.973" height="20.281"/>
<text transform="matrix(1 0 0 1 114.8774 605.1514)" font-family="'HelveticaNeue'" font-size="24.1451">-6</text>
<rect x="108.722" y="640.579" fill="none" width="28.973" height="20.281"/>
<text transform="matrix(1 0 0 1 114.8774 657.8184)" font-family="'HelveticaNeue'" font-size="24.1451">-8</text>
<rect x="108.722" y="484.912" fill="none" width="28.973" height="20.281"/>
<text transform="matrix(1 0 0 1 114.8774 502.1523)" font-family="'HelveticaNeue'" font-size="24.1451">-2</text>
<rect x="108.722" y="535.912" fill="none" width="28.973" height="20.281"/>
<text transform="matrix(1 0 0 1 114.8774 553.1523)" font-family="'HelveticaNeue'" font-size="24.1451">-4</text>
<rect x="108.722" y="432.029" fill="none" width="28.973" height="20.279"/>
<text transform="matrix(1 0 0 1 124.2695 449.2676)" font-family="'HelveticaNeue'" font-size="24.1451">0</text>
<rect x="108.722" y="377.912" fill="none" width="28.973" height="20.281"/>
<text transform="matrix(1 0 0 1 124.2695 395.1523)" font-family="'HelveticaNeue'" font-size="24.1451">2</text>
<rect x="108.722" y="327.912" fill="none" width="28.973" height="20.281"/>
<text transform="matrix(1 0 0 1 124.2695 345.1519)" font-family="'HelveticaNeue'" font-size="24.1451">4</text>
<rect x="108.722" y="227.004" fill="none" width="28.973" height="20.28"/>
<text transform="matrix(1 0 0 1 124.2695 244.2441)" font-family="'HelveticaNeue'" font-size="24.1451">8</text>
<rect x="108.722" y="276.913" fill="none" width="28.973" height="20.28"/>
<text transform="matrix(1 0 0 1 124.2695 294.1523)" font-family="'HelveticaNeue'" font-size="24.1451">6</text>
<rect x="313.263" y="677.336" fill="none" width="28.973" height="20.279"/>
<text transform="matrix(1 0 0 1 321.0371 694.5742)" font-family="'HelveticaNeue'" font-size="24.1451">0</text>
<rect x="388.079" y="677.336" fill="none" width="28.973" height="20.279"/>
<text transform="matrix(1 0 0 1 395.8535 694.5742)" font-family="'HelveticaNeue'" font-size="24.1451">1</text>
<rect x="238.445" y="677.336" fill="none" width="28.973" height="20.279"/>
<text transform="matrix(1 0 0 1 241.5234 694.5742)" font-family="'HelveticaNeue'" font-size="24.1451">-1</text>
<rect x="163.629" y="677.336" fill="none" width="28.973" height="20.279"/>
<text transform="matrix(1 0 0 1 166.707 694.5742)" font-family="'HelveticaNeue'" font-size="24.1451">-2</text>
<rect x="462.896" y="677.336" fill="none" width="28.973" height="20.279"/>
<text transform="matrix(1 0 0 1 470.6694 694.5742)" font-family="'HelveticaNeue'" font-size="24.1451">2</text>
<rect x="537.712" y="677.336" fill="none" width="28.973" height="20.279"/>
<text transform="matrix(1 0 0 1 545.4858 694.5742)" font-family="'HelveticaNeue'" font-size="24.1451">3</text>
<line opacity="0.1" fill="none" stroke="#000000" stroke-width="1.4487" stroke-miterlimit="10" x1="402.698" y1="656.857" x2="402.698" y2="227.004"/>
<line opacity="0.1" fill="none" stroke="#000000" stroke-width="1.4487" stroke-miterlimit="10" x1="477.448" y1="656.857" x2="477.448" y2="227.004"/>
<line opacity="0.1" fill="none" stroke="#000000" stroke-width="1.4487" stroke-miterlimit="10" x1="179.115" y1="656.857" x2="179.115" y2="227.004"/>
<line opacity="0.1" fill="none" stroke="#000000" stroke-width="1.4487" stroke-miterlimit="10" x1="253.865" y1="656.857" x2="253.865" y2="227.004"/>
<line opacity="0.1" fill="none" stroke="#000000" stroke-width="1.4487" stroke-miterlimit="10" x1="552.198" y1="656.857" x2="552.198" y2="227.004"/>
<line opacity="0.1" fill="none" stroke="#000000" stroke-width="1.4487" stroke-miterlimit="10" x1="151.524" y1="287.053" x2="581.378" y2="287.053"/>
<line opacity="0.1" fill="none" stroke="#000000" stroke-width="1.4487" stroke-miterlimit="10" x1="167.524" y1="236.145" x2="597.378" y2="236.145"/>
<line opacity="0.1" fill="none" stroke="#000000" stroke-width="1.4487" stroke-miterlimit="10" x1="151.524" y1="338.053" x2="581.378" y2="338.053"/>
<line opacity="0.1" fill="none" stroke="#000000" stroke-width="1.4487" stroke-miterlimit="10" x1="151.524" y1="388.053" x2="581.378" y2="388.053"/>
<line opacity="0.1" fill="none" stroke="#000000" stroke-width="1.4487" stroke-miterlimit="10" x1="151.524" y1="495.053" x2="581.378" y2="495.053"/>
<line opacity="0.1" fill="none" stroke="#000000" stroke-width="1.4487" stroke-miterlimit="10" x1="151.524" y1="546.053" x2="581.378" y2="546.053"/>
<line opacity="0.1" fill="none" stroke="#000000" stroke-width="1.4487" stroke-miterlimit="10" x1="151.524" y1="598.053" x2="581.378" y2="598.053"/>
<line opacity="0.1" fill="none" stroke="#000000" stroke-width="1.4487" stroke-miterlimit="10" x1="151.524" y1="649.72" x2="581.378" y2="649.72"/>
<path fill="none" stroke="#E15218" stroke-width="3" stroke-miterlimit="10" enable-background="new    " d="M185.448,441.449
	c0,22.104,14,73.021,142.5,69.354c108.971-3.109,161.75,30.25,253.43,107.25"/>
<path fill="none" stroke="#E15218" stroke-width="3" stroke-miterlimit="10" enable-background="new    " d="M185.448,440.64
	c0-22.104,14-73.02,142.5-69.353c108.971,3.109,161.75-30.25,253.43-107.25"/>
<polyline fill="none" stroke="#000000" stroke-width="1.4487" stroke-miterlimit="10" points="253.865,505.365 504.782,559.002 
	504.782,325.053 "/>
<circle cx="504.782" cy="323.165" r="3.536"/>
<g>
	<g>
		<line fill="none" stroke="#636363" stroke-miterlimit="10" x1="217.181" y1="491.517" x2="219.517" y2="492.408"/>
		
			<line fill="none" stroke="#636363" stroke-miterlimit="10" stroke-dasharray="4.9976,4.9976" x1="224.186" y1="494.189" x2="576.708" y2="628.718"/>
		<line fill="none" stroke="#636363" stroke-miterlimit="10" x1="579.042" y1="629.608" x2="581.378" y2="630.5"/>
	</g>
</g>
<g>
	<g>
		<line fill="none" stroke="#636363" stroke-miterlimit="10" x1="188.611" y1="421.834" x2="190.154" y2="423.802"/>
		
			<line fill="none" stroke="#636363" stroke-miterlimit="10" stroke-dasharray="4.9766,4.9766" x1="193.224" y1="427.719" x2="369.756" y2="652.932"/>
		<line fill="none" stroke="#636363" stroke-miterlimit="10" x1="371.291" y1="654.89" x2="372.833" y2="656.857"/>
	</g>
</g>
<circle fill="#636363" cx="217.181" cy="491.517" r="3.536"/>
<circle fill="#636363" cx="188.611" cy="421.834" r="3.536"/>
<circle cx="253.865" cy="505.365" r="3.536"/>
<rect x="250.329" y="479.377" fill="none" width="74.826" height="20.279"/>
<text transform="matrix(1 0 0 1 250.5791 490.8008)"><tspan x="0" y="0" font-family="'HelveticaNeue-Bold'" font-size="16">P1 = P</tspan><tspan x="48.735" y="0" font-family="'HelveticaNeue-Bold'" font-size="16" letter-spacing="1">2’’’</tspan></text>
<rect x="176.895" y="500.829" fill="none" width="37.413" height="20.279"/>
<text transform="matrix(1 0 0 1 183.4438 512.2529)"><tspan x="0" y="0" fill="#A3A3A3" font-family="'HelveticaNeue-Bold'" font-size="16">P</tspan><tspan x="10.672" y="0" fill="#A3A3A3" font-family="'HelveticaNeue-Bold'" font-size="16" letter-spacing="1">2’’</tspan></text>
<rect x="342.235" y="630.439" fill="none" width="37.413" height="20.279"/>
<text transform="matrix(1 0 0 1 364.5122 641.8633)" fill="#A3A3A3" font-family="'HelveticaNeue-Bold'" font-size="16" letter-spacing="1">L’</text>
<rect x="398.346" y="578.045" fill="none" width="37.413" height="20.279"/>
<text transform="matrix(1 0 0 1 414.9746 589.4688)" fill="#A3A3A3" font-family="'HelveticaNeue-Bold'" font-size="16" letter-spacing="1">L’’</text>
<rect x="406.833" y="548.862" fill="none" width="37.413" height="20.279"/>
<text transform="matrix(1 0 0 1 417.8145 560.2861)" fill="#A3A3A3" font-family="'HelveticaNeue-Bold'" font-size="16" letter-spacing="1">L’’’</text>
<rect x="151.524" y="398.193" fill="none" width="37.413" height="20.279"/>
<text transform="matrix(1 0 0 1 163.7212 409.6172)"><tspan x="0" y="0" fill="#A3A3A3" font-family="'HelveticaNeue-Bold'" font-size="16">P</tspan><tspan x="10.672" y="0" fill="#A3A3A3" font-family="'HelveticaNeue-Bold'" font-size="16" letter-spacing="1">2’</tspan></text>
<rect x="366.451" y="300.312" fill="none" width="134.795" height="55.201"/>
<text transform="matrix(1 0 0 1 419.3105 311.7354)" font-family="'HelveticaNeue-Bold'" font-size="16">P3 = 2 * P1</text>
<g>
	<g>
		<path fill="none" stroke="#A3A3A3" stroke-width="1.2" stroke-linecap="round" stroke-miterlimit="10" d="M183.333,425.37
			c-20.909,16.087-11.38,65.983,22.671,67.84"/>
		<g>
			<polygon fill="#A3A3A3" points="210.667,493.167 204.085,495.812 205.659,493.138 204.116,490.446 			"/>
		</g>
	</g>
</g>
<g>
	<g>
		<path fill="none" stroke="#A3A3A3" stroke-width="1.2" stroke-linecap="round" stroke-miterlimit="10" d="M217.181,497.5
			c0,12.074,17.269,20.422,29.246,14.715"/>
		<g>
			<polygon fill="#A3A3A3" points="250.329,509.66 246.2,515.429 246.09,512.327 243.343,510.887 			"/>
		</g>
	</g>
</g>
<g>
	<g>
		<path fill="none" stroke="#A3A3A3" stroke-width="1.2" stroke-linecap="round" stroke-miterlimit="10" d="M345.515,615.361
			c19.979-2.729,45.315-18.033,47.5-49.694"/>
		<g>
			<polygon fill="#A3A3A3" points="393.167,561.008 395.583,567.677 392.965,566.012 390.222,567.461 			"/>
		</g>
	</g>
</g>
<g>
	<g>
		<path fill="none" stroke="#A3A3A3" stroke-width="1.2" stroke-linecap="round" stroke-miterlimit="10" d="M394.167,556.167
			c4.622-2.249,6.571-7.942,5.692-13.106"/>
		<g>
			<polygon fill="#A3A3A3" points="398.302,538.667 402.91,544.061 399.873,543.423 397.814,545.743 			"/>
		</g>
	</g>
</g>
</svg>
