<?xml version="1.0" encoding="utf-8"?>
<!-- Generator: Adobe Illustrator 16.0.4, SVG Export Plug-In . SVG Version: 6.00 Build 0)  -->
<!DOCTYPE svg PUBLIC "-//W3C//DTD SVG 1.1//EN" "http://www.w3.org/Graphics/SVG/1.1/DTD/svg11.dtd">
<svg version="1.1" id="Layer_1" xmlns="http://www.w3.org/2000/svg" xmlns:xlink="http://www.w3.org/1999/xlink" x="0px" y="0px"
	 width="1366px" height="768px" viewBox="0 0 1366 768" enable-background="new 0 0 1366 768" xml:space="preserve">
<g>
	<path fill="none" stroke="#E15218" stroke-width="3" stroke-miterlimit="10" enable-background="new    " d="M189.834,417.476
		c0,30.857,44.49,47.357,119.995,44.908c85.792-2.783,141.966,15.211,268.722,115.891"/>
	<path fill="none" stroke="#E15218" stroke-width="3" stroke-miterlimit="10" enable-background="new    " d="M189.834,416.993
		c0-30.857,44.49-47.358,119.995-44.908c85.792,2.783,141.966-15.211,268.722-115.891"/>
	
		<line fill="none" stroke="#000000" stroke-width="1.4487" stroke-miterlimit="10" x1="148.697" y1="417.112" x2="578.551" y2="417.112"/>
	
		<line opacity="0.33" fill="none" stroke="#000000" stroke-width="1.4487" stroke-miterlimit="10" x1="148.697" y1="244.364" x2="578.551" y2="244.364"/>
	
		<line opacity="0.33" fill="none" stroke="#000000" stroke-width="1.4487" stroke-miterlimit="10" x1="148.697" y1="330.739" x2="578.551" y2="330.739"/>
	
		<line opacity="0.33" fill="none" stroke="#000000" stroke-width="1.4487" stroke-miterlimit="10" x1="148.697" y1="503.487" x2="578.551" y2="503.487"/>
	
		<line opacity="0.33" fill="none" stroke="#000000" stroke-width="1.4487" stroke-miterlimit="10" x1="148.697" y1="589.862" x2="578.551" y2="589.862"/>
	
		<line fill="none" stroke="#000000" stroke-width="1.4487" stroke-miterlimit="10" x1="309.105" y1="632.401" x2="309.105" y2="202.548"/>
	<g opacity="0.33">
		
			<line fill="none" stroke="#000000" stroke-width="1.4487" stroke-miterlimit="10" x1="184.281" y1="632.401" x2="184.281" y2="202.548"/>
		
			<line fill="none" stroke="#000000" stroke-width="1.4487" stroke-miterlimit="10" x1="246.693" y1="632.401" x2="246.693" y2="202.548"/>
		
			<line fill="none" stroke="#000000" stroke-width="1.4487" stroke-miterlimit="10" x1="371.517" y1="632.401" x2="371.517" y2="202.548"/>
		
			<line fill="none" stroke="#000000" stroke-width="1.4487" stroke-miterlimit="10" x1="433.929" y1="632.401" x2="433.929" y2="202.548"/>
		
			<line fill="none" stroke="#000000" stroke-width="1.4487" stroke-miterlimit="10" x1="496.341" y1="632.401" x2="496.341" y2="202.548"/>
		
			<line fill="none" stroke="#000000" stroke-width="1.4487" stroke-miterlimit="10" x1="558.753" y1="632.401" x2="558.753" y2="202.548"/>
	</g>
	<rect x="294.619" y="652.88" fill="none" width="28.973" height="20.279"/>
	<text transform="matrix(1 0 0 1 302.3926 670.1182)" font-family="'HelveticaNeue'" font-size="24.1451">0</text>
	<rect x="232.207" y="652.88" fill="none" width="28.973" height="20.279"/>
	<text transform="matrix(1 0 0 1 235.2842 670.1182)" font-family="'HelveticaNeue'" font-size="24.1451">-1</text>
	<rect x="169.794" y="652.88" fill="none" width="28.973" height="20.279"/>
	<text transform="matrix(1 0 0 1 172.8726 670.1182)" font-family="'HelveticaNeue'" font-size="24.1451">-2</text>
	<rect x="111.032" y="580.688" fill="none" width="28.973" height="20.281"/>
	<text transform="matrix(1 0 0 1 117.188 597.9277)" font-family="'HelveticaNeue'" font-size="24.1451">-1</text>
	<rect x="111.032" y="493.528" fill="none" width="28.973" height="20.281"/>
	<text transform="matrix(1 0 0 1 117.188 510.7686)" font-family="'HelveticaNeue'" font-size="24.1451">-5</text>
	<rect x="111.032" y="407.573" fill="none" width="28.973" height="20.279"/>
	<text transform="matrix(1 0 0 1 117.188 424.8125)" font-family="'HelveticaNeue'" font-size="24.1451">-0</text>
	<rect x="111.032" y="321.624" fill="none" width="28.973" height="20.281"/>
	<text transform="matrix(1 0 0 1 126.5801 338.8628)" font-family="'HelveticaNeue'" font-size="24.1451">5</text>
	<rect x="111.032" y="235.667" fill="none" width="28.973" height="20.28"/>
	<text transform="matrix(1 0 0 1 113.1558 252.9072)" font-family="'HelveticaNeue'" font-size="24.1451">10</text>
	<rect x="357.031" y="652.88" fill="none" width="28.973" height="20.279"/>
	<text transform="matrix(1 0 0 1 364.8047 670.1182)" font-family="'HelveticaNeue'" font-size="24.1451">1</text>
	<rect x="419.442" y="652.88" fill="none" width="28.973" height="20.279"/>
	<text transform="matrix(1 0 0 1 427.2163 670.1182)" font-family="'HelveticaNeue'" font-size="24.1451">2</text>
	<rect x="481.854" y="652.88" fill="none" width="28.973" height="20.279"/>
	<text transform="matrix(1 0 0 1 489.6284 670.1182)" font-family="'HelveticaNeue'" font-size="24.1451">3</text>
	<rect x="544.267" y="652.88" fill="none" width="28.972" height="20.279"/>
	<text transform="matrix(1 0 0 1 552.0405 670.1182)" font-family="'HelveticaNeue'" font-size="24.1451">4</text>
</g>
</svg>
