<?xml version="1.0" encoding="utf-8"?>
<!-- Generator: Adobe Illustrator 16.0.4, SVG Export Plug-In . SVG Version: 6.00 Build 0)  -->
<!DOCTYPE svg PUBLIC "-//W3C//DTD SVG 1.1//EN" "http://www.w3.org/Graphics/SVG/1.1/DTD/svg11.dtd">
<svg version="1.1" id="Layer_1" xmlns="http://www.w3.org/2000/svg" xmlns:xlink="http://www.w3.org/1999/xlink" x="0px" y="0px"
	 width="1366px" height="768px" viewBox="0 0 1366 768" enable-background="new 0 0 1366 768" xml:space="preserve">
<g>
	<path fill="none" stroke="#E15218" stroke-width="3" stroke-miterlimit="10" d="M189.834,417.476
		c0,30.857,44.49,47.357,119.995,44.908c85.792-2.783,141.966,15.211,268.722,115.892"/>
	<path fill="none" stroke="#E15218" stroke-width="3" stroke-miterlimit="10" d="M189.834,416.993
		c0-30.857,44.49-47.358,119.995-44.908c85.792,2.783,141.966-15.211,268.722-115.891"/>
	
		<line fill="none" stroke="#000000" stroke-width="1.4487" stroke-miterlimit="10" x1="148.697" y1="417.112" x2="578.551" y2="417.112"/>
	
		<line opacity="0.33" fill="none" stroke="#000000" stroke-width="1.4487" stroke-miterlimit="10" enable-background="new    " x1="148.697" y1="244.364" x2="578.551" y2="244.364"/>
	
		<line opacity="0.33" fill="none" stroke="#000000" stroke-width="1.4487" stroke-miterlimit="10" enable-background="new    " x1="148.697" y1="330.739" x2="578.551" y2="330.739"/>
	
		<line opacity="0.33" fill="none" stroke="#000000" stroke-width="1.4487" stroke-miterlimit="10" enable-background="new    " x1="148.697" y1="503.487" x2="578.551" y2="503.487"/>
	
		<line opacity="0.33" fill="none" stroke="#000000" stroke-width="1.4487" stroke-miterlimit="10" enable-background="new    " x1="148.697" y1="589.862" x2="578.551" y2="589.862"/>
	
		<line fill="none" stroke="#000000" stroke-width="1.4487" stroke-miterlimit="10" x1="309.105" y1="632.401" x2="309.105" y2="202.548"/>
	<g opacity="0.33">
		
			<line fill="none" stroke="#000000" stroke-width="1.4487" stroke-miterlimit="10" x1="184.281" y1="632.401" x2="184.281" y2="202.548"/>
		
			<line fill="none" stroke="#000000" stroke-width="1.4487" stroke-miterlimit="10" x1="246.693" y1="632.401" x2="246.693" y2="202.548"/>
		
			<line fill="none" stroke="#000000" stroke-width="1.4487" stroke-miterlimit="10" x1="371.517" y1="632.401" x2="371.517" y2="202.548"/>
		
			<line fill="none" stroke="#000000" stroke-width="1.4487" stroke-miterlimit="10" x1="433.929" y1="632.401" x2="433.929" y2="202.548"/>
		
			<line fill="none" stroke="#000000" stroke-width="1.4487" stroke-miterlimit="10" x1="496.341" y1="632.401" x2="496.341" y2="202.548"/>
		
			<line fill="none" stroke="#000000" stroke-width="1.4487" stroke-miterlimit="10" x1="558.753" y1="632.401" x2="558.753" y2="202.548"/>
	</g>
	<rect x="294.619" y="652.88" fill="none" width="28.973" height="20.279"/>
	<g enable-background="new    ">
		<path d="M314.996,661.477c0,2.979-0.47,5.203-1.409,6.673c-0.939,1.47-2.375,2.204-4.309,2.204c-1.855,0-3.266-0.752-4.232-2.257
			c-0.967-1.506-1.45-3.712-1.45-6.62c0-3.003,0.467-5.23,1.403-6.685c0.935-1.454,2.362-2.182,4.28-2.182
			c1.871,0,3.291,0.759,4.262,2.275C314.51,656.403,314.996,658.6,314.996,661.477z M305.576,661.477
			c0,2.507,0.295,4.332,0.884,5.477c0.589,1.144,1.529,1.715,2.818,1.715c1.305,0,2.25-0.579,2.835-1.739
			c0.585-1.159,0.878-2.977,0.878-5.452s-0.292-4.29-0.878-5.441c-0.586-1.151-1.531-1.727-2.835-1.727
			c-1.289,0-2.229,0.567-2.818,1.703S305.576,658.97,305.576,661.477z"/>
	</g>
	<rect x="232.207" y="652.88" fill="none" width="28.973" height="20.279"/>
	<g enable-background="new    ">
		<path d="M236.274,664.542v-1.792h5.789v1.792H236.274z"/>
		<path d="M251.483,670.118h-1.91v-12.285c0-1.021,0.031-1.988,0.094-2.899c-0.165,0.165-0.35,0.338-0.554,0.519
			c-0.205,0.181-1.14,0.947-2.806,2.299l-1.038-1.344l4.562-3.525h1.651V670.118z"/>
	</g>
	<rect x="169.794" y="652.88" fill="none" width="28.973" height="20.279"/>
	<g enable-background="new    ">
		<path d="M173.863,664.542v-1.792h5.789v1.792H173.863z"/>
		<path d="M193.151,670.118h-11.33v-1.686l4.539-4.562c1.383-1.399,2.295-2.397,2.735-2.995c0.44-0.597,0.77-1.179,0.99-1.745
			c0.22-0.565,0.33-1.175,0.33-1.827c0-0.92-0.279-1.648-0.837-2.187c-0.558-0.539-1.332-0.808-2.323-0.808
			c-0.715,0-1.393,0.117-2.034,0.354c-0.641,0.235-1.354,0.664-2.14,1.285l-1.038-1.332c1.588-1.321,3.317-1.981,5.188-1.981
			c1.619,0,2.889,0.415,3.808,1.244s1.379,1.943,1.379,3.343c0,1.092-0.307,2.173-0.919,3.242c-0.613,1.068-1.761,2.421-3.443,4.056
			l-3.772,3.689v0.095h8.866V670.118z"/>
	</g>
	<rect x="111.032" y="580.688" fill="none" width="28.973" height="20.281"/>
	<g enable-background="new    ">
		<path d="M107.178,592.352v-1.792h5.789v1.792H107.178z"/>
		<path d="M122.387,597.928h-1.91v-12.285c0-1.021,0.031-1.988,0.094-2.899c-0.165,0.165-0.35,0.338-0.554,0.519
			c-0.205,0.181-1.14,0.947-2.806,2.299l-1.038-1.344l4.562-3.525h1.651V597.928z"/>
		<path d="M140.366,589.286c0,2.979-0.47,5.203-1.409,6.673c-0.939,1.47-2.375,2.204-4.309,2.204c-1.855,0-3.266-0.752-4.232-2.257
			c-0.967-1.506-1.45-3.712-1.45-6.62c0-3.003,0.467-5.23,1.403-6.685c0.935-1.454,2.362-2.182,4.28-2.182
			c1.871,0,3.291,0.759,4.262,2.275C139.881,584.213,140.366,586.409,140.366,589.286z M130.946,589.286
			c0,2.507,0.295,4.332,0.884,5.477c0.589,1.144,1.529,1.715,2.818,1.715c1.305,0,2.25-0.579,2.835-1.739
			c0.585-1.159,0.878-2.977,0.878-5.452s-0.292-4.29-0.878-5.441c-0.586-1.151-1.531-1.727-2.835-1.727
			c-1.289,0-2.229,0.567-2.818,1.703S130.946,586.779,130.946,589.286z"/>
	</g>
	<rect x="111.032" y="493.528" fill="none" width="28.973" height="20.28"/>
	<g enable-background="new    ">
		<path d="M118.178,505.192V503.4h5.789v1.792H118.178z"/>
		<path d="M131.524,500.24c1.815,0,3.244,0.45,4.286,1.351c1.041,0.899,1.562,2.132,1.562,3.695c0,1.784-0.568,3.184-1.704,4.197
			s-2.702,1.521-4.698,1.521c-1.941,0-3.423-0.31-4.445-0.931v-1.887c0.55,0.354,1.234,0.631,2.052,0.831
			c0.817,0.2,1.623,0.301,2.417,0.301c1.383,0,2.458-0.326,3.225-0.979s1.149-1.596,1.149-2.829c0-2.405-1.474-3.608-4.421-3.608
			c-0.747,0-1.745,0.114-2.995,0.343l-1.014-0.648l0.648-8.064h8.571v1.804h-6.897l-0.436,5.176
			C129.728,500.331,130.628,500.24,131.524,500.24z"/>
	</g>
	<rect x="111.032" y="407.573" fill="none" width="28.973" height="20.278"/>
	<g enable-background="new    ">
		<path d="M118.178,419.236v-1.792h5.789v1.792H118.178z"/>
		<path d="M137.561,416.171c0,2.979-0.47,5.203-1.409,6.673c-0.939,1.47-2.375,2.204-4.309,2.204c-1.855,0-3.266-0.752-4.232-2.257
			c-0.967-1.506-1.45-3.712-1.45-6.62c0-3.003,0.467-5.23,1.403-6.685c0.935-1.454,2.362-2.182,4.28-2.182
			c1.871,0,3.291,0.759,4.262,2.275C137.075,411.098,137.561,413.294,137.561,416.171z M128.141,416.171
			c0,2.507,0.295,4.332,0.884,5.477c0.589,1.144,1.529,1.715,2.818,1.715c1.305,0,2.25-0.579,2.835-1.739
			c0.585-1.159,0.878-2.977,0.878-5.452s-0.292-4.29-0.878-5.441c-0.586-1.151-1.531-1.727-2.835-1.727
			c-1.289,0-2.229,0.567-2.818,1.703S128.141,413.664,128.141,416.171z"/>
	</g>
	<rect x="111.032" y="321.624" fill="none" width="28.973" height="20.281"/>
	<g enable-background="new    ">
		<path d="M133.147,328.335c1.815,0,3.244,0.45,4.286,1.351c1.041,0.899,1.562,2.132,1.562,3.695c0,1.784-0.568,3.184-1.704,4.197
			s-2.702,1.521-4.698,1.521c-1.941,0-3.423-0.31-4.445-0.931v-1.887c0.55,0.354,1.234,0.631,2.052,0.831
			c0.817,0.2,1.623,0.301,2.417,0.301c1.383,0,2.458-0.326,3.225-0.979s1.149-1.596,1.149-2.829c0-2.405-1.474-3.608-4.421-3.608
			c-0.747,0-1.745,0.114-2.995,0.343l-1.014-0.648l0.648-8.064h8.571v1.804h-6.897l-0.436,5.176
			C131.351,328.426,132.251,328.335,133.147,328.335z"/>
	</g>
	<rect x="111.032" y="235.667" fill="none" width="28.973" height="20.28"/>
	<g enable-background="new    ">
		<path d="M121.585,252.907h-1.91v-12.285c0-1.021,0.031-1.988,0.094-2.899c-0.165,0.165-0.35,0.338-0.554,0.519
			c-0.205,0.181-1.14,0.947-2.806,2.299l-1.038-1.344l4.562-3.525h1.651V252.907z"/>
		<path d="M139.564,244.266c0,2.979-0.47,5.203-1.409,6.673c-0.939,1.47-2.375,2.204-4.309,2.204c-1.855,0-3.266-0.752-4.232-2.257
			c-0.967-1.506-1.45-3.712-1.45-6.62c0-3.003,0.467-5.23,1.403-6.685c0.935-1.454,2.362-2.182,4.28-2.182
			c1.871,0,3.291,0.759,4.262,2.275C139.079,239.192,139.564,241.389,139.564,244.266z M130.145,244.266
			c0,2.507,0.295,4.332,0.884,5.477c0.589,1.144,1.529,1.715,2.818,1.715c1.305,0,2.25-0.579,2.835-1.739
			c0.585-1.159,0.878-2.977,0.878-5.452s-0.292-4.29-0.878-5.441c-0.586-1.151-1.531-1.727-2.835-1.727
			c-1.289,0-2.229,0.567-2.818,1.703S130.145,241.759,130.145,244.266z"/>
	</g>
	<rect x="357.031" y="652.88" fill="none" width="28.973" height="20.279"/>
	<g enable-background="new    ">
		<path d="M373.234,670.118h-1.91v-12.285c0-1.021,0.031-1.988,0.094-2.899c-0.165,0.165-0.35,0.338-0.554,0.519
			c-0.205,0.181-1.14,0.947-2.806,2.299l-1.038-1.344l4.562-3.525h1.651V670.118z"/>
	</g>
	<rect x="419.442" y="652.88" fill="none" width="28.973" height="20.279"/>
	<g enable-background="new    ">
		<path d="M439.725,670.118h-11.33v-1.686l4.539-4.562c1.383-1.399,2.295-2.397,2.735-2.995c0.44-0.597,0.77-1.179,0.99-1.745
			c0.22-0.565,0.33-1.175,0.33-1.827c0-0.92-0.279-1.648-0.837-2.187c-0.558-0.539-1.332-0.808-2.323-0.808
			c-0.715,0-1.393,0.117-2.034,0.354c-0.641,0.235-1.354,0.664-2.14,1.285l-1.038-1.332c1.588-1.321,3.317-1.981,5.188-1.981
			c1.619,0,2.889,0.415,3.808,1.244s1.379,1.943,1.379,3.343c0,1.092-0.307,2.173-0.919,3.242c-0.613,1.068-1.761,2.421-3.443,4.056
			l-3.772,3.689v0.095h8.866V670.118z"/>
	</g>
	<rect x="481.854" y="652.88" fill="none" width="28.974" height="20.279"/>
	<g enable-background="new    ">
		<path d="M501.489,656.938c0,1.101-0.309,2-0.925,2.7c-0.617,0.699-1.492,1.167-2.624,1.402v0.095
			c1.383,0.173,2.409,0.612,3.077,1.32c0.668,0.707,1.002,1.635,1.002,2.782c0,1.643-0.57,2.906-1.709,3.79
			c-1.14,0.885-2.758,1.326-4.857,1.326c-0.912,0-1.747-0.068-2.505-0.206c-0.759-0.138-1.496-0.379-2.21-0.725v-1.863
			c0.747,0.37,1.542,0.65,2.387,0.843c0.845,0.193,1.645,0.289,2.399,0.289c2.979,0,4.468-1.167,4.468-3.501
			c0-2.091-1.643-3.137-4.928-3.137h-1.698v-1.686h1.721c1.344,0,2.409-0.297,3.195-0.89c0.786-0.594,1.179-1.417,1.179-2.471
			c0-0.841-0.289-1.501-0.867-1.98s-1.361-0.719-2.352-0.719c-0.754,0-1.466,0.102-2.134,0.307
			c-0.668,0.204-1.431,0.581-2.287,1.132l-0.99-1.321c0.708-0.558,1.522-0.996,2.446-1.314c0.923-0.318,1.896-0.478,2.918-0.478
			c1.674,0,2.975,0.384,3.902,1.149C501.025,654.55,501.489,655.602,501.489,656.938z"/>
	</g>
	<rect x="544.267" y="652.88" fill="none" width="28.973" height="20.279"/>
	<g enable-background="new    ">
		<path d="M565.363,666.157h-2.559v3.961h-1.875v-3.961h-8.382v-1.71l8.182-11.66h2.075v11.59h2.559V666.157z M560.93,664.377v-5.73
			c0-1.123,0.04-2.393,0.118-3.808h-0.094c-0.377,0.755-0.731,1.379-1.061,1.875l-5.388,7.663H560.93z"/>
	</g>
</g>
</svg>
