<?xml version="1.0" encoding="utf-8"?>
<!-- Generator: Adobe Illustrator 16.0.4, SVG Export Plug-In . SVG Version: 6.00 Build 0)  -->
<!DOCTYPE svg PUBLIC "-//W3C//DTD SVG 1.1//EN" "http://www.w3.org/Graphics/SVG/1.1/DTD/svg11.dtd">
<svg version="1.1" id="Layer_2" xmlns="http://www.w3.org/2000/svg" xmlns:xlink="http://www.w3.org/1999/xlink" x="0px" y="0px"
	 width="1366px" height="768px" viewBox="0 0 1366 768" enable-background="new 0 0 1366 768" xml:space="preserve">
<g>
	<g>
		<circle fill="#FFFFFF" stroke="#000000" stroke-width="3" stroke-miterlimit="10" cx="384.232" cy="272.866" r="131.244"/>
		<g>
			<rect x="253.5" y="270.5" width="28" height="5"/>
			<rect x="487.5" y="270.5" width="28" height="5"/>
		</g>
		<g>
			<rect x="269.056" y="328.526" transform="matrix(0.866 -0.5 0.5 0.866 -127.59 185.8749)" width="28" height="5"/>
			<rect x="471.706" y="211.526" transform="matrix(0.866 -0.5 0.5 0.866 -41.9423 271.515)" width="28.001" height="5"/>
		</g>
		<g>
			<rect x="311.882" y="371.352" transform="matrix(0.5 -0.866 0.866 0.5 -160.8252 469.142)" width="27.999" height="5"/>
			<rect x="428.882" y="168.702" transform="matrix(0.5 -0.866 0.866 0.5 73.1776 469.1498)" width="28" height="5"/>
		</g>
		<g>
			<rect x="381.5" y="376.5" width="5" height="28"/>
			<rect x="381.5" y="142.5" width="5" height="28"/>
		</g>
		<g>
			<rect x="428.381" y="371.852" transform="matrix(-0.5 -0.866 0.866 -0.5 339.3801 944.6416)" width="27.999" height="5"/>
			<rect x="311.381" y="169.202" transform="matrix(-0.5 -0.866 0.866 -0.5 339.3712 539.3406)" width="28" height="5"/>
		</g>
		<g>
			<rect x="471.207" y="329.027" transform="matrix(-0.866 -0.5 0.5 -0.866 739.6531 861.2359)" width="27.999" height="5"/>
			<rect x="268.556" y="212.026" transform="matrix(-0.866 -0.5 0.5 -0.866 419.989 541.5911)" width="27.999" height="5"/>
		</g>
	</g>
	<circle cx="385.257" cy="272.901" r="5.5"/>
	
		<line fill="none" stroke="#000000" stroke-width="4" stroke-linecap="round" stroke-miterlimit="10" x1="421.274" y1="337.107" x2="385.524" y2="273.223"/>
	<g>
		<rect x="361.89" y="176.734" fill="none" width="44" height="15"/>
		<path d="M387.431,182.766c0,1.851-0.292,3.232-0.875,4.146s-1.476,1.37-2.677,1.37c-1.152,0-2.029-0.467-2.629-1.402
			s-0.901-2.306-0.901-4.113c0-1.865,0.291-3.25,0.872-4.153s1.467-1.355,2.659-1.355c1.162,0,2.044,0.471,2.647,1.414
			S387.431,180.979,387.431,182.766z M381.579,182.766c0,1.558,0.183,2.692,0.549,3.402c0.366,0.711,0.95,1.066,1.75,1.066
			c0.811,0,1.397-0.36,1.762-1.081c0.363-0.72,0.545-1.849,0.545-3.387s-0.182-2.665-0.545-3.38
			c-0.364-0.715-0.951-1.073-1.762-1.073c-0.801,0-1.384,0.353-1.75,1.058C381.762,180.077,381.579,181.208,381.579,182.766z"/>
	</g>
	<g>
		<rect x="453.047" y="267.901" fill="none" width="44" height="15"/>
		<path d="M478.126,271.112c0,0.684-0.192,1.243-0.575,1.677s-0.926,0.725-1.629,0.872v0.059c0.859,0.107,1.497,0.381,1.912,0.82
			s0.623,1.016,0.623,1.729c0,1.021-0.354,1.806-1.062,2.354c-0.708,0.55-1.714,0.824-3.018,0.824c-0.566,0-1.085-0.043-1.557-0.128
			c-0.471-0.085-0.929-0.236-1.373-0.451v-1.157c0.464,0.229,0.958,0.404,1.483,0.524c0.524,0.12,1.021,0.179,1.49,0.179
			c1.851,0,2.776-0.725,2.776-2.175c0-1.299-1.021-1.948-3.062-1.948h-1.055v-1.047h1.069c0.835,0,1.497-0.184,1.985-0.553
			c0.488-0.368,0.732-0.88,0.732-1.534c0-0.522-0.18-0.933-0.538-1.23c-0.359-0.298-0.846-0.447-1.461-0.447
			c-0.469,0-0.911,0.063-1.326,0.19s-0.889,0.361-1.421,0.703l-0.615-0.82c0.439-0.347,0.946-0.619,1.52-0.817
			c0.574-0.197,1.178-0.296,1.813-0.296c1.04,0,1.848,0.238,2.424,0.714C477.838,269.628,478.126,270.282,478.126,271.112z"/>
	</g>
	<g>
		<rect x="441.882" y="315.736" fill="none" width="44" height="15"/>
		<path d="M467.87,324.675h-1.589v2.461h-1.165v-2.461h-5.208v-1.062l5.083-7.244h1.289v7.2h1.589V324.675z M465.116,323.569v-3.56
			c0-0.698,0.024-1.487,0.073-2.366h-0.059c-0.234,0.469-0.454,0.857-0.659,1.165l-3.347,4.761H465.116z"/>
	</g>
	<g>
		<rect x="287.056" y="315.736" fill="none" width="44" height="15"/>
		<path d="M309.045,316.274c0.977,0,1.75,0.227,2.322,0.681s0.857,1.082,0.857,1.882c0,0.527-0.164,1.008-0.491,1.443
			s-0.85,0.83-1.567,1.187c0.869,0.415,1.487,0.851,1.853,1.308s0.549,0.985,0.549,1.585c0,0.889-0.31,1.598-0.93,2.127
			c-0.62,0.53-1.47,0.795-2.549,0.795c-1.143,0-2.021-0.25-2.637-0.751c-0.615-0.5-0.923-1.209-0.923-2.127
			c0-1.226,0.747-2.18,2.241-2.864c-0.674-0.381-1.157-0.792-1.45-1.234c-0.293-0.441-0.439-0.936-0.439-1.483
			c0-0.776,0.287-1.395,0.86-1.857C307.315,316.505,308.083,316.274,309.045,316.274z M306.73,324.434
			c0,0.586,0.204,1.042,0.611,1.37s0.98,0.491,1.718,0.491c0.728,0,1.294-0.171,1.699-0.513s0.608-0.811,0.608-1.406
			c0-0.474-0.19-0.895-0.571-1.263s-1.045-0.727-1.992-1.073c-0.728,0.312-1.255,0.658-1.582,1.036
			C306.894,323.454,306.73,323.906,306.73,324.434z M309.03,317.263c-0.61,0-1.089,0.146-1.436,0.439s-0.52,0.684-0.52,1.172
			c0,0.449,0.144,0.835,0.432,1.157s0.82,0.645,1.597,0.967c0.698-0.293,1.192-0.608,1.483-0.945c0.29-0.337,0.436-0.73,0.436-1.179
			c0-0.493-0.177-0.885-0.531-1.176C310.137,317.409,309.65,317.263,309.03,317.263z"/>
	</g>
	<g>
		<rect x="407.39" y="345.066" fill="none" width="44" height="15"/>
		<path d="M429.181,349.926c1.128,0,2.015,0.28,2.663,0.838c0.646,0.56,0.97,1.325,0.97,2.296c0,1.108-0.353,1.978-1.058,2.607
			c-0.706,0.63-1.679,0.945-2.919,0.945c-1.206,0-2.126-0.193-2.761-0.579v-1.172c0.342,0.22,0.767,0.392,1.274,0.516
			c0.508,0.125,1.008,0.187,1.501,0.187c0.859,0,1.527-0.203,2.003-0.608c0.477-0.405,0.714-0.991,0.714-1.758
			c0-1.494-0.916-2.241-2.747-2.241c-0.464,0-1.084,0.071-1.86,0.212l-0.63-0.403l0.403-5.01h5.325v1.121h-4.285l-0.271,3.215
			C428.065,349.982,428.624,349.926,429.181,349.926z"/>
	</g>
	<g>
		<rect x="317.89" y="345.066" fill="none" width="44" height="15"/>
		<path d="M337.688,356.466l4.438-9.587h-5.837v-1.121h7.126v0.974l-4.38,9.734H337.688z"/>
	</g>
	<g>
		<rect x="408.39" y="190.45" fill="none" width="44" height="15"/>
		<path d="M431.338,201.85h-1.187v-7.632c0-0.635,0.02-1.235,0.059-1.802c-0.103,0.103-0.217,0.21-0.344,0.322
			s-0.708,0.588-1.743,1.428l-0.645-0.835l2.834-2.19h1.025V201.85z"/>
	</g>
	<g>
		<rect x="315.89" y="190.45" fill="none" width="44" height="15"/>
		<path d="M334.55,201.85h-1.187v-7.632c0-0.635,0.02-1.235,0.059-1.802c-0.103,0.103-0.217,0.21-0.344,0.322
			s-0.708,0.588-1.743,1.428l-0.645-0.835l2.834-2.19h1.025V201.85z"/>
		<path d="M343.126,201.85h-1.187v-7.632c0-0.635,0.02-1.235,0.059-1.802c-0.103,0.103-0.217,0.21-0.344,0.322
			s-0.708,0.588-1.743,1.428l-0.645-0.835l2.834-2.19h1.025V201.85z"/>
	</g>
	<g>
		<rect x="441.882" y="220.901" fill="none" width="44" height="15"/>
		<path d="M467.364,232.301h-7.039v-1.047l2.82-2.834c0.859-0.869,1.426-1.489,1.699-1.86s0.479-0.732,0.615-1.084
			s0.205-0.73,0.205-1.135c0-0.571-0.173-1.024-0.52-1.359c-0.347-0.334-0.828-0.501-1.443-0.501c-0.444,0-0.866,0.073-1.263,0.22
			c-0.398,0.146-0.841,0.413-1.33,0.798l-0.645-0.828c0.986-0.82,2.061-1.23,3.223-1.23c1.006,0,1.794,0.258,2.366,0.773
			s0.857,1.207,0.857,2.076c0,0.679-0.19,1.35-0.571,2.014s-1.094,1.504-2.139,2.52l-2.344,2.292v0.059h5.508V232.301z"/>
	</g>
	<g>
		<rect x="287.056" y="220.901" fill="none" width="44" height="15"/>
		<path d="M305.716,232.301h-1.187v-7.632c0-0.635,0.02-1.235,0.059-1.802c-0.103,0.103-0.217,0.21-0.344,0.322
			s-0.708,0.588-1.743,1.428l-0.645-0.835l2.834-2.19h1.025V232.301z"/>
		<path d="M316.886,226.933c0,1.851-0.292,3.232-0.875,4.146s-1.476,1.37-2.677,1.37c-1.152,0-2.029-0.467-2.629-1.402
			s-0.901-2.306-0.901-4.113c0-1.865,0.291-3.25,0.872-4.153s1.467-1.355,2.659-1.355c1.162,0,2.044,0.471,2.647,1.414
			S316.886,225.146,316.886,226.933z M311.034,226.933c0,1.558,0.183,2.692,0.549,3.402c0.366,0.711,0.95,1.066,1.75,1.066
			c0.811,0,1.397-0.36,1.762-1.081c0.363-0.72,0.545-1.849,0.545-3.387s-0.182-2.665-0.545-3.38
			c-0.364-0.715-0.951-1.073-1.762-1.073c-0.801,0-1.384,0.353-1.75,1.058C311.217,224.244,311.034,225.375,311.034,226.933z"/>
	</g>
	<g>
		<rect x="271.93" y="267.901" fill="none" width="44" height="15"/>
		<path d="M297.412,273.163c0,4.189-1.621,6.284-4.863,6.284c-0.566,0-1.016-0.049-1.348-0.146v-1.047
			c0.391,0.127,0.835,0.19,1.333,0.19c1.172,0,2.057-0.363,2.655-1.087c0.598-0.726,0.924-1.837,0.978-3.336h-0.088
			c-0.269,0.405-0.625,0.714-1.069,0.926c-0.444,0.213-0.945,0.319-1.501,0.319c-0.947,0-1.699-0.283-2.256-0.85
			s-0.835-1.357-0.835-2.373c0-1.113,0.312-1.992,0.934-2.637c0.623-0.645,1.442-0.967,2.458-0.967c0.728,0,1.363,0.187,1.908,0.56
			c0.544,0.374,0.963,0.918,1.256,1.634S297.412,272.191,297.412,273.163z M293.809,269.479c-0.698,0-1.238,0.225-1.619,0.674
			s-0.571,1.074-0.571,1.875c0,0.703,0.176,1.256,0.527,1.659c0.352,0.403,0.886,0.604,1.604,0.604c0.444,0,0.853-0.09,1.227-0.271
			c0.373-0.181,0.667-0.427,0.882-0.74s0.322-0.64,0.322-0.981c0-0.513-0.1-0.986-0.3-1.421s-0.479-0.776-0.839-1.025
			C294.684,269.603,294.272,269.479,293.809,269.479z"/>
	</g>
	<g>
		<rect x="361.89" y="355.852" fill="none" width="44" height="15"/>
		<path d="M380.458,362.674c0-2.104,0.409-3.678,1.227-4.72c0.817-1.042,2.027-1.564,3.629-1.564c0.552,0,0.986,0.046,1.304,0.139
			v1.047c-0.376-0.122-0.806-0.183-1.289-0.183c-1.147,0-2.024,0.358-2.629,1.073s-0.938,1.839-0.996,3.373h0.088
			c0.537-0.84,1.387-1.26,2.549-1.26c0.962,0,1.72,0.291,2.274,0.872s0.832,1.37,0.832,2.366c0,1.113-0.304,1.989-0.912,2.625
			c-0.608,0.638-1.43,0.956-2.465,0.956c-1.108,0-1.987-0.416-2.637-1.249C380.783,365.317,380.458,364.158,380.458,362.674z
			 M384.054,366.365c0.693,0,1.231-0.218,1.615-0.656c0.383-0.437,0.575-1.068,0.575-1.893c0-0.708-0.178-1.265-0.535-1.67
			s-0.889-0.608-1.597-0.608c-0.439,0-0.842,0.09-1.208,0.271s-0.658,0.43-0.875,0.747s-0.326,0.647-0.326,0.989
			c0,0.503,0.098,0.972,0.293,1.406s0.472,0.779,0.832,1.033C383.186,366.238,383.595,366.365,384.054,366.365z"/>
	</g>
	<g opacity="0.55" enable-background="new    ">
		<g>
			<path fill="none" stroke="#E15218" stroke-width="2" stroke-miterlimit="10" stroke-dasharray="4,7" d="M412.253,328.172
				c-8.081,3.913-17.148,6.107-26.729,6.107c-10.759,0-20.873-2.767-29.667-7.629c-18.924-10.462-31.738-30.623-31.738-53.776
				c0-33.913,27.492-61.405,61.405-61.405c7.212,0,14.134,1.243,20.562,3.527"/>
			<g>
				<polygon fill="#E15218" points="415.105,219.05 400.063,218.685 405.372,214.794 404.623,208.256 				"/>
			</g>
		</g>
	</g>
	<g enable-background="new    ">
		<rect x="419.274" y="249.905" fill="none" width="49.009" height="22.969"/>
		<path fill="#E15218" d="M437.679,258.205h-3.401v-1.925h3.401v-3.428h1.925v3.428h3.401v1.925h-3.401v3.384h-1.925V258.205z"/>
		<path fill="#E15218" d="M449.175,255.375c1.242,0,2.231,0.349,2.966,1.046s1.103,1.652,1.103,2.865
			c0,1.436-0.442,2.54-1.327,3.313s-2.15,1.16-3.797,1.16c-1.43,0-2.584-0.231-3.463-0.694v-2.347
			c0.463,0.246,1.002,0.447,1.617,0.602s1.198,0.233,1.749,0.233c1.658,0,2.487-0.68,2.487-2.039c0-1.295-0.858-1.942-2.575-1.942
			c-0.311,0-0.653,0.031-1.028,0.092s-0.68,0.127-0.914,0.198l-1.081-0.58l0.483-6.548h6.97v2.303h-4.588l-0.237,2.522l0.308-0.062
			C448.205,255.416,448.647,255.375,449.175,255.375z"/>
	</g>
	<g enable-background="new    ">
		<g>
			<path fill="none" stroke="#E15218" stroke-width="2" stroke-miterlimit="10" d="M385.524,228.059
				c24.82,0,44.941,20.121,44.941,44.941c0,14.205-6.59,26.871-16.881,35.106"/>
			<g>
				<circle fill="#E15218" cx="385.524" cy="228.059" r="3.309"/>
			</g>
			<g>
				<polygon fill="#E15218" points="413.451,302.995 414.646,307.257 418.542,309.356 408.458,312.209 				"/>
			</g>
		</g>
	</g>
</g>
<g>
	<g>
		<circle fill="#FFFFFF" stroke="#000000" stroke-width="3" stroke-miterlimit="10" cx="982.232" cy="272.866" r="131.244"/>
		<g>
			<rect x="851.5" y="270.5" width="28" height="5"/>
			<rect x="1085.5" y="270.5" width="28" height="5"/>
		</g>
		<g>
			<rect x="867.056" y="328.526" transform="matrix(0.866 -0.5 0.5 0.866 -47.4749 484.872)" width="28" height="5"/>
			<rect x="1069.705" y="211.526" transform="matrix(0.866 -0.5 0.5 0.866 38.1677 570.5031)" width="28.001" height="5"/>
		</g>
		<g>
			<rect x="909.882" y="371.352" transform="matrix(0.5 -0.866 0.866 0.5 138.1687 987.0216)" width="27.999" height="5"/>
			<rect x="1026.882" y="168.702" transform="matrix(0.5 -0.866 0.866 0.5 372.1805 987.0347)" width="28" height="5"/>
		</g>
		<g>
			<rect x="979.5" y="376.5" width="5" height="28"/>
			<rect x="979.5" y="142.5" width="5" height="28"/>
		</g>
		<g>
			<rect x="1026.381" y="371.852" transform="matrix(-0.5 -0.866 0.866 -0.5 1236.3864 1462.5212)" width="27.999" height="5"/>
			<rect x="909.381" y="169.202" transform="matrix(-0.5 -0.866 0.866 -0.5 1236.3683 1057.2256)" width="28" height="5"/>
		</g>
		<g>
			<rect x="1069.207" y="329.027" transform="matrix(-0.866 -0.5 0.5 -0.866 1855.5417 1160.2264)" width="27.999" height="5"/>
			<rect x="866.556" y="212.026" transform="matrix(-0.866 -0.5 0.5 -0.866 1535.8685 840.5973)" width="27.999" height="5"/>
		</g>
	</g>
	<g enable-background="new    ">
		<rect x="919.115" y="273.223" fill="none" width="49.008" height="22.969"/>
		<path fill="#E15218" d="M937.52,281.523h-3.401v-1.925h3.401v-3.428h1.925v3.428h3.401v1.925h-3.401v3.384h-1.925V281.523z"/>
		<path fill="#E15218" d="M948.77,273.886c1.23,0,2.223,0.28,2.975,0.839c0.754,0.56,1.13,1.314,1.13,2.263
			c0,0.656-0.182,1.241-0.545,1.753s-0.949,0.971-1.758,1.375c0.961,0.516,1.651,1.053,2.069,1.613
			c0.42,0.56,0.629,1.173,0.629,1.841c0,1.055-0.413,1.903-1.239,2.544s-1.913,0.962-3.261,0.962c-1.406,0-2.511-0.299-3.313-0.896
			s-1.204-1.444-1.204-2.54c0-0.732,0.195-1.383,0.584-1.951c0.391-0.568,1.016-1.069,1.877-1.503
			c-0.732-0.463-1.26-0.958-1.582-1.485s-0.483-1.104-0.483-1.731c0-0.92,0.381-1.664,1.143-2.232S947.545,273.886,948.77,273.886z
			 M946.766,283.483c0,0.504,0.176,0.896,0.527,1.178s0.832,0.422,1.441,0.422c0.674,0,1.178-0.145,1.512-0.435
			s0.501-0.672,0.501-1.147c0-0.393-0.165-0.76-0.497-1.103c-0.33-0.343-0.868-0.708-1.612-1.094
			C947.39,281.878,946.766,282.604,946.766,283.483z M948.752,275.872c-0.463,0-0.836,0.119-1.121,0.356
			c-0.283,0.237-0.426,0.555-0.426,0.954c0,0.352,0.113,0.667,0.338,0.945c0.227,0.278,0.635,0.564,1.227,0.857
			c0.574-0.27,0.976-0.545,1.204-0.826s0.343-0.606,0.343-0.976c0-0.404-0.146-0.724-0.439-0.958S949.209,275.872,948.752,275.872z"
			/>
	</g>
	<g enable-background="new    ">
		<g>
			<path fill="none" stroke="#E15218" stroke-width="2" stroke-miterlimit="10" d="M1010.434,328.018
				c-6.932,3.381-14.618,5.505-22.785,6.055c-10.735,0.723-21.012-1.359-30.112-5.619c-19.584-9.167-33.725-28.422-35.279-51.523
				c-2.278-33.836,23.306-63.113,57.143-65.391c7.197-0.484,14.188,0.292,20.757,2.139"/>
			<g>
				<circle fill="#E15218" cx="1010.238" cy="328.094" r="4.136"/>
			</g>
			<g>
				<polygon fill="#E15218" points="1009.423,217.116 994.39,217.762 999.425,213.523 998.238,207.051 				"/>
			</g>
		</g>
	</g>
	<circle cx="983.257" cy="272.901" r="5.5"/>
	<g>
		<rect x="959.89" y="176.734" fill="none" width="44" height="15"/>
		<path d="M985.431,182.766c0,1.851-0.292,3.232-0.876,4.146c-0.583,0.913-1.475,1.37-2.676,1.37c-1.152,0-2.029-0.467-2.63-1.402
			s-0.901-2.306-0.901-4.113c0-1.865,0.291-3.25,0.872-4.153s1.468-1.355,2.659-1.355c1.162,0,2.044,0.471,2.646,1.414
			C985.129,179.614,985.431,180.979,985.431,182.766z M979.578,182.766c0,1.558,0.184,2.692,0.55,3.402
			c0.366,0.711,0.95,1.066,1.751,1.066c0.811,0,1.396-0.36,1.762-1.081c0.363-0.72,0.545-1.849,0.545-3.387s-0.182-2.665-0.545-3.38
			c-0.365-0.715-0.951-1.073-1.762-1.073c-0.801,0-1.385,0.353-1.751,1.058C979.762,180.077,979.578,181.208,979.578,182.766z"/>
	</g>
	<g>
		<rect x="1051.047" y="267.901" fill="none" width="44" height="15"/>
		<path d="M1076.127,271.112c0,0.684-0.192,1.243-0.576,1.677c-0.383,0.435-0.926,0.725-1.629,0.872v0.059
			c0.859,0.107,1.496,0.381,1.912,0.82c0.414,0.439,0.622,1.016,0.622,1.729c0,1.021-0.354,1.806-1.062,2.354
			c-0.709,0.55-1.715,0.824-3.018,0.824c-0.566,0-1.086-0.043-1.557-0.128c-0.472-0.085-0.93-0.236-1.373-0.451v-1.157
			c0.463,0.229,0.957,0.404,1.482,0.524s1.021,0.179,1.49,0.179c1.852,0,2.776-0.725,2.776-2.175c0-1.299-1.021-1.948-3.062-1.948
			h-1.055v-1.047h1.069c0.835,0,1.497-0.184,1.985-0.553c0.488-0.368,0.732-0.88,0.732-1.534c0-0.522-0.18-0.933-0.539-1.23
			s-0.846-0.447-1.461-0.447c-0.469,0-0.91,0.063-1.326,0.19c-0.414,0.127-0.889,0.361-1.42,0.703l-0.615-0.82
			c0.439-0.347,0.945-0.619,1.52-0.817c0.573-0.197,1.178-0.296,1.812-0.296c1.04,0,1.848,0.238,2.424,0.714
			C1075.838,269.628,1076.127,270.282,1076.127,271.112z"/>
	</g>
	<g>
		<rect x="1039.882" y="315.736" fill="none" width="44" height="15"/>
		<path d="M1065.869,324.675h-1.589v2.461h-1.165v-2.461h-5.207v-1.062l5.083-7.244h1.289v7.2h1.589V324.675z M1063.115,323.569
			v-3.56c0-0.698,0.025-1.487,0.074-2.366h-0.059c-0.234,0.469-0.455,0.857-0.66,1.165l-3.347,4.761H1063.115z"/>
	</g>
	<g>
		<rect x="885.056" y="315.736" fill="none" width="44" height="15"/>
		<path d="M907.045,316.274c0.977,0,1.75,0.227,2.322,0.681c0.57,0.454,0.856,1.082,0.856,1.882c0,0.527-0.163,1.008-0.491,1.443
			c-0.326,0.435-0.85,0.83-1.566,1.187c0.869,0.415,1.486,0.851,1.853,1.308s0.55,0.985,0.55,1.585c0,0.889-0.311,1.598-0.931,2.127
			c-0.62,0.53-1.47,0.795-2.549,0.795c-1.143,0-2.021-0.25-2.637-0.751c-0.615-0.5-0.923-1.209-0.923-2.127
			c0-1.226,0.747-2.18,2.241-2.864c-0.674-0.381-1.157-0.792-1.45-1.234c-0.293-0.441-0.439-0.936-0.439-1.483
			c0-0.776,0.287-1.395,0.86-1.857C905.314,316.505,906.083,316.274,907.045,316.274z M904.73,324.434
			c0,0.586,0.203,1.042,0.611,1.37s0.98,0.491,1.718,0.491c0.728,0,1.294-0.171,1.699-0.513s0.608-0.811,0.608-1.406
			c0-0.474-0.191-0.895-0.572-1.263s-1.045-0.727-1.992-1.073c-0.727,0.312-1.254,0.658-1.582,1.036
			C904.895,323.454,904.73,323.906,904.73,324.434z M907.03,317.263c-0.61,0-1.089,0.146-1.436,0.439s-0.521,0.684-0.521,1.172
			c0,0.449,0.145,0.835,0.433,1.157s0.82,0.645,1.597,0.967c0.698-0.293,1.192-0.608,1.483-0.945c0.29-0.337,0.436-0.73,0.436-1.179
			c0-0.493-0.177-0.885-0.531-1.176C908.137,317.409,907.65,317.263,907.03,317.263z"/>
	</g>
	<g>
		<rect x="1005.39" y="345.066" fill="none" width="44" height="15"/>
		<path d="M1027.181,349.926c1.128,0,2.015,0.28,2.663,0.838c0.646,0.56,0.97,1.325,0.97,2.296c0,1.108-0.353,1.978-1.058,2.607
			c-0.707,0.63-1.68,0.945-2.92,0.945c-1.205,0-2.126-0.193-2.761-0.579v-1.172c0.342,0.22,0.767,0.392,1.274,0.516
			c0.508,0.125,1.008,0.187,1.502,0.187c0.859,0,1.527-0.203,2.002-0.608c0.477-0.405,0.715-0.991,0.715-1.758
			c0-1.494-0.916-2.241-2.746-2.241c-0.465,0-1.084,0.071-1.861,0.212l-0.629-0.403l0.402-5.01h5.324v1.121h-4.284l-0.271,3.215
			C1026.064,349.982,1026.624,349.926,1027.181,349.926z"/>
	</g>
	<g>
		<rect x="915.89" y="345.066" fill="none" width="44" height="15"/>
		<path d="M935.688,356.466l4.438-9.587h-5.838v-1.121h7.127v0.974l-4.38,9.734H935.688z"/>
	</g>
	<g>
		<rect x="1006.39" y="190.45" fill="none" width="44" height="15"/>
		<path d="M1029.338,201.85h-1.187v-7.632c0-0.635,0.02-1.235,0.059-1.802c-0.103,0.103-0.218,0.21-0.345,0.322
			s-0.707,0.588-1.742,1.428l-0.645-0.835l2.834-2.19h1.025V201.85z"/>
	</g>
	<g>
		<rect x="913.89" y="190.45" fill="none" width="44" height="15"/>
		<path d="M932.55,201.85h-1.187v-7.632c0-0.635,0.02-1.235,0.059-1.802c-0.103,0.103-0.217,0.21-0.344,0.322
			s-0.709,0.588-1.744,1.428l-0.645-0.835l2.835-2.19h1.025V201.85z"/>
		<path d="M941.127,201.85h-1.188v-7.632c0-0.635,0.02-1.235,0.059-1.802c-0.102,0.103-0.217,0.21-0.344,0.322
			s-0.708,0.588-1.743,1.428l-0.645-0.835l2.835-2.19h1.025V201.85z"/>
	</g>
	<g>
		<rect x="1039.882" y="220.901" fill="none" width="44" height="15"/>
		<path d="M1065.364,232.301h-7.038v-1.047l2.819-2.834c0.859-0.869,1.426-1.489,1.699-1.86s0.479-0.732,0.615-1.084
			s0.205-0.73,0.205-1.135c0-0.571-0.173-1.024-0.521-1.359c-0.346-0.334-0.827-0.501-1.442-0.501c-0.444,0-0.866,0.073-1.263,0.22
			c-0.398,0.146-0.842,0.413-1.33,0.798l-0.645-0.828c0.986-0.82,2.061-1.23,3.223-1.23c1.006,0,1.795,0.258,2.365,0.773
			c0.572,0.515,0.857,1.207,0.857,2.076c0,0.679-0.19,1.35-0.571,2.014s-1.094,1.504-2.139,2.52l-2.344,2.292v0.059h5.508V232.301z"
			/>
	</g>
	<g>
		<rect x="885.056" y="220.901" fill="none" width="44" height="15"/>
		<path d="M903.717,232.301h-1.188v-7.632c0-0.635,0.02-1.235,0.059-1.802c-0.102,0.103-0.217,0.21-0.344,0.322
			s-0.708,0.588-1.743,1.428l-0.645-0.835l2.835-2.19h1.025V232.301z"/>
		<path d="M914.886,226.933c0,1.851-0.292,3.232-0.876,4.146c-0.583,0.913-1.475,1.37-2.676,1.37c-1.152,0-2.029-0.467-2.63-1.402
			s-0.901-2.306-0.901-4.113c0-1.865,0.291-3.25,0.872-4.153s1.468-1.355,2.659-1.355c1.162,0,2.044,0.471,2.646,1.414
			C914.584,223.781,914.886,225.146,914.886,226.933z M909.033,226.933c0,1.558,0.184,2.692,0.55,3.402
			c0.366,0.711,0.95,1.066,1.751,1.066c0.811,0,1.396-0.36,1.762-1.081c0.363-0.72,0.545-1.849,0.545-3.387s-0.182-2.665-0.545-3.38
			c-0.365-0.715-0.951-1.073-1.762-1.073c-0.801,0-1.385,0.353-1.751,1.058C909.217,224.244,909.033,225.375,909.033,226.933z"/>
	</g>
	<g>
		<rect x="869.93" y="267.901" fill="none" width="44" height="15"/>
		<path d="M895.412,273.163c0,4.189-1.621,6.284-4.863,6.284c-0.566,0-1.016-0.049-1.348-0.146v-1.047
			c0.391,0.127,0.835,0.19,1.333,0.19c1.172,0,2.057-0.363,2.655-1.087c0.598-0.726,0.924-1.837,0.978-3.336h-0.088
			c-0.269,0.405-0.625,0.714-1.069,0.926c-0.444,0.213-0.945,0.319-1.502,0.319c-0.947,0-1.699-0.283-2.256-0.85
			s-0.834-1.357-0.834-2.373c0-1.113,0.311-1.992,0.934-2.637s1.441-0.967,2.457-0.967c0.728,0,1.363,0.187,1.908,0.56
			c0.544,0.374,0.963,0.918,1.256,1.634S895.412,272.191,895.412,273.163z M891.809,269.479c-0.698,0-1.238,0.225-1.619,0.674
			s-0.57,1.074-0.57,1.875c0,0.703,0.176,1.256,0.527,1.659c0.352,0.403,0.886,0.604,1.604,0.604c0.444,0,0.854-0.09,1.227-0.271
			s0.668-0.427,0.883-0.74s0.322-0.64,0.322-0.981c0-0.513-0.1-0.986-0.301-1.421c-0.199-0.435-0.479-0.776-0.838-1.025
			S892.272,269.479,891.809,269.479z"/>
	</g>
	<g>
		<rect x="959.89" y="355.852" fill="none" width="44" height="15"/>
		<path d="M978.458,362.674c0-2.104,0.409-3.678,1.228-4.72c0.816-1.042,2.027-1.564,3.629-1.564c0.551,0,0.986,0.046,1.303,0.139
			v1.047c-0.375-0.122-0.805-0.183-1.289-0.183c-1.146,0-2.023,0.358-2.629,1.073s-0.938,1.839-0.996,3.373h0.088
			c0.537-0.84,1.387-1.26,2.549-1.26c0.962,0,1.72,0.291,2.273,0.872c0.555,0.581,0.832,1.37,0.832,2.366
			c0,1.113-0.305,1.989-0.912,2.625c-0.607,0.638-1.43,0.956-2.465,0.956c-1.107,0-1.986-0.416-2.637-1.249
			C978.783,365.317,978.458,364.158,978.458,362.674z M982.055,366.365c0.693,0,1.23-0.218,1.615-0.656
			c0.383-0.437,0.574-1.068,0.574-1.893c0-0.708-0.178-1.265-0.535-1.67c-0.355-0.405-0.889-0.608-1.596-0.608
			c-0.439,0-0.843,0.09-1.209,0.271s-0.658,0.43-0.875,0.747c-0.218,0.317-0.326,0.647-0.326,0.989c0,0.503,0.098,0.972,0.293,1.406
			s0.473,0.779,0.832,1.033C981.186,366.238,981.596,366.365,982.055,366.365z"/>
	</g>
	<g opacity="0.55" enable-background="new    ">
		<g>
			<path fill="none" stroke="#E15218" stroke-width="2" stroke-miterlimit="10" d="M981.419,228.059
				c24.82,0,44.94,20.121,44.94,44.941c0.001,14.205-6.59,26.871-16.881,35.106"/>
			<g>
				<circle fill="#E15218" cx="981.419" cy="228.059" r="3.309"/>
			</g>
			<g>
				<polygon fill="#E15218" points="1009.346,302.995 1010.539,307.257 1014.436,309.356 1004.352,312.209 				"/>
			</g>
		</g>
	</g>
	
		<line fill="none" stroke="#000000" stroke-width="4" stroke-linecap="round" stroke-miterlimit="10" x1="1019.345" y1="209.261" x2="983.453" y2="273.065"/>
</g>
<g>
	<g>
		
			<line fill="none" stroke="#000000" stroke-width="3" stroke-linecap="round" stroke-miterlimit="10" x1="541.5" y1="273.223" x2="807.318" y2="273.223"/>
		<g>
			<polygon points="828.5,273.223 798.652,285.419 805.734,273.223 798.652,261.03 			"/>
		</g>
	</g>
</g>
<g>
</g>
<g>
</g>
<g>
</g>
</svg>
