<?xml version="1.0" encoding="utf-8"?>
<!-- Generator: Adobe Illustrator 16.0.4, SVG Export Plug-In . SVG Version: 6.00 Build 0)  -->
<!DOCTYPE svg PUBLIC "-//W3C//DTD SVG 1.1//EN" "http://www.w3.org/Graphics/SVG/1.1/DTD/svg11.dtd">
<svg version="1.1" id="Layer_1" xmlns="http://www.w3.org/2000/svg" xmlns:xlink="http://www.w3.org/1999/xlink" x="0px" y="0px"
	 width="1366px" height="768px" viewBox="0 0 1366 768" enable-background="new 0 0 1366 768" xml:space="preserve">
<g>
	<g>
		<line fill="none" stroke="#000000" stroke-width="2" stroke-miterlimit="10" x1="346.5" y1="355.5" x2="346.5" y2="357.479"/>
		<path fill="none" stroke="#000000" stroke-width="2" stroke-miterlimit="10" stroke-dasharray="3.9642,3.9642" d="M346.5,361.444
			V407.5c0,5.5,4.5,10,10,10h599c5.5,0,10-4.5,10-10v-90.634"/>
		<line fill="none" stroke="#000000" stroke-width="2" stroke-miterlimit="10" x1="965.5" y1="314.884" x2="965.5" y2="312.905"/>
		<g>
			<path d="M975.1,326.573c-0.465,0.297-1.084,0.159-1.381-0.307l-8.219-12.905l-8.219,12.905c-0.297,0.466-0.916,0.604-1.381,0.307
				s-0.6-0.919-0.307-1.381l9.062-14.229c0.184-0.288,0.502-0.463,0.844-0.463s0.66,0.175,0.844,0.463l9.062,14.229
				c0.105,0.166,0.156,0.353,0.156,0.536C975.562,326.059,975.398,326.382,975.1,326.573z"/>
		</g>
	</g>
</g>
</svg>
