<?xml version="1.0" encoding="utf-8"?>
<!-- Generator: Adobe Illustrator 16.0.4, SVG Export Plug-In . SVG Version: 6.00 Build 0)  -->
<!DOCTYPE svg PUBLIC "-//W3C//DTD SVG 1.1//EN" "http://www.w3.org/Graphics/SVG/1.1/DTD/svg11.dtd">
<svg version="1.1" id="Layer_1" xmlns="http://www.w3.org/2000/svg" xmlns:xlink="http://www.w3.org/1999/xlink" x="0px" y="0px"
	 width="1366px" height="768px" viewBox="0 0 1366 768" enable-background="new 0 0 1366 768" xml:space="preserve">
<g>
	<g>
		
			<line fill="none" stroke="#000000" stroke-width="3" stroke-linecap="round" stroke-miterlimit="10" x1="541.5" y1="273.223" x2="807.318" y2="273.223"/>
		<g>
			<polygon points="828.5,273.223 798.652,285.419 805.734,273.223 798.652,261.03 			"/>
		</g>
	</g>
</g>
<g>
	<g>
		<circle fill="#FFFFFF" stroke="#000000" stroke-width="3" stroke-miterlimit="10" cx="383.75" cy="272.424" r="131.244"/>
		<g>
			<rect x="381" y="142" width="5" height="28"/>
		</g>
		<g>
			<rect x="327.612" y="160.559" transform="matrix(-0.3613 -0.9325 0.9325 -0.3613 312.991 540.5085)" width="28" height="5"/>
		</g>
		<g>
			<rect x="291.062" y="183.193" transform="matrix(-0.6737 -0.739 0.739 -0.6737 373.3493 536.2374)" width="28" height="5.001"/>
		</g>
		<g>
			
				<rect x="265.151" y="217.505" transform="matrix(-0.8951 -0.4458 0.4458 -0.8951 430.9602 541.3795)" width="28" height="5.001"/>
		</g>
		<g>
			
				<rect x="265.151" y="217.505" transform="matrix(-0.8951 -0.4458 0.4458 -0.8951 430.9602 541.3795)" width="28" height="5.001"/>
		</g>
		<g>
			<rect x="412.15" y="160.557" transform="matrix(0.3612 -0.9325 0.9325 0.3612 120.1771 501.5434)" width="28" height="5.001"/>
		</g>
		<g>
			
				<rect x="253.385" y="258.861" transform="matrix(-0.9957 -0.0923 0.0923 -0.9957 509.4973 546.2919)" width="27.999" height="5.001"/>
		</g>
		<g>
			
				<rect x="257.352" y="301.674" transform="matrix(-0.9618 0.2736 -0.2736 -0.9618 615.5748 522.4966)" width="28" height="5.001"/>
		</g>
		<g>
			<rect x="276.518" y="340.163" transform="matrix(-0.798 0.6026 -0.6026 -0.798 728.8534 441.0549)" width="28" height="5.001"/>
		</g>
		<g>
			
				<rect x="308.299" y="369.133" transform="matrix(-0.5264 0.8502 -0.8502 -0.5264 807.9373 293.246)" width="28.001" height="5.001"/>
		</g>
		<g>
			
				<rect x="348.401" y="384.664" transform="matrix(-0.1837 0.983 -0.983 -0.1837 809.5436 102.0423)" width="28.001" height="5.001"/>
		</g>
		<g>
			
				<rect x="391.406" y="384.657" transform="matrix(0.1839 0.9829 -0.9829 0.1839 711.4155 -82.5254)" width="27.999" height="5.001"/>
		</g>
		<g>
			
				<rect x="391.406" y="384.657" transform="matrix(0.1839 0.9829 -0.9829 0.1839 711.4155 -82.5254)" width="27.999" height="5.001"/>
		</g>
		<g>
			
				<rect x="431.502" y="369.113" transform="matrix(0.5266 0.8501 -0.8501 0.5266 526.8108 -202.8051)" width="27.998" height="5.002"/>
		</g>
		<g>
			
				<rect x="463.275" y="340.133" transform="matrix(0.7982 0.6024 -0.6024 0.7982 302.7344 -218.3694)" width="27.999" height="5.001"/>
		</g>
		<g>
			<rect x="482.43" y="301.632" transform="matrix(0.9619 0.2733 -0.2733 0.9619 102.0382 -124.1135)" width="27.999" height="5"/>
		</g>
		<g>
			<rect x="486.381" y="258.81" transform="matrix(0.9957 -0.0926 0.0926 0.9957 -22.0555 47.4779)" width="27.999" height="5"/>
		</g>
		<g>
			<rect x="474.593" y="217.453" transform="matrix(0.895 -0.4461 0.4461 0.895 -46.8096 241.0791)" width="27.999" height="5"/>
		</g>
		<g>
			<rect x="448.66" y="183.149" transform="matrix(0.6733 -0.7393 0.7393 0.6733 13.8807 402.7133)" width="27.999" height="5"/>
		</g>
		<g>
			<rect x="276.518" y="340.163" transform="matrix(-0.798 0.6026 -0.6026 -0.798 728.8534 441.0549)" width="28" height="5.001"/>
		</g>
	</g>
	<rect x="361" y="178.611" fill="none" width="44" height="15"/>
	<text transform="matrix(1 0 0 1 378.8301 189.3213)" font-family="'HelveticaNeue'" font-size="15">0</text>
	<rect x="393.255" y="184.111" fill="none" width="44" height="15"/>
	<text transform="matrix(1 0 0 1 411.085 194.8213)" font-family="'HelveticaNeue'" font-size="15">1</text>
	<rect x="421.255" y="200.846" fill="none" width="44" height="15"/>
	<text transform="matrix(1 0 0 1 439.085 211.5557)" font-family="'HelveticaNeue'" font-size="15">2</text>
	<rect x="440.152" y="227.278" fill="none" width="44" height="15"/>
	<text transform="matrix(1 0 0 1 457.9824 237.9883)" font-family="'HelveticaNeue'" font-size="15">3</text>
	<rect x="448.878" y="259.877" fill="none" width="44" height="15"/>
	<text transform="matrix(1 0 0 1 466.708 270.5869)" font-family="'HelveticaNeue'" font-size="15">4</text>
	<rect x="446.448" y="291.668" fill="none" width="44" height="15"/>
	<text transform="matrix(1 0 0 1 464.2783 302.3779)" font-family="'HelveticaNeue'" font-size="15">5</text>
	<rect x="432.493" y="321.904" fill="none" width="44" height="15"/>
	<text transform="matrix(1 0 0 1 450.3232 332.6143)" font-family="'HelveticaNeue'" font-size="15">6</text>
	<rect x="410.493" y="342.943" fill="none" width="44" height="15"/>
	<text transform="matrix(1 0 0 1 428.3232 353.6533)" font-family="'HelveticaNeue'" font-size="15">7</text>
	<rect x="377.5" y="355.354" fill="none" width="44" height="15"/>
	<text transform="matrix(1 0 0 1 395.3301 366.0645)" font-family="'HelveticaNeue'" font-size="15">8</text>
	<rect x="344.924" y="356.354" fill="none" width="44" height="15"/>
	<text transform="matrix(1 0 0 1 362.7544 367.0645)" font-family="'HelveticaNeue'" font-size="15">9</text>
	<rect x="313.835" y="345.229" fill="none" width="44" height="15"/>
	<text transform="matrix(1 0 0 1 327.4951 355.9385)" font-family="'HelveticaNeue'" font-size="15">10</text>
	<rect x="290.297" y="324.656" fill="none" width="44" height="15"/>
	<text transform="matrix(1 0 0 1 303.9575 335.3662)" font-family="'HelveticaNeue'" font-size="15">11</text>
	<rect x="274" y="292.542" fill="none" width="44" height="15"/>
	<text transform="matrix(1 0 0 1 287.6602 303.252)" font-family="'HelveticaNeue'" font-size="15">12</text>
	<rect x="270.291" y="259.877" fill="none" width="44" height="15"/>
	<text transform="matrix(1 0 0 1 283.9512 270.5869)" font-family="'HelveticaNeue'" font-size="15">13</text>
	<rect x="279.691" y="227.278" fill="none" width="44" height="15"/>
	<text transform="matrix(1 0 0 1 293.3511 237.9883)" font-family="'HelveticaNeue'" font-size="15">14</text>
	<rect x="299.793" y="200.403" fill="none" width="44" height="15"/>
	<text transform="matrix(1 0 0 1 313.4536 211.1133)" font-family="'HelveticaNeue'" font-size="15">15</text>
	<rect x="325.934" y="185.111" fill="none" width="44" height="15"/>
	<text transform="matrix(1 0 0 1 339.5942 195.8213)" font-family="'HelveticaNeue'" font-size="15">16</text>
	<circle cx="383.257" cy="272.778" r="5.5"/>
	<rect x="331.331" y="258.002" fill="none" width="49.009" height="22.969"/>
	<text transform="matrix(1 0 0 1 342.1392 269.4258)" fill="#E15218" font-family="'HelveticaNeue-Bold'" font-size="16">+32</text>
	<g enable-background="new    ">
		<g enable-background="new    ">
			<g>
				<path fill="none" stroke="#E15218" stroke-width="2.1368" stroke-miterlimit="10" stroke-dasharray="4.5837,8.0215" d="
					M334.024,229.027c-0.173,0.204-0.346,0.409-0.518,0.614c-1.942,2.343-3.697,4.849-5.296,7.453
					c-1.594,2.609-2.975,5.356-4.183,8.174c-1.205,2.824-2.168,5.75-2.95,8.717c-0.775,2.971-1.293,6-1.63,9.031
					c-0.318,3.036-0.389,6.075-0.285,9.084c0.151,3.009,0.476,6.011,1.04,8.973c0.583,2.958,1.339,5.876,2.334,8.701
					c1.003,2.821,2.171,5.569,3.555,8.183c1.389,2.61,2.926,5.118,4.648,7.468c1.727,2.344,3.58,4.565,5.586,6.609
					c2.013,2.036,4.125,3.94,6.365,5.647c4.47,3.422,9.339,6.164,14.394,8.137l0.944,0.373l0.956,0.336
					c0.638,0.221,1.273,0.442,1.911,0.647c1.289,0.377,2.562,0.771,3.857,1.059c2.573,0.639,5.166,1.041,7.724,1.317
					c1.283,0.11,2.556,0.23,3.822,0.252c0.633,0.017,1.264,0.044,1.89,0.043c0.626-0.012,1.25-0.022,1.872-0.033l0.93-0.027
					l0.926-0.061c0.615-0.045,1.227-0.09,1.838-0.135c0.61-0.061,1.218-0.137,1.823-0.21c0.605-0.077,1.207-0.144,1.804-0.252
					c4.781-0.772,9.334-2.091,13.485-3.883c4.153-1.787,7.921-3.991,11.253-6.441c6.668-4.92,11.535-10.8,14.889-16.466
					c1.681-2.839,3.002-5.633,4.006-8.288c1.001-2.657,1.758-5.149,2.253-7.439c1.039-4.57,1.265-8.232,1.312-10.699
					c0.049-1.236-0.003-2.178-0.011-2.813c-0.018-0.635-0.027-0.963-0.027-0.963v-0.068c0,0-0.022-0.327-0.066-0.961
					c-0.053-0.632-0.093-1.57-0.26-2.789c-0.285-2.433-0.86-6.017-2.297-10.352c-0.692-2.172-1.659-4.507-2.861-6.954
					c-1.206-2.447-2.72-4.977-4.562-7.495c-3.674-5.031-8.734-10.021-15.205-13.888c-3.233-1.925-6.803-3.567-10.631-4.792
					c-3.826-1.23-7.923-1.989-12.122-2.255c-4.202-0.269-8.489,0.042-12.772,0.875c-2.135,0.447-4.271,0.99-6.357,1.733
					c-1.053,0.341-2.078,0.777-3.11,1.188c-0.511,0.221-1.017,0.457-1.523,0.688l-0.76,0.352l-0.746,0.383
					c-7.979,4.043-14.897,10.459-19.496,18.31c-1.16,1.956-2.149,4.012-3.018,6.111c-0.864,2.104-1.539,4.281-2.088,6.479
					c-0.543,2.202-0.885,4.445-1.105,6.686c-0.203,2.244-0.217,4.491-0.113,6.715c0.151,2.225,0.419,4.434,0.868,6.604
					c0.466,2.166,1.046,4.298,1.81,6.355c0.771,2.052,1.648,4.051,2.693,5.945c1.049,1.89,2.195,3.708,3.482,5.404
					c5.115,6.81,12.046,11.806,19.394,14.527l0.686,0.259l0.695,0.229c0.464,0.15,0.923,0.305,1.386,0.445
					c0.936,0.25,1.855,0.527,2.794,0.713c1.859,0.434,3.732,0.682,5.576,0.855c3.699,0.284,7.307,0.128,10.728-0.494
					c3.418-0.62,6.649-1.611,9.581-2.946c2.935-1.33,5.585-2.945,7.922-4.73c4.676-3.589,8.043-7.83,10.331-11.873
					c1.147-2.025,2.04-4.007,2.704-5.886c0.66-1.88,1.165-3.631,1.472-5.242c0.664-3.209,0.768-5.77,0.763-7.497
					c0.022-0.864-0.037-1.526-0.049-1.97c-0.02-0.445-0.03-0.674-0.03-0.674v-0.048c0,0-0.021-0.229-0.063-0.672
					c-0.05-0.442-0.083-1.099-0.223-1.946c-0.23-1.694-0.685-4.176-1.747-7.15c-0.505-1.493-1.218-3.086-2.08-4.756
					c-0.865-1.67-1.951-3.39-3.259-5.094c-2.608-3.406-6.169-6.759-10.648-9.293c-2.239-1.259-4.692-2.314-7.3-3.081
					c-2.56-0.76-5.282-1.189-8.062-1.312"/>
				<g>
					<polygon fill="#E15218" points="339.781,223.052 328.269,228.249 333.645,229.523 335.201,234.823 					"/>
				</g>
				<g>
					<polygon fill="#E15218" points="384.717,238.766 384.937,238.7 384.878,238.782 384.92,238.873 					"/>
				</g>
			</g>
		</g>
	</g>
	
		<line fill="none" stroke="#000000" stroke-width="4" stroke-linecap="round" stroke-miterlimit="10" x1="383" y1="209" x2="383" y2="274"/>
</g>
<g>
	<g>
		<circle fill="#FFFFFF" stroke="#000000" stroke-width="3" stroke-miterlimit="10" cx="982.75" cy="272.424" r="131.244"/>
		<g>
			<rect x="980" y="142" width="5" height="28"/>
		</g>
		<g>
			<rect x="926.612" y="160.559" transform="matrix(-0.3613 -0.9324 0.9324 -0.3613 1128.438 1099.0405)" width="28" height="5"/>
		</g>
		<g>
			<rect x="890.062" y="183.193" transform="matrix(-0.6737 -0.739 0.739 -0.6737 1375.8901 978.9076)" width="28" height="5.001"/>
		</g>
		<g>
			<rect x="864.15" y="217.505" transform="matrix(-0.8952 -0.4458 0.4458 -0.8952 1566.158 808.3897)" width="28" height="5.001"/>
		</g>
		<g>
			<rect x="864.15" y="217.505" transform="matrix(-0.8952 -0.4458 0.4458 -0.8952 1566.158 808.3897)" width="28" height="5.001"/>
		</g>
		<g>
			<rect x="1011.151" y="160.557" transform="matrix(0.3612 -0.9325 0.9325 0.3612 502.8223 1060.106)" width="28" height="5.001"/>
		</g>
		<g>
			
				<rect x="852.384" y="258.861" transform="matrix(-0.9957 -0.0923 0.0923 -0.9957 1704.9392 601.5899)" width="28" height="5.001"/>
		</g>
		<g>
			
				<rect x="856.352" y="301.674" transform="matrix(-0.9618 0.2736 -0.2736 -0.9618 1790.7173 358.6038)" width="28" height="5.001"/>
		</g>
		<g>
			
				<rect x="875.517" y="340.163" transform="matrix(-0.798 0.6026 -0.6026 -0.798 1805.8811 80.1039)" width="28.001" height="5.001"/>
		</g>
		<g>
			
				<rect x="907.299" y="369.133" transform="matrix(-0.5264 0.8502 -0.8502 -0.5264 1722.2665 -216.0358)" width="28.001" height="5.002"/>
		</g>
		<g>
			
				<rect x="947.4" y="384.664" transform="matrix(-0.1837 0.983 -0.983 -0.1837 1518.5801 -486.7571)" width="28.001" height="5.001"/>
		</g>
		<g>
			
				<rect x="990.406" y="384.657" transform="matrix(0.1839 0.9829 -0.9829 0.1839 1200.2714 -671.3118)" width="27.999" height="5.001"/>
		</g>
		<g>
			
				<rect x="990.406" y="384.657" transform="matrix(0.1839 0.9829 -0.9829 0.1839 1200.2714 -671.3118)" width="27.999" height="5.001"/>
		</g>
		<g>
			
				<rect x="1030.503" y="369.113" transform="matrix(0.5266 0.8501 -0.8501 0.5266 810.3743 -712.0212)" width="27.998" height="5.002"/>
		</g>
		<g>
			
				<rect x="1062.275" y="340.133" transform="matrix(0.7982 0.6024 -0.6024 0.7982 423.6163 -579.2136)" width="27.999" height="5.001"/>
		</g>
		<g>
			<rect x="1081.43" y="301.632" transform="matrix(0.9619 0.2733 -0.2733 0.9619 124.8446 -287.837)" width="28" height="5"/>
		</g>
		<g>
			<rect x="1085.382" y="258.81" transform="matrix(0.9957 -0.0926 0.0926 0.9957 -19.4799 102.9698)" width="27.998" height="5"/>
		</g>
		<g>
			<rect x="1073.594" y="217.453" transform="matrix(0.895 -0.4461 0.4461 0.895 16.1073 508.3206)" width="27.998" height="5"/>
		</g>
		<g>
			<rect x="1047.66" y="183.149" transform="matrix(0.6733 -0.7394 0.7394 0.6733 209.577 845.6047)" width="27.999" height="5"/>
		</g>
		<g>
			
				<rect x="875.517" y="340.163" transform="matrix(-0.798 0.6026 -0.6026 -0.798 1805.8811 80.1039)" width="28.001" height="5.001"/>
		</g>
	</g>
	<rect x="960" y="178.611" fill="none" width="44" height="15"/>
	<text transform="matrix(1 0 0 1 977.8301 189.3213)" font-family="'HelveticaNeue'" font-size="15">0</text>
	<rect x="992.255" y="184.111" fill="none" width="44" height="15"/>
	<text transform="matrix(1 0 0 1 1010.085 194.8213)" font-family="'HelveticaNeue'" font-size="15">1</text>
	<rect x="1020.255" y="200.846" fill="none" width="44" height="15"/>
	<text transform="matrix(1 0 0 1 1038.085 211.5557)" font-family="'HelveticaNeue'" font-size="15">2</text>
	<rect x="1039.152" y="227.278" fill="none" width="44" height="15"/>
	<text transform="matrix(1 0 0 1 1056.9824 237.9883)" font-family="'HelveticaNeue'" font-size="15">3</text>
	<rect x="1047.878" y="259.877" fill="none" width="44" height="15"/>
	<text transform="matrix(1 0 0 1 1065.708 270.5869)" font-family="'HelveticaNeue'" font-size="15">4</text>
	<rect x="1045.448" y="291.668" fill="none" width="44" height="15"/>
	<text transform="matrix(1 0 0 1 1063.2783 302.3779)" font-family="'HelveticaNeue'" font-size="15">5</text>
	<rect x="1031.493" y="321.904" fill="none" width="44" height="15"/>
	<text transform="matrix(1 0 0 1 1049.3232 332.6143)" font-family="'HelveticaNeue'" font-size="15">6</text>
	<rect x="1009.493" y="342.943" fill="none" width="44" height="15"/>
	<text transform="matrix(1 0 0 1 1027.3232 353.6533)" font-family="'HelveticaNeue'" font-size="15">7</text>
	<rect x="976.5" y="355.354" fill="none" width="44" height="15"/>
	<text transform="matrix(1 0 0 1 994.3301 366.0645)" font-family="'HelveticaNeue'" font-size="15">8</text>
	<rect x="943.924" y="356.354" fill="none" width="44" height="15"/>
	<text transform="matrix(1 0 0 1 961.7539 367.0645)" font-family="'HelveticaNeue'" font-size="15">9</text>
	<rect x="912.835" y="345.229" fill="none" width="44" height="15"/>
	<text transform="matrix(1 0 0 1 926.4951 355.9385)" font-family="'HelveticaNeue'" font-size="15">10</text>
	<rect x="889.297" y="324.656" fill="none" width="44" height="15"/>
	<text transform="matrix(1 0 0 1 902.957 335.3662)" font-family="'HelveticaNeue'" font-size="15">11</text>
	<rect x="873" y="292.542" fill="none" width="44" height="15"/>
	<text transform="matrix(1 0 0 1 886.6602 303.252)" font-family="'HelveticaNeue'" font-size="15">12</text>
	<rect x="869.291" y="259.877" fill="none" width="44" height="15"/>
	<text transform="matrix(1 0 0 1 882.9512 270.5869)" font-family="'HelveticaNeue'" font-size="15">13</text>
	<rect x="878.691" y="227.278" fill="none" width="44" height="15"/>
	<text transform="matrix(1 0 0 1 892.3516 237.9883)" font-family="'HelveticaNeue'" font-size="15">14</text>
	<rect x="898.793" y="200.403" fill="none" width="44" height="15"/>
	<text transform="matrix(1 0 0 1 912.4531 211.1133)" font-family="'HelveticaNeue'" font-size="15">15</text>
	<rect x="924.934" y="185.111" fill="none" width="44" height="15"/>
	<text transform="matrix(1 0 0 1 938.5938 195.8213)" font-family="'HelveticaNeue'" font-size="15">16</text>
	<circle cx="982.257" cy="272.778" r="5.5"/>
	<g enable-background="new    ">
		<g enable-background="new    ">
			<g>
				<path fill="none" stroke="#E15218" stroke-width="2.1368" stroke-miterlimit="10" d="M932.506,229.642
					c-1.941,2.343-3.696,4.849-5.296,7.453c-1.595,2.609-2.976,5.356-4.183,8.174c-1.205,2.824-2.168,5.75-2.949,8.717
					c-0.775,2.971-1.294,6-1.631,9.031c-0.318,3.036-0.389,6.075-0.285,9.084c0.15,3.009,0.477,6.011,1.04,8.973
					c0.583,2.958,1.339,5.876,2.335,8.701c1.003,2.821,2.17,5.569,3.555,8.183c1.389,2.61,2.926,5.118,4.648,7.468
					c1.727,2.344,3.579,4.565,5.586,6.609c2.013,2.036,4.125,3.94,6.365,5.647c4.469,3.422,9.339,6.164,14.393,8.137l0.945,0.373
					l0.955,0.336c0.639,0.221,1.273,0.442,1.911,0.647c1.289,0.377,2.562,0.771,3.857,1.059c2.573,0.639,5.165,1.041,7.724,1.317
					c1.283,0.11,2.556,0.23,3.822,0.252c0.633,0.017,1.264,0.044,1.89,0.043c0.626-0.012,1.25-0.022,1.872-0.033l0.93-0.027
					l0.926-0.061c0.615-0.045,1.227-0.09,1.838-0.135c0.61-0.061,1.219-0.137,1.822-0.21c0.605-0.077,1.207-0.144,1.805-0.252
					c4.781-0.772,9.334-2.091,13.484-3.883c4.154-1.787,7.922-3.991,11.254-6.441c6.668-4.92,11.534-10.8,14.889-16.466
					c1.68-2.839,3.002-5.633,4.006-8.288c1.001-2.657,1.758-5.149,2.253-7.439c1.038-4.57,1.265-8.232,1.312-10.699
					c0.05-1.236-0.003-2.178-0.011-2.813c-0.019-0.635-0.027-0.963-0.027-0.963v-0.068c0,0-0.022-0.327-0.066-0.961
					c-0.053-0.632-0.094-1.57-0.26-2.789c-0.285-2.433-0.859-6.017-2.297-10.352c-0.693-2.172-1.659-4.507-2.861-6.954
					c-1.205-2.447-2.72-4.977-4.562-7.495c-3.674-5.031-8.734-10.021-15.205-13.888c-3.232-1.925-6.803-3.567-10.631-4.792
					c-3.826-1.23-7.924-1.989-12.121-2.255c-4.202-0.269-8.489,0.042-12.772,0.875c-2.136,0.447-4.271,0.99-6.357,1.733
					c-1.054,0.341-2.077,0.777-3.11,1.188c-0.511,0.221-1.017,0.457-1.523,0.688l-0.76,0.352l-0.746,0.383
					c-7.979,4.043-14.896,10.459-19.496,18.31c-1.159,1.956-2.148,4.012-3.018,6.111c-0.863,2.104-1.538,4.281-2.088,6.479
					c-0.543,2.202-0.885,4.445-1.105,6.686c-0.202,2.244-0.217,4.491-0.113,6.715c0.151,2.225,0.42,4.434,0.869,6.604
					c0.466,2.166,1.046,4.298,1.81,6.355c0.771,2.052,1.648,4.051,2.693,5.945c1.049,1.89,2.195,3.708,3.482,5.404
					c5.114,6.81,12.046,11.806,19.394,14.527l0.686,0.259l0.695,0.229c0.465,0.15,0.924,0.305,1.387,0.445
					c0.936,0.25,1.855,0.527,2.794,0.713c1.858,0.434,3.732,0.682,5.576,0.855c3.698,0.284,7.308,0.128,10.728-0.494
					c3.418-0.62,6.649-1.611,9.582-2.946c2.934-1.33,5.585-2.945,7.922-4.73c4.676-3.589,8.043-7.83,10.331-11.873
					c1.147-2.025,2.04-4.007,2.704-5.886c0.66-1.88,1.164-3.631,1.471-5.242c0.664-3.209,0.768-5.77,0.764-7.497
					c0.021-0.864-0.037-1.526-0.049-1.97c-0.02-0.445-0.03-0.674-0.03-0.674v-0.048c0,0-0.021-0.229-0.063-0.672
					c-0.051-0.442-0.082-1.099-0.223-1.946c-0.23-1.694-0.686-4.176-1.747-7.15c-0.505-1.493-1.218-3.086-2.079-4.756
					c-0.865-1.67-1.951-3.39-3.26-5.094c-2.607-3.406-6.169-6.759-10.647-9.293c-2.239-1.259-4.692-2.314-7.3-3.081
					c-2.607-0.774-5.385-1.206-8.219-1.319"/>
				<g>
					<polygon fill="#E15218" points="937.8,223.252 926.661,229.208 932.11,230.119 934.019,235.303 					"/>
				</g>
				<g>
					<circle fill="#E15218" cx="983.717" cy="238.766" r="4.419"/>
				</g>
			</g>
		</g>
	</g>
	
		<line fill="none" stroke="#000000" stroke-width="4" stroke-linecap="round" stroke-miterlimit="10" x1="934.835" y1="219.953" x2="982.5" y2="273.377"/>
</g>
</svg>
