<?xml version="1.0" encoding="utf-8"?>
<!-- Generator: Adobe Illustrator 16.0.4, SVG Export Plug-In . SVG Version: 6.00 Build 0)  -->
<!DOCTYPE svg PUBLIC "-//W3C//DTD SVG 1.1//EN" "http://www.w3.org/Graphics/SVG/1.1/DTD/svg11.dtd">
<svg version="1.1" id="Layer_1" xmlns="http://www.w3.org/2000/svg" xmlns:xlink="http://www.w3.org/1999/xlink" x="0px" y="0px"
	 width="1366px" height="768px" viewBox="0 0 1366 768" enable-background="new 0 0 1366 768" xml:space="preserve">
<g>
	<g>
		
			<line fill="none" stroke="#000000" stroke-width="3" stroke-linecap="round" stroke-miterlimit="10" x1="541.5" y1="273.223" x2="807.318" y2="273.223"/>
		<g>
			<polygon points="828.5,273.223 798.652,285.419 805.734,273.223 798.652,261.03 			"/>
		</g>
	</g>
</g>
<g>
	<g>
		<circle fill="#FFFFFF" stroke="#000000" stroke-width="3" stroke-miterlimit="10" cx="383.75" cy="272.547" r="131.244"/>
		<g>
			<rect x="381" y="142" width="5" height="28"/>
		</g>
		<g>
			<rect x="327.612" y="160.682" transform="matrix(-0.3613 -0.9325 0.9325 -0.3613 312.8767 540.6753)" width="28" height="5"/>
		</g>
		<g>
			<rect x="291.062" y="183.315" transform="matrix(-0.6737 -0.739 0.739 -0.6737 373.2587 536.4426)" width="28" height="5.001"/>
		</g>
		<g>
			
				<rect x="265.151" y="217.627" transform="matrix(-0.8951 -0.4458 0.4458 -0.8951 430.9056 541.6117)" width="28" height="5.001"/>
		</g>
		<g>
			
				<rect x="265.151" y="217.627" transform="matrix(-0.8951 -0.4458 0.4458 -0.8951 430.9056 541.6117)" width="28" height="5.001"/>
		</g>
		<g>
			<rect x="412.15" y="160.68" transform="matrix(0.3612 -0.9325 0.9325 0.3612 120.0628 501.6217)" width="28" height="5.001"/>
		</g>
		<g>
			
				<rect x="253.385" y="258.983" transform="matrix(-0.9957 -0.0923 0.0923 -0.9957 509.486 546.5364)" width="27.999" height="5.001"/>
		</g>
		<g>
			
				<rect x="257.352" y="301.796" transform="matrix(-0.9618 0.2736 -0.2736 -0.9618 615.6084 522.7371)" width="28" height="5.001"/>
		</g>
		<g>
			<rect x="276.518" y="340.286" transform="matrix(-0.798 0.6026 -0.6026 -0.798 728.9272 441.2752)" width="28" height="5.001"/>
		</g>
		<g>
			
				<rect x="308.299" y="369.256" transform="matrix(-0.5264 0.8502 -0.8502 -0.5264 808.041 293.429)" width="28.001" height="5.001"/>
		</g>
		<g>
			<rect x="348.401" y="384.787" transform="matrix(-0.1837 0.983 -0.983 -0.1837 809.6647 102.1885)" width="28" height="5.001"/>
		</g>
		<g>
			
				<rect x="391.406" y="384.78" transform="matrix(0.1839 0.9829 -0.9829 0.1839 711.5378 -82.4242)" width="27.999" height="5.001"/>
		</g>
		<g>
			
				<rect x="391.406" y="384.78" transform="matrix(0.1839 0.9829 -0.9829 0.1839 711.5378 -82.4242)" width="27.999" height="5.001"/>
		</g>
		<g>
			
				<rect x="431.502" y="369.236" transform="matrix(0.5266 0.8501 -0.8501 0.5266 526.915 -202.747)" width="27.998" height="5.002"/>
		</g>
		<g>
			
				<rect x="463.275" y="340.256" transform="matrix(0.7982 0.6024 -0.6024 0.7982 302.8082 -218.3447)" width="27.999" height="5.001"/>
		</g>
		<g>
			<rect x="482.43" y="301.754" transform="matrix(0.9619 0.2733 -0.2733 0.9619 102.0717 -124.1088)" width="27.999" height="5"/>
		</g>
		<g>
			<rect x="486.381" y="258.932" transform="matrix(0.9957 -0.0926 0.0926 0.9957 -22.0668 47.4784)" width="27.999" height="5"/>
		</g>
		<g>
			<rect x="474.593" y="217.575" transform="matrix(0.895 -0.4461 0.4461 0.895 -46.8643 241.092)" width="27.999" height="5"/>
		</g>
		<g>
			<rect x="448.66" y="183.271" transform="matrix(0.6733 -0.7393 0.7393 0.6733 13.7901 402.7533)" width="27.999" height="5"/>
		</g>
		<g>
			<rect x="276.518" y="340.286" transform="matrix(-0.798 0.6026 -0.6026 -0.798 728.9272 441.2752)" width="28" height="5.001"/>
		</g>
	</g>
	<rect x="361" y="178.734" fill="none" width="44" height="15"/>
	<text transform="matrix(1 0 0 1 378.8301 189.4443)" font-family="'HelveticaNeue'" font-size="15">0</text>
	<rect x="393.255" y="184.234" fill="none" width="44" height="15"/>
	<text transform="matrix(1 0 0 1 411.085 194.9443)" font-family="'HelveticaNeue'" font-size="15">1</text>
	<rect x="421.255" y="200.969" fill="none" width="44" height="15"/>
	<text transform="matrix(1 0 0 1 439.085 211.6787)" font-family="'HelveticaNeue'" font-size="15">2</text>
	<rect x="440.152" y="227.401" fill="none" width="44" height="15"/>
	<text transform="matrix(1 0 0 1 457.9824 238.1113)" font-family="'HelveticaNeue'" font-size="15">3</text>
	<rect x="448.878" y="260" fill="none" width="44" height="15"/>
	<text transform="matrix(1 0 0 1 466.708 270.71)" font-family="'HelveticaNeue'" font-size="15">4</text>
	<rect x="446.448" y="291.791" fill="none" width="44" height="15"/>
	<text transform="matrix(1 0 0 1 464.2783 302.501)" font-family="'HelveticaNeue'" font-size="15">5</text>
	<rect x="432.493" y="322.027" fill="none" width="44" height="15"/>
	<text transform="matrix(1 0 0 1 450.3232 332.7373)" font-family="'HelveticaNeue'" font-size="15">6</text>
	<rect x="410.493" y="343.066" fill="none" width="44" height="15"/>
	<text transform="matrix(1 0 0 1 428.3232 353.7764)" font-family="'HelveticaNeue'" font-size="15">7</text>
	<rect x="377.5" y="355.478" fill="none" width="44" height="15"/>
	<text transform="matrix(1 0 0 1 395.3301 366.1875)" font-family="'HelveticaNeue'" font-size="15">8</text>
	<rect x="344.924" y="356.478" fill="none" width="44" height="15"/>
	<text transform="matrix(1 0 0 1 362.7544 367.1875)" font-family="'HelveticaNeue'" font-size="15">9</text>
	<rect x="313.835" y="345.352" fill="none" width="44" height="15"/>
	<text transform="matrix(1 0 0 1 327.4951 356.0615)" font-family="'HelveticaNeue'" font-size="15">10</text>
	<rect x="290.297" y="324.779" fill="none" width="44" height="15"/>
	<text transform="matrix(1 0 0 1 303.9575 335.4893)" font-family="'HelveticaNeue'" font-size="15">11</text>
	<rect x="274" y="292.665" fill="none" width="44" height="15"/>
	<text transform="matrix(1 0 0 1 287.6602 303.375)" font-family="'HelveticaNeue'" font-size="15">12</text>
	<rect x="270.291" y="260" fill="none" width="44" height="15"/>
	<text transform="matrix(1 0 0 1 283.9512 270.71)" font-family="'HelveticaNeue'" font-size="15">13</text>
	<rect x="279.691" y="227.401" fill="none" width="44" height="15"/>
	<text transform="matrix(1 0 0 1 293.3511 238.1113)" font-family="'HelveticaNeue'" font-size="15">14</text>
	<rect x="299.793" y="200.526" fill="none" width="44" height="15"/>
	<text transform="matrix(1 0 0 1 313.4536 211.2363)" font-family="'HelveticaNeue'" font-size="15">15</text>
	<rect x="325.934" y="185.234" fill="none" width="44" height="15"/>
	<text transform="matrix(1 0 0 1 339.5942 195.9443)" font-family="'HelveticaNeue'" font-size="15">16</text>
	<circle cx="383.257" cy="272.901" r="5.5"/>
	<rect x="323.604" y="270.917" fill="none" width="49.009" height="22.969"/>
	<text transform="matrix(1 0 0 1 332.7002 283.7676)" fill="#E15218" font-family="'HelveticaNeue-Bold'" font-size="18">+20</text>
	<g enable-background="new    ">
		<g>
			<path fill="none" stroke="#E15218" stroke-width="2" stroke-miterlimit="10" stroke-dasharray="4.2903,7.508" d="
				M434.395,240.205c-2.696-3.667-6.002-7.313-9.922-10.65c-2.586-2.201-5.439-4.269-8.561-6.119
				c-3.923-2.318-8.253-4.29-12.891-5.758c-4.636-1.474-9.598-2.374-14.674-2.677c-5.082-0.307-10.258,0.088-15.431,1.114
				c-2.577,0.55-5.154,1.216-7.671,2.123c-1.27,0.417-2.505,0.947-3.75,1.448c-1.222,0.561-2.461,1.087-3.649,1.731
				c-9.613,4.917-17.919,12.685-23.418,22.162c-2.754,4.732-4.818,9.869-6.083,15.176c-0.642,2.652-1.042,5.351-1.296,8.045
				c-0.232,2.699-0.238,5.398-0.1,8.068c0.191,2.671,0.526,5.323,1.076,7.926c0.571,2.598,1.279,5.153,2.206,7.618
				c1.837,4.932,4.383,9.516,7.466,13.573c6.167,8.132,14.49,14.065,23.286,17.273c1.087,0.431,2.214,0.745,3.312,1.099
				c1.12,0.293,2.219,0.618,3.341,0.835c2.223,0.507,4.461,0.792,6.662,0.987c4.417,0.316,8.717,0.107,12.789-0.655
				c4.07-0.759,7.911-1.962,11.392-3.57c3.484-1.602,6.626-3.542,9.392-5.679c5.533-4.297,9.5-9.355,12.184-14.166
				c2.704-4.823,4.111-9.424,4.867-13.214c0.761-3.803,0.865-6.831,0.846-8.874c0.02-1.021-0.055-1.804-0.073-2.329
				c-0.027-0.525-0.041-0.795-0.041-0.795v-0.057c0,0-0.027-0.27-0.08-0.794c-0.062-0.521-0.105-1.297-0.278-2.298
				c-0.285-1.998-0.841-4.925-2.118-8.424c-1.266-3.489-3.248-7.571-6.369-11.564c-3.098-3.987-7.316-7.898-12.595-10.832
				c-2.638-1.459-5.524-2.672-8.587-3.548c-3.062-0.882-6.316-1.361-9.631-1.467c-0.56-0.019-1.123-0.023-1.687-0.015"/>
			<g>
				<polygon fill="#E15218" points="438.995,246.462 436.115,234.996 434.051,239.737 428.91,240.293 				"/>
			</g>
		</g>
	</g>
	
		<line fill="none" stroke="#000000" stroke-width="4" stroke-linecap="round" stroke-miterlimit="10" x1="383" y1="209" x2="383" y2="274"/>
</g>
<g>
	<g>
		<circle fill="#FFFFFF" stroke="#000000" stroke-width="3" stroke-miterlimit="10" cx="982.75" cy="272.547" r="131.244"/>
		<g>
			<rect x="980" y="142" width="5" height="28"/>
		</g>
		<g>
			<rect x="926.612" y="160.682" transform="matrix(-0.3613 -0.9324 0.9324 -0.3613 1128.3237 1099.2074)" width="28" height="5"/>
		</g>
		<g>
			<rect x="890.062" y="183.315" transform="matrix(-0.6737 -0.739 0.739 -0.6737 1375.7996 979.1127)" width="28" height="5.001"/>
		</g>
		<g>
			<rect x="864.15" y="217.628" transform="matrix(-0.8952 -0.4458 0.4458 -0.8952 1566.1033 808.622)" width="28" height="5.001"/>
		</g>
		<g>
			<rect x="864.15" y="217.628" transform="matrix(-0.8952 -0.4458 0.4458 -0.8952 1566.1033 808.622)" width="28" height="5.001"/>
		</g>
		<g>
			<rect x="1011.151" y="160.68" transform="matrix(0.3612 -0.9325 0.9325 0.3612 502.7081 1060.1842)" width="28" height="5.001"/>
		</g>
		<g>
			
				<rect x="852.384" y="258.983" transform="matrix(-0.9957 -0.0923 0.0923 -0.9957 1704.9279 601.8345)" width="28" height="5.001"/>
		</g>
		<g>
			
				<rect x="856.352" y="301.796" transform="matrix(-0.9618 0.2736 -0.2736 -0.9618 1790.7507 358.8442)" width="28" height="5.001"/>
		</g>
		<g>
			
				<rect x="875.517" y="340.286" transform="matrix(-0.798 0.6026 -0.6026 -0.798 1805.9551 80.3243)" width="28.001" height="5.001"/>
		</g>
		<g>
			
				<rect x="907.299" y="369.256" transform="matrix(-0.5264 0.8502 -0.8502 -0.5264 1722.3655 -215.8559)" width="28.001" height="5.002"/>
		</g>
		<g>
			
				<rect x="947.401" y="384.787" transform="matrix(-0.1837 0.983 -0.983 -0.1837 1518.7031 -486.6105)" width="28" height="5.001"/>
		</g>
		<g>
			
				<rect x="990.406" y="384.78" transform="matrix(0.1839 0.9829 -0.9829 0.1839 1200.3955 -671.2109)" width="27.999" height="5.001"/>
		</g>
		<g>
			
				<rect x="990.406" y="384.78" transform="matrix(0.1839 0.9829 -0.9829 0.1839 1200.3955 -671.2109)" width="27.999" height="5.001"/>
		</g>
		<g>
			
				<rect x="1030.503" y="369.236" transform="matrix(0.5266 0.8501 -0.8501 0.5266 810.4785 -711.9631)" width="27.998" height="5.002"/>
		</g>
		<g>
			
				<rect x="1062.275" y="340.256" transform="matrix(0.7982 0.6024 -0.6024 0.7982 423.6901 -579.1888)" width="27.999" height="5.001"/>
		</g>
		<g>
			<rect x="1081.43" y="301.754" transform="matrix(0.9619 0.2733 -0.2733 0.9619 124.8781 -287.8324)" width="28" height="5"/>
		</g>
		<g>
			<rect x="1085.382" y="258.932" transform="matrix(0.9957 -0.0926 0.0926 0.9957 -19.4912 102.9703)" width="27.998" height="5"/>
		</g>
		<g>
			<rect x="1073.594" y="217.575" transform="matrix(0.895 -0.4461 0.4461 0.895 16.0526 508.3334)" width="27.998" height="5"/>
		</g>
		<g>
			<rect x="1047.66" y="183.271" transform="matrix(0.6733 -0.7394 0.7394 0.6733 209.4863 845.6447)" width="27.999" height="5"/>
		</g>
		<g>
			
				<rect x="875.517" y="340.286" transform="matrix(-0.798 0.6026 -0.6026 -0.798 1805.9551 80.3243)" width="28.001" height="5.001"/>
		</g>
	</g>
	<rect x="960" y="178.734" fill="none" width="44" height="15"/>
	<text transform="matrix(1 0 0 1 977.8301 189.4443)" font-family="'HelveticaNeue'" font-size="15">0</text>
	<rect x="992.255" y="184.234" fill="none" width="44" height="15"/>
	<text transform="matrix(1 0 0 1 1010.085 194.9443)" font-family="'HelveticaNeue'" font-size="15">1</text>
	<rect x="1020.255" y="200.969" fill="none" width="44" height="15"/>
	<text transform="matrix(1 0 0 1 1038.085 211.6787)" font-family="'HelveticaNeue'" font-size="15">2</text>
	<rect x="1039.152" y="227.401" fill="none" width="44" height="15"/>
	<text transform="matrix(1 0 0 1 1056.9824 238.1113)" font-family="'HelveticaNeue'" font-size="15">3</text>
	<rect x="1047.878" y="260" fill="none" width="44" height="15"/>
	<text transform="matrix(1 0 0 1 1065.708 270.71)" font-family="'HelveticaNeue'" font-size="15">4</text>
	<rect x="1045.448" y="291.791" fill="none" width="44" height="15"/>
	<text transform="matrix(1 0 0 1 1063.2783 302.501)" font-family="'HelveticaNeue'" font-size="15">5</text>
	<rect x="1031.493" y="322.027" fill="none" width="44" height="15"/>
	<text transform="matrix(1 0 0 1 1049.3232 332.7373)" font-family="'HelveticaNeue'" font-size="15">6</text>
	<rect x="1009.493" y="343.066" fill="none" width="44" height="15"/>
	<text transform="matrix(1 0 0 1 1027.3232 353.7764)" font-family="'HelveticaNeue'" font-size="15">7</text>
	<rect x="976.5" y="355.478" fill="none" width="44" height="15"/>
	<text transform="matrix(1 0 0 1 994.3301 366.1875)" font-family="'HelveticaNeue'" font-size="15">8</text>
	<rect x="943.924" y="356.478" fill="none" width="44" height="15"/>
	<text transform="matrix(1 0 0 1 961.7539 367.1875)" font-family="'HelveticaNeue'" font-size="15">9</text>
	<rect x="912.835" y="345.352" fill="none" width="44" height="15"/>
	<text transform="matrix(1 0 0 1 926.4951 356.0615)" font-family="'HelveticaNeue'" font-size="15">10</text>
	<rect x="889.297" y="324.779" fill="none" width="44" height="15"/>
	<text transform="matrix(1 0 0 1 902.957 335.4893)" font-family="'HelveticaNeue'" font-size="15">11</text>
	<rect x="873" y="292.665" fill="none" width="44" height="15"/>
	<text transform="matrix(1 0 0 1 886.6602 303.375)" font-family="'HelveticaNeue'" font-size="15">12</text>
	<rect x="869.291" y="260" fill="none" width="44" height="15"/>
	<text transform="matrix(1 0 0 1 882.9512 270.71)" font-family="'HelveticaNeue'" font-size="15">13</text>
	<rect x="878.691" y="227.401" fill="none" width="44" height="15"/>
	<text transform="matrix(1 0 0 1 892.3516 238.1113)" font-family="'HelveticaNeue'" font-size="15">14</text>
	<rect x="898.793" y="200.526" fill="none" width="44" height="15"/>
	<text transform="matrix(1 0 0 1 912.4531 211.2363)" font-family="'HelveticaNeue'" font-size="15">15</text>
	<rect x="924.934" y="185.234" fill="none" width="44" height="15"/>
	<text transform="matrix(1 0 0 1 938.5938 195.9443)" font-family="'HelveticaNeue'" font-size="15">16</text>
	<circle cx="982.257" cy="272.901" r="5.5"/>
	<g enable-background="new    ">
		<g>
			<path fill="none" stroke="#E15218" stroke-width="2" stroke-miterlimit="10" d="M1031.231,237.433
				c-2.244-2.719-4.829-5.384-7.759-7.878c-2.586-2.201-5.439-4.269-8.561-6.119c-3.924-2.318-8.253-4.29-12.891-5.758
				c-4.637-1.474-9.598-2.374-14.675-2.677c-5.081-0.307-10.259,0.088-15.431,1.114c-2.577,0.55-5.154,1.216-7.672,2.123
				c-1.27,0.417-2.504,0.947-3.749,1.448c-1.222,0.561-2.462,1.087-3.649,1.731c-9.613,4.917-17.919,12.685-23.418,22.162
				c-2.754,4.732-4.818,9.869-6.084,15.176c-0.641,2.652-1.042,5.351-1.295,8.045c-0.232,2.699-0.238,5.398-0.101,8.068
				c0.191,2.671,0.526,5.323,1.075,7.926c0.571,2.598,1.279,5.153,2.207,7.618c1.836,4.932,4.383,9.516,7.466,13.573
				c6.167,8.132,14.489,14.065,23.286,17.273c1.087,0.431,2.214,0.745,3.312,1.099c1.12,0.293,2.22,0.618,3.341,0.835
				c2.223,0.507,4.461,0.792,6.662,0.987c4.416,0.316,8.717,0.107,12.789-0.655c4.07-0.759,7.91-1.962,11.393-3.57
				c3.483-1.602,6.625-3.542,9.391-5.679c5.533-4.297,9.501-9.355,12.185-14.166c2.704-4.823,4.11-9.424,4.866-13.214
				c0.762-3.803,0.865-6.831,0.847-8.874c0.021-1.021-0.056-1.804-0.073-2.329c-0.026-0.525-0.04-0.795-0.04-0.795v-0.057
				c0,0-0.026-0.27-0.08-0.794c-0.062-0.521-0.104-1.297-0.278-2.298c-0.285-1.998-0.841-4.925-2.117-8.424
				c-1.266-3.489-3.248-7.571-6.369-11.564c-3.098-3.987-7.316-7.898-12.596-10.832c-2.638-1.459-5.523-2.672-8.586-3.548
				c-3.062-0.882-6.316-1.361-9.631-1.467c-0.561-0.019-1.123-0.023-1.688-0.015"/>
			<g>
				<polygon fill="#E15218" points="1036.176,243.422 1032.657,232.135 1030.861,236.985 1025.761,237.828 				"/>
			</g>
			<g>
				<circle fill="#E15218" cx="983.309" cy="235.897" r="3.309"/>
			</g>
		</g>
	</g>
	
		<line fill="none" stroke="#000000" stroke-width="4" stroke-linecap="round" stroke-miterlimit="10" x1="1045.448" y1="240.5" x2="982.524" y2="273.223"/>
</g>
</svg>
