<?xml version="1.0" encoding="utf-8"?>
<!-- Generator: Adobe Illustrator 16.0.4, SVG Export Plug-In . SVG Version: 6.00 Build 0)  -->
<!DOCTYPE svg PUBLIC "-//W3C//DTD SVG 1.1//EN" "http://www.w3.org/Graphics/SVG/1.1/DTD/svg11.dtd">
<svg version="1.1" id="Layer_1" xmlns="http://www.w3.org/2000/svg" xmlns:xlink="http://www.w3.org/1999/xlink" x="0px" y="0px"
	 width="1366px" height="768px" viewBox="0 0 1366 768" enable-background="new 0 0 1366 768" xml:space="preserve">
<g>
	<g>
		
			<line fill="none" stroke="#000000" stroke-width="3" stroke-linecap="round" stroke-miterlimit="10" x1="541.5" y1="273.223" x2="807.318" y2="273.223"/>
		<g>
			<polygon points="828.5,273.223 798.652,285.419 805.734,273.223 798.652,261.03 			"/>
		</g>
	</g>
</g>
<g>
	<g>
		<circle fill="#FFFFFF" stroke="#000000" stroke-width="3" stroke-miterlimit="10" cx="383.75" cy="272.547" r="131.244"/>
		<g>
			<rect x="381" y="142" width="5" height="28"/>
		</g>
		<g>
			<rect x="327.619" y="160.664" transform="matrix(0.3613 0.9325 -0.9325 0.3613 370.3374 -214.3299)" width="28.001" height="5"/>
		</g>
		<g>
			<rect x="291.056" y="183.317" transform="matrix(0.6737 0.739 -0.739 0.6737 236.8607 -164.8058)" width="28" height="5.001"/>
		</g>
		<g>
			
				<rect x="265.171" y="217.629" transform="matrix(0.8951 0.4458 -0.4458 0.8951 127.4162 -101.3727)" width="27.999" height="5.001"/>
		</g>
		<g>
			
				<rect x="265.171" y="217.629" transform="matrix(0.8951 0.4458 -0.4458 0.8951 127.4162 -101.3727)" width="27.999" height="5.001"/>
		</g>
		<g>
			
				<rect x="412.154" y="160.677" transform="matrix(-0.3612 0.9325 -0.9325 -0.3612 732.236 -175.2723)" width="28.001" height="5.002"/>
		</g>
		<g>
			
				<rect x="253.387" y="258.997" transform="matrix(0.9957 0.0923 -0.0923 0.9957 25.2799 -23.5654)" width="27.998" height="5.001"/>
		</g>
		<g>
			
				<rect x="257.367" y="301.806" transform="matrix(0.9618 -0.2736 0.2736 0.9618 -72.9058 85.8602)" width="27.999" height="5.001"/>
		</g>
		<g>
			
				<rect x="276.531" y="340.297" transform="matrix(0.798 -0.6026 0.6026 0.798 -147.8978 244.3163)" width="27.999" height="5.001"/>
		</g>
		<g>
			<rect x="308.315" y="369.255" transform="matrix(0.5264 -0.8502 0.8502 0.5264 -163.433 450.0996)" width="28" height="5.001"/>
		</g>
		<g>
			<rect x="348.388" y="384.784" transform="matrix(0.1837 -0.983 0.983 0.1837 -84.8757 672.3618)" width="28" height="5.001"/>
		</g>
		<g>
			<rect x="391.435" y="384.769" transform="matrix(-0.1839 -0.9829 0.9829 -0.1839 99.3222 857.0035)" width="27.998" height="5"/>
		</g>
		<g>
			<rect x="391.435" y="384.769" transform="matrix(-0.1839 -0.9829 0.9829 -0.1839 99.3222 857.0035)" width="27.998" height="5"/>
		</g>
		<g>
			
				<rect x="431.504" y="369.229" transform="matrix(-0.5266 -0.8501 0.8501 -0.5266 364.0887 946.2101)" width="27.997" height="5.002"/>
		</g>
		<g>
			
				<rect x="463.292" y="340.253" transform="matrix(-0.7982 -0.6024 0.6024 -0.7982 651.7796 903.861)" width="27.999" height="5.001"/>
		</g>
		<g>
			
				<rect x="482.435" y="301.727" transform="matrix(-0.9619 -0.2733 0.2733 -0.9619 890.8262 732.5458)" width="27.999" height="5"/>
		</g>
		<g>
			
				<rect x="486.371" y="258.951" transform="matrix(-0.9957 0.0926 -0.0926 -0.9957 1022.8027 475.4421)" width="27.998" height="5"/>
		</g>
		<g>
			<rect x="474.602" y="217.598" transform="matrix(-0.895 0.4461 -0.4461 -0.895 1024.0774 199.1183)" width="27.999" height="5"/>
		</g>
		<g>
			
				<rect x="448.641" y="183.289" transform="matrix(-0.6733 0.7393 -0.7393 -0.6733 911.512 -31.1574)" width="27.997" height="4.999"/>
		</g>
		<g>
			
				<rect x="276.531" y="340.297" transform="matrix(0.798 -0.6026 0.6026 0.798 -147.8978 244.3163)" width="27.999" height="5.001"/>
		</g>
	</g>
	<rect x="361" y="178.734" fill="none" width="44" height="15"/>
	<rect x="393.255" y="184.234" fill="none" width="44" height="15"/>
	<rect x="421.255" y="200.969" fill="none" width="44" height="15"/>
	<rect x="440.152" y="227.401" fill="none" width="44" height="15"/>
	<rect x="448.878" y="260" fill="none" width="44" height="15"/>
	<rect x="446.448" y="291.791" fill="none" width="44" height="15"/>
	<rect x="432.493" y="322.027" fill="none" width="44" height="15"/>
	<rect x="410.493" y="343.066" fill="none" width="44" height="15"/>
	<rect x="377.5" y="355.478" fill="none" width="44" height="15"/>
	<rect x="344.924" y="356.478" fill="none" width="44" height="15"/>
	<rect x="313.835" y="345.352" fill="none" width="44" height="15"/>
	<rect x="290.297" y="324.779" fill="none" width="44" height="15"/>
	<rect x="274" y="292.665" fill="none" width="44" height="15"/>
	<rect x="270.291" y="260" fill="none" width="44" height="15"/>
	<rect x="279.691" y="227.401" fill="none" width="44" height="15"/>
	<rect x="299.793" y="200.526" fill="none" width="44" height="15"/>
	<rect x="325.934" y="185.234" fill="none" width="44" height="15"/>
	<circle cx="383.257" cy="272.901" r="5.5"/>
	<rect x="323.604" y="270.917" fill="none" width="49.009" height="22.969"/>
	<g enable-background="new    ">
		<path fill="#E15218" d="M336.875,278.389h-3.401v-1.925h3.401v-3.428h1.925v3.428h3.401v1.925H338.8v3.384h-1.925V278.389z"/>
		<path fill="#E15218" d="M352.678,283.768h-8.982v-1.89l3.226-3.261c0.955-0.979,1.579-1.656,1.872-2.035
			c0.293-0.377,0.504-0.728,0.633-1.05s0.193-0.656,0.193-1.002c0-0.516-0.142-0.899-0.426-1.151s-0.664-0.378-1.138-0.378
			c-0.498,0-0.981,0.114-1.45,0.343s-0.958,0.554-1.468,0.976l-1.477-1.749c0.633-0.539,1.157-0.92,1.573-1.143
			s0.87-0.394,1.362-0.514s1.043-0.181,1.652-0.181c0.803,0,1.512,0.146,2.127,0.439s1.093,0.703,1.433,1.23s0.51,1.131,0.51,1.811
			c0,0.592-0.104,1.147-0.312,1.665c-0.208,0.52-0.53,1.051-0.967,1.596s-1.206,1.321-2.307,2.329l-1.652,1.556v0.123h5.599V283.768
			z"/>
		<path fill="#E15218" d="M362.882,277.343c0,2.244-0.368,3.905-1.103,4.983s-1.868,1.617-3.397,1.617
			c-1.482,0-2.6-0.557-3.353-1.67s-1.129-2.757-1.129-4.931c0-2.268,0.366-3.938,1.099-5.015c0.732-1.074,1.86-1.612,3.384-1.612
			c1.482,0,2.603,0.562,3.362,1.688S362.882,275.175,362.882,277.343z M356.598,277.343c0,1.576,0.136,2.706,0.409,3.388
			c0.272,0.684,0.731,1.024,1.375,1.024c0.633,0,1.09-0.346,1.371-1.037s0.422-1.816,0.422-3.375c0-1.576-0.142-2.708-0.426-3.397
			c-0.284-0.688-0.74-1.032-1.367-1.032c-0.639,0-1.096,0.345-1.371,1.032C356.735,274.635,356.598,275.767,356.598,277.343z"/>
	</g>
	<g enable-background="new    ">
		<g>
			<path fill="none" stroke="#E15218" stroke-width="2" stroke-miterlimit="10" stroke-dasharray="4.2903,7.508" d="
				M434.395,240.205c-2.695-3.667-6.002-7.313-9.922-10.65c-2.586-2.201-5.438-4.269-8.561-6.119
				c-3.923-2.318-8.253-4.29-12.891-5.758c-4.637-1.474-9.599-2.374-14.674-2.677c-5.082-0.307-10.258,0.088-15.431,1.114
				c-2.577,0.55-5.154,1.216-7.671,2.123c-1.27,0.417-2.505,0.947-3.75,1.448c-1.222,0.561-2.461,1.087-3.649,1.731
				c-9.613,4.917-17.919,12.685-23.418,22.162c-2.754,4.732-4.818,9.869-6.083,15.176c-0.642,2.652-1.042,5.351-1.296,8.045
				c-0.232,2.699-0.238,5.398-0.1,8.068c0.191,2.671,0.526,5.323,1.076,7.926c0.571,2.598,1.279,5.153,2.206,7.618
				c1.837,4.932,4.383,9.516,7.466,13.573c6.167,8.132,14.49,14.065,23.286,17.273c1.087,0.432,2.214,0.745,3.312,1.1
				c1.12,0.293,2.219,0.617,3.341,0.835c2.223,0.507,4.461,0.792,6.662,0.986c4.417,0.316,8.717,0.107,12.789-0.654
				c4.07-0.76,7.911-1.962,11.392-3.57c3.484-1.603,6.627-3.542,9.393-5.679c5.533-4.297,9.5-9.355,12.184-14.167
				c2.704-4.823,4.111-9.424,4.867-13.214c0.761-3.803,0.865-6.831,0.846-8.874c0.021-1.021-0.055-1.804-0.072-2.329
				c-0.027-0.525-0.041-0.795-0.041-0.795v-0.057c0,0-0.027-0.27-0.08-0.794c-0.062-0.521-0.105-1.297-0.278-2.298
				c-0.285-1.998-0.841-4.925-2.118-8.424c-1.266-3.489-3.248-7.571-6.369-11.564c-3.098-3.987-7.315-7.898-12.595-10.832
				c-2.638-1.459-5.523-2.672-8.587-3.548c-3.062-0.882-6.316-1.361-9.631-1.467c-0.56-0.019-1.123-0.023-1.687-0.015"/>
			<g>
				<polygon fill="#E15218" points="438.995,246.462 436.115,234.996 434.051,239.737 428.91,240.293 				"/>
			</g>
		</g>
	</g>
	
		<line fill="none" stroke="#000000" stroke-width="4" stroke-linecap="round" stroke-miterlimit="10" x1="383" y1="209" x2="383" y2="274"/>
	<g>
		<g enable-background="new    ">
			<path d="M386.66,184.075c0,1.852-0.292,3.233-0.875,4.146s-1.476,1.369-2.677,1.369c-1.152,0-2.029-0.468-2.629-1.402
				c-0.601-0.936-0.901-2.306-0.901-4.113c0-1.864,0.291-3.249,0.872-4.152s1.467-1.355,2.659-1.355
				c1.162,0,2.044,0.472,2.647,1.414S386.66,182.288,386.66,184.075z M380.808,184.075c0,1.559,0.183,2.692,0.549,3.402
				c0.366,0.711,0.95,1.066,1.75,1.066c0.811,0,1.397-0.36,1.762-1.081c0.363-0.72,0.545-1.849,0.545-3.388
				c0-1.537-0.182-2.664-0.545-3.38c-0.364-0.715-0.951-1.073-1.762-1.073c-0.801,0-1.384,0.354-1.75,1.059
				C380.991,181.387,380.808,182.519,380.808,184.075z"/>
		</g>
		<g enable-background="new    ">
			<path d="M416.322,194.944h-1.187v-7.632c0-0.635,0.02-1.235,0.059-1.802c-0.103,0.103-0.217,0.21-0.344,0.322
				s-0.708,0.589-1.743,1.428l-0.645-0.834l2.834-2.19h1.025V194.944z"/>
		</g>
		<g enable-background="new    ">
			<path d="M446.856,211.679h-7.039v-1.047l2.82-2.835c0.859-0.869,1.426-1.489,1.699-1.86s0.479-0.732,0.615-1.084
				s0.205-0.729,0.205-1.135c0-0.572-0.173-1.024-0.52-1.359c-0.347-0.334-0.828-0.502-1.443-0.502
				c-0.444,0-0.866,0.074-1.263,0.221c-0.398,0.146-0.841,0.412-1.33,0.798l-0.645-0.827c0.986-0.82,2.061-1.23,3.223-1.23
				c1.006,0,1.794,0.257,2.366,0.772c0.571,0.515,0.857,1.207,0.857,2.076c0,0.679-0.19,1.351-0.571,2.015s-1.094,1.504-2.139,2.52
				l-2.344,2.292v0.059h5.508V211.679z"/>
		</g>
		<g enable-background="new    ">
			<path d="M465.351,229.923c0,0.684-0.192,1.243-0.575,1.677c-0.383,0.436-0.926,0.726-1.629,0.872v0.059
				c0.859,0.107,1.497,0.381,1.912,0.82s0.623,1.016,0.623,1.729c0,1.021-0.354,1.806-1.062,2.354
				c-0.708,0.55-1.714,0.824-3.018,0.824c-0.566,0-1.085-0.043-1.557-0.128c-0.471-0.086-0.929-0.235-1.373-0.45v-1.158
				c0.464,0.23,0.958,0.404,1.483,0.524c0.524,0.119,1.021,0.179,1.49,0.179c1.851,0,2.776-0.725,2.776-2.175
				c0-1.299-1.021-1.948-3.062-1.948h-1.055v-1.047h1.069c0.835,0,1.497-0.185,1.985-0.554c0.488-0.368,0.732-0.88,0.732-1.534
				c0-0.522-0.18-0.933-0.538-1.23c-0.359-0.298-0.846-0.447-1.461-0.447c-0.469,0-0.911,0.064-1.326,0.191
				s-0.889,0.361-1.421,0.703l-0.615-0.82c0.439-0.347,0.946-0.619,1.52-0.817c0.574-0.197,1.178-0.296,1.813-0.296
				c1.04,0,1.848,0.237,2.424,0.714C465.062,228.439,465.351,229.093,465.351,229.923z"/>
		</g>
		<g enable-background="new    ">
			<path d="M474.984,268.249h-1.589v2.461h-1.165v-2.461h-5.208v-1.062l5.083-7.243h1.289v7.2h1.589V268.249z M472.23,267.144
				v-3.561c0-0.697,0.024-1.486,0.073-2.365h-0.059c-0.234,0.469-0.454,0.857-0.659,1.164l-3.347,4.762H472.23z"/>
		</g>
		<g enable-background="new    ">
			<path d="M468.358,295.96c1.128,0,2.015,0.28,2.663,0.839c0.646,0.56,0.97,1.325,0.97,2.296c0,1.109-0.353,1.979-1.058,2.607
				c-0.706,0.631-1.679,0.945-2.919,0.945c-1.206,0-2.126-0.192-2.761-0.578v-1.172c0.342,0.219,0.767,0.392,1.274,0.516
				c0.508,0.125,1.008,0.188,1.501,0.188c0.859,0,1.527-0.203,2.003-0.608c0.477-0.405,0.714-0.991,0.714-1.758
				c0-1.494-0.916-2.241-2.747-2.241c-0.464,0-1.084,0.071-1.86,0.213l-0.63-0.403l0.403-5.01h5.325v1.12h-4.285l-0.271,3.216
				C467.242,296.017,467.801,295.96,468.358,295.96z"/>
		</g>
		<g enable-background="new    ">
			<path d="M451.18,328.159c0-2.104,0.409-3.678,1.227-4.72c0.817-1.043,2.027-1.563,3.629-1.563c0.552,0,0.986,0.046,1.304,0.139
				v1.047c-0.376-0.121-0.806-0.183-1.289-0.183c-1.147,0-2.024,0.357-2.629,1.073c-0.605,0.715-0.938,1.84-0.996,3.373h0.088
				c0.537-0.84,1.387-1.26,2.549-1.26c0.962,0,1.72,0.29,2.274,0.871s0.832,1.369,0.832,2.365c0,1.113-0.304,1.989-0.912,2.626
				c-0.608,0.638-1.43,0.956-2.465,0.956c-1.108,0-1.987-0.416-2.637-1.249C451.505,330.803,451.18,329.645,451.18,328.159z
				 M454.776,331.851c0.693,0,1.231-0.218,1.615-0.655c0.383-0.437,0.575-1.067,0.575-1.894c0-0.707-0.178-1.264-0.535-1.67
				c-0.356-0.404-0.889-0.607-1.597-0.607c-0.439,0-0.842,0.091-1.208,0.271s-0.658,0.43-0.875,0.746
				c-0.217,0.318-0.326,0.647-0.326,0.989c0,0.503,0.098,0.972,0.293,1.406s0.472,0.779,0.832,1.032
				C453.908,331.725,454.317,331.851,454.776,331.851z"/>
		</g>
		<g enable-background="new    ">
			<path d="M430.411,353.776l4.438-9.588h-5.837v-1.12h7.126v0.974l-4.38,9.734H430.411z"/>
		</g>
		<g enable-background="new    ">
			<path d="M399.607,355.326c0.977,0,1.75,0.227,2.322,0.681s0.857,1.082,0.857,1.882c0,0.527-0.164,1.009-0.491,1.443
				s-0.85,0.83-1.567,1.187c0.869,0.415,1.487,0.851,1.853,1.308c0.366,0.456,0.549,0.984,0.549,1.586
				c0,0.889-0.31,1.598-0.93,2.127c-0.62,0.53-1.47,0.795-2.549,0.795c-1.143,0-2.021-0.25-2.637-0.751
				c-0.615-0.5-0.923-1.209-0.923-2.128c0-1.225,0.747-2.18,2.241-2.863c-0.674-0.381-1.157-0.792-1.45-1.234
				c-0.293-0.441-0.439-0.936-0.439-1.482c0-0.777,0.287-1.396,0.86-1.857C397.877,355.557,398.646,355.326,399.607,355.326z
				 M397.293,363.484c0,0.586,0.204,1.043,0.611,1.37s0.98,0.491,1.718,0.491c0.728,0,1.294-0.171,1.699-0.514
				c0.405-0.341,0.608-0.81,0.608-1.406c0-0.473-0.19-0.895-0.571-1.263c-0.381-0.369-1.045-0.727-1.992-1.073
				c-0.728,0.312-1.255,0.658-1.582,1.036C397.457,362.505,397.293,362.957,397.293,363.484z M399.593,356.314
				c-0.61,0-1.089,0.146-1.436,0.439s-0.52,0.684-0.52,1.172c0,0.449,0.144,0.835,0.432,1.157s0.82,0.645,1.597,0.967
				c0.698-0.293,1.192-0.608,1.483-0.944c0.29-0.338,0.436-0.73,0.436-1.18c0-0.493-0.177-0.885-0.531-1.176
				C400.7,356.46,400.213,356.314,399.593,356.314z"/>
		</g>
		<g enable-background="new    ">
			<path d="M370.525,361.05c0,4.189-1.621,6.284-4.863,6.284c-0.566,0-1.016-0.049-1.348-0.146v-1.047
				c0.391,0.127,0.835,0.189,1.333,0.189c1.172,0,2.057-0.362,2.655-1.087c0.598-0.726,0.924-1.837,0.978-3.337h-0.088
				c-0.269,0.406-0.625,0.715-1.069,0.927c-0.444,0.213-0.945,0.319-1.501,0.319c-0.947,0-1.699-0.283-2.256-0.85
				s-0.835-1.357-0.835-2.373c0-1.113,0.312-1.992,0.934-2.637c0.623-0.645,1.442-0.967,2.458-0.967c0.728,0,1.363,0.187,1.908,0.56
				c0.544,0.374,0.963,0.918,1.256,1.634C370.379,359.234,370.525,360.078,370.525,361.05z M366.922,357.365
				c-0.698,0-1.238,0.226-1.619,0.674c-0.381,0.45-0.571,1.075-0.571,1.875c0,0.703,0.176,1.257,0.527,1.659
				c0.352,0.403,0.886,0.604,1.604,0.604c0.444,0,0.853-0.09,1.227-0.271c0.373-0.18,0.667-0.427,0.882-0.739
				s0.322-0.64,0.322-0.981c0-0.513-0.1-0.986-0.3-1.421s-0.479-0.776-0.839-1.025C367.797,357.49,367.386,357.365,366.922,357.365z
				"/>
		</g>
		<g enable-background="new    ">
			<path d="M332.732,356.062h-1.187v-7.632c0-0.635,0.02-1.235,0.059-1.802c-0.103,0.103-0.217,0.21-0.344,0.322
				s-0.708,0.589-1.743,1.428l-0.645-0.834l2.834-2.19h1.025V356.062z"/>
			<path d="M343.901,350.692c0,1.852-0.292,3.233-0.875,4.146s-1.476,1.369-2.677,1.369c-1.152,0-2.029-0.468-2.629-1.402
				c-0.601-0.936-0.901-2.306-0.901-4.113c0-1.864,0.291-3.249,0.872-4.152s1.467-1.355,2.659-1.355
				c1.162,0,2.044,0.472,2.647,1.414S343.901,348.905,343.901,350.692z M338.049,350.692c0,1.559,0.183,2.692,0.549,3.402
				c0.366,0.711,0.95,1.066,1.75,1.066c0.811,0,1.397-0.36,1.762-1.081c0.363-0.72,0.545-1.849,0.545-3.388
				c0-1.537-0.182-2.664-0.545-3.38c-0.364-0.715-0.951-1.073-1.762-1.073c-0.801,0-1.384,0.354-1.75,1.059
				C338.232,348.004,338.049,349.136,338.049,350.692z"/>
		</g>
		<g enable-background="new    ">
			<path d="M309.194,335.489h-1.187v-7.632c0-0.635,0.02-1.235,0.059-1.802c-0.103,0.103-0.217,0.21-0.344,0.322
				s-0.708,0.589-1.743,1.428l-0.645-0.834l2.834-2.19h1.025V335.489z"/>
			<path d="M317.771,335.489h-1.187v-7.632c0-0.635,0.02-1.235,0.059-1.802c-0.103,0.103-0.217,0.21-0.344,0.322
				s-0.708,0.589-1.743,1.428l-0.645-0.834l2.834-2.19h1.025V335.489z"/>
		</g>
		<g enable-background="new    ">
			<path d="M292.897,303.375h-1.187v-7.632c0-0.635,0.02-1.235,0.059-1.802c-0.103,0.103-0.217,0.21-0.344,0.322
				s-0.708,0.589-1.743,1.428l-0.645-0.834l2.834-2.19h1.025V303.375z"/>
			<path d="M304.008,303.375h-7.039v-1.047l2.82-2.835c0.859-0.869,1.426-1.489,1.699-1.86s0.479-0.732,0.615-1.084
				s0.205-0.729,0.205-1.135c0-0.572-0.173-1.024-0.52-1.359c-0.347-0.334-0.828-0.502-1.443-0.502
				c-0.444,0-0.866,0.074-1.263,0.221c-0.398,0.146-0.841,0.412-1.33,0.798l-0.645-0.827c0.986-0.82,2.061-1.23,3.223-1.23
				c1.006,0,1.794,0.257,2.366,0.772c0.571,0.515,0.857,1.207,0.857,2.076c0,0.679-0.19,1.351-0.571,2.015s-1.094,1.504-2.139,2.52
				l-2.344,2.292v0.059h5.508V303.375z"/>
		</g>
		<g enable-background="new    ">
			<path d="M289.188,270.71h-1.187v-7.632c0-0.635,0.02-1.235,0.059-1.802c-0.103,0.103-0.217,0.21-0.344,0.322
				s-0.708,0.589-1.743,1.428l-0.645-0.834l2.834-2.19h1.025V270.71z"/>
			<path d="M299.896,262.521c0,0.684-0.192,1.243-0.575,1.677c-0.383,0.436-0.926,0.726-1.629,0.872v0.059
				c0.859,0.107,1.497,0.381,1.912,0.82s0.623,1.016,0.623,1.729c0,1.021-0.354,1.806-1.062,2.354
				c-0.708,0.55-1.714,0.824-3.018,0.824c-0.566,0-1.085-0.043-1.557-0.128c-0.471-0.086-0.929-0.235-1.373-0.45v-1.158
				c0.464,0.23,0.958,0.404,1.483,0.524c0.524,0.119,1.021,0.179,1.49,0.179c1.851,0,2.776-0.725,2.776-2.175
				c0-1.299-1.021-1.948-3.062-1.948h-1.055v-1.047h1.069c0.835,0,1.497-0.185,1.985-0.554c0.488-0.368,0.732-0.88,0.732-1.534
				c0-0.522-0.18-0.933-0.538-1.23c-0.359-0.298-0.846-0.447-1.461-0.447c-0.469,0-0.911,0.064-1.326,0.191
				s-0.889,0.361-1.421,0.703l-0.615-0.82c0.439-0.347,0.946-0.619,1.52-0.817c0.574-0.197,1.178-0.296,1.813-0.296
				c1.04,0,1.848,0.237,2.424,0.714C299.608,261.038,299.896,261.691,299.896,262.521z"/>
		</g>
		<g enable-background="new    ">
			<path d="M298.588,238.111h-1.187v-7.632c0-0.635,0.02-1.235,0.059-1.802c-0.103,0.103-0.217,0.21-0.344,0.322
				s-0.708,0.589-1.743,1.428l-0.645-0.834l2.834-2.19h1.025V238.111z"/>
			<path d="M310.204,235.65h-1.589v2.461h-1.165v-2.461h-5.208v-1.062l5.083-7.243h1.289v7.2h1.589V235.65z M307.45,234.545v-3.561
				c0-0.697,0.024-1.486,0.073-2.365h-0.059c-0.234,0.469-0.454,0.857-0.659,1.164l-3.347,4.762H307.45z"/>
		</g>
		<g enable-background="new    ">
			<path d="M318.69,211.236h-1.187v-7.632c0-0.635,0.02-1.235,0.059-1.802c-0.103,0.103-0.217,0.21-0.344,0.322
				s-0.708,0.589-1.743,1.428l-0.645-0.834l2.834-2.19h1.025V211.236z"/>
			<path d="M326.11,204.695c1.128,0,2.015,0.28,2.663,0.839c0.646,0.56,0.97,1.325,0.97,2.296c0,1.109-0.353,1.979-1.058,2.607
				c-0.706,0.631-1.679,0.945-2.919,0.945c-1.206,0-2.126-0.192-2.761-0.578v-1.172c0.342,0.219,0.767,0.392,1.274,0.516
				c0.508,0.125,1.008,0.188,1.501,0.188c0.859,0,1.527-0.203,2.003-0.608c0.477-0.405,0.714-0.991,0.714-1.758
				c0-1.494-0.916-2.241-2.747-2.241c-0.464,0-1.084,0.071-1.86,0.213l-0.63-0.403l0.403-5.01h5.325v1.12h-4.285l-0.271,3.216
				C324.994,204.752,325.553,204.695,326.11,204.695z"/>
		</g>
		<g enable-background="new    ">
			<path d="M344.831,195.944h-1.187v-7.632c0-0.635,0.02-1.235,0.059-1.802c-0.103,0.103-0.217,0.21-0.344,0.322
				s-0.708,0.589-1.743,1.428l-0.645-0.834l2.834-2.19h1.025V195.944z"/>
			<path d="M349.028,191.366c0-2.104,0.409-3.678,1.227-4.72c0.817-1.043,2.027-1.563,3.629-1.563c0.552,0,0.986,0.046,1.304,0.139
				v1.047c-0.376-0.121-0.806-0.183-1.289-0.183c-1.147,0-2.024,0.357-2.629,1.073c-0.605,0.715-0.938,1.84-0.996,3.373h0.088
				c0.537-0.84,1.387-1.26,2.549-1.26c0.962,0,1.72,0.29,2.274,0.871s0.832,1.369,0.832,2.365c0,1.113-0.304,1.989-0.912,2.626
				c-0.608,0.638-1.43,0.956-2.465,0.956c-1.108,0-1.987-0.416-2.637-1.249C349.353,194.01,349.028,192.852,349.028,191.366z
				 M352.624,195.058c0.693,0,1.231-0.218,1.615-0.655c0.383-0.437,0.575-1.067,0.575-1.894c0-0.707-0.178-1.264-0.535-1.67
				c-0.356-0.404-0.889-0.607-1.597-0.607c-0.439,0-0.842,0.091-1.208,0.271s-0.658,0.43-0.875,0.746
				c-0.217,0.318-0.326,0.647-0.326,0.989c0,0.503,0.098,0.972,0.293,1.406s0.472,0.779,0.832,1.032
				C351.756,194.932,352.165,195.058,352.624,195.058z"/>
		</g>
	</g>
</g>
<g>
	<g>
		<circle fill="#FFFFFF" stroke="#000000" stroke-width="3" stroke-miterlimit="10" cx="982.75" cy="272.547" r="131.244"/>
		<g>
			<rect x="980" y="142" width="5" height="28"/>
		</g>
		<g>
			<rect x="926.632" y="160.723" transform="matrix(0.3613 0.9324 -0.9324 0.3613 752.9704 -772.8391)" width="27.999" height="5"/>
		</g>
		<g>
			<rect x="890.051" y="183.327" transform="matrix(0.6737 0.739 -0.739 0.6737 432.3208 -607.4639)" width="28" height="5.001"/>
		</g>
		<g>
			
				<rect x="864.115" y="217.583" transform="matrix(0.8952 0.4458 -0.4458 0.8952 190.1744 -368.3558)" width="28.002" height="5.001"/>
		</g>
		<g>
			
				<rect x="864.115" y="217.583" transform="matrix(0.8952 0.4458 -0.4458 0.8952 190.1744 -368.3558)" width="28.002" height="5.001"/>
		</g>
		<g>
			
				<rect x="1011.158" y="160.671" transform="matrix(-0.3612 0.9325 -0.9325 -0.3612 1547.6184 -733.8287)" width="28" height="5.001"/>
		</g>
		<g>
			
				<rect x="852.405" y="259.008" transform="matrix(0.9957 0.0923 -0.0923 0.9957 27.8372 -78.8566)" width="27.999" height="5.001"/>
		</g>
		<g>
			<rect x="856.391" y="301.8" transform="matrix(0.9618 -0.2736 0.2736 0.9618 -50.0449 249.7382)" width="27.999" height="5"/>
		</g>
		<g>
			<rect x="875.557" y="340.303" transform="matrix(0.798 -0.6026 0.6026 0.798 -26.9097 605.3202)" width="28" height="5.001"/>
		</g>
		<g>
			
				<rect x="907.325" y="369.239" transform="matrix(0.5264 -0.8502 0.8502 0.5264 120.2542 959.3763)" width="28.001" height="5.002"/>
		</g>
		<g>
			
				<rect x="947.39" y="384.801" transform="matrix(0.1837 -0.983 0.983 0.1837 404.0786 1261.1881)" width="28.001" height="5.001"/>
		</g>
		<g>
			
				<rect x="990.449" y="384.74" transform="matrix(-0.1839 -0.9829 0.9829 -0.1839 808.5582 1445.7758)" width="27.997" height="5.001"/>
		</g>
		<g>
			
				<rect x="990.449" y="384.74" transform="matrix(-0.1839 -0.9829 0.9829 -0.1839 808.5582 1445.7758)" width="27.997" height="5.001"/>
		</g>
		<g>
			
				<rect x="1030.5" y="369.223" transform="matrix(-0.5266 -0.8501 0.8501 -0.5266 1278.532 1455.4161)" width="27.998" height="5.002"/>
		</g>
		<g>
			
				<rect x="1062.297" y="340.247" transform="matrix(-0.7982 -0.6024 0.6024 -0.7982 1728.928 1264.6804)" width="27.999" height="5.001"/>
		</g>
		<g>
			
				<rect x="1081.421" y="301.711" transform="matrix(-0.9619 -0.2733 0.2733 -0.9619 2065.9883 896.2289)" width="27.999" height="5"/>
		</g>
		<g>
			
				<rect x="1085.372" y="258.976" transform="matrix(-0.9957 0.0926 -0.0926 -0.9957 2218.2324 420.0169)" width="27.997" height="5"/>
		</g>
		<g>
			<rect x="1073.625" y="217.625" transform="matrix(-0.895 0.4461 -0.4461 -0.895 2159.228 -68.0521)" width="27.999" height="5"/>
		</g>
		<g>
			<rect x="1047.661" y="183.233" transform="matrix(-0.6733 0.7394 -0.7394 -0.6733 1913.7839 -474.197)" width="28" height="5"/>
		</g>
		<g>
			<rect x="875.557" y="340.303" transform="matrix(0.798 -0.6026 0.6026 0.798 -26.9097 605.3202)" width="28" height="5.001"/>
		</g>
	</g>
	<rect x="960" y="178.734" fill="none" width="44" height="15"/>
	<rect x="992.255" y="184.234" fill="none" width="44" height="15"/>
	<rect x="1020.255" y="200.969" fill="none" width="44" height="15"/>
	<rect x="1039.152" y="227.401" fill="none" width="44" height="15"/>
	<rect x="1045.448" y="291.791" fill="none" width="44" height="15"/>
	<rect x="1031.493" y="322.027" fill="none" width="44" height="15"/>
	<rect x="1009.493" y="343.066" fill="none" width="44" height="15"/>
	<rect x="976.5" y="355.478" fill="none" width="44" height="15"/>
	<rect x="943.924" y="356.478" fill="none" width="44" height="15"/>
	<rect x="912.835" y="345.352" fill="none" width="44" height="15"/>
	<rect x="889.297" y="324.779" fill="none" width="44" height="15"/>
	<rect x="873" y="292.665" fill="none" width="44" height="15"/>
	<rect x="869.291" y="260" fill="none" width="44" height="15"/>
	<rect x="878.691" y="227.401" fill="none" width="44" height="15"/>
	<rect x="898.793" y="200.526" fill="none" width="44" height="15"/>
	<rect x="924.934" y="185.234" fill="none" width="44" height="15"/>
	<circle cx="982.257" cy="272.901" r="5.5"/>
	<g enable-background="new    ">
		<g>
			<path fill="none" stroke="#E15218" stroke-width="2" stroke-miterlimit="10" d="M1031.23,237.433
				c-2.243-2.719-4.828-5.384-7.759-7.878c-2.586-2.201-5.438-4.269-8.561-6.119c-3.924-2.318-8.253-4.29-12.892-5.758
				c-4.637-1.474-9.598-2.374-14.675-2.677c-5.081-0.307-10.259,0.088-15.431,1.114c-2.577,0.55-5.154,1.216-7.672,2.123
				c-1.271,0.417-2.504,0.947-3.749,1.448c-1.222,0.561-2.462,1.087-3.649,1.731c-9.612,4.917-17.919,12.685-23.418,22.162
				c-2.754,4.732-4.817,9.869-6.084,15.176c-0.641,2.652-1.042,5.351-1.295,8.045c-0.231,2.699-0.238,5.398-0.101,8.068
				c0.19,2.671,0.525,5.323,1.075,7.926c0.57,2.598,1.278,5.153,2.207,7.618c1.836,4.932,4.383,9.516,7.466,13.573
				c6.167,8.132,14.489,14.065,23.286,17.273c1.087,0.432,2.214,0.745,3.312,1.1c1.12,0.293,2.22,0.617,3.341,0.835
				c2.224,0.507,4.461,0.792,6.662,0.986c4.416,0.316,8.717,0.107,12.789-0.654c4.07-0.76,7.91-1.962,11.393-3.57
				c3.483-1.603,6.625-3.542,9.392-5.679c5.533-4.297,9.501-9.355,12.185-14.167c2.704-4.823,4.11-9.424,4.866-13.214
				c0.762-3.803,0.865-6.831,0.847-8.874c0.021-1.021-0.056-1.804-0.072-2.329c-0.026-0.525-0.04-0.795-0.04-0.795v-0.057
				c0,0-0.026-0.27-0.08-0.794c-0.062-0.521-0.104-1.297-0.278-2.298c-0.285-1.998-0.841-4.925-2.117-8.424
				c-1.266-3.489-3.248-7.571-6.369-11.564c-3.098-3.987-7.315-7.898-12.596-10.832c-2.638-1.459-5.522-2.672-8.586-3.548
				c-3.062-0.882-6.315-1.361-9.631-1.467c-0.561-0.019-1.123-0.023-1.688-0.015"/>
			<g>
				<polygon fill="#E15218" points="1036.176,243.422 1032.657,232.135 1030.861,236.985 1025.761,237.828 				"/>
			</g>
			<g>
				<circle fill="#E15218" cx="983.309" cy="235.897" r="3.309"/>
			</g>
		</g>
	</g>
	
		<line fill="none" stroke="#000000" stroke-width="4" stroke-linecap="round" stroke-miterlimit="10" x1="1045.448" y1="240.5" x2="982.523" y2="273.223"/>
</g>
<g>
	<g enable-background="new    ">
		<path d="M986.088,184.075c0,1.852-0.293,3.233-0.876,4.146s-1.476,1.369-2.677,1.369c-1.152,0-2.029-0.468-2.629-1.402
			c-0.602-0.936-0.901-2.306-0.901-4.113c0-1.864,0.29-3.249,0.872-4.152c0.58-0.903,1.467-1.355,2.658-1.355
			c1.162,0,2.045,0.472,2.647,1.414S986.088,182.288,986.088,184.075z M980.235,184.075c0,1.559,0.183,2.692,0.55,3.402
			c0.365,0.711,0.949,1.066,1.75,1.066c0.811,0,1.397-0.36,1.762-1.081c0.363-0.72,0.545-1.849,0.545-3.388
			c0-1.537-0.182-2.664-0.545-3.38c-0.364-0.715-0.951-1.073-1.762-1.073c-0.801,0-1.385,0.354-1.75,1.059
			C980.418,181.387,980.235,182.519,980.235,184.075z"/>
	</g>
	<g enable-background="new    ">
		<path d="M1015.75,194.944h-1.188v-7.632c0-0.635,0.02-1.235,0.059-1.802c-0.102,0.103-0.217,0.21-0.344,0.322
			s-0.708,0.589-1.743,1.428l-0.645-0.834l2.835-2.19h1.025V194.944z"/>
	</g>
	<g enable-background="new    ">
		<path d="M1046.283,211.679h-7.038v-1.047l2.819-2.835c0.859-0.869,1.426-1.489,1.699-1.86s0.479-0.732,0.615-1.084
			s0.205-0.729,0.205-1.135c0-0.572-0.173-1.024-0.52-1.359c-0.347-0.334-0.828-0.502-1.443-0.502c-0.443,0-0.865,0.074-1.263,0.221
			c-0.398,0.146-0.841,0.412-1.329,0.798l-0.645-0.827c0.986-0.82,2.061-1.23,3.223-1.23c1.006,0,1.794,0.257,2.365,0.772
			c0.571,0.515,0.857,1.207,0.857,2.076c0,0.679-0.191,1.351-0.572,2.015s-1.094,1.504-2.139,2.52l-2.344,2.292v0.059h5.508V211.679
			z"/>
	</g>
	<g enable-background="new    ">
		<path d="M1064.778,229.923c0,0.684-0.192,1.243-0.575,1.677c-0.383,0.436-0.926,0.726-1.629,0.872v0.059
			c0.859,0.107,1.496,0.381,1.911,0.82s0.622,1.016,0.622,1.729c0,1.021-0.354,1.806-1.062,2.354
			c-0.708,0.55-1.714,0.824-3.018,0.824c-0.566,0-1.085-0.043-1.557-0.128c-0.472-0.086-0.929-0.235-1.373-0.45v-1.158
			c0.464,0.23,0.958,0.404,1.483,0.524c0.524,0.119,1.021,0.179,1.49,0.179c1.851,0,2.775-0.725,2.775-2.175
			c0-1.299-1.02-1.948-3.061-1.948h-1.055v-1.047h1.068c0.836,0,1.497-0.185,1.985-0.554c0.488-0.368,0.732-0.88,0.732-1.534
			c0-0.522-0.18-0.933-0.538-1.23c-0.359-0.298-0.846-0.447-1.461-0.447c-0.469,0-0.911,0.064-1.326,0.191s-0.889,0.361-1.421,0.703
			l-0.615-0.82c0.439-0.347,0.946-0.619,1.52-0.817c0.573-0.197,1.179-0.296,1.813-0.296c1.039,0,1.848,0.237,2.424,0.714
			C1064.49,228.439,1064.778,229.093,1064.778,229.923z"/>
	</g>
	<g enable-background="new    ">
		<path d="M1074.412,268.249h-1.59v2.461h-1.164v-2.461h-5.207v-1.062l5.082-7.243h1.289v7.2h1.59V268.249z M1071.658,267.144
			v-3.561c0-0.697,0.024-1.486,0.073-2.365h-0.059c-0.234,0.469-0.454,0.857-0.659,1.164l-3.348,4.762H1071.658z"/>
	</g>
	<g enable-background="new    ">
		<path d="M1067.785,295.96c1.129,0,2.016,0.28,2.663,0.839c0.646,0.56,0.97,1.325,0.97,2.296c0,1.109-0.353,1.979-1.058,2.607
			c-0.706,0.631-1.679,0.945-2.919,0.945c-1.206,0-2.127-0.192-2.762-0.578v-1.172c0.342,0.219,0.768,0.392,1.275,0.516
			c0.508,0.125,1.008,0.188,1.501,0.188c0.859,0,1.527-0.203,2.003-0.608c0.477-0.405,0.715-0.991,0.715-1.758
			c0-1.494-0.916-2.241-2.747-2.241c-0.464,0-1.084,0.071-1.86,0.213l-0.63-0.403l0.403-5.01h5.324v1.12h-4.285l-0.271,3.216
			C1066.67,296.017,1067.229,295.96,1067.785,295.96z"/>
	</g>
	<g enable-background="new    ">
		<path d="M1050.607,328.159c0-2.104,0.409-3.678,1.228-4.72c0.817-1.043,2.027-1.563,3.629-1.563c0.552,0,0.986,0.046,1.304,0.139
			v1.047c-0.376-0.121-0.806-0.183-1.289-0.183c-1.147,0-2.023,0.357-2.629,1.073c-0.605,0.715-0.938,1.84-0.996,3.373h0.088
			c0.537-0.84,1.387-1.26,2.549-1.26c0.961,0,1.719,0.29,2.273,0.871s0.832,1.369,0.832,2.365c0,1.113-0.305,1.989-0.912,2.626
			c-0.608,0.638-1.43,0.956-2.465,0.956c-1.108,0-1.987-0.416-2.637-1.249C1050.933,330.803,1050.607,329.645,1050.607,328.159z
			 M1054.204,331.851c0.693,0,1.231-0.218,1.615-0.655c0.383-0.437,0.575-1.067,0.575-1.894c0-0.707-0.179-1.264-0.535-1.67
			c-0.356-0.404-0.889-0.607-1.597-0.607c-0.439,0-0.843,0.091-1.208,0.271c-0.367,0.181-0.658,0.43-0.876,0.746
			c-0.218,0.318-0.325,0.647-0.325,0.989c0,0.503,0.098,0.972,0.293,1.406s0.472,0.779,0.831,1.032
			C1053.336,331.725,1053.745,331.851,1054.204,331.851z"/>
	</g>
	<g enable-background="new    ">
		<path d="M1029.838,353.776l4.439-9.588h-5.838v-1.12h7.127v0.974l-4.381,9.734H1029.838z"/>
	</g>
	<g enable-background="new    ">
		<path d="M999.035,355.326c0.977,0,1.75,0.227,2.322,0.681c0.57,0.454,0.856,1.082,0.856,1.882c0,0.527-0.163,1.009-0.491,1.443
			c-0.326,0.435-0.85,0.83-1.566,1.187c0.869,0.415,1.486,0.851,1.853,1.308c0.366,0.456,0.55,0.984,0.55,1.586
			c0,0.889-0.311,1.598-0.931,2.127c-0.62,0.53-1.47,0.795-2.549,0.795c-1.143,0-2.021-0.25-2.637-0.751
			c-0.615-0.5-0.923-1.209-0.923-2.128c0-1.225,0.747-2.18,2.241-2.863c-0.674-0.381-1.157-0.792-1.45-1.234
			c-0.293-0.441-0.439-0.936-0.439-1.482c0-0.777,0.287-1.396,0.86-1.857C997.305,355.557,998.073,355.326,999.035,355.326z
			 M996.721,363.484c0,0.586,0.203,1.043,0.611,1.37s0.98,0.491,1.718,0.491c0.728,0,1.294-0.171,1.699-0.514
			c0.405-0.341,0.608-0.81,0.608-1.406c0-0.473-0.191-0.895-0.572-1.263c-0.381-0.369-1.045-0.727-1.992-1.073
			c-0.727,0.312-1.254,0.658-1.582,1.036C996.885,362.505,996.721,362.957,996.721,363.484z M999.021,356.314
			c-0.61,0-1.089,0.146-1.436,0.439s-0.521,0.684-0.521,1.172c0,0.449,0.145,0.835,0.433,1.157s0.82,0.645,1.597,0.967
			c0.698-0.293,1.192-0.608,1.483-0.944c0.29-0.338,0.436-0.73,0.436-1.18c0-0.493-0.177-0.885-0.531-1.176
			C1000.127,356.46,999.641,356.314,999.021,356.314z"/>
	</g>
	<g enable-background="new    ">
		<path d="M969.953,361.05c0,4.189-1.621,6.284-4.863,6.284c-0.566,0-1.016-0.049-1.348-0.146v-1.047
			c0.391,0.127,0.835,0.189,1.333,0.189c1.172,0,2.057-0.362,2.655-1.087c0.598-0.726,0.924-1.837,0.978-3.337h-0.088
			c-0.269,0.406-0.625,0.715-1.069,0.927c-0.444,0.213-0.945,0.319-1.502,0.319c-0.947,0-1.699-0.283-2.256-0.85
			s-0.834-1.357-0.834-2.373c0-1.113,0.311-1.992,0.934-2.637s1.441-0.967,2.457-0.967c0.728,0,1.363,0.187,1.908,0.56
			c0.544,0.374,0.963,0.918,1.256,1.634C969.807,359.234,969.953,360.078,969.953,361.05z M966.35,357.365
			c-0.698,0-1.238,0.226-1.619,0.674c-0.381,0.45-0.57,1.075-0.57,1.875c0,0.703,0.176,1.257,0.527,1.659
			c0.352,0.403,0.886,0.604,1.604,0.604c0.444,0,0.854-0.09,1.227-0.271c0.373-0.18,0.668-0.427,0.883-0.739s0.322-0.64,0.322-0.981
			c0-0.513-0.1-0.986-0.301-1.421c-0.199-0.435-0.479-0.776-0.838-1.025S966.813,357.365,966.35,357.365z"/>
	</g>
	<g enable-background="new    ">
		<path d="M932.16,356.062h-1.188v-7.632c0-0.635,0.02-1.235,0.059-1.802c-0.102,0.103-0.217,0.21-0.344,0.322
			s-0.708,0.589-1.743,1.428l-0.645-0.834l2.835-2.19h1.025V356.062z"/>
		<path d="M943.329,350.692c0,1.852-0.292,3.233-0.876,4.146c-0.583,0.913-1.475,1.369-2.676,1.369c-1.152,0-2.029-0.468-2.63-1.402
			c-0.601-0.936-0.901-2.306-0.901-4.113c0-1.864,0.291-3.249,0.872-4.152s1.468-1.355,2.659-1.355c1.162,0,2.044,0.472,2.646,1.414
			C943.027,347.541,943.329,348.905,943.329,350.692z M937.477,350.692c0,1.559,0.184,2.692,0.55,3.402
			c0.366,0.711,0.95,1.066,1.751,1.066c0.811,0,1.396-0.36,1.762-1.081c0.363-0.72,0.545-1.849,0.545-3.388
			c0-1.537-0.182-2.664-0.545-3.38c-0.365-0.715-0.951-1.073-1.762-1.073c-0.801,0-1.385,0.354-1.751,1.059
			C937.66,348.004,937.477,349.136,937.477,350.692z"/>
	</g>
	<g enable-background="new    ">
		<path d="M908.622,335.489h-1.187v-7.632c0-0.635,0.02-1.235,0.059-1.802c-0.103,0.103-0.217,0.21-0.344,0.322
			s-0.709,0.589-1.744,1.428l-0.645-0.834l2.835-2.19h1.025V335.489z"/>
		<path d="M917.199,335.489h-1.188v-7.632c0-0.635,0.02-1.235,0.059-1.802c-0.102,0.103-0.217,0.21-0.344,0.322
			s-0.708,0.589-1.743,1.428l-0.645-0.834l2.835-2.19h1.025V335.489z"/>
	</g>
	<g enable-background="new    ">
		<path d="M892.324,303.375h-1.186v-7.632c0-0.635,0.02-1.235,0.059-1.802c-0.104,0.103-0.218,0.21-0.345,0.322
			s-0.708,0.589-1.743,1.428l-0.645-0.834l2.834-2.19h1.025V303.375z"/>
		<path d="M903.436,303.375h-7.039v-1.047l2.82-2.835c0.859-0.869,1.426-1.489,1.699-1.86s0.479-0.732,0.615-1.084
			s0.205-0.729,0.205-1.135c0-0.572-0.174-1.024-0.52-1.359c-0.348-0.334-0.828-0.502-1.443-0.502c-0.444,0-0.865,0.074-1.264,0.221
			s-0.841,0.412-1.329,0.798l-0.645-0.827c0.986-0.82,2.061-1.23,3.223-1.23c1.006,0,1.794,0.257,2.366,0.772
			c0.57,0.515,0.856,1.207,0.856,2.076c0,0.679-0.19,1.351-0.571,2.015s-1.094,1.504-2.139,2.52l-2.344,2.292v0.059h5.508V303.375z"
			/>
	</g>
	<g enable-background="new    ">
		<path d="M888.615,270.71h-1.186v-7.632c0-0.635,0.02-1.235,0.059-1.802c-0.104,0.103-0.218,0.21-0.345,0.322
			s-0.708,0.589-1.743,1.428l-0.645-0.834l2.834-2.19h1.025V270.71z"/>
		<path d="M899.324,262.521c0,0.684-0.192,1.243-0.576,1.677c-0.383,0.436-0.926,0.726-1.629,0.872v0.059
			c0.859,0.107,1.496,0.381,1.912,0.82c0.414,0.439,0.622,1.016,0.622,1.729c0,1.021-0.354,1.806-1.062,2.354
			c-0.709,0.55-1.715,0.824-3.018,0.824c-0.566,0-1.086-0.043-1.557-0.128c-0.472-0.086-0.93-0.235-1.373-0.45v-1.158
			c0.463,0.23,0.957,0.404,1.482,0.524c0.525,0.119,1.021,0.179,1.49,0.179c1.852,0,2.776-0.725,2.776-2.175
			c0-1.299-1.021-1.948-3.062-1.948h-1.055v-1.047h1.069c0.835,0,1.497-0.185,1.985-0.554c0.488-0.368,0.732-0.88,0.732-1.534
			c0-0.522-0.18-0.933-0.539-1.23s-0.846-0.447-1.461-0.447c-0.469,0-0.91,0.064-1.326,0.191c-0.414,0.127-0.889,0.361-1.42,0.703
			l-0.615-0.82c0.439-0.347,0.945-0.619,1.52-0.817c0.573-0.197,1.178-0.296,1.812-0.296c1.04,0,1.848,0.237,2.424,0.714
			C899.035,261.038,899.324,261.691,899.324,262.521z"/>
	</g>
	<g enable-background="new    ">
		<path d="M898.016,238.111h-1.187v-7.632c0-0.635,0.02-1.235,0.059-1.802c-0.103,0.103-0.218,0.21-0.345,0.322
			s-0.707,0.589-1.742,1.428l-0.645-0.834l2.834-2.19h1.025V238.111z"/>
		<path d="M909.632,235.65h-1.589v2.461h-1.165v-2.461h-5.208v-1.062l5.084-7.243h1.289v7.2h1.589V235.65z M906.878,234.545v-3.561
			c0-0.697,0.024-1.486,0.073-2.365h-0.059c-0.234,0.469-0.454,0.857-0.659,1.164l-3.347,4.762H906.878z"/>
	</g>
	<g enable-background="new    ">
		<path d="M918.118,211.236h-1.187v-7.632c0-0.635,0.02-1.235,0.059-1.802c-0.103,0.103-0.217,0.21-0.344,0.322
			s-0.709,0.589-1.744,1.428l-0.645-0.834l2.835-2.19h1.025V211.236z"/>
		<path d="M925.537,204.695c1.129,0,2.016,0.28,2.663,0.839c0.646,0.56,0.97,1.325,0.97,2.296c0,1.109-0.353,1.979-1.058,2.607
			c-0.706,0.631-1.679,0.945-2.919,0.945c-1.206,0-2.127-0.192-2.762-0.578v-1.172c0.342,0.219,0.768,0.392,1.275,0.516
			c0.508,0.125,1.008,0.188,1.501,0.188c0.859,0,1.527-0.203,2.003-0.608c0.477-0.405,0.715-0.991,0.715-1.758
			c0-1.494-0.916-2.241-2.747-2.241c-0.464,0-1.084,0.071-1.86,0.213l-0.63-0.403l0.403-5.01h5.324v1.12h-4.285l-0.271,3.216
			C924.422,204.752,924.98,204.695,925.537,204.695z"/>
	</g>
	<g enable-background="new    ">
		<path d="M944.259,195.944h-1.187v-7.632c0-0.635,0.02-1.235,0.059-1.802c-0.103,0.103-0.217,0.21-0.344,0.322
			s-0.709,0.589-1.744,1.428l-0.645-0.834l2.835-2.19h1.025V195.944z"/>
		<path d="M948.455,191.366c0-2.104,0.409-3.678,1.228-4.72c0.817-1.043,2.027-1.563,3.629-1.563c0.552,0,0.986,0.046,1.304,0.139
			v1.047c-0.376-0.121-0.806-0.183-1.289-0.183c-1.147,0-2.023,0.357-2.629,1.073c-0.605,0.715-0.938,1.84-0.996,3.373h0.088
			c0.537-0.84,1.387-1.26,2.549-1.26c0.961,0,1.719,0.29,2.273,0.871s0.832,1.369,0.832,2.365c0,1.113-0.305,1.989-0.912,2.626
			c-0.608,0.638-1.43,0.956-2.465,0.956c-1.108,0-1.987-0.416-2.637-1.249C948.78,194.01,948.455,192.852,948.455,191.366z
			 M952.052,195.058c0.693,0,1.231-0.218,1.615-0.655c0.383-0.437,0.575-1.067,0.575-1.894c0-0.707-0.179-1.264-0.535-1.67
			c-0.356-0.404-0.889-0.607-1.597-0.607c-0.439,0-0.843,0.091-1.208,0.271c-0.367,0.181-0.658,0.43-0.876,0.746
			c-0.218,0.318-0.325,0.647-0.325,0.989c0,0.503,0.098,0.972,0.293,1.406s0.472,0.779,0.831,1.032
			C951.184,194.932,951.593,195.058,952.052,195.058z"/>
	</g>
</g>
</svg>
