<?xml version="1.0" encoding="utf-8"?>
<!-- Generator: Adobe Illustrator 16.0.4, SVG Export Plug-In . SVG Version: 6.00 Build 0)  -->
<!DOCTYPE svg PUBLIC "-//W3C//DTD SVG 1.1//EN" "http://www.w3.org/Graphics/SVG/1.1/DTD/svg11.dtd">
<svg version="1.1" id="Layer_1" xmlns="http://www.w3.org/2000/svg" xmlns:xlink="http://www.w3.org/1999/xlink" x="0px" y="0px"
	 width="1366px" height="768px" viewBox="0 0 1366 768" enable-background="new 0 0 1366 768" xml:space="preserve">
<g>
	<g>
		<circle fill="#FFFFFF" stroke="#000000" stroke-width="3" stroke-miterlimit="10" cx="383.75" cy="272.547" r="131.244"/>
		<g>
			<rect x="381" y="142" width="5" height="28"/>
		</g>
		<g>
			<rect x="327.619" y="160.664" transform="matrix(0.3613 0.9325 -0.9325 0.3613 370.3374 -214.3299)" width="28.001" height="5"/>
		</g>
		<g>
			<rect x="291.056" y="183.317" transform="matrix(0.6737 0.739 -0.739 0.6737 236.8607 -164.8058)" width="28" height="5.001"/>
		</g>
		<g>
			
				<rect x="265.171" y="217.629" transform="matrix(0.8951 0.4458 -0.4458 0.8951 127.4162 -101.3727)" width="27.999" height="5.001"/>
		</g>
		<g>
			
				<rect x="265.171" y="217.629" transform="matrix(0.8951 0.4458 -0.4458 0.8951 127.4162 -101.3727)" width="27.999" height="5.001"/>
		</g>
		<g>
			
				<rect x="412.154" y="160.677" transform="matrix(-0.3612 0.9325 -0.9325 -0.3612 732.236 -175.2723)" width="28.001" height="5.002"/>
		</g>
		<g>
			
				<rect x="253.387" y="258.997" transform="matrix(0.9957 0.0923 -0.0923 0.9957 25.2799 -23.5654)" width="27.998" height="5.001"/>
		</g>
		<g>
			
				<rect x="257.367" y="301.806" transform="matrix(0.9618 -0.2736 0.2736 0.9618 -72.9058 85.8602)" width="27.999" height="5.001"/>
		</g>
		<g>
			
				<rect x="276.531" y="340.297" transform="matrix(0.798 -0.6026 0.6026 0.798 -147.8978 244.3163)" width="27.999" height="5.001"/>
		</g>
		<g>
			<rect x="308.315" y="369.255" transform="matrix(0.5264 -0.8502 0.8502 0.5264 -163.433 450.0996)" width="28" height="5.001"/>
		</g>
		<g>
			<rect x="348.388" y="384.784" transform="matrix(0.1837 -0.983 0.983 0.1837 -84.8757 672.3618)" width="28" height="5.001"/>
		</g>
		<g>
			<rect x="391.435" y="384.769" transform="matrix(-0.1839 -0.9829 0.9829 -0.1839 99.3222 857.0035)" width="27.998" height="5"/>
		</g>
		<g>
			<rect x="391.435" y="384.769" transform="matrix(-0.1839 -0.9829 0.9829 -0.1839 99.3222 857.0035)" width="27.998" height="5"/>
		</g>
		<g>
			
				<rect x="431.504" y="369.229" transform="matrix(-0.5266 -0.8501 0.8501 -0.5266 364.0887 946.2101)" width="27.997" height="5.002"/>
		</g>
		<g>
			
				<rect x="463.292" y="340.253" transform="matrix(-0.7982 -0.6024 0.6024 -0.7982 651.7796 903.861)" width="27.999" height="5.001"/>
		</g>
		<g>
			
				<rect x="482.435" y="301.727" transform="matrix(-0.9619 -0.2733 0.2733 -0.9619 890.8262 732.5458)" width="27.999" height="5"/>
		</g>
		<g>
			
				<rect x="486.371" y="258.951" transform="matrix(-0.9957 0.0926 -0.0926 -0.9957 1022.8027 475.4421)" width="27.998" height="5"/>
		</g>
		<g>
			<rect x="474.602" y="217.598" transform="matrix(-0.895 0.4461 -0.4461 -0.895 1024.0774 199.1183)" width="27.999" height="5"/>
		</g>
		<g>
			
				<rect x="448.641" y="183.289" transform="matrix(-0.6733 0.7393 -0.7393 -0.6733 911.512 -31.1574)" width="27.997" height="4.999"/>
		</g>
		<g>
			
				<rect x="276.531" y="340.297" transform="matrix(0.798 -0.6026 0.6026 0.798 -147.8978 244.3163)" width="27.999" height="5.001"/>
		</g>
	</g>
	<g opacity="0.55" enable-background="new    ">
		<g>
			<path fill="none" stroke="#E15218" stroke-width="2" stroke-miterlimit="10" stroke-dasharray="4.2903,7.508" d="
				M429.793,230.258c1.848,2.167,3.555,4.468,5.096,6.89c1.631,2.532,3.043,5.211,4.306,7.96c1.255,2.756,2.26,5.625,3.107,8.537
				c0.838,2.918,1.408,5.908,1.822,8.911c0.387,3.01,0.521,6.041,0.499,9.061c-0.09,3.02-0.335,6.034-0.831,9.011
				c-0.521,2.97-1.197,5.911-2.131,8.766c-0.945,2.847-2.04,5.639-3.374,8.302c-1.341,2.658-2.822,5.232-4.509,7.65
				c-6.701,9.713-16.104,17.144-26.353,21.434l-0.957,0.409l-0.973,0.365c-0.648,0.24-1.292,0.488-1.941,0.714
				c-1.313,0.411-2.606,0.862-3.931,1.184c-2.625,0.73-5.285,1.2-7.917,1.561c-5.282,0.632-10.498,0.642-15.495-0.046
				c-4.992-0.68-9.768-1.915-14.15-3.68c-4.386-1.756-8.4-3.959-11.98-6.445c-7.162-4.997-12.507-11.098-16.241-17.035
				c-3.763-5.95-5.899-11.76-7.142-16.609c-1.253-4.865-1.609-8.806-1.732-11.473c-0.099-1.334-0.058-2.361-0.074-3.05
				c-0.003-0.69-0.005-1.046-0.005-1.046v-0.023c0,0,0.016-0.355,0.046-1.044c0.043-0.689,0.042-1.713,0.193-3.041
				c0.227-2.652,0.736-6.559,2.165-11.32c1.417-4.747,3.748-10.381,7.653-16.049c3.876-5.656,9.306-11.367,16.382-15.9
				c3.537-2.255,7.464-4.211,11.707-5.721c4.24-1.518,8.816-2.505,13.552-2.964c4.739-0.464,9.649-0.258,14.558,0.526
				c2.447,0.436,4.906,0.966,7.317,1.743c1.218,0.344,2.402,0.815,3.604,1.239c0.593,0.233,1.18,0.489,1.771,0.733l0.886,0.372
				l0.869,0.414c9.315,4.335,17.632,11.498,23.343,20.521c1.44,2.245,2.681,4.62,3.792,7.053c1.106,2.438,1.984,4.979,2.73,7.553
				c0.735,2.58,1.229,5.225,1.591,7.88c0.104,0.816,0.186,1.634,0.249,2.454"/>
			<g>
				<polygon fill="#E15218" points="424.396,224.672 428.684,235.69 430.142,230.729 435.173,229.536 				"/>
			</g>
		</g>
	</g>
	<rect x="362" y="179.234" fill="none" width="44" height="15"/>
	<g enable-background="new    ">
		<path d="M387.66,184.575c0,1.852-0.292,3.233-0.875,4.146s-1.476,1.369-2.677,1.369c-1.152,0-2.029-0.468-2.629-1.402
			c-0.601-0.936-0.901-2.306-0.901-4.113c0-1.864,0.291-3.249,0.872-4.152s1.467-1.355,2.659-1.355c1.162,0,2.044,0.472,2.647,1.414
			S387.66,182.788,387.66,184.575z M381.808,184.575c0,1.559,0.183,2.692,0.549,3.402c0.366,0.711,0.95,1.066,1.75,1.066
			c0.811,0,1.397-0.36,1.762-1.081c0.363-0.72,0.545-1.849,0.545-3.388c0-1.537-0.182-2.664-0.545-3.38
			c-0.364-0.715-0.951-1.073-1.762-1.073c-0.801,0-1.384,0.354-1.75,1.059C381.991,181.887,381.808,183.019,381.808,184.575z"/>
	</g>
	<rect x="393.255" y="184.734" fill="none" width="44" height="15"/>
	<g enable-background="new    ">
		<path d="M416.322,195.444h-1.187v-7.632c0-0.635,0.02-1.235,0.059-1.802c-0.103,0.103-0.217,0.21-0.344,0.322
			s-0.708,0.589-1.743,1.428l-0.645-0.834l2.834-2.19h1.025V195.444z"/>
	</g>
	<rect x="421.255" y="201.469" fill="none" width="44" height="15"/>
	<g enable-background="new    ">
		<path d="M446.856,212.179h-7.039v-1.047l2.82-2.835c0.859-0.869,1.426-1.489,1.699-1.86s0.479-0.732,0.615-1.084
			s0.205-0.729,0.205-1.135c0-0.572-0.173-1.024-0.52-1.359c-0.347-0.334-0.828-0.502-1.443-0.502c-0.444,0-0.866,0.074-1.263,0.221
			c-0.398,0.146-0.841,0.412-1.33,0.798l-0.645-0.827c0.986-0.82,2.061-1.23,3.223-1.23c1.006,0,1.794,0.257,2.366,0.772
			c0.571,0.515,0.857,1.207,0.857,2.076c0,0.679-0.19,1.351-0.571,2.015s-1.094,1.504-2.139,2.52l-2.344,2.292v0.059h5.508V212.179z
			"/>
	</g>
	<rect x="440.152" y="227.901" fill="none" width="44" height="15"/>
	<g enable-background="new    ">
		<path d="M465.351,230.423c0,0.684-0.192,1.243-0.575,1.677c-0.383,0.436-0.926,0.726-1.629,0.872v0.059
			c0.859,0.107,1.497,0.381,1.912,0.82s0.623,1.016,0.623,1.729c0,1.021-0.354,1.806-1.062,2.354
			c-0.708,0.55-1.714,0.824-3.018,0.824c-0.566,0-1.085-0.043-1.557-0.128c-0.471-0.086-0.929-0.235-1.373-0.45v-1.158
			c0.464,0.23,0.958,0.404,1.483,0.524c0.524,0.119,1.021,0.179,1.49,0.179c1.851,0,2.776-0.725,2.776-2.175
			c0-1.299-1.021-1.948-3.062-1.948h-1.055v-1.047h1.069c0.835,0,1.497-0.185,1.985-0.554c0.488-0.368,0.732-0.88,0.732-1.534
			c0-0.522-0.18-0.933-0.538-1.23c-0.359-0.298-0.846-0.447-1.461-0.447c-0.469,0-0.911,0.064-1.326,0.191s-0.889,0.361-1.421,0.703
			l-0.615-0.82c0.439-0.347,0.946-0.619,1.52-0.817c0.574-0.197,1.178-0.296,1.813-0.296c1.04,0,1.848,0.237,2.424,0.714
			C465.062,228.939,465.351,229.593,465.351,230.423z"/>
	</g>
	<rect x="448.878" y="260.5" fill="none" width="44" height="15"/>
	<g enable-background="new    ">
		<path d="M474.984,268.749h-1.589v2.461h-1.165v-2.461h-5.208v-1.062l5.083-7.243h1.289v7.2h1.589V268.749z M472.23,267.644v-3.561
			c0-0.697,0.024-1.486,0.073-2.365h-0.059c-0.234,0.469-0.454,0.857-0.659,1.164l-3.347,4.762H472.23z"/>
	</g>
	<rect x="446.448" y="292.291" fill="none" width="44" height="15"/>
	<g enable-background="new    ">
		<path d="M468.358,296.46c1.128,0,2.015,0.28,2.663,0.839c0.646,0.56,0.97,1.325,0.97,2.296c0,1.109-0.353,1.979-1.058,2.607
			c-0.706,0.631-1.679,0.945-2.919,0.945c-1.206,0-2.126-0.192-2.761-0.578v-1.172c0.342,0.219,0.767,0.392,1.274,0.516
			c0.508,0.125,1.008,0.188,1.501,0.188c0.859,0,1.527-0.203,2.003-0.608c0.477-0.405,0.714-0.991,0.714-1.758
			c0-1.494-0.916-2.241-2.747-2.241c-0.464,0-1.084,0.071-1.86,0.213l-0.63-0.403l0.403-5.01h5.325v1.12h-4.285l-0.271,3.216
			C467.242,296.517,467.801,296.46,468.358,296.46z"/>
	</g>
	<rect x="432.493" y="322.527" fill="none" width="44" height="15"/>
	<g enable-background="new    ">
		<path d="M451.18,328.659c0-2.104,0.409-3.678,1.227-4.72c0.817-1.043,2.027-1.563,3.629-1.563c0.552,0,0.986,0.046,1.304,0.139
			v1.047c-0.376-0.121-0.806-0.183-1.289-0.183c-1.147,0-2.024,0.357-2.629,1.073c-0.605,0.715-0.938,1.84-0.996,3.373h0.088
			c0.537-0.84,1.387-1.26,2.549-1.26c0.962,0,1.72,0.29,2.274,0.871s0.832,1.369,0.832,2.365c0,1.113-0.304,1.989-0.912,2.626
			c-0.608,0.638-1.43,0.956-2.465,0.956c-1.108,0-1.987-0.416-2.637-1.249C451.505,331.303,451.18,330.145,451.18,328.659z
			 M454.776,332.351c0.693,0,1.231-0.218,1.615-0.655c0.383-0.437,0.575-1.067,0.575-1.894c0-0.707-0.178-1.264-0.535-1.67
			c-0.356-0.404-0.889-0.607-1.597-0.607c-0.439,0-0.842,0.091-1.208,0.271s-0.658,0.43-0.875,0.746
			c-0.217,0.318-0.326,0.647-0.326,0.989c0,0.503,0.098,0.972,0.293,1.406s0.472,0.779,0.832,1.032
			C453.908,332.225,454.317,332.351,454.776,332.351z"/>
	</g>
	<rect x="410.493" y="343.566" fill="none" width="44" height="15"/>
	<g enable-background="new    ">
		<path d="M430.411,354.276l4.438-9.588h-5.837v-1.12h7.126v0.974l-4.38,9.734H430.411z"/>
	</g>
	<rect x="377.5" y="355.978" fill="none" width="44" height="15"/>
	<g enable-background="new    ">
		<path d="M399.607,355.826c0.977,0,1.75,0.227,2.322,0.681s0.857,1.082,0.857,1.882c0,0.527-0.164,1.009-0.491,1.443
			s-0.85,0.83-1.567,1.187c0.869,0.415,1.487,0.851,1.853,1.308c0.366,0.456,0.549,0.984,0.549,1.586c0,0.889-0.31,1.598-0.93,2.127
			c-0.62,0.53-1.47,0.795-2.549,0.795c-1.143,0-2.021-0.25-2.637-0.751c-0.615-0.5-0.923-1.209-0.923-2.128
			c0-1.225,0.747-2.18,2.241-2.863c-0.674-0.381-1.157-0.792-1.45-1.234c-0.293-0.441-0.439-0.936-0.439-1.482
			c0-0.777,0.287-1.396,0.86-1.857C397.877,356.057,398.646,355.826,399.607,355.826z M397.293,363.984
			c0,0.586,0.204,1.043,0.611,1.37s0.98,0.491,1.718,0.491c0.728,0,1.294-0.171,1.699-0.514c0.405-0.341,0.608-0.81,0.608-1.406
			c0-0.473-0.19-0.895-0.571-1.263c-0.381-0.369-1.045-0.727-1.992-1.073c-0.728,0.312-1.255,0.658-1.582,1.036
			C397.457,363.005,397.293,363.457,397.293,363.984z M399.593,356.814c-0.61,0-1.089,0.146-1.436,0.439s-0.52,0.684-0.52,1.172
			c0,0.449,0.144,0.835,0.432,1.157s0.82,0.645,1.597,0.967c0.698-0.293,1.192-0.608,1.483-0.944c0.29-0.338,0.436-0.73,0.436-1.18
			c0-0.493-0.177-0.885-0.531-1.176C400.7,356.96,400.213,356.814,399.593,356.814z"/>
	</g>
	<rect x="344.924" y="356.978" fill="none" width="44" height="15"/>
	<g enable-background="new    ">
		<path d="M370.525,361.55c0,4.189-1.621,6.284-4.863,6.284c-0.566,0-1.016-0.049-1.348-0.146v-1.047
			c0.391,0.127,0.835,0.189,1.333,0.189c1.172,0,2.057-0.362,2.655-1.087c0.598-0.726,0.924-1.837,0.978-3.337h-0.088
			c-0.269,0.406-0.625,0.715-1.069,0.927c-0.444,0.213-0.945,0.319-1.501,0.319c-0.947,0-1.699-0.283-2.256-0.85
			s-0.835-1.357-0.835-2.373c0-1.113,0.312-1.992,0.934-2.637c0.623-0.645,1.442-0.967,2.458-0.967c0.728,0,1.363,0.187,1.908,0.56
			c0.544,0.374,0.963,0.918,1.256,1.634C370.379,359.734,370.525,360.578,370.525,361.55z M366.922,357.865
			c-0.698,0-1.238,0.226-1.619,0.674c-0.381,0.45-0.571,1.075-0.571,1.875c0,0.703,0.176,1.257,0.527,1.659
			c0.352,0.403,0.886,0.604,1.604,0.604c0.444,0,0.853-0.09,1.227-0.271c0.373-0.18,0.667-0.427,0.882-0.739s0.322-0.64,0.322-0.981
			c0-0.513-0.1-0.986-0.3-1.421s-0.479-0.776-0.839-1.025C367.797,357.99,367.386,357.865,366.922,357.865z"/>
	</g>
	<rect x="313.835" y="345.852" fill="none" width="44" height="15"/>
	<g enable-background="new    ">
		<path d="M332.732,356.562h-1.187v-7.632c0-0.635,0.02-1.235,0.059-1.802c-0.103,0.103-0.217,0.21-0.344,0.322
			s-0.708,0.589-1.743,1.428l-0.645-0.834l2.834-2.19h1.025V356.562z"/>
		<path d="M343.901,351.192c0,1.852-0.292,3.233-0.875,4.146s-1.476,1.369-2.677,1.369c-1.152,0-2.029-0.468-2.629-1.402
			c-0.601-0.936-0.901-2.306-0.901-4.113c0-1.864,0.291-3.249,0.872-4.152s1.467-1.355,2.659-1.355c1.162,0,2.044,0.472,2.647,1.414
			S343.901,349.405,343.901,351.192z M338.049,351.192c0,1.559,0.183,2.692,0.549,3.402c0.366,0.711,0.95,1.066,1.75,1.066
			c0.811,0,1.397-0.36,1.762-1.081c0.363-0.72,0.545-1.849,0.545-3.388c0-1.537-0.182-2.664-0.545-3.38
			c-0.364-0.715-0.951-1.073-1.762-1.073c-0.801,0-1.384,0.354-1.75,1.059C338.232,348.504,338.049,349.636,338.049,351.192z"/>
	</g>
	<rect x="290.297" y="325.279" fill="none" width="44" height="15"/>
	<g enable-background="new    ">
		<path d="M309.194,335.989h-1.187v-7.632c0-0.635,0.02-1.235,0.059-1.802c-0.103,0.103-0.217,0.21-0.344,0.322
			s-0.708,0.589-1.743,1.428l-0.645-0.834l2.834-2.19h1.025V335.989z"/>
		<path d="M317.771,335.989h-1.187v-7.632c0-0.635,0.02-1.235,0.059-1.802c-0.103,0.103-0.217,0.21-0.344,0.322
			s-0.708,0.589-1.743,1.428l-0.645-0.834l2.834-2.19h1.025V335.989z"/>
	</g>
	<rect x="274" y="293.165" fill="none" width="44" height="15"/>
	<g enable-background="new    ">
		<path d="M292.897,303.875h-1.187v-7.632c0-0.635,0.02-1.235,0.059-1.802c-0.103,0.103-0.217,0.21-0.344,0.322
			s-0.708,0.589-1.743,1.428l-0.645-0.834l2.834-2.19h1.025V303.875z"/>
		<path d="M304.008,303.875h-7.039v-1.047l2.82-2.835c0.859-0.869,1.426-1.489,1.699-1.86s0.479-0.732,0.615-1.084
			s0.205-0.729,0.205-1.135c0-0.572-0.173-1.024-0.52-1.359c-0.347-0.334-0.828-0.502-1.443-0.502c-0.444,0-0.866,0.074-1.263,0.221
			c-0.398,0.146-0.841,0.412-1.33,0.798l-0.645-0.827c0.986-0.82,2.061-1.23,3.223-1.23c1.006,0,1.794,0.257,2.366,0.772
			c0.571,0.515,0.857,1.207,0.857,2.076c0,0.679-0.19,1.351-0.571,2.015s-1.094,1.504-2.139,2.52l-2.344,2.292v0.059h5.508V303.875z
			"/>
	</g>
	<rect x="270.291" y="260.5" fill="none" width="44" height="15"/>
	<g enable-background="new    ">
		<path d="M289.188,271.21h-1.187v-7.632c0-0.635,0.02-1.235,0.059-1.802c-0.103,0.103-0.217,0.21-0.344,0.322
			s-0.708,0.589-1.743,1.428l-0.645-0.834l2.834-2.19h1.025V271.21z"/>
		<path d="M299.896,263.021c0,0.684-0.192,1.243-0.575,1.677c-0.383,0.436-0.926,0.726-1.629,0.872v0.059
			c0.859,0.107,1.497,0.381,1.912,0.82s0.623,1.016,0.623,1.729c0,1.021-0.354,1.806-1.062,2.354
			c-0.708,0.55-1.714,0.824-3.018,0.824c-0.566,0-1.085-0.043-1.557-0.128c-0.471-0.086-0.929-0.235-1.373-0.45v-1.158
			c0.464,0.23,0.958,0.404,1.483,0.524c0.524,0.119,1.021,0.179,1.49,0.179c1.851,0,2.776-0.725,2.776-2.175
			c0-1.299-1.021-1.948-3.062-1.948h-1.055v-1.047h1.069c0.835,0,1.497-0.185,1.985-0.554c0.488-0.368,0.732-0.88,0.732-1.534
			c0-0.522-0.18-0.933-0.538-1.23c-0.359-0.298-0.846-0.447-1.461-0.447c-0.469,0-0.911,0.064-1.326,0.191s-0.889,0.361-1.421,0.703
			l-0.615-0.82c0.439-0.347,0.946-0.619,1.52-0.817c0.574-0.197,1.178-0.296,1.813-0.296c1.04,0,1.848,0.237,2.424,0.714
			C299.608,261.538,299.896,262.191,299.896,263.021z"/>
	</g>
	<rect x="279.691" y="227.901" fill="none" width="44" height="15"/>
	<g enable-background="new    ">
		<path d="M298.588,238.611h-1.187v-7.632c0-0.635,0.02-1.235,0.059-1.802c-0.103,0.103-0.217,0.21-0.344,0.322
			s-0.708,0.589-1.743,1.428l-0.645-0.834l2.834-2.19h1.025V238.611z"/>
		<path d="M310.204,236.15h-1.589v2.461h-1.165v-2.461h-5.208v-1.062l5.083-7.243h1.289v7.2h1.589V236.15z M307.45,235.045v-3.561
			c0-0.697,0.024-1.486,0.073-2.365h-0.059c-0.234,0.469-0.454,0.857-0.659,1.164l-3.347,4.762H307.45z"/>
	</g>
	<rect x="299.793" y="201.026" fill="none" width="44" height="15"/>
	<g enable-background="new    ">
		<path d="M318.69,211.736h-1.187v-7.632c0-0.635,0.02-1.235,0.059-1.802c-0.103,0.103-0.217,0.21-0.344,0.322
			s-0.708,0.589-1.743,1.428l-0.645-0.834l2.834-2.19h1.025V211.736z"/>
		<path d="M326.11,205.195c1.128,0,2.015,0.28,2.663,0.839c0.646,0.56,0.97,1.325,0.97,2.296c0,1.109-0.353,1.979-1.058,2.607
			c-0.706,0.631-1.679,0.945-2.919,0.945c-1.206,0-2.126-0.192-2.761-0.578v-1.172c0.342,0.219,0.767,0.392,1.274,0.516
			c0.508,0.125,1.008,0.188,1.501,0.188c0.859,0,1.527-0.203,2.003-0.608c0.477-0.405,0.714-0.991,0.714-1.758
			c0-1.494-0.916-2.241-2.747-2.241c-0.464,0-1.084,0.071-1.86,0.213l-0.63-0.403l0.403-5.01h5.325v1.12h-4.285l-0.271,3.216
			C324.994,205.252,325.553,205.195,326.11,205.195z"/>
	</g>
	<rect x="325.934" y="185.734" fill="none" width="44" height="15"/>
	<g enable-background="new    ">
		<path d="M344.831,196.444h-1.187v-7.632c0-0.635,0.02-1.235,0.059-1.802c-0.103,0.103-0.217,0.21-0.344,0.322
			s-0.708,0.589-1.743,1.428l-0.645-0.834l2.834-2.19h1.025V196.444z"/>
		<path d="M349.028,191.866c0-2.104,0.409-3.678,1.227-4.72c0.817-1.043,2.027-1.563,3.629-1.563c0.552,0,0.986,0.046,1.304,0.139
			v1.047c-0.376-0.121-0.806-0.183-1.289-0.183c-1.147,0-2.024,0.357-2.629,1.073c-0.605,0.715-0.938,1.84-0.996,3.373h0.088
			c0.537-0.84,1.387-1.26,2.549-1.26c0.962,0,1.72,0.29,2.274,0.871s0.832,1.369,0.832,2.365c0,1.113-0.304,1.989-0.912,2.626
			c-0.608,0.638-1.43,0.956-2.465,0.956c-1.108,0-1.987-0.416-2.637-1.249C349.353,194.51,349.028,193.352,349.028,191.866z
			 M352.624,195.558c0.693,0,1.231-0.218,1.615-0.655c0.383-0.437,0.575-1.067,0.575-1.894c0-0.707-0.178-1.264-0.535-1.67
			c-0.356-0.404-0.889-0.607-1.597-0.607c-0.439,0-0.842,0.091-1.208,0.271s-0.658,0.43-0.875,0.746
			c-0.217,0.318-0.326,0.647-0.326,0.989c0,0.503,0.098,0.972,0.293,1.406s0.472,0.779,0.832,1.032
			C351.756,195.432,352.165,195.558,352.624,195.558z"/>
	</g>
	<circle cx="383.257" cy="272.901" r="5.5"/>
	
		<line fill="none" stroke="#000000" stroke-width="4" stroke-linecap="round" stroke-miterlimit="10" x1="451.25" y1="267.901" x2="383.524" y2="273.223"/>
	<rect x="369.934" y="246.662" fill="none" width="49.009" height="22.969"/>
	<g enable-background="new    ">
		<path fill="#E15218" d="M388.209,254.134h-3.401v-1.925h3.401v-3.428h1.925v3.428h3.401v1.925h-3.401v3.384h-1.925V254.134z"/>
		<path fill="#E15218" d="M404.302,256.85h-1.547v2.663h-2.654v-2.663h-5.484v-1.89l5.634-8.297h2.505v8.077h1.547V256.85z
			 M400.101,254.74v-2.18c0-0.363,0.015-0.891,0.044-1.582s0.053-1.093,0.07-1.204h-0.07c-0.217,0.48-0.478,0.949-0.782,1.406
			l-2.355,3.56H400.101z"/>
	</g>
	<g enable-background="new    ">
		<g>
			<path fill="none" stroke="#E15218" stroke-width="1.7393" stroke-miterlimit="10" d="M383.524,233.559
				c18.371,0,33.782,12.675,37.962,29.757"/>
			<g>
				<circle fill="#E15218" cx="383.524" cy="233.559" r="2.877"/>
			</g>
			<g>
				<polygon fill="#E15218" points="417.407,261.549 421.206,262.168 424.289,259.865 422.844,268.863 				"/>
			</g>
		</g>
	</g>
</g>
<g>
	<g>
		<circle fill="#FFFFFF" stroke="#000000" stroke-width="3" stroke-miterlimit="10" cx="982.75" cy="272.547" r="131.244"/>
		<g>
			<rect x="980" y="142" width="5" height="28"/>
		</g>
		<g>
			<rect x="926.632" y="160.723" transform="matrix(0.3613 0.9324 -0.9324 0.3613 752.9704 -772.8391)" width="27.999" height="5"/>
		</g>
		<g>
			<rect x="890.051" y="183.327" transform="matrix(0.6737 0.739 -0.739 0.6737 432.3208 -607.4639)" width="28" height="5.001"/>
		</g>
		<g>
			
				<rect x="864.115" y="217.583" transform="matrix(0.8952 0.4458 -0.4458 0.8952 190.1744 -368.3558)" width="28.002" height="5.001"/>
		</g>
		<g>
			
				<rect x="864.115" y="217.583" transform="matrix(0.8952 0.4458 -0.4458 0.8952 190.1744 -368.3558)" width="28.002" height="5.001"/>
		</g>
		<g>
			
				<rect x="1011.158" y="160.671" transform="matrix(-0.3612 0.9325 -0.9325 -0.3612 1547.6184 -733.8287)" width="28" height="5.001"/>
		</g>
		<g>
			
				<rect x="852.405" y="259.008" transform="matrix(0.9957 0.0923 -0.0923 0.9957 27.8372 -78.8566)" width="27.999" height="5.001"/>
		</g>
		<g>
			<rect x="856.391" y="301.8" transform="matrix(0.9618 -0.2736 0.2736 0.9618 -50.0449 249.7382)" width="27.999" height="5"/>
		</g>
		<g>
			<rect x="875.557" y="340.303" transform="matrix(0.798 -0.6026 0.6026 0.798 -26.9097 605.3202)" width="28" height="5.001"/>
		</g>
		<g>
			
				<rect x="907.325" y="369.239" transform="matrix(0.5264 -0.8502 0.8502 0.5264 120.2542 959.3763)" width="28.001" height="5.002"/>
		</g>
		<g>
			
				<rect x="947.39" y="384.801" transform="matrix(0.1837 -0.983 0.983 0.1837 404.0786 1261.1881)" width="28.001" height="5.001"/>
		</g>
		<g>
			
				<rect x="990.449" y="384.74" transform="matrix(-0.1839 -0.9829 0.9829 -0.1839 808.5582 1445.7758)" width="27.997" height="5.001"/>
		</g>
		<g>
			
				<rect x="990.449" y="384.74" transform="matrix(-0.1839 -0.9829 0.9829 -0.1839 808.5582 1445.7758)" width="27.997" height="5.001"/>
		</g>
		<g>
			
				<rect x="1030.5" y="369.223" transform="matrix(-0.5266 -0.8501 0.8501 -0.5266 1278.532 1455.4161)" width="27.998" height="5.002"/>
		</g>
		<g>
			
				<rect x="1062.297" y="340.247" transform="matrix(-0.7982 -0.6024 0.6024 -0.7982 1728.928 1264.6804)" width="27.999" height="5.001"/>
		</g>
		<g>
			
				<rect x="1081.421" y="301.711" transform="matrix(-0.9619 -0.2733 0.2733 -0.9619 2065.9883 896.2289)" width="27.999" height="5"/>
		</g>
		<g>
			
				<rect x="1085.372" y="258.976" transform="matrix(-0.9957 0.0926 -0.0926 -0.9957 2218.2324 420.0169)" width="27.997" height="5"/>
		</g>
		<g>
			<rect x="1073.625" y="217.625" transform="matrix(-0.895 0.4461 -0.4461 -0.895 2159.228 -68.0521)" width="27.999" height="5"/>
		</g>
		<g>
			<rect x="1047.661" y="183.233" transform="matrix(-0.6733 0.7394 -0.7394 -0.6733 1913.7839 -474.197)" width="28" height="5"/>
		</g>
		<g>
			<rect x="875.557" y="340.303" transform="matrix(0.798 -0.6026 0.6026 0.798 -26.9097 605.3202)" width="28" height="5.001"/>
		</g>
	</g>
	<g enable-background="new    ">
		<g>
			<path fill="none" stroke="#E15218" stroke-width="2" stroke-miterlimit="10" d="M1032.482,232.688
				c0.568,0.805,1.119,1.625,1.65,2.459c1.632,2.532,3.043,5.211,4.307,7.96c1.254,2.756,2.26,5.625,3.106,8.537
				c0.838,2.918,1.408,5.908,1.822,8.911c0.387,3.01,0.521,6.041,0.498,9.061c-0.09,3.02-0.335,6.034-0.83,9.011
				c-0.521,2.97-1.197,5.911-2.132,8.766c-0.944,2.847-2.04,5.639-3.374,8.302c-1.342,2.658-2.822,5.232-4.51,7.65
				c-6.7,9.713-16.103,17.144-26.353,21.434l-0.957,0.408l-0.973,0.366c-0.648,0.24-1.292,0.488-1.941,0.714
				c-1.313,0.411-2.606,0.862-3.932,1.184c-2.624,0.73-5.284,1.2-7.917,1.561c-5.282,0.632-10.498,0.642-15.495-0.046
				c-4.992-0.68-9.768-1.915-14.15-3.68c-4.385-1.756-8.399-3.959-11.979-6.445c-7.161-4.997-12.506-11.098-16.24-17.035
				c-3.764-5.95-5.898-11.76-7.143-16.609c-1.254-4.865-1.609-8.806-1.732-11.473c-0.099-1.334-0.058-2.361-0.073-3.05
				c-0.004-0.69-0.004-1.046-0.004-1.046v-0.023c0,0,0.016-0.355,0.045-1.044c0.043-0.689,0.043-1.713,0.192-3.041
				c0.228-2.652,0.736-6.559,2.165-11.32c1.417-4.747,3.747-10.381,7.653-16.049c3.876-5.656,9.306-11.367,16.382-15.9
				c3.536-2.255,7.464-4.211,11.707-5.721c4.24-1.518,8.814-2.505,13.552-2.964c4.739-0.464,9.649-0.258,14.558,0.526
				c2.446,0.436,4.906,0.966,7.317,1.743c1.218,0.344,2.401,0.815,3.604,1.239c0.593,0.233,1.18,0.489,1.771,0.733l0.885,0.372
				l0.869,0.414c9.316,4.335,17.634,11.498,23.345,20.521c1.438,2.245,2.68,4.62,3.793,7.053c1.104,2.438,1.982,4.979,2.729,7.553
				c0.735,2.58,1.229,5.225,1.591,7.88c0.061,0.47,0.071,2.646,0.052,4.59"/>
			<g>
				<polygon fill="#E15218" points="1027.605,226.638 1030.835,238.011 1032.754,233.209 1037.875,232.496 				"/>
			</g>
			<g>
				<circle fill="#E15218" cx="1036.333" cy="266.026" r="3.309"/>
			</g>
		</g>
	</g>
	<rect x="960" y="178.234" fill="none" width="44" height="15"/>
	<g enable-background="new    ">
		<path d="M985.66,183.575c0,1.852-0.293,3.233-0.876,4.146s-1.476,1.369-2.677,1.369c-1.152,0-2.029-0.468-2.629-1.402
			c-0.602-0.936-0.901-2.306-0.901-4.113c0-1.864,0.29-3.249,0.872-4.152c0.58-0.903,1.467-1.355,2.658-1.355
			c1.162,0,2.045,0.472,2.647,1.414S985.66,181.788,985.66,183.575z M979.808,183.575c0,1.559,0.183,2.692,0.55,3.402
			c0.365,0.711,0.949,1.066,1.75,1.066c0.811,0,1.397-0.36,1.762-1.081c0.363-0.72,0.545-1.849,0.545-3.388
			c0-1.537-0.182-2.664-0.545-3.38c-0.364-0.715-0.951-1.073-1.762-1.073c-0.801,0-1.385,0.354-1.75,1.059
			C979.99,180.887,979.808,182.019,979.808,183.575z"/>
	</g>
	<rect x="992.255" y="183.734" fill="none" width="44" height="15"/>
	<g enable-background="new    ">
		<path d="M1015.322,194.444h-1.188v-7.632c0-0.635,0.02-1.235,0.059-1.802c-0.102,0.103-0.217,0.21-0.344,0.322
			s-0.708,0.589-1.743,1.428l-0.645-0.834l2.835-2.19h1.025V194.444z"/>
	</g>
	<rect x="1020.255" y="200.469" fill="none" width="44" height="15"/>
	<g enable-background="new    ">
		<path d="M1045.855,211.179h-7.038v-1.047l2.819-2.835c0.859-0.869,1.426-1.489,1.699-1.86s0.479-0.732,0.615-1.084
			s0.205-0.729,0.205-1.135c0-0.572-0.173-1.024-0.52-1.359c-0.347-0.334-0.828-0.502-1.443-0.502c-0.443,0-0.865,0.074-1.263,0.221
			c-0.398,0.146-0.841,0.412-1.329,0.798l-0.645-0.827c0.986-0.82,2.061-1.23,3.223-1.23c1.006,0,1.794,0.257,2.365,0.772
			c0.571,0.515,0.857,1.207,0.857,2.076c0,0.679-0.191,1.351-0.572,2.015s-1.094,1.504-2.139,2.52l-2.344,2.292v0.059h5.508V211.179
			z"/>
	</g>
	<rect x="1039.152" y="226.901" fill="none" width="44" height="15"/>
	<g enable-background="new    ">
		<path d="M1064.351,229.423c0,0.684-0.192,1.243-0.575,1.677c-0.383,0.436-0.926,0.726-1.629,0.872v0.059
			c0.859,0.107,1.496,0.381,1.911,0.82s0.622,1.016,0.622,1.729c0,1.021-0.354,1.806-1.062,2.354
			c-0.708,0.55-1.714,0.824-3.018,0.824c-0.566,0-1.085-0.043-1.557-0.128c-0.472-0.086-0.929-0.235-1.373-0.45v-1.158
			c0.464,0.23,0.958,0.404,1.483,0.524c0.524,0.119,1.021,0.179,1.49,0.179c1.851,0,2.775-0.725,2.775-2.175
			c0-1.299-1.02-1.948-3.061-1.948h-1.055v-1.047h1.068c0.836,0,1.497-0.185,1.985-0.554c0.488-0.368,0.732-0.88,0.732-1.534
			c0-0.522-0.18-0.933-0.538-1.23c-0.359-0.298-0.846-0.447-1.461-0.447c-0.469,0-0.911,0.064-1.326,0.191s-0.889,0.361-1.421,0.703
			l-0.615-0.82c0.439-0.347,0.946-0.619,1.52-0.817c0.573-0.197,1.179-0.296,1.813-0.296c1.039,0,1.848,0.237,2.424,0.714
			C1064.062,227.939,1064.351,228.593,1064.351,229.423z"/>
	</g>
	<rect x="1047.878" y="259.5" fill="none" width="44" height="15"/>
	<g enable-background="new    ">
		<path d="M1073.984,267.749h-1.59v2.461h-1.164v-2.461h-5.207v-1.062l5.082-7.243h1.289v7.2h1.59V267.749z M1071.23,266.644v-3.561
			c0-0.697,0.024-1.486,0.073-2.365h-0.059c-0.234,0.469-0.454,0.857-0.659,1.164l-3.348,4.762H1071.23z"/>
	</g>
	<rect x="1045.448" y="291.291" fill="none" width="44" height="15"/>
	<g enable-background="new    ">
		<path d="M1067.357,295.46c1.129,0,2.016,0.28,2.663,0.839c0.646,0.56,0.97,1.325,0.97,2.296c0,1.109-0.353,1.979-1.058,2.607
			c-0.706,0.631-1.679,0.945-2.919,0.945c-1.206,0-2.127-0.192-2.762-0.578v-1.172c0.342,0.219,0.768,0.392,1.275,0.516
			c0.508,0.125,1.008,0.188,1.501,0.188c0.859,0,1.527-0.203,2.003-0.608c0.477-0.405,0.715-0.991,0.715-1.758
			c0-1.494-0.916-2.241-2.747-2.241c-0.464,0-1.084,0.071-1.86,0.213l-0.63-0.403l0.403-5.01h5.324v1.12h-4.285l-0.271,3.216
			C1066.242,295.517,1066.801,295.46,1067.357,295.46z"/>
	</g>
	<rect x="1031.493" y="321.527" fill="none" width="44" height="15"/>
	<g enable-background="new    ">
		<path d="M1050.18,327.659c0-2.104,0.409-3.678,1.228-4.72c0.817-1.043,2.027-1.563,3.629-1.563c0.552,0,0.986,0.046,1.304,0.139
			v1.047c-0.376-0.121-0.806-0.183-1.289-0.183c-1.147,0-2.023,0.357-2.629,1.073c-0.605,0.715-0.938,1.84-0.996,3.373h0.088
			c0.537-0.84,1.387-1.26,2.549-1.26c0.961,0,1.719,0.29,2.273,0.871s0.832,1.369,0.832,2.365c0,1.113-0.305,1.989-0.912,2.626
			c-0.608,0.638-1.43,0.956-2.465,0.956c-1.108,0-1.987-0.416-2.637-1.249C1050.505,330.303,1050.18,329.145,1050.18,327.659z
			 M1053.776,331.351c0.693,0,1.231-0.218,1.615-0.655c0.383-0.437,0.575-1.067,0.575-1.894c0-0.707-0.179-1.264-0.535-1.67
			c-0.356-0.404-0.889-0.607-1.597-0.607c-0.439,0-0.843,0.091-1.208,0.271c-0.367,0.181-0.658,0.43-0.876,0.746
			c-0.218,0.318-0.325,0.647-0.325,0.989c0,0.503,0.098,0.972,0.293,1.406s0.472,0.779,0.831,1.032
			C1052.908,331.225,1053.317,331.351,1053.776,331.351z"/>
	</g>
	<rect x="1009.493" y="342.566" fill="none" width="44" height="15"/>
	<g enable-background="new    ">
		<path d="M1029.41,353.276l4.439-9.588h-5.838v-1.12h7.127v0.974l-4.381,9.734H1029.41z"/>
	</g>
	<rect x="976.5" y="354.978" fill="none" width="44" height="15"/>
	<g enable-background="new    ">
		<path d="M998.607,354.826c0.977,0,1.75,0.227,2.322,0.681c0.57,0.454,0.856,1.082,0.856,1.882c0,0.527-0.163,1.009-0.491,1.443
			c-0.326,0.435-0.85,0.83-1.566,1.187c0.869,0.415,1.486,0.851,1.853,1.308c0.366,0.456,0.55,0.984,0.55,1.586
			c0,0.889-0.311,1.598-0.931,2.127c-0.62,0.53-1.47,0.795-2.549,0.795c-1.143,0-2.021-0.25-2.637-0.751
			c-0.615-0.5-0.923-1.209-0.923-2.128c0-1.225,0.747-2.18,2.241-2.863c-0.674-0.381-1.157-0.792-1.45-1.234
			c-0.293-0.441-0.439-0.936-0.439-1.482c0-0.777,0.287-1.396,0.86-1.857C996.877,355.057,997.646,354.826,998.607,354.826z
			 M996.293,362.984c0,0.586,0.203,1.043,0.611,1.37s0.98,0.491,1.718,0.491c0.728,0,1.294-0.171,1.699-0.514
			c0.405-0.341,0.608-0.81,0.608-1.406c0-0.473-0.191-0.895-0.572-1.263c-0.381-0.369-1.045-0.727-1.992-1.073
			c-0.727,0.312-1.254,0.658-1.582,1.036C996.457,362.005,996.293,362.457,996.293,362.984z M998.593,355.814
			c-0.61,0-1.089,0.146-1.436,0.439s-0.521,0.684-0.521,1.172c0,0.449,0.145,0.835,0.433,1.157s0.82,0.645,1.597,0.967
			c0.698-0.293,1.192-0.608,1.483-0.944c0.29-0.338,0.436-0.73,0.436-1.18c0-0.493-0.177-0.885-0.531-1.176
			C999.699,355.96,999.213,355.814,998.593,355.814z"/>
	</g>
	<rect x="943.924" y="355.978" fill="none" width="44" height="15"/>
	<g enable-background="new    ">
		<path d="M969.525,360.55c0,4.189-1.621,6.284-4.863,6.284c-0.566,0-1.016-0.049-1.348-0.146v-1.047
			c0.391,0.127,0.834,0.189,1.332,0.189c1.172,0,2.057-0.362,2.655-1.087c0.599-0.726,0.925-1.837,0.978-3.337h-0.088
			c-0.268,0.406-0.625,0.715-1.068,0.927c-0.445,0.213-0.945,0.319-1.502,0.319c-0.947,0-1.699-0.283-2.256-0.85
			s-0.835-1.357-0.835-2.373c0-1.113,0.312-1.992,0.934-2.637c0.623-0.645,1.442-0.967,2.458-0.967c0.727,0,1.363,0.187,1.907,0.56
			c0.544,0.374,0.964,0.918,1.257,1.634C969.379,358.734,969.525,359.578,969.525,360.55z M965.922,356.865
			c-0.699,0-1.238,0.226-1.619,0.674c-0.381,0.45-0.571,1.075-0.571,1.875c0,0.703,0.176,1.257,0.527,1.659
			c0.352,0.403,0.886,0.604,1.604,0.604c0.443,0,0.853-0.09,1.227-0.271c0.373-0.18,0.668-0.427,0.883-0.739s0.322-0.64,0.322-0.981
			c0-0.513-0.101-0.986-0.301-1.421s-0.479-0.776-0.839-1.025C966.797,356.99,966.385,356.865,965.922,356.865z"/>
	</g>
	<rect x="912.835" y="344.852" fill="none" width="44" height="15"/>
	<g enable-background="new    ">
		<path d="M931.732,355.562h-1.188v-7.632c0-0.635,0.02-1.235,0.059-1.802c-0.102,0.103-0.217,0.21-0.344,0.322
			s-0.708,0.589-1.743,1.428l-0.645-0.834l2.835-2.19h1.025V355.562z"/>
		<path d="M942.901,350.192c0,1.852-0.292,3.233-0.876,4.146c-0.583,0.913-1.475,1.369-2.676,1.369c-1.152,0-2.029-0.468-2.63-1.402
			c-0.601-0.936-0.901-2.306-0.901-4.113c0-1.864,0.291-3.249,0.872-4.152s1.468-1.355,2.659-1.355c1.162,0,2.044,0.472,2.646,1.414
			C942.6,347.041,942.901,348.405,942.901,350.192z M937.049,350.192c0,1.559,0.184,2.692,0.55,3.402
			c0.366,0.711,0.95,1.066,1.751,1.066c0.811,0,1.396-0.36,1.762-1.081c0.363-0.72,0.545-1.849,0.545-3.388
			c0-1.537-0.182-2.664-0.545-3.38c-0.365-0.715-0.951-1.073-1.762-1.073c-0.801,0-1.385,0.354-1.751,1.059
			C937.232,347.504,937.049,348.636,937.049,350.192z"/>
	</g>
	<rect x="889.297" y="324.279" fill="none" width="44" height="15"/>
	<g enable-background="new    ">
		<path d="M908.193,334.989h-1.186v-7.632c0-0.635,0.02-1.235,0.059-1.802c-0.104,0.103-0.218,0.21-0.345,0.322
			s-0.708,0.589-1.743,1.428l-0.645-0.834l2.834-2.19h1.025V334.989z"/>
		<path d="M916.771,334.989h-1.187v-7.632c0-0.635,0.02-1.235,0.059-1.802c-0.103,0.103-0.217,0.21-0.344,0.322
			s-0.709,0.589-1.744,1.428l-0.645-0.834l2.835-2.19h1.025V334.989z"/>
	</g>
	<rect x="873" y="292.165" fill="none" width="44" height="15"/>
	<g enable-background="new    ">
		<path d="M891.896,302.875h-1.186v-7.632c0-0.635,0.02-1.235,0.059-1.802c-0.104,0.103-0.218,0.21-0.345,0.322
			s-0.708,0.589-1.743,1.428l-0.645-0.834l2.834-2.19h1.025V302.875z"/>
		<path d="M903.008,302.875h-7.039v-1.047l2.82-2.835c0.859-0.869,1.426-1.489,1.699-1.86s0.479-0.732,0.615-1.084
			s0.205-0.729,0.205-1.135c0-0.572-0.174-1.024-0.52-1.359c-0.348-0.334-0.828-0.502-1.443-0.502c-0.444,0-0.865,0.074-1.264,0.221
			s-0.841,0.412-1.329,0.798l-0.645-0.827c0.986-0.82,2.061-1.23,3.223-1.23c1.006,0,1.794,0.257,2.366,0.772
			c0.57,0.515,0.856,1.207,0.856,2.076c0,0.679-0.19,1.351-0.571,2.015s-1.094,1.504-2.139,2.52l-2.344,2.292v0.059h5.508V302.875z"
			/>
	</g>
	<rect x="869.291" y="259.5" fill="none" width="44" height="15"/>
	<g enable-background="new    ">
		<path d="M888.188,270.21h-1.186v-7.632c0-0.635,0.02-1.235,0.059-1.802c-0.104,0.103-0.218,0.21-0.345,0.322
			s-0.708,0.589-1.743,1.428l-0.645-0.834l2.834-2.19h1.025V270.21z"/>
		<path d="M898.896,262.021c0,0.684-0.192,1.243-0.576,1.677c-0.383,0.436-0.926,0.726-1.629,0.872v0.059
			c0.859,0.107,1.496,0.381,1.912,0.82c0.414,0.439,0.622,1.016,0.622,1.729c0,1.021-0.354,1.806-1.062,2.354
			c-0.709,0.55-1.715,0.824-3.018,0.824c-0.566,0-1.086-0.043-1.557-0.128c-0.472-0.086-0.93-0.235-1.373-0.45v-1.158
			c0.463,0.23,0.957,0.404,1.482,0.524c0.525,0.119,1.021,0.179,1.49,0.179c1.852,0,2.776-0.725,2.776-2.175
			c0-1.299-1.021-1.948-3.062-1.948h-1.055v-1.047h1.069c0.835,0,1.497-0.185,1.985-0.554c0.488-0.368,0.732-0.88,0.732-1.534
			c0-0.522-0.18-0.933-0.539-1.23s-0.846-0.447-1.461-0.447c-0.469,0-0.91,0.064-1.326,0.191c-0.414,0.127-0.889,0.361-1.42,0.703
			l-0.615-0.82c0.439-0.347,0.945-0.619,1.52-0.817c0.573-0.197,1.178-0.296,1.812-0.296c1.04,0,1.848,0.237,2.424,0.714
			C898.607,260.538,898.896,261.191,898.896,262.021z"/>
	</g>
	<rect x="878.691" y="226.901" fill="none" width="44" height="15"/>
	<g enable-background="new    ">
		<path d="M897.588,237.611h-1.186v-7.632c0-0.635,0.02-1.235,0.059-1.802c-0.104,0.103-0.218,0.21-0.345,0.322
			s-0.708,0.589-1.743,1.428l-0.645-0.834l2.834-2.19h1.025V237.611z"/>
		<path d="M909.205,235.15h-1.59v2.461h-1.164v-2.461h-5.208v-1.062l5.083-7.243h1.289v7.2h1.59V235.15z M906.451,234.045v-3.561
			c0-0.697,0.023-1.486,0.072-2.365h-0.059c-0.234,0.469-0.453,0.857-0.658,1.164l-3.348,4.762H906.451z"/>
	</g>
	<rect x="898.793" y="200.026" fill="none" width="44" height="15"/>
	<g enable-background="new    ">
		<path d="M917.689,210.736h-1.186v-7.632c0-0.635,0.02-1.235,0.059-1.802c-0.104,0.103-0.218,0.21-0.345,0.322
			s-0.708,0.589-1.743,1.428l-0.645-0.834l2.834-2.19h1.025V210.736z"/>
		<path d="M925.109,204.195c1.128,0,2.016,0.28,2.662,0.839c0.646,0.56,0.971,1.325,0.971,2.296c0,1.109-0.354,1.979-1.059,2.607
			c-0.705,0.631-1.678,0.945-2.918,0.945c-1.207,0-2.127-0.192-2.762-0.578v-1.172c0.342,0.219,0.767,0.392,1.274,0.516
			c0.508,0.125,1.009,0.188,1.501,0.188c0.859,0,1.527-0.203,2.004-0.608s0.714-0.991,0.714-1.758c0-1.494-0.915-2.241-2.747-2.241
			c-0.463,0-1.084,0.071-1.859,0.213l-0.631-0.403l0.403-5.01h5.325v1.12h-4.285l-0.271,3.216
			C923.994,204.252,924.553,204.195,925.109,204.195z"/>
	</g>
	<rect x="924.934" y="184.734" fill="none" width="44" height="15"/>
	<g enable-background="new    ">
		<path d="M943.83,195.444h-1.186v-7.632c0-0.635,0.02-1.235,0.059-1.802c-0.104,0.103-0.218,0.21-0.345,0.322
			s-0.708,0.589-1.743,1.428l-0.645-0.834l2.834-2.19h1.025V195.444z"/>
		<path d="M948.027,190.866c0-2.104,0.408-3.678,1.227-4.72c0.818-1.043,2.027-1.563,3.629-1.563c0.553,0,0.986,0.046,1.305,0.139
			v1.047c-0.377-0.121-0.807-0.183-1.289-0.183c-1.148,0-2.024,0.357-2.63,1.073c-0.605,0.715-0.938,1.84-0.996,3.373h0.088
			c0.537-0.84,1.387-1.26,2.549-1.26c0.962,0,1.72,0.29,2.274,0.871c0.554,0.581,0.831,1.369,0.831,2.365
			c0,1.113-0.304,1.989-0.911,2.626c-0.609,0.638-1.43,0.956-2.465,0.956c-1.109,0-1.988-0.416-2.637-1.249
			C948.352,193.51,948.027,192.352,948.027,190.866z M951.623,194.558c0.693,0,1.232-0.218,1.615-0.655
			c0.383-0.437,0.575-1.067,0.575-1.894c0-0.707-0.179-1.264-0.534-1.67c-0.357-0.404-0.889-0.607-1.598-0.607
			c-0.439,0-0.842,0.091-1.208,0.271s-0.658,0.43-0.876,0.746c-0.217,0.318-0.325,0.647-0.325,0.989
			c0,0.503,0.098,0.972,0.293,1.406s0.472,0.779,0.831,1.032C950.756,194.432,951.164,194.558,951.623,194.558z"/>
	</g>
	<circle cx="982.257" cy="272.901" r="5.5"/>
	
		<line fill="none" stroke="#000000" stroke-width="4" stroke-linecap="round" stroke-miterlimit="10" x1="1028.564" y1="223.06" x2="982.523" y2="272.223"/>
	<rect x="929.331" y="287.307" fill="none" width="49.009" height="22.969"/>
	<g enable-background="new    ">
		<path fill="#E15218" d="M940.7,296.432v-2.197h4.72v2.197H940.7z"/>
		<path fill="#E15218" d="M953.392,300.158h-2.716v-7.436l0.026-1.222l0.044-1.336c-0.451,0.451-0.765,0.747-0.94,0.888
			l-1.477,1.187l-1.31-1.635l4.14-3.296h2.232V300.158z"/>
		<path fill="#E15218" d="M965.881,292.793c0,2.531-0.533,4.421-1.6,5.669s-2.681,1.872-4.843,1.872
			c-0.762,0-1.339-0.041-1.731-0.123v-2.18c0.492,0.123,1.008,0.185,1.547,0.185c0.908,0,1.655-0.133,2.241-0.399
			s1.034-0.686,1.345-1.258c0.311-0.57,0.489-1.357,0.536-2.359h-0.105c-0.34,0.551-0.732,0.938-1.178,1.16s-1.002,0.334-1.67,0.334
			c-1.119,0-2.001-0.358-2.646-1.076s-0.967-1.716-0.967-2.993c0-1.377,0.391-2.466,1.174-3.265c0.781-0.801,1.847-1.2,3.194-1.2
			c0.949,0,1.78,0.223,2.491,0.668c0.713,0.445,1.259,1.092,1.64,1.938S965.881,291.621,965.881,292.793z M961.231,289.339
			c-0.562,0-1.002,0.193-1.318,0.58s-0.475,0.943-0.475,1.67c0,0.621,0.144,1.113,0.431,1.477s0.724,0.545,1.31,0.545
			c0.551,0,1.022-0.181,1.415-0.54c0.393-0.361,0.589-0.775,0.589-1.244c0-0.697-0.183-1.286-0.55-1.767
			C962.268,289.579,961.8,289.339,961.231,289.339z"/>
	</g>
	<g opacity="0.55" enable-background="new    ">
		<g>
			<path fill="none" stroke="#E15218" stroke-width="1.7393" stroke-miterlimit="10" d="M979.52,232.559
				c18.371,0,34.735,13.108,37.963,31.274"/>
			<g>
				<circle fill="#E15218" cx="979.52" cy="232.559" r="2.877"/>
			</g>
			<g>
				<polygon fill="#E15218" points="1013.523,261.808 1017.273,262.67 1020.499,260.569 1018.48,269.456 				"/>
			</g>
		</g>
	</g>
</g>
<g>
	<g>
		
			<line fill="none" stroke="#000000" stroke-width="3" stroke-linecap="round" stroke-miterlimit="10" x1="541.5" y1="273.223" x2="807.318" y2="273.223"/>
		<g>
			<polygon points="828.5,273.223 798.652,285.419 805.734,273.223 798.652,261.03 			"/>
		</g>
	</g>
</g>
</svg>
