<?xml version="1.0" encoding="utf-8"?>
<!-- Generator: Adobe Illustrator 16.0.4, SVG Export Plug-In . SVG Version: 6.00 Build 0)  -->
<!DOCTYPE svg PUBLIC "-//W3C//DTD SVG 1.1//EN" "http://www.w3.org/Graphics/SVG/1.1/DTD/svg11.dtd">
<svg version="1.1" id="Layer_1" xmlns="http://www.w3.org/2000/svg" xmlns:xlink="http://www.w3.org/1999/xlink" x="0px" y="0px"
	 width="1366px" height="768px" viewBox="0 0 1366 768" enable-background="new 0 0 1366 768" xml:space="preserve">
<g>
	<g>
		<circle fill="#FFFFFF" stroke="#000000" stroke-width="3" stroke-miterlimit="10" cx="383.75" cy="272.547" r="131.244"/>
		<g>
			<rect x="381" y="142" width="5" height="28"/>
		</g>
		<g>
			<rect x="327.612" y="160.682" transform="matrix(-0.3613 -0.9325 0.9325 -0.3613 312.8767 540.6753)" width="28" height="5"/>
		</g>
		<g>
			<rect x="291.062" y="183.315" transform="matrix(-0.6737 -0.739 0.739 -0.6737 373.2587 536.4426)" width="28" height="5.001"/>
		</g>
		<g>
			
				<rect x="265.151" y="217.627" transform="matrix(-0.8951 -0.4458 0.4458 -0.8951 430.9056 541.6117)" width="28" height="5.001"/>
		</g>
		<g>
			
				<rect x="265.151" y="217.627" transform="matrix(-0.8951 -0.4458 0.4458 -0.8951 430.9056 541.6117)" width="28" height="5.001"/>
		</g>
		<g>
			<rect x="412.15" y="160.68" transform="matrix(0.3612 -0.9325 0.9325 0.3612 120.0628 501.6217)" width="28" height="5.001"/>
		</g>
		<g>
			
				<rect x="253.385" y="258.983" transform="matrix(-0.9957 -0.0923 0.0923 -0.9957 509.486 546.5364)" width="27.999" height="5.001"/>
		</g>
		<g>
			
				<rect x="257.352" y="301.796" transform="matrix(-0.9618 0.2736 -0.2736 -0.9618 615.6084 522.7371)" width="28" height="5.001"/>
		</g>
		<g>
			<rect x="276.518" y="340.286" transform="matrix(-0.798 0.6026 -0.6026 -0.798 728.9272 441.2752)" width="28" height="5.001"/>
		</g>
		<g>
			
				<rect x="308.299" y="369.256" transform="matrix(-0.5264 0.8502 -0.8502 -0.5264 808.041 293.429)" width="28.001" height="5.001"/>
		</g>
		<g>
			<rect x="348.401" y="384.787" transform="matrix(-0.1837 0.983 -0.983 -0.1837 809.6647 102.1885)" width="28" height="5.001"/>
		</g>
		<g>
			
				<rect x="391.406" y="384.78" transform="matrix(0.1839 0.9829 -0.9829 0.1839 711.5378 -82.4242)" width="27.999" height="5.001"/>
		</g>
		<g>
			
				<rect x="391.406" y="384.78" transform="matrix(0.1839 0.9829 -0.9829 0.1839 711.5378 -82.4242)" width="27.999" height="5.001"/>
		</g>
		<g>
			
				<rect x="431.502" y="369.236" transform="matrix(0.5266 0.8501 -0.8501 0.5266 526.915 -202.747)" width="27.998" height="5.002"/>
		</g>
		<g>
			
				<rect x="463.275" y="340.256" transform="matrix(0.7982 0.6024 -0.6024 0.7982 302.8082 -218.3447)" width="27.999" height="5.001"/>
		</g>
		<g>
			<rect x="482.43" y="301.754" transform="matrix(0.9619 0.2733 -0.2733 0.9619 102.0717 -124.1088)" width="27.999" height="5"/>
		</g>
		<g>
			<rect x="486.381" y="258.932" transform="matrix(0.9957 -0.0926 0.0926 0.9957 -22.0668 47.4784)" width="27.999" height="5"/>
		</g>
		<g>
			<rect x="474.593" y="217.575" transform="matrix(0.895 -0.4461 0.4461 0.895 -46.8643 241.092)" width="27.999" height="5"/>
		</g>
		<g>
			<rect x="448.66" y="183.271" transform="matrix(0.6733 -0.7393 0.7393 0.6733 13.7901 402.7533)" width="27.999" height="5"/>
		</g>
		<g>
			<rect x="276.518" y="340.286" transform="matrix(-0.798 0.6026 -0.6026 -0.798 728.9272 441.2752)" width="28" height="5.001"/>
		</g>
	</g>
	<g opacity="0.55" enable-background="new    ">
		<g>
			<path fill="none" stroke="#E15218" stroke-width="2" stroke-miterlimit="10" stroke-dasharray="4.2903,7.508" d="
				M429.793,230.258c1.848,2.167,3.555,4.468,5.096,6.89c1.631,2.532,3.043,5.211,4.305,7.96c1.255,2.756,2.26,5.625,3.108,8.537
				c0.838,2.918,1.408,5.908,1.822,8.911c0.387,3.01,0.521,6.041,0.499,9.061c-0.09,3.02-0.335,6.034-0.831,9.011
				c-0.521,2.97-1.197,5.911-2.131,8.766c-0.945,2.847-2.04,5.639-3.374,8.302c-1.341,2.658-2.822,5.232-4.509,7.65
				c-6.701,9.714-16.103,17.144-26.352,21.434l-0.957,0.409l-0.973,0.366c-0.648,0.24-1.292,0.488-1.941,0.714
				c-1.314,0.411-2.607,0.862-3.931,1.183c-2.625,0.731-5.285,1.2-7.917,1.561c-5.282,0.632-10.498,0.641-15.495-0.046
				c-4.992-0.68-9.768-1.915-14.15-3.68c-4.386-1.756-8.4-3.959-11.98-6.445c-7.162-4.997-12.507-11.098-16.241-17.035
				c-3.763-5.95-5.899-11.76-7.142-16.609c-1.253-4.865-1.609-8.806-1.732-11.473c-0.099-1.334-0.058-2.361-0.074-3.05
				c-0.003-0.69-0.005-1.046-0.005-1.046v-0.023c0,0,0.016-0.355,0.046-1.044c0.043-0.689,0.042-1.713,0.193-3.041
				c0.227-2.652,0.736-6.559,2.165-11.32c1.417-4.747,3.748-10.381,7.653-16.049c3.876-5.656,9.306-11.367,16.382-15.9
				c3.537-2.255,7.464-4.211,11.707-5.721c4.24-1.518,8.816-2.505,13.552-2.964c4.739-0.464,9.649-0.258,14.558,0.526
				c2.447,0.436,4.906,0.966,7.317,1.743c1.218,0.344,2.402,0.815,3.604,1.239c0.593,0.233,1.18,0.489,1.771,0.733l0.886,0.372
				l0.869,0.414c9.315,4.335,17.632,11.498,23.343,20.52c1.44,2.245,2.68,4.62,3.792,7.053c1.106,2.438,1.984,4.979,2.73,7.553
				c0.735,2.58,1.229,5.225,1.591,7.88c0.103,0.816,0.185,1.634,0.249,2.454"/>
			<g>
				<polygon fill="#E15218" points="424.397,224.672 428.684,235.69 430.142,230.729 435.173,229.536 				"/>
			</g>
		</g>
	</g>
	<rect x="362" y="179.234" fill="none" width="44" height="15"/>
	<text transform="matrix(1 0 0 1 379.8301 189.9443)" font-family="'HelveticaNeue'" font-size="15">0</text>
	<rect x="393.255" y="184.734" fill="none" width="44" height="15"/>
	<text transform="matrix(1 0 0 1 411.085 195.4443)" font-family="'HelveticaNeue'" font-size="15">1</text>
	<rect x="421.255" y="201.469" fill="none" width="44" height="15"/>
	<text transform="matrix(1 0 0 1 439.085 212.1787)" font-family="'HelveticaNeue'" font-size="15">2</text>
	<rect x="440.152" y="227.901" fill="none" width="44" height="15"/>
	<text transform="matrix(1 0 0 1 457.9824 238.6113)" font-family="'HelveticaNeue'" font-size="15">3</text>
	<rect x="448.878" y="260.5" fill="none" width="44" height="15"/>
	<text transform="matrix(1 0 0 1 466.708 271.21)" font-family="'HelveticaNeue'" font-size="15">4</text>
	<rect x="446.448" y="292.291" fill="none" width="44" height="15"/>
	<text transform="matrix(1 0 0 1 464.2783 303.001)" font-family="'HelveticaNeue'" font-size="15">5</text>
	<rect x="432.493" y="322.527" fill="none" width="44" height="15"/>
	<text transform="matrix(1 0 0 1 450.3232 333.2373)" font-family="'HelveticaNeue'" font-size="15">6</text>
	<rect x="410.493" y="343.566" fill="none" width="44" height="15"/>
	<text transform="matrix(1 0 0 1 428.3232 354.2764)" font-family="'HelveticaNeue'" font-size="15">7</text>
	<rect x="377.5" y="355.978" fill="none" width="44" height="15"/>
	<text transform="matrix(1 0 0 1 395.3301 366.6875)" font-family="'HelveticaNeue'" font-size="15">8</text>
	<rect x="344.924" y="356.978" fill="none" width="44" height="15"/>
	<text transform="matrix(1 0 0 1 362.7544 367.6875)" font-family="'HelveticaNeue'" font-size="15">9</text>
	<rect x="313.835" y="345.852" fill="none" width="44" height="15"/>
	<text transform="matrix(1 0 0 1 327.4951 356.5615)" font-family="'HelveticaNeue'" font-size="15">10</text>
	<rect x="290.297" y="325.279" fill="none" width="44" height="15"/>
	<text transform="matrix(1 0 0 1 303.9575 335.9893)" font-family="'HelveticaNeue'" font-size="15">11</text>
	<rect x="274" y="293.165" fill="none" width="44" height="15"/>
	<text transform="matrix(1 0 0 1 287.6602 303.875)" font-family="'HelveticaNeue'" font-size="15">12</text>
	<rect x="270.291" y="260.5" fill="none" width="44" height="15"/>
	<text transform="matrix(1 0 0 1 283.9512 271.21)" font-family="'HelveticaNeue'" font-size="15">13</text>
	<rect x="279.691" y="227.901" fill="none" width="44" height="15"/>
	<text transform="matrix(1 0 0 1 293.3511 238.6113)" font-family="'HelveticaNeue'" font-size="15">14</text>
	<rect x="299.793" y="201.026" fill="none" width="44" height="15"/>
	<text transform="matrix(1 0 0 1 313.4536 211.7363)" font-family="'HelveticaNeue'" font-size="15">15</text>
	<rect x="325.934" y="185.734" fill="none" width="44" height="15"/>
	<text transform="matrix(1 0 0 1 339.5942 196.4443)" font-family="'HelveticaNeue'" font-size="15">16</text>
	<circle cx="383.257" cy="272.901" r="5.5"/>
	
		<line fill="none" stroke="#000000" stroke-width="4" stroke-linecap="round" stroke-miterlimit="10" x1="451.25" y1="267.901" x2="383.524" y2="273.223"/>
	<rect x="369.934" y="246.662" fill="none" width="49.009" height="22.969"/>
	<text transform="matrix(1 0 0 1 384.0347 259.5127)" fill="#E15218" font-family="'HelveticaNeue-Bold'" font-size="18">+4</text>
	<g enable-background="new    ">
		<g>
			<path fill="none" stroke="#E15218" stroke-width="1.7393" stroke-miterlimit="10" d="M383.524,233.559
				c18.371,0,33.782,12.675,37.962,29.757"/>
			<g>
				<circle fill="#E15218" cx="383.524" cy="233.559" r="2.877"/>
			</g>
			<g>
				<polygon fill="#E15218" points="417.407,261.549 421.206,262.168 424.289,259.865 422.844,268.863 				"/>
			</g>
		</g>
	</g>
</g>
<g>
	<g>
		<circle fill="#FFFFFF" stroke="#000000" stroke-width="3" stroke-miterlimit="10" cx="982.75" cy="272.547" r="131.244"/>
		<g>
			<rect x="980" y="142" width="5" height="28"/>
		</g>
		<g>
			<rect x="926.612" y="160.682" transform="matrix(-0.3613 -0.9324 0.9324 -0.3613 1128.3237 1099.2074)" width="28" height="5"/>
		</g>
		<g>
			<rect x="890.062" y="183.315" transform="matrix(-0.6737 -0.739 0.739 -0.6737 1375.7996 979.1127)" width="28" height="5.001"/>
		</g>
		<g>
			<rect x="864.15" y="217.628" transform="matrix(-0.8952 -0.4458 0.4458 -0.8952 1566.1033 808.622)" width="28" height="5.001"/>
		</g>
		<g>
			<rect x="864.15" y="217.628" transform="matrix(-0.8952 -0.4458 0.4458 -0.8952 1566.1033 808.622)" width="28" height="5.001"/>
		</g>
		<g>
			<rect x="1011.151" y="160.68" transform="matrix(0.3612 -0.9325 0.9325 0.3612 502.7081 1060.1842)" width="28" height="5.001"/>
		</g>
		<g>
			
				<rect x="852.384" y="258.983" transform="matrix(-0.9957 -0.0923 0.0923 -0.9957 1704.9279 601.8345)" width="28" height="5.001"/>
		</g>
		<g>
			
				<rect x="856.352" y="301.796" transform="matrix(-0.9618 0.2736 -0.2736 -0.9618 1790.7507 358.8442)" width="28" height="5.001"/>
		</g>
		<g>
			
				<rect x="875.517" y="340.286" transform="matrix(-0.798 0.6026 -0.6026 -0.798 1805.9551 80.3243)" width="28.001" height="5.001"/>
		</g>
		<g>
			
				<rect x="907.299" y="369.256" transform="matrix(-0.5264 0.8502 -0.8502 -0.5264 1722.3655 -215.8559)" width="28.001" height="5.002"/>
		</g>
		<g>
			
				<rect x="947.401" y="384.787" transform="matrix(-0.1837 0.983 -0.983 -0.1837 1518.7031 -486.6105)" width="28" height="5.001"/>
		</g>
		<g>
			
				<rect x="990.406" y="384.78" transform="matrix(0.1839 0.9829 -0.9829 0.1839 1200.3955 -671.2109)" width="27.999" height="5.001"/>
		</g>
		<g>
			
				<rect x="990.406" y="384.78" transform="matrix(0.1839 0.9829 -0.9829 0.1839 1200.3955 -671.2109)" width="27.999" height="5.001"/>
		</g>
		<g>
			
				<rect x="1030.503" y="369.236" transform="matrix(0.5266 0.8501 -0.8501 0.5266 810.4785 -711.9631)" width="27.998" height="5.002"/>
		</g>
		<g>
			
				<rect x="1062.275" y="340.256" transform="matrix(0.7982 0.6024 -0.6024 0.7982 423.6901 -579.1888)" width="27.999" height="5.001"/>
		</g>
		<g>
			<rect x="1081.43" y="301.754" transform="matrix(0.9619 0.2733 -0.2733 0.9619 124.8781 -287.8324)" width="28" height="5"/>
		</g>
		<g>
			<rect x="1085.382" y="258.932" transform="matrix(0.9957 -0.0926 0.0926 0.9957 -19.4912 102.9703)" width="27.998" height="5"/>
		</g>
		<g>
			<rect x="1073.594" y="217.575" transform="matrix(0.895 -0.4461 0.4461 0.895 16.0526 508.3334)" width="27.998" height="5"/>
		</g>
		<g>
			<rect x="1047.66" y="183.271" transform="matrix(0.6733 -0.7394 0.7394 0.6733 209.4863 845.6447)" width="27.999" height="5"/>
		</g>
		<g>
			
				<rect x="875.517" y="340.286" transform="matrix(-0.798 0.6026 -0.6026 -0.798 1805.9551 80.3243)" width="28.001" height="5.001"/>
		</g>
	</g>
	<g enable-background="new    ">
		<g>
			<path fill="none" stroke="#E15218" stroke-width="2" stroke-miterlimit="10" d="M1032.482,232.688
				c0.569,0.805,1.12,1.625,1.651,2.459c1.632,2.532,3.043,5.211,4.306,7.96c1.254,2.756,2.26,5.625,3.107,8.537
				c0.838,2.918,1.408,5.908,1.822,8.911c0.387,3.01,0.521,6.041,0.498,9.061c-0.09,3.02-0.335,6.034-0.83,9.011
				c-0.521,2.97-1.197,5.911-2.132,8.766c-0.944,2.847-2.04,5.639-3.374,8.302c-1.342,2.658-2.822,5.232-4.51,7.65
				c-6.7,9.714-16.102,17.144-26.352,21.434l-0.957,0.409l-0.973,0.366c-0.648,0.24-1.292,0.488-1.941,0.714
				c-1.314,0.411-2.607,0.862-3.932,1.183c-2.624,0.731-5.284,1.2-7.917,1.561c-5.282,0.632-10.498,0.641-15.495-0.046
				c-4.992-0.68-9.768-1.915-14.15-3.68c-4.385-1.756-8.4-3.959-11.98-6.445c-7.161-4.997-12.506-11.098-16.24-17.035
				c-3.764-5.95-5.899-11.76-7.143-16.609c-1.254-4.865-1.609-8.806-1.732-11.473c-0.099-1.334-0.058-2.361-0.074-3.05
				c-0.003-0.69-0.004-1.046-0.004-1.046v-0.023c0,0,0.016-0.355,0.045-1.044c0.043-0.689,0.043-1.713,0.193-3.041
				c0.227-2.652,0.736-6.559,2.165-11.32c1.417-4.747,3.747-10.381,7.653-16.049c3.876-5.656,9.306-11.367,16.382-15.9
				c3.536-2.255,7.464-4.211,11.707-5.721c4.24-1.518,8.815-2.505,13.552-2.964c4.739-0.464,9.649-0.258,14.558,0.526
				c2.446,0.436,4.906,0.966,7.317,1.743c1.218,0.344,2.401,0.815,3.604,1.239c0.593,0.233,1.18,0.489,1.771,0.733l0.885,0.372
				l0.869,0.414c9.316,4.335,17.633,11.498,23.344,20.52c1.439,2.245,2.68,4.62,3.793,7.053c1.105,2.438,1.983,4.979,2.729,7.553
				c0.735,2.58,1.229,5.225,1.591,7.88c0.06,0.47,0.071,2.646,0.052,4.59"/>
			<g>
				<polygon fill="#E15218" points="1027.606,226.638 1030.835,238.011 1032.754,233.209 1037.875,232.496 				"/>
			</g>
			<g>
				<circle fill="#E15218" cx="1036.333" cy="266.026" r="3.309"/>
			</g>
		</g>
	</g>
	<rect x="960" y="178.234" fill="none" width="44" height="15"/>
	<text transform="matrix(1 0 0 1 977.8301 188.9443)" font-family="'HelveticaNeue'" font-size="15">0</text>
	<rect x="992.255" y="183.734" fill="none" width="44" height="15"/>
	<text transform="matrix(1 0 0 1 1010.085 194.4443)" font-family="'HelveticaNeue'" font-size="15">1</text>
	<rect x="1020.255" y="200.469" fill="none" width="44" height="15"/>
	<text transform="matrix(1 0 0 1 1038.085 211.1787)" font-family="'HelveticaNeue'" font-size="15">2</text>
	<rect x="1039.152" y="226.901" fill="none" width="44" height="15"/>
	<text transform="matrix(1 0 0 1 1056.9824 237.6113)" font-family="'HelveticaNeue'" font-size="15">3</text>
	<rect x="1047.878" y="259.5" fill="none" width="44" height="15"/>
	<text transform="matrix(1 0 0 1 1065.708 270.21)" font-family="'HelveticaNeue'" font-size="15">4</text>
	<rect x="1045.448" y="291.291" fill="none" width="44" height="15"/>
	<text transform="matrix(1 0 0 1 1063.2783 302.001)" font-family="'HelveticaNeue'" font-size="15">5</text>
	<rect x="1031.493" y="321.527" fill="none" width="44" height="15"/>
	<text transform="matrix(1 0 0 1 1049.3232 332.2373)" font-family="'HelveticaNeue'" font-size="15">6</text>
	<rect x="1009.493" y="342.566" fill="none" width="44" height="15"/>
	<text transform="matrix(1 0 0 1 1027.3232 353.2764)" font-family="'HelveticaNeue'" font-size="15">7</text>
	<rect x="976.5" y="354.978" fill="none" width="44" height="15"/>
	<text transform="matrix(1 0 0 1 994.3301 365.6875)" font-family="'HelveticaNeue'" font-size="15">8</text>
	<rect x="943.924" y="355.978" fill="none" width="44" height="15"/>
	<text transform="matrix(1 0 0 1 961.7539 366.6875)" font-family="'HelveticaNeue'" font-size="15">9</text>
	<rect x="912.835" y="344.852" fill="none" width="44" height="15"/>
	<text transform="matrix(1 0 0 1 926.4951 355.5615)" font-family="'HelveticaNeue'" font-size="15">10</text>
	<rect x="889.297" y="324.279" fill="none" width="44" height="15"/>
	<text transform="matrix(1 0 0 1 902.957 334.9893)" font-family="'HelveticaNeue'" font-size="15">11</text>
	<rect x="873" y="292.165" fill="none" width="44" height="15"/>
	<text transform="matrix(1 0 0 1 886.6602 302.875)" font-family="'HelveticaNeue'" font-size="15">12</text>
	<rect x="869.291" y="259.5" fill="none" width="44" height="15"/>
	<text transform="matrix(1 0 0 1 882.9512 270.21)" font-family="'HelveticaNeue'" font-size="15">13</text>
	<rect x="878.691" y="226.901" fill="none" width="44" height="15"/>
	<text transform="matrix(1 0 0 1 892.3516 237.6113)" font-family="'HelveticaNeue'" font-size="15">14</text>
	<rect x="898.793" y="200.026" fill="none" width="44" height="15"/>
	<text transform="matrix(1 0 0 1 912.4531 210.7363)" font-family="'HelveticaNeue'" font-size="15">15</text>
	<rect x="924.934" y="184.734" fill="none" width="44" height="15"/>
	<text transform="matrix(1 0 0 1 938.5938 195.4443)" font-family="'HelveticaNeue'" font-size="15">16</text>
	<circle cx="982.257" cy="272.901" r="5.5"/>
	
		<line fill="none" stroke="#000000" stroke-width="4" stroke-linecap="round" stroke-miterlimit="10" x1="1028.564" y1="223.06" x2="982.524" y2="272.223"/>
	<rect x="929.331" y="287.307" fill="none" width="49.009" height="22.969"/>
	<text transform="matrix(1 0 0 1 940.1641 300.1582)" fill="#E15218" font-family="'HelveticaNeue-Bold'" font-size="18">-19</text>
	<g opacity="0.55" enable-background="new    ">
		<g>
			<path fill="none" stroke="#E15218" stroke-width="1.7393" stroke-miterlimit="10" d="M979.52,232.559
				c18.371,0,34.735,13.108,37.962,31.274"/>
			<g>
				<circle fill="#E15218" cx="979.52" cy="232.559" r="2.877"/>
			</g>
			<g>
				<polygon fill="#E15218" points="1013.523,261.808 1017.274,262.67 1020.499,260.569 1018.48,269.456 				"/>
			</g>
		</g>
	</g>
</g>
<g>
	<g>
		
			<line fill="none" stroke="#000000" stroke-width="3" stroke-linecap="round" stroke-miterlimit="10" x1="541.5" y1="273.223" x2="807.318" y2="273.223"/>
		<g>
			<polygon points="828.5,273.223 798.652,285.419 805.734,273.223 798.652,261.03 			"/>
		</g>
	</g>
</g>
</svg>
