<?xml version="1.0" encoding="utf-8"?>
<!-- Generator: Adobe Illustrator 16.0.4, SVG Export Plug-In . SVG Version: 6.00 Build 0)  -->
<!DOCTYPE svg PUBLIC "-//W3C//DTD SVG 1.1//EN" "http://www.w3.org/Graphics/SVG/1.1/DTD/svg11.dtd">
<svg version="1.1" id="Layer_1" xmlns="http://www.w3.org/2000/svg" xmlns:xlink="http://www.w3.org/1999/xlink" x="0px" y="0px"
	 width="1366px" height="768px" viewBox="0 0 1366 768" enable-background="new 0 0 1366 768" xml:space="preserve">
<rect x="396" y="391" fill="#FFFFFF" width="28" height="11"/>
<g>
	<rect x="75.146" y="317.772" fill="none" width="211.607" height="30.724"/>
	<path d="M142.036,325.727c-0.006,0.434-0.044,0.877-0.114,1.332s-0.18,0.894-0.33,1.318s-0.338,0.823-0.567,1.195
		s-0.5,0.697-0.813,0.976s-0.675,0.498-1.085,0.659s-0.87,0.242-1.38,0.242c-0.504,0-0.961-0.081-1.371-0.242
		s-0.775-0.381-1.094-0.659s-0.595-0.605-0.826-0.98s-0.422-0.775-0.571-1.2s-0.261-0.863-0.334-1.314s-0.113-0.894-0.119-1.327
		v-1.688c0.006-0.434,0.045-0.877,0.119-1.332s0.183-0.894,0.33-1.318s0.335-0.825,0.567-1.2s0.505-0.703,0.822-0.984
		s0.678-0.502,1.085-0.664s0.866-0.242,1.375-0.242s0.97,0.081,1.38,0.242s0.775,0.381,1.094,0.659s0.593,0.605,0.822,0.98
		s0.417,0.775,0.567,1.2s0.259,0.864,0.33,1.318s0.108,0.901,0.114,1.34V325.727z M140.999,324.021
		c-0.006-0.34-0.032-0.694-0.079-1.063s-0.123-0.729-0.229-1.081s-0.242-0.687-0.409-1.006s-0.371-0.599-0.611-0.839
		s-0.521-0.431-0.844-0.571s-0.688-0.211-1.099-0.211s-0.775,0.072-1.094,0.215s-0.599,0.335-0.839,0.576s-0.444,0.52-0.611,0.839
		s-0.303,0.655-0.409,1.006s-0.182,0.712-0.229,1.081s-0.073,0.721-0.079,1.055v1.705c0.006,0.34,0.034,0.693,0.083,1.059
		s0.127,0.727,0.233,1.081s0.242,0.691,0.409,1.011s0.371,0.599,0.611,0.839s0.521,0.432,0.844,0.576s0.688,0.215,1.099,0.215
		c0.416,0,0.784-0.072,1.103-0.215s0.599-0.335,0.839-0.576s0.444-0.52,0.611-0.839s0.302-0.656,0.404-1.011s0.176-0.715,0.22-1.081
		s0.069-0.719,0.075-1.059V324.021z"/>
	<path d="M151.221,329.787c-0.316,0.521-0.734,0.929-1.252,1.222s-1.132,0.439-1.841,0.439c-0.527,0-0.992-0.085-1.393-0.255
		s-0.738-0.419-1.011-0.747s-0.48-0.729-0.624-1.204s-0.215-1.017-0.215-1.626v-5.854h1.046v5.871
		c0.012,0.955,0.205,1.679,0.58,2.171s0.955,0.738,1.74,0.738c0.791,0,1.433-0.182,1.925-0.545s0.835-0.855,1.028-1.477
		l-0.009-6.759h1.063v9.51h-0.984L151.221,329.787z"/>
	<path d="M159.148,319.328v2.435h3.524v0.861h-3.524v5.985c0.006,0.369,0.063,0.675,0.171,0.918s0.255,0.439,0.439,0.589
		s0.401,0.256,0.65,0.321s0.52,0.097,0.813,0.097s0.593-0.021,0.901-0.062s0.57-0.082,0.787-0.123l0.158,0.8
		c-0.252,0.1-0.56,0.174-0.923,0.224s-0.732,0.075-1.107,0.075c-0.422,0-0.812-0.051-1.169-0.154s-0.668-0.267-0.932-0.492
		s-0.472-0.519-0.624-0.879s-0.231-0.801-0.237-1.323v-5.977h-2.646v-0.861h2.646v-2.435H159.148z"/>
	<path d="M174.134,326.614c0,0.615-0.075,1.214-0.224,1.797s-0.378,1.099-0.686,1.547s-0.696,0.809-1.165,1.081
		s-1.025,0.409-1.67,0.409c-0.592,0-1.134-0.114-1.626-0.343s-0.905-0.56-1.239-0.993v4.816h-1.055v-13.166h0.984l0.044,1.301
		c0.334-0.469,0.744-0.832,1.23-1.09s1.034-0.387,1.644-0.387c0.65,0,1.213,0.133,1.688,0.4s0.864,0.624,1.169,1.072
		s0.532,0.964,0.681,1.547s0.224,1.191,0.224,1.824V326.614z M173.079,326.43c0-0.475-0.053-0.946-0.158-1.415
		s-0.275-0.889-0.51-1.261s-0.538-0.674-0.91-0.905s-0.828-0.347-1.367-0.347c-0.305,0-0.59,0.042-0.857,0.127
		s-0.51,0.205-0.729,0.36s-0.416,0.34-0.589,0.554s-0.318,0.45-0.435,0.708v4.711c0.246,0.492,0.598,0.882,1.055,1.169
		s0.981,0.431,1.573,0.431c0.533,0,0.986-0.117,1.358-0.352s0.674-0.538,0.905-0.91s0.4-0.794,0.505-1.266s0.158-0.945,0.158-1.419
		V326.43z"/>
	<path d="M183.626,329.787c-0.316,0.521-0.734,0.929-1.252,1.222s-1.132,0.439-1.841,0.439c-0.527,0-0.992-0.085-1.393-0.255
		s-0.738-0.419-1.011-0.747s-0.48-0.729-0.624-1.204s-0.215-1.017-0.215-1.626v-5.854h1.046v5.871
		c0.012,0.955,0.205,1.679,0.58,2.171s0.955,0.738,1.74,0.738c0.791,0,1.433-0.182,1.925-0.545s0.835-0.855,1.028-1.477
		l-0.009-6.759h1.063v9.51h-0.984L183.626,329.787z"/>
	<path d="M191.554,319.328v2.435h3.524v0.861h-3.524v5.985c0.006,0.369,0.063,0.675,0.171,0.918s0.255,0.439,0.439,0.589
		s0.401,0.256,0.65,0.321s0.52,0.097,0.813,0.097s0.593-0.021,0.901-0.062s0.57-0.082,0.787-0.123l0.158,0.8
		c-0.252,0.1-0.56,0.174-0.923,0.224s-0.732,0.075-1.107,0.075c-0.422,0-0.812-0.051-1.169-0.154s-0.668-0.267-0.932-0.492
		s-0.472-0.519-0.624-0.879s-0.231-0.801-0.237-1.323v-5.977h-2.646v-0.861h2.646v-2.435H191.554z"/>
	<path d="M209.896,321.763h4.412v8.578h3.234v0.932h-7.646v-0.932h3.357v-7.638h-3.357V321.763z M212.946,319.161
		c0-0.217,0.062-0.404,0.185-0.562s0.328-0.237,0.615-0.237c0.281,0,0.485,0.079,0.611,0.237s0.189,0.346,0.189,0.562
		c0,0.205-0.063,0.385-0.189,0.541s-0.33,0.233-0.611,0.233c-0.287,0-0.492-0.078-0.615-0.233S212.946,319.366,212.946,319.161z"/>
	<path d="M223.994,322.826c0-0.246,0.081-0.456,0.242-0.628s0.379-0.259,0.655-0.259c0.281,0,0.502,0.086,0.664,0.259
		s0.242,0.382,0.242,0.628s-0.081,0.45-0.242,0.611s-0.382,0.242-0.664,0.242c-0.275,0-0.494-0.081-0.655-0.242
		S223.994,323.072,223.994,322.826z M223.994,330.525c0-0.246,0.081-0.456,0.242-0.628s0.379-0.259,0.655-0.259
		c0.281,0,0.502,0.086,0.664,0.259s0.242,0.382,0.242,0.628s-0.081,0.45-0.242,0.611s-0.382,0.242-0.664,0.242
		c-0.275,0-0.494-0.081-0.655-0.242S223.994,330.771,223.994,330.525z"/>
</g>
<g>
	<g>
		<path d="M166.011,452.006c0-0.246,0.081-0.456,0.242-0.629s0.379-0.26,0.655-0.26c0.281,0,0.502,0.087,0.664,0.26
			s0.242,0.383,0.242,0.629s-0.081,0.449-0.242,0.61s-0.382,0.241-0.664,0.241c-0.275,0-0.494-0.08-0.655-0.241
			S166.011,452.252,166.011,452.006z"/>
		<path d="M176.812,452.006c0-0.246,0.081-0.456,0.242-0.629s0.379-0.26,0.655-0.26c0.281,0,0.502,0.087,0.664,0.26
			s0.242,0.383,0.242,0.629s-0.081,0.449-0.242,0.61s-0.382,0.241-0.664,0.241c-0.275,0-0.494-0.08-0.655-0.241
			S176.812,452.252,176.812,452.006z"/>
		<path d="M187.614,452.006c0-0.246,0.081-0.456,0.242-0.629s0.379-0.26,0.655-0.26c0.281,0,0.502,0.087,0.664,0.26
			s0.242,0.383,0.242,0.629s-0.081,0.449-0.242,0.61s-0.382,0.241-0.664,0.241c-0.275,0-0.494-0.08-0.655-0.241
			S187.614,452.252,187.614,452.006z"/>
	</g>
</g>
<g>
	<g>
		<path d="M166.01,510.854c0-0.246,0.081-0.455,0.242-0.629c0.161-0.172,0.379-0.259,0.655-0.259c0.281,0,0.502,0.087,0.664,0.259
			c0.161,0.174,0.242,0.383,0.242,0.629s-0.081,0.449-0.242,0.611c-0.161,0.16-0.382,0.241-0.664,0.241
			c-0.275,0-0.494-0.081-0.655-0.241C166.091,511.303,166.01,511.1,166.01,510.854z"/>
		<path d="M176.812,510.854c0-0.246,0.081-0.455,0.242-0.629c0.161-0.172,0.379-0.259,0.655-0.259c0.281,0,0.502,0.087,0.664,0.259
			c0.161,0.174,0.242,0.383,0.242,0.629s-0.081,0.449-0.242,0.611c-0.161,0.16-0.382,0.241-0.664,0.241
			c-0.275,0-0.494-0.081-0.655-0.241C176.893,511.303,176.812,511.1,176.812,510.854z"/>
		<path d="M187.614,510.854c0-0.246,0.081-0.455,0.242-0.629c0.161-0.172,0.379-0.259,0.655-0.259c0.281,0,0.502,0.087,0.664,0.259
			c0.161,0.174,0.242,0.383,0.242,0.629s-0.081,0.449-0.242,0.611c-0.161,0.16-0.382,0.241-0.664,0.241
			c-0.275,0-0.494-0.081-0.655-0.241C187.694,511.303,187.614,511.1,187.614,510.854z"/>
	</g>
</g>
<g>
	<g>
		<path d="M499.886,452.006c0-0.246,0.081-0.456,0.242-0.629s0.379-0.26,0.655-0.26c0.281,0,0.502,0.087,0.664,0.26
			s0.242,0.383,0.242,0.629s-0.081,0.449-0.242,0.61s-0.382,0.241-0.664,0.241c-0.275,0-0.494-0.08-0.655-0.241
			S499.886,452.252,499.886,452.006z"/>
		<path d="M510.688,452.006c0-0.246,0.081-0.456,0.242-0.629s0.379-0.26,0.655-0.26c0.281,0,0.502,0.087,0.664,0.26
			s0.242,0.383,0.242,0.629s-0.081,0.449-0.242,0.61s-0.382,0.241-0.664,0.241c-0.275,0-0.494-0.08-0.655-0.241
			S510.688,452.252,510.688,452.006z"/>
		<path d="M521.489,452.006c0-0.246,0.081-0.456,0.242-0.629s0.379-0.26,0.655-0.26c0.281,0,0.502,0.087,0.664,0.26
			s0.242,0.383,0.242,0.629s-0.081,0.449-0.242,0.61s-0.382,0.241-0.664,0.241c-0.275,0-0.494-0.08-0.655-0.241
			S521.489,452.252,521.489,452.006z"/>
	</g>
</g>
<g>
	<g>
		<path d="M499.886,510.854c0-0.246,0.081-0.455,0.242-0.629c0.161-0.172,0.379-0.259,0.655-0.259c0.281,0,0.502,0.087,0.664,0.259
			c0.161,0.174,0.242,0.383,0.242,0.629s-0.081,0.449-0.242,0.611c-0.161,0.16-0.382,0.241-0.664,0.241
			c-0.275,0-0.494-0.081-0.655-0.241C499.966,511.303,499.886,511.1,499.886,510.854z"/>
		<path d="M510.688,510.854c0-0.246,0.081-0.455,0.242-0.629c0.161-0.172,0.379-0.259,0.655-0.259c0.281,0,0.502,0.087,0.664,0.259
			c0.161,0.174,0.242,0.383,0.242,0.629s-0.081,0.449-0.242,0.611c-0.161,0.16-0.382,0.241-0.664,0.241
			c-0.275,0-0.494-0.081-0.655-0.241C510.768,511.303,510.688,511.1,510.688,510.854z"/>
		<path d="M521.489,510.854c0-0.246,0.081-0.455,0.242-0.629c0.161-0.172,0.379-0.259,0.655-0.259c0.281,0,0.502,0.087,0.664,0.259
			c0.161,0.174,0.242,0.383,0.242,0.629s-0.081,0.449-0.242,0.611c-0.161,0.16-0.382,0.241-0.664,0.241
			c-0.275,0-0.494-0.081-0.655-0.241C521.57,511.303,521.489,511.1,521.489,510.854z"/>
	</g>
</g>
<g enable-background="new    ">
	<path fill="none" stroke="#2D4E6E" stroke-width="3" stroke-miterlimit="10" d="M80,167.5h218.5c5.5,0,10,4.5,10,10V536
		c0,5.5-4.5,10.5-10,10.5H80"/>
</g>
<g enable-background="new    ">
	<path fill="none" stroke="#2D4E6E" stroke-width="2" stroke-miterlimit="10" stroke-dasharray="6,6" d="M80,295h207.636
		c2.737,0,5.364,1.739,5.364,4.477v178.547c0,2.737-2.627,4.977-5.364,4.977H80"/>
</g>
<g>
	<rect x="75.146" y="192.074" fill="none" width="211.607" height="30.724"/>
	<path d="M125.319,200.881v4.693h-2.47v-12.797h4.377c0.697,0,1.327,0.101,1.89,0.303s1.042,0.483,1.437,0.844
		s0.7,0.792,0.914,1.296s0.321,1.063,0.321,1.679c0,0.574-0.107,1.104-0.321,1.591s-0.519,0.907-0.914,1.261
		s-0.875,0.631-1.437,0.831s-1.192,0.299-1.89,0.299H125.319z M125.319,198.877h1.907c0.352,0,0.656-0.053,0.914-0.158
		s0.473-0.249,0.646-0.431s0.302-0.391,0.387-0.628s0.127-0.485,0.127-0.743c0-0.299-0.042-0.577-0.127-0.835
		s-0.214-0.483-0.387-0.677s-0.388-0.346-0.646-0.457s-0.562-0.167-0.914-0.167h-1.907V198.877z"/>
	<path d="M140.41,195.889c0.369,0,0.71,0.025,1.024,0.075s0.567,0.104,0.76,0.163l-0.36,2.435c-0.322-0.076-0.652-0.133-0.989-0.171
		s-0.658-0.057-0.962-0.057c-0.686,0-1.235,0.132-1.648,0.396s-0.722,0.642-0.927,1.134v5.713h-2.443v-9.51h2.276l0.114,1.556
		c0.387-0.539,0.85-0.962,1.389-1.27S139.771,195.889,140.41,195.889z"/>
	<path d="M148.997,205.75c-0.732,0-1.397-0.12-1.995-0.36s-1.11-0.567-1.538-0.98s-0.757-0.899-0.989-1.459
		s-0.347-1.159-0.347-1.797v-0.352c0-0.727,0.114-1.39,0.343-1.991s0.548-1.118,0.958-1.551s0.896-0.771,1.459-1.011
		s1.175-0.36,1.837-0.36c0.686,0,1.296,0.113,1.833,0.338s0.99,0.543,1.362,0.954s0.655,0.904,0.848,1.481s0.29,1.214,0.29,1.912
		v1.037h-6.451c0.047,0.322,0.142,0.617,0.286,0.883s0.327,0.497,0.549,0.69s0.478,0.343,0.765,0.448s0.601,0.158,0.94,0.158
		c0.24,0,0.479-0.023,0.716-0.07s0.464-0.116,0.681-0.207s0.419-0.204,0.606-0.338s0.352-0.293,0.492-0.475l1.222,1.318
		c-0.152,0.217-0.35,0.429-0.593,0.637s-0.53,0.393-0.861,0.554s-0.699,0.292-1.103,0.391S149.466,205.75,148.997,205.75z
		 M148.707,197.866c-0.275,0-0.527,0.048-0.756,0.145s-0.429,0.236-0.602,0.417s-0.318,0.398-0.435,0.65s-0.205,0.533-0.264,0.844
		h4.008v-0.193c-0.012-0.258-0.062-0.501-0.149-0.729s-0.214-0.426-0.378-0.593s-0.365-0.299-0.602-0.396
		S149.018,197.866,148.707,197.866z"/>
	<path d="M159.228,202.753l0.123,0.686l0.123-0.659l2.092-6.715h2.549l-3.612,9.51h-2.294l-3.63-9.51h2.549L159.228,202.753z"/>
	<path d="M166.637,196.064h5.177v7.523h2.575v1.986h-7.752v-1.986h2.707v-5.528h-2.707V196.064z M169.168,193.63
		c0-0.188,0.034-0.362,0.101-0.523s0.163-0.299,0.286-0.413s0.271-0.204,0.444-0.268s0.365-0.097,0.576-0.097
		c0.434,0,0.778,0.122,1.033,0.365s0.382,0.555,0.382,0.936s-0.127,0.693-0.382,0.936s-0.599,0.365-1.033,0.365
		c-0.211,0-0.403-0.032-0.576-0.097s-0.321-0.154-0.444-0.268s-0.218-0.252-0.286-0.413S169.168,193.817,169.168,193.63z"/>
	<path d="M176.454,200.731c0-0.691,0.1-1.332,0.299-1.92s0.491-1.1,0.875-1.534s0.853-0.773,1.406-1.02s1.188-0.369,1.903-0.369
		s1.351,0.123,1.907,0.369s1.027,0.586,1.411,1.02s0.675,0.945,0.875,1.534s0.299,1.229,0.299,1.92v0.185
		c0,0.697-0.1,1.34-0.299,1.929s-0.489,1.1-0.87,1.534s-0.85,0.772-1.406,1.015s-1.189,0.365-1.898,0.365
		c-0.715,0-1.352-0.122-1.912-0.365s-1.031-0.582-1.415-1.015s-0.675-0.945-0.875-1.534s-0.299-1.232-0.299-1.929V200.731z
		 M178.897,200.916c0,0.398,0.038,0.772,0.114,1.121s0.196,0.653,0.36,0.914s0.376,0.467,0.637,0.62s0.576,0.229,0.945,0.229
		c0.357,0,0.665-0.076,0.923-0.229s0.467-0.359,0.628-0.62s0.28-0.565,0.356-0.914s0.114-0.722,0.114-1.121v-0.185
		c0-0.387-0.038-0.753-0.114-1.099s-0.195-0.65-0.356-0.914s-0.371-0.472-0.628-0.624s-0.571-0.229-0.94-0.229
		c-0.363,0-0.674,0.076-0.932,0.229s-0.469,0.36-0.633,0.624s-0.284,0.568-0.36,0.914s-0.114,0.712-0.114,1.099V200.916z"/>
	<path d="M193.654,204.238c-0.322,0.475-0.71,0.847-1.165,1.116s-0.951,0.404-1.49,0.404c-0.492,0-0.943-0.076-1.354-0.229
		s-0.762-0.394-1.055-0.725s-0.52-0.753-0.681-1.266s-0.242-1.129-0.242-1.85v-5.625h2.443v5.643c0,0.387,0.028,0.712,0.083,0.976
		s0.145,0.476,0.268,0.637s0.284,0.277,0.483,0.347s0.442,0.105,0.729,0.105c0.486,0,0.882-0.092,1.187-0.277
		s0.536-0.438,0.694-0.76v-6.671h2.452v9.51h-2.215L193.654,204.238z"/>
	<path d="M204.526,202.964c0-0.146-0.034-0.275-0.101-0.387s-0.188-0.215-0.36-0.312s-0.403-0.186-0.69-0.268
		s-0.65-0.164-1.09-0.246c-0.557-0.111-1.065-0.25-1.525-0.417s-0.854-0.369-1.182-0.606s-0.584-0.511-0.769-0.822
		s-0.277-0.668-0.277-1.072c0-0.393,0.094-0.768,0.281-1.125s0.457-0.671,0.809-0.94s0.779-0.483,1.283-0.642
		s1.072-0.237,1.705-0.237c0.662,0,1.257,0.078,1.784,0.233s0.974,0.369,1.34,0.642s0.646,0.596,0.839,0.971s0.29,0.782,0.29,1.222
		h-2.443c0-0.369-0.149-0.678-0.448-0.927s-0.753-0.374-1.362-0.374c-0.568,0-0.998,0.103-1.288,0.308s-0.435,0.457-0.435,0.756
		c0,0.141,0.029,0.271,0.088,0.391s0.163,0.229,0.312,0.325s0.353,0.185,0.611,0.264s0.586,0.148,0.984,0.207
		c0.574,0.094,1.107,0.214,1.6,0.36s0.917,0.335,1.274,0.567s0.637,0.513,0.839,0.844s0.303,0.725,0.303,1.182
		c0,0.422-0.101,0.81-0.303,1.165s-0.489,0.661-0.861,0.918s-0.822,0.458-1.349,0.602s-1.116,0.215-1.767,0.215
		c-0.715,0-1.346-0.094-1.894-0.281s-1.006-0.432-1.375-0.734s-0.649-0.645-0.839-1.028s-0.286-0.769-0.286-1.156h2.329
		c0.018,0.258,0.088,0.479,0.211,0.664s0.281,0.334,0.475,0.448s0.415,0.198,0.664,0.25s0.505,0.079,0.769,0.079
		c0.604,0,1.063-0.097,1.38-0.29S204.526,203.269,204.526,202.964z"/>
	<path d="M229.312,194.79h-3.946v10.784h-2.479V194.79h-3.894v-2.013h10.318V194.79z"/>
	<path d="M235.042,197.365l2.276-4.588h2.9l-3.604,6.346l3.691,6.451h-2.883l-2.347-4.658l-2.338,4.658h-2.918l3.691-6.451
		l-3.595-6.346h2.883L235.042,197.365z"/>
</g>
<g>
	<rect x="74.417" y="255.254" fill="none" width="213.064" height="35.756"/>
	<path d="M152.838,263.208c-0.006,0.434-0.044,0.877-0.114,1.332s-0.18,0.894-0.33,1.318s-0.338,0.823-0.567,1.195
		s-0.5,0.697-0.813,0.976s-0.675,0.498-1.085,0.659s-0.87,0.242-1.38,0.242c-0.504,0-0.961-0.081-1.371-0.242
		s-0.775-0.381-1.094-0.659s-0.595-0.605-0.826-0.98s-0.422-0.775-0.571-1.2s-0.261-0.863-0.334-1.314s-0.113-0.894-0.119-1.327
		v-1.688c0.006-0.434,0.045-0.877,0.119-1.332s0.183-0.894,0.33-1.318s0.335-0.825,0.567-1.2s0.505-0.703,0.822-0.984
		s0.678-0.502,1.085-0.664s0.866-0.242,1.375-0.242s0.97,0.081,1.38,0.242s0.775,0.381,1.094,0.659s0.593,0.605,0.822,0.98
		s0.417,0.775,0.567,1.2s0.259,0.864,0.33,1.318s0.108,0.901,0.114,1.34V263.208z M151.801,261.503
		c-0.006-0.34-0.032-0.694-0.079-1.063s-0.123-0.729-0.229-1.081s-0.242-0.687-0.409-1.006s-0.371-0.599-0.611-0.839
		s-0.521-0.431-0.844-0.571s-0.688-0.211-1.099-0.211s-0.775,0.072-1.094,0.215s-0.599,0.335-0.839,0.576s-0.444,0.52-0.611,0.839
		s-0.303,0.655-0.409,1.006s-0.182,0.712-0.229,1.081s-0.073,0.721-0.079,1.055v1.705c0.006,0.34,0.034,0.693,0.083,1.059
		s0.127,0.727,0.233,1.081s0.242,0.691,0.409,1.011s0.371,0.599,0.611,0.839s0.521,0.432,0.844,0.576s0.688,0.215,1.099,0.215
		c0.416,0,0.784-0.072,1.103-0.215s0.599-0.335,0.839-0.576s0.444-0.52,0.611-0.839s0.302-0.656,0.404-1.011s0.176-0.715,0.22-1.081
		s0.069-0.719,0.075-1.059V261.503z"/>
	<path d="M162.022,267.269c-0.316,0.521-0.734,0.929-1.252,1.222s-1.132,0.439-1.841,0.439c-0.527,0-0.992-0.085-1.393-0.255
		s-0.738-0.419-1.011-0.747s-0.48-0.729-0.624-1.204s-0.215-1.017-0.215-1.626v-5.854h1.046v5.871
		c0.012,0.955,0.205,1.679,0.58,2.171s0.955,0.738,1.74,0.738c0.791,0,1.433-0.182,1.925-0.545s0.835-0.855,1.028-1.477
		l-0.009-6.759h1.063v9.51h-0.984L162.022,267.269z"/>
	<path d="M169.95,256.81v2.435h3.524v0.861h-3.524v5.985c0.006,0.369,0.063,0.675,0.171,0.918s0.255,0.439,0.439,0.589
		s0.401,0.256,0.65,0.321s0.52,0.097,0.813,0.097s0.593-0.021,0.901-0.062s0.57-0.082,0.787-0.123l0.158,0.8
		c-0.252,0.1-0.56,0.174-0.923,0.224s-0.732,0.075-1.107,0.075c-0.422,0-0.812-0.051-1.169-0.154s-0.668-0.267-0.932-0.492
		s-0.472-0.519-0.624-0.879s-0.231-0.801-0.237-1.323v-5.977h-2.646v-0.861h2.646v-2.435H169.95z"/>
	<path d="M184.936,264.096c0,0.615-0.075,1.214-0.224,1.797s-0.378,1.099-0.686,1.547s-0.696,0.809-1.165,1.081
		s-1.025,0.409-1.67,0.409c-0.592,0-1.134-0.114-1.626-0.343s-0.905-0.56-1.239-0.993v4.816h-1.055v-13.166h0.984l0.044,1.301
		c0.334-0.469,0.744-0.832,1.23-1.09s1.034-0.387,1.644-0.387c0.65,0,1.213,0.133,1.688,0.4s0.864,0.624,1.169,1.072
		s0.532,0.964,0.681,1.547s0.224,1.191,0.224,1.824V264.096z M183.881,263.911c0-0.475-0.053-0.946-0.158-1.415
		s-0.275-0.889-0.51-1.261s-0.538-0.674-0.91-0.905s-0.828-0.347-1.367-0.347c-0.305,0-0.59,0.042-0.857,0.127
		s-0.51,0.205-0.729,0.36s-0.416,0.34-0.589,0.554s-0.318,0.45-0.435,0.708v4.711c0.246,0.492,0.598,0.882,1.055,1.169
		s0.981,0.431,1.573,0.431c0.533,0,0.986-0.117,1.358-0.352s0.674-0.538,0.905-0.91s0.4-0.794,0.505-1.266s0.158-0.945,0.158-1.419
		V263.911z"/>
	<path d="M194.428,267.269c-0.316,0.521-0.734,0.929-1.252,1.222s-1.132,0.439-1.841,0.439c-0.527,0-0.992-0.085-1.393-0.255
		s-0.738-0.419-1.011-0.747s-0.48-0.729-0.624-1.204s-0.215-1.017-0.215-1.626v-5.854h1.046v5.871
		c0.012,0.955,0.205,1.679,0.58,2.171s0.955,0.738,1.74,0.738c0.791,0,1.433-0.182,1.925-0.545s0.835-0.855,1.028-1.477
		l-0.009-6.759h1.063v9.51h-0.984L194.428,267.269z"/>
	<path d="M202.355,256.81v2.435h3.524v0.861h-3.524v5.985c0.006,0.369,0.063,0.675,0.171,0.918s0.255,0.439,0.439,0.589
		s0.401,0.256,0.65,0.321s0.52,0.097,0.813,0.097s0.593-0.021,0.901-0.062s0.57-0.082,0.787-0.123l0.158,0.8
		c-0.252,0.1-0.56,0.174-0.923,0.224s-0.732,0.075-1.107,0.075c-0.422,0-0.812-0.051-1.169-0.154s-0.668-0.267-0.932-0.492
		s-0.472-0.519-0.624-0.879s-0.231-0.801-0.237-1.323v-5.977h-2.646v-0.861h2.646v-2.435H202.355z"/>
	<path d="M216.286,266.337c0-0.293-0.073-0.548-0.22-0.765s-0.347-0.403-0.602-0.558s-0.549-0.286-0.883-0.391
		s-0.688-0.196-1.063-0.272c-0.457-0.094-0.899-0.207-1.327-0.338s-0.809-0.3-1.143-0.505s-0.601-0.456-0.8-0.751
		s-0.299-0.661-0.299-1.094c0-0.41,0.103-0.776,0.308-1.099s0.475-0.595,0.809-0.817s0.715-0.391,1.143-0.505
		s0.867-0.171,1.318-0.171c0.516,0,0.998,0.063,1.446,0.189s0.841,0.311,1.178,0.554s0.605,0.541,0.804,0.892
		s0.308,0.753,0.325,1.204h-1.055c-0.012-0.305-0.094-0.579-0.246-0.822s-0.354-0.447-0.606-0.611s-0.538-0.29-0.857-0.378
		s-0.649-0.132-0.989-0.132c-0.316,0-0.625,0.034-0.927,0.101s-0.571,0.17-0.809,0.308s-0.428,0.311-0.571,0.519
		s-0.215,0.453-0.215,0.734c-0.006,0.299,0.063,0.549,0.207,0.751s0.338,0.372,0.584,0.51s0.535,0.252,0.866,0.343
		s0.684,0.174,1.059,0.25c0.48,0.1,0.939,0.221,1.375,0.365s0.822,0.322,1.156,0.536s0.598,0.476,0.791,0.787s0.29,0.683,0.29,1.116
		c0,0.445-0.107,0.833-0.321,1.165s-0.495,0.606-0.844,0.826s-0.747,0.384-1.195,0.492s-0.91,0.163-1.384,0.163
		c-0.533,0-1.036-0.064-1.507-0.193s-0.888-0.315-1.248-0.558s-0.649-0.541-0.866-0.892s-0.334-0.75-0.352-1.195h1.055
		c0.035,0.375,0.148,0.688,0.338,0.94s0.425,0.453,0.703,0.602s0.582,0.255,0.91,0.316s0.65,0.092,0.967,0.092
		c0.322,0,0.643-0.034,0.962-0.101s0.606-0.17,0.861-0.308s0.463-0.313,0.624-0.527S216.28,266.636,216.286,266.337z"/>
</g>
<g>
	<rect x="405.521" y="317.772" fill="none" width="211.607" height="30.724"/>
	<path d="M469.814,318.476h7.409v0.949h-3.208v10.916h3.208v0.932h-7.409v-0.932h3.111v-10.916h-3.111V318.476z"/>
	<path d="M481.583,321.763l0.079,1.784c0.334-0.592,0.779-1.065,1.336-1.419s1.189-0.535,1.898-0.541
		c1.043,0,1.84,0.312,2.391,0.936s0.829,1.51,0.835,2.659v6.091h-1.055v-6.073c-0.006-0.873-0.205-1.542-0.598-2.008
		s-1.002-0.696-1.828-0.69c-0.34,0-0.664,0.056-0.971,0.167s-0.589,0.264-0.844,0.457s-0.48,0.422-0.677,0.686
		s-0.356,0.551-0.479,0.861v6.601h-1.055v-9.51H481.583z"/>
	<path d="M499.108,326.614c0,0.615-0.075,1.214-0.224,1.797s-0.378,1.099-0.686,1.547s-0.696,0.809-1.165,1.081
		s-1.025,0.409-1.67,0.409c-0.592,0-1.134-0.114-1.626-0.343s-0.905-0.56-1.239-0.993v4.816h-1.055v-13.166h0.984l0.044,1.301
		c0.334-0.469,0.744-0.832,1.23-1.09s1.034-0.387,1.644-0.387c0.65,0,1.213,0.133,1.688,0.4s0.864,0.624,1.169,1.072
		s0.532,0.964,0.681,1.547s0.224,1.191,0.224,1.824V326.614z M498.054,326.43c0-0.475-0.053-0.946-0.158-1.415
		s-0.275-0.889-0.51-1.261s-0.538-0.674-0.91-0.905s-0.828-0.347-1.367-0.347c-0.305,0-0.59,0.042-0.857,0.127
		s-0.51,0.205-0.729,0.36s-0.416,0.34-0.589,0.554s-0.318,0.45-0.435,0.708v4.711c0.246,0.492,0.598,0.882,1.055,1.169
		s0.981,0.431,1.573,0.431c0.533,0,0.986-0.117,1.358-0.352s0.674-0.538,0.905-0.91s0.4-0.794,0.505-1.266s0.158-0.945,0.158-1.419
		V326.43z"/>
	<path d="M508.601,329.787c-0.316,0.521-0.734,0.929-1.252,1.222s-1.132,0.439-1.841,0.439c-0.527,0-0.992-0.085-1.393-0.255
		s-0.738-0.419-1.011-0.747s-0.48-0.729-0.624-1.204s-0.215-1.017-0.215-1.626v-5.854h1.046v5.871
		c0.012,0.955,0.205,1.679,0.58,2.171s0.955,0.738,1.74,0.738c0.791,0,1.433-0.182,1.925-0.545s0.835-0.855,1.028-1.477
		l-0.009-6.759h1.063v9.51h-0.984L508.601,329.787z"/>
	<path d="M516.528,319.328v2.435h3.524v0.861h-3.524v5.985c0.006,0.369,0.063,0.675,0.171,0.918s0.255,0.439,0.439,0.589
		s0.401,0.256,0.65,0.321s0.52,0.097,0.813,0.097s0.593-0.021,0.901-0.062s0.57-0.082,0.787-0.123l0.158,0.8
		c-0.252,0.1-0.56,0.174-0.923,0.224s-0.732,0.075-1.107,0.075c-0.422,0-0.812-0.051-1.169-0.154s-0.668-0.267-0.932-0.492
		s-0.472-0.519-0.624-0.879s-0.231-0.801-0.237-1.323v-5.977h-2.646v-0.861h2.646v-2.435H516.528z"/>
	<path d="M535.574,321.763h4.482v9.51c0,0.598-0.081,1.134-0.242,1.608s-0.396,0.877-0.703,1.208s-0.684,0.584-1.129,0.76
		s-0.952,0.264-1.521,0.264c-0.334,0-0.64-0.01-0.918-0.031s-0.579-0.06-0.901-0.119l0.07-0.87c0.105,0.018,0.236,0.034,0.391,0.048
		s0.313,0.026,0.475,0.035s0.315,0.015,0.461,0.018s0.264,0.004,0.352,0.004c0.352,0,0.686-0.05,1.002-0.149
		s0.593-0.265,0.831-0.497s0.426-0.533,0.567-0.905s0.211-0.831,0.211-1.375v-8.569h-3.428V321.763z M538.659,319.152
		c0-0.217,0.06-0.403,0.18-0.558s0.324-0.233,0.611-0.233c0.281,0,0.486,0.078,0.615,0.233s0.193,0.341,0.193,0.558
		c0,0.205-0.064,0.385-0.193,0.541s-0.334,0.233-0.615,0.233c-0.287,0-0.491-0.078-0.611-0.233S538.659,319.357,538.659,319.152z"/>
	<path d="M548.969,322.826c0-0.246,0.081-0.456,0.242-0.628s0.379-0.259,0.655-0.259c0.281,0,0.502,0.086,0.664,0.259
		s0.242,0.382,0.242,0.628s-0.081,0.45-0.242,0.611s-0.382,0.242-0.664,0.242c-0.275,0-0.494-0.081-0.655-0.242
		S548.969,323.072,548.969,322.826z M548.969,330.525c0-0.246,0.081-0.456,0.242-0.628s0.379-0.259,0.655-0.259
		c0.281,0,0.502,0.086,0.664,0.259s0.242,0.382,0.242,0.628s-0.081,0.45-0.242,0.611s-0.382,0.242-0.664,0.242
		c-0.275,0-0.494-0.081-0.655-0.242S548.969,330.771,548.969,330.525z"/>
</g>
<g>
	<rect x="466.68" y="632.521" fill="none" width="115.32" height="59.611"/>
	<path d="M474.335,642.717c0.041-0.357-0.003-0.664-0.132-0.918c-0.129-0.256-0.306-0.475-0.532-0.66
		c-0.226-0.184-0.483-0.341-0.773-0.47s-0.573-0.246-0.848-0.352c-0.416-0.158-0.829-0.346-1.239-0.562s-0.775-0.474-1.094-0.769
		c-0.319-0.297-0.573-0.639-0.76-1.029c-0.188-0.389-0.267-0.839-0.237-1.349c0.035-0.557,0.188-1.058,0.457-1.503
		s0.614-0.823,1.033-1.134s0.886-0.545,1.402-0.703s1.034-0.231,1.556-0.22c0.551,0.012,1.058,0.117,1.521,0.316
		s0.86,0.471,1.191,0.812c0.331,0.344,0.587,0.748,0.769,1.213c0.182,0.467,0.264,0.975,0.246,1.525h-1.617
		c-0.018-0.34-0.072-0.658-0.163-0.953c-0.091-0.297-0.226-0.556-0.404-0.778s-0.401-0.399-0.668-0.532
		c-0.267-0.131-0.584-0.203-0.954-0.215c-0.316-0.006-0.63,0.039-0.94,0.137c-0.311,0.096-0.592,0.236-0.844,0.422
		c-0.252,0.184-0.461,0.41-0.628,0.676c-0.167,0.268-0.268,0.57-0.303,0.91s0.013,0.63,0.145,0.87s0.311,0.446,0.536,0.62
		c0.226,0.172,0.478,0.32,0.756,0.443s0.549,0.231,0.813,0.325c0.434,0.158,0.86,0.351,1.279,0.575
		c0.419,0.227,0.79,0.494,1.112,0.805s0.576,0.67,0.76,1.076c0.185,0.408,0.259,0.875,0.224,1.402
		c-0.041,0.574-0.202,1.082-0.483,1.525c-0.281,0.441-0.636,0.811-1.063,1.107c-0.428,0.295-0.905,0.517-1.433,0.663
		s-1.055,0.214-1.582,0.202c-0.562-0.006-1.088-0.104-1.578-0.295c-0.489-0.189-0.917-0.453-1.283-0.791
		c-0.366-0.336-0.652-0.742-0.857-1.217s-0.302-0.999-0.29-1.573h1.608c0.018,0.369,0.086,0.704,0.207,1.007
		c0.12,0.301,0.284,0.561,0.492,0.777s0.46,0.389,0.756,0.514c0.296,0.127,0.631,0.192,1.006,0.198
		c0.328,0.006,0.653-0.034,0.976-0.118c0.322-0.086,0.615-0.216,0.879-0.392s0.483-0.397,0.659-0.663
		C474.186,643.377,474.294,643.068,474.335,642.717z"/>
	<path d="M481.929,644.888c0.287,0.006,0.571-0.034,0.853-0.118c0.281-0.086,0.538-0.209,0.769-0.369
		c0.231-0.162,0.429-0.357,0.593-0.59c0.164-0.23,0.278-0.49,0.343-0.777l1.503-0.009c-0.053,0.486-0.211,0.927-0.475,1.323
		c-0.264,0.395-0.589,0.732-0.976,1.01c-0.387,0.279-0.814,0.492-1.283,0.643c-0.469,0.148-0.935,0.218-1.397,0.206
		c-0.668-0.018-1.236-0.161-1.705-0.431s-0.847-0.623-1.134-1.059c-0.287-0.438-0.483-0.937-0.589-1.499s-0.129-1.143-0.07-1.74
		l0.044-0.378c0.053-0.428,0.146-0.844,0.281-1.248s0.306-0.785,0.514-1.143s0.451-0.684,0.729-0.98
		c0.278-0.295,0.59-0.549,0.936-0.76s0.721-0.372,1.125-0.483s0.835-0.161,1.292-0.149c0.492,0.012,0.946,0.105,1.362,0.281
		s0.772,0.414,1.068,0.717c0.296,0.301,0.523,0.662,0.681,1.08c0.158,0.42,0.226,0.878,0.202,1.376l-1.494-0.009
		c0.012-0.293-0.023-0.565-0.105-0.817s-0.207-0.474-0.374-0.663c-0.167-0.191-0.371-0.342-0.611-0.453s-0.513-0.173-0.817-0.185
		c-0.486-0.018-0.916,0.071-1.288,0.269c-0.372,0.195-0.69,0.458-0.954,0.786s-0.476,0.7-0.637,1.116s-0.271,0.838-0.33,1.266
		l-0.044,0.369c-0.029,0.252-0.044,0.51-0.044,0.773s0.022,0.52,0.066,0.77c0.044,0.248,0.113,0.486,0.207,0.711
		c0.094,0.227,0.22,0.422,0.378,0.59c0.158,0.166,0.35,0.303,0.576,0.408S481.619,644.882,481.929,644.888z"/>
	<path d="M495.992,636.318c0.281,0.006,0.562,0.025,0.844,0.057c0.281,0.033,0.557,0.099,0.826,0.198l-0.404,1.582
		c-0.281-0.064-0.562-0.117-0.844-0.158s-0.565-0.064-0.853-0.07c-0.738-0.006-1.371,0.164-1.898,0.51s-0.967,0.838-1.318,1.477
		l-1.055,6.108h-1.591l1.644-9.51h1.512l-0.264,1.512c0.223-0.258,0.46-0.492,0.712-0.703s0.519-0.391,0.8-0.541
		c0.281-0.148,0.579-0.264,0.892-0.342C495.308,636.357,495.64,636.318,495.992,636.318z"/>
	<path d="M500.834,636.512h4.729l-1.406,8.104h3.015l-0.255,1.406h-7.734l0.255-1.406h3.129l1.16-6.688h-3.138L500.834,636.512z
		 M504.201,634.042c0.006-0.281,0.097-0.515,0.272-0.698c0.176-0.186,0.404-0.283,0.686-0.295c0.141-0.006,0.268,0.015,0.382,0.062
		s0.214,0.111,0.299,0.193s0.149,0.182,0.193,0.299s0.066,0.246,0.066,0.387c0,0.281-0.088,0.509-0.264,0.681
		c-0.176,0.174-0.404,0.266-0.686,0.277c-0.275,0.012-0.502-0.066-0.681-0.232C504.29,634.547,504.201,634.323,504.201,634.042z"/>
	<path d="M518.105,641.311c-0.07,0.586-0.209,1.174-0.417,1.762c-0.208,0.59-0.489,1.118-0.844,1.587s-0.787,0.847-1.296,1.134
		s-1.102,0.425-1.775,0.413c-0.48-0.012-0.935-0.104-1.362-0.276c-0.428-0.174-0.797-0.45-1.107-0.831l-0.853,4.579h-1.591
		l2.285-13.166l1.441-0.009l-0.167,1.046c0.369-0.404,0.784-0.711,1.244-0.918c0.46-0.209,0.968-0.307,1.525-0.295
		c0.434,0.012,0.812,0.088,1.134,0.229s0.599,0.33,0.831,0.566c0.231,0.238,0.419,0.512,0.562,0.822s0.252,0.642,0.325,0.993
		s0.116,0.714,0.127,1.085c0.012,0.373-0.003,0.737-0.044,1.095L518.105,641.311z M516.532,641.126
		c0.041-0.357,0.051-0.733,0.031-1.13c-0.021-0.395-0.098-0.76-0.233-1.094s-0.337-0.612-0.606-0.835s-0.633-0.34-1.09-0.352
		c-0.498-0.012-0.938,0.104-1.318,0.347c-0.381,0.244-0.718,0.559-1.011,0.945l-0.8,4.597c0.352,0.82,0.976,1.245,1.872,1.274
		c0.492,0.012,0.921-0.088,1.288-0.299s0.677-0.489,0.932-0.835s0.457-0.732,0.606-1.16s0.253-0.853,0.312-1.274L516.532,641.126z"
		/>
	<path d="M525.866,634.209l-0.404,2.303h3.516l-0.22,1.257h-3.516l-0.861,5.177c-0.029,0.258-0.028,0.498,0.004,0.721
		s0.098,0.416,0.198,0.58s0.242,0.296,0.426,0.396s0.417,0.152,0.699,0.158c0.322,0.012,0.643-0.012,0.962-0.07
		s0.637-0.123,0.954-0.193l0.149,1.169c-0.369,0.205-0.779,0.34-1.23,0.404s-0.885,0.091-1.301,0.079
		c-0.475-0.006-0.876-0.099-1.204-0.276c-0.328-0.18-0.592-0.416-0.791-0.713c-0.199-0.295-0.335-0.639-0.409-1.027
		c-0.073-0.391-0.089-0.802-0.048-1.235l0.861-5.168h-2.426l0.22-1.257h2.417l0.404-2.303H525.866z"/>
	<path d="M471.444,663.984l4.518-10.16h1.74l-5.915,12.797h-1.38l-1.925-12.797h1.652L471.444,663.984z"/>
	<path d="M483.959,666.621c-0.047-0.176-0.07-0.349-0.07-0.519s0.009-0.343,0.026-0.519c-0.416,0.369-0.869,0.665-1.358,0.888
		s-1.018,0.328-1.586,0.316c-0.398-0.006-0.775-0.073-1.129-0.202s-0.662-0.311-0.923-0.545s-0.463-0.519-0.606-0.853
		s-0.204-0.712-0.18-1.134c0.023-0.41,0.107-0.773,0.25-1.09s0.33-0.594,0.558-0.83c0.229-0.238,0.492-0.438,0.791-0.603
		s0.617-0.298,0.954-0.399c0.337-0.104,0.686-0.176,1.046-0.221c0.36-0.043,0.716-0.065,1.068-0.065l1.811,0.009l0.114-0.756
		c0.035-0.299,0.013-0.562-0.066-0.791s-0.201-0.422-0.365-0.58s-0.365-0.278-0.602-0.36s-0.5-0.126-0.787-0.132
		c-0.252-0.006-0.5,0.021-0.743,0.079s-0.466,0.149-0.668,0.272s-0.376,0.279-0.523,0.471c-0.146,0.189-0.249,0.417-0.308,0.681
		l-1.591,0.009c0.053-0.48,0.208-0.898,0.466-1.252c0.258-0.355,0.576-0.649,0.954-0.884s0.792-0.409,1.244-0.522
		c0.451-0.115,0.894-0.169,1.327-0.163c0.48,0.012,0.929,0.088,1.345,0.229s0.772,0.347,1.068,0.62
		c0.296,0.271,0.52,0.604,0.672,0.997s0.202,0.844,0.149,1.354l-0.738,4.421c-0.053,0.322-0.081,0.645-0.083,0.967
		s0.034,0.642,0.11,0.958l-0.018,0.149H483.959z M481.279,665.391c0.562,0.012,1.087-0.115,1.573-0.383
		c0.486-0.266,0.894-0.622,1.222-1.067l0.343-1.934l-1.362-0.009c-0.322,0-0.667,0.021-1.033,0.062s-0.71,0.126-1.033,0.255
		s-0.598,0.313-0.826,0.554s-0.366,0.557-0.413,0.949c-0.029,0.252-0.012,0.475,0.053,0.668s0.167,0.356,0.308,0.487
		c0.141,0.133,0.311,0.233,0.51,0.304S481.039,665.385,481.279,665.391z"/>
	<path d="M490.964,653.121h4.729l-2.101,12.094h3.015l-0.255,1.406h-7.734l0.255-1.406h3.129l1.854-10.679h-3.146L490.964,653.121z"
		/>
	<path d="M500.834,657.111h4.729l-1.406,8.104h3.015l-0.255,1.406h-7.734l0.255-1.406h3.129l1.16-6.688h-3.138L500.834,657.111z
		 M504.201,654.642c0.006-0.281,0.097-0.515,0.272-0.698c0.176-0.186,0.404-0.283,0.686-0.295c0.141-0.006,0.268,0.015,0.382,0.062
		s0.214,0.111,0.299,0.193s0.149,0.182,0.193,0.299s0.066,0.246,0.066,0.387c0,0.281-0.088,0.509-0.264,0.681
		c-0.176,0.174-0.404,0.266-0.686,0.277c-0.275,0.012-0.502-0.066-0.681-0.232C504.29,655.146,504.201,654.923,504.201,654.642z"/>
	<path d="M510.045,661.849c0.047-0.393,0.126-0.788,0.237-1.187s0.255-0.782,0.431-1.151s0.385-0.712,0.628-1.028
		s0.519-0.592,0.826-0.826s0.652-0.416,1.033-0.545s0.797-0.188,1.248-0.176c0.475,0.012,0.917,0.105,1.327,0.281
		s0.765,0.457,1.063,0.844l0.914-4.939h1.591l-2.347,13.5h-1.441l0.167-1.002c-0.369,0.393-0.781,0.689-1.235,0.893
		c-0.454,0.201-0.954,0.297-1.499,0.285c-0.41-0.012-0.775-0.09-1.094-0.232c-0.319-0.145-0.595-0.336-0.826-0.576
		s-0.422-0.518-0.571-0.83c-0.149-0.314-0.265-0.645-0.347-0.994c-0.082-0.348-0.132-0.704-0.149-1.067s-0.009-0.718,0.026-1.063
		L510.045,661.849z M511.61,662.033c-0.029,0.234-0.044,0.48-0.044,0.738s0.019,0.512,0.057,0.76c0.038,0.25,0.098,0.485,0.18,0.708
		s0.196,0.421,0.343,0.593c0.146,0.174,0.328,0.312,0.545,0.418s0.475,0.161,0.773,0.167c0.521,0.018,0.977-0.103,1.367-0.36
		s0.731-0.589,1.024-0.993l0.765-4.438c-0.17-0.404-0.412-0.723-0.725-0.953c-0.313-0.232-0.696-0.354-1.147-0.365
		c-0.492-0.018-0.92,0.079-1.283,0.29s-0.671,0.487-0.923,0.831c-0.252,0.342-0.453,0.727-0.602,1.15
		c-0.149,0.426-0.25,0.849-0.303,1.271L511.61,662.033z"/>
	<path d="M526.217,666.621c-0.047-0.176-0.07-0.349-0.07-0.519s0.009-0.343,0.026-0.519c-0.416,0.369-0.869,0.665-1.358,0.888
		s-1.018,0.328-1.586,0.316c-0.398-0.006-0.775-0.073-1.129-0.202s-0.662-0.311-0.923-0.545s-0.463-0.519-0.606-0.853
		s-0.204-0.712-0.18-1.134c0.023-0.41,0.107-0.773,0.25-1.09s0.33-0.594,0.558-0.83c0.229-0.238,0.492-0.438,0.791-0.603
		s0.617-0.298,0.954-0.399c0.337-0.104,0.686-0.176,1.046-0.221c0.36-0.043,0.716-0.065,1.068-0.065l1.811,0.009l0.114-0.756
		c0.035-0.299,0.013-0.562-0.066-0.791s-0.201-0.422-0.365-0.58s-0.365-0.278-0.602-0.36s-0.5-0.126-0.787-0.132
		c-0.252-0.006-0.5,0.021-0.743,0.079s-0.466,0.149-0.668,0.272s-0.376,0.279-0.523,0.471c-0.146,0.189-0.249,0.417-0.308,0.681
		l-1.591,0.009c0.053-0.48,0.208-0.898,0.466-1.252c0.258-0.355,0.576-0.649,0.954-0.884s0.792-0.409,1.244-0.522
		c0.451-0.115,0.894-0.169,1.327-0.163c0.48,0.012,0.929,0.088,1.345,0.229s0.772,0.347,1.068,0.62
		c0.296,0.271,0.52,0.604,0.672,0.997s0.202,0.844,0.149,1.354l-0.738,4.421c-0.053,0.322-0.081,0.645-0.083,0.967
		s0.034,0.642,0.11,0.958l-0.018,0.149H526.217z M523.537,665.391c0.562,0.012,1.087-0.115,1.573-0.383
		c0.486-0.266,0.894-0.622,1.222-1.067l0.343-1.934l-1.362-0.009c-0.322,0-0.667,0.021-1.033,0.062s-0.71,0.126-1.033,0.255
		s-0.598,0.313-0.826,0.554s-0.366,0.557-0.413,0.949c-0.029,0.252-0.012,0.475,0.053,0.668s0.167,0.356,0.308,0.487
		c0.141,0.133,0.311,0.233,0.51,0.304S523.296,665.385,523.537,665.391z"/>
	<path d="M536.43,654.809l-0.404,2.303h3.516l-0.22,1.257h-3.516l-0.861,5.177c-0.029,0.258-0.028,0.498,0.004,0.721
		s0.098,0.416,0.198,0.58s0.242,0.296,0.426,0.396s0.417,0.152,0.699,0.158c0.322,0.012,0.643-0.012,0.962-0.07
		s0.637-0.123,0.954-0.193l0.149,1.169c-0.369,0.205-0.779,0.34-1.23,0.404s-0.885,0.091-1.301,0.079
		c-0.475-0.006-0.876-0.099-1.204-0.276c-0.328-0.18-0.592-0.416-0.791-0.713c-0.199-0.295-0.335-0.639-0.409-1.027
		c-0.073-0.391-0.089-0.802-0.048-1.235l0.861-5.168h-2.426l0.22-1.257h2.417l0.404-2.303H536.43z"/>
	<path d="M543.092,657.111h4.729l-1.406,8.104h3.015l-0.255,1.406h-7.734l0.255-1.406h3.129l1.16-6.688h-3.138L543.092,657.111z
		 M546.458,654.642c0.006-0.281,0.097-0.515,0.272-0.698c0.176-0.186,0.404-0.283,0.686-0.295c0.141-0.006,0.268,0.015,0.382,0.062
		s0.214,0.111,0.299,0.193s0.149,0.182,0.193,0.299s0.066,0.246,0.066,0.387c0,0.281-0.088,0.509-0.264,0.681
		c-0.176,0.174-0.404,0.266-0.686,0.277c-0.275,0.012-0.502-0.066-0.681-0.232C546.548,655.146,546.458,654.923,546.458,654.642z"/>
	<path d="M552.163,661.84c0.053-0.428,0.145-0.848,0.277-1.262c0.132-0.412,0.3-0.803,0.505-1.168
		c0.205-0.367,0.447-0.703,0.725-1.012c0.278-0.307,0.589-0.57,0.932-0.791c0.343-0.219,0.718-0.389,1.125-0.51
		c0.407-0.119,0.845-0.174,1.314-0.162c0.668,0.018,1.238,0.166,1.709,0.443c0.472,0.279,0.851,0.643,1.138,1.09
		c0.287,0.449,0.485,0.959,0.593,1.529c0.108,0.572,0.13,1.156,0.066,1.754l-0.018,0.202c-0.082,0.639-0.253,1.254-0.514,1.846
		s-0.599,1.112-1.015,1.56c-0.416,0.449-0.907,0.805-1.472,1.068s-1.194,0.387-1.885,0.369c-0.662-0.018-1.229-0.162-1.701-0.436
		c-0.472-0.271-0.851-0.631-1.138-1.076s-0.486-0.949-0.598-1.512s-0.135-1.143-0.07-1.74L552.163,661.84z M553.727,662.033
		c-0.029,0.246-0.042,0.501-0.04,0.765s0.026,0.521,0.07,0.773s0.113,0.492,0.207,0.721s0.22,0.429,0.378,0.603
		c0.158,0.172,0.35,0.312,0.576,0.417s0.491,0.164,0.795,0.176c0.486,0.018,0.917-0.079,1.292-0.29s0.696-0.486,0.962-0.826
		s0.479-0.723,0.637-1.146c0.158-0.426,0.27-0.849,0.334-1.271l0.018-0.193c0.041-0.369,0.048-0.756,0.022-1.16
		s-0.113-0.778-0.259-1.12c-0.146-0.344-0.36-0.627-0.642-0.854c-0.281-0.225-0.65-0.347-1.107-0.364
		c-0.492-0.018-0.926,0.081-1.301,0.294c-0.375,0.215-0.694,0.494-0.958,0.84s-0.475,0.734-0.633,1.164
		c-0.158,0.432-0.267,0.857-0.325,1.279L553.727,662.033z"/>
	<path d="M565.39,657.103l-0.202,1.415c0.193-0.234,0.404-0.451,0.633-0.65s0.472-0.369,0.729-0.51s0.53-0.248,0.817-0.32
		c0.287-0.074,0.589-0.107,0.905-0.102c0.533,0.012,0.981,0.117,1.345,0.316s0.652,0.465,0.866,0.795
		c0.214,0.332,0.357,0.717,0.431,1.156s0.083,0.899,0.031,1.38l-1.011,6.038h-1.591l1.011-6.012
		c0.035-0.322,0.037-0.621,0.004-0.896s-0.111-0.516-0.237-0.721s-0.303-0.367-0.532-0.488c-0.229-0.119-0.519-0.183-0.87-0.188
		c-0.275-0.006-0.538,0.028-0.787,0.101c-0.249,0.074-0.482,0.176-0.699,0.309c-0.217,0.131-0.42,0.289-0.611,0.475
		c-0.19,0.184-0.365,0.382-0.523,0.593l-1.187,6.829h-1.591l1.652-9.51L565.39,657.103z"/>
</g>
<g>
	<rect x="405.521" y="192.074" fill="none" width="211.607" height="30.724"/>
	<path d="M459.711,202.234c0-0.229-0.04-0.442-0.119-0.642s-0.214-0.385-0.404-0.558s-0.439-0.331-0.747-0.475
		s-0.69-0.277-1.147-0.4c-0.557-0.152-1.088-0.343-1.595-0.571s-0.954-0.504-1.34-0.826s-0.696-0.697-0.927-1.125
		s-0.347-0.92-0.347-1.477c0-0.539,0.114-1.028,0.343-1.468s0.545-0.814,0.949-1.125s0.882-0.549,1.433-0.716s1.148-0.25,1.793-0.25
		c0.668,0,1.279,0.097,1.833,0.29s1.03,0.464,1.428,0.813s0.709,0.763,0.932,1.244s0.334,1.008,0.334,1.582h-2.408
		c-0.012-0.287-0.063-0.551-0.154-0.791s-0.226-0.447-0.404-0.62s-0.401-0.308-0.668-0.404s-0.579-0.145-0.936-0.145
		c-0.328,0-0.62,0.04-0.875,0.119s-0.47,0.19-0.646,0.334s-0.309,0.313-0.4,0.51s-0.136,0.409-0.136,0.637
		c0,0.24,0.06,0.457,0.18,0.65s0.294,0.368,0.523,0.523s0.505,0.297,0.831,0.426s0.693,0.249,1.103,0.36
		c0.586,0.17,1.125,0.378,1.617,0.624s0.916,0.538,1.27,0.875s0.63,0.721,0.826,1.151s0.294,0.91,0.294,1.437
		c0,0.562-0.113,1.062-0.338,1.499s-0.538,0.806-0.936,1.107s-0.873,0.53-1.424,0.686s-1.151,0.233-1.802,0.233
		c-0.404,0-0.807-0.037-1.208-0.11s-0.785-0.186-1.151-0.338s-0.708-0.343-1.024-0.571s-0.59-0.495-0.822-0.8
		s-0.413-0.65-0.545-1.037s-0.198-0.814-0.198-1.283h2.426c0.012,0.387,0.079,0.718,0.202,0.993s0.294,0.501,0.514,0.677
		s0.483,0.305,0.791,0.387s0.646,0.123,1.015,0.123c0.328,0,0.62-0.038,0.875-0.114s0.47-0.182,0.646-0.316s0.311-0.297,0.404-0.488
		S459.711,202.463,459.711,202.234z"/>
	<path d="M472.499,200.907c0,0.691-0.081,1.333-0.242,1.925s-0.398,1.103-0.712,1.534s-0.702,0.769-1.165,1.015
		s-0.993,0.369-1.591,0.369c-0.51,0-0.958-0.088-1.345-0.264s-0.724-0.422-1.011-0.738v4.482h-2.443v-13.166h2.259l0.088,0.932
		c0.293-0.352,0.639-0.624,1.037-0.817s0.864-0.29,1.397-0.29c0.604,0,1.137,0.116,1.6,0.347s0.853,0.56,1.169,0.984
		s0.555,0.935,0.716,1.529s0.242,1.252,0.242,1.973V200.907z M470.056,200.723c0-0.398-0.037-0.772-0.11-1.121
		s-0.188-0.65-0.343-0.905s-0.354-0.456-0.598-0.602s-0.538-0.22-0.883-0.22c-0.428,0-0.778,0.083-1.05,0.25
		s-0.485,0.403-0.637,0.708v3.973c0.152,0.299,0.365,0.538,0.637,0.716s0.628,0.268,1.068,0.268c0.346,0,0.64-0.076,0.883-0.229
		s0.441-0.36,0.593-0.624s0.264-0.57,0.334-0.918s0.105-0.719,0.105-1.112V200.723z"/>
	<path d="M479.372,205.75c-0.732,0-1.397-0.12-1.995-0.36s-1.11-0.567-1.538-0.98s-0.757-0.899-0.989-1.459
		s-0.347-1.159-0.347-1.797v-0.352c0-0.727,0.114-1.39,0.343-1.991s0.548-1.118,0.958-1.551s0.896-0.771,1.459-1.011
		s1.175-0.36,1.837-0.36c0.686,0,1.296,0.113,1.833,0.338s0.99,0.543,1.362,0.954s0.655,0.904,0.848,1.481s0.29,1.214,0.29,1.912
		v1.037h-6.451c0.047,0.322,0.142,0.617,0.286,0.883s0.327,0.497,0.549,0.69s0.478,0.343,0.765,0.448s0.601,0.158,0.94,0.158
		c0.24,0,0.479-0.023,0.716-0.07s0.464-0.116,0.681-0.207s0.419-0.204,0.606-0.338s0.352-0.293,0.492-0.475l1.222,1.318
		c-0.152,0.217-0.35,0.429-0.593,0.637s-0.53,0.393-0.861,0.554s-0.699,0.292-1.103,0.391S479.841,205.75,479.372,205.75z
		 M479.082,197.866c-0.275,0-0.527,0.048-0.756,0.145s-0.429,0.236-0.602,0.417s-0.318,0.398-0.435,0.65s-0.205,0.533-0.264,0.844
		h4.008v-0.193c-0.012-0.258-0.062-0.501-0.149-0.729s-0.214-0.426-0.378-0.593s-0.365-0.299-0.602-0.396
		S479.393,197.866,479.082,197.866z"/>
	<path d="M487.774,196.064l0.149,1.318c0.34-0.475,0.753-0.842,1.239-1.103s1.025-0.391,1.617-0.391c0.48,0,0.92,0.07,1.318,0.211
		s0.743,0.365,1.033,0.672s0.516,0.703,0.677,1.187s0.242,1.071,0.242,1.762v5.854h-2.443v-5.818c0-0.375-0.042-0.684-0.127-0.927
		s-0.207-0.435-0.365-0.576s-0.349-0.239-0.571-0.294s-0.475-0.083-0.756-0.083c-0.416,0-0.771,0.083-1.063,0.25
		s-0.53,0.397-0.712,0.69v6.759h-2.452v-9.51H487.774z"/>
	<path d="M496.106,200.749c0-0.721,0.083-1.38,0.25-1.978s0.412-1.11,0.734-1.538s0.713-0.759,1.173-0.993s0.986-0.352,1.578-0.352
		c0.498,0,0.936,0.089,1.314,0.268s0.713,0.432,1.006,0.76v-4.843h2.452v13.5h-2.206l-0.123-0.993
		c-0.299,0.369-0.65,0.656-1.055,0.861s-0.873,0.308-1.406,0.308c-0.58,0-1.1-0.122-1.56-0.365s-0.85-0.579-1.169-1.006
		s-0.564-0.936-0.734-1.525s-0.255-1.229-0.255-1.92V200.749z M498.55,200.934c0,0.398,0.034,0.769,0.101,1.112
		s0.177,0.642,0.33,0.896s0.349,0.456,0.589,0.602s0.533,0.22,0.879,0.22c0.422,0,0.772-0.091,1.05-0.272s0.5-0.431,0.664-0.747
		v-3.85c-0.164-0.322-0.384-0.573-0.659-0.751s-0.621-0.268-1.037-0.268c-0.346,0-0.64,0.075-0.883,0.224s-0.441,0.354-0.593,0.615
		s-0.264,0.565-0.334,0.914s-0.105,0.722-0.105,1.121V200.934z"/>
	<path d="M507.813,196.064h5.177v7.523h2.575v1.986h-7.752v-1.986h2.707v-5.528h-2.707V196.064z M510.345,193.63
		c0-0.188,0.034-0.362,0.101-0.523s0.163-0.299,0.286-0.413s0.271-0.204,0.444-0.268s0.365-0.097,0.576-0.097
		c0.434,0,0.778,0.122,1.033,0.365s0.382,0.555,0.382,0.936s-0.127,0.693-0.382,0.936s-0.599,0.365-1.033,0.365
		c-0.211,0-0.403-0.032-0.576-0.097s-0.321-0.154-0.444-0.268s-0.218-0.252-0.286-0.413S510.345,193.817,510.345,193.63z"/>
	<path d="M520.18,196.064l0.149,1.318c0.34-0.475,0.753-0.842,1.239-1.103s1.025-0.391,1.617-0.391c0.48,0,0.92,0.07,1.318,0.211
		s0.743,0.365,1.033,0.672s0.516,0.703,0.677,1.187s0.242,1.071,0.242,1.762v5.854h-2.443v-5.818c0-0.375-0.042-0.684-0.127-0.927
		s-0.207-0.435-0.365-0.576s-0.349-0.239-0.571-0.294s-0.475-0.083-0.756-0.083c-0.416,0-0.771,0.083-1.063,0.25
		s-0.53,0.397-0.712,0.69v6.759h-2.452v-9.51H520.18z"/>
	<path d="M528.521,200.749c0-0.721,0.089-1.38,0.268-1.978s0.435-1.11,0.769-1.538s0.738-0.759,1.213-0.993s1.011-0.352,1.608-0.352
		c0.557,0,1.034,0.094,1.433,0.281s0.738,0.454,1.02,0.8l0.097-0.905h2.224v9.202c0,0.645-0.11,1.219-0.33,1.723
		s-0.527,0.929-0.923,1.274s-0.87,0.608-1.424,0.787s-1.165,0.268-1.833,0.268c-0.287,0-0.595-0.029-0.923-0.088
		s-0.653-0.149-0.976-0.272s-0.627-0.28-0.914-0.47s-0.533-0.417-0.738-0.681l1.099-1.485c0.311,0.352,0.662,0.62,1.055,0.804
		s0.817,0.277,1.274,0.277c0.686,0,1.22-0.183,1.604-0.549s0.576-0.886,0.576-1.56v-0.545c-0.287,0.316-0.623,0.562-1.006,0.738
		s-0.828,0.264-1.332,0.264c-0.592,0-1.124-0.122-1.595-0.365s-0.875-0.579-1.208-1.006s-0.59-0.936-0.769-1.525
		s-0.268-1.229-0.268-1.92V200.749z M530.973,200.934c0,0.398,0.04,0.769,0.119,1.112s0.201,0.642,0.365,0.896
		s0.372,0.456,0.624,0.602s0.551,0.22,0.896,0.22c0.428,0,0.781-0.082,1.059-0.246s0.5-0.393,0.664-0.686v-4.025
		c-0.164-0.299-0.385-0.529-0.664-0.69s-0.625-0.242-1.042-0.242c-0.346,0-0.645,0.075-0.896,0.224s-0.461,0.354-0.628,0.615
		s-0.292,0.565-0.374,0.914s-0.123,0.722-0.123,1.121V200.934z"/>
	<path d="M559.687,194.79h-3.946v10.784h-2.479V194.79h-3.894v-2.013h10.318V194.79z"/>
	<path d="M565.417,197.365l2.276-4.588h2.9l-3.604,6.346l3.691,6.451h-2.883l-2.347-4.658l-2.338,4.658h-2.918l3.691-6.451
		l-3.595-6.346h2.883L565.417,197.365z"/>
</g>
<g>
	<rect x="404.793" y="255.254" fill="none" width="213.064" height="35.756"/>
	<path d="M480.616,255.957h7.409v0.949h-3.208v10.916h3.208v0.932h-7.409v-0.932h3.111v-10.916h-3.111V255.957z"/>
	<path d="M492.385,259.244l0.079,1.784c0.334-0.592,0.779-1.065,1.336-1.419s1.189-0.535,1.898-0.541
		c1.043,0,1.84,0.312,2.391,0.936s0.829,1.51,0.835,2.659v6.091h-1.055v-6.073c-0.006-0.873-0.205-1.542-0.598-2.008
		s-1.002-0.696-1.828-0.69c-0.34,0-0.664,0.056-0.971,0.167s-0.589,0.264-0.844,0.457s-0.48,0.422-0.677,0.686
		s-0.356,0.551-0.479,0.861v6.601h-1.055v-9.51H492.385z"/>
	<path d="M509.91,264.096c0,0.615-0.075,1.214-0.224,1.797s-0.378,1.099-0.686,1.547s-0.696,0.809-1.165,1.081
		s-1.025,0.409-1.67,0.409c-0.592,0-1.134-0.114-1.626-0.343s-0.905-0.56-1.239-0.993v4.816h-1.055v-13.166h0.984l0.044,1.301
		c0.334-0.469,0.744-0.832,1.23-1.09s1.034-0.387,1.644-0.387c0.65,0,1.213,0.133,1.688,0.4s0.864,0.624,1.169,1.072
		s0.532,0.964,0.681,1.547s0.224,1.191,0.224,1.824V264.096z M508.855,263.911c0-0.475-0.053-0.946-0.158-1.415
		s-0.275-0.889-0.51-1.261s-0.538-0.674-0.91-0.905s-0.828-0.347-1.367-0.347c-0.305,0-0.59,0.042-0.857,0.127
		s-0.51,0.205-0.729,0.36s-0.416,0.34-0.589,0.554s-0.318,0.45-0.435,0.708v4.711c0.246,0.492,0.598,0.882,1.055,1.169
		s0.981,0.431,1.573,0.431c0.533,0,0.986-0.117,1.358-0.352s0.674-0.538,0.905-0.91s0.4-0.794,0.505-1.266s0.158-0.945,0.158-1.419
		V263.911z"/>
	<path d="M519.402,267.269c-0.316,0.521-0.734,0.929-1.252,1.222s-1.132,0.439-1.841,0.439c-0.527,0-0.992-0.085-1.393-0.255
		s-0.738-0.419-1.011-0.747s-0.48-0.729-0.624-1.204s-0.215-1.017-0.215-1.626v-5.854h1.046v5.871
		c0.012,0.955,0.205,1.679,0.58,2.171s0.955,0.738,1.74,0.738c0.791,0,1.433-0.182,1.925-0.545s0.835-0.855,1.028-1.477
		l-0.009-6.759h1.063v9.51h-0.984L519.402,267.269z"/>
	<path d="M527.33,256.81v2.435h3.524v0.861h-3.524v5.985c0.006,0.369,0.063,0.675,0.171,0.918s0.255,0.439,0.439,0.589
		s0.401,0.256,0.65,0.321s0.52,0.097,0.813,0.097s0.593-0.021,0.901-0.062s0.57-0.082,0.787-0.123l0.158,0.8
		c-0.252,0.1-0.56,0.174-0.923,0.224s-0.732,0.075-1.107,0.075c-0.422,0-0.812-0.051-1.169-0.154s-0.668-0.267-0.932-0.492
		s-0.472-0.519-0.624-0.879s-0.231-0.801-0.237-1.323v-5.977h-2.646v-0.861h2.646v-2.435H527.33z"/>
	<path d="M541.261,266.337c0-0.293-0.073-0.548-0.22-0.765s-0.347-0.403-0.602-0.558s-0.549-0.286-0.883-0.391
		s-0.688-0.196-1.063-0.272c-0.457-0.094-0.899-0.207-1.327-0.338s-0.809-0.3-1.143-0.505s-0.601-0.456-0.8-0.751
		s-0.299-0.661-0.299-1.094c0-0.41,0.103-0.776,0.308-1.099s0.475-0.595,0.809-0.817s0.715-0.391,1.143-0.505
		s0.867-0.171,1.318-0.171c0.516,0,0.998,0.063,1.446,0.189s0.841,0.311,1.178,0.554s0.605,0.541,0.804,0.892
		s0.308,0.753,0.325,1.204h-1.055c-0.012-0.305-0.094-0.579-0.246-0.822s-0.354-0.447-0.606-0.611s-0.538-0.29-0.857-0.378
		s-0.649-0.132-0.989-0.132c-0.316,0-0.625,0.034-0.927,0.101s-0.571,0.17-0.809,0.308s-0.428,0.311-0.571,0.519
		s-0.215,0.453-0.215,0.734c-0.006,0.299,0.063,0.549,0.207,0.751s0.338,0.372,0.584,0.51s0.535,0.252,0.866,0.343
		s0.684,0.174,1.059,0.25c0.48,0.1,0.939,0.221,1.375,0.365s0.822,0.322,1.156,0.536s0.598,0.476,0.791,0.787s0.29,0.683,0.29,1.116
		c0,0.445-0.107,0.833-0.321,1.165s-0.495,0.606-0.844,0.826s-0.747,0.384-1.195,0.492s-0.91,0.163-1.384,0.163
		c-0.533,0-1.036-0.064-1.507-0.193s-0.888-0.315-1.248-0.558s-0.649-0.541-0.866-0.892s-0.334-0.75-0.352-1.195h1.055
		c0.035,0.375,0.148,0.688,0.338,0.94s0.425,0.453,0.703,0.602s0.582,0.255,0.91,0.316s0.65,0.092,0.967,0.092
		c0.322,0,0.643-0.034,0.962-0.101s0.606-0.17,0.861-0.308s0.463-0.313,0.624-0.527S541.255,266.636,541.261,266.337z"/>
</g>
<g enable-background="new    ">
	<path fill="none" stroke="#2D4E6E" stroke-width="2" stroke-miterlimit="10" stroke-dasharray="6,6" d="M80,537h212.096
		c4.133,0,7.904-3.565,7.904-7.699v-291.2c0-4.133-3.771-7.101-7.904-7.101H80"/>
</g>
<g>
	<g enable-background="new    ">
		<path fill="#C8D7E3" d="M426,685c0,3.313-2.687,6-6,6H276c-3.313,0-6-2.687-6-6v-14c0-3.313,2.687-6,6-6h144c3.313,0,6,2.687,6,6
			V685z"/>
	</g>
	<g>
		<rect x="252.305" y="670.604" fill="none" width="191.279" height="20.579"/>
		<path d="M285.387,678.971c0,0.854-0.113,1.641-0.338,2.359s-0.552,1.338-0.979,1.856s-0.946,0.922-1.559,1.212
			c-0.613,0.289-1.303,0.434-2.071,0.434c-0.768,0-1.451-0.145-2.048-0.434c-0.598-0.29-1.101-0.695-1.509-1.217
			c-0.409-0.521-0.72-1.14-0.933-1.855c-0.214-0.717-0.32-1.502-0.32-2.355v-1.938c0-0.854,0.106-1.641,0.32-2.359
			c0.213-0.72,0.524-1.34,0.933-1.861c0.408-0.521,0.91-0.928,1.504-1.221c0.595-0.293,1.276-0.439,2.044-0.439
			c0.774,0,1.467,0.146,2.08,0.439s1.132,0.699,1.559,1.221s0.753,1.142,0.979,1.861c0.226,0.719,0.338,1.506,0.338,2.359V678.971z
			 M282.781,677.014c0-0.542-0.044-1.042-0.133-1.499s-0.227-0.851-0.416-1.18s-0.431-0.587-0.727-0.772s-0.654-0.279-1.074-0.279
			c-0.415,0-0.762,0.094-1.042,0.279c-0.281,0.186-0.506,0.443-0.677,0.772c-0.171,0.329-0.292,0.723-0.366,1.18
			s-0.11,0.957-0.11,1.499v1.957c0,0.537,0.037,1.033,0.11,1.49s0.195,0.854,0.366,1.189c0.17,0.335,0.396,0.598,0.677,0.786
			c0.28,0.188,0.631,0.284,1.051,0.284c0.415,0,0.77-0.096,1.065-0.284s0.537-0.449,0.723-0.782
			c0.186-0.332,0.324-0.727,0.416-1.184c0.091-0.457,0.137-0.957,0.137-1.5V677.014z"/>
		<path d="M293.735,683.26c-0.335,0.494-0.739,0.881-1.211,1.161c-0.473,0.28-0.989,0.421-1.55,0.421
			c-0.512,0-0.981-0.08-1.408-0.238c-0.427-0.158-0.793-0.41-1.098-0.754c-0.305-0.345-0.541-0.783-0.708-1.316
			c-0.168-0.534-0.251-1.176-0.251-1.926v-5.852h2.542v5.87c0,0.402,0.029,0.741,0.087,1.015c0.058,0.275,0.151,0.496,0.279,0.664
			c0.128,0.167,0.296,0.287,0.503,0.36s0.46,0.11,0.759,0.11c0.506,0,0.917-0.097,1.235-0.289c0.317-0.191,0.558-0.455,0.722-0.791
			v-6.939h2.551v9.894h-2.304L293.735,683.26z"/>
		<path d="M303.327,672.332v2.424h3.694v1.875h-3.694v4.252c0,0.359,0.041,0.659,0.124,0.9c0.083,0.24,0.2,0.433,0.352,0.576
			c0.152,0.143,0.337,0.245,0.553,0.306c0.216,0.062,0.458,0.092,0.727,0.092c0.195,0,0.395-0.009,0.599-0.028
			c0.204-0.018,0.399-0.041,0.585-0.068s0.359-0.056,0.521-0.086c0.162-0.031,0.3-0.062,0.416-0.092l0.247,1.746
			c-0.177,0.104-0.384,0.193-0.622,0.27c-0.238,0.076-0.491,0.139-0.759,0.188s-0.547,0.088-0.836,0.115s-0.575,0.041-0.855,0.041
			c-0.543,0-1.035-0.072-1.477-0.215c-0.442-0.144-0.82-0.366-1.134-0.668s-0.556-0.686-0.727-1.152
			c-0.17-0.467-0.256-1.025-0.256-1.678v-4.498h-2.258v-1.875h2.258v-2.424H303.327z"/>
		<path d="M318.789,679.794c0,0.72-0.084,1.387-0.251,2.003c-0.168,0.615-0.415,1.146-0.741,1.596
			c-0.326,0.447-0.73,0.8-1.211,1.056c-0.482,0.256-1.033,0.384-1.655,0.384c-0.53,0-0.997-0.092-1.399-0.273
			c-0.402-0.184-0.753-0.439-1.052-0.769v4.663h-2.542v-13.697h2.35l0.091,0.969c0.305-0.365,0.665-0.648,1.079-0.85
			s0.899-0.303,1.454-0.303c0.627,0,1.183,0.121,1.664,0.361c0.481,0.241,0.887,0.582,1.216,1.024s0.577,0.973,0.745,1.591
			c0.167,0.619,0.251,1.303,0.251,2.053V679.794z M316.247,679.602c0-0.414-0.038-0.803-0.114-1.166
			c-0.076-0.362-0.195-0.676-0.357-0.941c-0.161-0.266-0.369-0.474-0.622-0.627c-0.253-0.151-0.56-0.229-0.919-0.229
			c-0.445,0-0.809,0.088-1.093,0.262c-0.283,0.174-0.504,0.419-0.663,0.736v4.133c0.159,0.311,0.38,0.559,0.663,0.744
			c0.284,0.187,0.654,0.279,1.111,0.279c0.36,0,0.666-0.079,0.919-0.237c0.253-0.159,0.459-0.375,0.618-0.649
			c0.158-0.274,0.274-0.593,0.347-0.955c0.073-0.363,0.11-0.748,0.11-1.157V679.602z"/>
		<path d="M327.448,683.26c-0.335,0.494-0.739,0.881-1.211,1.161c-0.473,0.28-0.989,0.421-1.55,0.421
			c-0.512,0-0.981-0.08-1.408-0.238c-0.427-0.158-0.793-0.41-1.098-0.754c-0.305-0.345-0.541-0.783-0.708-1.316
			c-0.168-0.534-0.251-1.176-0.251-1.926v-5.852h2.542v5.87c0,0.402,0.029,0.741,0.087,1.015c0.058,0.275,0.151,0.496,0.279,0.664
			c0.128,0.167,0.296,0.287,0.503,0.36s0.46,0.11,0.759,0.11c0.506,0,0.917-0.097,1.235-0.289c0.317-0.191,0.558-0.455,0.722-0.791
			v-6.939h2.551v9.894h-2.304L327.448,683.26z"/>
		<path d="M337.04,672.332v2.424h3.694v1.875h-3.694v4.252c0,0.359,0.041,0.659,0.124,0.9c0.083,0.24,0.2,0.433,0.352,0.576
			c0.152,0.143,0.337,0.245,0.553,0.306c0.216,0.062,0.458,0.092,0.727,0.092c0.195,0,0.395-0.009,0.599-0.028
			c0.204-0.018,0.399-0.041,0.585-0.068s0.359-0.056,0.521-0.086c0.162-0.031,0.3-0.062,0.416-0.092l0.247,1.746
			c-0.177,0.104-0.384,0.193-0.622,0.27c-0.238,0.076-0.491,0.139-0.759,0.188s-0.547,0.088-0.836,0.115s-0.575,0.041-0.855,0.041
			c-0.543,0-1.035-0.072-1.477-0.215c-0.442-0.144-0.82-0.366-1.134-0.668s-0.556-0.686-0.727-1.152
			c-0.17-0.467-0.256-1.025-0.256-1.678v-4.498h-2.258v-1.875h2.258v-2.424H337.04z"/>
		<path d="M361.674,681.175c0-0.237-0.042-0.46-0.124-0.667c-0.083-0.208-0.223-0.401-0.421-0.581
			c-0.198-0.181-0.457-0.345-0.777-0.494c-0.32-0.149-0.718-0.288-1.193-0.416c-0.579-0.158-1.132-0.356-1.66-0.595
			c-0.527-0.237-0.992-0.523-1.395-0.859c-0.402-0.335-0.724-0.725-0.965-1.17s-0.361-0.957-0.361-1.536
			c0-0.562,0.119-1.069,0.356-1.527c0.238-0.457,0.567-0.847,0.988-1.171c0.42-0.322,0.917-0.57,1.49-0.744
			c0.573-0.174,1.195-0.262,1.865-0.262c0.695,0,1.331,0.102,1.907,0.303s1.071,0.482,1.486,0.846
			c0.415,0.362,0.737,0.794,0.969,1.293c0.231,0.5,0.348,1.049,0.348,1.646h-2.506c-0.012-0.299-0.065-0.572-0.16-0.822
			c-0.095-0.25-0.235-0.465-0.421-0.646c-0.186-0.18-0.417-0.319-0.695-0.421c-0.277-0.1-0.602-0.15-0.974-0.15
			c-0.342,0-0.645,0.041-0.91,0.123s-0.489,0.199-0.672,0.348c-0.183,0.15-0.322,0.326-0.416,0.531
			c-0.095,0.203-0.142,0.424-0.142,0.662c0,0.25,0.062,0.476,0.187,0.677s0.307,0.383,0.544,0.544
			c0.238,0.162,0.525,0.31,0.864,0.443c0.338,0.135,0.721,0.26,1.148,0.375c0.609,0.178,1.17,0.394,1.682,0.649
			c0.512,0.256,0.953,0.56,1.321,0.909c0.369,0.352,0.655,0.75,0.86,1.199c0.204,0.447,0.306,0.945,0.306,1.494
			c0,0.586-0.117,1.105-0.352,1.559c-0.235,0.455-0.56,0.839-0.974,1.152c-0.415,0.314-0.909,0.553-1.481,0.714
			c-0.573,0.161-1.198,0.242-1.875,0.242c-0.421,0-0.84-0.038-1.257-0.114s-0.817-0.193-1.198-0.352
			c-0.381-0.159-0.736-0.357-1.065-0.596c-0.329-0.236-0.614-0.514-0.855-0.832c-0.241-0.316-0.43-0.676-0.567-1.078
			s-0.206-0.848-0.206-1.336h2.523c0.012,0.402,0.083,0.748,0.21,1.034s0.306,0.521,0.535,0.704
			c0.229,0.183,0.503,0.316,0.823,0.402s0.672,0.128,1.056,0.128c0.341,0,0.645-0.04,0.91-0.119s0.489-0.188,0.672-0.329
			c0.183-0.141,0.323-0.309,0.42-0.508C361.625,681.631,361.674,681.412,361.674,681.175z"/>
		<path d="M370.47,682.803c0.25,0,0.487-0.037,0.713-0.11s0.424-0.177,0.595-0.311c0.17-0.134,0.303-0.296,0.397-0.485
			c0.095-0.188,0.136-0.398,0.124-0.631h2.396c0.012,0.513-0.093,0.988-0.315,1.427s-0.525,0.817-0.91,1.134
			c-0.384,0.317-0.831,0.566-1.339,0.746c-0.509,0.18-1.047,0.27-1.614,0.27c-0.768,0-1.441-0.13-2.021-0.389
			c-0.58-0.26-1.062-0.614-1.45-1.065s-0.68-0.979-0.877-1.587c-0.198-0.606-0.297-1.257-0.297-1.952v-0.274
			c0-0.695,0.098-1.346,0.292-1.952c0.195-0.606,0.488-1.136,0.878-1.587c0.39-0.45,0.873-0.807,1.449-1.069
			c0.576-0.262,1.245-0.394,2.007-0.394c0.609,0,1.173,0.092,1.691,0.275c0.518,0.182,0.965,0.439,1.34,0.771
			c0.375,0.333,0.666,0.735,0.873,1.207c0.207,0.473,0.305,1.002,0.292,1.587h-2.396c0.012-0.243-0.024-0.476-0.11-0.694
			c-0.085-0.22-0.21-0.408-0.375-0.567c-0.165-0.159-0.362-0.284-0.594-0.38c-0.231-0.094-0.484-0.141-0.759-0.141
			c-0.402,0-0.735,0.082-0.997,0.246c-0.262,0.164-0.471,0.385-0.626,0.658c-0.155,0.274-0.265,0.588-0.329,0.941
			c-0.064,0.354-0.096,0.721-0.096,1.098v0.274c0,0.384,0.03,0.755,0.091,1.111s0.169,0.671,0.325,0.942
			c0.156,0.271,0.366,0.488,0.631,0.653S370.062,682.803,370.47,682.803z"/>
		<path d="M384.433,674.572c0.384,0,0.739,0.026,1.065,0.078s0.59,0.108,0.791,0.17l-0.375,2.532
			c-0.335-0.079-0.678-0.139-1.029-0.179c-0.351-0.039-0.684-0.059-1.001-0.059c-0.713,0-1.285,0.137-1.715,0.411
			s-0.751,0.667-0.964,1.18v5.943h-2.542v-9.894h2.368l0.119,1.618c0.402-0.561,0.884-1.001,1.445-1.321
			S383.768,674.572,384.433,674.572z"/>
		<path d="M389.242,674.756h5.386v7.827h2.679v2.066h-8.065v-2.066h2.816v-5.751h-2.816V674.756z M391.876,672.223
			c0-0.195,0.035-0.376,0.105-0.544c0.07-0.167,0.169-0.312,0.297-0.43c0.128-0.119,0.282-0.212,0.461-0.278
			c0.18-0.068,0.379-0.102,0.599-0.102c0.451,0,0.809,0.127,1.074,0.38s0.398,0.577,0.398,0.974s-0.133,0.721-0.398,0.975
			c-0.265,0.252-0.623,0.379-1.074,0.379c-0.22,0-0.419-0.033-0.599-0.101s-0.333-0.16-0.461-0.278
			c-0.128-0.119-0.228-0.263-0.297-0.431C391.911,672.6,391.876,672.418,391.876,672.223z"/>
		<path d="M408.691,679.794c0,0.72-0.084,1.387-0.251,2.003c-0.168,0.615-0.415,1.146-0.741,1.596
			c-0.326,0.447-0.73,0.8-1.211,1.056c-0.482,0.256-1.033,0.384-1.655,0.384c-0.53,0-0.997-0.092-1.399-0.273
			c-0.402-0.184-0.753-0.439-1.052-0.769v4.663h-2.542v-13.697h2.35l0.091,0.969c0.305-0.365,0.665-0.648,1.079-0.85
			s0.899-0.303,1.454-0.303c0.627,0,1.183,0.121,1.664,0.361c0.481,0.241,0.887,0.582,1.216,1.024s0.577,0.973,0.745,1.591
			c0.167,0.619,0.251,1.303,0.251,2.053V679.794z M406.149,679.602c0-0.414-0.038-0.803-0.114-1.166
			c-0.076-0.362-0.195-0.676-0.357-0.941c-0.161-0.266-0.369-0.474-0.622-0.627c-0.253-0.151-0.56-0.229-0.919-0.229
			c-0.445,0-0.809,0.088-1.093,0.262c-0.283,0.174-0.504,0.419-0.663,0.736v4.133c0.159,0.311,0.38,0.559,0.663,0.744
			c0.284,0.187,0.654,0.279,1.111,0.279c0.36,0,0.666-0.079,0.919-0.237c0.253-0.159,0.459-0.375,0.618-0.649
			c0.158-0.274,0.274-0.593,0.347-0.955c0.073-0.363,0.11-0.748,0.11-1.157V679.602z"/>
		<path d="M415.705,672.332v2.424h3.694v1.875h-3.694v4.252c0,0.359,0.041,0.659,0.124,0.9c0.083,0.24,0.2,0.433,0.352,0.576
			c0.152,0.143,0.337,0.245,0.553,0.306c0.216,0.062,0.458,0.092,0.727,0.092c0.195,0,0.395-0.009,0.599-0.028
			c0.204-0.018,0.399-0.041,0.585-0.068s0.359-0.056,0.521-0.086c0.162-0.031,0.3-0.062,0.416-0.092l0.247,1.746
			c-0.177,0.104-0.384,0.193-0.622,0.27c-0.238,0.076-0.491,0.139-0.759,0.188s-0.547,0.088-0.836,0.115s-0.575,0.041-0.855,0.041
			c-0.543,0-1.035-0.072-1.477-0.215c-0.442-0.144-0.82-0.366-1.134-0.668s-0.556-0.686-0.727-1.152
			c-0.17-0.467-0.256-1.025-0.256-1.678v-4.498h-2.258v-1.875h2.258v-2.424H415.705z"/>
	</g>
</g>
<g>
	<g enable-background="new    ">
		<path fill="#C8D7E3" d="M426,629c0,3.313-2.687,6-6,6H276c-3.313,0-6-2.687-6-6v-14c0-3.313,2.687-6,6-6h144c3.313,0,6,2.687,6,6
			V629z"/>
	</g>
	<g>
		<rect x="252.305" y="614.496" fill="none" width="191.279" height="20.579"/>
		<path d="M282.282,615.228h7.699v2.075h-2.597v9.172h2.597v2.066h-7.699v-2.066h2.533v-9.172h-2.533V615.228z"/>
		<path d="M295.349,618.647l0.155,1.372c0.354-0.494,0.783-0.877,1.289-1.148c0.506-0.271,1.067-0.406,1.683-0.406
			c0.5,0,0.957,0.072,1.372,0.219s0.773,0.38,1.075,0.699c0.302,0.32,0.536,0.732,0.704,1.234c0.167,0.504,0.251,1.115,0.251,1.834
			v6.09h-2.542v-6.053c0-0.391-0.044-0.713-0.133-0.965c-0.088-0.254-0.215-0.453-0.379-0.6s-0.363-0.248-0.594-0.307
			c-0.232-0.057-0.494-0.086-0.787-0.086c-0.433,0-0.802,0.086-1.106,0.26s-0.552,0.414-0.741,0.719v7.031h-2.551v-9.894H295.349z"
			/>
		<path d="M313.17,623.686c0,0.719-0.084,1.387-0.251,2.002c-0.168,0.616-0.415,1.148-0.741,1.596
			c-0.326,0.449-0.73,0.801-1.211,1.057c-0.482,0.256-1.033,0.385-1.655,0.385c-0.53,0-0.997-0.092-1.399-0.275
			c-0.402-0.183-0.753-0.438-1.052-0.768v4.663h-2.542v-13.697h2.35l0.091,0.97c0.305-0.366,0.665-0.65,1.079-0.852
			s0.899-0.301,1.454-0.301c0.627,0,1.183,0.12,1.664,0.361c0.481,0.24,0.887,0.582,1.216,1.023s0.577,0.973,0.745,1.592
			c0.167,0.618,0.251,1.303,0.251,2.053V623.686z M310.628,623.494c0-0.415-0.038-0.804-0.114-1.166
			c-0.076-0.363-0.195-0.678-0.357-0.942c-0.161-0.265-0.369-0.474-0.622-0.626s-0.56-0.229-0.919-0.229
			c-0.445,0-0.809,0.086-1.093,0.26c-0.283,0.174-0.504,0.42-0.663,0.736v4.133c0.159,0.312,0.38,0.561,0.663,0.746
			c0.284,0.186,0.654,0.278,1.111,0.278c0.36,0,0.666-0.079,0.919-0.237s0.459-0.375,0.618-0.649
			c0.158-0.274,0.274-0.593,0.347-0.956c0.073-0.362,0.11-0.748,0.11-1.156V623.494z"/>
		<path d="M321.829,627.151c-0.335,0.493-0.739,0.881-1.211,1.161c-0.473,0.28-0.989,0.42-1.55,0.42
			c-0.512,0-0.981-0.078-1.408-0.237c-0.427-0.158-0.793-0.409-1.098-0.755c-0.305-0.344-0.541-0.783-0.708-1.316
			c-0.168-0.533-0.251-1.175-0.251-1.924v-5.853h2.542v5.87c0,0.402,0.029,0.74,0.087,1.016c0.058,0.273,0.151,0.494,0.279,0.662
			s0.296,0.288,0.503,0.361s0.46,0.109,0.759,0.109c0.506,0,0.917-0.096,1.235-0.287c0.317-0.192,0.558-0.456,0.722-0.791v-6.94
			h2.551v9.894h-2.304L321.829,627.151z"/>
		<path d="M331.421,616.225v2.423h3.694v1.874h-3.694v4.252c0,0.359,0.041,0.66,0.124,0.9c0.083,0.241,0.2,0.434,0.352,0.576
			c0.152,0.144,0.337,0.246,0.553,0.307s0.458,0.092,0.727,0.092c0.195,0,0.395-0.01,0.599-0.027
			c0.204-0.019,0.399-0.041,0.585-0.068s0.359-0.057,0.521-0.088c0.162-0.029,0.3-0.061,0.416-0.091l0.247,1.747
			c-0.177,0.104-0.384,0.193-0.622,0.27c-0.238,0.076-0.491,0.139-0.759,0.188s-0.547,0.086-0.836,0.113s-0.575,0.041-0.855,0.041
			c-0.543,0-1.035-0.071-1.477-0.215c-0.442-0.143-0.82-0.365-1.134-0.667s-0.556-0.686-0.727-1.151
			c-0.17-0.467-0.256-1.026-0.256-1.679v-4.499h-2.258v-1.874h2.258v-2.423H331.421z"/>
		<path d="M356.055,625.066c0-0.238-0.042-0.461-0.124-0.668c-0.083-0.207-0.223-0.4-0.421-0.58
			c-0.198-0.18-0.457-0.345-0.777-0.494c-0.32-0.148-0.718-0.288-1.193-0.416c-0.579-0.158-1.132-0.356-1.66-0.594
			c-0.527-0.238-0.992-0.525-1.395-0.859c-0.402-0.336-0.724-0.727-0.965-1.171c-0.241-0.445-0.361-0.957-0.361-1.536
			c0-0.561,0.119-1.07,0.356-1.527s0.567-0.848,0.988-1.17c0.42-0.323,0.917-0.572,1.49-0.746c0.573-0.174,1.195-0.26,1.865-0.26
			c0.695,0,1.331,0.1,1.907,0.301s1.071,0.484,1.486,0.846c0.415,0.363,0.737,0.795,0.969,1.295c0.231,0.5,0.348,1.049,0.348,1.646
			h-2.506c-0.012-0.298-0.065-0.573-0.16-0.823c-0.095-0.25-0.235-0.465-0.421-0.645s-0.417-0.32-0.695-0.42
			c-0.277-0.102-0.602-0.151-0.974-0.151c-0.342,0-0.645,0.041-0.91,0.124c-0.265,0.082-0.489,0.197-0.672,0.347
			c-0.183,0.149-0.322,0.326-0.416,0.53c-0.095,0.205-0.142,0.426-0.142,0.663c0,0.25,0.062,0.476,0.187,0.677
			s0.307,0.383,0.544,0.544s0.525,0.31,0.864,0.444c0.338,0.133,0.721,0.258,1.148,0.374c0.609,0.177,1.17,0.394,1.682,0.649
			c0.512,0.256,0.953,0.56,1.321,0.91c0.369,0.35,0.655,0.75,0.86,1.197c0.204,0.448,0.306,0.947,0.306,1.495
			c0,0.585-0.117,1.104-0.352,1.56c-0.235,0.453-0.56,0.838-0.974,1.152c-0.415,0.313-0.909,0.551-1.481,0.713
			c-0.573,0.161-1.198,0.242-1.875,0.242c-0.421,0-0.84-0.038-1.257-0.114s-0.817-0.193-1.198-0.353
			c-0.381-0.158-0.736-0.356-1.065-0.594c-0.329-0.238-0.614-0.516-0.855-0.832c-0.241-0.317-0.43-0.677-0.567-1.079
			s-0.206-0.848-0.206-1.335h2.523c0.012,0.402,0.083,0.746,0.21,1.033s0.306,0.521,0.535,0.704
			c0.229,0.183,0.503,0.317,0.823,0.402s0.672,0.128,1.056,0.128c0.341,0,0.645-0.039,0.91-0.119
			c0.265-0.079,0.489-0.189,0.672-0.329c0.183-0.14,0.323-0.31,0.42-0.507C356.006,625.521,356.055,625.305,356.055,625.066z"/>
		<path d="M364.851,626.693c0.25,0,0.487-0.036,0.713-0.109c0.226-0.072,0.424-0.176,0.595-0.311
			c0.17-0.135,0.303-0.296,0.397-0.484c0.095-0.189,0.136-0.399,0.124-0.631h2.396c0.012,0.512-0.093,0.987-0.315,1.426
			c-0.223,0.439-0.525,0.817-0.91,1.135c-0.384,0.316-0.831,0.564-1.339,0.744c-0.509,0.18-1.047,0.27-1.614,0.27
			c-0.768,0-1.441-0.129-2.021-0.389c-0.58-0.258-1.062-0.613-1.45-1.064s-0.68-0.98-0.877-1.586
			c-0.198-0.607-0.297-1.258-0.297-1.953v-0.273c0-0.695,0.098-1.346,0.292-1.953c0.195-0.606,0.488-1.135,0.878-1.586
			s0.873-0.809,1.449-1.07s1.245-0.393,2.007-0.393c0.609,0,1.173,0.091,1.691,0.273c0.518,0.184,0.965,0.441,1.34,0.773
			s0.666,0.734,0.873,1.207s0.305,1.001,0.292,1.586h-2.396c0.012-0.244-0.024-0.475-0.11-0.695
			c-0.085-0.219-0.21-0.408-0.375-0.566c-0.165-0.158-0.362-0.285-0.594-0.379c-0.231-0.096-0.484-0.143-0.759-0.143
			c-0.402,0-0.735,0.082-0.997,0.247c-0.262,0.165-0.471,0.384-0.626,0.659c-0.155,0.273-0.265,0.588-0.329,0.941
			s-0.096,0.719-0.096,1.098v0.273c0,0.385,0.03,0.754,0.091,1.111c0.061,0.356,0.169,0.67,0.325,0.941
			c0.156,0.271,0.366,0.489,0.631,0.654C364.105,626.611,364.442,626.693,364.851,626.693z"/>
		<path d="M378.813,618.465c0.384,0,0.739,0.025,1.065,0.077s0.59,0.108,0.791,0.169l-0.375,2.533
			c-0.335-0.079-0.678-0.139-1.029-0.178c-0.351-0.04-0.684-0.061-1.001-0.061c-0.713,0-1.285,0.138-1.715,0.412
			s-0.751,0.668-0.964,1.18v5.943h-2.542v-9.894h2.368l0.119,1.618c0.402-0.561,0.884-1.001,1.445-1.321
			C377.537,618.625,378.149,618.465,378.813,618.465z"/>
		<path d="M383.623,618.647h5.386v7.827h2.679v2.066h-8.065v-2.066h2.816v-5.752h-2.816V618.647z M386.257,616.114
			c0-0.194,0.035-0.376,0.105-0.544c0.07-0.168,0.169-0.311,0.297-0.43c0.128-0.119,0.282-0.212,0.461-0.279
			c0.18-0.066,0.379-0.1,0.599-0.1c0.451,0,0.809,0.126,1.074,0.379s0.398,0.578,0.398,0.974c0,0.396-0.133,0.722-0.398,0.974
			c-0.265,0.254-0.623,0.38-1.074,0.38c-0.22,0-0.419-0.034-0.599-0.101s-0.333-0.16-0.461-0.279
			c-0.128-0.119-0.228-0.262-0.297-0.43C386.292,616.49,386.257,616.31,386.257,616.114z"/>
		<path d="M403.072,623.686c0,0.719-0.084,1.387-0.251,2.002c-0.168,0.616-0.415,1.148-0.741,1.596
			c-0.326,0.449-0.73,0.801-1.211,1.057c-0.482,0.256-1.033,0.385-1.655,0.385c-0.53,0-0.997-0.092-1.399-0.275
			c-0.402-0.183-0.753-0.438-1.052-0.768v4.663h-2.542v-13.697h2.35l0.091,0.97c0.305-0.366,0.665-0.65,1.079-0.852
			s0.899-0.301,1.454-0.301c0.627,0,1.183,0.12,1.664,0.361c0.481,0.24,0.887,0.582,1.216,1.023s0.577,0.973,0.745,1.592
			c0.167,0.618,0.251,1.303,0.251,2.053V623.686z M400.53,623.494c0-0.415-0.038-0.804-0.114-1.166
			c-0.076-0.363-0.195-0.678-0.357-0.942c-0.161-0.265-0.369-0.474-0.622-0.626s-0.56-0.229-0.919-0.229
			c-0.445,0-0.809,0.086-1.093,0.26c-0.283,0.174-0.504,0.42-0.663,0.736v4.133c0.159,0.312,0.38,0.561,0.663,0.746
			c0.284,0.186,0.654,0.278,1.111,0.278c0.36,0,0.666-0.079,0.919-0.237s0.459-0.375,0.618-0.649
			c0.158-0.274,0.274-0.593,0.347-0.956c0.073-0.362,0.11-0.748,0.11-1.156V623.494z"/>
		<path d="M410.085,616.225v2.423h3.694v1.874h-3.694v4.252c0,0.359,0.041,0.66,0.124,0.9c0.083,0.241,0.2,0.434,0.352,0.576
			c0.152,0.144,0.337,0.246,0.553,0.307s0.458,0.092,0.727,0.092c0.195,0,0.395-0.01,0.599-0.027
			c0.204-0.019,0.399-0.041,0.585-0.068s0.359-0.057,0.521-0.088c0.162-0.029,0.3-0.061,0.416-0.091l0.247,1.747
			c-0.177,0.104-0.384,0.193-0.622,0.27c-0.238,0.076-0.491,0.139-0.759,0.188s-0.547,0.086-0.836,0.113s-0.575,0.041-0.855,0.041
			c-0.543,0-1.035-0.071-1.477-0.215c-0.442-0.143-0.82-0.365-1.134-0.667s-0.556-0.686-0.727-1.151
			c-0.17-0.467-0.256-1.026-0.256-1.679v-4.499h-2.258v-1.874h2.258v-2.423H410.085z"/>
	</g>
</g>
<rect x="287" y="385" fill="#FFFFFF" width="28" height="11"/>
<g enable-background="new    ">
	<g>
		<path fill="none" stroke="#E15218" stroke-width="2" stroke-miterlimit="10" d="M282,391h44c3.3,0,6,2.7,6,6v162.334
			c0,3.3-2.7,5.666-6,5.666h-86c-3.3,0-6,3.034-6,6.334v100.56c0,3.3,2.7,6.106,6,6.106h21"/>
		<g>
			<polygon fill="#E15218" points="270,677.894 256.867,683.26 259.983,677.894 256.867,672.528 			"/>
		</g>
	</g>
</g>
<g enable-background="new    ">
	<path fill="#FFFFFF" d="M282,416c0,2.762-2.239,5-5,5H85c-2.761,0-5-2.238-5-5v-53c0-2.761,2.239-5,5-5h192c2.761,0,5,2.239,5,5
		V416z"/>
	<path fill="none" stroke="#2D4E6E" stroke-width="3" stroke-miterlimit="10" d="M281.5,415.5c0,2.762-2.239,5-5,5h-192
		c-2.761,0-5-2.238-5-5v-53c0-2.761,2.239-5,5-5h192c2.761,0,5,2.239,5,5V415.5z"/>
</g>
<g enable-background="new    ">
	<path fill="none" stroke="#2D4E6E" stroke-width="3" stroke-miterlimit="10" d="M611,167.5H393c-5.5,0-10.5,4.5-10.5,10V536
		c0,5.5,5,10.5,10.5,10.5h218"/>
</g>
<g enable-background="new    ">
	<path fill="none" stroke="#2D4E6E" stroke-width="2" stroke-miterlimit="10" stroke-dasharray="6,6" d="M611,295H403.864
		c-2.737,0-4.864,1.739-4.864,4.477v178.547c0,2.737,2.127,4.977,4.864,4.977H611"/>
</g>
<g enable-background="new    ">
	<path fill="none" stroke="#2D4E6E" stroke-width="2" stroke-miterlimit="10" stroke-dasharray="6,6" d="M611,537H399.404
		c-4.133,0-7.404-3.565-7.404-7.699v-291.2c0-4.133,3.271-7.101,7.404-7.101H611"/>
</g>
<g>
	<rect x="80.452" y="381.67" fill="none" width="200.995" height="36.66"/>
	<path d="M120.723,389.598c0,0.756-0.097,1.481-0.29,2.176s-0.482,1.307-0.866,1.837s-0.864,0.952-1.441,1.266
		s-1.252,0.47-2.026,0.47c-0.768,0-1.436-0.158-2.004-0.475s-1.042-0.739-1.419-1.27s-0.662-1.141-0.853-1.832
		s-0.286-1.416-0.286-2.172v-1.635c0-0.504,0.042-0.996,0.127-1.477s0.211-0.933,0.378-1.357s0.375-0.817,0.624-1.178
		s0.542-0.669,0.879-0.927s0.718-0.46,1.143-0.606s0.892-0.22,1.402-0.22c0.773,0,1.449,0.158,2.026,0.475s1.059,0.74,1.446,1.27
		s0.677,1.144,0.87,1.841s0.29,1.424,0.29,2.18V389.598z M118.604,387.945c-0.006-0.48-0.05-0.957-0.132-1.432
		s-0.22-0.898-0.413-1.271s-0.45-0.674-0.769-0.905s-0.719-0.347-1.2-0.347c-0.475,0-0.869,0.116-1.182,0.347
		s-0.562,0.535-0.747,0.91c-0.185,0.375-0.313,0.798-0.387,1.27s-0.113,0.947-0.119,1.428v1.652c0.006,0.48,0.047,0.957,0.123,1.429
		s0.207,0.896,0.391,1.274s0.434,0.684,0.747,0.918s0.708,0.352,1.182,0.352c0.48,0,0.88-0.117,1.2-0.352s0.576-0.539,0.769-0.914
		s0.33-0.799,0.409-1.273s0.122-0.953,0.127-1.434V387.945z"/>
	<path d="M129.002,393.869c-0.322,0.469-0.713,0.834-1.173,1.095s-0.974,0.392-1.542,0.392c-0.492,0-0.942-0.076-1.349-0.229
		s-0.756-0.395-1.046-0.726s-0.516-0.753-0.677-1.266s-0.242-1.13-0.242-1.851v-5.625h2.101v5.643c0,0.457,0.034,0.836,0.101,1.135
		s0.171,0.535,0.312,0.711s0.316,0.301,0.527,0.374s0.463,0.11,0.756,0.11c0.562,0,1.017-0.11,1.362-0.33s0.606-0.518,0.782-0.893
		v-6.75h2.109v9.51h-1.898L129.002,393.869z"/>
	<path d="M137.914,383.358v2.302h3.595v1.564h-3.595v4.562c0,0.357,0.042,0.652,0.127,0.887s0.204,0.422,0.356,0.562
		s0.331,0.239,0.536,0.295s0.431,0.084,0.677,0.084c0.182,0,0.371-0.011,0.567-0.031s0.387-0.044,0.571-0.07s0.354-0.056,0.51-0.088
		s0.286-0.062,0.391-0.092l0.237,1.449c-0.152,0.088-0.335,0.169-0.549,0.242s-0.447,0.133-0.699,0.18s-0.514,0.084-0.787,0.11
		s-0.541,0.04-0.804,0.04c-0.475,0-0.91-0.066-1.305-0.198s-0.735-0.337-1.02-0.615s-0.507-0.636-0.668-1.072
		s-0.242-0.96-0.242-1.569v-4.676h-2.32v-1.564h2.32v-2.302H137.914z"/>
	<path d="M152.829,390.512c0,0.691-0.082,1.334-0.246,1.926s-0.404,1.103-0.721,1.533s-0.705,0.768-1.165,1.011
		s-0.989,0.364-1.586,0.364c-0.539,0-1.015-0.088-1.428-0.264s-0.769-0.428-1.068-0.756v4.5h-2.101V385.66h1.934l0.088,0.959
		c0.305-0.363,0.667-0.644,1.085-0.84s0.907-0.295,1.463-0.295c0.604,0,1.138,0.117,1.604,0.352s0.857,0.564,1.173,0.989
		s0.557,0.935,0.721,1.529s0.246,1.253,0.246,1.974V390.512z M150.729,390.328c0-0.428-0.044-0.831-0.132-1.209
		s-0.223-0.709-0.404-0.993s-0.413-0.509-0.694-0.673s-0.615-0.246-1.002-0.246c-0.469,0-0.855,0.1-1.16,0.299
		s-0.545,0.467-0.721,0.801v4.254c0.176,0.328,0.415,0.594,0.716,0.799s0.696,0.309,1.182,0.309c0.387,0,0.721-0.086,1.002-0.256
		s0.511-0.398,0.69-0.686s0.311-0.621,0.396-1.002s0.127-0.785,0.127-1.213V390.328z"/>
	<path d="M161.407,393.869c-0.322,0.469-0.713,0.834-1.173,1.095s-0.974,0.392-1.542,0.392c-0.492,0-0.942-0.076-1.349-0.229
		s-0.756-0.395-1.046-0.726s-0.516-0.753-0.677-1.266s-0.242-1.13-0.242-1.851v-5.625h2.101v5.643c0,0.457,0.034,0.836,0.101,1.135
		s0.171,0.535,0.312,0.711s0.316,0.301,0.527,0.374s0.463,0.11,0.756,0.11c0.562,0,1.017-0.11,1.362-0.33s0.606-0.518,0.782-0.893
		v-6.75h2.109v9.51h-1.898L161.407,393.869z"/>
	<path d="M170.319,383.358v2.302h3.595v1.564h-3.595v4.562c0,0.357,0.042,0.652,0.127,0.887s0.204,0.422,0.356,0.562
		s0.331,0.239,0.536,0.295s0.431,0.084,0.677,0.084c0.182,0,0.371-0.011,0.567-0.031s0.387-0.044,0.571-0.07s0.354-0.056,0.51-0.088
		s0.286-0.062,0.391-0.092l0.237,1.449c-0.152,0.088-0.335,0.169-0.549,0.242s-0.447,0.133-0.699,0.18s-0.514,0.084-0.787,0.11
		s-0.541,0.04-0.804,0.04c-0.475,0-0.91-0.066-1.305-0.198s-0.735-0.337-1.02-0.615s-0.507-0.636-0.668-1.072
		s-0.242-0.96-0.242-1.569v-4.676h-2.32v-1.564h2.32v-2.302H170.319z"/>
	<path d="M194.305,391.875c0-0.305-0.063-0.573-0.189-0.805s-0.305-0.436-0.536-0.611s-0.507-0.329-0.826-0.461
		s-0.667-0.254-1.042-0.365c-0.504-0.146-1-0.328-1.49-0.545s-0.926-0.481-1.31-0.795s-0.694-0.68-0.932-1.099
		s-0.356-0.903-0.356-1.454s0.119-1.045,0.356-1.481s0.555-0.807,0.954-1.112s0.861-0.539,1.389-0.703s1.078-0.246,1.652-0.246
		c0.615,0,1.191,0.095,1.727,0.286s1.005,0.457,1.406,0.8s0.719,0.753,0.954,1.23s0.354,1.006,0.36,1.586h-2.109
		c-0.029-0.322-0.098-0.616-0.207-0.883s-0.261-0.497-0.457-0.69s-0.435-0.343-0.716-0.448s-0.606-0.158-0.976-0.158
		c-0.316,0-0.609,0.041-0.879,0.123s-0.502,0.202-0.699,0.36s-0.35,0.349-0.461,0.571c-0.111,0.222-0.167,0.474-0.167,0.755
		c0,0.299,0.076,0.559,0.229,0.778s0.352,0.411,0.598,0.575s0.529,0.307,0.848,0.427s0.652,0.229,0.998,0.329
		c0.533,0.158,1.043,0.354,1.529,0.585s0.914,0.51,1.283,0.835s0.662,0.701,0.879,1.129s0.325,0.918,0.325,1.469
		c0,0.568-0.12,1.068-0.36,1.502s-0.562,0.797-0.967,1.09s-0.873,0.515-1.406,0.664s-1.09,0.225-1.67,0.225
		c-0.393,0-0.782-0.039-1.169-0.115s-0.757-0.189-1.112-0.342s-0.684-0.342-0.989-0.567s-0.57-0.486-0.795-0.782
		s-0.403-0.627-0.532-0.993s-0.196-0.769-0.202-1.208h2.118c0.029,0.387,0.114,0.723,0.255,1.01s0.328,0.526,0.562,0.717
		s0.508,0.334,0.822,0.431s0.661,0.146,1.042,0.146c0.316,0,0.612-0.039,0.888-0.115s0.516-0.188,0.721-0.338
		s0.366-0.334,0.483-0.554S194.305,392.156,194.305,391.875z"/>
	<path d="M202.672,393.676c0.258,0,0.508-0.041,0.751-0.123s0.458-0.195,0.646-0.342s0.335-0.32,0.444-0.52s0.16-0.416,0.154-0.65
		h1.986c0.006,0.457-0.098,0.887-0.312,1.288s-0.504,0.751-0.87,1.05s-0.79,0.537-1.27,0.713s-0.984,0.264-1.512,0.264
		c-0.732,0-1.374-0.127-1.925-0.379s-1.011-0.596-1.38-1.032s-0.646-0.943-0.831-1.521s-0.277-1.191-0.277-1.842v-0.316
		c0-0.65,0.092-1.266,0.277-1.846s0.461-1.086,0.831-1.52s0.829-0.778,1.38-1.033s1.189-0.383,1.916-0.383
		c0.574,0,1.106,0.088,1.595,0.264s0.911,0.422,1.266,0.738s0.63,0.695,0.826,1.135s0.292,0.92,0.286,1.441h-1.986
		c0.006-0.258-0.04-0.502-0.136-0.73s-0.236-0.428-0.417-0.598s-0.396-0.305-0.642-0.404s-0.516-0.148-0.809-0.148
		c-0.439,0-0.806,0.089-1.099,0.268s-0.527,0.413-0.703,0.703s-0.3,0.619-0.374,0.988s-0.11,0.744-0.11,1.125v0.316
		c0,0.387,0.037,0.766,0.11,1.135s0.198,0.698,0.374,0.988s0.41,0.524,0.703,0.703S202.227,393.676,202.672,393.676z"/>
	<path d="M215.847,385.484c0.17,0,0.34,0.006,0.51,0.018s0.333,0.029,0.488,0.053s0.297,0.049,0.426,0.075s0.237,0.058,0.325,0.093
		l-0.299,2.064c-0.645-0.146-1.28-0.219-1.907-0.219c-0.703,0-1.27,0.146-1.701,0.439s-0.749,0.699-0.954,1.221v5.941h-2.101v-9.51
		h1.969l0.097,1.486c0.387-0.516,0.845-0.922,1.375-1.218S215.196,385.484,215.847,385.484z"/>
	<path d="M220.575,385.66h5.071v7.77h2.821v1.74h-7.893v-1.74h2.953v-6.02h-2.953V385.66z M223.353,383.2
		c0-0.328,0.105-0.599,0.316-0.813s0.507-0.321,0.888-0.321c0.387,0,0.687,0.107,0.901,0.321s0.321,0.485,0.321,0.813
		s-0.107,0.599-0.321,0.813s-0.514,0.321-0.901,0.321c-0.381,0-0.677-0.107-0.888-0.321S223.353,383.528,223.353,383.2z"/>
	<path d="M239.243,390.512c0,0.691-0.082,1.334-0.246,1.926s-0.404,1.103-0.721,1.533s-0.705,0.768-1.165,1.011
		s-0.989,0.364-1.586,0.364c-0.539,0-1.015-0.088-1.428-0.264s-0.769-0.428-1.068-0.756v4.5h-2.101V385.66h1.934l0.088,0.959
		c0.305-0.363,0.667-0.644,1.085-0.84s0.907-0.295,1.463-0.295c0.604,0,1.138,0.117,1.604,0.352s0.857,0.564,1.173,0.989
		s0.557,0.935,0.721,1.529s0.246,1.253,0.246,1.974V390.512z M237.143,390.328c0-0.428-0.044-0.831-0.132-1.209
		s-0.223-0.709-0.404-0.993s-0.413-0.509-0.694-0.673s-0.615-0.246-1.002-0.246c-0.469,0-0.855,0.1-1.16,0.299
		s-0.545,0.467-0.721,0.801v4.254c0.176,0.328,0.415,0.594,0.716,0.799s0.696,0.309,1.182,0.309c0.387,0,0.721-0.086,1.002-0.256
		s0.511-0.398,0.69-0.686s0.311-0.621,0.396-1.002s0.127-0.785,0.127-1.213V390.328z"/>
	<path d="M245.932,383.358v2.302h3.595v1.564h-3.595v4.562c0,0.357,0.042,0.652,0.127,0.887s0.204,0.422,0.356,0.562
		s0.331,0.239,0.536,0.295s0.431,0.084,0.677,0.084c0.182,0,0.371-0.011,0.567-0.031s0.387-0.044,0.571-0.07s0.354-0.056,0.51-0.088
		s0.286-0.062,0.391-0.092l0.237,1.449c-0.152,0.088-0.335,0.169-0.549,0.242s-0.447,0.133-0.699,0.18s-0.514,0.084-0.787,0.11
		s-0.541,0.04-0.804,0.04c-0.475,0-0.91-0.066-1.305-0.198s-0.735-0.337-1.02-0.615s-0.507-0.636-0.668-1.072
		s-0.242-0.96-0.242-1.569v-4.676h-2.32v-1.564h2.32v-2.302H245.932z"/>
</g>
<rect x="378" y="385" fill="#FFFFFF" width="28" height="11"/>
<g enable-background="new    ">
	<g>
		<path fill="none" stroke="#E15218" stroke-width="2" stroke-miterlimit="10" d="M427,391h-61c-3.3,0-6,2.7-6,6v181
			c0,3.3-2.7,6-6,6h-98c-3.3,0-6,2.7-6,6v26c0,3.3,2.701,6,6,6h5"/>
		<g>
			<polygon fill="#E15218" points="270,622 256.867,627.366 259.983,622 256.867,616.635 			"/>
		</g>
	</g>
</g>
<g enable-background="new    ">
	<path fill="#FFFFFF" d="M613,416c0,2.762-2.239,5-5,5H416c-2.761,0-5-2.238-5-5v-53c0-2.761,2.239-5,5-5h192c2.761,0,5,2.239,5,5
		V416z"/>
	<path fill="none" stroke="#2D4E6E" stroke-width="3" stroke-miterlimit="10" d="M612.5,415.5c0,2.762-2.239,5-5,5h-192
		c-2.761,0-5-2.238-5-5v-53c0-2.761,2.239-5,5-5h192c2.761,0,5,2.239,5,5V415.5z"/>
</g>
<g>
	<g>
		<path d="M448.105,382.374h7.611v1.749h-2.769v9.307h2.769v1.74h-7.611v-1.74h2.707v-9.307h-2.707V382.374z"/>
		<path d="M460.577,385.66l0.132,1.318c0.346-0.475,0.763-0.842,1.252-1.103s1.033-0.392,1.63-0.392c0.486,0,0.93,0.07,1.332,0.211
			s0.747,0.361,1.037,0.66s0.516,0.686,0.677,1.16s0.242,1.045,0.242,1.713v5.941h-2.101v-5.906c0-0.393-0.045-0.721-0.136-0.984
			s-0.22-0.475-0.387-0.633s-0.371-0.271-0.611-0.338s-0.513-0.102-0.817-0.102c-0.463,0-0.866,0.104-1.208,0.309
			s-0.62,0.482-0.831,0.834v6.82h-2.109v-9.51H460.577z"/>
		<path d="M477.804,390.512c0,0.691-0.082,1.334-0.246,1.926s-0.404,1.103-0.721,1.533s-0.705,0.768-1.165,1.011
			s-0.989,0.364-1.586,0.364c-0.539,0-1.015-0.088-1.428-0.264s-0.769-0.428-1.068-0.756v4.5h-2.101V385.66h1.934l0.088,0.959
			c0.305-0.363,0.667-0.644,1.085-0.84s0.907-0.295,1.463-0.295c0.604,0,1.138,0.117,1.604,0.352s0.857,0.564,1.173,0.989
			s0.557,0.935,0.721,1.529s0.246,1.253,0.246,1.974V390.512z M475.703,390.328c0-0.428-0.044-0.831-0.132-1.209
			s-0.223-0.709-0.404-0.993s-0.413-0.509-0.694-0.673s-0.615-0.246-1.002-0.246c-0.469,0-0.855,0.1-1.16,0.299
			s-0.545,0.467-0.721,0.801v4.254c0.176,0.328,0.415,0.594,0.716,0.799s0.696,0.309,1.182,0.309c0.387,0,0.721-0.086,1.002-0.256
			s0.511-0.398,0.69-0.686s0.311-0.621,0.396-1.002s0.127-0.785,0.127-1.213V390.328z"/>
		<path d="M486.382,393.869c-0.322,0.469-0.713,0.834-1.173,1.095s-0.974,0.392-1.542,0.392c-0.492,0-0.942-0.076-1.349-0.229
			s-0.756-0.395-1.046-0.726s-0.516-0.753-0.677-1.266s-0.242-1.13-0.242-1.851v-5.625h2.101v5.643c0,0.457,0.034,0.836,0.101,1.135
			s0.171,0.535,0.312,0.711s0.316,0.301,0.527,0.374s0.463,0.11,0.756,0.11c0.562,0,1.017-0.11,1.362-0.33s0.606-0.518,0.782-0.893
			v-6.75h2.109v9.51h-1.898L486.382,393.869z"/>
		<path d="M495.294,383.358v2.302h3.595v1.564h-3.595v4.562c0,0.357,0.042,0.652,0.127,0.887s0.204,0.422,0.356,0.562
			s0.331,0.239,0.536,0.295s0.431,0.084,0.677,0.084c0.182,0,0.371-0.011,0.567-0.031s0.387-0.044,0.571-0.07
			s0.354-0.056,0.51-0.088s0.286-0.062,0.391-0.092l0.237,1.449c-0.152,0.088-0.335,0.169-0.549,0.242s-0.447,0.133-0.699,0.18
			s-0.514,0.084-0.787,0.11s-0.541,0.04-0.804,0.04c-0.475,0-0.91-0.066-1.305-0.198s-0.735-0.337-1.02-0.615
			s-0.507-0.636-0.668-1.072s-0.242-0.96-0.242-1.569v-4.676h-2.32v-1.564h2.32v-2.302H495.294z"/>
		<path d="M519.279,391.875c0-0.305-0.063-0.573-0.189-0.805s-0.305-0.436-0.536-0.611s-0.507-0.329-0.826-0.461
			s-0.667-0.254-1.042-0.365c-0.504-0.146-1-0.328-1.49-0.545s-0.926-0.481-1.31-0.795s-0.694-0.68-0.932-1.099
			s-0.356-0.903-0.356-1.454s0.119-1.045,0.356-1.481s0.555-0.807,0.954-1.112s0.861-0.539,1.389-0.703s1.078-0.246,1.652-0.246
			c0.615,0,1.191,0.095,1.727,0.286s1.005,0.457,1.406,0.8s0.719,0.753,0.954,1.23s0.354,1.006,0.36,1.586h-2.109
			c-0.029-0.322-0.098-0.616-0.207-0.883s-0.261-0.497-0.457-0.69s-0.435-0.343-0.716-0.448s-0.606-0.158-0.976-0.158
			c-0.316,0-0.609,0.041-0.879,0.123s-0.502,0.202-0.699,0.36s-0.35,0.349-0.461,0.571c-0.111,0.222-0.167,0.474-0.167,0.755
			c0,0.299,0.076,0.559,0.229,0.778s0.352,0.411,0.598,0.575s0.529,0.307,0.848,0.427s0.652,0.229,0.998,0.329
			c0.533,0.158,1.043,0.354,1.529,0.585s0.914,0.51,1.283,0.835s0.662,0.701,0.879,1.129s0.325,0.918,0.325,1.469
			c0,0.568-0.12,1.068-0.36,1.502s-0.562,0.797-0.967,1.09s-0.873,0.515-1.406,0.664s-1.09,0.225-1.67,0.225
			c-0.393,0-0.782-0.039-1.169-0.115s-0.757-0.189-1.112-0.342s-0.684-0.342-0.989-0.567s-0.57-0.486-0.795-0.782
			s-0.403-0.627-0.532-0.993s-0.196-0.769-0.202-1.208h2.118c0.029,0.387,0.114,0.723,0.255,1.01s0.328,0.526,0.562,0.717
			s0.508,0.334,0.822,0.431s0.661,0.146,1.042,0.146c0.316,0,0.612-0.039,0.888-0.115s0.516-0.188,0.721-0.338
			s0.366-0.334,0.483-0.554S519.279,392.156,519.279,391.875z"/>
		<path d="M527.646,393.676c0.258,0,0.508-0.041,0.751-0.123s0.458-0.195,0.646-0.342s0.335-0.32,0.444-0.52s0.16-0.416,0.154-0.65
			h1.986c0.006,0.457-0.098,0.887-0.312,1.288s-0.504,0.751-0.87,1.05s-0.79,0.537-1.27,0.713s-0.984,0.264-1.512,0.264
			c-0.732,0-1.374-0.127-1.925-0.379s-1.011-0.596-1.38-1.032s-0.646-0.943-0.831-1.521s-0.277-1.191-0.277-1.842v-0.316
			c0-0.65,0.092-1.266,0.277-1.846s0.461-1.086,0.831-1.52s0.829-0.778,1.38-1.033s1.189-0.383,1.916-0.383
			c0.574,0,1.106,0.088,1.595,0.264s0.911,0.422,1.266,0.738s0.63,0.695,0.826,1.135s0.292,0.92,0.286,1.441h-1.986
			c0.006-0.258-0.04-0.502-0.136-0.73s-0.236-0.428-0.417-0.598s-0.396-0.305-0.642-0.404s-0.516-0.148-0.809-0.148
			c-0.439,0-0.806,0.089-1.099,0.268s-0.527,0.413-0.703,0.703s-0.3,0.619-0.374,0.988s-0.11,0.744-0.11,1.125v0.316
			c0,0.387,0.037,0.766,0.11,1.135s0.198,0.698,0.374,0.988s0.41,0.524,0.703,0.703S527.201,393.676,527.646,393.676z"/>
		<path d="M540.821,385.484c0.17,0,0.34,0.006,0.51,0.018s0.333,0.029,0.488,0.053s0.297,0.049,0.426,0.075s0.237,0.058,0.325,0.093
			l-0.299,2.064c-0.645-0.146-1.28-0.219-1.907-0.219c-0.703,0-1.27,0.146-1.701,0.439s-0.749,0.699-0.954,1.221v5.941h-2.101v-9.51
			h1.969l0.097,1.486c0.387-0.516,0.845-0.922,1.375-1.218S540.171,385.484,540.821,385.484z"/>
		<path d="M545.55,385.66h5.071v7.77h2.821v1.74h-7.893v-1.74h2.953v-6.02h-2.953V385.66z M548.327,383.2
			c0-0.328,0.105-0.599,0.316-0.813s0.507-0.321,0.888-0.321c0.387,0,0.687,0.107,0.901,0.321s0.321,0.485,0.321,0.813
			s-0.107,0.599-0.321,0.813s-0.514,0.321-0.901,0.321c-0.381,0-0.677-0.107-0.888-0.321S548.327,383.528,548.327,383.2z"/>
		<path d="M564.218,390.512c0,0.691-0.082,1.334-0.246,1.926s-0.404,1.103-0.721,1.533s-0.705,0.768-1.165,1.011
			s-0.989,0.364-1.586,0.364c-0.539,0-1.015-0.088-1.428-0.264s-0.769-0.428-1.068-0.756v4.5h-2.101V385.66h1.934l0.088,0.959
			c0.305-0.363,0.667-0.644,1.085-0.84s0.907-0.295,1.463-0.295c0.604,0,1.138,0.117,1.604,0.352s0.857,0.564,1.173,0.989
			s0.557,0.935,0.721,1.529s0.246,1.253,0.246,1.974V390.512z M562.117,390.328c0-0.428-0.044-0.831-0.132-1.209
			s-0.223-0.709-0.404-0.993s-0.413-0.509-0.694-0.673s-0.615-0.246-1.002-0.246c-0.469,0-0.855,0.1-1.16,0.299
			s-0.545,0.467-0.721,0.801v4.254c0.176,0.328,0.415,0.594,0.716,0.799s0.696,0.309,1.182,0.309c0.387,0,0.721-0.086,1.002-0.256
			s0.511-0.398,0.69-0.686s0.311-0.621,0.396-1.002s0.127-0.785,0.127-1.213V390.328z"/>
		<path d="M570.906,383.358v2.302h3.595v1.564h-3.595v4.562c0,0.357,0.042,0.652,0.127,0.887s0.204,0.422,0.356,0.562
			s0.331,0.239,0.536,0.295s0.431,0.084,0.677,0.084c0.182,0,0.371-0.011,0.567-0.031s0.387-0.044,0.571-0.07
			s0.354-0.056,0.51-0.088s0.286-0.062,0.391-0.092l0.237,1.449c-0.152,0.088-0.335,0.169-0.549,0.242s-0.447,0.133-0.699,0.18
			s-0.514,0.084-0.787,0.11s-0.541,0.04-0.804,0.04c-0.475,0-0.91-0.066-1.305-0.198s-0.735-0.337-1.02-0.615
			s-0.507-0.636-0.668-1.072s-0.242-0.96-0.242-1.569v-4.676h-2.32v-1.564h2.32v-2.302H570.906z"/>
	</g>
</g>
<g>
	<rect x="252.305" y="641.748" fill="none" width="191.279" height="20.579"/>
	<path d="M349.01,648.368h3.347v2.322h-3.347v3.768h-2.423v-3.768h-3.356v-2.322h3.356v-3.603h2.423V648.368z"/>
</g>
<g>
	<g>
		<path fill="none" stroke="#000000" stroke-miterlimit="10" d="M433,609.5c0,0,3.038,0,6.75,0s6.75,3.183,6.75,7.073v26.695
			c0,3.891,3.183,7.231,7.073,7.231H462"/>
	</g>
	<g>
		<path fill="none" stroke="#000000" stroke-miterlimit="10" d="M433,691.5c0,0,3.038,0,6.75,0s6.75-3.499,6.75-7.39v-26.695
			c0-3.891,3.183-6.915,7.073-6.915H462"/>
	</g>
</g>
<g>
</g>
<g>
</g>
<g>
</g>
<g>
</g>
<g>
</g>
<g>
</g>
<g>
</g>
<g>
</g>
<g>
</g>
<g>
</g>
<g>
</g>
<g>
</g>
<g>
</g>
<g>
</g>
<g>
</g>
<g>
</g>
</svg>
