<?xml version="1.0" encoding="utf-8"?>
<!-- Generator: Adobe Illustrator 16.0.4, SVG Export Plug-In . SVG Version: 6.00 Build 0)  -->
<!DOCTYPE svg PUBLIC "-//W3C//DTD SVG 1.1//EN" "http://www.w3.org/Graphics/SVG/1.1/DTD/svg11.dtd">
<svg version="1.1" id="Layer_1" xmlns="http://www.w3.org/2000/svg" xmlns:xlink="http://www.w3.org/1999/xlink" x="0px" y="0px"
	 width="1366px" height="768px" viewBox="0 0 1366 768" enable-background="new 0 0 1366 768" xml:space="preserve">
<g>
	<rect x="58.121" y="224.906" fill="none" width="259.859" height="465.169"/>
	<path fill="#E15218" d="M64.835,235.562h-2.288v5.844h-3.019v-15.641h5.242c0.866,0,1.65,0.102,2.353,0.306
		c0.702,0.204,1.301,0.503,1.799,0.897c0.498,0.394,0.881,0.885,1.149,1.472c0.269,0.587,0.403,1.268,0.403,2.041
		c0,0.559-0.066,1.062-0.199,1.509c-0.133,0.448-0.322,0.849-0.569,1.203s-0.544,0.665-0.892,0.929
		c-0.348,0.265-0.736,0.494-1.166,0.688l3.362,6.456v0.14h-3.233L64.835,235.562z M62.547,233.113h2.234
		c0.852,0,1.509-0.216,1.971-0.65c0.462-0.433,0.693-1.026,0.693-1.778c0-0.78-0.226-1.387-0.677-1.821
		c-0.451-0.433-1.117-0.65-1.998-0.65h-2.224V233.113z"/>
	<path fill="#E15218" d="M80.852,237.324c0-0.279-0.048-0.541-0.145-0.784c-0.097-0.243-0.262-0.471-0.494-0.682
		c-0.233-0.211-0.537-0.404-0.913-0.58c-0.376-0.175-0.843-0.338-1.402-0.489c-0.681-0.186-1.331-0.419-1.95-0.698
		c-0.62-0.279-1.166-0.616-1.638-1.01c-0.473-0.394-0.851-0.852-1.133-1.375c-0.283-0.522-0.424-1.124-0.424-1.805
		c0-0.659,0.14-1.257,0.419-1.794s0.666-0.995,1.16-1.375c0.494-0.379,1.078-0.671,1.751-0.875c0.673-0.204,1.403-0.306,2.191-0.306
		c0.816,0,1.563,0.118,2.24,0.354s1.258,0.568,1.746,0.994c0.487,0.426,0.866,0.933,1.139,1.52c0.272,0.587,0.408,1.232,0.408,1.934
		h-2.943c-0.015-0.351-0.077-0.673-0.188-0.967c-0.111-0.293-0.276-0.546-0.494-0.757c-0.219-0.211-0.491-0.376-0.816-0.494
		c-0.326-0.118-0.708-0.177-1.144-0.177c-0.401,0-0.757,0.048-1.069,0.145s-0.575,0.233-0.79,0.408
		c-0.215,0.176-0.378,0.383-0.489,0.623c-0.111,0.24-0.167,0.5-0.167,0.779c0,0.294,0.073,0.559,0.22,0.795
		c0.146,0.236,0.36,0.45,0.639,0.639c0.279,0.19,0.618,0.364,1.015,0.521c0.397,0.158,0.847,0.305,1.348,0.44
		c0.716,0.208,1.375,0.462,1.977,0.763s1.119,0.657,1.552,1.069c0.433,0.412,0.77,0.881,1.01,1.407
		c0.24,0.526,0.36,1.112,0.36,1.756c0,0.688-0.138,1.298-0.414,1.832c-0.276,0.534-0.657,0.985-1.144,1.354
		c-0.487,0.369-1.067,0.648-1.74,0.838c-0.673,0.189-1.407,0.285-2.202,0.285c-0.494,0-0.987-0.045-1.477-0.134
		c-0.491-0.089-0.96-0.227-1.407-0.414c-0.448-0.186-0.865-0.419-1.251-0.698s-0.722-0.605-1.004-0.978
		c-0.283-0.372-0.505-0.795-0.666-1.268s-0.242-0.995-0.242-1.568h2.965c0.014,0.473,0.097,0.877,0.247,1.214
		c0.15,0.337,0.36,0.612,0.628,0.827s0.591,0.373,0.967,0.473c0.376,0.101,0.79,0.15,1.241,0.15c0.401,0,0.757-0.046,1.069-0.14
		c0.312-0.093,0.575-0.222,0.79-0.387c0.215-0.165,0.379-0.363,0.494-0.596C80.794,237.859,80.852,237.603,80.852,237.324z"/>
	<path fill="#E15218" d="M89.639,225.765l1.482,5.876l1.687-5.876h3.749v15.641h-2.771v-4.63l0.129-7.315l-2.052,6.789h-1.493
		l-1.837-6.499l0.129,7.025v4.63H85.89v-15.641H89.639z"/>
	<path fill="#E15218" d="M109.995,236.507c-0.05,0.788-0.22,1.497-0.51,2.127c-0.29,0.63-0.679,1.167-1.166,1.611
		c-0.487,0.444-1.067,0.786-1.74,1.026c-0.673,0.24-1.418,0.36-2.234,0.36c-0.924,0-1.744-0.17-2.46-0.51
		c-0.716-0.34-1.318-0.816-1.805-1.429c-0.487-0.612-0.859-1.348-1.117-2.208s-0.387-1.805-0.387-2.836v-2.105
		c0-1.038,0.136-1.987,0.408-2.847c0.272-0.859,0.659-1.597,1.16-2.213c0.501-0.616,1.108-1.094,1.821-1.434
		c0.712-0.34,1.513-0.51,2.401-0.51c0.859,0,1.624,0.122,2.293,0.365c0.669,0.244,1.241,0.591,1.713,1.042s0.845,1.003,1.117,1.654
		c0.272,0.652,0.444,1.386,0.516,2.202h-3.008c-0.029-0.465-0.099-0.874-0.209-1.225c-0.111-0.351-0.272-0.643-0.483-0.875
		c-0.211-0.232-0.477-0.408-0.795-0.526c-0.319-0.118-0.7-0.177-1.144-0.177c-0.466,0-0.87,0.101-1.214,0.301
		c-0.344,0.201-0.628,0.494-0.854,0.881s-0.392,0.861-0.5,1.423c-0.107,0.562-0.161,1.202-0.161,1.917v2.127
		c0,1.54,0.216,2.679,0.65,3.416c0.433,0.738,1.119,1.106,2.057,1.106c0.788,0,1.411-0.209,1.869-0.628
		c0.458-0.419,0.712-1.097,0.763-2.036H109.995z"/>
	<path fill="#E15218" d="M133.23,238.14h-4.694l-0.924,3.266h-3.18l5.124-15.641h2.739l5.027,15.641h-3.18L133.23,238.14z
		 M129.277,235.573h3.244l-1.601-5.758L129.277,235.573z"/>
	<path d="M70.324,275.794c0,0.924-0.118,1.81-0.354,2.659s-0.589,1.597-1.058,2.245c-0.469,0.648-1.057,1.164-1.762,1.547
		c-0.706,0.383-1.531,0.575-2.476,0.575c-0.938,0-1.755-0.193-2.449-0.58c-0.695-0.387-1.273-0.904-1.735-1.552
		c-0.462-0.648-0.81-1.395-1.042-2.24c-0.233-0.845-0.349-1.729-0.349-2.653v-1.998c0-0.616,0.052-1.217,0.156-1.805
		c0.104-0.587,0.258-1.14,0.462-1.66c0.204-0.519,0.458-0.999,0.763-1.439c0.304-0.44,0.662-0.818,1.074-1.133
		c0.412-0.315,0.877-0.562,1.396-0.741c0.519-0.179,1.09-0.269,1.713-0.269c0.945,0,1.771,0.193,2.476,0.58
		c0.705,0.387,1.294,0.904,1.767,1.552c0.473,0.648,0.827,1.398,1.063,2.25c0.236,0.853,0.354,1.74,0.354,2.664V275.794z
		 M67.735,273.775c-0.007-0.587-0.061-1.171-0.161-1.751c-0.101-0.58-0.269-1.097-0.505-1.552c-0.236-0.455-0.55-0.823-0.94-1.106
		c-0.391-0.283-0.879-0.424-1.466-0.424c-0.58,0-1.062,0.142-1.445,0.424c-0.383,0.283-0.688,0.654-0.913,1.112
		c-0.226,0.458-0.383,0.976-0.473,1.552c-0.09,0.577-0.138,1.159-0.145,1.746v2.02c0.007,0.587,0.057,1.169,0.15,1.746
		c0.093,0.577,0.252,1.096,0.478,1.558s0.53,0.836,0.913,1.123c0.383,0.287,0.865,0.43,1.445,0.43c0.587,0,1.076-0.143,1.466-0.43
		c0.39-0.286,0.704-0.659,0.94-1.117c0.236-0.458,0.403-0.978,0.5-1.558s0.148-1.164,0.156-1.751V273.775z"/>
	<path d="M75.695,276.611v5.994h-2.578v-15.641h5.231c0.78,0.007,1.502,0.124,2.165,0.349c0.662,0.226,1.233,0.548,1.713,0.967
		c0.479,0.419,0.854,0.928,1.123,1.525c0.269,0.598,0.403,1.273,0.403,2.025c0,0.73-0.134,1.39-0.403,1.977
		c-0.269,0.587-0.643,1.089-1.123,1.504c-0.48,0.416-1.051,0.734-1.713,0.956c-0.663,0.222-1.384,0.337-2.165,0.344H75.695z
		 M75.695,274.527h2.653c0.437,0,0.827-0.066,1.171-0.199c0.344-0.132,0.637-0.317,0.881-0.553c0.243-0.236,0.43-0.519,0.559-0.849
		c0.129-0.329,0.193-0.688,0.193-1.074c0-0.408-0.064-0.784-0.193-1.128s-0.315-0.639-0.559-0.886
		c-0.244-0.247-0.537-0.438-0.881-0.575c-0.344-0.136-0.734-0.208-1.171-0.215h-2.653V274.527z"/>
	<path d="M95.998,284.625h-9.861v-2.02h9.861V284.625z"/>
	<path d="M99.672,266.964h9.303v2.138h-3.384v11.376h3.384v2.127h-9.303v-2.127h3.309v-11.376h-3.309V266.964z"/>
	<path d="M121.897,275.945h-6.563v6.66h-2.6v-15.641h10.13v2.127h-7.53v4.737h6.563V275.945z"/>
	<path d="M100.821,307.809h-2.084v17.456h2.084v2.009h-4.587v-21.484h4.587V307.809z"/>
	<path d="M109.404,317.81v5.994h-2.578v-15.641h5.231c0.78,0.007,1.502,0.124,2.165,0.349c0.662,0.226,1.233,0.548,1.713,0.967
		c0.479,0.419,0.854,0.928,1.123,1.525c0.269,0.598,0.403,1.273,0.403,2.025c0,0.73-0.134,1.39-0.403,1.977
		c-0.269,0.587-0.643,1.089-1.123,1.504c-0.48,0.416-1.051,0.734-1.713,0.956c-0.663,0.222-1.384,0.337-2.165,0.344H109.404z
		 M109.404,315.726h2.653c0.437,0,0.827-0.066,1.171-0.199c0.344-0.132,0.637-0.317,0.881-0.553c0.243-0.236,0.43-0.519,0.559-0.849
		c0.129-0.329,0.193-0.688,0.193-1.074c0-0.408-0.064-0.784-0.193-1.128s-0.315-0.639-0.559-0.886
		c-0.244-0.247-0.537-0.438-0.881-0.575c-0.344-0.136-0.734-0.208-1.171-0.215h-2.653V315.726z"/>
	<path d="M127.354,322.214c-0.394,0.573-0.872,1.019-1.434,1.337c-0.562,0.318-1.191,0.478-1.885,0.478
		c-0.602,0-1.151-0.093-1.649-0.279c-0.498-0.186-0.924-0.481-1.278-0.886c-0.354-0.404-0.63-0.92-0.827-1.547
		c-0.197-0.626-0.295-1.38-0.295-2.261v-6.875h2.567v6.896c0,0.559,0.041,1.021,0.124,1.386c0.082,0.365,0.209,0.655,0.381,0.87
		s0.387,0.367,0.645,0.457c0.258,0.09,0.565,0.134,0.924,0.134c0.688,0,1.242-0.134,1.665-0.403c0.422-0.269,0.741-0.632,0.956-1.09
		v-8.25h2.578v11.623h-2.32L127.354,322.214z"/>
	<path d="M143.317,318.121c0,0.859-0.099,1.649-0.295,2.369c-0.197,0.72-0.489,1.341-0.875,1.864
		c-0.387,0.523-0.863,0.931-1.429,1.225c-0.566,0.293-1.218,0.44-1.955,0.44c-0.709,0-1.323-0.125-1.842-0.376
		c-0.52-0.25-0.965-0.612-1.337-1.085l-0.118,1.246h-2.331v-16.5h2.567v5.983c0.365-0.422,0.795-0.748,1.289-0.978
		c0.494-0.229,1.078-0.344,1.751-0.344c0.745,0,1.402,0.145,1.971,0.435s1.047,0.697,1.434,1.219
		c0.387,0.523,0.678,1.148,0.875,1.875c0.197,0.727,0.295,1.527,0.295,2.401V318.121z M140.75,317.896
		c0-0.516-0.045-1.004-0.134-1.466c-0.09-0.462-0.236-0.868-0.44-1.219c-0.204-0.351-0.478-0.628-0.822-0.833
		s-0.767-0.306-1.268-0.306c-0.609,0-1.106,0.14-1.493,0.419s-0.684,0.645-0.892,1.096v4.802c0.208,0.451,0.506,0.82,0.897,1.106
		c0.39,0.287,0.893,0.43,1.509,0.43c0.487,0,0.898-0.098,1.235-0.295c0.336-0.197,0.608-0.467,0.816-0.811
		c0.208-0.344,0.358-0.747,0.451-1.208c0.093-0.462,0.14-0.958,0.14-1.488V317.896z"/>
	<path d="M146.776,307.304h6.284v14.373h3.545v2.127h-9.829v-2.127h3.695v-12.235h-3.695V307.304z"/>
	<path d="M160.064,312.181h6.198v9.496h3.448v2.127h-9.646v-2.127h3.609v-7.358h-3.609V312.181z M163.458,309.173
		c0-0.401,0.129-0.732,0.387-0.994c0.258-0.261,0.619-0.392,1.085-0.392c0.473,0,0.839,0.131,1.101,0.392
		c0.261,0.262,0.392,0.593,0.392,0.994c0,0.401-0.131,0.732-0.392,0.994c-0.262,0.262-0.628,0.392-1.101,0.392
		c-0.466,0-0.827-0.13-1.085-0.392C163.587,309.905,163.458,309.574,163.458,309.173z"/>
	<path d="M177.789,321.978c0.315,0,0.621-0.05,0.918-0.15c0.297-0.1,0.56-0.24,0.79-0.419c0.229-0.179,0.41-0.39,0.542-0.634
		c0.132-0.243,0.195-0.508,0.188-0.795h2.428c0.007,0.559-0.12,1.083-0.381,1.574c-0.262,0.491-0.616,0.918-1.063,1.284
		c-0.448,0.365-0.965,0.655-1.552,0.87c-0.587,0.215-1.203,0.322-1.848,0.322c-0.896,0-1.68-0.154-2.353-0.462
		c-0.673-0.308-1.235-0.729-1.687-1.262c-0.451-0.533-0.79-1.153-1.015-1.858c-0.226-0.705-0.338-1.456-0.338-2.25v-0.387
		c0-0.795,0.113-1.547,0.338-2.256s0.564-1.328,1.015-1.858c0.451-0.53,1.013-0.951,1.687-1.262
		c0.673-0.312,1.454-0.467,2.342-0.467c0.702,0,1.352,0.107,1.95,0.322c0.598,0.215,1.113,0.516,1.547,0.902
		c0.433,0.387,0.77,0.849,1.01,1.386c0.24,0.537,0.356,1.125,0.349,1.762h-2.428c0.007-0.315-0.048-0.612-0.167-0.892
		s-0.289-0.522-0.51-0.73c-0.222-0.208-0.483-0.372-0.784-0.494c-0.301-0.122-0.63-0.183-0.988-0.183
		c-0.537,0-0.985,0.109-1.343,0.328c-0.358,0.219-0.645,0.505-0.859,0.859s-0.367,0.757-0.457,1.208
		c-0.09,0.451-0.134,0.91-0.134,1.375v0.387c0,0.473,0.044,0.935,0.134,1.386c0.089,0.451,0.242,0.854,0.457,1.208
		s0.501,0.641,0.859,0.859C176.793,321.869,177.244,321.978,177.789,321.978z"/>
	<path d="M203.312,317.004l-1.676,1.88v4.92h-2.61v-15.641h2.61v7.326l1.429-1.858l4.114-5.468h3.147l-5.317,6.864l5.586,8.776
		h-3.094L203.312,317.004z"/>
	<path d="M217.728,324.019c-0.859,0-1.644-0.144-2.353-0.43s-1.316-0.68-1.821-1.182c-0.505-0.501-0.897-1.094-1.176-1.778
		c-0.279-0.684-0.419-1.423-0.419-2.218v-0.44c0-0.924,0.148-1.754,0.446-2.492c0.297-0.737,0.694-1.368,1.192-1.891
		c0.498-0.522,1.078-0.924,1.74-1.203c0.662-0.279,1.359-0.419,2.089-0.419c0.845,0,1.59,0.142,2.234,0.424
		c0.645,0.283,1.183,0.681,1.617,1.192c0.433,0.512,0.761,1.119,0.983,1.821c0.222,0.702,0.333,1.472,0.333,2.31v1.085h-8.057
		c0.043,0.451,0.154,0.87,0.333,1.257c0.179,0.387,0.414,0.722,0.704,1.004c0.29,0.283,0.63,0.505,1.021,0.666
		c0.39,0.161,0.818,0.242,1.284,0.242c0.651,0,1.251-0.129,1.799-0.387s0.994-0.612,1.337-1.063l1.396,1.311
		c-0.187,0.279-0.426,0.55-0.72,0.811c-0.294,0.262-0.638,0.494-1.031,0.698c-0.394,0.204-0.836,0.369-1.327,0.494
		C218.843,323.956,218.308,324.019,217.728,324.019z M217.417,314.039c-0.358,0-0.691,0.064-0.999,0.193
		c-0.308,0.129-0.584,0.317-0.827,0.564c-0.244,0.247-0.45,0.548-0.618,0.902c-0.168,0.354-0.289,0.757-0.36,1.208h5.446v-0.193
		c-0.021-0.344-0.088-0.675-0.199-0.994c-0.111-0.318-0.274-0.603-0.489-0.854c-0.215-0.25-0.485-0.451-0.811-0.602
		C218.234,314.114,217.853,314.039,217.417,314.039z"/>
	<path d="M230.125,319.152l0.44,1.396l3.266-8.368h2.847l-5.887,13.385c-0.129,0.293-0.297,0.61-0.505,0.951
		c-0.208,0.34-0.464,0.657-0.768,0.951c-0.305,0.293-0.668,0.539-1.09,0.736c-0.423,0.197-0.917,0.295-1.482,0.295
		c-0.236,0-0.475-0.02-0.714-0.059c-0.24-0.04-0.453-0.084-0.639-0.134l0.365-1.998c0.05,0,0.118,0.001,0.204,0.005
		c0.086,0.003,0.175,0.009,0.269,0.016c0.093,0.007,0.181,0.012,0.263,0.016c0.082,0.003,0.148,0.005,0.199,0.005
		c0.25,0,0.474-0.074,0.671-0.22c0.197-0.147,0.371-0.315,0.521-0.505c0.15-0.19,0.274-0.376,0.371-0.559s0.167-0.306,0.209-0.371
		l0.763-1.439l-4.941-11.075h2.836L230.125,319.152z"/>
	<path d="M257.098,317.702h-2.621v6.102h-2.578v-15.641h4.941c0.802,0.007,1.542,0.109,2.218,0.306
		c0.677,0.197,1.262,0.491,1.756,0.881c0.494,0.391,0.877,0.879,1.149,1.466c0.272,0.587,0.408,1.275,0.408,2.062
		c0,0.53-0.07,1.012-0.209,1.445c-0.14,0.434-0.335,0.826-0.585,1.176c-0.251,0.351-0.552,0.659-0.902,0.924
		c-0.351,0.265-0.738,0.491-1.16,0.677l3.309,6.574v0.129h-2.75L257.098,317.702z M254.477,315.618h2.374
		c0.43,0,0.823-0.061,1.182-0.183c0.358-0.122,0.667-0.295,0.929-0.521c0.261-0.226,0.463-0.501,0.607-0.827
		c0.143-0.326,0.215-0.7,0.215-1.123c0-0.437-0.068-0.823-0.204-1.16c-0.136-0.336-0.332-0.619-0.585-0.849
		c-0.254-0.229-0.564-0.403-0.929-0.521s-0.773-0.181-1.225-0.188h-2.363V315.618z"/>
	<path d="M267.754,305.789h4.598v21.484h-4.598v-2.009h2.095v-17.456h-2.095V305.789z"/>
	<path d="M70.324,358.192c0,0.924-0.118,1.81-0.354,2.659s-0.589,1.597-1.058,2.245c-0.469,0.648-1.057,1.164-1.762,1.547
		c-0.706,0.383-1.531,0.575-2.476,0.575c-0.938,0-1.755-0.193-2.449-0.58c-0.695-0.387-1.273-0.904-1.735-1.552
		c-0.462-0.648-0.81-1.395-1.042-2.24c-0.233-0.845-0.349-1.729-0.349-2.653v-1.998c0-0.616,0.052-1.217,0.156-1.805
		c0.104-0.587,0.258-1.14,0.462-1.66c0.204-0.519,0.458-0.999,0.763-1.439c0.304-0.44,0.662-0.818,1.074-1.133
		c0.412-0.315,0.877-0.562,1.396-0.741c0.519-0.179,1.09-0.269,1.713-0.269c0.945,0,1.771,0.193,2.476,0.58
		c0.705,0.387,1.294,0.904,1.767,1.552c0.473,0.648,0.827,1.398,1.063,2.25c0.236,0.853,0.354,1.74,0.354,2.664V358.192z
		 M67.735,356.173c-0.007-0.587-0.061-1.171-0.161-1.751c-0.101-0.58-0.269-1.097-0.505-1.552c-0.236-0.455-0.55-0.823-0.94-1.106
		c-0.391-0.283-0.879-0.424-1.466-0.424c-0.58,0-1.062,0.142-1.445,0.424c-0.383,0.283-0.688,0.654-0.913,1.112
		c-0.226,0.458-0.383,0.976-0.473,1.552c-0.09,0.577-0.138,1.159-0.145,1.746v2.02c0.007,0.587,0.057,1.169,0.15,1.746
		c0.093,0.577,0.252,1.096,0.478,1.558s0.53,0.836,0.913,1.123c0.383,0.287,0.865,0.43,1.445,0.43c0.587,0,1.076-0.143,1.466-0.43
		c0.39-0.286,0.704-0.659,0.94-1.117c0.236-0.458,0.403-0.978,0.5-1.558s0.148-1.164,0.156-1.751V356.173z"/>
	<path d="M75.695,359.009v5.994h-2.578v-15.641h5.231c0.78,0.007,1.502,0.124,2.165,0.349c0.662,0.226,1.233,0.548,1.713,0.967
		c0.479,0.419,0.854,0.928,1.123,1.525c0.269,0.598,0.403,1.273,0.403,2.025c0,0.73-0.134,1.39-0.403,1.977
		c-0.269,0.587-0.643,1.089-1.123,1.504c-0.48,0.416-1.051,0.734-1.713,0.956c-0.663,0.222-1.384,0.337-2.165,0.344H75.695z
		 M75.695,356.925h2.653c0.437,0,0.827-0.066,1.171-0.199c0.344-0.132,0.637-0.317,0.881-0.553c0.243-0.236,0.43-0.519,0.559-0.849
		c0.129-0.329,0.193-0.688,0.193-1.074c0-0.408-0.064-0.784-0.193-1.128s-0.315-0.639-0.559-0.886
		c-0.244-0.247-0.537-0.438-0.881-0.575c-0.344-0.136-0.734-0.208-1.171-0.215h-2.653V356.925z"/>
	<path d="M95.998,367.022h-9.861v-2.02h9.861V367.022z"/>
	<path d="M108.491,357.988h-6.435v4.909h7.53v2.105H99.468v-15.641h10.044v2.127h-7.455v4.415h6.435V357.988z"/>
	<path d="M115.355,362.897h7.455v2.105h-10.033v-15.641h2.578V362.897z"/>
	<path d="M133.854,360.975c0-0.372-0.077-0.7-0.231-0.983c-0.154-0.283-0.373-0.532-0.655-0.747c-0.283-0.215-0.62-0.403-1.01-0.564
		c-0.391-0.161-0.815-0.31-1.273-0.446c-0.616-0.179-1.223-0.401-1.821-0.666c-0.598-0.265-1.132-0.589-1.601-0.972
		c-0.469-0.383-0.849-0.831-1.139-1.343c-0.29-0.512-0.435-1.104-0.435-1.778c0-0.673,0.145-1.276,0.435-1.81
		c0.29-0.533,0.678-0.986,1.166-1.359c0.487-0.372,1.053-0.659,1.697-0.859c0.645-0.2,1.317-0.301,2.02-0.301
		c0.752,0,1.456,0.117,2.111,0.349c0.655,0.233,1.228,0.559,1.719,0.978c0.49,0.419,0.879,0.92,1.166,1.504
		c0.286,0.584,0.433,1.23,0.44,1.939h-2.578c-0.036-0.394-0.12-0.753-0.252-1.08c-0.133-0.326-0.319-0.607-0.559-0.843
		c-0.24-0.236-0.532-0.419-0.875-0.548s-0.741-0.193-1.192-0.193c-0.387,0-0.745,0.05-1.074,0.15
		c-0.33,0.101-0.614,0.247-0.854,0.44c-0.24,0.193-0.428,0.426-0.564,0.698c-0.136,0.272-0.204,0.58-0.204,0.924
		c0,0.365,0.093,0.682,0.279,0.951c0.186,0.269,0.43,0.503,0.73,0.704c0.301,0.201,0.646,0.375,1.037,0.521
		c0.39,0.147,0.796,0.281,1.219,0.403c0.651,0.193,1.274,0.432,1.869,0.714c0.594,0.283,1.117,0.623,1.568,1.021
		s0.809,0.858,1.074,1.38c0.265,0.523,0.397,1.121,0.397,1.794c0,0.695-0.147,1.307-0.44,1.837c-0.294,0.53-0.688,0.974-1.182,1.332
		c-0.494,0.358-1.067,0.628-1.719,0.811c-0.652,0.183-1.332,0.274-2.041,0.274c-0.48,0-0.956-0.047-1.429-0.14
		s-0.926-0.232-1.359-0.419c-0.434-0.186-0.836-0.417-1.208-0.693c-0.373-0.275-0.697-0.594-0.972-0.956
		c-0.276-0.361-0.493-0.766-0.65-1.214c-0.158-0.447-0.24-0.94-0.247-1.477h2.589c0.036,0.473,0.14,0.885,0.312,1.235
		c0.172,0.351,0.401,0.643,0.688,0.875c0.286,0.233,0.621,0.408,1.004,0.526c0.383,0.118,0.807,0.177,1.273,0.177
		c0.387,0,0.748-0.046,1.085-0.14c0.336-0.093,0.63-0.231,0.881-0.414c0.25-0.183,0.447-0.408,0.591-0.677
		C133.782,361.625,133.854,361.318,133.854,360.975z"/>
	<path d="M148.098,357.988h-6.435v4.909h7.53v2.105h-10.119v-15.641h10.044v2.127h-7.455v4.415h6.435V357.988z"/>
	<path d="M100.821,390.207h-2.084v17.455h2.084v2.01h-4.587v-21.484h4.587V390.207z"/>
	<path d="M106.503,406.201v-15.641h3.824c1.074,0.008,2.039,0.188,2.895,0.537c0.855,0.352,1.583,0.846,2.181,1.482
		c0.598,0.639,1.058,1.398,1.38,2.283s0.487,1.863,0.494,2.938v1.182c-0.007,1.074-0.172,2.055-0.494,2.938
		c-0.322,0.885-0.781,1.644-1.375,2.277c-0.595,0.634-1.314,1.126-2.159,1.478c-0.845,0.351-1.794,0.525-2.847,0.525H106.503z
		 M109.125,392.645v11.484h1.278c0.709-0.008,1.328-0.135,1.858-0.382c0.53-0.247,0.972-0.595,1.327-1.042s0.619-0.986,0.795-1.617
		c0.175-0.629,0.267-1.332,0.274-2.105v-1.203c-0.007-0.752-0.099-1.439-0.274-2.062c-0.176-0.623-0.442-1.161-0.8-1.616
		c-0.358-0.454-0.808-0.81-1.348-1.063c-0.541-0.254-1.176-0.385-1.907-0.393H109.125z"/>
	<path d="M125.313,406.416c-0.859,0-1.644-0.143-2.353-0.43c-0.709-0.285-1.316-0.68-1.821-1.182
		c-0.505-0.5-0.897-1.094-1.176-1.777s-0.419-1.424-0.419-2.219v-0.439c0-0.924,0.148-1.755,0.446-2.492
		c0.297-0.738,0.694-1.368,1.192-1.891c0.498-0.523,1.078-0.924,1.74-1.203c0.662-0.279,1.359-0.42,2.089-0.42
		c0.845,0,1.59,0.143,2.234,0.425c0.645,0.283,1.183,0.681,1.617,1.192c0.433,0.512,0.761,1.119,0.983,1.82
		c0.222,0.703,0.333,1.473,0.333,2.311v1.084h-8.057c0.043,0.451,0.154,0.871,0.333,1.258c0.179,0.387,0.414,0.721,0.704,1.004
		s0.63,0.505,1.021,0.666c0.39,0.161,0.818,0.242,1.284,0.242c0.651,0,1.251-0.129,1.799-0.387s0.994-0.613,1.337-1.064l1.396,1.311
		c-0.187,0.279-0.426,0.551-0.72,0.812c-0.294,0.262-0.638,0.494-1.031,0.698c-0.394,0.204-0.836,0.369-1.327,0.494
		C126.428,406.354,125.893,406.416,125.313,406.416z M125.001,396.438c-0.358,0-0.691,0.064-0.999,0.193
		c-0.308,0.129-0.584,0.316-0.827,0.563c-0.244,0.247-0.45,0.548-0.618,0.902c-0.168,0.354-0.289,0.757-0.36,1.208h5.446v-0.193
		c-0.021-0.344-0.088-0.674-0.199-0.993c-0.111-0.318-0.274-0.603-0.489-0.854c-0.215-0.25-0.485-0.451-0.811-0.602
		C125.819,396.512,125.438,396.438,125.001,396.438z"/>
	<path d="M133.574,389.701h6.284v14.373h3.545v2.127h-9.829v-2.127h3.695V391.84h-3.695V389.701z"/>
	<path d="M153.715,406.201c-0.072-0.143-0.131-0.311-0.177-0.504c-0.047-0.193-0.088-0.401-0.124-0.623
		c-0.179,0.186-0.381,0.359-0.607,0.521s-0.477,0.303-0.752,0.425c-0.276,0.121-0.573,0.218-0.892,0.289
		c-0.319,0.072-0.661,0.107-1.026,0.107c-0.616,0-1.173-0.088-1.67-0.263c-0.498-0.175-0.924-0.419-1.278-0.73
		s-0.628-0.679-0.822-1.101c-0.193-0.423-0.29-0.881-0.29-1.375c0-1.246,0.463-2.199,1.391-2.857
		c0.927-0.659,2.257-0.988,3.991-0.988h1.88v-0.764c0-0.615-0.208-1.104-0.623-1.466c-0.416-0.361-1.003-0.542-1.762-0.542
		c-0.344,0-0.645,0.041-0.902,0.123s-0.473,0.195-0.645,0.338c-0.172,0.145-0.301,0.312-0.387,0.506s-0.129,0.4-0.129,0.623h-2.567
		c0-0.451,0.105-0.891,0.317-1.316c0.211-0.426,0.521-0.806,0.929-1.139s0.908-0.6,1.499-0.801c0.591-0.199,1.266-0.301,2.025-0.301
		c0.688,0,1.325,0.085,1.912,0.253c0.587,0.169,1.096,0.419,1.525,0.752s0.766,0.749,1.01,1.246
		c0.243,0.498,0.365,1.079,0.365,1.745v5.178c0,0.51,0.038,0.973,0.113,1.392s0.184,0.782,0.328,1.091v0.182H153.715z
		 M150.622,404.344c0.329,0,0.639-0.041,0.929-0.124c0.29-0.082,0.551-0.189,0.784-0.322c0.232-0.132,0.433-0.284,0.602-0.456
		c0.168-0.172,0.302-0.348,0.403-0.527v-2.18h-1.633c-1.046,0-1.817,0.168-2.315,0.504c-0.498,0.338-0.747,0.816-0.747,1.439
		c0,0.236,0.039,0.457,0.118,0.661c0.079,0.204,0.199,0.38,0.36,0.526s0.365,0.264,0.612,0.35S150.278,404.344,150.622,404.344z"/>
	<path d="M164.114,401.551l0.44,1.396l3.266-8.369h2.847l-5.887,13.385c-0.129,0.294-0.297,0.611-0.505,0.951
		c-0.208,0.34-0.464,0.656-0.768,0.951c-0.305,0.293-0.668,0.538-1.09,0.735c-0.423,0.196-0.917,0.296-1.482,0.296
		c-0.236,0-0.475-0.021-0.714-0.06c-0.24-0.04-0.453-0.085-0.639-0.134l0.365-1.998c0.05,0,0.118,0.001,0.204,0.005
		c0.086,0.003,0.175,0.009,0.269,0.017c0.093,0.006,0.181,0.012,0.263,0.016c0.082,0.004,0.148,0.006,0.199,0.006
		c0.25,0,0.474-0.074,0.671-0.221c0.197-0.146,0.371-0.315,0.521-0.505c0.15-0.19,0.274-0.376,0.371-0.559s0.167-0.306,0.209-0.37
		l0.763-1.439l-4.941-11.076h2.836L164.114,401.551z"/>
	<path d="M175.339,388.188h4.598v21.484h-4.598v-2.01h2.095v-17.455h-2.095V388.188z"/>
	<path d="M104.033,440.59c0,0.924-0.118,1.811-0.354,2.658c-0.236,0.85-0.589,1.598-1.058,2.246
		c-0.469,0.647-1.057,1.163-1.762,1.547c-0.706,0.383-1.531,0.574-2.476,0.574c-0.938,0-1.755-0.193-2.449-0.58
		c-0.695-0.387-1.273-0.904-1.735-1.553c-0.462-0.647-0.81-1.395-1.042-2.239c-0.233-0.845-0.349-1.729-0.349-2.653v-1.998
		c0-0.615,0.052-1.217,0.156-1.805c0.104-0.587,0.258-1.141,0.462-1.66c0.204-0.519,0.458-0.998,0.763-1.439
		c0.304-0.439,0.662-0.817,1.074-1.133c0.412-0.314,0.877-0.562,1.396-0.741c0.519-0.179,1.09-0.269,1.713-0.269
		c0.945,0,1.771,0.193,2.476,0.58c0.705,0.387,1.294,0.904,1.767,1.553s0.827,1.398,1.063,2.25c0.236,0.853,0.354,1.74,0.354,2.664
		V440.59z M101.444,438.57c-0.007-0.587-0.061-1.171-0.161-1.751c-0.101-0.58-0.269-1.097-0.505-1.552s-0.55-0.824-0.94-1.107
		c-0.391-0.282-0.879-0.424-1.466-0.424c-0.58,0-1.062,0.142-1.445,0.424c-0.383,0.283-0.688,0.654-0.913,1.112
		s-0.383,0.976-0.473,1.552c-0.09,0.577-0.138,1.159-0.145,1.746v2.02c0.007,0.587,0.057,1.169,0.15,1.746
		c0.093,0.576,0.252,1.096,0.478,1.557c0.226,0.463,0.53,0.837,0.913,1.123c0.383,0.286,0.865,0.43,1.445,0.43
		c0.587,0,1.076-0.144,1.466-0.43c0.39-0.286,0.704-0.659,0.94-1.117s0.403-0.978,0.5-1.558s0.148-1.164,0.156-1.751V438.57z"/>
	<path d="M109.404,441.406v5.994h-2.578V431.76h5.231c0.78,0.008,1.502,0.123,2.165,0.35c0.662,0.225,1.233,0.547,1.713,0.967
		c0.479,0.418,0.854,0.928,1.123,1.525s0.403,1.272,0.403,2.024c0,0.73-0.134,1.39-0.403,1.977s-0.643,1.089-1.123,1.504
		c-0.48,0.415-1.051,0.734-1.713,0.956c-0.663,0.222-1.384,0.337-2.165,0.344H109.404z M109.404,439.322h2.653
		c0.437,0,0.827-0.066,1.171-0.199c0.344-0.132,0.637-0.316,0.881-0.553c0.243-0.236,0.43-0.52,0.559-0.849s0.193-0.688,0.193-1.074
		c0-0.408-0.064-0.784-0.193-1.128s-0.315-0.639-0.559-0.887c-0.244-0.246-0.537-0.438-0.881-0.574
		c-0.344-0.136-0.734-0.207-1.171-0.215h-2.653V439.322z"/>
	<path d="M129.707,449.42h-9.861v-2.02h9.861V449.42z"/>
	<path d="M143.596,442.599c-0.072,0.752-0.251,1.438-0.537,2.058c-0.287,0.619-0.666,1.148-1.139,1.59
		c-0.473,0.439-1.03,0.78-1.67,1.02c-0.641,0.24-1.355,0.36-2.143,0.36c-0.953,0-1.783-0.185-2.492-0.554
		c-0.709-0.368-1.3-0.868-1.772-1.498s-0.827-1.368-1.063-2.213s-0.358-1.747-0.365-2.707v-2.138
		c0.007-0.952,0.132-1.853,0.376-2.702c0.243-0.848,0.603-1.59,1.08-2.223c0.476-0.635,1.069-1.135,1.778-1.504
		s1.532-0.554,2.471-0.554c0.823,0,1.558,0.122,2.202,0.365s1.196,0.587,1.654,1.031c0.458,0.444,0.823,0.985,1.096,1.622
		c0.272,0.638,0.447,1.347,0.526,2.127h-2.578c-0.043-0.458-0.131-0.875-0.263-1.252c-0.133-0.375-0.313-0.697-0.542-0.967
		c-0.229-0.268-0.518-0.474-0.865-0.617c-0.348-0.143-0.757-0.215-1.23-0.215c-0.58,0-1.067,0.133-1.461,0.397
		c-0.394,0.265-0.713,0.622-0.956,1.069c-0.244,0.447-0.417,0.965-0.521,1.552c-0.104,0.587-0.156,1.203-0.156,1.848v2.159
		c0,0.673,0.052,1.305,0.156,1.896c0.104,0.59,0.274,1.107,0.51,1.552s0.551,0.795,0.945,1.053c0.394,0.258,0.884,0.387,1.472,0.387
		c0.902,0,1.59-0.256,2.062-0.769c0.473-0.512,0.752-1.236,0.838-2.175H143.596z"/>
	<path d="M154.36,443.372c0-0.372-0.077-0.7-0.231-0.983c-0.154-0.282-0.373-0.531-0.655-0.746c-0.283-0.215-0.62-0.402-1.01-0.564
		c-0.391-0.16-0.815-0.31-1.273-0.445c-0.616-0.179-1.223-0.401-1.821-0.666c-0.598-0.265-1.132-0.589-1.601-0.973
		c-0.469-0.383-0.849-0.83-1.139-1.342s-0.435-1.105-0.435-1.778s0.145-1.276,0.435-1.81s0.678-0.986,1.166-1.359
		c0.487-0.372,1.053-0.658,1.697-0.859c0.645-0.2,1.317-0.301,2.02-0.301c0.752,0,1.456,0.117,2.111,0.35s1.228,0.559,1.719,0.977
		c0.49,0.42,0.879,0.921,1.166,1.504c0.286,0.584,0.433,1.23,0.44,1.939h-2.578c-0.036-0.394-0.12-0.754-0.252-1.08
		c-0.133-0.325-0.319-0.606-0.559-0.843c-0.24-0.236-0.532-0.419-0.875-0.548s-0.741-0.193-1.192-0.193
		c-0.387,0-0.745,0.051-1.074,0.15c-0.33,0.101-0.614,0.247-0.854,0.44c-0.24,0.193-0.428,0.427-0.564,0.698
		c-0.136,0.272-0.204,0.58-0.204,0.924c0,0.365,0.093,0.682,0.279,0.951c0.186,0.268,0.43,0.503,0.73,0.703
		c0.301,0.201,0.646,0.375,1.037,0.521c0.39,0.146,0.796,0.281,1.219,0.402c0.651,0.193,1.274,0.432,1.869,0.715
		c0.594,0.282,1.117,0.623,1.568,1.02c0.451,0.398,0.809,0.858,1.074,1.381c0.265,0.522,0.397,1.121,0.397,1.794
		c0,0.694-0.147,1.307-0.44,1.837c-0.294,0.53-0.688,0.974-1.182,1.332s-1.067,0.629-1.719,0.811
		c-0.652,0.184-1.332,0.274-2.041,0.274c-0.48,0-0.956-0.047-1.429-0.14s-0.926-0.232-1.359-0.419
		c-0.434-0.187-0.836-0.417-1.208-0.692c-0.373-0.276-0.697-0.595-0.972-0.957c-0.276-0.361-0.493-0.766-0.65-1.213
		c-0.158-0.448-0.24-0.94-0.247-1.478h2.589c0.036,0.473,0.14,0.885,0.312,1.235s0.401,0.643,0.688,0.875
		c0.286,0.233,0.621,0.408,1.004,0.527c0.383,0.117,0.807,0.177,1.273,0.177c0.387,0,0.748-0.047,1.085-0.14
		c0.336-0.093,0.63-0.23,0.881-0.414c0.25-0.182,0.447-0.408,0.591-0.676C154.288,444.021,154.36,443.716,154.36,443.372z"/>
	<path d="M164.415,443.479l3.255-11.72h2.814L165.65,447.4h-2.46l-4.823-15.641h2.814L164.415,443.479z"/>
	<path d="M104.033,481.789c0,0.924-0.118,1.811-0.354,2.658c-0.236,0.85-0.589,1.598-1.058,2.246
		c-0.469,0.647-1.057,1.163-1.762,1.547c-0.706,0.383-1.531,0.574-2.476,0.574c-0.938,0-1.755-0.193-2.449-0.58
		c-0.695-0.387-1.273-0.904-1.735-1.553c-0.462-0.647-0.81-1.395-1.042-2.239c-0.233-0.845-0.349-1.729-0.349-2.653v-1.998
		c0-0.616,0.052-1.218,0.156-1.805c0.104-0.587,0.258-1.141,0.462-1.66c0.204-0.519,0.458-0.998,0.763-1.439
		c0.304-0.439,0.662-0.817,1.074-1.133c0.412-0.315,0.877-0.562,1.396-0.741c0.519-0.179,1.09-0.269,1.713-0.269
		c0.945,0,1.771,0.193,2.476,0.58c0.705,0.387,1.294,0.904,1.767,1.553c0.473,0.647,0.827,1.397,1.063,2.25s0.354,1.74,0.354,2.664
		V481.789z M101.444,479.77c-0.007-0.587-0.061-1.171-0.161-1.751c-0.101-0.58-0.269-1.098-0.505-1.552
		c-0.236-0.455-0.55-0.824-0.94-1.107c-0.391-0.282-0.879-0.424-1.466-0.424c-0.58,0-1.062,0.142-1.445,0.424
		c-0.383,0.283-0.688,0.654-0.913,1.112s-0.383,0.976-0.473,1.552c-0.09,0.577-0.138,1.159-0.145,1.746v2.02
		c0.007,0.587,0.057,1.169,0.15,1.746c0.093,0.576,0.252,1.096,0.478,1.557c0.226,0.463,0.53,0.837,0.913,1.123
		c0.383,0.286,0.865,0.43,1.445,0.43c0.587,0,1.076-0.144,1.466-0.43c0.39-0.286,0.704-0.659,0.94-1.117s0.403-0.978,0.5-1.558
		s0.148-1.164,0.156-1.751V479.77z"/>
	<path d="M109.404,482.605v5.994h-2.578v-15.641h5.231c0.78,0.007,1.502,0.123,2.165,0.35c0.662,0.225,1.233,0.547,1.713,0.967
		c0.479,0.418,0.854,0.927,1.123,1.525c0.269,0.598,0.403,1.272,0.403,2.024c0,0.73-0.134,1.39-0.403,1.977
		s-0.643,1.089-1.123,1.504c-0.48,0.415-1.051,0.734-1.713,0.956c-0.663,0.222-1.384,0.337-2.165,0.344H109.404z M109.404,480.521
		h2.653c0.437,0,0.827-0.066,1.171-0.199c0.344-0.132,0.637-0.316,0.881-0.553c0.243-0.236,0.43-0.52,0.559-0.849
		s0.193-0.688,0.193-1.074c0-0.408-0.064-0.784-0.193-1.128s-0.315-0.639-0.559-0.887c-0.244-0.246-0.537-0.438-0.881-0.574
		s-0.734-0.208-1.171-0.215h-2.653V480.521z"/>
	<path d="M129.707,490.619h-9.861v-2.02h9.861V490.619z"/>
	<path d="M132.908,488.6v-15.641h3.824c1.074,0.007,2.039,0.187,2.895,0.537c0.855,0.351,1.583,0.845,2.181,1.482
		c0.598,0.638,1.058,1.398,1.38,2.283c0.322,0.884,0.487,1.863,0.494,2.938v1.182c-0.007,1.074-0.172,2.054-0.494,2.938
		c-0.322,0.885-0.781,1.645-1.375,2.277c-0.595,0.635-1.314,1.127-2.159,1.478c-0.845,0.351-1.794,0.526-2.847,0.526H132.908z
		 M135.529,475.043v11.483h1.278c0.709-0.007,1.328-0.134,1.858-0.382c0.53-0.246,0.972-0.594,1.327-1.041
		c0.354-0.448,0.619-0.987,0.795-1.617c0.175-0.63,0.267-1.332,0.274-2.105v-1.203c-0.007-0.752-0.099-1.439-0.274-2.062
		c-0.176-0.623-0.442-1.162-0.8-1.617c-0.358-0.454-0.808-0.809-1.348-1.062c-0.541-0.255-1.176-0.386-1.907-0.393H135.529z"/>
	<path d="M151.481,482.498h-2.621v6.102h-2.578v-15.641h4.941c0.802,0.007,1.542,0.109,2.218,0.307
		c0.677,0.196,1.262,0.49,1.756,0.881c0.494,0.39,0.877,0.879,1.149,1.466c0.272,0.587,0.408,1.274,0.408,2.062
		c0,0.53-0.07,1.012-0.209,1.444c-0.14,0.434-0.335,0.826-0.585,1.177c-0.251,0.351-0.552,0.659-0.902,0.924
		c-0.351,0.265-0.738,0.49-1.16,0.677l3.309,6.574v0.129h-2.75L151.481,482.498z M148.86,480.414h2.374
		c0.43,0,0.823-0.061,1.182-0.183c0.358-0.122,0.667-0.296,0.929-0.521c0.261-0.227,0.463-0.502,0.607-0.828
		c0.143-0.325,0.215-0.699,0.215-1.122c0-0.437-0.068-0.823-0.204-1.16c-0.136-0.337-0.332-0.619-0.585-0.849
		c-0.254-0.229-0.564-0.402-0.929-0.521c-0.365-0.117-0.773-0.181-1.225-0.188h-2.363V480.414z"/>
	<path d="M170.043,481.789c0,0.924-0.118,1.811-0.354,2.658c-0.236,0.85-0.589,1.598-1.058,2.246
		c-0.469,0.647-1.057,1.163-1.762,1.547c-0.706,0.383-1.531,0.574-2.476,0.574c-0.938,0-1.755-0.193-2.449-0.58
		c-0.695-0.387-1.273-0.904-1.735-1.553c-0.462-0.647-0.81-1.395-1.042-2.239c-0.233-0.845-0.349-1.729-0.349-2.653v-1.998
		c0-0.616,0.052-1.218,0.156-1.805c0.104-0.587,0.258-1.141,0.462-1.66c0.204-0.519,0.458-0.998,0.763-1.439
		c0.304-0.439,0.662-0.817,1.074-1.133c0.412-0.315,0.877-0.562,1.396-0.741c0.519-0.179,1.09-0.269,1.713-0.269
		c0.945,0,1.771,0.193,2.476,0.58c0.705,0.387,1.294,0.904,1.767,1.553c0.473,0.647,0.827,1.397,1.063,2.25s0.354,1.74,0.354,2.664
		V481.789z M167.455,479.77c-0.007-0.587-0.061-1.171-0.161-1.751c-0.101-0.58-0.269-1.098-0.505-1.552
		c-0.236-0.455-0.55-0.824-0.94-1.107c-0.391-0.282-0.879-0.424-1.466-0.424c-0.58,0-1.062,0.142-1.445,0.424
		c-0.383,0.283-0.688,0.654-0.913,1.112s-0.383,0.976-0.473,1.552c-0.09,0.577-0.138,1.159-0.145,1.746v2.02
		c0.007,0.587,0.057,1.169,0.15,1.746c0.093,0.576,0.252,1.096,0.478,1.557c0.226,0.463,0.53,0.837,0.913,1.123
		c0.383,0.286,0.865,0.43,1.445,0.43c0.587,0,1.076-0.144,1.466-0.43c0.39-0.286,0.704-0.659,0.94-1.117s0.403-0.978,0.5-1.558
		s0.148-1.164,0.156-1.751V479.77z"/>
	<path d="M175.415,482.605v5.994h-2.578v-15.641h5.231c0.78,0.007,1.502,0.123,2.165,0.35c0.662,0.225,1.233,0.547,1.713,0.967
		c0.479,0.418,0.854,0.927,1.123,1.525c0.269,0.598,0.403,1.272,0.403,2.024c0,0.73-0.134,1.39-0.403,1.977
		s-0.643,1.089-1.123,1.504c-0.48,0.415-1.051,0.734-1.713,0.956c-0.663,0.222-1.384,0.337-2.165,0.344H175.415z M175.415,480.521
		h2.653c0.437,0,0.827-0.066,1.171-0.199c0.344-0.132,0.637-0.316,0.881-0.553c0.243-0.236,0.43-0.52,0.559-0.849
		s0.193-0.688,0.193-1.074c0-0.408-0.064-0.784-0.193-1.128s-0.315-0.639-0.559-0.887c-0.244-0.246-0.537-0.438-0.881-0.574
		s-0.734-0.208-1.171-0.215h-2.653V480.521z"/>
	<path d="M100.821,513.804h-2.084v17.456h2.084v2.009h-4.587v-21.484h4.587V513.804z"/>
	<path d="M109.404,523.805v5.994h-2.578v-15.641h5.231c0.78,0.007,1.502,0.123,2.165,0.35c0.662,0.225,1.233,0.547,1.713,0.967
		c0.479,0.418,0.854,0.927,1.123,1.525c0.269,0.598,0.403,1.272,0.403,2.024c0,0.73-0.134,1.39-0.403,1.977
		s-0.643,1.089-1.123,1.504c-0.48,0.415-1.051,0.734-1.713,0.956c-0.663,0.222-1.384,0.337-2.165,0.344H109.404z M109.404,521.721
		h2.653c0.437,0,0.827-0.066,1.171-0.199c0.344-0.132,0.637-0.316,0.881-0.553c0.243-0.236,0.43-0.52,0.559-0.849
		s0.193-0.688,0.193-1.074c0-0.408-0.064-0.784-0.193-1.128s-0.315-0.639-0.559-0.887c-0.244-0.246-0.537-0.438-0.881-0.574
		s-0.734-0.208-1.171-0.215h-2.653V521.721z"/>
	<path d="M127.354,528.209c-0.394,0.573-0.872,1.019-1.434,1.338c-0.562,0.318-1.191,0.478-1.885,0.478
		c-0.602,0-1.151-0.093-1.649-0.279c-0.498-0.187-0.924-0.481-1.278-0.886c-0.354-0.405-0.63-0.921-0.827-1.547
		c-0.197-0.627-0.295-1.381-0.295-2.262v-6.875h2.567v6.896c0,0.559,0.041,1.021,0.124,1.386c0.082,0.365,0.209,0.655,0.381,0.87
		s0.387,0.367,0.645,0.457c0.258,0.089,0.565,0.134,0.924,0.134c0.688,0,1.242-0.134,1.665-0.403
		c0.422-0.268,0.741-0.632,0.956-1.09v-8.25h2.578v11.623h-2.32L127.354,528.209z"/>
	<path d="M143.317,524.116c0,0.859-0.099,1.649-0.295,2.368c-0.197,0.721-0.489,1.342-0.875,1.864s-0.863,0.931-1.429,1.225
		c-0.566,0.294-1.218,0.44-1.955,0.44c-0.709,0-1.323-0.125-1.842-0.376c-0.52-0.251-0.965-0.612-1.337-1.085l-0.118,1.246h-2.331
		v-16.5h2.567v5.983c0.365-0.423,0.795-0.748,1.289-0.978s1.078-0.344,1.751-0.344c0.745,0,1.402,0.145,1.971,0.436
		c0.569,0.289,1.047,0.696,1.434,1.219s0.678,1.147,0.875,1.875c0.197,0.727,0.295,1.526,0.295,2.4V524.116z M140.75,523.891
		c0-0.516-0.045-1.004-0.134-1.467c-0.09-0.461-0.236-0.868-0.44-1.219s-0.478-0.629-0.822-0.832
		c-0.344-0.205-0.767-0.307-1.268-0.307c-0.609,0-1.106,0.14-1.493,0.419s-0.684,0.645-0.892,1.096v4.802
		c0.208,0.451,0.506,0.82,0.897,1.106c0.39,0.286,0.893,0.43,1.509,0.43c0.487,0,0.898-0.099,1.235-0.296
		c0.336-0.196,0.608-0.467,0.816-0.811c0.208-0.344,0.358-0.746,0.451-1.209c0.093-0.461,0.14-0.957,0.14-1.487V523.891z"/>
	<path d="M146.776,513.299h6.284v14.373h3.545v2.127h-9.829v-2.127h3.695v-12.235h-3.695V513.299z"/>
	<path d="M160.064,518.176h6.198v9.496h3.448v2.127h-9.646v-2.127h3.609v-7.358h-3.609V518.176z M163.458,515.168
		c0-0.401,0.129-0.732,0.387-0.994c0.258-0.261,0.619-0.392,1.085-0.392c0.473,0,0.839,0.131,1.101,0.392
		c0.261,0.262,0.392,0.593,0.392,0.994s-0.131,0.732-0.392,0.994c-0.262,0.261-0.628,0.392-1.101,0.392
		c-0.466,0-0.827-0.131-1.085-0.392C163.587,515.9,163.458,515.569,163.458,515.168z"/>
	<path d="M177.789,527.973c0.315,0,0.621-0.05,0.918-0.15c0.297-0.101,0.56-0.24,0.79-0.419c0.229-0.179,0.41-0.391,0.542-0.634
		c0.132-0.243,0.195-0.509,0.188-0.795h2.428c0.007,0.559-0.12,1.083-0.381,1.574c-0.262,0.49-0.616,0.918-1.063,1.283
		c-0.448,0.365-0.965,0.655-1.552,0.87c-0.587,0.215-1.203,0.322-1.848,0.322c-0.896,0-1.68-0.154-2.353-0.462
		c-0.673-0.308-1.235-0.729-1.687-1.262c-0.451-0.534-0.79-1.153-1.015-1.859c-0.226-0.705-0.338-1.455-0.338-2.25v-0.387
		c0-0.795,0.113-1.547,0.338-2.256s0.564-1.328,1.015-1.858s1.013-0.95,1.687-1.263c0.673-0.311,1.454-0.467,2.342-0.467
		c0.702,0,1.352,0.107,1.95,0.322c0.598,0.215,1.113,0.516,1.547,0.902c0.433,0.387,0.77,0.849,1.01,1.386
		c0.24,0.537,0.356,1.124,0.349,1.762h-2.428c0.007-0.315-0.048-0.612-0.167-0.892s-0.289-0.522-0.51-0.73
		c-0.222-0.208-0.483-0.372-0.784-0.494s-0.63-0.183-0.988-0.183c-0.537,0-0.985,0.109-1.343,0.327
		c-0.358,0.219-0.645,0.506-0.859,0.859c-0.215,0.355-0.367,0.758-0.457,1.209c-0.09,0.451-0.134,0.909-0.134,1.375v0.387
		c0,0.473,0.044,0.935,0.134,1.386c0.089,0.451,0.242,0.854,0.457,1.208c0.215,0.355,0.501,0.642,0.859,0.859
		C176.793,527.863,177.244,527.973,177.789,527.973z"/>
	<path d="M203.312,522.999l-1.676,1.88v4.92h-2.61v-15.641h2.61v7.326l1.429-1.858l4.114-5.468h3.147l-5.317,6.864l5.586,8.776
		h-3.094L203.312,522.999z"/>
	<path d="M217.728,530.014c-0.859,0-1.644-0.144-2.353-0.43s-1.316-0.681-1.821-1.182s-0.897-1.094-1.176-1.777
		c-0.279-0.685-0.419-1.424-0.419-2.219v-0.44c0-0.924,0.148-1.755,0.446-2.492c0.297-0.737,0.694-1.368,1.192-1.891
		c0.498-0.522,1.078-0.924,1.74-1.203c0.662-0.279,1.359-0.419,2.089-0.419c0.845,0,1.59,0.142,2.234,0.424
		c0.645,0.283,1.183,0.681,1.617,1.193c0.433,0.512,0.761,1.118,0.983,1.82c0.222,0.702,0.333,1.472,0.333,2.31v1.085h-8.057
		c0.043,0.451,0.154,0.87,0.333,1.257c0.179,0.387,0.414,0.722,0.704,1.005c0.29,0.282,0.63,0.504,1.021,0.666
		c0.39,0.16,0.818,0.241,1.284,0.241c0.651,0,1.251-0.129,1.799-0.387s0.994-0.612,1.337-1.063l1.396,1.311
		c-0.187,0.279-0.426,0.55-0.72,0.811c-0.294,0.262-0.638,0.494-1.031,0.699c-0.394,0.203-0.836,0.368-1.327,0.494
		C218.843,529.951,218.308,530.014,217.728,530.014z M217.417,520.034c-0.358,0-0.691,0.064-0.999,0.193
		c-0.308,0.129-0.584,0.317-0.827,0.563c-0.244,0.248-0.45,0.549-0.618,0.902c-0.168,0.355-0.289,0.758-0.36,1.209h5.446v-0.193
		c-0.021-0.344-0.088-0.675-0.199-0.994c-0.111-0.318-0.274-0.603-0.489-0.854s-0.485-0.451-0.811-0.602
		C218.234,520.109,217.853,520.034,217.417,520.034z"/>
	<path d="M230.125,525.147l0.44,1.396l3.266-8.368h2.847l-5.887,13.385c-0.129,0.294-0.297,0.61-0.505,0.951
		c-0.208,0.34-0.464,0.656-0.768,0.95c-0.305,0.294-0.668,0.539-1.09,0.735c-0.423,0.197-0.917,0.296-1.482,0.296
		c-0.236,0-0.475-0.02-0.714-0.06c-0.24-0.039-0.453-0.084-0.639-0.134l0.365-1.998c0.05,0,0.118,0.002,0.204,0.005
		c0.086,0.004,0.175,0.01,0.269,0.017c0.093,0.007,0.181,0.013,0.263,0.017c0.082,0.003,0.148,0.005,0.199,0.005
		c0.25,0,0.474-0.073,0.671-0.22c0.197-0.147,0.371-0.315,0.521-0.506c0.15-0.189,0.274-0.375,0.371-0.559
		c0.097-0.182,0.167-0.306,0.209-0.37l0.763-1.439l-4.941-11.075h2.836L230.125,525.147z"/>
	<path d="M259.44,526.168h-4.888l-1.074,3.631h-2.664l5.081-15.641h2.267l4.984,15.641h-2.653L259.44,526.168z M255.208,523.966
		h3.588l-1.772-6.134L255.208,523.966z"/>
	<path d="M267.754,511.784h4.598v21.484h-4.598v-2.009h2.095v-17.456h-2.095V511.784z"/>
	<path d="M70.324,564.188c0,0.924-0.118,1.811-0.354,2.658c-0.236,0.85-0.589,1.598-1.058,2.246
		c-0.469,0.647-1.057,1.163-1.762,1.547c-0.706,0.383-1.531,0.574-2.476,0.574c-0.938,0-1.755-0.193-2.449-0.58
		c-0.695-0.387-1.273-0.904-1.735-1.553c-0.462-0.647-0.81-1.395-1.042-2.239c-0.233-0.845-0.349-1.729-0.349-2.653v-1.998
		c0-0.616,0.052-1.218,0.156-1.805c0.104-0.587,0.258-1.141,0.462-1.66c0.204-0.519,0.458-0.998,0.763-1.439
		c0.304-0.439,0.662-0.817,1.074-1.133c0.412-0.315,0.877-0.562,1.396-0.741c0.519-0.179,1.09-0.269,1.713-0.269
		c0.945,0,1.771,0.193,2.476,0.58c0.705,0.387,1.294,0.904,1.767,1.553c0.473,0.647,0.827,1.397,1.063,2.25s0.354,1.74,0.354,2.664
		V564.188z M67.735,562.168c-0.007-0.587-0.061-1.171-0.161-1.751c-0.101-0.58-0.269-1.098-0.505-1.552
		c-0.236-0.455-0.55-0.824-0.94-1.107c-0.391-0.282-0.879-0.424-1.466-0.424c-0.58,0-1.062,0.142-1.445,0.424
		c-0.383,0.283-0.688,0.654-0.913,1.112s-0.383,0.976-0.473,1.552c-0.09,0.577-0.138,1.159-0.145,1.746v2.02
		c0.007,0.587,0.057,1.169,0.15,1.746c0.093,0.576,0.252,1.096,0.478,1.557c0.226,0.463,0.53,0.837,0.913,1.123
		c0.383,0.286,0.865,0.43,1.445,0.43c0.587,0,1.076-0.144,1.466-0.43c0.39-0.286,0.704-0.659,0.94-1.117s0.403-0.978,0.5-1.558
		s0.148-1.164,0.156-1.751V562.168z"/>
	<path d="M75.695,565.004v5.994h-2.578v-15.641h5.231c0.78,0.007,1.502,0.123,2.165,0.35c0.662,0.225,1.233,0.547,1.713,0.967
		c0.479,0.418,0.854,0.927,1.123,1.525c0.269,0.598,0.403,1.272,0.403,2.024c0,0.73-0.134,1.39-0.403,1.977
		s-0.643,1.089-1.123,1.504c-0.48,0.415-1.051,0.734-1.713,0.956c-0.663,0.222-1.384,0.337-2.165,0.344H75.695z M75.695,562.92
		h2.653c0.437,0,0.827-0.066,1.171-0.199c0.344-0.132,0.637-0.316,0.881-0.553c0.243-0.236,0.43-0.52,0.559-0.849
		s0.193-0.688,0.193-1.074c0-0.408-0.064-0.784-0.193-1.128s-0.315-0.639-0.559-0.887c-0.244-0.246-0.537-0.438-0.881-0.574
		s-0.734-0.208-1.171-0.215h-2.653V562.92z"/>
	<path d="M95.998,573.018h-9.861v-2.02h9.861V573.018z"/>
	<path d="M108.491,563.983h-6.435v4.909h7.53v2.105H99.468v-15.641h10.044v2.127h-7.455v4.415h6.435V563.983z"/>
	<path d="M122.649,570.998h-2.6l-5.092-10.764l-0.011,10.764h-2.61v-15.641h2.61l5.07,10.731l0.021-10.731h2.61V570.998z"/>
	<path d="M125.604,570.998v-15.641h3.824c1.074,0.007,2.039,0.187,2.895,0.537c0.855,0.351,1.583,0.845,2.181,1.482
		c0.598,0.638,1.058,1.398,1.38,2.283c0.322,0.884,0.487,1.863,0.494,2.938v1.182c-0.007,1.074-0.172,2.054-0.494,2.938
		c-0.322,0.885-0.781,1.645-1.375,2.277c-0.595,0.635-1.314,1.127-2.159,1.478c-0.845,0.351-1.794,0.526-2.847,0.526H125.604z
		 M128.225,557.441v11.483h1.278c0.709-0.007,1.328-0.134,1.858-0.382c0.53-0.246,0.972-0.594,1.327-1.041
		c0.354-0.448,0.619-0.987,0.795-1.617c0.175-0.63,0.267-1.332,0.274-2.105v-1.203c-0.007-0.752-0.099-1.439-0.274-2.062
		c-0.176-0.623-0.442-1.162-0.8-1.617c-0.358-0.454-0.808-0.809-1.348-1.062c-0.541-0.255-1.176-0.386-1.907-0.393H128.225z"/>
	<path d="M139.278,555.357h9.303v2.138h-3.384v11.376h3.384v2.127h-9.303v-2.127h3.309v-11.376h-3.309V555.357z"/>
	<path d="M161.504,564.338h-6.563v6.66h-2.6v-15.641h10.13v2.127h-7.53v4.737h6.563V564.338z"/>
	<path d="M70.324,605.387c0,0.924-0.118,1.811-0.354,2.658c-0.236,0.85-0.589,1.598-1.058,2.246
		c-0.469,0.647-1.057,1.163-1.762,1.547c-0.706,0.383-1.531,0.574-2.476,0.574c-0.938,0-1.755-0.193-2.449-0.58
		c-0.695-0.387-1.273-0.904-1.735-1.553c-0.462-0.647-0.81-1.395-1.042-2.239c-0.233-0.845-0.349-1.729-0.349-2.653v-1.998
		c0-0.616,0.052-1.218,0.156-1.805c0.104-0.587,0.258-1.141,0.462-1.66c0.204-0.519,0.458-0.998,0.763-1.439
		c0.304-0.439,0.662-0.817,1.074-1.133c0.412-0.315,0.877-0.562,1.396-0.741c0.519-0.179,1.09-0.269,1.713-0.269
		c0.945,0,1.771,0.193,2.476,0.58c0.705,0.387,1.294,0.904,1.767,1.553c0.473,0.647,0.827,1.397,1.063,2.25s0.354,1.74,0.354,2.664
		V605.387z M67.735,603.367c-0.007-0.587-0.061-1.171-0.161-1.751c-0.101-0.58-0.269-1.098-0.505-1.552
		c-0.236-0.455-0.55-0.824-0.94-1.107c-0.391-0.282-0.879-0.424-1.466-0.424c-0.58,0-1.062,0.142-1.445,0.424
		c-0.383,0.283-0.688,0.654-0.913,1.112s-0.383,0.976-0.473,1.552c-0.09,0.577-0.138,1.159-0.145,1.746v2.02
		c0.007,0.587,0.057,1.169,0.15,1.746c0.093,0.576,0.252,1.096,0.478,1.557c0.226,0.463,0.53,0.837,0.913,1.123
		c0.383,0.286,0.865,0.43,1.445,0.43c0.587,0,1.076-0.144,1.466-0.43c0.39-0.286,0.704-0.659,0.94-1.117s0.403-0.978,0.5-1.558
		s0.148-1.164,0.156-1.751V603.367z"/>
	<path d="M75.695,606.203v5.994h-2.578v-15.641h5.231c0.78,0.007,1.502,0.123,2.165,0.35c0.662,0.225,1.233,0.547,1.713,0.967
		c0.479,0.418,0.854,0.927,1.123,1.525c0.269,0.598,0.403,1.272,0.403,2.024c0,0.73-0.134,1.39-0.403,1.977
		s-0.643,1.089-1.123,1.504c-0.48,0.415-1.051,0.734-1.713,0.956c-0.663,0.222-1.384,0.337-2.165,0.344H75.695z M75.695,604.119
		h2.653c0.437,0,0.827-0.066,1.171-0.199c0.344-0.132,0.637-0.316,0.881-0.553c0.243-0.236,0.43-0.52,0.559-0.849
		s0.193-0.688,0.193-1.074c0-0.408-0.064-0.784-0.193-1.128s-0.315-0.639-0.559-0.887c-0.244-0.246-0.537-0.438-0.881-0.574
		s-0.734-0.208-1.171-0.215h-2.653V604.119z"/>
	<path d="M95.998,614.217h-9.861v-2.02h9.861V614.217z"/>
	<path d="M109.888,607.396c-0.072,0.752-0.251,1.438-0.537,2.058c-0.287,0.619-0.666,1.148-1.139,1.59
		c-0.473,0.439-1.03,0.78-1.67,1.02c-0.641,0.24-1.355,0.36-2.143,0.36c-0.953,0-1.783-0.185-2.492-0.554
		c-0.709-0.368-1.3-0.868-1.772-1.498s-0.827-1.368-1.063-2.213s-0.358-1.747-0.365-2.707v-2.138
		c0.007-0.952,0.132-1.853,0.376-2.702c0.243-0.848,0.603-1.59,1.08-2.223c0.476-0.635,1.069-1.136,1.778-1.504
		c0.709-0.369,1.532-0.554,2.471-0.554c0.823,0,1.558,0.122,2.202,0.365s1.196,0.587,1.654,1.031
		c0.458,0.444,0.823,0.984,1.096,1.622c0.272,0.638,0.447,1.347,0.526,2.127h-2.578c-0.043-0.458-0.131-0.875-0.263-1.252
		c-0.133-0.375-0.313-0.697-0.542-0.967c-0.229-0.268-0.518-0.474-0.865-0.617c-0.348-0.144-0.757-0.215-1.23-0.215
		c-0.58,0-1.067,0.133-1.461,0.397c-0.394,0.265-0.713,0.621-0.956,1.069c-0.244,0.447-0.417,0.965-0.521,1.552
		c-0.104,0.587-0.156,1.203-0.156,1.848v2.159c0,0.673,0.052,1.305,0.156,1.896c0.104,0.59,0.274,1.107,0.51,1.552
		s0.551,0.795,0.945,1.053c0.394,0.258,0.884,0.387,1.472,0.387c0.902,0,1.59-0.256,2.062-0.769
		c0.473-0.512,0.752-1.236,0.838-2.175H109.888z"/>
	<path d="M122.66,612.197h-2.514v-6.982h-5.317v6.982h-2.503v-15.641h2.503v6.542h5.317v-6.542h2.514V612.197z"/>
	<path d="M134.896,605.183h-6.435v4.909h7.53v2.105h-10.119v-15.641h10.044v2.127h-7.455v4.415h6.435V605.183z"/>
	<path d="M149.494,607.396c-0.072,0.752-0.251,1.438-0.537,2.058c-0.287,0.619-0.666,1.148-1.139,1.59
		c-0.473,0.439-1.03,0.78-1.67,1.02c-0.641,0.24-1.355,0.36-2.143,0.36c-0.953,0-1.783-0.185-2.492-0.554
		c-0.709-0.368-1.3-0.868-1.772-1.498s-0.827-1.368-1.063-2.213s-0.358-1.747-0.365-2.707v-2.138
		c0.007-0.952,0.132-1.853,0.376-2.702c0.243-0.848,0.603-1.59,1.08-2.223c0.476-0.635,1.069-1.136,1.778-1.504
		c0.709-0.369,1.532-0.554,2.471-0.554c0.823,0,1.558,0.122,2.202,0.365s1.196,0.587,1.654,1.031
		c0.458,0.444,0.823,0.984,1.096,1.622c0.272,0.638,0.447,1.347,0.526,2.127h-2.578c-0.043-0.458-0.131-0.875-0.263-1.252
		c-0.133-0.375-0.313-0.697-0.542-0.967c-0.229-0.268-0.518-0.474-0.865-0.617c-0.348-0.144-0.757-0.215-1.23-0.215
		c-0.58,0-1.067,0.133-1.461,0.397c-0.394,0.265-0.713,0.621-0.956,1.069c-0.244,0.447-0.417,0.965-0.521,1.552
		c-0.104,0.587-0.156,1.203-0.156,1.848v2.159c0,0.673,0.052,1.305,0.156,1.896c0.104,0.59,0.274,1.107,0.51,1.552
		s0.551,0.795,0.945,1.053c0.394,0.258,0.884,0.387,1.472,0.387c0.902,0,1.59-0.256,2.062-0.769
		c0.473-0.512,0.752-1.236,0.838-2.175H149.494z"/>
	<path d="M156.401,605.397l-1.676,1.88v4.92h-2.61v-15.641h2.61v7.326l1.429-1.858l4.114-5.468h3.147l-5.317,6.864l5.586,8.776
		h-3.094L156.401,605.397z"/>
	<path d="M173.46,608.169c0-0.372-0.077-0.7-0.231-0.983c-0.154-0.282-0.373-0.531-0.655-0.746c-0.283-0.215-0.62-0.402-1.01-0.564
		c-0.391-0.16-0.815-0.31-1.273-0.445c-0.616-0.179-1.223-0.401-1.821-0.666c-0.598-0.265-1.132-0.589-1.601-0.973
		c-0.469-0.383-0.849-0.83-1.139-1.342c-0.29-0.513-0.435-1.105-0.435-1.778s0.145-1.276,0.435-1.81
		c0.29-0.534,0.678-0.987,1.166-1.359c0.487-0.372,1.053-0.659,1.697-0.859s1.317-0.301,2.02-0.301c0.752,0,1.456,0.116,2.111,0.35
		c0.655,0.232,1.228,0.559,1.719,0.977c0.49,0.42,0.879,0.921,1.166,1.504c0.286,0.584,0.433,1.23,0.44,1.939h-2.578
		c-0.036-0.394-0.12-0.754-0.252-1.08c-0.133-0.325-0.319-0.606-0.559-0.843c-0.24-0.236-0.532-0.419-0.875-0.548
		s-0.741-0.193-1.192-0.193c-0.387,0-0.745,0.05-1.074,0.15c-0.33,0.101-0.614,0.247-0.854,0.44
		c-0.24,0.193-0.428,0.426-0.564,0.698c-0.136,0.272-0.204,0.58-0.204,0.924c0,0.365,0.093,0.682,0.279,0.951
		c0.186,0.268,0.43,0.503,0.73,0.703s0.646,0.374,1.037,0.521c0.39,0.146,0.796,0.28,1.219,0.402
		c0.651,0.193,1.274,0.432,1.869,0.715c0.594,0.282,1.117,0.623,1.568,1.02c0.451,0.398,0.809,0.858,1.074,1.381
		c0.265,0.522,0.397,1.121,0.397,1.794c0,0.694-0.147,1.307-0.44,1.837c-0.294,0.53-0.688,0.974-1.182,1.332
		s-1.067,0.629-1.719,0.811c-0.652,0.184-1.332,0.274-2.041,0.274c-0.48,0-0.956-0.047-1.429-0.14s-0.926-0.232-1.359-0.419
		c-0.434-0.187-0.836-0.417-1.208-0.692c-0.373-0.276-0.697-0.595-0.972-0.957c-0.276-0.361-0.493-0.766-0.65-1.213
		c-0.158-0.448-0.24-0.94-0.247-1.478h2.589c0.036,0.473,0.14,0.885,0.312,1.235s0.401,0.643,0.688,0.875
		c0.286,0.233,0.621,0.408,1.004,0.527c0.383,0.117,0.807,0.177,1.273,0.177c0.387,0,0.748-0.047,1.085-0.14
		c0.336-0.093,0.63-0.23,0.881-0.414c0.25-0.182,0.447-0.408,0.591-0.676C173.388,608.818,173.46,608.513,173.46,608.169z"/>
	<path d="M178.885,596.557h9.303v2.138h-3.384v11.376h3.384v2.127h-9.303v-2.127h3.309v-11.376h-3.309V596.557z"/>
	<path d="M202.238,610.242c-0.265,0.315-0.577,0.605-0.935,0.87c-0.358,0.265-0.759,0.494-1.203,0.688
		c-0.444,0.193-0.926,0.344-1.445,0.451c-0.52,0.107-1.073,0.161-1.66,0.161c-0.938,0-1.769-0.183-2.492-0.548
		c-0.724-0.365-1.334-0.864-1.832-1.499c-0.498-0.633-0.877-1.38-1.139-2.239c-0.262-0.859-0.396-1.783-0.403-2.771v-1.934
		c0-0.988,0.129-1.912,0.387-2.771s0.628-1.607,1.112-2.245s1.076-1.141,1.778-1.51c0.702-0.368,1.504-0.553,2.406-0.553
		c0.809,0,1.532,0.111,2.17,0.333c0.637,0.222,1.185,0.542,1.644,0.962c0.458,0.418,0.822,0.929,1.09,1.53s0.438,1.274,0.51,2.02
		h-2.535c-0.064-0.423-0.165-0.802-0.301-1.139c-0.136-0.337-0.319-0.623-0.548-0.859c-0.229-0.236-0.507-0.417-0.833-0.542
		c-0.326-0.126-0.711-0.188-1.155-0.188c-0.544,0-1.012,0.134-1.402,0.403c-0.391,0.268-0.714,0.63-0.972,1.084
		c-0.258,0.455-0.448,0.981-0.569,1.58c-0.122,0.598-0.187,1.223-0.193,1.874v1.955c0.007,0.651,0.073,1.274,0.199,1.869
		c0.125,0.595,0.322,1.119,0.591,1.573c0.269,0.455,0.614,0.818,1.037,1.091c0.422,0.272,0.931,0.412,1.525,0.419
		c0.243,0,0.494-0.016,0.752-0.049c0.258-0.031,0.503-0.084,0.736-0.155c0.232-0.071,0.446-0.163,0.639-0.274
		c0.193-0.11,0.351-0.248,0.473-0.413l0.021-3.126h-2.825v-2.009h5.35L202.238,610.242z"/>
</g>
<g>
</g>
<g>
</g>
<g>
</g>
<g>
</g>
<g>
</g>
<g>
</g>
<g>
</g>
<g>
</g>
<g>
</g>
<g>
</g>
<g>
</g>
<g>
</g>
<g>
</g>
<g>
</g>
<g>
</g>
<g>
</g>
</svg>
