<?xml version="1.0" encoding="utf-8"?>
<!-- Generator: Adobe Illustrator 16.0.4, SVG Export Plug-In . SVG Version: 6.00 Build 0)  -->
<!DOCTYPE svg PUBLIC "-//W3C//DTD SVG 1.1//EN" "http://www.w3.org/Graphics/SVG/1.1/DTD/svg11.dtd">
<svg version="1.1" id="Layer_1" xmlns="http://www.w3.org/2000/svg" xmlns:xlink="http://www.w3.org/1999/xlink" x="0px" y="0px"
	 width="1366px" height="768px" viewBox="0 0 1366 768" enable-background="new 0 0 1366 768" xml:space="preserve">
<rect fill="#FFFFFF" width="1366" height="768"/>
<g opacity="0.2">
	<rect x="579.5" y="438.5" opacity="0.33" fill="#E15218" enable-background="new    " width="71" height="71"/>
	<g>
		<rect x="544.735" y="133.839" fill="none" width="274.529" height="70.322"/>
		<path d="M559.908,152.079L558.666,148h-6.246l-1.242,4.078h-3.914l6.047-17.203h4.441l6.07,17.203H559.908z M557.798,144.954
			c-1.148-3.695-1.795-5.785-1.939-6.27s-0.248-0.867-0.311-1.148c-0.258,1-0.996,3.473-2.215,7.418H557.798z"/>
		<path d="M569.271,152.079h-3.574v-18.234h3.574V152.079z"/>
		<path d="M572.869,135.59c0-1.164,0.648-1.746,1.945-1.746s1.945,0.582,1.945,1.746c0,0.555-0.162,0.986-0.486,1.295
			s-0.811,0.463-1.459,0.463C573.517,137.348,572.869,136.762,572.869,135.59z M576.595,152.079h-3.574v-13.102h3.574V152.079z"/>
		<path d="M585.666,152.313c-4.078,0-6.117-2.238-6.117-6.715c0-2.227,0.555-3.928,1.664-5.104s2.699-1.764,4.77-1.764
			c1.516,0,2.875,0.297,4.078,0.891l-1.055,2.766c-0.562-0.227-1.086-0.412-1.57-0.557s-0.969-0.217-1.453-0.217
			c-1.859,0-2.789,1.32-2.789,3.961c0,2.562,0.93,3.844,2.789,3.844c0.688,0,1.324-0.092,1.91-0.275s1.172-0.471,1.758-0.861v3.059
			c-0.578,0.367-1.162,0.621-1.752,0.762S586.564,152.313,585.666,152.313z"/>
		<path d="M598.615,152.313c-2.109,0-3.758-0.582-4.945-1.746s-1.781-2.812-1.781-4.945c0-2.195,0.549-3.893,1.646-5.092
			s2.615-1.799,4.553-1.799c1.852,0,3.293,0.527,4.324,1.582s1.547,2.512,1.547,4.371v1.734h-8.449
			c0.039,1.016,0.34,1.809,0.902,2.379s1.352,0.855,2.367,0.855c0.789,0,1.535-0.082,2.238-0.246s1.438-0.426,2.203-0.785v2.766
			c-0.625,0.312-1.293,0.545-2.004,0.697S599.638,152.313,598.615,152.313z M598.111,141.274c-0.758,0-1.352,0.24-1.781,0.721
			s-0.676,1.162-0.738,2.045h5.016c-0.016-0.883-0.246-1.564-0.691-2.045S598.869,141.274,598.111,141.274z"/>
		<path d="M622.24,148.188c0,1.344-0.467,2.367-1.4,3.07s-2.33,1.055-4.189,1.055c-0.953,0-1.766-0.064-2.438-0.193
			s-1.301-0.318-1.887-0.568v-2.953c0.664,0.312,1.412,0.574,2.244,0.785s1.564,0.316,2.197,0.316c1.297,0,1.945-0.375,1.945-1.125
			c0-0.281-0.086-0.51-0.258-0.686s-0.469-0.375-0.891-0.598s-0.984-0.482-1.688-0.779c-1.008-0.422-1.748-0.812-2.221-1.172
			s-0.816-0.771-1.031-1.236s-0.322-1.037-0.322-1.717c0-1.164,0.451-2.064,1.354-2.701s2.182-0.955,3.838-0.955
			c1.578,0,3.113,0.344,4.605,1.031l-1.078,2.578c-0.656-0.281-1.27-0.512-1.84-0.691s-1.152-0.27-1.746-0.27
			c-1.055,0-1.582,0.285-1.582,0.855c0,0.32,0.17,0.598,0.51,0.832s1.084,0.582,2.232,1.043c1.023,0.414,1.773,0.801,2.25,1.16
			s0.828,0.773,1.055,1.242S622.24,147.54,622.24,148.188z"/>
		<path d="M632.224,152.313c-1.539,0-2.746-0.559-3.621-1.676h-0.188c0.125,1.094,0.188,1.727,0.188,1.898v5.309h-3.574v-18.867
			h2.906l0.504,1.699h0.164c0.836-1.297,2.074-1.945,3.715-1.945c1.547,0,2.758,0.598,3.633,1.793s1.312,2.855,1.312,4.98
			c0,1.398-0.205,2.613-0.615,3.645s-0.994,1.816-1.752,2.355S633.248,152.313,632.224,152.313z M631.169,141.59
			c-0.883,0-1.527,0.271-1.934,0.814s-0.617,1.439-0.633,2.689v0.387c0,1.406,0.209,2.414,0.627,3.023s1.08,0.914,1.986,0.914
			c1.602,0,2.402-1.32,2.402-3.961c0-1.289-0.197-2.256-0.592-2.9S632.013,141.59,631.169,141.59z"/>
		<path d="M646.146,152.313c-2.109,0-3.758-0.582-4.945-1.746s-1.781-2.812-1.781-4.945c0-2.195,0.549-3.893,1.646-5.092
			s2.615-1.799,4.553-1.799c1.852,0,3.293,0.527,4.324,1.582s1.547,2.512,1.547,4.371v1.734h-8.449
			c0.039,1.016,0.34,1.809,0.902,2.379s1.352,0.855,2.367,0.855c0.789,0,1.535-0.082,2.238-0.246s1.438-0.426,2.203-0.785v2.766
			c-0.625,0.312-1.293,0.545-2.004,0.697S647.169,152.313,646.146,152.313z M645.642,141.274c-0.758,0-1.352,0.24-1.781,0.721
			s-0.676,1.162-0.738,2.045h5.016c-0.016-0.883-0.246-1.564-0.691-2.045S646.4,141.274,645.642,141.274z"/>
		<path d="M666.49,152.079h-3.574v-7.652c0-0.945-0.168-1.654-0.504-2.127s-0.871-0.709-1.605-0.709c-1,0-1.723,0.334-2.168,1.002
			s-0.668,1.775-0.668,3.322v6.164h-3.574v-13.102h2.73l0.48,1.676h0.199c0.398-0.633,0.947-1.111,1.646-1.436
			s1.494-0.486,2.385-0.486c1.523,0,2.68,0.412,3.469,1.236s1.184,2.014,1.184,3.568V152.079z"/>
		<path d="M674.318,152.313c-1.539,0-2.748-0.598-3.627-1.793s-1.318-2.852-1.318-4.969c0-2.148,0.447-3.822,1.342-5.021
			s2.127-1.799,3.697-1.799c1.648,0,2.906,0.641,3.773,1.922h0.117c-0.18-0.977-0.27-1.848-0.27-2.613v-4.195h3.586v18.234h-2.742
			l-0.691-1.699h-0.152C677.22,151.668,675.982,152.313,674.318,152.313z M675.572,149.465c0.914,0,1.584-0.266,2.01-0.797
			s0.658-1.434,0.697-2.707v-0.387c0-1.406-0.217-2.414-0.65-3.023s-1.139-0.914-2.115-0.914c-0.797,0-1.416,0.338-1.857,1.014
			s-0.662,1.658-0.662,2.947s0.223,2.256,0.668,2.9S674.744,149.465,675.572,149.465z"/>
		<path d="M694.498,148.188c0,1.344-0.467,2.367-1.4,3.07s-2.33,1.055-4.189,1.055c-0.953,0-1.766-0.064-2.438-0.193
			s-1.301-0.318-1.887-0.568v-2.953c0.664,0.312,1.412,0.574,2.244,0.785s1.564,0.316,2.197,0.316c1.297,0,1.945-0.375,1.945-1.125
			c0-0.281-0.086-0.51-0.258-0.686s-0.469-0.375-0.891-0.598s-0.984-0.482-1.688-0.779c-1.008-0.422-1.748-0.812-2.221-1.172
			s-0.816-0.771-1.031-1.236s-0.322-1.037-0.322-1.717c0-1.164,0.451-2.064,1.354-2.701s2.182-0.955,3.838-0.955
			c1.578,0,3.113,0.344,4.605,1.031l-1.078,2.578c-0.656-0.281-1.27-0.512-1.84-0.691s-1.152-0.27-1.746-0.27
			c-1.055,0-1.582,0.285-1.582,0.855c0,0.32,0.17,0.598,0.51,0.832s1.084,0.582,2.232,1.043c1.023,0.414,1.773,0.801,2.25,1.16
			s0.828,0.773,1.055,1.242S694.498,147.54,694.498,148.188z"/>
		<path d="M709.041,149.465c0.625,0,1.375-0.137,2.25-0.41v2.66c-0.891,0.398-1.984,0.598-3.281,0.598
			c-1.43,0-2.471-0.361-3.123-1.084s-0.979-1.807-0.979-3.252v-6.316h-1.711v-1.512l1.969-1.195l1.031-2.766h2.285v2.789h3.668
			v2.684h-3.668v6.316c0,0.508,0.143,0.883,0.428,1.125S708.572,149.465,709.041,149.465z"/>
		<path d="M725.846,145.504c0,2.133-0.562,3.801-1.688,5.004s-2.691,1.805-4.699,1.805c-1.258,0-2.367-0.275-3.328-0.826
			s-1.699-1.342-2.215-2.373s-0.773-2.234-0.773-3.609c0-2.141,0.559-3.805,1.676-4.992s2.688-1.781,4.711-1.781
			c1.258,0,2.367,0.273,3.328,0.82s1.699,1.332,2.215,2.355S725.846,144.129,725.846,145.504z M716.787,145.504
			c0,1.297,0.213,2.277,0.639,2.941s1.119,0.996,2.08,0.996c0.953,0,1.639-0.33,2.057-0.99s0.627-1.643,0.627-2.947
			c0-1.297-0.211-2.27-0.633-2.918s-1.113-0.973-2.074-0.973c-0.953,0-1.641,0.322-2.062,0.967S716.787,144.2,716.787,145.504z"/>
		<path d="M747.127,152.079h-3.574v-7.652c0-1.891-0.703-2.836-2.109-2.836c-1,0-1.723,0.34-2.168,1.02s-0.668,1.781-0.668,3.305
			v6.164h-3.574v-18.234h3.574v3.715c0,0.289-0.027,0.969-0.082,2.039l-0.082,1.055h0.188c0.797-1.281,2.062-1.922,3.797-1.922
			c1.539,0,2.707,0.414,3.504,1.242s1.195,2.016,1.195,3.562V152.079z"/>
		<path d="M756.736,152.313c-2.109,0-3.758-0.582-4.945-1.746s-1.781-2.812-1.781-4.945c0-2.195,0.549-3.893,1.646-5.092
			s2.615-1.799,4.553-1.799c1.852,0,3.293,0.527,4.324,1.582s1.547,2.512,1.547,4.371v1.734h-8.449
			c0.039,1.016,0.34,1.809,0.902,2.379s1.352,0.855,2.367,0.855c0.789,0,1.535-0.082,2.238-0.246s1.438-0.426,2.203-0.785v2.766
			c-0.625,0.312-1.293,0.545-2.004,0.697S757.76,152.313,756.736,152.313z M756.232,141.274c-0.758,0-1.352,0.24-1.781,0.721
			s-0.676,1.162-0.738,2.045h5.016c-0.016-0.883-0.246-1.564-0.691-2.045S756.99,141.274,756.232,141.274z"/>
		<path d="M772.299,138.731c0.484,0,0.887,0.035,1.207,0.105l-0.27,3.352c-0.289-0.078-0.641-0.117-1.055-0.117
			c-1.141,0-2.029,0.293-2.666,0.879s-0.955,1.406-0.955,2.461v6.668h-3.574v-13.102h2.707l0.527,2.203h0.176
			c0.406-0.734,0.955-1.326,1.646-1.775S771.486,138.731,772.299,138.731z"/>
		<path d="M785.025,148.188c0,1.344-0.467,2.367-1.4,3.07s-2.33,1.055-4.189,1.055c-0.953,0-1.766-0.064-2.438-0.193
			s-1.301-0.318-1.887-0.568v-2.953c0.664,0.312,1.412,0.574,2.244,0.785s1.564,0.316,2.197,0.316c1.297,0,1.945-0.375,1.945-1.125
			c0-0.281-0.086-0.51-0.258-0.686s-0.469-0.375-0.891-0.598s-0.984-0.482-1.688-0.779c-1.008-0.422-1.748-0.812-2.221-1.172
			s-0.816-0.771-1.031-1.236s-0.322-1.037-0.322-1.717c0-1.164,0.451-2.064,1.354-2.701s2.182-0.955,3.838-0.955
			c1.578,0,3.113,0.344,4.605,1.031l-1.078,2.578c-0.656-0.281-1.27-0.512-1.84-0.691s-1.152-0.27-1.746-0.27
			c-1.055,0-1.582,0.285-1.582,0.855c0,0.32,0.17,0.598,0.51,0.832s1.084,0.582,2.232,1.043c1.023,0.414,1.773,0.801,2.25,1.16
			s0.828,0.773,1.055,1.242S785.025,147.54,785.025,148.188z"/>
		<path d="M793.744,152.313c-2.109,0-3.758-0.582-4.945-1.746s-1.781-2.812-1.781-4.945c0-2.195,0.549-3.893,1.646-5.092
			s2.615-1.799,4.553-1.799c1.852,0,3.293,0.527,4.324,1.582s1.547,2.512,1.547,4.371v1.734h-8.449
			c0.039,1.016,0.34,1.809,0.902,2.379s1.352,0.855,2.367,0.855c0.789,0,1.535-0.082,2.238-0.246s1.438-0.426,2.203-0.785v2.766
			c-0.625,0.312-1.293,0.545-2.004,0.697S794.768,152.313,793.744,152.313z M793.24,141.274c-0.758,0-1.352,0.24-1.781,0.721
			s-0.676,1.162-0.738,2.045h5.016c-0.016-0.883-0.246-1.564-0.691-2.045S793.998,141.274,793.24,141.274z"/>
		<path d="M805.568,152.079h-3.574v-18.234h3.574V152.079z"/>
		<path d="M816.561,141.661h-3.094v10.418h-3.574v-10.418h-1.969v-1.723l1.969-0.961v-0.961c0-1.492,0.367-2.582,1.102-3.27
			s1.91-1.031,3.527-1.031c1.234,0,2.332,0.184,3.293,0.551l-0.914,2.625c-0.719-0.227-1.383-0.34-1.992-0.34
			c-0.508,0-0.875,0.15-1.102,0.451s-0.34,0.686-0.34,1.154v0.82h3.094V141.661z"/>
	</g>
	<g>
		<g>
			<path fill="none" stroke="#000000" stroke-width="2" stroke-miterlimit="10" d="M731.5,321.5h-31.514
				c-2.75,0-5.486,2.73-5.486,5.48v16.982c0,2.75,0,7.25,0,10V468.5c0,2.75-1.764,5-4.514,5H650.5"/>
			<g>
				<polygon points="738.973,321.98 729.123,317.956 731.46,321.98 729.123,326.004 				"/>
			</g>
		</g>
	</g>
	<g>
		<g>
			<line fill="none" stroke="#000000" stroke-width="2" stroke-miterlimit="10" x1="651.5" y1="474.5" x2="728.5" y2="474.5"/>
			<g>
				<polygon points="735,474.5 725.15,478.524 727.487,474.5 725.15,470.477 				"/>
			</g>
		</g>
	</g>
	<rect x="734.5" y="438.5" opacity="0.2" enable-background="new    " width="35" height="71"/>
	<rect x="769.5" y="438.5" opacity="0.33" fill="#E15218" enable-background="new    " width="35" height="71"/>
	<rect x="769.5" y="286.5" opacity="0.2" enable-background="new    " width="35" height="71"/>
	<rect x="734.5" y="286.5" opacity="0.33" fill="#E15218" enable-background="new    " width="35" height="71"/>
	<g>
		<g>
			<path d="M718.65,266.877l-0.769,2.769h-2.529l3.298-10.789h3.201l3.346,10.789h-2.625l-0.833-2.769H718.65z M721.387,265.053
				l-0.672-2.289c-0.191-0.64-0.385-1.44-0.545-2.081h-0.031c-0.16,0.64-0.32,1.457-0.496,2.081l-0.641,2.289H721.387z"/>
			<path d="M726.457,258.282h2.433v11.365h-2.433V258.282z"/>
			<path d="M733.369,259.643c0,0.672-0.512,1.216-1.312,1.216c-0.768,0-1.28-0.544-1.264-1.216
				c-0.017-0.705,0.496-1.232,1.279-1.232C732.857,258.41,733.354,258.938,733.369,259.643z M730.856,269.646v-7.827h2.433v7.827
				H730.856z"/>
			<path d="M741.114,269.455c-0.433,0.192-1.249,0.352-2.177,0.352c-2.529,0-4.146-1.537-4.146-4.001
				c0-2.289,1.568-4.162,4.481-4.162c0.641,0,1.345,0.112,1.857,0.304l-0.385,1.809c-0.288-0.128-0.721-0.24-1.36-0.24
				c-1.28,0-2.112,0.912-2.097,2.193c0,1.44,0.961,2.193,2.145,2.193c0.576,0,1.024-0.096,1.393-0.24L741.114,269.455z"/>
			<path d="M744.152,266.509c0.08,1.008,1.072,1.489,2.209,1.489c0.833,0,1.505-0.112,2.161-0.32l0.32,1.648
				c-0.8,0.32-1.776,0.48-2.833,0.48c-2.657,0-4.178-1.537-4.178-3.986c0-1.985,1.232-4.178,3.953-4.178
				c2.529,0,3.49,1.969,3.49,3.906c0,0.416-0.049,0.784-0.08,0.96H744.152z M747.018,264.845c0-0.592-0.256-1.585-1.376-1.585
				c-1.024,0-1.44,0.929-1.505,1.585H747.018z"/>
			<path d="M753.193,258.682c-0.496,1.568-1.201,3.137-1.921,4.338l-1.473,0.128c0.48-1.361,0.896-2.913,1.104-4.322
				L753.193,258.682z"/>
			<path d="M753.017,267.518c0.448,0.272,1.376,0.592,2.097,0.592c0.736,0,1.041-0.256,1.041-0.656s-0.24-0.592-1.152-0.896
				c-1.617-0.544-2.242-1.424-2.226-2.353c0-1.457,1.249-2.561,3.186-2.561c0.912,0,1.729,0.208,2.208,0.448l-0.432,1.681
				c-0.352-0.192-1.024-0.448-1.696-0.448c-0.593,0-0.929,0.24-0.929,0.641c0,0.368,0.305,0.56,1.265,0.896
				c1.489,0.512,2.112,1.265,2.129,2.417c0,1.457-1.152,2.529-3.394,2.529c-1.024,0-1.937-0.224-2.529-0.544L753.017,267.518z"/>
			<path d="M773.164,264.14c0,3.538-2.145,5.683-5.298,5.683c-3.201,0-5.074-2.417-5.074-5.49c0-3.233,2.065-5.65,5.251-5.65
				C771.355,258.682,773.164,261.163,773.164,264.14z M765.369,264.284c0,2.113,0.992,3.602,2.625,3.602
				c1.648,0,2.594-1.569,2.594-3.666c0-1.937-0.929-3.602-2.609-3.602C766.33,260.619,765.369,262.188,765.369,264.284z"/>
			<path d="M782.139,267.133c0,1.024,0.031,1.857,0.064,2.513h-2.113l-0.112-1.104h-0.048c-0.305,0.48-1.041,1.281-2.449,1.281
				c-1.584,0-2.753-0.993-2.753-3.41v-4.594h2.449v4.209c0,1.137,0.368,1.825,1.216,1.825c0.673,0,1.057-0.464,1.217-0.849
				c0.064-0.144,0.08-0.336,0.08-0.528v-4.658h2.449V267.133z"/>
			<path d="M786.809,259.579v2.241h1.745v1.792h-1.745v2.833c0,0.944,0.225,1.376,0.961,1.376c0.304,0,0.544-0.032,0.72-0.064
				l0.017,1.841c-0.32,0.128-0.896,0.208-1.585,0.208c-0.784,0-1.44-0.272-1.825-0.672c-0.447-0.464-0.672-1.216-0.672-2.321v-3.202
				h-1.041v-1.792h1.041v-1.697L786.809,259.579z"/>
			<path d="M789.96,264.444c0-1.024-0.032-1.905-0.063-2.625h2.112l0.112,1.088h0.031c0.576-0.833,1.473-1.265,2.609-1.265
				c1.713,0,3.25,1.489,3.25,3.986c0,2.849-1.81,4.194-3.555,4.194c-0.943,0-1.68-0.384-2.032-0.896h-0.032v3.89h-2.433V264.444z
				 M792.393,266.285c0,0.192,0.016,0.368,0.049,0.512c0.16,0.656,0.72,1.152,1.424,1.152c1.057,0,1.681-0.88,1.681-2.209
				c0-1.249-0.56-2.193-1.648-2.193c-0.688,0-1.296,0.512-1.456,1.233c-0.033,0.128-0.049,0.288-0.049,0.432V266.285z"/>
			<path d="M806.907,267.133c0,1.024,0.032,1.857,0.063,2.513h-2.112l-0.112-1.104h-0.048c-0.304,0.48-1.04,1.281-2.449,1.281
				c-1.585,0-2.753-0.993-2.753-3.41v-4.594h2.449v4.209c0,1.137,0.368,1.825,1.217,1.825c0.672,0,1.057-0.464,1.216-0.849
				c0.064-0.144,0.08-0.336,0.08-0.528v-4.658h2.449V267.133z"/>
			<path d="M811.576,259.579v2.241h1.745v1.792h-1.745v2.833c0,0.944,0.225,1.376,0.961,1.376c0.304,0,0.544-0.032,0.72-0.064
				l0.017,1.841c-0.32,0.128-0.896,0.208-1.585,0.208c-0.784,0-1.44-0.272-1.825-0.672c-0.447-0.464-0.672-1.216-0.672-2.321v-3.202
				h-1.041v-1.792h1.041v-1.697L811.576,259.579z"/>
			<path d="M820.761,261.403h-0.032l-1.984,0.944l-0.4-1.825l2.754-1.281h2.016v10.404h-2.353V261.403z"/>
		</g>
	</g>
	<g>
		<g>
			<path d="M718.65,531.377l-0.769,2.77h-2.529l3.298-10.789h3.201l3.346,10.789h-2.625l-0.833-2.77H718.65z M721.387,529.553
				l-0.672-2.289c-0.191-0.641-0.385-1.44-0.545-2.08h-0.031c-0.16,0.64-0.32,1.456-0.496,2.08l-0.641,2.289H721.387z"/>
			<path d="M726.457,522.781h2.433v11.365h-2.433V522.781z"/>
			<path d="M733.369,524.143c0,0.672-0.512,1.217-1.312,1.217c-0.768,0-1.28-0.545-1.264-1.217
				c-0.017-0.705,0.496-1.232,1.279-1.232C732.857,522.91,733.354,523.438,733.369,524.143z M730.856,534.146v-7.827h2.433v7.827
				H730.856z"/>
			<path d="M741.114,533.955c-0.433,0.191-1.249,0.352-2.177,0.352c-2.529,0-4.146-1.537-4.146-4.002
				c0-2.289,1.568-4.162,4.481-4.162c0.641,0,1.345,0.113,1.857,0.305l-0.385,1.809c-0.288-0.128-0.721-0.24-1.36-0.24
				c-1.28,0-2.112,0.912-2.097,2.193c0,1.44,0.961,2.193,2.145,2.193c0.576,0,1.024-0.097,1.393-0.24L741.114,533.955z"/>
			<path d="M744.152,531.01c0.08,1.008,1.072,1.488,2.209,1.488c0.833,0,1.505-0.112,2.161-0.32l0.32,1.648
				c-0.8,0.32-1.776,0.48-2.833,0.48c-2.657,0-4.178-1.537-4.178-3.986c0-1.984,1.232-4.178,3.953-4.178
				c2.529,0,3.49,1.969,3.49,3.906c0,0.416-0.049,0.784-0.08,0.961H744.152z M747.018,529.345c0-0.593-0.256-1.585-1.376-1.585
				c-1.024,0-1.44,0.929-1.505,1.585H747.018z"/>
			<path d="M753.193,523.182c-0.496,1.568-1.201,3.138-1.921,4.338l-1.473,0.129c0.48-1.361,0.896-2.914,1.104-4.322
				L753.193,523.182z"/>
			<path d="M753.017,532.018c0.448,0.271,1.376,0.592,2.097,0.592c0.736,0,1.041-0.256,1.041-0.656s-0.24-0.592-1.152-0.896
				c-1.617-0.543-2.242-1.424-2.226-2.353c0-1.456,1.249-2.562,3.186-2.562c0.912,0,1.729,0.209,2.208,0.449l-0.432,1.68
				c-0.352-0.191-1.024-0.447-1.696-0.447c-0.593,0-0.929,0.24-0.929,0.641c0,0.367,0.305,0.56,1.265,0.896
				c1.489,0.513,2.112,1.265,2.129,2.417c0,1.457-1.152,2.529-3.394,2.529c-1.024,0-1.937-0.225-2.529-0.545L753.017,532.018z"/>
			<path d="M773.164,528.641c0,3.537-2.145,5.682-5.298,5.682c-3.201,0-5.074-2.416-5.074-5.49c0-3.232,2.065-5.65,5.251-5.65
				C771.355,523.182,773.164,525.663,773.164,528.641z M765.369,528.784c0,2.112,0.992,3.602,2.625,3.602
				c1.648,0,2.594-1.569,2.594-3.665c0-1.938-0.929-3.602-2.609-3.602C766.33,525.119,765.369,526.688,765.369,528.784z"/>
			<path d="M782.139,531.633c0,1.025,0.031,1.857,0.064,2.514h-2.113l-0.112-1.104h-0.048c-0.305,0.48-1.041,1.28-2.449,1.28
				c-1.584,0-2.753-0.992-2.753-3.409v-4.594h2.449v4.21c0,1.137,0.368,1.824,1.216,1.824c0.673,0,1.057-0.464,1.217-0.848
				c0.064-0.145,0.08-0.336,0.08-0.529v-4.657h2.449V531.633z"/>
			<path d="M786.809,524.078v2.241h1.745v1.792h-1.745v2.834c0,0.944,0.225,1.377,0.961,1.377c0.304,0,0.544-0.033,0.72-0.064
				l0.017,1.841c-0.32,0.128-0.896,0.208-1.585,0.208c-0.784,0-1.44-0.271-1.825-0.672c-0.447-0.465-0.672-1.217-0.672-2.321v-3.202
				h-1.041v-1.792h1.041v-1.696L786.809,524.078z"/>
			<path d="M789.96,528.944c0-1.024-0.032-1.905-0.063-2.625h2.112l0.112,1.089h0.031c0.576-0.833,1.473-1.266,2.609-1.266
				c1.713,0,3.25,1.489,3.25,3.986c0,2.85-1.81,4.193-3.555,4.193c-0.943,0-1.68-0.384-2.032-0.896h-0.032v3.891h-2.433V528.944z
				 M792.393,530.785c0,0.191,0.016,0.368,0.049,0.512c0.16,0.656,0.72,1.152,1.424,1.152c1.057,0,1.681-0.88,1.681-2.209
				c0-1.248-0.56-2.192-1.648-2.192c-0.688,0-1.296,0.513-1.456,1.233c-0.033,0.127-0.049,0.287-0.049,0.432V530.785z"/>
			<path d="M806.907,531.633c0,1.025,0.032,1.857,0.063,2.514h-2.112l-0.112-1.104h-0.048c-0.304,0.48-1.04,1.28-2.449,1.28
				c-1.585,0-2.753-0.992-2.753-3.409v-4.594h2.449v4.21c0,1.137,0.368,1.824,1.217,1.824c0.672,0,1.057-0.464,1.216-0.848
				c0.064-0.145,0.08-0.336,0.08-0.529v-4.657h2.449V531.633z"/>
			<path d="M811.576,524.078v2.241h1.745v1.792h-1.745v2.834c0,0.944,0.225,1.377,0.961,1.377c0.304,0,0.544-0.033,0.72-0.064
				l0.017,1.841c-0.32,0.128-0.896,0.208-1.585,0.208c-0.784,0-1.44-0.271-1.825-0.672c-0.447-0.465-0.672-1.217-0.672-2.321v-3.202
				h-1.041v-1.792h1.041v-1.696L811.576,524.078z"/>
			<path d="M817.656,534.146v-1.473l1.344-1.217c2.273-2.032,3.377-3.201,3.41-4.418c0-0.848-0.513-1.52-1.713-1.52
				c-0.896,0-1.682,0.447-2.225,0.863l-0.689-1.744c0.785-0.592,2.002-1.072,3.41-1.072c2.353,0,3.649,1.377,3.649,3.266
				c0,1.744-1.265,3.137-2.77,4.481l-0.96,0.8v0.032h3.922v2.001H817.656z"/>
		</g>
	</g>
	<circle fill="#FFFFFF" stroke="#000000" stroke-width="2" stroke-miterlimit="10" cx="770.472" cy="320.98" r="19.5"/>
	<g>
		<g>
			<path fill="#2D4E6E" d="M540.353,464.92c11.33,0,19.018,11.004,19.018,11.004s-7.446,11.006-18.774,11.006
				c-11.329,0-19.018-11.15-19.018-11.15S529.024,464.92,540.353,464.92 M540.353,462.634c-12.391,0-20.328,11.369-20.66,11.853
				l-0.889,1.297l0.892,1.294c0.342,0.496,8.513,12.139,20.9,12.139c12.399,0,20.336-11.521,20.668-12.011l0.881-1.302l-0.9-1.289
				C560.903,474.125,552.732,462.634,540.353,462.634L540.353,462.634z"/>
		</g>
		<circle fill="#FFFFFF" stroke="#2D4E6E" stroke-width="1.1431" stroke-miterlimit="10" cx="540.686" cy="475.924" r="8.506"/>
		<circle fill="none" stroke="#2D4E6E" stroke-width="1.7147" stroke-miterlimit="10" cx="540.775" cy="475.939" r="5.528"/>
	</g>
	
		<rect x="579.5" y="438.5" fill="none" stroke="#2D4E6E" stroke-width="4" stroke-miterlimit="10" enable-background="new    " width="71" height="71"/>
	<g>
		<g>
			<path d="M766.93,321.393c0,4.364-1.76,7.361-5.363,7.361c-3.648,0-5.256-3.279-5.277-7.274c0-4.082,1.738-7.317,5.385-7.317
				C765.453,314.163,766.93,317.528,766.93,321.393z M759.611,321.48c-0.021,3.235,0.76,4.777,2.041,4.777s1.977-1.607,1.977-4.82
				c0-3.127-0.674-4.777-1.998-4.777C760.415,316.66,759.59,318.202,759.611,321.48z"/>
			<path d="M768.734,326.756c0-1.173,0.804-2.02,1.955-2.02c1.15,0,1.932,0.825,1.932,2.02c0,1.15-0.781,1.998-1.954,1.998
				C769.538,328.754,768.734,327.907,768.734,326.756z"/>
			<path d="M778.42,317.333h-0.043l-2.692,1.281l-0.543-2.476l3.734-1.736h2.736v14.113h-3.192V317.333z"/>
		</g>
	</g>
	<circle fill="#FFFFFF" stroke="#000000" stroke-width="2" stroke-miterlimit="10" cx="770.472" cy="473.98" r="19.5"/>
	<g>
		<g>
			<path d="M766.93,473.561c0,4.363-1.76,7.361-5.363,7.361c-3.648,0-5.256-3.279-5.277-7.275c0-4.082,1.738-7.316,5.385-7.316
				C765.453,466.33,766.93,469.695,766.93,473.561z M759.611,473.646c-0.021,3.236,0.76,4.777,2.041,4.777s1.977-1.607,1.977-4.82
				c0-3.127-0.674-4.777-1.998-4.777C760.415,468.826,759.59,470.369,759.611,473.646z"/>
			<path d="M768.734,478.924c0-1.174,0.804-2.02,1.955-2.02c1.15,0,1.932,0.824,1.932,2.02c0,1.15-0.781,1.998-1.954,1.998
				C769.538,480.922,768.734,480.074,768.734,478.924z"/>
			<path d="M774.208,480.682v-1.998l1.823-1.648c3.084-2.758,4.582-4.344,4.625-5.994c0-1.15-0.694-2.062-2.322-2.062
				c-1.217,0-2.28,0.607-3.019,1.172l-0.935-2.365c1.064-0.805,2.715-1.455,4.625-1.455c3.192,0,4.951,1.867,4.951,4.43
				c0,2.365-1.715,4.256-3.756,6.08l-1.303,1.084v0.045h5.319v2.713H774.208z"/>
		</g>
	</g>
	<circle fill="#FFFFFF" stroke="#000000" stroke-width="2" stroke-miterlimit="10" cx="615.472" cy="473.98" r="19.5"/>
	<g>
		<g>
			<path d="M611.929,473.561c0,4.363-1.759,7.361-5.363,7.361c-3.648,0-5.255-3.279-5.276-7.275c0-4.082,1.737-7.316,5.385-7.316
				C610.453,466.33,611.929,469.695,611.929,473.561z M604.612,473.646c-0.022,3.236,0.76,4.777,2.041,4.777
				c1.281,0,1.976-1.607,1.976-4.82c0-3.127-0.673-4.777-1.998-4.777C605.415,468.826,604.59,470.369,604.612,473.646z"/>
			<path d="M613.734,478.924c0-1.174,0.804-2.02,1.955-2.02c1.15,0,1.932,0.824,1.932,2.02c0,1.15-0.782,1.998-1.954,1.998
				C614.538,480.922,613.734,480.074,613.734,478.924z"/>
			<path d="M619.794,477.447c0.586,0.303,1.933,0.867,3.279,0.867c1.715,0,2.584-0.824,2.584-1.889c0-1.389-1.39-2.02-2.845-2.02
				h-1.346v-2.365h1.281c1.107-0.023,2.519-0.436,2.519-1.629c0-0.848-0.695-1.477-2.084-1.477c-1.15,0-2.367,0.5-2.953,0.846
				l-0.673-2.387c0.847-0.543,2.541-1.064,4.364-1.064c3.019,0,4.69,1.584,4.69,3.518c0,1.498-0.847,2.67-2.584,3.277v0.045
				c1.693,0.303,3.062,1.584,3.062,3.43c0,2.498-2.193,4.322-5.776,4.322c-1.824,0-3.365-0.479-4.19-1L619.794,477.447z"/>
		</g>
	</g>
</g>
<g>
	<rect x="275.5" y="285.5" opacity="0.33" fill="#E15218" enable-background="new    " width="71" height="71"/>
	<rect x="274.5" y="439.5" opacity="0.2" enable-background="new    " width="71" height="71"/>
	<g>
		<rect x="55.927" y="133.839" fill="none" width="350.147" height="54"/>
		<path d="M166.454,152.079L165.211,148h-6.246l-1.242,4.078h-3.914l6.047-17.203h4.441l6.07,17.203H166.454z M164.344,144.954
			c-1.148-3.695-1.795-5.785-1.939-6.27s-0.248-0.867-0.311-1.148c-0.258,1-0.996,3.473-2.215,7.418H164.344z"/>
		<path d="M175.817,152.079h-3.574v-18.234h3.574V152.079z"/>
		<path d="M179.415,135.59c0-1.164,0.648-1.746,1.945-1.746s1.945,0.582,1.945,1.746c0,0.555-0.162,0.986-0.486,1.295
			s-0.811,0.463-1.459,0.463C180.063,137.348,179.415,136.762,179.415,135.59z M183.141,152.079h-3.574v-13.102h3.574V152.079z"/>
		<path d="M192.211,152.313c-4.078,0-6.117-2.238-6.117-6.715c0-2.227,0.555-3.928,1.664-5.104s2.699-1.764,4.77-1.764
			c1.516,0,2.875,0.297,4.078,0.891l-1.055,2.766c-0.562-0.227-1.086-0.412-1.57-0.557s-0.969-0.217-1.453-0.217
			c-1.859,0-2.789,1.32-2.789,3.961c0,2.562,0.93,3.844,2.789,3.844c0.688,0,1.324-0.092,1.91-0.275s1.172-0.471,1.758-0.861v3.059
			c-0.578,0.367-1.162,0.621-1.752,0.762S193.11,152.313,192.211,152.313z"/>
		<path d="M205.161,152.313c-2.109,0-3.758-0.582-4.945-1.746s-1.781-2.812-1.781-4.945c0-2.195,0.549-3.893,1.646-5.092
			s2.615-1.799,4.553-1.799c1.852,0,3.293,0.527,4.324,1.582s1.547,2.512,1.547,4.371v1.734h-8.449
			c0.039,1.016,0.34,1.809,0.902,2.379s1.352,0.855,2.367,0.855c0.789,0,1.535-0.082,2.238-0.246s1.438-0.426,2.203-0.785v2.766
			c-0.625,0.312-1.293,0.545-2.004,0.697S206.184,152.313,205.161,152.313z M204.657,141.274c-0.758,0-1.352,0.24-1.781,0.721
			s-0.676,1.162-0.738,2.045h5.016c-0.016-0.883-0.246-1.564-0.691-2.045S205.415,141.274,204.657,141.274z"/>
		<path d="M235.02,148.188c0,1.344-0.467,2.367-1.4,3.07s-2.33,1.055-4.189,1.055c-0.953,0-1.766-0.064-2.438-0.193
			s-1.301-0.318-1.887-0.568v-2.953c0.664,0.312,1.412,0.574,2.244,0.785s1.564,0.316,2.197,0.316c1.297,0,1.945-0.375,1.945-1.125
			c0-0.281-0.086-0.51-0.258-0.686s-0.469-0.375-0.891-0.598s-0.984-0.482-1.688-0.779c-1.008-0.422-1.748-0.812-2.221-1.172
			s-0.816-0.771-1.031-1.236s-0.322-1.037-0.322-1.717c0-1.164,0.451-2.064,1.354-2.701s2.182-0.955,3.838-0.955
			c1.578,0,3.113,0.344,4.605,1.031l-1.078,2.578c-0.656-0.281-1.27-0.512-1.84-0.691s-1.152-0.27-1.746-0.27
			c-1.055,0-1.582,0.285-1.582,0.855c0,0.32,0.17,0.598,0.51,0.832s1.084,0.582,2.232,1.043c1.023,0.414,1.773,0.801,2.25,1.16
			s0.828,0.773,1.055,1.242S235.02,147.54,235.02,148.188z"/>
		<path d="M245.004,152.313c-1.539,0-2.746-0.559-3.621-1.676h-0.188c0.125,1.094,0.188,1.727,0.188,1.898v5.309h-3.574v-18.867
			h2.906l0.504,1.699h0.164c0.836-1.297,2.074-1.945,3.715-1.945c1.547,0,2.758,0.598,3.633,1.793s1.312,2.855,1.312,4.98
			c0,1.398-0.205,2.613-0.615,3.645s-0.994,1.816-1.752,2.355S246.028,152.313,245.004,152.313z M243.95,141.59
			c-0.883,0-1.527,0.271-1.934,0.814s-0.617,1.439-0.633,2.689v0.387c0,1.406,0.209,2.414,0.627,3.023s1.08,0.914,1.986,0.914
			c1.602,0,2.402-1.32,2.402-3.961c0-1.289-0.197-2.256-0.592-2.9S244.793,141.59,243.95,141.59z"/>
		<path d="M258.926,152.313c-2.109,0-3.758-0.582-4.945-1.746s-1.781-2.812-1.781-4.945c0-2.195,0.549-3.893,1.646-5.092
			s2.615-1.799,4.553-1.799c1.852,0,3.293,0.527,4.324,1.582s1.547,2.512,1.547,4.371v1.734h-8.449
			c0.039,1.016,0.34,1.809,0.902,2.379s1.352,0.855,2.367,0.855c0.789,0,1.535-0.082,2.238-0.246s1.438-0.426,2.203-0.785v2.766
			c-0.625,0.312-1.293,0.545-2.004,0.697S259.95,152.313,258.926,152.313z M258.422,141.274c-0.758,0-1.352,0.24-1.781,0.721
			s-0.676,1.162-0.738,2.045h5.016c-0.016-0.883-0.246-1.564-0.691-2.045S259.18,141.274,258.422,141.274z"/>
		<path d="M279.27,152.079h-3.574v-7.652c0-0.945-0.168-1.654-0.504-2.127s-0.871-0.709-1.605-0.709c-1,0-1.723,0.334-2.168,1.002
			s-0.668,1.775-0.668,3.322v6.164h-3.574v-13.102h2.73l0.48,1.676h0.199c0.398-0.633,0.947-1.111,1.646-1.436
			s1.494-0.486,2.385-0.486c1.523,0,2.68,0.412,3.469,1.236s1.184,2.014,1.184,3.568V152.079z"/>
		<path d="M287.098,152.313c-1.539,0-2.748-0.598-3.627-1.793s-1.318-2.852-1.318-4.969c0-2.148,0.447-3.822,1.342-5.021
			s2.127-1.799,3.697-1.799c1.648,0,2.906,0.641,3.773,1.922h0.117c-0.18-0.977-0.27-1.848-0.27-2.613v-4.195h3.586v18.234h-2.742
			l-0.691-1.699h-0.152C290,151.668,288.762,152.313,287.098,152.313z M288.352,149.465c0.914,0,1.584-0.266,2.01-0.797
			s0.658-1.434,0.697-2.707v-0.387c0-1.406-0.217-2.414-0.65-3.023s-1.139-0.914-2.115-0.914c-0.797,0-1.416,0.338-1.857,1.014
			s-0.662,1.658-0.662,2.947s0.223,2.256,0.668,2.9S287.524,149.465,288.352,149.465z"/>
		<path d="M307.278,148.188c0,1.344-0.467,2.367-1.4,3.07s-2.33,1.055-4.189,1.055c-0.953,0-1.766-0.064-2.438-0.193
			s-1.301-0.318-1.887-0.568v-2.953c0.664,0.312,1.412,0.574,2.244,0.785s1.564,0.316,2.197,0.316c1.297,0,1.945-0.375,1.945-1.125
			c0-0.281-0.086-0.51-0.258-0.686s-0.469-0.375-0.891-0.598s-0.984-0.482-1.688-0.779c-1.008-0.422-1.748-0.812-2.221-1.172
			s-0.816-0.771-1.031-1.236s-0.322-1.037-0.322-1.717c0-1.164,0.451-2.064,1.354-2.701s2.182-0.955,3.838-0.955
			c1.578,0,3.113,0.344,4.605,1.031l-1.078,2.578c-0.656-0.281-1.27-0.512-1.84-0.691s-1.152-0.27-1.746-0.27
			c-1.055,0-1.582,0.285-1.582,0.855c0,0.32,0.17,0.598,0.51,0.832s1.084,0.582,2.232,1.043c1.023,0.414,1.773,0.801,2.25,1.16
			s0.828,0.773,1.055,1.242S307.278,147.54,307.278,148.188z"/>
		<path d="M131.338,180.879l-0.48-1.676h-0.188c-0.383,0.609-0.926,1.08-1.629,1.412s-1.504,0.498-2.402,0.498
			c-1.539,0-2.699-0.412-3.48-1.236s-1.172-2.01-1.172-3.557v-8.543h3.574v7.652c0,0.945,0.168,1.654,0.504,2.127
			s0.871,0.709,1.605,0.709c1,0,1.723-0.334,2.168-1.002s0.668-1.775,0.668-3.322v-6.164h3.574v13.102H131.338z"/>
		<path d="M149.924,180.879h-3.574v-7.652c0-0.945-0.168-1.654-0.504-2.127s-0.871-0.709-1.605-0.709c-1,0-1.723,0.334-2.168,1.002
			s-0.668,1.775-0.668,3.322v6.164h-3.574v-13.102h2.73l0.48,1.676h0.199c0.398-0.633,0.947-1.111,1.646-1.436
			s1.494-0.486,2.385-0.486c1.523,0,2.68,0.412,3.469,1.236s1.184,2.014,1.184,3.568V180.879z"/>
		<path d="M165.698,180.879h-3.574v-7.652c0-0.945-0.168-1.654-0.504-2.127s-0.871-0.709-1.605-0.709c-1,0-1.723,0.334-2.168,1.002
			s-0.668,1.775-0.668,3.322v6.164h-3.574v-13.102h2.73l0.48,1.676h0.199c0.398-0.633,0.947-1.111,1.646-1.436
			s1.494-0.486,2.385-0.486c1.523,0,2.68,0.412,3.469,1.236s1.184,2.014,1.184,3.568V180.879z"/>
		<path d="M175.307,181.113c-2.109,0-3.758-0.582-4.945-1.746s-1.781-2.812-1.781-4.945c0-2.195,0.549-3.893,1.646-5.092
			s2.615-1.799,4.553-1.799c1.852,0,3.293,0.527,4.324,1.582s1.547,2.512,1.547,4.371v1.734h-8.449
			c0.039,1.016,0.34,1.809,0.902,2.379s1.352,0.855,2.367,0.855c0.789,0,1.535-0.082,2.238-0.246s1.438-0.426,2.203-0.785v2.766
			c-0.625,0.312-1.293,0.545-2.004,0.697S176.331,181.113,175.307,181.113z M174.803,170.074c-0.758,0-1.352,0.24-1.781,0.721
			s-0.676,1.162-0.738,2.045h5.016c-0.016-0.883-0.246-1.564-0.691-2.045S175.561,170.074,174.803,170.074z"/>
		<path d="M188.877,181.113c-4.078,0-6.117-2.238-6.117-6.715c0-2.227,0.555-3.928,1.664-5.104s2.699-1.764,4.77-1.764
			c1.516,0,2.875,0.297,4.078,0.891l-1.055,2.766c-0.562-0.227-1.086-0.412-1.57-0.557s-0.969-0.217-1.453-0.217
			c-1.859,0-2.789,1.32-2.789,3.961c0,2.562,0.93,3.844,2.789,3.844c0.688,0,1.324-0.092,1.91-0.275s1.172-0.471,1.758-0.861v3.059
			c-0.578,0.367-1.162,0.621-1.752,0.762S189.776,181.113,188.877,181.113z"/>
		<path d="M201.827,181.113c-2.109,0-3.758-0.582-4.945-1.746s-1.781-2.812-1.781-4.945c0-2.195,0.549-3.893,1.646-5.092
			s2.615-1.799,4.553-1.799c1.852,0,3.293,0.527,4.324,1.582s1.547,2.512,1.547,4.371v1.734h-8.449
			c0.039,1.016,0.34,1.809,0.902,2.379s1.352,0.855,2.367,0.855c0.789,0,1.535-0.082,2.238-0.246s1.438-0.426,2.203-0.785v2.766
			c-0.625,0.312-1.293,0.545-2.004,0.697S202.85,181.113,201.827,181.113z M201.323,170.074c-0.758,0-1.352,0.24-1.781,0.721
			s-0.676,1.162-0.738,2.045h5.016c-0.016-0.883-0.246-1.564-0.691-2.045S202.081,170.074,201.323,170.074z"/>
		<path d="M219.217,176.988c0,1.344-0.467,2.367-1.4,3.07s-2.33,1.055-4.189,1.055c-0.953,0-1.766-0.064-2.438-0.193
			s-1.301-0.318-1.887-0.568v-2.953c0.664,0.312,1.412,0.574,2.244,0.785s1.564,0.316,2.197,0.316c1.297,0,1.945-0.375,1.945-1.125
			c0-0.281-0.086-0.51-0.258-0.686s-0.469-0.375-0.891-0.598s-0.984-0.482-1.688-0.779c-1.008-0.422-1.748-0.812-2.221-1.172
			s-0.816-0.771-1.031-1.236s-0.322-1.037-0.322-1.717c0-1.164,0.451-2.064,1.354-2.701s2.182-0.955,3.838-0.955
			c1.578,0,3.113,0.344,4.605,1.031l-1.078,2.578c-0.656-0.281-1.27-0.512-1.84-0.691s-1.152-0.27-1.746-0.27
			c-1.055,0-1.582,0.285-1.582,0.855c0,0.32,0.17,0.598,0.51,0.832s1.084,0.582,2.232,1.043c1.023,0.414,1.773,0.801,2.25,1.16
			s0.828,0.773,1.055,1.242S219.217,176.34,219.217,176.988z"/>
		<path d="M231.147,176.988c0,1.344-0.467,2.367-1.4,3.07s-2.33,1.055-4.189,1.055c-0.953,0-1.766-0.064-2.438-0.193
			s-1.301-0.318-1.887-0.568v-2.953c0.664,0.312,1.412,0.574,2.244,0.785s1.564,0.316,2.197,0.316c1.297,0,1.945-0.375,1.945-1.125
			c0-0.281-0.086-0.51-0.258-0.686s-0.469-0.375-0.891-0.598s-0.984-0.482-1.688-0.779c-1.008-0.422-1.748-0.812-2.221-1.172
			s-0.816-0.771-1.031-1.236s-0.322-1.037-0.322-1.717c0-1.164,0.451-2.064,1.354-2.701s2.182-0.955,3.838-0.955
			c1.578,0,3.113,0.344,4.605,1.031l-1.078,2.578c-0.656-0.281-1.27-0.512-1.84-0.691s-1.152-0.27-1.746-0.27
			c-1.055,0-1.582,0.285-1.582,0.855c0,0.32,0.17,0.598,0.51,0.832s1.084,0.582,2.232,1.043c1.023,0.414,1.773,0.801,2.25,1.16
			s0.828,0.773,1.055,1.242S231.147,176.34,231.147,176.988z"/>
		<path d="M242.256,180.879l-0.691-1.781h-0.094c-0.602,0.758-1.221,1.283-1.857,1.576s-1.467,0.439-2.49,0.439
			c-1.258,0-2.248-0.359-2.971-1.078s-1.084-1.742-1.084-3.07c0-1.391,0.486-2.416,1.459-3.076s2.439-1.025,4.4-1.096l2.273-0.07
			v-0.574c0-1.328-0.68-1.992-2.039-1.992c-1.047,0-2.277,0.316-3.691,0.949l-1.184-2.414c1.508-0.789,3.18-1.184,5.016-1.184
			c1.758,0,3.105,0.383,4.043,1.148s1.406,1.93,1.406,3.492v8.73H242.256z M241.202,174.809l-1.383,0.047
			c-1.039,0.031-1.812,0.219-2.32,0.562s-0.762,0.867-0.762,1.57c0,1.008,0.578,1.512,1.734,1.512c0.828,0,1.49-0.238,1.986-0.715
			s0.744-1.109,0.744-1.898V174.809z"/>
		<path d="M255.745,167.531c0.484,0,0.887,0.035,1.207,0.105l-0.27,3.352c-0.289-0.078-0.641-0.117-1.055-0.117
			c-1.141,0-2.029,0.293-2.666,0.879s-0.955,1.406-0.955,2.461v6.668h-3.574v-13.102h2.707l0.527,2.203h0.176
			c0.406-0.734,0.955-1.326,1.646-1.775S254.932,167.531,255.745,167.531z"/>
		<path d="M257.456,167.777h3.914l2.473,7.371c0.211,0.641,0.355,1.398,0.434,2.273h0.07c0.086-0.805,0.254-1.562,0.504-2.273
			l2.426-7.371h3.832l-5.543,14.777c-0.508,1.367-1.232,2.391-2.174,3.07s-2.041,1.02-3.299,1.02c-0.617,0-1.223-0.066-1.816-0.199
			v-2.836c0.43,0.102,0.898,0.152,1.406,0.152c0.633,0,1.186-0.193,1.658-0.58s0.842-0.971,1.107-1.752l0.211-0.645L257.456,167.777
			z"/>
		<path d="M279.065,164.391c0-1.164,0.648-1.746,1.945-1.746s1.945,0.582,1.945,1.746c0,0.555-0.162,0.986-0.486,1.295
			s-0.811,0.463-1.459,0.463C279.713,166.148,279.065,165.562,279.065,164.391z M282.792,180.879h-3.574v-13.102h3.574V180.879z"/>
		<path d="M298.635,180.879h-3.574v-7.652c0-0.945-0.168-1.654-0.504-2.127s-0.871-0.709-1.605-0.709c-1,0-1.723,0.334-2.168,1.002
			s-0.668,1.775-0.668,3.322v6.164h-3.574v-13.102h2.73l0.48,1.676h0.199c0.398-0.633,0.947-1.111,1.646-1.436
			s1.494-0.486,2.385-0.486c1.523,0,2.68,0.412,3.469,1.236s1.184,2.014,1.184,3.568V180.879z"/>
		<path d="M309.51,181.113c-1.539,0-2.746-0.559-3.621-1.676h-0.188c0.125,1.094,0.188,1.727,0.188,1.898v5.309h-3.574v-18.867
			h2.906l0.504,1.699h0.164c0.836-1.297,2.074-1.945,3.715-1.945c1.547,0,2.758,0.598,3.633,1.793s1.312,2.855,1.312,4.98
			c0,1.398-0.205,2.613-0.615,3.645s-0.994,1.816-1.752,2.355S310.534,181.113,309.51,181.113z M308.456,170.391
			c-0.883,0-1.527,0.271-1.934,0.814s-0.617,1.439-0.633,2.689v0.387c0,1.406,0.209,2.414,0.627,3.023s1.08,0.914,1.986,0.914
			c1.602,0,2.402-1.32,2.402-3.961c0-1.289-0.197-2.256-0.592-2.9S309.299,170.391,308.456,170.391z"/>
		<path d="M326.784,180.879l-0.48-1.676h-0.188c-0.383,0.609-0.926,1.08-1.629,1.412s-1.504,0.498-2.402,0.498
			c-1.539,0-2.699-0.412-3.48-1.236s-1.172-2.01-1.172-3.557v-8.543h3.574v7.652c0,0.945,0.168,1.654,0.504,2.127
			s0.871,0.709,1.605,0.709c1,0,1.723-0.334,2.168-1.002s0.668-1.775,0.668-3.322v-6.164h3.574v13.102H326.784z"/>
		<path d="M338.795,178.266c0.625,0,1.375-0.137,2.25-0.41v2.66c-0.891,0.398-1.984,0.598-3.281,0.598
			c-1.43,0-2.471-0.361-3.123-1.084s-0.979-1.807-0.979-3.252v-6.316h-1.711v-1.512l1.969-1.195l1.031-2.766h2.285v2.789h3.668
			v2.684h-3.668v6.316c0,0.508,0.143,0.883,0.428,1.125S338.327,178.266,338.795,178.266z"/>
	</g>
	<g>
		<g>
			<path d="M271.857,243.876c0.896-0.144,2.064-0.224,3.297-0.224c2.049,0,3.377,0.368,4.417,1.152
				c1.121,0.832,1.825,2.161,1.825,4.065c0,2.065-0.752,3.49-1.792,4.37c-1.137,0.945-2.865,1.393-4.978,1.393
				c-1.265,0-2.161-0.08-2.769-0.16V243.876z M274.306,252.68c0.208,0.048,0.544,0.048,0.849,0.048
				c2.208,0.016,3.649-1.201,3.649-3.778c0.016-2.241-1.297-3.425-3.394-3.425c-0.544,0-0.896,0.048-1.104,0.096V252.68z"/>
			<path d="M284.786,251.384c0.08,1.008,1.072,1.489,2.209,1.489c0.833,0,1.504-0.112,2.161-0.32l0.32,1.648
				c-0.8,0.32-1.777,0.48-2.833,0.48c-2.657,0-4.178-1.537-4.178-3.986c0-1.985,1.232-4.178,3.954-4.178
				c2.529,0,3.489,1.969,3.489,3.906c0,0.416-0.048,0.784-0.08,0.96H284.786z M287.651,249.719c0-0.592-0.256-1.585-1.376-1.585
				c-1.024,0-1.441,0.929-1.505,1.585H287.651z"/>
			<path d="M291.345,252.392c0.448,0.272,1.376,0.592,2.097,0.592c0.736,0,1.041-0.256,1.041-0.656s-0.24-0.592-1.152-0.896
				c-1.617-0.544-2.241-1.424-2.225-2.353c0-1.457,1.249-2.561,3.186-2.561c0.912,0,1.729,0.208,2.208,0.448l-0.432,1.681
				c-0.352-0.192-1.024-0.448-1.696-0.448c-0.592,0-0.929,0.24-0.929,0.641c0,0.368,0.304,0.56,1.265,0.896
				c1.489,0.512,2.113,1.265,2.129,2.417c0,1.457-1.152,2.529-3.394,2.529c-1.024,0-1.937-0.224-2.529-0.544L291.345,252.392z"/>
			<path d="M301.026,244.453v2.241h1.745v1.792h-1.745v2.833c0,0.944,0.224,1.376,0.96,1.376c0.304,0,0.544-0.032,0.721-0.064
				l0.016,1.841c-0.32,0.128-0.896,0.208-1.584,0.208c-0.784,0-1.44-0.272-1.825-0.672c-0.448-0.464-0.672-1.216-0.672-2.321v-3.202
				h-1.041v-1.792h1.041v-1.697L301.026,244.453z"/>
			<path d="M306.689,244.517c0,0.672-0.512,1.216-1.312,1.216c-0.768,0-1.28-0.544-1.264-1.216c-0.016-0.705,0.496-1.232,1.28-1.232
				S306.674,243.812,306.689,244.517z M304.177,254.521v-7.827h2.433v7.827H304.177z"/>
			<path d="M308.561,249.191c0-0.977-0.032-1.809-0.064-2.497h2.113l0.112,1.072h0.048c0.32-0.496,1.121-1.249,2.417-1.249
				c1.601,0,2.801,1.057,2.801,3.361v4.642h-2.433v-4.338c0-1.008-0.352-1.697-1.232-1.697c-0.672,0-1.072,0.464-1.232,0.913
				c-0.064,0.144-0.096,0.384-0.096,0.608v4.514h-2.433V249.191z"/>
			<path d="M322.386,254.521l-0.144-0.784h-0.048c-0.512,0.624-1.312,0.96-2.241,0.96c-1.584,0-2.529-1.153-2.529-2.401
				c0-2.033,1.825-3.009,4.594-2.993v-0.112c0-0.416-0.224-1.008-1.425-1.008c-0.8,0-1.648,0.272-2.161,0.592l-0.448-1.569
				c0.544-0.304,1.617-0.688,3.041-0.688c2.609,0,3.441,1.537,3.441,3.377v2.721c0,0.752,0.032,1.473,0.112,1.905H322.386z
				 M322.098,250.824c-1.281-0.016-2.273,0.288-2.273,1.232c0,0.624,0.416,0.928,0.96,0.928c0.608,0,1.104-0.4,1.264-0.896
				c0.032-0.128,0.048-0.272,0.048-0.416V250.824z"/>
			<path d="M328.978,244.453v2.241h1.745v1.792h-1.745v2.833c0,0.944,0.224,1.376,0.96,1.376c0.304,0,0.544-0.032,0.72-0.064
				l0.016,1.841c-0.32,0.128-0.896,0.208-1.584,0.208c-0.784,0-1.44-0.272-1.825-0.672c-0.448-0.464-0.672-1.216-0.672-2.321v-3.202
				h-1.041v-1.792h1.041v-1.697L328.978,244.453z"/>
			<path d="M334.642,244.517c0,0.672-0.512,1.216-1.312,1.216c-0.768,0-1.28-0.544-1.264-1.216c-0.016-0.705,0.496-1.232,1.28-1.232
				S334.626,243.812,334.642,244.517z M332.129,254.521v-7.827h2.433v7.827H332.129z"/>
			<path d="M344.244,250.52c0,2.865-2.033,4.178-4.13,4.178c-2.289,0-4.049-1.505-4.049-4.034c0-2.529,1.665-4.146,4.178-4.146
				C342.643,246.518,344.244,248.167,344.244,250.52z M338.577,250.6c0,1.344,0.561,2.353,1.601,2.353
				c0.944,0,1.552-0.944,1.552-2.353c0-1.168-0.448-2.353-1.552-2.353C339.01,248.247,338.577,249.447,338.577,250.6z"/>
			<path d="M345.745,249.191c0-0.977-0.032-1.809-0.064-2.497h2.113l0.112,1.072h0.048c0.32-0.496,1.121-1.249,2.417-1.249
				c1.601,0,2.801,1.057,2.801,3.361v4.642h-2.433v-4.338c0-1.008-0.352-1.697-1.232-1.697c-0.672,0-1.072,0.464-1.232,0.913
				c-0.064,0.144-0.096,0.384-0.096,0.608v4.514h-2.433V249.191z"/>
			<path d="M297.645,268.215c0,3.538-2.145,5.683-5.298,5.683c-3.201,0-5.074-2.417-5.074-5.49c0-3.233,2.065-5.65,5.25-5.65
				C295.836,262.757,297.645,265.238,297.645,268.215z M289.85,268.359c0,2.113,0.993,3.602,2.625,3.602
				c1.649,0,2.593-1.569,2.593-3.666c0-1.937-0.928-3.602-2.609-3.602C290.81,264.693,289.85,266.262,289.85,268.359z"/>
			<path d="M306.62,271.208c0,1.024,0.032,1.857,0.064,2.513h-2.113l-0.112-1.104h-0.048c-0.304,0.48-1.041,1.281-2.449,1.281
				c-1.584,0-2.753-0.993-2.753-3.41v-4.594h2.449v4.209c0,1.137,0.368,1.825,1.216,1.825c0.672,0,1.057-0.464,1.216-0.849
				c0.064-0.144,0.08-0.336,0.08-0.528v-4.658h2.449V271.208z"/>
			<path d="M311.29,263.653v2.241h1.745v1.792h-1.745v2.833c0,0.944,0.224,1.376,0.96,1.376c0.304,0,0.544-0.032,0.72-0.064
				l0.016,1.841c-0.32,0.128-0.896,0.208-1.584,0.208c-0.784,0-1.44-0.272-1.825-0.672c-0.448-0.464-0.672-1.216-0.672-2.321v-3.202
				h-1.041v-1.792h1.041v-1.697L311.29,263.653z"/>
			<path d="M314.441,268.519c0-1.024-0.032-1.905-0.064-2.625h2.113l0.112,1.088h0.032c0.576-0.833,1.473-1.265,2.609-1.265
				c1.713,0,3.25,1.489,3.25,3.986c0,2.849-1.809,4.194-3.554,4.194c-0.944,0-1.681-0.384-2.033-0.896h-0.032v3.89h-2.433V268.519z
				 M316.874,270.36c0,0.192,0.016,0.368,0.048,0.512c0.16,0.656,0.72,1.152,1.424,1.152c1.057,0,1.681-0.88,1.681-2.209
				c0-1.249-0.56-2.193-1.648-2.193c-0.688,0-1.296,0.512-1.457,1.233c-0.032,0.128-0.048,0.288-0.048,0.432V270.36z"/>
			<path d="M331.388,271.208c0,1.024,0.032,1.857,0.064,2.513h-2.113l-0.112-1.104h-0.048c-0.304,0.48-1.041,1.281-2.449,1.281
				c-1.584,0-2.753-0.993-2.753-3.41v-4.594h2.449v4.209c0,1.137,0.368,1.825,1.216,1.825c0.672,0,1.057-0.464,1.216-0.849
				c0.064-0.144,0.08-0.336,0.08-0.528v-4.658h2.449V271.208z"/>
			<path d="M336.058,263.653v2.241h1.745v1.792h-1.745v2.833c0,0.944,0.224,1.376,0.96,1.376c0.304,0,0.544-0.032,0.72-0.064
				l0.016,1.841c-0.32,0.128-0.896,0.208-1.584,0.208c-0.784,0-1.44-0.272-1.825-0.672c-0.448-0.464-0.672-1.216-0.672-2.321v-3.202
				h-1.041v-1.792h1.041v-1.697L336.058,263.653z"/>
		</g>
	</g>
	<g>
		<g>
			<path d="M294.082,534.377l-0.768,2.77h-2.529l3.297-10.789h3.201l3.346,10.789h-2.625l-0.833-2.77H294.082z M296.819,532.553
				l-0.672-2.289c-0.192-0.641-0.384-1.44-0.544-2.08h-0.032c-0.16,0.64-0.32,1.456-0.496,2.08l-0.641,2.289H296.819z"/>
			<path d="M301.889,525.781h2.433v11.365h-2.433V525.781z"/>
			<path d="M308.801,527.143c0,0.672-0.512,1.217-1.312,1.217c-0.768,0-1.28-0.545-1.264-1.217c-0.016-0.705,0.496-1.232,1.28-1.232
				S308.785,526.438,308.801,527.143z M306.288,537.146v-7.827h2.433v7.827H306.288z"/>
			<path d="M316.546,536.955c-0.432,0.191-1.249,0.352-2.177,0.352c-2.529,0-4.146-1.537-4.146-4.002
				c0-2.289,1.568-4.162,4.482-4.162c0.64,0,1.344,0.113,1.856,0.305l-0.384,1.809c-0.288-0.128-0.72-0.24-1.36-0.24
				c-1.28,0-2.113,0.912-2.097,2.193c0,1.44,0.96,2.193,2.145,2.193c0.576,0,1.024-0.097,1.393-0.24L316.546,536.955z"/>
			<path d="M319.584,534.01c0.08,1.008,1.072,1.488,2.209,1.488c0.833,0,1.504-0.112,2.161-0.32l0.32,1.648
				c-0.8,0.32-1.777,0.48-2.833,0.48c-2.657,0-4.178-1.537-4.178-3.986c0-1.984,1.232-4.178,3.954-4.178
				c2.529,0,3.489,1.969,3.489,3.906c0,0.416-0.048,0.784-0.08,0.961H319.584z M322.45,532.345c0-0.593-0.256-1.585-1.376-1.585
				c-1.024,0-1.441,0.929-1.505,1.585H322.45z"/>
			<path d="M328.625,526.182c-0.496,1.568-1.201,3.138-1.921,4.338l-1.473,0.129c0.48-1.361,0.896-2.914,1.104-4.322
				L328.625,526.182z"/>
			<path d="M328.448,535.018c0.448,0.271,1.376,0.592,2.097,0.592c0.736,0,1.041-0.256,1.041-0.656s-0.24-0.592-1.152-0.896
				c-1.617-0.543-2.241-1.424-2.225-2.353c0-1.456,1.249-2.562,3.186-2.562c0.912,0,1.729,0.209,2.208,0.449l-0.432,1.68
				c-0.352-0.191-1.024-0.447-1.696-0.447c-0.592,0-0.929,0.24-0.929,0.641c0,0.367,0.304,0.56,1.265,0.896
				c1.489,0.513,2.113,1.265,2.129,2.417c0,1.457-1.152,2.529-3.394,2.529c-1.024,0-1.937-0.225-2.529-0.545L328.448,535.018z"/>
			<path d="M297.645,550.84c0,3.538-2.145,5.684-5.298,5.684c-3.201,0-5.074-2.418-5.074-5.49c0-3.234,2.065-5.65,5.25-5.65
				C295.836,545.383,297.645,547.863,297.645,550.84z M289.85,550.984c0,2.113,0.993,3.602,2.625,3.602
				c1.649,0,2.593-1.568,2.593-3.666c0-1.936-0.928-3.602-2.609-3.602C290.81,547.318,289.85,548.888,289.85,550.984z"/>
			<path d="M306.62,553.834c0,1.023,0.032,1.856,0.064,2.513h-2.113l-0.112-1.104h-0.048c-0.304,0.48-1.041,1.281-2.449,1.281
				c-1.584,0-2.753-0.993-2.753-3.41v-4.594h2.449v4.209c0,1.137,0.368,1.826,1.216,1.826c0.672,0,1.057-0.465,1.216-0.85
				c0.064-0.144,0.08-0.336,0.08-0.527v-4.658h2.449V553.834z"/>
			<path d="M311.29,546.279v2.24h1.745v1.793h-1.745v2.833c0,0.944,0.224,1.376,0.96,1.376c0.304,0,0.544-0.031,0.72-0.063
				l0.016,1.841c-0.32,0.128-0.896,0.208-1.584,0.208c-0.784,0-1.44-0.272-1.825-0.673c-0.448-0.464-0.672-1.216-0.672-2.32v-3.201
				h-1.041v-1.793h1.041v-1.697L311.29,546.279z"/>
			<path d="M314.441,551.145c0-1.024-0.032-1.904-0.064-2.625h2.113l0.112,1.088h0.032c0.576-0.832,1.473-1.264,2.609-1.264
				c1.713,0,3.25,1.488,3.25,3.985c0,2.849-1.809,4.194-3.554,4.194c-0.944,0-1.681-0.385-2.033-0.896h-0.032v3.889h-2.433V551.145z
				 M316.874,552.985c0,0.192,0.016,0.368,0.048,0.513c0.16,0.656,0.72,1.152,1.424,1.152c1.057,0,1.681-0.881,1.681-2.209
				c0-1.249-0.56-2.193-1.648-2.193c-0.688,0-1.296,0.512-1.457,1.232c-0.032,0.129-0.048,0.289-0.048,0.433V552.985z"/>
			<path d="M331.388,553.834c0,1.023,0.032,1.856,0.064,2.513h-2.113l-0.112-1.104h-0.048c-0.304,0.48-1.041,1.281-2.449,1.281
				c-1.584,0-2.753-0.993-2.753-3.41v-4.594h2.449v4.209c0,1.137,0.368,1.826,1.216,1.826c0.672,0,1.057-0.465,1.216-0.85
				c0.064-0.144,0.08-0.336,0.08-0.527v-4.658h2.449V553.834z"/>
			<path d="M336.058,546.279v2.24h1.745v1.793h-1.745v2.833c0,0.944,0.224,1.376,0.96,1.376c0.304,0,0.544-0.031,0.72-0.063
				l0.016,1.841c-0.32,0.128-0.896,0.208-1.584,0.208c-0.784,0-1.44-0.272-1.825-0.673c-0.448-0.464-0.672-1.216-0.672-2.32v-3.201
				h-1.041v-1.793h1.041v-1.697L336.058,546.279z"/>
		</g>
	</g>
	<circle fill="#FFFFFF" stroke="#000000" stroke-width="2" stroke-miterlimit="10" cx="312.472" cy="320.98" r="19.5"/>
	<g>
		<g>
			<path fill="none" stroke="#000000" stroke-width="2" stroke-miterlimit="10" d="M273.5,321.5h-31.514
				c-2.75,0-5.486,2.73-5.486,5.48v16.982c0,2.75,0,7.25,0,10V621.98c0,2.75-1.764,4.52-4.514,4.52H192.5"/>
			<g>
				<polygon points="280.973,321.98 271.123,317.956 273.46,321.98 271.123,326.004 				"/>
			</g>
		</g>
	</g>
	<g>
		<g>
			<line fill="none" stroke="#000000" stroke-width="2" stroke-miterlimit="10" x1="193.5" y1="474.5" x2="270.5" y2="474.5"/>
			<g>
				<polygon points="277,474.5 267.15,478.524 269.487,474.5 267.15,470.477 				"/>
			</g>
		</g>
	</g>
	<g>
		<g>
			<path fill="#2D4E6E" d="M80.353,464.92c11.33,0,19.018,11.004,19.018,11.004s-7.446,11.006-18.774,11.006
				c-11.329,0-19.018-11.15-19.018-11.15S69.024,464.92,80.353,464.92 M80.353,462.634c-12.391,0-20.328,11.369-20.66,11.853
				l-0.889,1.297l0.892,1.294c0.342,0.496,8.513,12.139,20.9,12.139c12.399,0,20.336-11.521,20.668-12.011l0.881-1.302l-0.9-1.289
				C100.903,474.125,92.732,462.634,80.353,462.634L80.353,462.634z"/>
		</g>
		<circle fill="#FFFFFF" stroke="#2D4E6E" stroke-width="1.1431" stroke-miterlimit="10" cx="80.686" cy="475.924" r="8.506"/>
		<circle fill="none" stroke="#2D4E6E" stroke-width="1.7147" stroke-miterlimit="10" cx="80.775" cy="475.939" r="5.528"/>
	</g>
	
		<rect x="121.5" y="438.5" fill="none" stroke="#2D4E6E" stroke-width="4" stroke-miterlimit="10" enable-background="new    " width="71" height="71"/>
	<rect x="121.5" y="438.5" opacity="0.33" fill="#E15218" enable-background="new    " width="71" height="71"/>
	<rect x="121.5" y="591.5" opacity="0.33" fill="#E15218" enable-background="new    " width="71" height="71"/>
	<g>
		<g>
			<path d="M308.929,321.393c0,4.364-1.759,7.361-5.363,7.361c-3.648,0-5.255-3.279-5.276-7.274c0-4.082,1.737-7.317,5.385-7.317
				C307.453,314.163,308.929,317.528,308.929,321.393z M301.612,321.48c-0.022,3.235,0.76,4.777,2.041,4.777
				c1.281,0,1.976-1.607,1.976-4.82c0-3.127-0.673-4.777-1.998-4.777C302.415,316.66,301.59,318.202,301.612,321.48z"/>
			<path d="M310.734,326.756c0-1.173,0.804-2.02,1.955-2.02c1.15,0,1.932,0.825,1.932,2.02c0,1.15-0.782,1.998-1.954,1.998
				C311.538,328.754,310.734,327.907,310.734,326.756z"/>
			<path d="M316.794,325.28c0.586,0.304,1.933,0.868,3.279,0.868c1.715,0,2.584-0.824,2.584-1.889c0-1.39-1.39-2.02-2.845-2.02
				h-1.346v-2.366h1.281c1.107-0.022,2.519-0.435,2.519-1.629c0-0.847-0.695-1.477-2.084-1.477c-1.15,0-2.367,0.5-2.953,0.847
				l-0.673-2.388c0.847-0.543,2.541-1.064,4.364-1.064c3.019,0,4.69,1.585,4.69,3.518c0,1.498-0.847,2.671-2.584,3.278v0.044
				c1.693,0.304,3.062,1.585,3.062,3.431c0,2.497-2.193,4.321-5.776,4.321c-1.824,0-3.365-0.479-4.19-0.999L316.794,325.28z"/>
		</g>
	</g>
	<circle fill="#FFFFFF" stroke="#000000" stroke-width="2" stroke-miterlimit="10" cx="312.472" cy="473.98" r="19.5"/>
	<g>
		<g>
			<path d="M308.929,473.561c0,4.363-1.759,7.361-5.363,7.361c-3.648,0-5.255-3.279-5.276-7.275c0-4.082,1.737-7.316,5.385-7.316
				C307.453,466.33,308.929,469.695,308.929,473.561z M301.612,473.646c-0.022,3.236,0.76,4.777,2.041,4.777
				c1.281,0,1.976-1.607,1.976-4.82c0-3.127-0.673-4.777-1.998-4.777C302.415,468.826,301.59,470.369,301.612,473.646z"/>
			<path d="M310.734,478.924c0-1.174,0.804-2.02,1.955-2.02c1.15,0,1.932,0.824,1.932,2.02c0,1.15-0.782,1.998-1.954,1.998
				C311.538,480.922,310.734,480.074,310.734,478.924z"/>
			<path d="M315.991,476.99c0-1.693,0.977-2.865,2.519-3.539v-0.064c-1.368-0.695-2.041-1.846-2.041-3.084
				c0-2.389,2.15-3.973,4.973-3.973c3.3,0,4.668,1.91,4.668,3.625c0,1.217-0.651,2.41-2.041,3.105v0.064
				c1.368,0.521,2.584,1.695,2.584,3.518c0,2.562-2.149,4.279-5.428,4.279C317.641,480.922,315.991,478.902,315.991,476.99z
				 M323.287,476.883c0-1.238-0.912-1.977-2.215-2.324c-1.086,0.305-1.715,1.086-1.715,2.107c-0.022,1.02,0.76,1.975,1.998,1.975
				C322.526,478.641,323.287,477.881,323.287,476.883z M319.573,470.195c0,0.955,0.869,1.562,1.998,1.91
				c0.76-0.217,1.433-0.912,1.433-1.803c0-0.867-0.499-1.736-1.715-1.736C320.16,468.566,319.573,469.305,319.573,470.195z"/>
		</g>
	</g>
	<circle fill="#FFFFFF" stroke="#000000" stroke-width="2" stroke-miterlimit="10" cx="157.472" cy="473.98" r="19.5"/>
	<g>
		<g>
			<path d="M153.929,473.561c0,4.363-1.759,7.361-5.363,7.361c-3.648,0-5.255-3.279-5.276-7.275c0-4.082,1.737-7.316,5.385-7.316
				C152.453,466.33,153.929,469.695,153.929,473.561z M146.612,473.646c-0.022,3.236,0.76,4.777,2.041,4.777
				c1.281,0,1.976-1.607,1.976-4.82c0-3.127-0.673-4.777-1.998-4.777C147.415,468.826,146.59,470.369,146.612,473.646z"/>
			<path d="M155.734,478.924c0-1.174,0.804-2.02,1.955-2.02c1.15,0,1.932,0.824,1.932,2.02c0,1.15-0.782,1.998-1.954,1.998
				C156.538,480.922,155.734,480.074,155.734,478.924z"/>
			<path d="M170.631,469.283h-5.472l-0.304,2.17c0.304-0.043,0.565-0.043,0.912-0.043c1.346,0,2.714,0.305,3.713,1.021
				c1.064,0.717,1.715,1.889,1.715,3.539c0,2.627-2.258,4.951-6.058,4.951c-1.716,0-3.148-0.393-3.93-0.805l0.586-2.475
				c0.63,0.303,1.911,0.695,3.192,0.695c1.368,0,2.823-0.652,2.823-2.15c0-1.455-1.151-2.346-3.974-2.346
				c-0.781,0-1.324,0.045-1.911,0.131l0.934-7.404h7.773V469.283z"/>
		</g>
	</g>
	<circle fill="#FFFFFF" stroke="#000000" stroke-width="2" stroke-miterlimit="10" cx="157.472" cy="626.98" r="19.5"/>
	<g>
		<g>
			<path d="M153.929,626.561c0,4.363-1.759,7.361-5.363,7.361c-3.648,0-5.255-3.279-5.276-7.275c0-4.082,1.737-7.316,5.385-7.316
				C152.453,619.33,153.929,622.695,153.929,626.561z M146.612,626.646c-0.022,3.236,0.76,4.777,2.041,4.777
				c1.281,0,1.976-1.607,1.976-4.82c0-3.127-0.673-4.777-1.998-4.777C147.415,621.826,146.59,623.369,146.612,626.646z"/>
			<path d="M155.734,631.924c0-1.174,0.804-2.02,1.955-2.02c1.15,0,1.932,0.824,1.932,2.02c0,1.15-0.782,1.998-1.954,1.998
				C156.538,633.922,155.734,633.074,155.734,631.924z"/>
			<path d="M170.631,622.283h-5.472l-0.304,2.17c0.304-0.043,0.565-0.043,0.912-0.043c1.346,0,2.714,0.305,3.713,1.021
				c1.064,0.717,1.715,1.889,1.715,3.539c0,2.627-2.258,4.951-6.058,4.951c-1.716,0-3.148-0.393-3.93-0.805l0.586-2.475
				c0.63,0.303,1.911,0.695,3.192,0.695c1.368,0,2.823-0.652,2.823-2.15c0-1.455-1.151-2.346-3.974-2.346
				c-0.781,0-1.324,0.045-1.911,0.131l0.934-7.404h7.773V622.283z"/>
		</g>
	</g>
	<g>
		<g>
			<path d="M139.109,394.836l-0.768,2.769h-2.529l3.297-10.788h3.201l3.346,10.788h-2.625l-0.833-2.769H139.109z M141.847,393.011
				l-0.672-2.289c-0.192-0.64-0.384-1.44-0.544-2.081h-0.032c-0.16,0.641-0.32,1.457-0.496,2.081l-0.641,2.289H141.847z"/>
			<path d="M146.917,386.24h2.433v11.364h-2.433V386.24z"/>
			<path d="M153.829,387.601c0,0.673-0.512,1.216-1.312,1.216c-0.768,0-1.28-0.543-1.264-1.216c-0.016-0.704,0.496-1.232,1.28-1.232
				S153.813,386.896,153.829,387.601z M151.316,397.604v-7.827h2.433v7.827H151.316z"/>
			<path d="M161.574,397.412c-0.432,0.192-1.249,0.353-2.177,0.353c-2.529,0-4.146-1.536-4.146-4.001
				c0-2.289,1.568-4.162,4.482-4.162c0.64,0,1.344,0.111,1.856,0.304l-0.384,1.81c-0.288-0.129-0.72-0.24-1.36-0.24
				c-1.28,0-2.113,0.912-2.097,2.192c0,1.44,0.96,2.192,2.145,2.192c0.576,0,1.024-0.096,1.393-0.24L161.574,397.412z"/>
			<path d="M164.612,394.467c0.08,1.009,1.072,1.489,2.209,1.489c0.833,0,1.504-0.112,2.161-0.32l0.32,1.648
				c-0.8,0.32-1.777,0.48-2.833,0.48c-2.657,0-4.178-1.536-4.178-3.985c0-1.985,1.232-4.178,3.954-4.178
				c2.529,0,3.489,1.969,3.489,3.905c0,0.416-0.048,0.784-0.08,0.96H164.612z M167.478,392.803c0-0.592-0.256-1.585-1.376-1.585
				c-1.024,0-1.441,0.929-1.505,1.585H167.478z"/>
			<path d="M173.653,386.641c-0.496,1.568-1.201,3.137-1.921,4.338l-1.473,0.127c0.48-1.36,0.896-2.912,1.104-4.321L173.653,386.641
				z"/>
			<path d="M173.476,395.476c0.448,0.272,1.376,0.593,2.097,0.593c0.736,0,1.041-0.256,1.041-0.656s-0.24-0.593-1.152-0.896
				c-1.617-0.545-2.241-1.425-2.225-2.354c0-1.457,1.249-2.561,3.186-2.561c0.912,0,1.729,0.208,2.208,0.447l-0.432,1.682
				c-0.352-0.192-1.024-0.449-1.696-0.449c-0.592,0-0.929,0.24-0.929,0.641c0,0.369,0.304,0.561,1.265,0.896
				c1.489,0.512,2.113,1.265,2.129,2.417c0,1.456-1.152,2.529-3.394,2.529c-1.024,0-1.937-0.224-2.529-0.544L173.476,395.476z"/>
			<path d="M138.158,406.016v10.789h-2.449v-10.789H138.158z"/>
			<path d="M140.237,411.475c0-0.977-0.032-1.809-0.064-2.497h2.113l0.112,1.072h0.048c0.32-0.496,1.121-1.249,2.417-1.249
				c1.601,0,2.801,1.057,2.801,3.361v4.643h-2.433v-4.338c0-1.008-0.352-1.697-1.232-1.697c-0.672,0-1.072,0.465-1.232,0.913
				c-0.064,0.144-0.096,0.384-0.096,0.608v4.514h-2.433V411.475z"/>
			<path d="M149.613,411.603c0-1.024-0.032-1.905-0.064-2.625h2.113l0.112,1.089h0.032c0.576-0.833,1.473-1.266,2.609-1.266
				c1.713,0,3.25,1.489,3.25,3.986c0,2.85-1.809,4.193-3.554,4.193c-0.944,0-1.681-0.384-2.033-0.896h-0.032v3.891h-2.433V411.603z
				 M152.045,413.443c0,0.191,0.016,0.368,0.048,0.512c0.16,0.656,0.72,1.152,1.424,1.152c1.057,0,1.681-0.88,1.681-2.209
				c0-1.248-0.56-2.192-1.648-2.192c-0.688,0-1.296,0.513-1.457,1.233c-0.032,0.127-0.048,0.287-0.048,0.432V413.443z"/>
			<path d="M166.56,414.291c0,1.025,0.032,1.857,0.064,2.514h-2.113l-0.112-1.104h-0.048c-0.304,0.48-1.041,1.28-2.449,1.28
				c-1.584,0-2.753-0.992-2.753-3.409v-4.594h2.449v4.21c0,1.137,0.368,1.824,1.216,1.824c0.672,0,1.057-0.464,1.216-0.848
				c0.064-0.145,0.08-0.336,0.08-0.529v-4.657h2.449V414.291z"/>
			<path d="M171.229,406.736v2.241h1.745v1.792h-1.745v2.834c0,0.944,0.224,1.377,0.96,1.377c0.304,0,0.544-0.033,0.72-0.064
				l0.016,1.841c-0.32,0.128-0.896,0.208-1.584,0.208c-0.784,0-1.44-0.271-1.825-0.672c-0.448-0.465-0.672-1.217-0.672-2.321v-3.202
				h-1.041v-1.792h1.041v-1.696L171.229,406.736z"/>
			<path d="M174.364,414.676c0.448,0.271,1.376,0.592,2.097,0.592c0.736,0,1.041-0.256,1.041-0.656s-0.24-0.592-1.152-0.896
				c-1.617-0.543-2.241-1.424-2.225-2.353c0-1.456,1.249-2.562,3.186-2.562c0.912,0,1.729,0.209,2.208,0.449l-0.432,1.68
				c-0.352-0.191-1.024-0.447-1.696-0.447c-0.592,0-0.929,0.24-0.929,0.641c0,0.367,0.304,0.56,1.265,0.896
				c1.489,0.513,2.113,1.265,2.129,2.417c0,1.457-1.152,2.529-3.394,2.529c-1.024,0-1.937-0.225-2.529-0.545L174.364,414.676z"/>
		</g>
	</g>
</g>
<line fill="none" stroke="#000000" stroke-miterlimit="10" x1="910" y1="134.5" x2="910" y2="747.5"/>
<line fill="none" stroke="#000000" stroke-miterlimit="10" x1="454" y1="134.5" x2="454" y2="747.5"/>
<g opacity="0.2">
	<g>
		<rect x="938.499" y="133.839" fill="none" width="397.465" height="54"/>
		<path d="M978.097,152.079L976.854,148h-6.246l-1.242,4.078h-3.914l6.047-17.203h4.441l6.07,17.203H978.097z M975.987,144.954
			c-1.148-3.695-1.795-5.785-1.939-6.27s-0.248-0.867-0.311-1.148c-0.258,1-0.996,3.473-2.215,7.418H975.987z"/>
		<path d="M987.46,152.079h-3.574v-18.234h3.574V152.079z"/>
		<path d="M991.058,135.59c0-1.164,0.648-1.746,1.945-1.746s1.945,0.582,1.945,1.746c0,0.555-0.162,0.986-0.486,1.295
			s-0.811,0.463-1.459,0.463C991.706,137.348,991.058,136.762,991.058,135.59z M994.784,152.079h-3.574v-13.102h3.574V152.079z"/>
		<path d="M1003.854,152.313c-4.078,0-6.117-2.238-6.117-6.715c0-2.227,0.555-3.928,1.664-5.104s2.699-1.764,4.77-1.764
			c1.516,0,2.875,0.297,4.078,0.891l-1.055,2.766c-0.562-0.227-1.086-0.412-1.57-0.557s-0.969-0.217-1.453-0.217
			c-1.859,0-2.789,1.32-2.789,3.961c0,2.562,0.93,3.844,2.789,3.844c0.688,0,1.324-0.092,1.91-0.275s1.172-0.471,1.758-0.861v3.059
			c-0.578,0.367-1.162,0.621-1.752,0.762S1004.753,152.313,1003.854,152.313z"/>
		<path d="M1016.804,152.313c-2.109,0-3.758-0.582-4.945-1.746s-1.781-2.812-1.781-4.945c0-2.195,0.549-3.893,1.646-5.092
			s2.615-1.799,4.553-1.799c1.852,0,3.293,0.527,4.324,1.582s1.547,2.512,1.547,4.371v1.734h-8.449
			c0.039,1.016,0.34,1.809,0.902,2.379s1.352,0.855,2.367,0.855c0.789,0,1.535-0.082,2.238-0.246s1.438-0.426,2.203-0.785v2.766
			c-0.625,0.312-1.293,0.545-2.004,0.697S1017.827,152.313,1016.804,152.313z M1016.3,141.274c-0.758,0-1.352,0.24-1.781,0.721
			s-0.676,1.162-0.738,2.045h5.016c-0.016-0.883-0.246-1.564-0.691-2.045S1017.058,141.274,1016.3,141.274z"/>
		<path d="M1040.429,148.188c0,1.344-0.467,2.367-1.4,3.07s-2.33,1.055-4.189,1.055c-0.953,0-1.766-0.064-2.438-0.193
			s-1.301-0.318-1.887-0.568v-2.953c0.664,0.312,1.412,0.574,2.244,0.785s1.564,0.316,2.197,0.316c1.297,0,1.945-0.375,1.945-1.125
			c0-0.281-0.086-0.51-0.258-0.686s-0.469-0.375-0.891-0.598s-0.984-0.482-1.688-0.779c-1.008-0.422-1.748-0.812-2.221-1.172
			s-0.816-0.771-1.031-1.236s-0.322-1.037-0.322-1.717c0-1.164,0.451-2.064,1.354-2.701s2.182-0.955,3.838-0.955
			c1.578,0,3.113,0.344,4.605,1.031l-1.078,2.578c-0.656-0.281-1.27-0.512-1.84-0.691s-1.152-0.27-1.746-0.27
			c-1.055,0-1.582,0.285-1.582,0.855c0,0.32,0.17,0.598,0.51,0.832s1.084,0.582,2.232,1.043c1.023,0.414,1.773,0.801,2.25,1.16
			s0.828,0.773,1.055,1.242S1040.429,147.54,1040.429,148.188z"/>
		<path d="M1050.413,152.313c-1.539,0-2.746-0.559-3.621-1.676h-0.188c0.125,1.094,0.188,1.727,0.188,1.898v5.309h-3.574v-18.867
			h2.906l0.504,1.699h0.164c0.836-1.297,2.074-1.945,3.715-1.945c1.547,0,2.758,0.598,3.633,1.793s1.312,2.855,1.312,4.98
			c0,1.398-0.205,2.613-0.615,3.645s-0.994,1.816-1.752,2.355S1051.437,152.313,1050.413,152.313z M1049.358,141.59
			c-0.883,0-1.527,0.271-1.934,0.814s-0.617,1.439-0.633,2.689v0.387c0,1.406,0.209,2.414,0.627,3.023s1.08,0.914,1.986,0.914
			c1.602,0,2.402-1.32,2.402-3.961c0-1.289-0.197-2.256-0.592-2.9S1050.202,141.59,1049.358,141.59z"/>
		<path d="M1064.335,152.313c-2.109,0-3.758-0.582-4.945-1.746s-1.781-2.812-1.781-4.945c0-2.195,0.549-3.893,1.646-5.092
			s2.615-1.799,4.553-1.799c1.852,0,3.293,0.527,4.324,1.582s1.547,2.512,1.547,4.371v1.734h-8.449
			c0.039,1.016,0.34,1.809,0.902,2.379s1.352,0.855,2.367,0.855c0.789,0,1.535-0.082,2.238-0.246s1.438-0.426,2.203-0.785v2.766
			c-0.625,0.312-1.293,0.545-2.004,0.697S1065.358,152.313,1064.335,152.313z M1063.831,141.274c-0.758,0-1.352,0.24-1.781,0.721
			s-0.676,1.162-0.738,2.045h5.016c-0.016-0.883-0.246-1.564-0.691-2.045S1064.589,141.274,1063.831,141.274z"/>
		<path d="M1084.679,152.079h-3.574v-7.652c0-0.945-0.168-1.654-0.504-2.127s-0.871-0.709-1.605-0.709c-1,0-1.723,0.334-2.168,1.002
			s-0.668,1.775-0.668,3.322v6.164h-3.574v-13.102h2.73l0.48,1.676h0.199c0.398-0.633,0.947-1.111,1.646-1.436
			s1.494-0.486,2.385-0.486c1.523,0,2.68,0.412,3.469,1.236s1.184,2.014,1.184,3.568V152.079z"/>
		<path d="M1092.507,152.313c-1.539,0-2.748-0.598-3.627-1.793s-1.318-2.852-1.318-4.969c0-2.148,0.447-3.822,1.342-5.021
			s2.127-1.799,3.697-1.799c1.648,0,2.906,0.641,3.773,1.922h0.117c-0.18-0.977-0.27-1.848-0.27-2.613v-4.195h3.586v18.234h-2.742
			l-0.691-1.699h-0.152C1095.409,151.668,1094.171,152.313,1092.507,152.313z M1093.761,149.465c0.914,0,1.584-0.266,2.01-0.797
			s0.658-1.434,0.697-2.707v-0.387c0-1.406-0.217-2.414-0.65-3.023s-1.139-0.914-2.115-0.914c-0.797,0-1.416,0.338-1.857,1.014
			s-0.662,1.658-0.662,2.947s0.223,2.256,0.668,2.9S1092.933,149.465,1093.761,149.465z"/>
		<path d="M1112.687,148.188c0,1.344-0.467,2.367-1.4,3.07s-2.33,1.055-4.189,1.055c-0.953,0-1.766-0.064-2.438-0.193
			s-1.301-0.318-1.887-0.568v-2.953c0.664,0.312,1.412,0.574,2.244,0.785s1.564,0.316,2.197,0.316c1.297,0,1.945-0.375,1.945-1.125
			c0-0.281-0.086-0.51-0.258-0.686s-0.469-0.375-0.891-0.598s-0.984-0.482-1.688-0.779c-1.008-0.422-1.748-0.812-2.221-1.172
			s-0.816-0.771-1.031-1.236s-0.322-1.037-0.322-1.717c0-1.164,0.451-2.064,1.354-2.701s2.182-0.955,3.838-0.955
			c1.578,0,3.113,0.344,4.605,1.031l-1.078,2.578c-0.656-0.281-1.27-0.512-1.84-0.691s-1.152-0.27-1.746-0.27
			c-1.055,0-1.582,0.285-1.582,0.855c0,0.32,0.17,0.598,0.51,0.832s1.084,0.582,2.232,1.043c1.023,0.414,1.773,0.801,2.25,1.16
			s0.828,0.773,1.055,1.242S1112.687,147.54,1112.687,148.188z"/>
		<path d="M1130.03,152.079l-0.691-1.781h-0.094c-0.602,0.758-1.221,1.283-1.857,1.576s-1.467,0.439-2.49,0.439
			c-1.258,0-2.248-0.359-2.971-1.078s-1.084-1.742-1.084-3.07c0-1.391,0.486-2.416,1.459-3.076s2.439-1.025,4.4-1.096l2.273-0.07
			v-0.574c0-1.328-0.68-1.992-2.039-1.992c-1.047,0-2.277,0.316-3.691,0.949l-1.184-2.414c1.508-0.789,3.18-1.184,5.016-1.184
			c1.758,0,3.105,0.383,4.043,1.148s1.406,1.93,1.406,3.492v8.73H1130.03z M1128.976,146.008l-1.383,0.047
			c-1.039,0.031-1.812,0.219-2.32,0.562s-0.762,0.867-0.762,1.57c0,1.008,0.578,1.512,1.734,1.512c0.828,0,1.49-0.238,1.986-0.715
			s0.744-1.109,0.744-1.898V146.008z"/>
		<path d="M1147.761,152.313c-4.078,0-6.117-2.238-6.117-6.715c0-2.227,0.555-3.928,1.664-5.104s2.699-1.764,4.77-1.764
			c1.516,0,2.875,0.297,4.078,0.891l-1.055,2.766c-0.562-0.227-1.086-0.412-1.57-0.557s-0.969-0.217-1.453-0.217
			c-1.859,0-2.789,1.32-2.789,3.961c0,2.562,0.93,3.844,2.789,3.844c0.688,0,1.324-0.092,1.91-0.275s1.172-0.471,1.758-0.861v3.059
			c-0.578,0.367-1.162,0.621-1.752,0.762S1148.659,152.313,1147.761,152.313z"/>
		<path d="M1166.687,145.504c0,2.133-0.562,3.801-1.688,5.004s-2.691,1.805-4.699,1.805c-1.258,0-2.367-0.275-3.328-0.826
			s-1.699-1.342-2.215-2.373s-0.773-2.234-0.773-3.609c0-2.141,0.559-3.805,1.676-4.992s2.688-1.781,4.711-1.781
			c1.258,0,2.367,0.273,3.328,0.82s1.699,1.332,2.215,2.355S1166.687,144.129,1166.687,145.504z M1157.628,145.504
			c0,1.297,0.213,2.277,0.639,2.941s1.119,0.996,2.08,0.996c0.953,0,1.639-0.33,2.057-0.99s0.627-1.643,0.627-2.947
			c0-1.297-0.211-2.27-0.633-2.918s-1.113-0.973-2.074-0.973c-0.953,0-1.641,0.322-2.062,0.967S1157.628,144.2,1157.628,145.504z"/>
		<path d="M1169.487,135.59c0-1.164,0.648-1.746,1.945-1.746s1.945,0.582,1.945,1.746c0,0.555-0.162,0.986-0.486,1.295
			s-0.811,0.463-1.459,0.463C1170.136,137.348,1169.487,136.762,1169.487,135.59z M1173.214,152.079h-3.574v-13.102h3.574V152.079z"
			/>
		<path d="M1189.058,152.079h-3.574v-7.652c0-0.945-0.168-1.654-0.504-2.127s-0.871-0.709-1.605-0.709c-1,0-1.723,0.334-2.168,1.002
			s-0.668,1.775-0.668,3.322v6.164h-3.574v-13.102h2.73l0.48,1.676h0.199c0.398-0.633,0.947-1.111,1.646-1.436
			s1.494-0.486,2.385-0.486c1.523,0,2.68,0.412,3.469,1.236s1.184,2.014,1.184,3.568V152.079z"/>
		<path d="M1191.683,157.844c-0.914,0-1.699-0.098-2.355-0.293v-2.812c0.547,0.148,1.105,0.223,1.676,0.223
			c0.602,0,1.041-0.168,1.318-0.504s0.416-0.832,0.416-1.488v-13.992h3.574v14.52c0,1.391-0.402,2.463-1.207,3.217
			S1193.159,157.844,1191.683,157.844z M1192.585,135.59c0-1.164,0.648-1.746,1.945-1.746s1.945,0.582,1.945,1.746
			c0,0.555-0.162,0.986-0.486,1.295s-0.811,0.463-1.459,0.463C1193.233,137.348,1192.585,136.762,1192.585,135.59z"/>
		<path d="M1211.968,145.504c0,2.133-0.562,3.801-1.688,5.004s-2.691,1.805-4.699,1.805c-1.258,0-2.367-0.275-3.328-0.826
			s-1.699-1.342-2.215-2.373s-0.773-2.234-0.773-3.609c0-2.141,0.559-3.805,1.676-4.992s2.688-1.781,4.711-1.781
			c1.258,0,2.367,0.273,3.328,0.82s1.699,1.332,2.215,2.355S1211.968,144.129,1211.968,145.504z M1202.909,145.504
			c0,1.297,0.213,2.277,0.639,2.941s1.119,0.996,2.08,0.996c0.953,0,1.639-0.33,2.057-0.99s0.627-1.643,0.627-2.947
			c0-1.297-0.211-2.27-0.633-2.918s-1.113-0.973-2.074-0.973c-0.953,0-1.641,0.322-2.062,0.967S1202.909,144.2,1202.909,145.504z"/>
		<path d="M1214.769,135.59c0-1.164,0.648-1.746,1.945-1.746s1.945,0.582,1.945,1.746c0,0.555-0.162,0.986-0.486,1.295
			s-0.811,0.463-1.459,0.463C1215.417,137.348,1214.769,136.762,1214.769,135.59z M1218.495,152.079h-3.574v-13.102h3.574V152.079z"
			/>
		<path d="M1234.339,152.079h-3.574v-7.652c0-0.945-0.168-1.654-0.504-2.127s-0.871-0.709-1.605-0.709c-1,0-1.723,0.334-2.168,1.002
			s-0.668,1.775-0.668,3.322v6.164h-3.574v-13.102h2.73l0.48,1.676h0.199c0.398-0.633,0.947-1.111,1.646-1.436
			s1.494-0.486,2.385-0.486c1.523,0,2.68,0.412,3.469,1.236s1.184,2.014,1.184,3.568V152.079z"/>
		<path d="M1252.573,152.079l-0.691-1.781h-0.094c-0.602,0.758-1.221,1.283-1.857,1.576s-1.467,0.439-2.49,0.439
			c-1.258,0-2.248-0.359-2.971-1.078s-1.084-1.742-1.084-3.07c0-1.391,0.486-2.416,1.459-3.076s2.439-1.025,4.4-1.096l2.273-0.07
			v-0.574c0-1.328-0.68-1.992-2.039-1.992c-1.047,0-2.277,0.316-3.691,0.949l-1.184-2.414c1.508-0.789,3.18-1.184,5.016-1.184
			c1.758,0,3.105,0.383,4.043,1.148s1.406,1.93,1.406,3.492v8.73H1252.573z M1251.519,146.008l-1.383,0.047
			c-1.039,0.031-1.812,0.219-2.32,0.562s-0.762,0.867-0.762,1.57c0,1.008,0.578,1.512,1.734,1.512c0.828,0,1.49-0.238,1.986-0.715
			s0.744-1.109,0.744-1.898V146.008z"/>
		<path d="M1262.323,152.079h-3.574v-18.234h3.574V152.079z"/>
		<path d="M1277.979,145.504c0,2.133-0.562,3.801-1.688,5.004s-2.691,1.805-4.699,1.805c-1.258,0-2.367-0.275-3.328-0.826
			s-1.699-1.342-2.215-2.373s-0.773-2.234-0.773-3.609c0-2.141,0.559-3.805,1.676-4.992s2.688-1.781,4.711-1.781
			c1.258,0,2.367,0.273,3.328,0.82s1.699,1.332,2.215,2.355S1277.979,144.129,1277.979,145.504z M1268.921,145.504
			c0,1.297,0.213,2.277,0.639,2.941s1.119,0.996,2.08,0.996c0.953,0,1.639-0.33,2.057-0.99s0.627-1.643,0.627-2.947
			c0-1.297-0.211-2.27-0.633-2.918s-1.113-0.973-2.074-0.973c-0.953,0-1.641,0.322-2.062,0.967S1268.921,144.2,1268.921,145.504z"/>
		<path d="M1293.026,152.079h-3.574v-7.652c0-0.945-0.168-1.654-0.504-2.127s-0.871-0.709-1.605-0.709c-1,0-1.723,0.334-2.168,1.002
			s-0.668,1.775-0.668,3.322v6.164h-3.574v-13.102h2.73l0.48,1.676h0.199c0.398-0.633,0.947-1.111,1.646-1.436
			s1.494-0.486,2.385-0.486c1.523,0,2.68,0.412,3.469,1.236s1.184,2.014,1.184,3.568V152.079z"/>
		<path d="M1302.636,152.313c-2.109,0-3.758-0.582-4.945-1.746s-1.781-2.812-1.781-4.945c0-2.195,0.549-3.893,1.646-5.092
			s2.615-1.799,4.553-1.799c1.852,0,3.293,0.527,4.324,1.582s1.547,2.512,1.547,4.371v1.734h-8.449
			c0.039,1.016,0.34,1.809,0.902,2.379s1.352,0.855,2.367,0.855c0.789,0,1.535-0.082,2.238-0.246s1.438-0.426,2.203-0.785v2.766
			c-0.625,0.312-1.293,0.545-2.004,0.697S1303.659,152.313,1302.636,152.313z M1302.132,141.274c-0.758,0-1.352,0.24-1.781,0.721
			s-0.676,1.162-0.738,2.045h5.016c-0.016-0.883-0.246-1.564-0.691-2.045S1302.89,141.274,1302.132,141.274z"/>
	</g>
	<g>
		<g>
			<line fill="none" stroke="#000000" stroke-width="2" stroke-miterlimit="10" x1="1068.5" y1="310.5" x2="1176.5" y2="310.5"/>
			<g>
				<polygon points="1183.973,310.5 1174.123,314.525 1176.46,310.5 1174.123,306.476 				"/>
			</g>
		</g>
	</g>
	<g>
		<g>
			<line fill="none" stroke="#000000" stroke-width="2" stroke-miterlimit="10" x1="1068.5" y1="386.5" x2="1176.5" y2="386.5"/>
			<g>
				<polygon points="1183.973,386.5 1174.123,390.524 1176.46,386.5 1174.123,382.476 				"/>
			</g>
		</g>
	</g>
	<g>
		<g>
			<line fill="none" stroke="#000000" stroke-width="2" stroke-miterlimit="10" x1="1125.5" y1="539.5" x2="1176.5" y2="539.5"/>
			<g>
				<polygon points="1183.973,539.5 1174.123,543.524 1176.46,539.5 1174.123,535.477 				"/>
			</g>
		</g>
	</g>
	<g>
		<g>
			<line fill="none" stroke="#000000" stroke-width="2" stroke-miterlimit="10" x1="1068.5" y1="462.5" x2="1176.5" y2="462.5"/>
			<g>
				<polygon points="1183.973,462.5 1174.123,466.524 1176.46,462.5 1174.123,458.477 				"/>
			</g>
		</g>
	</g>
	<g>
		<g>
			<line fill="none" stroke="#000000" stroke-width="2" stroke-miterlimit="10" x1="1125.5" y1="617.5" x2="1176.5" y2="617.5"/>
			<g>
				<polygon points="1183.973,617.5 1174.123,621.524 1176.46,617.5 1174.123,613.477 				"/>
			</g>
		</g>
	</g>
	<rect x="1012.5" y="426.5" opacity="0.33" fill="#E15218" enable-background="new    " width="71" height="71"/>
	<rect x="1167.5" y="426.5" opacity="0.2" enable-background="new    " width="24" height="71"/>
	<rect x="1191.5" y="426.5" opacity="0.2" enable-background="new    " width="23" height="71"/>
	<rect x="1214.5" y="426.5" opacity="0.33" fill="#E15218" enable-background="new    " width="24" height="71"/>
	<rect x="1167.5" y="351.5" opacity="0.2" enable-background="new    " width="24" height="71"/>
	<rect x="1191.5" y="351.5" opacity="0.33" fill="#E15218" enable-background="new    " width="23" height="71"/>
	<rect x="1214.5" y="351.5" opacity="0.2" enable-background="new    " width="24" height="71"/>
	<rect x="1167.5" y="275.5" opacity="0.33" fill="#E15218" enable-background="new    " width="24" height="71"/>
	<rect x="1191.5" y="275.5" opacity="0.2" enable-background="new    " width="23" height="71"/>
	<rect x="1214.5" y="275.5" opacity="0.2" enable-background="new    " width="24" height="71"/>
	<g>
		<g>
			<path d="M1255.807,291.792c0.896-0.144,2.064-0.224,3.297-0.224c2.049,0,3.377,0.368,4.418,1.152
				c1.121,0.832,1.824,2.161,1.824,4.065c0,2.065-0.752,3.49-1.792,4.37c-1.137,0.945-2.865,1.393-4.978,1.393
				c-1.266,0-2.162-0.08-2.77-0.16V291.792z M1258.256,300.596c0.207,0.048,0.544,0.048,0.848,0.048
				c2.209,0.016,3.65-1.201,3.65-3.778c0.016-2.241-1.297-3.425-3.395-3.425c-0.544,0-0.896,0.048-1.104,0.096V300.596z"/>
			<path d="M1268.734,299.299c0.08,1.008,1.072,1.489,2.209,1.489c0.833,0,1.505-0.112,2.161-0.32l0.32,1.648
				c-0.8,0.32-1.776,0.48-2.833,0.48c-2.657,0-4.178-1.537-4.178-3.986c0-1.985,1.232-4.178,3.953-4.178
				c2.529,0,3.49,1.969,3.49,3.906c0,0.416-0.049,0.784-0.08,0.96H1268.734z M1271.6,297.635c0-0.592-0.256-1.585-1.376-1.585
				c-1.024,0-1.44,0.929-1.505,1.585H1271.6z"/>
			<path d="M1275.295,300.308c0.447,0.272,1.376,0.592,2.096,0.592c0.736,0,1.041-0.256,1.041-0.656s-0.24-0.592-1.152-0.896
				c-1.617-0.544-2.241-1.424-2.225-2.353c0-1.457,1.248-2.561,3.186-2.561c0.912,0,1.729,0.208,2.208,0.448l-0.433,1.681
				c-0.352-0.192-1.023-0.448-1.695-0.448c-0.593,0-0.93,0.24-0.93,0.641c0,0.368,0.305,0.56,1.266,0.896
				c1.488,0.512,2.112,1.265,2.129,2.417c0,1.457-1.152,2.529-3.395,2.529c-1.023,0-1.936-0.224-2.528-0.544L1275.295,300.308z"/>
			<path d="M1284.975,292.369v2.241h1.746v1.792h-1.746v2.833c0,0.944,0.225,1.376,0.961,1.376c0.305,0,0.545-0.032,0.721-0.064
				l0.016,1.841c-0.32,0.128-0.896,0.208-1.584,0.208c-0.785,0-1.441-0.272-1.825-0.672c-0.448-0.464-0.673-1.216-0.673-2.321
				v-3.202h-1.04v-1.792h1.04v-1.697L1284.975,292.369z"/>
			<path d="M1290.639,292.433c0,0.672-0.512,1.216-1.312,1.216c-0.768,0-1.28-0.544-1.264-1.216
				c-0.017-0.705,0.496-1.232,1.279-1.232C1290.127,291.2,1290.623,291.728,1290.639,292.433z M1288.126,302.437v-7.827h2.433v7.827
				H1288.126z"/>
			<path d="M1292.51,297.106c0-0.977-0.032-1.809-0.064-2.497h2.113l0.111,1.072h0.049c0.32-0.496,1.12-1.249,2.416-1.249
				c1.602,0,2.802,1.057,2.802,3.361v4.642h-2.433v-4.338c0-1.008-0.353-1.697-1.232-1.697c-0.673,0-1.072,0.464-1.232,0.913
				c-0.064,0.144-0.097,0.384-0.097,0.608v4.514h-2.433V297.106z"/>
			<path d="M1306.336,302.437l-0.145-0.784h-0.049c-0.512,0.624-1.312,0.96-2.24,0.96c-1.584,0-2.529-1.153-2.529-2.401
				c0-2.033,1.825-3.009,4.594-2.993v-0.112c0-0.416-0.224-1.008-1.424-1.008c-0.801,0-1.648,0.272-2.161,0.592l-0.448-1.569
				c0.545-0.304,1.617-0.688,3.041-0.688c2.609,0,3.441,1.537,3.441,3.377v2.721c0,0.752,0.032,1.473,0.112,1.905H1306.336z
				 M1306.047,298.739c-1.28-0.016-2.272,0.288-2.272,1.232c0,0.624,0.416,0.928,0.96,0.928c0.608,0,1.105-0.4,1.265-0.896
				c0.032-0.128,0.048-0.272,0.048-0.416V298.739z"/>
			<path d="M1312.927,292.369v2.241h1.745v1.792h-1.745v2.833c0,0.944,0.224,1.376,0.96,1.376c0.305,0,0.545-0.032,0.721-0.064
				l0.016,1.841c-0.319,0.128-0.896,0.208-1.584,0.208c-0.784,0-1.44-0.272-1.824-0.672c-0.449-0.464-0.673-1.216-0.673-2.321
				v-3.202h-1.04v-1.792h1.04v-1.697L1312.927,292.369z"/>
			<path d="M1318.591,292.433c0,0.672-0.513,1.216-1.312,1.216c-0.769,0-1.28-0.544-1.265-1.216
				c-0.016-0.705,0.496-1.232,1.281-1.232C1318.078,291.2,1318.575,291.728,1318.591,292.433z M1316.078,302.437v-7.827h2.433v7.827
				H1316.078z"/>
			<path d="M1328.193,298.435c0,2.865-2.033,4.178-4.131,4.178c-2.288,0-4.049-1.505-4.049-4.034c0-2.529,1.664-4.146,4.178-4.146
				C1326.592,294.433,1328.193,296.082,1328.193,298.435z M1322.526,298.515c0,1.344,0.561,2.353,1.601,2.353
				c0.945,0,1.553-0.944,1.553-2.353c0-1.168-0.448-2.353-1.553-2.353C1322.959,296.162,1322.526,297.362,1322.526,298.515z"/>
			<path d="M1329.693,297.106c0-0.977-0.031-1.809-0.063-2.497h2.112l0.112,1.072h0.048c0.32-0.496,1.121-1.249,2.417-1.249
				c1.601,0,2.802,1.057,2.802,3.361v4.642h-2.434v-4.338c0-1.008-0.352-1.697-1.232-1.697c-0.672,0-1.072,0.464-1.232,0.913
				c-0.064,0.144-0.096,0.384-0.096,0.608v4.514h-2.434V297.106z"/>
			<path d="M1265.683,316.13c0,3.538-2.146,5.683-5.298,5.683c-3.201,0-5.074-2.417-5.074-5.49c0-3.233,2.064-5.65,5.25-5.65
				C1263.873,310.672,1265.683,313.153,1265.683,316.13z M1257.887,316.274c0,2.113,0.993,3.602,2.625,3.602
				c1.649,0,2.594-1.569,2.594-3.666c0-1.937-0.929-3.602-2.609-3.602C1258.848,312.609,1257.887,314.178,1257.887,316.274z"/>
			<path d="M1274.657,319.124c0,1.024,0.032,1.857,0.063,2.513h-2.112l-0.112-1.104h-0.048c-0.304,0.48-1.04,1.281-2.449,1.281
				c-1.585,0-2.753-0.993-2.753-3.41v-4.594h2.449v4.209c0,1.137,0.368,1.825,1.217,1.825c0.672,0,1.057-0.464,1.216-0.849
				c0.064-0.144,0.08-0.336,0.08-0.528v-4.658h2.449V319.124z"/>
			<path d="M1279.327,311.569v2.241h1.745v1.792h-1.745v2.833c0,0.944,0.224,1.376,0.96,1.376c0.305,0,0.545-0.032,0.721-0.064
				l0.016,1.841c-0.319,0.128-0.896,0.208-1.584,0.208c-0.784,0-1.44-0.272-1.824-0.672c-0.449-0.464-0.673-1.216-0.673-2.321
				v-3.202h-1.04v-1.792h1.04v-1.697L1279.327,311.569z"/>
			<path d="M1282.479,316.435c0-1.024-0.032-1.905-0.064-2.625h2.113l0.111,1.088h0.033c0.576-0.833,1.473-1.265,2.608-1.265
				c1.713,0,3.249,1.489,3.249,3.986c0,2.849-1.809,4.194-3.553,4.194c-0.945,0-1.682-0.384-2.033-0.896h-0.032v3.89h-2.433V316.435
				z M1284.911,318.275c0,0.192,0.017,0.368,0.048,0.512c0.16,0.656,0.721,1.152,1.425,1.152c1.057,0,1.681-0.88,1.681-2.209
				c0-1.249-0.561-2.193-1.648-2.193c-0.688,0-1.297,0.512-1.457,1.233c-0.031,0.128-0.048,0.288-0.048,0.432V318.275z"/>
			<path d="M1299.425,319.124c0,1.024,0.032,1.857,0.063,2.513h-2.112l-0.112-1.104h-0.048c-0.304,0.48-1.04,1.281-2.449,1.281
				c-1.585,0-2.753-0.993-2.753-3.41v-4.594h2.449v4.209c0,1.137,0.368,1.825,1.217,1.825c0.672,0,1.057-0.464,1.216-0.849
				c0.064-0.144,0.08-0.336,0.08-0.528v-4.658h2.449V319.124z"/>
			<path d="M1304.095,311.569v2.241h1.745v1.792h-1.745v2.833c0,0.944,0.224,1.376,0.96,1.376c0.305,0,0.545-0.032,0.721-0.064
				l0.016,1.841c-0.319,0.128-0.896,0.208-1.584,0.208c-0.784,0-1.44-0.272-1.824-0.672c-0.449-0.464-0.673-1.216-0.673-2.321
				v-3.202h-1.04v-1.792h1.04v-1.697L1304.095,311.569z"/>
		</g>
	</g>
	<g>
		<g>
			<path d="M1275.041,535.304l-0.768,2.769h-2.529l3.297-10.788h3.201l3.346,10.788h-2.625l-0.832-2.769H1275.041z
				 M1277.778,533.479l-0.673-2.289c-0.191-0.64-0.384-1.439-0.544-2.08h-0.032c-0.16,0.641-0.32,1.457-0.496,2.08l-0.641,2.289
				H1277.778z"/>
			<path d="M1282.849,526.708h2.433v11.364h-2.433V526.708z"/>
			<path d="M1289.761,528.068c0,0.673-0.513,1.217-1.312,1.217c-0.769,0-1.28-0.544-1.265-1.217
				c-0.016-0.704,0.496-1.232,1.281-1.232C1289.248,526.836,1289.745,527.364,1289.761,528.068z M1287.248,538.072v-7.826h2.433
				v7.826H1287.248z"/>
			<path d="M1297.506,537.881c-0.432,0.191-1.248,0.352-2.177,0.352c-2.528,0-4.146-1.536-4.146-4.001
				c0-2.289,1.568-4.162,4.482-4.162c0.64,0,1.344,0.112,1.855,0.304l-0.384,1.81c-0.288-0.128-0.72-0.24-1.36-0.24
				c-1.28,0-2.113,0.912-2.097,2.192c0,1.441,0.96,2.193,2.145,2.193c0.576,0,1.024-0.096,1.393-0.24L1297.506,537.881z"/>
			<path d="M1300.545,534.936c0.08,1.008,1.072,1.488,2.209,1.488c0.832,0,1.504-0.111,2.16-0.32l0.32,1.648
				c-0.801,0.32-1.777,0.48-2.833,0.48c-2.657,0-4.178-1.536-4.178-3.985c0-1.985,1.232-4.178,3.954-4.178
				c2.528,0,3.488,1.969,3.488,3.905c0,0.416-0.047,0.785-0.08,0.961H1300.545z M1303.41,533.271c0-0.593-0.257-1.586-1.377-1.586
				c-1.024,0-1.441,0.93-1.505,1.586H1303.41z"/>
			<path d="M1309.585,527.108c-0.496,1.568-1.2,3.138-1.921,4.338l-1.473,0.128c0.48-1.361,0.896-2.913,1.104-4.322
				L1309.585,527.108z"/>
			<path d="M1309.408,535.943c0.448,0.272,1.377,0.593,2.097,0.593c0.736,0,1.04-0.256,1.04-0.656s-0.24-0.593-1.152-0.896
				c-1.616-0.544-2.24-1.425-2.225-2.353c0-1.457,1.248-2.562,3.186-2.562c0.912,0,1.729,0.208,2.209,0.448l-0.433,1.681
				c-0.353-0.192-1.024-0.448-1.696-0.448c-0.592,0-0.929,0.24-0.929,0.641c0,0.368,0.304,0.561,1.265,0.896
				c1.488,0.512,2.113,1.264,2.129,2.416c0,1.457-1.152,2.529-3.394,2.529c-1.024,0-1.937-0.224-2.528-0.544L1309.408,535.943z"/>
			<path d="M1282.404,551.767c0,3.538-2.145,5.683-5.299,5.683c-3.201,0-5.074-2.417-5.074-5.49c0-3.233,2.065-5.65,5.251-5.65
				C1280.596,546.309,1282.404,548.789,1282.404,551.767z M1274.609,551.91c0,2.113,0.992,3.602,2.625,3.602
				c1.648,0,2.593-1.568,2.593-3.665c0-1.937-0.929-3.602-2.609-3.602C1275.569,548.245,1274.609,549.814,1274.609,551.91z"/>
			<path d="M1291.379,554.76c0,1.024,0.031,1.857,0.064,2.514h-2.113l-0.112-1.105h-0.048c-0.305,0.48-1.041,1.281-2.449,1.281
				c-1.584,0-2.753-0.992-2.753-3.41v-4.594h2.449v4.21c0,1.137,0.368,1.825,1.216,1.825c0.673,0,1.057-0.465,1.217-0.849
				c0.064-0.144,0.08-0.336,0.08-0.528v-4.658h2.449V554.76z"/>
			<path d="M1296.049,547.205v2.24h1.745v1.793h-1.745v2.834c0,0.943,0.225,1.376,0.961,1.376c0.304,0,0.544-0.032,0.72-0.063
				l0.017,1.84c-0.32,0.129-0.896,0.209-1.585,0.209c-0.784,0-1.44-0.272-1.825-0.673c-0.447-0.464-0.672-1.216-0.672-2.321v-3.201
				h-1.041v-1.793h1.041v-1.696L1296.049,547.205z"/>
			<path d="M1299.2,552.07c0-1.023-0.032-1.904-0.063-2.625h2.112l0.112,1.089h0.031c0.576-0.833,1.473-1.265,2.609-1.265
				c1.713,0,3.25,1.488,3.25,3.986c0,2.849-1.81,4.193-3.555,4.193c-0.943,0-1.68-0.385-2.032-0.896h-0.032v3.89h-2.433V552.07z
				 M1301.633,553.912c0,0.191,0.016,0.367,0.049,0.512c0.16,0.656,0.72,1.152,1.424,1.152c1.057,0,1.681-0.881,1.681-2.209
				c0-1.248-0.56-2.193-1.648-2.193c-0.688,0-1.296,0.513-1.456,1.233c-0.033,0.128-0.049,0.288-0.049,0.433V553.912z"/>
			<path d="M1316.146,554.76c0,1.024,0.031,1.857,0.064,2.514h-2.113l-0.112-1.105h-0.048c-0.305,0.48-1.041,1.281-2.449,1.281
				c-1.584,0-2.753-0.992-2.753-3.41v-4.594h2.449v4.21c0,1.137,0.368,1.825,1.216,1.825c0.673,0,1.057-0.465,1.217-0.849
				c0.064-0.144,0.08-0.336,0.08-0.528v-4.658h2.449V554.76z"/>
			<path d="M1320.816,547.205v2.24h1.745v1.793h-1.745v2.834c0,0.943,0.225,1.376,0.961,1.376c0.304,0,0.544-0.032,0.72-0.063
				l0.017,1.84c-0.32,0.129-0.896,0.209-1.585,0.209c-0.784,0-1.44-0.272-1.825-0.673c-0.447-0.464-0.672-1.216-0.672-2.321v-3.201
				h-1.041v-1.793h1.041v-1.696L1320.816,547.205z"/>
			<path d="M1323.951,555.145c0.449,0.271,1.377,0.592,2.098,0.592c0.736,0,1.04-0.256,1.04-0.656s-0.24-0.592-1.152-0.896
				c-1.616-0.544-2.241-1.424-2.226-2.354c0-1.456,1.249-2.561,3.186-2.561c0.912,0,1.729,0.209,2.209,0.448l-0.432,1.681
				c-0.353-0.191-1.025-0.448-1.697-0.448c-0.592,0-0.928,0.24-0.928,0.641c0,0.368,0.304,0.56,1.264,0.896
				c1.489,0.513,2.113,1.266,2.129,2.418c0,1.456-1.152,2.529-3.393,2.529c-1.025,0-1.938-0.225-2.529-0.545L1323.951,555.145z"/>
		</g>
	</g>
	<g>
		<g>
			<path d="M1030.109,239.752l-0.768,2.769h-2.529l3.297-10.789h3.201l3.346,10.789h-2.625l-0.832-2.769H1030.109z
				 M1032.847,237.927l-0.673-2.289c-0.191-0.64-0.384-1.44-0.544-2.081h-0.032c-0.16,0.64-0.32,1.457-0.496,2.081l-0.641,2.289
				H1032.847z"/>
			<path d="M1037.916,231.156h2.434v11.365h-2.434V231.156z"/>
			<path d="M1044.828,232.517c0,0.672-0.512,1.216-1.312,1.216c-0.768,0-1.279-0.544-1.264-1.216
				c-0.016-0.705,0.496-1.232,1.28-1.232S1044.812,231.812,1044.828,232.517z M1042.316,242.521v-7.827h2.432v7.827H1042.316z"/>
			<path d="M1052.574,242.329c-0.433,0.192-1.249,0.352-2.178,0.352c-2.528,0-4.145-1.537-4.145-4.001
				c0-2.289,1.568-4.162,4.481-4.162c0.64,0,1.345,0.112,1.856,0.304l-0.385,1.809c-0.287-0.128-0.72-0.24-1.359-0.24
				c-1.281,0-2.113,0.912-2.098,2.193c0,1.44,0.961,2.193,2.145,2.193c0.576,0,1.025-0.096,1.393-0.24L1052.574,242.329z"/>
			<path d="M1055.612,239.384c0.08,1.008,1.072,1.489,2.209,1.489c0.833,0,1.505-0.112,2.161-0.32l0.32,1.648
				c-0.801,0.32-1.777,0.48-2.834,0.48c-2.656,0-4.178-1.537-4.178-3.986c0-1.985,1.232-4.178,3.954-4.178
				c2.528,0,3.489,1.969,3.489,3.906c0,0.416-0.048,0.784-0.08,0.96H1055.612z M1058.478,237.719c0-0.592-0.257-1.585-1.376-1.585
				c-1.025,0-1.441,0.929-1.506,1.585H1058.478z"/>
			<path d="M1064.652,231.557c-0.496,1.568-1.2,3.137-1.92,4.338l-1.473,0.128c0.48-1.361,0.896-2.913,1.104-4.322L1064.652,231.557
				z"/>
			<path d="M1064.477,240.392c0.447,0.272,1.376,0.592,2.096,0.592c0.736,0,1.041-0.256,1.041-0.656s-0.24-0.592-1.152-0.896
				c-1.617-0.544-2.241-1.424-2.225-2.353c0-1.457,1.248-2.561,3.186-2.561c0.912,0,1.729,0.208,2.208,0.448l-0.433,1.681
				c-0.352-0.192-1.023-0.448-1.695-0.448c-0.593,0-0.93,0.24-0.93,0.641c0,0.368,0.305,0.56,1.266,0.896
				c1.488,0.512,2.112,1.265,2.129,2.417c0,1.457-1.152,2.529-3.395,2.529c-1.023,0-1.936-0.224-2.528-0.544L1064.477,240.392z"/>
			<path d="M1029.158,250.933v10.789h-2.449v-10.789H1029.158z"/>
			<path d="M1031.236,256.391c0-0.977-0.031-1.809-0.063-2.497h2.112l0.112,1.072h0.048c0.32-0.496,1.121-1.249,2.417-1.249
				c1.601,0,2.802,1.057,2.802,3.361v4.642h-2.434v-4.338c0-1.008-0.352-1.697-1.232-1.697c-0.672,0-1.072,0.464-1.232,0.913
				c-0.064,0.144-0.096,0.384-0.096,0.608v4.514h-2.434V256.391z"/>
			<path d="M1040.613,256.519c0-1.024-0.033-1.905-0.064-2.625h2.113l0.111,1.088h0.032c0.576-0.833,1.473-1.265,2.608-1.265
				c1.713,0,3.25,1.489,3.25,3.986c0,2.849-1.809,4.194-3.554,4.194c-0.944,0-1.681-0.384-2.032-0.896h-0.033v3.89h-2.432V256.519z
				 M1043.045,258.36c0,0.192,0.017,0.368,0.049,0.512c0.16,0.656,0.721,1.152,1.424,1.152c1.057,0,1.682-0.88,1.682-2.209
				c0-1.249-0.561-2.193-1.648-2.193c-0.689,0-1.297,0.512-1.457,1.233c-0.032,0.128-0.049,0.288-0.049,0.432V258.36z"/>
			<path d="M1057.56,259.208c0,1.024,0.032,1.857,0.063,2.513h-2.112l-0.112-1.104h-0.048c-0.304,0.48-1.04,1.281-2.449,1.281
				c-1.585,0-2.753-0.993-2.753-3.41v-4.594h2.449v4.209c0,1.137,0.368,1.825,1.217,1.825c0.672,0,1.057-0.464,1.216-0.849
				c0.063-0.144,0.08-0.336,0.08-0.528v-4.658h2.449V259.208z"/>
			<path d="M1062.229,251.653v2.241h1.746v1.792h-1.746v2.833c0,0.944,0.225,1.376,0.961,1.376c0.305,0,0.545-0.032,0.721-0.064
				l0.016,1.841c-0.32,0.128-0.896,0.208-1.584,0.208c-0.785,0-1.441-0.272-1.825-0.672c-0.448-0.464-0.673-1.216-0.673-2.321
				v-3.202h-1.04v-1.792h1.04v-1.697L1062.229,251.653z"/>
			<path d="M1065.364,259.592c0.448,0.272,1.376,0.592,2.097,0.592c0.736,0,1.041-0.256,1.041-0.656s-0.24-0.592-1.152-0.896
				c-1.617-0.544-2.242-1.424-2.226-2.353c0-1.457,1.249-2.561,3.186-2.561c0.912,0,1.729,0.208,2.208,0.448l-0.432,1.681
				c-0.352-0.192-1.024-0.448-1.696-0.448c-0.593,0-0.929,0.24-0.929,0.641c0,0.368,0.305,0.56,1.265,0.896
				c1.489,0.512,2.112,1.265,2.129,2.417c0,1.457-1.152,2.529-3.394,2.529c-1.024,0-1.937-0.224-2.529-0.544L1065.364,259.592z"/>
		</g>
	</g>
	<circle fill="#FFFFFF" stroke="#000000" stroke-width="2" stroke-miterlimit="10" cx="1203.472" cy="308.98" r="19.5"/>
	<g>
		<g>
			<path fill="#2D4E6E" d="M975.354,452.92c11.329,0,19.018,11.004,19.018,11.004s-7.446,11.006-18.774,11.006
				c-11.329,0-19.018-11.15-19.018-11.15S964.024,452.92,975.354,452.92 M975.354,450.634c-12.391,0-20.328,11.369-20.66,11.853
				l-0.889,1.297l0.893,1.294c0.342,0.496,8.512,12.139,20.899,12.139c12.399,0,20.336-11.521,20.668-12.011l0.881-1.302l-0.9-1.289
				C995.903,462.125,987.732,450.634,975.354,450.634L975.354,450.634z"/>
		</g>
		<circle fill="#FFFFFF" stroke="#2D4E6E" stroke-width="1.1431" stroke-miterlimit="10" cx="975.686" cy="463.924" r="8.506"/>
		<circle fill="none" stroke="#2D4E6E" stroke-width="1.7147" stroke-miterlimit="10" cx="975.774" cy="463.939" r="5.528"/>
	</g>
	
		<rect x="1012.5" y="426.5" fill="none" stroke="#2D4E6E" stroke-width="4" stroke-miterlimit="10" enable-background="new    " width="71" height="71"/>
	<g>
		<g>
			<path d="M1199.93,309.393c0,4.364-1.76,7.361-5.363,7.361c-3.648,0-5.256-3.279-5.277-7.274c0-4.082,1.738-7.317,5.385-7.317
				C1198.453,302.163,1199.93,305.528,1199.93,309.393z M1192.611,309.48c-0.021,3.235,0.76,4.777,2.041,4.777
				s1.977-1.607,1.977-4.82c0-3.127-0.674-4.777-1.998-4.777C1193.415,304.66,1192.59,306.202,1192.611,309.48z"/>
			<path d="M1201.734,314.756c0-1.173,0.804-2.02,1.955-2.02c1.15,0,1.932,0.825,1.932,2.02c0,1.15-0.781,1.998-1.954,1.998
				C1202.538,316.754,1201.734,315.907,1201.734,314.756z"/>
			<path d="M1207.208,316.515v-1.998l1.823-1.649c3.084-2.758,4.582-4.343,4.625-5.993c0-1.15-0.694-2.062-2.322-2.062
				c-1.217,0-2.28,0.607-3.019,1.172l-0.935-2.366c1.064-0.804,2.715-1.455,4.625-1.455c3.192,0,4.951,1.867,4.951,4.43
				c0,2.366-1.715,4.256-3.756,6.08l-1.303,1.085v0.044h5.319v2.714H1207.208z"/>
		</g>
	</g>
	<circle fill="#FFFFFF" stroke="#000000" stroke-width="2" stroke-miterlimit="10" cx="1203.472" cy="461.98" r="19.5"/>
	<g>
		<g>
			<path d="M1199.93,461.561c0,4.363-1.76,7.361-5.363,7.361c-3.648,0-5.256-3.279-5.277-7.275c0-4.082,1.738-7.316,5.385-7.316
				C1198.453,454.33,1199.93,457.695,1199.93,461.561z M1192.611,461.646c-0.021,3.236,0.76,4.777,2.041,4.777
				s1.977-1.607,1.977-4.82c0-3.127-0.674-4.777-1.998-4.777C1193.415,456.826,1192.59,458.369,1192.611,461.646z"/>
			<path d="M1201.734,466.924c0-1.174,0.804-2.02,1.955-2.02c1.15,0,1.932,0.824,1.932,2.02c0,1.15-0.781,1.998-1.954,1.998
				C1202.538,468.922,1201.734,468.074,1201.734,466.924z"/>
			<path d="M1207.208,468.682v-1.998l1.823-1.648c3.084-2.758,4.582-4.344,4.625-5.994c0-1.15-0.694-2.062-2.322-2.062
				c-1.217,0-2.28,0.607-3.019,1.172l-0.935-2.365c1.064-0.805,2.715-1.455,4.625-1.455c3.192,0,4.951,1.867,4.951,4.43
				c0,2.365-1.715,4.256-3.756,6.08l-1.303,1.084v0.045h5.319v2.713H1207.208z"/>
		</g>
	</g>
	<circle fill="#FFFFFF" stroke="#000000" stroke-width="2" stroke-miterlimit="10" cx="1048.472" cy="461.98" r="19.5"/>
	<g>
		<g>
			<path d="M1044.93,461.561c0,4.363-1.76,7.361-5.363,7.361c-3.648,0-5.256-3.279-5.277-7.275c0-4.082,1.738-7.316,5.385-7.316
				C1043.453,454.33,1044.93,457.695,1044.93,461.561z M1037.611,461.646c-0.021,3.236,0.76,4.777,2.041,4.777
				s1.977-1.607,1.977-4.82c0-3.127-0.674-4.777-1.998-4.777C1038.415,456.826,1037.59,458.369,1037.611,461.646z"/>
			<path d="M1046.734,466.924c0-1.174,0.804-2.02,1.955-2.02c1.15,0,1.932,0.824,1.932,2.02c0,1.15-0.781,1.998-1.954,1.998
				C1047.538,468.922,1046.734,468.074,1046.734,466.924z"/>
			<path d="M1061.631,457.283h-5.471l-0.305,2.17c0.305-0.043,0.564-0.043,0.912-0.043c1.346,0,2.715,0.305,3.713,1.021
				c1.064,0.717,1.715,1.889,1.715,3.539c0,2.627-2.258,4.951-6.057,4.951c-1.717,0-3.148-0.393-3.931-0.805l0.586-2.475
				c0.63,0.303,1.911,0.695,3.192,0.695c1.367,0,2.822-0.652,2.822-2.15c0-1.455-1.15-2.346-3.974-2.346
				c-0.781,0-1.324,0.045-1.911,0.131l0.934-7.404h7.773V457.283z"/>
		</g>
	</g>
	<rect x="1012.5" y="275.5" opacity="0.2" enable-background="new    " width="71" height="71"/>
	<circle fill="#FFFFFF" stroke="#000000" stroke-width="2" stroke-miterlimit="10" cx="1048.472" cy="310.98" r="19.5"/>
	<g>
		<g>
			<path d="M1044.93,310.56c0,4.364-1.76,7.361-5.363,7.361c-3.648,0-5.256-3.279-5.277-7.274c0-4.082,1.738-7.317,5.385-7.317
				C1043.453,303.33,1044.93,306.695,1044.93,310.56z M1037.611,310.647c-0.021,3.235,0.76,4.777,2.041,4.777
				s1.977-1.607,1.977-4.82c0-3.127-0.674-4.777-1.998-4.777C1038.415,305.827,1037.59,307.369,1037.611,310.647z"/>
			<path d="M1046.734,315.923c0-1.173,0.804-2.02,1.955-2.02c1.15,0,1.932,0.825,1.932,2.02c0,1.15-0.781,1.998-1.954,1.998
				C1047.538,317.921,1046.734,317.074,1046.734,315.923z"/>
			<path d="M1061.219,305.914c-0.369-0.021-0.76,0-1.281,0.043c-2.932,0.239-4.234,1.737-4.604,3.388h0.066
				c0.694-0.717,1.672-1.129,2.996-1.129c2.366,0,4.363,1.672,4.363,4.603c0,2.802-2.148,5.104-5.211,5.104
				c-3.756,0-5.602-2.802-5.602-6.167c0-2.649,0.977-4.863,2.497-6.275c1.411-1.281,3.235-1.976,5.45-2.084
				c0.607-0.044,0.998-0.044,1.324-0.021V305.914z M1059.416,312.992c0-1.303-0.694-2.432-2.105-2.432
				c-0.891,0-1.629,0.543-1.954,1.26c-0.087,0.174-0.13,0.434-0.13,0.825c0.064,1.498,0.781,2.844,2.279,2.844
				C1058.678,315.489,1059.416,314.425,1059.416,312.992z"/>
		</g>
	</g>
	<rect x="1012.5" y="351.5" opacity="0.2" enable-background="new    " width="71" height="71"/>
	<circle fill="#FFFFFF" stroke="#000000" stroke-width="2" stroke-miterlimit="10" cx="1048.472" cy="386.98" r="19.5"/>
	<g>
		<g>
			<path d="M1044.93,386.561c0,4.363-1.76,7.361-5.363,7.361c-3.648,0-5.256-3.279-5.277-7.275c0-4.082,1.738-7.317,5.385-7.317
				C1043.453,379.33,1044.93,382.695,1044.93,386.561z M1037.611,386.646c-0.021,3.236,0.76,4.777,2.041,4.777
				s1.977-1.607,1.977-4.82c0-3.126-0.674-4.777-1.998-4.777C1038.415,381.827,1037.59,383.369,1037.611,386.646z"/>
			<path d="M1046.734,391.924c0-1.174,0.804-2.02,1.955-2.02c1.15,0,1.932,0.824,1.932,2.02c0,1.15-0.781,1.998-1.954,1.998
				C1047.538,393.922,1046.734,393.074,1046.734,391.924z"/>
			<path d="M1051.99,389.99c0-1.693,0.978-2.865,2.52-3.539v-0.064c-1.368-0.695-2.041-1.846-2.041-3.083
				c0-2.389,2.149-3.974,4.973-3.974c3.3,0,4.668,1.911,4.668,3.626c0,1.216-0.652,2.41-2.041,3.105v0.064
				c1.367,0.521,2.584,1.695,2.584,3.518c0,2.562-2.15,4.279-5.429,4.279C1053.641,393.922,1051.99,391.902,1051.99,389.99z
				 M1059.287,389.883c0-1.238-0.912-1.977-2.215-2.324c-1.086,0.305-1.716,1.086-1.716,2.107c-0.022,1.02,0.76,1.975,1.997,1.975
				C1058.526,391.641,1059.287,390.881,1059.287,389.883z M1055.573,383.195c0,0.955,0.868,1.563,1.997,1.911
				c0.761-0.217,1.434-0.912,1.434-1.802c0-0.868-0.499-1.737-1.715-1.737C1056.16,381.566,1055.573,382.304,1055.573,383.195z"/>
		</g>
	</g>
	<rect x="1167.5" y="659.5" opacity="0.2" enable-background="new    " width="71" height="71"/>
	<rect x="1167.5" y="582.5" opacity="0.2" enable-background="new    " width="71" height="71"/>
	<rect x="1167.5" y="506.5" opacity="0.33" fill="#E15218" enable-background="new    " width="71" height="71"/>
	<circle fill="#FFFFFF" stroke="#000000" stroke-width="2" stroke-miterlimit="10" cx="1203.472" cy="386.98" r="19.5"/>
	<g>
		<g>
			<path d="M1199.93,386.561c0,4.363-1.76,7.361-5.363,7.361c-3.648,0-5.256-3.279-5.277-7.275c0-4.082,1.738-7.317,5.385-7.317
				C1198.453,379.33,1199.93,382.695,1199.93,386.561z M1192.611,386.646c-0.021,3.236,0.76,4.777,2.041,4.777
				s1.977-1.607,1.977-4.82c0-3.126-0.674-4.777-1.998-4.777C1193.415,381.827,1192.59,383.369,1192.611,386.646z"/>
			<path d="M1201.734,391.924c0-1.174,0.804-2.02,1.955-2.02c1.15,0,1.932,0.824,1.932,2.02c0,1.15-0.781,1.998-1.954,1.998
				C1202.538,393.922,1201.734,393.074,1201.734,391.924z"/>
			<path d="M1207.208,393.682v-1.998l1.823-1.648c3.084-2.758,4.582-4.344,4.625-5.994c0-1.15-0.694-2.062-2.322-2.062
				c-1.217,0-2.28,0.607-3.019,1.172l-0.935-2.366c1.064-0.804,2.715-1.455,4.625-1.455c3.192,0,4.951,1.867,4.951,4.43
				c0,2.366-1.715,4.256-3.756,6.081l-1.303,1.084v0.045h5.319v2.713H1207.208z"/>
		</g>
	</g>
	<circle fill="#FFFFFF" stroke="#000000" stroke-width="2" stroke-miterlimit="10" cx="1203.472" cy="539.98" r="19.5"/>
	<g>
		<g>
			<path d="M1199.93,540.393c0,4.365-1.76,7.361-5.363,7.361c-3.648,0-5.256-3.279-5.277-7.273c0-4.082,1.738-7.318,5.385-7.318
				C1198.453,533.162,1199.93,536.527,1199.93,540.393z M1192.611,540.48c-0.021,3.234,0.76,4.777,2.041,4.777
				s1.977-1.607,1.977-4.82c0-3.127-0.674-4.777-1.998-4.777C1193.415,535.66,1192.59,537.201,1192.611,540.48z"/>
			<path d="M1201.734,545.756c0-1.172,0.804-2.02,1.955-2.02c1.15,0,1.932,0.826,1.932,2.02c0,1.15-0.781,1.998-1.954,1.998
				C1202.538,547.754,1201.734,546.906,1201.734,545.756z"/>
			<path d="M1207.794,544.279c0.587,0.305,1.933,0.869,3.278,0.869c1.716,0,2.584-0.824,2.584-1.889c0-1.391-1.389-2.02-2.844-2.02
				h-1.347v-2.367h1.281c1.107-0.021,2.519-0.434,2.519-1.629c0-0.846-0.695-1.477-2.084-1.477c-1.15,0-2.367,0.5-2.953,0.848
				l-0.674-2.389c0.848-0.543,2.541-1.064,4.365-1.064c3.018,0,4.689,1.586,4.689,3.518c0,1.498-0.847,2.672-2.584,3.279v0.043
				c1.693,0.305,3.062,1.586,3.062,3.432c0,2.496-2.193,4.32-5.776,4.32c-1.823,0-3.365-0.479-4.19-0.998L1207.794,544.279z"/>
		</g>
	</g>
	<circle fill="#FFFFFF" stroke="#000000" stroke-width="2" stroke-miterlimit="10" cx="1203.472" cy="692.98" r="19.5"/>
	<g>
		<g>
			<path d="M1199.93,692.561c0,4.363-1.76,7.361-5.363,7.361c-3.648,0-5.256-3.279-5.277-7.275c0-4.082,1.738-7.316,5.385-7.316
				C1198.453,685.33,1199.93,688.695,1199.93,692.561z M1192.611,692.646c-0.021,3.236,0.76,4.777,2.041,4.777
				s1.977-1.607,1.977-4.82c0-3.127-0.674-4.777-1.998-4.777C1193.415,687.826,1192.59,689.369,1192.611,692.646z"/>
			<path d="M1201.734,697.924c0-1.174,0.804-2.02,1.955-2.02c1.15,0,1.932,0.824,1.932,2.02c0,1.15-0.781,1.998-1.954,1.998
				C1202.538,699.922,1201.734,699.074,1201.734,697.924z"/>
			<path d="M1213.049,699.682v-3.365h-6.254v-2.15l5.342-8.598h4.039v8.273h1.693v2.475h-1.693v3.365H1213.049z M1213.049,693.842
				v-3.127c0-0.848,0.043-1.715,0.108-2.627h-0.087c-0.456,0.912-0.825,1.736-1.303,2.627l-1.889,3.082v0.045H1213.049z"/>
		</g>
	</g>
	<circle fill="#FFFFFF" stroke="#000000" stroke-width="2" stroke-miterlimit="10" cx="1203.472" cy="617.98" r="19.5"/>
	<g>
		<g>
			<path d="M1199.93,617.561c0,4.363-1.76,7.361-5.363,7.361c-3.648,0-5.256-3.279-5.277-7.275c0-4.082,1.738-7.316,5.385-7.316
				C1198.453,610.33,1199.93,613.695,1199.93,617.561z M1192.611,617.646c-0.021,3.236,0.76,4.777,2.041,4.777
				s1.977-1.607,1.977-4.82c0-3.127-0.674-4.777-1.998-4.777C1193.415,612.826,1192.59,614.369,1192.611,617.646z"/>
			<path d="M1201.734,622.924c0-1.174,0.804-2.02,1.955-2.02c1.15,0,1.932,0.824,1.932,2.02c0,1.15-0.781,1.998-1.954,1.998
				C1202.538,624.922,1201.734,624.074,1201.734,622.924z"/>
			<path d="M1216.219,612.914c-0.369-0.021-0.76,0-1.281,0.043c-2.932,0.238-4.234,1.736-4.604,3.387h0.066
				c0.694-0.717,1.672-1.129,2.996-1.129c2.366,0,4.363,1.672,4.363,4.604c0,2.801-2.148,5.104-5.211,5.104
				c-3.756,0-5.602-2.803-5.602-6.168c0-2.648,0.977-4.863,2.497-6.275c1.411-1.281,3.235-1.975,5.45-2.084
				c0.607-0.043,0.998-0.043,1.324-0.021V612.914z M1214.416,619.992c0-1.303-0.694-2.432-2.105-2.432
				c-0.891,0-1.629,0.543-1.954,1.26c-0.087,0.174-0.13,0.434-0.13,0.824c0.064,1.498,0.781,2.844,2.279,2.844
				C1213.678,622.488,1214.416,621.426,1214.416,619.992z"/>
		</g>
	</g>
	<g>
		<g>
			<path fill="none" stroke="#000000" stroke-width="2" stroke-miterlimit="10" d="M1176.5,692.5h-46c-2.75,0-5-1.77-5-4.52v-372
				c0-2.75-2.25-5.481-5-5.481h-12"/>
			<g>
				<polygon points="1183.973,692.98 1174.123,688.956 1176.46,692.98 1174.123,697.004 				"/>
			</g>
		</g>
	</g>
	<g>
	</g>
	<g>
		<path fill="none" stroke="#000000" stroke-miterlimit="10" d="M1247.5,352h9c2.75,0,4.5,1.75,4.5,4.5v369c0,2.75-1.75,5.5-4.5,5.5
			h-9"/>
	</g>
</g>
<g>
</g>
</svg>
