<?xml version="1.0" encoding="utf-8"?>
<!-- Generator: Adobe Illustrator 16.0.4, SVG Export Plug-In . SVG Version: 6.00 Build 0)  -->
<!DOCTYPE svg PUBLIC "-//W3C//DTD SVG 1.1//EN" "http://www.w3.org/Graphics/SVG/1.1/DTD/svg11.dtd">
<svg version="1.1" id="Layer_1" xmlns="http://www.w3.org/2000/svg" xmlns:xlink="http://www.w3.org/1999/xlink" x="0px" y="0px"
	 width="1366px" height="768px" viewBox="0 0 1366 768" enable-background="new 0 0 1366 768" xml:space="preserve">
<rect fill="#FFFFFF" width="1366" height="768"/>
<circle fill="none" stroke="#2D4E6E" stroke-width="3" stroke-miterlimit="10" cx="367" cy="424" r="120"/>
<circle opacity="0.45" fill="none" stroke="#000000" stroke-width="2" stroke-miterlimit="10" cx="964.22" cy="234.205" r="89.205"/>
<circle opacity="0.45" fill="none" stroke="#000000" stroke-width="1.6498" stroke-miterlimit="10" cx="1050.961" cy="427.961" r="64.961"/>
<circle fill="none" stroke="#000000" stroke-width="2" stroke-miterlimit="10" cx="693" cy="424" r="51"/>
<circle opacity="0.33" fill="#E15218" enable-background="new    " cx="658.219" cy="433.625" r="5.125"/>
<circle opacity="0.33" fill="#E15218" enable-background="new    " cx="658.219" cy="414.625" r="5.125"/>
<g>
	<g>
		<line fill="none" stroke="#000000" stroke-width="4" stroke-miterlimit="10" x1="486.5" y1="423.5" x2="625.5" y2="423.5"/>
		<g>
			<polygon points="642,423.629 618.122,433.386 623.788,423.629 618.122,413.874 			"/>
		</g>
	</g>
</g>
<g opacity="0.45">
	<g>
		
			<line fill="none" stroke="#000000" stroke-width="4" stroke-miterlimit="10" x1="736.124" y1="396.766" x2="876.392" y2="296.799"/>
		<g>
			<polygon points="891.571,285.98 876.41,309.965 875.257,297.607 863.954,292.486 			"/>
		</g>
	</g>
</g>
<g opacity="0.45">
	<g>
		<line fill="none" stroke="#000000" stroke-width="2" stroke-miterlimit="10" x1="743.5" y1="423.5" x2="972.5" y2="423.5"/>
		<g>
			<polygon points="983.461,423.629 967.542,430.134 971.319,423.629 967.542,417.126 			"/>
		</g>
	</g>
</g>
<g opacity="0.45">
	<g>
		
			<line fill="none" stroke="#000000" stroke-width="2" stroke-miterlimit="10" x1="733.29" y1="455.477" x2="901.881" y2="569.283"/>
		<g>
			<polygon points="911.244,575.604 894.411,572.088 901.181,568.811 901.688,561.307 			"/>
		</g>
	</g>
</g>
<g>
	<rect x="497" y="465" fill="none" width="135" height="74"/>
	<path d="M546.629,473.302l-0.928,3.058h-2.033l3.458-10.788h2.513l3.505,10.788h-2.113l-0.977-3.058H546.629z M549.719,471.813
		l-0.849-2.657c-0.208-0.656-0.384-1.393-0.544-2.017h-0.032c-0.16,0.624-0.32,1.377-0.512,2.017l-0.832,2.657H549.719z"/>
	<path d="M554.484,464.995h1.984v11.364h-1.984V464.995z"/>
	<path d="M560.693,466.388c0,0.592-0.432,1.056-1.121,1.056c-0.656,0-1.088-0.464-1.088-1.056c0-0.608,0.448-1.073,1.104-1.073
		C560.261,465.314,560.677,465.779,560.693,466.388z M558.597,476.359v-7.795h1.984v7.795H558.597z"/>
	<path d="M568.422,476.119c-0.416,0.192-1.232,0.4-2.209,0.4c-2.433,0-4.018-1.553-4.018-3.97c0-2.337,1.601-4.162,4.338-4.162
		c0.72,0,1.457,0.16,1.905,0.368l-0.352,1.473c-0.32-0.144-0.784-0.304-1.489-0.304c-1.504,0-2.401,1.104-2.385,2.529
		c0,1.601,1.041,2.513,2.385,2.513c0.688,0,1.168-0.145,1.553-0.304L568.422,476.119z"/>
	<path d="M571.125,473.014c0.048,1.409,1.152,2.018,2.401,2.018c0.912,0,1.568-0.129,2.161-0.353l0.288,1.36
		c-0.672,0.272-1.601,0.48-2.721,0.48c-2.529,0-4.018-1.553-4.018-3.938c0-2.161,1.312-4.194,3.81-4.194
		c2.529,0,3.361,2.081,3.361,3.794c0,0.368-0.032,0.656-0.064,0.832H571.125z M574.55,471.638c0.016-0.721-0.304-1.905-1.617-1.905
		c-1.217,0-1.729,1.104-1.809,1.905H574.55z"/>
	<path d="M579.957,465.395c-0.432,1.457-1.12,3.105-1.729,4.098l-1.201,0.112c0.417-1.168,0.833-2.769,1.024-4.065L579.957,465.395z
		"/>
	<path d="M579.957,474.551c0.448,0.271,1.296,0.561,2.001,0.561c0.864,0,1.248-0.353,1.248-0.865c0-0.527-0.32-0.8-1.28-1.136
		c-1.521-0.528-2.161-1.36-2.145-2.273c0-1.376,1.137-2.449,2.945-2.449c0.864,0,1.617,0.225,2.065,0.465l-0.384,1.393
		c-0.336-0.192-0.96-0.448-1.648-0.448c-0.705,0-1.089,0.336-1.089,0.816c0,0.496,0.368,0.736,1.361,1.088
		c1.409,0.513,2.065,1.232,2.081,2.386c0,1.408-1.104,2.433-3.169,2.433c-0.944,0-1.793-0.225-2.369-0.544L579.957,474.551z"/>
	<path d="M533.773,495.56l-2.641-10.788h2.097l1.024,4.897c0.272,1.312,0.528,2.689,0.704,3.762h0.032
		c0.176-1.137,0.48-2.417,0.784-3.777l1.168-4.882h2.065l1.072,4.962c0.272,1.28,0.497,2.48,0.656,3.649h0.032
		c0.192-1.185,0.448-2.417,0.736-3.729l1.121-4.882h2l-2.897,10.788h-2.113l-1.121-5.074c-0.272-1.232-0.464-2.257-0.592-3.425
		h-0.032c-0.192,1.152-0.4,2.192-0.721,3.425l-1.248,5.074H533.773z"/>
	<path d="M547.598,485.588c0,0.592-0.432,1.056-1.121,1.056c-0.656,0-1.088-0.464-1.088-1.056c0-0.608,0.448-1.073,1.104-1.073
		C547.166,484.515,547.582,484.979,547.598,485.588z M545.501,495.56v-7.795h1.984v7.795H545.501z"/>
	<path d="M551.854,485.539v2.226h1.873v1.473h-1.873v3.441c0,0.944,0.256,1.44,1.008,1.44c0.336,0,0.592-0.048,0.768-0.096
		l0.032,1.504c-0.288,0.112-0.8,0.192-1.425,0.192c-0.72,0-1.328-0.24-1.696-0.641c-0.417-0.448-0.608-1.152-0.608-2.177v-3.665
		h-1.121v-1.473h1.121v-1.761L551.854,485.539z"/>
	<path d="M555.213,484.195h1.984v4.642h0.032c0.24-0.368,0.56-0.672,0.977-0.896c0.384-0.224,0.848-0.353,1.344-0.353
		c1.329,0,2.721,0.881,2.721,3.378v4.594h-1.969v-4.37c0-1.136-0.416-1.984-1.504-1.984c-0.769,0-1.313,0.512-1.521,1.104
		c-0.064,0.16-0.08,0.368-0.08,0.592v4.658h-1.984V484.195z"/>
	<path d="M571.551,484.195v9.171c0,0.801,0.032,1.665,0.064,2.193h-1.76l-0.08-1.232h-0.032c-0.464,0.864-1.409,1.408-2.545,1.408
		c-1.857,0-3.33-1.584-3.33-3.985c-0.016-2.609,1.617-4.162,3.49-4.162c1.072,0,1.841,0.448,2.193,1.024h0.032v-4.417H571.551z
		 M569.582,491.014c0-0.16-0.016-0.353-0.048-0.512c-0.176-0.769-0.8-1.393-1.697-1.393c-1.265,0-1.969,1.12-1.969,2.576
		c0,1.425,0.704,2.466,1.953,2.466c0.8,0,1.505-0.545,1.697-1.393c0.048-0.177,0.064-0.368,0.064-0.576V491.014z"/>
	<path d="M573.66,490.277c0-1.057-0.016-1.809-0.064-2.513h1.713l0.064,1.488h0.064c0.384-1.104,1.297-1.665,2.129-1.665
		c0.192,0,0.304,0.017,0.464,0.049v1.856c-0.16-0.032-0.336-0.064-0.576-0.064c-0.944,0-1.585,0.608-1.761,1.489
		c-0.032,0.176-0.064,0.384-0.064,0.608v4.033h-1.969V490.277z"/>
	<path d="M583.598,495.56l-0.128-0.864h-0.048c-0.48,0.608-1.296,1.04-2.305,1.04c-1.569,0-2.449-1.136-2.449-2.32
		c0-1.969,1.745-2.962,4.626-2.945v-0.128c0-0.513-0.208-1.361-1.585-1.361c-0.768,0-1.568,0.24-2.097,0.577l-0.384-1.281
		c0.576-0.352,1.585-0.688,2.817-0.688c2.497,0,3.217,1.585,3.217,3.282v2.816c0,0.704,0.032,1.393,0.112,1.873H583.598z
		 M583.342,491.75c-1.393-0.032-2.721,0.272-2.721,1.457c0,0.768,0.497,1.12,1.121,1.12c0.784,0,1.36-0.513,1.537-1.072
		c0.048-0.145,0.064-0.305,0.064-0.433V491.75z"/>
	<path d="M588.365,487.765l0.816,3.537c0.176,0.832,0.352,1.681,0.496,2.529h0.032c0.16-0.849,0.416-1.713,0.64-2.514l1.008-3.553
		h1.601l0.976,3.457c0.24,0.912,0.448,1.761,0.625,2.609h0.032c0.128-0.849,0.304-1.697,0.512-2.609l0.864-3.457h1.937l-2.449,7.795
		h-1.825l-0.928-3.169c-0.24-0.816-0.416-1.553-0.592-2.497h-0.032c-0.16,0.96-0.368,1.729-0.592,2.497l-0.993,3.169h-1.841
		l-2.305-7.795H588.365z"/>
	<path d="M527.662,511.702l-0.928,3.058H524.7l3.458-10.788h2.513l3.505,10.788h-2.113l-0.977-3.058H527.662z M530.751,510.214
		l-0.849-2.657c-0.208-0.656-0.384-1.393-0.544-2.017h-0.032c-0.16,0.624-0.32,1.377-0.512,2.017l-0.832,2.657H530.751z"/>
	<path d="M542.575,503.396v9.171c0,0.801,0.032,1.665,0.064,2.193h-1.76l-0.08-1.232h-0.032c-0.464,0.864-1.409,1.408-2.545,1.408
		c-1.857,0-3.33-1.584-3.33-3.985c-0.016-2.609,1.617-4.162,3.49-4.162c1.072,0,1.841,0.448,2.193,1.024h0.032v-4.417H542.575z
		 M540.606,510.214c0-0.16-0.016-0.353-0.048-0.512c-0.176-0.769-0.8-1.393-1.697-1.393c-1.265,0-1.969,1.12-1.969,2.576
		c0,1.425,0.704,2.466,1.953,2.466c0.8,0,1.505-0.545,1.697-1.393c0.048-0.177,0.064-0.368,0.064-0.576V510.214z"/>
	<path d="M551.871,503.396v9.171c0,0.801,0.032,1.665,0.064,2.193h-1.76l-0.08-1.232h-0.032c-0.464,0.864-1.409,1.408-2.545,1.408
		c-1.857,0-3.33-1.584-3.33-3.985c-0.016-2.609,1.617-4.162,3.49-4.162c1.072,0,1.841,0.448,2.193,1.024h0.032v-4.417H551.871z
		 M549.902,510.214c0-0.16-0.016-0.353-0.048-0.512c-0.176-0.769-0.8-1.393-1.697-1.393c-1.265,0-1.969,1.12-1.969,2.576
		c0,1.425,0.704,2.466,1.953,2.466c0.8,0,1.505-0.545,1.697-1.393c0.048-0.177,0.064-0.368,0.064-0.576V510.214z"/>
	<path d="M553.98,509.478c0-1.057-0.016-1.809-0.064-2.513h1.713l0.064,1.488h0.064c0.384-1.104,1.297-1.665,2.129-1.665
		c0.192,0,0.304,0.017,0.464,0.049v1.856c-0.16-0.032-0.336-0.064-0.576-0.064c-0.944,0-1.585,0.608-1.761,1.489
		c-0.032,0.176-0.064,0.384-0.064,0.608v4.033h-1.969V509.478z"/>
	<path d="M560.925,511.414c0.048,1.409,1.152,2.018,2.401,2.018c0.912,0,1.568-0.129,2.161-0.353l0.288,1.36
		c-0.672,0.272-1.601,0.48-2.721,0.48c-2.529,0-4.018-1.553-4.018-3.938c0-2.161,1.312-4.194,3.81-4.194
		c2.529,0,3.361,2.081,3.361,3.794c0,0.368-0.032,0.656-0.064,0.832H560.925z M564.351,510.038c0.016-0.721-0.304-1.905-1.617-1.905
		c-1.217,0-1.729,1.104-1.809,1.905H564.351z"/>
	<path d="M567.692,512.951c0.448,0.271,1.296,0.561,2.001,0.561c0.864,0,1.248-0.353,1.248-0.865c0-0.527-0.32-0.8-1.28-1.136
		c-1.521-0.528-2.161-1.36-2.145-2.273c0-1.376,1.137-2.449,2.945-2.449c0.864,0,1.617,0.225,2.065,0.465l-0.384,1.393
		c-0.336-0.192-0.96-0.448-1.648-0.448c-0.705,0-1.089,0.336-1.089,0.816c0,0.496,0.368,0.736,1.361,1.088
		c1.409,0.513,2.065,1.232,2.081,2.386c0,1.408-1.104,2.433-3.169,2.433c-0.944,0-1.793-0.225-2.369-0.544L567.692,512.951z"/>
	<path d="M574.364,512.951c0.448,0.271,1.296,0.561,2.001,0.561c0.864,0,1.248-0.353,1.248-0.865c0-0.527-0.32-0.8-1.28-1.136
		c-1.521-0.528-2.161-1.36-2.145-2.273c0-1.376,1.137-2.449,2.945-2.449c0.864,0,1.617,0.225,2.065,0.465l-0.384,1.393
		c-0.336-0.192-0.96-0.448-1.648-0.448c-0.705,0-1.089,0.336-1.089,0.816c0,0.496,0.368,0.736,1.361,1.088
		c1.409,0.513,2.065,1.232,2.081,2.386c0,1.408-1.104,2.433-3.169,2.433c-0.944,0-1.793-0.225-2.369-0.544L574.364,512.951z"/>
	<path d="M584.445,503.667c-1.024,1.521-1.809,3.634-1.809,6.515c0,2.833,0.8,4.931,1.809,6.467h-1.44
		c-0.913-1.28-1.937-3.361-1.937-6.467c0.016-3.121,1.024-5.218,1.937-6.515H584.445z"/>
	<path d="M587.341,511.414c0.048,1.409,1.152,2.018,2.401,2.018c0.912,0,1.568-0.129,2.161-0.353l0.288,1.36
		c-0.672,0.272-1.601,0.48-2.721,0.48c-2.529,0-4.018-1.553-4.018-3.938c0-2.161,1.312-4.194,3.81-4.194
		c2.529,0,3.361,2.081,3.361,3.794c0,0.368-0.032,0.656-0.064,0.832H587.341z M590.766,510.038c0.016-0.721-0.304-1.905-1.617-1.905
		c-1.217,0-1.729,1.104-1.809,1.905H590.766z"/>
	<path d="M594.108,512.951c0.448,0.271,1.296,0.561,2.001,0.561c0.864,0,1.248-0.353,1.248-0.865c0-0.527-0.32-0.8-1.28-1.136
		c-1.521-0.528-2.161-1.36-2.145-2.273c0-1.376,1.137-2.449,2.945-2.449c0.864,0,1.617,0.225,2.065,0.465l-0.384,1.393
		c-0.336-0.192-0.96-0.448-1.648-0.448c-0.705,0-1.089,0.336-1.089,0.816c0,0.496,0.368,0.736,1.361,1.088
		c1.409,0.513,2.065,1.232,2.081,2.386c0,1.408-1.104,2.433-3.169,2.433c-0.944,0-1.793-0.225-2.369-0.544L594.108,512.951z"/>
	<path d="M600.268,516.648c1.008-1.521,1.792-3.649,1.792-6.498c0-2.85-0.784-4.946-1.792-6.483h1.424
		c0.929,1.281,1.953,3.361,1.953,6.499c-0.016,3.121-1.024,5.186-1.953,6.482H600.268z"/>
	<path d="M506.806,523.172h1.329l-1.008,5.25l0.08-0.017c0.368-0.447,0.736-0.832,1.056-1.2l3.793-4.033h1.665l-4.546,4.642
		l2.785,6.146h-1.457l-2.353-5.298l-1.296,1.2l-0.785,4.098h-1.312L506.806,523.172z"/>
	<path d="M513.093,533.96l1.041-5.49c0.176-0.864,0.272-1.616,0.368-2.257h1.184l-0.192,1.521h0.032
		c0.688-1.089,1.729-1.696,2.865-1.696c0.929,0,1.969,0.528,1.969,2.16c0,0.337-0.064,0.833-0.144,1.249l-0.865,4.514h-1.329
		l0.849-4.466c0.064-0.304,0.112-0.672,0.112-0.992c0-0.784-0.304-1.36-1.216-1.36c-0.944,0-2.289,1.136-2.641,3.057l-0.704,3.762
		H513.093z"/>
	<path d="M529.063,529.271c0,2.385-1.696,4.865-4.29,4.865c-1.937,0-3.025-1.44-3.025-3.185c0-2.546,1.777-4.914,4.29-4.914
		C528.135,526.037,529.063,527.621,529.063,529.271z M523.125,530.902c0,1.265,0.688,2.178,1.825,2.178
		c1.568,0,2.753-2.018,2.753-3.826c0-0.896-0.416-2.161-1.809-2.161C524.229,527.093,523.109,529.126,523.125,530.902z"/>
	<path d="M531.718,526.213l0.272,4.354c0.064,0.961,0.048,1.457,0.032,2.081h0.048c0.176-0.496,0.464-1.169,0.848-1.937l2.305-4.498
		h1.152l0.48,4.418c0.08,0.848,0.145,1.504,0.128,2.017h0.032c0.208-0.624,0.432-1.217,0.736-1.953l2.097-4.481h1.344l-3.825,7.747
		h-1.233l-0.512-4.21c-0.08-0.72-0.112-1.376-0.112-2.049h-0.032c-0.32,0.736-0.544,1.329-0.896,2.017l-2.225,4.242h-1.232
		l-0.72-7.747H531.718z"/>
	<path d="M541.188,533.96l1.041-5.49c0.176-0.864,0.272-1.616,0.368-2.257h1.184l-0.192,1.521h0.032
		c0.688-1.089,1.729-1.696,2.865-1.696c0.929,0,1.969,0.528,1.969,2.16c0,0.337-0.064,0.833-0.144,1.249l-0.865,4.514h-1.329
		l0.849-4.466c0.064-0.304,0.112-0.672,0.112-0.992c0-0.784-0.304-1.36-1.216-1.36c-0.944,0-2.289,1.136-2.641,3.057l-0.704,3.762
		H541.188z"/>
	<path d="M556.118,524.132l-0.4,2.081h1.856l-0.208,1.04h-1.856l-0.72,3.762c-0.08,0.433-0.144,0.832-0.144,1.249
		c0,0.464,0.224,0.736,0.736,0.736c0.224,0,0.448-0.017,0.625-0.049l-0.064,1.041c-0.24,0.096-0.64,0.144-1.024,0.144
		c-1.185,0-1.633-0.72-1.633-1.504c0-0.448,0.048-0.896,0.16-1.457l0.768-3.922h-1.12l0.208-1.04h1.104l0.336-1.745L556.118,524.132
		z"/>
	<path d="M565.015,529.271c0,2.385-1.696,4.865-4.29,4.865c-1.937,0-3.025-1.44-3.025-3.185c0-2.546,1.777-4.914,4.29-4.914
		C564.086,526.037,565.015,527.621,565.015,529.271z M559.077,530.902c0,1.265,0.688,2.178,1.825,2.178
		c1.568,0,2.753-2.018,2.753-3.826c0-0.896-0.416-2.161-1.809-2.161C560.181,527.093,559.061,529.126,559.077,530.902z"/>
	<path d="M569.076,532.295c0.576,0.4,1.393,0.688,2.289,0.688c1.216,0,2.337-0.72,2.337-2.032c0-0.801-0.464-1.393-1.585-2.018
		c-1.376-0.736-2.145-1.601-2.145-2.769c0-1.921,1.665-3.17,3.649-3.17c1.04,0,1.825,0.32,2.208,0.576l-0.48,1.073
		c-0.336-0.192-1.008-0.513-1.873-0.496c-1.329,0-2.129,0.88-2.129,1.761c0,0.88,0.544,1.376,1.665,2
		c1.329,0.705,2.065,1.553,2.065,2.882c0,1.872-1.473,3.329-3.89,3.329c-1.088,0-2.145-0.353-2.593-0.736L569.076,532.295z"/>
	<path d="M582.054,533.512c-0.577,0.336-1.521,0.608-2.561,0.608c-2.049,0-2.945-1.393-2.945-3.105c0-2.337,1.729-4.978,4.226-4.978
		c1.473,0,2.273,0.88,2.273,1.984c0,2.033-2.289,2.577-5.154,2.529c-0.064,0.336-0.016,1.057,0.16,1.473
		c0.304,0.688,0.929,1.04,1.729,1.04c0.912,0,1.601-0.288,2.081-0.544L582.054,533.512z M580.582,527.077
		c-1.265,0-2.209,1.232-2.529,2.449c2.081,0.016,3.713-0.256,3.713-1.457C581.766,527.43,581.286,527.077,580.582,527.077z"/>
	<path d="M583.716,533.96l0.944-4.994c0.192-1.008,0.32-2.032,0.4-2.753h1.168c-0.064,0.544-0.128,1.088-0.208,1.681h0.048
		c0.496-1.057,1.329-1.856,2.369-1.856c0.112,0,0.272,0.016,0.368,0.031l-0.256,1.312c-0.08-0.016-0.208-0.031-0.352-0.031
		c-1.153,0-2.177,1.393-2.513,3.201l-0.64,3.409H583.716z"/>
	<path d="M590.852,526.213l0.672,4.418c0.112,0.88,0.208,1.473,0.24,1.904h0.048c0.16-0.416,0.368-0.928,0.816-1.809l2.369-4.514
		h1.457l-4.306,7.747h-1.313l-1.344-7.747H590.852z"/>
	<path d="M596.403,533.96l1.489-7.747h1.328l-1.488,7.747H596.403z M598.132,524.052c0-0.512,0.4-0.896,0.88-0.896
		c0.48,0,0.785,0.353,0.785,0.833c-0.016,0.528-0.384,0.896-0.896,0.896C598.436,524.885,598.132,524.532,598.132,524.052z"/>
	<path d="M605.397,533.656c-0.4,0.191-1.201,0.464-2.241,0.464c-2.001,0-2.978-1.345-2.978-2.993c0-2.642,1.953-5.074,4.738-5.074
		c0.72,0,1.376,0.208,1.616,0.336l-0.384,1.057c-0.304-0.145-0.736-0.288-1.312-0.288c-2.017,0-3.281,1.984-3.281,3.81
		c0,1.248,0.656,2.064,1.92,2.064c0.785,0,1.393-0.24,1.793-0.432L605.397,533.656z"/>
	<path d="M612.277,533.512c-0.577,0.336-1.521,0.608-2.561,0.608c-2.049,0-2.945-1.393-2.945-3.105c0-2.337,1.729-4.978,4.226-4.978
		c1.473,0,2.273,0.88,2.273,1.984c0,2.033-2.289,2.577-5.154,2.529c-0.064,0.336-0.016,1.057,0.16,1.473
		c0.304,0.688,0.929,1.04,1.729,1.04c0.912,0,1.601-0.288,2.081-0.544L612.277,533.512z M610.804,527.077
		c-1.265,0-2.209,1.232-2.529,2.449c2.081,0.016,3.713-0.256,3.713-1.457C611.988,527.43,611.508,527.077,610.804,527.077z"/>
	<path d="M622.453,533.96l-1.024-2.673c-0.288-0.721-0.512-1.329-0.688-1.889h-0.032c-0.336,0.512-0.72,1.104-1.265,1.856
		l-1.937,2.705h-1.584l4.209-5.49l-2.033-5.298h1.409l1.024,2.769c0.224,0.641,0.4,1.137,0.544,1.633h0.032
		c0.352-0.528,0.72-1.088,1.104-1.633l2.064-2.769h1.585l-4.162,5.282l2.161,5.506H622.453z"/>
</g>
<g opacity="0.45">
	<rect x="984.461" y="411" fill="none" width="135" height="74"/>
	<path d="M1006.532,411.898c0.78-0.16,2.2-0.281,3.581-0.281c1.82,0,2.94,0.221,3.86,0.861c0.841,0.5,1.4,1.379,1.4,2.52
		c0,1.24-0.78,2.381-2.241,2.922v0.039c1.421,0.359,2.721,1.48,2.721,3.342c0,1.199-0.52,2.139-1.3,2.779
		c-0.96,0.84-2.54,1.26-5.001,1.26c-1.36,0-2.4-0.1-3.021-0.18V411.898z M1008.973,417.219h1.26c1.701,0,2.661-0.801,2.661-1.939
		c0-1.262-0.96-1.842-2.521-1.842c-0.721,0-1.141,0.041-1.4,0.102V417.219z M1008.973,423.42c0.32,0.041,0.74,0.061,1.301,0.061
		c1.58,0,2.98-0.6,2.98-2.26c0-1.561-1.361-2.201-3.061-2.201h-1.221V423.42z"/>
	<path d="M1017.952,410.998h2.48v14.203h-2.48V410.998z"/>
	<path d="M1028.572,425.201l-0.159-1.08h-0.06c-0.601,0.76-1.621,1.299-2.881,1.299c-1.961,0-3.061-1.42-3.061-2.9
		c0-2.459,2.18-3.701,5.781-3.68v-0.16c0-0.641-0.261-1.701-1.98-1.701c-0.961,0-1.961,0.301-2.621,0.721l-0.48-1.6
		c0.721-0.441,1.98-0.861,3.521-0.861c3.121,0,4.021,1.98,4.021,4.102v3.52c0,0.881,0.04,1.74,0.14,2.342H1028.572z
		 M1028.253,420.439c-1.74-0.039-3.401,0.34-3.401,1.82c0,0.961,0.621,1.4,1.4,1.4c0.98,0,1.701-0.641,1.921-1.34
		c0.06-0.18,0.08-0.381,0.08-0.541V420.439z"/>
	<path d="M1040.414,424.9c-0.521,0.24-1.541,0.5-2.762,0.5c-3.04,0-5.021-1.939-5.021-4.961c0-2.92,2.001-5.201,5.421-5.201
		c0.9,0,1.82,0.201,2.381,0.461l-0.44,1.84c-0.399-0.18-0.979-0.381-1.86-0.381c-1.881,0-3,1.381-2.98,3.162
		c0,2,1.301,3.141,2.98,3.141c0.86,0,1.461-0.182,1.94-0.381L1040.414,424.9z"/>
	<path d="M1044.692,419.74h0.04c0.24-0.381,0.52-0.801,0.78-1.141l2.36-3.141h2.961l-3.602,3.98l4.121,5.762h-3.021l-2.8-4.301
		l-0.841,0.98v3.32h-2.46v-14.203h2.46V419.74z"/>
	<path d="M1052.691,410.998h2.48v14.203h-2.48V410.998z"/>
	<path d="M1060.451,412.738c0,0.74-0.539,1.32-1.4,1.32c-0.82,0-1.359-0.58-1.359-1.32c0-0.76,0.56-1.34,1.38-1.34
		C1059.912,411.398,1060.432,411.979,1060.451,412.738z M1057.831,425.201v-9.742h2.48v9.742H1057.831z"/>
	<path d="M1062.831,422.939c0.56,0.34,1.62,0.701,2.501,0.701c1.08,0,1.561-0.439,1.561-1.08c0-0.66-0.4-1-1.602-1.42
		c-1.9-0.66-2.7-1.701-2.68-2.842c0-1.721,1.42-3.061,3.681-3.061c1.08,0,2.021,0.281,2.581,0.58l-0.48,1.74
		c-0.42-0.24-1.201-0.561-2.061-0.561c-0.881,0-1.36,0.422-1.36,1.021c0,0.619,0.46,0.92,1.7,1.359
		c1.76,0.641,2.58,1.541,2.601,2.98c0,1.762-1.38,3.041-3.961,3.041c-1.181,0-2.24-0.279-2.96-0.68L1062.831,422.939z"/>
	<path d="M1074.111,412.678v2.781h2.341v1.84h-2.341v4.301c0,1.18,0.32,1.801,1.261,1.801c0.42,0,0.739-0.061,0.96-0.121l0.04,1.881
		c-0.36,0.141-1,0.24-1.78,0.24c-0.9,0-1.66-0.299-2.121-0.801c-0.52-0.559-0.76-1.439-0.76-2.719v-4.582h-1.4v-1.84h1.4v-2.201
		L1074.111,412.678z"/>
	<path d="M1079.932,421.02c0.061,1.76,1.44,2.521,3.001,2.521c1.14,0,1.96-0.16,2.7-0.441l0.36,1.701
		c-0.841,0.34-2.001,0.6-3.401,0.6c-3.16,0-5.021-1.939-5.021-4.92c0-2.701,1.64-5.242,4.761-5.242c3.161,0,4.201,2.602,4.201,4.742
		c0,0.459-0.04,0.818-0.08,1.039H1079.932z M1084.213,419.299c0.02-0.9-0.381-2.381-2.021-2.381c-1.521,0-2.161,1.381-2.261,2.381
		H1084.213z"/>
	<path d="M1097.492,410.998v11.463c0,1,0.041,2.08,0.08,2.74h-2.2l-0.101-1.541h-0.039c-0.58,1.08-1.761,1.76-3.182,1.76
		c-2.32,0-4.16-1.98-4.16-4.98c-0.02-3.26,2.021-5.201,4.361-5.201c1.34,0,2.3,0.561,2.74,1.281h0.04v-5.521H1097.492z
		 M1095.032,419.52c0-0.199-0.021-0.439-0.06-0.641c-0.221-0.959-1.001-1.74-2.121-1.74c-1.58,0-2.461,1.4-2.461,3.221
		c0,1.781,0.881,3.08,2.441,3.08c1,0,1.88-0.68,2.12-1.74c0.06-0.219,0.08-0.459,0.08-0.719V419.52z"/>
	<path d="M1021.932,446.52c0.801,0.461,2,0.861,3.261,0.861c1.58,0,2.46-0.74,2.46-1.842c0-1.02-0.68-1.619-2.4-2.24
		c-2.221-0.799-3.641-1.98-3.641-3.92c0-2.201,1.841-3.881,4.762-3.881c1.46,0,2.54,0.32,3.24,0.68l-0.6,1.98
		c-0.48-0.26-1.421-0.641-2.682-0.641c-1.561,0-2.24,0.84-2.24,1.621c0,1.041,0.78,1.52,2.58,2.221c2.342,0.879,3.481,2.061,3.481,4
		c0,2.16-1.64,4.041-5.121,4.041c-1.421,0-2.9-0.4-3.641-0.84L1021.932,446.52z"/>
	<path d="M1034.132,445.02c0.06,1.76,1.44,2.521,3.001,2.521c1.141,0,1.96-0.16,2.7-0.441l0.36,1.701c-0.84,0.34-2,0.6-3.4,0.6
		c-3.161,0-5.021-1.939-5.021-4.92c0-2.701,1.641-5.242,4.761-5.242c3.161,0,4.201,2.602,4.201,4.742c0,0.459-0.04,0.818-0.08,1.039
		H1034.132z M1038.413,443.299c0.02-0.9-0.38-2.381-2.021-2.381c-1.521,0-2.16,1.381-2.261,2.381H1038.413z"/>
	<path d="M1042.711,442.6c0-1.32-0.02-2.262-0.08-3.141h2.141l0.08,1.859h0.08c0.48-1.379,1.621-2.08,2.66-2.08
		c0.24,0,0.381,0.02,0.58,0.061v2.32c-0.199-0.041-0.42-0.08-0.719-0.08c-1.182,0-1.98,0.76-2.201,1.861
		c-0.04,0.219-0.08,0.479-0.08,0.76v5.041h-2.461V442.6z"/>
	<path d="M1051.831,439.459l1.58,4.941c0.28,0.859,0.479,1.639,0.66,2.439h0.06c0.181-0.801,0.4-1.561,0.66-2.439l1.541-4.941h2.6
		l-3.721,9.742h-2.42l-3.621-9.742H1051.831z"/>
	<path d="M1063.051,436.738c0,0.74-0.539,1.32-1.4,1.32c-0.82,0-1.359-0.58-1.359-1.32c0-0.76,0.56-1.34,1.38-1.34
		C1062.512,435.398,1063.031,435.979,1063.051,436.738z M1060.431,449.201v-9.742h2.48v9.742H1060.431z"/>
	<path d="M1072.713,448.9c-0.521,0.24-1.541,0.5-2.762,0.5c-3.04,0-5.021-1.939-5.021-4.961c0-2.92,2.001-5.201,5.421-5.201
		c0.9,0,1.82,0.201,2.381,0.461l-0.44,1.84c-0.399-0.18-0.979-0.381-1.86-0.381c-1.881,0-3,1.381-2.98,3.162
		c0,2,1.301,3.141,2.98,3.141c0.86,0,1.461-0.182,1.94-0.381L1072.713,448.9z"/>
	<path d="M1076.092,445.02c0.06,1.76,1.439,2.521,3,2.521c1.141,0,1.961-0.16,2.701-0.441l0.359,1.701c-0.84,0.34-2,0.6-3.4,0.6
		c-3.16,0-5.021-1.939-5.021-4.92c0-2.701,1.641-5.242,4.762-5.242c3.16,0,4.201,2.602,4.201,4.742c0,0.459-0.041,0.818-0.08,1.039
		H1076.092z M1080.373,443.299c0.02-0.9-0.381-2.381-2.021-2.381c-1.52,0-2.16,1.381-2.26,2.381H1080.373z"/>
</g>
<circle opacity="0.45" fill="none" stroke="#000000" stroke-width="1.6498" stroke-miterlimit="10" cx="964.22" cy="612.961" r="64.961"/>
<g opacity="0.45">
	<rect x="896.72" y="598" fill="none" width="135" height="74"/>
	<path d="M929.814,598.645v7.076c0,2.377,0.99,3.475,2.484,3.475c1.603,0,2.557-1.098,2.557-3.475v-7.076h2.215v6.934
		c0,3.744-1.926,5.4-4.844,5.4c-2.809,0-4.627-1.566-4.627-5.383v-6.951H929.814z"/>
	<path d="M939.516,604.623c0-1.008-0.018-1.855-0.072-2.611h1.945l0.107,1.314h0.055c0.377-0.684,1.332-1.512,2.79-1.512
		c1.53,0,3.115,0.99,3.115,3.764v5.203h-2.215v-4.951c0-1.262-0.468-2.215-1.675-2.215c-0.882,0-1.494,0.629-1.729,1.295
		c-0.072,0.199-0.09,0.469-0.09,0.721v5.15h-2.232V604.623z"/>
	<path d="M952.025,605.865h0.037c0.216-0.342,0.468-0.721,0.701-1.025l2.125-2.828h2.665l-3.241,3.584l3.709,5.186h-2.719
		l-2.521-3.871l-0.757,0.881v2.99h-2.214v-12.785h2.214V605.865z"/>
	<path d="M959.207,604.623c0-1.008-0.018-1.855-0.072-2.611h1.945l0.107,1.314h0.055c0.377-0.684,1.332-1.512,2.79-1.512
		c1.53,0,3.115,0.99,3.115,3.764v5.203h-2.215v-4.951c0-1.262-0.468-2.215-1.675-2.215c-0.882,0-1.494,0.629-1.729,1.295
		c-0.072,0.199-0.09,0.469-0.09,0.721v5.15h-2.232V604.623z"/>
	<path d="M977.84,606.314c0,3.225-2.27,4.664-4.502,4.664c-2.484,0-4.393-1.711-4.393-4.52c0-2.881,1.89-4.645,4.537-4.645
		C976.093,601.814,977.84,603.65,977.84,606.314z M971.231,606.406c0,1.691,0.828,2.971,2.179,2.971c1.26,0,2.143-1.242,2.143-3.008
		c0-1.367-0.612-2.936-2.125-2.936C971.861,603.434,971.231,604.947,971.231,606.406z"/>
	<path d="M980.843,602.012l0.919,3.98c0.197,0.936,0.396,1.891,0.558,2.844h0.036c0.18-0.953,0.469-1.926,0.721-2.826l1.134-3.998
		h1.801l1.099,3.889c0.27,1.027,0.504,1.982,0.701,2.936h0.037c0.144-0.953,0.342-1.908,0.576-2.936l0.972-3.889h2.179l-2.755,8.77
		h-2.053l-1.044-3.566c-0.271-0.918-0.469-1.746-0.666-2.809h-0.036c-0.181,1.08-0.415,1.945-0.667,2.809l-1.115,3.566h-2.071
		l-2.593-8.77H980.843z"/>
	<path d="M992.992,604.623c0-1.008-0.018-1.855-0.072-2.611h1.945l0.107,1.314h0.055c0.378-0.684,1.332-1.512,2.791-1.512
		c1.53,0,3.115,0.99,3.115,3.764v5.203h-2.215v-4.951c0-1.262-0.469-2.215-1.675-2.215c-0.882,0-1.495,0.629-1.729,1.295
		c-0.072,0.199-0.091,0.469-0.091,0.721v5.15h-2.232V604.623z"/>
	<path d="M913.714,632.381l-2.972-12.137h2.359l1.152,5.51c0.307,1.477,0.594,3.025,0.792,4.232h0.036
		c0.198-1.279,0.54-2.719,0.883-4.25l1.314-5.492h2.322l1.206,5.582c0.306,1.441,0.558,2.791,0.738,4.105h0.036
		c0.216-1.332,0.504-2.719,0.828-4.195l1.26-5.492h2.252l-3.26,12.137h-2.377l-1.26-5.709c-0.307-1.385-0.522-2.537-0.666-3.852
		h-0.036c-0.216,1.295-0.45,2.467-0.811,3.852l-1.404,5.709H913.714z"/>
	<path d="M931.552,632.381l-0.144-0.973h-0.055c-0.539,0.684-1.458,1.17-2.592,1.17c-1.766,0-2.756-1.277-2.756-2.611
		c0-2.213,1.963-3.33,5.204-3.312v-0.145c0-0.576-0.234-1.529-1.782-1.529c-0.865,0-1.765,0.27-2.359,0.648l-0.432-1.441
		c0.648-0.396,1.782-0.773,3.169-0.773c2.809,0,3.619,1.781,3.619,3.691v3.168c0,0.793,0.036,1.566,0.126,2.107H931.552z
		 M931.264,628.096c-1.566-0.037-3.061,0.305-3.061,1.639c0,0.863,0.559,1.26,1.26,1.26c0.883,0,1.531-0.576,1.729-1.207
		c0.055-0.162,0.072-0.342,0.072-0.486V628.096z"/>
	<path d="M935.763,619.596h2.232v12.785h-2.232V619.596z"/>
	<path d="M940.389,619.596h2.232v12.785h-2.232V619.596z"/>
	<path d="M946.581,628.617c0.054,1.584,1.296,2.27,2.7,2.27c1.027,0,1.766-0.145,2.432-0.396l0.324,1.529
		c-0.757,0.307-1.801,0.541-3.062,0.541c-2.845,0-4.519-1.746-4.519-4.43c0-2.43,1.476-4.717,4.285-4.717
		c2.844,0,3.781,2.34,3.781,4.268c0,0.414-0.037,0.738-0.072,0.936H946.581z M950.434,627.068c0.019-0.811-0.342-2.143-1.818-2.143
		c-1.368,0-1.944,1.242-2.034,2.143H950.434z"/>
	<path d="M956.841,621.109v2.502h2.106v1.656h-2.106v3.871c0,1.062,0.288,1.621,1.134,1.621c0.379,0,0.667-0.055,0.865-0.107
		l0.035,1.691c-0.324,0.127-0.9,0.217-1.602,0.217c-0.811,0-1.495-0.27-1.909-0.721c-0.468-0.504-0.685-1.297-0.685-2.449v-4.123
		h-1.26v-1.656h1.26v-1.98L956.841,621.109z"/>
	<path d="M973.133,632.02c-0.523,0.271-1.676,0.541-3.134,0.541c-3.853,0-6.193-2.412-6.193-6.104c0-3.998,2.772-6.41,6.481-6.41
		c1.459,0,2.503,0.307,2.953,0.539l-0.486,1.766c-0.576-0.252-1.368-0.469-2.377-0.469c-2.467,0-4.249,1.549-4.249,4.465
		c0,2.666,1.566,4.377,4.231,4.377c0.9,0,1.836-0.182,2.412-0.451L973.133,632.02z"/>
	<path d="M974.876,619.596h2.232v12.785h-2.232V619.596z"/>
	<path d="M987.352,629.752c0,1.043,0.037,1.908,0.072,2.629h-1.944l-0.108-1.332h-0.035c-0.379,0.629-1.242,1.529-2.809,1.529
		c-1.604,0-3.062-0.953-3.062-3.816v-5.15h2.215v4.771c0,1.459,0.468,2.395,1.638,2.395c0.883,0,1.459-0.629,1.693-1.188
		c0.072-0.199,0.126-0.432,0.126-0.684v-5.295h2.214V629.752z"/>
	<path d="M989.636,630.346c0.504,0.307,1.458,0.631,2.251,0.631c0.972,0,1.404-0.396,1.404-0.973c0-0.594-0.36-0.9-1.441-1.279
		c-1.71-0.594-2.43-1.529-2.412-2.557c0-1.549,1.278-2.754,3.312-2.754c0.973,0,1.818,0.252,2.323,0.521l-0.433,1.566
		c-0.378-0.215-1.08-0.504-1.854-0.504c-0.793,0-1.225,0.379-1.225,0.918c0,0.559,0.414,0.828,1.53,1.225
		c1.584,0.576,2.322,1.387,2.341,2.684c0,1.584-1.242,2.736-3.565,2.736c-1.062,0-2.017-0.252-2.665-0.613L989.636,630.346z"/>
	<path d="M999.788,621.109v2.502h2.106v1.656h-2.106v3.871c0,1.062,0.288,1.621,1.134,1.621c0.379,0,0.667-0.055,0.865-0.107
		l0.035,1.691c-0.324,0.127-0.9,0.217-1.602,0.217c-0.811,0-1.495-0.27-1.909-0.721c-0.468-0.504-0.685-1.297-0.685-2.449v-4.123
		h-1.26v-1.656h1.26v-1.98L999.788,621.109z"/>
	<path d="M1005.025,628.617c0.055,1.584,1.297,2.27,2.701,2.27c1.026,0,1.765-0.145,2.431-0.396l0.324,1.529
		c-0.757,0.307-1.801,0.541-3.062,0.541c-2.844,0-4.519-1.746-4.519-4.43c0-2.43,1.476-4.717,4.285-4.717
		c2.845,0,3.781,2.34,3.781,4.268c0,0.414-0.036,0.738-0.072,0.936H1005.025z M1008.879,627.068
		c0.018-0.811-0.342-2.143-1.818-2.143c-1.369,0-1.945,1.242-2.035,2.143H1008.879z"/>
	<path d="M1012.747,626.439c0-1.189-0.019-2.035-0.072-2.828h1.927l0.072,1.676h0.072c0.432-1.244,1.458-1.873,2.395-1.873
		c0.216,0,0.342,0.018,0.521,0.053v2.09c-0.18-0.037-0.378-0.072-0.648-0.072c-1.062,0-1.782,0.684-1.98,1.674
		c-0.035,0.199-0.072,0.434-0.072,0.686v4.537h-2.214V626.439z"/>
</g>
<g>
	<g>
		<path fill="none" stroke="#000000" stroke-miterlimit="10" d="M654.696,444.57c-9.315,18.018-30.425,37.362-47.696,39.93"/>
		<g>
			<path d="M656.5,440.75c-1.526,1.472-3.729,3.149-5.592,3.95l3.522,0.357l2.478,2.526
				C656.369,445.629,656.303,442.861,656.5,440.75z"/>
		</g>
	</g>
</g>
<g>
	<g>
		<path fill="#2D4E6E" d="M369.339,387.92c11.33,0,19.018,11.004,19.018,11.004s-7.446,11.006-18.775,11.006
			c-11.329,0-19.017-11.15-19.017-11.15S358.01,387.92,369.339,387.92 M369.339,385.634c-12.391,0-20.327,11.369-20.659,11.853
			l-0.889,1.297l0.892,1.294c0.342,0.495,8.512,12.139,20.899,12.139c12.4,0,20.337-11.521,20.668-12.011l0.881-1.302l-0.9-1.289
			C389.889,397.125,381.718,385.634,369.339,385.634L369.339,385.634z"/>
	</g>
	<circle fill="#FFFFFF" stroke="#2D4E6E" stroke-width="1.1431" stroke-miterlimit="10" cx="369.672" cy="398.924" r="8.506"/>
	<circle fill="none" stroke="#2D4E6E" stroke-width="1.7147" stroke-miterlimit="10" cx="369.761" cy="398.939" r="5.528"/>
</g>
<g enable-background="new    ">
	<rect x="302" y="423" fill="none" width="135" height="74"/>
	<path fill="#2D4E6E" d="M331.461,434.52c0.8,0.46,2,0.86,3.261,0.86c1.58,0,2.46-0.74,2.46-1.841c0-1.02-0.68-1.62-2.4-2.24
		c-2.221-0.8-3.641-1.98-3.641-3.921c0-2.2,1.841-3.881,4.761-3.881c1.46,0,2.541,0.32,3.241,0.681l-0.6,1.98
		c-0.48-0.261-1.42-0.641-2.681-0.641c-1.561,0-2.241,0.84-2.241,1.62c0,1.041,0.78,1.521,2.581,2.221
		c2.341,0.88,3.481,2.061,3.481,4.001c0,2.16-1.64,4.041-5.121,4.041c-1.42,0-2.9-0.4-3.641-0.84L331.461,434.52z"/>
	<path fill="#2D4E6E" d="M343.661,433.02c0.06,1.76,1.44,2.521,3.001,2.521c1.14,0,1.96-0.16,2.7-0.44l0.36,1.7
		c-0.84,0.341-2,0.601-3.401,0.601c-3.161,0-5.021-1.94-5.021-4.921c0-2.701,1.64-5.241,4.761-5.241
		c3.161,0,4.201,2.601,4.201,4.741c0,0.46-0.04,0.819-0.08,1.04H343.661z M347.942,431.299c0.02-0.9-0.38-2.381-2.021-2.381
		c-1.521,0-2.161,1.381-2.261,2.381H347.942z"/>
	<path fill="#2D4E6E" d="M352.241,430.599c0-1.32-0.02-2.261-0.08-3.141h2.141l0.08,1.86h0.08c0.48-1.38,1.621-2.08,2.661-2.08
		c0.24,0,0.38,0.02,0.58,0.06v2.32c-0.2-0.04-0.42-0.08-0.72-0.08c-1.181,0-1.98,0.761-2.201,1.861c-0.04,0.22-0.08,0.479-0.08,0.76
		v5.041h-2.46V430.599z"/>
	<path fill="#2D4E6E" d="M361.36,427.458l1.58,4.941c0.28,0.86,0.48,1.64,0.66,2.44h0.06c0.18-0.801,0.4-1.561,0.66-2.44l1.54-4.941
		h2.601l-3.721,9.742h-2.42l-3.621-9.742H361.36z"/>
	<path fill="#2D4E6E" d="M372.581,424.737c0,0.74-0.54,1.32-1.4,1.32c-0.82,0-1.36-0.58-1.36-1.32c0-0.76,0.56-1.34,1.38-1.34
		C372.041,423.397,372.561,423.978,372.581,424.737z M369.96,437.2v-9.742h2.48v9.742H369.96z"/>
	<path fill="#2D4E6E" d="M382.242,436.9c-0.52,0.24-1.541,0.5-2.761,0.5c-3.041,0-5.021-1.94-5.021-4.961
		c0-2.921,2-5.201,5.421-5.201c0.9,0,1.821,0.2,2.381,0.46l-0.44,1.84c-0.4-0.18-0.98-0.38-1.86-0.38c-1.88,0-3,1.381-2.98,3.161
		c0,2,1.3,3.141,2.98,3.141c0.86,0,1.46-0.181,1.94-0.38L382.242,436.9z"/>
	<path fill="#2D4E6E" d="M385.621,433.02c0.06,1.76,1.44,2.521,3.001,2.521c1.14,0,1.96-0.16,2.7-0.44l0.36,1.7
		c-0.84,0.341-2,0.601-3.401,0.601c-3.161,0-5.021-1.94-5.021-4.921c0-2.701,1.64-5.241,4.761-5.241
		c3.161,0,4.201,2.601,4.201,4.741c0,0.46-0.04,0.819-0.08,1.04H385.621z M389.902,431.299c0.02-0.9-0.38-2.381-2.021-2.381
		c-1.521,0-2.161,1.381-2.261,2.381H389.902z"/>
	<path fill="#2D4E6E" d="M405.661,437.2l-1.46-2.681c-0.58-1.04-0.96-1.761-1.34-2.54h-0.06c-0.32,0.779-0.68,1.5-1.22,2.54
		l-1.34,2.681h-2.821l4.001-6.821l-3.841-6.661h2.821l1.46,2.78c0.44,0.84,0.76,1.5,1.121,2.261h0.04
		c0.36-0.841,0.64-1.44,1.06-2.261l1.44-2.78h2.82l-3.941,6.581l4.101,6.901H405.661z"/>
</g>
<g opacity="0.45">
	<g>
		<path d="M928.801,242.52c0.801,0.46,2,0.86,3.261,0.86c1.58,0,2.46-0.74,2.46-1.841c0-1.02-0.68-1.62-2.4-2.24
			c-2.221-0.8-3.641-1.98-3.641-3.921c0-2.2,1.841-3.881,4.762-3.881c1.46,0,2.54,0.32,3.24,0.681l-0.6,1.98
			c-0.48-0.261-1.421-0.641-2.682-0.641c-1.561,0-2.24,0.84-2.24,1.62c0,1.041,0.78,1.521,2.58,2.221
			c2.342,0.88,3.481,2.061,3.481,4.001c0,2.16-1.64,4.041-5.121,4.041c-1.421,0-2.9-0.4-3.641-0.84L928.801,242.52z"/>
		<path d="M941.001,241.02c0.06,1.76,1.44,2.521,3.001,2.521c1.141,0,1.96-0.16,2.7-0.44l0.36,1.7c-0.84,0.341-2,0.601-3.4,0.601
			c-3.161,0-5.021-1.94-5.021-4.921c0-2.701,1.641-5.241,4.761-5.241c3.161,0,4.201,2.601,4.201,4.741c0,0.46-0.04,0.819-0.08,1.04
			H941.001z M945.282,239.299c0.02-0.9-0.38-2.381-2.021-2.381c-1.521,0-2.16,1.381-2.261,2.381H945.282z"/>
		<path d="M949.58,238.599c0-1.32-0.02-2.261-0.08-3.141h2.141l0.08,1.86h0.08c0.48-1.38,1.621-2.08,2.66-2.08
			c0.24,0,0.381,0.02,0.58,0.06v2.32c-0.199-0.04-0.42-0.08-0.719-0.08c-1.182,0-1.98,0.761-2.201,1.861
			c-0.04,0.22-0.08,0.479-0.08,0.76v5.041h-2.461V238.599z"/>
		<path d="M958.7,235.458l1.58,4.941c0.28,0.86,0.479,1.64,0.66,2.44H961c0.181-0.801,0.4-1.561,0.66-2.44l1.541-4.941h2.6
			l-3.721,9.742h-2.42l-3.621-9.742H958.7z"/>
		<path d="M969.92,232.737c0,0.74-0.539,1.32-1.4,1.32c-0.82,0-1.359-0.58-1.359-1.32c0-0.76,0.56-1.34,1.38-1.34
			C969.381,231.397,969.9,231.978,969.92,232.737z M967.3,245.2v-9.742h2.48v9.742H967.3z"/>
		<path d="M979.582,244.9c-0.521,0.24-1.541,0.5-2.762,0.5c-3.04,0-5.021-1.94-5.021-4.961c0-2.921,2.001-5.201,5.421-5.201
			c0.9,0,1.82,0.2,2.381,0.46l-0.44,1.84c-0.399-0.18-0.979-0.38-1.86-0.38c-1.881,0-3,1.381-2.98,3.161c0,2,1.301,3.141,2.98,3.141
			c0.86,0,1.461-0.181,1.94-0.38L979.582,244.9z"/>
		<path d="M982.961,241.02c0.06,1.76,1.439,2.521,3,2.521c1.141,0,1.961-0.16,2.701-0.44l0.359,1.7c-0.84,0.341-2,0.601-3.4,0.601
			c-3.16,0-5.021-1.94-5.021-4.921c0-2.701,1.641-5.241,4.762-5.241c3.16,0,4.201,2.601,4.201,4.741c0,0.46-0.041,0.819-0.08,1.04
			H982.961z M987.242,239.299c0.02-0.9-0.381-2.381-2.021-2.381c-1.52,0-2.16,1.381-2.26,2.381H987.242z"/>
		<path d="M997.98,245.2v-5.621l-4.261-7.861h2.8l1.621,3.46c0.46,1.001,0.8,1.761,1.16,2.681h0.04c0.34-0.86,0.72-1.7,1.181-2.681
			l1.62-3.46h2.78l-4.48,7.801v5.682H997.98z"/>
	</g>
</g>
<g>
</g>
<g>
</g>
</svg>
