<?xml version="1.0" encoding="utf-8"?>
<!-- Generator: Adobe Illustrator 16.0.4, SVG Export Plug-In . SVG Version: 6.00 Build 0)  -->
<!DOCTYPE svg PUBLIC "-//W3C//DTD SVG 1.1//EN" "http://www.w3.org/Graphics/SVG/1.1/DTD/svg11.dtd">
<svg version="1.1" id="Layer_1" xmlns="http://www.w3.org/2000/svg" xmlns:xlink="http://www.w3.org/1999/xlink" x="0px" y="0px"
	 width="1366px" height="768px" viewBox="0 0 1366 768" enable-background="new 0 0 1366 768" xml:space="preserve">
<rect fill="#FFFFFF" width="1366" height="768"/>
<circle opacity="0.45" fill="none" stroke="#000000" stroke-width="2" stroke-miterlimit="10" cx="367" cy="424" r="120"/>
<circle fill="none" stroke="#000000" stroke-width="2" stroke-miterlimit="10" cx="964.22" cy="234.205" r="89.205"/>
<circle fill="none" stroke="#000000" stroke-width="2.4" stroke-miterlimit="10" cx="693" cy="424" r="61.2"/>
<circle opacity="0.33" fill="#E15218" enable-background="new    " cx="725.219" cy="402.125" r="5.125"/>
<g opacity="0.45">
	<g>
		<line fill="none" stroke="#000000" stroke-width="4" stroke-miterlimit="10" x1="486.5" y1="423.5" x2="610.5" y2="423.5"/>
		<g>
			<polygon points="629,423.629 602.734,434.361 608.967,423.629 602.734,412.898 			"/>
		</g>
	</g>
</g>
<g>
	<g>
		
			<line fill="none" stroke="#000000" stroke-width="2" stroke-miterlimit="10" x1="744.442" y1="390.837" x2="882.372" y2="292.537"/>
		<g>
			<polygon points="891.571,285.98 882.383,300.517 881.684,293.027 874.834,289.923 			"/>
		</g>
	</g>
</g>
<g opacity="0.45">
	<g>
		<line fill="none" stroke="#000000" stroke-width="2" stroke-miterlimit="10" x1="742.492" y1="460" x2="901.925" y2="569.219"/>
		<g>
			<polygon points="911.244,575.604 894.436,571.974 901.228,568.742 901.787,561.242 			"/>
		</g>
	</g>
</g>
<g>
	<rect x="625.5" y="278.98" fill="none" width="135" height="74"/>
	<path d="M675.129,287.282l-0.928,3.058h-2.033l3.458-10.788h2.513l3.505,10.788h-2.113l-0.977-3.058H675.129z M678.219,285.794
		l-0.849-2.657c-0.208-0.656-0.384-1.393-0.544-2.017h-0.032c-0.16,0.624-0.32,1.377-0.512,2.017l-0.832,2.657H678.219z"/>
	<path d="M682.984,278.976h1.984v11.364h-1.984V278.976z"/>
	<path d="M689.193,280.368c0,0.592-0.432,1.056-1.121,1.056c-0.656,0-1.088-0.464-1.088-1.056c0-0.608,0.448-1.073,1.104-1.073
		C688.762,279.295,689.178,279.76,689.193,280.368z M687.097,290.34v-7.795h1.984v7.795H687.097z"/>
	<path d="M696.922,290.1c-0.416,0.192-1.232,0.4-2.209,0.4c-2.432,0-4.018-1.553-4.018-3.97c0-2.337,1.602-4.162,4.338-4.162
		c0.721,0,1.457,0.16,1.905,0.368l-0.353,1.473c-0.32-0.144-0.783-0.304-1.488-0.304c-1.504,0-2.4,1.104-2.385,2.529
		c0,1.601,1.041,2.513,2.385,2.513c0.688,0,1.168-0.145,1.553-0.304L696.922,290.1z"/>
	<path d="M699.625,286.994c0.048,1.409,1.152,2.018,2.4,2.018c0.912,0,1.568-0.129,2.161-0.353l0.288,1.36
		c-0.672,0.272-1.601,0.48-2.721,0.48c-2.529,0-4.018-1.553-4.018-3.938c0-2.161,1.312-4.194,3.809-4.194
		c2.529,0,3.361,2.081,3.361,3.794c0,0.368-0.031,0.656-0.063,0.832H699.625z M703.051,285.618c0.016-0.721-0.305-1.905-1.617-1.905
		c-1.217,0-1.729,1.104-1.809,1.905H703.051z"/>
	<path d="M708.457,279.375c-0.432,1.457-1.12,3.105-1.729,4.098l-1.201,0.112c0.417-1.168,0.833-2.769,1.025-4.065L708.457,279.375z
		"/>
	<path d="M708.457,288.531c0.447,0.271,1.296,0.561,2,0.561c0.865,0,1.248-0.353,1.248-0.865c0-0.527-0.319-0.8-1.279-1.136
		c-1.521-0.528-2.161-1.36-2.146-2.273c0-1.376,1.137-2.449,2.945-2.449c0.864,0,1.616,0.225,2.065,0.465l-0.385,1.393
		c-0.336-0.192-0.961-0.448-1.648-0.448c-0.705,0-1.089,0.336-1.089,0.816c0,0.496,0.368,0.736,1.36,1.088
		c1.409,0.513,2.065,1.232,2.081,2.386c0,1.408-1.104,2.433-3.169,2.433c-0.944,0-1.793-0.225-2.369-0.544L708.457,288.531z"/>
	<path d="M643.729,307.396c0.64,0.368,1.601,0.688,2.609,0.688c1.265,0,1.969-0.592,1.969-1.472c0-0.816-0.544-1.297-1.921-1.793
		c-1.777-0.641-2.913-1.585-2.913-3.138c0-1.761,1.472-3.105,3.81-3.105c1.168,0,2.033,0.257,2.593,0.545l-0.48,1.584
		c-0.384-0.208-1.137-0.512-2.145-0.512c-1.249,0-1.792,0.672-1.792,1.297c0,0.832,0.624,1.216,2.064,1.776
		c1.873,0.704,2.785,1.648,2.785,3.201c0,1.729-1.312,3.233-4.098,3.233c-1.136,0-2.321-0.32-2.913-0.673L643.729,307.396z"/>
	<path d="M652.001,304.338c0-1.024-0.032-1.856-0.064-2.593h1.729l0.096,1.2h0.032c0.576-0.88,1.489-1.377,2.673-1.377
		c1.792,0,3.281,1.537,3.281,3.97c0,2.817-1.777,4.178-3.554,4.178c-0.976,0-1.792-0.416-2.193-1.04h-0.032v4.033h-1.969V304.338z
		 M653.97,306.274c0,0.192,0.016,0.368,0.064,0.545c0.192,0.8,0.896,1.376,1.729,1.376c1.249,0,1.985-1.04,1.985-2.577
		c0-1.376-0.672-2.497-1.937-2.497c-0.816,0-1.569,0.593-1.761,1.457c-0.048,0.16-0.08,0.336-0.08,0.496V306.274z"/>
	<path d="M662.753,306.194c0.048,1.409,1.152,2.018,2.401,2.018c0.912,0,1.568-0.129,2.161-0.353l0.288,1.36
		c-0.672,0.272-1.601,0.48-2.721,0.48c-2.529,0-4.018-1.553-4.018-3.938c0-2.161,1.312-4.194,3.81-4.194
		c2.529,0,3.361,2.081,3.361,3.794c0,0.368-0.032,0.656-0.064,0.832H662.753z M666.179,304.818c0.016-0.721-0.304-1.905-1.617-1.905
		c-1.217,0-1.729,1.104-1.809,1.905H666.179z"/>
	<path d="M669.617,304.065c0-0.896-0.016-1.648-0.064-2.32h1.729l0.096,1.168h0.048c0.336-0.608,1.185-1.345,2.481-1.345
		c1.36,0,2.769,0.881,2.769,3.346v4.626h-1.969v-4.401c0-1.121-0.416-1.969-1.489-1.969c-0.784,0-1.328,0.56-1.537,1.152
		c-0.064,0.176-0.08,0.416-0.08,0.64v4.578h-1.984V304.065z"/>
	<path d="M680.945,299.52v2.226h1.873v1.473h-1.873v3.441c0,0.944,0.256,1.44,1.008,1.44c0.336,0,0.592-0.048,0.768-0.096
		l0.032,1.504c-0.288,0.112-0.8,0.192-1.425,0.192c-0.72,0-1.328-0.24-1.696-0.641c-0.417-0.448-0.608-1.152-0.608-2.177v-3.665
		h-1.121v-1.473h1.121v-1.761L680.945,299.52z"/>
	<path d="M697.268,304.034c0,3.617-2.192,5.682-5.17,5.682c-3.041,0-4.962-2.32-4.962-5.49c0-3.313,2.081-5.65,5.122-5.65
		C695.411,298.575,697.268,300.961,697.268,304.034z M689.217,304.194c0,2.192,1.104,3.938,2.993,3.938
		c1.905,0,2.978-1.761,2.978-4.018c0-2.033-1.009-3.954-2.978-3.954C690.257,300.16,689.217,301.969,689.217,304.194z"/>
	<path d="M705.923,307.203c0,0.929,0.032,1.696,0.063,2.337h-1.729l-0.096-1.185h-0.031c-0.337,0.561-1.105,1.36-2.498,1.36
		c-1.424,0-2.721-0.848-2.721-3.394v-4.577h1.969v4.241c0,1.297,0.416,2.129,1.457,2.129c0.783,0,1.296-0.56,1.504-1.057
		c0.064-0.176,0.112-0.384,0.112-0.607v-4.706h1.969V307.203z"/>
	<path d="M710.305,299.52v2.226h1.873v1.473h-1.873v3.441c0,0.944,0.256,1.44,1.008,1.44c0.336,0,0.593-0.048,0.769-0.096
		l0.032,1.504c-0.288,0.112-0.801,0.192-1.425,0.192c-0.72,0-1.328-0.24-1.696-0.641c-0.416-0.448-0.608-1.152-0.608-2.177v-3.665
		h-1.12v-1.473h1.12v-1.761L710.305,299.52z"/>
	<path d="M713.664,304.338c0-1.024-0.032-1.856-0.064-2.593h1.729l0.097,1.2h0.032c0.576-0.88,1.488-1.377,2.673-1.377
		c1.792,0,3.281,1.537,3.281,3.97c0,2.817-1.776,4.178-3.554,4.178c-0.977,0-1.793-0.416-2.193-1.04h-0.031v4.033h-1.969V304.338z
		 M715.633,306.274c0,0.192,0.016,0.368,0.064,0.545c0.191,0.8,0.896,1.376,1.729,1.376c1.248,0,1.984-1.04,1.984-2.577
		c0-1.376-0.672-2.497-1.937-2.497c-0.816,0-1.569,0.593-1.761,1.457c-0.049,0.16-0.08,0.336-0.08,0.496V306.274z"/>
	<path d="M730.002,307.203c0,0.929,0.032,1.696,0.064,2.337h-1.729l-0.097-1.185h-0.032c-0.336,0.561-1.104,1.36-2.496,1.36
		c-1.426,0-2.722-0.848-2.722-3.394v-4.577h1.969v4.241c0,1.297,0.416,2.129,1.456,2.129c0.785,0,1.297-0.56,1.506-1.057
		c0.063-0.176,0.111-0.384,0.111-0.607v-4.706h1.969V307.203z"/>
	<path d="M734.385,299.52v2.226h1.873v1.473h-1.873v3.441c0,0.944,0.256,1.44,1.008,1.44c0.336,0,0.593-0.048,0.769-0.096
		l0.032,1.504c-0.288,0.112-0.801,0.192-1.425,0.192c-0.72,0-1.328-0.24-1.696-0.641c-0.416-0.448-0.608-1.152-0.608-2.177v-3.665
		h-1.12v-1.473h1.12v-1.761L734.385,299.52z"/>
	<path d="M737.648,307.731c0.447,0.272,1.296,0.561,2,0.561c0.865,0,1.248-0.353,1.248-0.865c0-0.527-0.319-0.8-1.279-1.136
		c-1.521-0.528-2.161-1.361-2.146-2.273c0-1.376,1.137-2.449,2.945-2.449c0.864,0,1.616,0.225,2.065,0.465l-0.385,1.393
		c-0.336-0.192-0.961-0.448-1.648-0.448c-0.705,0-1.089,0.336-1.089,0.816c0,0.496,0.368,0.736,1.36,1.088
		c1.409,0.513,2.065,1.232,2.081,2.386c0,1.408-1.104,2.433-3.169,2.433c-0.944,0-1.793-0.225-2.369-0.544L737.648,307.731z"/>
	<path d="M635.338,317.952h1.329l-1.008,5.25l0.08-0.017c0.368-0.447,0.736-0.832,1.056-1.2l3.793-4.033h1.665l-4.546,4.642
		l2.785,6.146h-1.457l-2.353-5.298l-1.296,1.2l-0.785,4.098h-1.312L635.338,317.952z"/>
	<path d="M641.625,328.74l1.041-5.49c0.176-0.864,0.272-1.616,0.368-2.257h1.184l-0.192,1.521h0.032
		c0.688-1.089,1.729-1.696,2.865-1.696c0.929,0,1.969,0.528,1.969,2.16c0,0.337-0.064,0.833-0.144,1.249l-0.865,4.514h-1.329
		l0.849-4.466c0.064-0.304,0.112-0.672,0.112-0.992c0-0.784-0.304-1.36-1.216-1.36c-0.944,0-2.289,1.136-2.641,3.057l-0.704,3.762
		H641.625z"/>
	<path d="M657.596,324.051c0,2.385-1.696,4.865-4.29,4.865c-1.937,0-3.025-1.44-3.025-3.185c0-2.546,1.777-4.914,4.29-4.914
		C656.667,320.817,657.596,322.401,657.596,324.051z M651.658,325.683c0,1.265,0.688,2.178,1.825,2.178
		c1.568,0,2.753-2.018,2.753-3.826c0-0.896-0.416-2.161-1.809-2.161C652.762,321.873,651.642,323.906,651.658,325.683z"/>
	<path d="M660.25,320.993l0.272,4.354c0.064,0.961,0.048,1.457,0.032,2.081h0.048c0.176-0.496,0.464-1.169,0.848-1.937l2.305-4.498
		h1.152l0.48,4.418c0.08,0.848,0.145,1.504,0.128,2.017h0.032c0.208-0.624,0.432-1.217,0.736-1.953l2.097-4.481h1.344l-3.825,7.747
		h-1.233l-0.512-4.21c-0.08-0.72-0.112-1.376-0.112-2.049h-0.032c-0.32,0.736-0.544,1.329-0.896,2.017l-2.225,4.242h-1.232
		l-0.72-7.747H660.25z"/>
	<path d="M669.721,328.74l1.041-5.49c0.176-0.864,0.272-1.616,0.368-2.257h1.184l-0.192,1.521h0.032
		c0.688-1.089,1.729-1.696,2.865-1.696c0.929,0,1.969,0.528,1.969,2.16c0,0.337-0.064,0.833-0.144,1.249l-0.865,4.514h-1.329
		l0.849-4.466c0.064-0.304,0.112-0.672,0.112-0.992c0-0.784-0.304-1.36-1.216-1.36c-0.944,0-2.289,1.136-2.641,3.057l-0.704,3.762
		H669.721z"/>
	<path d="M684.65,318.912l-0.4,2.081h1.856l-0.208,1.04h-1.856l-0.72,3.762c-0.08,0.433-0.144,0.832-0.144,1.249
		c0,0.464,0.224,0.736,0.736,0.736c0.224,0,0.447-0.017,0.624-0.049l-0.063,1.041c-0.24,0.096-0.641,0.144-1.025,0.144
		c-1.185,0-1.633-0.72-1.633-1.504c0-0.448,0.048-0.896,0.16-1.457l0.768-3.922h-1.12l0.208-1.04h1.104l0.336-1.745L684.65,318.912z
		"/>
	<path d="M693.547,324.051c0,2.385-1.696,4.865-4.289,4.865c-1.938,0-3.025-1.44-3.025-3.185c0-2.546,1.776-4.914,4.289-4.914
		C692.619,320.817,693.547,322.401,693.547,324.051z M687.609,325.683c0,1.265,0.688,2.178,1.824,2.178
		c1.568,0,2.753-2.018,2.753-3.826c0-0.896-0.416-2.161-1.809-2.161C688.713,321.873,687.593,323.906,687.609,325.683z"/>
	<path d="M697.607,327.075c0.576,0.4,1.393,0.688,2.289,0.688c1.217,0,2.338-0.72,2.338-2.032c0-0.801-0.465-1.393-1.586-2.018
		c-1.376-0.736-2.145-1.601-2.145-2.769c0-1.921,1.665-3.17,3.65-3.17c1.039,0,1.824,0.32,2.208,0.576l-0.479,1.073
		c-0.336-0.192-1.009-0.513-1.873-0.496c-1.328,0-2.129,0.88-2.129,1.761c0,0.88,0.544,1.376,1.664,2
		c1.329,0.705,2.065,1.553,2.065,2.882c0,1.872-1.473,3.329-3.89,3.329c-1.088,0-2.145-0.353-2.594-0.736L697.607,327.075z"/>
	<path d="M710.586,328.292c-0.576,0.336-1.521,0.608-2.561,0.608c-2.049,0-2.945-1.393-2.945-3.105c0-2.337,1.729-4.978,4.226-4.978
		c1.473,0,2.272,0.88,2.272,1.984c0,2.033-2.289,2.577-5.154,2.529c-0.063,0.336-0.016,1.057,0.16,1.473
		c0.305,0.688,0.93,1.04,1.729,1.04c0.912,0,1.601-0.288,2.081-0.544L710.586,328.292z M709.113,321.857
		c-1.264,0-2.209,1.232-2.529,2.449c2.082,0.016,3.714-0.256,3.714-1.457C710.298,322.21,709.818,321.857,709.113,321.857z"/>
	<path d="M712.248,328.74l0.944-4.994c0.192-1.008,0.32-2.032,0.4-2.753h1.169c-0.064,0.544-0.129,1.089-0.209,1.681h0.049
		c0.496-1.057,1.328-1.856,2.368-1.856c0.112,0,0.272,0.016,0.368,0.031l-0.256,1.312c-0.08-0.016-0.208-0.031-0.352-0.031
		c-1.153,0-2.178,1.393-2.514,3.201l-0.641,3.409H712.248z"/>
	<path d="M719.385,320.993l0.672,4.418c0.112,0.88,0.208,1.473,0.24,1.904h0.048c0.16-0.416,0.368-0.928,0.816-1.809l2.369-4.514
		h1.456l-4.305,7.747h-1.313l-1.345-7.747H719.385z"/>
	<path d="M724.936,328.74l1.488-7.747h1.328l-1.488,7.747H724.936z M726.664,318.832c0-0.512,0.4-0.896,0.881-0.896
		s0.784,0.353,0.784,0.833c-0.017,0.528-0.384,0.896-0.896,0.896C726.969,319.665,726.664,319.312,726.664,318.832z"/>
	<path d="M733.93,328.437c-0.4,0.191-1.201,0.464-2.241,0.464c-2.001,0-2.978-1.345-2.978-2.993c0-2.642,1.953-5.074,4.738-5.074
		c0.721,0,1.377,0.208,1.616,0.336l-0.384,1.057c-0.305-0.144-0.736-0.288-1.312-0.288c-2.018,0-3.281,1.984-3.281,3.81
		c0,1.248,0.656,2.064,1.92,2.064c0.785,0,1.393-0.24,1.793-0.432L733.93,328.437z"/>
	<path d="M740.809,328.292c-0.576,0.336-1.521,0.608-2.561,0.608c-2.049,0-2.945-1.393-2.945-3.105c0-2.337,1.729-4.978,4.226-4.978
		c1.473,0,2.272,0.88,2.272,1.984c0,2.033-2.289,2.577-5.154,2.529c-0.063,0.336-0.016,1.057,0.16,1.473
		c0.305,0.688,0.93,1.04,1.729,1.04c0.912,0,1.601-0.288,2.081-0.544L740.809,328.292z M739.336,321.857
		c-1.264,0-2.209,1.232-2.529,2.449c2.082,0.016,3.714-0.256,3.714-1.457C740.521,322.21,740.041,321.857,739.336,321.857z"/>
	<path d="M747.512,328.74l0.848-4.481l-2.08-6.307h1.424l1.041,3.489c0.271,0.96,0.368,1.393,0.448,1.809h0.032
		c0.271-0.448,0.641-1.057,1.152-1.856l2.337-3.441h1.552l-4.594,6.29l-0.848,4.498H747.512z"/>
</g>
<g opacity="0.45">
	<rect x="302" y="423" fill="none" width="135" height="74"/>
	<path d="M331.461,434.52c0.8,0.46,2,0.86,3.261,0.86c1.58,0,2.46-0.74,2.46-1.841c0-1.02-0.68-1.62-2.4-2.24
		c-2.221-0.8-3.641-1.98-3.641-3.921c0-2.2,1.841-3.881,4.761-3.881c1.46,0,2.541,0.32,3.241,0.681l-0.6,1.98
		c-0.48-0.261-1.42-0.641-2.681-0.641c-1.561,0-2.241,0.84-2.241,1.62c0,1.041,0.78,1.521,2.581,2.221
		c2.341,0.88,3.481,2.061,3.481,4.001c0,2.16-1.64,4.041-5.121,4.041c-1.42,0-2.9-0.4-3.641-0.84L331.461,434.52z"/>
	<path d="M343.661,433.02c0.06,1.76,1.44,2.521,3.001,2.521c1.14,0,1.96-0.16,2.7-0.44l0.36,1.7c-0.84,0.341-2,0.601-3.401,0.601
		c-3.161,0-5.021-1.94-5.021-4.921c0-2.701,1.64-5.241,4.761-5.241c3.161,0,4.201,2.601,4.201,4.741c0,0.46-0.04,0.819-0.08,1.04
		H343.661z M347.942,431.299c0.02-0.9-0.38-2.381-2.021-2.381c-1.521,0-2.161,1.381-2.261,2.381H347.942z"/>
	<path d="M352.241,430.599c0-1.32-0.02-2.261-0.08-3.141h2.141l0.08,1.86h0.08c0.48-1.38,1.621-2.08,2.661-2.08
		c0.24,0,0.38,0.02,0.58,0.06v2.32c-0.2-0.04-0.42-0.08-0.72-0.08c-1.181,0-1.98,0.761-2.201,1.861c-0.04,0.22-0.08,0.479-0.08,0.76
		v5.041h-2.46V430.599z"/>
	<path d="M361.36,427.458l1.58,4.941c0.28,0.86,0.48,1.64,0.66,2.44h0.06c0.18-0.801,0.4-1.561,0.66-2.44l1.54-4.941h2.601
		l-3.721,9.742h-2.42l-3.621-9.742H361.36z"/>
	<path d="M372.581,424.737c0,0.74-0.54,1.32-1.4,1.32c-0.82,0-1.36-0.58-1.36-1.32c0-0.76,0.56-1.34,1.38-1.34
		C372.041,423.397,372.561,423.978,372.581,424.737z M369.96,437.2v-9.742h2.48v9.742H369.96z"/>
	<path d="M382.242,436.9c-0.52,0.24-1.541,0.5-2.761,0.5c-3.041,0-5.021-1.94-5.021-4.961c0-2.921,2-5.201,5.421-5.201
		c0.9,0,1.821,0.2,2.381,0.46l-0.44,1.84c-0.4-0.18-0.98-0.38-1.86-0.38c-1.88,0-3,1.381-2.98,3.161c0,2,1.3,3.141,2.98,3.141
		c0.86,0,1.46-0.181,1.94-0.38L382.242,436.9z"/>
	<path d="M385.621,433.02c0.06,1.76,1.44,2.521,3.001,2.521c1.14,0,1.96-0.16,2.7-0.44l0.36,1.7c-0.84,0.341-2,0.601-3.401,0.601
		c-3.161,0-5.021-1.94-5.021-4.921c0-2.701,1.64-5.241,4.761-5.241c3.161,0,4.201,2.601,4.201,4.741c0,0.46-0.04,0.819-0.08,1.04
		H385.621z M389.902,431.299c0.02-0.9-0.38-2.381-2.021-2.381c-1.521,0-2.161,1.381-2.261,2.381H389.902z"/>
	<path d="M405.661,437.2l-1.46-2.681c-0.58-1.04-0.96-1.761-1.34-2.54h-0.06c-0.32,0.779-0.68,1.5-1.22,2.54l-1.34,2.681h-2.821
		l4.001-6.821l-3.841-6.661h2.821l1.46,2.78c0.44,0.84,0.76,1.5,1.121,2.261h0.04c0.36-0.841,0.64-1.44,1.06-2.261l1.44-2.78h2.82
		l-3.941,6.581l4.101,6.901H405.661z"/>
</g>
<g enable-background="new    ">
	<rect x="898.72" y="231" fill="none" width="135" height="74"/>
	<path fill="#2D4E6E" d="M928.801,242.52c0.801,0.46,2,0.86,3.261,0.86c1.58,0,2.46-0.74,2.46-1.841c0-1.02-0.68-1.62-2.4-2.24
		c-2.221-0.8-3.641-1.98-3.641-3.921c0-2.2,1.841-3.881,4.762-3.881c1.46,0,2.54,0.32,3.24,0.681l-0.6,1.98
		c-0.48-0.261-1.421-0.641-2.682-0.641c-1.561,0-2.24,0.84-2.24,1.62c0,1.041,0.78,1.521,2.58,2.221
		c2.342,0.88,3.481,2.061,3.481,4.001c0,2.16-1.64,4.041-5.121,4.041c-1.421,0-2.9-0.4-3.641-0.84L928.801,242.52z"/>
	<path fill="#2D4E6E" d="M941.001,241.02c0.06,1.76,1.44,2.521,3.001,2.521c1.141,0,1.96-0.16,2.7-0.44l0.36,1.7
		c-0.84,0.341-2,0.601-3.4,0.601c-3.161,0-5.021-1.94-5.021-4.921c0-2.701,1.641-5.241,4.761-5.241c3.161,0,4.201,2.601,4.201,4.741
		c0,0.46-0.04,0.819-0.08,1.04H941.001z M945.282,239.299c0.02-0.9-0.38-2.381-2.021-2.381c-1.521,0-2.16,1.381-2.261,2.381H945.282
		z"/>
	<path fill="#2D4E6E" d="M949.58,238.599c0-1.32-0.02-2.261-0.08-3.141h2.141l0.08,1.86h0.08c0.48-1.38,1.621-2.08,2.66-2.08
		c0.24,0,0.381,0.02,0.58,0.06v2.32c-0.199-0.04-0.42-0.08-0.719-0.08c-1.182,0-1.98,0.761-2.201,1.861
		c-0.04,0.22-0.08,0.479-0.08,0.76v5.041h-2.461V238.599z"/>
	<path fill="#2D4E6E" d="M958.7,235.458l1.58,4.941c0.28,0.86,0.479,1.64,0.66,2.44H961c0.181-0.801,0.4-1.561,0.66-2.44
		l1.541-4.941h2.6l-3.721,9.742h-2.42l-3.621-9.742H958.7z"/>
	<path fill="#2D4E6E" d="M969.92,232.737c0,0.74-0.539,1.32-1.4,1.32c-0.82,0-1.359-0.58-1.359-1.32c0-0.76,0.56-1.34,1.38-1.34
		C969.381,231.397,969.9,231.978,969.92,232.737z M967.3,245.2v-9.742h2.48v9.742H967.3z"/>
	<path fill="#2D4E6E" d="M979.582,244.9c-0.521,0.24-1.541,0.5-2.762,0.5c-3.04,0-5.021-1.94-5.021-4.961
		c0-2.921,2.001-5.201,5.421-5.201c0.9,0,1.82,0.2,2.381,0.46l-0.44,1.84c-0.399-0.18-0.979-0.38-1.86-0.38
		c-1.881,0-3,1.381-2.98,3.161c0,2,1.301,3.141,2.98,3.141c0.86,0,1.461-0.181,1.94-0.38L979.582,244.9z"/>
	<path fill="#2D4E6E" d="M982.961,241.02c0.06,1.76,1.439,2.521,3,2.521c1.141,0,1.961-0.16,2.701-0.44l0.359,1.7
		c-0.84,0.341-2,0.601-3.4,0.601c-3.16,0-5.021-1.94-5.021-4.921c0-2.701,1.641-5.241,4.762-5.241c3.16,0,4.201,2.601,4.201,4.741
		c0,0.46-0.041,0.819-0.08,1.04H982.961z M987.242,239.299c0.02-0.9-0.381-2.381-2.021-2.381c-1.52,0-2.16,1.381-2.26,2.381H987.242
		z"/>
	<path fill="#2D4E6E" d="M997.98,245.2v-5.621l-4.261-7.861h2.8l1.621,3.46c0.46,1.001,0.8,1.761,1.16,2.681h0.04
		c0.34-0.86,0.72-1.7,1.181-2.681l1.62-3.46h2.78l-4.48,7.801v5.682H997.98z"/>
</g>
<circle opacity="0.45" fill="none" stroke="#000000" stroke-width="1.6498" stroke-miterlimit="10" cx="964.22" cy="612.961" r="64.961"/>
<g opacity="0.45">
	<rect x="896.72" y="598" fill="none" width="135" height="74"/>
	<path d="M929.814,598.645v7.076c0,2.377,0.99,3.475,2.484,3.475c1.603,0,2.557-1.098,2.557-3.475v-7.076h2.215v6.934
		c0,3.744-1.926,5.4-4.844,5.4c-2.809,0-4.627-1.566-4.627-5.383v-6.951H929.814z"/>
	<path d="M939.516,604.623c0-1.008-0.018-1.855-0.072-2.611h1.945l0.107,1.314h0.055c0.377-0.684,1.332-1.512,2.79-1.512
		c1.53,0,3.115,0.99,3.115,3.764v5.203h-2.215v-4.951c0-1.262-0.468-2.215-1.675-2.215c-0.882,0-1.494,0.629-1.729,1.295
		c-0.072,0.199-0.09,0.469-0.09,0.721v5.15h-2.232V604.623z"/>
	<path d="M952.025,605.865h0.037c0.216-0.342,0.468-0.721,0.701-1.025l2.125-2.828h2.665l-3.241,3.584l3.709,5.186h-2.719
		l-2.521-3.871l-0.757,0.881v2.99h-2.214v-12.785h2.214V605.865z"/>
	<path d="M959.207,604.623c0-1.008-0.018-1.855-0.072-2.611h1.945l0.107,1.314h0.055c0.377-0.684,1.332-1.512,2.79-1.512
		c1.53,0,3.115,0.99,3.115,3.764v5.203h-2.215v-4.951c0-1.262-0.468-2.215-1.675-2.215c-0.882,0-1.494,0.629-1.729,1.295
		c-0.072,0.199-0.09,0.469-0.09,0.721v5.15h-2.232V604.623z"/>
	<path d="M977.84,606.314c0,3.225-2.27,4.664-4.502,4.664c-2.484,0-4.393-1.711-4.393-4.52c0-2.881,1.89-4.645,4.537-4.645
		C976.093,601.814,977.84,603.65,977.84,606.314z M971.231,606.406c0,1.691,0.828,2.971,2.179,2.971c1.26,0,2.143-1.242,2.143-3.008
		c0-1.367-0.612-2.936-2.125-2.936C971.861,603.434,971.231,604.947,971.231,606.406z"/>
	<path d="M980.843,602.012l0.919,3.98c0.197,0.936,0.396,1.891,0.558,2.844h0.036c0.18-0.953,0.469-1.926,0.721-2.826l1.134-3.998
		h1.801l1.099,3.889c0.27,1.027,0.504,1.982,0.701,2.936h0.037c0.144-0.953,0.342-1.908,0.576-2.936l0.972-3.889h2.179l-2.755,8.77
		h-2.053l-1.044-3.566c-0.271-0.918-0.469-1.746-0.666-2.809h-0.036c-0.181,1.08-0.415,1.945-0.667,2.809l-1.115,3.566h-2.071
		l-2.593-8.77H980.843z"/>
	<path d="M992.992,604.623c0-1.008-0.018-1.855-0.072-2.611h1.945l0.107,1.314h0.055c0.378-0.684,1.332-1.512,2.791-1.512
		c1.53,0,3.115,0.99,3.115,3.764v5.203h-2.215v-4.951c0-1.262-0.469-2.215-1.675-2.215c-0.882,0-1.495,0.629-1.729,1.295
		c-0.072,0.199-0.091,0.469-0.091,0.721v5.15h-2.232V604.623z"/>
	<path d="M913.714,632.381l-2.972-12.137h2.359l1.152,5.51c0.307,1.477,0.594,3.025,0.792,4.232h0.036
		c0.198-1.279,0.54-2.719,0.883-4.25l1.314-5.492h2.322l1.206,5.582c0.306,1.441,0.558,2.791,0.738,4.105h0.036
		c0.216-1.332,0.504-2.719,0.828-4.195l1.26-5.492h2.252l-3.26,12.137h-2.377l-1.26-5.709c-0.307-1.385-0.522-2.537-0.666-3.852
		h-0.036c-0.216,1.295-0.45,2.467-0.811,3.852l-1.404,5.709H913.714z"/>
	<path d="M931.552,632.381l-0.144-0.973h-0.055c-0.539,0.684-1.458,1.17-2.592,1.17c-1.766,0-2.756-1.277-2.756-2.611
		c0-2.213,1.963-3.33,5.204-3.312v-0.145c0-0.576-0.234-1.529-1.782-1.529c-0.865,0-1.765,0.27-2.359,0.648l-0.432-1.441
		c0.648-0.396,1.782-0.773,3.169-0.773c2.809,0,3.619,1.781,3.619,3.691v3.168c0,0.793,0.036,1.566,0.126,2.107H931.552z
		 M931.264,628.096c-1.566-0.037-3.061,0.305-3.061,1.639c0,0.863,0.559,1.26,1.26,1.26c0.883,0,1.531-0.576,1.729-1.207
		c0.055-0.162,0.072-0.342,0.072-0.486V628.096z"/>
	<path d="M935.763,619.596h2.232v12.785h-2.232V619.596z"/>
	<path d="M940.389,619.596h2.232v12.785h-2.232V619.596z"/>
	<path d="M946.581,628.617c0.054,1.584,1.296,2.27,2.7,2.27c1.027,0,1.766-0.145,2.432-0.396l0.324,1.529
		c-0.757,0.307-1.801,0.541-3.062,0.541c-2.845,0-4.519-1.746-4.519-4.43c0-2.43,1.476-4.717,4.285-4.717
		c2.844,0,3.781,2.34,3.781,4.268c0,0.414-0.037,0.738-0.072,0.936H946.581z M950.434,627.068c0.019-0.811-0.342-2.143-1.818-2.143
		c-1.368,0-1.944,1.242-2.034,2.143H950.434z"/>
	<path d="M956.841,621.109v2.502h2.106v1.656h-2.106v3.871c0,1.062,0.288,1.621,1.134,1.621c0.379,0,0.667-0.055,0.865-0.107
		l0.035,1.691c-0.324,0.127-0.9,0.217-1.602,0.217c-0.811,0-1.495-0.27-1.909-0.721c-0.468-0.504-0.685-1.297-0.685-2.449v-4.123
		h-1.26v-1.656h1.26v-1.98L956.841,621.109z"/>
	<path d="M973.133,632.02c-0.523,0.271-1.676,0.541-3.134,0.541c-3.853,0-6.193-2.412-6.193-6.104c0-3.998,2.772-6.41,6.481-6.41
		c1.459,0,2.503,0.307,2.953,0.539l-0.486,1.766c-0.576-0.252-1.368-0.469-2.377-0.469c-2.467,0-4.249,1.549-4.249,4.465
		c0,2.666,1.566,4.377,4.231,4.377c0.9,0,1.836-0.182,2.412-0.451L973.133,632.02z"/>
	<path d="M974.876,619.596h2.232v12.785h-2.232V619.596z"/>
	<path d="M987.352,629.752c0,1.043,0.037,1.908,0.072,2.629h-1.944l-0.108-1.332h-0.035c-0.379,0.629-1.242,1.529-2.809,1.529
		c-1.604,0-3.062-0.953-3.062-3.816v-5.15h2.215v4.771c0,1.459,0.468,2.395,1.638,2.395c0.883,0,1.459-0.629,1.693-1.188
		c0.072-0.199,0.126-0.432,0.126-0.684v-5.295h2.214V629.752z"/>
	<path d="M989.636,630.346c0.504,0.307,1.458,0.631,2.251,0.631c0.972,0,1.404-0.396,1.404-0.973c0-0.594-0.36-0.9-1.441-1.279
		c-1.71-0.594-2.43-1.529-2.412-2.557c0-1.549,1.278-2.754,3.312-2.754c0.973,0,1.818,0.252,2.323,0.521l-0.433,1.566
		c-0.378-0.215-1.08-0.504-1.854-0.504c-0.793,0-1.225,0.379-1.225,0.918c0,0.559,0.414,0.828,1.53,1.225
		c1.584,0.576,2.322,1.387,2.341,2.684c0,1.584-1.242,2.736-3.565,2.736c-1.062,0-2.017-0.252-2.665-0.613L989.636,630.346z"/>
	<path d="M999.788,621.109v2.502h2.106v1.656h-2.106v3.871c0,1.062,0.288,1.621,1.134,1.621c0.379,0,0.667-0.055,0.865-0.107
		l0.035,1.691c-0.324,0.127-0.9,0.217-1.602,0.217c-0.811,0-1.495-0.27-1.909-0.721c-0.468-0.504-0.685-1.297-0.685-2.449v-4.123
		h-1.26v-1.656h1.26v-1.98L999.788,621.109z"/>
	<path d="M1005.025,628.617c0.055,1.584,1.297,2.27,2.701,2.27c1.026,0,1.765-0.145,2.431-0.396l0.324,1.529
		c-0.757,0.307-1.801,0.541-3.062,0.541c-2.844,0-4.519-1.746-4.519-4.43c0-2.43,1.476-4.717,4.285-4.717
		c2.845,0,3.781,2.34,3.781,4.268c0,0.414-0.036,0.738-0.072,0.936H1005.025z M1008.879,627.068
		c0.018-0.811-0.342-2.143-1.818-2.143c-1.369,0-1.945,1.242-2.035,2.143H1008.879z"/>
	<path d="M1012.747,626.439c0-1.189-0.019-2.035-0.072-2.828h1.927l0.072,1.676h0.072c0.432-1.244,1.458-1.873,2.395-1.873
		c0.216,0,0.342,0.018,0.521,0.053v2.09c-0.18-0.037-0.378-0.072-0.648-0.072c-1.062,0-1.782,0.684-1.98,1.674
		c-0.035,0.199-0.072,0.434-0.072,0.686v4.537h-2.214V626.439z"/>
</g>
<g>
	<g>
		<path fill="none" stroke="#000000" stroke-miterlimit="10" d="M715.186,394.137C701.256,380.46,693.236,358.074,693,339.5"/>
		<g>
			<path d="M718.312,396.973c-0.962-1.89-1.922-4.486-2.143-6.503l-1.371,3.264l-3.142,1.631
				C713.684,395.421,716.351,396.167,718.312,396.973z"/>
		</g>
	</g>
</g>
<g>
	<g>
		<path fill="#2D4E6E" d="M966.339,194.92c11.33,0,19.019,11.004,19.019,11.004s-7.446,11.006-18.775,11.006
			c-11.328,0-19.017-11.15-19.017-11.15S955.01,194.92,966.339,194.92 M966.339,192.634c-12.392,0-20.327,11.369-20.659,11.853
			l-0.889,1.297l0.893,1.294c0.342,0.496,8.512,12.139,20.898,12.139c12.4,0,20.337-11.521,20.669-12.011l0.881-1.302l-0.9-1.289
			C986.89,204.125,978.719,192.634,966.339,192.634L966.339,192.634z"/>
	</g>
	<circle fill="#FFFFFF" stroke="#2D4E6E" stroke-width="1.1431" stroke-miterlimit="10" cx="966.672" cy="205.924" r="8.506"/>
	<circle fill="none" stroke="#2D4E6E" stroke-width="1.7147" stroke-miterlimit="10" cx="966.761" cy="205.939" r="5.528"/>
</g>
<g>
	<rect x="891.571" y="383" fill="none" width="373.491" height="100"/>
	<path d="M909.044,392.65c0,2.789-0.697,4.957-2.092,6.504s-3.369,2.32-5.924,2.32c-2.586,0-4.572-0.768-5.959-2.303
		s-2.08-3.717-2.08-6.545s0.697-5,2.092-6.516s3.385-2.274,5.971-2.274c2.547,0,4.516,0.77,5.906,2.309
		S909.044,389.854,909.044,392.65z M895.966,392.65c0,2.109,0.426,3.709,1.277,4.799s2.113,1.635,3.785,1.635
		c1.664,0,2.92-0.539,3.768-1.617s1.271-2.684,1.271-4.816c0-2.102-0.42-3.695-1.26-4.781s-2.092-1.629-3.756-1.629
		c-1.68,0-2.947,0.543-3.803,1.629S895.966,390.549,895.966,392.65z"/>
	<path d="M921.571,401.24l-0.387-1.699h-0.141c-0.383,0.602-0.928,1.074-1.635,1.418s-1.514,0.516-2.42,0.516
		c-1.57,0-2.742-0.391-3.516-1.172s-1.16-1.965-1.16-3.551v-8.473h2.777v7.992c0,0.992,0.203,1.736,0.609,2.232
		s1.043,0.744,1.91,0.744c1.156,0,2.006-0.346,2.549-1.037s0.814-1.85,0.814-3.475v-6.457h2.766v12.961H921.571z"/>
	<path d="M932.493,399.248c0.672,0,1.344-0.105,2.016-0.316v2.074c-0.305,0.133-0.697,0.244-1.178,0.334s-0.979,0.135-1.494,0.135
		c-2.609,0-3.914-1.375-3.914-4.125v-6.984h-1.77v-1.219l1.898-1.008l0.938-2.742h1.699v2.883h3.691v2.086h-3.691v6.938
		c0,0.664,0.166,1.154,0.498,1.471S931.954,399.248,932.493,399.248z"/>
	<path d="M943.673,401.475c-1.641,0-2.914-0.59-3.82-1.77h-0.164c0.109,1.094,0.164,1.758,0.164,1.992v5.309h-2.754v-18.727h2.227
		c0.062,0.242,0.191,0.82,0.387,1.734h0.141c0.859-1.312,2.148-1.969,3.867-1.969c1.617,0,2.877,0.586,3.779,1.758
		s1.354,2.816,1.354,4.934s-0.459,3.77-1.377,4.957S945.29,401.475,943.673,401.475z M943.005,390.295
		c-1.094,0-1.893,0.32-2.396,0.961s-0.756,1.664-0.756,3.07v0.41c0,1.578,0.25,2.721,0.75,3.428s1.316,1.061,2.449,1.061
		c0.953,0,1.688-0.391,2.203-1.172s0.773-1.895,0.773-3.34c0-1.453-0.256-2.553-0.768-3.299S943.997,390.295,943.005,390.295z"/>
	<path d="M961.192,401.24l-0.387-1.699h-0.141c-0.383,0.602-0.928,1.074-1.635,1.418s-1.514,0.516-2.42,0.516
		c-1.57,0-2.742-0.391-3.516-1.172s-1.16-1.965-1.16-3.551v-8.473h2.777v7.992c0,0.992,0.203,1.736,0.609,2.232
		s1.043,0.744,1.91,0.744c1.156,0,2.006-0.346,2.549-1.037s0.814-1.85,0.814-3.475v-6.457h2.766v12.961H961.192z"/>
	<path d="M972.114,399.248c0.672,0,1.344-0.105,2.016-0.316v2.074c-0.305,0.133-0.697,0.244-1.178,0.334s-0.979,0.135-1.494,0.135
		c-2.609,0-3.914-1.375-3.914-4.125v-6.984h-1.77v-1.219l1.898-1.008l0.938-2.742h1.699v2.883h3.691v2.086h-3.691v6.938
		c0,0.664,0.166,1.154,0.498,1.471S971.575,399.248,972.114,399.248z"/>
	<path d="M990.536,386.264c-1.609,0-2.875,0.57-3.797,1.711s-1.383,2.715-1.383,4.723c0,2.102,0.443,3.691,1.33,4.77
		s2.17,1.617,3.85,1.617c0.727,0,1.43-0.072,2.109-0.217s1.387-0.33,2.121-0.557v2.402c-1.344,0.508-2.867,0.762-4.57,0.762
		c-2.508,0-4.434-0.76-5.777-2.279s-2.016-3.693-2.016-6.521c0-1.781,0.326-3.34,0.979-4.676s1.596-2.359,2.83-3.07
		c1.234-0.711,2.684-1.067,4.348-1.067c1.75,0,3.367,0.367,4.852,1.102l-1.008,2.332c-0.578-0.273-1.189-0.514-1.834-0.721
		S991.247,386.264,990.536,386.264z"/>
	<path d="M1000.919,401.24h-2.754v-18.235h2.754V401.24z"/>
	<path d="M1013.997,401.24l-0.387-1.699h-0.141c-0.383,0.602-0.928,1.074-1.635,1.418s-1.514,0.516-2.42,0.516
		c-1.57,0-2.742-0.391-3.516-1.172s-1.16-1.965-1.16-3.551v-8.473h2.777v7.992c0,0.992,0.203,1.736,0.609,2.232
		s1.043,0.744,1.91,0.744c1.156,0,2.006-0.346,2.549-1.037s0.814-1.85,0.814-3.475v-6.457h2.766v12.961H1013.997z"/>
	<path d="M1028.798,397.549c0,1.266-0.461,2.236-1.383,2.912s-2.242,1.014-3.961,1.014c-1.727,0-3.113-0.262-4.16-0.785v-2.379
		c1.523,0.703,2.941,1.055,4.254,1.055c1.695,0,2.543-0.512,2.543-1.535c0-0.328-0.094-0.602-0.281-0.82s-0.496-0.445-0.926-0.68
		s-1.027-0.5-1.793-0.797c-1.492-0.578-2.502-1.156-3.029-1.734s-0.791-1.328-0.791-2.25c0-1.109,0.447-1.971,1.342-2.584
		s2.111-0.92,3.65-0.92c1.523,0,2.965,0.309,4.324,0.926l-0.891,2.074c-1.398-0.578-2.574-0.867-3.527-0.867
		c-1.453,0-2.18,0.414-2.18,1.242c0,0.406,0.189,0.75,0.568,1.031s1.205,0.668,2.479,1.16c1.07,0.414,1.848,0.793,2.332,1.137
		s0.844,0.74,1.078,1.189S1028.798,396.924,1028.798,397.549z"/>
	<path d="M1036.603,399.248c0.672,0,1.344-0.105,2.016-0.316v2.074c-0.305,0.133-0.697,0.244-1.178,0.334s-0.979,0.135-1.494,0.135
		c-2.609,0-3.914-1.375-3.914-4.125v-6.984h-1.77v-1.219l1.898-1.008l0.938-2.742h1.699v2.883h3.691v2.086h-3.691v6.938
		c0,0.664,0.166,1.154,0.498,1.471S1036.063,399.248,1036.603,399.248z"/>
	<path d="M1046.868,401.475c-2.016,0-3.592-0.588-4.729-1.764s-1.705-2.795-1.705-4.857c0-2.117,0.527-3.781,1.582-4.992
		s2.504-1.816,4.348-1.816c1.711,0,3.062,0.52,4.055,1.559s1.488,2.469,1.488,4.289v1.488h-8.637c0.039,1.258,0.379,2.225,1.02,2.9
		s1.543,1.014,2.707,1.014c0.766,0,1.479-0.072,2.139-0.217s1.369-0.385,2.127-0.721v2.238c-0.672,0.32-1.352,0.547-2.039,0.68
		S1047.751,401.475,1046.868,401.475z M1046.364,390.131c-0.875,0-1.576,0.277-2.104,0.832s-0.842,1.363-0.943,2.426h5.883
		c-0.016-1.07-0.273-1.881-0.773-2.432S1047.239,390.131,1046.364,390.131z"/>
	<path d="M1061.61,388.045c0.555,0,1.012,0.039,1.371,0.117l-0.27,2.566c-0.391-0.094-0.797-0.141-1.219-0.141
		c-1.102,0-1.994,0.359-2.678,1.078s-1.025,1.652-1.025,2.801v6.773h-2.754v-12.961h2.156l0.363,2.285h0.141
		c0.43-0.773,0.99-1.387,1.682-1.84S1060.813,388.045,1061.61,388.045z"/>
	<path d="M1065.22,384.846c0-0.493,0.135-0.872,0.404-1.137s0.654-0.398,1.154-0.398c0.484,0,0.861,0.133,1.131,0.398
		s0.404,0.645,0.404,1.137c0,0.469-0.135,0.838-0.404,1.107s-0.646,0.404-1.131,0.404c-0.5,0-0.885-0.135-1.154-0.404
		S1065.22,385.314,1065.22,384.846z M1068.138,401.24h-2.754v-12.961h2.754V401.24z"/>
	<path d="M1083.478,401.24h-2.766v-7.969c0-1-0.201-1.746-0.604-2.238s-1.041-0.738-1.916-0.738c-1.164,0-2.016,0.344-2.555,1.031
		s-0.809,1.84-0.809,3.457v6.457h-2.754v-12.961h2.156l0.387,1.699h0.141c0.391-0.617,0.945-1.094,1.664-1.43
		s1.516-0.504,2.391-0.504c3.109,0,4.664,1.582,4.664,4.746V401.24z"/>
	<path d="M1098.255,388.279v1.512l-2.215,0.41c0.203,0.273,0.371,0.609,0.504,1.008s0.199,0.82,0.199,1.266
		c0,1.336-0.461,2.387-1.383,3.152s-2.191,1.148-3.809,1.148c-0.414,0-0.789-0.031-1.125-0.094
		c-0.594,0.367-0.891,0.797-0.891,1.289c0,0.297,0.139,0.52,0.416,0.668s0.787,0.223,1.529,0.223h2.262
		c1.43,0,2.516,0.305,3.258,0.914s1.113,1.488,1.113,2.637c0,1.469-0.605,2.602-1.816,3.398s-2.961,1.195-5.25,1.195
		c-1.766,0-3.113-0.312-4.043-0.938s-1.395-1.516-1.395-2.672c0-0.797,0.252-1.467,0.756-2.01s1.209-0.92,2.115-1.131
		c-0.367-0.156-0.67-0.408-0.908-0.756s-0.357-0.713-0.357-1.096c0-0.484,0.137-0.895,0.41-1.23s0.68-0.668,1.219-0.996
		c-0.672-0.289-1.217-0.76-1.635-1.412s-0.627-1.416-0.627-2.291c0-1.406,0.443-2.496,1.33-3.27s2.15-1.16,3.791-1.16
		c0.367,0,0.752,0.025,1.154,0.076s0.705,0.104,0.908,0.158H1098.255z M1088.071,403.256c0,0.594,0.268,1.051,0.803,1.371
		s1.287,0.48,2.256,0.48c1.5,0,2.617-0.215,3.352-0.645s1.102-1,1.102-1.711c0-0.562-0.201-0.963-0.604-1.201
		s-1.15-0.357-2.244-0.357h-2.086c-0.789,0-1.416,0.186-1.881,0.557S1088.071,402.623,1088.071,403.256z M1089.255,392.475
		c0,0.812,0.209,1.438,0.627,1.875s1.018,0.656,1.799,0.656c1.594,0,2.391-0.852,2.391-2.555c0-0.844-0.197-1.494-0.592-1.951
		s-0.994-0.686-1.799-0.686c-0.797,0-1.4,0.227-1.811,0.68S1089.255,391.607,1089.255,392.475z"/>
	<path d="M1106.728,384.846c0-0.493,0.135-0.872,0.404-1.137s0.654-0.398,1.154-0.398c0.484,0,0.861,0.133,1.131,0.398
		s0.404,0.645,0.404,1.137c0,0.469-0.135,0.838-0.404,1.107s-0.646,0.404-1.131,0.404c-0.5,0-0.885-0.135-1.154-0.404
		S1106.728,385.314,1106.728,384.846z M1109.646,401.24h-2.754v-12.961h2.754V401.24z"/>
	<path d="M1122.29,397.549c0,1.266-0.461,2.236-1.383,2.912s-2.242,1.014-3.961,1.014c-1.727,0-3.113-0.262-4.16-0.785v-2.379
		c1.523,0.703,2.941,1.055,4.254,1.055c1.695,0,2.543-0.512,2.543-1.535c0-0.328-0.094-0.602-0.281-0.82s-0.496-0.445-0.926-0.68
		s-1.027-0.5-1.793-0.797c-1.492-0.578-2.502-1.156-3.029-1.734s-0.791-1.328-0.791-2.25c0-1.109,0.447-1.971,1.342-2.584
		s2.111-0.92,3.65-0.92c1.523,0,2.965,0.309,4.324,0.926l-0.891,2.074c-1.398-0.578-2.574-0.867-3.527-0.867
		c-1.453,0-2.18,0.414-2.18,1.242c0,0.406,0.189,0.75,0.568,1.031s1.205,0.668,2.479,1.16c1.07,0.414,1.848,0.793,2.332,1.137
		s0.844,0.74,1.078,1.189S1122.29,396.924,1122.29,397.549z"/>
	<path d="M1140.208,397.549c0,1.266-0.461,2.236-1.383,2.912s-2.242,1.014-3.961,1.014c-1.727,0-3.113-0.262-4.16-0.785v-2.379
		c1.523,0.703,2.941,1.055,4.254,1.055c1.695,0,2.543-0.512,2.543-1.535c0-0.328-0.094-0.602-0.281-0.82s-0.496-0.445-0.926-0.68
		s-1.027-0.5-1.793-0.797c-1.492-0.578-2.502-1.156-3.029-1.734s-0.791-1.328-0.791-2.25c0-1.109,0.447-1.971,1.342-2.584
		s2.111-0.92,3.65-0.92c1.523,0,2.965,0.309,4.324,0.926l-0.891,2.074c-1.398-0.578-2.574-0.867-3.527-0.867
		c-1.453,0-2.18,0.414-2.18,1.242c0,0.406,0.189,0.75,0.568,1.031s1.205,0.668,2.479,1.16c1.07,0.414,1.848,0.793,2.332,1.137
		s0.844,0.74,1.078,1.189S1140.208,396.924,1140.208,397.549z"/>
	<path d="M1148.845,401.475c-2.016,0-3.592-0.588-4.729-1.764s-1.705-2.795-1.705-4.857c0-2.117,0.527-3.781,1.582-4.992
		s2.504-1.816,4.348-1.816c1.711,0,3.062,0.52,4.055,1.559s1.488,2.469,1.488,4.289v1.488h-8.637c0.039,1.258,0.379,2.225,1.02,2.9
		s1.543,1.014,2.707,1.014c0.766,0,1.479-0.072,2.139-0.217s1.369-0.385,2.127-0.721v2.238c-0.672,0.32-1.352,0.547-2.039,0.68
		S1149.728,401.475,1148.845,401.475z M1148.341,390.131c-0.875,0-1.576,0.277-2.104,0.832s-0.842,1.363-0.943,2.426h5.883
		c-0.016-1.07-0.273-1.881-0.773-2.432S1149.216,390.131,1148.341,390.131z"/>
	<path d="M1168.415,401.24h-2.766v-7.969c0-1-0.201-1.746-0.604-2.238s-1.041-0.738-1.916-0.738c-1.164,0-2.016,0.344-2.555,1.031
		s-0.809,1.84-0.809,3.457v6.457h-2.754v-12.961h2.156l0.387,1.699h0.141c0.391-0.617,0.945-1.094,1.664-1.43
		s1.516-0.504,2.391-0.504c3.109,0,4.664,1.582,4.664,4.746V401.24z"/>
	<path d="M1180.954,397.549c0,1.266-0.461,2.236-1.383,2.912s-2.242,1.014-3.961,1.014c-1.727,0-3.113-0.262-4.16-0.785v-2.379
		c1.523,0.703,2.941,1.055,4.254,1.055c1.695,0,2.543-0.512,2.543-1.535c0-0.328-0.094-0.602-0.281-0.82s-0.496-0.445-0.926-0.68
		s-1.027-0.5-1.793-0.797c-1.492-0.578-2.502-1.156-3.029-1.734s-0.791-1.328-0.791-2.25c0-1.109,0.447-1.971,1.342-2.584
		s2.111-0.92,3.65-0.92c1.523,0,2.965,0.309,4.324,0.926l-0.891,2.074c-1.398-0.578-2.574-0.867-3.527-0.867
		c-1.453,0-2.18,0.414-2.18,1.242c0,0.406,0.189,0.75,0.568,1.031s1.205,0.668,2.479,1.16c1.07,0.414,1.848,0.793,2.332,1.137
		s0.844,0.74,1.078,1.189S1180.954,396.924,1180.954,397.549z"/>
	<path d="M1183.767,384.846c0-0.493,0.135-0.872,0.404-1.137s0.654-0.398,1.154-0.398c0.484,0,0.861,0.133,1.131,0.398
		s0.404,0.645,0.404,1.137c0,0.469-0.135,0.838-0.404,1.107s-0.646,0.404-1.131,0.404c-0.5,0-0.885-0.135-1.154-0.404
		S1183.767,385.314,1183.767,384.846z M1186.685,401.24h-2.754v-12.961h2.754V401.24z"/>
	<path d="M1195.45,399.248c0.672,0,1.344-0.105,2.016-0.316v2.074c-0.305,0.133-0.697,0.244-1.178,0.334s-0.979,0.135-1.494,0.135
		c-2.609,0-3.914-1.375-3.914-4.125v-6.984h-1.77v-1.219l1.898-1.008l0.938-2.742h1.699v2.883h3.691v2.086h-3.691v6.938
		c0,0.664,0.166,1.154,0.498,1.471S1194.911,399.248,1195.45,399.248z"/>
	<path d="M1199.892,384.846c0-0.493,0.135-0.872,0.404-1.137s0.654-0.398,1.154-0.398c0.484,0,0.861,0.133,1.131,0.398
		s0.404,0.645,0.404,1.137c0,0.469-0.135,0.838-0.404,1.107s-0.646,0.404-1.131,0.404c-0.5,0-0.885-0.135-1.154-0.404
		S1199.892,385.314,1199.892,384.846z M1202.81,401.24h-2.754v-12.961h2.754V401.24z"/>
	<path d="M1209.7,401.24l-4.922-12.961h2.906l2.637,7.535c0.453,1.266,0.727,2.289,0.82,3.07h0.094
		c0.07-0.562,0.344-1.586,0.82-3.07l2.637-7.535h2.93l-4.945,12.961H1209.7z"/>
	<path d="M1225.251,401.475c-2.016,0-3.592-0.588-4.729-1.764s-1.705-2.795-1.705-4.857c0-2.117,0.527-3.781,1.582-4.992
		s2.504-1.816,4.348-1.816c1.711,0,3.062,0.52,4.055,1.559s1.488,2.469,1.488,4.289v1.488h-8.637c0.039,1.258,0.379,2.225,1.02,2.9
		s1.543,1.014,2.707,1.014c0.766,0,1.479-0.072,2.139-0.217s1.369-0.385,2.127-0.721v2.238c-0.672,0.32-1.352,0.547-2.039,0.68
		S1226.134,401.475,1225.251,401.475z M1224.747,390.131c-0.875,0-1.576,0.277-2.104,0.832s-0.842,1.363-0.943,2.426h5.883
		c-0.016-1.07-0.273-1.881-0.773-2.432S1225.622,390.131,1224.747,390.131z"/>
	<path d="M898.368,435.248c0.672,0,1.344-0.105,2.016-0.316v2.074c-0.305,0.133-0.697,0.244-1.178,0.334s-0.979,0.135-1.494,0.135
		c-2.609,0-3.914-1.375-3.914-4.125v-6.984h-1.77v-1.219l1.898-1.008l0.938-2.742h1.699v2.883h3.691v2.086h-3.691v6.938
		c0,0.664,0.166,1.154,0.498,1.471S897.829,435.248,898.368,435.248z"/>
	<path d="M914.47,430.736c0,2.117-0.543,3.77-1.629,4.957s-2.598,1.781-4.535,1.781c-1.211,0-2.281-0.273-3.211-0.82
		s-1.645-1.332-2.145-2.355s-0.75-2.211-0.75-3.562c0-2.102,0.539-3.742,1.617-4.922s2.598-1.77,4.559-1.77
		c1.875,0,3.359,0.604,4.453,1.811S914.47,428.689,914.47,430.736z M905.036,430.736c0,2.992,1.105,4.488,3.316,4.488
		c2.188,0,3.281-1.496,3.281-4.488c0-2.961-1.102-4.441-3.305-4.441c-1.156,0-1.994,0.383-2.514,1.148
		S905.036,429.307,905.036,430.736z"/>
	<path d="M935.271,437.24h-2.766v-7.969c0-1-0.201-1.746-0.604-2.238s-1.041-0.738-1.916-0.738c-1.156,0-2.006,0.346-2.549,1.037
		s-0.814,1.85-0.814,3.475v6.434h-2.754v-18.234h2.754v4.629c0,0.742-0.047,1.535-0.141,2.379h0.176
		c0.375-0.625,0.896-1.109,1.564-1.453s1.447-0.516,2.338-0.516c3.141,0,4.711,1.582,4.711,4.746V437.24z"/>
	<path d="M944.763,437.475c-2.016,0-3.592-0.588-4.729-1.764s-1.705-2.795-1.705-4.857c0-2.117,0.527-3.781,1.582-4.992
		s2.504-1.816,4.348-1.816c1.711,0,3.062,0.52,4.055,1.559s1.488,2.469,1.488,4.289v1.488h-8.637c0.039,1.258,0.379,2.225,1.02,2.9
		s1.543,1.014,2.707,1.014c0.766,0,1.479-0.072,2.139-0.217s1.369-0.385,2.127-0.721v2.238c-0.672,0.32-1.352,0.547-2.039,0.68
		S945.646,437.475,944.763,437.475z M944.259,426.131c-0.875,0-1.576,0.277-2.104,0.832s-0.842,1.363-0.943,2.426h5.883
		c-0.016-1.07-0.273-1.881-0.773-2.432S945.134,426.131,944.259,426.131z"/>
	<path d="M962.071,437.24l-0.387-1.699h-0.141c-0.383,0.602-0.928,1.074-1.635,1.418s-1.514,0.516-2.42,0.516
		c-1.57,0-2.742-0.391-3.516-1.172s-1.16-1.965-1.16-3.551v-8.473h2.777v7.992c0,0.992,0.203,1.736,0.609,2.232
		s1.043,0.744,1.91,0.744c1.156,0,2.006-0.346,2.549-1.037s0.814-1.85,0.814-3.475v-6.457h2.766v12.961H962.071z"/>
	<path d="M974.739,424.045c0.555,0,1.012,0.039,1.371,0.117l-0.27,2.566c-0.391-0.094-0.797-0.141-1.219-0.141
		c-1.102,0-1.994,0.359-2.678,1.078s-1.025,1.652-1.025,2.801v6.773h-2.754v-12.961h2.156l0.363,2.285h0.141
		c0.43-0.773,0.99-1.387,1.682-1.84S973.942,424.045,974.739,424.045z"/>
	<path d="M978.349,420.846c0-0.492,0.135-0.871,0.404-1.137s0.654-0.398,1.154-0.398c0.484,0,0.861,0.133,1.131,0.398
		s0.404,0.645,0.404,1.137c0,0.469-0.135,0.838-0.404,1.107s-0.646,0.404-1.131,0.404c-0.5,0-0.885-0.135-1.154-0.404
		S978.349,421.314,978.349,420.846z M981.267,437.24h-2.754v-12.961h2.754V437.24z"/>
	<path d="M993.911,433.549c0,1.266-0.461,2.236-1.383,2.912s-2.242,1.014-3.961,1.014c-1.727,0-3.113-0.262-4.16-0.785v-2.379
		c1.523,0.703,2.941,1.055,4.254,1.055c1.695,0,2.543-0.512,2.543-1.535c0-0.328-0.094-0.602-0.281-0.82s-0.496-0.445-0.926-0.68
		s-1.027-0.5-1.793-0.797c-1.492-0.578-2.502-1.156-3.029-1.734s-0.791-1.328-0.791-2.25c0-1.109,0.447-1.971,1.342-2.584
		s2.111-0.92,3.65-0.92c1.523,0,2.965,0.309,4.324,0.926l-0.891,2.074c-1.398-0.578-2.574-0.867-3.527-0.867
		c-1.453,0-2.18,0.414-2.18,1.242c0,0.406,0.189,0.75,0.568,1.031s1.205,0.668,2.479,1.16c1.07,0.414,1.848,0.793,2.332,1.137
		s0.844,0.74,1.078,1.189S993.911,432.924,993.911,433.549z"/>
	<path d="M1001.716,435.248c0.672,0,1.344-0.105,2.016-0.316v2.074c-0.305,0.133-0.697,0.244-1.178,0.334s-0.979,0.135-1.494,0.135
		c-2.609,0-3.914-1.375-3.914-4.125v-6.984h-1.77v-1.219l1.898-1.008l0.938-2.742h1.699v2.883h3.691v2.086h-3.691v6.938
		c0,0.664,0.166,1.154,0.498,1.471S1001.177,435.248,1001.716,435.248z"/>
	<path d="M1006.157,420.846c0-0.492,0.135-0.871,0.404-1.137s0.654-0.398,1.154-0.398c0.484,0,0.861,0.133,1.131,0.398
		s0.404,0.645,0.404,1.137c0,0.469-0.135,0.838-0.404,1.107s-0.646,0.404-1.131,0.404c-0.5,0-0.885-0.135-1.154-0.404
		S1006.157,421.314,1006.157,420.846z M1009.075,437.24h-2.754v-12.961h2.754V437.24z"/>
	<path d="M1018.239,437.475c-1.961,0-3.451-0.572-4.471-1.717s-1.529-2.787-1.529-4.928c0-2.18,0.533-3.855,1.6-5.027
		s2.607-1.758,4.623-1.758c1.367,0,2.598,0.254,3.691,0.762l-0.832,2.215c-1.164-0.453-2.125-0.68-2.883-0.68
		c-2.242,0-3.363,1.488-3.363,4.465c0,1.453,0.279,2.545,0.838,3.275s1.377,1.096,2.455,1.096c1.227,0,2.387-0.305,3.48-0.914v2.402
		c-0.492,0.289-1.018,0.496-1.576,0.621S1019.036,437.475,1018.239,437.475z"/>
	<path d="M1033.603,433.549c0,1.266-0.461,2.236-1.383,2.912s-2.242,1.014-3.961,1.014c-1.727,0-3.113-0.262-4.16-0.785v-2.379
		c1.523,0.703,2.941,1.055,4.254,1.055c1.695,0,2.543-0.512,2.543-1.535c0-0.328-0.094-0.602-0.281-0.82s-0.496-0.445-0.926-0.68
		s-1.027-0.5-1.793-0.797c-1.492-0.578-2.502-1.156-3.029-1.734s-0.791-1.328-0.791-2.25c0-1.109,0.447-1.971,1.342-2.584
		s2.111-0.92,3.65-0.92c1.523,0,2.965,0.309,4.324,0.926l-0.891,2.074c-1.398-0.578-2.574-0.867-3.527-0.867
		c-1.453,0-2.18,0.414-2.18,1.242c0,0.406,0.189,0.75,0.568,1.031s1.205,0.668,2.479,1.16c1.07,0.414,1.848,0.793,2.332,1.137
		s0.844,0.74,1.078,1.189S1033.603,432.924,1033.603,433.549z"/>
	<path d="M1050.923,437.24l-0.551-1.805h-0.094c-0.625,0.789-1.254,1.326-1.887,1.611s-1.445,0.428-2.438,0.428
		c-1.273,0-2.268-0.344-2.982-1.031s-1.072-1.66-1.072-2.918c0-1.336,0.496-2.344,1.488-3.023s2.504-1.051,4.535-1.113l2.238-0.07
		v-0.691c0-0.828-0.193-1.447-0.58-1.857s-0.986-0.615-1.799-0.615c-0.664,0-1.301,0.098-1.91,0.293s-1.195,0.426-1.758,0.691
		l-0.891-1.969c0.703-0.367,1.473-0.646,2.309-0.838s1.625-0.287,2.367-0.287c1.648,0,2.893,0.359,3.732,1.078
		s1.26,1.848,1.26,3.387v8.73H1050.923z M1046.821,435.365c1,0,1.803-0.279,2.408-0.838s0.908-1.342,0.908-2.35v-1.125l-1.664,0.07
		c-1.297,0.047-2.24,0.264-2.83,0.65s-0.885,0.979-0.885,1.775c0,0.578,0.172,1.025,0.516,1.342S1046.134,435.365,1046.821,435.365z
		"/>
	<path d="M1068.138,437.24h-2.766v-7.969c0-1-0.201-1.746-0.604-2.238s-1.041-0.738-1.916-0.738c-1.164,0-2.016,0.344-2.555,1.031
		s-0.809,1.84-0.809,3.457v6.457h-2.754v-12.961h2.156l0.387,1.699h0.141c0.391-0.617,0.945-1.094,1.664-1.43
		s1.516-0.504,2.391-0.504c3.109,0,4.664,1.582,4.664,4.746V437.24z"/>
	<path d="M1076.341,437.475c-1.617,0-2.879-0.586-3.785-1.758s-1.359-2.816-1.359-4.934c0-2.125,0.459-3.779,1.377-4.963
		s2.189-1.775,3.814-1.775c1.703,0,3,0.629,3.891,1.887h0.141c-0.133-0.93-0.199-1.664-0.199-2.203v-4.723h2.766v18.234h-2.156
		l-0.48-1.699h-0.129C1079.337,436.83,1078.044,437.475,1076.341,437.475z M1077.079,435.248c1.133,0,1.957-0.318,2.473-0.955
		s0.781-1.67,0.797-3.1v-0.387c0-1.633-0.266-2.793-0.797-3.48s-1.363-1.031-2.496-1.031c-0.969,0-1.715,0.393-2.238,1.178
		s-0.785,1.904-0.785,3.357c0,1.438,0.254,2.533,0.762,3.287S1076.063,435.248,1077.079,435.248z"/>
	<path d="M1104.653,430.736c0,2.117-0.543,3.77-1.629,4.957s-2.598,1.781-4.535,1.781c-1.211,0-2.281-0.273-3.211-0.82
		s-1.645-1.332-2.145-2.355s-0.75-2.211-0.75-3.562c0-2.102,0.539-3.742,1.617-4.922s2.598-1.77,4.559-1.77
		c1.875,0,3.359,0.604,4.453,1.811S1104.653,428.689,1104.653,430.736z M1095.22,430.736c0,2.992,1.105,4.488,3.316,4.488
		c2.188,0,3.281-1.496,3.281-4.488c0-2.961-1.102-4.441-3.305-4.441c-1.156,0-1.994,0.383-2.514,1.148
		S1095.22,429.307,1095.22,430.736z"/>
	<path d="M1116.958,437.24l-0.387-1.699h-0.141c-0.383,0.602-0.928,1.074-1.635,1.418s-1.514,0.516-2.42,0.516
		c-1.57,0-2.742-0.391-3.516-1.172s-1.16-1.965-1.16-3.551v-8.473h2.777v7.992c0,0.992,0.203,1.736,0.609,2.232
		s1.043,0.744,1.91,0.744c1.156,0,2.006-0.346,2.549-1.037s0.814-1.85,0.814-3.475v-6.457h2.766v12.961H1116.958z"/>
	<path d="M1127.88,435.248c0.672,0,1.344-0.105,2.016-0.316v2.074c-0.305,0.133-0.697,0.244-1.178,0.334s-0.979,0.135-1.494,0.135
		c-2.609,0-3.914-1.375-3.914-4.125v-6.984h-1.77v-1.219l1.898-1.008l0.938-2.742h1.699v2.883h3.691v2.086h-3.691v6.938
		c0,0.664,0.166,1.154,0.498,1.471S1127.341,435.248,1127.88,435.248z"/>
	<path d="M1139.06,437.475c-1.641,0-2.914-0.59-3.82-1.77h-0.164c0.109,1.094,0.164,1.758,0.164,1.992v5.309h-2.754v-18.727h2.227
		c0.062,0.242,0.191,0.82,0.387,1.734h0.141c0.859-1.312,2.148-1.969,3.867-1.969c1.617,0,2.877,0.586,3.779,1.758
		s1.354,2.816,1.354,4.934s-0.459,3.77-1.377,4.957S1140.677,437.475,1139.06,437.475z M1138.392,426.295
		c-1.094,0-1.893,0.32-2.396,0.961s-0.756,1.664-0.756,3.07v0.41c0,1.578,0.25,2.721,0.75,3.428s1.316,1.061,2.449,1.061
		c0.953,0,1.688-0.391,2.203-1.172s0.773-1.895,0.773-3.34c0-1.453-0.256-2.553-0.768-3.299S1139.384,426.295,1138.392,426.295z"/>
	<path d="M1156.579,437.24l-0.387-1.699h-0.141c-0.383,0.602-0.928,1.074-1.635,1.418s-1.514,0.516-2.42,0.516
		c-1.57,0-2.742-0.391-3.516-1.172s-1.16-1.965-1.16-3.551v-8.473h2.777v7.992c0,0.992,0.203,1.736,0.609,2.232
		s1.043,0.744,1.91,0.744c1.156,0,2.006-0.346,2.549-1.037s0.814-1.85,0.814-3.475v-6.457h2.766v12.961H1156.579z"/>
	<path d="M1167.501,435.248c0.672,0,1.344-0.105,2.016-0.316v2.074c-0.305,0.133-0.697,0.244-1.178,0.334s-0.979,0.135-1.494,0.135
		c-2.609,0-3.914-1.375-3.914-4.125v-6.984h-1.77v-1.219l1.898-1.008l0.938-2.742h1.699v2.883h3.691v2.086h-3.691v6.938
		c0,0.664,0.166,1.154,0.498,1.471S1166.962,435.248,1167.501,435.248z"/>
	<path d="M1180.813,433.549c0,1.266-0.461,2.236-1.383,2.912s-2.242,1.014-3.961,1.014c-1.727,0-3.113-0.262-4.16-0.785v-2.379
		c1.523,0.703,2.941,1.055,4.254,1.055c1.695,0,2.543-0.512,2.543-1.535c0-0.328-0.094-0.602-0.281-0.82s-0.496-0.445-0.926-0.68
		s-1.027-0.5-1.793-0.797c-1.492-0.578-2.502-1.156-3.029-1.734s-0.791-1.328-0.791-2.25c0-1.109,0.447-1.971,1.342-2.584
		s2.111-0.92,3.65-0.92c1.523,0,2.965,0.309,4.324,0.926l-0.891,2.074c-1.398-0.578-2.574-0.867-3.527-0.867
		c-1.453,0-2.18,0.414-2.18,1.242c0,0.406,0.189,0.75,0.568,1.031s1.205,0.668,2.479,1.16c1.07,0.414,1.848,0.793,2.332,1.137
		s0.844,0.74,1.078,1.189S1180.813,432.924,1180.813,433.549z"/>
	<path d="M904.169,473.24l-1.676-6.047c-0.203-0.641-0.57-2.129-1.102-4.465h-0.105c-0.453,2.109-0.812,3.605-1.078,4.488
		l-1.723,6.023h-3.047l-3.633-12.961h2.812l1.652,6.387c0.375,1.578,0.641,2.93,0.797,4.055h0.07
		c0.078-0.57,0.197-1.225,0.357-1.963s0.299-1.291,0.416-1.658l1.969-6.82h3.023l1.91,6.82c0.117,0.383,0.264,0.969,0.439,1.758
		s0.279,1.402,0.311,1.84h0.094c0.117-0.961,0.391-2.305,0.82-4.031l1.676-6.387h2.766l-3.656,12.961H904.169z"/>
	<path d="M912.981,456.846c0-0.492,0.135-0.871,0.404-1.137s0.654-0.398,1.154-0.398c0.484,0,0.861,0.133,1.131,0.398
		s0.404,0.645,0.404,1.137c0,0.469-0.135,0.838-0.404,1.107s-0.646,0.404-1.131,0.404c-0.5,0-0.885-0.135-1.154-0.404
		S912.981,457.314,912.981,456.846z M915.899,473.24h-2.754v-12.961h2.754V473.24z"/>
	<path d="M924.665,471.248c0.672,0,1.344-0.105,2.016-0.316v2.074c-0.305,0.133-0.697,0.244-1.178,0.334s-0.979,0.135-1.494,0.135
		c-2.609,0-3.914-1.375-3.914-4.125v-6.984h-1.77v-1.219l1.898-1.008l0.938-2.742h1.699v2.883h3.691v2.086h-3.691v6.938
		c0,0.664,0.166,1.154,0.498,1.471S924.126,471.248,924.665,471.248z"/>
	<path d="M940.673,473.24h-2.766v-7.969c0-1-0.201-1.746-0.604-2.238s-1.041-0.738-1.916-0.738c-1.156,0-2.006,0.346-2.549,1.037
		s-0.814,1.85-0.814,3.475v6.434h-2.754v-18.234h2.754v4.629c0,0.742-0.047,1.535-0.141,2.379h0.176
		c0.375-0.625,0.896-1.109,1.564-1.453s1.447-0.516,2.338-0.516c3.141,0,4.711,1.582,4.711,4.746V473.24z"/>
	<path d="M953.399,466.396l1.559-1.945l3.914-4.172h3.176l-5.215,5.566l5.543,7.395h-3.234l-4.16-5.684l-1.512,1.242v4.441h-2.73
		v-18.234h2.73v8.895l-0.141,2.496H953.399z"/>
	<path d="M975.864,473.24h-2.766v-7.969c0-1-0.201-1.746-0.604-2.238s-1.041-0.738-1.916-0.738c-1.164,0-2.016,0.344-2.555,1.031
		s-0.809,1.84-0.809,3.457v6.457h-2.754v-12.961h2.156l0.387,1.699h0.141c0.391-0.617,0.945-1.094,1.664-1.43
		s1.516-0.504,2.391-0.504c3.109,0,4.664,1.582,4.664,4.746V473.24z"/>
	<path d="M991.192,466.736c0,2.117-0.543,3.77-1.629,4.957s-2.598,1.781-4.535,1.781c-1.211,0-2.281-0.273-3.211-0.82
		s-1.645-1.332-2.145-2.355s-0.75-2.211-0.75-3.562c0-2.102,0.539-3.742,1.617-4.922s2.598-1.77,4.559-1.77
		c1.875,0,3.359,0.604,4.453,1.811S991.192,464.689,991.192,466.736z M981.759,466.736c0,2.992,1.105,4.488,3.316,4.488
		c2.188,0,3.281-1.496,3.281-4.488c0-2.961-1.102-4.441-3.305-4.441c-1.156,0-1.994,0.383-2.514,1.148
		S981.759,465.307,981.759,466.736z"/>
	<path d="M1004.985,473.24l-1.676-6.047c-0.203-0.641-0.57-2.129-1.102-4.465h-0.105c-0.453,2.109-0.812,3.605-1.078,4.488
		l-1.723,6.023h-3.047l-3.633-12.961h2.812l1.652,6.387c0.375,1.578,0.641,2.93,0.797,4.055h0.07
		c0.078-0.57,0.197-1.225,0.357-1.963s0.299-1.291,0.416-1.658l1.969-6.82h3.023l1.91,6.82c0.117,0.383,0.264,0.969,0.439,1.758
		s0.279,1.402,0.311,1.84h0.094c0.117-0.961,0.391-2.305,0.82-4.031l1.676-6.387h2.766l-3.656,12.961H1004.985z"/>
	<path d="M1025.364,473.24h-2.766v-7.969c0-1-0.201-1.746-0.604-2.238s-1.041-0.738-1.916-0.738c-1.164,0-2.016,0.344-2.555,1.031
		s-0.809,1.84-0.809,3.457v6.457h-2.754v-12.961h2.156l0.387,1.699h0.141c0.391-0.617,0.945-1.094,1.664-1.43
		s1.516-0.504,2.391-0.504c3.109,0,4.664,1.582,4.664,4.746V473.24z"/>
	<path d="M1046.927,466.736c0,2.117-0.543,3.77-1.629,4.957s-2.598,1.781-4.535,1.781c-1.211,0-2.281-0.273-3.211-0.82
		s-1.645-1.332-2.145-2.355s-0.75-2.211-0.75-3.562c0-2.102,0.539-3.742,1.617-4.922s2.598-1.77,4.559-1.77
		c1.875,0,3.359,0.604,4.453,1.811S1046.927,464.689,1046.927,466.736z M1037.493,466.736c0,2.992,1.105,4.488,3.316,4.488
		c2.188,0,3.281-1.496,3.281-4.488c0-2.961-1.102-4.441-3.305-4.441c-1.156,0-1.994,0.383-2.514,1.148
		S1037.493,465.307,1037.493,466.736z"/>
	<path d="M1060.72,473.24l-1.676-6.047c-0.203-0.641-0.57-2.129-1.102-4.465h-0.105c-0.453,2.109-0.812,3.605-1.078,4.488
		l-1.723,6.023h-3.047l-3.633-12.961h2.812l1.652,6.387c0.375,1.578,0.641,2.93,0.797,4.055h0.07
		c0.078-0.57,0.197-1.225,0.357-1.963s0.299-1.291,0.416-1.658l1.969-6.82h3.023l1.91,6.82c0.117,0.383,0.264,0.969,0.439,1.758
		s0.279,1.402,0.311,1.84h0.094c0.117-0.961,0.391-2.305,0.82-4.031l1.676-6.387h2.766l-3.656,12.961H1060.72z"/>
	<path d="M1081.099,473.24h-2.766v-7.969c0-1-0.201-1.746-0.604-2.238s-1.041-0.738-1.916-0.738c-1.164,0-2.016,0.344-2.555,1.031
		s-0.809,1.84-0.809,3.457v6.457h-2.754v-12.961h2.156l0.387,1.699h0.141c0.391-0.617,0.945-1.094,1.664-1.43
		s1.516-0.504,2.391-0.504c3.109,0,4.664,1.582,4.664,4.746V473.24z"/>
	<path d="M1090.591,473.475c-2.016,0-3.592-0.588-4.729-1.764s-1.705-2.795-1.705-4.857c0-2.117,0.527-3.781,1.582-4.992
		s2.504-1.816,4.348-1.816c1.711,0,3.062,0.52,4.055,1.559s1.488,2.469,1.488,4.289v1.488h-8.637c0.039,1.258,0.379,2.225,1.02,2.9
		s1.543,1.014,2.707,1.014c0.766,0,1.479-0.072,2.139-0.217s1.369-0.385,2.127-0.721v2.238c-0.672,0.32-1.352,0.547-2.039,0.68
		S1091.474,473.475,1090.591,473.475z M1090.087,462.131c-0.875,0-1.576,0.277-2.104,0.832s-0.842,1.363-0.943,2.426h5.883
		c-0.016-1.07-0.273-1.881-0.773-2.432S1090.962,462.131,1090.087,462.131z"/>
	<path d="M1105.333,460.045c0.555,0,1.012,0.039,1.371,0.117l-0.27,2.566c-0.391-0.094-0.797-0.141-1.219-0.141
		c-1.102,0-1.994,0.359-2.678,1.078s-1.025,1.652-1.025,2.801v6.773h-2.754v-12.961h2.156l0.363,2.285h0.141
		c0.43-0.773,0.99-1.387,1.682-1.84S1104.536,460.045,1105.333,460.045z"/>
	<path d="M1117.813,469.549c0,1.266-0.461,2.236-1.383,2.912s-2.242,1.014-3.961,1.014c-1.727,0-3.113-0.262-4.16-0.785v-2.379
		c1.523,0.703,2.941,1.055,4.254,1.055c1.695,0,2.543-0.512,2.543-1.535c0-0.328-0.094-0.602-0.281-0.82s-0.496-0.445-0.926-0.68
		s-1.027-0.5-1.793-0.797c-1.492-0.578-2.502-1.156-3.029-1.734s-0.791-1.328-0.791-2.25c0-1.109,0.447-1.971,1.342-2.584
		s2.111-0.92,3.65-0.92c1.523,0,2.965,0.309,4.324,0.926l-0.891,2.074c-1.398-0.578-2.574-0.867-3.527-0.867
		c-1.453,0-2.18,0.414-2.18,1.242c0,0.406,0.189,0.75,0.568,1.031s1.205,0.668,2.479,1.16c1.07,0.414,1.848,0.793,2.332,1.137
		s0.844,0.74,1.078,1.189S1117.813,468.924,1117.813,469.549z"/>
	<path d="M1120.38,471.775c0-0.57,0.148-1.008,0.445-1.312s0.727-0.457,1.289-0.457c0.57,0,1.004,0.158,1.301,0.475
		s0.445,0.748,0.445,1.295c0,0.555-0.15,0.994-0.451,1.318s-0.732,0.486-1.295,0.486s-0.992-0.16-1.289-0.48
		S1120.38,472.338,1120.38,471.775z"/>
</g>
<g>
</g>
<g>
</g>
</svg>
