<?xml version="1.0" encoding="utf-8"?>
<!-- Generator: Adobe Illustrator 16.0.4, SVG Export Plug-In . SVG Version: 6.00 Build 0)  -->
<!DOCTYPE svg PUBLIC "-//W3C//DTD SVG 1.1//EN" "http://www.w3.org/Graphics/SVG/1.1/DTD/svg11.dtd">
<svg version="1.1" id="Layer_1" xmlns="http://www.w3.org/2000/svg" xmlns:xlink="http://www.w3.org/1999/xlink" x="0px" y="0px"
	 width="1366px" height="768px" viewBox="0 0 1366 768" enable-background="new 0 0 1366 768" xml:space="preserve">
<rect fill="#FFFFFF" width="1366" height="768"/>
<g enable-background="new    ">
	<rect x="163.932" y="245.597" fill="none" width="1038.136" height="415.479"/>
	<path fill="#2D4E6E" d="M168.424,247.903h11.108c5.062,0,8.736,0.72,11.023,2.161c2.287,1.44,3.43,3.731,3.43,6.873
		c0,2.132-0.5,3.882-1.501,5.249s-2.332,2.189-3.992,2.466v0.244c2.262,0.505,3.894,1.449,4.895,2.832
		c1.001,1.384,1.501,3.223,1.501,5.518c0,3.255-1.176,5.794-3.528,7.617c-2.352,1.823-5.546,2.734-9.583,2.734h-13.354V247.903z
		 M175.993,262.039h4.395c2.051,0,3.536-0.317,4.456-0.952c0.919-0.635,1.379-1.685,1.379-3.149c0-1.367-0.5-2.348-1.501-2.942
		c-1.001-0.594-2.584-0.891-4.749-0.891h-3.979V262.039z M175.993,268.044v9.302h4.932c2.083,0,3.621-0.398,4.614-1.196
		c0.993-0.797,1.489-2.018,1.489-3.662c0-2.962-2.116-4.443-6.348-4.443H175.993z"/>
	<path fill="#2D4E6E" d="M201.115,249.246c0-2.425,1.351-3.638,4.053-3.638c2.702,0,4.053,1.213,4.053,3.638
		c0,1.156-0.338,2.055-1.013,2.698c-0.676,0.643-1.689,0.964-3.04,0.964C202.465,252.908,201.115,251.687,201.115,249.246z
		 M208.878,283.596h-7.446v-27.295h7.446V283.596z"/>
	<path fill="#2D4E6E" d="M228.19,278.152c1.302,0,2.864-0.285,4.688-0.854v5.542c-1.855,0.83-4.134,1.245-6.836,1.245
		c-2.979,0-5.147-0.752-6.506-2.258c-1.359-1.505-2.039-3.764-2.039-6.775v-13.159h-3.564v-3.149l4.102-2.49l2.148-5.762h4.761
		v5.811h7.642v5.591h-7.642v13.159c0,1.058,0.297,1.839,0.891,2.344C226.428,277.9,227.213,278.152,228.19,278.152z"/>
	<path fill="#2D4E6E" d="M249.479,284.084c-8.496,0-12.744-4.663-12.744-13.989c0-4.639,1.155-8.183,3.467-10.632
		c2.311-2.449,5.623-3.674,9.937-3.674c3.157,0,5.989,0.619,8.496,1.855l-2.197,5.762c-1.172-0.472-2.263-0.858-3.271-1.16
		c-1.009-0.301-2.019-0.452-3.027-0.452c-3.874,0-5.811,2.751-5.811,8.252c0,5.339,1.937,8.008,5.811,8.008
		c1.432,0,2.759-0.191,3.979-0.574c1.221-0.382,2.441-0.98,3.662-1.794v6.372c-1.205,0.765-2.421,1.294-3.65,1.587
		C252.901,283.938,251.351,284.084,249.479,284.084z"/>
	<path fill="#2D4E6E" d="M288.908,269.9c0,4.443-1.172,7.918-3.516,10.425c-2.344,2.507-5.607,3.76-9.79,3.76
		c-2.621,0-4.932-0.574-6.934-1.721s-3.54-2.795-4.614-4.944s-1.611-4.655-1.611-7.52c0-4.459,1.164-7.926,3.491-10.4
		c2.327-2.474,5.599-3.711,9.814-3.711c2.62,0,4.932,0.57,6.934,1.709c2.002,1.14,3.54,2.775,4.614,4.907
		C288.371,264.537,288.908,267.036,288.908,269.9z M270.036,269.9c0,2.702,0.443,4.745,1.331,6.128
		c0.887,1.384,2.332,2.075,4.333,2.075c1.985,0,3.414-0.688,4.285-2.063c0.871-1.375,1.306-3.422,1.306-6.14
		c0-2.702-0.439-4.728-1.318-6.079c-0.879-1.351-2.319-2.026-4.321-2.026c-1.986,0-3.418,0.671-4.297,2.014
		S270.036,267.182,270.036,269.9z"/>
	<path fill="#2D4E6E" d="M294.743,249.246c0-2.425,1.351-3.638,4.053-3.638c2.702,0,4.053,1.213,4.053,3.638
		c0,1.156-0.338,2.055-1.013,2.698c-0.676,0.643-1.689,0.964-3.04,0.964C296.093,252.908,294.743,251.687,294.743,249.246z
		 M302.506,283.596h-7.446v-27.295h7.446V283.596z"/>
	<path fill="#2D4E6E" d="M335.514,283.596h-7.446v-15.942c0-1.969-0.35-3.446-1.05-4.431c-0.7-0.984-1.815-1.477-3.345-1.477
		c-2.083,0-3.589,0.696-4.517,2.087s-1.392,3.699-1.392,6.921v12.842h-7.446v-27.295h5.688l1.001,3.491h0.415
		c0.83-1.318,1.973-2.315,3.43-2.991c1.457-0.675,3.113-1.013,4.968-1.013c3.174,0,5.583,0.859,7.227,2.576
		c1.644,1.717,2.466,4.195,2.466,7.434V283.596z"/>
	<path fill="#2D4E6E" d="M370.524,283.596h-7.568v-29.395h-9.692v-6.299h26.953v6.299h-9.692V283.596z"/>
	<path fill="#2D4E6E" d="M402.458,283.596l-1.44-3.711h-0.195c-1.253,1.579-2.543,2.673-3.87,3.284
		c-1.327,0.61-3.056,0.916-5.188,0.916c-2.621,0-4.684-0.749-6.189-2.246c-1.506-1.497-2.258-3.629-2.258-6.396
		c0-2.897,1.013-5.033,3.04-6.409c2.026-1.375,5.082-2.136,9.167-2.283l4.736-0.146v-1.196c0-2.767-1.416-4.15-4.248-4.15
		c-2.181,0-4.745,0.659-7.69,1.978l-2.466-5.029c3.141-1.644,6.624-2.466,10.449-2.466c3.662,0,6.47,0.798,8.423,2.393
		c1.953,1.595,2.93,4.021,2.93,7.275v18.188H402.458z M400.26,270.95l-2.881,0.098c-2.165,0.065-3.776,0.456-4.834,1.172
		c-1.058,0.716-1.587,1.807-1.587,3.271c0,2.1,1.204,3.149,3.613,3.149c1.725,0,3.104-0.496,4.138-1.489
		c1.033-0.993,1.55-2.311,1.55-3.955V270.95z"/>
	<path fill="#2D4E6E" d="M415.006,249.246c0-2.425,1.351-3.638,4.053-3.638c2.702,0,4.053,1.213,4.053,3.638
		c0,1.156-0.338,2.055-1.013,2.698c-0.676,0.643-1.689,0.964-3.04,0.964C416.357,252.908,415.006,251.687,415.006,249.246z
		 M422.77,283.596h-7.446v-27.295h7.446V283.596z"/>
	<path fill="#2D4E6E" d="M455.778,283.596h-7.446v-15.942c0-1.969-0.35-3.446-1.05-4.431c-0.7-0.984-1.815-1.477-3.345-1.477
		c-2.083,0-3.589,0.696-4.517,2.087s-1.392,3.699-1.392,6.921v12.842h-7.446v-27.295h5.688l1.001,3.491h0.415
		c0.83-1.318,1.973-2.315,3.43-2.991c1.457-0.675,3.113-1.013,4.968-1.013c3.174,0,5.583,0.859,7.227,2.576
		c1.644,1.717,2.466,4.195,2.466,7.434V283.596z"/>
	<path fill="#2D4E6E" d="M474.943,278.152c1.302,0,2.864-0.285,4.688-0.854v5.542c-1.855,0.83-4.134,1.245-6.836,1.245
		c-2.979,0-5.147-0.752-6.506-2.258c-1.359-1.505-2.039-3.764-2.039-6.775v-13.159h-3.564v-3.149l4.102-2.49l2.148-5.762h4.761
		v5.811h7.642v5.591h-7.642v13.159c0,1.058,0.297,1.839,0.891,2.344C473.181,277.9,473.966,278.152,474.943,278.152z"/>
	<path fill="#2D4E6E" d="M176.647,343.596h-3.32v-25.605h-9.043v-2.949h21.406v2.949h-9.043V343.596z"/>
	<path fill="#2D4E6E" d="M204.147,343.596v-13.848c0-1.745-0.397-3.047-1.191-3.906c-0.794-0.859-2.038-1.289-3.73-1.289
		c-2.253,0-3.896,0.612-4.932,1.836c-1.035,1.224-1.553,3.229-1.553,6.016v11.191h-3.242v-30.391h3.242v9.199
		c0,1.107-0.052,2.025-0.156,2.754h0.195c0.638-1.028,1.546-1.839,2.725-2.432c1.178-0.592,2.522-0.889,4.033-0.889
		c2.617,0,4.58,0.622,5.889,1.865c1.309,1.244,1.963,3.22,1.963,5.928v13.965H204.147z"/>
	<path fill="#2D4E6E" d="M223.092,343.987c-3.164,0-5.661-0.963-7.49-2.891c-1.83-1.927-2.744-4.603-2.744-8.027
		c0-3.45,0.85-6.191,2.549-8.223s3.981-3.047,6.846-3.047c2.682,0,4.805,0.882,6.367,2.646c1.562,1.765,2.344,4.092,2.344,6.982
		v2.051h-14.746c0.065,2.513,0.7,4.421,1.904,5.723c1.204,1.302,2.9,1.953,5.088,1.953c2.305,0,4.583-0.481,6.836-1.445v2.891
		c-1.146,0.495-2.23,0.85-3.252,1.064C225.771,343.879,224.538,343.987,223.092,343.987z M222.213,324.514
		c-1.719,0-3.089,0.56-4.111,1.68c-1.022,1.12-1.625,2.669-1.807,4.648h11.191c0-2.044-0.456-3.61-1.367-4.697
		C225.208,325.058,223.906,324.514,222.213,324.514z"/>
	<path fill="#2D4E6E" d="M253.795,341.311c0.573,0,1.126-0.042,1.66-0.127c0.534-0.084,0.957-0.172,1.27-0.264v2.48
		c-0.352,0.169-0.869,0.309-1.553,0.42c-0.684,0.11-1.299,0.166-1.846,0.166c-4.141,0-6.211-2.181-6.211-6.543v-12.734h-3.066
		v-1.562l3.066-1.348l1.367-4.57h1.875v4.961h6.211v2.52h-6.211v12.598c0,1.289,0.306,2.279,0.918,2.969
		C251.888,340.966,252.728,341.311,253.795,341.311z"/>
	<path fill="#2D4E6E" d="M274.167,343.596l-0.645-3.047h-0.156c-1.068,1.341-2.132,2.25-3.193,2.725
		c-1.062,0.475-2.386,0.713-3.975,0.713c-2.123,0-3.786-0.547-4.99-1.641c-1.205-1.094-1.807-2.649-1.807-4.668
		c0-4.323,3.457-6.588,10.371-6.797l3.633-0.117v-1.328c0-1.68-0.361-2.92-1.084-3.721s-1.878-1.201-3.467-1.201
		c-1.784,0-3.802,0.547-6.055,1.641l-0.996-2.48c1.055-0.573,2.21-1.022,3.467-1.348c1.256-0.325,2.516-0.488,3.779-0.488
		c2.552,0,4.443,0.566,5.674,1.699s1.846,2.949,1.846,5.449v14.609H274.167z M266.842,341.311c2.018,0,3.604-0.553,4.756-1.66
		c1.152-1.106,1.729-2.656,1.729-4.648v-1.934l-3.242,0.137c-2.578,0.091-4.437,0.492-5.576,1.201
		c-1.14,0.71-1.709,1.813-1.709,3.311c0,1.172,0.354,2.064,1.064,2.676C264.573,341.005,265.566,341.311,266.842,341.311z"/>
	<path fill="#2D4E6E" d="M282.975,316.389c0-0.742,0.182-1.286,0.547-1.631c0.364-0.345,0.82-0.518,1.367-0.518
		c0.521,0,0.97,0.176,1.348,0.527c0.377,0.352,0.566,0.892,0.566,1.621c0,0.729-0.189,1.273-0.566,1.631
		c-0.378,0.358-0.827,0.537-1.348,0.537c-0.547,0-1.003-0.179-1.367-0.537C283.157,317.662,282.975,317.119,282.975,316.389z
		 M286.491,343.596h-3.242V322.19h3.242V343.596z"/>
	<path fill="#2D4E6E" d="M308.014,343.596v-13.848c0-1.745-0.397-3.047-1.191-3.906c-0.794-0.859-2.038-1.289-3.73-1.289
		c-2.24,0-3.88,0.605-4.922,1.816c-1.042,1.211-1.562,3.21-1.562,5.996v11.23h-3.242V322.19h2.637l0.527,2.93h0.156
		c0.664-1.055,1.595-1.872,2.793-2.451c1.198-0.579,2.532-0.869,4.004-0.869c2.578,0,4.518,0.622,5.82,1.865
		c1.302,1.244,1.953,3.232,1.953,5.967v13.965H308.014z"/>
	<path fill="#2D4E6E" d="M324.831,341.311c0.573,0,1.126-0.042,1.66-0.127c0.534-0.084,0.957-0.172,1.27-0.264v2.48
		c-0.352,0.169-0.869,0.309-1.553,0.42c-0.684,0.11-1.299,0.166-1.846,0.166c-4.141,0-6.211-2.181-6.211-6.543v-12.734h-3.066
		v-1.562l3.066-1.348l1.367-4.57h1.875v4.961h6.211v2.52h-6.211v12.598c0,1.289,0.306,2.279,0.918,2.969
		C322.923,340.966,323.763,341.311,324.831,341.311z"/>
	<path fill="#2D4E6E" d="M360.905,332.874c0,3.49-0.879,6.214-2.637,8.174c-1.758,1.96-4.187,2.939-7.285,2.939
		c-1.914,0-3.613-0.449-5.098-1.348s-2.63-2.188-3.438-3.867c-0.808-1.68-1.211-3.646-1.211-5.898c0-3.489,0.872-6.208,2.617-8.154
		c1.745-1.946,4.167-2.92,7.266-2.92c2.995,0,5.374,0.996,7.139,2.988C360.022,326.78,360.905,329.475,360.905,332.874z
		 M344.596,332.874c0,2.734,0.547,4.818,1.641,6.25c1.094,1.433,2.702,2.148,4.824,2.148c2.122,0,3.733-0.713,4.834-2.139
		c1.1-1.426,1.65-3.512,1.65-6.26c0-2.721-0.55-4.788-1.65-6.201c-1.101-1.413-2.725-2.119-4.873-2.119
		c-2.123,0-3.724,0.697-4.805,2.09C345.136,328.037,344.596,330.113,344.596,332.874z"/>
	<path fill="#2D4E6E" d="M376.237,324.709h-5.449v18.887h-3.242v-18.887h-3.828v-1.465l3.828-1.172v-1.191
		c0-5.26,2.298-7.891,6.895-7.891c1.133,0,2.461,0.228,3.984,0.684l-0.84,2.598c-1.25-0.403-2.318-0.605-3.203-0.605
		c-1.224,0-2.129,0.407-2.715,1.221c-0.586,0.814-0.879,2.119-0.879,3.916v1.387h5.449V324.709z"/>
	<path fill="#2D4E6E" d="M403.698,343.596l-0.645-3.047h-0.156c-1.068,1.341-2.132,2.25-3.193,2.725
		c-1.062,0.475-2.386,0.713-3.975,0.713c-2.123,0-3.786-0.547-4.99-1.641c-1.205-1.094-1.807-2.649-1.807-4.668
		c0-4.323,3.457-6.588,10.371-6.797l3.633-0.117v-1.328c0-1.68-0.361-2.92-1.084-3.721s-1.878-1.201-3.467-1.201
		c-1.784,0-3.802,0.547-6.055,1.641l-0.996-2.48c1.055-0.573,2.21-1.022,3.467-1.348c1.256-0.325,2.516-0.488,3.779-0.488
		c2.552,0,4.443,0.566,5.674,1.699s1.846,2.949,1.846,5.449v14.609H403.698z M396.374,341.311c2.018,0,3.604-0.553,4.756-1.66
		c1.152-1.106,1.729-2.656,1.729-4.648v-1.934l-3.242,0.137c-2.578,0.091-4.437,0.492-5.576,1.201
		c-1.14,0.71-1.709,1.813-1.709,3.311c0,1.172,0.354,2.064,1.064,2.676C394.104,341.005,395.097,341.311,396.374,341.311z"/>
	<path fill="#2D4E6E" d="M423.659,315.042h8.066c3.789,0,6.53,0.566,8.223,1.699c1.692,1.133,2.539,2.923,2.539,5.371
		c0,1.693-0.472,3.089-1.416,4.189c-0.944,1.101-2.321,1.813-4.131,2.139v0.195c4.336,0.742,6.504,3.021,6.504,6.836
		c0,2.552-0.863,4.544-2.588,5.977c-1.726,1.433-4.138,2.148-7.236,2.148h-9.961V315.042z M426.979,327.268h5.469
		c2.344,0,4.03-0.368,5.059-1.104c1.028-0.735,1.543-1.976,1.543-3.721c0-1.602-0.573-2.757-1.719-3.467
		c-1.146-0.709-2.969-1.064-5.469-1.064h-4.883V327.268z M426.979,330.081v10.684h5.957c2.305,0,4.04-0.446,5.205-1.338
		c1.165-0.892,1.748-2.288,1.748-4.189c0-1.771-0.596-3.073-1.787-3.906c-1.191-0.833-3.005-1.25-5.439-1.25H426.979z"/>
	<path fill="#2D4E6E" d="M448.815,316.389c0-0.742,0.182-1.286,0.547-1.631c0.364-0.345,0.82-0.518,1.367-0.518
		c0.521,0,0.97,0.176,1.348,0.527c0.377,0.352,0.566,0.892,0.566,1.621c0,0.729-0.189,1.273-0.566,1.631
		c-0.378,0.358-0.827,0.537-1.348,0.537c-0.547,0-1.003-0.179-1.367-0.537C448.997,317.662,448.815,317.119,448.815,316.389z
		 M452.331,343.596h-3.242V322.19h3.242V343.596z"/>
	<path fill="#2D4E6E" d="M466.12,341.311c0.573,0,1.126-0.042,1.66-0.127c0.534-0.084,0.957-0.172,1.27-0.264v2.48
		c-0.352,0.169-0.869,0.309-1.553,0.42c-0.684,0.11-1.299,0.166-1.846,0.166c-4.141,0-6.211-2.181-6.211-6.543v-12.734h-3.066
		v-1.562l3.066-1.348l1.367-4.57h1.875v4.961h6.211v2.52h-6.211v12.598c0,1.289,0.306,2.279,0.918,2.969
		C464.212,340.966,465.052,341.311,466.12,341.311z"/>
	<path fill="#2D4E6E" d="M481.881,343.987c-3.099,0-5.498-0.954-7.197-2.861c-1.699-1.907-2.549-4.606-2.549-8.096
		c0-3.581,0.862-6.348,2.588-8.301c1.725-1.953,4.183-2.93,7.373-2.93c1.028,0,2.057,0.111,3.086,0.332
		c1.028,0.222,1.836,0.482,2.422,0.781l-0.996,2.754c-0.716-0.286-1.498-0.524-2.344-0.713c-0.847-0.188-1.595-0.283-2.246-0.283
		c-4.349,0-6.523,2.773-6.523,8.32c0,2.63,0.53,4.648,1.592,6.055c1.061,1.406,2.633,2.109,4.717,2.109
		c1.784,0,3.613-0.384,5.488-1.152v2.871C485.859,343.616,484.056,343.987,481.881,343.987z"/>
	<path fill="#2D4E6E" d="M510.846,332.874c0,3.49-0.879,6.214-2.637,8.174c-1.758,1.96-4.187,2.939-7.285,2.939
		c-1.914,0-3.613-0.449-5.098-1.348s-2.63-2.188-3.438-3.867c-0.808-1.68-1.211-3.646-1.211-5.898c0-3.489,0.872-6.208,2.617-8.154
		c1.745-1.946,4.167-2.92,7.266-2.92c2.995,0,5.374,0.996,7.139,2.988C509.964,326.78,510.846,329.475,510.846,332.874z
		 M494.538,332.874c0,2.734,0.547,4.818,1.641,6.25c1.094,1.433,2.702,2.148,4.824,2.148c2.122,0,3.733-0.713,4.834-2.139
		c1.1-1.426,1.65-3.512,1.65-6.26c0-2.721-0.55-4.788-1.65-6.201c-1.101-1.413-2.725-2.119-4.873-2.119
		c-2.123,0-3.724,0.697-4.805,2.09C495.078,328.037,494.538,330.113,494.538,332.874z"/>
	<path fill="#2D4E6E" d="M516.256,316.389c0-0.742,0.182-1.286,0.547-1.631c0.364-0.345,0.82-0.518,1.367-0.518
		c0.521,0,0.97,0.176,1.348,0.527c0.377,0.352,0.566,0.892,0.566,1.621c0,0.729-0.189,1.273-0.566,1.631
		c-0.378,0.358-0.827,0.537-1.348,0.537c-0.547,0-1.003-0.179-1.367-0.537C516.438,317.662,516.256,317.119,516.256,316.389z
		 M519.772,343.596h-3.242V322.19h3.242V343.596z"/>
	<path fill="#2D4E6E" d="M541.295,343.596v-13.848c0-1.745-0.397-3.047-1.191-3.906c-0.794-0.859-2.038-1.289-3.73-1.289
		c-2.24,0-3.88,0.605-4.922,1.816c-1.042,1.211-1.562,3.21-1.562,5.996v11.23h-3.242V322.19h2.637l0.527,2.93h0.156
		c0.664-1.055,1.595-1.872,2.793-2.451c1.198-0.579,2.532-0.869,4.004-0.869c2.578,0,4.518,0.622,5.82,1.865
		c1.302,1.244,1.953,3.232,1.953,5.967v13.965H541.295z"/>
	<path fill="#2D4E6E" d="M580.065,332.874c0,3.49-0.879,6.214-2.637,8.174c-1.758,1.96-4.187,2.939-7.285,2.939
		c-1.914,0-3.613-0.449-5.098-1.348s-2.63-2.188-3.438-3.867c-0.808-1.68-1.211-3.646-1.211-5.898c0-3.489,0.872-6.208,2.617-8.154
		c1.745-1.946,4.167-2.92,7.266-2.92c2.995,0,5.374,0.996,7.139,2.988C579.183,326.78,580.065,329.475,580.065,332.874z
		 M563.756,332.874c0,2.734,0.547,4.818,1.641,6.25c1.094,1.433,2.702,2.148,4.824,2.148c2.122,0,3.733-0.713,4.834-2.139
		c1.1-1.426,1.65-3.512,1.65-6.26c0-2.721-0.55-4.788-1.65-6.201c-1.101-1.413-2.725-2.119-4.873-2.119
		c-2.123,0-3.724,0.697-4.805,2.09C564.296,328.037,563.756,330.113,563.756,332.874z"/>
	<path fill="#2D4E6E" d="M588.795,322.19v13.887c0,1.745,0.397,3.047,1.191,3.906c0.794,0.859,2.038,1.289,3.73,1.289
		c2.239,0,3.877-0.612,4.912-1.836c1.035-1.224,1.553-3.223,1.553-5.996v-11.25h3.242v21.406h-2.676l-0.469-2.871h-0.176
		c-0.664,1.055-1.585,1.862-2.764,2.422c-1.179,0.56-2.523,0.84-4.033,0.84c-2.604,0-4.554-0.618-5.85-1.855
		c-1.296-1.237-1.943-3.216-1.943-5.938V322.19H588.795z"/>
	<path fill="#2D4E6E" d="M617.213,341.311c0.573,0,1.126-0.042,1.66-0.127c0.534-0.084,0.957-0.172,1.27-0.264v2.48
		c-0.352,0.169-0.869,0.309-1.553,0.42c-0.684,0.11-1.299,0.166-1.846,0.166c-4.141,0-6.211-2.181-6.211-6.543v-12.734h-3.066
		v-1.562l3.066-1.348l1.367-4.57h1.875v4.961h6.211v2.52h-6.211v12.598c0,1.289,0.306,2.279,0.918,2.969
		C615.306,340.966,616.146,341.311,617.213,341.311z"/>
	<path fill="#2D4E6E" d="M634.381,343.987c-1.394,0-2.666-0.257-3.818-0.771s-2.119-1.305-2.9-2.373h-0.234
		c0.156,1.25,0.234,2.435,0.234,3.555v8.809h-3.242V322.19h2.637l0.449,2.93h0.156c0.833-1.172,1.803-2.018,2.91-2.539
		c1.106-0.521,2.376-0.781,3.809-0.781c2.838,0,5.029,0.97,6.572,2.91c1.543,1.94,2.314,4.662,2.314,8.164
		c0,3.516-0.785,6.247-2.354,8.193C639.345,343.014,637.167,343.987,634.381,343.987z M633.913,324.553
		c-2.188,0-3.77,0.605-4.746,1.816s-1.478,3.138-1.504,5.781v0.723c0,3.008,0.501,5.16,1.504,6.455
		c1.002,1.296,2.61,1.943,4.824,1.943c1.849,0,3.297-0.749,4.346-2.246c1.048-1.497,1.572-3.561,1.572-6.191
		c0-2.669-0.524-4.717-1.572-6.143C637.288,325.266,635.813,324.553,633.913,324.553z"/>
	<path fill="#2D4E6E" d="M651.979,322.19v13.887c0,1.745,0.397,3.047,1.191,3.906c0.794,0.859,2.038,1.289,3.73,1.289
		c2.239,0,3.877-0.612,4.912-1.836c1.035-1.224,1.553-3.223,1.553-5.996v-11.25h3.242v21.406h-2.676l-0.469-2.871h-0.176
		c-0.664,1.055-1.585,1.862-2.764,2.422c-1.179,0.56-2.523,0.84-4.033,0.84c-2.604,0-4.554-0.618-5.85-1.855
		c-1.296-1.237-1.943-3.216-1.943-5.938V322.19H651.979z"/>
	<path fill="#2D4E6E" d="M680.397,341.311c0.573,0,1.126-0.042,1.66-0.127c0.534-0.084,0.957-0.172,1.27-0.264v2.48
		c-0.352,0.169-0.869,0.309-1.553,0.42c-0.684,0.11-1.299,0.166-1.846,0.166c-4.141,0-6.211-2.181-6.211-6.543v-12.734h-3.066
		v-1.562l3.066-1.348l1.367-4.57h1.875v4.961h6.211v2.52h-6.211v12.598c0,1.289,0.306,2.279,0.918,2.969
		C678.489,340.966,679.329,341.311,680.397,341.311z"/>
	<path fill="#2D4E6E" d="M697.721,316.389c0-0.742,0.183-1.286,0.547-1.631c0.365-0.345,0.82-0.518,1.367-0.518
		c0.521,0,0.971,0.176,1.348,0.527c0.378,0.352,0.566,0.892,0.566,1.621c0,0.729-0.188,1.273-0.566,1.631
		c-0.377,0.358-0.826,0.537-1.348,0.537c-0.547,0-1.002-0.179-1.367-0.537C697.903,317.662,697.721,317.119,697.721,316.389z
		 M701.236,343.596h-3.242V322.19h3.242V343.596z"/>
	<path fill="#2D4E6E" d="M721.92,337.756c0,1.992-0.742,3.529-2.227,4.609c-1.484,1.081-3.567,1.621-6.25,1.621
		c-2.838,0-5.052-0.449-6.641-1.348v-3.008c1.029,0.521,2.133,0.931,3.311,1.23c1.179,0.3,2.314,0.449,3.408,0.449
		c1.693,0,2.995-0.27,3.906-0.811c0.912-0.54,1.367-1.364,1.367-2.471c0-0.833-0.361-1.546-1.084-2.139
		c-0.723-0.592-2.132-1.292-4.229-2.1c-1.992-0.742-3.408-1.39-4.248-1.943c-0.84-0.553-1.465-1.182-1.875-1.885
		s-0.615-1.543-0.615-2.52c0-1.745,0.71-3.122,2.129-4.131c1.42-1.009,3.366-1.514,5.84-1.514c2.305,0,4.558,0.469,6.758,1.406
		l-1.152,2.637c-2.148-0.885-4.095-1.328-5.84-1.328c-1.536,0-2.695,0.241-3.477,0.723c-0.781,0.482-1.172,1.146-1.172,1.992
		c0,0.573,0.146,1.062,0.439,1.465c0.293,0.404,0.766,0.788,1.416,1.152c0.651,0.365,1.901,0.892,3.75,1.582
		c2.539,0.925,4.255,1.855,5.146,2.793C721.475,335.159,721.92,336.337,721.92,337.756z"/>
	<path fill="#2D4E6E" d="M744.498,341.311c0.573,0,1.127-0.042,1.66-0.127c0.534-0.084,0.957-0.172,1.27-0.264v2.48
		c-0.352,0.169-0.869,0.309-1.553,0.42c-0.684,0.11-1.299,0.166-1.846,0.166c-4.141,0-6.211-2.181-6.211-6.543v-12.734h-3.066
		v-1.562l3.066-1.348l1.367-4.57h1.875v4.961h6.211v2.52h-6.211v12.598c0,1.289,0.307,2.279,0.918,2.969
		C742.591,340.966,743.431,341.311,744.498,341.311z"/>
	<path fill="#2D4E6E" d="M766.354,343.596v-13.848c0-1.745-0.396-3.047-1.191-3.906c-0.794-0.859-2.037-1.289-3.73-1.289
		c-2.252,0-3.896,0.612-4.932,1.836c-1.035,1.224-1.553,3.229-1.553,6.016v11.191h-3.242v-30.391h3.242v9.199
		c0,1.107-0.052,2.025-0.156,2.754h0.195c0.639-1.028,1.547-1.839,2.725-2.432c1.179-0.592,2.523-0.889,4.033-0.889
		c2.617,0,4.58,0.622,5.889,1.865c1.309,1.244,1.963,3.22,1.963,5.928v13.965H766.354z"/>
	<path fill="#2D4E6E" d="M785.299,343.987c-3.164,0-5.66-0.963-7.49-2.891c-1.829-1.927-2.744-4.603-2.744-8.027
		c0-3.45,0.85-6.191,2.549-8.223s3.981-3.047,6.846-3.047c2.683,0,4.805,0.882,6.367,2.646c1.562,1.765,2.344,4.092,2.344,6.982
		v2.051h-14.746c0.065,2.513,0.7,4.421,1.904,5.723c1.205,1.302,2.9,1.953,5.088,1.953c2.305,0,4.584-0.481,6.836-1.445v2.891
		c-1.146,0.495-2.229,0.85-3.252,1.064C787.979,343.879,786.744,343.987,785.299,343.987z M784.42,324.514
		c-1.719,0-3.089,0.56-4.111,1.68c-1.021,1.12-1.624,2.669-1.807,4.648h11.191c0-2.044-0.455-3.61-1.367-4.697
		C787.415,325.058,786.113,324.514,784.42,324.514z"/>
	<path fill="#2D4E6E" d="M827.564,332.874c0,3.49-0.879,6.214-2.637,8.174c-1.758,1.96-4.186,2.939-7.285,2.939
		c-1.914,0-3.613-0.449-5.098-1.348s-2.629-2.188-3.438-3.867c-0.807-1.68-1.211-3.646-1.211-5.898c0-3.489,0.873-6.208,2.617-8.154
		c1.746-1.946,4.168-2.92,7.266-2.92c2.996,0,5.375,0.996,7.139,2.988C826.684,326.78,827.564,329.475,827.564,332.874z
		 M811.256,332.874c0,2.734,0.547,4.818,1.641,6.25c1.094,1.433,2.703,2.148,4.824,2.148c2.123,0,3.734-0.713,4.834-2.139
		c1.102-1.426,1.65-3.512,1.65-6.26c0-2.721-0.549-4.788-1.65-6.201c-1.1-1.413-2.725-2.119-4.873-2.119
		c-2.121,0-3.723,0.697-4.805,2.09C811.797,328.037,811.256,330.113,811.256,332.874z"/>
	<path fill="#2D4E6E" d="M850.729,343.596l-3.926-12.559c-0.246-0.768-0.709-2.513-1.387-5.234h-0.156
		c-0.52,2.279-0.977,4.037-1.367,5.273l-4.043,12.52h-3.75l-5.84-21.406h3.398c1.381,5.378,2.432,9.473,3.154,12.285
		s1.137,4.707,1.24,5.684h0.156c0.145-0.742,0.375-1.702,0.693-2.881c0.32-1.178,0.596-2.112,0.83-2.803l3.926-12.285h3.516
		l3.828,12.285c0.73,2.24,1.225,4.121,1.484,5.645h0.156c0.053-0.469,0.193-1.191,0.42-2.168c0.229-0.977,1.586-6.23,4.072-15.762
		h3.359l-5.918,21.406H850.729z"/>
	<path fill="#2D4E6E" d="M879.01,343.596v-13.848c0-1.745-0.396-3.047-1.191-3.906c-0.793-0.859-2.037-1.289-3.73-1.289
		c-2.238,0-3.879,0.605-4.922,1.816c-1.041,1.211-1.562,3.21-1.562,5.996v11.23h-3.242V322.19h2.637l0.527,2.93h0.156
		c0.664-1.055,1.596-1.872,2.793-2.451c1.199-0.579,2.533-0.869,4.004-0.869c2.578,0,4.52,0.622,5.82,1.865
		c1.303,1.244,1.953,3.232,1.953,5.967v13.965H879.01z"/>
	<path fill="#2D4E6E" d="M897.955,343.987c-3.164,0-5.66-0.963-7.49-2.891c-1.828-1.927-2.744-4.603-2.744-8.027
		c0-3.45,0.85-6.191,2.549-8.223s3.982-3.047,6.846-3.047c2.684,0,4.805,0.882,6.367,2.646c1.562,1.765,2.344,4.092,2.344,6.982
		v2.051H891.08c0.066,2.513,0.701,4.421,1.904,5.723c1.205,1.302,2.9,1.953,5.088,1.953c2.305,0,4.584-0.481,6.836-1.445v2.891
		c-1.145,0.495-2.229,0.85-3.252,1.064C900.635,343.879,899.4,343.987,897.955,343.987z M897.076,324.514
		c-1.719,0-3.088,0.56-4.111,1.68c-1.021,1.12-1.623,2.669-1.807,4.648h11.191c0-2.044-0.455-3.61-1.367-4.697
		C900.072,325.058,898.77,324.514,897.076,324.514z"/>
	<path fill="#2D4E6E" d="M921.119,321.799c0.951,0,1.805,0.078,2.559,0.234l-0.449,3.008c-0.885-0.195-1.666-0.293-2.344-0.293
		c-1.73,0-3.213,0.703-4.443,2.109s-1.846,3.158-1.846,5.254v11.484h-3.242V322.19h2.676l0.371,3.965h0.156
		c0.795-1.393,1.752-2.467,2.871-3.223C918.549,322.177,919.779,321.799,921.119,321.799z"/>
	<path fill="#2D4E6E" d="M941.49,337.756c0,1.992-0.742,3.529-2.227,4.609c-1.484,1.081-3.566,1.621-6.25,1.621
		c-2.838,0-5.051-0.449-6.641-1.348v-3.008c1.029,0.521,2.133,0.931,3.311,1.23c1.18,0.3,2.314,0.449,3.408,0.449
		c1.693,0,2.996-0.27,3.906-0.811c0.912-0.54,1.367-1.364,1.367-2.471c0-0.833-0.361-1.546-1.084-2.139
		c-0.723-0.592-2.131-1.292-4.229-2.1c-1.992-0.742-3.408-1.39-4.248-1.943c-0.84-0.553-1.465-1.182-1.875-1.885
		s-0.615-1.543-0.615-2.52c0-1.745,0.711-3.122,2.129-4.131c1.42-1.009,3.367-1.514,5.84-1.514c2.305,0,4.559,0.469,6.758,1.406
		l-1.152,2.637c-2.148-0.885-4.094-1.328-5.84-1.328c-1.535,0-2.695,0.241-3.477,0.723c-0.781,0.482-1.172,1.146-1.172,1.992
		c0,0.573,0.146,1.062,0.439,1.465c0.293,0.404,0.766,0.788,1.416,1.152c0.652,0.365,1.902,0.892,3.75,1.582
		c2.539,0.925,4.256,1.855,5.146,2.793C941.045,335.159,941.49,336.337,941.49,337.756z"/>
	<path fill="#2D4E6E" d="M961.412,343.596v-13.848c0-1.745-0.396-3.047-1.191-3.906c-0.793-0.859-2.037-1.289-3.73-1.289
		c-2.252,0-3.896,0.612-4.932,1.836c-1.035,1.224-1.553,3.229-1.553,6.016v11.191h-3.242v-30.391h3.242v9.199
		c0,1.107-0.051,2.025-0.156,2.754h0.195c0.639-1.028,1.547-1.839,2.725-2.432c1.18-0.592,2.523-0.889,4.033-0.889
		c2.617,0,4.58,0.622,5.889,1.865c1.309,1.244,1.963,3.22,1.963,5.928v13.965H961.412z"/>
	<path fill="#2D4E6E" d="M971.041,316.389c0-0.742,0.184-1.286,0.547-1.631c0.365-0.345,0.82-0.518,1.367-0.518
		c0.521,0,0.971,0.176,1.348,0.527c0.379,0.352,0.566,0.892,0.566,1.621c0,0.729-0.188,1.273-0.566,1.631
		c-0.377,0.358-0.826,0.537-1.348,0.537c-0.547,0-1.002-0.179-1.367-0.537C971.225,317.662,971.041,317.119,971.041,316.389z
		 M974.557,343.596h-3.242V322.19h3.242V343.596z"/>
	<path fill="#2D4E6E" d="M991.393,343.987c-1.393,0-2.666-0.257-3.818-0.771s-2.119-1.305-2.9-2.373h-0.234
		c0.156,1.25,0.234,2.435,0.234,3.555v8.809h-3.242V322.19h2.637l0.449,2.93h0.156c0.834-1.172,1.805-2.018,2.91-2.539
		c1.107-0.521,2.377-0.781,3.809-0.781c2.84,0,5.029,0.97,6.572,2.91c1.543,1.94,2.314,4.662,2.314,8.164
		c0,3.516-0.783,6.247-2.354,8.193C996.357,343.014,994.18,343.987,991.393,343.987z M990.924,324.553
		c-2.188,0-3.77,0.605-4.746,1.816s-1.477,3.138-1.504,5.781v0.723c0,3.008,0.502,5.16,1.504,6.455
		c1.004,1.296,2.611,1.943,4.824,1.943c1.85,0,3.299-0.749,4.346-2.246c1.049-1.497,1.572-3.561,1.572-6.191
		c0-2.669-0.523-4.717-1.572-6.143C994.301,325.266,992.826,324.553,990.924,324.553z"/>
	<path fill="#2D4E6E" d="M177.331,403.986c-1.394,0-2.666-0.256-3.818-0.771c-1.152-0.514-2.119-1.305-2.9-2.373h-0.234
		c0.156,1.25,0.234,2.436,0.234,3.555v8.809h-3.242V382.19h2.637l0.449,2.929h0.156c0.833-1.171,1.803-2.018,2.91-2.539
		c1.106-0.521,2.376-0.781,3.809-0.781c2.838,0,5.029,0.97,6.572,2.91c1.543,1.941,2.314,4.662,2.314,8.164
		c0,3.516-0.785,6.248-2.354,8.193C182.294,403.014,180.117,403.986,177.331,403.986z M176.862,384.553
		c-2.188,0-3.77,0.605-4.746,1.816s-1.478,3.139-1.504,5.781v0.723c0,3.008,0.501,5.16,1.504,6.455
		c1.002,1.297,2.61,1.943,4.824,1.943c1.849,0,3.297-0.748,4.346-2.246c1.048-1.496,1.572-3.561,1.572-6.191
		c0-2.668-0.524-4.717-1.572-6.143C180.237,385.266,178.763,384.553,176.862,384.553z"/>
	<path fill="#2D4E6E" d="M201.647,381.799c0.95,0,1.803,0.078,2.559,0.234l-0.449,3.007c-0.886-0.195-1.667-0.293-2.344-0.293
		c-1.732,0-3.213,0.703-4.443,2.109s-1.846,3.158-1.846,5.254v11.484h-3.242V382.19h2.676l0.371,3.964h0.156
		c0.794-1.393,1.751-2.467,2.871-3.222C199.075,382.177,200.306,381.799,201.647,381.799z"/>
	<path fill="#2D4E6E" d="M226.686,392.873c0,3.49-0.879,6.215-2.637,8.174c-1.758,1.961-4.187,2.939-7.285,2.939
		c-1.914,0-3.613-0.449-5.098-1.348s-2.63-2.188-3.438-3.867c-0.808-1.68-1.211-3.645-1.211-5.898c0-3.488,0.872-6.207,2.617-8.154
		c1.745-1.946,4.167-2.919,7.266-2.919c2.995,0,5.374,0.996,7.139,2.988C225.804,386.779,226.686,389.475,226.686,392.873z
		 M210.377,392.873c0,2.734,0.547,4.818,1.641,6.25c1.094,1.434,2.702,2.148,4.824,2.148c2.122,0,3.733-0.713,4.834-2.139
		c1.1-1.426,1.65-3.512,1.65-6.26c0-2.721-0.55-4.787-1.65-6.201c-1.101-1.412-2.725-2.119-4.873-2.119
		c-2.123,0-3.724,0.697-4.805,2.09C210.917,388.037,210.377,390.113,210.377,392.873z"/>
	<path fill="#2D4E6E" d="M242.331,381.838c2.812,0,4.997,0.96,6.553,2.88c1.556,1.922,2.334,4.639,2.334,8.154
		s-0.785,6.248-2.354,8.193c-1.569,1.947-3.747,2.92-6.533,2.92c-1.394,0-2.666-0.256-3.818-0.771
		c-1.152-0.514-2.119-1.305-2.9-2.373h-0.234l-0.684,2.754h-2.324v-30.39h3.242v7.383c0,1.653-0.052,3.138-0.156,4.453h0.156
		C237.122,382.906,239.362,381.838,242.331,381.838z M241.862,384.553c-2.214,0-3.809,0.635-4.785,1.904s-1.465,3.408-1.465,6.416
		s0.501,5.16,1.504,6.455c1.002,1.297,2.61,1.943,4.824,1.943c1.992,0,3.477-0.725,4.453-2.178c0.977-1.451,1.465-3.537,1.465-6.26
		c0-2.785-0.488-4.863-1.465-6.23S243.906,384.553,241.862,384.553z"/>
	<path fill="#2D4E6E" d="M270.045,403.596l-0.645-3.047h-0.156c-1.068,1.342-2.132,2.25-3.193,2.725
		c-1.062,0.477-2.386,0.713-3.975,0.713c-2.123,0-3.786-0.547-4.99-1.641c-1.205-1.094-1.807-2.648-1.807-4.668
		c0-4.322,3.457-6.588,10.371-6.797l3.633-0.117v-1.328c0-1.68-0.361-2.92-1.084-3.721s-1.878-1.201-3.467-1.201
		c-1.784,0-3.802,0.547-6.055,1.641l-0.996-2.48c1.055-0.573,2.21-1.022,3.467-1.348c1.256-0.325,2.516-0.488,3.779-0.488
		c2.552,0,4.443,0.566,5.674,1.699c1.23,1.132,1.846,2.949,1.846,5.449v14.609H270.045z M262.721,401.311
		c2.018,0,3.604-0.553,4.756-1.66c1.152-1.105,1.729-2.656,1.729-4.648v-1.934l-3.242,0.137c-2.578,0.092-4.437,0.492-5.576,1.201
		c-1.14,0.711-1.709,1.814-1.709,3.311c0,1.172,0.354,2.064,1.064,2.676C260.452,401.006,261.445,401.311,262.721,401.311z"/>
	<path fill="#2D4E6E" d="M289.088,381.838c2.812,0,4.997,0.96,6.553,2.88c1.556,1.922,2.334,4.639,2.334,8.154
		s-0.785,6.248-2.354,8.193c-1.569,1.947-3.747,2.92-6.533,2.92c-1.394,0-2.666-0.256-3.818-0.771
		c-1.152-0.514-2.119-1.305-2.9-2.373h-0.234l-0.684,2.754h-2.324v-30.39h3.242v7.383c0,1.653-0.052,3.138-0.156,4.453h0.156
		C283.88,382.906,286.12,381.838,289.088,381.838z M288.62,384.553c-2.214,0-3.809,0.635-4.785,1.904s-1.465,3.408-1.465,6.416
		s0.501,5.16,1.504,6.455c1.002,1.297,2.61,1.943,4.824,1.943c1.992,0,3.477-0.725,4.453-2.178c0.977-1.451,1.465-3.537,1.465-6.26
		c0-2.785-0.488-4.863-1.465-6.23S290.664,384.553,288.62,384.553z"/>
	<path fill="#2D4E6E" d="M303.366,376.389c0-0.742,0.182-1.286,0.547-1.631c0.364-0.345,0.82-0.518,1.367-0.518
		c0.521,0,0.97,0.176,1.348,0.527c0.377,0.352,0.566,0.892,0.566,1.621s-0.189,1.272-0.566,1.631
		c-0.378,0.358-0.827,0.537-1.348,0.537c-0.547,0-1.003-0.179-1.367-0.537C303.548,377.662,303.366,377.119,303.366,376.389z
		 M306.881,403.596h-3.242V382.19h3.242V403.596z"/>
	<path fill="#2D4E6E" d="M316.999,403.596h-3.242v-30.39h3.242V403.596z"/>
	<path fill="#2D4E6E" d="M323.6,376.389c0-0.742,0.182-1.286,0.547-1.631c0.364-0.345,0.82-0.518,1.367-0.518
		c0.521,0,0.97,0.176,1.348,0.527c0.377,0.352,0.566,0.892,0.566,1.621s-0.189,1.272-0.566,1.631
		c-0.378,0.358-0.827,0.537-1.348,0.537c-0.547,0-1.003-0.179-1.367-0.537C323.782,377.662,323.6,377.119,323.6,376.389z
		 M327.116,403.596h-3.242V382.19h3.242V403.596z"/>
	<path fill="#2D4E6E" d="M340.905,401.311c0.573,0,1.126-0.041,1.66-0.127c0.534-0.084,0.957-0.172,1.27-0.264v2.48
		c-0.352,0.17-0.869,0.311-1.553,0.42c-0.684,0.111-1.299,0.166-1.846,0.166c-4.141,0-6.211-2.18-6.211-6.543v-12.734h-3.066v-1.562
		l3.066-1.348l1.367-4.57h1.875v4.961h6.211v2.519h-6.211v12.598c0,1.289,0.306,2.279,0.918,2.969
		C338.997,400.967,339.837,401.311,340.905,401.311z"/>
	<path fill="#2D4E6E" d="M344.713,382.19h3.477l4.688,12.207c1.028,2.787,1.667,4.799,1.914,6.035h0.156
		c0.169-0.664,0.524-1.799,1.064-3.408c0.54-1.607,2.308-6.553,5.303-14.833h3.477l-9.199,24.375
		c-0.912,2.41-1.976,4.119-3.193,5.127c-1.218,1.01-2.712,1.514-4.482,1.514c-0.99,0-1.966-0.109-2.93-0.332v-2.598
		c0.716,0.156,1.517,0.234,2.402,0.234c2.227,0,3.815-1.25,4.766-3.75l1.191-3.047L344.713,382.19z"/>
	<path fill="#2D4E6E" d="M393.229,400.725h-0.176c-1.498,2.176-3.737,3.262-6.719,3.262c-2.8,0-4.978-0.957-6.533-2.871
		c-1.556-1.914-2.334-4.635-2.334-8.164c0-3.527,0.781-6.27,2.344-8.223c1.562-1.953,3.737-2.929,6.523-2.929
		c2.903,0,5.13,1.055,6.68,3.164h0.254l-0.137-1.542l-0.078-1.504v-8.711h3.242v30.39h-2.637L393.229,400.725z M386.745,401.271
		c2.213,0,3.818-0.602,4.814-1.807c0.996-1.203,1.494-3.146,1.494-5.83v-0.684c0-3.033-0.505-5.197-1.514-6.494
		c-1.009-1.295-2.621-1.943-4.834-1.943c-1.901,0-3.356,0.74-4.365,2.217c-1.009,1.479-1.514,3.564-1.514,6.26
		c0,2.734,0.501,4.799,1.504,6.191C383.333,400.576,384.804,401.271,386.745,401.271z"/>
	<path fill="#2D4E6E" d="M412.213,403.986c-3.164,0-5.661-0.963-7.49-2.891c-1.83-1.926-2.744-4.602-2.744-8.027
		c0-3.449,0.85-6.191,2.549-8.223c1.699-2.031,3.981-3.046,6.846-3.046c2.682,0,4.805,0.882,6.367,2.646
		c1.562,1.765,2.344,4.091,2.344,6.982v2.051h-14.746c0.065,2.514,0.7,4.422,1.904,5.723c1.204,1.303,2.9,1.953,5.088,1.953
		c2.305,0,4.583-0.48,6.836-1.445v2.891c-1.146,0.496-2.23,0.85-3.252,1.064C414.892,403.879,413.659,403.986,412.213,403.986z
		 M411.334,384.514c-1.719,0-3.089,0.561-4.111,1.68c-1.022,1.121-1.625,2.67-1.807,4.648h11.191c0-2.043-0.456-3.609-1.367-4.697
		C414.329,385.059,413.027,384.514,411.334,384.514z"/>
	<path fill="#2D4E6E" d="M432.526,401.311c0.573,0,1.126-0.041,1.66-0.127c0.534-0.084,0.957-0.172,1.27-0.264v2.48
		c-0.352,0.17-0.869,0.311-1.553,0.42c-0.684,0.111-1.299,0.166-1.846,0.166c-4.141,0-6.211-2.18-6.211-6.543v-12.734h-3.066v-1.562
		l3.066-1.348l1.367-4.57h1.875v4.961h6.211v2.519h-6.211v12.598c0,1.289,0.306,2.279,0.918,2.969
		C430.618,400.967,431.458,401.311,432.526,401.311z"/>
	<path fill="#2D4E6E" d="M448.776,403.986c-3.164,0-5.661-0.963-7.49-2.891c-1.83-1.926-2.744-4.602-2.744-8.027
		c0-3.449,0.85-6.191,2.549-8.223c1.699-2.031,3.981-3.046,6.846-3.046c2.682,0,4.805,0.882,6.367,2.646
		c1.562,1.765,2.344,4.091,2.344,6.982v2.051h-14.746c0.065,2.514,0.7,4.422,1.904,5.723c1.204,1.303,2.9,1.953,5.088,1.953
		c2.305,0,4.583-0.48,6.836-1.445v2.891c-1.146,0.496-2.23,0.85-3.252,1.064C451.455,403.879,450.221,403.986,448.776,403.986z
		 M447.897,384.514c-1.719,0-3.089,0.561-4.111,1.68c-1.022,1.121-1.625,2.67-1.807,4.648h11.191c0-2.043-0.456-3.609-1.367-4.697
		C450.892,385.059,449.589,384.514,447.897,384.514z"/>
	<path fill="#2D4E6E" d="M471.94,381.799c0.95,0,1.803,0.078,2.559,0.234l-0.449,3.007c-0.886-0.195-1.667-0.293-2.344-0.293
		c-1.732,0-3.213,0.703-4.443,2.109s-1.846,3.158-1.846,5.254v11.484h-3.242V382.19h2.676l0.371,3.964h0.156
		c0.794-1.393,1.751-2.467,2.871-3.222C469.368,382.177,470.599,381.799,471.94,381.799z"/>
	<path fill="#2D4E6E" d="M505.788,403.596V389.67c0-1.705-0.365-2.984-1.094-3.838c-0.729-0.852-1.862-1.279-3.398-1.279
		c-2.019,0-3.509,0.58-4.473,1.738c-0.964,1.16-1.445,2.943-1.445,5.352v11.953h-3.242V389.67c0-1.705-0.365-2.984-1.094-3.838
		c-0.729-0.852-1.869-1.279-3.418-1.279c-2.031,0-3.519,0.609-4.463,1.826c-0.944,1.219-1.416,3.213-1.416,5.986v11.23h-3.242
		V382.19h2.637l0.527,2.929h0.156c0.612-1.042,1.475-1.855,2.588-2.441s2.36-0.879,3.74-0.879c3.346,0,5.534,1.211,6.562,3.632
		h0.156c0.638-1.12,1.562-2.004,2.773-2.656s2.591-0.977,4.141-0.977c2.422,0,4.235,0.622,5.439,1.865
		c1.204,1.244,1.807,3.232,1.807,5.966v13.965H505.788z"/>
	<path fill="#2D4E6E" d="M515.436,376.389c0-0.742,0.182-1.286,0.547-1.631c0.364-0.345,0.82-0.518,1.367-0.518
		c0.521,0,0.97,0.176,1.348,0.527c0.377,0.352,0.566,0.892,0.566,1.621s-0.189,1.272-0.566,1.631
		c-0.378,0.358-0.827,0.537-1.348,0.537c-0.547,0-1.003-0.179-1.367-0.537C515.618,377.662,515.436,377.119,515.436,376.389z
		 M518.952,403.596h-3.242V382.19h3.242V403.596z"/>
	<path fill="#2D4E6E" d="M540.475,403.596v-13.848c0-1.744-0.397-3.047-1.191-3.906c-0.794-0.859-2.038-1.289-3.73-1.289
		c-2.24,0-3.88,0.605-4.922,1.816c-1.042,1.211-1.562,3.211-1.562,5.996v11.23h-3.242V382.19h2.637l0.527,2.929h0.156
		c0.664-1.054,1.595-1.872,2.793-2.451c1.198-0.579,2.532-0.869,4.004-0.869c2.578,0,4.518,0.622,5.82,1.865
		c1.302,1.244,1.953,3.232,1.953,5.966v13.965H540.475z"/>
	<path fill="#2D4E6E" d="M559.42,403.986c-3.164,0-5.661-0.963-7.49-2.891c-1.83-1.926-2.744-4.602-2.744-8.027
		c0-3.449,0.85-6.191,2.549-8.223c1.699-2.031,3.981-3.046,6.846-3.046c2.682,0,4.805,0.882,6.367,2.646
		c1.562,1.765,2.344,4.091,2.344,6.982v2.051h-14.746c0.065,2.514,0.7,4.422,1.904,5.723c1.204,1.303,2.9,1.953,5.088,1.953
		c2.305,0,4.583-0.48,6.836-1.445v2.891c-1.146,0.496-2.23,0.85-3.252,1.064C562.099,403.879,560.866,403.986,559.42,403.986z
		 M558.542,384.514c-1.719,0-3.089,0.561-4.111,1.68c-1.022,1.121-1.625,2.67-1.807,4.648h11.191c0-2.043-0.456-3.609-1.367-4.697
		C561.536,385.059,560.234,384.514,558.542,384.514z"/>
	<path fill="#2D4E6E" d="M587.389,400.725h-0.176c-1.498,2.176-3.737,3.262-6.719,3.262c-2.8,0-4.978-0.957-6.533-2.871
		c-1.556-1.914-2.334-4.635-2.334-8.164c0-3.527,0.781-6.27,2.344-8.223c1.562-1.953,3.737-2.929,6.523-2.929
		c2.903,0,5.13,1.055,6.68,3.164h0.254l-0.137-1.542l-0.078-1.504v-8.711h3.242v30.39h-2.637L587.389,400.725z M580.905,401.271
		c2.213,0,3.818-0.602,4.814-1.807c0.996-1.203,1.494-3.146,1.494-5.83v-0.684c0-3.033-0.505-5.197-1.514-6.494
		c-1.009-1.295-2.621-1.943-4.834-1.943c-1.901,0-3.356,0.74-4.365,2.217c-1.009,1.479-1.514,3.564-1.514,6.26
		c0,2.734,0.501,4.799,1.504,6.191C577.493,400.576,578.964,401.271,580.905,401.271z"/>
	<path fill="#2D4E6E" d="M617.682,381.838c2.812,0,4.997,0.96,6.553,2.88c1.556,1.922,2.334,4.639,2.334,8.154
		s-0.785,6.248-2.354,8.193c-1.569,1.947-3.747,2.92-6.533,2.92c-1.394,0-2.666-0.256-3.818-0.771
		c-1.152-0.514-2.119-1.305-2.9-2.373h-0.234l-0.684,2.754h-2.324v-30.39h3.242v7.383c0,1.653-0.052,3.138-0.156,4.453h0.156
		C612.474,382.906,614.713,381.838,617.682,381.838z M617.213,384.553c-2.214,0-3.809,0.635-4.785,1.904s-1.465,3.408-1.465,6.416
		s0.501,5.16,1.504,6.455c1.002,1.297,2.61,1.943,4.824,1.943c1.992,0,3.477-0.725,4.453-2.178c0.977-1.451,1.465-3.537,1.465-6.26
		c0-2.785-0.488-4.863-1.465-6.23S619.257,384.553,617.213,384.553z"/>
	<path fill="#2D4E6E" d="M628.834,382.19h3.477l4.688,12.207c1.028,2.787,1.667,4.799,1.914,6.035h0.156
		c0.169-0.664,0.524-1.799,1.064-3.408c0.54-1.607,2.308-6.553,5.303-14.833h3.477l-9.199,24.375
		c-0.912,2.41-1.976,4.119-3.193,5.127c-1.218,1.01-2.712,1.514-4.482,1.514c-0.99,0-1.966-0.109-2.93-0.332v-2.598
		c0.716,0.156,1.517,0.234,2.402,0.234c2.227,0,3.815-1.25,4.766-3.75l1.191-3.047L628.834,382.19z"/>
	<path fill="#2D4E6E" d="M662.506,376.389c0-0.742,0.182-1.286,0.547-1.631c0.364-0.345,0.82-0.518,1.367-0.518
		c0.521,0,0.97,0.176,1.348,0.527c0.377,0.352,0.566,0.892,0.566,1.621s-0.189,1.272-0.566,1.631
		c-0.378,0.358-0.827,0.537-1.348,0.537c-0.547,0-1.003-0.179-1.367-0.537C662.688,377.662,662.506,377.119,662.506,376.389z
		 M666.022,403.596h-3.242V382.19h3.242V403.596z"/>
	<path fill="#2D4E6E" d="M679.811,401.311c0.573,0,1.126-0.041,1.66-0.127c0.534-0.084,0.957-0.172,1.27-0.264v2.48
		c-0.352,0.17-0.869,0.311-1.553,0.42c-0.684,0.111-1.299,0.166-1.846,0.166c-4.141,0-6.211-2.18-6.211-6.543v-12.734h-3.066v-1.562
		l3.066-1.348l1.367-4.57h1.875v4.961h6.211v2.519h-6.211v12.598c0,1.289,0.306,2.279,0.918,2.969
		C677.903,400.967,678.743,401.311,679.811,401.311z"/>
	<path fill="#2D4E6E" d="M700.826,397.756c0,1.992-0.742,3.529-2.227,4.609c-1.484,1.082-3.567,1.621-6.25,1.621
		c-2.838,0-5.052-0.449-6.641-1.348v-3.008c1.029,0.521,2.133,0.932,3.311,1.23c1.179,0.301,2.314,0.449,3.408,0.449
		c1.693,0,2.995-0.27,3.906-0.811c0.912-0.539,1.367-1.363,1.367-2.471c0-0.832-0.361-1.545-1.084-2.139
		c-0.723-0.592-2.132-1.291-4.229-2.1c-1.992-0.742-3.408-1.389-4.248-1.943c-0.84-0.553-1.465-1.182-1.875-1.885
		s-0.615-1.543-0.615-2.52c0-1.744,0.71-3.122,2.129-4.13c1.42-1.009,3.366-1.514,5.84-1.514c2.305,0,4.558,0.469,6.758,1.406
		l-1.152,2.636c-2.148-0.885-4.095-1.328-5.84-1.328c-1.536,0-2.695,0.242-3.477,0.723c-0.781,0.482-1.172,1.146-1.172,1.992
		c0,0.574,0.146,1.062,0.439,1.465c0.293,0.404,0.766,0.789,1.416,1.152c0.651,0.365,1.901,0.893,3.75,1.582
		c2.539,0.926,4.255,1.855,5.146,2.793C700.381,395.158,700.826,396.338,700.826,397.756z"/>
	<path fill="#2D4E6E" d="M726.256,381.799c0.951,0,1.804,0.078,2.559,0.234l-0.449,3.007c-0.885-0.195-1.666-0.293-2.344-0.293
		c-1.731,0-3.213,0.703-4.443,2.109s-1.846,3.158-1.846,5.254v11.484h-3.242V382.19h2.676l0.371,3.964h0.156
		c0.795-1.393,1.752-2.467,2.871-3.222C723.685,382.177,724.915,381.799,726.256,381.799z"/>
	<path fill="#2D4E6E" d="M741.861,403.986c-3.164,0-5.66-0.963-7.49-2.891c-1.829-1.926-2.744-4.602-2.744-8.027
		c0-3.449,0.85-6.191,2.549-8.223c1.699-2.031,3.981-3.046,6.846-3.046c2.683,0,4.805,0.882,6.367,2.646
		c1.562,1.765,2.344,4.091,2.344,6.982v2.051h-14.746c0.065,2.514,0.7,4.422,1.904,5.723c1.205,1.303,2.9,1.953,5.088,1.953
		c2.305,0,4.584-0.48,6.836-1.445v2.891c-1.146,0.496-2.229,0.85-3.252,1.064C744.541,403.879,743.307,403.986,741.861,403.986z
		 M740.982,384.514c-1.719,0-3.089,0.561-4.111,1.68c-1.021,1.121-1.624,2.67-1.807,4.648h11.191c0-2.043-0.455-3.609-1.367-4.697
		C743.978,385.059,742.676,384.514,740.982,384.514z"/>
	<path fill="#2D4E6E" d="M758.502,403.596h-3.242v-30.39h3.242V403.596z"/>
	<path fill="#2D4E6E" d="M778.541,403.596l-0.645-3.047h-0.156c-1.067,1.342-2.132,2.25-3.193,2.725
		c-1.061,0.477-2.386,0.713-3.975,0.713c-2.122,0-3.785-0.547-4.99-1.641c-1.204-1.094-1.807-2.648-1.807-4.668
		c0-4.322,3.457-6.588,10.371-6.797l3.633-0.117v-1.328c0-1.68-0.361-2.92-1.084-3.721s-1.878-1.201-3.467-1.201
		c-1.783,0-3.802,0.547-6.055,1.641l-0.996-2.48c1.055-0.573,2.211-1.022,3.467-1.348c1.257-0.325,2.517-0.488,3.779-0.488
		c2.553,0,4.443,0.566,5.674,1.699c1.23,1.132,1.846,2.949,1.846,5.449v14.609H778.541z M771.217,401.311
		c2.019,0,3.604-0.553,4.756-1.66c1.152-1.105,1.729-2.656,1.729-4.648v-1.934l-3.242,0.137c-2.578,0.092-4.437,0.492-5.576,1.201
		c-1.139,0.711-1.709,1.814-1.709,3.311c0,1.172,0.355,2.064,1.064,2.676C768.948,401.006,769.941,401.311,771.217,401.311z"/>
	<path fill="#2D4E6E" d="M794.537,401.311c0.574,0,1.127-0.041,1.66-0.127c0.535-0.084,0.957-0.172,1.27-0.264v2.48
		c-0.352,0.17-0.869,0.311-1.553,0.42c-0.684,0.111-1.299,0.166-1.846,0.166c-4.141,0-6.211-2.18-6.211-6.543v-12.734h-3.066v-1.562
		l3.066-1.348l1.367-4.57h1.875v4.961h6.211v2.519H791.1v12.598c0,1.289,0.307,2.279,0.918,2.969
		C792.631,400.967,793.471,401.311,794.537,401.311z"/>
	<path fill="#2D4E6E" d="M801.471,376.389c0-0.742,0.184-1.286,0.547-1.631c0.365-0.345,0.82-0.518,1.367-0.518
		c0.521,0,0.971,0.176,1.348,0.527c0.379,0.352,0.566,0.892,0.566,1.621s-0.188,1.272-0.566,1.631
		c-0.377,0.358-0.826,0.537-1.348,0.537c-0.547,0-1.002-0.179-1.367-0.537C801.654,377.662,801.471,377.119,801.471,376.389z
		 M804.986,403.596h-3.242V382.19h3.242V403.596z"/>
	<path fill="#2D4E6E" d="M830.338,392.873c0,3.49-0.879,6.215-2.637,8.174c-1.758,1.961-4.186,2.939-7.285,2.939
		c-1.914,0-3.613-0.449-5.098-1.348s-2.629-2.188-3.438-3.867c-0.807-1.68-1.211-3.645-1.211-5.898c0-3.488,0.873-6.207,2.617-8.154
		c1.746-1.946,4.168-2.919,7.266-2.919c2.996,0,5.375,0.996,7.139,2.988C829.457,386.779,830.338,389.475,830.338,392.873z
		 M814.029,392.873c0,2.734,0.547,4.818,1.641,6.25c1.094,1.434,2.703,2.148,4.824,2.148c2.123,0,3.734-0.713,4.834-2.139
		c1.102-1.426,1.65-3.512,1.65-6.26c0-2.721-0.549-4.787-1.65-6.201c-1.1-1.412-2.725-2.119-4.873-2.119
		c-2.121,0-3.723,0.697-4.805,2.09C814.57,388.037,814.029,390.113,814.029,392.873z"/>
	<path fill="#2D4E6E" d="M850.67,403.596v-13.848c0-1.744-0.396-3.047-1.191-3.906c-0.793-0.859-2.037-1.289-3.73-1.289
		c-2.238,0-3.879,0.605-4.922,1.816c-1.041,1.211-1.562,3.211-1.562,5.996v11.23h-3.242V382.19h2.637l0.527,2.929h0.156
		c0.664-1.054,1.596-1.872,2.793-2.451c1.199-0.579,2.533-0.869,4.004-0.869c2.578,0,4.52,0.622,5.82,1.865
		c1.303,1.244,1.953,3.232,1.953,5.966v13.965H850.67z"/>
	<path fill="#2D4E6E" d="M874.381,397.756c0,1.992-0.742,3.529-2.227,4.609c-1.484,1.082-3.566,1.621-6.25,1.621
		c-2.838,0-5.051-0.449-6.641-1.348v-3.008c1.029,0.521,2.133,0.932,3.311,1.23c1.18,0.301,2.314,0.449,3.408,0.449
		c1.693,0,2.996-0.27,3.906-0.811c0.912-0.539,1.367-1.363,1.367-2.471c0-0.832-0.361-1.545-1.084-2.139
		c-0.723-0.592-2.131-1.291-4.229-2.1c-1.992-0.742-3.408-1.389-4.248-1.943c-0.84-0.553-1.465-1.182-1.875-1.885
		s-0.615-1.543-0.615-2.52c0-1.744,0.711-3.122,2.129-4.13c1.42-1.009,3.367-1.514,5.84-1.514c2.305,0,4.559,0.469,6.758,1.406
		l-1.152,2.636c-2.148-0.885-4.094-1.328-5.84-1.328c-1.535,0-2.695,0.242-3.477,0.723c-0.781,0.482-1.172,1.146-1.172,1.992
		c0,0.574,0.146,1.062,0.439,1.465c0.293,0.404,0.766,0.789,1.416,1.152c0.652,0.365,1.902,0.893,3.75,1.582
		c2.539,0.926,4.256,1.855,5.146,2.793C873.936,395.158,874.381,396.338,874.381,397.756z"/>
	<path fill="#2D4E6E" d="M894.303,403.596v-13.848c0-1.744-0.396-3.047-1.191-3.906c-0.793-0.859-2.037-1.289-3.73-1.289
		c-2.252,0-3.896,0.613-4.932,1.836c-1.035,1.225-1.553,3.23-1.553,6.016v11.191h-3.242v-30.39h3.242v9.199
		c0,1.106-0.051,2.024-0.156,2.753h0.195c0.639-1.028,1.547-1.838,2.725-2.431c1.18-0.593,2.523-0.889,4.033-0.889
		c2.617,0,4.58,0.622,5.889,1.865c1.309,1.244,1.963,3.22,1.963,5.927v13.965H894.303z"/>
	<path fill="#2D4E6E" d="M903.932,376.389c0-0.742,0.184-1.286,0.547-1.631c0.365-0.345,0.82-0.518,1.367-0.518
		c0.521,0,0.971,0.176,1.348,0.527c0.379,0.352,0.566,0.892,0.566,1.621s-0.188,1.272-0.566,1.631
		c-0.377,0.358-0.826,0.537-1.348,0.537c-0.547,0-1.002-0.179-1.367-0.537C904.115,377.662,903.932,377.119,903.932,376.389z
		 M907.447,403.596h-3.242V382.19h3.242V403.596z"/>
	<path fill="#2D4E6E" d="M924.283,403.986c-1.393,0-2.666-0.256-3.818-0.771c-1.152-0.514-2.119-1.305-2.9-2.373h-0.234
		c0.156,1.25,0.234,2.436,0.234,3.555v8.809h-3.242V382.19h2.637l0.449,2.929h0.156c0.834-1.171,1.805-2.018,2.91-2.539
		c1.107-0.521,2.377-0.781,3.809-0.781c2.84,0,5.029,0.97,6.572,2.91c1.543,1.941,2.314,4.662,2.314,8.164
		c0,3.516-0.783,6.248-2.354,8.193C929.248,403.014,927.07,403.986,924.283,403.986z M923.814,384.553
		c-2.188,0-3.77,0.605-4.746,1.816s-1.477,3.139-1.504,5.781v0.723c0,3.008,0.502,5.16,1.504,6.455
		c1.004,1.297,2.611,1.943,4.824,1.943c1.85,0,3.299-0.748,4.346-2.246c1.049-1.496,1.572-3.561,1.572-6.191
		c0-2.668-0.523-4.717-1.572-6.143C927.191,385.266,925.717,384.553,923.814,384.553z"/>
	<path fill="#2D4E6E" d="M966.705,403.596l-3.926-12.559c-0.246-0.768-0.709-2.512-1.387-5.234h-0.156
		c-0.52,2.279-0.977,4.037-1.367,5.273l-4.043,12.52h-3.75l-5.84-21.406h3.398c1.381,5.378,2.432,9.472,3.154,12.285
		s1.137,4.707,1.24,5.684h0.156c0.145-0.742,0.375-1.701,0.693-2.881c0.32-1.178,0.596-2.111,0.83-2.803l3.926-12.285h3.516
		l3.828,12.285c0.73,2.24,1.225,4.121,1.484,5.645h0.156c0.053-0.469,0.193-1.191,0.42-2.168c0.229-0.977,1.586-6.23,4.072-15.761
		h3.359l-5.918,21.406H966.705z"/>
	<path fill="#2D4E6E" d="M980.064,376.389c0-0.742,0.184-1.286,0.547-1.631c0.365-0.345,0.82-0.518,1.367-0.518
		c0.521,0,0.971,0.176,1.348,0.527c0.379,0.352,0.566,0.892,0.566,1.621s-0.188,1.272-0.566,1.631
		c-0.377,0.358-0.826,0.537-1.348,0.537c-0.547,0-1.002-0.179-1.367-0.537C980.248,377.662,980.064,377.119,980.064,376.389z
		 M983.58,403.596h-3.242V382.19h3.242V403.596z"/>
	<path fill="#2D4E6E" d="M997.369,401.311c0.574,0,1.127-0.041,1.66-0.127c0.535-0.084,0.957-0.172,1.27-0.264v2.48
		c-0.352,0.17-0.869,0.311-1.553,0.42c-0.684,0.111-1.299,0.166-1.846,0.166c-4.141,0-6.211-2.18-6.211-6.543v-12.734h-3.066v-1.562
		l3.066-1.348l1.367-4.57h1.875v4.961h6.211v2.519h-6.211v12.598c0,1.289,0.307,2.279,0.918,2.969
		C995.463,400.967,996.303,401.311,997.369,401.311z"/>
	<path fill="#2D4E6E" d="M1019.225,403.596v-13.848c0-1.744-0.396-3.047-1.191-3.906c-0.793-0.859-2.037-1.289-3.73-1.289
		c-2.252,0-3.896,0.613-4.932,1.836c-1.035,1.225-1.553,3.23-1.553,6.016v11.191h-3.242v-30.39h3.242v9.199
		c0,1.106-0.051,2.024-0.156,2.753h0.195c0.639-1.028,1.547-1.838,2.725-2.431c1.18-0.593,2.523-0.889,4.033-0.889
		c2.617,0,4.58,0.622,5.889,1.865c1.309,1.244,1.963,3.22,1.963,5.927v13.965H1019.225z"/>
	<path fill="#2D4E6E" d="M1052.682,403.596l-0.645-3.047h-0.156c-1.066,1.342-2.131,2.25-3.193,2.725
		c-1.061,0.477-2.385,0.713-3.975,0.713c-2.121,0-3.785-0.547-4.99-1.641c-1.203-1.094-1.807-2.648-1.807-4.668
		c0-4.322,3.457-6.588,10.371-6.797l3.633-0.117v-1.328c0-1.68-0.361-2.92-1.084-3.721s-1.877-1.201-3.467-1.201
		c-1.783,0-3.801,0.547-6.055,1.641l-0.996-2.48c1.055-0.573,2.211-1.022,3.467-1.348c1.258-0.325,2.518-0.488,3.779-0.488
		c2.553,0,4.443,0.566,5.674,1.699c1.23,1.132,1.846,2.949,1.846,5.449v14.609H1052.682z M1045.357,401.311
		c2.02,0,3.604-0.553,4.756-1.66c1.152-1.105,1.729-2.656,1.729-4.648v-1.934l-3.242,0.137c-2.578,0.092-4.436,0.492-5.576,1.201
		c-1.139,0.711-1.709,1.814-1.709,3.311c0,1.172,0.355,2.064,1.064,2.676C1043.09,401.006,1044.082,401.311,1045.357,401.311z"/>
	<path fill="#2D4E6E" d="M1076.412,403.596v-13.848c0-1.744-0.396-3.047-1.191-3.906c-0.793-0.859-2.037-1.289-3.73-1.289
		c-2.238,0-3.879,0.605-4.922,1.816c-1.041,1.211-1.562,3.211-1.562,5.996v11.23h-3.242V382.19h2.637l0.527,2.929h0.156
		c0.664-1.054,1.596-1.872,2.793-2.451c1.199-0.579,2.533-0.869,4.004-0.869c2.578,0,4.52,0.622,5.82,1.865
		c1.303,1.244,1.953,3.232,1.953,5.966v13.965H1076.412z"/>
	<path fill="#2D4E6E" d="M1104.791,392.873c0,3.49-0.879,6.215-2.637,8.174c-1.758,1.961-4.186,2.939-7.285,2.939
		c-1.914,0-3.613-0.449-5.098-1.348s-2.629-2.188-3.438-3.867c-0.807-1.68-1.211-3.645-1.211-5.898c0-3.488,0.873-6.207,2.617-8.154
		c1.746-1.946,4.168-2.919,7.266-2.919c2.996,0,5.375,0.996,7.139,2.988C1103.91,386.779,1104.791,389.475,1104.791,392.873z
		 M1088.482,392.873c0,2.734,0.547,4.818,1.641,6.25c1.094,1.434,2.703,2.148,4.824,2.148c2.123,0,3.734-0.713,4.834-2.139
		c1.102-1.426,1.65-3.512,1.65-6.26c0-2.721-0.549-4.787-1.65-6.201c-1.1-1.412-2.725-2.119-4.873-2.119
		c-2.121,0-3.723,0.697-4.805,2.09C1089.023,388.037,1088.482,390.113,1088.482,392.873z"/>
	<path fill="#2D4E6E" d="M1117.389,401.311c0.574,0,1.127-0.041,1.66-0.127c0.535-0.084,0.957-0.172,1.27-0.264v2.48
		c-0.352,0.17-0.869,0.311-1.553,0.42c-0.684,0.111-1.299,0.166-1.846,0.166c-4.141,0-6.211-2.18-6.211-6.543v-12.734h-3.066v-1.562
		l3.066-1.348l1.367-4.57h1.875v4.961h6.211v2.519h-6.211v12.598c0,1.289,0.307,2.279,0.918,2.969
		C1115.482,400.967,1116.322,401.311,1117.389,401.311z"/>
	<path fill="#2D4E6E" d="M1139.244,403.596v-13.848c0-1.744-0.396-3.047-1.191-3.906c-0.793-0.859-2.037-1.289-3.73-1.289
		c-2.252,0-3.896,0.613-4.932,1.836c-1.035,1.225-1.553,3.23-1.553,6.016v11.191h-3.242v-30.39h3.242v9.199
		c0,1.106-0.051,2.024-0.156,2.753h0.195c0.639-1.028,1.547-1.838,2.725-2.431c1.18-0.593,2.523-0.889,4.033-0.889
		c2.617,0,4.58,0.622,5.889,1.865c1.309,1.244,1.963,3.22,1.963,5.927v13.965H1139.244z"/>
	<path fill="#2D4E6E" d="M1158.189,403.986c-3.164,0-5.66-0.963-7.49-2.891c-1.828-1.926-2.744-4.602-2.744-8.027
		c0-3.449,0.85-6.191,2.549-8.223c1.699-2.031,3.982-3.046,6.846-3.046c2.684,0,4.805,0.882,6.367,2.646
		c1.562,1.765,2.344,4.091,2.344,6.982v2.051h-14.746c0.066,2.514,0.701,4.422,1.904,5.723c1.205,1.303,2.9,1.953,5.088,1.953
		c2.305,0,4.584-0.48,6.836-1.445v2.891c-1.145,0.496-2.229,0.85-3.252,1.064C1160.869,403.879,1159.635,403.986,1158.189,403.986z
		 M1157.311,384.514c-1.719,0-3.088,0.561-4.111,1.68c-1.021,1.121-1.623,2.67-1.807,4.648h11.191c0-2.043-0.455-3.609-1.367-4.697
		C1160.307,385.059,1159.004,384.514,1157.311,384.514z"/>
	<path fill="#2D4E6E" d="M1181.354,381.799c0.951,0,1.805,0.078,2.559,0.234l-0.449,3.007c-0.885-0.195-1.666-0.293-2.344-0.293
		c-1.73,0-3.213,0.703-4.443,2.109s-1.846,3.158-1.846,5.254v11.484h-3.242V382.19h2.676l0.371,3.964h0.156
		c0.795-1.393,1.752-2.467,2.871-3.222C1178.783,382.177,1180.014,381.799,1181.354,381.799z"/>
	<path fill="#2D4E6E" d="M185.846,452.873c0,3.49-0.879,6.215-2.637,8.174c-1.758,1.961-4.187,2.939-7.285,2.939
		c-1.914,0-3.613-0.449-5.098-1.348s-2.63-2.188-3.438-3.867c-0.808-1.68-1.211-3.645-1.211-5.898c0-3.488,0.872-6.207,2.617-8.154
		c1.745-1.945,4.167-2.92,7.266-2.92c2.995,0,5.374,0.996,7.139,2.988C184.964,446.779,185.846,449.475,185.846,452.873z
		 M169.538,452.873c0,2.734,0.547,4.818,1.641,6.25c1.094,1.434,2.702,2.148,4.824,2.148c2.122,0,3.733-0.713,4.834-2.139
		c1.1-1.426,1.65-3.512,1.65-6.26c0-2.721-0.55-4.787-1.65-6.201c-1.101-1.412-2.725-2.119-4.873-2.119
		c-2.123,0-3.724,0.697-4.805,2.09C170.078,448.037,169.538,450.113,169.538,452.873z"/>
	<path fill="#2D4E6E" d="M194.577,442.189v13.887c0,1.746,0.397,3.047,1.191,3.906c0.794,0.859,2.038,1.289,3.73,1.289
		c2.239,0,3.877-0.611,4.912-1.836c1.035-1.223,1.553-3.223,1.553-5.996v-11.25h3.242v21.406h-2.676l-0.469-2.871h-0.176
		c-0.664,1.055-1.585,1.863-2.764,2.422c-1.179,0.561-2.523,0.84-4.033,0.84c-2.604,0-4.554-0.617-5.85-1.855
		c-1.296-1.236-1.943-3.215-1.943-5.938v-14.004H194.577z"/>
	<path fill="#2D4E6E" d="M222.995,461.311c0.573,0,1.126-0.041,1.66-0.127c0.534-0.084,0.957-0.172,1.27-0.264v2.48
		c-0.352,0.17-0.869,0.311-1.553,0.42c-0.684,0.111-1.299,0.166-1.846,0.166c-4.141,0-6.211-2.18-6.211-6.543v-12.734h-3.066v-1.562
		l3.066-1.348l1.367-4.57h1.875v4.961h6.211v2.52h-6.211v12.598c0,1.289,0.306,2.279,0.918,2.969
		C221.087,460.967,221.927,461.311,222.995,461.311z"/>
	<path fill="#2D4E6E" d="M240.163,463.986c-1.394,0-2.666-0.256-3.818-0.771c-1.152-0.514-2.119-1.305-2.9-2.373h-0.234
		c0.156,1.25,0.234,2.436,0.234,3.555v8.809h-3.242v-31.016h2.637l0.449,2.93h0.156c0.833-1.172,1.803-2.018,2.91-2.539
		c1.106-0.52,2.376-0.781,3.809-0.781c2.838,0,5.029,0.971,6.572,2.91c1.543,1.941,2.314,4.662,2.314,8.164
		c0,3.516-0.785,6.248-2.354,8.193C245.126,463.014,242.949,463.986,240.163,463.986z M239.694,444.553
		c-2.188,0-3.77,0.605-4.746,1.816s-1.478,3.139-1.504,5.781v0.723c0,3.008,0.501,5.16,1.504,6.455
		c1.002,1.297,2.61,1.943,4.824,1.943c1.849,0,3.297-0.748,4.346-2.246c1.048-1.496,1.572-3.561,1.572-6.191
		c0-2.668-0.524-4.717-1.572-6.143C243.069,445.266,241.595,444.553,239.694,444.553z"/>
	<path fill="#2D4E6E" d="M257.76,442.189v13.887c0,1.746,0.397,3.047,1.191,3.906c0.794,0.859,2.038,1.289,3.73,1.289
		c2.239,0,3.877-0.611,4.912-1.836c1.035-1.223,1.553-3.223,1.553-5.996v-11.25h3.242v21.406h-2.676l-0.469-2.871h-0.176
		c-0.664,1.055-1.585,1.863-2.764,2.422c-1.179,0.561-2.523,0.84-4.033,0.84c-2.604,0-4.554-0.617-5.85-1.855
		c-1.296-1.236-1.943-3.215-1.943-5.938v-14.004H257.76z"/>
	<path fill="#2D4E6E" d="M286.178,461.311c0.573,0,1.126-0.041,1.66-0.127c0.534-0.084,0.957-0.172,1.27-0.264v2.48
		c-0.352,0.17-0.869,0.311-1.553,0.42c-0.684,0.111-1.299,0.166-1.846,0.166c-4.141,0-6.211-2.18-6.211-6.543v-12.734h-3.066v-1.562
		l3.066-1.348l1.367-4.57h1.875v4.961h6.211v2.52h-6.211v12.598c0,1.289,0.306,2.279,0.918,2.969
		C284.271,460.967,285.11,461.311,286.178,461.311z"/>
	<path fill="#2D4E6E" d="M306.979,452.639c0.56-0.793,1.413-1.836,2.559-3.125l6.914-7.324h3.848l-8.672,9.121l9.277,12.285h-3.926
		l-7.559-10.117l-2.441,2.109v8.008h-3.203v-30.391h3.203v16.113c0,0.717-0.052,1.824-0.156,3.32H306.979z"/>
	<path fill="#2D4E6E" d="M339.42,463.596v-13.848c0-1.744-0.397-3.047-1.191-3.906c-0.794-0.859-2.038-1.289-3.73-1.289
		c-2.24,0-3.88,0.605-4.922,1.816c-1.042,1.211-1.562,3.211-1.562,5.996v11.23h-3.242v-21.406h2.637l0.527,2.93h0.156
		c0.664-1.055,1.595-1.871,2.793-2.451c1.198-0.578,2.532-0.869,4.004-0.869c2.578,0,4.518,0.623,5.82,1.865
		c1.302,1.244,1.953,3.232,1.953,5.967v13.965H339.42z"/>
	<path fill="#2D4E6E" d="M367.799,452.873c0,3.49-0.879,6.215-2.637,8.174c-1.758,1.961-4.187,2.939-7.285,2.939
		c-1.914,0-3.613-0.449-5.098-1.348s-2.63-2.188-3.438-3.867c-0.808-1.68-1.211-3.645-1.211-5.898c0-3.488,0.872-6.207,2.617-8.154
		c1.745-1.945,4.167-2.92,7.266-2.92c2.995,0,5.374,0.996,7.139,2.988C366.917,446.779,367.799,449.475,367.799,452.873z
		 M351.491,452.873c0,2.734,0.547,4.818,1.641,6.25c1.094,1.434,2.702,2.148,4.824,2.148c2.122,0,3.733-0.713,4.834-2.139
		c1.1-1.426,1.65-3.512,1.65-6.26c0-2.721-0.55-4.787-1.65-6.201c-1.101-1.412-2.725-2.119-4.873-2.119
		c-2.123,0-3.724,0.697-4.805,2.09C352.031,448.037,351.491,450.113,351.491,452.873z"/>
	<path fill="#2D4E6E" d="M390.963,463.596l-3.926-12.559c-0.248-0.768-0.71-2.512-1.387-5.234h-0.156
		c-0.521,2.279-0.977,4.037-1.367,5.273l-4.043,12.52h-3.75l-5.84-21.406h3.398c1.38,5.379,2.432,9.473,3.154,12.285
		s1.136,4.707,1.24,5.684h0.156c0.143-0.742,0.374-1.701,0.693-2.881c0.319-1.178,0.596-2.111,0.83-2.803l3.926-12.285h3.516
		l3.828,12.285c0.729,2.24,1.224,4.121,1.484,5.645h0.156c0.052-0.469,0.192-1.191,0.42-2.168c0.228-0.977,1.585-6.23,4.072-15.762
		h3.359l-5.918,21.406H390.963z"/>
	<path fill="#2D4E6E" d="M419.245,463.596v-13.848c0-1.744-0.397-3.047-1.191-3.906c-0.794-0.859-2.038-1.289-3.73-1.289
		c-2.24,0-3.88,0.605-4.922,1.816c-1.042,1.211-1.562,3.211-1.562,5.996v11.23h-3.242v-21.406h2.637l0.527,2.93h0.156
		c0.664-1.055,1.595-1.871,2.793-2.451c1.198-0.578,2.532-0.869,4.004-0.869c2.578,0,4.518,0.623,5.82,1.865
		c1.302,1.244,1.953,3.232,1.953,5.967v13.965H419.245z"/>
	<path fill="#2D4E6E" d="M446.452,461.311c0.573,0,1.126-0.041,1.66-0.127c0.534-0.084,0.957-0.172,1.27-0.264v2.48
		c-0.352,0.17-0.869,0.311-1.553,0.42c-0.684,0.111-1.299,0.166-1.846,0.166c-4.141,0-6.211-2.18-6.211-6.543v-12.734h-3.066v-1.562
		l3.066-1.348l1.367-4.57h1.875v4.961h6.211v2.52h-6.211v12.598c0,1.289,0.306,2.279,0.918,2.969
		C444.544,460.967,445.384,461.311,446.452,461.311z"/>
	<path fill="#2D4E6E" d="M472.135,452.873c0,3.49-0.879,6.215-2.637,8.174c-1.758,1.961-4.187,2.939-7.285,2.939
		c-1.914,0-3.613-0.449-5.098-1.348s-2.63-2.188-3.438-3.867c-0.808-1.68-1.211-3.645-1.211-5.898c0-3.488,0.872-6.207,2.617-8.154
		c1.745-1.945,4.167-2.92,7.266-2.92c2.995,0,5.374,0.996,7.139,2.988C471.253,446.779,472.135,449.475,472.135,452.873z
		 M455.827,452.873c0,2.734,0.547,4.818,1.641,6.25c1.094,1.434,2.702,2.148,4.824,2.148c2.122,0,3.733-0.713,4.834-2.139
		c1.1-1.426,1.65-3.512,1.65-6.26c0-2.721-0.55-4.787-1.65-6.201c-1.101-1.412-2.725-2.119-4.873-2.119
		c-2.123,0-3.724,0.697-4.805,2.09C456.367,448.037,455.827,450.113,455.827,452.873z"/>
	<path fill="#2D4E6E" d="M502.858,463.596v-13.848c0-1.744-0.397-3.047-1.191-3.906c-0.794-0.859-2.038-1.289-3.73-1.289
		c-2.253,0-3.896,0.613-4.932,1.836c-1.035,1.225-1.553,3.23-1.553,6.016v11.191h-3.242v-30.391h3.242v9.199
		c0,1.107-0.052,2.025-0.156,2.754h0.195c0.638-1.027,1.546-1.838,2.725-2.432c1.178-0.592,2.522-0.889,4.033-0.889
		c2.617,0,4.58,0.623,5.889,1.865c1.309,1.244,1.963,3.221,1.963,5.928v13.965H502.858z"/>
	<path fill="#2D4E6E" d="M525.924,463.596l-0.645-3.047h-0.156c-1.068,1.342-2.132,2.25-3.193,2.725
		c-1.062,0.477-2.386,0.713-3.975,0.713c-2.123,0-3.786-0.547-4.99-1.641c-1.205-1.094-1.807-2.648-1.807-4.668
		c0-4.322,3.457-6.588,10.371-6.797l3.633-0.117v-1.328c0-1.68-0.361-2.92-1.084-3.721s-1.878-1.201-3.467-1.201
		c-1.784,0-3.802,0.547-6.055,1.641l-0.996-2.48c1.055-0.572,2.21-1.021,3.467-1.348c1.256-0.324,2.516-0.488,3.779-0.488
		c2.552,0,4.443,0.566,5.674,1.699s1.846,2.949,1.846,5.449v14.609H525.924z M518.6,461.311c2.018,0,3.604-0.553,4.756-1.66
		c1.152-1.105,1.729-2.656,1.729-4.648v-1.934l-3.242,0.137c-2.578,0.092-4.437,0.492-5.576,1.201
		c-1.14,0.711-1.709,1.814-1.709,3.311c0,1.172,0.354,2.064,1.064,2.676C516.331,461.006,517.324,461.311,518.6,461.311z"/>
	<path fill="#2D4E6E" d="M539.694,463.596l-8.125-21.406h3.477l4.609,12.695c1.042,2.969,1.653,4.896,1.836,5.781h0.156
		c0.143-0.689,0.596-2.119,1.357-4.287s2.471-6.896,5.127-14.189h3.477l-8.125,21.406H539.694z"/>
	<path fill="#2D4E6E" d="M564.088,463.986c-3.164,0-5.661-0.963-7.49-2.891c-1.83-1.926-2.744-4.602-2.744-8.027
		c0-3.449,0.85-6.191,2.549-8.223s3.981-3.047,6.846-3.047c2.682,0,4.805,0.883,6.367,2.646c1.562,1.766,2.344,4.092,2.344,6.982
		v2.051h-14.746c0.065,2.514,0.7,4.422,1.904,5.723c1.204,1.303,2.9,1.953,5.088,1.953c2.305,0,4.583-0.48,6.836-1.445v2.891
		c-1.146,0.496-2.23,0.85-3.252,1.064C566.767,463.879,565.534,463.986,564.088,463.986z M563.209,444.514
		c-1.719,0-3.089,0.561-4.111,1.68c-1.022,1.121-1.625,2.67-1.807,4.648h11.191c0-2.043-0.456-3.609-1.367-4.697
		C566.204,445.059,564.902,444.514,563.209,444.514z"/>
	<path fill="#2D4E6E" d="M594.792,461.311c0.573,0,1.126-0.041,1.66-0.127c0.534-0.084,0.957-0.172,1.27-0.264v2.48
		c-0.352,0.17-0.869,0.311-1.553,0.42c-0.684,0.111-1.299,0.166-1.846,0.166c-4.141,0-6.211-2.18-6.211-6.543v-12.734h-3.066v-1.562
		l3.066-1.348l1.367-4.57h1.875v4.961h6.211v2.52h-6.211v12.598c0,1.289,0.306,2.279,0.918,2.969
		C592.884,460.967,593.724,461.311,594.792,461.311z"/>
	<path fill="#2D4E6E" d="M616.647,463.596v-13.848c0-1.744-0.397-3.047-1.191-3.906c-0.794-0.859-2.038-1.289-3.73-1.289
		c-2.253,0-3.896,0.613-4.932,1.836c-1.035,1.225-1.553,3.23-1.553,6.016v11.191h-3.242v-30.391h3.242v9.199
		c0,1.107-0.052,2.025-0.156,2.754h0.195c0.638-1.027,1.546-1.838,2.725-2.432c1.178-0.592,2.522-0.889,4.033-0.889
		c2.617,0,4.58,0.623,5.889,1.865c1.309,1.244,1.963,3.221,1.963,5.928v13.965H616.647z"/>
	<path fill="#2D4E6E" d="M635.592,463.986c-3.164,0-5.661-0.963-7.49-2.891c-1.83-1.926-2.744-4.602-2.744-8.027
		c0-3.449,0.85-6.191,2.549-8.223s3.981-3.047,6.846-3.047c2.682,0,4.805,0.883,6.367,2.646c1.562,1.766,2.344,4.092,2.344,6.982
		v2.051h-14.746c0.065,2.514,0.7,4.422,1.904,5.723c1.204,1.303,2.9,1.953,5.088,1.953c2.305,0,4.583-0.48,6.836-1.445v2.891
		c-1.146,0.496-2.23,0.85-3.252,1.064C638.271,463.879,637.038,463.986,635.592,463.986z M634.713,444.514
		c-1.719,0-3.089,0.561-4.111,1.68c-1.022,1.121-1.625,2.67-1.807,4.648h11.191c0-2.043-0.456-3.609-1.367-4.697
		C637.708,445.059,636.406,444.514,634.713,444.514z"/>
	<path fill="#2D4E6E" d="M673.19,457.756c0,1.992-0.742,3.529-2.227,4.609c-1.484,1.082-3.568,1.621-6.25,1.621
		c-2.839,0-5.052-0.449-6.641-1.348v-3.008c1.028,0.521,2.132,0.932,3.311,1.23c1.178,0.301,2.314,0.449,3.408,0.449
		c1.692,0,2.995-0.27,3.906-0.811c0.911-0.539,1.367-1.363,1.367-2.471c0-0.832-0.361-1.545-1.084-2.139
		c-0.723-0.592-2.132-1.291-4.229-2.1c-1.992-0.742-3.408-1.389-4.248-1.943c-0.84-0.553-1.465-1.182-1.875-1.885
		s-0.615-1.543-0.615-2.52c0-1.744,0.709-3.121,2.129-4.131c1.419-1.008,3.366-1.514,5.84-1.514c2.305,0,4.557,0.469,6.758,1.406
		l-1.152,2.637c-2.148-0.885-4.095-1.328-5.84-1.328c-1.537,0-2.695,0.242-3.477,0.723c-0.781,0.482-1.172,1.146-1.172,1.992
		c0,0.574,0.146,1.062,0.439,1.465c0.293,0.404,0.765,0.789,1.416,1.152c0.651,0.365,1.901,0.893,3.75,1.582
		c2.539,0.926,4.254,1.855,5.146,2.793C672.744,455.158,673.19,456.338,673.19,457.756z"/>
	<path fill="#2D4E6E" d="M691.627,463.596l-0.645-3.047h-0.156c-1.067,1.342-2.132,2.25-3.193,2.725
		c-1.061,0.477-2.386,0.713-3.975,0.713c-2.122,0-3.786-0.547-4.99-1.641c-1.205-1.094-1.807-2.648-1.807-4.668
		c0-4.322,3.457-6.588,10.371-6.797l3.633-0.117v-1.328c0-1.68-0.361-2.92-1.084-3.721s-1.878-1.201-3.467-1.201
		c-1.783,0-3.802,0.547-6.054,1.641l-0.996-2.48c1.055-0.572,2.21-1.021,3.467-1.348c1.256-0.324,2.516-0.488,3.779-0.488
		c2.553,0,4.443,0.566,5.674,1.699s1.846,2.949,1.846,5.449v14.609H691.627z M684.303,461.311c2.019,0,3.604-0.553,4.756-1.66
		c1.152-1.105,1.729-2.656,1.729-4.648v-1.934l-3.242,0.137c-2.578,0.092-4.437,0.492-5.576,1.201
		c-1.14,0.711-1.709,1.814-1.709,3.311c0,1.172,0.354,2.064,1.064,2.676C682.034,461.006,683.027,461.311,684.303,461.311z"/>
	<path fill="#2D4E6E" d="M727.994,463.596V449.67c0-1.705-0.364-2.984-1.094-3.838c-0.729-0.852-1.861-1.279-3.398-1.279
		c-2.018,0-3.509,0.58-4.473,1.738c-0.963,1.16-1.445,2.943-1.445,5.352v11.953h-3.242V449.67c0-1.705-0.364-2.984-1.094-3.838
		c-0.729-0.852-1.868-1.279-3.418-1.279c-2.031,0-3.519,0.609-4.463,1.826c-0.943,1.219-1.416,3.213-1.416,5.986v11.23h-3.242
		v-21.406h2.637l0.527,2.93h0.156c0.612-1.041,1.475-1.855,2.588-2.441s2.36-0.879,3.74-0.879c3.347,0,5.534,1.211,6.562,3.633
		h0.156c0.639-1.119,1.562-2.004,2.773-2.656c1.211-0.65,2.592-0.977,4.141-0.977c2.422,0,4.235,0.623,5.439,1.865
		c1.205,1.244,1.807,3.232,1.807,5.967v13.965H727.994z"/>
	<path fill="#2D4E6E" d="M746.959,463.986c-3.164,0-5.66-0.963-7.49-2.891c-1.829-1.926-2.744-4.602-2.744-8.027
		c0-3.449,0.85-6.191,2.549-8.223s3.981-3.047,6.846-3.047c2.683,0,4.805,0.883,6.367,2.646c1.562,1.766,2.344,4.092,2.344,6.982
		v2.051h-14.746c0.065,2.514,0.7,4.422,1.904,5.723c1.205,1.303,2.9,1.953,5.088,1.953c2.305,0,4.584-0.48,6.836-1.445v2.891
		c-1.146,0.496-2.229,0.85-3.252,1.064C749.639,463.879,748.404,463.986,746.959,463.986z M746.08,444.514
		c-1.719,0-3.089,0.561-4.111,1.68c-1.021,1.121-1.624,2.67-1.807,4.648h11.191c0-2.043-0.455-3.609-1.367-4.697
		C749.075,445.059,747.773,444.514,746.08,444.514z"/>
	<path fill="#2D4E6E" d="M789.225,452.873c0,3.49-0.879,6.215-2.637,8.174c-1.758,1.961-4.186,2.939-7.285,2.939
		c-1.914,0-3.613-0.449-5.098-1.348s-2.63-2.188-3.438-3.867c-0.807-1.68-1.211-3.645-1.211-5.898c0-3.488,0.873-6.207,2.617-8.154
		c1.745-1.945,4.167-2.92,7.266-2.92c2.995,0,5.375,0.996,7.139,2.988C788.343,446.779,789.225,449.475,789.225,452.873z
		 M772.916,452.873c0,2.734,0.547,4.818,1.641,6.25c1.094,1.434,2.702,2.148,4.824,2.148c2.123,0,3.734-0.713,4.834-2.139
		c1.101-1.426,1.65-3.512,1.65-6.26c0-2.721-0.55-4.787-1.65-6.201c-1.1-1.412-2.725-2.119-4.873-2.119
		c-2.122,0-3.724,0.697-4.805,2.09C773.457,448.037,772.916,450.113,772.916,452.873z"/>
	<path fill="#2D4E6E" d="M812.389,463.596l-3.926-12.559c-0.246-0.768-0.709-2.512-1.387-5.234h-0.156
		c-0.52,2.279-0.977,4.037-1.367,5.273l-4.043,12.52h-3.75l-5.84-21.406h3.398c1.381,5.379,2.432,9.473,3.154,12.285
		s1.137,4.707,1.24,5.684h0.156c0.145-0.742,0.375-1.701,0.693-2.881c0.32-1.178,0.596-2.111,0.83-2.803l3.926-12.285h3.516
		l3.828,12.285c0.73,2.24,1.225,4.121,1.484,5.645h0.156c0.053-0.469,0.193-1.191,0.42-2.168c0.229-0.977,1.586-6.23,4.072-15.762
		h3.359l-5.918,21.406H812.389z"/>
	<path fill="#2D4E6E" d="M840.67,463.596v-13.848c0-1.744-0.396-3.047-1.191-3.906c-0.793-0.859-2.037-1.289-3.73-1.289
		c-2.238,0-3.879,0.605-4.922,1.816c-1.041,1.211-1.562,3.211-1.562,5.996v11.23h-3.242v-21.406h2.637l0.527,2.93h0.156
		c0.664-1.055,1.596-1.871,2.793-2.451c1.199-0.578,2.533-0.869,4.004-0.869c2.578,0,4.52,0.623,5.82,1.865
		c1.303,1.244,1.953,3.232,1.953,5.967v13.965H840.67z"/>
	<path fill="#2D4E6E" d="M859.615,463.986c-3.164,0-5.66-0.963-7.49-2.891c-1.828-1.926-2.744-4.602-2.744-8.027
		c0-3.449,0.85-6.191,2.549-8.223s3.982-3.047,6.846-3.047c2.684,0,4.805,0.883,6.367,2.646c1.562,1.766,2.344,4.092,2.344,6.982
		v2.051H852.74c0.066,2.514,0.701,4.422,1.904,5.723c1.205,1.303,2.9,1.953,5.088,1.953c2.305,0,4.584-0.48,6.836-1.445v2.891
		c-1.145,0.496-2.229,0.85-3.252,1.064C862.295,463.879,861.061,463.986,859.615,463.986z M858.736,444.514
		c-1.719,0-3.088,0.561-4.111,1.68c-1.021,1.121-1.623,2.67-1.807,4.648h11.191c0-2.043-0.455-3.609-1.367-4.697
		C861.732,445.059,860.43,444.514,858.736,444.514z"/>
	<path fill="#2D4E6E" d="M882.779,441.799c0.951,0,1.805,0.078,2.559,0.234l-0.449,3.008c-0.885-0.195-1.666-0.293-2.344-0.293
		c-1.73,0-3.213,0.703-4.443,2.109s-1.846,3.158-1.846,5.254v11.484h-3.242v-21.406h2.676l0.371,3.965h0.156
		c0.795-1.393,1.752-2.467,2.871-3.223C880.209,442.178,881.439,441.799,882.779,441.799z"/>
	<path fill="#2D4E6E" d="M888.873,461.525c0-0.871,0.199-1.533,0.596-1.982c0.398-0.449,0.967-0.674,1.709-0.674
		c0.756,0,1.346,0.225,1.768,0.674c0.424,0.449,0.635,1.111,0.635,1.982c0,0.848-0.215,1.498-0.645,1.953
		c-0.43,0.457-1.016,0.684-1.758,0.684c-0.664,0-1.213-0.205-1.65-0.615C889.092,463.137,888.873,462.463,888.873,461.525z"/>
	<path fill="#2D4E6E" d="M919.654,463.596h-3.32V437.99h-9.043v-2.949h21.406v2.949h-9.043V463.596z"/>
	<path fill="#2D4E6E" d="M947.154,463.596v-13.848c0-1.744-0.396-3.047-1.191-3.906c-0.793-0.859-2.037-1.289-3.73-1.289
		c-2.252,0-3.896,0.613-4.932,1.836c-1.035,1.225-1.553,3.23-1.553,6.016v11.191h-3.242v-30.391h3.242v9.199
		c0,1.107-0.051,2.025-0.156,2.754h0.195c0.639-1.027,1.547-1.838,2.725-2.432c1.18-0.592,2.523-0.889,4.033-0.889
		c2.617,0,4.58,0.623,5.889,1.865c1.309,1.244,1.963,3.221,1.963,5.928v13.965H947.154z"/>
	<path fill="#2D4E6E" d="M966.1,463.986c-3.164,0-5.66-0.963-7.49-2.891c-1.828-1.926-2.744-4.602-2.744-8.027
		c0-3.449,0.85-6.191,2.549-8.223s3.982-3.047,6.846-3.047c2.684,0,4.805,0.883,6.367,2.646c1.562,1.766,2.344,4.092,2.344,6.982
		v2.051h-14.746c0.066,2.514,0.701,4.422,1.904,5.723c1.205,1.303,2.9,1.953,5.088,1.953c2.305,0,4.584-0.48,6.836-1.445v2.891
		c-1.145,0.496-2.229,0.85-3.252,1.064C968.779,463.879,967.545,463.986,966.1,463.986z M965.221,444.514
		c-1.719,0-3.088,0.561-4.111,1.68c-1.021,1.121-1.623,2.67-1.807,4.648h11.191c0-2.043-0.455-3.609-1.367-4.697
		C968.217,445.059,966.914,444.514,965.221,444.514z"/>
	<path fill="#2D4E6E" d="M1008.365,452.873c0,3.49-0.879,6.215-2.637,8.174c-1.758,1.961-4.186,2.939-7.285,2.939
		c-1.914,0-3.613-0.449-5.098-1.348s-2.629-2.188-3.438-3.867c-0.807-1.68-1.211-3.645-1.211-5.898c0-3.488,0.873-6.207,2.617-8.154
		c1.746-1.945,4.168-2.92,7.266-2.92c2.996,0,5.375,0.996,7.139,2.988C1007.484,446.779,1008.365,449.475,1008.365,452.873z
		 M992.057,452.873c0,2.734,0.547,4.818,1.641,6.25c1.094,1.434,2.703,2.148,4.824,2.148c2.123,0,3.734-0.713,4.834-2.139
		c1.102-1.426,1.65-3.512,1.65-6.26c0-2.721-0.549-4.787-1.65-6.201c-1.1-1.412-2.725-2.119-4.873-2.119
		c-2.121,0-3.723,0.697-4.805,2.09C992.598,448.037,992.057,450.113,992.057,452.873z"/>
	<path fill="#2D4E6E" d="M1031.529,463.596l-3.926-12.559c-0.246-0.768-0.709-2.512-1.387-5.234h-0.156
		c-0.52,2.279-0.977,4.037-1.367,5.273l-4.043,12.52h-3.75l-5.84-21.406h3.398c1.381,5.379,2.432,9.473,3.154,12.285
		s1.137,4.707,1.24,5.684h0.156c0.145-0.742,0.375-1.701,0.693-2.881c0.32-1.178,0.596-2.111,0.83-2.803l3.926-12.285h3.516
		l3.828,12.285c0.73,2.24,1.225,4.121,1.484,5.645h0.156c0.053-0.469,0.193-1.191,0.42-2.168c0.229-0.977,1.586-6.23,4.072-15.762
		h3.359l-5.918,21.406H1031.529z"/>
	<path fill="#2D4E6E" d="M1059.811,463.596v-13.848c0-1.744-0.396-3.047-1.191-3.906c-0.793-0.859-2.037-1.289-3.73-1.289
		c-2.238,0-3.879,0.605-4.922,1.816c-1.041,1.211-1.562,3.211-1.562,5.996v11.23h-3.242v-21.406h2.637l0.527,2.93h0.156
		c0.664-1.055,1.596-1.871,2.793-2.451c1.199-0.578,2.533-0.869,4.004-0.869c2.578,0,4.52,0.623,5.82,1.865
		c1.303,1.244,1.953,3.232,1.953,5.967v13.965H1059.811z"/>
	<path fill="#2D4E6E" d="M1078.756,463.986c-3.164,0-5.66-0.963-7.49-2.891c-1.828-1.926-2.744-4.602-2.744-8.027
		c0-3.449,0.85-6.191,2.549-8.223s3.982-3.047,6.846-3.047c2.684,0,4.805,0.883,6.367,2.646c1.562,1.766,2.344,4.092,2.344,6.982
		v2.051h-14.746c0.066,2.514,0.701,4.422,1.904,5.723c1.205,1.303,2.9,1.953,5.088,1.953c2.305,0,4.584-0.48,6.836-1.445v2.891
		c-1.145,0.496-2.229,0.85-3.252,1.064C1081.436,463.879,1080.201,463.986,1078.756,463.986z M1077.877,444.514
		c-1.719,0-3.088,0.561-4.111,1.68c-1.021,1.121-1.623,2.67-1.807,4.648h11.191c0-2.043-0.455-3.609-1.367-4.697
		C1080.873,445.059,1079.57,444.514,1077.877,444.514z"/>
	<path fill="#2D4E6E" d="M1101.92,441.799c0.951,0,1.805,0.078,2.559,0.234l-0.449,3.008c-0.885-0.195-1.666-0.293-2.344-0.293
		c-1.73,0-3.213,0.703-4.443,2.109s-1.846,3.158-1.846,5.254v11.484h-3.242v-21.406h2.676l0.371,3.965h0.156
		c0.795-1.393,1.752-2.467,2.871-3.223C1099.35,442.178,1100.58,441.799,1101.92,441.799z"/>
	<path fill="#2D4E6E" d="M1122.291,457.756c0,1.992-0.742,3.529-2.227,4.609c-1.484,1.082-3.566,1.621-6.25,1.621
		c-2.838,0-5.051-0.449-6.641-1.348v-3.008c1.029,0.521,2.133,0.932,3.311,1.23c1.18,0.301,2.314,0.449,3.408,0.449
		c1.693,0,2.996-0.27,3.906-0.811c0.912-0.539,1.367-1.363,1.367-2.471c0-0.832-0.361-1.545-1.084-2.139
		c-0.723-0.592-2.131-1.291-4.229-2.1c-1.992-0.742-3.408-1.389-4.248-1.943c-0.84-0.553-1.465-1.182-1.875-1.885
		s-0.615-1.543-0.615-2.52c0-1.744,0.711-3.121,2.129-4.131c1.42-1.008,3.367-1.514,5.84-1.514c2.305,0,4.559,0.469,6.758,1.406
		l-1.152,2.637c-2.148-0.885-4.094-1.328-5.84-1.328c-1.535,0-2.695,0.242-3.477,0.723c-0.781,0.482-1.172,1.146-1.172,1.992
		c0,0.574,0.146,1.062,0.439,1.465c0.293,0.404,0.766,0.789,1.416,1.152c0.652,0.365,1.902,0.893,3.75,1.582
		c2.539,0.926,4.256,1.855,5.146,2.793C1121.846,455.158,1122.291,456.338,1122.291,457.756z"/>
	<path fill="#2D4E6E" d="M1142.213,463.596v-13.848c0-1.744-0.396-3.047-1.191-3.906c-0.793-0.859-2.037-1.289-3.73-1.289
		c-2.252,0-3.896,0.613-4.932,1.836c-1.035,1.225-1.553,3.23-1.553,6.016v11.191h-3.242v-30.391h3.242v9.199
		c0,1.107-0.051,2.025-0.156,2.754h0.195c0.639-1.027,1.547-1.838,2.725-2.432c1.18-0.592,2.523-0.889,4.033-0.889
		c2.617,0,4.58,0.623,5.889,1.865c1.309,1.244,1.963,3.221,1.963,5.928v13.965H1142.213z"/>
	<path fill="#2D4E6E" d="M1151.842,436.389c0-0.742,0.184-1.285,0.547-1.631c0.365-0.344,0.82-0.518,1.367-0.518
		c0.521,0,0.971,0.176,1.348,0.527c0.379,0.352,0.566,0.893,0.566,1.621c0,0.73-0.188,1.273-0.566,1.631
		c-0.377,0.359-0.826,0.537-1.348,0.537c-0.547,0-1.002-0.178-1.367-0.537C1152.025,437.662,1151.842,437.119,1151.842,436.389z
		 M1155.357,463.596h-3.242v-21.406h3.242V463.596z"/>
	<path fill="#2D4E6E" d="M1172.193,463.986c-1.393,0-2.666-0.256-3.818-0.771c-1.152-0.514-2.119-1.305-2.9-2.373h-0.234
		c0.156,1.25,0.234,2.436,0.234,3.555v8.809h-3.242v-31.016h2.637l0.449,2.93h0.156c0.834-1.172,1.805-2.018,2.91-2.539
		c1.107-0.52,2.377-0.781,3.809-0.781c2.84,0,5.029,0.971,6.572,2.91c1.543,1.941,2.314,4.662,2.314,8.164
		c0,3.516-0.783,6.248-2.354,8.193C1177.158,463.014,1174.98,463.986,1172.193,463.986z M1171.725,444.553
		c-2.188,0-3.77,0.605-4.746,1.816s-1.477,3.139-1.504,5.781v0.723c0,3.008,0.502,5.16,1.504,6.455
		c1.004,1.297,2.611,1.943,4.824,1.943c1.85,0,3.299-0.748,4.346-2.246c1.049-1.496,1.572-3.561,1.572-6.191
		c0-2.668-0.523-4.717-1.572-6.143C1175.102,445.266,1173.627,444.553,1171.725,444.553z"/>
	<path fill="#2D4E6E" d="M177.331,523.986c-1.394,0-2.666-0.256-3.818-0.771c-1.152-0.514-2.119-1.305-2.9-2.373h-0.234
		c0.156,1.25,0.234,2.436,0.234,3.555v8.809h-3.242v-31.016h2.637l0.449,2.93h0.156c0.833-1.172,1.803-2.018,2.91-2.539
		c1.106-0.52,2.376-0.781,3.809-0.781c2.838,0,5.029,0.971,6.572,2.91c1.543,1.941,2.314,4.662,2.314,8.164
		c0,3.516-0.785,6.248-2.354,8.193C182.294,523.014,180.117,523.986,177.331,523.986z M176.862,504.553
		c-2.188,0-3.77,0.605-4.746,1.816s-1.478,3.139-1.504,5.781v0.723c0,3.008,0.501,5.16,1.504,6.455
		c1.002,1.297,2.61,1.943,4.824,1.943c1.849,0,3.297-0.748,4.346-2.246c1.048-1.496,1.572-3.561,1.572-6.191
		c0-2.668-0.524-4.717-1.572-6.143C180.237,505.266,178.763,504.553,176.862,504.553z"/>
	<path fill="#2D4E6E" d="M201.647,501.799c0.95,0,1.803,0.078,2.559,0.234l-0.449,3.008c-0.886-0.195-1.667-0.293-2.344-0.293
		c-1.732,0-3.213,0.703-4.443,2.109s-1.846,3.158-1.846,5.254v11.484h-3.242v-21.406h2.676l0.371,3.965h0.156
		c0.794-1.393,1.751-2.467,2.871-3.223C199.075,502.178,200.306,501.799,201.647,501.799z"/>
	<path fill="#2D4E6E" d="M226.686,512.873c0,3.49-0.879,6.215-2.637,8.174c-1.758,1.961-4.187,2.939-7.285,2.939
		c-1.914,0-3.613-0.449-5.098-1.348s-2.63-2.188-3.438-3.867c-0.808-1.68-1.211-3.645-1.211-5.898c0-3.488,0.872-6.207,2.617-8.154
		c1.745-1.945,4.167-2.92,7.266-2.92c2.995,0,5.374,0.996,7.139,2.988C225.804,506.779,226.686,509.475,226.686,512.873z
		 M210.377,512.873c0,2.734,0.547,4.818,1.641,6.25c1.094,1.434,2.702,2.148,4.824,2.148c2.122,0,3.733-0.713,4.834-2.139
		c1.1-1.426,1.65-3.512,1.65-6.26c0-2.721-0.55-4.787-1.65-6.201c-1.101-1.412-2.725-2.119-4.873-2.119
		c-2.123,0-3.724,0.697-4.805,2.09C210.917,508.037,210.377,510.113,210.377,512.873z"/>
	<path fill="#2D4E6E" d="M242.331,501.838c2.812,0,4.997,0.961,6.553,2.881c1.556,1.922,2.334,4.639,2.334,8.154
		s-0.785,6.248-2.354,8.193c-1.569,1.947-3.747,2.92-6.533,2.92c-1.394,0-2.666-0.256-3.818-0.771
		c-1.152-0.514-2.119-1.305-2.9-2.373h-0.234l-0.684,2.754h-2.324v-30.391h3.242v7.383c0,1.654-0.052,3.139-0.156,4.453h0.156
		C237.122,502.906,239.362,501.838,242.331,501.838z M241.862,504.553c-2.214,0-3.809,0.635-4.785,1.904s-1.465,3.408-1.465,6.416
		s0.501,5.16,1.504,6.455c1.002,1.297,2.61,1.943,4.824,1.943c1.992,0,3.477-0.725,4.453-2.178c0.977-1.451,1.465-3.537,1.465-6.26
		c0-2.785-0.488-4.863-1.465-6.23S243.906,504.553,241.862,504.553z"/>
	<path fill="#2D4E6E" d="M270.045,523.596l-0.645-3.047h-0.156c-1.068,1.342-2.132,2.25-3.193,2.725
		c-1.062,0.477-2.386,0.713-3.975,0.713c-2.123,0-3.786-0.547-4.99-1.641c-1.205-1.094-1.807-2.648-1.807-4.668
		c0-4.322,3.457-6.588,10.371-6.797l3.633-0.117v-1.328c0-1.68-0.361-2.92-1.084-3.721s-1.878-1.201-3.467-1.201
		c-1.784,0-3.802,0.547-6.055,1.641l-0.996-2.48c1.055-0.572,2.21-1.021,3.467-1.348c1.256-0.324,2.516-0.488,3.779-0.488
		c2.552,0,4.443,0.566,5.674,1.699s1.846,2.949,1.846,5.449v14.609H270.045z M262.721,521.311c2.018,0,3.604-0.553,4.756-1.66
		c1.152-1.105,1.729-2.656,1.729-4.648v-1.934l-3.242,0.137c-2.578,0.092-4.437,0.492-5.576,1.201
		c-1.14,0.711-1.709,1.814-1.709,3.311c0,1.172,0.354,2.064,1.064,2.676C260.452,521.006,261.445,521.311,262.721,521.311z"/>
	<path fill="#2D4E6E" d="M289.088,501.838c2.812,0,4.997,0.961,6.553,2.881c1.556,1.922,2.334,4.639,2.334,8.154
		s-0.785,6.248-2.354,8.193c-1.569,1.947-3.747,2.92-6.533,2.92c-1.394,0-2.666-0.256-3.818-0.771
		c-1.152-0.514-2.119-1.305-2.9-2.373h-0.234l-0.684,2.754h-2.324v-30.391h3.242v7.383c0,1.654-0.052,3.139-0.156,4.453h0.156
		C283.88,502.906,286.12,501.838,289.088,501.838z M288.62,504.553c-2.214,0-3.809,0.635-4.785,1.904s-1.465,3.408-1.465,6.416
		s0.501,5.16,1.504,6.455c1.002,1.297,2.61,1.943,4.824,1.943c1.992,0,3.477-0.725,4.453-2.178c0.977-1.451,1.465-3.537,1.465-6.26
		c0-2.785-0.488-4.863-1.465-6.23S290.664,504.553,288.62,504.553z"/>
	<path fill="#2D4E6E" d="M303.366,496.389c0-0.742,0.182-1.285,0.547-1.631c0.364-0.344,0.82-0.518,1.367-0.518
		c0.521,0,0.97,0.176,1.348,0.527c0.377,0.352,0.566,0.893,0.566,1.621c0,0.73-0.189,1.273-0.566,1.631
		c-0.378,0.359-0.827,0.537-1.348,0.537c-0.547,0-1.003-0.178-1.367-0.537C303.548,497.662,303.366,497.119,303.366,496.389z
		 M306.881,523.596h-3.242v-21.406h3.242V523.596z"/>
	<path fill="#2D4E6E" d="M316.999,523.596h-3.242v-30.391h3.242V523.596z"/>
	<path fill="#2D4E6E" d="M323.6,496.389c0-0.742,0.182-1.285,0.547-1.631c0.364-0.344,0.82-0.518,1.367-0.518
		c0.521,0,0.97,0.176,1.348,0.527c0.377,0.352,0.566,0.893,0.566,1.621c0,0.73-0.189,1.273-0.566,1.631
		c-0.378,0.359-0.827,0.537-1.348,0.537c-0.547,0-1.003-0.178-1.367-0.537C323.782,497.662,323.6,497.119,323.6,496.389z
		 M327.116,523.596h-3.242v-21.406h3.242V523.596z"/>
	<path fill="#2D4E6E" d="M340.905,521.311c0.573,0,1.126-0.041,1.66-0.127c0.534-0.084,0.957-0.172,1.27-0.264v2.48
		c-0.352,0.17-0.869,0.311-1.553,0.42c-0.684,0.111-1.299,0.166-1.846,0.166c-4.141,0-6.211-2.18-6.211-6.543v-12.734h-3.066v-1.562
		l3.066-1.348l1.367-4.57h1.875v4.961h6.211v2.52h-6.211v12.598c0,1.289,0.306,2.279,0.918,2.969
		C338.997,520.967,339.837,521.311,340.905,521.311z"/>
	<path fill="#2D4E6E" d="M344.713,502.189h3.477l4.688,12.207c1.028,2.787,1.667,4.799,1.914,6.035h0.156
		c0.169-0.664,0.524-1.799,1.064-3.408c0.54-1.607,2.308-6.553,5.303-14.834h3.477l-9.199,24.375
		c-0.912,2.41-1.976,4.119-3.193,5.127c-1.218,1.01-2.712,1.514-4.482,1.514c-0.99,0-1.966-0.109-2.93-0.332v-2.598
		c0.716,0.156,1.517,0.234,2.402,0.234c2.227,0,3.815-1.25,4.766-3.75l1.191-3.047L344.713,502.189z"/>
	<path fill="#2D4E6E" d="M378.385,496.389c0-0.742,0.182-1.285,0.547-1.631c0.364-0.344,0.82-0.518,1.367-0.518
		c0.521,0,0.97,0.176,1.348,0.527c0.377,0.352,0.566,0.893,0.566,1.621c0,0.73-0.189,1.273-0.566,1.631
		c-0.378,0.359-0.827,0.537-1.348,0.537c-0.547,0-1.003-0.178-1.367-0.537C378.567,497.662,378.385,497.119,378.385,496.389z
		 M381.901,523.596h-3.242v-21.406h3.242V523.596z"/>
	<path fill="#2D4E6E" d="M402.584,517.756c0,1.992-0.742,3.529-2.227,4.609c-1.484,1.082-3.568,1.621-6.25,1.621
		c-2.839,0-5.052-0.449-6.641-1.348v-3.008c1.028,0.521,2.132,0.932,3.311,1.23c1.178,0.301,2.314,0.449,3.408,0.449
		c1.692,0,2.995-0.27,3.906-0.811c0.911-0.539,1.367-1.363,1.367-2.471c0-0.832-0.361-1.545-1.084-2.139
		c-0.723-0.592-2.132-1.291-4.229-2.1c-1.992-0.742-3.408-1.389-4.248-1.943c-0.84-0.553-1.465-1.182-1.875-1.885
		s-0.615-1.543-0.615-2.52c0-1.744,0.709-3.121,2.129-4.131c1.419-1.008,3.366-1.514,5.84-1.514c2.305,0,4.557,0.469,6.758,1.406
		l-1.152,2.637c-2.148-0.885-4.095-1.328-5.84-1.328c-1.537,0-2.695,0.242-3.477,0.723c-0.781,0.482-1.172,1.146-1.172,1.992
		c0,0.574,0.146,1.062,0.439,1.465c0.293,0.404,0.765,0.789,1.416,1.152c0.651,0.365,1.901,0.893,3.75,1.582
		c2.539,0.926,4.254,1.855,5.146,2.793C402.138,515.158,402.584,516.338,402.584,517.756z"/>
	<path fill="#2D4E6E" d="M432.057,517.756c0,1.992-0.742,3.529-2.227,4.609c-1.484,1.082-3.568,1.621-6.25,1.621
		c-2.839,0-5.052-0.449-6.641-1.348v-3.008c1.028,0.521,2.132,0.932,3.311,1.23c1.178,0.301,2.314,0.449,3.408,0.449
		c1.692,0,2.995-0.27,3.906-0.811c0.911-0.539,1.367-1.363,1.367-2.471c0-0.832-0.361-1.545-1.084-2.139
		c-0.723-0.592-2.132-1.291-4.229-2.1c-1.992-0.742-3.408-1.389-4.248-1.943c-0.84-0.553-1.465-1.182-1.875-1.885
		s-0.615-1.543-0.615-2.52c0-1.744,0.709-3.121,2.129-4.131c1.419-1.008,3.366-1.514,5.84-1.514c2.305,0,4.557,0.469,6.758,1.406
		l-1.152,2.637c-2.148-0.885-4.095-1.328-5.84-1.328c-1.537,0-2.695,0.242-3.477,0.723c-0.781,0.482-1.172,1.146-1.172,1.992
		c0,0.574,0.146,1.062,0.439,1.465c0.293,0.404,0.765,0.789,1.416,1.152c0.651,0.365,1.901,0.893,3.75,1.582
		c2.539,0.926,4.254,1.855,5.146,2.793C431.611,515.158,432.057,516.338,432.057,517.756z"/>
	<path fill="#2D4E6E" d="M446.374,523.986c-3.164,0-5.661-0.963-7.49-2.891c-1.83-1.926-2.744-4.602-2.744-8.027
		c0-3.449,0.85-6.191,2.549-8.223s3.981-3.047,6.846-3.047c2.682,0,4.805,0.883,6.367,2.646c1.562,1.766,2.344,4.092,2.344,6.982
		v2.051h-14.746c0.065,2.514,0.7,4.422,1.904,5.723c1.204,1.303,2.9,1.953,5.088,1.953c2.305,0,4.583-0.48,6.836-1.445v2.891
		c-1.146,0.496-2.23,0.85-3.252,1.064C449.052,523.879,447.819,523.986,446.374,523.986z M445.495,504.514
		c-1.719,0-3.089,0.561-4.111,1.68c-1.022,1.121-1.625,2.67-1.807,4.648h11.191c0-2.043-0.456-3.609-1.367-4.697
		C448.489,505.059,447.187,504.514,445.495,504.514z"/>
	<path fill="#2D4E6E" d="M474.42,523.596v-13.848c0-1.744-0.397-3.047-1.191-3.906c-0.794-0.859-2.038-1.289-3.73-1.289
		c-2.24,0-3.88,0.605-4.922,1.816c-1.042,1.211-1.562,3.211-1.562,5.996v11.23h-3.242v-21.406h2.637l0.527,2.93h0.156
		c0.664-1.055,1.595-1.871,2.793-2.451c1.198-0.578,2.532-0.869,4.004-0.869c2.578,0,4.518,0.623,5.82,1.865
		c1.302,1.244,1.953,3.232,1.953,5.967v13.965H474.42z"/>
	<path fill="#2D4E6E" d="M498.131,517.756c0,1.992-0.742,3.529-2.227,4.609c-1.484,1.082-3.568,1.621-6.25,1.621
		c-2.839,0-5.052-0.449-6.641-1.348v-3.008c1.028,0.521,2.132,0.932,3.311,1.23c1.178,0.301,2.314,0.449,3.408,0.449
		c1.692,0,2.995-0.27,3.906-0.811c0.911-0.539,1.367-1.363,1.367-2.471c0-0.832-0.361-1.545-1.084-2.139
		c-0.723-0.592-2.132-1.291-4.229-2.1c-1.992-0.742-3.408-1.389-4.248-1.943c-0.84-0.553-1.465-1.182-1.875-1.885
		s-0.615-1.543-0.615-2.52c0-1.744,0.709-3.121,2.129-4.131c1.419-1.008,3.366-1.514,5.84-1.514c2.305,0,4.557,0.469,6.758,1.406
		l-1.152,2.637c-2.148-0.885-4.095-1.328-5.84-1.328c-1.537,0-2.695,0.242-3.477,0.723c-0.781,0.482-1.172,1.146-1.172,1.992
		c0,0.574,0.146,1.062,0.439,1.465c0.293,0.404,0.765,0.789,1.416,1.152c0.651,0.365,1.901,0.893,3.75,1.582
		c2.539,0.926,4.254,1.855,5.146,2.793C497.685,515.158,498.131,516.338,498.131,517.756z"/>
	<path fill="#2D4E6E" d="M503.131,496.389c0-0.742,0.182-1.285,0.547-1.631c0.364-0.344,0.82-0.518,1.367-0.518
		c0.521,0,0.97,0.176,1.348,0.527c0.377,0.352,0.566,0.893,0.566,1.621c0,0.73-0.189,1.273-0.566,1.631
		c-0.378,0.359-0.827,0.537-1.348,0.537c-0.547,0-1.003-0.178-1.367-0.537C503.313,497.662,503.131,497.119,503.131,496.389z
		 M506.647,523.596h-3.242v-21.406h3.242V523.596z"/>
	<path fill="#2D4E6E" d="M520.436,521.311c0.573,0,1.126-0.041,1.66-0.127c0.534-0.084,0.957-0.172,1.27-0.264v2.48
		c-0.352,0.17-0.869,0.311-1.553,0.42c-0.684,0.111-1.299,0.166-1.846,0.166c-4.141,0-6.211-2.18-6.211-6.543v-12.734h-3.066v-1.562
		l3.066-1.348l1.367-4.57h1.875v4.961h6.211v2.52h-6.211v12.598c0,1.289,0.306,2.279,0.918,2.969
		C518.528,520.967,519.368,521.311,520.436,521.311z"/>
	<path fill="#2D4E6E" d="M527.37,496.389c0-0.742,0.182-1.285,0.547-1.631c0.364-0.344,0.82-0.518,1.367-0.518
		c0.521,0,0.97,0.176,1.348,0.527c0.377,0.352,0.566,0.893,0.566,1.621c0,0.73-0.189,1.273-0.566,1.631
		c-0.378,0.359-0.827,0.537-1.348,0.537c-0.547,0-1.003-0.178-1.367-0.537C527.552,497.662,527.37,497.119,527.37,496.389z
		 M530.885,523.596h-3.242v-21.406h3.242V523.596z"/>
	<path fill="#2D4E6E" d="M542.448,523.596l-8.125-21.406h3.477l4.609,12.695c1.042,2.969,1.653,4.896,1.836,5.781h0.156
		c0.143-0.689,0.596-2.119,1.357-4.287s2.471-6.896,5.127-14.189h3.477l-8.125,21.406H542.448z"/>
	<path fill="#2D4E6E" d="M566.842,523.986c-3.164,0-5.661-0.963-7.49-2.891c-1.83-1.926-2.744-4.602-2.744-8.027
		c0-3.449,0.85-6.191,2.549-8.223s3.981-3.047,6.846-3.047c2.682,0,4.805,0.883,6.367,2.646c1.562,1.766,2.344,4.092,2.344,6.982
		v2.051h-14.746c0.065,2.514,0.7,4.422,1.904,5.723c1.204,1.303,2.9,1.953,5.088,1.953c2.305,0,4.583-0.48,6.836-1.445v2.891
		c-1.146,0.496-2.23,0.85-3.252,1.064C569.521,523.879,568.288,523.986,566.842,523.986z M565.963,504.514
		c-1.719,0-3.089,0.561-4.111,1.68c-1.022,1.121-1.625,2.67-1.807,4.648h11.191c0-2.043-0.456-3.609-1.367-4.697
		C568.958,505.059,567.656,504.514,565.963,504.514z"/>
	<path fill="#2D4E6E" d="M597.545,521.311c0.573,0,1.126-0.041,1.66-0.127c0.534-0.084,0.957-0.172,1.27-0.264v2.48
		c-0.352,0.17-0.869,0.311-1.553,0.42c-0.684,0.111-1.299,0.166-1.846,0.166c-4.141,0-6.211-2.18-6.211-6.543v-12.734h-3.066v-1.562
		l3.066-1.348l1.367-4.57h1.875v4.961h6.211v2.52h-6.211v12.598c0,1.289,0.306,2.279,0.918,2.969
		C595.638,520.967,596.478,521.311,597.545,521.311z"/>
	<path fill="#2D4E6E" d="M623.229,512.873c0,3.49-0.879,6.215-2.637,8.174c-1.758,1.961-4.187,2.939-7.285,2.939
		c-1.914,0-3.613-0.449-5.098-1.348s-2.63-2.188-3.438-3.867c-0.808-1.68-1.211-3.645-1.211-5.898c0-3.488,0.872-6.207,2.617-8.154
		c1.745-1.945,4.167-2.92,7.266-2.92c2.995,0,5.374,0.996,7.139,2.988C622.347,506.779,623.229,509.475,623.229,512.873z
		 M606.92,512.873c0,2.734,0.547,4.818,1.641,6.25c1.094,1.434,2.702,2.148,4.824,2.148c2.122,0,3.733-0.713,4.834-2.139
		c1.1-1.426,1.65-3.512,1.65-6.26c0-2.721-0.55-4.787-1.65-6.201c-1.101-1.412-2.725-2.119-4.873-2.119
		c-2.123,0-3.724,0.697-4.805,2.09C607.46,508.037,606.92,510.113,606.92,512.873z"/>
	<path fill="#2D4E6E" d="M646.217,521.311c0.573,0,1.126-0.041,1.66-0.127c0.534-0.084,0.957-0.172,1.27-0.264v2.48
		c-0.352,0.17-0.869,0.311-1.553,0.42c-0.684,0.111-1.299,0.166-1.846,0.166c-4.141,0-6.211-2.18-6.211-6.543v-12.734h-3.066v-1.562
		l3.066-1.348l1.367-4.57h1.875v4.961h6.211v2.52h-6.211v12.598c0,1.289,0.306,2.279,0.918,2.969
		C644.31,520.967,645.149,521.311,646.217,521.311z"/>
	<path fill="#2D4E6E" d="M668.073,523.596v-13.848c0-1.744-0.397-3.047-1.191-3.906c-0.794-0.859-2.038-1.289-3.73-1.289
		c-2.253,0-3.896,0.613-4.932,1.836c-1.035,1.225-1.553,3.23-1.553,6.016v11.191h-3.242v-30.391h3.242v9.199
		c0,1.107-0.052,2.025-0.156,2.754h0.195c0.638-1.027,1.546-1.838,2.725-2.432c1.178-0.592,2.522-0.889,4.033-0.889
		c2.617,0,4.58,0.623,5.889,1.865c1.309,1.244,1.963,3.221,1.963,5.928v13.965H668.073z"/>
	<path fill="#2D4E6E" d="M687.018,523.986c-3.164,0-5.661-0.963-7.49-2.891c-1.83-1.926-2.744-4.602-2.744-8.027
		c0-3.449,0.85-6.191,2.549-8.223s3.981-3.047,6.845-3.047c2.683,0,4.805,0.883,6.367,2.646c1.562,1.766,2.344,4.092,2.344,6.982
		v2.051h-14.746c0.065,2.514,0.7,4.422,1.904,5.723c1.204,1.303,2.9,1.953,5.087,1.953c2.305,0,4.584-0.48,6.836-1.445v2.891
		c-1.146,0.496-2.229,0.85-3.252,1.064C689.697,523.879,688.463,523.986,687.018,523.986z M686.139,504.514
		c-1.719,0-3.089,0.561-4.111,1.68c-1.022,1.121-1.625,2.67-1.807,4.648h11.191c0-2.043-0.455-3.609-1.367-4.697
		C689.134,505.059,687.832,504.514,686.139,504.514z"/>
	<path fill="#2D4E6E" d="M725.455,523.596v-13.848c0-1.744-0.396-3.047-1.191-3.906c-0.794-0.859-2.037-1.289-3.73-1.289
		c-2.252,0-3.896,0.613-4.932,1.836c-1.035,1.225-1.553,3.23-1.553,6.016v11.191h-3.242v-30.391h3.242v9.199
		c0,1.107-0.052,2.025-0.156,2.754h0.195c0.639-1.027,1.547-1.838,2.725-2.432c1.179-0.592,2.523-0.889,4.033-0.889
		c2.617,0,4.58,0.623,5.889,1.865c1.309,1.244,1.963,3.221,1.963,5.928v13.965H725.455z"/>
	<path fill="#2D4E6E" d="M744.4,523.986c-3.164,0-5.66-0.963-7.49-2.891c-1.829-1.926-2.744-4.602-2.744-8.027
		c0-3.449,0.85-6.191,2.549-8.223s3.981-3.047,6.846-3.047c2.683,0,4.805,0.883,6.367,2.646c1.562,1.766,2.344,4.092,2.344,6.982
		v2.051h-14.746c0.065,2.514,0.7,4.422,1.904,5.723c1.205,1.303,2.9,1.953,5.088,1.953c2.305,0,4.584-0.48,6.836-1.445v2.891
		c-1.146,0.496-2.229,0.85-3.252,1.064C747.08,523.879,745.846,523.986,744.4,523.986z M743.521,504.514
		c-1.719,0-3.089,0.561-4.111,1.68c-1.021,1.121-1.624,2.67-1.807,4.648h11.191c0-2.043-0.455-3.609-1.367-4.697
		C746.517,505.059,745.215,504.514,743.521,504.514z"/>
	<path fill="#2D4E6E" d="M760.846,502.189v13.887c0,1.746,0.397,3.047,1.191,3.906c0.795,0.859,2.038,1.289,3.73,1.289
		c2.24,0,3.877-0.611,4.912-1.836c1.035-1.223,1.553-3.223,1.553-5.996v-11.25h3.242v21.406h-2.676l-0.469-2.871h-0.176
		c-0.664,1.055-1.585,1.863-2.764,2.422c-1.178,0.561-2.522,0.84-4.033,0.84c-2.604,0-4.554-0.617-5.85-1.855
		c-1.295-1.236-1.943-3.215-1.943-5.938v-14.004H760.846z"/>
	<path fill="#2D4E6E" d="M792.115,501.799c0.951,0,1.805,0.078,2.559,0.234l-0.449,3.008c-0.885-0.195-1.666-0.293-2.344-0.293
		c-1.731,0-3.213,0.703-4.443,2.109s-1.846,3.158-1.846,5.254v11.484h-3.242v-21.406h2.676l0.371,3.965h0.156
		c0.795-1.393,1.752-2.467,2.871-3.223C789.544,502.178,790.774,501.799,792.115,501.799z"/>
	<path fill="#2D4E6E" d="M798.404,496.389c0-0.742,0.184-1.285,0.547-1.631c0.365-0.344,0.82-0.518,1.367-0.518
		c0.521,0,0.971,0.176,1.348,0.527c0.379,0.352,0.566,0.893,0.566,1.621c0,0.73-0.188,1.273-0.566,1.631
		c-0.377,0.359-0.826,0.537-1.348,0.537c-0.547,0-1.002-0.178-1.367-0.537C798.588,497.662,798.404,497.119,798.404,496.389z
		 M801.92,523.596h-3.242v-21.406h3.242V523.596z"/>
	<path fill="#2D4E6E" d="M822.604,517.756c0,1.992-0.742,3.529-2.227,4.609c-1.484,1.082-3.566,1.621-6.25,1.621
		c-2.838,0-5.051-0.449-6.641-1.348v-3.008c1.029,0.521,2.133,0.932,3.311,1.23c1.18,0.301,2.314,0.449,3.408,0.449
		c1.693,0,2.996-0.27,3.906-0.811c0.912-0.539,1.367-1.363,1.367-2.471c0-0.832-0.361-1.545-1.084-2.139
		c-0.723-0.592-2.131-1.291-4.229-2.1c-1.992-0.742-3.408-1.389-4.248-1.943c-0.84-0.553-1.465-1.182-1.875-1.885
		s-0.615-1.543-0.615-2.52c0-1.744,0.711-3.121,2.129-4.131c1.42-1.008,3.367-1.514,5.84-1.514c2.305,0,4.559,0.469,6.758,1.406
		l-1.152,2.637c-2.148-0.885-4.094-1.328-5.84-1.328c-1.535,0-2.695,0.242-3.477,0.723c-0.781,0.482-1.172,1.146-1.172,1.992
		c0,0.574,0.146,1.062,0.439,1.465c0.293,0.404,0.766,0.789,1.416,1.152c0.652,0.365,1.902,0.893,3.75,1.582
		c2.539,0.926,4.256,1.855,5.146,2.793C822.158,515.158,822.604,516.338,822.604,517.756z"/>
	<path fill="#2D4E6E" d="M834.791,521.311c0.574,0,1.127-0.041,1.66-0.127c0.535-0.084,0.957-0.172,1.27-0.264v2.48
		c-0.352,0.17-0.869,0.311-1.553,0.42c-0.684,0.111-1.299,0.166-1.846,0.166c-4.141,0-6.211-2.18-6.211-6.543v-12.734h-3.066v-1.562
		l3.066-1.348l1.367-4.57h1.875v4.961h6.211v2.52h-6.211v12.598c0,1.289,0.307,2.279,0.918,2.969
		C832.885,520.967,833.725,521.311,834.791,521.311z"/>
	<path fill="#2D4E6E" d="M841.725,496.389c0-0.742,0.184-1.285,0.547-1.631c0.365-0.344,0.82-0.518,1.367-0.518
		c0.521,0,0.971,0.176,1.348,0.527c0.379,0.352,0.566,0.893,0.566,1.621c0,0.73-0.188,1.273-0.566,1.631
		c-0.377,0.359-0.826,0.537-1.348,0.537c-0.547,0-1.002-0.178-1.367-0.537C841.908,497.662,841.725,497.119,841.725,496.389z
		 M845.24,523.596h-3.242v-21.406h3.242V523.596z"/>
	<path fill="#2D4E6E" d="M860.67,523.986c-3.098,0-5.498-0.953-7.197-2.861c-1.699-1.906-2.549-4.605-2.549-8.096
		c0-3.58,0.863-6.348,2.588-8.301c1.727-1.953,4.184-2.93,7.373-2.93c1.029,0,2.059,0.111,3.086,0.332
		c1.029,0.223,1.836,0.482,2.422,0.781l-0.996,2.754c-0.715-0.285-1.496-0.523-2.344-0.713c-0.846-0.188-1.594-0.283-2.246-0.283
		c-4.348,0-6.523,2.773-6.523,8.32c0,2.631,0.531,4.648,1.592,6.055c1.062,1.406,2.635,2.109,4.717,2.109
		c1.785,0,3.613-0.383,5.488-1.152v2.871C864.648,523.615,862.846,523.986,860.67,523.986z"/>
	<path fill="#2D4E6E" d="M884.967,517.756c0,1.992-0.742,3.529-2.227,4.609c-1.484,1.082-3.566,1.621-6.25,1.621
		c-2.838,0-5.051-0.449-6.641-1.348v-3.008c1.029,0.521,2.133,0.932,3.311,1.23c1.18,0.301,2.314,0.449,3.408,0.449
		c1.693,0,2.996-0.27,3.906-0.811c0.912-0.539,1.367-1.363,1.367-2.471c0-0.832-0.361-1.545-1.084-2.139
		c-0.723-0.592-2.131-1.291-4.229-2.1c-1.992-0.742-3.408-1.389-4.248-1.943c-0.84-0.553-1.465-1.182-1.875-1.885
		s-0.615-1.543-0.615-2.52c0-1.744,0.711-3.121,2.129-4.131c1.42-1.008,3.367-1.514,5.84-1.514c2.305,0,4.559,0.469,6.758,1.406
		l-1.152,2.637c-2.148-0.885-4.094-1.328-5.84-1.328c-1.535,0-2.695,0.242-3.477,0.723c-0.781,0.482-1.172,1.146-1.172,1.992
		c0,0.574,0.146,1.062,0.439,1.465c0.293,0.404,0.766,0.789,1.416,1.152c0.652,0.365,1.902,0.893,3.75,1.582
		c2.539,0.926,4.256,1.855,5.146,2.793C884.521,515.158,884.967,516.338,884.967,517.756z"/>
	<path fill="#2D4E6E" d="M913.795,523.596l-0.645-3.047h-0.156c-1.066,1.342-2.131,2.25-3.193,2.725
		c-1.061,0.477-2.385,0.713-3.975,0.713c-2.121,0-3.785-0.547-4.99-1.641c-1.203-1.094-1.807-2.648-1.807-4.668
		c0-4.322,3.457-6.588,10.371-6.797l3.633-0.117v-1.328c0-1.68-0.361-2.92-1.084-3.721s-1.877-1.201-3.467-1.201
		c-1.783,0-3.801,0.547-6.055,1.641l-0.996-2.48c1.055-0.572,2.211-1.021,3.467-1.348c1.258-0.324,2.518-0.488,3.779-0.488
		c2.553,0,4.443,0.566,5.674,1.699s1.846,2.949,1.846,5.449v14.609H913.795z M906.471,521.311c2.02,0,3.604-0.553,4.756-1.66
		c1.152-1.105,1.729-2.656,1.729-4.648v-1.934l-3.242,0.137c-2.578,0.092-4.436,0.492-5.576,1.201
		c-1.139,0.711-1.709,1.814-1.709,3.311c0,1.172,0.355,2.064,1.064,2.676C904.203,521.006,905.195,521.311,906.471,521.311z"/>
	<path fill="#2D4E6E" d="M932.838,523.986c-1.393,0-2.666-0.256-3.818-0.771c-1.152-0.514-2.119-1.305-2.9-2.373h-0.234
		c0.156,1.25,0.234,2.436,0.234,3.555v8.809h-3.242v-31.016h2.637l0.449,2.93h0.156c0.834-1.172,1.805-2.018,2.91-2.539
		c1.107-0.52,2.377-0.781,3.809-0.781c2.84,0,5.029,0.971,6.572,2.91c1.543,1.941,2.314,4.662,2.314,8.164
		c0,3.516-0.783,6.248-2.354,8.193C937.803,523.014,935.625,523.986,932.838,523.986z M932.369,504.553
		c-2.188,0-3.77,0.605-4.746,1.816s-1.477,3.139-1.504,5.781v0.723c0,3.008,0.502,5.16,1.504,6.455
		c1.004,1.297,2.611,1.943,4.824,1.943c1.85,0,3.299-0.748,4.346-2.246c1.049-1.496,1.572-3.561,1.572-6.191
		c0-2.668-0.523-4.717-1.572-6.143C935.746,505.266,934.271,504.553,932.369,504.553z"/>
	<path fill="#2D4E6E" d="M957.35,523.986c-1.393,0-2.666-0.256-3.818-0.771c-1.152-0.514-2.119-1.305-2.9-2.373h-0.234
		c0.156,1.25,0.234,2.436,0.234,3.555v8.809h-3.242v-31.016h2.637l0.449,2.93h0.156c0.834-1.172,1.805-2.018,2.91-2.539
		c1.107-0.52,2.377-0.781,3.809-0.781c2.84,0,5.029,0.971,6.572,2.91c1.543,1.941,2.314,4.662,2.314,8.164
		c0,3.516-0.783,6.248-2.354,8.193C962.314,523.014,960.137,523.986,957.35,523.986z M956.881,504.553
		c-2.188,0-3.77,0.605-4.746,1.816s-1.477,3.139-1.504,5.781v0.723c0,3.008,0.502,5.16,1.504,6.455
		c1.004,1.297,2.611,1.943,4.824,1.943c1.85,0,3.299-0.748,4.346-2.246c1.049-1.496,1.572-3.561,1.572-6.191
		c0-2.668-0.523-4.717-1.572-6.143C960.258,505.266,958.783,504.553,956.881,504.553z"/>
	<path fill="#2D4E6E" d="M975.143,523.596H971.9v-30.391h3.242V523.596z"/>
	<path fill="#2D4E6E" d="M981.744,496.389c0-0.742,0.184-1.285,0.547-1.631c0.365-0.344,0.82-0.518,1.367-0.518
		c0.521,0,0.971,0.176,1.348,0.527c0.379,0.352,0.566,0.893,0.566,1.621c0,0.73-0.188,1.273-0.566,1.631
		c-0.377,0.359-0.826,0.537-1.348,0.537c-0.547,0-1.002-0.178-1.367-0.537C981.928,497.662,981.744,497.119,981.744,496.389z
		 M985.26,523.596h-3.242v-21.406h3.242V523.596z"/>
	<path fill="#2D4E6E" d="M1001.178,523.986c-3.164,0-5.66-0.963-7.49-2.891c-1.828-1.926-2.744-4.602-2.744-8.027
		c0-3.449,0.85-6.191,2.549-8.223s3.982-3.047,6.846-3.047c2.684,0,4.805,0.883,6.367,2.646c1.562,1.766,2.344,4.092,2.344,6.982
		v2.051h-14.746c0.066,2.514,0.701,4.422,1.904,5.723c1.205,1.303,2.9,1.953,5.088,1.953c2.305,0,4.584-0.48,6.836-1.445v2.891
		c-1.145,0.496-2.229,0.85-3.252,1.064C1003.857,523.879,1002.623,523.986,1001.178,523.986z M1000.299,504.514
		c-1.719,0-3.088,0.561-4.111,1.68c-1.021,1.121-1.623,2.67-1.807,4.648h11.191c0-2.043-0.455-3.609-1.367-4.697
		C1003.295,505.059,1001.992,504.514,1000.299,504.514z"/>
	<path fill="#2D4E6E" d="M1029.146,520.725h-0.176c-1.496,2.176-3.736,3.262-6.719,3.262c-2.799,0-4.977-0.957-6.533-2.871
		c-1.555-1.914-2.334-4.635-2.334-8.164c0-3.527,0.781-6.27,2.344-8.223s3.738-2.93,6.523-2.93c2.904,0,5.131,1.055,6.68,3.164
		h0.254l-0.137-1.543l-0.078-1.504v-8.711h3.242v30.391h-2.637L1029.146,520.725z M1022.662,521.271
		c2.215,0,3.818-0.602,4.814-1.807c0.996-1.203,1.494-3.146,1.494-5.83v-0.684c0-3.033-0.504-5.197-1.514-6.494
		c-1.008-1.295-2.619-1.943-4.834-1.943c-1.9,0-3.355,0.74-4.365,2.217c-1.008,1.479-1.514,3.564-1.514,6.26
		c0,2.734,0.502,4.799,1.504,6.191C1019.252,520.576,1020.723,521.271,1022.662,521.271z"/>
	<path fill="#2D4E6E" d="M1038.619,521.525c0-0.871,0.199-1.533,0.596-1.982c0.398-0.449,0.967-0.674,1.709-0.674
		c0.756,0,1.346,0.225,1.768,0.674c0.424,0.449,0.635,1.111,0.635,1.982c0,0.848-0.215,1.498-0.645,1.953
		c-0.43,0.457-1.016,0.684-1.758,0.684c-0.664,0-1.213-0.205-1.65-0.615C1038.838,523.137,1038.619,522.463,1038.619,521.525z"/>
</g>
</svg>
