<?xml version="1.0" encoding="utf-8"?>
<!-- Generator: Adobe Illustrator 16.0.4, SVG Export Plug-In . SVG Version: 6.00 Build 0)  -->
<!DOCTYPE svg PUBLIC "-//W3C//DTD SVG 1.1//EN" "http://www.w3.org/Graphics/SVG/1.1/DTD/svg11.dtd">
<svg version="1.1" id="Layer_1" xmlns="http://www.w3.org/2000/svg" xmlns:xlink="http://www.w3.org/1999/xlink" x="0px" y="0px"
	 width="1366px" height="768px" viewBox="0 0 1366 768" enable-background="new 0 0 1366 768" xml:space="preserve">
<rect fill="#FFFFFF" width="1366" height="768"/>
<g enable-background="new    ">
	<rect x="306.421" y="308.593" fill="none" width="790.407" height="173.784"/>
	<path fill="#2D4E6E" d="M324.683,346.593h-7.568v-29.395h-9.692v-6.299h26.953v6.299h-9.692V346.593z"/>
	<path fill="#2D4E6E" d="M356.617,346.593l-1.44-3.711h-0.195c-1.253,1.579-2.543,2.673-3.87,3.284
		c-1.327,0.61-3.056,0.916-5.188,0.916c-2.621,0-4.684-0.749-6.189-2.246c-1.506-1.497-2.258-3.629-2.258-6.396
		c0-2.897,1.013-5.033,3.04-6.409c2.026-1.375,5.082-2.136,9.167-2.283l4.736-0.146v-1.196c0-2.767-1.416-4.15-4.248-4.15
		c-2.181,0-4.745,0.659-7.69,1.978l-2.466-5.029c3.141-1.644,6.624-2.466,10.449-2.466c3.662,0,6.47,0.798,8.423,2.393
		c1.953,1.595,2.93,4.021,2.93,7.275v18.188H356.617z M354.419,333.946l-2.881,0.098c-2.165,0.065-3.776,0.456-4.834,1.172
		c-1.058,0.716-1.587,1.807-1.587,3.271c0,2.1,1.204,3.149,3.613,3.149c1.725,0,3.104-0.496,4.138-1.489
		c1.033-0.993,1.55-2.311,1.55-3.955V333.946z"/>
	<path fill="#2D4E6E" d="M369.166,312.242c0-2.425,1.351-3.638,4.053-3.638c2.702,0,4.053,1.213,4.053,3.638
		c0,1.156-0.338,2.055-1.013,2.698c-0.676,0.643-1.689,0.964-3.04,0.964C370.516,315.904,369.166,314.684,369.166,312.242z
		 M376.929,346.593h-7.446v-27.295h7.446V346.593z"/>
	<path fill="#2D4E6E" d="M409.937,346.593h-7.446V330.65c0-1.969-0.35-3.446-1.05-4.431c-0.7-0.984-1.815-1.477-3.345-1.477
		c-2.083,0-3.589,0.696-4.517,2.087s-1.392,3.699-1.392,6.921v12.842h-7.446v-27.295h5.688l1.001,3.491h0.415
		c0.83-1.318,1.973-2.315,3.43-2.991c1.457-0.675,3.113-1.013,4.968-1.013c3.174,0,5.583,0.859,7.227,2.576
		c1.644,1.717,2.466,4.195,2.466,7.434V346.593z"/>
	<path fill="#2D4E6E" d="M429.102,341.148c1.302,0,2.864-0.285,4.688-0.854v5.542c-1.855,0.83-4.134,1.245-6.836,1.245
		c-2.979,0-5.147-0.752-6.506-2.258c-1.359-1.505-2.039-3.764-2.039-6.775v-13.159h-3.564v-3.149l4.102-2.49l2.148-5.762h4.761
		v5.811h7.642v5.591h-7.642v13.159c0,1.058,0.297,1.839,0.891,2.344C427.34,340.896,428.125,341.148,429.102,341.148z"/>
	<path fill="#2D4E6E" d="M322.315,416.593h-4.15v-32.007h-11.304v-3.687h26.758v3.687h-11.304V416.593z"/>
	<path fill="#2D4E6E" d="M356.69,416.593v-17.31c0-2.181-0.497-3.809-1.489-4.883c-0.993-1.074-2.547-1.611-4.663-1.611
		c-2.816,0-4.871,0.766-6.165,2.295c-1.294,1.53-1.941,4.037-1.941,7.52v13.989h-4.053v-37.988h4.053v11.499
		c0,1.384-0.065,2.531-0.195,3.442h0.244c0.797-1.286,1.933-2.299,3.406-3.04c1.473-0.74,3.153-1.11,5.042-1.11
		c3.271,0,5.725,0.777,7.361,2.331c1.636,1.555,2.454,4.025,2.454,7.41v17.456H356.69z"/>
	<path fill="#2D4E6E" d="M380.372,417.081c-3.955,0-7.076-1.204-9.363-3.613c-2.287-2.409-3.43-5.753-3.43-10.034
		c0-4.312,1.062-7.739,3.186-10.278s4.976-3.809,8.557-3.809c3.353,0,6.006,1.103,7.959,3.308c1.953,2.206,2.93,5.115,2.93,8.729
		v2.563h-18.433c0.081,3.142,0.875,5.526,2.38,7.153c1.505,1.628,3.625,2.441,6.36,2.441c2.881,0,5.729-0.602,8.545-1.807v3.613
		c-1.433,0.619-2.788,1.062-4.065,1.331C383.72,416.946,382.178,417.081,380.372,417.081z M379.273,392.74
		c-2.148,0-3.862,0.7-5.139,2.1c-1.278,1.4-2.031,3.337-2.258,5.811h13.989c0-2.555-0.57-4.512-1.709-5.871
		C383.016,393.42,381.389,392.74,379.273,392.74z"/>
	<path fill="#2D4E6E" d="M428.321,413.004h-0.22c-1.872,2.719-4.671,4.077-8.398,4.077c-3.5,0-6.222-1.196-8.167-3.589
		c-1.945-2.393-2.917-5.794-2.917-10.205c0-4.41,0.977-7.837,2.93-10.278s4.671-3.662,8.154-3.662c3.629,0,6.413,1.318,8.35,3.955
		h0.317l-0.171-1.929l-0.098-1.88v-10.889h4.053v37.988h-3.296L428.321,413.004z M420.215,413.688c2.767,0,4.773-0.752,6.018-2.258
		s1.868-3.936,1.868-7.288v-0.854c0-3.792-0.631-6.498-1.892-8.117c-1.262-1.619-3.276-2.43-6.042-2.43
		c-2.376,0-4.195,0.924-5.457,2.771c-1.262,1.848-1.892,4.455-1.892,7.824c0,3.418,0.626,5.998,1.88,7.739
		C415.951,412.816,417.79,413.688,420.215,413.688z"/>
	<path fill="#2D4E6E" d="M452.051,417.081c-3.955,0-7.076-1.204-9.363-3.613c-2.287-2.409-3.43-5.753-3.43-10.034
		c0-4.312,1.062-7.739,3.186-10.278s4.976-3.809,8.557-3.809c3.353,0,6.006,1.103,7.959,3.308c1.953,2.206,2.93,5.115,2.93,8.729
		v2.563h-18.433c0.081,3.142,0.875,5.526,2.38,7.153c1.505,1.628,3.625,2.441,6.36,2.441c2.881,0,5.729-0.602,8.545-1.807v3.613
		c-1.433,0.619-2.788,1.062-4.065,1.331C455.4,416.946,453.858,417.081,452.051,417.081z M450.953,392.74
		c-2.148,0-3.862,0.7-5.139,2.1c-1.278,1.4-2.031,3.337-2.258,5.811h13.989c0-2.555-0.57-4.512-1.709-5.871
		C454.696,393.42,453.068,392.74,450.953,392.74z"/>
	<path fill="#2D4E6E" d="M477.442,413.736c0.716,0,1.408-0.053,2.075-0.158c0.667-0.105,1.196-0.216,1.587-0.33v3.101
		c-0.439,0.212-1.086,0.387-1.941,0.525c-0.854,0.138-1.624,0.207-2.307,0.207c-5.176,0-7.764-2.726-7.764-8.179v-15.918h-3.833
		v-1.953l3.833-1.685l1.709-5.713h2.344v6.201h7.764v3.149h-7.764v15.747c0,1.611,0.382,2.849,1.147,3.711
		C475.057,413.305,476.107,413.736,477.442,413.736z"/>
	<path fill="#2D4E6E" d="M497.754,417.081c-3.955,0-7.076-1.204-9.363-3.613c-2.287-2.409-3.43-5.753-3.43-10.034
		c0-4.312,1.062-7.739,3.186-10.278s4.976-3.809,8.557-3.809c3.353,0,6.006,1.103,7.959,3.308c1.953,2.206,2.93,5.115,2.93,8.729
		v2.563h-18.433c0.081,3.142,0.875,5.526,2.38,7.153c1.505,1.628,3.625,2.441,6.36,2.441c2.881,0,5.729-0.602,8.545-1.807v3.613
		c-1.433,0.619-2.788,1.062-4.065,1.331C501.103,416.946,499.561,417.081,497.754,417.081z M496.656,392.74
		c-2.148,0-3.862,0.7-5.139,2.1c-1.278,1.4-2.031,3.337-2.258,5.811h13.989c0-2.555-0.57-4.512-1.709-5.871
		C500.399,393.42,498.771,392.74,496.656,392.74z"/>
	<path fill="#2D4E6E" d="M526.709,389.347c1.188,0,2.254,0.098,3.198,0.293l-0.562,3.76c-1.107-0.244-2.083-0.366-2.93-0.366
		c-2.165,0-4.016,0.879-5.554,2.637s-2.307,3.947-2.307,6.567v14.355h-4.053v-26.758h3.345l0.464,4.956h0.195
		c0.993-1.741,2.189-3.084,3.589-4.028C523.495,389.818,525.033,389.347,526.709,389.347z"/>
	<path fill="#2D4E6E" d="M569.019,416.593v-17.407c0-2.132-0.456-3.73-1.367-4.797c-0.912-1.066-2.328-1.6-4.248-1.6
		c-2.523,0-4.387,0.725-5.591,2.173c-1.205,1.448-1.807,3.679-1.807,6.689v14.941h-4.053v-17.407c0-2.132-0.456-3.73-1.367-4.797
		c-0.912-1.066-2.336-1.6-4.272-1.6c-2.539,0-4.399,0.762-5.579,2.283c-1.18,1.521-1.77,4.016-1.77,7.482v14.038h-4.053v-26.758
		h3.296l0.659,3.662h0.195c0.765-1.302,1.843-2.319,3.235-3.052s2.95-1.099,4.675-1.099c4.183,0,6.917,1.514,8.203,4.541h0.195
		c0.797-1.399,1.953-2.507,3.467-3.32s3.239-1.221,5.176-1.221c3.027,0,5.293,0.777,6.799,2.331
		c1.505,1.555,2.258,4.041,2.258,7.459v17.456H569.019z"/>
	<path fill="#2D4E6E" d="M581.08,382.584c0-0.928,0.228-1.607,0.684-2.039c0.456-0.431,1.025-0.647,1.709-0.647
		c0.651,0,1.212,0.22,1.685,0.659c0.472,0.439,0.708,1.115,0.708,2.026c0,0.912-0.236,1.591-0.708,2.039
		c-0.472,0.447-1.034,0.671-1.685,0.671c-0.684,0-1.253-0.224-1.709-0.671C581.307,384.175,581.08,383.496,581.08,382.584z
		 M585.474,416.593h-4.053v-26.758h4.053V416.593z"/>
	<path fill="#2D4E6E" d="M612.378,416.593v-17.31c0-2.181-0.497-3.809-1.489-4.883c-0.993-1.074-2.547-1.611-4.663-1.611
		c-2.8,0-4.851,0.757-6.152,2.271c-1.302,1.514-1.953,4.013-1.953,7.495v14.038h-4.053v-26.758h3.296l0.659,3.662h0.195
		c0.83-1.318,1.994-2.339,3.491-3.063c1.497-0.725,3.166-1.087,5.005-1.087c3.223,0,5.647,0.777,7.275,2.331
		c1.627,1.555,2.441,4.041,2.441,7.459v17.456H612.378z"/>
	<path fill="#2D4E6E" d="M641.211,416.593l-0.806-3.809h-0.195c-1.335,1.677-2.666,2.812-3.992,3.406
		c-1.327,0.594-2.983,0.891-4.968,0.891c-2.653,0-4.732-0.684-6.238-2.051c-1.506-1.367-2.258-3.312-2.258-5.835
		c0-5.403,4.321-8.235,12.964-8.496l4.541-0.146v-1.66c0-2.1-0.452-3.65-1.355-4.65c-0.903-1.002-2.348-1.502-4.333-1.502
		c-2.23,0-4.753,0.684-7.568,2.051l-1.245-3.101c1.318-0.716,2.763-1.277,4.333-1.685c1.57-0.406,3.145-0.61,4.724-0.61
		c3.19,0,5.554,0.708,7.092,2.124s2.307,3.687,2.307,6.812v18.262H641.211z M632.056,413.736c2.522,0,4.504-0.691,5.945-2.075
		s2.161-3.32,2.161-5.811v-2.417l-4.053,0.171c-3.223,0.114-5.546,0.614-6.97,1.501c-1.424,0.888-2.136,2.268-2.136,4.139
		c0,1.465,0.443,2.58,1.331,3.345C629.22,413.354,630.461,413.736,632.056,413.736z"/>
	<path fill="#2D4E6E" d="M661.207,413.736c0.716,0,1.408-0.053,2.075-0.158c0.667-0.105,1.196-0.216,1.587-0.33v3.101
		c-0.439,0.212-1.086,0.387-1.941,0.525c-0.854,0.138-1.624,0.207-2.307,0.207c-5.176,0-7.764-2.726-7.764-8.179v-15.918h-3.833
		v-1.953l3.833-1.685l1.709-5.713h2.344v6.201h7.764v3.149h-7.764v15.747c0,1.611,0.382,2.849,1.147,3.711
		C658.822,413.305,659.872,413.736,661.207,413.736z"/>
	<path fill="#2D4E6E" d="M669.874,382.584c0-0.928,0.228-1.607,0.684-2.039c0.456-0.431,1.025-0.647,1.709-0.647
		c0.651,0,1.212,0.22,1.685,0.659c0.472,0.439,0.708,1.115,0.708,2.026c0,0.912-0.236,1.591-0.708,2.039
		c-0.472,0.447-1.034,0.671-1.685,0.671c-0.684,0-1.253-0.224-1.709-0.671C670.101,384.175,669.874,383.496,669.874,382.584z
		 M674.268,416.593h-4.053v-26.758h4.053V416.593z"/>
	<path fill="#2D4E6E" d="M705.957,403.189c0,4.362-1.098,7.768-3.295,10.217c-2.197,2.45-5.233,3.675-9.107,3.675
		c-2.393,0-4.516-0.562-6.371-1.685s-3.289-2.734-4.297-4.834c-1.009-2.1-1.514-4.557-1.514-7.373c0-4.361,1.09-7.76,3.272-10.193
		c2.18-2.433,5.207-3.649,9.082-3.649c3.742,0,6.717,1.245,8.923,3.735C704.854,395.572,705.957,398.941,705.957,403.189z
		 M685.572,403.189c0,3.418,0.684,6.022,2.051,7.812c1.367,1.791,3.377,2.686,6.029,2.686c2.653,0,4.668-0.891,6.043-2.674
		c1.375-1.781,2.062-4.39,2.062-7.824c0-3.401-0.688-5.985-2.062-7.752c-1.375-1.766-3.406-2.648-6.092-2.648
		c-2.652,0-4.654,0.871-6.006,2.612C686.247,397.143,685.572,399.739,685.572,403.189z"/>
	<path fill="#2D4E6E" d="M731.373,416.593v-17.31c0-2.181-0.497-3.809-1.49-4.883c-0.992-1.074-2.547-1.611-4.662-1.611
		c-2.801,0-4.852,0.757-6.152,2.271c-1.303,1.514-1.953,4.013-1.953,7.495v14.038h-4.053v-26.758h3.295l0.66,3.662h0.195
		c0.83-1.318,1.993-2.339,3.49-3.063c1.498-0.725,3.166-1.087,5.006-1.087c3.223,0,5.646,0.777,7.275,2.331
		c1.627,1.555,2.441,4.041,2.441,7.459v17.456H731.373z"/>
	<path fill="#2D4E6E" d="M779.834,403.189c0,4.362-1.098,7.768-3.295,10.217c-2.197,2.45-5.233,3.675-9.107,3.675
		c-2.393,0-4.516-0.562-6.371-1.685s-3.289-2.734-4.297-4.834c-1.01-2.1-1.514-4.557-1.514-7.373c0-4.361,1.09-7.76,3.271-10.193
		c2.18-2.433,5.207-3.649,9.082-3.649c3.742,0,6.717,1.245,8.923,3.735C778.731,395.572,779.834,398.941,779.834,403.189z
		 M759.449,403.189c0,3.418,0.684,6.022,2.051,7.812c1.367,1.791,3.377,2.686,6.029,2.686c2.653,0,4.668-0.891,6.043-2.674
		c1.375-1.781,2.062-4.39,2.062-7.824c0-3.401-0.688-5.985-2.062-7.752c-1.375-1.766-3.406-2.648-6.092-2.648
		c-2.652,0-4.654,0.871-6.006,2.612C760.124,397.143,759.449,399.739,759.449,403.189z"/>
	<path fill="#2D4E6E" d="M799,392.984h-6.812v23.608h-4.053v-23.608h-4.785v-1.831l4.785-1.465v-1.489
		c0-6.575,2.873-9.863,8.619-9.863c1.416,0,3.076,0.285,4.98,0.854l-1.051,3.247c-1.562-0.504-2.896-0.757-4.004-0.757
		c-1.529,0-2.66,0.509-3.393,1.526c-0.732,1.018-1.1,2.649-1.1,4.895v1.733H799V392.984z"/>
	<path fill="#2D4E6E" d="M839.967,403.189c0,4.362-1.1,7.768-3.297,10.217c-2.197,2.45-5.232,3.675-9.105,3.675
		c-2.393,0-4.518-0.562-6.373-1.685s-3.287-2.734-4.297-4.834c-1.009-2.1-1.514-4.557-1.514-7.373c0-4.361,1.091-7.76,3.271-10.193
		c2.182-2.433,5.209-3.649,9.082-3.649c3.744,0,6.719,1.245,8.924,3.735S839.967,398.941,839.967,403.189z M819.58,403.189
		c0,3.418,0.684,6.022,2.051,7.812c1.367,1.791,3.377,2.686,6.031,2.686c2.652,0,4.666-0.891,6.042-2.674
		c1.375-1.781,2.063-4.39,2.063-7.824c0-3.401-0.688-5.985-2.063-7.752c-1.376-1.766-3.405-2.648-6.091-2.648
		c-2.654,0-4.656,0.871-6.006,2.612C820.256,397.143,819.58,399.739,819.58,403.189z"/>
	<path fill="#2D4E6E" d="M868.922,416.593l-4.908-15.698c-0.309-0.96-0.887-3.141-1.732-6.543h-0.195
		c-0.652,2.849-1.221,5.046-1.709,6.592l-5.055,15.649h-4.688l-7.299-26.758h4.248c1.725,6.722,3.039,11.841,3.942,15.356
		s1.42,5.884,1.55,7.104h0.195c0.18-0.928,0.469-2.128,0.867-3.601s0.744-2.641,1.037-3.504l4.908-15.356h4.395l4.785,15.356
		c0.91,2.8,1.529,5.151,1.855,7.056h0.195c0.064-0.586,0.239-1.489,0.524-2.71c0.284-1.221,1.981-7.788,5.091-19.702h4.199
		l-7.398,26.758H868.922z"/>
	<path fill="#2D4E6E" d="M904.273,416.593v-17.31c0-2.181-0.497-3.809-1.49-4.883c-0.992-1.074-2.547-1.611-4.662-1.611
		c-2.801,0-4.852,0.757-6.152,2.271c-1.303,1.514-1.953,4.013-1.953,7.495v14.038h-4.053v-26.758h3.295l0.66,3.662h0.195
		c0.83-1.318,1.993-2.339,3.49-3.063c1.498-0.725,3.166-1.087,5.006-1.087c3.223,0,5.646,0.777,7.275,2.331
		c1.627,1.555,2.441,4.041,2.441,7.459v17.456H904.273z"/>
	<path fill="#2D4E6E" d="M927.955,417.081c-3.955,0-7.076-1.204-9.363-3.613s-3.43-5.753-3.43-10.034
		c0-4.312,1.062-7.739,3.186-10.278s4.977-3.809,8.557-3.809c3.354,0,6.006,1.103,7.959,3.308c1.953,2.206,2.93,5.115,2.93,8.729
		v2.563h-18.432c0.08,3.142,0.874,5.526,2.38,7.153c1.505,1.628,3.626,2.441,6.36,2.441c2.881,0,5.729-0.602,8.545-1.807v3.613
		c-1.434,0.619-2.788,1.062-4.065,1.331C931.303,416.946,929.762,417.081,927.955,417.081z M926.855,392.74
		c-2.148,0-3.861,0.7-5.139,2.1c-1.277,1.4-2.031,3.337-2.258,5.811h13.988c0-2.555-0.569-4.512-1.709-5.871
		C930.6,393.42,928.972,392.74,926.855,392.74z"/>
	<path fill="#2D4E6E" d="M956.91,389.347c1.188,0,2.254,0.098,3.197,0.293l-0.561,3.76c-1.107-0.244-2.084-0.366-2.93-0.366
		c-2.166,0-4.016,0.879-5.555,2.637c-1.537,1.758-2.307,3.947-2.307,6.567v14.355h-4.053v-26.758h3.344l0.465,4.956h0.195
		c0.992-1.741,2.188-3.084,3.588-4.028S955.232,389.347,956.91,389.347z"/>
	<path fill="#2D4E6E" d="M982.373,409.293c0,2.49-0.928,4.411-2.783,5.762c-1.855,1.352-4.459,2.026-7.812,2.026
		c-3.549,0-6.314-0.562-8.301-1.685v-3.76c1.285,0.651,2.666,1.164,4.139,1.538s2.893,0.562,4.26,0.562
		c2.115,0,3.744-0.338,4.883-1.014c1.139-0.675,1.709-1.704,1.709-3.088c0-1.041-0.451-1.933-1.354-2.674
		c-0.904-0.74-2.666-1.615-5.287-2.624c-2.49-0.928-4.26-1.737-5.309-2.429c-1.051-0.691-1.832-1.478-2.344-2.356
		c-0.514-0.879-0.77-1.929-0.77-3.149c0-2.181,0.887-3.902,2.66-5.164c1.773-1.261,4.207-1.892,7.301-1.892
		c2.881,0,5.695,0.586,8.447,1.758l-1.441,3.296c-2.686-1.106-5.119-1.66-7.299-1.66c-1.922,0-3.369,0.301-4.346,0.903
		s-1.465,1.433-1.465,2.49c0,0.716,0.184,1.327,0.549,1.831c0.367,0.505,0.955,0.984,1.77,1.44s2.377,1.115,4.688,1.978
		c3.174,1.156,5.318,2.319,6.434,3.491S982.373,407.52,982.373,409.293z"/>
	<path fill="#2D4E6E" d="M1007.275,416.593v-17.31c0-2.181-0.496-3.809-1.488-4.883c-0.994-1.074-2.549-1.611-4.664-1.611
		c-2.816,0-4.871,0.766-6.164,2.295c-1.295,1.53-1.941,4.037-1.941,7.52v13.989h-4.053v-37.988h4.053v11.499
		c0,1.384-0.064,2.531-0.195,3.442h0.244c0.797-1.286,1.934-2.299,3.406-3.04c1.473-0.74,3.152-1.11,5.041-1.11
		c3.271,0,5.725,0.777,7.361,2.331c1.635,1.555,2.453,4.025,2.453,7.41v17.456H1007.275z"/>
	<path fill="#2D4E6E" d="M1019.312,382.584c0-0.928,0.227-1.607,0.684-2.039c0.455-0.431,1.025-0.647,1.709-0.647
		c0.65,0,1.211,0.22,1.684,0.659s0.709,1.115,0.709,2.026c0,0.912-0.236,1.591-0.709,2.039c-0.473,0.447-1.033,0.671-1.684,0.671
		c-0.684,0-1.254-0.224-1.709-0.671C1019.539,384.175,1019.312,383.496,1019.312,382.584z M1023.707,416.593h-4.053v-26.758h4.053
		V416.593z"/>
	<path fill="#2D4E6E" d="M1044.752,417.081c-1.742,0-3.332-0.321-4.773-0.965c-1.439-0.642-2.648-1.631-3.625-2.966h-0.293
		c0.195,1.562,0.293,3.044,0.293,4.443v11.011h-4.053v-38.77h3.295l0.562,3.662h0.195c1.041-1.465,2.254-2.522,3.637-3.174
		s2.971-0.977,4.762-0.977c3.547,0,6.287,1.213,8.215,3.638c1.93,2.426,2.893,5.827,2.893,10.205c0,4.395-0.98,7.809-2.941,10.242
		C1050.957,415.864,1048.234,417.081,1044.752,417.081z M1044.166,392.789c-2.734,0-4.713,0.757-5.934,2.271
		s-1.848,3.923-1.879,7.227v0.903c0,3.76,0.625,6.449,1.879,8.068c1.254,1.62,3.264,2.43,6.031,2.43
		c2.311,0,4.121-0.936,5.432-2.808s1.965-4.451,1.965-7.739c0-3.336-0.654-5.896-1.965-7.678
		C1048.385,393.68,1046.541,392.789,1044.166,392.789z"/>
	<path fill="#2D4E6E" d="M1062.354,414.005c0-1.091,0.248-1.917,0.744-2.478c0.498-0.562,1.209-0.843,2.137-0.843
		c0.943,0,1.682,0.28,2.209,0.843c0.529,0.561,0.795,1.387,0.795,2.478c0,1.058-0.27,1.872-0.807,2.441s-1.27,0.854-2.197,0.854
		c-0.83,0-1.518-0.257-2.062-0.769C1062.627,416.019,1062.354,415.177,1062.354,414.005z"/>
</g>
<g enable-background="new    ">
	<rect x="436.11" y="296.302" fill="none" width="31.462" height="28.582"/>
	<path fill="#2D4E6E" d="M444.838,315.302h-1.978v-12.72c0-1.058,0.032-2.059,0.098-3.003c-0.171,0.171-0.362,0.35-0.574,0.537
		c-0.212,0.188-1.18,0.981-2.905,2.38l-1.074-1.392l4.724-3.65h1.709V315.302z"/>
</g>
<g enable-background="new    ">
	<rect x="737.123" y="722.198" fill="none" width="671.932" height="59.372"/>
	<path fill="#2D4E6E" d="M741.844,725.035h-0.039l-2.262,1.221l-0.34-1.34l2.841-1.521h1.501v13.004h-1.701V725.035z"/>
	<path fill="#2D4E6E" d="M748.423,735.357c0-0.74,0.501-1.26,1.2-1.26c0.7,0,1.181,0.52,1.181,1.26c0,0.721-0.46,1.261-1.2,1.261
		C748.903,736.618,748.423,736.078,748.423,735.357z"/>
	<path fill="#2D4E6E" d="M757.223,722.195h1.76v6.041h0.041c0.279-0.5,0.72-0.94,1.26-1.24c0.52-0.301,1.141-0.5,1.801-0.5
		c1.3,0,3.381,0.8,3.381,4.141v5.762h-1.761v-5.562c0-1.561-0.581-2.881-2.241-2.881c-1.14,0-2.04,0.8-2.359,1.761
		c-0.101,0.24-0.121,0.5-0.121,0.84v5.842h-1.76V722.195z"/>
	<path fill="#2D4E6E" d="M770.362,723.936v2.78h2.521v1.341h-2.521v5.221c0,1.2,0.341,1.881,1.32,1.881
		c0.46,0,0.8-0.061,1.021-0.121l0.08,1.32c-0.34,0.141-0.881,0.24-1.561,0.24c-0.82,0-1.48-0.26-1.9-0.74
		c-0.5-0.52-0.68-1.38-0.68-2.52v-5.281h-1.501v-1.341h1.501v-2.32L770.362,723.936z"/>
	<path fill="#2D4E6E" d="M776.982,723.936v2.78h2.521v1.341h-2.521v5.221c0,1.2,0.34,1.881,1.32,1.881
		c0.461,0,0.801-0.061,1.021-0.121l0.08,1.32c-0.341,0.141-0.88,0.24-1.561,0.24c-0.82,0-1.48-0.26-1.9-0.74
		c-0.5-0.52-0.681-1.38-0.681-2.52v-5.281h-1.5v-1.341h1.5v-2.32L776.982,723.936z"/>
	<path fill="#2D4E6E" d="M781.482,729.877c0-1.24-0.04-2.24-0.08-3.161h1.58l0.08,1.661h0.04c0.72-1.182,1.86-1.881,3.44-1.881
		c2.341,0,4.102,1.98,4.102,4.921c0,3.48-2.121,5.201-4.401,5.201c-1.28,0-2.4-0.56-2.98-1.521h-0.04v5.262h-1.74V729.877z
		 M783.223,732.457c0,0.26,0.04,0.5,0.08,0.721c0.32,1.22,1.381,2.061,2.641,2.061c1.86,0,2.94-1.521,2.94-3.741
		c0-1.94-1.021-3.601-2.88-3.601c-1.201,0-2.321,0.859-2.661,2.18c-0.06,0.221-0.12,0.48-0.12,0.721V732.457z"/>
	<path fill="#2D4E6E" d="M792.622,734.598c0.521,0.34,1.44,0.7,2.32,0.7c1.28,0,1.881-0.64,1.881-1.44
		c0-0.84-0.501-1.301-1.801-1.78c-1.74-0.62-2.561-1.581-2.561-2.741c0-1.561,1.261-2.84,3.341-2.84c0.98,0,1.84,0.279,2.381,0.6
		l-0.44,1.281c-0.38-0.24-1.08-0.561-1.98-0.561c-1.04,0-1.62,0.6-1.62,1.32c0,0.8,0.58,1.16,1.84,1.641
		c1.681,0.64,2.541,1.479,2.541,2.92c0,1.701-1.32,2.9-3.621,2.9c-1.061,0-2.04-0.26-2.721-0.66L792.622,734.598z"/>
	<path fill="#2D4E6E" d="M800.361,728.316c0-0.74,0.501-1.26,1.201-1.26c0.699,0,1.16,0.52,1.18,1.26c0,0.7-0.46,1.24-1.199,1.24
		C800.842,729.557,800.361,729.017,800.361,728.316z M800.361,735.378c0-0.74,0.501-1.261,1.201-1.261
		c0.699,0,1.16,0.521,1.18,1.261c0,0.7-0.46,1.24-1.199,1.24C800.842,736.618,800.361,736.078,800.361,735.378z"/>
	<path fill="#2D4E6E" d="M803.441,737.198l5.581-14.503h1.36l-5.602,14.503H803.441z"/>
	<path fill="#2D4E6E" d="M810.301,737.198l5.582-14.503h1.359l-5.601,14.503H810.301z"/>
	<path fill="#2D4E6E" d="M826.983,726.716c-0.04,0.7-0.08,1.48-0.08,2.661v5.621c0,2.221-0.44,3.58-1.38,4.42
		c-0.941,0.881-2.301,1.16-3.521,1.16c-1.16,0-2.44-0.279-3.221-0.799l0.44-1.341c0.64,0.399,1.64,0.761,2.841,0.761
		c1.801,0,3.121-0.941,3.121-3.381v-1.08h-0.041c-0.54,0.899-1.58,1.619-3.08,1.619c-2.4,0-4.121-2.04-4.121-4.721
		c0-3.28,2.141-5.141,4.361-5.141c1.68,0,2.6,0.88,3.02,1.68h0.041l0.08-1.46H826.983z M825.163,730.537
		c0-0.301-0.021-0.561-0.101-0.801c-0.32-1.02-1.18-1.86-2.46-1.86c-1.681,0-2.881,1.421-2.881,3.661c0,1.9,0.96,3.48,2.86,3.48
		c1.08,0,2.061-0.68,2.441-1.801c0.1-0.3,0.14-0.64,0.14-0.939V730.537z"/>
	<path fill="#2D4E6E" d="M831.662,723.995c0.02,0.601-0.42,1.081-1.121,1.081c-0.619,0-1.06-0.48-1.06-1.081
		c0-0.62,0.46-1.101,1.101-1.101C831.242,722.895,831.662,723.375,831.662,723.995z M829.701,736.398v-9.683h1.761v9.683H829.701z"
		/>
	<path fill="#2D4E6E" d="M836.502,723.936v2.78h2.52v1.341h-2.52v5.221c0,1.2,0.34,1.881,1.32,1.881c0.46,0,0.8-0.061,1.02-0.121
		l0.08,1.32c-0.34,0.141-0.88,0.24-1.561,0.24c-0.82,0-1.48-0.26-1.9-0.74c-0.5-0.52-0.68-1.38-0.68-2.52v-5.281h-1.5v-1.341h1.5
		v-2.32L836.502,723.936z"/>
	<path fill="#2D4E6E" d="M841.002,722.195h1.76v6.041h0.04c0.28-0.5,0.72-0.94,1.261-1.24c0.52-0.301,1.14-0.5,1.8-0.5
		c1.3,0,3.381,0.8,3.381,4.141v5.762h-1.761v-5.562c0-1.561-0.58-2.881-2.24-2.881c-1.141,0-2.041,0.8-2.36,1.761
		c-0.101,0.24-0.12,0.5-0.12,0.84v5.842h-1.76V722.195z"/>
	<path fill="#2D4E6E" d="M860.203,733.758c0,1,0.02,1.88,0.08,2.641h-1.561l-0.1-1.581h-0.041c-0.46,0.78-1.48,1.801-3.2,1.801
		c-1.521,0-3.341-0.841-3.341-4.241v-5.661h1.76v5.361c0,1.841,0.561,3.081,2.161,3.081c1.181,0,2.001-0.82,2.32-1.602
		c0.101-0.26,0.16-0.58,0.16-0.899v-5.941h1.761V733.758z"/>
	<path fill="#2D4E6E" d="M863.041,736.398c0.04-0.66,0.08-1.641,0.08-2.501v-11.702h1.74v6.081h0.04
		c0.62-1.081,1.74-1.78,3.301-1.78c2.4,0,4.101,2,4.081,4.941c0,3.46-2.181,5.181-4.342,5.181c-1.4,0-2.52-0.54-3.24-1.82h-0.061
		l-0.08,1.601H863.041z M864.861,732.518c0,0.22,0.04,0.439,0.08,0.64c0.34,1.22,1.36,2.061,2.641,2.061
		c1.84,0,2.94-1.501,2.94-3.721c0-1.94-1-3.601-2.88-3.601c-1.201,0-2.321,0.82-2.682,2.16c-0.039,0.2-0.1,0.439-0.1,0.721V732.518z
		"/>
	<path fill="#2D4E6E" d="M873.601,735.357c0-0.74,0.501-1.26,1.2-1.26c0.7,0,1.181,0.52,1.181,1.26c0,0.721-0.46,1.261-1.2,1.261
		C874.081,736.618,873.601,736.078,873.601,735.357z"/>
	<path fill="#2D4E6E" d="M885.062,736.038c-0.461,0.239-1.48,0.56-2.781,0.56c-2.92,0-4.82-1.98-4.82-4.941
		c0-2.98,2.04-5.141,5.201-5.141c1.039,0,1.96,0.26,2.439,0.5l-0.4,1.361c-0.42-0.24-1.08-0.461-2.039-0.461
		c-2.221,0-3.422,1.641-3.422,3.661c0,2.24,1.441,3.62,3.361,3.62c1,0,1.66-0.26,2.16-0.479L885.062,736.038z"/>
	<path fill="#2D4E6E" d="M895.763,731.477c0,3.581-2.48,5.142-4.821,5.142c-2.62,0-4.641-1.921-4.641-4.981
		c0-3.24,2.121-5.141,4.801-5.141C893.883,726.496,895.763,728.516,895.763,731.477z M888.081,731.577c0,2.12,1.22,3.721,2.94,3.721
		c1.681,0,2.941-1.581,2.941-3.761c0-1.641-0.82-3.721-2.901-3.721C888.981,727.816,888.081,729.736,888.081,731.577z"/>
	<path fill="#2D4E6E" d="M897.98,729.336c0-1-0.02-1.82-0.08-2.62h1.54l0.08,1.561h0.06c0.541-0.921,1.441-1.78,3.041-1.78
		c1.32,0,2.32,0.8,2.74,1.939h0.041c0.3-0.539,0.68-0.959,1.08-1.26c0.58-0.439,1.221-0.68,2.141-0.68c1.279,0,3.18,0.84,3.18,4.201
		v5.701h-1.72v-5.481c0-1.86-0.681-2.981-2.101-2.981c-1,0-1.78,0.74-2.08,1.602c-0.08,0.239-0.141,0.56-0.141,0.879v5.982h-1.721
		v-5.802c0-1.54-0.68-2.661-2.02-2.661c-1.101,0-1.9,0.881-2.181,1.761c-0.101,0.261-0.14,0.561-0.14,0.86v5.842h-1.721V729.336z"/>
	<path fill="#2D4E6E" d="M913.181,737.198l5.581-14.503h1.36l-5.601,14.503H913.181z"/>
	<path fill="#2D4E6E" d="M921.521,722.195h1.761v14.203h-1.761V722.195z"/>
	<path fill="#2D4E6E" d="M928.201,723.995c0.02,0.601-0.421,1.081-1.121,1.081c-0.62,0-1.061-0.48-1.061-1.081
		c0-0.62,0.461-1.101,1.101-1.101C927.78,722.895,928.201,723.375,928.201,723.995z M926.24,736.398v-9.683H928v9.683H926.24z"/>
	<path fill="#2D4E6E" d="M930.84,736.398c0.04-0.66,0.08-1.641,0.08-2.501v-11.702h1.74v6.081h0.04c0.62-1.081,1.74-1.78,3.301-1.78
		c2.4,0,4.101,2,4.081,4.941c0,3.46-2.181,5.181-4.342,5.181c-1.4,0-2.52-0.54-3.24-1.82h-0.061l-0.08,1.601H930.84z
		 M932.66,732.518c0,0.22,0.04,0.439,0.08,0.64c0.34,1.22,1.36,2.061,2.641,2.061c1.84,0,2.94-1.501,2.94-3.721
		c0-1.94-1-3.601-2.88-3.601c-1.201,0-2.321,0.82-2.682,2.16c-0.039,0.2-0.1,0.439-0.1,0.721V732.518z"/>
	<path fill="#2D4E6E" d="M942.22,736.398c0.04-0.66,0.08-1.641,0.08-2.501v-11.702h1.74v6.081h0.04c0.62-1.081,1.74-1.78,3.301-1.78
		c2.4,0,4.101,2,4.08,4.941c0,3.46-2.18,5.181-4.34,5.181c-1.4,0-2.521-0.54-3.241-1.82h-0.06l-0.08,1.601H942.22z M944.04,732.518
		c0,0.22,0.04,0.439,0.08,0.64c0.34,1.22,1.36,2.061,2.641,2.061c1.841,0,2.94-1.501,2.94-3.721c0-1.94-1-3.601-2.881-3.601
		c-1.199,0-2.32,0.82-2.68,2.16c-0.041,0.2-0.101,0.439-0.101,0.721V732.518z"/>
	<path fill="#2D4E6E" d="M955.641,723.995c0.02,0.601-0.421,1.081-1.121,1.081c-0.62,0-1.061-0.48-1.061-1.081
		c0-0.62,0.461-1.101,1.101-1.101C955.22,722.895,955.641,723.375,955.641,723.995z M953.68,736.398v-9.683h1.76v9.683H953.68z"/>
	<path fill="#2D4E6E" d="M960.479,723.936v2.78H963v1.341h-2.521v5.221c0,1.2,0.341,1.881,1.32,1.881c0.46,0,0.8-0.061,1.021-0.121
		l0.08,1.32c-0.34,0.141-0.881,0.24-1.561,0.24c-0.82,0-1.48-0.26-1.9-0.74c-0.5-0.52-0.68-1.38-0.68-2.52v-5.281h-1.501v-1.341
		h1.501v-2.32L960.479,723.936z"/>
	<path fill="#2D4E6E" d="M971.762,736.038c-0.461,0.239-1.48,0.56-2.781,0.56c-2.92,0-4.82-1.98-4.82-4.941
		c0-2.98,2.04-5.141,5.201-5.141c1.039,0,1.96,0.26,2.439,0.5l-0.4,1.361c-0.42-0.24-1.08-0.461-2.039-0.461
		c-2.221,0-3.422,1.641-3.422,3.661c0,2.24,1.441,3.62,3.361,3.62c1,0,1.66-0.26,2.16-0.479L971.762,736.038z"/>
	<path fill="#2D4E6E" d="M982.461,731.477c0,3.581-2.48,5.142-4.82,5.142c-2.621,0-4.641-1.921-4.641-4.981
		c0-3.24,2.119-5.141,4.801-5.141C980.581,726.496,982.461,728.516,982.461,731.477z M974.779,731.577
		c0,2.12,1.221,3.721,2.941,3.721c1.68,0,2.94-1.581,2.94-3.761c0-1.641-0.82-3.721-2.901-3.721
		C975.68,727.816,974.779,729.736,974.779,731.577z"/>
	<path fill="#2D4E6E" d="M986.641,723.995c0.02,0.601-0.421,1.081-1.121,1.081c-0.62,0-1.061-0.48-1.061-1.081
		c0-0.62,0.461-1.101,1.101-1.101C986.22,722.895,986.641,723.375,986.641,723.995z M984.68,736.398v-9.683h1.76v9.683H984.68z"/>
	<path fill="#2D4E6E" d="M989.359,729.336c0-1-0.02-1.82-0.08-2.62h1.561l0.1,1.601h0.04c0.479-0.92,1.601-1.82,3.2-1.82
		c1.341,0,3.422,0.8,3.422,4.121v5.781h-1.761v-5.582c0-1.561-0.581-2.86-2.241-2.86c-1.16,0-2.061,0.82-2.359,1.8
		c-0.08,0.221-0.121,0.521-0.121,0.82v5.822h-1.76V729.336z"/>
	<path fill="#2D4E6E" d="M998.979,737.198l5.582-14.503h1.359l-5.601,14.503H998.979z"/>
	<path fill="#2D4E6E" d="M1007.319,722.195h1.761v14.203h-1.761V722.195z"/>
	<path fill="#2D4E6E" d="M1014,723.995c0.02,0.601-0.421,1.081-1.121,1.081c-0.62,0-1.061-0.48-1.061-1.081
		c0-0.62,0.461-1.101,1.101-1.101C1013.579,722.895,1014,723.375,1014,723.995z M1012.039,736.398v-9.683h1.76v9.683H1012.039z"/>
	<path fill="#2D4E6E" d="M1016.639,736.398c0.04-0.66,0.08-1.641,0.08-2.501v-11.702h1.74v6.081h0.04
		c0.62-1.081,1.74-1.78,3.301-1.78c2.4,0,4.101,2,4.081,4.941c0,3.46-2.181,5.181-4.342,5.181c-1.4,0-2.52-0.54-3.24-1.82h-0.061
		l-0.08,1.601H1016.639z M1018.459,732.518c0,0.22,0.04,0.439,0.08,0.64c0.34,1.22,1.36,2.061,2.641,2.061
		c1.84,0,2.94-1.501,2.94-3.721c0-1.94-1-3.601-2.88-3.601c-1.201,0-2.321,0.82-2.682,2.16c-0.039,0.2-0.1,0.439-0.1,0.721V732.518z
		"/>
	<path fill="#2D4E6E" d="M1028.019,736.398c0.04-0.66,0.08-1.641,0.08-2.501v-11.702h1.74v6.081h0.04
		c0.62-1.081,1.74-1.78,3.301-1.78c2.4,0,4.101,2,4.08,4.941c0,3.46-2.18,5.181-4.34,5.181c-1.4,0-2.521-0.54-3.241-1.82h-0.06
		l-0.08,1.601H1028.019z M1029.839,732.518c0,0.22,0.04,0.439,0.08,0.64c0.34,1.22,1.36,2.061,2.641,2.061
		c1.841,0,2.94-1.501,2.94-3.721c0-1.94-1-3.601-2.881-3.601c-1.199,0-2.32,0.82-2.68,2.16c-0.041,0.2-0.101,0.439-0.101,0.721
		V732.518z"/>
	<path fill="#2D4E6E" d="M1041.439,723.995c0.02,0.601-0.421,1.081-1.121,1.081c-0.62,0-1.061-0.48-1.061-1.081
		c0-0.62,0.461-1.101,1.101-1.101C1041.019,722.895,1041.439,723.375,1041.439,723.995z M1039.479,736.398v-9.683h1.76v9.683
		H1039.479z"/>
	<path fill="#2D4E6E" d="M1046.278,723.936v2.78h2.521v1.341h-2.521v5.221c0,1.2,0.341,1.881,1.32,1.881
		c0.46,0,0.8-0.061,1.021-0.121l0.08,1.32c-0.34,0.141-0.881,0.24-1.561,0.24c-0.82,0-1.48-0.26-1.9-0.74
		c-0.5-0.52-0.68-1.38-0.68-2.52v-5.281h-1.501v-1.341h1.501v-2.32L1046.278,723.936z"/>
	<path fill="#2D4E6E" d="M1057.56,736.038c-0.46,0.239-1.48,0.56-2.78,0.56c-2.921,0-4.821-1.98-4.821-4.941
		c0-2.98,2.04-5.141,5.201-5.141c1.04,0,1.96,0.26,2.44,0.5l-0.4,1.361c-0.42-0.24-1.08-0.461-2.04-0.461
		c-2.221,0-3.421,1.641-3.421,3.661c0,2.24,1.44,3.62,3.361,3.62c1,0,1.66-0.26,2.16-0.479L1057.56,736.038z"/>
	<path fill="#2D4E6E" d="M1068.26,731.477c0,3.581-2.48,5.142-4.82,5.142c-2.621,0-4.642-1.921-4.642-4.981
		c0-3.24,2.12-5.141,4.801-5.141C1066.379,726.496,1068.26,728.516,1068.26,731.477z M1060.578,731.577
		c0,2.12,1.221,3.721,2.94,3.721c1.681,0,2.94-1.581,2.94-3.761c0-1.641-0.82-3.721-2.9-3.721S1060.578,729.736,1060.578,731.577z"
		/>
	<path fill="#2D4E6E" d="M1072.438,723.995c0.021,0.601-0.421,1.081-1.12,1.081c-0.621,0-1.061-0.48-1.061-1.081
		c0-0.62,0.46-1.101,1.1-1.101C1072.018,722.895,1072.438,723.375,1072.438,723.995z M1070.479,736.398v-9.683h1.76v9.683H1070.479z
		"/>
	<path fill="#2D4E6E" d="M1075.158,729.336c0-1-0.021-1.82-0.08-2.62h1.56l0.101,1.601h0.039c0.48-0.92,1.602-1.82,3.201-1.82
		c1.34,0,3.421,0.8,3.421,4.121v5.781h-1.761v-5.582c0-1.561-0.58-2.86-2.24-2.86c-1.16,0-2.061,0.82-2.36,1.8
		c-0.08,0.221-0.12,0.521-0.12,0.82v5.822h-1.76V729.336z"/>
	<path fill="#2D4E6E" d="M1090.338,730.336v1.301h-4.94v-1.301H1090.338z"/>
	<path fill="#2D4E6E" d="M1092.157,734.598c0.521,0.34,1.44,0.7,2.32,0.7c1.28,0,1.881-0.64,1.881-1.44
		c0-0.84-0.501-1.301-1.801-1.78c-1.74-0.62-2.561-1.581-2.561-2.741c0-1.561,1.261-2.84,3.341-2.84c0.98,0,1.84,0.279,2.381,0.6
		l-0.44,1.281c-0.38-0.24-1.08-0.561-1.98-0.561c-1.04,0-1.62,0.6-1.62,1.32c0,0.8,0.58,1.16,1.84,1.641
		c1.681,0.64,2.541,1.479,2.541,2.92c0,1.701-1.32,2.9-3.621,2.9c-1.061,0-2.04-0.26-2.721-0.66L1092.157,734.598z"/>
	<path fill="#2D4E6E" d="M1100.957,726.716l2.121,5.722c0.22,0.64,0.46,1.4,0.619,1.98h0.041c0.18-0.58,0.38-1.32,0.619-2.021
		l1.921-5.681h1.86l-2.641,6.901c-1.26,3.32-2.12,5.021-3.32,6.062c-0.86,0.761-1.721,1.06-2.16,1.14l-0.44-1.48
		c0.44-0.139,1.021-0.42,1.54-0.859c0.48-0.381,1.08-1.061,1.48-1.961c0.08-0.18,0.141-0.32,0.141-0.42s-0.041-0.24-0.121-0.46
		l-3.58-8.922H1100.957z"/>
	<path fill="#2D4E6E" d="M1109.377,734.598c0.52,0.34,1.44,0.7,2.32,0.7c1.28,0,1.881-0.64,1.881-1.44c0-0.84-0.5-1.301-1.801-1.78
		c-1.74-0.62-2.561-1.581-2.561-2.741c0-1.561,1.26-2.84,3.341-2.84c0.98,0,1.841,0.279,2.38,0.6l-0.439,1.281
		c-0.38-0.24-1.08-0.561-1.98-0.561c-1.04,0-1.62,0.6-1.62,1.32c0,0.8,0.58,1.16,1.841,1.641c1.68,0.64,2.54,1.479,2.54,2.92
		c0,1.701-1.32,2.9-3.62,2.9c-1.061,0-2.041-0.26-2.721-0.66L1109.377,734.598z"/>
	<path fill="#2D4E6E" d="M1119.657,723.936v2.78h2.521v1.341h-2.521v5.221c0,1.2,0.341,1.881,1.32,1.881
		c0.46,0,0.8-0.061,1.021-0.121l0.08,1.32c-0.34,0.141-0.881,0.24-1.561,0.24c-0.82,0-1.48-0.26-1.9-0.74
		c-0.5-0.52-0.68-1.38-0.68-2.52v-5.281h-1.501v-1.341h1.501v-2.32L1119.657,723.936z"/>
	<path fill="#2D4E6E" d="M1125.018,731.877c0.04,2.381,1.561,3.361,3.32,3.361c1.261,0,2.021-0.221,2.682-0.5l0.299,1.26
		c-0.619,0.279-1.68,0.6-3.221,0.6c-2.98,0-4.76-1.96-4.76-4.881c0-2.92,1.72-5.221,4.541-5.221c3.16,0,4,2.78,4,4.561
		c0,0.36-0.039,0.641-0.06,0.82H1125.018z M1130.179,730.617c0.021-1.121-0.46-2.861-2.44-2.861c-1.78,0-2.561,1.641-2.701,2.861
		H1130.179z"/>
	<path fill="#2D4E6E" d="M1134.058,729.336c0-1-0.021-1.82-0.08-2.62h1.54l0.08,1.561h0.061c0.539-0.921,1.439-1.78,3.04-1.78
		c1.32,0,2.321,0.8,2.741,1.939h0.039c0.301-0.539,0.681-0.959,1.08-1.26c0.581-0.439,1.221-0.68,2.141-0.68
		c1.281,0,3.182,0.84,3.182,4.201v5.701h-1.721v-5.481c0-1.86-0.68-2.981-2.101-2.981c-1,0-1.78,0.74-2.081,1.602
		c-0.08,0.239-0.139,0.56-0.139,0.879v5.982h-1.721v-5.802c0-1.54-0.681-2.661-2.021-2.661c-1.1,0-1.9,0.881-2.18,1.761
		c-0.1,0.261-0.141,0.561-0.141,0.86v5.842h-1.72V729.336z"/>
	<path fill="#2D4E6E" d="M1149.258,737.198l5.58-14.503h1.361l-5.602,14.503H1149.258z"/>
	<path fill="#2D4E6E" d="M1158.298,726.716l1.28,4.921c0.279,1.08,0.54,2.08,0.721,3.081h0.059c0.221-0.98,0.541-2.021,0.861-3.062
		l1.58-4.94h1.48l1.5,4.841c0.359,1.16,0.641,2.181,0.86,3.161h0.06c0.16-0.98,0.42-2.001,0.74-3.141l1.381-4.861h1.74l-3.121,9.683
		h-1.6l-1.48-4.621c-0.34-1.08-0.621-2.041-0.861-3.182h-0.039c-0.24,1.16-0.541,2.161-0.881,3.201l-1.561,4.602h-1.6l-2.921-9.683
		H1158.298z"/>
	<path fill="#2D4E6E" d="M1174.277,723.995c0.021,0.601-0.42,1.081-1.12,1.081c-0.62,0-1.06-0.48-1.06-1.081
		c0-0.62,0.459-1.101,1.1-1.101C1173.857,722.895,1174.277,723.375,1174.277,723.995z M1172.317,736.398v-9.683h1.761v9.683
		H1172.317z"/>
	<path fill="#2D4E6E" d="M1178.737,731.156h0.04c0.24-0.34,0.58-0.76,0.86-1.1l2.841-3.341h2.12l-3.741,3.981l4.262,5.701h-2.141
		l-3.341-4.642l-0.9,1.001v3.641h-1.74v-14.203h1.74V731.156z"/>
	<path fill="#2D4E6E" d="M1188.678,723.995c0.02,0.601-0.421,1.081-1.121,1.081c-0.62,0-1.061-0.48-1.061-1.081
		c0-0.62,0.461-1.101,1.101-1.101C1188.257,722.895,1188.678,723.375,1188.678,723.995z M1186.717,736.398v-9.683h1.76v9.683
		H1186.717z"/>
	<path fill="#2D4E6E" d="M1189.916,737.198l5.581-14.503h1.36l-5.602,14.503H1189.916z"/>
	<path fill="#2D4E6E" d="M1208.578,735.798c-0.779,0.28-2.32,0.74-4.141,0.74c-2.041,0-3.721-0.521-5.041-1.78
		c-1.16-1.121-1.881-2.921-1.881-5.021c0.021-4.021,2.781-6.961,7.302-6.961c1.561,0,2.78,0.34,3.36,0.619l-0.42,1.421
		c-0.72-0.319-1.62-0.58-2.98-0.58c-3.28,0-5.421,2.04-5.421,5.421c0,3.421,2.061,5.441,5.201,5.441c1.14,0,1.921-0.16,2.32-0.359
		v-4.021h-2.74v-1.4h4.44V735.798z"/>
	<path fill="#2D4E6E" d="M1211.176,722.195h1.761v14.203h-1.761V722.195z"/>
	<path fill="#2D4E6E" d="M1224.658,731.477c0,3.581-2.48,5.142-4.821,5.142c-2.62,0-4.642-1.921-4.642-4.981
		c0-3.24,2.121-5.141,4.801-5.141C1222.777,726.496,1224.658,728.516,1224.658,731.477z M1216.977,731.577
		c0,2.12,1.22,3.721,2.939,3.721c1.682,0,2.941-1.581,2.941-3.761c0-1.641-0.82-3.721-2.9-3.721S1216.977,729.736,1216.977,731.577z
		"/>
	<path fill="#2D4E6E" d="M1226.636,734.598c0.521,0.34,1.44,0.7,2.32,0.7c1.28,0,1.881-0.64,1.881-1.44
		c0-0.84-0.501-1.301-1.801-1.78c-1.74-0.62-2.561-1.581-2.561-2.741c0-1.561,1.261-2.84,3.341-2.84c0.98,0,1.84,0.279,2.381,0.6
		l-0.44,1.281c-0.38-0.24-1.08-0.561-1.98-0.561c-1.04,0-1.62,0.6-1.62,1.32c0,0.8,0.58,1.16,1.84,1.641
		c1.681,0.64,2.541,1.479,2.541,2.92c0,1.701-1.32,2.9-3.621,2.9c-1.061,0-2.04-0.26-2.721-0.66L1226.636,734.598z"/>
	<path fill="#2D4E6E" d="M1234.556,734.598c0.521,0.34,1.44,0.7,2.32,0.7c1.28,0,1.881-0.64,1.881-1.44
		c0-0.84-0.501-1.301-1.801-1.78c-1.74-0.62-2.561-1.581-2.561-2.741c0-1.561,1.261-2.84,3.341-2.84c0.98,0,1.84,0.279,2.381,0.6
		l-0.44,1.281c-0.38-0.24-1.08-0.561-1.98-0.561c-1.04,0-1.62,0.6-1.62,1.32c0,0.8,0.58,1.16,1.84,1.641
		c1.681,0.64,2.541,1.479,2.541,2.92c0,1.701-1.32,2.9-3.621,2.9c-1.061,0-2.04-0.26-2.721-0.66L1234.556,734.598z"/>
	<path fill="#2D4E6E" d="M1248.076,736.398l-0.139-1.221h-0.061c-0.541,0.76-1.58,1.44-2.961,1.44c-1.961,0-2.961-1.38-2.961-2.78
		c0-2.341,2.081-3.621,5.822-3.602v-0.199c0-0.801-0.221-2.241-2.201-2.241c-0.9,0-1.84,0.28-2.521,0.72l-0.399-1.16
		c0.8-0.52,1.96-0.859,3.18-0.859c2.961,0,3.682,2.02,3.682,3.961v3.621c0,0.84,0.039,1.66,0.16,2.32H1248.076z M1247.816,731.457
		c-1.92-0.04-4.101,0.3-4.101,2.18c0,1.141,0.761,1.682,1.661,1.682c1.26,0,2.06-0.801,2.34-1.621c0.061-0.18,0.1-0.38,0.1-0.561
		V731.457z"/>
	<path fill="#2D4E6E" d="M1252.355,729.736c0-1.141-0.02-2.12-0.08-3.021h1.541l0.06,1.9h0.08c0.44-1.3,1.501-2.12,2.681-2.12
		c0.2,0,0.34,0.02,0.5,0.06v1.661c-0.18-0.041-0.359-0.061-0.6-0.061c-1.24,0-2.121,0.939-2.361,2.26
		c-0.039,0.24-0.08,0.521-0.08,0.82v5.162h-1.74V729.736z"/>
	<path fill="#2D4E6E" d="M1260.036,726.716l2.12,5.722c0.221,0.64,0.461,1.4,0.62,1.98h0.04c0.18-0.58,0.381-1.32,0.62-2.021
		l1.921-5.681h1.859l-2.64,6.901c-1.261,3.32-2.12,5.021-3.321,6.062c-0.859,0.761-1.721,1.06-2.16,1.14l-0.439-1.48
		c0.439-0.139,1.02-0.42,1.539-0.859c0.48-0.381,1.081-1.061,1.48-1.961c0.08-0.18,0.141-0.32,0.141-0.42s-0.04-0.24-0.12-0.46
		l-3.581-8.922H1260.036z"/>
	<path fill="#2D4E6E" d="M1269.216,736.398l0.521-3.922h-1.641v-1.18h1.82l0.38-2.9h-1.72v-1.181h1.9l0.52-3.821h1.16l-0.5,3.821
		h2.08l0.521-3.821h1.181l-0.5,3.821h1.641v1.181h-1.821l-0.36,2.9h1.721v1.18h-1.9l-0.52,3.922h-1.201l0.521-3.922h-2.081
		l-0.52,3.922H1269.216z M1273.197,731.297l0.379-2.9h-2.08l-0.38,2.9H1273.197z"/>
	<path fill="#2D4E6E" d="M1280.876,723.936v2.78h2.521v1.341h-2.521v5.221c0,1.2,0.341,1.881,1.32,1.881
		c0.46,0,0.8-0.061,1.021-0.121l0.08,1.32c-0.34,0.141-0.881,0.24-1.561,0.24c-0.82,0-1.48-0.26-1.9-0.74
		c-0.5-0.52-0.68-1.38-0.68-2.52v-5.281h-1.501v-1.341h1.501v-2.32L1280.876,723.936z"/>
	<path fill="#2D4E6E" d="M1290.736,736.398l-0.14-1.221h-0.06c-0.541,0.76-1.581,1.44-2.961,1.44c-1.961,0-2.961-1.38-2.961-2.78
		c0-2.341,2.08-3.621,5.821-3.602v-0.199c0-0.801-0.22-2.241-2.2-2.241c-0.9,0-1.841,0.28-2.521,0.72l-0.399-1.16
		c0.8-0.52,1.96-0.859,3.181-0.859c2.961,0,3.681,2.02,3.681,3.961v3.621c0,0.84,0.04,1.66,0.16,2.32H1290.736z M1290.477,731.457
		c-1.92-0.04-4.102,0.3-4.102,2.18c0,1.141,0.761,1.682,1.661,1.682c1.261,0,2.06-0.801,2.341-1.621c0.06-0.18,0.1-0.38,0.1-0.561
		V731.457z"/>
	<path fill="#2D4E6E" d="M1296.976,723.995c0.021,0.601-0.421,1.081-1.12,1.081c-0.621,0-1.061-0.48-1.061-1.081
		c0-0.62,0.46-1.101,1.1-1.101C1296.555,722.895,1296.976,723.375,1296.976,723.995z M1295.016,736.398v-9.683h1.76v9.683H1295.016z
		"/>
	<path fill="#2D4E6E" d="M1299.695,729.336c0-1-0.021-1.82-0.08-2.62h1.56l0.101,1.601h0.039c0.48-0.92,1.602-1.82,3.201-1.82
		c1.34,0,3.421,0.8,3.421,4.121v5.781h-1.761v-5.582c0-1.561-0.58-2.86-2.24-2.86c-1.16,0-2.061,0.82-2.36,1.8
		c-0.08,0.221-0.12,0.521-0.12,0.82v5.822h-1.76V729.336z"/>
	<path fill="#2D4E6E" d="M1312.834,723.936v2.78h2.521v1.341h-2.521v5.221c0,1.2,0.341,1.881,1.32,1.881
		c0.461,0,0.801-0.061,1.021-0.121l0.08,1.32c-0.341,0.141-0.881,0.24-1.561,0.24c-0.82,0-1.48-0.26-1.9-0.74
		c-0.5-0.52-0.681-1.38-0.681-2.52v-5.281h-1.501v-1.341h1.501v-2.32L1312.834,723.936z"/>
</g>
</svg>
