<?xml version="1.0" encoding="utf-8"?>
<!-- Generator: Adobe Illustrator 16.0.4, SVG Export Plug-In . SVG Version: 6.00 Build 0)  -->
<!DOCTYPE svg PUBLIC "-//W3C//DTD SVG 1.1//EN" "http://www.w3.org/Graphics/SVG/1.1/DTD/svg11.dtd">
<svg version="1.1" id="Layer_1" xmlns="http://www.w3.org/2000/svg" xmlns:xlink="http://www.w3.org/1999/xlink" x="0px" y="0px"
	 width="1366px" height="768px" viewBox="0 0 1366 768" enable-background="new 0 0 1366 768" xml:space="preserve">
<rect fill="#FFFFFF" width="1366" height="768"/>
<path fill="#FFFFFF" stroke="#231F20" stroke-width="2.5" stroke-miterlimit="10" d="M294.245,288.039
	c4.53-2.092,7.69-6.629,7.69-11.951c0-7.268-5.887-13.158-13.158-13.158c-7.271,0-13.17,5.891-13.17,13.158
	c0,5.322,3.172,9.859,7.702,11.951c-9.875,6.736-11.647,30.831-11.647,30.831h17.115h17.104
	C305.881,318.87,304.12,294.775,294.245,288.039z"/>
<path fill="#FFFFFF" stroke="#231F20" stroke-width="2.5" stroke-miterlimit="10" d="M1078.434,288.039
	c4.529-2.092,7.69-6.629,7.69-11.951c0-7.268-5.888-13.158-13.158-13.158c-7.271,0-13.17,5.891-13.17,13.158
	c0,5.322,3.173,9.859,7.702,11.951c-9.875,6.736-11.647,30.831-11.647,30.831h17.115h17.104
	C1090.069,318.87,1088.309,294.775,1078.434,288.039z"/>
<path fill="#9AB1C3" stroke="#000000" stroke-width="2.5" stroke-miterlimit="10" enable-background="new    " d="M686.34,288.039
	c4.529-2.092,7.689-6.629,7.689-11.951c0-7.268-5.887-13.158-13.158-13.158s-13.17,5.891-13.17,13.158
	c0,5.322,3.173,9.859,7.702,11.951c-9.874,6.736-11.647,30.831-11.647,30.831h17.115h17.104
	C697.975,318.87,696.214,294.775,686.34,288.039z"/>
<g>
	<line fill="#FFFFFF" x1="328.378" y1="306.37" x2="641.863" y2="306.37"/>
	<g>
		
			<line fill="none" stroke="#231F20" stroke-width="2.662" stroke-miterlimit="10" x1="328.378" y1="306.37" x2="628.707" y2="306.37"/>
		<g>
			<polygon fill="#231F20" points="641.863,306.37 623.324,313.945 627.723,306.37 623.324,298.796 			"/>
		</g>
	</g>
</g>
<g>
	<line fill="#FFFFFF" x1="718.359" y1="306.37" x2="1031.844" y2="306.37"/>
	<g>
		
			<line fill="none" stroke="#231F20" stroke-width="2.662" stroke-miterlimit="10" x1="718.359" y1="306.37" x2="1018.688" y2="306.37"/>
		<g>
			<polygon fill="#231F20" points="1031.844,306.37 1013.305,313.945 1017.703,306.37 1013.305,298.796 			"/>
		</g>
	</g>
</g>
<g>
	<line fill="#FFFFFF" x1="1031.844" y1="281.37" x2="718.358" y2="281.37"/>
	<g>
		
			<line fill="none" stroke="#231F20" stroke-width="2.662" stroke-miterlimit="10" x1="1031.844" y1="281.37" x2="731.515" y2="281.37"/>
		<g>
			<polygon fill="#231F20" points="718.358,281.37 736.897,273.795 732.498,281.37 736.897,288.944 			"/>
		</g>
	</g>
</g>
<g>
	<line fill="#FFFFFF" x1="641.862" y1="281.37" x2="328.378" y2="281.37"/>
	<g>
		
			<line fill="none" stroke="#231F20" stroke-width="2.662" stroke-miterlimit="10" x1="641.862" y1="281.37" x2="341.534" y2="281.37"/>
		<g>
			<polygon fill="#231F20" points="328.378,281.37 346.917,273.795 342.518,281.37 346.917,288.944 			"/>
		</g>
	</g>
</g>
<g>
	<rect x="313.378" y="248.651" fill="none" width="350.983" height="34.719"/>
	<path d="M375.658,261.192c0,1.382-0.501,2.46-1.504,3.233c-1.003,0.773-2.363,1.16-4.082,1.16c-1.862,0-3.294-0.24-4.297-0.72
		v-1.762c0.645,0.272,1.346,0.487,2.105,0.645c0.759,0.157,1.511,0.236,2.256,0.236c1.217,0,2.134-0.231,2.75-0.692
		c0.616-0.463,0.924-1.105,0.924-1.929c0-0.544-0.109-0.99-0.328-1.337c-0.219-0.348-0.584-0.668-1.096-0.962
		c-0.512-0.294-1.291-0.627-2.336-0.999c-1.461-0.522-2.505-1.143-3.131-1.858c-0.627-0.716-0.94-1.65-0.94-2.804
		c0-1.21,0.455-2.174,1.364-2.89c0.909-0.716,2.112-1.074,3.609-1.074c1.561,0,2.997,0.286,4.308,0.859l-0.569,1.59
		c-1.296-0.544-2.557-0.816-3.781-0.816c-0.967,0-1.723,0.208-2.267,0.623c-0.544,0.415-0.816,0.992-0.816,1.729
		c0,0.544,0.1,0.99,0.301,1.338c0.2,0.347,0.539,0.666,1.015,0.955c0.476,0.291,1.205,0.611,2.186,0.962
		c1.647,0.587,2.78,1.218,3.4,1.891C375.348,259.244,375.658,260.118,375.658,261.192z"/>
	<path d="M383.575,265.586c-1.74,0-3.114-0.53-4.12-1.59c-1.006-1.06-1.509-2.531-1.509-4.415c0-1.897,0.467-3.405,1.402-4.522
		s2.189-1.676,3.765-1.676c1.475,0,2.643,0.485,3.502,1.455c0.859,0.971,1.289,2.251,1.289,3.841v1.128h-8.11
		c0.036,1.382,0.385,2.432,1.047,3.147c0.662,0.716,1.595,1.074,2.798,1.074c1.268,0,2.521-0.265,3.76-0.795v1.59
		c-0.63,0.272-1.227,0.468-1.789,0.585C385.048,265.527,384.37,265.586,383.575,265.586z M383.091,254.876
		c-0.945,0-1.699,0.308-2.261,0.924c-0.562,0.616-0.894,1.468-0.994,2.557h6.155c0-1.124-0.251-1.985-0.752-2.583
		C384.738,255.175,384.022,254.876,383.091,254.876z"/>
	<path d="M396.315,253.383c0.522,0,0.992,0.043,1.407,0.129l-0.247,1.654c-0.487-0.107-0.917-0.161-1.289-0.161
		c-0.953,0-1.767,0.387-2.444,1.16s-1.015,1.736-1.015,2.89v6.316h-1.783v-11.773h1.472l0.204,2.181h0.086
		c0.437-0.767,0.963-1.357,1.579-1.772C394.9,253.591,395.577,253.383,396.315,253.383z"/>
	<path d="M402.502,265.371l-4.469-11.773h1.912l2.535,6.982c0.573,1.633,0.909,2.692,1.01,3.18h0.086
		c0.079-0.38,0.328-1.166,0.747-2.357c0.419-1.193,1.359-3.794,2.82-7.805h1.912l-4.469,11.773H402.502z"/>
	<path d="M410.795,250.407c0-0.408,0.1-0.707,0.301-0.897c0.2-0.189,0.451-0.284,0.752-0.284c0.286,0,0.533,0.097,0.741,0.29
		c0.208,0.193,0.312,0.49,0.312,0.892s-0.104,0.7-0.312,0.897c-0.208,0.196-0.455,0.295-0.741,0.295
		c-0.301,0-0.552-0.099-0.752-0.295C410.896,251.107,410.795,250.809,410.795,250.407z M412.729,265.371h-1.783v-11.773h1.783
		V265.371z"/>
	<path d="M421.215,265.586c-1.705,0-3.024-0.524-3.958-1.574c-0.935-1.049-1.402-2.533-1.402-4.452c0-1.97,0.474-3.491,1.423-4.565
		c0.949-1.074,2.3-1.611,4.055-1.611c0.565,0,1.131,0.061,1.697,0.183c0.565,0.122,1.01,0.265,1.332,0.43l-0.548,1.515
		c-0.394-0.157-0.824-0.288-1.289-0.393c-0.466-0.104-0.877-0.155-1.235-0.155c-2.392,0-3.588,1.525-3.588,4.576
		c0,1.446,0.292,2.557,0.875,3.33c0.583,0.773,1.448,1.16,2.594,1.16c0.981,0,1.987-0.211,3.019-0.634v1.579
		C423.403,265.382,422.411,265.586,421.215,265.586z"/>
	<path d="M431.958,265.586c-1.74,0-3.114-0.53-4.12-1.59c-1.006-1.06-1.509-2.531-1.509-4.415c0-1.897,0.467-3.405,1.402-4.522
		s2.189-1.676,3.765-1.676c1.475,0,2.643,0.485,3.502,1.455c0.859,0.971,1.289,2.251,1.289,3.841v1.128h-8.11
		c0.036,1.382,0.385,2.432,1.047,3.147c0.662,0.716,1.595,1.074,2.798,1.074c1.268,0,2.521-0.265,3.76-0.795v1.59
		c-0.63,0.272-1.227,0.468-1.789,0.585C433.431,265.527,432.752,265.586,431.958,265.586z M431.474,254.876
		c-0.945,0-1.699,0.308-2.261,0.924c-0.562,0.616-0.894,1.468-0.994,2.557h6.155c0-1.124-0.251-1.985-0.752-2.583
		C433.121,255.175,432.405,254.876,431.474,254.876z"/>
	<path d="M451.003,249.666l-5.854,15.705h-1.783l5.854-15.705H451.003z"/>
	<path d="M466.01,257.143h5.339v7.638c-0.831,0.265-1.676,0.466-2.535,0.602s-1.855,0.204-2.986,0.204
		c-2.378,0-4.229-0.707-5.554-2.121c-1.325-1.415-1.987-3.396-1.987-5.946c0-1.633,0.328-3.063,0.983-4.292
		c0.655-1.228,1.599-2.166,2.831-2.814c1.231-0.647,2.675-0.972,4.329-0.972c1.676,0,3.237,0.308,4.684,0.924l-0.709,1.611
		c-1.418-0.602-2.782-0.902-4.093-0.902c-1.912,0-3.405,0.569-4.479,1.708s-1.611,2.718-1.611,4.737c0,2.12,0.517,3.728,1.552,4.823
		c1.035,1.096,2.555,1.644,4.56,1.644c1.088,0,2.152-0.125,3.19-0.376v-4.834h-3.513V257.143z"/>
	<path d="M485.013,259.474c0,1.919-0.483,3.418-1.45,4.495c-0.967,1.078-2.303,1.617-4.007,1.617c-1.053,0-1.987-0.247-2.804-0.741
		s-1.447-1.203-1.891-2.127c-0.444-0.924-0.666-2.005-0.666-3.244c0-1.919,0.479-3.414,1.439-4.485
		c0.959-1.07,2.292-1.605,3.996-1.605c1.647,0,2.956,0.548,3.926,1.644C484.528,256.122,485.013,257.604,485.013,259.474z
		 M476.043,259.474c0,1.504,0.301,2.649,0.902,3.438s1.486,1.182,2.653,1.182c1.167,0,2.053-0.392,2.659-1.177
		c0.605-0.783,0.908-1.932,0.908-3.442c0-1.497-0.303-2.634-0.908-3.411c-0.605-0.776-1.499-1.165-2.68-1.165
		c-1.167,0-2.048,0.383-2.643,1.149C476.34,256.813,476.043,257.955,476.043,259.474z"/>
	<path d="M498.301,259.474c0,1.919-0.483,3.418-1.45,4.495c-0.967,1.078-2.303,1.617-4.007,1.617c-1.053,0-1.987-0.247-2.804-0.741
		s-1.447-1.203-1.891-2.127c-0.444-0.924-0.666-2.005-0.666-3.244c0-1.919,0.479-3.414,1.439-4.485
		c0.959-1.07,2.292-1.605,3.996-1.605c1.647,0,2.956,0.548,3.926,1.644C497.816,256.122,498.301,257.604,498.301,259.474z
		 M489.332,259.474c0,1.504,0.301,2.649,0.902,3.438s1.486,1.182,2.653,1.182c1.167,0,2.053-0.392,2.659-1.177
		c0.605-0.783,0.908-1.932,0.908-3.442c0-1.497-0.303-2.634-0.908-3.411c-0.605-0.776-1.499-1.165-2.68-1.165
		c-1.167,0-2.048,0.383-2.643,1.149C489.628,256.813,489.332,257.955,489.332,259.474z"/>
	<path d="M509.441,263.792h-0.097c-0.824,1.196-2.056,1.794-3.695,1.794c-1.54,0-2.738-0.526-3.593-1.579
		c-0.856-1.053-1.284-2.55-1.284-4.49s0.43-3.448,1.289-4.522s2.055-1.611,3.588-1.611c1.597,0,2.821,0.58,3.674,1.74h0.14
		l-0.075-0.849l-0.043-0.827v-4.791h1.783v16.715h-1.45L509.441,263.792z M505.875,264.093c1.217,0,2.1-0.331,2.648-0.993
		c0.548-0.663,0.822-1.731,0.822-3.207v-0.376c0-1.669-0.278-2.859-0.833-3.571c-0.555-0.713-1.441-1.069-2.659-1.069
		c-1.046,0-1.846,0.406-2.401,1.22c-0.555,0.812-0.833,1.96-0.833,3.442c0,1.504,0.275,2.639,0.827,3.405
		C503.998,263.71,504.807,264.093,505.875,264.093z"/>
	<path d="M522.503,262.159c0,1.096-0.408,1.94-1.225,2.535s-1.962,0.892-3.438,0.892c-1.562,0-2.779-0.247-3.652-0.741v-1.654
		c0.565,0.286,1.172,0.512,1.821,0.677c0.648,0.165,1.273,0.247,1.875,0.247c0.931,0,1.647-0.148,2.148-0.446
		c0.501-0.297,0.752-0.75,0.752-1.358c0-0.458-0.199-0.851-0.596-1.177c-0.397-0.325-1.173-0.71-2.326-1.154
		c-1.096-0.408-1.875-0.765-2.336-1.068c-0.462-0.305-0.806-0.65-1.031-1.037s-0.338-0.849-0.338-1.386
		c0-0.96,0.39-1.717,1.171-2.272c0.78-0.555,1.851-0.832,3.212-0.832c1.268,0,2.506,0.258,3.717,0.773l-0.634,1.45
		c-1.182-0.487-2.252-0.73-3.212-0.73c-0.845,0-1.482,0.133-1.912,0.397s-0.645,0.63-0.645,1.096c0,0.315,0.081,0.584,0.242,0.806
		s0.42,0.434,0.779,0.634c0.358,0.2,1.045,0.49,2.062,0.87c1.396,0.509,2.34,1.021,2.831,1.536
		C522.258,260.73,522.503,261.379,522.503,262.159z"/>
	<path d="M537.081,249.666l-5.854,15.705h-1.783l5.854-15.705H537.081z"/>
	<path d="M552.13,265.371l-5.328-13.922h-0.086c0.1,1.103,0.15,2.413,0.15,3.932v9.99h-1.687v-15.705h2.75l4.974,12.955h0.086
		l5.017-12.955h2.729v15.705h-1.826v-10.119c0-1.16,0.05-2.421,0.15-3.781h-0.086l-5.371,13.9H552.13z"/>
	<path d="M574.936,259.474c0,1.919-0.483,3.418-1.45,4.495c-0.967,1.078-2.303,1.617-4.007,1.617c-1.053,0-1.987-0.247-2.804-0.741
		s-1.447-1.203-1.891-2.127c-0.444-0.924-0.666-2.005-0.666-3.244c0-1.919,0.479-3.414,1.439-4.485
		c0.959-1.07,2.292-1.605,3.996-1.605c1.647,0,2.955,0.548,3.927,1.644C574.451,256.122,574.936,257.604,574.936,259.474z
		 M565.966,259.474c0,1.504,0.301,2.649,0.902,3.438s1.486,1.182,2.653,1.182c1.167,0,2.053-0.392,2.659-1.177
		c0.605-0.783,0.908-1.932,0.908-3.442c0-1.497-0.303-2.634-0.908-3.411c-0.605-0.776-1.499-1.165-2.68-1.165
		c-1.167,0-2.048,0.383-2.643,1.149C566.263,256.813,565.966,257.955,565.966,259.474z"/>
	<path d="M586.119,265.371v-7.616c0-0.96-0.219-1.676-0.655-2.148s-1.121-0.709-2.052-0.709c-1.231,0-2.134,0.333-2.707,0.999
		s-0.859,1.766-0.859,3.298v6.177h-1.783v-11.773h1.45l0.29,1.611h0.086c0.365-0.58,0.877-1.029,1.536-1.348
		c0.659-0.319,1.393-0.479,2.202-0.479c1.418,0,2.485,0.342,3.201,1.025c0.716,0.685,1.074,1.778,1.074,3.282v7.681H586.119z"/>
	<path d="M596.539,265.586c-1.74,0-3.113-0.53-4.12-1.59c-1.006-1.06-1.509-2.531-1.509-4.415c0-1.897,0.468-3.405,1.401-4.522
		c0.936-1.117,2.19-1.676,3.766-1.676c1.476,0,2.643,0.485,3.502,1.455c0.859,0.971,1.289,2.251,1.289,3.841v1.128h-8.11
		c0.036,1.382,0.385,2.432,1.048,3.147c0.662,0.716,1.595,1.074,2.798,1.074c1.268,0,2.521-0.265,3.76-0.795v1.59
		c-0.63,0.272-1.227,0.468-1.788,0.585C598.012,265.527,597.333,265.586,596.539,265.586z M596.055,254.876
		c-0.945,0-1.699,0.308-2.262,0.924c-0.562,0.616-0.893,1.468-0.993,2.557h6.155c0-1.124-0.251-1.985-0.752-2.583
		C597.703,255.175,596.986,254.876,596.055,254.876z"/>
	<path d="M602.039,253.598h1.912l2.578,6.714c0.565,1.532,0.917,2.639,1.053,3.319h0.086c0.093-0.365,0.288-0.99,0.586-1.875
		c0.297-0.884,1.269-3.604,2.916-8.158h1.912l-5.06,13.406c-0.501,1.325-1.087,2.265-1.757,2.82
		c-0.669,0.555-1.491,0.832-2.465,0.832c-0.544,0-1.081-0.061-1.611-0.183v-1.429c0.394,0.086,0.834,0.129,1.321,0.129
		c1.225,0,2.099-0.688,2.621-2.062l0.655-1.676L602.039,253.598z"/>
</g>
<g>
	<rect x="701.609" y="248.651" fill="none" width="350.982" height="34.719"/>
	<path d="M763.889,261.192c0,1.382-0.502,2.46-1.504,3.233c-1.003,0.773-2.363,1.16-4.082,1.16c-1.862,0-3.295-0.24-4.297-0.72
		v-1.762c0.645,0.272,1.346,0.487,2.105,0.645c0.759,0.157,1.511,0.236,2.256,0.236c1.217,0,2.134-0.231,2.75-0.692
		c0.615-0.463,0.924-1.105,0.924-1.929c0-0.544-0.109-0.99-0.328-1.337c-0.219-0.348-0.584-0.668-1.096-0.962
		s-1.291-0.627-2.336-0.999c-1.461-0.522-2.505-1.143-3.131-1.858c-0.627-0.716-0.94-1.65-0.94-2.804c0-1.21,0.454-2.174,1.364-2.89
		c0.909-0.716,2.112-1.074,3.609-1.074c1.561,0,2.997,0.286,4.308,0.859l-0.569,1.59c-1.297-0.544-2.557-0.816-3.781-0.816
		c-0.967,0-1.723,0.208-2.267,0.623s-0.816,0.992-0.816,1.729c0,0.544,0.101,0.99,0.301,1.338c0.2,0.347,0.538,0.666,1.015,0.955
		c0.477,0.291,1.205,0.611,2.187,0.962c1.647,0.587,2.78,1.218,3.399,1.891S763.889,260.118,763.889,261.192z"/>
	<path d="M771.806,265.586c-1.74,0-3.114-0.53-4.12-1.59s-1.509-2.531-1.509-4.415c0-1.897,0.468-3.405,1.401-4.522
		c0.936-1.117,2.189-1.676,3.766-1.676c1.475,0,2.643,0.485,3.502,1.455c0.859,0.971,1.289,2.251,1.289,3.841v1.128h-8.11
		c0.036,1.382,0.385,2.432,1.048,3.147c0.662,0.716,1.595,1.074,2.798,1.074c1.268,0,2.521-0.265,3.76-0.795v1.59
		c-0.63,0.272-1.227,0.468-1.788,0.585C773.279,265.527,772.601,265.586,771.806,265.586z M771.322,254.876
		c-0.945,0-1.699,0.308-2.262,0.924s-0.893,1.468-0.993,2.557h6.155c0-1.124-0.251-1.985-0.752-2.583
		C772.969,255.175,772.253,254.876,771.322,254.876z"/>
	<path d="M784.546,253.383c0.522,0,0.991,0.043,1.407,0.129l-0.247,1.654c-0.487-0.107-0.917-0.161-1.289-0.161
		c-0.952,0-1.767,0.387-2.444,1.16c-0.676,0.773-1.015,1.736-1.015,2.89v6.316h-1.783v-11.773h1.472l0.204,2.181h0.086
		c0.437-0.767,0.963-1.357,1.579-1.772C783.131,253.591,783.809,253.383,784.546,253.383z"/>
	<path d="M790.733,265.371l-4.469-11.773h1.912l2.535,6.982c0.573,1.633,0.909,2.692,1.01,3.18h0.086
		c0.079-0.38,0.327-1.166,0.747-2.357c0.418-1.193,1.358-3.794,2.819-7.805h1.912l-4.469,11.773H790.733z"/>
	<path d="M799.026,250.407c0-0.408,0.101-0.707,0.301-0.897c0.2-0.189,0.451-0.284,0.752-0.284c0.286,0,0.533,0.097,0.741,0.29
		c0.207,0.193,0.312,0.49,0.312,0.892s-0.104,0.7-0.312,0.897c-0.208,0.196-0.455,0.295-0.741,0.295
		c-0.301,0-0.552-0.099-0.752-0.295C799.127,251.107,799.026,250.809,799.026,250.407z M800.96,265.371h-1.783v-11.773h1.783
		V265.371z"/>
	<path d="M809.446,265.586c-1.704,0-3.024-0.524-3.958-1.574c-0.936-1.049-1.402-2.533-1.402-4.452c0-1.97,0.475-3.491,1.424-4.565
		c0.948-1.074,2.3-1.611,4.055-1.611c0.565,0,1.131,0.061,1.697,0.183c0.565,0.122,1.01,0.265,1.332,0.43l-0.548,1.515
		c-0.394-0.157-0.823-0.288-1.289-0.393c-0.466-0.104-0.878-0.155-1.235-0.155c-2.393,0-3.588,1.525-3.588,4.576
		c0,1.446,0.291,2.557,0.875,3.33s1.449,1.16,2.595,1.16c0.981,0,1.987-0.211,3.019-0.634v1.579
		C811.634,265.382,810.643,265.586,809.446,265.586z"/>
	<path d="M820.188,265.586c-1.74,0-3.114-0.53-4.12-1.59s-1.509-2.531-1.509-4.415c0-1.897,0.468-3.405,1.401-4.522
		c0.936-1.117,2.189-1.676,3.766-1.676c1.475,0,2.643,0.485,3.502,1.455c0.859,0.971,1.289,2.251,1.289,3.841v1.128h-8.11
		c0.036,1.382,0.385,2.432,1.048,3.147c0.662,0.716,1.595,1.074,2.798,1.074c1.268,0,2.521-0.265,3.76-0.795v1.59
		c-0.63,0.272-1.227,0.468-1.788,0.585C821.662,265.527,820.983,265.586,820.188,265.586z M819.705,254.876
		c-0.945,0-1.699,0.308-2.262,0.924s-0.893,1.468-0.993,2.557h6.155c0-1.124-0.251-1.985-0.752-2.583
		C821.352,255.175,820.636,254.876,819.705,254.876z"/>
	<path d="M839.234,249.666l-5.854,15.705h-1.783l5.854-15.705H839.234z"/>
	<path d="M854.241,257.143h5.339v7.638c-0.831,0.265-1.676,0.466-2.535,0.602s-1.855,0.204-2.986,0.204
		c-2.378,0-4.229-0.707-5.554-2.121c-1.325-1.415-1.987-3.396-1.987-5.946c0-1.633,0.328-3.063,0.982-4.292
		c0.656-1.228,1.6-2.166,2.831-2.814c1.231-0.647,2.675-0.972,4.329-0.972c1.676,0,3.236,0.308,4.684,0.924l-0.709,1.611
		c-1.418-0.602-2.782-0.902-4.093-0.902c-1.912,0-3.405,0.569-4.479,1.708s-1.611,2.718-1.611,4.737c0,2.12,0.518,3.728,1.553,4.823
		c1.034,1.096,2.555,1.644,4.56,1.644c1.089,0,2.151-0.125,3.19-0.376v-4.834h-3.513V257.143z"/>
	<path d="M873.244,259.474c0,1.919-0.483,3.418-1.45,4.495c-0.967,1.078-2.303,1.617-4.007,1.617c-1.053,0-1.987-0.247-2.804-0.741
		s-1.446-1.203-1.891-2.127s-0.666-2.005-0.666-3.244c0-1.919,0.479-3.414,1.439-4.485c0.96-1.07,2.292-1.605,3.996-1.605
		c1.647,0,2.956,0.548,3.927,1.644C872.759,256.122,873.244,257.604,873.244,259.474z M864.274,259.474
		c0,1.504,0.301,2.649,0.902,3.438s1.485,1.182,2.653,1.182c1.167,0,2.053-0.392,2.658-1.177c0.605-0.783,0.908-1.932,0.908-3.442
		c0-1.497-0.303-2.634-0.908-3.411c-0.605-0.776-1.498-1.165-2.68-1.165c-1.168,0-2.049,0.383-2.643,1.149
		C864.571,256.813,864.274,257.955,864.274,259.474z"/>
	<path d="M886.532,259.474c0,1.919-0.483,3.418-1.45,4.495c-0.967,1.078-2.303,1.617-4.007,1.617c-1.053,0-1.987-0.247-2.804-0.741
		s-1.447-1.203-1.891-2.127c-0.444-0.924-0.666-2.005-0.666-3.244c0-1.919,0.479-3.414,1.439-4.485
		c0.959-1.07,2.291-1.605,3.996-1.605c1.646,0,2.955,0.548,3.926,1.644S886.532,257.604,886.532,259.474z M877.562,259.474
		c0,1.504,0.301,2.649,0.902,3.438s1.486,1.182,2.653,1.182s2.054-0.392,2.659-1.177c0.604-0.783,0.907-1.932,0.907-3.442
		c0-1.497-0.303-2.634-0.907-3.411c-0.605-0.776-1.499-1.165-2.681-1.165c-1.167,0-2.048,0.383-2.643,1.149
		S877.562,257.955,877.562,259.474z"/>
	<path d="M897.672,263.792h-0.097c-0.823,1.196-2.056,1.794-3.695,1.794c-1.54,0-2.737-0.526-3.593-1.579
		c-0.856-1.053-1.284-2.55-1.284-4.49s0.43-3.448,1.289-4.522s2.056-1.611,3.588-1.611c1.597,0,2.821,0.58,3.674,1.74h0.14
		l-0.075-0.849l-0.043-0.827v-4.791h1.783v16.715h-1.45L897.672,263.792z M894.105,264.093c1.217,0,2.1-0.331,2.648-0.993
		c0.547-0.663,0.821-1.731,0.821-3.207v-0.376c0-1.669-0.278-2.859-0.833-3.571c-0.555-0.713-1.441-1.069-2.658-1.069
		c-1.046,0-1.846,0.406-2.4,1.22c-0.556,0.812-0.833,1.96-0.833,3.442c0,1.504,0.275,2.639,0.827,3.405
		C892.229,263.71,893.038,264.093,894.105,264.093z"/>
	<path d="M910.734,262.159c0,1.096-0.408,1.94-1.225,2.535s-1.963,0.892-3.438,0.892c-1.562,0-2.779-0.247-3.652-0.741v-1.654
		c0.565,0.286,1.172,0.512,1.82,0.677s1.273,0.247,1.875,0.247c0.931,0,1.646-0.148,2.148-0.446c0.501-0.297,0.752-0.75,0.752-1.358
		c0-0.458-0.199-0.851-0.596-1.177c-0.398-0.325-1.174-0.71-2.326-1.154c-1.096-0.408-1.875-0.765-2.336-1.068
		c-0.463-0.305-0.807-0.65-1.031-1.037c-0.227-0.387-0.339-0.849-0.339-1.386c0-0.96,0.39-1.717,1.171-2.272
		c0.78-0.555,1.852-0.832,3.212-0.832c1.268,0,2.507,0.258,3.717,0.773l-0.634,1.45c-1.182-0.487-2.252-0.73-3.212-0.73
		c-0.845,0-1.482,0.133-1.912,0.397s-0.645,0.63-0.645,1.096c0,0.315,0.081,0.584,0.241,0.806c0.162,0.222,0.421,0.434,0.779,0.634
		c0.357,0.2,1.045,0.49,2.062,0.87c1.396,0.509,2.34,1.021,2.83,1.536S910.734,261.379,910.734,262.159z"/>
	<path d="M925.312,249.666l-5.854,15.705h-1.783l5.854-15.705H925.312z"/>
	<path d="M940.361,265.371l-5.328-13.922h-0.086c0.1,1.103,0.15,2.413,0.15,3.932v9.99h-1.687v-15.705h2.75l4.974,12.955h0.086
		l5.017-12.955h2.729v15.705h-1.826v-10.119c0-1.16,0.05-2.421,0.15-3.781h-0.086l-5.371,13.9H940.361z"/>
	<path d="M963.167,259.474c0,1.919-0.483,3.418-1.45,4.495c-0.967,1.078-2.303,1.617-4.007,1.617c-1.053,0-1.987-0.247-2.804-0.741
		s-1.447-1.203-1.891-2.127c-0.444-0.924-0.666-2.005-0.666-3.244c0-1.919,0.479-3.414,1.439-4.485
		c0.959-1.07,2.291-1.605,3.996-1.605c1.646,0,2.955,0.548,3.927,1.644C962.682,256.122,963.167,257.604,963.167,259.474z
		 M954.197,259.474c0,1.504,0.301,2.649,0.902,3.438s1.486,1.182,2.653,1.182s2.054-0.392,2.659-1.177
		c0.604-0.783,0.907-1.932,0.907-3.442c0-1.497-0.303-2.634-0.907-3.411c-0.605-0.776-1.499-1.165-2.681-1.165
		c-1.167,0-2.048,0.383-2.643,1.149S954.197,257.955,954.197,259.474z"/>
	<path d="M974.35,265.371v-7.616c0-0.96-0.219-1.676-0.655-2.148s-1.121-0.709-2.052-0.709c-1.231,0-2.134,0.333-2.707,0.999
		s-0.859,1.766-0.859,3.298v6.177h-1.783v-11.773h1.45l0.29,1.611h0.086c0.365-0.58,0.877-1.029,1.536-1.348
		c0.659-0.319,1.393-0.479,2.202-0.479c1.418,0,2.485,0.342,3.201,1.025c0.716,0.685,1.074,1.778,1.074,3.282v7.681H974.35z"/>
	<path d="M984.77,265.586c-1.74,0-3.113-0.53-4.12-1.59c-1.006-1.06-1.509-2.531-1.509-4.415c0-1.897,0.468-3.405,1.401-4.522
		c0.936-1.117,2.19-1.676,3.766-1.676c1.476,0,2.643,0.485,3.502,1.455c0.859,0.971,1.289,2.251,1.289,3.841v1.128h-8.11
		c0.036,1.382,0.385,2.432,1.048,3.147c0.662,0.716,1.595,1.074,2.798,1.074c1.268,0,2.521-0.265,3.76-0.795v1.59
		c-0.63,0.272-1.227,0.468-1.788,0.585C986.243,265.527,985.564,265.586,984.77,265.586z M984.286,254.876
		c-0.945,0-1.699,0.308-2.262,0.924c-0.562,0.616-0.893,1.468-0.993,2.557h6.155c0-1.124-0.251-1.985-0.752-2.583
		C985.934,255.175,985.217,254.876,984.286,254.876z"/>
	<path d="M990.27,253.598h1.912l2.578,6.714c0.565,1.532,0.917,2.639,1.053,3.319h0.086c0.093-0.365,0.288-0.99,0.586-1.875
		c0.297-0.884,1.269-3.604,2.916-8.158h1.912l-5.06,13.406c-0.501,1.325-1.087,2.265-1.757,2.82
		c-0.669,0.555-1.491,0.832-2.465,0.832c-0.544,0-1.081-0.061-1.611-0.183v-1.429c0.394,0.086,0.834,0.129,1.321,0.129
		c1.225,0,2.099-0.688,2.621-2.062l0.655-1.676L990.27,253.598z"/>
</g>
<g>
	<g>
		<path d="M415.178,321.662h4.437c2.084,0,3.591,0.312,4.522,0.935c0.931,0.623,1.396,1.607,1.396,2.954
			c0,0.931-0.26,1.699-0.779,2.305c-0.52,0.604-1.277,0.997-2.272,1.176v0.107c2.385,0.408,3.577,1.661,3.577,3.76
			c0,1.403-0.475,2.499-1.423,3.287c-0.949,0.788-2.276,1.182-3.98,1.182h-5.479V321.662z M417.004,328.387h3.008
			c1.289,0,2.216-0.202,2.782-0.607c0.565-0.404,0.849-1.086,0.849-2.046c0-0.881-0.315-1.517-0.945-1.907
			c-0.63-0.39-1.633-0.585-3.008-0.585h-2.686V328.387z M417.004,329.934v5.876h3.276c1.268,0,2.222-0.245,2.863-0.735
			c0.641-0.491,0.961-1.259,0.961-2.305c0-0.974-0.328-1.69-0.983-2.148s-1.653-0.688-2.992-0.688H417.004z"/>
		<path d="M429.014,322.403c0-0.408,0.1-0.707,0.301-0.897c0.2-0.189,0.451-0.284,0.752-0.284c0.286,0,0.533,0.097,0.741,0.29
			c0.208,0.193,0.312,0.49,0.312,0.892s-0.104,0.7-0.312,0.897c-0.208,0.196-0.455,0.295-0.741,0.295
			c-0.301,0-0.552-0.099-0.752-0.295C429.114,323.104,429.014,322.805,429.014,322.403z M430.948,337.367h-1.783v-11.773h1.783
			V337.367z"/>
		<path d="M438.532,336.11c0.315,0,0.619-0.023,0.913-0.069c0.293-0.047,0.526-0.096,0.698-0.146v1.364
			c-0.193,0.093-0.478,0.17-0.854,0.23c-0.376,0.062-0.714,0.092-1.015,0.092c-2.277,0-3.416-1.199-3.416-3.599v-7.004h-1.687
			v-0.859l1.687-0.741l0.752-2.514h1.031v2.729h3.416v1.386h-3.416v6.929c0,0.709,0.168,1.253,0.505,1.633
			C437.482,335.921,437.944,336.11,438.532,336.11z"/>
		<path d="M447.201,337.582c-1.705,0-3.024-0.524-3.958-1.574c-0.935-1.049-1.402-2.533-1.402-4.452c0-1.97,0.474-3.491,1.423-4.565
			c0.949-1.074,2.3-1.611,4.055-1.611c0.565,0,1.131,0.061,1.697,0.183c0.565,0.122,1.01,0.265,1.332,0.43l-0.548,1.515
			c-0.394-0.157-0.824-0.288-1.289-0.393c-0.466-0.104-0.877-0.155-1.235-0.155c-2.392,0-3.588,1.525-3.588,4.576
			c0,1.446,0.292,2.557,0.875,3.33c0.583,0.773,1.448,1.16,2.594,1.16c0.981,0,1.987-0.211,3.019-0.634v1.579
			C449.388,337.378,448.396,337.582,447.201,337.582z"/>
		<path d="M463.131,331.47c0,1.919-0.483,3.418-1.45,4.495c-0.967,1.078-2.303,1.617-4.007,1.617c-1.053,0-1.987-0.247-2.804-0.741
			s-1.447-1.203-1.891-2.127c-0.444-0.924-0.666-2.005-0.666-3.244c0-1.919,0.479-3.414,1.439-4.485
			c0.959-1.07,2.292-1.605,3.996-1.605c1.647,0,2.956,0.548,3.926,1.644C462.646,328.118,463.131,329.601,463.131,331.47z
			 M454.162,331.47c0,1.504,0.301,2.649,0.902,3.438s1.486,1.182,2.653,1.182c1.167,0,2.053-0.392,2.659-1.177
			c0.605-0.783,0.908-1.932,0.908-3.442c0-1.497-0.303-2.634-0.908-3.411c-0.605-0.776-1.499-1.165-2.68-1.165
			c-1.167,0-2.048,0.383-2.643,1.149C454.458,328.81,454.162,329.951,454.162,331.47z"/>
		<path d="M466.107,322.403c0-0.408,0.1-0.707,0.301-0.897c0.2-0.189,0.451-0.284,0.752-0.284c0.286,0,0.533,0.097,0.741,0.29
			c0.208,0.193,0.312,0.49,0.312,0.892s-0.104,0.7-0.312,0.897c-0.208,0.196-0.455,0.295-0.741,0.295
			c-0.301,0-0.552-0.099-0.752-0.295C466.207,323.104,466.107,322.805,466.107,322.403z M468.041,337.367h-1.783v-11.773h1.783
			V337.367z"/>
		<path d="M479.878,337.367v-7.616c0-0.96-0.219-1.676-0.655-2.148c-0.437-0.473-1.121-0.709-2.052-0.709
			c-1.232,0-2.134,0.333-2.707,0.999c-0.573,0.666-0.859,1.766-0.859,3.298v6.177h-1.783v-11.773h1.45l0.29,1.611h0.086
			c0.365-0.58,0.877-1.029,1.536-1.348c0.659-0.319,1.393-0.479,2.202-0.479c1.418,0,2.485,0.342,3.201,1.025
			c0.716,0.685,1.074,1.778,1.074,3.282v7.681H479.878z"/>
		<path d="M493.134,330.836v6.531h-1.826v-15.705h4.308c1.926,0,3.35,0.369,4.27,1.106c0.92,0.737,1.38,1.848,1.38,3.33
			c0,2.077-1.053,3.48-3.158,4.211l4.265,7.058h-2.159l-3.803-6.531H493.134z M493.134,329.268h2.503
			c1.289,0,2.234-0.256,2.836-0.768c0.602-0.513,0.902-1.28,0.902-2.305c0-1.038-0.306-1.787-0.918-2.245s-1.595-0.688-2.949-0.688
			h-2.374V329.268z"/>
		<path d="M509.613,337.582c-1.74,0-3.114-0.53-4.12-1.59c-1.006-1.06-1.509-2.531-1.509-4.415c0-1.897,0.467-3.405,1.402-4.522
			s2.189-1.676,3.765-1.676c1.475,0,2.643,0.485,3.502,1.455c0.859,0.971,1.289,2.251,1.289,3.841v1.128h-8.11
			c0.036,1.382,0.385,2.432,1.047,3.147c0.662,0.716,1.595,1.074,2.798,1.074c1.268,0,2.521-0.265,3.76-0.795v1.59
			c-0.63,0.272-1.227,0.468-1.789,0.585C511.086,337.523,510.408,337.582,509.613,337.582z M509.129,326.872
			c-0.945,0-1.699,0.308-2.261,0.924c-0.562,0.616-0.894,1.468-0.994,2.557h6.155c0-1.124-0.251-1.985-0.752-2.583
			C510.776,327.171,510.06,326.872,509.129,326.872z"/>
		<path d="M521.687,337.582c-1.705,0-3.024-0.524-3.958-1.574c-0.935-1.049-1.402-2.533-1.402-4.452c0-1.97,0.474-3.491,1.423-4.565
			c0.949-1.074,2.3-1.611,4.055-1.611c0.565,0,1.131,0.061,1.697,0.183c0.565,0.122,1.01,0.265,1.332,0.43l-0.548,1.515
			c-0.394-0.157-0.824-0.288-1.289-0.393c-0.466-0.104-0.877-0.155-1.235-0.155c-2.392,0-3.588,1.525-3.588,4.576
			c0,1.446,0.292,2.557,0.875,3.33c0.583,0.773,1.448,1.16,2.594,1.16c0.981,0,1.987-0.211,3.019-0.634v1.579
			C523.875,337.378,522.883,337.582,521.687,337.582z"/>
		<path d="M532.429,337.582c-1.74,0-3.114-0.53-4.12-1.59c-1.006-1.06-1.509-2.531-1.509-4.415c0-1.897,0.467-3.405,1.402-4.522
			s2.189-1.676,3.765-1.676c1.475,0,2.643,0.485,3.502,1.455c0.859,0.971,1.289,2.251,1.289,3.841v1.128h-8.11
			c0.036,1.382,0.385,2.432,1.047,3.147c0.662,0.716,1.595,1.074,2.798,1.074c1.268,0,2.521-0.265,3.76-0.795v1.59
			c-0.63,0.272-1.227,0.468-1.789,0.585C533.902,337.523,533.224,337.582,532.429,337.582z M531.946,326.872
			c-0.945,0-1.699,0.308-2.261,0.924c-0.562,0.616-0.894,1.468-0.994,2.557h6.155c0-1.124-0.251-1.985-0.752-2.583
			C533.593,327.171,532.876,326.872,531.946,326.872z"/>
		<path d="M539.648,322.403c0-0.408,0.1-0.707,0.301-0.897c0.2-0.189,0.451-0.284,0.752-0.284c0.286,0,0.533,0.097,0.741,0.29
			c0.208,0.193,0.312,0.49,0.312,0.892s-0.104,0.7-0.312,0.897c-0.208,0.196-0.455,0.295-0.741,0.295
			c-0.301,0-0.552-0.099-0.752-0.295C539.748,323.104,539.648,322.805,539.648,322.403z M541.582,337.367h-1.783v-11.773h1.783
			V337.367z"/>
		<path d="M550.841,337.582c-0.767,0-1.466-0.142-2.1-0.424c-0.634-0.283-1.166-0.719-1.595-1.306h-0.129
			c0.086,0.688,0.129,1.339,0.129,1.955v4.845h-1.783v-17.059h1.45l0.247,1.611h0.086c0.458-0.645,0.992-1.11,1.601-1.396
			c0.608-0.286,1.307-0.43,2.095-0.43c1.561,0,2.766,0.533,3.615,1.601s1.273,2.563,1.273,4.49c0,1.934-0.432,3.436-1.294,4.507
			C553.571,337.047,552.374,337.582,550.841,337.582z M550.583,326.894c-1.203,0-2.073,0.333-2.61,0.999s-0.813,1.726-0.827,3.18
			v0.397c0,1.654,0.275,2.838,0.827,3.55c0.551,0.713,1.436,1.069,2.653,1.069c1.017,0,1.813-0.412,2.39-1.235
			c0.576-0.823,0.865-1.959,0.865-3.405c0-1.468-0.289-2.595-0.865-3.378C552.44,327.285,551.629,326.894,550.583,326.894z"/>
		<path d="M562.647,336.11c0.315,0,0.619-0.023,0.913-0.069c0.293-0.047,0.526-0.096,0.698-0.146v1.364
			c-0.193,0.093-0.478,0.17-0.854,0.23c-0.376,0.062-0.714,0.092-1.015,0.092c-2.277,0-3.416-1.199-3.416-3.599v-7.004h-1.687
			v-0.859l1.687-0.741l0.752-2.514h1.031v2.729h3.416v1.386h-3.416v6.929c0,0.709,0.168,1.253,0.505,1.633
			C561.598,335.921,562.06,336.11,562.647,336.11z"/>
	</g>
</g>
<g>
	<rect x="584.868" y="376.936" fill="none" width="191.994" height="54.999"/>
	<path d="M662.872,393.655h-3.792l-2.127-8.25c-0.079-0.294-0.213-0.9-0.403-1.82c-0.19-0.921-0.299-1.538-0.328-1.854
		c-0.043,0.387-0.15,1.008-0.322,1.863c-0.172,0.856-0.305,1.467-0.397,1.832l-2.116,8.229h-3.781l-4.007-15.705h3.276l2.009,8.572
		c0.351,1.583,0.605,2.954,0.763,4.114c0.043-0.408,0.141-1.04,0.295-1.896c0.154-0.856,0.299-1.521,0.435-1.993l2.288-8.798h3.147
		l2.288,8.798c0.1,0.394,0.226,0.995,0.376,1.805s0.265,1.504,0.344,2.084c0.071-0.559,0.186-1.255,0.344-2.089
		c0.157-0.835,0.301-1.51,0.43-2.025l1.998-8.572h3.276L662.872,393.655z"/>
	<path d="M676.214,393.655l-0.634-1.633h-0.086c-0.552,0.694-1.119,1.176-1.703,1.445c-0.584,0.268-1.345,0.402-2.283,0.402
		c-1.153,0-2.061-0.329-2.723-0.988c-0.663-0.659-0.994-1.597-0.994-2.814c0-1.274,0.446-2.215,1.337-2.82
		c0.892-0.604,2.236-0.939,4.034-1.004l2.084-0.064v-0.526c0-1.218-0.623-1.826-1.869-1.826c-0.96,0-2.088,0.29-3.384,0.87
		l-1.085-2.213c1.382-0.724,2.915-1.085,4.598-1.085c1.611,0,2.847,0.351,3.706,1.053s1.289,1.769,1.289,3.201v8.003H676.214z
		 M675.247,388.091l-1.268,0.043c-0.953,0.028-1.662,0.2-2.127,0.516c-0.466,0.315-0.698,0.795-0.698,1.439
		c0,0.924,0.53,1.386,1.59,1.386c0.759,0,1.366-0.219,1.821-0.655c0.455-0.437,0.682-1.017,0.682-1.74V388.091z"/>
	<path d="M685.151,393.655h-3.276V376.94h3.276V393.655z"/>
	<path d="M691.865,393.655h-3.276V376.94h3.276V393.655z"/>
	<path d="M700.738,393.87c-1.934,0-3.444-0.533-4.533-1.601s-1.633-2.578-1.633-4.533c0-2.013,0.503-3.568,1.51-4.667
		c1.006-1.1,2.396-1.649,4.173-1.649c1.697,0,3.019,0.483,3.964,1.45s1.418,2.303,1.418,4.007v1.59h-7.745
		c0.036,0.931,0.312,1.658,0.827,2.181s1.239,0.784,2.17,0.784c0.724,0,1.407-0.075,2.052-0.226s1.317-0.391,2.02-0.72v2.535
		c-0.573,0.286-1.186,0.499-1.837,0.64C702.472,393.8,701.677,393.87,700.738,393.87z M700.276,383.751
		c-0.694,0-1.239,0.221-1.633,0.66c-0.394,0.441-0.619,1.065-0.677,1.875h4.598c-0.015-0.81-0.226-1.434-0.634-1.875
		C701.522,383.972,700.971,383.751,700.276,383.751z"/>
	<path d="M713.36,391.26c0.573,0,1.261-0.125,2.062-0.376v2.438c-0.816,0.365-1.819,0.548-3.008,0.548
		c-1.311,0-2.265-0.331-2.862-0.994c-0.599-0.662-0.897-1.655-0.897-2.98v-5.79h-1.568v-1.386l1.805-1.096l0.945-2.535h2.095v2.557
		h3.362v2.46h-3.362v5.79c0,0.466,0.131,0.81,0.393,1.031C712.585,391.148,712.931,391.26,713.36,391.26z"/>
	<path d="M660.203,412.182c0,2.6-0.645,4.598-1.934,5.994s-3.137,2.095-5.543,2.095s-4.254-0.698-5.543-2.095
		s-1.934-3.401-1.934-6.016s0.646-4.61,1.939-5.989c1.292-1.378,3.146-2.067,5.559-2.067c2.413,0,4.259,0.694,5.538,2.084
		S660.203,409.575,660.203,412.182z M648.741,412.182c0,1.755,0.333,3.076,0.999,3.964s1.661,1.332,2.986,1.332
		c2.657,0,3.985-1.766,3.985-5.296c0-3.538-1.321-5.307-3.964-5.307c-1.325,0-2.324,0.446-2.997,1.337
		C649.077,409.104,648.741,410.427,648.741,412.182z"/>
	<path d="M673.072,420.056l-0.924-4.2l-1.246-5.307h-0.075l-2.191,9.507h-3.523l-3.416-12.01h3.266l1.386,5.317
		c0.222,0.952,0.447,2.267,0.677,3.942h0.064c0.028-0.544,0.154-1.407,0.376-2.589l0.172-0.913l1.482-5.758h3.609l1.407,5.758
		c0.028,0.157,0.073,0.391,0.134,0.698c0.061,0.308,0.12,0.636,0.177,0.983c0.057,0.347,0.109,0.688,0.156,1.02
		c0.046,0.334,0.073,0.601,0.081,0.801h0.064c0.064-0.516,0.179-1.223,0.344-2.121c0.165-0.899,0.283-1.506,0.354-1.821l1.439-5.317
		h3.212l-3.459,12.01H673.072z"/>
	<path d="M693.116,420.056h-3.275v-7.015c0-0.866-0.154-1.517-0.463-1.95c-0.307-0.433-0.799-0.649-1.471-0.649
		c-0.918,0-1.58,0.306-1.988,0.919c-0.408,0.611-0.611,1.627-0.611,3.045v5.65h-3.277v-12.01h2.502l0.44,1.536h0.184
		c0.365-0.58,0.867-1.019,1.508-1.315c0.643-0.298,1.371-0.446,2.188-0.446c1.396,0,2.455,0.378,3.18,1.134
		c0.723,0.755,1.084,1.846,1.084,3.271V420.056z"/>
	<path d="M701.925,420.271c-1.934,0-3.444-0.533-4.533-1.601s-1.633-2.578-1.633-4.533c0-2.013,0.503-3.568,1.51-4.667
		c1.006-1.1,2.396-1.649,4.173-1.649c1.697,0,3.019,0.483,3.964,1.45s1.418,2.303,1.418,4.007v1.59h-7.745
		c0.036,0.931,0.312,1.658,0.827,2.181s1.239,0.784,2.17,0.784c0.724,0,1.407-0.075,2.052-0.226s1.317-0.391,2.02-0.72v2.535
		c-0.573,0.286-1.186,0.499-1.837,0.64C703.658,420.2,702.863,420.271,701.925,420.271z M701.463,410.151
		c-0.694,0-1.239,0.221-1.633,0.66c-0.394,0.441-0.619,1.065-0.677,1.875h4.598c-0.015-0.81-0.226-1.434-0.634-1.875
		C702.709,410.372,702.157,410.151,701.463,410.151z"/>
	<path d="M716.19,407.82c0.444,0,0.812,0.032,1.106,0.097l-0.247,3.072c-0.265-0.071-0.587-0.107-0.967-0.107
		c-1.046,0-1.86,0.269-2.443,0.806c-0.584,0.537-0.876,1.289-0.876,2.256v6.112h-3.276v-12.01h2.481l0.483,2.02h0.161
		c0.372-0.673,0.876-1.216,1.509-1.627C714.757,408.026,715.445,407.82,716.19,407.82z"/>
</g>
<g>
	<rect x="184.422" y="376.936" fill="none" width="208.698" height="34.57"/>
	<path d="M201.158,389.294c0,1.418-0.51,2.535-1.531,3.352s-2.44,1.225-4.259,1.225c-1.676,0-3.158-0.315-4.447-0.945v-3.094
		c1.06,0.473,1.957,0.806,2.691,0.999c0.734,0.193,1.405,0.29,2.014,0.29c0.73,0,1.291-0.14,1.681-0.419
		c0.39-0.279,0.585-0.694,0.585-1.246c0-0.308-0.086-0.582-0.258-0.821c-0.172-0.24-0.424-0.472-0.757-0.693
		s-1.012-0.576-2.036-1.063c-0.96-0.451-1.68-0.885-2.159-1.3c-0.48-0.415-0.863-0.898-1.149-1.45
		c-0.287-0.552-0.43-1.196-0.43-1.934c0-1.39,0.471-2.481,1.413-3.276c0.941-0.795,2.243-1.192,3.905-1.192
		c0.816,0,1.595,0.097,2.336,0.29s1.516,0.466,2.326,0.816l-1.074,2.589c-0.838-0.344-1.531-0.584-2.079-0.72
		s-1.087-0.204-1.617-0.204c-0.63,0-1.114,0.146-1.45,0.44c-0.337,0.294-0.505,0.677-0.505,1.149c0,0.294,0.068,0.55,0.204,0.769
		c0.136,0.218,0.353,0.43,0.65,0.633c0.297,0.205,1,0.571,2.111,1.102c1.468,0.702,2.474,1.405,3.019,2.111
		C200.886,387.405,201.158,388.27,201.158,389.294z"/>
	<path d="M209.183,393.87c-1.934,0-3.445-0.533-4.533-1.601c-1.089-1.067-1.633-2.578-1.633-4.533c0-2.013,0.503-3.568,1.509-4.667
		c1.006-1.1,2.397-1.649,4.173-1.649c1.697,0,3.019,0.483,3.964,1.45s1.418,2.303,1.418,4.007v1.59h-7.745
		c0.036,0.931,0.312,1.658,0.827,2.181s1.239,0.784,2.17,0.784c0.723,0,1.407-0.075,2.052-0.226s1.317-0.391,2.02-0.72v2.535
		c-0.573,0.286-1.186,0.499-1.837,0.64C210.916,393.8,210.121,393.87,209.183,393.87z M208.721,383.751
		c-0.695,0-1.239,0.221-1.633,0.66c-0.394,0.441-0.62,1.065-0.677,1.875h4.598c-0.015-0.81-0.226-1.434-0.634-1.875
		C209.967,383.972,209.415,383.751,208.721,383.751z"/>
	<path d="M223.448,381.42c0.444,0,0.812,0.032,1.106,0.097l-0.247,3.072c-0.265-0.071-0.587-0.107-0.967-0.107
		c-1.046,0-1.86,0.269-2.444,0.806c-0.584,0.537-0.875,1.289-0.875,2.256v6.112h-3.276v-12.01h2.481l0.483,2.02h0.161
		c0.372-0.673,0.875-1.216,1.509-1.627C222.014,381.626,222.703,381.42,223.448,381.42z"/>
	<path d="M229.593,393.655l-4.576-12.01h3.427l2.32,6.843c0.258,0.866,0.419,1.687,0.483,2.46h0.064
		c0.036-0.688,0.197-1.508,0.483-2.46l2.31-6.843h3.427l-4.576,12.01H229.593z"/>
	<path d="M239.11,378.541c0-1.067,0.594-1.601,1.783-1.601c1.188,0,1.783,0.533,1.783,1.601c0,0.509-0.149,0.904-0.446,1.187
		c-0.297,0.283-0.743,0.425-1.337,0.425C239.705,380.152,239.11,379.615,239.11,378.541z M242.526,393.655h-3.276v-12.01h3.276
		V393.655z"/>
	<path d="M250.841,393.87c-3.738,0-5.607-2.052-5.607-6.155c0-2.041,0.508-3.601,1.525-4.679c1.017-1.077,2.474-1.616,4.372-1.616
		c1.389,0,2.635,0.272,3.738,0.816l-0.967,2.535c-0.516-0.208-0.996-0.378-1.439-0.511c-0.444-0.132-0.888-0.198-1.332-0.198
		c-1.705,0-2.557,1.21-2.557,3.631c0,2.349,0.852,3.523,2.557,3.523c0.63,0,1.214-0.084,1.751-0.253
		c0.537-0.168,1.074-0.431,1.611-0.789v2.804c-0.53,0.337-1.065,0.569-1.606,0.698C252.346,393.806,251.664,393.87,250.841,393.87z"
		/>
	<path d="M262.711,393.87c-1.934,0-3.445-0.533-4.533-1.601c-1.089-1.067-1.633-2.578-1.633-4.533c0-2.013,0.503-3.568,1.509-4.667
		c1.006-1.1,2.397-1.649,4.173-1.649c1.697,0,3.019,0.483,3.964,1.45s1.418,2.303,1.418,4.007v1.59h-7.745
		c0.036,0.931,0.312,1.658,0.827,2.181s1.239,0.784,2.17,0.784c0.723,0,1.407-0.075,2.052-0.226s1.317-0.391,2.02-0.72v2.535
		c-0.573,0.286-1.186,0.499-1.837,0.64C264.444,393.8,263.649,393.87,262.711,393.87z M262.249,383.751
		c-0.695,0-1.239,0.221-1.633,0.66c-0.394,0.441-0.62,1.065-0.677,1.875h4.598c-0.015-0.81-0.226-1.434-0.634-1.875
		C263.495,383.972,262.943,383.751,262.249,383.751z"/>
	<path d="M277.535,377.95l-5.854,15.705h-2.976l5.854-15.705H277.535z"/>
	<path d="M279.619,393.655V377.95h3.33v15.705H279.619z"/>
	<path d="M297.731,393.655h-3.276v-7.015c0-0.866-0.154-1.517-0.462-1.95c-0.308-0.433-0.799-0.649-1.472-0.649
		c-0.917,0-1.579,0.306-1.987,0.919c-0.408,0.611-0.612,1.627-0.612,3.045v5.65h-3.276v-12.01h2.503l0.44,1.536h0.183
		c0.365-0.58,0.868-1.019,1.509-1.315c0.642-0.298,1.37-0.446,2.187-0.446c1.396,0,2.456,0.378,3.18,1.134
		c0.724,0.755,1.085,1.846,1.085,3.271V393.655z"/>
	<path d="M304.907,393.87c-1.411,0-2.52-0.548-3.324-1.644c-0.807-1.096-1.209-2.614-1.209-4.555c0-1.97,0.41-3.504,1.23-4.603
		c0.819-1.1,1.949-1.649,3.389-1.649c1.511,0,2.664,0.587,3.459,1.762h0.107c-0.165-0.896-0.247-1.693-0.247-2.396v-3.846h3.287
		v16.715h-2.514l-0.634-1.558h-0.14C307.567,393.279,306.432,393.87,304.907,393.87z M306.056,391.26
		c0.838,0,1.452-0.243,1.843-0.73c0.39-0.487,0.603-1.314,0.639-2.481v-0.354c0-1.289-0.199-2.213-0.596-2.771
		c-0.398-0.559-1.044-0.838-1.939-0.838c-0.73,0-1.298,0.31-1.703,0.929c-0.404,0.62-0.606,1.521-0.606,2.702
		s0.204,2.067,0.612,2.659C304.713,390.964,305.297,391.26,306.056,391.26z"/>
	<path d="M314.886,378.541c0-1.067,0.595-1.601,1.783-1.601s1.783,0.533,1.783,1.601c0,0.509-0.148,0.904-0.446,1.187
		c-0.297,0.283-0.742,0.425-1.337,0.425C315.481,380.152,314.886,379.615,314.886,378.541z M318.302,393.655h-3.276v-12.01h3.276
		V393.655z"/>
	<path d="M324.597,393.655l-4.576-12.01h3.427l2.32,6.843c0.258,0.866,0.419,1.687,0.483,2.46h0.064
		c0.036-0.688,0.197-1.508,0.483-2.46l2.31-6.843h3.427l-4.576,12.01H324.597z"/>
	<path d="M334.115,378.541c0-1.067,0.595-1.601,1.783-1.601s1.783,0.533,1.783,1.601c0,0.509-0.148,0.904-0.446,1.187
		c-0.297,0.283-0.742,0.425-1.337,0.425C334.709,380.152,334.115,379.615,334.115,378.541z M337.531,393.655h-3.276v-12.01h3.276
		V393.655z"/>
	<path d="M344.771,393.87c-1.411,0-2.52-0.548-3.324-1.644c-0.807-1.096-1.209-2.614-1.209-4.555c0-1.97,0.41-3.504,1.23-4.603
		c0.819-1.1,1.949-1.649,3.389-1.649c1.511,0,2.664,0.587,3.459,1.762h0.107c-0.165-0.896-0.247-1.693-0.247-2.396v-3.846h3.287
		v16.715h-2.514l-0.634-1.558h-0.14C347.431,393.279,346.296,393.87,344.771,393.87z M345.92,391.26c0.838,0,1.452-0.243,1.843-0.73
		c0.39-0.487,0.603-1.314,0.639-2.481v-0.354c0-1.289-0.199-2.213-0.596-2.771c-0.398-0.559-1.044-0.838-1.939-0.838
		c-0.73,0-1.298,0.31-1.703,0.929c-0.404,0.62-0.606,1.521-0.606,2.702s0.204,2.067,0.612,2.659
		C344.578,390.964,345.162,391.26,345.92,391.26z"/>
	<path d="M363.398,393.655l-0.44-1.536h-0.172c-0.351,0.559-0.849,0.99-1.493,1.294c-0.645,0.305-1.379,0.457-2.202,0.457
		c-1.411,0-2.475-0.378-3.19-1.133c-0.716-0.756-1.074-1.843-1.074-3.261v-7.831h3.276v7.015c0,0.866,0.154,1.517,0.462,1.95
		c0.308,0.433,0.799,0.649,1.472,0.649c0.917,0,1.579-0.306,1.987-0.919c0.408-0.611,0.612-1.627,0.612-3.045v-5.65h3.276v12.01
		H363.398z"/>
	<path d="M376.976,393.655l-0.634-1.633h-0.086c-0.552,0.694-1.119,1.176-1.702,1.445c-0.584,0.268-1.345,0.402-2.283,0.402
		c-1.153,0-2.061-0.329-2.723-0.988c-0.663-0.659-0.994-1.597-0.994-2.814c0-1.274,0.445-2.215,1.338-2.82
		c0.891-0.604,2.235-0.939,4.033-1.004l2.084-0.064v-0.526c0-1.218-0.623-1.826-1.869-1.826c-0.96,0-2.088,0.29-3.384,0.87
		l-1.085-2.213c1.382-0.724,2.915-1.085,4.598-1.085c1.611,0,2.847,0.351,3.706,1.053s1.289,1.769,1.289,3.201v8.003H376.976z
		 M376.009,388.091l-1.268,0.043c-0.952,0.028-1.661,0.2-2.127,0.516s-0.698,0.795-0.698,1.439c0,0.924,0.53,1.386,1.59,1.386
		c0.759,0,1.366-0.219,1.821-0.655c0.454-0.437,0.682-1.017,0.682-1.74V388.091z"/>
	<path d="M385.914,393.655h-3.276V376.94h3.276V393.655z"/>
</g>
<g>
	<rect x="968.61" y="376.936" fill="none" width="208.698" height="34.57"/>
	<path d="M985.346,389.294c0,1.418-0.51,2.535-1.53,3.352s-2.44,1.225-4.259,1.225c-1.676,0-3.158-0.315-4.447-0.945v-3.094
		c1.059,0.473,1.956,0.806,2.69,0.999c0.733,0.193,1.405,0.29,2.015,0.29c0.73,0,1.29-0.14,1.681-0.419
		c0.39-0.279,0.585-0.694,0.585-1.246c0-0.308-0.086-0.582-0.258-0.821c-0.172-0.24-0.424-0.472-0.757-0.693
		s-1.012-0.576-2.036-1.063c-0.959-0.451-1.68-0.885-2.158-1.3c-0.48-0.415-0.863-0.898-1.15-1.45
		c-0.286-0.552-0.43-1.196-0.43-1.934c0-1.39,0.471-2.481,1.413-3.276c0.941-0.795,2.243-1.192,3.905-1.192
		c0.816,0,1.595,0.097,2.336,0.29s1.516,0.466,2.326,0.816l-1.074,2.589c-0.838-0.344-1.531-0.584-2.079-0.72
		s-1.087-0.204-1.616-0.204c-0.631,0-1.114,0.146-1.451,0.44c-0.336,0.294-0.504,0.677-0.504,1.149c0,0.294,0.067,0.55,0.203,0.769
		c0.137,0.218,0.354,0.43,0.65,0.633c0.297,0.205,1,0.571,2.111,1.102c1.467,0.702,2.474,1.405,3.018,2.111
		C985.074,387.405,985.346,388.27,985.346,389.294z"/>
	<path d="M993.371,393.87c-1.934,0-3.445-0.533-4.533-1.601c-1.09-1.067-1.633-2.578-1.633-4.533c0-2.013,0.502-3.568,1.509-4.667
		c1.006-1.1,2.397-1.649,4.173-1.649c1.697,0,3.02,0.483,3.965,1.45s1.418,2.303,1.418,4.007v1.59h-7.746
		c0.036,0.931,0.312,1.658,0.828,2.181s1.238,0.784,2.17,0.784c0.723,0,1.406-0.075,2.051-0.226s1.318-0.391,2.02-0.72v2.535
		c-0.572,0.286-1.186,0.499-1.836,0.64C995.104,393.8,994.309,393.87,993.371,393.87z M992.908,383.751
		c-0.694,0-1.238,0.221-1.633,0.66c-0.394,0.441-0.619,1.065-0.676,1.875h4.598c-0.016-0.81-0.227-1.434-0.635-1.875
		C994.154,383.972,993.604,383.751,992.908,383.751z"/>
	<path d="M1007.637,381.42c0.443,0,0.812,0.032,1.105,0.097l-0.246,3.072c-0.266-0.071-0.588-0.107-0.967-0.107
		c-1.047,0-1.861,0.269-2.444,0.806c-0.584,0.537-0.876,1.289-0.876,2.256v6.112h-3.275v-12.01h2.48l0.484,2.02h0.16
		c0.373-0.673,0.876-1.216,1.51-1.627C1006.202,381.626,1006.891,381.42,1007.637,381.42z"/>
	<path d="M1013.781,393.655l-4.576-12.01h3.426l2.32,6.843c0.258,0.866,0.42,1.687,0.484,2.46h0.064
		c0.035-0.688,0.196-1.508,0.482-2.46l2.311-6.843h3.426l-4.576,12.01H1013.781z"/>
	<path d="M1023.299,378.541c0-1.067,0.594-1.601,1.783-1.601c1.188,0,1.783,0.533,1.783,1.601c0,0.509-0.149,0.904-0.446,1.187
		c-0.298,0.283-0.743,0.425-1.337,0.425C1023.893,380.152,1023.299,379.615,1023.299,378.541z M1026.715,393.655h-3.277v-12.01
		h3.277V393.655z"/>
	<path d="M1035.029,393.87c-3.738,0-5.607-2.052-5.607-6.155c0-2.041,0.508-3.601,1.525-4.679c1.016-1.077,2.474-1.616,4.371-1.616
		c1.39,0,2.636,0.272,3.738,0.816l-0.967,2.535c-0.516-0.208-0.995-0.378-1.439-0.511c-0.443-0.132-0.888-0.198-1.332-0.198
		c-1.704,0-2.557,1.21-2.557,3.631c0,2.349,0.853,3.523,2.557,3.523c0.631,0,1.215-0.084,1.752-0.253
		c0.537-0.168,1.074-0.431,1.611-0.789v2.804c-0.531,0.337-1.066,0.569-1.606,0.698
		C1036.534,393.806,1035.852,393.87,1035.029,393.87z"/>
	<path d="M1046.898,393.87c-1.934,0-3.444-0.533-4.533-1.601c-1.088-1.067-1.633-2.578-1.633-4.533c0-2.013,0.504-3.568,1.51-4.667
		c1.006-1.1,2.396-1.649,4.174-1.649c1.697,0,3.018,0.483,3.963,1.45s1.418,2.303,1.418,4.007v1.59h-7.744
		c0.035,0.931,0.311,1.658,0.826,2.181s1.239,0.784,2.17,0.784c0.724,0,1.408-0.075,2.053-0.226s1.316-0.391,2.02-0.72v2.535
		c-0.574,0.286-1.186,0.499-1.838,0.64C1048.632,393.8,1047.837,393.87,1046.898,393.87z M1046.438,383.751
		c-0.695,0-1.24,0.221-1.633,0.66c-0.395,0.441-0.62,1.065-0.678,1.875h4.598c-0.014-0.81-0.225-1.434-0.633-1.875
		C1047.684,383.972,1047.131,383.751,1046.438,383.751z"/>
	<path d="M1061.723,377.95l-5.854,15.705h-2.977l5.855-15.705H1061.723z"/>
	<path d="M1063.807,393.655V377.95h3.33v15.705H1063.807z"/>
	<path d="M1081.919,393.655h-3.276v-7.015c0-0.866-0.154-1.517-0.462-1.95c-0.308-0.433-0.799-0.649-1.472-0.649
		c-0.917,0-1.579,0.306-1.987,0.919c-0.408,0.611-0.612,1.627-0.612,3.045v5.65h-3.276v-12.01h2.503l0.44,1.536h0.183
		c0.365-0.58,0.868-1.019,1.509-1.315c0.642-0.298,1.37-0.446,2.187-0.446c1.396,0,2.456,0.378,3.18,1.134
		c0.724,0.755,1.085,1.846,1.085,3.271V393.655z"/>
	<path d="M1089.095,393.87c-1.411,0-2.52-0.548-3.324-1.644c-0.807-1.096-1.209-2.614-1.209-4.555c0-1.97,0.41-3.504,1.23-4.603
		c0.819-1.1,1.949-1.649,3.389-1.649c1.511,0,2.664,0.587,3.459,1.762h0.107c-0.165-0.896-0.247-1.693-0.247-2.396v-3.846h3.287
		v16.715h-2.514l-0.634-1.558h-0.14C1091.755,393.279,1090.62,393.87,1089.095,393.87z M1090.244,391.26
		c0.838,0,1.452-0.243,1.843-0.73c0.39-0.487,0.603-1.314,0.639-2.481v-0.354c0-1.289-0.199-2.213-0.596-2.771
		c-0.398-0.559-1.044-0.838-1.939-0.838c-0.73,0-1.298,0.31-1.703,0.929c-0.404,0.62-0.606,1.521-0.606,2.702
		s0.204,2.067,0.612,2.659C1088.901,390.964,1089.485,391.26,1090.244,391.26z"/>
	<path d="M1099.074,378.541c0-1.067,0.595-1.601,1.783-1.601s1.783,0.533,1.783,1.601c0,0.509-0.148,0.904-0.446,1.187
		c-0.297,0.283-0.742,0.425-1.337,0.425C1099.669,380.152,1099.074,379.615,1099.074,378.541z M1102.49,393.655h-3.276v-12.01h3.276
		V393.655z"/>
	<path d="M1108.785,393.655l-4.576-12.01h3.427l2.32,6.843c0.258,0.866,0.419,1.687,0.483,2.46h0.064
		c0.036-0.688,0.197-1.508,0.483-2.46l2.31-6.843h3.427l-4.576,12.01H1108.785z"/>
	<path d="M1118.303,378.541c0-1.067,0.595-1.601,1.783-1.601s1.783,0.533,1.783,1.601c0,0.509-0.148,0.904-0.446,1.187
		c-0.297,0.283-0.742,0.425-1.337,0.425C1118.897,380.152,1118.303,379.615,1118.303,378.541z M1121.719,393.655h-3.276v-12.01
		h3.276V393.655z"/>
	<path d="M1128.959,393.87c-1.411,0-2.52-0.548-3.324-1.644c-0.807-1.096-1.209-2.614-1.209-4.555c0-1.97,0.41-3.504,1.23-4.603
		c0.819-1.1,1.949-1.649,3.389-1.649c1.511,0,2.664,0.587,3.459,1.762h0.107c-0.165-0.896-0.247-1.693-0.247-2.396v-3.846h3.287
		v16.715h-2.514l-0.634-1.558h-0.14C1131.619,393.279,1130.484,393.87,1128.959,393.87z M1130.108,391.26
		c0.838,0,1.452-0.243,1.843-0.73c0.39-0.487,0.603-1.314,0.639-2.481v-0.354c0-1.289-0.199-2.213-0.596-2.771
		c-0.398-0.559-1.044-0.838-1.939-0.838c-0.73,0-1.298,0.31-1.703,0.929c-0.404,0.62-0.606,1.521-0.606,2.702
		s0.204,2.067,0.612,2.659C1128.766,390.964,1129.35,391.26,1130.108,391.26z"/>
	<path d="M1147.586,393.655l-0.44-1.536h-0.172c-0.351,0.559-0.849,0.99-1.493,1.294c-0.645,0.305-1.379,0.457-2.202,0.457
		c-1.411,0-2.475-0.378-3.19-1.133c-0.716-0.756-1.074-1.843-1.074-3.261v-7.831h3.276v7.015c0,0.866,0.154,1.517,0.462,1.95
		c0.308,0.433,0.799,0.649,1.472,0.649c0.917,0,1.579-0.306,1.987-0.919c0.408-0.611,0.612-1.627,0.612-3.045v-5.65h3.276v12.01
		H1147.586z"/>
	<path d="M1161.164,393.655l-0.634-1.633h-0.086c-0.552,0.694-1.119,1.176-1.702,1.445c-0.584,0.268-1.345,0.402-2.283,0.402
		c-1.153,0-2.061-0.329-2.723-0.988c-0.663-0.659-0.994-1.597-0.994-2.814c0-1.274,0.445-2.215,1.338-2.82
		c0.891-0.604,2.235-0.939,4.033-1.004l2.084-0.064v-0.526c0-1.218-0.623-1.826-1.869-1.826c-0.96,0-2.088,0.29-3.384,0.87
		l-1.085-2.213c1.382-0.724,2.915-1.085,4.598-1.085c1.611,0,2.847,0.351,3.706,1.053s1.289,1.769,1.289,3.201v8.003H1161.164z
		 M1160.197,388.091l-1.268,0.043c-0.952,0.028-1.661,0.2-2.127,0.516s-0.698,0.795-0.698,1.439c0,0.924,0.53,1.386,1.59,1.386
		c0.759,0,1.366-0.219,1.821-0.655c0.454-0.437,0.682-1.017,0.682-1.74V388.091z"/>
	<path d="M1170.102,393.655h-3.276V376.94h3.276V393.655z"/>
</g>
<g>
	<g>
		<path d="M808.754,321.662h4.436c2.084,0,3.592,0.312,4.523,0.935c0.93,0.623,1.396,1.607,1.396,2.954
			c0,0.931-0.26,1.699-0.779,2.305c-0.52,0.604-1.277,0.997-2.271,1.176v0.107c2.385,0.408,3.576,1.661,3.576,3.76
			c0,1.403-0.475,2.499-1.423,3.287c-0.949,0.788-2.276,1.182-3.979,1.182h-5.479V321.662z M810.58,328.387h3.008
			c1.289,0,2.216-0.202,2.781-0.607c0.566-0.404,0.85-1.086,0.85-2.046c0-0.881-0.316-1.517-0.945-1.907
			c-0.631-0.39-1.633-0.585-3.008-0.585h-2.686V328.387z M810.58,329.934v5.876h3.275c1.268,0,2.223-0.245,2.863-0.735
			c0.641-0.491,0.961-1.259,0.961-2.305c0-0.974-0.327-1.69-0.982-2.148s-1.652-0.688-2.992-0.688H810.58z"/>
		<path d="M822.59,322.403c0-0.408,0.1-0.707,0.301-0.897c0.199-0.189,0.451-0.284,0.752-0.284c0.285,0,0.533,0.097,0.74,0.29
			c0.208,0.193,0.312,0.49,0.312,0.892s-0.104,0.7-0.312,0.897c-0.207,0.196-0.455,0.295-0.74,0.295
			c-0.301,0-0.553-0.099-0.752-0.295C822.689,323.104,822.59,322.805,822.59,322.403z M824.523,337.367h-1.783v-11.773h1.783
			V337.367z"/>
		<path d="M832.107,336.11c0.314,0,0.619-0.023,0.912-0.069c0.294-0.047,0.527-0.096,0.699-0.146v1.364
			c-0.193,0.093-0.479,0.17-0.854,0.23c-0.376,0.062-0.714,0.092-1.015,0.092c-2.277,0-3.416-1.199-3.416-3.599v-7.004h-1.688
			v-0.859l1.688-0.741l0.752-2.514h1.031v2.729h3.416v1.386h-3.416v6.929c0,0.709,0.168,1.253,0.504,1.633
			C831.058,335.921,831.52,336.11,832.107,336.11z"/>
		<path d="M840.775,337.582c-1.704,0-3.023-0.524-3.958-1.574c-0.935-1.049-1.401-2.533-1.401-4.452c0-1.97,0.474-3.491,1.423-4.565
			c0.948-1.074,2.3-1.611,4.056-1.611c0.564,0,1.131,0.061,1.697,0.183c0.564,0.122,1.01,0.265,1.332,0.43l-0.549,1.515
			c-0.394-0.157-0.823-0.288-1.289-0.393c-0.465-0.104-0.877-0.155-1.234-0.155c-2.393,0-3.588,1.525-3.588,4.576
			c0,1.446,0.291,2.557,0.875,3.33s1.448,1.16,2.594,1.16c0.981,0,1.988-0.211,3.02-0.634v1.579
			C842.963,337.378,841.972,337.582,840.775,337.582z"/>
		<path d="M856.707,331.47c0,1.919-0.484,3.418-1.451,4.495c-0.967,1.078-2.303,1.617-4.006,1.617c-1.053,0-1.988-0.247-2.805-0.741
			s-1.446-1.203-1.891-2.127c-0.443-0.924-0.666-2.005-0.666-3.244c0-1.919,0.48-3.414,1.439-4.485
			c0.96-1.07,2.292-1.605,3.996-1.605c1.647,0,2.956,0.548,3.927,1.644C856.221,328.118,856.707,329.601,856.707,331.47z
			 M847.736,331.47c0,1.504,0.301,2.649,0.902,3.438s1.486,1.182,2.654,1.182c1.166,0,2.053-0.392,2.658-1.177
			c0.605-0.783,0.908-1.932,0.908-3.442c0-1.497-0.303-2.634-0.908-3.411c-0.605-0.776-1.498-1.165-2.68-1.165
			c-1.168,0-2.049,0.383-2.643,1.149C848.033,328.81,847.736,329.951,847.736,331.47z"/>
		<path d="M859.682,322.403c0-0.408,0.101-0.707,0.301-0.897c0.201-0.189,0.451-0.284,0.752-0.284c0.287,0,0.533,0.097,0.742,0.29
			c0.207,0.193,0.311,0.49,0.311,0.892s-0.104,0.7-0.311,0.897c-0.209,0.196-0.455,0.295-0.742,0.295
			c-0.301,0-0.551-0.099-0.752-0.295C859.782,323.104,859.682,322.805,859.682,322.403z M861.615,337.367h-1.783v-11.773h1.783
			V337.367z"/>
		<path d="M873.453,337.367v-7.616c0-0.96-0.219-1.676-0.654-2.148c-0.438-0.473-1.121-0.709-2.053-0.709
			c-1.231,0-2.134,0.333-2.707,0.999c-0.572,0.666-0.859,1.766-0.859,3.298v6.177h-1.783v-11.773h1.451l0.289,1.611h0.086
			c0.365-0.58,0.877-1.029,1.537-1.348c0.658-0.319,1.393-0.479,2.201-0.479c1.418,0,2.485,0.342,3.201,1.025
			c0.717,0.685,1.074,1.778,1.074,3.282v7.681H873.453z"/>
		<path d="M893.746,333.188c0,1.382-0.502,2.46-1.504,3.233c-1.004,0.773-2.363,1.16-4.082,1.16c-1.863,0-3.295-0.24-4.297-0.72
			v-1.762c0.645,0.272,1.346,0.487,2.105,0.645c0.758,0.157,1.51,0.236,2.256,0.236c1.217,0,2.133-0.231,2.75-0.692
			c0.615-0.463,0.924-1.105,0.924-1.929c0-0.544-0.109-0.99-0.328-1.337c-0.219-0.348-0.584-0.668-1.096-0.962
			s-1.291-0.627-2.336-0.999c-1.461-0.522-2.506-1.143-3.132-1.858c-0.627-0.716-0.94-1.65-0.94-2.804
			c0-1.21,0.455-2.174,1.365-2.89c0.908-0.716,2.111-1.074,3.609-1.074c1.561,0,2.996,0.286,4.307,0.859l-0.568,1.59
			c-1.297-0.544-2.557-0.816-3.781-0.816c-0.967,0-1.723,0.208-2.268,0.623c-0.544,0.415-0.816,0.992-0.816,1.729
			c0,0.544,0.101,0.99,0.301,1.338c0.201,0.347,0.539,0.666,1.016,0.955c0.477,0.291,1.205,0.611,2.186,0.962
			c1.647,0.587,2.781,1.218,3.4,1.891S893.746,332.114,893.746,333.188z"/>
		<path d="M902.168,337.582c-0.768,0-1.467-0.142-2.101-0.424c-0.634-0.283-1.165-0.719-1.595-1.306h-0.129
			c0.086,0.688,0.129,1.339,0.129,1.955v4.845h-1.783v-17.059h1.449l0.248,1.611h0.086c0.457-0.645,0.991-1.11,1.6-1.396
			c0.609-0.286,1.307-0.43,2.096-0.43c1.561,0,2.766,0.533,3.614,1.601s1.272,2.563,1.272,4.49c0,1.934-0.432,3.436-1.294,4.507
			C904.897,337.047,903.699,337.582,902.168,337.582z M901.91,326.894c-1.203,0-2.074,0.333-2.611,0.999s-0.812,1.726-0.826,3.18
			v0.397c0,1.654,0.275,2.838,0.826,3.55c0.552,0.713,1.436,1.069,2.654,1.069c1.016,0,1.812-0.412,2.39-1.235
			c0.576-0.823,0.864-1.959,0.864-3.405c0-1.468-0.288-2.595-0.864-3.378C903.766,327.285,902.955,326.894,901.91,326.894z"/>
		<path d="M915.145,337.582c-1.74,0-3.114-0.53-4.12-1.59c-1.007-1.06-1.509-2.531-1.509-4.415c0-1.897,0.467-3.405,1.401-4.522
			s2.189-1.676,3.765-1.676c1.476,0,2.643,0.485,3.502,1.455c0.859,0.971,1.289,2.251,1.289,3.841v1.128h-8.109
			c0.035,1.382,0.385,2.432,1.047,3.147s1.596,1.074,2.799,1.074c1.268,0,2.52-0.265,3.76-0.795v1.59
			c-0.631,0.272-1.227,0.468-1.789,0.585C916.617,337.523,915.939,337.582,915.145,337.582z M914.66,326.872
			c-0.945,0-1.699,0.308-2.261,0.924c-0.562,0.616-0.894,1.468-0.993,2.557h6.154c0-1.124-0.25-1.985-0.752-2.583
			C916.308,327.171,915.592,326.872,914.66,326.872z"/>
		<path d="M930.57,337.367v-7.616c0-0.96-0.219-1.676-0.656-2.148c-0.437-0.473-1.121-0.709-2.051-0.709
			c-1.232,0-2.135,0.333-2.707,0.999c-0.574,0.666-0.859,1.766-0.859,3.298v6.177h-1.783v-11.773h1.449l0.291,1.611h0.086
			c0.365-0.58,0.877-1.029,1.535-1.348c0.659-0.319,1.393-0.479,2.203-0.479c1.418,0,2.484,0.342,3.201,1.025
			c0.715,0.685,1.074,1.778,1.074,3.282v7.681H930.57z"/>
		<path d="M944.029,335.788h-0.096c-0.824,1.196-2.057,1.794-3.695,1.794c-1.541,0-2.738-0.526-3.594-1.579s-1.283-2.55-1.283-4.49
			s0.43-3.448,1.289-4.522s2.055-1.611,3.588-1.611c1.596,0,2.82,0.58,3.674,1.74h0.139l-0.074-0.849l-0.043-0.827v-4.791h1.783
			v16.715h-1.451L944.029,335.788z M940.463,336.089c1.218,0,2.101-0.331,2.648-0.993c0.548-0.663,0.822-1.731,0.822-3.207v-0.376
			c0-1.669-0.278-2.859-0.833-3.571c-0.556-0.713-1.441-1.069-2.659-1.069c-1.045,0-1.846,0.406-2.4,1.22
			c-0.555,0.812-0.832,1.96-0.832,3.442c0,1.504,0.275,2.639,0.826,3.405C938.587,335.706,939.396,336.089,940.463,336.089z"/>
	</g>
</g>
<g>
</g>
</svg>
