<?xml version="1.0" encoding="utf-8"?>
<!-- Generator: Adobe Illustrator 16.0.4, SVG Export Plug-In . SVG Version: 6.00 Build 0)  -->
<!DOCTYPE svg PUBLIC "-//W3C//DTD SVG 1.1//EN" "http://www.w3.org/Graphics/SVG/1.1/DTD/svg11.dtd">
<svg version="1.1" id="Layer_1" xmlns="http://www.w3.org/2000/svg" xmlns:xlink="http://www.w3.org/1999/xlink" x="0px" y="0px"
	 width="1366px" height="768px" viewBox="0 0 1366 768" enable-background="new 0 0 1366 768" xml:space="preserve">
<rect fill="#FFFFFF" width="1366" height="768"/>
<g enable-background="new    ">
	<path fill="#FFFFFF" d="M745.5,709.5c0,2.75-2.25,5-5,5H544.7c-2.75,0-5-2.25-5-5V198.066c0-2.75,2.25-5,5-5h195.8
		c2.75,0,5,2.25,5,5V709.5z"/>
	<path fill="none" stroke="#2D4F6F" stroke-width="3" stroke-miterlimit="10" d="M745.5,709.5c0,2.75-2.25,5-5,5H544.7
		c-2.75,0-5-2.25-5-5V198.066c0-2.75,2.25-5,5-5h195.8c2.75,0,5,2.25,5,5V709.5z"/>
</g>
<g enable-background="new    ">
	<path fill="#C9D8E3" d="M264.7,709.5c0,2.75-2.25,5-5,5H63.9c-2.75,0-5-2.25-5-5V198.066c0-2.75,2.25-5,5-5h195.8
		c2.75,0,5,2.25,5,5V709.5z"/>
</g>
<g>
	<rect x="690.703" y="286.218" fill="none" width="58.249" height="13.083"/>
	<path fill="#010101" d="M699.499,288.481h-3.288v8.987h-2.066v-8.987H690.9v-1.677h8.599V288.481z"/>
	<path fill="#010101" d="M704.274,290.627l1.897-3.823h2.416l-3.002,5.288l3.076,5.376h-2.402l-1.956-3.882l-1.948,3.882h-2.432
		l3.076-5.376l-2.996-5.288h2.402L704.274,290.627z"/>
	<path fill="#010101" d="M716.711,297.468h-7.273v-1.392l3.45-3.706c0.269-0.293,0.495-0.559,0.681-0.798s0.336-0.458,0.451-0.656
		c0.114-0.197,0.197-0.382,0.248-0.553c0.053-0.171,0.078-0.337,0.078-0.498c0-0.239-0.035-0.452-0.104-0.637
		s-0.164-0.343-0.289-0.472s-0.273-0.229-0.447-0.297c-0.173-0.068-0.364-0.103-0.574-0.103c-0.562,0-0.98,0.156-1.256,0.469
		c-0.276,0.312-0.414,0.75-0.414,1.311h-2.043c0-0.474,0.09-0.921,0.271-1.344c0.181-0.422,0.437-0.792,0.765-1.109
		c0.33-0.317,0.729-0.567,1.195-0.751c0.465-0.183,0.982-0.274,1.549-0.274c0.541,0,1.021,0.076,1.439,0.227
		c0.416,0.151,0.766,0.364,1.047,0.637c0.28,0.273,0.494,0.602,0.641,0.985s0.22,0.807,0.22,1.271c0,0.352-0.056,0.688-0.165,1.007
		c-0.109,0.32-0.266,0.636-0.469,0.949s-0.445,0.631-0.729,0.956c-0.283,0.325-0.598,0.666-0.945,1.022l-2.006,2.124h4.68V297.468z"
		/>
</g>
<g>
	<path fill="none" stroke="#010101" stroke-width="0.5574" stroke-miterlimit="10" d="M621.47,646.5c0,1.1-0.9,2-2,2h-39.498
		c-1.1,0-2-0.9-2-2v-9.515c0-1.1,0.9-2,2-2h39.498c1.1,0,2,0.9,2,2V646.5z"/>
</g>
<g>
	<path fill="none" stroke="#010101" stroke-width="0.5574" stroke-miterlimit="10" d="M621.47,583.578c0,1.1-0.9,2-2,2h-39.498
		c-1.1,0-2-0.9-2-2v-9.515c0-1.1,0.9-2,2-2h39.498c1.1,0,2,0.9,2,2V583.578z"/>
</g>
<g>
	<path fill="none" stroke="#010101" stroke-width="0.5574" stroke-miterlimit="10" d="M621.47,520.656c0,1.1-0.9,2-2,2h-39.498
		c-1.1,0-2-0.9-2-2v-9.515c0-1.1,0.9-2,2-2h39.498c1.1,0,2,0.9,2,2V520.656z"/>
</g>
<g>
	<path fill="none" stroke="#010101" stroke-width="0.5574" stroke-miterlimit="10" d="M621.47,457.734c0,1.1-0.9,2-2,2h-39.498
		c-1.1,0-2-0.9-2-2v-9.515c0-1.1,0.9-2,2-2h39.498c1.1,0,2,0.9,2,2V457.734z"/>
</g>
<g>
	<path fill="none" stroke="#010101" stroke-width="0.5574" stroke-miterlimit="10" d="M621.47,394.813c0,1.1-0.9,2-2,2h-39.498
		c-1.1,0-2-0.9-2-2v-9.515c0-1.1,0.9-2,2-2h39.498c1.1,0,2,0.9,2,2V394.813z"/>
</g>
<g>
	<path fill="none" stroke="#010101" stroke-width="0.5574" stroke-miterlimit="10" d="M621.47,331.893c0,1.1-0.9,2-2,2h-39.498
		c-1.1,0-2-0.9-2-2v-9.515c0-1.1,0.9-2,2-2h39.498c1.1,0,2,0.9,2,2V331.893z"/>
</g>
<g>
	<path fill="none" stroke="#010101" stroke-width="0.5574" stroke-miterlimit="10" d="M621.47,268.972c0,1.1-0.9,2-2,2h-39.498
		c-1.1,0-2-0.9-2-2v-9.515c0-1.1,0.9-2,2-2h39.498c1.1,0,2,0.9,2,2V268.972z"/>
</g>
<g opacity="0.55">
	<rect x="274.207" y="498.901" fill="none" width="257.986" height="50.979"/>
	<path fill="#010101" d="M309.587,512.402v-7.708h-2.496v-1.802h2.496v-0.519c0-0.627,0.1-1.181,0.299-1.661
		s0.483-0.885,0.853-1.213s0.817-0.576,1.345-0.742c0.527-0.168,1.116-0.251,1.767-0.251c0.205,0,0.403,0.007,0.593,0.022
		c0.19,0.014,0.376,0.033,0.558,0.057s0.365,0.05,0.549,0.079s0.376,0.062,0.576,0.097l-0.158,1.916
		c-0.223-0.047-0.475-0.088-0.756-0.123s-0.612-0.053-0.993-0.053c-0.762,0-1.315,0.161-1.661,0.483s-0.519,0.785-0.519,1.389v0.519
		h3.428v1.802h-3.428v7.708H309.587z"/>
	<path fill="#010101" d="M322.639,512.578c-0.732,0-1.397-0.12-1.995-0.36s-1.11-0.567-1.538-0.979
		c-0.428-0.414-0.757-0.9-0.989-1.459c-0.231-0.561-0.347-1.159-0.347-1.798v-0.352c0-0.727,0.114-1.39,0.343-1.991
		c0.229-0.6,0.548-1.117,0.958-1.551s0.896-0.771,1.459-1.011s1.175-0.36,1.837-0.36c0.686,0,1.296,0.113,1.833,0.338
		c0.536,0.227,0.99,0.544,1.362,0.954s0.655,0.903,0.848,1.481c0.193,0.576,0.29,1.214,0.29,1.911v1.037h-6.451
		c0.047,0.322,0.142,0.616,0.286,0.884c0.144,0.266,0.327,0.496,0.549,0.689s0.478,0.343,0.765,0.448s0.601,0.158,0.94,0.158
		c0.24,0,0.479-0.023,0.716-0.07s0.464-0.116,0.681-0.206c0.217-0.092,0.419-0.204,0.606-0.339s0.352-0.293,0.492-0.475l1.222,1.318
		c-0.152,0.217-0.35,0.429-0.593,0.638c-0.243,0.207-0.53,0.393-0.861,0.553c-0.331,0.162-0.699,0.292-1.103,0.392
		S323.107,512.578,322.639,512.578z M322.349,504.694c-0.275,0-0.527,0.048-0.756,0.146c-0.229,0.096-0.429,0.235-0.602,0.417
		s-0.318,0.398-0.435,0.65s-0.205,0.533-0.264,0.844h4.008v-0.193c-0.012-0.258-0.062-0.501-0.149-0.729s-0.214-0.426-0.378-0.594
		c-0.164-0.166-0.365-0.299-0.602-0.395C322.933,504.742,322.659,504.694,322.349,504.694z"/>
	<path fill="#010101" d="M333.309,500.563v2.329h3.551v1.802h-3.551v4.087c0,0.346,0.04,0.635,0.119,0.865
		c0.079,0.232,0.192,0.416,0.338,0.555c0.146,0.137,0.324,0.235,0.532,0.294s0.441,0.088,0.699,0.088
		c0.188,0,0.379-0.009,0.576-0.026s0.384-0.039,0.562-0.066c0.179-0.025,0.346-0.054,0.501-0.083s0.289-0.059,0.4-0.088l0.237,1.679
		c-0.17,0.1-0.369,0.186-0.598,0.26c-0.229,0.072-0.472,0.133-0.729,0.18s-0.526,0.084-0.804,0.109
		c-0.278,0.027-0.552,0.04-0.822,0.04c-0.521,0-0.995-0.069-1.419-0.206c-0.425-0.139-0.788-0.352-1.09-0.643
		c-0.302-0.289-0.535-0.658-0.699-1.107c-0.164-0.447-0.246-0.985-0.246-1.612v-4.324h-2.171v-1.802h2.171v-2.329H333.309z"/>
	<path fill="#010101" d="M343.838,510.627c0.24,0,0.469-0.035,0.686-0.105s0.407-0.17,0.571-0.299s0.292-0.284,0.382-0.466
		s0.13-0.384,0.119-0.606h2.303c0.012,0.492-0.089,0.949-0.303,1.371s-0.505,0.785-0.875,1.09s-0.798,0.543-1.288,0.717
		c-0.489,0.172-1.006,0.259-1.551,0.259c-0.738,0-1.386-0.125-1.942-0.374c-0.557-0.248-1.021-0.59-1.393-1.023
		s-0.653-0.941-0.844-1.525c-0.19-0.582-0.286-1.208-0.286-1.876v-0.264c0-0.668,0.094-1.294,0.281-1.876
		c0.188-0.584,0.469-1.092,0.844-1.525s0.839-0.776,1.393-1.028s1.197-0.378,1.929-0.378c0.586,0,1.128,0.088,1.626,0.264
		s0.927,0.424,1.288,0.742c0.36,0.32,0.64,0.707,0.839,1.16c0.199,0.455,0.293,0.963,0.281,1.525h-2.303
		c0.012-0.234-0.023-0.457-0.105-0.668s-0.202-0.393-0.36-0.545s-0.349-0.273-0.571-0.365c-0.223-0.09-0.466-0.136-0.729-0.136
		c-0.387,0-0.706,0.079-0.958,0.237s-0.453,0.369-0.602,0.633s-0.255,0.565-0.316,0.905s-0.092,0.691-0.092,1.055v0.264
		c0,0.369,0.029,0.726,0.088,1.067c0.059,0.344,0.163,0.645,0.312,0.906c0.149,0.26,0.352,0.47,0.606,0.628
		S343.445,510.627,343.838,510.627z"/>
	<path fill="#010101" d="M352.873,504.202c0.316-0.463,0.702-0.826,1.156-1.09s0.962-0.396,1.525-0.396
		c0.498,0,0.955,0.074,1.371,0.225c0.416,0.148,0.773,0.382,1.072,0.698s0.532,0.722,0.699,1.218c0.167,0.494,0.25,1.091,0.25,1.788
		v5.757h-2.443v-5.774c0-0.34-0.042-0.633-0.127-0.879s-0.207-0.445-0.365-0.598s-0.349-0.265-0.571-0.339
		c-0.223-0.072-0.475-0.109-0.756-0.109c-0.41,0-0.766,0.073-1.068,0.22s-0.549,0.352-0.743,0.615v6.864h-2.443v-13.5h2.443V504.202
		z"/>
	<path fill="#010101" d="M369.309,514.31h-8.016v-1.907h8.016V514.31z"/>
	<path fill="#010101" d="M380.603,507.744c0,0.709-0.078,1.359-0.233,1.951s-0.388,1.102-0.699,1.529s-0.697,0.76-1.16,0.998
		c-0.463,0.236-1.002,0.355-1.617,0.355c-0.557,0-1.039-0.104-1.446-0.312c-0.407-0.207-0.757-0.499-1.05-0.874l-0.114,1.011h-2.197
		v-13.5h2.443v4.852c0.281-0.328,0.614-0.583,0.998-0.765s0.833-0.272,1.349-0.272c0.621,0,1.165,0.12,1.63,0.36
		s0.854,0.574,1.165,1.002s0.543,0.938,0.699,1.534c0.155,0.594,0.233,1.243,0.233,1.946V507.744z M378.159,507.56
		c0-0.387-0.029-0.753-0.088-1.099s-0.16-0.648-0.303-0.91c-0.144-0.26-0.338-0.467-0.584-0.619s-0.554-0.229-0.923-0.229
		c-0.445,0-0.807,0.094-1.085,0.281s-0.494,0.445-0.646,0.773v3.788c0.152,0.328,0.368,0.586,0.646,0.773s0.646,0.281,1.103,0.281
		c0.369,0,0.674-0.071,0.914-0.216c0.24-0.143,0.432-0.342,0.576-0.598c0.144-0.254,0.245-0.557,0.303-0.904
		c0.059-0.35,0.088-0.729,0.088-1.139V507.56z"/>
	<path fill="#010101" d="M383.345,498.902h5.317v11.514h2.725v1.986h-8.042v-1.986h2.848v-9.519h-2.848V498.902z"/>
	<path fill="#010101" d="M393.303,507.56c0-0.691,0.1-1.331,0.299-1.921c0.199-0.588,0.491-1.1,0.875-1.533s0.853-0.773,1.406-1.02
		s1.188-0.369,1.903-0.369s1.351,0.123,1.907,0.369s1.027,0.586,1.411,1.02s0.675,0.945,0.875,1.533
		c0.199,0.59,0.299,1.229,0.299,1.921v0.185c0,0.697-0.1,1.34-0.299,1.93c-0.199,0.588-0.489,1.1-0.87,1.533
		s-0.85,0.771-1.406,1.016c-0.557,0.242-1.189,0.364-1.898,0.364c-0.715,0-1.352-0.122-1.912-0.364
		c-0.56-0.244-1.031-0.582-1.415-1.016s-0.675-0.945-0.875-1.533c-0.199-0.59-0.299-1.232-0.299-1.93V507.56z M395.746,507.744
		c0,0.398,0.038,0.771,0.114,1.121c0.076,0.348,0.196,0.652,0.36,0.914c0.164,0.26,0.376,0.467,0.637,0.619s0.576,0.229,0.945,0.229
		c0.357,0,0.665-0.076,0.923-0.229s0.467-0.359,0.628-0.619c0.161-0.262,0.28-0.566,0.356-0.914c0.076-0.35,0.114-0.723,0.114-1.121
		v-0.185c0-0.387-0.038-0.753-0.114-1.099s-0.195-0.65-0.356-0.914s-0.371-0.472-0.628-0.624s-0.571-0.229-0.94-0.229
		c-0.363,0-0.674,0.076-0.932,0.229s-0.469,0.36-0.633,0.624s-0.284,0.568-0.36,0.914s-0.114,0.712-0.114,1.099V507.744z"/>
	<path fill="#010101" d="M408.648,510.627c0.24,0,0.469-0.035,0.686-0.105s0.407-0.17,0.571-0.299s0.292-0.284,0.382-0.466
		s0.13-0.384,0.119-0.606h2.303c0.012,0.492-0.089,0.949-0.303,1.371s-0.505,0.785-0.875,1.09s-0.798,0.543-1.288,0.717
		c-0.489,0.172-1.006,0.259-1.551,0.259c-0.738,0-1.386-0.125-1.942-0.374c-0.557-0.248-1.021-0.59-1.393-1.023
		s-0.653-0.941-0.844-1.525c-0.19-0.582-0.286-1.208-0.286-1.876v-0.264c0-0.668,0.094-1.294,0.281-1.876
		c0.188-0.584,0.469-1.092,0.844-1.525s0.839-0.776,1.393-1.028s1.197-0.378,1.929-0.378c0.586,0,1.128,0.088,1.626,0.264
		s0.927,0.424,1.288,0.742c0.36,0.32,0.64,0.707,0.839,1.16c0.199,0.455,0.293,0.963,0.281,1.525h-2.303
		c0.012-0.234-0.023-0.457-0.105-0.668s-0.202-0.393-0.36-0.545s-0.349-0.273-0.571-0.365c-0.223-0.09-0.466-0.136-0.729-0.136
		c-0.387,0-0.706,0.079-0.958,0.237s-0.453,0.369-0.602,0.633s-0.255,0.565-0.316,0.905s-0.092,0.691-0.092,1.055v0.264
		c0,0.369,0.029,0.726,0.088,1.067c0.059,0.344,0.163,0.645,0.312,0.906c0.149,0.26,0.352,0.47,0.606,0.628
		S408.256,510.627,408.648,510.627z"/>
	<path fill="#010101" d="M418.817,508.474l-1.107,1.028v2.9h-2.443v-13.5h2.443v7.717l0.738-0.844l2.628-2.883h2.936l-3.586,3.964
		l4.087,5.546h-2.997L418.817,508.474z"/>
	<path fill="#010101" d="M434.119,514.31h-8.016v-1.907h8.016V514.31z"/>
	<path fill="#010101" d="M439.287,504.202c0.316-0.463,0.701-0.826,1.155-1.09s0.963-0.396,1.525-0.396
		c0.498,0,0.955,0.074,1.371,0.225c0.416,0.148,0.773,0.382,1.072,0.698s0.531,0.722,0.699,1.218c0.166,0.494,0.25,1.091,0.25,1.788
		v5.757h-2.443v-5.774c0-0.34-0.043-0.633-0.127-0.879c-0.086-0.246-0.207-0.445-0.365-0.598s-0.349-0.265-0.571-0.339
		c-0.223-0.072-0.475-0.109-0.756-0.109c-0.41,0-0.767,0.073-1.067,0.22c-0.303,0.146-0.55,0.352-0.743,0.615v6.864h-2.443v-13.5
		h2.443V504.202z"/>
	<path fill="#010101" d="M452.26,512.578c-0.732,0-1.397-0.12-1.995-0.36s-1.11-0.567-1.538-0.979
		c-0.428-0.414-0.758-0.9-0.988-1.459c-0.232-0.561-0.348-1.159-0.348-1.798v-0.352c0-0.727,0.114-1.39,0.343-1.991
		c0.229-0.6,0.548-1.117,0.958-1.551s0.896-0.771,1.459-1.011s1.175-0.36,1.837-0.36c0.686,0,1.296,0.113,1.833,0.338
		c0.535,0.227,0.989,0.544,1.361,0.954s0.655,0.903,0.849,1.481c0.193,0.576,0.29,1.214,0.29,1.911v1.037h-6.451
		c0.047,0.322,0.142,0.616,0.285,0.884c0.144,0.266,0.327,0.496,0.55,0.689s0.478,0.343,0.765,0.448s0.601,0.158,0.94,0.158
		c0.24,0,0.479-0.023,0.716-0.07c0.238-0.047,0.465-0.116,0.682-0.206c0.217-0.092,0.419-0.204,0.606-0.339s0.352-0.293,0.492-0.475
		l1.222,1.318c-0.152,0.217-0.351,0.429-0.594,0.638c-0.243,0.207-0.53,0.393-0.861,0.553c-0.331,0.162-0.698,0.292-1.103,0.392
		S452.729,512.578,452.26,512.578z M451.97,504.694c-0.275,0-0.527,0.048-0.756,0.146c-0.229,0.096-0.43,0.235-0.603,0.417
		s-0.317,0.398-0.435,0.65s-0.205,0.533-0.264,0.844h4.008v-0.193c-0.012-0.258-0.062-0.501-0.149-0.729s-0.214-0.426-0.378-0.594
		c-0.164-0.166-0.364-0.299-0.603-0.395C452.555,504.742,452.28,504.694,451.97,504.694z"/>
	<path fill="#010101" d="M464.389,512.402c-0.059-0.117-0.108-0.252-0.149-0.404s-0.076-0.313-0.105-0.483
		c-0.135,0.146-0.29,0.284-0.466,0.413s-0.371,0.242-0.585,0.338c-0.214,0.098-0.449,0.173-0.707,0.229s-0.536,0.084-0.835,0.084
		c-0.486,0-0.934-0.07-1.341-0.211s-0.757-0.337-1.05-0.589s-0.521-0.552-0.686-0.901c-0.164-0.348-0.246-0.728-0.246-1.138
		c0-1.002,0.374-1.776,1.12-2.325c0.748-0.547,1.862-0.821,3.345-0.821h1.362v-0.562c0-0.457-0.149-0.819-0.448-1.085
		c-0.299-0.268-0.729-0.4-1.292-0.4c-0.498,0-0.861,0.107-1.09,0.32c-0.229,0.215-0.343,0.5-0.343,0.857h-2.443
		c0-0.404,0.089-0.788,0.269-1.151c0.178-0.363,0.439-0.683,0.781-0.958c0.344-0.275,0.762-0.494,1.258-0.654
		c0.494-0.162,1.062-0.242,1.7-0.242c0.574,0,1.108,0.07,1.604,0.211c0.494,0.141,0.924,0.349,1.287,0.624s0.647,0.622,0.853,1.042
		c0.205,0.418,0.308,0.903,0.308,1.454v4.078c0,0.51,0.032,0.932,0.097,1.266s0.158,0.621,0.281,0.861v0.149H464.389z
		 M462.06,510.688c0.246,0,0.475-0.029,0.686-0.088s0.401-0.135,0.571-0.229s0.316-0.2,0.439-0.321
		c0.123-0.119,0.22-0.241,0.29-0.364v-1.635h-1.248c-0.381,0-0.706,0.036-0.976,0.11c-0.27,0.072-0.489,0.176-0.659,0.307
		c-0.17,0.133-0.296,0.291-0.378,0.475c-0.082,0.186-0.123,0.386-0.123,0.603c0,0.328,0.115,0.601,0.347,0.817
		S461.591,510.688,462.06,510.688z"/>
	<path fill="#010101" d="M468.994,507.577c0-0.721,0.084-1.38,0.25-1.978c0.168-0.598,0.412-1.11,0.734-1.538
		s0.713-0.759,1.174-0.993c0.459-0.234,0.985-0.352,1.577-0.352c0.498,0,0.937,0.09,1.313,0.268c0.379,0.18,0.714,0.433,1.007,0.761
		v-4.843h2.452v13.5h-2.206l-0.123-0.993c-0.299,0.369-0.65,0.656-1.055,0.861s-0.873,0.308-1.406,0.308
		c-0.58,0-1.101-0.122-1.56-0.365c-0.461-0.242-0.851-0.578-1.17-1.006s-0.563-0.936-0.733-1.525
		c-0.17-0.588-0.255-1.229-0.255-1.92V507.577z M471.438,507.762c0,0.398,0.033,0.77,0.102,1.111
		c0.066,0.344,0.177,0.643,0.329,0.896c0.152,0.256,0.349,0.456,0.589,0.603s0.533,0.22,0.879,0.22c0.422,0,0.771-0.091,1.051-0.272
		c0.277-0.182,0.499-0.431,0.663-0.747v-3.85c-0.164-0.322-0.384-0.572-0.659-0.752c-0.275-0.178-0.621-0.268-1.037-0.268
		c-0.346,0-0.641,0.074-0.883,0.225c-0.244,0.148-0.441,0.354-0.594,0.615c-0.152,0.26-0.264,0.564-0.334,0.914
		c-0.07,0.348-0.105,0.722-0.105,1.12V507.762z"/>
	<path fill="#010101" d="M484.665,512.578c-0.732,0-1.397-0.12-1.995-0.36s-1.11-0.567-1.538-0.979
		c-0.428-0.414-0.758-0.9-0.988-1.459c-0.232-0.561-0.348-1.159-0.348-1.798v-0.352c0-0.727,0.114-1.39,0.343-1.991
		c0.229-0.6,0.548-1.117,0.958-1.551s0.896-0.771,1.459-1.011s1.175-0.36,1.837-0.36c0.686,0,1.296,0.113,1.833,0.338
		c0.535,0.227,0.989,0.544,1.361,0.954s0.655,0.903,0.849,1.481c0.193,0.576,0.29,1.214,0.29,1.911v1.037h-6.451
		c0.047,0.322,0.142,0.616,0.285,0.884c0.144,0.266,0.327,0.496,0.55,0.689s0.478,0.343,0.765,0.448s0.601,0.158,0.94,0.158
		c0.24,0,0.479-0.023,0.716-0.07c0.238-0.047,0.465-0.116,0.682-0.206c0.217-0.092,0.419-0.204,0.606-0.339s0.352-0.293,0.492-0.475
		l1.222,1.318c-0.152,0.217-0.351,0.429-0.594,0.638c-0.243,0.207-0.53,0.393-0.861,0.553c-0.331,0.162-0.698,0.292-1.103,0.392
		S485.134,512.578,484.665,512.578z M484.375,504.694c-0.275,0-0.527,0.048-0.756,0.146c-0.229,0.096-0.43,0.235-0.603,0.417
		s-0.317,0.398-0.435,0.65s-0.205,0.533-0.264,0.844h4.008v-0.193c-0.012-0.258-0.062-0.501-0.149-0.729s-0.214-0.426-0.378-0.594
		c-0.164-0.166-0.364-0.299-0.603-0.395C484.96,504.742,484.686,504.694,484.375,504.694z"/>
	<path fill="#010101" d="M497.682,502.717c0.369,0,0.71,0.025,1.023,0.074c0.313,0.051,0.567,0.104,0.761,0.163l-0.36,2.435
		c-0.322-0.076-0.652-0.133-0.988-0.172c-0.338-0.037-0.658-0.057-0.963-0.057c-0.686,0-1.234,0.132-1.648,0.396
		c-0.412,0.264-0.722,0.642-0.927,1.134v5.713h-2.443v-9.51h2.276l0.114,1.556c0.387-0.539,0.85-0.962,1.389-1.271
		C496.454,502.871,497.043,502.717,497.682,502.717z"/>
</g>
<g opacity="0.55">
	<rect x="274.207" y="621.08" fill="none" width="257.986" height="50.979"/>
	<path fill="#010101" d="M307.957,631.97c0-0.146-0.034-0.275-0.101-0.387s-0.188-0.216-0.36-0.312
		c-0.173-0.098-0.403-0.187-0.69-0.269s-0.65-0.164-1.09-0.246c-0.557-0.111-1.065-0.251-1.525-0.417
		c-0.46-0.168-0.854-0.369-1.182-0.607c-0.328-0.236-0.584-0.511-0.769-0.821s-0.277-0.668-0.277-1.072
		c0-0.393,0.094-0.768,0.281-1.125s0.457-0.671,0.809-0.94s0.779-0.483,1.283-0.642s1.072-0.237,1.705-0.237
		c0.662,0,1.257,0.078,1.784,0.232c0.527,0.156,0.974,0.369,1.34,0.643c0.366,0.271,0.646,0.596,0.839,0.971s0.29,0.782,0.29,1.222
		h-2.443c0-0.369-0.149-0.679-0.448-0.927c-0.299-0.25-0.753-0.374-1.362-0.374c-0.568,0-0.998,0.103-1.288,0.308
		s-0.435,0.457-0.435,0.756c0,0.141,0.029,0.271,0.088,0.391c0.059,0.121,0.163,0.229,0.312,0.326
		c0.149,0.096,0.353,0.184,0.611,0.264c0.258,0.078,0.586,0.147,0.984,0.206c0.574,0.094,1.107,0.214,1.6,0.36
		s0.917,0.336,1.274,0.566c0.357,0.232,0.637,0.514,0.839,0.844c0.202,0.332,0.303,0.726,0.303,1.183
		c0,0.422-0.101,0.81-0.303,1.165c-0.202,0.354-0.489,0.66-0.861,0.918s-0.822,0.459-1.349,0.602
		c-0.527,0.144-1.116,0.216-1.767,0.216c-0.715,0-1.346-0.094-1.894-0.281s-1.006-0.433-1.375-0.733
		c-0.369-0.303-0.649-0.645-0.839-1.029c-0.19-0.383-0.286-0.769-0.286-1.155h2.329c0.018,0.258,0.088,0.479,0.211,0.663
		c0.123,0.186,0.281,0.334,0.475,0.449c0.193,0.113,0.415,0.197,0.664,0.25s0.505,0.079,0.769,0.079c0.604,0,1.063-0.097,1.38-0.29
		S307.957,632.274,307.957,631.97z"/>
	<path fill="#010101" d="M318.688,633.244c-0.322,0.475-0.71,0.847-1.165,1.116s-0.951,0.404-1.49,0.404
		c-0.492,0-0.943-0.076-1.354-0.229s-0.762-0.394-1.055-0.726c-0.293-0.33-0.52-0.752-0.681-1.266
		c-0.161-0.512-0.242-1.129-0.242-1.85v-5.625h2.443v5.643c0,0.387,0.028,0.712,0.083,0.976s0.145,0.476,0.268,0.638
		c0.123,0.16,0.284,0.276,0.483,0.347s0.442,0.105,0.729,0.105c0.486,0,0.882-0.093,1.187-0.276
		c0.305-0.186,0.536-0.438,0.694-0.761v-6.671h2.452v9.51h-2.215L318.688,633.244z"/>
	<path fill="#010101" d="M331.995,629.922c0,0.709-0.078,1.359-0.233,1.951s-0.388,1.102-0.699,1.529s-0.697,0.76-1.16,0.998
		c-0.463,0.236-1.002,0.355-1.617,0.355c-0.557,0-1.039-0.104-1.446-0.312c-0.407-0.207-0.757-0.499-1.05-0.874l-0.114,1.011h-2.197
		v-13.5h2.443v4.852c0.281-0.328,0.614-0.583,0.998-0.765s0.833-0.272,1.349-0.272c0.621,0,1.165,0.12,1.63,0.36
		s0.854,0.574,1.165,1.002s0.543,0.938,0.699,1.534c0.155,0.594,0.233,1.243,0.233,1.946V629.922z M329.552,629.737
		c0-0.387-0.029-0.753-0.088-1.099s-0.16-0.648-0.303-0.91c-0.144-0.26-0.338-0.467-0.584-0.619s-0.554-0.229-0.923-0.229
		c-0.445,0-0.807,0.094-1.085,0.281s-0.494,0.445-0.646,0.773v3.788c0.152,0.328,0.368,0.586,0.646,0.773s0.646,0.281,1.103,0.281
		c0.369,0,0.674-0.071,0.914-0.216c0.24-0.143,0.432-0.342,0.576-0.598c0.144-0.254,0.245-0.557,0.303-0.904
		c0.059-0.35,0.088-0.729,0.088-1.139V629.737z"/>
	<path fill="#010101" d="M340.362,631.97c0-0.146-0.034-0.275-0.101-0.387s-0.188-0.216-0.36-0.312
		c-0.173-0.098-0.403-0.187-0.69-0.269s-0.65-0.164-1.09-0.246c-0.557-0.111-1.065-0.251-1.525-0.417
		c-0.46-0.168-0.854-0.369-1.182-0.607c-0.328-0.236-0.584-0.511-0.769-0.821s-0.277-0.668-0.277-1.072
		c0-0.393,0.094-0.768,0.281-1.125s0.457-0.671,0.809-0.94s0.779-0.483,1.283-0.642s1.072-0.237,1.705-0.237
		c0.662,0,1.257,0.078,1.784,0.232c0.527,0.156,0.974,0.369,1.34,0.643c0.366,0.271,0.646,0.596,0.839,0.971s0.29,0.782,0.29,1.222
		h-2.443c0-0.369-0.149-0.679-0.448-0.927c-0.299-0.25-0.753-0.374-1.362-0.374c-0.568,0-0.998,0.103-1.288,0.308
		s-0.435,0.457-0.435,0.756c0,0.141,0.029,0.271,0.088,0.391c0.059,0.121,0.163,0.229,0.312,0.326
		c0.149,0.096,0.353,0.184,0.611,0.264c0.258,0.078,0.586,0.147,0.984,0.206c0.574,0.094,1.107,0.214,1.6,0.36
		s0.917,0.336,1.274,0.566c0.357,0.232,0.637,0.514,0.839,0.844c0.202,0.332,0.303,0.726,0.303,1.183
		c0,0.422-0.101,0.81-0.303,1.165c-0.202,0.354-0.489,0.66-0.861,0.918s-0.822,0.459-1.349,0.602
		c-0.527,0.144-1.116,0.216-1.767,0.216c-0.715,0-1.346-0.094-1.894-0.281s-1.006-0.433-1.375-0.733
		c-0.369-0.303-0.649-0.645-0.839-1.029c-0.19-0.383-0.286-0.769-0.286-1.155h2.329c0.018,0.258,0.088,0.479,0.211,0.663
		c0.123,0.186,0.281,0.334,0.475,0.449c0.193,0.113,0.415,0.197,0.664,0.25s0.505,0.079,0.769,0.079c0.604,0,1.063-0.097,1.38-0.29
		S340.362,632.274,340.362,631.97z"/>
	<path fill="#010101" d="M349.239,632.805c0.24,0,0.469-0.035,0.686-0.105s0.407-0.17,0.571-0.299s0.292-0.284,0.382-0.466
		s0.13-0.384,0.119-0.606h2.303c0.012,0.492-0.089,0.949-0.303,1.371s-0.505,0.785-0.875,1.09s-0.798,0.543-1.288,0.717
		c-0.489,0.172-1.006,0.259-1.551,0.259c-0.738,0-1.386-0.125-1.942-0.374c-0.557-0.248-1.021-0.59-1.393-1.023
		s-0.653-0.941-0.844-1.525c-0.19-0.582-0.286-1.208-0.286-1.876v-0.264c0-0.668,0.094-1.294,0.281-1.876
		c0.188-0.584,0.469-1.092,0.844-1.525s0.839-0.776,1.393-1.028s1.197-0.378,1.929-0.378c0.586,0,1.128,0.088,1.626,0.264
		s0.927,0.424,1.288,0.742c0.36,0.32,0.64,0.707,0.839,1.16c0.199,0.455,0.293,0.963,0.281,1.525h-2.303
		c0.012-0.234-0.023-0.457-0.105-0.668s-0.202-0.393-0.36-0.545s-0.349-0.273-0.571-0.365c-0.223-0.09-0.466-0.136-0.729-0.136
		c-0.387,0-0.706,0.079-0.958,0.237s-0.453,0.369-0.602,0.633s-0.255,0.565-0.316,0.905s-0.092,0.691-0.092,1.055v0.264
		c0,0.369,0.029,0.726,0.088,1.067c0.059,0.344,0.163,0.645,0.312,0.906c0.149,0.26,0.352,0.47,0.606,0.628
		S348.847,632.805,349.239,632.805z"/>
	<path fill="#010101" d="M362.66,624.895c0.369,0,0.71,0.025,1.024,0.074c0.313,0.051,0.567,0.104,0.76,0.163l-0.36,2.435
		c-0.322-0.076-0.652-0.133-0.989-0.172c-0.337-0.037-0.658-0.057-0.962-0.057c-0.686,0-1.235,0.132-1.648,0.396
		s-0.722,0.642-0.927,1.134v5.713h-2.443v-9.51h2.276l0.114,1.556c0.387-0.539,0.85-0.962,1.389-1.271
		C361.433,625.049,362.021,624.895,362.66,624.895z"/>
	<path fill="#010101" d="M367.283,625.07h5.177v7.523h2.575v1.986h-7.752v-1.986h2.707v-5.528h-2.707V625.07z M369.814,622.636
		c0-0.188,0.034-0.362,0.101-0.522c0.067-0.162,0.163-0.299,0.286-0.414c0.123-0.113,0.271-0.203,0.444-0.268
		s0.365-0.097,0.576-0.097c0.434,0,0.778,0.122,1.033,0.364c0.255,0.244,0.382,0.556,0.382,0.937s-0.127,0.692-0.382,0.937
		c-0.255,0.242-0.599,0.364-1.033,0.364c-0.211,0-0.403-0.032-0.576-0.097s-0.321-0.154-0.444-0.268
		c-0.123-0.115-0.218-0.252-0.286-0.414C369.848,622.998,369.814,622.823,369.814,622.636z"/>
	<path fill="#010101" d="M386.004,629.922c0,0.709-0.078,1.359-0.233,1.951s-0.388,1.102-0.699,1.529s-0.697,0.76-1.16,0.998
		c-0.463,0.236-1.002,0.355-1.617,0.355c-0.557,0-1.039-0.104-1.446-0.312c-0.407-0.207-0.757-0.499-1.05-0.874l-0.114,1.011h-2.197
		v-13.5h2.443v4.852c0.281-0.328,0.614-0.583,0.998-0.765s0.833-0.272,1.349-0.272c0.621,0,1.165,0.12,1.63,0.36
		s0.854,0.574,1.165,1.002s0.543,0.938,0.699,1.534c0.155,0.594,0.233,1.243,0.233,1.946V629.922z M383.561,629.737
		c0-0.387-0.029-0.753-0.088-1.099s-0.16-0.648-0.303-0.91c-0.144-0.26-0.338-0.467-0.584-0.619s-0.554-0.229-0.923-0.229
		c-0.445,0-0.807,0.094-1.085,0.281s-0.494,0.445-0.646,0.773v3.788c0.152,0.328,0.368,0.586,0.646,0.773s0.646,0.281,1.103,0.281
		c0.369,0,0.674-0.071,0.914-0.216c0.24-0.143,0.432-0.342,0.576-0.598c0.144-0.254,0.245-0.557,0.303-0.904
		c0.059-0.35,0.088-0.729,0.088-1.139V629.737z"/>
	<path fill="#010101" d="M392.851,634.756c-0.732,0-1.397-0.12-1.995-0.36s-1.11-0.567-1.538-0.979
		c-0.428-0.414-0.757-0.9-0.989-1.459c-0.231-0.561-0.347-1.159-0.347-1.798v-0.352c0-0.727,0.114-1.39,0.343-1.991
		c0.229-0.6,0.548-1.117,0.958-1.551s0.896-0.771,1.459-1.011s1.175-0.36,1.837-0.36c0.686,0,1.296,0.113,1.833,0.338
		c0.536,0.227,0.99,0.544,1.362,0.954s0.655,0.903,0.848,1.481c0.193,0.576,0.29,1.214,0.29,1.911v1.037h-6.451
		c0.047,0.322,0.142,0.616,0.286,0.884c0.144,0.266,0.327,0.496,0.549,0.689s0.478,0.343,0.765,0.448s0.601,0.158,0.94,0.158
		c0.24,0,0.479-0.023,0.716-0.07s0.464-0.116,0.681-0.206c0.217-0.092,0.419-0.204,0.606-0.339s0.352-0.293,0.492-0.475l1.222,1.318
		c-0.152,0.217-0.35,0.429-0.593,0.638c-0.243,0.207-0.53,0.393-0.861,0.553c-0.331,0.162-0.699,0.292-1.103,0.392
		S393.319,634.756,392.851,634.756z M392.561,626.872c-0.275,0-0.527,0.048-0.756,0.146c-0.229,0.096-0.429,0.235-0.602,0.417
		s-0.318,0.398-0.435,0.65s-0.205,0.533-0.264,0.844h4.008v-0.193c-0.012-0.258-0.062-0.501-0.149-0.729s-0.214-0.426-0.378-0.594
		c-0.164-0.166-0.365-0.299-0.602-0.395C393.145,626.92,392.871,626.872,392.561,626.872z"/>
	<path fill="#010101" d="M407.115,636.487H399.1v-1.907h8.016V636.487z"/>
	<path fill="#010101" d="M415.781,634.58c-0.059-0.117-0.108-0.252-0.149-0.404s-0.076-0.313-0.105-0.483
		c-0.135,0.146-0.29,0.284-0.466,0.413s-0.371,0.242-0.584,0.338c-0.214,0.098-0.45,0.173-0.708,0.229s-0.536,0.084-0.835,0.084
		c-0.486,0-0.933-0.07-1.34-0.211s-0.757-0.337-1.05-0.589s-0.521-0.552-0.686-0.901c-0.164-0.348-0.246-0.728-0.246-1.138
		c0-1.002,0.374-1.776,1.121-2.325c0.747-0.547,1.862-0.821,3.344-0.821h1.362v-0.562c0-0.457-0.149-0.819-0.448-1.085
		c-0.299-0.268-0.729-0.4-1.292-0.4c-0.498,0-0.861,0.107-1.09,0.32c-0.229,0.215-0.343,0.5-0.343,0.857h-2.443
		c0-0.404,0.089-0.788,0.268-1.151s0.439-0.683,0.782-0.958s0.762-0.494,1.257-0.654c0.495-0.162,1.062-0.242,1.701-0.242
		c0.574,0,1.109,0.07,1.604,0.211s0.924,0.349,1.288,0.624s0.647,0.622,0.853,1.042c0.205,0.418,0.308,0.903,0.308,1.454v4.078
		c0,0.51,0.032,0.932,0.097,1.266s0.158,0.621,0.281,0.861v0.149H415.781z M413.452,632.866c0.246,0,0.475-0.029,0.686-0.088
		s0.401-0.135,0.571-0.229s0.316-0.2,0.439-0.321c0.123-0.119,0.22-0.241,0.29-0.364v-1.635h-1.248c-0.381,0-0.706,0.036-0.976,0.11
		c-0.27,0.072-0.489,0.176-0.659,0.307c-0.17,0.133-0.296,0.291-0.378,0.475c-0.082,0.186-0.123,0.386-0.123,0.603
		c0,0.328,0.116,0.601,0.347,0.817S412.983,632.866,413.452,632.866z"/>
	<path fill="#010101" d="M420.387,629.755c0-0.721,0.084-1.38,0.25-1.978c0.168-0.598,0.412-1.11,0.734-1.538
		s0.713-0.759,1.174-0.993c0.459-0.234,0.985-0.352,1.577-0.352c0.498,0,0.937,0.09,1.313,0.268c0.379,0.18,0.714,0.433,1.007,0.761
		v-4.843h2.452v13.5h-2.206l-0.123-0.993c-0.299,0.369-0.65,0.656-1.055,0.861s-0.873,0.308-1.406,0.308
		c-0.58,0-1.101-0.122-1.56-0.365c-0.461-0.242-0.851-0.578-1.17-1.006s-0.563-0.936-0.733-1.525
		c-0.17-0.588-0.255-1.229-0.255-1.92V629.755z M422.83,629.939c0,0.398,0.033,0.77,0.102,1.111
		c0.066,0.344,0.177,0.643,0.329,0.896c0.152,0.256,0.349,0.456,0.589,0.603s0.533,0.22,0.879,0.22c0.422,0,0.771-0.091,1.051-0.272
		c0.277-0.182,0.499-0.431,0.663-0.747v-3.85c-0.164-0.322-0.384-0.572-0.659-0.752c-0.275-0.178-0.621-0.268-1.037-0.268
		c-0.346,0-0.641,0.074-0.883,0.225c-0.244,0.148-0.441,0.354-0.594,0.615c-0.152,0.26-0.264,0.564-0.334,0.914
		c-0.07,0.348-0.105,0.722-0.105,1.12V629.939z"/>
	<path fill="#010101" d="M431.188,629.755c0-0.721,0.084-1.38,0.25-1.978c0.168-0.598,0.412-1.11,0.734-1.538
		s0.713-0.759,1.174-0.993c0.459-0.234,0.985-0.352,1.577-0.352c0.498,0,0.937,0.09,1.313,0.268c0.379,0.18,0.714,0.433,1.007,0.761
		v-4.843h2.452v13.5h-2.206l-0.123-0.993c-0.299,0.369-0.65,0.656-1.055,0.861s-0.873,0.308-1.406,0.308
		c-0.58,0-1.101-0.122-1.56-0.365c-0.461-0.242-0.851-0.578-1.17-1.006s-0.563-0.936-0.733-1.525
		c-0.17-0.588-0.255-1.229-0.255-1.92V629.755z M433.632,629.939c0,0.398,0.033,0.77,0.102,1.111
		c0.066,0.344,0.177,0.643,0.329,0.896c0.152,0.256,0.349,0.456,0.589,0.603s0.533,0.22,0.879,0.22c0.422,0,0.771-0.091,1.051-0.272
		c0.277-0.182,0.499-0.431,0.663-0.747v-3.85c-0.164-0.322-0.384-0.572-0.659-0.752c-0.275-0.178-0.621-0.268-1.037-0.268
		c-0.346,0-0.641,0.074-0.883,0.225c-0.244,0.148-0.441,0.354-0.594,0.615c-0.152,0.26-0.264,0.564-0.334,0.914
		c-0.07,0.348-0.105,0.722-0.105,1.12V629.939z"/>
	<path fill="#010101" d="M449.074,624.895c0.369,0,0.71,0.025,1.023,0.074c0.313,0.051,0.567,0.104,0.761,0.163l-0.36,2.435
		c-0.322-0.076-0.652-0.133-0.988-0.172c-0.338-0.037-0.658-0.057-0.963-0.057c-0.686,0-1.234,0.132-1.648,0.396
		c-0.412,0.264-0.722,0.642-0.927,1.134v5.713h-2.443v-9.51h2.276l0.114,1.556c0.387-0.539,0.85-0.962,1.389-1.271
		C447.847,625.049,448.436,624.895,449.074,624.895z"/>
	<path fill="#010101" d="M457.661,634.756c-0.732,0-1.397-0.12-1.995-0.36s-1.11-0.567-1.538-0.979
		c-0.428-0.414-0.758-0.9-0.988-1.459c-0.232-0.561-0.348-1.159-0.348-1.798v-0.352c0-0.727,0.114-1.39,0.343-1.991
		c0.229-0.6,0.548-1.117,0.958-1.551s0.896-0.771,1.459-1.011s1.175-0.36,1.837-0.36c0.686,0,1.296,0.113,1.833,0.338
		c0.535,0.227,0.989,0.544,1.361,0.954s0.655,0.903,0.849,1.481c0.193,0.576,0.29,1.214,0.29,1.911v1.037h-6.451
		c0.047,0.322,0.142,0.616,0.285,0.884c0.144,0.266,0.327,0.496,0.55,0.689s0.478,0.343,0.765,0.448s0.601,0.158,0.94,0.158
		c0.24,0,0.479-0.023,0.716-0.07c0.238-0.047,0.465-0.116,0.682-0.206c0.217-0.092,0.419-0.204,0.606-0.339s0.352-0.293,0.492-0.475
		l1.222,1.318c-0.152,0.217-0.351,0.429-0.594,0.638c-0.243,0.207-0.53,0.393-0.861,0.553c-0.331,0.162-0.698,0.292-1.103,0.392
		S458.13,634.756,457.661,634.756z M457.371,626.872c-0.275,0-0.527,0.048-0.756,0.146c-0.229,0.096-0.43,0.235-0.603,0.417
		s-0.317,0.398-0.435,0.65s-0.205,0.533-0.264,0.844h4.008v-0.193c-0.012-0.258-0.062-0.501-0.149-0.729s-0.214-0.426-0.378-0.594
		c-0.164-0.166-0.364-0.299-0.603-0.395C457.956,626.92,457.682,626.872,457.371,626.872z"/>
	<path fill="#010101" d="M469.983,631.97c0-0.146-0.034-0.275-0.101-0.387c-0.068-0.111-0.188-0.216-0.361-0.312
		c-0.173-0.098-0.402-0.187-0.689-0.269s-0.65-0.164-1.09-0.246c-0.557-0.111-1.065-0.251-1.525-0.417
		c-0.46-0.168-0.854-0.369-1.182-0.607c-0.328-0.236-0.584-0.511-0.77-0.821c-0.184-0.311-0.276-0.668-0.276-1.072
		c0-0.393,0.094-0.768,0.281-1.125s0.457-0.671,0.809-0.94s0.779-0.483,1.283-0.642s1.072-0.237,1.705-0.237
		c0.662,0,1.257,0.078,1.784,0.232c0.527,0.156,0.974,0.369,1.34,0.643c0.366,0.271,0.646,0.596,0.84,0.971s0.29,0.782,0.29,1.222
		h-2.443c0-0.369-0.149-0.679-0.448-0.927c-0.299-0.25-0.753-0.374-1.362-0.374c-0.568,0-0.997,0.103-1.288,0.308
		c-0.289,0.205-0.435,0.457-0.435,0.756c0,0.141,0.029,0.271,0.088,0.391c0.059,0.121,0.163,0.229,0.312,0.326
		c0.15,0.096,0.354,0.184,0.611,0.264c0.258,0.078,0.586,0.147,0.984,0.206c0.574,0.094,1.107,0.214,1.6,0.36
		s0.917,0.336,1.274,0.566c0.357,0.232,0.638,0.514,0.839,0.844c0.203,0.332,0.304,0.726,0.304,1.183
		c0,0.422-0.101,0.81-0.304,1.165c-0.201,0.354-0.489,0.66-0.861,0.918s-0.821,0.459-1.349,0.602
		c-0.527,0.144-1.116,0.216-1.767,0.216c-0.715,0-1.347-0.094-1.895-0.281s-1.006-0.433-1.375-0.733
		c-0.369-0.303-0.649-0.645-0.84-1.029c-0.19-0.383-0.285-0.769-0.285-1.155h2.329c0.018,0.258,0.088,0.479,0.211,0.663
		c0.123,0.186,0.281,0.334,0.475,0.449c0.193,0.113,0.414,0.197,0.663,0.25s0.506,0.079,0.77,0.079c0.604,0,1.063-0.097,1.38-0.29
		S469.983,632.274,469.983,631.97z"/>
	<path fill="#010101" d="M480.785,631.97c0-0.146-0.034-0.275-0.101-0.387c-0.068-0.111-0.188-0.216-0.361-0.312
		c-0.173-0.098-0.402-0.187-0.689-0.269s-0.65-0.164-1.09-0.246c-0.557-0.111-1.065-0.251-1.525-0.417
		c-0.46-0.168-0.854-0.369-1.182-0.607c-0.328-0.236-0.584-0.511-0.77-0.821c-0.184-0.311-0.276-0.668-0.276-1.072
		c0-0.393,0.094-0.768,0.281-1.125s0.457-0.671,0.809-0.94s0.779-0.483,1.283-0.642s1.072-0.237,1.705-0.237
		c0.662,0,1.257,0.078,1.784,0.232c0.527,0.156,0.974,0.369,1.34,0.643c0.366,0.271,0.646,0.596,0.84,0.971s0.29,0.782,0.29,1.222
		h-2.443c0-0.369-0.149-0.679-0.448-0.927c-0.299-0.25-0.753-0.374-1.362-0.374c-0.568,0-0.997,0.103-1.288,0.308
		c-0.289,0.205-0.435,0.457-0.435,0.756c0,0.141,0.029,0.271,0.088,0.391c0.059,0.121,0.163,0.229,0.312,0.326
		c0.15,0.096,0.354,0.184,0.611,0.264c0.258,0.078,0.586,0.147,0.984,0.206c0.574,0.094,1.107,0.214,1.6,0.36
		s0.917,0.336,1.274,0.566c0.357,0.232,0.638,0.514,0.839,0.844c0.203,0.332,0.304,0.726,0.304,1.183
		c0,0.422-0.101,0.81-0.304,1.165c-0.201,0.354-0.489,0.66-0.861,0.918s-0.821,0.459-1.349,0.602
		c-0.527,0.144-1.116,0.216-1.767,0.216c-0.715,0-1.347-0.094-1.895-0.281s-1.006-0.433-1.375-0.733
		c-0.369-0.303-0.649-0.645-0.84-1.029c-0.19-0.383-0.285-0.769-0.285-1.155h2.329c0.018,0.258,0.088,0.479,0.211,0.663
		c0.123,0.186,0.281,0.334,0.475,0.449c0.193,0.113,0.414,0.197,0.663,0.25s0.506,0.079,0.77,0.079c0.604,0,1.063-0.097,1.38-0.29
		S480.785,632.274,480.785,631.97z"/>
	<path fill="#010101" d="M499.225,635.679h-2.276l4.79-13.896h2.276L499.225,635.679z"/>
	<path fill="#010101" d="M336.592,656.18v-7.708h-2.496v-1.802h2.496v-0.519c0-0.627,0.1-1.181,0.299-1.661s0.483-0.885,0.853-1.213
		s0.817-0.576,1.345-0.742c0.527-0.168,1.116-0.251,1.767-0.251c0.205,0,0.403,0.008,0.593,0.022s0.376,0.033,0.558,0.057
		s0.365,0.05,0.549,0.079s0.376,0.062,0.576,0.097l-0.158,1.916c-0.223-0.047-0.475-0.088-0.756-0.123s-0.612-0.053-0.993-0.053
		c-0.762,0-1.315,0.161-1.661,0.483s-0.519,0.785-0.519,1.389v0.519h3.428v1.802h-3.428v7.708H336.592z"/>
	<path fill="#010101" d="M349.644,656.355c-0.732,0-1.397-0.12-1.995-0.36s-1.11-0.567-1.538-0.979
		c-0.428-0.414-0.757-0.899-0.989-1.459s-0.347-1.159-0.347-1.798v-0.352c0-0.727,0.114-1.39,0.343-1.991
		c0.229-0.6,0.548-1.117,0.958-1.551s0.896-0.771,1.459-1.011s1.175-0.36,1.837-0.36c0.686,0,1.296,0.113,1.833,0.338
		c0.536,0.227,0.99,0.544,1.362,0.954s0.655,0.904,0.848,1.481s0.29,1.214,0.29,1.911v1.037h-6.451
		c0.047,0.322,0.142,0.617,0.286,0.884s0.327,0.496,0.549,0.689s0.478,0.343,0.765,0.448s0.601,0.158,0.94,0.158
		c0.24,0,0.479-0.023,0.716-0.07s0.464-0.115,0.681-0.206s0.419-0.204,0.606-0.339s0.352-0.293,0.492-0.475l1.222,1.318
		c-0.152,0.217-0.35,0.43-0.593,0.638s-0.53,0.393-0.861,0.553c-0.331,0.162-0.699,0.292-1.103,0.392
		S350.112,656.355,349.644,656.355z M349.354,648.472c-0.275,0-0.527,0.048-0.756,0.146c-0.229,0.096-0.429,0.235-0.602,0.417
		s-0.318,0.398-0.435,0.65s-0.205,0.533-0.264,0.844h4.008v-0.193c-0.012-0.258-0.062-0.501-0.149-0.729s-0.214-0.426-0.378-0.594
		c-0.164-0.166-0.365-0.299-0.602-0.395C349.938,648.52,349.664,648.472,349.354,648.472z"/>
	<path fill="#010101" d="M360.313,644.341v2.329h3.551v1.802h-3.551v4.087c0,0.346,0.04,0.635,0.119,0.865
		c0.079,0.232,0.192,0.417,0.338,0.555s0.324,0.235,0.532,0.294s0.441,0.088,0.699,0.088c0.188,0,0.379-0.009,0.576-0.026
		s0.384-0.039,0.562-0.066c0.179-0.025,0.346-0.054,0.501-0.083s0.289-0.059,0.4-0.088l0.237,1.679
		c-0.17,0.1-0.369,0.187-0.598,0.26s-0.472,0.133-0.729,0.18s-0.526,0.084-0.804,0.109c-0.278,0.027-0.552,0.04-0.822,0.04
		c-0.521,0-0.995-0.069-1.419-0.206c-0.425-0.138-0.788-0.352-1.09-0.643c-0.302-0.289-0.535-0.658-0.699-1.107
		c-0.164-0.447-0.246-0.985-0.246-1.612v-4.324h-2.171v-1.802h2.171v-2.329H360.313z"/>
	<path fill="#010101" d="M370.843,654.404c0.24,0,0.469-0.035,0.686-0.105s0.407-0.17,0.571-0.299s0.292-0.284,0.382-0.466
		s0.13-0.384,0.119-0.606h2.303c0.012,0.492-0.089,0.949-0.303,1.371s-0.505,0.785-0.875,1.09s-0.798,0.544-1.288,0.717
		c-0.489,0.172-1.006,0.259-1.551,0.259c-0.738,0-1.386-0.125-1.942-0.374c-0.557-0.248-1.021-0.59-1.393-1.023
		s-0.653-0.941-0.844-1.525c-0.19-0.582-0.286-1.208-0.286-1.876v-0.264c0-0.668,0.094-1.293,0.281-1.876s0.469-1.092,0.844-1.525
		s0.839-0.776,1.393-1.028s1.197-0.378,1.929-0.378c0.586,0,1.128,0.088,1.626,0.264s0.927,0.424,1.288,0.742
		c0.36,0.32,0.64,0.707,0.839,1.16c0.199,0.455,0.293,0.963,0.281,1.525h-2.303c0.012-0.234-0.023-0.457-0.105-0.668
		s-0.202-0.393-0.36-0.545s-0.349-0.273-0.571-0.365c-0.223-0.09-0.466-0.136-0.729-0.136c-0.387,0-0.706,0.079-0.958,0.237
		s-0.453,0.369-0.602,0.633s-0.255,0.565-0.316,0.905s-0.092,0.691-0.092,1.055v0.264c0,0.369,0.029,0.726,0.088,1.067
		c0.059,0.344,0.163,0.646,0.312,0.906s0.352,0.47,0.606,0.628S370.45,654.404,370.843,654.404z"/>
	<path fill="#010101" d="M379.878,647.979c0.316-0.463,0.702-0.826,1.156-1.09s0.962-0.396,1.525-0.396
		c0.498,0,0.955,0.074,1.371,0.225c0.416,0.148,0.773,0.382,1.072,0.698s0.532,0.723,0.699,1.218s0.25,1.091,0.25,1.788v5.757
		h-2.443v-5.774c0-0.34-0.042-0.633-0.127-0.879s-0.207-0.445-0.365-0.598s-0.349-0.265-0.571-0.339
		c-0.223-0.072-0.475-0.109-0.756-0.109c-0.41,0-0.766,0.073-1.068,0.22s-0.549,0.352-0.743,0.615v6.864h-2.443v-13.5h2.443V647.979
		z"/>
	<path fill="#010101" d="M396.313,658.087h-8.016v-1.907h8.016V658.087z"/>
	<path fill="#010101" d="M401.481,647.979c0.316-0.463,0.702-0.826,1.156-1.09s0.962-0.396,1.525-0.396
		c0.498,0,0.955,0.074,1.371,0.225c0.416,0.148,0.773,0.382,1.072,0.698s0.532,0.723,0.699,1.218s0.25,1.091,0.25,1.788v5.757
		h-2.443v-5.774c0-0.34-0.042-0.633-0.127-0.879s-0.207-0.445-0.365-0.598s-0.349-0.265-0.571-0.339
		c-0.223-0.072-0.475-0.109-0.756-0.109c-0.41,0-0.766,0.073-1.068,0.22s-0.549,0.352-0.743,0.615v6.864h-2.443v-13.5h2.443V647.979
		z"/>
	<path fill="#010101" d="M410.49,646.67h5.177v7.523h2.575v1.986h-7.752v-1.986h2.707v-5.528h-2.707V646.67z M413.021,644.235
		c0-0.188,0.034-0.361,0.101-0.522s0.163-0.299,0.286-0.414c0.123-0.113,0.271-0.203,0.444-0.268s0.365-0.097,0.576-0.097
		c0.434,0,0.778,0.122,1.033,0.364c0.255,0.244,0.382,0.556,0.382,0.937s-0.127,0.693-0.382,0.937s-0.599,0.364-1.033,0.364
		c-0.211,0-0.403-0.032-0.576-0.097s-0.321-0.154-0.444-0.268c-0.123-0.115-0.218-0.252-0.286-0.414
		C413.055,644.598,413.021,644.423,413.021,644.235z"/>
	<path fill="#010101" d="M426.776,653.569c0-0.146-0.034-0.275-0.101-0.387c-0.068-0.111-0.188-0.216-0.361-0.312
		c-0.173-0.098-0.402-0.187-0.689-0.269s-0.65-0.164-1.09-0.246c-0.557-0.111-1.065-0.251-1.525-0.417
		c-0.46-0.168-0.854-0.369-1.182-0.607c-0.328-0.236-0.584-0.511-0.77-0.821c-0.184-0.311-0.276-0.668-0.276-1.072
		c0-0.393,0.094-0.768,0.281-1.125s0.457-0.671,0.809-0.94s0.779-0.483,1.283-0.642s1.072-0.237,1.705-0.237
		c0.662,0,1.257,0.078,1.784,0.232c0.527,0.156,0.974,0.369,1.34,0.643c0.366,0.271,0.646,0.596,0.84,0.971s0.29,0.782,0.29,1.222
		h-2.443c0-0.369-0.149-0.678-0.448-0.927s-0.753-0.374-1.362-0.374c-0.568,0-0.997,0.103-1.288,0.308
		c-0.289,0.205-0.435,0.457-0.435,0.756c0,0.141,0.029,0.271,0.088,0.391c0.059,0.121,0.163,0.229,0.312,0.326
		c0.15,0.096,0.354,0.184,0.611,0.264c0.258,0.078,0.586,0.147,0.984,0.206c0.574,0.094,1.107,0.214,1.6,0.36
		s0.917,0.336,1.274,0.566c0.357,0.232,0.638,0.514,0.839,0.844c0.203,0.332,0.304,0.726,0.304,1.183
		c0,0.422-0.101,0.811-0.304,1.165c-0.201,0.354-0.489,0.66-0.861,0.918s-0.821,0.459-1.349,0.602
		c-0.527,0.144-1.116,0.216-1.767,0.216c-0.715,0-1.347-0.094-1.895-0.281s-1.006-0.432-1.375-0.733s-0.649-0.645-0.84-1.029
		c-0.19-0.383-0.285-0.769-0.285-1.155h2.329c0.018,0.258,0.088,0.479,0.211,0.663c0.123,0.186,0.281,0.334,0.475,0.449
		c0.193,0.113,0.414,0.197,0.663,0.25s0.506,0.079,0.77,0.079c0.604,0,1.063-0.097,1.38-0.29S426.776,653.874,426.776,653.569z"/>
	<path fill="#010101" d="M435.926,644.341v2.329h3.551v1.802h-3.551v4.087c0,0.346,0.04,0.635,0.118,0.865
		c0.08,0.232,0.192,0.417,0.339,0.555s0.323,0.235,0.532,0.294c0.207,0.059,0.44,0.088,0.698,0.088c0.188,0,0.379-0.009,0.575-0.026
		s0.384-0.039,0.562-0.066c0.179-0.025,0.346-0.054,0.502-0.083c0.154-0.029,0.288-0.059,0.399-0.088l0.237,1.679
		c-0.17,0.1-0.369,0.187-0.598,0.26s-0.472,0.133-0.729,0.18s-0.526,0.084-0.804,0.109c-0.279,0.027-0.553,0.04-0.822,0.04
		c-0.521,0-0.995-0.069-1.42-0.206c-0.425-0.138-0.788-0.352-1.09-0.643c-0.302-0.289-0.534-0.658-0.698-1.107
		c-0.164-0.447-0.246-0.985-0.246-1.612v-4.324h-2.171v-1.802h2.171v-2.329H435.926z"/>
	<path fill="#010101" d="M441.911,651.337c0-0.691,0.1-1.331,0.299-1.921c0.199-0.588,0.49-1.1,0.874-1.533s0.854-0.773,1.406-1.02
		c0.555-0.246,1.188-0.369,1.903-0.369s1.351,0.123,1.907,0.369s1.026,0.586,1.41,1.02s0.676,0.945,0.875,1.533
		c0.199,0.59,0.299,1.229,0.299,1.921v0.185c0,0.697-0.1,1.34-0.299,1.93c-0.199,0.588-0.489,1.1-0.87,1.533
		s-0.85,0.772-1.406,1.016c-0.557,0.242-1.189,0.364-1.898,0.364c-0.715,0-1.353-0.122-1.911-0.364
		c-0.561-0.243-1.032-0.582-1.416-1.016s-0.675-0.945-0.874-1.533c-0.199-0.59-0.299-1.232-0.299-1.93V651.337z M444.354,651.521
		c0,0.398,0.038,0.772,0.114,1.121s0.196,0.653,0.36,0.914s0.376,0.467,0.638,0.619c0.26,0.152,0.575,0.229,0.944,0.229
		c0.357,0,0.665-0.076,0.923-0.229s0.467-0.358,0.629-0.619c0.16-0.261,0.279-0.565,0.355-0.914s0.114-0.723,0.114-1.121v-0.185
		c0-0.387-0.038-0.753-0.114-1.099s-0.195-0.65-0.355-0.914c-0.162-0.264-0.371-0.472-0.629-0.624s-0.571-0.229-0.94-0.229
		c-0.363,0-0.674,0.076-0.932,0.229s-0.469,0.36-0.633,0.624s-0.284,0.568-0.36,0.914s-0.114,0.712-0.114,1.099V651.521z"/>
	<path fill="#010101" d="M459.876,646.494c0.369,0,0.71,0.025,1.023,0.074c0.313,0.051,0.567,0.104,0.761,0.163l-0.36,2.435
		c-0.322-0.076-0.652-0.133-0.988-0.172c-0.338-0.037-0.658-0.057-0.963-0.057c-0.686,0-1.234,0.132-1.648,0.396
		c-0.412,0.264-0.722,0.642-0.927,1.134v5.713h-2.443v-9.51h2.276l0.114,1.556c0.387-0.539,0.85-0.962,1.389-1.271
		C458.648,646.648,459.237,646.494,459.876,646.494z"/>
	<path fill="#010101" d="M467.9,652.189l0.281,1.02l2.531-6.539h2.698l-4.825,10.934c-0.105,0.24-0.242,0.501-0.408,0.782
		c-0.168,0.281-0.377,0.542-0.629,0.782s-0.559,0.442-0.918,0.606c-0.361,0.164-0.787,0.246-1.279,0.246
		c-0.117,0-0.226-0.005-0.325-0.013c-0.1-0.01-0.196-0.021-0.29-0.035c-0.094-0.016-0.187-0.033-0.277-0.053
		c-0.091-0.021-0.188-0.046-0.294-0.075l0.299-1.863c0.1,0,0.227,0.005,0.382,0.013c0.155,0.01,0.28,0.014,0.374,0.014
		c0.193,0,0.364-0.059,0.515-0.176c0.148-0.117,0.276-0.246,0.382-0.387s0.19-0.27,0.255-0.387s0.108-0.176,0.132-0.176l0.589-1.107
		l-4.025-9.105h2.672L467.9,652.189z"/>
</g>
<g>
	<rect x="274.207" y="354.387" fill="none" width="257.986" height="50.979"/>
	<path fill="#010101" d="M293.385,367.887v-7.708h-2.496v-1.802h2.496v-0.519c0-0.627,0.1-1.181,0.299-1.661
		s0.483-0.885,0.853-1.213s0.817-0.576,1.345-0.743s1.116-0.25,1.767-0.25c0.205,0,0.403,0.007,0.593,0.022s0.376,0.034,0.558,0.057
		s0.365,0.05,0.549,0.079s0.376,0.062,0.576,0.097l-0.158,1.916c-0.223-0.047-0.475-0.088-0.756-0.123s-0.612-0.053-0.993-0.053
		c-0.762,0-1.315,0.161-1.661,0.483s-0.519,0.785-0.519,1.389v0.519h3.428v1.802h-3.428v7.708H293.385z"/>
	<path fill="#010101" d="M306.437,368.062c-0.732,0-1.397-0.12-1.995-0.36s-1.11-0.567-1.538-0.98s-0.757-0.899-0.989-1.459
		s-0.347-1.159-0.347-1.797v-0.352c0-0.727,0.114-1.39,0.343-1.991s0.548-1.118,0.958-1.551s0.896-0.771,1.459-1.011
		s1.175-0.36,1.837-0.36c0.686,0,1.296,0.113,1.833,0.338s0.99,0.543,1.362,0.954s0.655,0.904,0.848,1.481s0.29,1.214,0.29,1.912
		v1.037h-6.451c0.047,0.322,0.142,0.617,0.286,0.883s0.327,0.497,0.549,0.69s0.478,0.343,0.765,0.448s0.601,0.158,0.94,0.158
		c0.24,0,0.479-0.023,0.716-0.07s0.464-0.116,0.681-0.207s0.419-0.204,0.606-0.338s0.352-0.293,0.492-0.475l1.222,1.318
		c-0.152,0.217-0.35,0.429-0.593,0.637s-0.53,0.393-0.861,0.553c-0.331,0.162-0.699,0.292-1.103,0.392
		S306.905,368.062,306.437,368.062z M306.146,360.179c-0.275,0-0.527,0.048-0.756,0.145s-0.429,0.236-0.602,0.417
		s-0.318,0.398-0.435,0.65s-0.205,0.533-0.264,0.844h4.008v-0.193c-0.012-0.258-0.062-0.501-0.149-0.729s-0.214-0.426-0.378-0.593
		s-0.365-0.299-0.602-0.396S306.457,360.179,306.146,360.179z"/>
	<path fill="#010101" d="M317.106,356.048v2.329h3.551v1.802h-3.551v4.087c0,0.346,0.04,0.634,0.119,0.866s0.192,0.416,0.338,0.554
		s0.324,0.236,0.532,0.294s0.441,0.088,0.699,0.088c0.188,0,0.379-0.009,0.576-0.026s0.384-0.04,0.562-0.066
		s0.346-0.054,0.501-0.083s0.289-0.059,0.4-0.088l0.237,1.679c-0.17,0.1-0.369,0.186-0.598,0.26
		c-0.229,0.072-0.472,0.133-0.729,0.18s-0.526,0.084-0.804,0.109c-0.278,0.027-0.552,0.04-0.822,0.04
		c-0.521,0-0.995-0.069-1.419-0.206c-0.425-0.139-0.788-0.352-1.09-0.642c-0.302-0.29-0.535-0.659-0.699-1.107
		s-0.246-0.986-0.246-1.613v-4.324h-2.171v-1.802h2.171v-2.329H317.106z"/>
	<path fill="#010101" d="M327.636,366.111c0.24,0,0.469-0.035,0.686-0.105s0.407-0.17,0.571-0.299s0.292-0.284,0.382-0.466
		s0.13-0.384,0.119-0.606h2.303c0.012,0.492-0.089,0.949-0.303,1.371s-0.505,0.785-0.875,1.09s-0.798,0.543-1.288,0.717
		c-0.489,0.172-1.006,0.259-1.551,0.259c-0.738,0-1.386-0.125-1.942-0.374c-0.557-0.248-1.021-0.59-1.393-1.023
		s-0.653-0.942-0.844-1.525s-0.286-1.208-0.286-1.876v-0.264c0-0.668,0.094-1.293,0.281-1.876s0.469-1.091,0.844-1.525
		s0.839-0.776,1.393-1.028s1.197-0.378,1.929-0.378c0.586,0,1.128,0.088,1.626,0.264s0.927,0.423,1.288,0.743s0.64,0.706,0.839,1.16
		s0.293,0.962,0.281,1.525h-2.303c0.012-0.234-0.023-0.457-0.105-0.668s-0.202-0.393-0.36-0.545s-0.349-0.274-0.571-0.365
		s-0.466-0.136-0.729-0.136c-0.387,0-0.706,0.079-0.958,0.237s-0.453,0.369-0.602,0.633s-0.255,0.565-0.316,0.905
		s-0.092,0.691-0.092,1.055v0.264c0,0.369,0.029,0.725,0.088,1.068s0.163,0.645,0.312,0.905s0.352,0.47,0.606,0.628
		S327.243,366.111,327.636,366.111z"/>
	<path fill="#010101" d="M336.671,359.687c0.316-0.463,0.702-0.826,1.156-1.09s0.962-0.396,1.525-0.396
		c0.498,0,0.955,0.075,1.371,0.224s0.773,0.382,1.072,0.699s0.532,0.722,0.699,1.217s0.25,1.091,0.25,1.789v5.757h-2.443v-5.774
		c0-0.34-0.042-0.633-0.127-0.879s-0.207-0.445-0.365-0.598s-0.349-0.265-0.571-0.338s-0.475-0.11-0.756-0.11
		c-0.41,0-0.766,0.073-1.068,0.22s-0.549,0.352-0.743,0.615v6.864h-2.443v-13.5h2.443V359.687z"/>
	<path fill="#010101" d="M353.106,369.794h-8.016v-1.907h8.016V369.794z"/>
	<path fill="#010101" d="M364.4,363.229c0,0.709-0.078,1.359-0.233,1.951s-0.388,1.102-0.699,1.529s-0.697,0.76-1.16,0.998
		c-0.463,0.236-1.002,0.355-1.617,0.355c-0.557,0-1.039-0.104-1.446-0.312c-0.407-0.207-0.757-0.499-1.05-0.874l-0.114,1.011h-2.197
		v-13.5h2.443v4.852c0.281-0.328,0.614-0.583,0.998-0.765s0.833-0.272,1.349-0.272c0.621,0,1.165,0.12,1.63,0.36
		s0.854,0.574,1.165,1.002s0.543,0.939,0.699,1.534s0.233,1.244,0.233,1.947V363.229z M361.957,363.044
		c0-0.387-0.029-0.753-0.088-1.099s-0.16-0.649-0.303-0.91s-0.338-0.467-0.584-0.62s-0.554-0.229-0.923-0.229
		c-0.445,0-0.807,0.094-1.085,0.281s-0.494,0.445-0.646,0.773v3.788c0.152,0.328,0.368,0.586,0.646,0.773s0.646,0.281,1.103,0.281
		c0.369,0,0.674-0.072,0.914-0.215s0.432-0.343,0.576-0.598s0.245-0.557,0.303-0.905s0.088-0.728,0.088-1.138V363.044z"/>
	<path fill="#010101" d="M367.143,354.387h5.317V365.9h2.725v1.986h-8.042V365.9h2.848v-9.519h-2.848V354.387z"/>
	<path fill="#010101" d="M377.101,363.044c0-0.691,0.1-1.332,0.299-1.92s0.491-1.1,0.875-1.534s0.853-0.773,1.406-1.02
		s1.188-0.369,1.903-0.369s1.351,0.123,1.907,0.369s1.027,0.586,1.411,1.02s0.675,0.945,0.875,1.534s0.299,1.229,0.299,1.92v0.185
		c0,0.697-0.1,1.34-0.299,1.929s-0.489,1.1-0.87,1.534s-0.85,0.771-1.406,1.016c-0.557,0.242-1.189,0.364-1.898,0.364
		c-0.715,0-1.352-0.122-1.912-0.364c-0.56-0.244-1.031-0.582-1.415-1.016s-0.675-0.945-0.875-1.534s-0.299-1.232-0.299-1.929
		V363.044z M379.544,363.229c0,0.398,0.038,0.772,0.114,1.121s0.196,0.653,0.36,0.914s0.376,0.467,0.637,0.62
		s0.576,0.229,0.945,0.229c0.357,0,0.665-0.076,0.923-0.229s0.467-0.359,0.628-0.62s0.28-0.565,0.356-0.914s0.114-0.722,0.114-1.121
		v-0.185c0-0.387-0.038-0.753-0.114-1.099s-0.195-0.65-0.356-0.914s-0.371-0.472-0.628-0.624s-0.571-0.229-0.94-0.229
		c-0.363,0-0.674,0.076-0.932,0.229s-0.469,0.36-0.633,0.624s-0.284,0.568-0.36,0.914s-0.114,0.712-0.114,1.099V363.229z"/>
	<path fill="#010101" d="M392.446,366.111c0.24,0,0.469-0.035,0.686-0.105s0.407-0.17,0.571-0.299s0.292-0.284,0.382-0.466
		s0.13-0.384,0.119-0.606h2.303c0.012,0.492-0.089,0.949-0.303,1.371s-0.505,0.785-0.875,1.09s-0.798,0.543-1.288,0.717
		c-0.489,0.172-1.006,0.259-1.551,0.259c-0.738,0-1.386-0.125-1.942-0.374c-0.557-0.248-1.021-0.59-1.393-1.023
		s-0.653-0.942-0.844-1.525s-0.286-1.208-0.286-1.876v-0.264c0-0.668,0.094-1.293,0.281-1.876s0.469-1.091,0.844-1.525
		s0.839-0.776,1.393-1.028s1.197-0.378,1.929-0.378c0.586,0,1.128,0.088,1.626,0.264s0.927,0.423,1.288,0.743s0.64,0.706,0.839,1.16
		s0.293,0.962,0.281,1.525h-2.303c0.012-0.234-0.023-0.457-0.105-0.668s-0.202-0.393-0.36-0.545s-0.349-0.274-0.571-0.365
		s-0.466-0.136-0.729-0.136c-0.387,0-0.706,0.079-0.958,0.237s-0.453,0.369-0.602,0.633s-0.255,0.565-0.316,0.905
		s-0.092,0.691-0.092,1.055v0.264c0,0.369,0.029,0.725,0.088,1.068s0.163,0.645,0.312,0.905s0.352,0.47,0.606,0.628
		S392.054,366.111,392.446,366.111z"/>
	<path fill="#010101" d="M402.615,363.958l-1.107,1.028v2.9h-2.443v-13.5h2.443v7.717l0.738-0.844l2.628-2.883h2.936l-3.586,3.964
		l4.087,5.546h-2.997L402.615,363.958z"/>
	<path fill="#010101" d="M417.917,369.794h-8.016v-1.907h8.016V369.794z"/>
	<path fill="#010101" d="M425.124,356.048v2.329h3.551v1.802h-3.551v4.087c0,0.346,0.04,0.634,0.118,0.866
		c0.08,0.231,0.192,0.416,0.339,0.554s0.323,0.236,0.532,0.294c0.207,0.059,0.44,0.088,0.698,0.088c0.188,0,0.379-0.009,0.575-0.026
		s0.384-0.04,0.562-0.066s0.346-0.054,0.502-0.083c0.154-0.029,0.288-0.059,0.399-0.088l0.237,1.679
		c-0.17,0.1-0.369,0.186-0.598,0.26c-0.229,0.072-0.472,0.133-0.729,0.18s-0.526,0.084-0.804,0.109
		c-0.279,0.027-0.553,0.04-0.822,0.04c-0.521,0-0.995-0.069-1.42-0.206c-0.425-0.139-0.788-0.352-1.09-0.642
		c-0.302-0.29-0.534-0.659-0.698-1.107s-0.246-0.986-0.246-1.613v-4.324h-2.171v-1.802h2.171v-2.329H425.124z"/>
	<path fill="#010101" d="M435.794,361.348l2.092-2.971h2.628l-3.19,4.667l3.305,4.843h-2.637l-2.188-3.111l-2.171,3.111h-2.646
		l3.305-4.843l-3.182-4.667h2.628L435.794,361.348z"/>
	<path fill="#010101" d="M450.322,369.794h-8.016v-1.907h8.016V369.794z"/>
	<path fill="#010101" d="M455.49,359.687c0.316-0.463,0.701-0.826,1.155-1.09s0.963-0.396,1.525-0.396
		c0.498,0,0.955,0.075,1.371,0.224s0.773,0.382,1.072,0.699s0.531,0.722,0.699,1.217c0.166,0.495,0.25,1.091,0.25,1.789v5.757
		h-2.443v-5.774c0-0.34-0.043-0.633-0.127-0.879c-0.086-0.246-0.207-0.445-0.365-0.598s-0.349-0.265-0.571-0.338
		s-0.475-0.11-0.756-0.11c-0.41,0-0.767,0.073-1.067,0.22c-0.303,0.146-0.55,0.352-0.743,0.615v6.864h-2.443v-13.5h2.443V359.687z"
		/>
	<path fill="#010101" d="M469.79,367.887c-0.059-0.117-0.108-0.252-0.149-0.404s-0.076-0.313-0.105-0.483
		c-0.135,0.146-0.29,0.284-0.466,0.413s-0.371,0.242-0.585,0.338c-0.214,0.098-0.449,0.173-0.707,0.229s-0.536,0.084-0.835,0.084
		c-0.486,0-0.934-0.07-1.341-0.211s-0.757-0.337-1.05-0.589s-0.521-0.552-0.686-0.901s-0.246-0.728-0.246-1.138
		c0-1.002,0.374-1.777,1.12-2.325c0.748-0.548,1.862-0.822,3.345-0.822h1.362v-0.562c0-0.457-0.149-0.819-0.448-1.085
		s-0.729-0.4-1.292-0.4c-0.498,0-0.861,0.107-1.09,0.321s-0.343,0.5-0.343,0.857h-2.443c0-0.404,0.089-0.788,0.269-1.151
		c0.178-0.363,0.439-0.683,0.781-0.958c0.344-0.275,0.762-0.494,1.258-0.655c0.494-0.161,1.062-0.242,1.7-0.242
		c0.574,0,1.108,0.07,1.604,0.211c0.494,0.141,0.924,0.349,1.287,0.624s0.647,0.623,0.853,1.042s0.308,0.904,0.308,1.455v4.078
		c0,0.51,0.032,0.932,0.097,1.266s0.158,0.621,0.281,0.861v0.149H469.79z M467.461,366.173c0.246,0,0.475-0.029,0.686-0.088
		s0.401-0.135,0.571-0.229s0.316-0.201,0.439-0.321s0.22-0.242,0.29-0.365v-1.635h-1.248c-0.381,0-0.706,0.037-0.976,0.11
		s-0.489,0.176-0.659,0.308s-0.296,0.29-0.378,0.475s-0.123,0.385-0.123,0.602c0,0.328,0.115,0.601,0.347,0.817
		S466.992,366.173,467.461,366.173z"/>
	<path fill="#010101" d="M480.785,365.276c0-0.146-0.034-0.275-0.101-0.387c-0.068-0.111-0.188-0.215-0.361-0.312
		s-0.402-0.186-0.689-0.268s-0.65-0.164-1.09-0.246c-0.557-0.111-1.065-0.25-1.525-0.417s-0.854-0.369-1.182-0.606
		s-0.584-0.511-0.77-0.822c-0.184-0.311-0.276-0.668-0.276-1.072c0-0.393,0.094-0.768,0.281-1.125s0.457-0.671,0.809-0.94
		s0.779-0.483,1.283-0.642s1.072-0.237,1.705-0.237c0.662,0,1.257,0.078,1.784,0.233s0.974,0.369,1.34,0.642s0.646,0.596,0.84,0.971
		s0.29,0.782,0.29,1.222h-2.443c0-0.369-0.149-0.678-0.448-0.927s-0.753-0.374-1.362-0.374c-0.568,0-0.997,0.103-1.288,0.308
		c-0.289,0.205-0.435,0.457-0.435,0.756c0,0.141,0.029,0.271,0.088,0.391s0.163,0.229,0.312,0.325
		c0.15,0.097,0.354,0.185,0.611,0.264s0.586,0.148,0.984,0.207c0.574,0.094,1.107,0.214,1.6,0.36s0.917,0.335,1.274,0.567
		s0.638,0.513,0.839,0.844c0.203,0.331,0.304,0.725,0.304,1.182c0,0.422-0.101,0.81-0.304,1.165
		c-0.201,0.354-0.489,0.661-0.861,0.918s-0.821,0.459-1.349,0.602c-0.527,0.144-1.116,0.216-1.767,0.216
		c-0.715,0-1.347-0.094-1.895-0.281s-1.006-0.433-1.375-0.734c-0.369-0.302-0.649-0.645-0.84-1.028s-0.285-0.769-0.285-1.156h2.329
		c0.018,0.258,0.088,0.479,0.211,0.664s0.281,0.334,0.475,0.448s0.414,0.198,0.663,0.25s0.506,0.079,0.77,0.079
		c0.604,0,1.063-0.097,1.38-0.29S480.785,365.581,480.785,365.276z"/>
	<path fill="#010101" d="M487.896,359.687c0.316-0.463,0.701-0.826,1.155-1.09s0.963-0.396,1.525-0.396
		c0.498,0,0.955,0.075,1.371,0.224s0.773,0.382,1.072,0.699s0.531,0.722,0.699,1.217c0.166,0.495,0.25,1.091,0.25,1.789v5.757
		h-2.443v-5.774c0-0.34-0.043-0.633-0.127-0.879c-0.086-0.246-0.207-0.445-0.365-0.598s-0.349-0.265-0.571-0.338
		s-0.475-0.11-0.756-0.11c-0.41,0-0.767,0.073-1.067,0.22c-0.303,0.146-0.55,0.352-0.743,0.615v6.864h-2.443v-13.5h2.443V359.687z"
		/>
	<path fill="#010101" d="M500.868,368.062c-0.732,0-1.397-0.12-1.995-0.36s-1.11-0.567-1.538-0.98s-0.758-0.899-0.988-1.459
		c-0.232-0.56-0.348-1.159-0.348-1.797v-0.352c0-0.727,0.114-1.39,0.343-1.991s0.548-1.118,0.958-1.551s0.896-0.771,1.459-1.011
		s1.175-0.36,1.837-0.36c0.686,0,1.296,0.113,1.833,0.338c0.535,0.226,0.989,0.543,1.361,0.954s0.655,0.904,0.849,1.481
		s0.29,1.214,0.29,1.912v1.037h-6.451c0.047,0.322,0.142,0.617,0.285,0.883s0.327,0.497,0.55,0.69s0.478,0.343,0.765,0.448
		s0.601,0.158,0.94,0.158c0.24,0,0.479-0.023,0.716-0.07c0.238-0.047,0.465-0.116,0.682-0.207s0.419-0.204,0.606-0.338
		s0.352-0.293,0.492-0.475l1.222,1.318c-0.152,0.217-0.351,0.429-0.594,0.637s-0.53,0.393-0.861,0.553
		c-0.331,0.162-0.698,0.292-1.103,0.392S501.337,368.062,500.868,368.062z M500.578,360.179c-0.275,0-0.527,0.048-0.756,0.145
		s-0.43,0.236-0.603,0.417s-0.317,0.398-0.435,0.65s-0.205,0.533-0.264,0.844h4.008v-0.193c-0.012-0.258-0.062-0.501-0.149-0.729
		s-0.214-0.426-0.378-0.593s-0.364-0.299-0.603-0.396C501.163,360.227,500.889,360.179,500.578,360.179z"/>
	<path fill="#010101" d="M513.19,365.276c0-0.146-0.034-0.275-0.101-0.387c-0.068-0.111-0.188-0.215-0.361-0.312
		s-0.402-0.186-0.689-0.268s-0.65-0.164-1.09-0.246c-0.557-0.111-1.065-0.25-1.525-0.417s-0.854-0.369-1.182-0.606
		s-0.584-0.511-0.77-0.822c-0.184-0.311-0.276-0.668-0.276-1.072c0-0.393,0.094-0.768,0.281-1.125s0.457-0.671,0.809-0.94
		s0.779-0.483,1.283-0.642s1.072-0.237,1.705-0.237c0.662,0,1.257,0.078,1.784,0.233s0.974,0.369,1.34,0.642s0.646,0.596,0.84,0.971
		s0.29,0.782,0.29,1.222h-2.443c0-0.369-0.149-0.678-0.448-0.927s-0.753-0.374-1.362-0.374c-0.568,0-0.997,0.103-1.288,0.308
		c-0.289,0.205-0.435,0.457-0.435,0.756c0,0.141,0.029,0.271,0.088,0.391s0.163,0.229,0.312,0.325
		c0.15,0.097,0.354,0.185,0.611,0.264s0.586,0.148,0.984,0.207c0.574,0.094,1.107,0.214,1.6,0.36s0.917,0.335,1.274,0.567
		s0.638,0.513,0.839,0.844c0.203,0.331,0.304,0.725,0.304,1.182c0,0.422-0.101,0.81-0.304,1.165
		c-0.201,0.354-0.489,0.661-0.861,0.918s-0.821,0.459-1.349,0.602c-0.527,0.144-1.116,0.216-1.767,0.216
		c-0.715,0-1.347-0.094-1.895-0.281s-1.006-0.433-1.375-0.734c-0.369-0.302-0.649-0.645-0.84-1.028s-0.285-0.769-0.285-1.156h2.329
		c0.018,0.258,0.088,0.479,0.211,0.664s0.281,0.334,0.475,0.448s0.414,0.198,0.663,0.25s0.506,0.079,0.77,0.079
		c0.604,0,1.063-0.097,1.38-0.29S513.19,365.581,513.19,365.276z"/>
</g>
<g opacity="0.55">
	<g>
		<line fill="none" stroke="#010101" stroke-miterlimit="10" x1="271.761" y1="672.101" x2="533.73" y2="672.101"/>
		<g>
			<polygon fill="#010101" points="264.7,672.101 274.649,676.166 272.289,672.101 274.649,668.036 			"/>
		</g>
		<g>
			<polygon fill="#010101" points="530.921,675.804 532.495,672.101 530.921,668.397 539.7,672.101 			"/>
		</g>
	</g>
</g>
<g opacity="0.55">
	<g>
		<line fill="none" stroke="#010101" stroke-miterlimit="10" x1="271.761" y1="529.088" x2="532.639" y2="529.088"/>
		<g>
			<polygon fill="#010101" points="264.7,529.088 274.649,533.153 272.289,529.088 274.649,525.023 			"/>
		</g>
		<g>
			<polygon fill="#010101" points="539.7,529.088 529.75,533.153 532.111,529.088 529.75,525.023 			"/>
		</g>
	</g>
</g>
<g>
	<g>
		<line fill="none" stroke="#010101" stroke-miterlimit="10" x1="271.761" y1="386.076" x2="532.639" y2="386.076"/>
		<g>
			<polygon fill="#010101" points="264.7,386.076 274.649,390.142 272.289,386.076 274.649,382.012 			"/>
		</g>
		<g>
			<polygon fill="#010101" points="539.7,386.076 529.75,390.142 532.111,386.076 529.75,382.012 			"/>
		</g>
	</g>
</g>
<g>
	<path fill="none" d="M590.846,406.057"/>
</g>
<g>
	<circle fill="#010101" cx="651.317" cy="364.052" r="2"/>
	<circle fill="#010101" cx="651.317" cy="335.607" r="2"/>
	<circle fill="#010101" cx="651.317" cy="320.363" r="2"/>
	<circle fill="#010101" cx="651.317" cy="291.919" r="2"/>
	<circle fill="#010101" cx="631.317" cy="348.33" r="2"/>
	<circle fill="#010101" cx="613.298" cy="327.136" r="2"/>
	<circle fill="#010101" cx="631.317" cy="306.685" r="2"/>
	<line fill="#FFFFFF" stroke="#010101" stroke-miterlimit="10" x1="651.317" y1="364.052" x2="631.317" y2="348.33"/>
	<line fill="#FFFFFF" stroke="#010101" stroke-miterlimit="10" x1="613.298" y1="327.136" x2="631.317" y2="348.33"/>
	<line fill="#FFFFFF" stroke="#010101" stroke-miterlimit="10" x1="613.298" y1="327.136" x2="631.317" y2="306.685"/>
	<line fill="#FFFFFF" stroke="#010101" stroke-miterlimit="10" x1="651.317" y1="335.607" x2="631.317" y2="348.33"/>
	<line fill="#FFFFFF" stroke="#010101" stroke-miterlimit="10" x1="651.317" y1="320.363" x2="631.317" y2="306.686"/>
	<line fill="#FFFFFF" stroke="#010101" stroke-miterlimit="10" x1="651.317" y1="291.919" x2="631.317" y2="306.685"/>
</g>
<g>
	<rect x="690.703" y="438.907" fill="none" width="58.249" height="13.083"/>
	<path fill="#010101" d="M699.499,441.17h-3.288v8.987h-2.066v-8.987H690.9v-1.677h8.599V441.17z"/>
	<path fill="#010101" d="M704.274,443.316l1.897-3.823h2.416l-3.002,5.288l3.076,5.376h-2.402l-1.956-3.882l-1.948,3.882h-2.432
		l3.076-5.376l-2.996-5.288h2.402L704.274,443.316z"/>
	<path fill="#010101" d="M714.727,450.157h-2.059v-8.181l-2.695,0.967v-1.773l4.644-1.677h0.11V450.157z"/>
</g>
<g>
	<circle fill="#010101" cx="651.317" cy="489.137" r="2"/>
	<circle fill="#010101" cx="651.317" cy="460.693" r="2"/>
	<circle fill="#010101" cx="651.317" cy="445.449" r="2"/>
	<circle fill="#010101" cx="651.317" cy="417.004" r="2"/>
	<circle fill="#010101" cx="631.317" cy="473.416" r="2"/>
	<circle fill="#010101" cx="613.298" cy="452.221" r="2"/>
	<circle fill="#010101" cx="631.317" cy="431.77" r="2"/>
	<line fill="#FFFFFF" stroke="#010101" stroke-miterlimit="10" x1="651.317" y1="489.137" x2="631.317" y2="473.416"/>
	<line fill="#FFFFFF" stroke="#010101" stroke-miterlimit="10" x1="613.298" y1="452.221" x2="631.317" y2="473.416"/>
	<line fill="#FFFFFF" stroke="#010101" stroke-miterlimit="10" x1="613.298" y1="452.221" x2="631.317" y2="431.77"/>
	<line fill="#FFFFFF" stroke="#010101" stroke-miterlimit="10" x1="651.317" y1="460.693" x2="631.317" y2="473.416"/>
	<line fill="#FFFFFF" stroke="#010101" stroke-miterlimit="10" x1="651.317" y1="445.449" x2="631.317" y2="431.771"/>
	<line fill="#FFFFFF" stroke="#010101" stroke-miterlimit="10" x1="651.317" y1="417.004" x2="631.317" y2="431.77"/>
</g>
<g>
	<circle fill="#010101" cx="651.317" cy="614.887" r="2"/>
	<circle fill="#010101" cx="651.317" cy="586.442" r="2"/>
	<circle fill="#010101" cx="651.317" cy="571.198" r="2"/>
	<circle fill="#010101" cx="651.317" cy="542.754" r="2"/>
	<circle fill="#010101" cx="631.317" cy="599.165" r="2"/>
	<circle fill="#010101" cx="613.298" cy="577.971" r="2"/>
	<circle fill="#010101" cx="631.317" cy="557.52" r="2"/>
	<line fill="#FFFFFF" stroke="#010101" stroke-miterlimit="10" x1="651.317" y1="614.887" x2="631.317" y2="599.165"/>
	<line fill="#FFFFFF" stroke="#010101" stroke-miterlimit="10" x1="613.298" y1="577.971" x2="631.317" y2="599.165"/>
	<line fill="#FFFFFF" stroke="#010101" stroke-miterlimit="10" x1="613.298" y1="577.971" x2="631.317" y2="557.52"/>
	<line fill="#FFFFFF" stroke="#010101" stroke-miterlimit="10" x1="651.317" y1="586.442" x2="631.317" y2="599.165"/>
	<line fill="#FFFFFF" stroke="#010101" stroke-miterlimit="10" x1="651.317" y1="571.198" x2="631.317" y2="557.521"/>
	<line fill="#FFFFFF" stroke="#010101" stroke-miterlimit="10" x1="651.317" y1="542.754" x2="631.317" y2="557.52"/>
</g>
<g>
	<g>
		
			<line fill="none" stroke="#010101" stroke-width="0.5" stroke-miterlimit="10" x1="660.107" y1="291.919" x2="686.327" y2="291.919"/>
		<g>
			<polygon fill="#010101" points="656.577,291.919 661.552,293.952 660.371,291.919 661.552,289.887 			"/>
		</g>
	</g>
</g>
<g>
	<g>
		
			<line fill="none" stroke="#010101" stroke-width="0.5" stroke-miterlimit="10" x1="660.107" y1="445.449" x2="686.327" y2="445.449"/>
		<g>
			<polygon fill="#010101" points="656.577,445.449 661.552,447.482 660.371,445.449 661.552,443.417 			"/>
		</g>
	</g>
</g>
<g>
	<rect x="690.703" y="565.521" fill="none" width="58.249" height="13.084"/>
	<path fill="#010101" d="M699.499,567.785h-3.288v8.987h-2.066v-8.987H690.9v-1.677h8.599V567.785z"/>
	<path fill="#010101" d="M704.274,569.932l1.897-3.823h2.416l-3.002,5.288l3.076,5.376h-2.402l-1.956-3.882l-1.948,3.882h-2.432
		l3.076-5.376l-2.996-5.288h2.402L704.274,569.932z"/>
	<path fill="#010101" d="M716.682,572.715c0,0.688-0.08,1.295-0.238,1.82s-0.387,0.965-0.685,1.318s-0.661,0.621-1.091,0.802
		s-0.914,0.271-1.451,0.271c-0.531,0-1.013-0.09-1.442-0.271s-0.794-0.448-1.095-0.802s-0.533-0.793-0.695-1.318
		c-0.164-0.525-0.246-1.132-0.246-1.82v-2.549c0-0.688,0.08-1.295,0.242-1.82c0.16-0.524,0.391-0.964,0.691-1.318
		c0.301-0.354,0.664-0.621,1.092-0.802c0.427-0.181,0.906-0.271,1.439-0.271c0.537,0,1.02,0.09,1.449,0.271s0.795,0.448,1.096,0.802
		c0.301,0.354,0.531,0.794,0.691,1.318c0.162,0.525,0.242,1.132,0.242,1.82V572.715z M711.789,571.836l2.842-2.117
		c-0.015-0.717-0.139-1.25-0.373-1.596c-0.234-0.348-0.586-0.521-1.055-0.521c-0.475,0-0.828,0.183-1.062,0.55
		c-0.234,0.365-0.352,0.93-0.352,1.691V571.836z M714.631,571.104l-2.842,2.109c0.024,0.703,0.154,1.225,0.389,1.563
		c0.234,0.34,0.58,0.509,1.039,0.509c0.479,0,0.834-0.186,1.066-0.557c0.231-0.371,0.348-0.939,0.348-1.706V571.104z"/>
</g>
<g>
	<g>
		
			<line fill="none" stroke="#010101" stroke-width="0.5" stroke-miterlimit="10" x1="660.107" y1="571.223" x2="686.327" y2="571.223"/>
		<g>
			<polygon fill="#010101" points="656.577,571.223 661.552,573.256 660.371,571.223 661.552,569.19 			"/>
		</g>
	</g>
</g>
<g>
	<rect x="539.7" y="159.784" fill="none" width="206.299" height="36.933"/>
	<path fill="#010101" d="M596.637,169.944c0-0.229-0.04-0.442-0.119-0.642s-0.214-0.385-0.404-0.558s-0.439-0.331-0.747-0.475
		s-0.69-0.277-1.147-0.4c-0.557-0.152-1.088-0.343-1.595-0.571s-0.954-0.504-1.34-0.826s-0.696-0.697-0.927-1.125
		s-0.347-0.92-0.347-1.477c0-0.539,0.114-1.028,0.343-1.468s0.545-0.814,0.949-1.125s0.882-0.549,1.433-0.716s1.148-0.25,1.793-0.25
		c0.668,0,1.279,0.097,1.833,0.29s1.03,0.464,1.428,0.813s0.709,0.763,0.932,1.244s0.334,1.008,0.334,1.582h-2.408
		c-0.012-0.287-0.063-0.551-0.154-0.791s-0.226-0.447-0.404-0.62s-0.401-0.308-0.668-0.404s-0.579-0.145-0.936-0.145
		c-0.328,0-0.62,0.04-0.875,0.119s-0.47,0.19-0.646,0.334s-0.309,0.313-0.4,0.51s-0.136,0.409-0.136,0.637
		c0,0.24,0.06,0.457,0.18,0.65s0.294,0.368,0.523,0.523s0.505,0.297,0.831,0.426s0.693,0.249,1.103,0.36
		c0.586,0.17,1.125,0.378,1.617,0.624s0.916,0.538,1.27,0.875s0.63,0.721,0.826,1.151s0.294,0.91,0.294,1.437
		c0,0.562-0.113,1.062-0.338,1.499s-0.538,0.806-0.936,1.107c-0.398,0.301-0.873,0.53-1.424,0.686
		c-0.551,0.154-1.151,0.232-1.802,0.232c-0.404,0-0.807-0.037-1.208-0.11s-0.785-0.186-1.151-0.338s-0.708-0.343-1.024-0.571
		s-0.59-0.495-0.822-0.8s-0.413-0.65-0.545-1.037s-0.198-0.814-0.198-1.283h2.426c0.012,0.387,0.079,0.718,0.202,0.993
		s0.294,0.501,0.514,0.677s0.483,0.305,0.791,0.387s0.646,0.123,1.015,0.123c0.328,0,0.62-0.038,0.875-0.114s0.47-0.182,0.646-0.316
		s0.311-0.297,0.404-0.488S596.637,170.172,596.637,169.944z"/>
	<path fill="#010101" d="M603.422,168.59v4.693h-2.47v-12.797h4.377c0.697,0,1.327,0.101,1.89,0.303s1.042,0.483,1.437,0.844
		s0.7,0.792,0.914,1.296s0.321,1.063,0.321,1.679c0,0.574-0.107,1.104-0.321,1.591s-0.519,0.907-0.914,1.261
		s-0.875,0.631-1.437,0.831s-1.192,0.299-1.89,0.299H603.422z M603.422,166.586h1.907c0.352,0,0.656-0.053,0.914-0.158
		s0.473-0.249,0.646-0.431s0.302-0.391,0.387-0.628s0.127-0.485,0.127-0.743c0-0.299-0.042-0.577-0.127-0.835
		s-0.214-0.483-0.387-0.677s-0.388-0.346-0.646-0.457s-0.562-0.167-0.914-0.167h-1.907V166.586z"/>
	<path fill="#010101" d="M615.832,169.707l2.417-9.22h2.725l-3.876,12.797h-2.514l-3.867-12.797h2.725L615.832,169.707z"/>
	<path fill="#010101" d="M642.085,169.276c-0.041,0.645-0.18,1.225-0.417,1.74s-0.555,0.955-0.954,1.318s-0.873,0.644-1.424,0.839
		c-0.551,0.196-1.16,0.295-1.828,0.295c-0.756,0-1.427-0.14-2.013-0.418c-0.586-0.277-1.078-0.667-1.477-1.168
		s-0.703-1.103-0.914-1.806s-0.316-1.477-0.316-2.32v-1.723c0-0.85,0.111-1.626,0.334-2.329s0.539-1.307,0.949-1.811
		s0.907-0.895,1.49-1.173s1.238-0.417,1.964-0.417c0.703,0,1.329,0.1,1.876,0.299s1.015,0.483,1.402,0.853s0.691,0.82,0.914,1.354
		s0.363,1.134,0.422,1.802h-2.461c-0.023-0.381-0.081-0.715-0.171-1.002s-0.223-0.526-0.396-0.716s-0.39-0.334-0.65-0.431
		s-0.573-0.145-0.936-0.145c-0.381,0-0.712,0.082-0.993,0.246s-0.514,0.404-0.699,0.721s-0.321,0.705-0.409,1.165
		s-0.132,0.983-0.132,1.569v1.74c0,1.26,0.177,2.191,0.532,2.795s0.916,0.905,1.683,0.905c0.645,0,1.154-0.171,1.529-0.514
		s0.583-0.898,0.624-1.666H642.085z"/>
	<path fill="#010101" d="M644.599,159.784h5.317v11.514h2.725v1.986h-8.042v-1.986h2.848v-9.519h-2.848V159.784z"/>
	<path fill="#010101" d="M655.541,163.774h5.177v7.523h2.575v1.986h-7.752v-1.986h2.707v-5.528h-2.707V163.774z M658.072,161.339
		c0-0.188,0.034-0.362,0.101-0.523s0.163-0.299,0.286-0.413s0.271-0.204,0.444-0.268s0.365-0.097,0.576-0.097
		c0.434,0,0.778,0.122,1.033,0.365s0.382,0.555,0.382,0.936s-0.127,0.693-0.382,0.936s-0.599,0.365-1.033,0.365
		c-0.211,0-0.403-0.032-0.576-0.097s-0.321-0.154-0.444-0.268s-0.218-0.252-0.286-0.413S658.072,161.527,658.072,161.339z"/>
	<path fill="#010101" d="M670.307,173.459c-0.732,0-1.397-0.12-1.995-0.36s-1.11-0.567-1.538-0.98s-0.757-0.899-0.989-1.459
		s-0.347-1.159-0.347-1.797v-0.352c0-0.727,0.114-1.39,0.343-1.991s0.548-1.118,0.958-1.551s0.896-0.771,1.459-1.011
		s1.175-0.36,1.837-0.36c0.686,0,1.296,0.113,1.833,0.338s0.99,0.543,1.362,0.954s0.655,0.904,0.848,1.481s0.29,1.214,0.29,1.912
		v1.037h-6.451c0.047,0.322,0.142,0.617,0.286,0.883s0.327,0.497,0.549,0.69s0.478,0.343,0.765,0.448s0.601,0.158,0.94,0.158
		c0.24,0,0.479-0.023,0.716-0.07s0.464-0.116,0.681-0.207s0.419-0.204,0.606-0.338s0.352-0.293,0.492-0.475l1.222,1.318
		c-0.152,0.217-0.35,0.429-0.593,0.637s-0.53,0.392-0.861,0.554c-0.331,0.16-0.699,0.291-1.103,0.391
		S670.775,173.459,670.307,173.459z M670.017,165.576c-0.275,0-0.527,0.048-0.756,0.145s-0.429,0.236-0.602,0.417
		s-0.318,0.398-0.435,0.65s-0.205,0.533-0.264,0.844h4.008v-0.193c-0.012-0.258-0.062-0.501-0.149-0.729s-0.214-0.426-0.378-0.593
		s-0.365-0.299-0.602-0.396S670.327,165.576,670.017,165.576z"/>
	<path fill="#010101" d="M678.709,163.774l0.149,1.318c0.34-0.475,0.753-0.842,1.239-1.103s1.025-0.391,1.617-0.391
		c0.48,0,0.92,0.07,1.318,0.211s0.743,0.365,1.032,0.672c0.291,0.308,0.516,0.703,0.678,1.187c0.16,0.483,0.241,1.071,0.241,1.762
		v5.854h-2.443v-5.818c0-0.375-0.043-0.684-0.128-0.927s-0.206-0.435-0.364-0.576s-0.349-0.239-0.571-0.294
		s-0.475-0.083-0.756-0.083c-0.416,0-0.771,0.083-1.063,0.25s-0.53,0.397-0.712,0.69v6.759h-2.452v-9.51H678.709z"/>
	<path fill="#010101" d="M691.778,161.445v2.329h3.551v1.802h-3.551v4.087c0,0.346,0.04,0.634,0.118,0.866
		c0.08,0.231,0.192,0.416,0.339,0.554s0.323,0.236,0.532,0.294c0.207,0.059,0.44,0.088,0.698,0.088c0.188,0,0.379-0.009,0.575-0.026
		s0.384-0.04,0.562-0.066s0.346-0.054,0.502-0.083c0.154-0.029,0.288-0.059,0.399-0.088l0.237,1.679
		c-0.17,0.1-0.369,0.187-0.598,0.259c-0.229,0.074-0.472,0.134-0.729,0.181s-0.526,0.084-0.804,0.109
		c-0.279,0.027-0.553,0.04-0.822,0.04c-0.521,0-0.995-0.069-1.42-0.207c-0.425-0.137-0.788-0.352-1.09-0.641
		c-0.302-0.29-0.534-0.659-0.698-1.107s-0.246-0.986-0.246-1.613v-4.324h-2.171v-1.802h2.171v-2.329H691.778z"/>
</g>
<g>
	<rect x="58.9" y="159.784" fill="none" width="203.976" height="36.933"/>
	<path fill="#010101" d="M72.87,171.289h5.994v1.995h-8.473v-12.797h2.479V171.289z"/>
	<path fill="#010101" d="M81.765,163.774h5.177v7.523h2.575v1.986h-7.752v-1.986h2.707v-5.528h-2.707V163.774z M84.296,161.339
		c0-0.188,0.034-0.362,0.101-0.523s0.163-0.299,0.286-0.413s0.271-0.204,0.444-0.268s0.365-0.097,0.576-0.097
		c0.434,0,0.778,0.122,1.033,0.365s0.382,0.555,0.382,0.936s-0.127,0.693-0.382,0.936s-0.599,0.365-1.033,0.365
		c-0.211,0-0.403-0.032-0.576-0.097s-0.321-0.154-0.444-0.268s-0.218-0.252-0.286-0.413S84.296,161.527,84.296,161.339z"/>
	<path fill="#010101" d="M100.485,168.625c0,0.709-0.078,1.359-0.233,1.951s-0.388,1.102-0.699,1.529s-0.697,0.761-1.16,0.997
		c-0.463,0.237-1.002,0.356-1.617,0.356c-0.557,0-1.039-0.104-1.446-0.312c-0.407-0.209-0.757-0.5-1.05-0.875l-0.114,1.011h-2.197
		v-13.5h2.443v4.852c0.281-0.328,0.614-0.583,0.998-0.765s0.833-0.272,1.349-0.272c0.621,0,1.165,0.12,1.63,0.36
		s0.854,0.574,1.165,1.002s0.543,0.939,0.699,1.534s0.233,1.244,0.233,1.947V168.625z M98.042,168.441
		c0-0.387-0.029-0.753-0.088-1.099s-0.16-0.649-0.303-0.91s-0.338-0.467-0.584-0.62s-0.554-0.229-0.923-0.229
		c-0.445,0-0.807,0.094-1.085,0.281s-0.494,0.445-0.646,0.773v3.788c0.152,0.328,0.368,0.586,0.646,0.773s0.646,0.281,1.103,0.281
		c0.369,0,0.674-0.072,0.914-0.215s0.432-0.343,0.576-0.598s0.245-0.557,0.303-0.905s0.088-0.728,0.088-1.138V168.441z"/>
	<path fill="#010101" d="M111.287,168.625c0,0.709-0.078,1.359-0.233,1.951s-0.388,1.102-0.699,1.529s-0.697,0.761-1.16,0.997
		c-0.463,0.237-1.002,0.356-1.617,0.356c-0.557,0-1.039-0.104-1.446-0.312c-0.407-0.209-0.757-0.5-1.05-0.875l-0.114,1.011h-2.197
		v-13.5h2.443v4.852c0.281-0.328,0.614-0.583,0.998-0.765s0.833-0.272,1.349-0.272c0.621,0,1.165,0.12,1.63,0.36
		s0.854,0.574,1.165,1.002s0.543,0.939,0.699,1.534s0.233,1.244,0.233,1.947V168.625z M108.844,168.441
		c0-0.387-0.029-0.753-0.088-1.099s-0.16-0.649-0.303-0.91s-0.338-0.467-0.584-0.62s-0.554-0.229-0.923-0.229
		c-0.445,0-0.807,0.094-1.085,0.281s-0.494,0.445-0.646,0.773v3.788c0.152,0.328,0.368,0.586,0.646,0.773s0.646,0.281,1.103,0.281
		c0.369,0,0.674-0.072,0.914-0.215s0.432-0.343,0.576-0.598s0.245-0.557,0.303-0.905s0.088-0.728,0.088-1.138V168.441z"/>
	<path fill="#010101" d="M114.17,163.774h5.177v7.523h2.575v1.986h-7.752v-1.986h2.707v-5.528h-2.707V163.774z M116.701,161.339
		c0-0.188,0.034-0.362,0.101-0.523s0.163-0.299,0.286-0.413s0.271-0.204,0.444-0.268s0.365-0.097,0.576-0.097
		c0.434,0,0.778,0.122,1.033,0.365s0.382,0.555,0.382,0.936s-0.127,0.693-0.382,0.936s-0.599,0.365-1.033,0.365
		c-0.211,0-0.403-0.032-0.576-0.097s-0.321-0.154-0.444-0.268s-0.218-0.252-0.286-0.413S116.701,161.527,116.701,161.339z"/>
	<path fill="#010101" d="M128.804,161.445v2.329h3.551v1.802h-3.551v4.087c0,0.346,0.04,0.634,0.119,0.866s0.192,0.416,0.338,0.554
		s0.324,0.236,0.532,0.294s0.441,0.088,0.699,0.088c0.188,0,0.379-0.009,0.576-0.026s0.384-0.04,0.562-0.066
		s0.346-0.054,0.501-0.083s0.289-0.059,0.4-0.088l0.237,1.679c-0.17,0.1-0.369,0.187-0.598,0.259
		c-0.229,0.074-0.472,0.134-0.729,0.181s-0.526,0.084-0.804,0.109c-0.278,0.027-0.552,0.04-0.822,0.04
		c-0.521,0-0.995-0.069-1.419-0.207c-0.425-0.137-0.788-0.352-1.09-0.641c-0.302-0.29-0.535-0.659-0.699-1.107
		s-0.246-0.986-0.246-1.613v-4.324h-2.171v-1.802h2.171v-2.329H128.804z"/>
	<path fill="#010101" d="M139.333,171.508c0.24,0,0.469-0.035,0.686-0.105s0.407-0.17,0.571-0.299s0.292-0.284,0.382-0.466
		s0.13-0.384,0.119-0.606h2.303c0.012,0.492-0.089,0.949-0.303,1.371s-0.505,0.785-0.875,1.09s-0.798,0.544-1.288,0.716
		c-0.489,0.173-1.006,0.26-1.551,0.26c-0.738,0-1.386-0.125-1.942-0.373c-0.557-0.25-1.021-0.591-1.393-1.024
		s-0.653-0.942-0.844-1.525s-0.286-1.208-0.286-1.876v-0.264c0-0.668,0.094-1.293,0.281-1.876s0.469-1.091,0.844-1.525
		s0.839-0.776,1.393-1.028s1.197-0.378,1.929-0.378c0.586,0,1.128,0.088,1.626,0.264s0.927,0.423,1.288,0.743s0.64,0.706,0.839,1.16
		s0.293,0.962,0.281,1.525h-2.303c0.012-0.234-0.023-0.457-0.105-0.668s-0.202-0.393-0.36-0.545s-0.349-0.274-0.571-0.365
		s-0.466-0.136-0.729-0.136c-0.387,0-0.706,0.079-0.958,0.237s-0.453,0.369-0.602,0.633s-0.255,0.565-0.316,0.905
		s-0.092,0.691-0.092,1.055v0.264c0,0.369,0.029,0.725,0.088,1.068s0.163,0.645,0.312,0.905s0.352,0.47,0.606,0.628
		S138.94,171.508,139.333,171.508z"/>
	<path fill="#010101" d="M145.591,168.441c0-0.691,0.1-1.332,0.299-1.92s0.491-1.1,0.875-1.534s0.853-0.773,1.406-1.02
		s1.188-0.369,1.903-0.369s1.351,0.123,1.907,0.369s1.027,0.586,1.411,1.02s0.675,0.945,0.875,1.534s0.299,1.229,0.299,1.92v0.185
		c0,0.697-0.1,1.34-0.299,1.929s-0.489,1.1-0.87,1.534s-0.85,0.772-1.406,1.015c-0.557,0.243-1.189,0.365-1.898,0.365
		c-0.715,0-1.352-0.122-1.912-0.365c-0.56-0.242-1.031-0.581-1.415-1.015s-0.675-0.945-0.875-1.534s-0.299-1.232-0.299-1.929
		V168.441z M148.034,168.625c0,0.398,0.038,0.772,0.114,1.121s0.196,0.653,0.36,0.914s0.376,0.467,0.637,0.62
		s0.576,0.229,0.945,0.229c0.357,0,0.665-0.076,0.923-0.229s0.467-0.359,0.628-0.62s0.28-0.565,0.356-0.914s0.114-0.722,0.114-1.121
		v-0.185c0-0.387-0.038-0.753-0.114-1.099s-0.195-0.65-0.356-0.914s-0.371-0.472-0.628-0.624s-0.571-0.229-0.94-0.229
		c-0.363,0-0.674,0.076-0.932,0.229s-0.469,0.36-0.633,0.624s-0.284,0.568-0.36,0.914s-0.114,0.712-0.114,1.099V168.625z"/>
	<path fill="#010101" d="M157.377,163.774h5.177v7.523h2.575v1.986h-7.752v-1.986h2.707v-5.528h-2.707V163.774z M159.908,161.339
		c0-0.188,0.034-0.362,0.101-0.523s0.163-0.299,0.286-0.413s0.271-0.204,0.444-0.268s0.365-0.097,0.576-0.097
		c0.434,0,0.778,0.122,1.033,0.365s0.382,0.555,0.382,0.936s-0.127,0.693-0.382,0.936s-0.599,0.365-1.033,0.365
		c-0.211,0-0.403-0.032-0.576-0.097s-0.321-0.154-0.444-0.268s-0.218-0.252-0.286-0.413S159.908,161.527,159.908,161.339z"/>
	<path fill="#010101" d="M169.743,163.774l0.149,1.318c0.34-0.475,0.753-0.842,1.239-1.103s1.025-0.391,1.617-0.391
		c0.48,0,0.92,0.07,1.318,0.211s0.743,0.365,1.033,0.672s0.516,0.703,0.677,1.187s0.242,1.071,0.242,1.762v5.854h-2.443v-5.818
		c0-0.375-0.042-0.684-0.127-0.927s-0.207-0.435-0.365-0.576s-0.349-0.239-0.571-0.294s-0.475-0.083-0.756-0.083
		c-0.416,0-0.771,0.083-1.063,0.25s-0.53,0.397-0.712,0.69v6.759h-2.452v-9.51H169.743z"/>
	<path fill="#010101" d="M195.688,169.944c0-0.229-0.04-0.442-0.119-0.642s-0.214-0.385-0.404-0.558s-0.439-0.331-0.747-0.475
		s-0.69-0.277-1.147-0.4c-0.557-0.152-1.088-0.343-1.595-0.571s-0.954-0.504-1.34-0.826s-0.696-0.697-0.927-1.125
		s-0.347-0.92-0.347-1.477c0-0.539,0.114-1.028,0.343-1.468s0.545-0.814,0.949-1.125s0.882-0.549,1.433-0.716s1.148-0.25,1.793-0.25
		c0.668,0,1.279,0.097,1.833,0.29s1.03,0.464,1.428,0.813s0.709,0.763,0.932,1.244s0.334,1.008,0.334,1.582h-2.408
		c-0.012-0.287-0.063-0.551-0.154-0.791s-0.226-0.447-0.404-0.62s-0.401-0.308-0.668-0.404s-0.579-0.145-0.936-0.145
		c-0.328,0-0.62,0.04-0.875,0.119s-0.47,0.19-0.646,0.334s-0.309,0.313-0.4,0.51s-0.136,0.409-0.136,0.637
		c0,0.24,0.06,0.457,0.18,0.65s0.294,0.368,0.523,0.523s0.505,0.297,0.831,0.426s0.693,0.249,1.103,0.36
		c0.586,0.17,1.125,0.378,1.617,0.624s0.916,0.538,1.27,0.875s0.63,0.721,0.826,1.151s0.294,0.91,0.294,1.437
		c0,0.562-0.113,1.062-0.338,1.499s-0.538,0.806-0.936,1.107c-0.398,0.301-0.873,0.53-1.424,0.686
		c-0.551,0.154-1.151,0.232-1.802,0.232c-0.404,0-0.807-0.037-1.208-0.11s-0.785-0.186-1.151-0.338s-0.708-0.343-1.024-0.571
		s-0.59-0.495-0.822-0.8s-0.413-0.65-0.545-1.037s-0.198-0.814-0.198-1.283h2.426c0.012,0.387,0.079,0.718,0.202,0.993
		s0.294,0.501,0.514,0.677s0.483,0.305,0.791,0.387s0.646,0.123,1.015,0.123c0.328,0,0.62-0.038,0.875-0.114s0.47-0.182,0.646-0.316
		s0.311-0.297,0.404-0.488S195.688,170.172,195.688,169.944z"/>
	<path fill="#010101" d="M204.548,173.459c-0.732,0-1.397-0.12-1.995-0.36s-1.11-0.567-1.538-0.98s-0.757-0.899-0.989-1.459
		s-0.347-1.159-0.347-1.797v-0.352c0-0.727,0.114-1.39,0.343-1.991s0.548-1.118,0.958-1.551s0.896-0.771,1.459-1.011
		s1.175-0.36,1.837-0.36c0.686,0,1.296,0.113,1.833,0.338c0.535,0.226,0.989,0.543,1.361,0.954s0.655,0.904,0.849,1.481
		s0.29,1.214,0.29,1.912v1.037h-6.451c0.047,0.322,0.142,0.617,0.285,0.883s0.327,0.497,0.55,0.69s0.478,0.343,0.765,0.448
		s0.601,0.158,0.94,0.158c0.24,0,0.479-0.023,0.716-0.07c0.238-0.047,0.465-0.116,0.682-0.207s0.419-0.204,0.606-0.338
		s0.352-0.293,0.492-0.475l1.222,1.318c-0.152,0.217-0.351,0.429-0.594,0.637s-0.53,0.392-0.861,0.554
		c-0.331,0.16-0.698,0.291-1.103,0.391S205.017,173.459,204.548,173.459z M204.258,165.576c-0.275,0-0.527,0.048-0.756,0.145
		s-0.43,0.236-0.603,0.417s-0.317,0.398-0.435,0.65s-0.205,0.533-0.264,0.844h4.008v-0.193c-0.012-0.258-0.062-0.501-0.149-0.729
		s-0.214-0.426-0.378-0.593s-0.364-0.299-0.603-0.396C204.843,165.624,204.568,165.576,204.258,165.576z"/>
	<path fill="#010101" d="M217.564,163.598c0.369,0,0.71,0.025,1.023,0.075s0.567,0.104,0.761,0.163l-0.36,2.435
		c-0.322-0.076-0.652-0.133-0.988-0.171c-0.338-0.038-0.658-0.057-0.963-0.057c-0.686,0-1.234,0.132-1.648,0.396
		c-0.412,0.264-0.722,0.642-0.927,1.134v5.713h-2.443v-9.51h2.276l0.114,1.556c0.387-0.539,0.85-0.962,1.389-1.27
		S216.926,163.598,217.564,163.598z"/>
	<path fill="#010101" d="M225.58,170.462l0.123,0.686l0.123-0.659l2.092-6.715h2.549l-3.612,9.51h-2.294l-3.63-9.51h2.549
		L225.58,170.462z"/>
	<path fill="#010101" d="M236.953,173.459c-0.732,0-1.397-0.12-1.995-0.36s-1.11-0.567-1.538-0.98s-0.758-0.899-0.988-1.459
		c-0.232-0.56-0.348-1.159-0.348-1.797v-0.352c0-0.727,0.114-1.39,0.343-1.991s0.548-1.118,0.958-1.551s0.896-0.771,1.459-1.011
		s1.175-0.36,1.837-0.36c0.686,0,1.296,0.113,1.833,0.338c0.535,0.226,0.989,0.543,1.361,0.954s0.655,0.904,0.849,1.481
		s0.29,1.214,0.29,1.912v1.037h-6.451c0.047,0.322,0.142,0.617,0.285,0.883s0.327,0.497,0.55,0.69s0.478,0.343,0.765,0.448
		s0.601,0.158,0.94,0.158c0.24,0,0.479-0.023,0.716-0.07c0.238-0.047,0.465-0.116,0.682-0.207s0.419-0.204,0.606-0.338
		s0.352-0.293,0.492-0.475l1.222,1.318c-0.152,0.217-0.351,0.429-0.594,0.637s-0.53,0.392-0.861,0.554
		c-0.331,0.16-0.698,0.291-1.103,0.391S237.422,173.459,236.953,173.459z M236.663,165.576c-0.275,0-0.527,0.048-0.756,0.145
		s-0.43,0.236-0.603,0.417s-0.317,0.398-0.435,0.65s-0.205,0.533-0.264,0.844h4.008v-0.193c-0.012-0.258-0.062-0.501-0.149-0.729
		s-0.214-0.426-0.378-0.593s-0.364-0.299-0.603-0.396C237.248,165.624,236.974,165.576,236.663,165.576z"/>
	<path fill="#010101" d="M249.97,163.598c0.369,0,0.71,0.025,1.023,0.075s0.567,0.104,0.761,0.163l-0.36,2.435
		c-0.322-0.076-0.652-0.133-0.988-0.171c-0.338-0.038-0.658-0.057-0.963-0.057c-0.686,0-1.234,0.132-1.648,0.396
		c-0.412,0.264-0.722,0.642-0.927,1.134v5.713h-2.443v-9.51h2.276l0.114,1.556c0.387-0.539,0.85-0.962,1.389-1.27
		S249.331,163.598,249.97,163.598z"/>
</g>
<g>
	<path fill="none" stroke="#010101" stroke-miterlimit="10" d="M182.294,676.483c0,1.1-0.9,2-2,2h-39.498c-1.1,0-2-0.9-2-2v-39.498
		c0-1.1,0.9-2,2-2h39.498c1.1,0,2,0.9,2,2V676.483z"/>
</g>
<g>
	<path fill="none" stroke="#010101" stroke-miterlimit="10" d="M182.294,613.562c0,1.1-0.9,2-2,2h-39.498c-1.1,0-2-0.9-2-2v-39.498
		c0-1.1,0.9-2,2-2h39.498c1.1,0,2,0.9,2,2V613.562z"/>
</g>
<g>
	<path fill="none" stroke="#010101" stroke-miterlimit="10" d="M182.294,550.64c0,1.1-0.9,2-2,2h-39.498c-1.1,0-2-0.9-2-2v-39.498
		c0-1.1,0.9-2,2-2h39.498c1.1,0,2,0.9,2,2V550.64z"/>
</g>
<g>
	<path fill="none" stroke="#010101" stroke-miterlimit="10" d="M182.294,487.718c0,1.1-0.9,2-2,2h-39.498c-1.1,0-2-0.9-2-2V448.22
		c0-1.1,0.9-2,2-2h39.498c1.1,0,2,0.9,2,2V487.718z"/>
</g>
<g>
	<g>
		<line fill="none" stroke="#010101" stroke-miterlimit="10" x1="160.606" y1="502.274" x2="160.606" y2="490.438"/>
		<g>
			<polygon fill="#010101" points="160.606,509.335 164.671,499.386 160.606,501.746 156.542,499.386 			"/>
		</g>
	</g>
</g>
<g>
	<g>
		<line fill="none" stroke="#010101" stroke-miterlimit="10" x1="160.606" y1="564.889" x2="160.606" y2="553.052"/>
		<g>
			<polygon fill="#010101" points="160.606,571.949 164.671,562 160.606,564.361 156.542,562 			"/>
		</g>
	</g>
</g>
<g>
	<g>
		<line fill="none" stroke="#010101" stroke-miterlimit="10" x1="160.606" y1="627.398" x2="160.606" y2="615.562"/>
		<g>
			<polygon fill="#010101" points="160.606,634.459 164.671,624.51 160.606,626.871 156.542,624.51 			"/>
		</g>
	</g>
</g>
<g>
	<path fill="none" stroke="#010101" stroke-miterlimit="10" d="M182.294,424.797c0,1.1-0.9,2-2,2h-39.498c-1.1,0-2-0.9-2-2v-39.498
		c0-1.1,0.9-2,2-2h39.498c1.1,0,2,0.9,2,2V424.797z"/>
</g>
<g>
	<g>
		<line fill="none" stroke="#010101" stroke-miterlimit="10" x1="160.606" y1="439.159" x2="160.606" y2="427.322"/>
		<g>
			<polygon fill="#010101" points="160.606,446.22 164.671,436.271 160.606,438.631 156.542,436.271 			"/>
		</g>
	</g>
</g>
<g>
	<path fill="none" stroke="#010101" stroke-miterlimit="10" d="M182.294,361.733c0,1.1-0.9,2-2,2h-39.498c-1.1,0-2-0.9-2-2v-39.498
		c0-1.1,0.9-2,2-2h39.498c1.1,0,2,0.9,2,2V361.733z"/>
</g>
<g>
	<path fill="none" stroke="#010101" stroke-miterlimit="10" d="M182.294,298.812c0,1.1-0.9,2-2,2h-39.498c-1.1,0-2-0.9-2-2v-39.498
		c0-1.1,0.9-2,2-2h39.498c1.1,0,2,0.9,2,2V298.812z"/>
</g>
<g>
	<g>
		<line fill="none" stroke="#010101" stroke-miterlimit="10" x1="160.606" y1="313.368" x2="160.606" y2="301.531"/>
		<g>
			<polygon fill="#010101" points="160.606,320.429 164.671,310.479 160.606,312.84 156.542,310.479 			"/>
		</g>
	</g>
</g>
<g>
	<g>
		<line fill="none" stroke="#010101" stroke-miterlimit="10" x1="599.721" y1="313.317" x2="599.721" y2="270.614"/>
		<g>
			<polygon fill="#010101" points="599.721,320.378 603.786,310.429 599.721,312.79 595.656,310.429 			"/>
		</g>
	</g>
</g>
<g>
	<g>
		<line fill="none" stroke="#010101" stroke-miterlimit="10" x1="599.721" y1="376.311" x2="599.721" y2="333.607"/>
		<g>
			<polygon fill="#010101" points="599.721,383.371 603.786,373.422 599.721,375.783 595.656,373.422 			"/>
		</g>
	</g>
</g>
<g>
	<g>
		<line fill="none" stroke="#010101" stroke-miterlimit="10" x1="599.721" y1="439.517" x2="599.721" y2="396.813"/>
		<g>
			<polygon fill="#010101" points="599.721,446.577 603.786,436.628 599.721,438.989 595.656,436.628 			"/>
		</g>
	</g>
</g>
<g>
	<g>
		<line fill="none" stroke="#010101" stroke-miterlimit="10" x1="599.721" y1="501.958" x2="599.721" y2="459.255"/>
		<g>
			<polygon fill="#010101" points="599.721,509.019 603.786,499.069 599.721,501.431 595.656,499.069 			"/>
		</g>
	</g>
</g>
<g>
	<g>
		<line fill="none" stroke="#010101" stroke-miterlimit="10" x1="599.721" y1="565.359" x2="599.721" y2="522.656"/>
		<g>
			<polygon fill="#010101" points="599.721,572.42 603.786,562.471 599.721,564.832 595.656,562.471 			"/>
		</g>
	</g>
</g>
<g>
	<g>
		<line fill="none" stroke="#010101" stroke-miterlimit="10" x1="599.721" y1="628.708" x2="599.721" y2="586.005"/>
		<g>
			<polygon fill="#010101" points="599.721,635.769 603.786,625.819 599.721,628.181 595.656,625.819 			"/>
		</g>
	</g>
</g>
<g>
	<path fill="none" stroke="#010101" stroke-width="0.5574" stroke-miterlimit="10" d="M621.47,646.5c0,1.1-0.9,2-2,2h-39.498
		c-1.1,0-2-0.9-2-2v-9.515c0-1.1,0.9-2,2-2h39.498c1.1,0,2,0.9,2,2V646.5z"/>
</g>
<g>
	<path fill="none" stroke="#010101" stroke-width="0.5574" stroke-miterlimit="10" d="M621.47,583.578c0,1.1-0.9,2-2,2h-39.498
		c-1.1,0-2-0.9-2-2v-9.515c0-1.1,0.9-2,2-2h39.498c1.1,0,2,0.9,2,2V583.578z"/>
</g>
<g>
	<path fill="none" stroke="#010101" stroke-width="0.5574" stroke-miterlimit="10" d="M621.47,520.656c0,1.1-0.9,2-2,2h-39.498
		c-1.1,0-2-0.9-2-2v-9.515c0-1.1,0.9-2,2-2h39.498c1.1,0,2,0.9,2,2V520.656z"/>
</g>
<g>
	<path fill="none" stroke="#010101" stroke-width="0.5574" stroke-miterlimit="10" d="M621.47,457.734c0,1.1-0.9,2-2,2h-39.498
		c-1.1,0-2-0.9-2-2v-9.515c0-1.1,0.9-2,2-2h39.498c1.1,0,2,0.9,2,2V457.734z"/>
</g>
<g>
	<path fill="none" stroke="#010101" stroke-width="0.5574" stroke-miterlimit="10" d="M621.47,394.813c0,1.1-0.9,2-2,2h-39.498
		c-1.1,0-2-0.9-2-2v-9.515c0-1.1,0.9-2,2-2h39.498c1.1,0,2,0.9,2,2V394.813z"/>
</g>
<g>
	<path fill="none" stroke="#010101" stroke-width="0.5574" stroke-miterlimit="10" d="M621.47,331.893c0,1.1-0.9,2-2,2h-39.498
		c-1.1,0-2-0.9-2-2v-9.515c0-1.1,0.9-2,2-2h39.498c1.1,0,2,0.9,2,2V331.893z"/>
</g>
<g>
	<path fill="none" stroke="#010101" stroke-width="0.5574" stroke-miterlimit="10" d="M621.47,268.972c0,1.1-0.9,2-2,2h-39.498
		c-1.1,0-2-0.9-2-2v-9.515c0-1.1,0.9-2,2-2h39.498c1.1,0,2,0.9,2,2V268.972z"/>
</g>
<g>
	<path fill="none" d="M590.846,406.057"/>
</g>
<g>
	<g>
		<line fill="none" stroke="#010101" stroke-miterlimit="10" x1="599.721" y1="313.317" x2="599.721" y2="270.614"/>
		<g>
			<polygon fill="#010101" points="599.721,320.378 603.786,310.429 599.721,312.79 595.656,310.429 			"/>
		</g>
	</g>
</g>
<g>
	<g>
		<line fill="none" stroke="#010101" stroke-miterlimit="10" x1="599.721" y1="376.311" x2="599.721" y2="333.607"/>
		<g>
			<polygon fill="#010101" points="599.721,383.371 603.786,373.422 599.721,375.783 595.656,373.422 			"/>
		</g>
	</g>
</g>
<g>
	<g>
		<line fill="none" stroke="#010101" stroke-miterlimit="10" x1="599.721" y1="439.517" x2="599.721" y2="396.813"/>
		<g>
			<polygon fill="#010101" points="599.721,446.577 603.786,436.628 599.721,438.989 595.656,436.628 			"/>
		</g>
	</g>
</g>
<g>
	<g>
		<line fill="none" stroke="#010101" stroke-miterlimit="10" x1="599.721" y1="501.958" x2="599.721" y2="459.255"/>
		<g>
			<polygon fill="#010101" points="599.721,509.019 603.786,499.069 599.721,501.431 595.656,499.069 			"/>
		</g>
	</g>
</g>
<g>
	<g>
		<line fill="none" stroke="#010101" stroke-miterlimit="10" x1="599.721" y1="565.359" x2="599.721" y2="522.656"/>
		<g>
			<polygon fill="#010101" points="599.721,572.42 603.786,562.471 599.721,564.832 595.656,562.471 			"/>
		</g>
	</g>
</g>
<g>
	<g>
		<line fill="none" stroke="#010101" stroke-miterlimit="10" x1="599.721" y1="628.708" x2="599.721" y2="586.005"/>
		<g>
			<polygon fill="#010101" points="599.721,635.769 603.786,625.819 599.721,628.181 595.656,625.819 			"/>
		</g>
	</g>
</g>
<g>
	<path fill="none" d="M223.917,406.057"/>
</g>
<g>
	<g>
		<line fill="none" stroke="#010101" stroke-miterlimit="10" x1="160.606" y1="375.982" x2="160.606" y2="364.146"/>
		<g>
			<polygon fill="#010101" points="160.606,383.043 164.671,373.094 160.606,375.455 156.542,373.094 			"/>
		</g>
	</g>
</g>
<g>
</g>
<g>
</g>
<g>
</g>
<g>
</g>
<g>
</g>
<g>
</g>
<g>
</g>
<g>
</g>
<g>
</g>
</svg>
