<?xml version="1.0" encoding="utf-8"?>
<!-- Generator: Adobe Illustrator 16.0.4, SVG Export Plug-In . SVG Version: 6.00 Build 0)  -->
<!DOCTYPE svg PUBLIC "-//W3C//DTD SVG 1.1//EN" "http://www.w3.org/Graphics/SVG/1.1/DTD/svg11.dtd">
<svg version="1.1" id="Layer_1" xmlns="http://www.w3.org/2000/svg" xmlns:xlink="http://www.w3.org/1999/xlink" x="0px" y="0px"
	 width="1366px" height="768px" viewBox="0 0 1366 768" enable-background="new 0 0 1366 768" xml:space="preserve">
<rect fill="#FFFFFF" width="1366" height="768"/>
<g>
	<rect x="51.902" y="146.359" fill="none" width="89.996" height="71.38"/>
	<path d="M71.878,160.799h-1.577v-6.383h-7.144v6.383h-1.577v-13.563h1.577v5.771h7.144v-5.771h1.577V160.799z"/>
	<path d="M79.662,160.985c-1.503,0-2.689-0.458-3.558-1.373c-0.869-0.915-1.303-2.186-1.303-3.813c0-1.639,0.404-2.941,1.21-3.906
		c0.808-0.965,1.891-1.447,3.252-1.447c1.274,0,2.282,0.419,3.024,1.257c0.742,0.838,1.113,1.944,1.113,3.317v0.974h-7.004
		c0.031,1.194,0.333,2.1,0.905,2.718c0.572,0.619,1.377,0.928,2.417,0.928c1.095,0,2.177-0.229,3.247-0.687v1.373
		c-0.544,0.235-1.059,0.404-1.544,0.505C80.935,160.934,80.349,160.985,79.662,160.985z M79.245,151.735
		c-0.816,0-1.467,0.266-1.953,0.798c-0.485,0.532-0.771,1.268-0.858,2.208h5.316c0-0.971-0.217-1.715-0.649-2.231
		C80.667,151.994,80.048,151.735,79.245,151.735z"/>
	<path d="M92.279,160.799l-0.306-1.447h-0.074c-0.507,0.637-1.013,1.068-1.517,1.294c-0.504,0.226-1.133,0.339-1.888,0.339
		c-1.008,0-1.798-0.26-2.37-0.779c-0.572-0.52-0.858-1.258-0.858-2.217c0-2.053,1.642-3.129,4.926-3.229l1.726-0.056v-0.631
		c0-0.798-0.171-1.387-0.515-1.767c-0.343-0.381-0.892-0.571-1.646-0.571c-0.848,0-1.806,0.26-2.876,0.779l-0.473-1.178
		c0.501-0.272,1.05-0.485,1.647-0.64c0.597-0.154,1.195-0.232,1.795-0.232c1.212,0,2.11,0.269,2.695,0.807
		c0.584,0.538,0.876,1.401,0.876,2.588v6.939H92.279z M88.8,159.714c0.958,0,1.711-0.263,2.259-0.789
		c0.547-0.525,0.821-1.262,0.821-2.208v-0.918l-1.54,0.065c-1.225,0.043-2.107,0.233-2.649,0.57
		c-0.541,0.337-0.812,0.862-0.812,1.573c0,0.557,0.168,0.98,0.506,1.271C87.723,159.569,88.194,159.714,88.8,159.714z"/>
	<path d="M103.514,159.436h-0.083c-0.711,1.033-1.775,1.549-3.191,1.549c-1.33,0-2.364-0.455-3.103-1.364
		c-0.739-0.909-1.109-2.202-1.109-3.878c0-1.676,0.371-2.978,1.113-3.906s1.775-1.392,3.099-1.392c1.379,0,2.437,0.501,3.173,1.503
		h0.121l-0.065-0.733l-0.037-0.714v-4.138h1.54v14.436h-1.252L103.514,159.436z M100.434,159.695c1.051,0,1.813-0.286,2.287-0.858
		c0.473-0.572,0.709-1.495,0.709-2.77v-0.325c0-1.441-0.24-2.469-0.719-3.084c-0.479-0.616-1.245-0.923-2.296-0.923
		c-0.903,0-1.594,0.351-2.073,1.053c-0.479,0.702-0.719,1.693-0.719,2.973c0,1.299,0.238,2.279,0.714,2.941
		C98.813,159.365,99.512,159.695,100.434,159.695z"/>
	<path d="M112.532,160.985c-1.503,0-2.689-0.458-3.558-1.373c-0.869-0.915-1.303-2.186-1.303-3.813c0-1.639,0.404-2.941,1.21-3.906
		c0.808-0.965,1.891-1.447,3.252-1.447c1.274,0,2.282,0.419,3.024,1.257c0.742,0.838,1.113,1.944,1.113,3.317v0.974h-7.004
		c0.031,1.194,0.333,2.1,0.905,2.718c0.572,0.619,1.377,0.928,2.417,0.928c1.095,0,2.177-0.229,3.247-0.687v1.373
		c-0.544,0.235-1.059,0.404-1.544,0.505C113.804,160.934,113.218,160.985,112.532,160.985z M112.114,151.735
		c-0.816,0-1.467,0.266-1.953,0.798c-0.485,0.532-0.771,1.268-0.858,2.208h5.316c0-0.971-0.217-1.715-0.649-2.231
		C113.537,151.994,112.918,151.735,112.114,151.735z"/>
	<path d="M123.535,150.446c0.451,0,0.856,0.037,1.215,0.111l-0.213,1.429c-0.421-0.093-0.792-0.139-1.113-0.139
		c-0.823,0-1.526,0.334-2.11,1.002c-0.585,0.668-0.877,1.5-0.877,2.496v5.455h-1.54v-10.168h1.271l0.176,1.883h0.074
		c0.377-0.662,0.832-1.172,1.364-1.531C122.313,150.625,122.897,150.446,123.535,150.446z"/>
	<path d="M133.211,158.025c0,0.946-0.353,1.676-1.058,2.189c-0.705,0.514-1.695,0.77-2.969,0.77c-1.349,0-2.4-0.213-3.154-0.64
		v-1.429c0.488,0.248,1.013,0.442,1.573,0.584c0.56,0.143,1.099,0.213,1.619,0.213c0.804,0,1.422-0.128,1.855-0.385
		c0.433-0.256,0.649-0.647,0.649-1.173c0-0.396-0.171-0.734-0.515-1.016c-0.343-0.281-1.013-0.613-2.008-0.997
		c-0.946-0.353-1.619-0.66-2.018-0.923c-0.398-0.263-0.695-0.562-0.891-0.896c-0.194-0.334-0.292-0.733-0.292-1.197
		c0-0.829,0.337-1.483,1.011-1.962c0.674-0.479,1.599-0.719,2.774-0.719c1.095,0,2.165,0.223,3.21,0.668l-0.547,1.252
		c-1.021-0.42-1.945-0.631-2.774-0.631c-0.73,0-1.28,0.115-1.651,0.343c-0.371,0.229-0.557,0.544-0.557,0.946
		c0,0.272,0.069,0.504,0.209,0.696c0.139,0.192,0.363,0.375,0.672,0.547c0.309,0.173,0.903,0.424,1.781,0.751
		c1.206,0.439,2.021,0.881,2.445,1.327C132.999,156.792,133.211,157.352,133.211,158.025z"/>
	<path d="M81.272,183.599h-1.577v-13.563h7.561v1.401h-5.984v4.963h5.622v1.401h-5.622V183.599z"/>
	<path d="M89.139,170.676c0-0.353,0.086-0.611,0.26-0.775c0.173-0.164,0.39-0.246,0.649-0.246c0.247,0,0.46,0.083,0.64,0.25
		c0.179,0.167,0.269,0.424,0.269,0.77c0,0.347-0.09,0.604-0.269,0.775c-0.18,0.17-0.393,0.255-0.64,0.255
		c-0.26,0-0.477-0.085-0.649-0.255C89.226,171.28,89.139,171.022,89.139,170.676z M90.809,183.599h-1.54v-10.168h1.54V183.599z"/>
	<path d="M98.713,173.246c0.451,0,0.856,0.037,1.215,0.111l-0.213,1.429c-0.421-0.093-0.792-0.139-1.113-0.139
		c-0.823,0-1.526,0.334-2.11,1.002c-0.585,0.668-0.877,1.5-0.877,2.496v5.455h-1.54v-10.168h1.271l0.176,1.883h0.074
		c0.377-0.662,0.832-1.172,1.364-1.531C97.492,173.425,98.076,173.246,98.713,173.246z"/>
	<path d="M108.39,180.825c0,0.946-0.353,1.676-1.058,2.189c-0.705,0.514-1.695,0.77-2.969,0.77c-1.349,0-2.4-0.213-3.154-0.64
		v-1.429c0.488,0.248,1.013,0.442,1.573,0.584c0.56,0.143,1.099,0.213,1.619,0.213c0.804,0,1.422-0.128,1.855-0.385
		c0.433-0.256,0.649-0.647,0.649-1.173c0-0.396-0.171-0.734-0.515-1.016c-0.343-0.281-1.013-0.613-2.008-0.997
		c-0.946-0.353-1.619-0.66-2.018-0.923c-0.398-0.263-0.695-0.562-0.891-0.896c-0.194-0.334-0.292-0.733-0.292-1.197
		c0-0.829,0.337-1.483,1.011-1.962c0.674-0.479,1.599-0.719,2.774-0.719c1.095,0,2.165,0.223,3.21,0.668l-0.547,1.252
		c-1.021-0.42-1.945-0.631-2.774-0.631c-0.73,0-1.28,0.115-1.651,0.343c-0.371,0.229-0.557,0.544-0.557,0.946
		c0,0.272,0.069,0.504,0.209,0.696c0.139,0.192,0.363,0.375,0.672,0.547c0.309,0.173,0.903,0.424,1.781,0.751
		c1.206,0.439,2.021,0.881,2.445,1.327C108.178,179.591,108.39,180.151,108.39,180.825z"/>
	<path d="M114.179,182.514c0.272,0,0.535-0.02,0.789-0.06c0.253-0.041,0.455-0.082,0.603-0.125v1.178
		c-0.167,0.081-0.413,0.147-0.737,0.199c-0.325,0.053-0.617,0.079-0.877,0.079c-1.967,0-2.95-1.036-2.95-3.108v-6.049h-1.457v-0.742
		l1.457-0.64l0.649-2.171h0.891v2.356h2.95v1.197h-2.95v5.984c0,0.612,0.145,1.083,0.436,1.41
		C113.272,182.35,113.671,182.514,114.179,182.514z"/>
</g>
<g enable-background="new    ">
	<path fill="#CCCCCC" d="M114.149,704.349h-3v1h3V704.349L114.149,704.349z M108.149,704.349h-3v1h3V704.349L108.149,704.349z
		 M102.149,704.349h-3v1h3V704.349L102.149,704.349z M96.149,704.349h-3v1h3V704.349L96.149,704.349z M90.149,704.349h-3v1h3
		V704.349L90.149,704.349z M84.149,704.349h-3v1h3V704.349L84.149,704.349z M80.651,705.851h-1v3h1V705.851L80.651,705.851z
		 M80.651,711.851h-1v3h1V711.851L80.651,711.851z M80.651,717.851h-1v3h1V717.851L80.651,717.851z M80.651,723.851h-1v3h1V723.851
		L80.651,723.851z M80.651,729.851h-1v3h1V729.851L80.651,729.851z M80.651,735.851h-1v2.997h1l0,0l0,0l0,0V735.851L80.651,735.851z
		 M85.654,737.848h-3v1h3V737.848L85.654,737.848z M91.654,737.848h-3v1h3V737.848L91.654,737.848z M97.654,737.848h-3v1h3V737.848
		L97.654,737.848z M103.654,737.848h-3v1h3V737.848L103.654,737.848z M109.654,737.848h-3v1h3V737.848L109.654,737.848z
		 M114.149,737.343h-1v0.505h-0.495v1h1.495V737.343L114.149,737.343z M114.149,731.343h-1v3h1V731.343L114.149,731.343z
		 M114.149,725.343h-1v3h1V725.343L114.149,725.343z M114.149,719.343h-1v3h1V719.343L114.149,719.343z M114.149,713.343h-1v3h1
		V713.343L114.149,713.343z M114.149,707.343h-1v3h1V707.343L114.149,707.343z"/>
</g>
<g enable-background="new    ">
	<path fill="#CCCCCC" d="M114.149,650.254h-3v1h3V650.254L114.149,650.254z M108.149,650.254h-3v1h3V650.254L108.149,650.254z
		 M102.149,650.254h-3v1h3V650.254L102.149,650.254z M96.149,650.254h-3v1h3V650.254L96.149,650.254z M90.149,650.254h-3v1h3
		V650.254L90.149,650.254z M84.149,650.254h-3v1h3V650.254L84.149,650.254z M80.651,651.756h-1v3h1V651.756L80.651,651.756z
		 M80.651,657.756h-1v3h1V657.756L80.651,657.756z M80.651,663.756h-1v3h1V663.756L80.651,663.756z M80.651,669.756h-1v3h1V669.756
		L80.651,669.756z M80.651,675.756h-1v3h1V675.756L80.651,675.756z M80.651,681.756h-1v2.997h1l0,0l0,0l0,0V681.756L80.651,681.756z
		 M85.654,683.753h-3v1h3V683.753L85.654,683.753z M91.654,683.753h-3v1h3V683.753L91.654,683.753z M97.654,683.753h-3v1h3V683.753
		L97.654,683.753z M103.654,683.753h-3v1h3V683.753L103.654,683.753z M109.654,683.753h-3v1h3V683.753L109.654,683.753z
		 M114.149,683.248h-1v0.505h-0.495v1h1.495V683.248L114.149,683.248z M114.149,677.248h-1v3h1V677.248L114.149,677.248z
		 M114.149,671.248h-1v3h1V671.248L114.149,671.248z M114.149,665.248h-1v3h1V665.248L114.149,665.248z M114.149,659.248h-1v3h1
		V659.248L114.149,659.248z M114.149,653.248h-1v3h1V653.248L114.149,653.248z"/>
</g>
<g enable-background="new    ">
	<path fill="#CCCCCC" d="M114.149,596.157h-3v1h3V596.157L114.149,596.157z M108.149,596.157h-3v1h3V596.157L108.149,596.157z
		 M102.149,596.157h-3v1h3V596.157L102.149,596.157z M96.149,596.157h-3v1h3V596.157L96.149,596.157z M90.149,596.157h-3v1h3
		V596.157L90.149,596.157z M84.149,596.157h-3v1h3V596.157L84.149,596.157z M80.651,597.659h-1v3h1V597.659L80.651,597.659z
		 M80.651,603.659h-1v3h1V603.659L80.651,603.659z M80.651,609.659h-1v3h1V609.659L80.651,609.659z M80.651,615.659h-1v3h1V615.659
		L80.651,615.659z M80.651,621.659h-1v3h1V621.659L80.651,621.659z M80.651,627.659h-1v2.997h1l0,0l0,0l0,0V627.659L80.651,627.659z
		 M85.654,629.656h-3v1h3V629.656L85.654,629.656z M91.654,629.656h-3v1h3V629.656L91.654,629.656z M97.654,629.656h-3v1h3V629.656
		L97.654,629.656z M103.654,629.656h-3v1h3V629.656L103.654,629.656z M109.654,629.656h-3v1h3V629.656L109.654,629.656z
		 M114.149,629.151h-1v0.505h-0.495v1h1.495V629.151L114.149,629.151z M114.149,623.151h-1v3h1V623.151L114.149,623.151z
		 M114.149,617.151h-1v3h1V617.151L114.149,617.151z M114.149,611.151h-1v3h1V611.151L114.149,611.151z M114.149,605.151h-1v3h1
		V605.151L114.149,605.151z M114.149,599.151h-1v3h1V599.151L114.149,599.151z"/>
</g>
<g enable-background="new    ">
	<path fill="#CCCCCC" d="M114.149,542.063h-3v1h3V542.063L114.149,542.063z M108.149,542.063h-3v1h3V542.063L108.149,542.063z
		 M102.149,542.063h-3v1h3V542.063L102.149,542.063z M96.149,542.063h-3v1h3V542.063L96.149,542.063z M90.149,542.063h-3v1h3
		V542.063L90.149,542.063z M84.149,542.063h-3v1h3V542.063L84.149,542.063z M80.651,543.565h-1v3h1V543.565L80.651,543.565z
		 M80.651,549.565h-1v3h1V549.565L80.651,549.565z M80.651,555.565h-1v3h1V555.565L80.651,555.565z M80.651,561.565h-1v3h1V561.565
		L80.651,561.565z M80.651,567.565h-1v3h1V567.565L80.651,567.565z M80.651,573.565h-1v2.997h1l0,0l0,0l0,0V573.565L80.651,573.565z
		 M85.654,575.562h-3v1h3V575.562L85.654,575.562z M91.654,575.562h-3v1h3V575.562L91.654,575.562z M97.654,575.562h-3v1h3V575.562
		L97.654,575.562z M103.654,575.562h-3v1h3V575.562L103.654,575.562z M109.654,575.562h-3v1h3V575.562L109.654,575.562z
		 M114.149,575.058h-1v0.505h-0.495v1h1.495V575.058L114.149,575.058z M114.149,569.058h-1v3h1V569.058L114.149,569.058z
		 M114.149,563.058h-1v3h1V563.058L114.149,563.058z M114.149,557.058h-1v3h1V557.058L114.149,557.058z M114.149,551.058h-1v3h1
		V551.058L114.149,551.058z M114.149,545.058h-1v3h1V545.058L114.149,545.058z"/>
</g>
<g enable-background="new    ">
	<path fill="#CCCCCC" d="M114.149,487.969h-3v1h3V487.969L114.149,487.969z M108.149,487.969h-3v1h3V487.969L108.149,487.969z
		 M102.149,487.969h-3v1h3V487.969L102.149,487.969z M96.149,487.969h-3v1h3V487.969L96.149,487.969z M90.149,487.969h-3v1h3
		V487.969L90.149,487.969z M84.149,487.969h-3v1h3V487.969L84.149,487.969z M80.651,489.471h-1v3h1V489.471L80.651,489.471z
		 M80.651,495.471h-1v3h1V495.471L80.651,495.471z M80.651,501.471h-1v3h1V501.471L80.651,501.471z M80.651,507.471h-1v3h1V507.471
		L80.651,507.471z M80.651,513.471h-1v3h1V513.471L80.651,513.471z M80.651,519.471h-1v2.997h1l0,0l0,0l0,0V519.471L80.651,519.471z
		 M85.654,521.468h-3v1h3V521.468L85.654,521.468z M91.654,521.468h-3v1h3V521.468L91.654,521.468z M97.654,521.468h-3v1h3V521.468
		L97.654,521.468z M103.654,521.468h-3v1h3V521.468L103.654,521.468z M109.654,521.468h-3v1h3V521.468L109.654,521.468z
		 M114.149,520.963h-1v0.505h-0.495v1h1.495V520.963L114.149,520.963z M114.149,514.963h-1v3h1V514.963L114.149,514.963z
		 M114.149,508.963h-1v3h1V508.963L114.149,508.963z M114.149,502.963h-1v3h1V502.963L114.149,502.963z M114.149,496.963h-1v3h1
		V496.963L114.149,496.963z M114.149,490.963h-1v3h1V490.963L114.149,490.963z"/>
</g>
<g enable-background="new    ">
	<path fill="#CCCCCC" d="M114.149,433.872h-3v1h3V433.872L114.149,433.872z M108.149,433.872h-3v1h3V433.872L108.149,433.872z
		 M102.149,433.872h-3v1h3V433.872L102.149,433.872z M96.149,433.872h-3v1h3V433.872L96.149,433.872z M90.149,433.872h-3v1h3
		V433.872L90.149,433.872z M84.149,433.872h-3v1h3V433.872L84.149,433.872z M80.651,435.374h-1v3h1V435.374L80.651,435.374z
		 M80.651,441.374h-1v3h1V441.374L80.651,441.374z M80.651,447.374h-1v3h1V447.374L80.651,447.374z M80.651,453.374h-1v3h1V453.374
		L80.651,453.374z M80.651,459.374h-1v3h1V459.374L80.651,459.374z M80.651,465.374h-1v2.997h1l0,0l0,0l0,0V465.374L80.651,465.374z
		 M85.654,467.371h-3v1h3V467.371L85.654,467.371z M91.654,467.371h-3v1h3V467.371L91.654,467.371z M97.654,467.371h-3v1h3V467.371
		L97.654,467.371z M103.654,467.371h-3v1h3V467.371L103.654,467.371z M109.654,467.371h-3v1h3V467.371L109.654,467.371z
		 M114.149,466.866h-1v0.505h-0.495v1h1.495V466.866L114.149,466.866z M114.149,460.866h-1v3h1V460.866L114.149,460.866z
		 M114.149,454.866h-1v3h1V454.866L114.149,454.866z M114.149,448.866h-1v3h1V448.866L114.149,448.866z M114.149,442.866h-1v3h1
		V442.866L114.149,442.866z M114.149,436.866h-1v3h1V436.866L114.149,436.866z"/>
</g>
<g enable-background="new    ">
	<path fill="#CCCCCC" d="M114.149,379.776h-3v1h3V379.776L114.149,379.776z M108.149,379.776h-3v1h3V379.776L108.149,379.776z
		 M102.149,379.776h-3v1h3V379.776L102.149,379.776z M96.149,379.776h-3v1h3V379.776L96.149,379.776z M90.149,379.776h-3v1h3
		V379.776L90.149,379.776z M84.149,379.776h-3v1h3V379.776L84.149,379.776z M80.651,381.278h-1v3h1V381.278L80.651,381.278z
		 M80.651,387.278h-1v3h1V387.278L80.651,387.278z M80.651,393.278h-1v3h1V393.278L80.651,393.278z M80.651,399.278h-1v3h1V399.278
		L80.651,399.278z M80.651,405.278h-1v3h1V405.278L80.651,405.278z M80.651,411.278h-1v2.997h1l0,0l0,0l0,0V411.278L80.651,411.278z
		 M85.654,413.275h-3v1h3V413.275L85.654,413.275z M91.654,413.275h-3v1h3V413.275L91.654,413.275z M97.654,413.275h-3v1h3V413.275
		L97.654,413.275z M103.654,413.275h-3v1h3V413.275L103.654,413.275z M109.654,413.275h-3v1h3V413.275L109.654,413.275z
		 M114.149,412.771h-1v0.505h-0.495v1h1.495V412.771L114.149,412.771z M114.149,406.771h-1v3h1V406.771L114.149,406.771z
		 M114.149,400.771h-1v3h1V400.771L114.149,400.771z M114.149,394.771h-1v3h1V394.771L114.149,394.771z M114.149,388.771h-1v3h1
		V388.771L114.149,388.771z M114.149,382.771h-1v3h1V382.771L114.149,382.771z"/>
</g>
<g enable-background="new    ">
	<path fill="#CCCCCC" d="M114.149,325.682h-3v1h3V325.682L114.149,325.682z M108.149,325.682h-3v1h3V325.682L108.149,325.682z
		 M102.149,325.682h-3v1h3V325.682L102.149,325.682z M96.149,325.682h-3v1h3V325.682L96.149,325.682z M90.149,325.682h-3v1h3
		V325.682L90.149,325.682z M84.149,325.682h-3v1h3V325.682L84.149,325.682z M80.651,327.184h-1v3h1V327.184L80.651,327.184z
		 M80.651,333.184h-1v3h1V333.184L80.651,333.184z M80.651,339.184h-1v3h1V339.184L80.651,339.184z M80.651,345.184h-1v3h1V345.184
		L80.651,345.184z M80.651,351.184h-1v3h1V351.184L80.651,351.184z M80.651,357.184h-1v2.997h1l0,0l0,0l0,0V357.184L80.651,357.184z
		 M85.654,359.181h-3v1h3V359.181L85.654,359.181z M91.654,359.181h-3v1h3V359.181L91.654,359.181z M97.654,359.181h-3v1h3V359.181
		L97.654,359.181z M103.654,359.181h-3v1h3V359.181L103.654,359.181z M109.654,359.181h-3v1h3V359.181L109.654,359.181z
		 M114.149,358.676h-1v0.505h-0.495v1h1.495V358.676L114.149,358.676z M114.149,352.676h-1v3h1V352.676L114.149,352.676z
		 M114.149,346.676h-1v3h1V346.676L114.149,346.676z M114.149,340.676h-1v3h1V340.676L114.149,340.676z M114.149,334.676h-1v3h1
		V334.676L114.149,334.676z M114.149,328.676h-1v3h1V328.676L114.149,328.676z"/>
</g>
<g enable-background="new    ">
	<path fill="#CCCCCC" d="M114.149,271.585h-3v1h3V271.585L114.149,271.585z M108.149,271.585h-3v1h3V271.585L108.149,271.585z
		 M102.149,271.585h-3v1h3V271.585L102.149,271.585z M96.149,271.585h-3v1h3V271.585L96.149,271.585z M90.149,271.585h-3v1h3
		V271.585L90.149,271.585z M84.149,271.585h-3v1h3V271.585L84.149,271.585z M80.651,273.087h-1v3h1V273.087L80.651,273.087z
		 M80.651,279.087h-1v3h1V279.087L80.651,279.087z M80.651,285.087h-1v3h1V285.087L80.651,285.087z M80.651,291.087h-1v3h1V291.087
		L80.651,291.087z M80.651,297.087h-1v3h1V297.087L80.651,297.087z M80.651,303.087h-1v2.997h1l0,0l0,0l0,0V303.087L80.651,303.087z
		 M85.654,305.084h-3v1h3V305.084L85.654,305.084z M91.654,305.084h-3v1h3V305.084L91.654,305.084z M97.654,305.084h-3v1h3V305.084
		L97.654,305.084z M103.654,305.084h-3v1h3V305.084L103.654,305.084z M109.654,305.084h-3v1h3V305.084L109.654,305.084z
		 M114.149,304.579h-1v0.505h-0.495v1h1.495V304.579L114.149,304.579z M114.149,298.579h-1v3h1V298.579L114.149,298.579z
		 M114.149,292.579h-1v3h1V292.579L114.149,292.579z M114.149,286.579h-1v3h1V286.579L114.149,286.579z M114.149,280.579h-1v3h1
		V280.579L114.149,280.579z M114.149,274.579h-1v3h1V274.579L114.149,274.579z"/>
</g>
<g enable-background="new    ">
	<path fill="#CCCCCC" d="M114.149,217.49h-3v1h3V217.49L114.149,217.49z M108.149,217.49h-3v1h3V217.49L108.149,217.49z
		 M102.149,217.49h-3v1h3V217.49L102.149,217.49z M96.149,217.49h-3v1h3V217.49L96.149,217.49z M90.149,217.49h-3v1h3V217.49
		L90.149,217.49z M84.149,217.49h-3v1h3V217.49L84.149,217.49z M80.651,218.992h-1v3h1V218.992L80.651,218.992z M80.651,224.992h-1
		v3h1V224.992L80.651,224.992z M80.651,230.992h-1v3h1V230.992L80.651,230.992z M80.651,236.992h-1v3h1V236.992L80.651,236.992z
		 M80.651,242.992h-1v3h1V242.992L80.651,242.992z M80.651,248.992h-1v2.997h1l0,0l0,0l0,0V248.992L80.651,248.992z M85.654,250.989
		h-3v1h3V250.989L85.654,250.989z M91.654,250.989h-3v1h3V250.989L91.654,250.989z M97.654,250.989h-3v1h3V250.989L97.654,250.989z
		 M103.654,250.989h-3v1h3V250.989L103.654,250.989z M109.654,250.989h-3v1h3V250.989L109.654,250.989z M114.149,250.484h-1v0.505
		h-0.495v1h1.495V250.484L114.149,250.484z M114.149,244.484h-1v3h1V244.484L114.149,244.484z M114.149,238.484h-1v3h1V238.484
		L114.149,238.484z M114.149,232.484h-1v3h1V232.484L114.149,232.484z M114.149,226.484h-1v3h1V226.484L114.149,226.484z
		 M114.149,220.484h-1v3h1V220.484L114.149,220.484z"/>
</g>
<rect x="79.651" y="217.49" width="34.498" height="7.984"/>
<rect x="79.651" y="271.585" width="34.498" height="7.984"/>
<rect x="79.651" y="325.681" width="34.498" height="7.984"/>
<rect x="79.651" y="379.776" width="34.498" height="7.983"/>
<rect x="79.651" y="433.873" width="34.498" height="7.984"/>
<rect x="79.651" y="487.969" width="34.498" height="7.984"/>
<rect x="79.651" y="542.062" width="34.498" height="7.984"/>
<rect x="79.651" y="596.158" width="34.498" height="7.984"/>
<rect x="79.651" y="650.254" width="34.498" height="7.984"/>
<rect x="79.651" y="704.35" width="34.498" height="7.984"/>
<g opacity="0.55">
	<g>
		<path fill="none" stroke="#000000" stroke-miterlimit="10" d="M74.991,271.585h-3.157c-1.65,0-3-1.35-3-3v-44.104
			c0-1.65,1.35-3,3-3h7.817"/>
		<g>
			<polygon points="79.651,271.585 73.084,268.902 74.643,271.585 73.084,274.268 			"/>
		</g>
	</g>
</g>
<g opacity="0.55">
	<g>
		<path fill="none" stroke="#000000" stroke-miterlimit="10" d="M74.991,325.681h-3.157c-1.65,0-3-1.35-3-3v-44.104
			c0-1.65,1.35-3,3-3h7.817"/>
		<g>
			<polygon points="79.651,325.681 73.084,322.998 74.643,325.681 73.084,328.364 			"/>
		</g>
	</g>
</g>
<g opacity="0.55">
	<g>
		<path fill="none" stroke="#000000" stroke-miterlimit="10" d="M74.991,379.776h-3.157c-1.65,0-3-1.351-3-3v-44.104
			c0-1.65,1.35-3,3-3h7.817"/>
		<g>
			<polygon points="79.651,379.776 73.084,377.094 74.643,379.776 73.084,382.459 			"/>
		</g>
	</g>
</g>
<g opacity="0.55">
	<g>
		<path fill="none" stroke="#000000" stroke-miterlimit="10" d="M74.991,433.873h-3.157c-1.65,0-3-1.35-3-3V386.77
			c0-1.65,1.35-3,3-3h7.817"/>
		<g>
			<polygon points="79.651,433.873 73.084,431.189 74.643,433.873 73.084,436.555 			"/>
		</g>
	</g>
</g>
<g opacity="0.55">
	<g>
		<path fill="none" stroke="#000000" stroke-miterlimit="10" d="M74.991,487.969h-3.157c-1.65,0-3-1.35-3-3v-44.104
			c0-1.65,1.35-3,3-3h7.817"/>
		<g>
			<polygon points="79.651,487.969 73.084,485.285 74.643,487.969 73.084,490.65 			"/>
		</g>
	</g>
</g>
<g opacity="0.55">
	<g>
		<path fill="none" stroke="#000000" stroke-miterlimit="10" d="M74.991,542.064h-3.157c-1.65,0-3-1.35-3-3v-44.104
			c0-1.65,1.35-3,3-3h7.817"/>
		<g>
			<polygon points="79.651,542.064 73.084,539.381 74.643,542.064 73.084,544.746 			"/>
		</g>
	</g>
</g>
<g opacity="0.55">
	<g>
		<path fill="none" stroke="#000000" stroke-miterlimit="10" d="M74.991,596.16h-3.157c-1.65,0-3-1.35-3-3v-44.104
			c0-1.65,1.35-3,3-3h7.817"/>
		<g>
			<polygon points="79.651,596.16 73.084,593.477 74.643,596.16 73.084,598.842 			"/>
		</g>
	</g>
</g>
<g opacity="0.55">
	<g>
		<path fill="none" stroke="#000000" stroke-miterlimit="10" d="M74.991,650.256h-3.157c-1.65,0-3-1.35-3-3v-44.104
			c0-1.65,1.35-3,3-3h7.817"/>
		<g>
			<polygon points="79.651,650.256 73.084,647.572 74.643,650.256 73.084,652.938 			"/>
		</g>
	</g>
</g>
<g opacity="0.55">
	<g>
		<path fill="none" stroke="#000000" stroke-miterlimit="10" d="M74.991,704.352h-3.157c-1.65,0-3-1.35-3-3v-44.104
			c0-1.65,1.35-3,3-3h7.817"/>
		<g>
			<polygon points="79.651,704.352 73.084,701.668 74.643,704.352 73.084,707.033 			"/>
		</g>
	</g>
</g>
<g>
</g>
</svg>
