<?xml version="1.0" encoding="utf-8"?>
<!-- Generator: Adobe Illustrator 16.0.4, SVG Export Plug-In . SVG Version: 6.00 Build 0)  -->
<!DOCTYPE svg PUBLIC "-//W3C//DTD SVG 1.1//EN" "http://www.w3.org/Graphics/SVG/1.1/DTD/svg11.dtd">
<svg version="1.1" id="Layer_1" xmlns="http://www.w3.org/2000/svg" xmlns:xlink="http://www.w3.org/1999/xlink" x="0px" y="0px"
	 width="1366px" height="768px" viewBox="0 0 1366 768" enable-background="new 0 0 1366 768" xml:space="preserve">
<rect fill="#FFFFFF" width="1366" height="768"/>
<g>
	<rect x="51.902" y="146.359" fill="none" width="89.996" height="71.38"/>
	<path d="M71.878,160.799h-1.577v-6.383h-7.144v6.383H61.58v-13.563h1.577v5.771h7.144v-5.771h1.577V160.799z"/>
	<path d="M79.662,160.985c-1.503,0-2.689-0.458-3.558-1.373c-0.869-0.915-1.303-2.186-1.303-3.813c0-1.639,0.404-2.941,1.21-3.906
		c0.808-0.965,1.891-1.447,3.252-1.447c1.274,0,2.282,0.419,3.024,1.257c0.742,0.838,1.113,1.944,1.113,3.317v0.974h-7.004
		c0.031,1.194,0.333,2.1,0.905,2.718c0.572,0.619,1.377,0.928,2.417,0.928c1.095,0,2.177-0.229,3.247-0.687v1.373
		c-0.544,0.235-1.059,0.404-1.544,0.505C80.935,160.934,80.349,160.985,79.662,160.985z M79.245,151.735
		c-0.816,0-1.467,0.266-1.953,0.798c-0.485,0.532-0.771,1.268-0.858,2.208h5.316c0-0.971-0.217-1.715-0.649-2.231
		C80.667,151.994,80.048,151.735,79.245,151.735z"/>
	<path d="M92.279,160.799l-0.306-1.447h-0.074c-0.507,0.637-1.013,1.068-1.517,1.294s-1.133,0.339-1.888,0.339
		c-1.008,0-1.798-0.26-2.37-0.779c-0.572-0.52-0.858-1.258-0.858-2.217c0-2.053,1.642-3.129,4.926-3.229l1.726-0.056v-0.631
		c0-0.798-0.171-1.387-0.515-1.767c-0.343-0.381-0.892-0.571-1.646-0.571c-0.848,0-1.806,0.26-2.876,0.779l-0.473-1.178
		c0.501-0.272,1.05-0.485,1.647-0.64c0.597-0.154,1.195-0.232,1.795-0.232c1.212,0,2.11,0.269,2.695,0.807
		c0.584,0.538,0.876,1.401,0.876,2.588v6.939L92.279,160.799L92.279,160.799z M88.8,159.714c0.958,0,1.711-0.263,2.259-0.789
		c0.547-0.525,0.821-1.262,0.821-2.208v-0.918l-1.54,0.065c-1.225,0.043-2.107,0.233-2.649,0.57
		c-0.541,0.337-0.812,0.862-0.812,1.573c0,0.557,0.168,0.98,0.506,1.271C87.723,159.569,88.194,159.714,88.8,159.714z"/>
	<path d="M103.514,159.436h-0.083c-0.711,1.033-1.775,1.549-3.191,1.549c-1.33,0-2.364-0.455-3.103-1.364
		c-0.739-0.909-1.109-2.202-1.109-3.878c0-1.676,0.371-2.978,1.113-3.906c0.742-0.928,1.775-1.392,3.099-1.392
		c1.379,0,2.437,0.501,3.173,1.503h0.121l-0.065-0.733l-0.037-0.714v-4.138h1.54v14.436h-1.252L103.514,159.436z M100.434,159.695
		c1.051,0,1.813-0.286,2.287-0.858c0.473-0.572,0.709-1.495,0.709-2.77v-0.325c0-1.441-0.24-2.469-0.719-3.084
		c-0.479-0.616-1.245-0.923-2.296-0.923c-0.903,0-1.594,0.351-2.073,1.053s-0.719,1.693-0.719,2.973
		c0,1.299,0.238,2.279,0.714,2.941C98.813,159.365,99.512,159.695,100.434,159.695z"/>
	<path d="M112.532,160.985c-1.503,0-2.689-0.458-3.558-1.373c-0.869-0.915-1.303-2.186-1.303-3.813c0-1.639,0.404-2.941,1.21-3.906
		c0.808-0.965,1.891-1.447,3.252-1.447c1.274,0,2.282,0.419,3.024,1.257c0.742,0.838,1.113,1.944,1.113,3.317v0.974h-7.004
		c0.031,1.194,0.333,2.1,0.905,2.718c0.572,0.619,1.377,0.928,2.417,0.928c1.095,0,2.177-0.229,3.247-0.687v1.373
		c-0.544,0.235-1.059,0.404-1.544,0.505C113.804,160.934,113.218,160.985,112.532,160.985z M112.114,151.735
		c-0.816,0-1.467,0.266-1.953,0.798c-0.485,0.532-0.771,1.268-0.858,2.208h5.316c0-0.971-0.217-1.715-0.649-2.231
		C113.537,151.994,112.918,151.735,112.114,151.735z"/>
	<path d="M123.535,150.446c0.451,0,0.856,0.037,1.215,0.111l-0.213,1.429c-0.421-0.093-0.792-0.139-1.113-0.139
		c-0.823,0-1.526,0.334-2.11,1.002c-0.585,0.668-0.877,1.5-0.877,2.496v5.455h-1.54v-10.168h1.271l0.176,1.883h0.074
		c0.377-0.662,0.832-1.172,1.364-1.531C122.313,150.625,122.897,150.446,123.535,150.446z"/>
	<path d="M133.211,158.025c0,0.946-0.353,1.676-1.058,2.189c-0.705,0.514-1.695,0.77-2.969,0.77c-1.349,0-2.4-0.213-3.154-0.64
		v-1.429c0.488,0.248,1.013,0.442,1.573,0.584c0.56,0.143,1.099,0.213,1.619,0.213c0.804,0,1.422-0.128,1.855-0.385
		c0.433-0.256,0.649-0.647,0.649-1.173c0-0.396-0.171-0.734-0.515-1.016c-0.343-0.281-1.013-0.613-2.008-0.997
		c-0.946-0.353-1.619-0.66-2.018-0.923c-0.398-0.263-0.695-0.562-0.891-0.896c-0.194-0.334-0.292-0.733-0.292-1.197
		c0-0.829,0.337-1.483,1.011-1.962c0.674-0.479,1.599-0.719,2.774-0.719c1.095,0,2.165,0.223,3.21,0.668l-0.547,1.252
		c-1.021-0.42-1.945-0.631-2.774-0.631c-0.73,0-1.28,0.115-1.651,0.343c-0.371,0.229-0.557,0.544-0.557,0.946
		c0,0.272,0.069,0.504,0.209,0.696c0.139,0.192,0.363,0.375,0.672,0.547c0.309,0.173,0.903,0.424,1.781,0.751
		c1.206,0.439,2.021,0.881,2.445,1.327C132.999,156.792,133.211,157.352,133.211,158.025z"/>
	<path d="M81.272,183.599h-1.577v-13.563h7.561v1.401h-5.984v4.963h5.622v1.401h-5.622V183.599z"/>
	<path d="M89.139,170.676c0-0.353,0.086-0.611,0.26-0.775c0.173-0.164,0.39-0.246,0.649-0.246c0.247,0,0.46,0.083,0.64,0.25
		c0.179,0.167,0.269,0.424,0.269,0.77c0,0.347-0.09,0.604-0.269,0.775c-0.18,0.17-0.393,0.255-0.64,0.255
		c-0.26,0-0.477-0.085-0.649-0.255C89.226,171.28,89.139,171.022,89.139,170.676z M90.809,183.599h-1.54v-10.168h1.54V183.599z"/>
	<path d="M98.713,173.246c0.451,0,0.856,0.037,1.215,0.111l-0.213,1.429c-0.421-0.093-0.792-0.139-1.113-0.139
		c-0.823,0-1.526,0.334-2.11,1.002c-0.585,0.668-0.877,1.5-0.877,2.496v5.455h-1.54v-10.168h1.271l0.176,1.883h0.074
		c0.377-0.662,0.832-1.172,1.364-1.531C97.492,173.425,98.076,173.246,98.713,173.246z"/>
	<path d="M108.39,180.825c0,0.946-0.353,1.676-1.058,2.189c-0.705,0.514-1.695,0.77-2.969,0.77c-1.349,0-2.4-0.213-3.154-0.64
		v-1.429c0.488,0.248,1.013,0.442,1.573,0.584c0.56,0.143,1.099,0.213,1.619,0.213c0.804,0,1.422-0.128,1.855-0.385
		c0.433-0.256,0.649-0.647,0.649-1.173c0-0.396-0.171-0.734-0.515-1.016c-0.343-0.281-1.013-0.613-2.008-0.997
		c-0.946-0.353-1.619-0.66-2.018-0.923c-0.398-0.263-0.695-0.562-0.891-0.896c-0.194-0.334-0.292-0.733-0.292-1.197
		c0-0.829,0.337-1.483,1.011-1.962c0.674-0.479,1.599-0.719,2.774-0.719c1.095,0,2.165,0.223,3.21,0.668l-0.547,1.252
		c-1.021-0.42-1.945-0.631-2.774-0.631c-0.73,0-1.28,0.115-1.651,0.343c-0.371,0.229-0.557,0.544-0.557,0.946
		c0,0.271,0.069,0.504,0.209,0.696c0.139,0.192,0.363,0.375,0.672,0.547c0.309,0.173,0.903,0.424,1.781,0.751
		c1.206,0.439,2.021,0.881,2.445,1.327C108.178,179.591,108.39,180.151,108.39,180.825z"/>
	<path d="M114.179,182.514c0.272,0,0.535-0.02,0.789-0.06c0.253-0.041,0.455-0.082,0.603-0.125v1.178
		c-0.167,0.081-0.413,0.147-0.737,0.199c-0.325,0.053-0.617,0.079-0.877,0.079c-1.967,0-2.95-1.036-2.95-3.108v-6.049h-1.457v-0.742
		l1.457-0.64l0.649-2.171h0.891v2.356h2.95v1.197h-2.95v5.984c0,0.612,0.145,1.083,0.436,1.41
		C113.272,182.35,113.671,182.514,114.179,182.514z"/>
</g>
<g enable-background="new    ">
	<path fill="#CCCCCC" d="M114.149,704.349h-3v1h3V704.349L114.149,704.349z M108.149,704.349h-3v1h3V704.349L108.149,704.349z
		 M102.149,704.349h-3v1h3V704.349L102.149,704.349z M96.149,704.349h-3v1h3V704.349L96.149,704.349z M90.149,704.349h-3v1h3
		V704.349L90.149,704.349z M84.149,704.349h-3v1h3V704.349L84.149,704.349z M80.651,705.851h-1v3h1V705.851L80.651,705.851z
		 M80.651,711.851h-1v3h1V711.851L80.651,711.851z M80.651,717.851h-1v3h1V717.851L80.651,717.851z M80.651,723.851h-1v3h1V723.851
		L80.651,723.851z M80.651,729.851h-1v3h1V729.851L80.651,729.851z M80.651,735.851h-1v2.997h1l0,0l0,0l0,0V735.851L80.651,735.851z
		 M85.654,737.848h-3v1h3V737.848L85.654,737.848z M91.654,737.848h-3v1h3V737.848L91.654,737.848z M97.654,737.848h-3v1h3V737.848
		L97.654,737.848z M103.654,737.848h-3v1h3V737.848L103.654,737.848z M109.654,737.848h-3v1h3V737.848L109.654,737.848z
		 M114.149,737.343h-1v0.505h-0.495v1h1.495V737.343L114.149,737.343z M114.149,731.343h-1v3h1V731.343L114.149,731.343z
		 M114.149,725.343h-1v3h1V725.343L114.149,725.343z M114.149,719.343h-1v3h1V719.343L114.149,719.343z M114.149,713.343h-1v3h1
		V713.343L114.149,713.343z M114.149,707.343h-1v3h1V707.343L114.149,707.343z"/>
</g>
<g enable-background="new    ">
	<path fill="#CCCCCC" d="M114.149,650.254h-3v1h3V650.254L114.149,650.254z M108.149,650.254h-3v1h3V650.254L108.149,650.254z
		 M102.149,650.254h-3v1h3V650.254L102.149,650.254z M96.149,650.254h-3v1h3V650.254L96.149,650.254z M90.149,650.254h-3v1h3
		V650.254L90.149,650.254z M84.149,650.254h-3v1h3V650.254L84.149,650.254z M80.651,651.756h-1v3h1V651.756L80.651,651.756z
		 M80.651,657.756h-1v3h1V657.756L80.651,657.756z M80.651,663.756h-1v3h1V663.756L80.651,663.756z M80.651,669.756h-1v3h1V669.756
		L80.651,669.756z M80.651,675.756h-1v3h1V675.756L80.651,675.756z M80.651,681.756h-1v2.997h1l0,0l0,0l0,0V681.756L80.651,681.756z
		 M85.654,683.753h-3v1h3V683.753L85.654,683.753z M91.654,683.753h-3v1h3V683.753L91.654,683.753z M97.654,683.753h-3v1h3V683.753
		L97.654,683.753z M103.654,683.753h-3v1h3V683.753L103.654,683.753z M109.654,683.753h-3v1h3V683.753L109.654,683.753z
		 M114.149,683.248h-1v0.505h-0.495v1h1.495V683.248L114.149,683.248z M114.149,677.248h-1v3h1V677.248L114.149,677.248z
		 M114.149,671.248h-1v3h1V671.248L114.149,671.248z M114.149,665.248h-1v3h1V665.248L114.149,665.248z M114.149,659.248h-1v3h1
		V659.248L114.149,659.248z M114.149,653.248h-1v3h1V653.248L114.149,653.248z"/>
</g>
<g enable-background="new    ">
	<path fill="#CCCCCC" d="M114.149,596.157h-3v1h3V596.157L114.149,596.157z M108.149,596.157h-3v1h3V596.157L108.149,596.157z
		 M102.149,596.157h-3v1h3V596.157L102.149,596.157z M96.149,596.157h-3v1h3V596.157L96.149,596.157z M90.149,596.157h-3v1h3
		V596.157L90.149,596.157z M84.149,596.157h-3v1h3V596.157L84.149,596.157z M80.651,597.659h-1v3h1V597.659L80.651,597.659z
		 M80.651,603.659h-1v3h1V603.659L80.651,603.659z M80.651,609.659h-1v3h1V609.659L80.651,609.659z M80.651,615.659h-1v3h1V615.659
		L80.651,615.659z M80.651,621.659h-1v3h1V621.659L80.651,621.659z M80.651,627.659h-1v2.997h1l0,0l0,0l0,0V627.659L80.651,627.659z
		 M85.654,629.656h-3v1h3V629.656L85.654,629.656z M91.654,629.656h-3v1h3V629.656L91.654,629.656z M97.654,629.656h-3v1h3V629.656
		L97.654,629.656z M103.654,629.656h-3v1h3V629.656L103.654,629.656z M109.654,629.656h-3v1h3V629.656L109.654,629.656z
		 M114.149,629.151h-1v0.505h-0.495v1h1.495V629.151L114.149,629.151z M114.149,623.151h-1v3h1V623.151L114.149,623.151z
		 M114.149,617.151h-1v3h1V617.151L114.149,617.151z M114.149,611.151h-1v3h1V611.151L114.149,611.151z M114.149,605.151h-1v3h1
		V605.151L114.149,605.151z M114.149,599.151h-1v3h1V599.151L114.149,599.151z"/>
</g>
<g enable-background="new    ">
	<path fill="#CCCCCC" d="M114.149,542.062h-3v1h3V542.062L114.149,542.062z M108.149,542.062h-3v1h3V542.062L108.149,542.062z
		 M102.149,542.062h-3v1h3V542.062L102.149,542.062z M96.149,542.062h-3v1h3V542.062L96.149,542.062z M90.149,542.062h-3v1h3
		V542.062L90.149,542.062z M84.149,542.062h-3v1h3V542.062L84.149,542.062z M80.651,543.565h-1v3h1V543.565L80.651,543.565z
		 M80.651,549.565h-1v3h1V549.565L80.651,549.565z M80.651,555.565h-1v3h1V555.565L80.651,555.565z M80.651,561.565h-1v3h1V561.565
		L80.651,561.565z M80.651,567.565h-1v3h1V567.565L80.651,567.565z M80.651,573.565h-1v2.997h1l0,0l0,0l0,0V573.565L80.651,573.565z
		 M85.654,575.562h-3v1h3V575.562L85.654,575.562z M91.654,575.562h-3v1h3V575.562L91.654,575.562z M97.654,575.562h-3v1h3V575.562
		L97.654,575.562z M103.654,575.562h-3v1h3V575.562L103.654,575.562z M109.654,575.562h-3v1h3V575.562L109.654,575.562z
		 M114.149,575.058h-1v0.505h-0.495v1h1.495V575.058L114.149,575.058z M114.149,569.058h-1v3h1V569.058L114.149,569.058z
		 M114.149,563.058h-1v3h1V563.058L114.149,563.058z M114.149,557.058h-1v3h1V557.058L114.149,557.058z M114.149,551.058h-1v3h1
		V551.058L114.149,551.058z M114.149,545.058h-1v3h1V545.058L114.149,545.058z"/>
</g>
<g enable-background="new    ">
	<path fill="#CCCCCC" d="M114.149,487.969h-3v1h3V487.969L114.149,487.969z M108.149,487.969h-3v1h3V487.969L108.149,487.969z
		 M102.149,487.969h-3v1h3V487.969L102.149,487.969z M96.149,487.969h-3v1h3V487.969L96.149,487.969z M90.149,487.969h-3v1h3
		V487.969L90.149,487.969z M84.149,487.969h-3v1h3V487.969L84.149,487.969z M80.651,489.471h-1v3h1V489.471L80.651,489.471z
		 M80.651,495.471h-1v3h1V495.471L80.651,495.471z M80.651,501.471h-1v3h1V501.471L80.651,501.471z M80.651,507.471h-1v3h1V507.471
		L80.651,507.471z M80.651,513.471h-1v3h1V513.471L80.651,513.471z M80.651,519.471h-1v2.997h1l0,0l0,0l0,0V519.471L80.651,519.471z
		 M85.654,521.468h-3v1h3V521.468L85.654,521.468z M91.654,521.468h-3v1h3V521.468L91.654,521.468z M97.654,521.468h-3v1h3V521.468
		L97.654,521.468z M103.654,521.468h-3v1h3V521.468L103.654,521.468z M109.654,521.468h-3v1h3V521.468L109.654,521.468z
		 M114.149,520.963h-1v0.505h-0.495v1h1.495V520.963L114.149,520.963z M114.149,514.963h-1v3h1V514.963L114.149,514.963z
		 M114.149,508.963h-1v3h1V508.963L114.149,508.963z M114.149,502.963h-1v3h1V502.963L114.149,502.963z M114.149,496.963h-1v3h1
		V496.963L114.149,496.963z M114.149,490.963h-1v3h1V490.963L114.149,490.963z"/>
</g>
<g enable-background="new    ">
	<path fill="#CCCCCC" d="M114.149,433.872h-3v1h3V433.872L114.149,433.872z M108.149,433.872h-3v1h3V433.872L108.149,433.872z
		 M102.149,433.872h-3v1h3V433.872L102.149,433.872z M96.149,433.872h-3v1h3V433.872L96.149,433.872z M90.149,433.872h-3v1h3
		V433.872L90.149,433.872z M84.149,433.872h-3v1h3V433.872L84.149,433.872z M80.651,435.374h-1v3h1V435.374L80.651,435.374z
		 M80.651,441.374h-1v3h1V441.374L80.651,441.374z M80.651,447.374h-1v3h1V447.374L80.651,447.374z M80.651,453.374h-1v3h1V453.374
		L80.651,453.374z M80.651,459.374h-1v3h1V459.374L80.651,459.374z M80.651,465.374h-1v2.997h1l0,0l0,0l0,0V465.374L80.651,465.374z
		 M85.654,467.371h-3v1h3V467.371L85.654,467.371z M91.654,467.371h-3v1h3V467.371L91.654,467.371z M97.654,467.371h-3v1h3V467.371
		L97.654,467.371z M103.654,467.371h-3v1h3V467.371L103.654,467.371z M109.654,467.371h-3v1h3V467.371L109.654,467.371z
		 M114.149,466.866h-1v0.505h-0.495v1h1.495V466.866L114.149,466.866z M114.149,460.866h-1v3h1V460.866L114.149,460.866z
		 M114.149,454.866h-1v3h1V454.866L114.149,454.866z M114.149,448.866h-1v3h1V448.866L114.149,448.866z M114.149,442.866h-1v3h1
		V442.866L114.149,442.866z M114.149,436.866h-1v3h1V436.866L114.149,436.866z"/>
</g>
<g enable-background="new    ">
	<path fill="#CCCCCC" d="M114.149,379.776h-3v1h3V379.776L114.149,379.776z M108.149,379.776h-3v1h3V379.776L108.149,379.776z
		 M102.149,379.776h-3v1h3V379.776L102.149,379.776z M96.149,379.776h-3v1h3V379.776L96.149,379.776z M90.149,379.776h-3v1h3
		V379.776L90.149,379.776z M84.149,379.776h-3v1h3V379.776L84.149,379.776z M80.651,381.278h-1v3h1V381.278L80.651,381.278z
		 M80.651,387.278h-1v3h1V387.278L80.651,387.278z M80.651,393.278h-1v3h1V393.278L80.651,393.278z M80.651,399.278h-1v3h1V399.278
		L80.651,399.278z M80.651,405.278h-1v3h1V405.278L80.651,405.278z M80.651,411.278h-1v2.997h1l0,0l0,0l0,0V411.278L80.651,411.278z
		 M85.654,413.275h-3v1h3V413.275L85.654,413.275z M91.654,413.275h-3v1h3V413.275L91.654,413.275z M97.654,413.275h-3v1h3V413.275
		L97.654,413.275z M103.654,413.275h-3v1h3V413.275L103.654,413.275z M109.654,413.275h-3v1h3V413.275L109.654,413.275z
		 M114.149,412.771h-1v0.505h-0.495v1h1.495V412.771L114.149,412.771z M114.149,406.771h-1v3h1V406.771L114.149,406.771z
		 M114.149,400.771h-1v3h1V400.771L114.149,400.771z M114.149,394.771h-1v3h1V394.771L114.149,394.771z M114.149,388.771h-1v3h1
		V388.771L114.149,388.771z M114.149,382.771h-1v3h1V382.771L114.149,382.771z"/>
</g>
<g enable-background="new    ">
	<path fill="#CCCCCC" d="M114.149,325.682h-3v1h3V325.682L114.149,325.682z M108.149,325.682h-3v1h3V325.682L108.149,325.682z
		 M102.149,325.682h-3v1h3V325.682L102.149,325.682z M96.149,325.682h-3v1h3V325.682L96.149,325.682z M90.149,325.682h-3v1h3
		V325.682L90.149,325.682z M84.149,325.682h-3v1h3V325.682L84.149,325.682z M80.651,327.184h-1v3h1V327.184L80.651,327.184z
		 M80.651,333.184h-1v3h1V333.184L80.651,333.184z M80.651,339.184h-1v3h1V339.184L80.651,339.184z M80.651,345.184h-1v3h1V345.184
		L80.651,345.184z M80.651,351.184h-1v3h1V351.184L80.651,351.184z M80.651,357.184h-1v2.997h1l0,0l0,0l0,0V357.184L80.651,357.184z
		 M85.654,359.181h-3v1h3V359.181L85.654,359.181z M91.654,359.181h-3v1h3V359.181L91.654,359.181z M97.654,359.181h-3v1h3V359.181
		L97.654,359.181z M103.654,359.181h-3v1h3V359.181L103.654,359.181z M109.654,359.181h-3v1h3V359.181L109.654,359.181z
		 M114.149,358.676h-1v0.505h-0.495v1h1.495V358.676L114.149,358.676z M114.149,352.676h-1v3h1V352.676L114.149,352.676z
		 M114.149,346.676h-1v3h1V346.676L114.149,346.676z M114.149,340.676h-1v3h1V340.676L114.149,340.676z M114.149,334.676h-1v3h1
		V334.676L114.149,334.676z M114.149,328.676h-1v3h1V328.676L114.149,328.676z"/>
</g>
<g enable-background="new    ">
	<path fill="#CCCCCC" d="M114.149,271.585h-3v1h3V271.585L114.149,271.585z M108.149,271.585h-3v1h3V271.585L108.149,271.585z
		 M102.149,271.585h-3v1h3V271.585L102.149,271.585z M96.149,271.585h-3v1h3V271.585L96.149,271.585z M90.149,271.585h-3v1h3
		V271.585L90.149,271.585z M84.149,271.585h-3v1h3V271.585L84.149,271.585z M80.651,273.087h-1v3h1V273.087L80.651,273.087z
		 M80.651,279.087h-1v3h1V279.087L80.651,279.087z M80.651,285.087h-1v3h1V285.087L80.651,285.087z M80.651,291.087h-1v3h1V291.087
		L80.651,291.087z M80.651,297.087h-1v3h1V297.087L80.651,297.087z M80.651,303.087h-1v2.997h1l0,0l0,0l0,0V303.087L80.651,303.087z
		 M85.654,305.084h-3v1h3V305.084L85.654,305.084z M91.654,305.084h-3v1h3V305.084L91.654,305.084z M97.654,305.084h-3v1h3V305.084
		L97.654,305.084z M103.654,305.084h-3v1h3V305.084L103.654,305.084z M109.654,305.084h-3v1h3V305.084L109.654,305.084z
		 M114.149,304.579h-1v0.505h-0.495v1h1.495V304.579L114.149,304.579z M114.149,298.579h-1v3h1V298.579L114.149,298.579z
		 M114.149,292.579h-1v3h1V292.579L114.149,292.579z M114.149,286.579h-1v3h1V286.579L114.149,286.579z M114.149,280.579h-1v3h1
		V280.579L114.149,280.579z M114.149,274.579h-1v3h1V274.579L114.149,274.579z"/>
</g>
<g enable-background="new    ">
	<path fill="#CCCCCC" d="M114.149,217.49h-3v1h3V217.49L114.149,217.49z M108.149,217.49h-3v1h3V217.49L108.149,217.49z
		 M102.149,217.49h-3v1h3V217.49L102.149,217.49z M96.149,217.49h-3v1h3V217.49L96.149,217.49z M90.149,217.49h-3v1h3V217.49
		L90.149,217.49z M84.149,217.49h-3v1h3V217.49L84.149,217.49z M80.651,218.992h-1v3h1V218.992L80.651,218.992z M80.651,224.992h-1
		v3h1V224.992L80.651,224.992z M80.651,230.992h-1v3h1V230.992L80.651,230.992z M80.651,236.992h-1v3h1V236.992L80.651,236.992z
		 M80.651,242.992h-1v3h1V242.992L80.651,242.992z M80.651,248.992h-1v2.997h1l0,0l0,0l0,0V248.992L80.651,248.992z M85.654,250.989
		h-3v1h3V250.989L85.654,250.989z M91.654,250.989h-3v1h3V250.989L91.654,250.989z M97.654,250.989h-3v1h3V250.989L97.654,250.989z
		 M103.654,250.989h-3v1h3V250.989L103.654,250.989z M109.654,250.989h-3v1h3V250.989L109.654,250.989z M114.149,250.484h-1v0.505
		h-0.495v1h1.495V250.484L114.149,250.484z M114.149,244.484h-1v3h1V244.484L114.149,244.484z M114.149,238.484h-1v3h1V238.484
		L114.149,238.484z M114.149,232.484h-1v3h1V232.484L114.149,232.484z M114.149,226.484h-1v3h1V226.484L114.149,226.484z
		 M114.149,220.484h-1v3h1V220.484L114.149,220.484z"/>
</g>
<rect x="79.651" y="217.49" width="34.498" height="7.984"/>
<rect x="79.651" y="271.585" width="34.498" height="7.984"/>
<rect x="79.651" y="325.681" width="34.498" height="7.984"/>
<rect x="79.651" y="379.776" width="34.498" height="7.982"/>
<rect x="79.651" y="433.873" width="34.498" height="7.984"/>
<rect x="79.651" y="487.969" width="34.498" height="7.984"/>
<rect x="79.651" y="542.062" width="34.498" height="7.983"/>
<rect x="79.651" y="596.158" width="34.498" height="7.983"/>
<rect x="79.651" y="650.254" width="34.498" height="7.984"/>
<rect x="79.651" y="704.35" width="34.498" height="7.984"/>
<g opacity="0.55">
	<g>
		<path fill="none" stroke="#000000" stroke-miterlimit="10" d="M74.991,271.585h-3.157c-1.65,0-3-1.35-3-3v-44.104
			c0-1.65,1.35-3,3-3h7.817"/>
		<g>
			<polygon points="79.651,271.585 73.084,268.902 74.643,271.585 73.084,274.268 			"/>
		</g>
	</g>
</g>
<g opacity="0.55">
	<g>
		<path fill="none" stroke="#000000" stroke-miterlimit="10" d="M74.991,325.681h-3.157c-1.65,0-3-1.35-3-3v-44.104
			c0-1.65,1.35-3,3-3h7.817"/>
		<g>
			<polygon points="79.651,325.681 73.084,322.998 74.643,325.681 73.084,328.364 			"/>
		</g>
	</g>
</g>
<g opacity="0.55">
	<g>
		<path fill="none" stroke="#000000" stroke-miterlimit="10" d="M74.991,379.776h-3.157c-1.65,0-3-1.352-3-3v-44.104
			c0-1.649,1.35-3,3-3h7.817"/>
		<g>
			<polygon points="79.651,379.776 73.084,377.094 74.643,379.776 73.084,382.459 			"/>
		</g>
	</g>
</g>
<g opacity="0.55">
	<g>
		<path fill="none" stroke="#000000" stroke-miterlimit="10" d="M74.991,433.873h-3.157c-1.65,0-3-1.35-3-3V386.77
			c0-1.649,1.35-3,3-3h7.817"/>
		<g>
			<polygon points="79.651,433.873 73.084,431.189 74.643,433.873 73.084,436.555 			"/>
		</g>
	</g>
</g>
<g opacity="0.55">
	<g>
		<path fill="none" stroke="#000000" stroke-miterlimit="10" d="M74.991,487.969h-3.157c-1.65,0-3-1.35-3-3v-44.104
			c0-1.65,1.35-3,3-3h7.817"/>
		<g>
			<polygon points="79.651,487.969 73.084,485.285 74.643,487.969 73.084,490.65 			"/>
		</g>
	</g>
</g>
<g opacity="0.55">
	<g>
		<path fill="none" stroke="#000000" stroke-miterlimit="10" d="M74.991,542.064h-3.157c-1.65,0-3-1.351-3-3V494.96
			c0-1.65,1.35-3,3-3h7.817"/>
		<g>
			<polygon points="79.651,542.064 73.084,539.381 74.643,542.064 73.084,544.746 			"/>
		</g>
	</g>
</g>
<g opacity="0.55">
	<g>
		<path fill="none" stroke="#000000" stroke-miterlimit="10" d="M74.991,596.16h-3.157c-1.65,0-3-1.351-3-3v-44.104
			c0-1.649,1.35-3,3-3h7.817"/>
		<g>
			<polygon points="79.651,596.16 73.084,593.477 74.643,596.16 73.084,598.842 			"/>
		</g>
	</g>
</g>
<g opacity="0.55">
	<g>
		<path fill="none" stroke="#000000" stroke-miterlimit="10" d="M74.991,650.256h-3.157c-1.65,0-3-1.35-3-3v-44.104
			c0-1.65,1.35-3,3-3h7.817"/>
		<g>
			<polygon points="79.651,650.256 73.084,647.572 74.643,650.256 73.084,652.938 			"/>
		</g>
	</g>
</g>
<g opacity="0.55">
	<g>
		<path fill="none" stroke="#000000" stroke-miterlimit="10" d="M74.991,704.352h-3.157c-1.65,0-3-1.35-3-3v-44.104
			c0-1.65,1.35-3,3-3h7.817"/>
		<g>
			<polygon points="79.651,704.352 73.084,701.668 74.643,704.352 73.084,707.033 			"/>
		</g>
	</g>
</g>
<g enable-background="new    ">
	<path fill="#CCCCCC" d="M332.335,379.776h-3v1h3V379.776L332.335,379.776z M326.335,379.776h-3v1h3V379.776L326.335,379.776z
		 M320.335,379.776h-3v1h3V379.776L320.335,379.776z M314.335,379.776h-3v1h3V379.776L314.335,379.776z M308.335,379.776h-3v1h3
		V379.776L308.335,379.776z M302.335,379.776h-3v1h3V379.776L302.335,379.776z M298.837,381.278h-1v3h1V381.278L298.837,381.278z
		 M298.837,387.278h-1v3h1V387.278L298.837,387.278z M298.837,393.278h-1v3h1V393.278L298.837,393.278z M298.837,399.278h-1v3h1
		V399.278L298.837,399.278z M298.837,405.278h-1v3h1V405.278L298.837,405.278z M298.837,411.278h-1v2.997h1l0,0l0,0l0,0V411.278
		L298.837,411.278z M303.84,413.275h-3v1h3V413.275L303.84,413.275z M309.84,413.275h-3v1h3V413.275L309.84,413.275z
		 M315.84,413.275h-3v1h3V413.275L315.84,413.275z M321.84,413.275h-3v1h3V413.275L321.84,413.275z M327.84,413.275h-3v1h3V413.275
		L327.84,413.275z M332.335,412.771h-1v0.505h-0.495v1h1.495V412.771L332.335,412.771z M332.335,406.771h-1v3h1V406.771
		L332.335,406.771z M332.335,400.771h-1v3h1V400.771L332.335,400.771z M332.335,394.771h-1v3h1V394.771L332.335,394.771z
		 M332.335,388.771h-1v3h1V388.771L332.335,388.771z M332.335,382.771h-1v3h1V382.771L332.335,382.771z"/>
</g>
<g enable-background="new    ">
	<path fill="#CCCCCC" d="M332.335,487.968h-3v1h3V487.968L332.335,487.968z M326.335,487.968h-3v1h3V487.968L326.335,487.968z
		 M320.335,487.968h-3v1h3V487.968L320.335,487.968z M314.335,487.968h-3v1h3V487.968L314.335,487.968z M308.335,487.968h-3v1h3
		V487.968L308.335,487.968z M302.335,487.968h-3v1h3V487.968L302.335,487.968z M298.837,489.47h-1v3h1V489.47L298.837,489.47z
		 M298.837,495.47h-1v3h1V495.47L298.837,495.47z M298.837,501.47h-1v3h1V501.47L298.837,501.47z M298.837,507.47h-1v3h1V507.47
		L298.837,507.47z M298.837,513.47h-1v3h1V513.47L298.837,513.47z M298.837,519.47h-1v2.997h1l0,0l0,0l0,0V519.47L298.837,519.47z
		 M303.84,521.467h-3v1h3V521.467L303.84,521.467z M309.84,521.467h-3v1h3V521.467L309.84,521.467z M315.84,521.467h-3v1h3V521.467
		L315.84,521.467z M321.84,521.467h-3v1h3V521.467L321.84,521.467z M327.84,521.467h-3v1h3V521.467L327.84,521.467z
		 M332.335,520.962h-1v0.505h-0.495v1h1.495V520.962L332.335,520.962z M332.335,514.962h-1v3h1V514.962L332.335,514.962z
		 M332.335,508.962h-1v3h1V508.962L332.335,508.962z M332.335,502.962h-1v3h1V502.962L332.335,502.962z M332.335,496.962h-1v3h1
		V496.962L332.335,496.962z M332.335,490.962h-1v3h1V490.962L332.335,490.962z"/>
</g>
<g enable-background="new    ">
	<path fill="#CCCCCC" d="M332.335,596.157h-3v1h3V596.157L332.335,596.157z M326.335,596.157h-3v1h3V596.157L326.335,596.157z
		 M320.335,596.157h-3v1h3V596.157L320.335,596.157z M314.335,596.157h-3v1h3V596.157L314.335,596.157z M308.335,596.157h-3v1h3
		V596.157L308.335,596.157z M302.335,596.157h-3v1h3V596.157L302.335,596.157z M298.837,597.659h-1v3h1V597.659L298.837,597.659z
		 M298.837,603.659h-1v3h1V603.659L298.837,603.659z M298.837,609.659h-1v3h1V609.659L298.837,609.659z M298.837,615.659h-1v3h1
		V615.659L298.837,615.659z M298.837,621.659h-1v3h1V621.659L298.837,621.659z M298.837,627.659h-1v2.997h1l0,0l0,0l0,0V627.659
		L298.837,627.659z M303.84,629.656h-3v1h3V629.656L303.84,629.656z M309.84,629.656h-3v1h3V629.656L309.84,629.656z
		 M315.84,629.656h-3v1h3V629.656L315.84,629.656z M321.84,629.656h-3v1h3V629.656L321.84,629.656z M327.84,629.656h-3v1h3V629.656
		L327.84,629.656z M332.335,629.151h-1v0.505h-0.495v1h1.495V629.151L332.335,629.151z M332.335,623.151h-1v3h1V623.151
		L332.335,623.151z M332.335,617.151h-1v3h1V617.151L332.335,617.151z M332.335,611.151h-1v3h1V611.151L332.335,611.151z
		 M332.335,605.151h-1v3h1V605.151L332.335,605.151z M332.335,599.151h-1v3h1V599.151L332.335,599.151z"/>
</g>
<g enable-background="new    ">
	<path fill="#CCCCCC" d="M332.335,271.585h-3v1h3V271.585L332.335,271.585z M326.335,271.585h-3v1h3V271.585L326.335,271.585z
		 M320.335,271.585h-3v1h3V271.585L320.335,271.585z M314.335,271.585h-3v1h3V271.585L314.335,271.585z M308.335,271.585h-3v1h3
		V271.585L308.335,271.585z M302.335,271.585h-3v1h3V271.585L302.335,271.585z M298.836,273.086h-1v3h1V273.086L298.836,273.086z
		 M298.836,279.086h-1v3h1V279.086L298.836,279.086z M298.836,285.086h-1v3h1V285.086L298.836,285.086z M298.836,291.086h-1v3h1
		V291.086L298.836,291.086z M298.836,297.086h-1v3h1V297.086L298.836,297.086z M298.836,303.086h-1v2.998h1l0,0l0,0l0,0V303.086
		L298.836,303.086z M303.839,305.084h-3v1h3V305.084L303.839,305.084z M309.839,305.084h-3v1h3V305.084L309.839,305.084z
		 M315.839,305.084h-3v1h3V305.084L315.839,305.084z M321.839,305.084h-3v1h3V305.084L321.839,305.084z M327.839,305.084h-3v1h3
		V305.084L327.839,305.084z M332.335,304.581h-1v0.503h-0.497v1h1.497V304.581L332.335,304.581z M332.335,298.581h-1v3h1V298.581
		L332.335,298.581z M332.335,292.581h-1v3h1V292.581L332.335,292.581z M332.335,286.581h-1v3h1V286.581L332.335,286.581z
		 M332.335,280.581h-1v3h1V280.581L332.335,280.581z M332.335,274.581h-1v3h1V274.581L332.335,274.581z"/>
</g>
<g opacity="0.55">
	<g>
		<path fill="none" stroke="#000000" stroke-miterlimit="10" d="M293.177,271.585h-3.157c-1.65,0-3-1.35-3-3v-44.104
			c0-1.65,1.35-3,3-3h7.817"/>
		<g>
			<polygon points="297.837,271.585 291.271,268.902 292.829,271.585 291.271,274.268 			"/>
		</g>
	</g>
</g>
<g opacity="0.55">
	<g>
		<path fill="none" stroke="#000000" stroke-miterlimit="10" d="M293.177,325.681h-3.157c-1.65,0-3-1.35-3-3v-44.104
			c0-1.65,1.35-3,3-3h7.817"/>
		<g>
			<polygon points="297.837,325.681 291.271,322.998 292.829,325.681 291.271,328.364 			"/>
		</g>
	</g>
</g>
<g opacity="0.55">
	<g>
		<path fill="none" stroke="#000000" stroke-miterlimit="10" d="M293.177,379.776h-3.157c-1.65,0-3-1.351-3-3v-44.104
			c0-1.649,1.35-3,3-3h7.817"/>
		<g>
			<polygon points="297.837,379.776 291.271,377.093 292.829,379.776 291.271,382.459 			"/>
		</g>
	</g>
</g>
<g opacity="0.55">
	<g>
		<path fill="none" stroke="#000000" stroke-miterlimit="10" d="M293.177,433.873h-3.157c-1.65,0-3-1.35-3-3V386.77
			c0-1.649,1.35-3,3-3h7.817"/>
		<g>
			<polygon points="297.837,433.873 291.271,431.189 292.829,433.873 291.271,436.556 			"/>
		</g>
	</g>
</g>
<g opacity="0.55">
	<g>
		<path fill="none" stroke="#000000" stroke-miterlimit="10" d="M293.177,487.969h-3.157c-1.65,0-3-1.35-3-3v-44.104
			c0-1.65,1.35-3,3-3h7.817"/>
		<g>
			<polygon points="297.837,487.969 291.271,485.285 292.829,487.969 291.271,490.651 			"/>
		</g>
	</g>
</g>
<g opacity="0.55">
	<g>
		<path fill="none" stroke="#000000" stroke-miterlimit="10" d="M293.177,542.064h-3.157c-1.65,0-3-1.351-3-3V494.96
			c0-1.65,1.35-3,3-3h7.817"/>
		<g>
			<polygon points="297.837,542.064 291.271,539.381 292.829,542.064 291.271,544.747 			"/>
		</g>
	</g>
</g>
<g opacity="0.55">
	<g>
		<path fill="none" stroke="#000000" stroke-miterlimit="10" d="M293.177,596.16h-3.157c-1.65,0-3-1.351-3-3v-44.104
			c0-1.649,1.35-3,3-3h7.817"/>
		<g>
			<polygon points="297.837,596.16 291.271,593.477 292.829,596.16 291.271,598.843 			"/>
		</g>
	</g>
</g>
<g opacity="0.55">
	<g>
		<path fill="none" stroke="#000000" stroke-miterlimit="10" d="M293.177,650.256h-3.157c-1.65,0-3-1.35-3-3v-44.104
			c0-1.65,1.35-3,3-3h7.817"/>
		<g>
			<polygon points="297.837,650.256 291.271,647.572 292.829,650.256 291.271,652.938 			"/>
		</g>
	</g>
</g>
<g opacity="0.55">
	<g>
		<path fill="none" stroke="#000000" stroke-miterlimit="10" d="M293.177,704.352h-3.157c-1.65,0-3-1.35-3-3v-44.104
			c0-1.65,1.35-3,3-3h7.817"/>
		<g>
			<polygon points="297.837,704.352 291.271,701.668 292.829,704.352 291.271,707.034 			"/>
		</g>
	</g>
</g>
<rect x="297.837" y="217.49" fill="#C8D7E3" stroke="#000000" stroke-miterlimit="10" width="34.498" height="34.498"/>
<rect x="297.837" y="325.681" fill="#C8D7E3" stroke="#000000" stroke-miterlimit="10" width="34.498" height="34.499"/>
<rect x="297.837" y="542.062" fill="#C8D7E3" stroke="#000000" stroke-miterlimit="10" width="34.498" height="34.497"/>
<rect x="297.837" y="433.873" fill="#C8D7E3" stroke="#000000" stroke-miterlimit="10" width="34.498" height="34.498"/>
<rect x="297.837" y="650.254" fill="#C8D7E3" stroke="#000000" stroke-miterlimit="10" width="34.498" height="34.498"/>
<rect x="297.837" y="704.35" fill="#C8D7E3" stroke="#000000" stroke-miterlimit="10" width="34.498" height="34.498"/>
<rect x="297.837" y="217.49" width="34.498" height="7.984"/>
<rect x="297.837" y="271.585" width="34.498" height="7.984"/>
<rect x="297.837" y="325.681" width="34.498" height="7.984"/>
<rect x="297.837" y="379.776" width="34.498" height="7.982"/>
<rect x="297.837" y="433.873" width="34.498" height="7.984"/>
<rect x="297.837" y="487.969" width="34.498" height="7.984"/>
<rect x="297.837" y="542.062" width="34.498" height="7.983"/>
<rect x="297.837" y="596.158" width="34.498" height="7.983"/>
<rect x="297.837" y="650.254" width="34.498" height="7.984"/>
<rect x="297.837" y="704.35" width="34.498" height="7.984"/>
<g>
	<g>
		<line fill="none" stroke="#000000" stroke-miterlimit="10" x1="345.396" y1="234.739" x2="348.396" y2="234.739"/>
		
			<line fill="none" stroke="#000000" stroke-miterlimit="10" stroke-dasharray="6.6166,6.6166" x1="355.012" y1="234.739" x2="404.637" y2="234.739"/>
		<line fill="none" stroke="#000000" stroke-miterlimit="10" x1="407.945" y1="234.739" x2="410.945" y2="234.739"/>
		<g>
			<polygon points="338.335,234.739 348.284,238.805 345.923,234.739 348.284,230.675 			"/>
		</g>
	</g>
</g>
<g>
	<g>
		<line fill="none" stroke="#000000" stroke-miterlimit="10" x1="345.396" y1="342.93" x2="348.396" y2="342.93"/>
		
			<line fill="none" stroke="#000000" stroke-miterlimit="10" stroke-dasharray="6.6166,6.6166" x1="355.012" y1="342.93" x2="404.637" y2="342.93"/>
		<line fill="none" stroke="#000000" stroke-miterlimit="10" x1="407.945" y1="342.93" x2="410.945" y2="342.93"/>
		<g>
			<polygon points="338.335,342.93 348.284,346.996 345.923,342.93 348.284,338.866 			"/>
		</g>
	</g>
</g>
<g>
	<g>
		<line fill="none" stroke="#000000" stroke-miterlimit="10" x1="345.396" y1="451.121" x2="348.396" y2="451.121"/>
		
			<line fill="none" stroke="#000000" stroke-miterlimit="10" stroke-dasharray="6.6166,6.6166" x1="355.012" y1="451.121" x2="404.637" y2="451.121"/>
		<line fill="none" stroke="#000000" stroke-miterlimit="10" x1="407.945" y1="451.121" x2="410.945" y2="451.121"/>
		<g>
			<polygon points="338.335,451.121 348.284,455.188 345.923,451.121 348.284,447.057 			"/>
		</g>
	</g>
</g>
<g>
	<g>
		<line fill="none" stroke="#000000" stroke-miterlimit="10" x1="345.396" y1="559.312" x2="348.396" y2="559.312"/>
		
			<line fill="none" stroke="#000000" stroke-miterlimit="10" stroke-dasharray="6.6166,6.6166" x1="355.012" y1="559.312" x2="404.637" y2="559.312"/>
		<line fill="none" stroke="#000000" stroke-miterlimit="10" x1="407.945" y1="559.312" x2="410.945" y2="559.312"/>
		<g>
			<polygon points="338.335,559.312 348.284,563.378 345.923,559.312 348.284,555.248 			"/>
		</g>
	</g>
</g>
<g>
	<g>
		<line fill="none" stroke="#000000" stroke-miterlimit="10" x1="345.396" y1="667.504" x2="348.396" y2="667.504"/>
		
			<line fill="none" stroke="#000000" stroke-miterlimit="10" stroke-dasharray="6.6166,6.6166" x1="355.012" y1="667.504" x2="404.637" y2="667.504"/>
		<line fill="none" stroke="#000000" stroke-miterlimit="10" x1="407.945" y1="667.504" x2="410.945" y2="667.504"/>
		<g>
			<polygon points="338.335,667.504 348.284,671.569 345.923,667.504 348.284,663.439 			"/>
		</g>
	</g>
</g>
<g>
	<g>
		<line fill="none" stroke="#000000" stroke-miterlimit="10" x1="345.396" y1="725.475" x2="348.396" y2="725.475"/>
		
			<line fill="none" stroke="#000000" stroke-miterlimit="10" stroke-dasharray="6.6166,6.6166" x1="355.012" y1="725.475" x2="404.637" y2="725.475"/>
		<line fill="none" stroke="#000000" stroke-miterlimit="10" x1="407.945" y1="725.475" x2="410.945" y2="725.475"/>
		<g>
			<polygon points="338.335,725.475 348.284,729.54 345.923,725.475 348.284,721.41 			"/>
		</g>
	</g>
</g>
<rect x="537.847" y="487.969" fill="#C8D7E3" stroke="#000000" stroke-miterlimit="10" width="34.498" height="34.498"/>
<rect x="537.847" y="217.49" fill="#C8D7E3" stroke="#000000" stroke-miterlimit="10" width="34.498" height="34.498"/>
<rect x="537.847" y="325.681" fill="#C8D7E3" stroke="#000000" stroke-miterlimit="10" width="34.498" height="34.499"/>
<g enable-background="new    ">
	<path fill="#CCCCCC" d="M572.345,379.776h-3v1h3V379.776L572.345,379.776z M566.345,379.776h-3v1h3V379.776L566.345,379.776z
		 M560.345,379.776h-3v1h3V379.776L560.345,379.776z M554.345,379.776h-3v1h3V379.776L554.345,379.776z M548.345,379.776h-3v1h3
		V379.776L548.345,379.776z M542.345,379.776h-3v1h3V379.776L542.345,379.776z M538.847,381.278h-1v3h1V381.278L538.847,381.278z
		 M538.847,387.278h-1v3h1V387.278L538.847,387.278z M538.847,393.278h-1v3h1V393.278L538.847,393.278z M538.847,399.278h-1v3h1
		V399.278L538.847,399.278z M538.847,405.278h-1v3h1V405.278L538.847,405.278z M538.847,411.278h-1v2.997h1l0,0l0,0l0,0V411.278
		L538.847,411.278z M543.85,413.275h-3v1h3V413.275L543.85,413.275z M549.85,413.275h-3v1h3V413.275L549.85,413.275z
		 M555.85,413.275h-3v1h3V413.275L555.85,413.275z M561.85,413.275h-3v1h3V413.275L561.85,413.275z M567.85,413.275h-3v1h3V413.275
		L567.85,413.275z M572.345,412.771h-1v0.505h-0.495v1h1.495V412.771L572.345,412.771z M572.345,406.771h-1v3h1V406.771
		L572.345,406.771z M572.345,400.771h-1v3h1V400.771L572.345,400.771z M572.345,394.771h-1v3h1V394.771L572.345,394.771z
		 M572.345,388.771h-1v3h1V388.771L572.345,388.771z M572.345,382.771h-1v3h1V382.771L572.345,382.771z"/>
</g>
<g enable-background="new    ">
	<path fill="#CCCCCC" d="M572.345,271.585h-3v1h3V271.585L572.345,271.585z M566.345,271.585h-3v1h3V271.585L566.345,271.585z
		 M560.345,271.585h-3v1h3V271.585L560.345,271.585z M554.345,271.585h-3v1h3V271.585L554.345,271.585z M548.345,271.585h-3v1h3
		V271.585L548.345,271.585z M542.345,271.585h-3v1h3V271.585L542.345,271.585z M538.846,273.086h-1v3h1V273.086L538.846,273.086z
		 M538.846,279.086h-1v3h1V279.086L538.846,279.086z M538.846,285.086h-1v3h1V285.086L538.846,285.086z M538.846,291.086h-1v3h1
		V291.086L538.846,291.086z M538.846,297.086h-1v3h1V297.086L538.846,297.086z M538.846,303.086h-1v2.998h1l0,0l0,0l0,0V303.086
		L538.846,303.086z M543.849,305.084h-3v1h3V305.084L543.849,305.084z M549.849,305.084h-3v1h3V305.084L549.849,305.084z
		 M555.849,305.084h-3v1h3V305.084L555.849,305.084z M561.849,305.084h-3v1h3V305.084L561.849,305.084z M567.849,305.084h-3v1h3
		V305.084L567.849,305.084z M572.345,304.581h-1v0.503h-0.497v1h1.497V304.581L572.345,304.581z M572.345,298.581h-1v3h1V298.581
		L572.345,298.581z M572.345,292.581h-1v3h1V292.581L572.345,292.581z M572.345,286.581h-1v3h1V286.581L572.345,286.581z
		 M572.345,280.581h-1v3h1V280.581L572.345,280.581z M572.345,274.581h-1v3h1V274.581L572.345,274.581z"/>
</g>
<rect x="537.847" y="542.062" fill="#97B2C3" stroke="#000000" stroke-miterlimit="10" width="34.498" height="34.497"/>
<rect x="537.847" y="596.158" fill="#97B2C3" stroke="#000000" stroke-miterlimit="10" width="34.498" height="34.498"/>
<rect x="537.847" y="650.254" fill="#97B2C3" stroke="#000000" stroke-miterlimit="10" width="34.498" height="34.498"/>
<rect x="537.847" y="704.35" fill="#97B2C3" stroke="#000000" stroke-miterlimit="10" width="34.498" height="34.498"/>
<rect x="537.847" y="433.871" fill="#C8D7E3" stroke="#000000" stroke-miterlimit="10" width="34.498" height="34.5"/>
<g>
	<g>
		
			<line fill="none" stroke="#000000" stroke-width="2" stroke-miterlimit="10" x1="599.048" y1="549.831" x2="599.048" y2="737.848"/>
		<g>
			<polygon points="599.048,542.064 594.576,553.009 599.048,550.412 603.519,553.009 			"/>
		</g>
		<g>
			<rect x="592.548" y="736.848" width="13" height="2"/>
		</g>
	</g>
</g>
<g>
	<rect x="477.941" y="146.359" fill="none" width="150.65" height="71.38"/>
	<path d="M512.845,148.451c-1.491,0-2.667,0.497-3.53,1.489c-0.862,0.993-1.293,2.352-1.293,4.078c0,1.775,0.415,3.146,1.247,4.115
		c0.832,0.968,2.019,1.452,3.559,1.452c0.946,0,2.024-0.17,3.237-0.51v1.382c-0.939,0.353-2.1,0.529-3.479,0.529
		c-1.998,0-3.54-0.606-4.625-1.818c-1.086-1.212-1.628-2.935-1.628-5.167c0-1.397,0.261-2.622,0.784-3.674
		c0.522-1.051,1.276-1.861,2.264-2.431c0.987-0.569,2.148-0.854,3.484-0.854c1.422,0,2.666,0.26,3.729,0.779l-0.668,1.354
		C514.898,148.692,513.872,148.451,512.845,148.451z"/>
	<path d="M527.568,155.706c0,1.658-0.417,2.952-1.252,3.882c-0.836,0.931-1.989,1.396-3.461,1.396c-0.908,0-1.716-0.213-2.421-0.64
		c-0.705-0.427-1.25-1.039-1.633-1.837c-0.384-0.798-0.575-1.731-0.575-2.802c0-1.657,0.414-2.949,1.243-3.874
		c0.829-0.924,1.979-1.387,3.451-1.387c1.422,0,2.553,0.473,3.391,1.419C527.149,152.812,527.568,154.092,527.568,155.706z
		 M519.822,155.706c0,1.299,0.26,2.289,0.778,2.969c0.521,0.681,1.283,1.021,2.292,1.021s1.773-0.338,2.297-1.016
		c0.522-0.677,0.783-1.668,0.783-2.973c0-1.292-0.261-2.274-0.783-2.946c-0.522-0.671-1.295-1.006-2.314-1.006
		c-1.008,0-1.769,0.331-2.282,0.993C520.078,153.409,519.822,154.395,519.822,155.706z"/>
	<path d="M537.226,160.799v-6.578c0-0.829-0.188-1.447-0.565-1.855c-0.377-0.408-0.968-0.612-1.772-0.612
		c-1.063,0-1.843,0.288-2.338,0.863c-0.495,0.575-0.742,1.525-0.742,2.848v5.334h-1.54v-10.168h1.253l0.25,1.392h0.073
		c0.315-0.501,0.758-0.889,1.327-1.164s1.203-0.413,1.902-0.413c1.225,0,2.146,0.295,2.765,0.886
		c0.618,0.591,0.928,1.536,0.928,2.834v6.633H537.226z"/>
	<path d="M545.214,159.714c0.272,0,0.535-0.02,0.789-0.06c0.253-0.041,0.455-0.082,0.604-0.125v1.178
		c-0.167,0.081-0.413,0.147-0.737,0.199c-0.325,0.053-0.617,0.079-0.877,0.079c-1.967,0-2.95-1.036-2.95-3.108v-6.049h-1.457v-0.742
		l1.457-0.64l0.649-2.171h0.891v2.356h2.95v1.197h-2.95v5.984c0,0.612,0.145,1.083,0.436,1.41
		C544.308,159.55,544.707,159.714,545.214,159.714z"/>
	<path d="M552.933,160.985c-1.503,0-2.688-0.458-3.558-1.373c-0.869-0.915-1.303-2.186-1.303-3.813c0-1.639,0.403-2.941,1.21-3.906
		c0.808-0.965,1.891-1.447,3.252-1.447c1.273,0,2.282,0.419,3.023,1.257c0.742,0.838,1.113,1.944,1.113,3.317v0.974h-7.004
		c0.031,1.194,0.333,2.1,0.905,2.718c0.572,0.619,1.377,0.928,2.417,0.928c1.095,0,2.177-0.229,3.247-0.687v1.373
		c-0.544,0.235-1.06,0.404-1.544,0.505C554.205,160.934,553.619,160.985,552.933,160.985z M552.515,151.735
		c-0.815,0-1.467,0.266-1.952,0.798c-0.485,0.532-0.771,1.268-0.858,2.208h5.315c0-0.971-0.217-1.715-0.648-2.231
		C553.938,151.994,553.319,151.735,552.515,151.735z"/>
	<path d="M561.746,155.595l-3.535-4.963h1.753l2.681,3.896l2.673-3.896h1.734l-3.535,4.963l3.721,5.205h-1.744l-2.849-4.119
		l-2.876,4.119h-1.743L561.746,155.595z"/>
	<path d="M572.536,159.714c0.271,0,0.535-0.02,0.789-0.06c0.253-0.041,0.455-0.082,0.603-0.125v1.178
		c-0.167,0.081-0.413,0.147-0.736,0.199c-0.325,0.053-0.617,0.079-0.877,0.079c-1.968,0-2.95-1.036-2.95-3.108v-6.049h-1.457v-0.742
		l1.457-0.64l0.648-2.171h0.892v2.356h2.949v1.197h-2.949v5.984c0,0.612,0.145,1.083,0.436,1.41
		C571.629,159.55,572.028,159.714,572.536,159.714z"/>
	<path d="M577.406,150.631v6.596c0,0.829,0.188,1.447,0.565,1.855c0.377,0.408,0.969,0.612,1.772,0.612
		c1.062,0,1.842-0.291,2.333-0.872c0.492-0.581,0.737-1.531,0.737-2.848v-5.344h1.54v10.168h-1.271l-0.223-1.364h-0.083
		c-0.315,0.501-0.753,0.885-1.313,1.15c-0.56,0.266-1.198,0.399-1.916,0.399c-1.237,0-2.163-0.293-2.779-0.881
		c-0.614-0.587-0.923-1.527-0.923-2.82v-6.652L577.406,150.631L577.406,150.631z"/>
	<path d="M593.874,160.799l-0.306-1.447h-0.074c-0.507,0.637-1.013,1.068-1.518,1.294c-0.504,0.226-1.133,0.339-1.888,0.339
		c-1.008,0-1.798-0.26-2.37-0.779c-0.572-0.52-0.857-1.258-0.857-2.217c0-2.053,1.642-3.129,4.926-3.229l1.726-0.056v-0.631
		c0-0.798-0.171-1.387-0.515-1.767c-0.343-0.381-0.892-0.571-1.646-0.571c-0.848,0-1.806,0.26-2.875,0.779l-0.474-1.178
		c0.501-0.272,1.05-0.485,1.647-0.64c0.597-0.154,1.194-0.232,1.795-0.232c1.212,0,2.109,0.269,2.694,0.807
		c0.584,0.538,0.876,1.401,0.876,2.588v6.939L593.874,160.799L593.874,160.799z M590.395,159.714c0.959,0,1.712-0.263,2.26-0.789
		c0.547-0.525,0.82-1.262,0.82-2.208v-0.918l-1.54,0.065c-1.225,0.043-2.106,0.233-2.648,0.57c-0.541,0.337-0.812,0.862-0.812,1.573
		c0,0.557,0.168,0.98,0.507,1.271C589.317,159.569,589.788,159.714,590.395,159.714z"/>
	<path d="M599.729,160.799h-1.54v-14.436h1.54V160.799z"/>
	<path d="M518.704,170.036h1.698l-4.89,13.563h-1.559l-4.861-13.563h1.67l3.117,8.776c0.358,1.008,0.644,1.989,0.854,2.941
		c0.223-1.002,0.513-2,0.872-2.997L518.704,170.036z"/>
	<path d="M528.288,183.599l-0.306-1.447h-0.074c-0.507,0.637-1.014,1.068-1.518,1.294s-1.133,0.339-1.888,0.339
		c-1.008,0-1.798-0.26-2.37-0.779c-0.572-0.52-0.857-1.258-0.857-2.217c0-2.053,1.642-3.129,4.926-3.229l1.726-0.056v-0.631
		c0-0.798-0.171-1.387-0.515-1.767c-0.343-0.381-0.893-0.571-1.646-0.571c-0.848,0-1.806,0.26-2.876,0.779l-0.473-1.178
		c0.501-0.271,1.05-0.485,1.647-0.64c0.597-0.154,1.194-0.232,1.795-0.232c1.212,0,2.109,0.269,2.694,0.807
		c0.584,0.538,0.876,1.401,0.876,2.588v6.939L528.288,183.599L528.288,183.599z M524.809,182.514c0.958,0,1.711-0.263,2.26-0.789
		c0.547-0.525,0.82-1.262,0.82-2.208v-0.918l-1.54,0.065c-1.225,0.043-2.106,0.233-2.648,0.57c-0.541,0.337-0.812,0.862-0.812,1.573
		c0,0.557,0.168,0.98,0.506,1.271S524.202,182.514,524.809,182.514z"/>
	<path d="M534.142,183.599h-1.54v-14.436h1.54V183.599z"/>
	<path d="M537.277,170.676c0-0.353,0.086-0.611,0.26-0.775c0.173-0.164,0.39-0.246,0.648-0.246c0.247,0,0.461,0.083,0.641,0.25
		c0.179,0.167,0.269,0.424,0.269,0.77c0,0.347-0.09,0.604-0.269,0.775c-0.18,0.17-0.394,0.255-0.641,0.255
		c-0.26,0-0.477-0.085-0.648-0.255C537.364,171.28,537.277,171.022,537.277,170.676z M538.947,183.599h-1.54v-10.168h1.54V183.599z"
		/>
	<path d="M549.134,182.235h-0.083c-0.711,1.033-1.774,1.549-3.19,1.549c-1.33,0-2.364-0.455-3.104-1.364s-1.108-2.202-1.108-3.878
		s0.37-2.978,1.112-3.906c0.742-0.928,1.775-1.392,3.1-1.392c1.379,0,2.437,0.501,3.173,1.503h0.121l-0.065-0.733l-0.037-0.714
		v-4.138h1.54v14.436h-1.252L549.134,182.235z M546.054,182.495c1.052,0,1.813-0.286,2.287-0.858
		c0.474-0.572,0.709-1.495,0.709-2.77v-0.325c0-1.441-0.24-2.469-0.719-3.084c-0.479-0.616-1.245-0.923-2.296-0.923
		c-0.903,0-1.594,0.351-2.073,1.053c-0.479,0.702-0.719,1.693-0.719,2.973c0,1.299,0.237,2.279,0.714,2.941
		C544.433,182.165,545.132,182.495,546.054,182.495z"/>
	<path d="M560.109,183.599l-0.307-1.447h-0.074c-0.507,0.637-1.013,1.068-1.517,1.294s-1.133,0.339-1.888,0.339
		c-1.008,0-1.798-0.26-2.37-0.779c-0.572-0.52-0.858-1.258-0.858-2.217c0-2.053,1.643-3.129,4.927-3.229l1.726-0.056v-0.631
		c0-0.798-0.171-1.387-0.515-1.767c-0.344-0.381-0.893-0.571-1.646-0.571c-0.848,0-1.806,0.26-2.876,0.779l-0.473-1.178
		c0.501-0.271,1.05-0.485,1.646-0.64c0.598-0.154,1.195-0.232,1.795-0.232c1.212,0,2.11,0.269,2.695,0.807
		c0.584,0.538,0.876,1.401,0.876,2.588v6.939L560.109,183.599L560.109,183.599z M556.63,182.514c0.958,0,1.711-0.263,2.259-0.789
		c0.547-0.525,0.821-1.262,0.821-2.208v-0.918l-1.54,0.065c-1.225,0.043-2.107,0.233-2.648,0.57
		c-0.541,0.337-0.812,0.862-0.812,1.573c0,0.557,0.168,0.98,0.506,1.271C555.552,182.369,556.023,182.514,556.63,182.514z"/>
	<path d="M567.707,182.514c0.271,0,0.535-0.02,0.789-0.06c0.253-0.041,0.455-0.082,0.603-0.125v1.178
		c-0.167,0.081-0.413,0.147-0.736,0.199c-0.325,0.053-0.617,0.079-0.877,0.079c-1.968,0-2.95-1.036-2.95-3.108v-6.049h-1.457v-0.742
		l1.457-0.64l0.648-2.171h0.892v2.356h2.95v1.197h-2.95v5.984c0,0.612,0.145,1.083,0.436,1.41
		C566.801,182.35,567.2,182.514,567.707,182.514z"/>
	<path d="M571,170.676c0-0.353,0.086-0.611,0.26-0.775c0.173-0.164,0.391-0.246,0.649-0.246c0.247,0,0.46,0.083,0.64,0.25
		c0.18,0.167,0.27,0.424,0.27,0.77c0,0.347-0.091,0.604-0.27,0.775c-0.18,0.17-0.393,0.255-0.64,0.255
		c-0.26,0-0.478-0.085-0.649-0.255C571.087,171.28,571,171.022,571,170.676z M572.67,183.599h-1.54v-10.168h1.54V183.599z"/>
	<path d="M584.712,178.506c0,1.658-0.417,2.952-1.252,3.882c-0.835,0.931-1.989,1.396-3.46,1.396c-0.909,0-1.716-0.213-2.421-0.64
		c-0.705-0.427-1.25-1.039-1.633-1.837c-0.385-0.798-0.575-1.731-0.575-2.802c0-1.657,0.414-2.949,1.243-3.874
		c0.829-0.924,1.979-1.387,3.45-1.387c1.423,0,2.554,0.473,3.392,1.419C584.293,175.611,584.712,176.892,584.712,178.506z
		 M576.966,178.506c0,1.299,0.26,2.289,0.779,2.969c0.52,0.681,1.283,1.021,2.292,1.021c1.008,0,1.772-0.338,2.296-1.016
		c0.523-0.677,0.784-1.668,0.784-2.973c0-1.292-0.261-2.274-0.784-2.946c-0.522-0.671-1.294-1.006-2.314-1.006
		c-1.008,0-1.769,0.331-2.281,0.993C577.222,176.208,576.966,177.195,576.966,178.506z"/>
	<path d="M594.37,183.599v-6.578c0-0.829-0.189-1.447-0.566-1.855s-0.968-0.612-1.771-0.612c-1.064,0-1.843,0.288-2.338,0.863
		s-0.742,1.525-0.742,2.848v5.334h-1.54v-10.168h1.252l0.25,1.392h0.074c0.314-0.501,0.757-0.889,1.327-1.164
		c0.568-0.275,1.202-0.413,1.901-0.413c1.226,0,2.146,0.295,2.766,0.886c0.617,0.591,0.928,1.536,0.928,2.834v6.633H594.37z"/>
</g>
<rect x="537.847" y="217.49" width="34.498" height="7.984"/>
<rect x="537.847" y="271.585" width="34.498" height="7.984"/>
<rect x="537.847" y="325.681" width="34.498" height="7.984"/>
<rect x="537.847" y="379.776" width="34.498" height="7.982"/>
<rect x="537.847" y="433.873" width="34.498" height="7.984"/>
<rect x="537.847" y="487.969" width="34.498" height="7.984"/>
<rect x="537.847" y="542.062" width="34.498" height="7.983"/>
<rect x="537.847" y="596.158" width="34.498" height="7.983"/>
<rect x="537.847" y="650.254" width="34.498" height="7.984"/>
<rect x="537.847" y="704.35" width="34.498" height="7.984"/>
<g opacity="0.55">
	<g>
		<path fill="none" stroke="#000000" stroke-miterlimit="10" d="M533.188,271.585h-3.157c-1.65,0-3-1.35-3-3v-44.104
			c0-1.65,1.35-3,3-3h7.816"/>
		<g>
			<polygon points="537.847,271.585 531.28,268.902 532.838,271.585 531.28,274.268 			"/>
		</g>
	</g>
</g>
<g opacity="0.55">
	<g>
		<path fill="none" stroke="#000000" stroke-miterlimit="10" d="M533.188,325.681h-3.157c-1.65,0-3-1.35-3-3v-44.104
			c0-1.65,1.35-3,3-3h7.816"/>
		<g>
			<polygon points="537.847,325.681 531.28,322.998 532.838,325.681 531.28,328.364 			"/>
		</g>
	</g>
</g>
<g opacity="0.55">
	<g>
		<path fill="none" stroke="#000000" stroke-miterlimit="10" d="M533.188,379.776h-3.157c-1.65,0-3-1.352-3-3v-44.104
			c0-1.649,1.35-3,3-3h7.816"/>
		<g>
			<polygon points="537.847,379.776 531.28,377.094 532.838,379.776 531.28,382.459 			"/>
		</g>
	</g>
</g>
<g opacity="0.55">
	<g>
		<path fill="none" stroke="#000000" stroke-miterlimit="10" d="M533.188,433.873h-3.157c-1.65,0-3-1.35-3-3V386.77
			c0-1.649,1.35-3,3-3h7.816"/>
		<g>
			<polygon points="537.847,433.873 531.28,431.189 532.838,433.873 531.28,436.555 			"/>
		</g>
	</g>
</g>
<g opacity="0.55">
	<g>
		<path fill="none" stroke="#000000" stroke-miterlimit="10" d="M533.188,487.969h-3.157c-1.65,0-3-1.35-3-3v-44.104
			c0-1.65,1.35-3,3-3h7.816"/>
		<g>
			<polygon points="537.847,487.969 531.28,485.285 532.838,487.969 531.28,490.65 			"/>
		</g>
	</g>
</g>
<g opacity="0.55">
	<g>
		<path fill="none" stroke="#000000" stroke-miterlimit="10" d="M533.188,542.064h-3.157c-1.65,0-3-1.351-3-3V494.96
			c0-1.65,1.35-3,3-3h7.816"/>
		<g>
			<polygon points="537.847,542.064 531.28,539.381 532.838,542.064 531.28,544.746 			"/>
		</g>
	</g>
</g>
<g opacity="0.55">
	<g>
		<path fill="none" stroke="#000000" stroke-miterlimit="10" d="M533.188,596.16h-3.157c-1.65,0-3-1.351-3-3v-44.104
			c0-1.649,1.35-3,3-3h7.816"/>
		<g>
			<polygon points="537.847,596.16 531.28,593.477 532.838,596.16 531.28,598.842 			"/>
		</g>
	</g>
</g>
<g opacity="0.55">
	<g>
		<path fill="none" stroke="#000000" stroke-miterlimit="10" d="M533.188,650.256h-3.157c-1.65,0-3-1.35-3-3v-44.104
			c0-1.65,1.35-3,3-3h7.816"/>
		<g>
			<polygon points="537.847,650.256 531.28,647.572 532.838,650.256 531.28,652.938 			"/>
		</g>
	</g>
</g>
<g opacity="0.55">
	<g>
		<path fill="none" stroke="#000000" stroke-miterlimit="10" d="M533.188,704.352h-3.157c-1.65,0-3-1.35-3-3v-44.104
			c0-1.65,1.35-3,3-3h7.816"/>
		<g>
			<polygon points="537.847,704.352 531.28,701.668 532.838,704.352 531.28,707.033 			"/>
		</g>
	</g>
</g>
<g>
	<rect x="198.425" y="146.359" fill="none" width="233.322" height="53.597"/>
	<path d="M259.222,151.466c0,1.46-0.456,2.576-1.368,3.349c-0.913,0.773-2.21,1.16-3.892,1.16h-1.234v4.824h-2.876v-13.563h4.333
		c1.645,0,2.896,0.354,3.752,1.062C258.794,149.006,259.222,150.062,259.222,151.466z M252.728,153.618h0.946
		c0.884,0,1.546-0.175,1.985-0.524c0.439-0.349,0.659-0.858,0.659-1.526c0-0.674-0.184-1.172-0.552-1.494
		c-0.368-0.321-0.945-0.482-1.73-0.482h-1.308V153.618z"/>
	<path d="M268.147,160.799l-0.547-1.41h-0.074c-0.477,0.6-0.966,1.016-1.47,1.248c-0.504,0.231-1.162,0.348-1.972,0.348
		c-0.996,0-1.78-0.284-2.352-0.854c-0.572-0.569-0.858-1.379-0.858-2.431c0-1.101,0.385-1.913,1.155-2.436
		c0.77-0.522,1.931-0.812,3.483-0.867l1.8-0.056v-0.455c0-1.051-0.538-1.577-1.614-1.577c-0.829,0-1.803,0.25-2.922,0.751
		l-0.937-1.911c1.193-0.625,2.517-0.937,3.971-0.937c1.392,0,2.458,0.303,3.201,0.909c0.742,0.606,1.113,1.528,1.113,2.765v6.912
		H268.147z M267.312,155.993l-1.095,0.037c-0.823,0.025-1.435,0.173-1.837,0.445c-0.402,0.272-0.603,0.687-0.603,1.243
		c0,0.798,0.458,1.197,1.373,1.197c0.655,0,1.18-0.188,1.573-0.566c0.393-0.377,0.589-0.878,0.589-1.503V155.993z"/>
	<path d="M278.825,150.232c0.383,0,0.702,0.028,0.956,0.083l-0.213,2.653c-0.229-0.062-0.507-0.093-0.835-0.093
		c-0.903,0-1.606,0.232-2.11,0.696c-0.504,0.464-0.756,1.113-0.756,1.948v5.279h-2.83v-10.372h2.143l0.417,1.744h0.139
		c0.321-0.581,0.756-1.05,1.303-1.405C277.587,150.41,278.182,150.232,278.825,150.232z"/>
	<path d="M288.251,160.799l-0.547-1.41h-0.074c-0.477,0.6-0.966,1.016-1.47,1.248c-0.504,0.231-1.162,0.348-1.972,0.348
		c-0.996,0-1.78-0.284-2.352-0.854c-0.572-0.569-0.858-1.379-0.858-2.431c0-1.101,0.385-1.913,1.155-2.436
		c0.77-0.522,1.931-0.812,3.483-0.867l1.8-0.056v-0.455c0-1.051-0.538-1.577-1.614-1.577c-0.829,0-1.803,0.25-2.922,0.751
		l-0.937-1.911c1.193-0.625,2.517-0.937,3.971-0.937c1.392,0,2.458,0.303,3.201,0.909c0.742,0.606,1.113,1.528,1.113,2.765v6.912
		H288.251z M287.416,155.993l-1.095,0.037c-0.823,0.025-1.435,0.173-1.837,0.445c-0.402,0.272-0.603,0.687-0.603,1.243
		c0,0.798,0.458,1.197,1.373,1.197c0.655,0,1.18-0.188,1.573-0.566c0.393-0.377,0.589-0.878,0.589-1.503V155.993z"/>
	<path d="M295.97,160.799h-2.83v-14.436h2.83V160.799z"/>
	<path d="M301.768,160.799h-2.83v-14.436h2.83V160.799z"/>
	<path d="M309.431,160.984c-1.67,0-2.975-0.46-3.915-1.382c-0.94-0.921-1.41-2.227-1.41-3.915c0-1.738,0.435-3.082,1.304-4.031
		c0.869-0.95,2.07-1.424,3.604-1.424c1.466,0,2.607,0.417,3.423,1.252s1.225,1.989,1.225,3.46v1.373h-6.689
		c0.031,0.804,0.269,1.432,0.714,1.883c0.445,0.452,1.07,0.677,1.874,0.677c0.625,0,1.215-0.065,1.772-0.195
		s1.138-0.337,1.744-0.622v2.189c-0.495,0.248-1.024,0.431-1.586,0.552C310.928,160.924,310.241,160.984,309.431,160.984z
		 M309.032,152.245c-0.6,0-1.07,0.19-1.41,0.57c-0.34,0.381-0.535,0.92-0.584,1.619h3.971c-0.013-0.699-0.195-1.238-0.547-1.619
		C310.108,152.436,309.632,152.245,309.032,152.245z"/>
	<path d="M318.792,160.799h-2.83v-14.436h2.83V160.799z"/>
	<path d="M331.854,147.235h4.221c1.923,0,3.32,0.273,4.189,0.821c0.869,0.547,1.303,1.418,1.303,2.611
		c0,0.811-0.19,1.475-0.571,1.995c-0.38,0.52-0.886,0.832-1.517,0.937v0.093c0.859,0.192,1.479,0.551,1.86,1.076
		c0.38,0.526,0.57,1.225,0.57,2.097c0,1.237-0.447,2.202-1.341,2.895c-0.894,0.693-2.107,1.039-3.641,1.039h-5.075V147.235z
		 M334.73,152.607h1.67c0.779,0,1.344-0.121,1.693-0.362c0.349-0.241,0.524-0.64,0.524-1.197c0-0.52-0.19-0.892-0.571-1.118
		c-0.38-0.226-0.982-0.339-1.804-0.339h-1.512V152.607z M334.73,154.889v3.535h1.874c0.792,0,1.376-0.151,1.753-0.455
		c0.377-0.303,0.566-0.767,0.566-1.392c0-1.125-0.804-1.688-2.412-1.688H334.73z"/>
	<path d="M347.227,160.799h-2.83v-14.436h2.83V160.799z"/>
	<path d="M359.622,155.594c0,1.688-0.445,3.009-1.336,3.961c-0.891,0.953-2.131,1.429-3.72,1.429c-0.996,0-1.874-0.218-2.635-0.654
		c-0.761-0.436-1.345-1.062-1.753-1.878s-0.612-1.769-0.612-2.857c0-1.694,0.442-3.012,1.327-3.952
		c0.884-0.94,2.127-1.41,3.729-1.41c0.996,0,1.874,0.217,2.635,0.649c0.761,0.433,1.345,1.055,1.753,1.865
		C359.417,153.557,359.622,154.506,359.622,155.594z M352.45,155.594c0,1.027,0.168,1.803,0.505,2.329
		c0.337,0.526,0.886,0.789,1.647,0.789c0.754,0,1.297-0.261,1.628-0.784c0.331-0.523,0.496-1.3,0.496-2.333
		c0-1.026-0.167-1.796-0.501-2.31c-0.334-0.513-0.881-0.77-1.642-0.77c-0.755,0-1.299,0.255-1.633,0.765
		C352.617,153.79,352.45,154.562,352.45,155.594z"/>
	<path d="M366.171,160.984c-3.229,0-4.843-1.772-4.843-5.316c0-1.763,0.439-3.109,1.317-4.041c0.878-0.931,2.137-1.396,3.776-1.396
		c1.2,0,2.276,0.235,3.229,0.705l-0.835,2.189c-0.445-0.179-0.86-0.326-1.243-0.441c-0.384-0.114-0.767-0.171-1.15-0.171
		c-1.472,0-2.208,1.045-2.208,3.136c0,2.029,0.736,3.043,2.208,3.043c0.544,0,1.048-0.073,1.512-0.218
		c0.464-0.145,0.928-0.372,1.392-0.682v2.421c-0.458,0.291-0.92,0.492-1.387,0.603C367.472,160.929,366.882,160.984,366.171,160.984
		z"/>
	<path d="M374.447,155.158l1.234-1.577l2.904-3.154h3.191l-4.119,4.5l4.37,5.873h-3.266l-2.987-4.203l-1.215,0.974v3.229h-2.83
		v-14.436h2.83v6.438l-0.148,2.356H374.447z"/>
	<path d="M214.821,176.687c0,2.233-0.635,3.943-1.907,5.13c-1.271,1.188-3.106,1.781-5.506,1.781h-3.841v-13.563h4.258
		c2.214,0,3.934,0.584,5.158,1.753S214.821,174.59,214.821,176.687z M211.834,176.761c0-2.913-1.287-4.37-3.859-4.37h-1.531v8.832
		h1.234C210.448,181.224,211.834,179.736,211.834,176.761z"/>
	<path d="M226.835,178.394c0,1.688-0.445,3.009-1.336,3.961c-0.891,0.953-2.131,1.429-3.72,1.429c-0.996,0-1.874-0.218-2.635-0.654
		c-0.761-0.436-1.345-1.062-1.753-1.878s-0.612-1.769-0.612-2.857c0-1.694,0.442-3.012,1.327-3.952
		c0.884-0.94,2.127-1.41,3.729-1.41c0.996,0,1.874,0.217,2.635,0.649c0.761,0.433,1.345,1.055,1.753,1.865
		C226.631,176.356,226.835,177.306,226.835,178.394z M219.664,178.394c0,1.027,0.168,1.803,0.505,2.329
		c0.337,0.526,0.886,0.789,1.647,0.789c0.754,0,1.297-0.261,1.628-0.784c0.331-0.523,0.496-1.3,0.496-2.333
		c0-1.026-0.167-1.796-0.501-2.31c-0.334-0.513-0.881-0.77-1.642-0.77c-0.755,0-1.299,0.255-1.633,0.765
		C219.831,176.59,219.664,177.361,219.664,178.394z"/>
	<path d="M237.699,183.599l-0.798-3.627l-1.076-4.583h-0.065l-1.893,8.21h-3.043l-2.95-10.372h2.82l1.197,4.592
		c0.191,0.823,0.386,1.958,0.584,3.405h0.056c0.024-0.47,0.133-1.215,0.325-2.236l0.148-0.789l1.28-4.973h3.117l1.215,4.973
		c0.024,0.136,0.063,0.337,0.116,0.603c0.052,0.266,0.103,0.549,0.153,0.849c0.049,0.3,0.094,0.594,0.134,0.881
		c0.041,0.288,0.063,0.519,0.07,0.691h0.056c0.056-0.445,0.154-1.056,0.297-1.832c0.142-0.776,0.244-1.3,0.306-1.573l1.243-4.592
		h2.774l-2.987,10.372H237.699z"/>
	<path d="M255.011,183.599h-2.83v-6.058c0-0.748-0.133-1.31-0.399-1.684c-0.266-0.374-0.69-0.561-1.271-0.561
		c-0.792,0-1.364,0.264-1.716,0.793c-0.353,0.528-0.529,1.405-0.529,2.63v4.88h-2.83v-10.372h2.162l0.38,1.327h0.158
		c0.315-0.501,0.75-0.88,1.303-1.136c0.554-0.257,1.183-0.385,1.888-0.385c1.206,0,2.121,0.326,2.746,0.979
		c0.625,0.652,0.937,1.594,0.937,2.825V183.599z"/>
	<path d="M260.753,183.599h-2.83v-14.436h2.83V183.599z"/>
	<path d="M273.148,178.394c0,1.688-0.445,3.009-1.336,3.961c-0.891,0.953-2.131,1.429-3.72,1.429c-0.996,0-1.874-0.218-2.635-0.654
		c-0.761-0.436-1.345-1.062-1.753-1.878s-0.612-1.769-0.612-2.857c0-1.694,0.442-3.012,1.327-3.952
		c0.884-0.94,2.127-1.41,3.729-1.41c0.996,0,1.874,0.217,2.635,0.649c0.761,0.433,1.345,1.055,1.753,1.865
		C272.944,176.356,273.148,177.306,273.148,178.394z M265.977,178.394c0,1.027,0.168,1.803,0.505,2.329
		c0.337,0.526,0.886,0.789,1.647,0.789c0.754,0,1.297-0.261,1.628-0.784c0.331-0.523,0.496-1.3,0.496-2.333
		c0-1.026-0.167-1.796-0.501-2.31c-0.334-0.513-0.881-0.77-1.642-0.77c-0.755,0-1.299,0.255-1.633,0.765
		C266.144,176.59,265.977,177.361,265.977,178.394z"/>
	<path d="M282.073,183.599l-0.547-1.41h-0.074c-0.477,0.6-0.966,1.016-1.47,1.248c-0.504,0.231-1.162,0.348-1.972,0.348
		c-0.996,0-1.78-0.284-2.352-0.854c-0.572-0.569-0.858-1.379-0.858-2.431c0-1.101,0.385-1.913,1.155-2.436
		c0.77-0.522,1.931-0.812,3.483-0.867l1.8-0.056v-0.455c0-1.051-0.538-1.577-1.614-1.577c-0.829,0-1.803,0.25-2.922,0.751
		l-0.937-1.911c1.193-0.625,2.517-0.937,3.971-0.937c1.392,0,2.458,0.303,3.201,0.909c0.742,0.606,1.113,1.528,1.113,2.765v6.912
		H282.073z M281.238,178.793l-1.095,0.037c-0.823,0.025-1.435,0.173-1.837,0.445c-0.402,0.272-0.603,0.687-0.603,1.243
		c0,0.798,0.458,1.197,1.373,1.197c0.655,0,1.18-0.188,1.573-0.566c0.393-0.377,0.589-0.878,0.589-1.503V178.793z"/>
	<path d="M290.246,183.784c-1.219,0-2.176-0.473-2.871-1.419c-0.696-0.946-1.044-2.257-1.044-3.934c0-1.701,0.354-3.026,1.062-3.975
		c0.708-0.95,1.684-1.424,2.927-1.424c1.305,0,2.301,0.507,2.987,1.521h0.093c-0.143-0.773-0.213-1.462-0.213-2.069v-3.321h2.839
		v14.436h-2.171l-0.547-1.345h-0.121C292.543,183.274,291.563,183.784,290.246,183.784z M291.239,181.53
		c0.724,0,1.254-0.21,1.591-0.631c0.337-0.42,0.521-1.135,0.552-2.143v-0.306c0-1.113-0.172-1.911-0.515-2.394
		c-0.344-0.482-0.902-0.724-1.675-0.724c-0.631,0-1.121,0.268-1.471,0.802c-0.349,0.535-0.524,1.313-0.524,2.333
		s0.176,1.786,0.529,2.296C290.079,181.274,290.583,181.53,291.239,181.53z"/>
	<path d="M306.843,177.921h-3.59v-2.032h3.59v-3.618h2.032v3.618h3.59v2.032h-3.59v3.572h-2.032V177.921z"/>
	<path d="M318.978,178.394c0-1.639,0.24-3.173,0.719-4.602c0.479-1.429,1.17-2.681,2.074-3.757h2.319
		c-0.872,1.194-1.531,2.505-1.976,3.934s-0.668,2.898-0.668,4.407c0,1.516,0.228,2.979,0.682,4.393
		c0.455,1.413,1.103,2.691,1.944,3.836h-2.301c-0.909-1.052-1.602-2.279-2.078-3.683
		C319.216,181.518,318.978,180.008,318.978,178.394z"/>
	<path d="M334.1,170.035h2.904l-4.611,13.563h-3.136l-4.602-13.563h2.904l2.551,8.071c0.142,0.477,0.289,1.031,0.44,1.665
		c0.152,0.634,0.246,1.075,0.283,1.322c0.068-0.569,0.3-1.564,0.696-2.987L334.1,170.035z"/>
	<path d="M345.075,183.599l-0.547-1.41h-0.074c-0.477,0.6-0.966,1.016-1.47,1.248c-0.504,0.231-1.162,0.348-1.972,0.348
		c-0.996,0-1.78-0.284-2.352-0.854c-0.572-0.569-0.858-1.379-0.858-2.431c0-1.101,0.385-1.913,1.155-2.436
		c0.77-0.522,1.931-0.812,3.483-0.867l1.8-0.056v-0.455c0-1.051-0.538-1.577-1.614-1.577c-0.829,0-1.803,0.25-2.922,0.751
		l-0.937-1.911c1.193-0.625,2.517-0.937,3.971-0.937c1.392,0,2.458,0.303,3.201,0.909c0.742,0.606,1.113,1.528,1.113,2.765v6.912
		H345.075z M344.24,178.793l-1.095,0.037c-0.823,0.025-1.435,0.173-1.837,0.445c-0.402,0.272-0.603,0.687-0.603,1.243
		c0,0.798,0.458,1.197,1.373,1.197c0.655,0,1.18-0.188,1.573-0.566c0.393-0.377,0.589-0.878,0.589-1.503V178.793z"/>
	<path d="M352.794,183.599h-2.83v-14.436h2.83V183.599z"/>
	<path d="M355.642,170.545c0-0.921,0.513-1.382,1.54-1.382c1.026,0,1.54,0.461,1.54,1.382c0,0.439-0.128,0.781-0.385,1.025
		c-0.256,0.245-0.642,0.367-1.155,0.367C356.155,171.937,355.642,171.473,355.642,170.545z M358.592,183.599h-2.83v-10.372h2.83
		V183.599z"/>
	<path d="M364.845,183.784c-1.219,0-2.176-0.473-2.871-1.419c-0.696-0.946-1.044-2.257-1.044-3.934c0-1.701,0.354-3.026,1.062-3.975
		c0.708-0.95,1.684-1.424,2.927-1.424c1.305,0,2.301,0.507,2.987,1.521H368c-0.143-0.773-0.213-1.462-0.213-2.069v-3.321h2.839
		v14.436h-2.171l-0.547-1.345h-0.121C367.143,183.274,366.163,183.784,364.845,183.784z M365.838,181.53
		c0.724,0,1.254-0.21,1.591-0.631c0.337-0.42,0.521-1.135,0.552-2.143v-0.306c0-1.113-0.172-1.911-0.515-2.394
		c-0.344-0.482-0.902-0.724-1.675-0.724c-0.631,0-1.121,0.268-1.471,0.802c-0.349,0.535-0.524,1.313-0.524,2.333
		s0.176,1.786,0.529,2.296C364.678,181.274,365.182,181.53,365.838,181.53z"/>
	<path d="M380.171,183.599l-0.547-1.41h-0.074c-0.477,0.6-0.966,1.016-1.47,1.248c-0.504,0.231-1.162,0.348-1.972,0.348
		c-0.996,0-1.78-0.284-2.352-0.854c-0.572-0.569-0.858-1.379-0.858-2.431c0-1.101,0.385-1.913,1.155-2.436
		c0.77-0.522,1.931-0.812,3.483-0.867l1.8-0.056v-0.455c0-1.051-0.538-1.577-1.614-1.577c-0.829,0-1.803,0.25-2.922,0.751
		l-0.937-1.911c1.193-0.625,2.517-0.937,3.971-0.937c1.392,0,2.458,0.303,3.201,0.909c0.742,0.606,1.113,1.528,1.113,2.765v6.912
		H380.171z M379.336,178.793l-1.095,0.037c-0.823,0.025-1.435,0.173-1.837,0.445c-0.402,0.272-0.603,0.687-0.603,1.243
		c0,0.798,0.458,1.197,1.373,1.197c0.655,0,1.18-0.188,1.573-0.566c0.393-0.377,0.589-0.878,0.589-1.503V178.793z"/>
	<path d="M389.43,181.53c0.495,0,1.088-0.108,1.781-0.325v2.106c-0.705,0.315-1.571,0.473-2.598,0.473
		c-1.132,0-1.956-0.286-2.472-0.858c-0.517-0.572-0.775-1.43-0.775-2.574v-5h-1.354v-1.197l1.559-0.946l0.816-2.189h1.809v2.208
		h2.904v2.125h-2.904v5c0,0.402,0.113,0.699,0.339,0.891C388.761,181.434,389.059,181.53,389.43,181.53z"/>
	<path d="M393.188,170.545c0-0.921,0.513-1.382,1.54-1.382c1.026,0,1.54,0.461,1.54,1.382c0,0.439-0.128,0.781-0.385,1.025
		c-0.256,0.245-0.642,0.367-1.155,0.367C393.701,171.937,393.188,171.473,393.188,170.545z M396.138,183.599h-2.83v-10.372h2.83
		V183.599z"/>
	<path d="M408.532,178.394c0,1.688-0.445,3.009-1.336,3.961c-0.891,0.953-2.131,1.429-3.72,1.429c-0.996,0-1.874-0.218-2.635-0.654
		c-0.761-0.436-1.345-1.062-1.753-1.878s-0.612-1.769-0.612-2.857c0-1.694,0.442-3.012,1.327-3.952
		c0.884-0.94,2.127-1.41,3.729-1.41c0.996,0,1.874,0.217,2.635,0.649c0.761,0.433,1.345,1.055,1.753,1.865
		C408.328,176.356,408.532,177.306,408.532,178.394z M401.361,178.394c0,1.027,0.168,1.803,0.505,2.329
		c0.337,0.526,0.886,0.789,1.647,0.789c0.754,0,1.297-0.261,1.628-0.784c0.331-0.523,0.496-1.3,0.496-2.333
		c0-1.026-0.167-1.796-0.501-2.31c-0.334-0.513-0.881-0.77-1.642-0.77c-0.755,0-1.299,0.255-1.633,0.765
		C401.528,176.59,401.361,177.361,401.361,178.394z"/>
	<path d="M420.444,183.599h-2.83v-6.058c0-0.748-0.133-1.31-0.399-1.684c-0.266-0.374-0.69-0.561-1.271-0.561
		c-0.792,0-1.364,0.264-1.716,0.793c-0.353,0.528-0.529,1.405-0.529,2.63v4.88h-2.83v-10.372h2.162l0.38,1.327h0.158
		c0.315-0.501,0.75-0.88,1.303-1.136c0.554-0.257,1.183-0.385,1.888-0.385c1.206,0,2.121,0.326,2.746,0.979
		c0.625,0.652,0.937,1.594,0.937,2.825V183.599z"/>
	<path d="M427.551,178.394c0,1.627-0.24,3.142-0.719,4.546c-0.479,1.404-1.171,2.625-2.074,3.665h-2.301
		c0.835-1.138,1.481-2.414,1.939-3.827c0.458-1.413,0.687-2.88,0.687-4.402c0-1.509-0.223-2.978-0.668-4.407
		s-1.104-2.74-1.976-3.934h2.319c0.909,1.083,1.602,2.339,2.078,3.771C427.312,175.238,427.551,176.768,427.551,178.394z"/>
</g>
</svg>
