<?xml version="1.0" encoding="utf-8"?>
<!-- Generator: Adobe Illustrator 16.0.4, SVG Export Plug-In . SVG Version: 6.00 Build 0)  -->
<!DOCTYPE svg PUBLIC "-//W3C//DTD SVG 1.1//EN" "http://www.w3.org/Graphics/SVG/1.1/DTD/svg11.dtd">
<svg version="1.1" id="Layer_1" xmlns="http://www.w3.org/2000/svg" xmlns:xlink="http://www.w3.org/1999/xlink" x="0px" y="0px"
	 width="1366px" height="768px" viewBox="0 0 1366 768" enable-background="new 0 0 1366 768" xml:space="preserve">
<rect fill="#FFFFFF" width="1366" height="768"/>
<g enable-background="new    ">
	<path fill="#C9D8E3" d="M955.5,485.42c0,5.5-4.5,10-10,10H432.385c-5.5,0-10-4.5-10-10V336.986c0-5.5,4.5-10,10-10H945.5
		c5.5,0,10,4.5,10,10V485.42z"/>
</g>
<g opacity="0.5" enable-background="new    ">
	<path fill="#C9D8E3" d="M955.5,553.859c0,5.5-4.5,10-10,10H432.385c-5.5,0-10-4.5-10-10v-35.382c0-5.5,4.5-10,10-10H945.5
		c5.5,0,10,4.5,10,10V553.859z"/>
</g>
<rect x="688.898" y="349.306" fill="#FFFFFF" stroke="#010101" stroke-miterlimit="10" width="70.765" height="89.701"/>
<rect x="607.99" y="349.306" fill="#FFFFFF" stroke="#010101" stroke-miterlimit="10" width="70.764" height="89.701"/>
<rect x="871.89" y="349.306" fill="#FFFFFF" stroke="#010101" stroke-miterlimit="10" width="70.765" height="89.701"/>
<rect x="790.98" y="349.306" fill="#FFFFFF" stroke="#010101" stroke-miterlimit="10" width="70.765" height="89.701"/>
<rect x="514.512" y="349.306" fill="#FFFFFF" stroke="#010101" stroke-miterlimit="10" width="70.765" height="89.701"/>
<rect x="433.603" y="349.306" fill="#FFFFFF" stroke="#010101" stroke-miterlimit="10" width="70.765" height="89.701"/>
<g>
	<g>
		<line fill="none" stroke="#010101" stroke-miterlimit="10" x1="404.5" y1="374.144" x2="408" y2="374.144"/>
		
			<line fill="none" stroke="#010101" stroke-miterlimit="10" stroke-dasharray="7.0038,7.0038" x1="415.004" y1="374.144" x2="859.743" y2="374.144"/>
		<line fill="none" stroke="#010101" stroke-miterlimit="10" x1="863.245" y1="374.144" x2="866.745" y2="374.144"/>
	</g>
</g>
<g>
	<g>
		<line fill="none" stroke="#010101" stroke-miterlimit="10" x1="982.479" y1="374.144" x2="978.979" y2="374.144"/>
		
			<line fill="none" stroke="#010101" stroke-miterlimit="10" stroke-dasharray="6.9059,6.9059" x1="972.072" y1="374.144" x2="878.843" y2="374.144"/>
		<line fill="none" stroke="#010101" stroke-miterlimit="10" x1="875.39" y1="374.144" x2="871.89" y2="374.144"/>
	</g>
</g>
<g>
	<path fill="none" d="M824.5,374.144"/>
</g>
<g>
	<path fill="none" d="M692.745,374.144"/>
</g>
<g>
	<rect x="424.703" y="453.797" fill="none" width="529.707" height="32.246"/>
	<path fill="#010101" d="M585.842,463.75c0.738,0.378,1.873,0.756,3.043,0.756c1.26,0,1.927-0.521,1.927-1.314
		c0-0.756-0.576-1.188-2.035-1.711c-2.017-0.701-3.331-1.818-3.331-3.582c0-2.07,1.729-3.655,4.591-3.655
		c1.368,0,2.377,0.288,3.097,0.612l-0.612,2.215c-0.486-0.234-1.351-0.576-2.539-0.576c-1.188,0-1.764,0.539-1.764,1.17
		c0,0.774,0.684,1.116,2.25,1.711c2.143,0.792,3.151,1.908,3.151,3.619c0,2.034-1.566,3.763-4.897,3.763
		c-1.386,0-2.755-0.36-3.439-0.738L585.842,463.75z"/>
	<path fill="#010101" d="M597.614,463.048c0.09,1.134,1.206,1.675,2.484,1.675c0.937,0,1.693-0.127,2.431-0.361l0.36,1.855
		c-0.9,0.359-1.999,0.54-3.187,0.54c-2.989,0-4.699-1.729-4.699-4.483c0-2.232,1.386-4.699,4.447-4.699
		c2.845,0,3.925,2.215,3.925,4.393c0,0.469-0.054,0.883-0.09,1.081H597.614z M600.837,461.175c0-0.666-0.288-1.782-1.548-1.782
		c-1.152,0-1.621,1.045-1.692,1.782H600.837z"/>
	<path fill="#010101" d="M605.011,460.671c0-1.296-0.036-2.143-0.072-2.899h2.358l0.09,1.621h0.072
		c0.45-1.278,1.531-1.818,2.377-1.818c0.252,0,0.378,0,0.576,0.035v2.575c-0.198-0.036-0.432-0.071-0.738-0.071
		c-1.008,0-1.692,0.539-1.873,1.386c-0.036,0.181-0.054,0.396-0.054,0.612v4.465h-2.737V460.671z"/>
	<path fill="#010101" d="M614.209,457.771l1.188,4.088c0.216,0.738,0.378,1.44,0.504,2.143h0.054
		c0.144-0.721,0.288-1.387,0.486-2.143l1.134-4.088h2.881l-3.277,8.805h-2.737l-3.205-8.805H614.209z"/>
	<path fill="#010101" d="M623.552,463.048c0.09,1.134,1.206,1.675,2.484,1.675c0.937,0,1.693-0.127,2.431-0.361l0.36,1.855
		c-0.9,0.359-1.999,0.54-3.187,0.54c-2.989,0-4.699-1.729-4.699-4.483c0-2.232,1.386-4.699,4.447-4.699
		c2.845,0,3.925,2.215,3.925,4.393c0,0.469-0.054,0.883-0.09,1.081H623.552z M626.774,461.175c0-0.666-0.288-1.782-1.548-1.782
		c-1.152,0-1.621,1.045-1.692,1.782H626.774z"/>
	<path fill="#010101" d="M630.949,460.671c0-1.296-0.036-2.143-0.072-2.899h2.358l0.09,1.621h0.072
		c0.45-1.278,1.531-1.818,2.377-1.818c0.252,0,0.378,0,0.576,0.035v2.575c-0.198-0.036-0.432-0.071-0.738-0.071
		c-1.008,0-1.692,0.539-1.873,1.386c-0.036,0.181-0.054,0.396-0.054,0.612v4.465h-2.737V460.671z"/>
	<path fill="#010101" d="M640.74,465.1l5.78-8.318v-0.071h-5.24v-2.269h8.805v1.584l-5.653,8.211v0.072h5.744v2.268h-9.435V465.1z"
		/>
	<path fill="#010101" d="M662.163,461.932c-0.054-1.459-0.108-3.223-0.108-4.988h-0.054c-0.378,1.549-0.882,3.277-1.351,4.699
		l-1.477,4.736h-2.143l-1.296-4.699c-0.396-1.423-0.81-3.151-1.098-4.736h-0.036c-0.072,1.639-0.126,3.512-0.216,5.023l-0.216,4.609
		h-2.539l0.774-12.135h3.655l1.188,4.051c0.378,1.404,0.756,2.917,1.026,4.34h0.054c0.342-1.404,0.756-3.008,1.152-4.357
		l1.296-4.033h3.583l0.667,12.135h-2.683L662.163,461.932z"/>
	<path fill="#010101" d="M677.5,468.665c-1.729-0.504-3.169-1.026-4.79-1.71c-0.27-0.108-0.558-0.162-0.846-0.181
		c-2.737-0.18-5.293-2.196-5.293-6.157c0-3.637,2.305-6.374,5.924-6.374c3.709,0,5.744,2.809,5.744,6.122
		c0,2.754-1.279,4.699-2.881,5.419v0.072c0.936,0.271,1.98,0.486,2.935,0.685L677.5,468.665z M675.339,460.473
		c0-2.215-1.044-4.051-2.917-4.051s-2.953,1.836-2.953,4.105c-0.018,2.305,1.099,4.068,2.935,4.068
		C674.258,464.596,675.339,462.85,675.339,460.473z"/>
	<path fill="#010101" d="M683.67,454.604c0.883-0.145,2.196-0.252,3.654-0.252c1.801,0,3.062,0.27,3.926,0.953
		c0.721,0.576,1.116,1.423,1.116,2.539c0,1.549-1.099,2.611-2.143,2.989v0.054c0.847,0.342,1.314,1.152,1.62,2.27
		c0.379,1.367,0.757,2.952,0.99,3.42h-2.809c-0.197-0.342-0.486-1.332-0.846-2.826c-0.324-1.513-0.847-1.927-1.963-1.945h-0.828
		v4.771h-2.719V454.604z M686.389,459.824h1.08c1.369,0,2.179-0.684,2.179-1.746c0-1.116-0.756-1.674-2.017-1.692
		c-0.666,0-1.044,0.054-1.242,0.09V459.824z"/>
	<path fill="#010101" d="M702.95,462.075c0,3.224-2.287,4.699-4.646,4.699c-2.574,0-4.555-1.692-4.555-4.537
		s1.872-4.663,4.699-4.663C701.149,457.574,702.95,459.429,702.95,462.075z M696.576,462.166c0,1.512,0.63,2.646,1.801,2.646
		c1.062,0,1.746-1.062,1.746-2.646c0-1.314-0.504-2.647-1.746-2.647C697.062,459.519,696.576,460.869,696.576,462.166z"/>
	<path fill="#010101" d="M712.939,463.75c0,1.152,0.036,2.088,0.072,2.826h-2.377l-0.126-1.242h-0.054
		c-0.342,0.541-1.17,1.44-2.755,1.44c-1.782,0-3.097-1.116-3.097-3.835v-5.168h2.755v4.736c0,1.277,0.414,2.053,1.368,2.053
		c0.756,0,1.188-0.522,1.368-0.955c0.072-0.162,0.09-0.378,0.09-0.594v-5.24h2.755V463.75z"/>
	<path fill="#010101" d="M718.194,455.252v2.52h1.963v2.018h-1.963v3.187c0,1.062,0.252,1.548,1.08,1.548
		c0.343,0,0.612-0.035,0.811-0.071l0.018,2.07c-0.359,0.144-1.008,0.234-1.782,0.234c-0.882,0-1.62-0.306-2.053-0.757
		c-0.504-0.521-0.756-1.368-0.756-2.61v-3.601h-1.171v-2.018h1.171v-1.908L718.194,455.252z"/>
	<path fill="#010101" d="M723.756,463.048c0.09,1.134,1.206,1.675,2.484,1.675c0.937,0,1.692-0.127,2.431-0.361l0.36,1.855
		c-0.9,0.359-1.998,0.54-3.187,0.54c-2.989,0-4.7-1.729-4.7-4.483c0-2.232,1.387-4.699,4.447-4.699c2.846,0,3.926,2.215,3.926,4.393
		c0,0.469-0.054,0.883-0.09,1.081H723.756z M726.979,461.175c0-0.666-0.288-1.782-1.548-1.782c-1.152,0-1.621,1.045-1.693,1.782
		H726.979z"/>
	<path fill="#010101" d="M731.153,460.671c0-1.296-0.036-2.143-0.072-2.899h2.358l0.09,1.621h0.072
		c0.45-1.278,1.53-1.818,2.377-1.818c0.252,0,0.378,0,0.576,0.035v2.575c-0.198-0.036-0.433-0.071-0.738-0.071
		c-1.008,0-1.692,0.539-1.873,1.386c-0.035,0.181-0.054,0.396-0.054,0.612v4.465h-2.736V460.671z"/>
	<path fill="#010101" d="M741.809,463.75c0.738,0.378,1.873,0.756,3.043,0.756c1.261,0,1.927-0.521,1.927-1.314
		c0-0.756-0.576-1.188-2.035-1.711c-2.017-0.701-3.331-1.818-3.331-3.582c0-2.07,1.729-3.655,4.592-3.655
		c1.368,0,2.377,0.288,3.097,0.612l-0.612,2.215c-0.485-0.234-1.35-0.576-2.538-0.576s-1.765,0.539-1.765,1.17
		c0,0.774,0.684,1.116,2.25,1.711c2.144,0.792,3.151,1.908,3.151,3.619c0,2.034-1.566,3.763-4.897,3.763
		c-1.387,0-2.755-0.36-3.439-0.738L741.809,463.75z"/>
	<path fill="#010101" d="M760.171,462.075c0,3.224-2.287,4.699-4.646,4.699c-2.574,0-4.556-1.692-4.556-4.537s1.873-4.663,4.7-4.663
		C758.37,457.574,760.171,459.429,760.171,462.075z M753.797,462.166c0,1.512,0.63,2.646,1.801,2.646
		c1.062,0,1.746-1.062,1.746-2.646c0-1.314-0.504-2.647-1.746-2.647C754.283,459.519,753.797,460.869,753.797,462.166z"/>
	<path fill="#010101" d="M768.521,466.36c-0.486,0.216-1.404,0.396-2.448,0.396c-2.845,0-4.664-1.729-4.664-4.501
		c0-2.575,1.765-4.682,5.042-4.682c0.72,0,1.513,0.126,2.089,0.342l-0.433,2.035c-0.324-0.145-0.811-0.271-1.53-0.271
		c-1.44,0-2.377,1.026-2.358,2.467c0,1.62,1.08,2.467,2.412,2.467c0.648,0,1.152-0.108,1.566-0.271L768.521,466.36z"/>
	<path fill="#010101" d="M772.769,461.48h0.036c0.198-0.359,0.414-0.72,0.63-1.062l1.783-2.647h3.295l-3.151,3.565l3.602,5.239
		h-3.367l-2.125-3.619l-0.702,0.865v2.754h-2.736v-12.783h2.736V461.48z"/>
	<path fill="#010101" d="M781.643,463.048c0.09,1.134,1.206,1.675,2.484,1.675c0.937,0,1.692-0.127,2.431-0.361l0.36,1.855
		c-0.9,0.359-1.998,0.54-3.187,0.54c-2.989,0-4.7-1.729-4.7-4.483c0-2.232,1.387-4.699,4.447-4.699c2.846,0,3.926,2.215,3.926,4.393
		c0,0.469-0.054,0.883-0.09,1.081H781.643z M784.865,461.175c0-0.666-0.288-1.782-1.548-1.782c-1.152,0-1.621,1.045-1.693,1.782
		H784.865z"/>
	<path fill="#010101" d="M792.101,455.252v2.52h1.963v2.018h-1.963v3.187c0,1.062,0.252,1.548,1.08,1.548
		c0.343,0,0.612-0.035,0.811-0.071l0.018,2.07c-0.359,0.144-1.008,0.234-1.782,0.234c-0.882,0-1.62-0.306-2.053-0.757
		c-0.504-0.521-0.756-1.368-0.756-2.61v-3.601h-1.171v-2.018h1.171v-1.908L792.101,455.252z"/>
</g>
<g>
	<rect x="424.703" y="530.613" fill="none" width="529.707" height="32.246"/>
	<path fill="#010101" d="M583.62,531.258v12.135h-2.755v-12.135H583.62z"/>
	<path fill="#010101" d="M585.958,537.397c0-1.099-0.036-2.034-0.072-2.81h2.376l0.126,1.207h0.054
		c0.36-0.559,1.26-1.404,2.719-1.404c1.801,0,3.151,1.188,3.151,3.781v5.221h-2.737v-4.879c0-1.135-0.396-1.908-1.386-1.908
		c-0.756,0-1.207,0.521-1.386,1.025c-0.072,0.162-0.108,0.433-0.108,0.685v5.077h-2.737V537.397z"/>
	<path fill="#010101" d="M599.459,532.068v2.52h1.963v2.018h-1.963v3.187c0,1.062,0.252,1.548,1.081,1.548
		c0.342,0,0.612-0.035,0.81-0.071l0.018,2.07c-0.36,0.144-1.008,0.234-1.783,0.234c-0.882,0-1.62-0.306-2.053-0.757
		c-0.504-0.521-0.756-1.368-0.756-2.61v-3.601h-1.17v-2.018h1.17v-1.908L599.459,532.068z"/>
	<path fill="#010101" d="M605.021,539.864c0.09,1.134,1.206,1.675,2.485,1.675c0.936,0,1.692-0.127,2.431-0.361l0.36,1.855
		c-0.9,0.359-1.999,0.54-3.187,0.54c-2.989,0-4.699-1.729-4.699-4.483c0-2.232,1.386-4.699,4.447-4.699
		c2.845,0,3.925,2.215,3.925,4.393c0,0.469-0.054,0.883-0.09,1.081H605.021z M608.244,537.991c0-0.666-0.288-1.782-1.548-1.782
		c-1.152,0-1.621,1.045-1.692,1.782H608.244z"/>
	<path fill="#010101" d="M612.418,537.487c0-1.296-0.036-2.143-0.072-2.899h2.359l0.09,1.621h0.072
		c0.45-1.278,1.531-1.818,2.377-1.818c0.252,0,0.378,0,0.576,0.035v2.575c-0.198-0.036-0.432-0.071-0.738-0.071
		c-1.008,0-1.692,0.539-1.873,1.386c-0.036,0.181-0.054,0.396-0.054,0.612v4.465h-2.737V537.487z"/>
	<path fill="#010101" d="M619.258,537.397c0-1.099-0.036-2.034-0.072-2.81h2.376l0.126,1.207h0.054
		c0.36-0.559,1.26-1.404,2.719-1.404c1.801,0,3.151,1.188,3.151,3.781v5.221h-2.737v-4.879c0-1.135-0.396-1.908-1.386-1.908
		c-0.756,0-1.207,0.521-1.386,1.025c-0.072,0.162-0.108,0.433-0.108,0.685v5.077h-2.737V537.397z"/>
	<path fill="#010101" d="M634.812,543.393l-0.162-0.882h-0.054c-0.576,0.702-1.477,1.08-2.521,1.08c-1.783,0-2.845-1.296-2.845-2.7
		c0-2.287,2.053-3.385,5.168-3.367v-0.126c0-0.468-0.252-1.135-1.603-1.135c-0.9,0-1.854,0.306-2.431,0.667l-0.504-1.766
		c0.612-0.342,1.818-0.773,3.421-0.773c2.935,0,3.871,1.729,3.871,3.799v3.061c0,0.847,0.036,1.656,0.126,2.143H634.812z
		 M634.487,539.234c-1.44-0.019-2.557,0.324-2.557,1.386c0,0.702,0.468,1.044,1.08,1.044c0.684,0,1.242-0.449,1.422-1.008
		c0.036-0.145,0.054-0.307,0.054-0.469V539.234z"/>
	<path fill="#010101" d="M639.31,530.609h2.737v12.783h-2.737V530.609z"/>
	<path fill="#010101" d="M647.211,541.916l5.78-8.318v-0.071h-5.24v-2.269h8.805v1.584l-5.653,8.211v0.072h5.744v2.268h-9.435
		V541.916z"/>
	<path fill="#010101" d="M668.634,538.748c-0.054-1.459-0.108-3.223-0.108-4.988h-0.054c-0.378,1.549-0.882,3.277-1.351,4.699
		l-1.477,4.736h-2.143l-1.296-4.699c-0.396-1.423-0.81-3.151-1.098-4.736h-0.036c-0.072,1.639-0.126,3.512-0.216,5.023l-0.216,4.609
		h-2.539l0.774-12.135h3.655l1.188,4.051c0.378,1.404,0.756,2.917,1.026,4.34h0.054c0.342-1.404,0.756-3.008,1.152-4.357
		l1.296-4.033h3.583l0.667,12.135h-2.683L668.634,538.748z"/>
	<path fill="#010101" d="M683.97,545.481c-1.729-0.504-3.169-1.026-4.79-1.71c-0.27-0.108-0.558-0.162-0.846-0.181
		c-2.737-0.18-5.293-2.196-5.293-6.157c0-3.637,2.305-6.374,5.924-6.374c3.709,0,5.744,2.809,5.744,6.122
		c0,2.754-1.279,4.699-2.881,5.419v0.072c0.936,0.271,1.98,0.486,2.934,0.685L683.97,545.481z M681.81,537.289
		c0-2.215-1.044-4.051-2.917-4.051s-2.953,1.836-2.953,4.105c-0.018,2.305,1.099,4.068,2.935,4.068
		C680.729,541.412,681.81,539.666,681.81,537.289z"/>
	<path fill="#010101" d="M690.141,531.42c1.008-0.162,2.322-0.252,3.709-0.252c2.305,0,3.799,0.414,4.97,1.296
		c1.26,0.937,2.053,2.431,2.053,4.573c0,2.322-0.847,3.926-2.017,4.916c-1.278,1.062-3.223,1.566-5.6,1.566
		c-1.423,0-2.432-0.09-3.115-0.181V531.42z M692.896,541.322c0.233,0.055,0.612,0.055,0.954,0.055
		c2.484,0.018,4.105-1.352,4.105-4.25c0.018-2.521-1.459-3.854-3.817-3.854c-0.612,0-1.009,0.055-1.242,0.108V541.322z"/>
	<path fill="#010101" d="M704.686,539.864c0.09,1.134,1.206,1.675,2.484,1.675c0.937,0,1.692-0.127,2.431-0.361l0.36,1.855
		c-0.9,0.359-1.998,0.54-3.187,0.54c-2.989,0-4.7-1.729-4.7-4.483c0-2.232,1.387-4.699,4.447-4.699c2.846,0,3.926,2.215,3.926,4.393
		c0,0.469-0.054,0.883-0.09,1.081H704.686z M707.908,537.991c0-0.666-0.288-1.782-1.548-1.782c-1.152,0-1.621,1.045-1.693,1.782
		H707.908z"/>
	<path fill="#010101" d="M717.088,543.393l-0.162-0.882h-0.054c-0.576,0.702-1.477,1.08-2.521,1.08c-1.783,0-2.845-1.296-2.845-2.7
		c0-2.287,2.053-3.385,5.167-3.367v-0.126c0-0.468-0.252-1.135-1.603-1.135c-0.9,0-1.854,0.306-2.431,0.667l-0.504-1.766
		c0.612-0.342,1.818-0.773,3.421-0.773c2.935,0,3.871,1.729,3.871,3.799v3.061c0,0.847,0.036,1.656,0.126,2.143H717.088z
		 M716.764,539.234c-1.44-0.019-2.557,0.324-2.557,1.386c0,0.702,0.469,1.044,1.081,1.044c0.684,0,1.242-0.449,1.422-1.008
		c0.036-0.145,0.054-0.307,0.054-0.469V539.234z"/>
	<path fill="#010101" d="M721.587,530.609h2.736v12.783h-2.736V530.609z"/>
	<path fill="#010101" d="M728.644,539.864c0.09,1.134,1.206,1.675,2.484,1.675c0.937,0,1.692-0.127,2.431-0.361l0.36,1.855
		c-0.9,0.359-1.999,0.54-3.187,0.54c-2.989,0-4.7-1.729-4.7-4.483c0-2.232,1.387-4.699,4.448-4.699c2.845,0,3.925,2.215,3.925,4.393
		c0,0.469-0.054,0.883-0.09,1.081H728.644z M731.866,537.991c0-0.666-0.288-1.782-1.548-1.782c-1.152,0-1.621,1.045-1.693,1.782
		H731.866z"/>
	<path fill="#010101" d="M736.041,537.487c0-1.296-0.036-2.143-0.072-2.899h2.358l0.09,1.621h0.072
		c0.45-1.278,1.53-1.818,2.377-1.818c0.252,0,0.378,0,0.576,0.035v2.575c-0.198-0.036-0.433-0.071-0.738-0.071
		c-1.009,0-1.692,0.539-1.872,1.386c-0.036,0.181-0.055,0.396-0.055,0.612v4.465h-2.736V537.487z"/>
	<path fill="#010101" d="M746.696,540.566c0.738,0.378,1.873,0.756,3.043,0.756c1.261,0,1.927-0.521,1.927-1.314
		c0-0.756-0.576-1.188-2.035-1.711c-2.017-0.701-3.331-1.818-3.331-3.582c0-2.07,1.729-3.655,4.592-3.655
		c1.368,0,2.377,0.288,3.097,0.612l-0.612,2.215c-0.485-0.234-1.35-0.576-2.538-0.576s-1.765,0.539-1.765,1.17
		c0,0.774,0.684,1.116,2.251,1.711c2.143,0.792,3.15,1.908,3.15,3.619c0,2.034-1.566,3.763-4.897,3.763
		c-1.387,0-2.755-0.36-3.438-0.738L746.696,540.566z"/>
	<path fill="#010101" d="M765.058,538.892c0,3.224-2.287,4.699-4.646,4.699c-2.574,0-4.556-1.692-4.556-4.537s1.873-4.663,4.7-4.663
		C763.257,534.391,765.058,536.245,765.058,538.892z M758.684,538.982c0,1.512,0.63,2.646,1.801,2.646
		c1.062,0,1.746-1.062,1.746-2.646c0-1.314-0.504-2.647-1.746-2.647C759.17,536.335,758.684,537.686,758.684,538.982z"/>
	<path fill="#010101" d="M773.409,543.177c-0.486,0.216-1.404,0.396-2.448,0.396c-2.845,0-4.664-1.729-4.664-4.501
		c0-2.575,1.765-4.682,5.042-4.682c0.72,0,1.513,0.126,2.089,0.342l-0.433,2.035c-0.324-0.145-0.81-0.271-1.53-0.271
		c-1.44,0-2.377,1.026-2.358,2.467c0,1.62,1.08,2.467,2.412,2.467c0.648,0,1.152-0.108,1.566-0.271L773.409,543.177z"/>
	<path fill="#010101" d="M777.656,538.297h0.036c0.198-0.359,0.414-0.72,0.63-1.062l1.783-2.647h3.295l-3.151,3.565l3.602,5.239
		h-3.367l-2.125-3.619l-0.702,0.865v2.754h-2.736v-12.783h2.736V538.297z"/>
	<path fill="#010101" d="M786.53,539.864c0.09,1.134,1.206,1.675,2.484,1.675c0.937,0,1.692-0.127,2.431-0.361l0.36,1.855
		c-0.9,0.359-1.999,0.54-3.187,0.54c-2.989,0-4.7-1.729-4.7-4.483c0-2.232,1.387-4.699,4.448-4.699c2.845,0,3.925,2.215,3.925,4.393
		c0,0.469-0.054,0.883-0.09,1.081H786.53z M789.753,537.991c0-0.666-0.288-1.782-1.548-1.782c-1.152,0-1.621,1.045-1.693,1.782
		H789.753z"/>
	<path fill="#010101" d="M796.988,532.068v2.52h1.963v2.018h-1.963v3.187c0,1.062,0.252,1.548,1.08,1.548
		c0.343,0,0.612-0.035,0.811-0.071l0.018,2.07c-0.359,0.144-1.008,0.234-1.782,0.234c-0.882,0-1.62-0.306-2.053-0.757
		c-0.504-0.521-0.756-1.368-0.756-2.61v-3.601h-1.171v-2.018h1.171v-1.908L796.988,532.068z"/>
</g>
<rect x="692.746" y="419.48" fill="#C9D8E3" stroke="#010101" stroke-miterlimit="10" enable-background="new    " width="63.069" height="15.651"/>
<rect x="518.359" y="419.48" fill="#C9D8E3" stroke="#010101" stroke-miterlimit="10" enable-background="new    " width="63.069" height="15.651"/>
<rect x="875.737" y="419.48" fill="#C9D8E3" stroke="#010101" stroke-miterlimit="10" enable-background="new    " width="63.069" height="15.651"/>
<rect x="518.359" y="399.442" fill="#C9D8E3" stroke="#010101" stroke-miterlimit="10" enable-background="new    " width="63.069" height="15.654"/>
<rect x="875.737" y="399.442" fill="#C9D8E3" stroke="#010101" stroke-miterlimit="10" enable-background="new    " width="63.069" height="15.654"/>
<g opacity="0.14">
	<path fill="#010101" d="M814.993,211.227c0,5.5-4.5,10-10,10H562.66c-5.5,0-10-4.5-10-10v-48.474c0-5.5,4.5-10,10-10h242.333
		c5.5,0,10,4.5,10,10V211.227z"/>
</g>
<g opacity="0.14">
	<path fill="#010101" d="M1243.466,211.227c0,5.5-4.5,10-10,10H991.133c-5.5,0-10-4.5-10-10v-48.474c0-5.5,4.5-10,10-10h242.333
		c5.5,0,10,4.5,10,10V211.227z"/>
</g>
<g>
	<g>
		<path fill="#010101" d="M1041.312,193.427c-0.504,0.252-1.639,0.522-3.115,0.522c-4.195,0-6.355-2.611-6.355-6.068
			c0-4.141,2.953-6.446,6.626-6.446c1.423,0,2.503,0.288,2.989,0.54l-0.559,2.179c-0.559-0.234-1.332-0.45-2.305-0.45
			c-2.179,0-3.871,1.314-3.871,4.015c0,2.431,1.44,3.961,3.889,3.961c0.828,0,1.747-0.18,2.287-0.396L1041.312,193.427z"/>
		<path fill="#010101" d="M1042.966,180.985h2.737v12.784h-2.737V180.985z"/>
		<path fill="#010101" d="M1050.742,182.516c0,0.756-0.576,1.369-1.477,1.369c-0.863,0-1.439-0.612-1.422-1.369
			c-0.018-0.792,0.559-1.386,1.44-1.386S1050.725,181.724,1050.742,182.516z M1047.916,193.769v-8.805h2.736v8.805H1047.916z"/>
		<path fill="#010101" d="M1054.954,190.24c0.09,1.134,1.206,1.674,2.484,1.674c0.937,0,1.692-0.126,2.431-0.36l0.36,1.855
			c-0.9,0.36-1.999,0.54-3.187,0.54c-2.989,0-4.699-1.729-4.699-4.483c0-2.233,1.386-4.699,4.447-4.699
			c2.844,0,3.925,2.214,3.925,4.393c0,0.468-0.054,0.882-0.091,1.081H1054.954z M1058.177,188.367c0-0.666-0.288-1.782-1.548-1.782
			c-1.152,0-1.621,1.044-1.693,1.782H1058.177z"/>
		<path fill="#010101" d="M1062.352,187.773c0-1.099-0.036-2.035-0.072-2.809h2.377l0.126,1.207h0.054
			c0.36-0.558,1.26-1.404,2.719-1.404c1.801,0,3.15,1.188,3.15,3.781v5.222h-2.736v-4.879c0-1.134-0.396-1.909-1.387-1.909
			c-0.756,0-1.206,0.522-1.386,1.026c-0.072,0.162-0.108,0.432-0.108,0.684v5.078h-2.736V187.773z"/>
		<path fill="#010101" d="M1075.852,182.444v2.521h1.963v2.017h-1.963v3.187c0,1.062,0.252,1.548,1.081,1.548
			c0.342,0,0.612-0.036,0.81-0.072l0.019,2.07c-0.36,0.144-1.009,0.234-1.782,0.234c-0.883,0-1.621-0.306-2.053-0.756
			c-0.504-0.522-0.756-1.369-0.756-2.611v-3.601h-1.171v-2.017h1.171v-1.909L1075.852,182.444z"/>
		<path fill="#010101" d="M1082.349,192.292l5.78-8.318v-0.072h-5.24v-2.269h8.805v1.584l-5.653,8.21v0.072h5.743v2.269h-9.435
			V192.292z"/>
		<path fill="#010101" d="M1103.771,189.124c-0.054-1.458-0.107-3.223-0.107-4.987h-0.055c-0.378,1.548-0.882,3.277-1.35,4.699
			l-1.477,4.735h-2.143l-1.297-4.699c-0.396-1.422-0.811-3.151-1.098-4.735h-0.037c-0.071,1.638-0.125,3.511-0.216,5.023
			l-0.216,4.609h-2.539l0.774-12.136h3.655l1.188,4.051c0.378,1.404,0.756,2.917,1.026,4.339h0.054
			c0.343-1.404,0.757-3.007,1.152-4.357l1.296-4.033h3.584l0.666,12.136h-2.684L1103.771,189.124z"/>
		<path fill="#010101" d="M1119.107,195.857c-1.729-0.504-3.168-1.026-4.789-1.71c-0.27-0.108-0.559-0.162-0.846-0.181
			c-2.737-0.18-5.294-2.196-5.294-6.158c0-3.637,2.305-6.374,5.924-6.374c3.709,0,5.743,2.809,5.743,6.122
			c0,2.755-1.278,4.7-2.881,5.419v0.072c0.937,0.27,1.98,0.486,2.936,0.684L1119.107,195.857z M1116.947,187.665
			c0-2.214-1.045-4.051-2.917-4.051s-2.953,1.836-2.953,4.105c-0.018,2.305,1.099,4.069,2.935,4.069
			C1115.867,191.789,1116.947,190.042,1116.947,187.665z"/>
		<path fill="#010101" d="M1125.368,190.942c0.738,0.378,1.873,0.756,3.043,0.756c1.261,0,1.927-0.522,1.927-1.314
			c0-0.756-0.576-1.188-2.035-1.71c-2.017-0.702-3.331-1.818-3.331-3.583c0-2.07,1.729-3.655,4.592-3.655
			c1.368,0,2.377,0.288,3.097,0.612l-0.612,2.215c-0.485-0.234-1.35-0.576-2.538-0.576s-1.765,0.54-1.765,1.17
			c0,0.774,0.684,1.116,2.251,1.71c2.143,0.792,3.15,1.909,3.15,3.619c0,2.035-1.566,3.763-4.897,3.763
			c-1.387,0-2.755-0.36-3.438-0.738L1125.368,190.942z"/>
		<path fill="#010101" d="M1143.73,189.268c0,3.223-2.287,4.699-4.646,4.699c-2.574,0-4.556-1.692-4.556-4.537
			s1.873-4.663,4.7-4.663C1141.93,184.767,1143.73,186.621,1143.73,189.268z M1137.356,189.358c0,1.512,0.63,2.646,1.801,2.646
			c1.062,0,1.746-1.062,1.746-2.646c0-1.314-0.504-2.647-1.746-2.647C1137.843,186.711,1137.356,188.062,1137.356,189.358z"/>
		<path fill="#010101" d="M1152.081,193.553c-0.486,0.216-1.404,0.396-2.448,0.396c-2.845,0-4.664-1.729-4.664-4.501
			c0-2.575,1.765-4.681,5.042-4.681c0.72,0,1.513,0.126,2.089,0.342l-0.433,2.035c-0.324-0.144-0.81-0.27-1.53-0.27
			c-1.44,0-2.377,1.026-2.358,2.467c0,1.62,1.08,2.467,2.412,2.467c0.648,0,1.152-0.108,1.566-0.271L1152.081,193.553z"/>
		<path fill="#010101" d="M1156.328,188.673h0.036c0.198-0.36,0.414-0.72,0.63-1.062l1.783-2.647h3.295l-3.151,3.565l3.602,5.24
			h-3.367l-2.125-3.619l-0.702,0.864v2.755h-2.736v-12.784h2.736V188.673z"/>
		<path fill="#010101" d="M1165.202,190.24c0.09,1.134,1.206,1.674,2.484,1.674c0.937,0,1.692-0.126,2.431-0.36l0.36,1.855
			c-0.9,0.36-1.999,0.54-3.187,0.54c-2.989,0-4.7-1.729-4.7-4.483c0-2.233,1.387-4.699,4.448-4.699c2.845,0,3.925,2.214,3.925,4.393
			c0,0.468-0.054,0.882-0.09,1.081H1165.202z M1168.425,188.367c0-0.666-0.288-1.782-1.548-1.782c-1.152,0-1.621,1.044-1.693,1.782
			H1168.425z"/>
		<path fill="#010101" d="M1175.66,182.444v2.521h1.963v2.017h-1.963v3.187c0,1.062,0.252,1.548,1.08,1.548
			c0.343,0,0.612-0.036,0.811-0.072l0.018,2.07c-0.359,0.144-1.008,0.234-1.782,0.234c-0.882,0-1.62-0.306-2.053-0.756
			c-0.504-0.522-0.756-1.369-0.756-2.611v-3.601h-1.171v-2.017h1.171v-1.909L1175.66,182.444z"/>
		<path fill="#010101" d="M1182.984,191.086c0.486,0.252,1.603,0.72,2.719,0.72c1.423,0,2.143-0.685,2.143-1.566
			c0-1.152-1.152-1.675-2.358-1.675h-1.116v-1.962h1.062c0.918-0.018,2.088-0.36,2.088-1.351c0-0.702-0.576-1.224-1.729-1.224
			c-0.954,0-1.962,0.414-2.448,0.702l-0.559-1.98c0.702-0.45,2.107-0.882,3.619-0.882c2.503,0,3.89,1.314,3.89,2.917
			c0,1.243-0.702,2.215-2.143,2.719v0.036c1.404,0.252,2.538,1.314,2.538,2.845c0,2.071-1.818,3.583-4.789,3.583
			c-1.513,0-2.791-0.396-3.475-0.828L1182.984,191.086z"/>
	</g>
</g>
<g opacity="0.14">
	<path fill="#010101" d="M394.521,211.227c0,5.5-4.5,10-10,10H142.188c-5.5,0-10-4.5-10-10v-48.474c0-5.5,4.5-10,10-10h242.333
		c5.5,0,10,4.5,10,10V211.227z"/>
</g>
<g>
	<g>
		<path fill="#010101" d="M192.368,193.427c-0.504,0.252-1.639,0.522-3.115,0.522c-4.195,0-6.355-2.611-6.355-6.068
			c0-4.141,2.953-6.446,6.626-6.446c1.422,0,2.502,0.288,2.989,0.54l-0.558,2.179c-0.558-0.234-1.333-0.45-2.305-0.45
			c-2.179,0-3.871,1.314-3.871,4.015c0,2.431,1.44,3.961,3.889,3.961c0.828,0,1.747-0.18,2.287-0.396L192.368,193.427z"/>
		<path fill="#010101" d="M194.021,180.985h2.737v12.784h-2.737V180.985z"/>
		<path fill="#010101" d="M201.798,182.516c0,0.756-0.576,1.369-1.477,1.369c-0.864,0-1.44-0.612-1.422-1.369
			c-0.018-0.792,0.558-1.386,1.44-1.386S201.78,181.724,201.798,182.516z M198.971,193.769v-8.805h2.737v8.805H198.971z"/>
		<path fill="#010101" d="M206.009,190.24c0.09,1.134,1.206,1.674,2.484,1.674c0.937,0,1.693-0.126,2.431-0.36l0.36,1.855
			c-0.9,0.36-1.999,0.54-3.187,0.54c-2.989,0-4.699-1.729-4.699-4.483c0-2.233,1.386-4.699,4.447-4.699
			c2.845,0,3.925,2.214,3.925,4.393c0,0.468-0.054,0.882-0.09,1.081H206.009z M209.232,188.367c0-0.666-0.288-1.782-1.548-1.782
			c-1.152,0-1.621,1.044-1.692,1.782H209.232z"/>
		<path fill="#010101" d="M213.406,187.773c0-1.099-0.036-2.035-0.072-2.809h2.376l0.126,1.207h0.054
			c0.36-0.558,1.26-1.404,2.719-1.404c1.801,0,3.151,1.188,3.151,3.781v5.222h-2.737v-4.879c0-1.134-0.396-1.909-1.386-1.909
			c-0.756,0-1.207,0.522-1.386,1.026c-0.072,0.162-0.108,0.432-0.108,0.684v5.078h-2.737V187.773z"/>
		<path fill="#010101" d="M226.907,182.444v2.521h1.962v2.017h-1.962v3.187c0,1.062,0.252,1.548,1.081,1.548
			c0.342,0,0.612-0.036,0.81-0.072l0.018,2.07c-0.36,0.144-1.008,0.234-1.783,0.234c-0.882,0-1.621-0.306-2.052-0.756
			c-0.504-0.522-0.756-1.369-0.756-2.611v-3.601h-1.17v-2.017h1.17v-1.909L226.907,182.444z"/>
		<path fill="#010101" d="M233.404,192.292l5.78-8.318v-0.072h-5.24v-2.269h8.805v1.584l-5.653,8.21v0.072h5.744v2.269h-9.435
			V192.292z"/>
		<path fill="#010101" d="M254.827,189.124c-0.054-1.458-0.108-3.223-0.108-4.987h-0.054c-0.378,1.548-0.882,3.277-1.351,4.699
			l-1.477,4.735h-2.143l-1.296-4.699c-0.396-1.422-0.81-3.151-1.098-4.735h-0.036c-0.072,1.638-0.126,3.511-0.216,5.023
			l-0.216,4.609h-2.539l0.774-12.136h3.655l1.188,4.051c0.378,1.404,0.756,2.917,1.026,4.339h0.054
			c0.342-1.404,0.756-3.007,1.152-4.357l1.296-4.033h3.583l0.667,12.136h-2.683L254.827,189.124z"/>
		<path fill="#010101" d="M270.163,195.857c-1.729-0.504-3.169-1.026-4.79-1.71c-0.27-0.108-0.558-0.162-0.846-0.181
			c-2.737-0.18-5.293-2.196-5.293-6.158c0-3.637,2.305-6.374,5.924-6.374c3.709,0,5.744,2.809,5.744,6.122
			c0,2.755-1.279,4.7-2.881,5.419v0.072c0.936,0.27,1.98,0.486,2.935,0.684L270.163,195.857z M268.002,187.665
			c0-2.214-1.044-4.051-2.917-4.051s-2.953,1.836-2.953,4.105c-0.018,2.305,1.099,4.069,2.935,4.069
			C266.922,191.789,268.002,190.042,268.002,187.665z"/>
		<path fill="#010101" d="M276.423,190.942c0.738,0.378,1.873,0.756,3.043,0.756c1.261,0,1.927-0.522,1.927-1.314
			c0-0.756-0.576-1.188-2.035-1.71c-2.017-0.702-3.331-1.818-3.331-3.583c0-2.07,1.729-3.655,4.592-3.655
			c1.368,0,2.377,0.288,3.097,0.612l-0.612,2.215c-0.485-0.234-1.35-0.576-2.538-0.576s-1.765,0.54-1.765,1.17
			c0,0.774,0.684,1.116,2.251,1.71c2.143,0.792,3.15,1.909,3.15,3.619c0,2.035-1.566,3.763-4.897,3.763
			c-1.387,0-2.755-0.36-3.438-0.738L276.423,190.942z"/>
		<path fill="#010101" d="M294.786,189.268c0,3.223-2.287,4.699-4.646,4.699c-2.574,0-4.556-1.692-4.556-4.537
			s1.873-4.663,4.7-4.663C292.985,184.767,294.786,186.621,294.786,189.268z M288.412,189.358c0,1.512,0.63,2.646,1.801,2.646
			c1.062,0,1.746-1.062,1.746-2.646c0-1.314-0.504-2.647-1.746-2.647C288.898,186.711,288.412,188.062,288.412,189.358z"/>
		<path fill="#010101" d="M303.136,193.553c-0.486,0.216-1.404,0.396-2.448,0.396c-2.845,0-4.664-1.729-4.664-4.501
			c0-2.575,1.765-4.681,5.042-4.681c0.72,0,1.513,0.126,2.089,0.342l-0.433,2.035c-0.324-0.144-0.81-0.27-1.53-0.27
			c-1.44,0-2.377,1.026-2.358,2.467c0,1.62,1.08,2.467,2.412,2.467c0.648,0,1.152-0.108,1.566-0.271L303.136,193.553z"/>
		<path fill="#010101" d="M307.383,188.673h0.036c0.198-0.36,0.414-0.72,0.63-1.062l1.783-2.647h3.295l-3.151,3.565l3.602,5.24
			h-3.367l-2.125-3.619l-0.702,0.864v2.755h-2.736v-12.784h2.736V188.673z"/>
		<path fill="#010101" d="M316.257,190.24c0.09,1.134,1.206,1.674,2.484,1.674c0.937,0,1.692-0.126,2.431-0.36l0.36,1.855
			c-0.9,0.36-1.999,0.54-3.187,0.54c-2.989,0-4.7-1.729-4.7-4.483c0-2.233,1.387-4.699,4.448-4.699c2.845,0,3.925,2.214,3.925,4.393
			c0,0.468-0.054,0.882-0.09,1.081H316.257z M319.48,188.367c0-0.666-0.288-1.782-1.548-1.782c-1.152,0-1.621,1.044-1.693,1.782
			H319.48z"/>
		<path fill="#010101" d="M326.715,182.444v2.521h1.963v2.017h-1.963v3.187c0,1.062,0.252,1.548,1.08,1.548
			c0.343,0,0.612-0.036,0.811-0.072l0.018,2.07c-0.359,0.144-1.008,0.234-1.782,0.234c-0.882,0-1.62-0.306-2.053-0.756
			c-0.504-0.522-0.756-1.369-0.756-2.611v-3.601h-1.171v-2.017h1.171v-1.909L326.715,182.444z"/>
		<path fill="#010101" d="M337.046,184.496h-0.036l-2.232,1.062l-0.45-2.053l3.097-1.44h2.27v11.704h-2.647V184.496z"/>
	</g>
</g>
<g>
	<g>
		<path fill="#010101" d="M613.667,193.427c-0.504,0.252-1.639,0.522-3.115,0.522c-4.195,0-6.355-2.611-6.355-6.068
			c0-4.141,2.953-6.446,6.626-6.446c1.422,0,2.502,0.288,2.989,0.54l-0.558,2.179c-0.558-0.234-1.333-0.45-2.305-0.45
			c-2.179,0-3.871,1.314-3.871,4.015c0,2.431,1.44,3.961,3.889,3.961c0.828,0,1.747-0.18,2.287-0.396L613.667,193.427z"/>
		<path fill="#010101" d="M615.32,180.985h2.737v12.784h-2.737V180.985z"/>
		<path fill="#010101" d="M623.097,182.516c0,0.756-0.576,1.369-1.477,1.369c-0.864,0-1.44-0.612-1.422-1.369
			c-0.018-0.792,0.558-1.386,1.44-1.386S623.079,181.724,623.097,182.516z M620.27,193.769v-8.805h2.737v8.805H620.27z"/>
		<path fill="#010101" d="M627.308,190.24c0.09,1.134,1.206,1.674,2.484,1.674c0.937,0,1.693-0.126,2.431-0.36l0.36,1.855
			c-0.9,0.36-1.999,0.54-3.187,0.54c-2.989,0-4.699-1.729-4.699-4.483c0-2.233,1.386-4.699,4.447-4.699
			c2.845,0,3.925,2.214,3.925,4.393c0,0.468-0.054,0.882-0.09,1.081H627.308z M630.531,188.367c0-0.666-0.288-1.782-1.548-1.782
			c-1.152,0-1.621,1.044-1.692,1.782H630.531z"/>
		<path fill="#010101" d="M634.705,187.773c0-1.099-0.036-2.035-0.072-2.809h2.376l0.126,1.207h0.054
			c0.36-0.558,1.26-1.404,2.719-1.404c1.801,0,3.151,1.188,3.151,3.781v5.222h-2.737v-4.879c0-1.134-0.396-1.909-1.386-1.909
			c-0.756,0-1.207,0.522-1.386,1.026c-0.072,0.162-0.108,0.432-0.108,0.684v5.078h-2.737V187.773z"/>
		<path fill="#010101" d="M648.206,182.444v2.521h1.962v2.017h-1.962v3.187c0,1.062,0.252,1.548,1.081,1.548
			c0.342,0,0.612-0.036,0.81-0.072l0.018,2.07c-0.36,0.144-1.008,0.234-1.783,0.234c-0.882,0-1.621-0.306-2.052-0.756
			c-0.504-0.522-0.756-1.369-0.756-2.611v-3.601h-1.17v-2.017h1.17v-1.909L648.206,182.444z"/>
		<path fill="#010101" d="M654.703,192.292l5.78-8.318v-0.072h-5.24v-2.269h8.805v1.584l-5.653,8.21v0.072h5.744v2.269h-9.435
			V192.292z"/>
		<path fill="#010101" d="M676.125,189.124c-0.054-1.458-0.108-3.223-0.108-4.987h-0.054c-0.378,1.548-0.882,3.277-1.351,4.699
			l-1.477,4.735h-2.143l-1.296-4.699c-0.396-1.422-0.81-3.151-1.098-4.735h-0.036c-0.072,1.638-0.126,3.511-0.216,5.023
			l-0.216,4.609h-2.539l0.774-12.136h3.655l1.188,4.051c0.378,1.404,0.756,2.917,1.026,4.339h0.054
			c0.342-1.404,0.756-3.007,1.152-4.357l1.296-4.033h3.583l0.667,12.136h-2.683L676.125,189.124z"/>
		<path fill="#010101" d="M691.462,195.857c-1.729-0.504-3.169-1.026-4.79-1.71c-0.27-0.108-0.558-0.162-0.846-0.181
			c-2.737-0.18-5.293-2.196-5.293-6.158c0-3.637,2.305-6.374,5.924-6.374c3.709,0,5.743,2.809,5.743,6.122
			c0,2.755-1.278,4.7-2.881,5.419v0.072c0.937,0.27,1.98,0.486,2.935,0.684L691.462,195.857z M689.301,187.665
			c0-2.214-1.044-4.051-2.916-4.051c-1.873,0-2.954,1.836-2.954,4.105c-0.018,2.305,1.098,4.069,2.935,4.069
			C688.221,191.789,689.301,190.042,689.301,187.665z"/>
		<path fill="#010101" d="M697.723,190.942c0.738,0.378,1.873,0.756,3.043,0.756c1.26,0,1.926-0.522,1.926-1.314
			c0-0.756-0.576-1.188-2.035-1.71c-2.016-0.702-3.33-1.818-3.33-3.583c0-2.07,1.729-3.655,4.592-3.655
			c1.367,0,2.377,0.288,3.096,0.612l-0.611,2.215c-0.486-0.234-1.35-0.576-2.539-0.576c-1.188,0-1.764,0.54-1.764,1.17
			c0,0.774,0.684,1.116,2.25,1.71c2.143,0.792,3.15,1.909,3.15,3.619c0,2.035-1.566,3.763-4.896,3.763
			c-1.387,0-2.756-0.36-3.439-0.738L697.723,190.942z"/>
		<path fill="#010101" d="M716.084,189.268c0,3.223-2.287,4.699-4.645,4.699c-2.574,0-4.557-1.692-4.557-4.537
			s1.873-4.663,4.701-4.663C714.283,184.767,716.084,186.621,716.084,189.268z M709.711,189.358c0,1.512,0.629,2.646,1.801,2.646
			c1.062,0,1.746-1.062,1.746-2.646c0-1.314-0.504-2.647-1.746-2.647C710.197,186.711,709.711,188.062,709.711,189.358z"/>
		<path fill="#010101" d="M724.436,193.553c-0.486,0.216-1.404,0.396-2.449,0.396c-2.844,0-4.664-1.729-4.664-4.501
			c0-2.575,1.766-4.681,5.043-4.681c0.719,0,1.512,0.126,2.088,0.342l-0.432,2.035c-0.324-0.144-0.811-0.27-1.531-0.27
			c-1.439,0-2.377,1.026-2.357,2.467c0,1.62,1.08,2.467,2.412,2.467c0.648,0,1.152-0.108,1.566-0.271L724.436,193.553z"/>
		<path fill="#010101" d="M728.682,188.673h0.037c0.197-0.36,0.414-0.72,0.629-1.062l1.783-2.647h3.295l-3.15,3.565l3.602,5.24
			h-3.367l-2.125-3.619l-0.703,0.864v2.755h-2.736v-12.784h2.736V188.673z"/>
		<path fill="#010101" d="M737.557,190.24c0.09,1.134,1.205,1.674,2.484,1.674c0.936,0,1.691-0.126,2.43-0.36l0.361,1.855
			c-0.9,0.36-2,0.54-3.188,0.54c-2.988,0-4.699-1.729-4.699-4.483c0-2.233,1.387-4.699,4.447-4.699c2.846,0,3.926,2.214,3.926,4.393
			c0,0.468-0.055,0.882-0.09,1.081H737.557z M740.779,188.367c0-0.666-0.289-1.782-1.549-1.782c-1.152,0-1.621,1.044-1.693,1.782
			H740.779z"/>
		<path fill="#010101" d="M748.014,182.444v2.521h1.963v2.017h-1.963v3.187c0,1.062,0.252,1.548,1.08,1.548
			c0.344,0,0.613-0.036,0.811-0.072l0.018,2.07c-0.359,0.144-1.008,0.234-1.781,0.234c-0.883,0-1.621-0.306-2.053-0.756
			c-0.504-0.522-0.756-1.369-0.756-2.611v-3.601h-1.172v-2.017h1.172v-1.909L748.014,182.444z"/>
		<path fill="#010101" d="M754.852,193.769v-1.657l1.514-1.368c2.557-2.287,3.799-3.601,3.834-4.97c0-0.954-0.576-1.71-1.926-1.71
			c-1.008,0-1.891,0.504-2.502,0.973l-0.775-1.963c0.883-0.666,2.252-1.206,3.836-1.206c2.646,0,4.105,1.548,4.105,3.673
			c0,1.962-1.424,3.529-3.115,5.042l-1.08,0.9v0.036h4.41v2.25H754.852z"/>
	</g>
</g>
<g opacity="0.14">
	<path fill="#010101" d="M814.993,721.201c0,5.5-4.5,10-10,10H562.66c-5.5,0-10-4.5-10-10v-48.475c0-5.5,4.5-10,10-10h242.333
		c5.5,0,10,4.5,10,10V721.201z"/>
</g>
<g opacity="0.14">
	<path fill="#010101" d="M1112.093,665.727c3.86,0,7,3.141,7,7v48.475c0,3.859-3.14,7-7,7H869.76c-3.859,0-7-3.141-7-7v-48.475
		c0-3.859,3.141-7,7-7H1112.093 M1112.093,662.727H869.76c-5.5,0-10,4.5-10,10v48.475c0,5.5,4.5,10,10,10h242.333
		c5.5,0,10-4.5,10-10v-48.475C1122.093,667.227,1117.593,662.727,1112.093,662.727L1112.093,662.727z"/>
</g>
<g>
	<g>
		<path fill="#010101" d="M962.633,694.643h-3.102l-1.74-6.75c-0.064-0.24-0.175-0.736-0.33-1.489s-0.244-1.259-0.268-1.517
			c-0.035,0.316-0.123,0.825-0.264,1.525s-0.25,1.199-0.326,1.498l-1.73,6.732h-3.094l-3.279-12.85h2.682l1.643,7.014
			c0.287,1.295,0.496,2.418,0.625,3.367c0.035-0.334,0.115-0.852,0.241-1.552s0.245-1.243,0.356-1.63l1.871-7.199h2.576l1.871,7.199
			c0.082,0.322,0.186,0.814,0.309,1.477s0.217,1.23,0.281,1.705c0.059-0.457,0.152-1.027,0.281-1.71s0.246-1.235,0.352-1.657
			l1.635-7.014h2.68L962.633,694.643z"/>
		<path fill="#010101" d="M976.238,689.713c0,1.6-0.422,2.85-1.266,3.752s-2.018,1.354-3.523,1.354
			c-0.943,0-1.775-0.205-2.496-0.619c-0.721-0.413-1.275-1.006-1.662-1.779s-0.58-1.676-0.58-2.707c0-1.605,0.42-2.854,1.258-3.744
			s2.016-1.336,3.533-1.336c0.943,0,1.775,0.205,2.496,0.615s1.273,0.998,1.66,1.766S976.238,688.682,976.238,689.713z
			 M969.445,689.713c0,0.973,0.159,1.707,0.479,2.205s0.84,0.748,1.561,0.748c0.715,0,1.229-0.248,1.542-0.743s0.47-1.231,0.47-2.21
			c0-0.973-0.158-1.703-0.475-2.189s-0.834-0.729-1.555-0.729c-0.715,0-1.23,0.241-1.547,0.725S969.445,688.734,969.445,689.713z"/>
		<path fill="#010101" d="M983.938,684.633c0.363,0,0.666,0.025,0.906,0.078l-0.203,2.514c-0.217-0.059-0.48-0.088-0.791-0.088
			c-0.855,0-1.521,0.221-1.999,0.66s-0.716,1.055-0.716,1.846v5h-2.682v-9.826h2.031l0.395,1.652h0.133
			c0.305-0.551,0.716-0.994,1.234-1.331S983.328,684.633,983.938,684.633z"/>
		<path fill="#010101" d="M989.203,689.299l1.168-1.494l2.752-2.988h3.023l-3.902,4.264l4.139,5.562h-3.094l-2.83-3.98l-1.15,0.922
			v3.059h-2.682v-13.676h2.682v6.1l-0.141,2.232H989.203z"/>
		<path fill="#010101" d="M1002.236,694.818c-1.582,0-2.818-0.436-3.709-1.309s-1.336-2.109-1.336-3.709
			c0-1.646,0.412-2.92,1.235-3.819s1.962-1.349,3.415-1.349c1.389,0,2.469,0.395,3.242,1.186s1.16,1.885,1.16,3.279v1.301h-6.336
			c0.029,0.762,0.254,1.355,0.676,1.783s1.014,0.643,1.775,0.643c0.592,0,1.152-0.062,1.68-0.186s1.078-0.318,1.652-0.588v2.074
			c-0.469,0.234-0.971,0.408-1.504,0.521C1003.654,694.762,1003.004,694.818,1002.236,694.818z M1001.859,686.539
			c-0.568,0-1.014,0.181-1.336,0.541s-0.508,0.871-0.555,1.533h3.762c-0.012-0.662-0.184-1.173-0.518-1.533
			S1002.428,686.539,1001.859,686.539z"/>
		<path fill="#010101" d="M1013.908,684.633c0.363,0,0.665,0.025,0.905,0.078l-0.202,2.514c-0.217-0.059-0.48-0.088-0.791-0.088
			c-0.855,0-1.522,0.221-2,0.66s-0.716,1.055-0.716,1.846v5h-2.681v-9.826h2.03l0.396,1.652h0.132
			c0.305-0.551,0.716-0.994,1.235-1.331C1012.734,684.801,1013.299,684.633,1013.908,684.633z"/>
		<path fill="#010101" d="M1030.344,694.643h-2.681v-5.738c0-0.709-0.126-1.241-0.378-1.596s-0.653-0.531-1.204-0.531
			c-0.75,0-1.292,0.25-1.626,0.751s-0.501,1.331-0.501,2.491v4.623h-2.681v-9.826h2.048l0.36,1.258h0.149
			c0.299-0.475,0.71-0.834,1.235-1.077c0.523-0.243,1.12-0.364,1.788-0.364c1.143,0,2.01,0.309,2.602,0.927s0.888,1.511,0.888,2.677
			V694.643z"/>
		<path fill="#010101" d="M959.219,711.312c0-1.553,0.227-3.006,0.682-4.359c0.453-1.354,1.108-2.541,1.964-3.561h2.197
			c-0.826,1.131-1.45,2.373-1.872,3.727s-0.633,2.746-0.633,4.176c0,1.436,0.215,2.822,0.646,4.16
			c0.43,1.34,1.044,2.551,1.841,3.635h-2.18c-0.861-0.996-1.518-2.158-1.969-3.488S959.219,712.842,959.219,711.312z"/>
		<path fill="#010101" d="M969.994,716.418c-1.395,0-2.475-0.428-3.238-1.287c-0.766-0.857-1.147-2.072-1.147-3.643
			c0-1.611,0.388-2.857,1.165-3.736c0.775-0.879,1.882-1.318,3.317-1.318c0.463,0,0.926,0.051,1.389,0.15s0.826,0.217,1.09,0.352
			l-0.448,1.238c-0.322-0.129-0.674-0.234-1.055-0.32c-0.381-0.084-0.718-0.127-1.011-0.127c-1.957,0-2.936,1.248-2.936,3.744
			c0,1.184,0.239,2.092,0.716,2.725c0.479,0.633,1.186,0.949,2.123,0.949c0.803,0,1.626-0.174,2.47-0.52v1.293
			C971.784,716.252,970.973,716.418,969.994,716.418z"/>
		<path fill="#010101" d="M983.028,711.418c0,1.57-0.396,2.797-1.187,3.678c-0.791,0.883-1.884,1.322-3.278,1.322
			c-0.861,0-1.626-0.201-2.294-0.605s-1.184-0.984-1.547-1.74s-0.545-1.641-0.545-2.654c0-1.57,0.393-2.793,1.178-3.67
			c0.785-0.875,1.875-1.314,3.27-1.314c1.348,0,2.418,0.449,3.213,1.346C982.631,708.676,983.028,709.889,983.028,711.418z
			 M975.689,711.418c0,1.23,0.246,2.168,0.738,2.812s1.216,0.967,2.171,0.967s1.681-0.322,2.175-0.963
			c0.496-0.643,0.743-1.58,0.743-2.816c0-1.225-0.247-2.154-0.743-2.791c-0.494-0.635-1.226-0.953-2.192-0.953
			c-0.955,0-1.676,0.312-2.162,0.939S975.689,710.176,975.689,711.418z"/>
		<path fill="#010101" d="M992.178,716.242v-6.23c0-0.785-0.179-1.371-0.536-1.758s-0.917-0.58-1.679-0.58
			c-1.008,0-1.746,0.271-2.215,0.816s-0.703,1.445-0.703,2.699v5.053h-1.459v-9.633h1.187l0.237,1.318h0.07
			c0.299-0.475,0.718-0.842,1.257-1.104c0.539-0.26,1.14-0.391,1.802-0.391c1.16,0,2.033,0.281,2.619,0.84
			c0.586,0.561,0.879,1.455,0.879,2.686v6.283H992.178z"/>
		<path fill="#010101" d="M1000.976,707.744h-2.452v8.498h-1.459v-8.498h-1.723v-0.66l1.723-0.527v-0.535
			c0-2.367,1.034-3.551,3.103-3.551c0.51,0,1.107,0.102,1.793,0.307l-0.378,1.17c-0.562-0.182-1.043-0.273-1.441-0.273
			c-0.551,0-0.958,0.184-1.222,0.549c-0.264,0.367-0.396,0.955-0.396,1.764v0.623h2.452V707.744z M1002.61,704
			c0-0.334,0.082-0.578,0.246-0.734c0.164-0.154,0.369-0.232,0.615-0.232c0.234,0,0.437,0.078,0.606,0.236s0.255,0.402,0.255,0.73
			s-0.085,0.572-0.255,0.732c-0.17,0.162-0.372,0.242-0.606,0.242c-0.246,0-0.451-0.08-0.615-0.242
			C1002.692,704.572,1002.61,704.328,1002.61,704z M1004.192,716.242h-1.459v-9.633h1.459V716.242z"/>
		<path fill="#010101" d="M1015.17,706.609v0.924l-1.784,0.211c0.164,0.205,0.311,0.473,0.439,0.803
			c0.129,0.332,0.193,0.705,0.193,1.121c0,0.943-0.322,1.697-0.967,2.26s-1.529,0.844-2.654,0.844c-0.287,0-0.557-0.023-0.809-0.07
			c-0.621,0.328-0.932,0.74-0.932,1.238c0,0.264,0.108,0.459,0.325,0.584c0.217,0.127,0.589,0.189,1.116,0.189h1.705
			c1.043,0,1.844,0.221,2.404,0.66c0.559,0.439,0.839,1.078,0.839,1.916c0,1.066-0.428,1.879-1.283,2.438
			c-0.855,0.561-2.104,0.84-3.744,0.84c-1.26,0-2.231-0.234-2.913-0.703c-0.684-0.469-1.024-1.131-1.024-1.986
			c0-0.586,0.188-1.092,0.562-1.52s0.902-0.719,1.582-0.871c-0.246-0.111-0.452-0.283-0.62-0.518
			c-0.166-0.234-0.25-0.508-0.25-0.818c0-0.352,0.094-0.658,0.281-0.922s0.483-0.52,0.888-0.766
			c-0.498-0.205-0.904-0.553-1.218-1.045s-0.47-1.055-0.47-1.688c0-1.055,0.316-1.869,0.949-2.439
			c0.633-0.572,1.529-0.857,2.689-0.857c0.504,0,0.958,0.059,1.362,0.176H1015.17z M1007.488,717.859
			c0,0.521,0.22,0.918,0.659,1.188s1.069,0.404,1.89,0.404c1.225,0,2.132-0.184,2.72-0.551c0.59-0.365,0.884-0.861,0.884-1.488
			c0-0.521-0.161-0.885-0.483-1.086c-0.322-0.203-0.929-0.303-1.819-0.303h-1.749c-0.662,0-1.178,0.158-1.547,0.475
			S1007.488,717.268,1007.488,717.859z M1008.279,709.695c0,0.674,0.19,1.184,0.571,1.529s0.911,0.518,1.591,0.518
			c1.424,0,2.136-0.691,2.136-2.074c0-1.447-0.721-2.17-2.162-2.17c-0.686,0-1.213,0.184-1.582,0.553
			S1008.279,708.969,1008.279,709.695z"/>
		<path fill="#010101" d="M1020.979,711.312c0,1.541-0.228,2.977-0.682,4.307s-1.108,2.486-1.964,3.471h-2.18
			c0.791-1.078,1.403-2.287,1.837-3.625s0.65-2.729,0.65-4.17c0-1.43-0.211-2.822-0.633-4.176s-1.046-2.596-1.872-3.727h2.197
			c0.861,1.025,1.518,2.217,1.969,3.572C1020.754,708.322,1020.979,709.771,1020.979,711.312z"/>
	</g>
</g>
<g opacity="0.14">
	<path fill="#010101" d="M502.432,721.201c0,5.5-4.5,10-10,10H250.099c-5.5,0-10-4.5-10-10v-48.475c0-5.5,4.5-10,10-10h242.333
		c5.5,0,10,4.5,10,10V721.201z"/>
</g>
<g>
	<g>
		<path fill="#010101" d="M343.75,704.643h-3.103l-1.74-6.75c-0.064-0.24-0.174-0.736-0.33-1.489s-0.245-1.259-0.268-1.517
			c-0.035,0.316-0.123,0.825-0.264,1.525s-0.249,1.199-0.325,1.498l-1.731,6.732h-3.094l-3.278-12.85h2.681l1.644,7.014
			c0.287,1.295,0.495,2.418,0.624,3.367c0.035-0.334,0.116-0.852,0.242-1.552s0.245-1.243,0.356-1.63l1.872-7.199h2.575l1.872,7.199
			c0.082,0.322,0.185,0.814,0.308,1.477s0.217,1.23,0.281,1.705c0.059-0.457,0.152-1.027,0.281-1.71s0.246-1.235,0.352-1.657
			l1.635-7.014h2.681L343.75,704.643z"/>
		<path fill="#010101" d="M357.355,699.713c0,1.6-0.422,2.85-1.266,3.752s-2.019,1.354-3.524,1.354
			c-0.943,0-1.775-0.205-2.496-0.619c-0.721-0.413-1.274-1.006-1.661-1.779s-0.58-1.676-0.58-2.707c0-1.605,0.419-2.854,1.257-3.744
			s2.016-1.336,3.533-1.336c0.943,0,1.775,0.205,2.496,0.615s1.274,0.998,1.661,1.766S357.355,698.682,357.355,699.713z
			 M350.562,699.713c0,0.973,0.16,1.707,0.479,2.205s0.839,0.748,1.56,0.748c0.715,0,1.229-0.248,1.542-0.743s0.47-1.231,0.47-2.21
			c0-0.973-0.158-1.703-0.475-2.189s-0.835-0.729-1.556-0.729c-0.715,0-1.23,0.241-1.547,0.725S350.562,698.734,350.562,699.713z"/>
		<path fill="#010101" d="M365.055,694.633c0.363,0,0.665,0.025,0.905,0.078l-0.202,2.514c-0.217-0.059-0.48-0.088-0.791-0.088
			c-0.855,0-1.522,0.221-2,0.66s-0.716,1.055-0.716,1.846v5h-2.681v-9.826h2.03l0.396,1.652h0.132
			c0.305-0.551,0.716-0.994,1.235-1.331S364.445,694.633,365.055,694.633z"/>
		<path fill="#010101" d="M370.319,699.299l1.169-1.494l2.751-2.988h3.023l-3.902,4.264l4.14,5.562h-3.094l-2.83-3.98l-1.151,0.922
			v3.059h-2.681v-13.676h2.681v6.1l-0.141,2.232H370.319z"/>
		<path fill="#010101" d="M383.354,704.818c-1.582,0-2.818-0.436-3.709-1.309s-1.336-2.109-1.336-3.709
			c0-1.646,0.412-2.92,1.235-3.819s1.961-1.349,3.415-1.349c1.389,0,2.47,0.395,3.243,1.186s1.16,1.885,1.16,3.279v1.301h-6.337
			c0.029,0.762,0.255,1.355,0.677,1.783s1.014,0.643,1.775,0.643c0.592,0,1.151-0.062,1.679-0.186s1.078-0.318,1.652-0.588v2.074
			c-0.469,0.234-0.97,0.408-1.503,0.521C384.771,704.762,384.121,704.818,383.354,704.818z M382.976,696.539
			c-0.568,0-1.014,0.181-1.336,0.541s-0.507,0.871-0.554,1.533h3.762c-0.012-0.662-0.185-1.173-0.519-1.533
			S383.544,696.539,382.976,696.539z"/>
		<path fill="#010101" d="M395.025,694.633c0.363,0,0.665,0.025,0.905,0.078l-0.202,2.514c-0.217-0.059-0.48-0.088-0.791-0.088
			c-0.855,0-1.522,0.221-2,0.66s-0.716,1.055-0.716,1.846v5h-2.681v-9.826h2.03l0.396,1.652h0.132
			c0.305-0.551,0.716-0.994,1.235-1.331C393.852,694.801,394.416,694.633,395.025,694.633z"/>
		<path fill="#010101" d="M408.42,704.643h-2.716v-7.436l0.026-1.221l0.044-1.336c-0.451,0.451-0.765,0.746-0.94,0.887l-1.477,1.188
			l-1.31-1.635l4.14-3.297h2.232V704.643z"/>
	</g>
</g>
<g>
	<g>
		<path fill="#010101" d="M657.139,704.643h-3.103l-1.74-6.75c-0.064-0.24-0.174-0.736-0.33-1.489s-0.245-1.259-0.268-1.517
			c-0.035,0.316-0.123,0.825-0.264,1.525s-0.249,1.199-0.325,1.498l-1.731,6.732h-3.094l-3.278-12.85h2.681l1.644,7.014
			c0.287,1.295,0.495,2.418,0.624,3.367c0.035-0.334,0.116-0.852,0.242-1.552s0.245-1.243,0.356-1.63l1.872-7.199h2.575l1.872,7.199
			c0.082,0.322,0.185,0.814,0.308,1.477s0.217,1.23,0.281,1.705c0.059-0.457,0.152-1.027,0.281-1.71s0.246-1.235,0.352-1.657
			l1.635-7.014h2.681L657.139,704.643z"/>
		<path fill="#010101" d="M670.744,699.713c0,1.6-0.422,2.85-1.266,3.752s-2.019,1.354-3.524,1.354
			c-0.943,0-1.775-0.205-2.496-0.619c-0.721-0.413-1.274-1.006-1.661-1.779s-0.58-1.676-0.58-2.707c0-1.605,0.419-2.854,1.257-3.744
			s2.016-1.336,3.533-1.336c0.943,0,1.775,0.205,2.496,0.615s1.274,0.998,1.661,1.766S670.744,698.682,670.744,699.713z
			 M663.95,699.713c0,0.973,0.16,1.707,0.479,2.205s0.839,0.748,1.56,0.748c0.715,0,1.229-0.248,1.542-0.743s0.47-1.231,0.47-2.21
			c0-0.973-0.158-1.703-0.475-2.189s-0.835-0.729-1.556-0.729c-0.715,0-1.23,0.241-1.547,0.725S663.95,698.734,663.95,699.713z"/>
		<path fill="#010101" d="M678.443,694.633c0.363,0,0.665,0.025,0.905,0.078l-0.202,2.514c-0.217-0.059-0.48-0.088-0.791-0.088
			c-0.855,0-1.522,0.221-2,0.66s-0.716,1.055-0.716,1.846v5h-2.681v-9.826h2.03l0.396,1.652h0.132
			c0.305-0.551,0.716-0.994,1.235-1.331S677.834,694.633,678.443,694.633z"/>
		<path fill="#010101" d="M683.708,699.299l1.169-1.494l2.751-2.988h3.023l-3.902,4.264l4.14,5.562h-3.094l-2.83-3.98l-1.151,0.922
			v3.059h-2.681v-13.676h2.681v6.1l-0.141,2.232H683.708z"/>
		<path fill="#010101" d="M696.742,704.818c-1.582,0-2.818-0.436-3.709-1.309s-1.336-2.109-1.336-3.709
			c0-1.646,0.412-2.92,1.234-3.819c0.824-0.899,1.962-1.349,3.415-1.349c1.388,0,2.47,0.395,3.243,1.186s1.16,1.885,1.16,3.279
			v1.301h-6.337c0.029,0.762,0.255,1.355,0.677,1.783s1.014,0.643,1.775,0.643c0.592,0,1.15-0.062,1.678-0.186
			s1.078-0.318,1.652-0.588v2.074c-0.469,0.234-0.969,0.408-1.502,0.521C698.16,704.762,697.51,704.818,696.742,704.818z
			 M696.364,696.539c-0.568,0-1.014,0.181-1.336,0.541s-0.507,0.871-0.554,1.533h3.762c-0.012-0.662-0.186-1.173-0.52-1.533
			S696.932,696.539,696.364,696.539z"/>
		<path fill="#010101" d="M708.414,694.633c0.363,0,0.666,0.025,0.906,0.078l-0.203,2.514c-0.217-0.059-0.48-0.088-0.791-0.088
			c-0.855,0-1.521,0.221-2,0.66c-0.477,0.439-0.715,1.055-0.715,1.846v5h-2.682v-9.826h2.031l0.395,1.652h0.133
			c0.305-0.551,0.715-0.994,1.234-1.331C707.24,694.801,707.805,694.633,708.414,694.633z"/>
		<path fill="#010101" d="M724.076,704.643h-8.982v-1.889l3.227-3.262c0.955-0.979,1.578-1.656,1.871-2.034s0.504-0.728,0.633-1.05
			s0.193-0.656,0.193-1.002c0-0.516-0.143-0.9-0.426-1.152c-0.285-0.252-0.664-0.377-1.139-0.377c-0.498,0-0.98,0.113-1.449,0.342
			s-0.959,0.555-1.469,0.977l-1.477-1.75c0.633-0.539,1.158-0.92,1.574-1.143s0.869-0.394,1.361-0.514s1.043-0.18,1.652-0.18
			c0.803,0,1.512,0.146,2.127,0.439s1.094,0.703,1.434,1.23s0.51,1.131,0.51,1.811c0,0.592-0.105,1.146-0.312,1.665
			c-0.209,0.519-0.531,1.05-0.967,1.595c-0.438,0.545-1.205,1.322-2.307,2.33l-1.652,1.555v0.123h5.598V704.643z"/>
	</g>
</g>
<g opacity="0.55">
	<g>
		
			<line fill="none" stroke="#010101" stroke-width="0.8711" stroke-miterlimit="10" x1="684.5" y1="227.377" x2="684.5" y2="320.355"/>
		<g>
			<polygon fill="#010101" points="684.5,221.227 680.958,229.894 684.5,227.837 688.041,229.894 			"/>
		</g>
		<g>
			<path fill="#010101" d="M684.5,318.792l3.139-1.909l0.071,0.107l-2.033,5.118c-0.393,1.783-0.784,3.566-1.177,5.35
				c-0.393-1.783-0.784-3.566-1.177-5.35l-2.033-5.118l0.053-0.107L684.5,318.792z"/>
		</g>
	</g>
</g>
<g opacity="0.55">
	<g>
		<path fill="none" stroke="#010101" stroke-width="0.8677" stroke-miterlimit="10" d="M261.339,227.351v8.912
			c0,1.929,1.524,3.916,3.387,4.416l241.59,64.862c1.863,0.5,3.387,2.487,3.387,4.416v11.342"/>
		<g>
			<polygon fill="#010101" points="261.339,221.224 257.812,229.857 261.339,227.809 264.866,229.857 			"/>
		</g>
		<g>
			<polygon fill="#010101" points="509.703,327.425 506.175,318.792 509.703,320.84 513.229,318.792 			"/>
		</g>
	</g>
</g>
<g opacity="0.55">
	<g>
		<path fill="none" stroke="#010101" stroke-width="0.8729" stroke-miterlimit="10" d="M1115.108,227.388v10.26
			c0,1.929-1.525,3.912-3.39,4.406l-241.584,64.016c-1.864,0.494-3.39,2.477-3.39,4.406v10.819"/>
		<g>
			<polygon fill="#010101" points="1115.108,221.225 1111.56,229.91 1115.108,227.849 1118.656,229.91 			"/>
		</g>
		<g>
			<polygon fill="#010101" points="866.745,327.457 863.196,318.772 866.745,320.833 870.293,318.772 			"/>
		</g>
	</g>
</g>
<g opacity="0.55">
	<g>
		
			<line fill="none" stroke="#010101" stroke-width="0.7236" stroke-miterlimit="10" x1="680.57" y1="657.617" x2="680.57" y2="568.759"/>
		<g>
			<polygon fill="#010101" points="680.57,662.727 683.512,655.527 680.57,657.235 677.629,655.527 			"/>
		</g>
		<g>
			<path fill="#010101" d="M680.57,570.058l-2.607,1.586l-0.059-0.09l1.688-4.251c0.326-1.481,0.652-2.962,0.978-4.443
				c0.327,1.481,0.651,2.962,0.978,4.443l1.688,4.251l-0.043,0.09L680.57,570.058z"/>
		</g>
	</g>
</g>
<g opacity="0.55">
	<g>
		<path fill="none" stroke="#010101" stroke-width="0.7208" stroke-miterlimit="10" d="M369.993,657.641v-9.433
			c0-1.603,1.239-3.339,2.754-3.86l176.777-60.792c1.515-0.521,2.754-2.258,2.754-3.86v-11.718"/>
		<g>
			<polygon fill="#010101" points="369.993,662.729 372.923,655.559 369.993,657.26 367.063,655.559 			"/>
		</g>
		<g>
			<polygon fill="#010101" points="552.279,562.889 555.209,570.06 552.279,568.358 549.349,570.06 			"/>
		</g>
	</g>
</g>
<g opacity="0.55">
	<g>
		<path fill="none" stroke="#010101" stroke-width="0.7251" stroke-miterlimit="10" d="M996.614,657.609v-10.704
			c0-1.603-1.241-3.334-2.759-3.85l-176.769-59.997c-1.518-0.516-2.759-2.247-2.759-3.85v-11.23"/>
		<g>
			<polygon fill="#010101" points="996.614,662.729 999.562,655.515 996.614,657.227 993.667,655.515 			"/>
		</g>
		<g>
			<polygon fill="#010101" points="814.328,562.859 817.276,570.073 814.328,568.361 811.381,570.073 			"/>
		</g>
	</g>
</g>
<rect x="875.737" y="379.407" fill="#C9D8E3" stroke="#010101" stroke-miterlimit="10" enable-background="new    " width="63.069" height="15.651"/>
<g>
</g>
<g>
</g>
<g>
</g>
<g>
</g>
<g>
</g>
<g>
</g>
<g>
</g>
<g>
</g>
</svg>
