<?xml version="1.0" encoding="utf-8"?>
<!-- Generator: Adobe Illustrator 16.0.4, SVG Export Plug-In . SVG Version: 6.00 Build 0)  -->
<!DOCTYPE svg PUBLIC "-//W3C//DTD SVG 1.1//EN" "http://www.w3.org/Graphics/SVG/1.1/DTD/svg11.dtd">
<svg version="1.1" id="Layer_13" xmlns="http://www.w3.org/2000/svg" xmlns:xlink="http://www.w3.org/1999/xlink" x="0px" y="0px"
	 width="1366px" height="768px" viewBox="0 0 1366 768" enable-background="new 0 0 1366 768" xml:space="preserve">
<rect x="-1" y="1" fill="#FFFFFF" width="1366" height="768"/>
<g>
	<rect x="830.305" y="833.317" fill="none" width="197.391" height="66.365"/>
	<path d="M857.572,834.021l1.213,4.808l1.379-4.808h3.068v12.797h-2.268v-3.788l0.105-5.985l-1.68,5.555h-1.221l-1.504-5.317
		l0.105,5.748v3.788h-2.268v-12.797H857.572z"/>
	<path d="M871.371,846.817c-0.059-0.117-0.109-0.252-0.15-0.404s-0.076-0.313-0.105-0.483c-0.135,0.146-0.289,0.284-0.465,0.413
		s-0.371,0.241-0.586,0.339c-0.213,0.096-0.449,0.172-0.707,0.229c-0.258,0.055-0.535,0.083-0.834,0.083
		c-0.486,0-0.934-0.07-1.342-0.211c-0.406-0.141-0.756-0.337-1.049-0.589s-0.521-0.553-0.686-0.9
		c-0.164-0.35-0.246-0.729-0.246-1.139c0-1.002,0.373-1.777,1.119-2.324c0.748-0.549,1.863-0.822,3.346-0.822h1.361v-0.562
		c0-0.457-0.148-0.818-0.447-1.086c-0.299-0.266-0.73-0.399-1.293-0.399c-0.498,0-0.861,0.106-1.09,0.321
		c-0.229,0.213-0.342,0.499-0.342,0.856h-2.443c0-0.404,0.088-0.788,0.268-1.151c0.178-0.363,0.439-0.683,0.781-0.958
		c0.344-0.275,0.762-0.493,1.258-0.655c0.494-0.16,1.062-0.241,1.701-0.241c0.574,0,1.107,0.07,1.604,0.211
		c0.494,0.141,0.924,0.349,1.287,0.624s0.648,0.623,0.854,1.041c0.205,0.42,0.307,0.904,0.307,1.455v4.078
		c0,0.51,0.033,0.932,0.098,1.266s0.158,0.621,0.281,0.861v0.149H871.371z M869.041,845.104c0.246,0,0.475-0.029,0.686-0.088
		s0.402-0.135,0.572-0.229s0.316-0.201,0.439-0.32c0.123-0.121,0.219-0.242,0.289-0.365v-1.635h-1.248
		c-0.381,0-0.705,0.037-0.975,0.109c-0.27,0.074-0.49,0.176-0.66,0.309c-0.17,0.131-0.295,0.289-0.377,0.475
		c-0.082,0.184-0.123,0.385-0.123,0.602c0,0.328,0.115,0.601,0.346,0.817C868.223,844.995,868.572,845.104,869.041,845.104z"/>
	<path d="M880.582,840.278l2.092-2.971h2.627l-3.189,4.667l3.305,4.843h-2.637l-2.189-3.111l-2.17,3.111h-2.646l3.305-4.843
		l-3.182-4.667h2.629L880.582,840.278z"/>
	<path d="M904.004,841.729l0.932-7.708h2.268l-1.775,12.797h-2.232l-1.213-7.559l-1.168,7.559h-2.232l-1.758-12.797h2.258
		l0.914,7.655l1.09-7.655h1.768L904.004,841.729z"/>
	<path d="M913.25,846.993c-0.732,0-1.396-0.12-1.994-0.36s-1.111-0.566-1.539-0.98c-0.428-0.412-0.758-0.898-0.988-1.459
		c-0.232-0.559-0.348-1.158-0.348-1.797v-0.352c0-0.727,0.115-1.391,0.344-1.99c0.229-0.602,0.547-1.118,0.957-1.552
		s0.896-0.771,1.459-1.011s1.176-0.36,1.838-0.36c0.686,0,1.295,0.112,1.832,0.339c0.535,0.225,0.99,0.543,1.361,0.953
		c0.373,0.41,0.656,0.904,0.85,1.48c0.193,0.578,0.289,1.215,0.289,1.912v1.037h-6.451c0.047,0.322,0.143,0.617,0.285,0.883
		c0.145,0.268,0.328,0.497,0.551,0.69s0.477,0.343,0.764,0.448s0.602,0.158,0.941,0.158c0.24,0,0.479-0.023,0.715-0.07
		c0.238-0.047,0.465-0.115,0.682-0.207c0.217-0.09,0.42-0.203,0.607-0.338s0.352-0.293,0.492-0.475l1.221,1.318
		c-0.152,0.217-0.35,0.43-0.594,0.637c-0.242,0.209-0.529,0.393-0.861,0.555c-0.33,0.16-0.697,0.291-1.102,0.391
		S913.719,846.993,913.25,846.993z M912.961,839.109c-0.275,0-0.527,0.049-0.756,0.145c-0.229,0.098-0.43,0.236-0.604,0.418
		c-0.172,0.182-0.316,0.398-0.434,0.65s-0.205,0.533-0.264,0.844h4.008v-0.193c-0.012-0.258-0.062-0.501-0.15-0.729
		s-0.213-0.427-0.377-0.593c-0.164-0.168-0.365-0.299-0.604-0.396C913.545,839.158,913.271,839.109,912.961,839.109z"/>
	<path d="M920.088,837.308h5.178v7.523h2.574v1.986h-7.752v-1.986h2.707v-5.528h-2.707V837.308z M922.619,834.873
		c0-0.188,0.033-0.361,0.102-0.523c0.066-0.16,0.162-0.299,0.285-0.412c0.123-0.115,0.271-0.204,0.445-0.269
		c0.172-0.064,0.363-0.097,0.574-0.097c0.434,0,0.779,0.121,1.033,0.365c0.256,0.242,0.383,0.555,0.383,0.936
		s-0.127,0.693-0.383,0.936c-0.254,0.244-0.6,0.365-1.033,0.365c-0.211,0-0.402-0.032-0.574-0.097
		c-0.174-0.064-0.322-0.153-0.445-0.269c-0.123-0.113-0.219-0.252-0.285-0.412C922.652,835.234,922.619,835.061,922.619,834.873z"/>
	<path d="M929.994,841.992c0-0.721,0.088-1.38,0.268-1.978c0.178-0.598,0.436-1.11,0.77-1.538s0.738-0.759,1.213-0.993
		s1.01-0.352,1.607-0.352c0.557,0,1.035,0.094,1.434,0.281s0.738,0.454,1.02,0.8l0.096-0.905h2.225v9.202
		c0,0.645-0.111,1.219-0.33,1.723c-0.221,0.504-0.527,0.929-0.924,1.274c-0.395,0.346-0.869,0.608-1.424,0.786
		c-0.553,0.18-1.164,0.269-1.832,0.269c-0.287,0-0.594-0.029-0.922-0.088s-0.654-0.149-0.977-0.272s-0.627-0.279-0.914-0.471
		c-0.287-0.189-0.533-0.417-0.738-0.681l1.1-1.485c0.311,0.352,0.662,0.619,1.055,0.805c0.393,0.184,0.816,0.276,1.273,0.276
		c0.686,0,1.221-0.183,1.604-0.55c0.385-0.365,0.576-0.886,0.576-1.56v-0.545c-0.287,0.316-0.623,0.562-1.006,0.738
		c-0.385,0.176-0.828,0.264-1.332,0.264c-0.592,0-1.123-0.122-1.596-0.364c-0.471-0.244-0.873-0.579-1.207-1.007
		s-0.592-0.937-0.77-1.524c-0.18-0.59-0.268-1.229-0.268-1.921V841.992z M932.445,842.177c0,0.398,0.039,0.769,0.119,1.112
		c0.078,0.342,0.201,0.641,0.365,0.896c0.164,0.254,0.371,0.455,0.623,0.602s0.551,0.22,0.896,0.22c0.428,0,0.781-0.082,1.059-0.246
		c0.279-0.164,0.5-0.393,0.664-0.686v-4.025c-0.164-0.299-0.385-0.528-0.664-0.69c-0.277-0.16-0.625-0.241-1.041-0.241
		c-0.346,0-0.645,0.075-0.896,0.224c-0.252,0.15-0.461,0.355-0.629,0.615c-0.166,0.262-0.291,0.566-0.373,0.914
		c-0.082,0.35-0.123,0.723-0.123,1.121V842.177z"/>
	<path d="M943.484,838.617c0.316-0.463,0.701-0.826,1.156-1.09c0.453-0.264,0.963-0.396,1.525-0.396
		c0.498,0,0.955,0.075,1.371,0.224c0.416,0.15,0.773,0.383,1.072,0.699s0.531,0.723,0.699,1.217c0.166,0.496,0.25,1.092,0.25,1.789
		v5.757h-2.443v-5.774c0-0.34-0.043-0.633-0.127-0.879c-0.086-0.246-0.207-0.445-0.365-0.598s-0.35-0.266-0.572-0.338
		c-0.223-0.074-0.475-0.11-0.756-0.11c-0.41,0-0.766,0.073-1.066,0.22c-0.303,0.146-0.551,0.352-0.744,0.615v6.864h-2.443v-13.5
		h2.443V838.617z"/>
	<path d="M956.326,834.979v2.329h3.551v1.802h-3.551v4.087c0,0.346,0.039,0.634,0.117,0.866c0.08,0.23,0.193,0.416,0.34,0.553
		c0.146,0.139,0.322,0.236,0.531,0.295c0.207,0.059,0.441,0.088,0.699,0.088c0.188,0,0.379-0.009,0.574-0.026
		c0.197-0.018,0.385-0.04,0.562-0.065c0.18-0.027,0.346-0.055,0.502-0.084c0.154-0.029,0.289-0.059,0.4-0.088l0.236,1.679
		c-0.17,0.1-0.369,0.187-0.598,0.259c-0.229,0.074-0.471,0.134-0.729,0.181s-0.527,0.083-0.805,0.11
		c-0.279,0.025-0.553,0.039-0.822,0.039c-0.521,0-0.994-0.068-1.42-0.207c-0.424-0.137-0.787-0.352-1.09-0.641
		c-0.301-0.291-0.533-0.66-0.697-1.107c-0.164-0.449-0.246-0.986-0.246-1.613v-4.324h-2.172v-1.802h2.172v-2.329H956.326z"/>
	<path d="M965.238,838.143c0-0.229,0.037-0.441,0.113-0.637c0.076-0.197,0.188-0.367,0.334-0.51
		c0.146-0.145,0.326-0.258,0.537-0.344c0.211-0.084,0.447-0.127,0.711-0.127s0.502,0.043,0.713,0.127
		c0.211,0.086,0.387,0.199,0.531,0.344c0.143,0.143,0.256,0.312,0.334,0.51c0.08,0.195,0.119,0.408,0.119,0.637
		c0,0.223-0.039,0.431-0.119,0.624c-0.078,0.193-0.191,0.362-0.334,0.505c-0.145,0.145-0.32,0.257-0.531,0.339
		s-0.449,0.123-0.713,0.123s-0.5-0.041-0.711-0.123s-0.391-0.194-0.537-0.339c-0.146-0.143-0.258-0.312-0.334-0.505
		S965.238,838.365,965.238,838.143z M965.238,845.402c0-0.229,0.037-0.441,0.113-0.637c0.076-0.197,0.188-0.367,0.334-0.51
		c0.146-0.145,0.326-0.258,0.537-0.344c0.211-0.084,0.447-0.127,0.711-0.127s0.502,0.043,0.713,0.127
		c0.211,0.086,0.387,0.199,0.531,0.344c0.143,0.143,0.256,0.312,0.334,0.51c0.08,0.195,0.119,0.408,0.119,0.637
		c0,0.223-0.039,0.431-0.119,0.624c-0.078,0.193-0.191,0.362-0.334,0.505c-0.145,0.145-0.32,0.257-0.531,0.339
		s-0.449,0.123-0.713,0.123s-0.5-0.041-0.711-0.123s-0.391-0.194-0.537-0.339c-0.146-0.143-0.258-0.312-0.334-0.505
		S965.238,845.625,965.238,845.402z"/>
	<path d="M991.385,842.062h1.486v1.978h-1.486v2.777h-2.443v-2.777h-5.316l-0.098-1.529l5.379-8.49h2.479V842.062z M985.928,842.062
		h3.014v-4.755l-0.236,0.422L985.928,842.062z"/>
	<path d="M997.994,834.021l1.213,4.808l1.381-4.808h3.066v12.797h-2.268v-3.788l0.105-5.985l-1.678,5.555h-1.223l-1.502-5.317
		l0.105,5.748v3.788h-2.268v-12.797H997.994z"/>
</g>
<rect x="682" y="835" fill="#FF3600" width="133" height="110"/>
<g>
	<path fill="#FFFFFF" d="M12,602c-1.654,0-3-1.346-3-3v-41c0-1.654,1.346-3,3-3h81c1.654,0,3,1.346,3,3v41c0,1.654-1.346,3-3,3H12z"
		/>
	<path fill="#2C4F6E" d="M93,556c1.1,0,2,0.9,2,2v41c0,1.1-0.9,2-2,2H12c-1.1,0-2-0.9-2-2v-41c0-1.1,0.9-2,2-2H93 M93,554H12
		c-2.206,0-4,1.794-4,4v41c0,2.206,1.794,4,4,4h81c2.206,0,4-1.794,4-4v-41C97,555.794,95.206,554,93,554L93,554z"/>
</g>
<g>
	<path fill="#FFFFFF" d="M66,476c-1.654,0-3-1.346-3-3v-42c0-1.654,1.346-3,3-3h81c1.654,0,3,1.346,3,3v42c0,1.654-1.346,3-3,3H66z"
		/>
	<path fill="#2C4F6E" d="M147,429c1.1,0,2,0.9,2,2v42c0,1.1-0.9,2-2,2H66c-1.1,0-2-0.9-2-2v-42c0-1.1,0.9-2,2-2H147 M147,427H66
		c-2.206,0-4,1.794-4,4v42c0,2.206,1.794,4,4,4h81c2.206,0,4-1.794,4-4v-42C151,428.794,149.206,427,147,427L147,427z"/>
</g>
<g>
	<path fill="#FFFFFF" d="M275,476c-1.654,0-3-1.346-3-3v-42c0-1.654,1.346-3,3-3h82c1.654,0,3,1.346,3,3v42c0,1.654-1.346,3-3,3H275
		z"/>
	<path fill="#2C4F6E" d="M357,429c1.1,0,2,0.9,2,2v42c0,1.1-0.9,2-2,2h-82c-1.1,0-2-0.9-2-2v-42c0-1.1,0.9-2,2-2H357 M357,427h-82
		c-2.206,0-4,1.794-4,4v42c0,2.206,1.794,4,4,4h82c2.206,0,4-1.794,4-4v-42C361,428.794,359.206,427,357,427L357,427z"/>
</g>
<g>
	<path fill="#FFFFFF" d="M165,348c-1.654,0-3-1.346-3-3v-41c0-1.654,1.346-3,3-3h82c1.654,0,3,1.346,3,3v41c0,1.654-1.346,3-3,3H165
		z"/>
	<path fill="#2C4F6E" d="M247,302c1.1,0,2,0.9,2,2v41c0,1.1-0.9,2-2,2h-82c-1.1,0-2-0.9-2-2v-41c0-1.1,0.9-2,2-2H247 M247,300h-82
		c-2.206,0-4,1.794-4,4v41c0,2.206,1.794,4,4,4h82c2.206,0,4-1.794,4-4v-41C251,301.794,249.206,300,247,300L247,300z"/>
</g>
<g>
	<path fill="#FFFFFF" d="M588,348c-1.654,0-3-1.346-3-3v-41c0-1.654,1.346-3,3-3h82c1.654,0,3,1.346,3,3v41c0,1.654-1.346,3-3,3H588
		z"/>
	<path fill="#2C4F6E" d="M670,302c1.1,0,2,0.9,2,2v41c0,1.1-0.9,2-2,2h-82c-1.1,0-2-0.9-2-2v-41c0-1.1,0.9-2,2-2H670 M670,300h-82
		c-2.206,0-4,1.794-4,4v41c0,2.206,1.794,4,4,4h82c2.206,0,4-1.794,4-4v-41C674,301.794,672.206,300,670,300L670,300z"/>
</g>
<g>
	<path fill="#FFFFFF" d="M577,219c0,1.1-0.9,2-2,2H262c-1.1,0-2-0.9-2-2v-41c0-1.1,0.9-2,2-2h313c1.1,0,2,0.9,2,2V219z"/>
	<path fill="none" stroke="#2C4F6E" stroke-width="3" stroke-miterlimit="10" d="M576.5,219.5c0,1.104-0.896,2-2,2h-313
		c-1.104,0-2-0.896-2-2v-41c0-1.104,0.896-2,2-2h313c1.104,0,2,0.896,2,2V219.5z"/>
</g>
<g>
	<path fill="#FFFFFF" d="M489,476c-1.654,0-3-1.346-3-3v-42c0-1.654,1.346-3,3-3h80c1.654,0,3,1.346,3,3v42c0,1.654-1.346,3-3,3H489
		z"/>
	<path fill="#2C4F6E" d="M569,429c1.1,0,2,0.9,2,2v42c0,1.1-0.9,2-2,2h-80c-1.1,0-2-0.9-2-2v-42c0-1.1,0.9-2,2-2H569 M569,427h-80
		c-2.206,0-4,1.794-4,4v42c0,2.206,1.794,4,4,4h80c2.206,0,4-1.794,4-4v-42C573,428.794,571.206,427,569,427L569,427z"/>
</g>
<g>
	<path fill="#FFFFFF" d="M694,476c-1.654,0-3-1.346-3-3v-42c0-1.654,1.346-3,3-3h82c1.654,0,3,1.346,3,3v42c0,1.654-1.346,3-3,3H694
		z"/>
	<path fill="#2C4F6E" d="M776,429c1.1,0,2,0.9,2,2v42c0,1.1-0.9,2-2,2h-82c-1.1,0-2-0.9-2-2v-42c0-1.1,0.9-2,2-2H776 M776,427h-82
		c-2.206,0-4,1.794-4,4v42c0,2.206,1.794,4,4,4h82c2.206,0,4-1.794,4-4v-42C780,428.794,778.206,427,776,427L776,427z"/>
</g>
<g>
	<path fill="#FFFFFF" d="M223,602c-1.654,0-3-1.346-3-3v-41c0-1.654,1.346-3,3-3h81c1.654,0,3,1.346,3,3v41c0,1.654-1.346,3-3,3H223
		z"/>
	<path fill="#2C4F6E" d="M304,556c1.1,0,2,0.9,2,2v41c0,1.1-0.9,2-2,2h-81c-1.1,0-2-0.9-2-2v-41c0-1.1,0.9-2,2-2H304 M304,554h-81
		c-2.206,0-4,1.794-4,4v41c0,2.206,1.794,4,4,4h81c2.206,0,4-1.794,4-4v-41C308,555.794,306.206,554,304,554L304,554z"/>
</g>
<g>
	<path fill="#FFFFFF" d="M118,602c-1.654,0-3-1.346-3-3v-41c0-1.654,1.346-3,3-3h81c1.654,0,3,1.346,3,3v41c0,1.654-1.346,3-3,3H118
		z"/>
	<path fill="#2C4F6E" d="M199,556c1.1,0,2,0.9,2,2v41c0,1.1-0.9,2-2,2h-81c-1.1,0-2-0.9-2-2v-41c0-1.1,0.9-2,2-2H199 M199,554h-81
		c-2.206,0-4,1.794-4,4v41c0,2.206,1.794,4,4,4h81c2.206,0,4-1.794,4-4v-41C203,555.794,201.206,554,199,554L199,554z"/>
</g>
<g>
	<path fill="#FFFFFF" d="M329,602c-1.654,0-3-1.346-3-3v-41c0-1.654,1.346-3,3-3h82c1.654,0,3,1.346,3,3v41c0,1.654-1.346,3-3,3H329
		z"/>
	<path fill="#2C4F6E" d="M411,556c1.1,0,2,0.9,2,2v41c0,1.1-0.9,2-2,2h-82c-1.1,0-2-0.9-2-2v-41c0-1.1,0.9-2,2-2H411 M411,554h-82
		c-2.206,0-4,1.794-4,4v41c0,2.206,1.794,4,4,4h82c2.206,0,4-1.794,4-4v-41C415,555.794,413.206,554,411,554L411,554z"/>
</g>
<g>
	<path fill="#FFFFFF" d="M435,602c-1.654,0-3-1.346-3-3v-41c0-1.654,1.346-3,3-3h81c1.654,0,3,1.346,3,3v41c0,1.654-1.346,3-3,3H435
		z"/>
	<path fill="#2C4F6E" d="M516,556c1.1,0,2,0.9,2,2v41c0,1.1-0.9,2-2,2h-81c-1.1,0-2-0.9-2-2v-41c0-1.1,0.9-2,2-2H516 M516,554h-81
		c-2.206,0-4,1.794-4,4v41c0,2.206,1.794,4,4,4h81c2.206,0,4-1.794,4-4v-41C520,555.794,518.206,554,516,554L516,554z"/>
</g>
<g>
	<path fill="#FFFFFF" d="M96,725.5c0,1.933-1.567,3.5-3.5,3.5h-81c-1.933,0-3.5-1.567-3.5-3.5v-41c0-1.933,1.567-3.5,3.5-3.5h81
		c1.933,0,3.5,1.567,3.5,3.5V725.5z"/>
	<path fill="#2C4F6E" d="M93,682c1.1,0,2,0.9,2,2v41c0,1.1-0.9,2-2,2H12c-1.1,0-2-0.9-2-2v-41c0-1.1,0.9-2,2-2H93 M93,679H12
		c-2.757,0-5,2.243-5,5v41c0,2.757,2.243,5,5,5h81c2.757,0,5-2.243,5-5v-41C98,681.243,95.757,679,93,679L93,679z"/>
</g>
<g>
	<path fill="#FFFFFF" d="M307,725.5c0,1.933-1.567,3.5-3.5,3.5h-81c-1.933,0-3.5-1.567-3.5-3.5v-41c0-1.933,1.567-3.5,3.5-3.5h81
		c1.933,0,3.5,1.567,3.5,3.5V725.5z"/>
	<path fill="#2C4F6E" d="M304,682c1.1,0,2,0.9,2,2v41c0,1.1-0.9,2-2,2h-81c-1.1,0-2-0.9-2-2v-41c0-1.1,0.9-2,2-2H304 M304,679h-81
		c-2.757,0-5,2.243-5,5v41c0,2.757,2.243,5,5,5h81c2.757,0,5-2.243,5-5v-41C309,681.243,306.757,679,304,679L304,679z"/>
</g>
<g>
	<path fill="#FFFFFF" d="M202,725.5c0,1.933-1.567,3.5-3.5,3.5h-81c-1.933,0-3.5-1.567-3.5-3.5v-41c0-1.933,1.567-3.5,3.5-3.5h81
		c1.933,0,3.5,1.567,3.5,3.5V725.5z"/>
	<path fill="#2C4F6E" d="M199,682c1.1,0,2,0.9,2,2v41c0,1.1-0.9,2-2,2h-81c-1.1,0-2-0.9-2-2v-41c0-1.1,0.9-2,2-2H199 M199,679h-81
		c-2.757,0-5,2.243-5,5v41c0,2.757,2.243,5,5,5h81c2.757,0,5-2.243,5-5v-41C204,681.243,201.757,679,199,679L199,679z"/>
</g>
<g>
	<path fill="#FFFFFF" d="M414,725.5c0,1.933-1.567,3.5-3.5,3.5h-82c-1.933,0-3.5-1.567-3.5-3.5v-41c0-1.933,1.567-3.5,3.5-3.5h82
		c1.933,0,3.5,1.567,3.5,3.5V725.5z"/>
	<path fill="#2C4F6E" d="M411,682c1.1,0,2,0.9,2,2v41c0,1.1-0.9,2-2,2h-82c-1.1,0-2-0.9-2-2v-41c0-1.1,0.9-2,2-2H411 M411,679h-82
		c-2.757,0-5,2.243-5,5v41c0,2.757,2.243,5,5,5h82c2.757,0,5-2.243,5-5v-41C416,681.243,413.757,679,411,679L411,679z"/>
</g>
<g>
	<path fill="#FFFFFF" d="M519,725.5c0,1.933-1.567,3.5-3.5,3.5h-81c-1.933,0-3.5-1.567-3.5-3.5v-41c0-1.933,1.567-3.5,3.5-3.5h81
		c1.933,0,3.5,1.567,3.5,3.5V725.5z"/>
	<path fill="#2C4F6E" d="M516,682c1.1,0,2,0.9,2,2v41c0,1.1-0.9,2-2,2h-81c-1.1,0-2-0.9-2-2v-41c0-1.1,0.9-2,2-2H516 M516,679h-81
		c-2.757,0-5,2.243-5,5v41c0,2.757,2.243,5,5,5h81c2.757,0,5-2.243,5-5v-41C521,681.243,518.757,679,516,679L516,679z"/>
</g>
<g>
	<path fill="#FFFFFF" d="M540,602c-1.654,0-3-1.346-3-3v-41c0-1.654,1.346-3,3-3h82c1.654,0,3,1.346,3,3v41c0,1.654-1.346,3-3,3H540
		z"/>
	<path fill="#2C4F6E" d="M622,556c1.1,0,2,0.9,2,2v41c0,1.1-0.9,2-2,2h-82c-1.1,0-2-0.9-2-2v-41c0-1.1,0.9-2,2-2H622 M622,554h-82
		c-2.206,0-4,1.794-4,4v41c0,2.206,1.794,4,4,4h82c2.206,0,4-1.794,4-4v-41C626,555.794,624.206,554,622,554L622,554z"/>
</g>
<g>
	<rect x="24.333" y="570.5" fill="none" width="57.333" height="32"/>
	<path d="M46.395,584h-2.057v-5.713h-4.351V584H37.94v-12.797h2.048v5.353h4.351v-5.353h2.057V584z"/>
	<path d="M56.986,585.652h-8.068V584h8.068V585.652z"/>
	<path d="M67.981,579.131c0,0.826-0.095,1.555-0.286,2.184c-0.19,0.631-0.464,1.158-0.822,1.582
		c-0.357,0.426-0.794,0.746-1.31,0.963s-1.096,0.325-1.74,0.325c-0.639,0-1.216-0.108-1.731-0.325s-0.954-0.537-1.314-0.963
		c-0.36-0.424-0.639-0.951-0.835-1.582c-0.196-0.629-0.294-1.357-0.294-2.184v-3.059c0-0.826,0.097-1.554,0.29-2.184
		s0.47-1.157,0.831-1.582s0.797-0.746,1.31-0.963s1.088-0.325,1.727-0.325c0.645,0,1.225,0.108,1.74,0.325s0.954,0.538,1.314,0.963
		s0.637,0.952,0.831,1.582s0.29,1.357,0.29,2.184V579.131z M61.758,578.331l4.096-3.05c-0.047-0.873-0.239-1.519-0.576-1.938
		s-0.828-0.629-1.472-0.629c-0.686,0-1.198,0.243-1.538,0.729s-0.51,1.233-0.51,2.241V578.331z M65.872,576.934l-4.096,3.05
		c0.105,1.676,0.788,2.514,2.048,2.514c1.365,0,2.048-0.999,2.048-2.997V576.934z"/>
</g>
<g>
	<rect x="61.167" y="444" fill="none" width="90.667" height="32"/>
	<path d="M94.494,457.5h-2.057v-5.713h-4.351v5.713h-2.048v-12.797h2.048v5.353h4.351v-5.353h2.057V457.5z"/>
	<path d="M105.085,459.152h-8.068V457.5h8.068V459.152z"/>
	<path d="M116.08,452.631c0,0.826-0.095,1.555-0.286,2.184c-0.19,0.631-0.464,1.158-0.822,1.582
		c-0.357,0.426-0.794,0.746-1.31,0.963s-1.096,0.325-1.74,0.325c-0.639,0-1.216-0.108-1.731-0.325s-0.954-0.537-1.314-0.963
		c-0.36-0.424-0.639-0.951-0.835-1.582c-0.196-0.629-0.294-1.357-0.294-2.184v-3.059c0-0.826,0.097-1.554,0.29-2.184
		s0.47-1.157,0.831-1.582s0.797-0.746,1.31-0.963s1.088-0.325,1.727-0.325c0.645,0,1.225,0.108,1.74,0.325s0.954,0.538,1.314,0.963
		s0.637,0.952,0.831,1.582s0.29,1.357,0.29,2.184V452.631z M109.857,451.831l4.096-3.05c-0.047-0.873-0.239-1.519-0.576-1.938
		s-0.828-0.629-1.472-0.629c-0.686,0-1.198,0.243-1.538,0.729s-0.51,1.233-0.51,2.241V451.831z M113.971,450.434l-4.096,3.05
		c0.105,1.676,0.788,2.514,2.048,2.514c1.365,0,2.048-0.999,2.048-2.997V450.434z"/>
	<path d="M124.351,457.5h-2.118v-10.204l-3.27,1.195v-1.846l5.256-1.942h0.132V457.5z"/>
</g>
<g>
	<rect x="268.5" y="445" fill="none" width="90.667" height="32"/>
	<path d="M301.828,458.5h-2.057v-5.713h-4.351v5.713h-2.048v-12.797h2.048v5.353h4.351v-5.353h2.057V458.5z"/>
	<path d="M312.418,460.152h-8.068V458.5h8.068V460.152z"/>
	<path d="M323.352,458.5h-8.596v-1.45l4.166-4.544c0.352-0.393,0.646-0.739,0.883-1.041s0.426-0.579,0.567-0.831
		s0.24-0.486,0.299-0.703s0.088-0.437,0.088-0.659c0-0.293-0.045-0.563-0.136-0.812s-0.22-0.463-0.387-0.643
		c-0.167-0.178-0.369-0.317-0.606-0.417s-0.502-0.149-0.795-0.149c-0.762,0-1.323,0.208-1.683,0.624s-0.541,0.99-0.541,1.723h-2.109
		c0-0.557,0.101-1.082,0.303-1.577s0.492-0.928,0.87-1.297s0.836-0.66,1.375-0.875c0.539-0.213,1.146-0.32,1.819-0.32
		c0.633,0,1.195,0.091,1.688,0.272s0.908,0.435,1.248,0.761c0.34,0.324,0.598,0.71,0.773,1.155s0.264,0.935,0.264,1.468
		c0,0.398-0.064,0.784-0.193,1.156s-0.308,0.742-0.536,1.111s-0.501,0.74-0.817,1.111c-0.316,0.373-0.659,0.755-1.028,1.147
		l-2.9,3.111h5.985V458.5z"/>
	<path d="M328.186,451.152h1.257c0.369,0,0.691-0.049,0.967-0.145c0.275-0.098,0.504-0.233,0.686-0.409s0.318-0.385,0.409-0.628
		s0.136-0.512,0.136-0.805c0-0.621-0.163-1.1-0.488-1.438c-0.325-0.336-0.816-0.505-1.472-0.505c-0.287,0-0.552,0.043-0.795,0.128
		s-0.454,0.206-0.633,0.364s-0.318,0.349-0.417,0.571s-0.149,0.475-0.149,0.756h-2.101c0-0.504,0.101-0.97,0.303-1.397
		s0.483-0.798,0.844-1.112c0.36-0.312,0.79-0.559,1.288-0.738c0.498-0.178,1.043-0.268,1.635-0.268c0.604,0,1.157,0.078,1.661,0.232
		c0.504,0.156,0.935,0.386,1.292,0.69s0.636,0.685,0.835,1.138c0.199,0.455,0.299,0.98,0.299,1.578c0,0.252-0.038,0.51-0.114,0.773
		s-0.192,0.519-0.347,0.765s-0.352,0.477-0.589,0.69s-0.517,0.394-0.839,0.54c0.387,0.135,0.712,0.308,0.976,0.519
		s0.478,0.447,0.642,0.707c0.164,0.262,0.281,0.541,0.352,0.84s0.105,0.604,0.105,0.914c0,0.598-0.108,1.131-0.325,1.6
		s-0.517,0.863-0.901,1.182c-0.384,0.32-0.836,0.562-1.358,0.73c-0.521,0.166-1.084,0.25-1.688,0.25
		c-0.557,0-1.087-0.076-1.591-0.229s-0.948-0.379-1.332-0.682c-0.384-0.301-0.69-0.676-0.918-1.125
		c-0.229-0.447-0.343-0.968-0.343-1.56h2.101c0,0.281,0.05,0.54,0.149,0.778c0.1,0.236,0.242,0.439,0.426,0.605
		c0.185,0.168,0.406,0.298,0.664,0.392s0.548,0.141,0.87,0.141c0.668,0,1.194-0.177,1.578-0.532
		c0.384-0.354,0.576-0.868,0.576-1.542c0-0.369-0.056-0.687-0.167-0.954c-0.111-0.266-0.271-0.485-0.479-0.658
		s-0.458-0.301-0.751-0.383s-0.624-0.123-0.993-0.123h-1.257V451.152z"/>
</g>
<g>
	<rect x="481.833" y="444" fill="none" width="90.667" height="32"/>
	<path d="M515.161,457.5h-2.057v-5.713h-4.351v5.713h-2.048v-12.797h2.048v5.353h4.351v-5.353h2.057V457.5z"/>
	<path d="M525.751,459.152h-8.068V457.5h8.068V459.152z"/>
	<path d="M535.455,452.956h1.608v1.696h-1.608v2.848h-2.101v-2.848h-5.555l-0.053-1.274l5.537-8.675h2.171V452.956z
		 M529.909,452.956h3.445v-5.449l-0.229,0.413L529.909,452.956z"/>
	<path d="M546.256,452.956h1.608v1.696h-1.608v2.848h-2.101v-2.848h-5.555l-0.053-1.274l5.537-8.675h2.171V452.956z M540.71,452.956
		h3.445v-5.449l-0.229,0.413L540.71,452.956z"/>
</g>
<g>
	<rect x="586.5" y="317.5" fill="none" width="85.5" height="32"/>
	<path d="M601.042,331h-2.057v-5.713h-4.351V331h-2.048v-12.797h2.048v5.353h4.351v-5.353h2.057V331z"/>
	<path d="M611.632,332.652h-8.068V331h8.068V332.652z"/>
	<path d="M621.335,326.456h1.608v1.696h-1.608V331h-2.101v-2.848h-5.555l-0.053-1.274l5.537-8.675h2.171V326.456z M615.79,326.456
		h3.445v-5.449l-0.229,0.413L615.79,326.456z"/>
	<path d="M632.137,326.456h1.608v1.696h-1.608V331h-2.101v-2.848h-5.555l-0.053-1.274l5.537-8.675h2.171V326.456z M626.591,326.456
		h3.445v-5.449l-0.229,0.413L626.591,326.456z"/>
	<path d="M644.038,332.652h-8.068V331h8.068V332.652z"/>
	<path d="M653.741,326.456h1.608v1.696h-1.608V331h-2.101v-2.848h-5.555l-0.053-1.274l5.537-8.675h2.171V326.456z M648.195,326.456
		h3.445v-5.449l-0.229,0.413L648.195,326.456z"/>
	<path d="M664.542,326.456h1.608v1.696h-1.608V331h-2.101v-2.848h-5.555l-0.053-1.274l5.537-8.675h2.171V326.456z M658.997,326.456
		h3.445v-5.449l-0.229,0.413L658.997,326.456z"/>
</g>
<g>
	<rect x="152.167" y="317.5" fill="none" width="108.667" height="32"/>
	<path d="M178.292,331h-2.057v-5.713h-4.351V331h-2.048v-12.797h2.048v5.353h4.351v-5.353h2.057V331z"/>
	<path d="M188.883,332.652h-8.068V331h8.068V332.652z"/>
	<path d="M199.878,326.131c0,0.826-0.095,1.555-0.286,2.184c-0.19,0.631-0.464,1.158-0.822,1.582
		c-0.357,0.426-0.794,0.746-1.31,0.963s-1.096,0.325-1.74,0.325c-0.639,0-1.216-0.108-1.731-0.325s-0.954-0.537-1.314-0.963
		c-0.36-0.424-0.639-0.951-0.835-1.582c-0.196-0.629-0.294-1.357-0.294-2.184v-3.059c0-0.826,0.097-1.554,0.29-2.184
		s0.47-1.157,0.831-1.582s0.797-0.746,1.31-0.963s1.088-0.325,1.727-0.325c0.645,0,1.225,0.108,1.74,0.325s0.954,0.538,1.314,0.963
		s0.637,0.952,0.831,1.582s0.29,1.357,0.29,2.184V326.131z M193.655,325.331l4.096-3.05c-0.047-0.873-0.239-1.519-0.576-1.938
		s-0.828-0.629-1.472-0.629c-0.686,0-1.198,0.243-1.538,0.729s-0.51,1.233-0.51,2.241V325.331z M197.769,323.934l-4.096,3.05
		c0.105,1.676,0.788,2.514,2.048,2.514c1.365,0,2.048-0.999,2.048-2.997V323.934z"/>
	<path d="M208.148,331h-2.118v-10.204l-3.27,1.195v-1.846l5.256-1.942h0.132V331z"/>
	<path d="M221.288,332.652h-8.068V331h8.068V332.652z"/>
	<path d="M232.222,331h-8.596v-1.45l4.166-4.544c0.352-0.393,0.646-0.739,0.883-1.041s0.426-0.579,0.567-0.831
		s0.24-0.486,0.299-0.703s0.088-0.437,0.088-0.659c0-0.293-0.045-0.563-0.136-0.812s-0.22-0.463-0.387-0.643
		c-0.167-0.178-0.369-0.317-0.606-0.417s-0.502-0.149-0.795-0.149c-0.762,0-1.323,0.208-1.683,0.624s-0.541,0.99-0.541,1.723h-2.109
		c0-0.557,0.101-1.082,0.303-1.577s0.492-0.928,0.87-1.297s0.836-0.66,1.375-0.875c0.539-0.213,1.146-0.32,1.819-0.32
		c0.633,0,1.195,0.091,1.688,0.272s0.908,0.435,1.248,0.761c0.34,0.324,0.598,0.71,0.773,1.155s0.264,0.935,0.264,1.468
		c0,0.398-0.064,0.784-0.193,1.156s-0.308,0.742-0.536,1.111s-0.501,0.74-0.817,1.111c-0.316,0.373-0.659,0.755-1.028,1.147
		l-2.9,3.111h5.985V331z"/>
	<path d="M237.056,323.652h1.257c0.369,0,0.691-0.049,0.967-0.145c0.275-0.098,0.504-0.233,0.686-0.409s0.318-0.385,0.409-0.628
		s0.136-0.512,0.136-0.805c0-0.621-0.163-1.1-0.488-1.438c-0.325-0.336-0.816-0.505-1.472-0.505c-0.287,0-0.552,0.043-0.795,0.128
		s-0.454,0.206-0.633,0.364s-0.318,0.349-0.417,0.571s-0.149,0.475-0.149,0.756h-2.101c0-0.504,0.101-0.97,0.303-1.397
		s0.483-0.798,0.844-1.112c0.36-0.312,0.79-0.559,1.288-0.738c0.498-0.178,1.043-0.268,1.635-0.268c0.604,0,1.157,0.078,1.661,0.232
		c0.504,0.156,0.935,0.386,1.292,0.69s0.636,0.685,0.835,1.138c0.199,0.455,0.299,0.98,0.299,1.578c0,0.252-0.038,0.51-0.114,0.773
		s-0.192,0.519-0.347,0.765s-0.352,0.477-0.589,0.69s-0.517,0.394-0.839,0.54c0.387,0.135,0.712,0.308,0.976,0.519
		s0.478,0.447,0.642,0.707c0.164,0.262,0.281,0.541,0.352,0.84s0.105,0.604,0.105,0.914c0,0.598-0.108,1.131-0.325,1.6
		s-0.517,0.863-0.901,1.182c-0.384,0.32-0.836,0.562-1.358,0.73c-0.521,0.166-1.084,0.25-1.688,0.25
		c-0.557,0-1.087-0.076-1.591-0.229s-0.948-0.379-1.332-0.682c-0.384-0.301-0.69-0.676-0.918-1.125
		c-0.229-0.447-0.343-0.968-0.343-1.56h2.101c0,0.281,0.05,0.54,0.149,0.778c0.1,0.236,0.242,0.439,0.426,0.605
		c0.185,0.168,0.406,0.298,0.664,0.392s0.548,0.141,0.87,0.141c0.668,0,1.194-0.177,1.578-0.532
		c0.384-0.354,0.576-0.868,0.576-1.542c0-0.369-0.056-0.687-0.167-0.954c-0.111-0.266-0.271-0.485-0.479-0.658
		s-0.458-0.301-0.751-0.383s-0.624-0.123-0.993-0.123h-1.257V323.652z"/>
</g>
<g>
	<rect x="106.167" y="697" fill="none" width="108.667" height="32"/>
	<path fill="#E15218" d="M131.991,705.592l0.863-7.928h1.859l-1.544,12.086h-1.909l-1.32-8.035l-1.303,8.035h-1.901l-1.544-12.086
		h1.859l0.863,7.886l1.237-7.886h1.561L131.991,705.592z"/>
	<path d="M144.791,699.308h-3.71v10.442h-1.984v-10.442h-3.686v-1.644h9.38V699.308z"/>
	<path d="M150.377,702.163l2.324-4.499h2.349l-3.445,5.993l3.528,6.093h-2.333l-2.391-4.574l-2.391,4.574h-2.357l3.528-6.093
		l-3.437-5.993h2.333L150.377,702.163z"/>
	<path d="M156.902,697.664h7.188v1.652h-2.615v8.79h2.615v1.644h-7.188v-1.644h2.557v-8.79h-2.557V697.664z"/>
	<path d="M166.738,709.75v-12.086h2.955c0.83,0.006,1.576,0.144,2.237,0.415c0.662,0.271,1.223,0.653,1.686,1.146
		c0.462,0.492,0.817,1.08,1.066,1.764s0.376,1.44,0.382,2.271v0.913c-0.005,0.83-0.133,1.587-0.382,2.271s-0.603,1.27-1.062,1.76
		c-0.459,0.489-1.016,0.87-1.668,1.142c-0.653,0.271-1.386,0.406-2.2,0.406H166.738z M168.764,699.274v8.874h0.988
		c0.548-0.006,1.026-0.104,1.436-0.295c0.41-0.191,0.751-0.46,1.025-0.806c0.274-0.346,0.479-0.762,0.614-1.249
		c0.136-0.487,0.207-1.029,0.212-1.627v-0.93c-0.005-0.581-0.076-1.112-0.212-1.594c-0.135-0.481-0.341-0.897-0.618-1.249
		s-0.624-0.626-1.042-0.822c-0.417-0.196-0.909-0.297-1.473-0.303H168.764z"/>
	<path d="M184.668,711.311h-7.62v-1.561h7.62V711.311z"/>
	<path d="M192.662,709.75h-2v-9.637l-3.088,1.129v-1.744l4.964-1.834h0.125V709.75z"/>
</g>
<g>
	<rect x="-0.333" y="697" fill="none" width="108.667" height="32"/>
	<path fill="#E15218" d="M20.39,705.592l0.863-7.928h1.859l-1.544,12.086H19.66l-1.32-8.035l-1.303,8.035h-1.901l-1.544-12.086
		h1.859l0.863,7.886l1.237-7.886h1.561L20.39,705.592z"/>
	<path d="M33.19,699.308h-3.71v10.442h-1.984v-10.442H23.81v-1.644h9.38V699.308z"/>
	<path d="M38.776,702.163l2.324-4.499h2.349l-3.445,5.993l3.528,6.093H41.2l-2.391-4.574l-2.391,4.574h-2.357l3.528-6.093
		l-3.437-5.993h2.333L38.776,702.163z"/>
	<path d="M45.301,697.664h7.188v1.652h-2.615v8.79h2.615v1.644h-7.188v-1.644h2.557v-8.79h-2.557V697.664z"/>
	<path d="M55.137,709.75v-12.086h2.955c0.83,0.006,1.576,0.144,2.237,0.415c0.662,0.271,1.223,0.653,1.686,1.146
		c0.462,0.492,0.817,1.08,1.066,1.764s0.376,1.44,0.382,2.271v0.913c-0.005,0.83-0.133,1.587-0.382,2.271s-0.603,1.27-1.062,1.76
		c-0.459,0.489-1.016,0.87-1.668,1.142c-0.653,0.271-1.386,0.406-2.2,0.406H55.137z M57.163,699.274v8.874h0.988
		c0.548-0.006,1.026-0.104,1.436-0.295c0.41-0.191,0.751-0.46,1.025-0.806c0.274-0.346,0.479-0.762,0.614-1.249
		c0.136-0.487,0.207-1.029,0.212-1.627v-0.93c-0.005-0.581-0.076-1.112-0.212-1.594c-0.135-0.481-0.341-0.897-0.618-1.249
		s-0.624-0.626-1.042-0.822c-0.417-0.196-0.909-0.297-1.473-0.303H57.163z"/>
	<path d="M73.067,711.311h-7.62v-1.561h7.62V711.311z"/>
	<path d="M83.8,706.039c-0.055,0.582-0.194,1.111-0.415,1.59s-0.515,0.889-0.88,1.229c-0.365,0.341-0.795,0.604-1.291,0.789
		c-0.495,0.186-1.047,0.277-1.656,0.277c-0.736,0-1.378-0.142-1.926-0.427s-1.004-0.671-1.37-1.158s-0.639-1.057-0.822-1.71
		s-0.277-1.351-0.282-2.092v-1.652c0.005-0.735,0.103-1.432,0.291-2.087c0.188-0.656,0.466-1.229,0.834-1.719
		c0.368-0.489,0.826-0.877,1.374-1.162s1.184-0.427,1.909-0.427c0.636,0,1.204,0.094,1.702,0.281
		c0.498,0.188,0.924,0.454,1.278,0.797c0.354,0.344,0.636,0.762,0.847,1.254s0.346,1.04,0.407,1.644h-1.992
		c-0.033-0.354-0.101-0.677-0.203-0.967c-0.103-0.291-0.242-0.54-0.419-0.747c-0.177-0.208-0.4-0.367-0.668-0.478
		c-0.268-0.11-0.585-0.166-0.95-0.166c-0.448,0-0.825,0.103-1.129,0.308c-0.304,0.204-0.551,0.479-0.739,0.825
		s-0.322,0.746-0.403,1.2c-0.08,0.453-0.12,0.93-0.12,1.428v1.668c0,0.521,0.04,1.009,0.12,1.465
		c0.081,0.457,0.212,0.856,0.395,1.199c0.183,0.344,0.426,0.615,0.73,0.814s0.684,0.299,1.137,0.299
		c0.697,0,1.229-0.198,1.594-0.594s0.581-0.956,0.647-1.682H83.8z"/>
	<path d="M85.833,709.75v-12.086h3.86c0.581,0.006,1.125,0.072,1.631,0.199c0.506,0.127,0.949,0.324,1.328,0.59
		c0.379,0.266,0.676,0.604,0.892,1.017s0.321,0.9,0.315,1.465c-0.005,0.598-0.171,1.108-0.498,1.531
		c-0.327,0.424-0.767,0.751-1.32,0.983c0.337,0.095,0.638,0.229,0.9,0.403c0.263,0.174,0.483,0.383,0.66,0.626
		c0.177,0.244,0.312,0.514,0.407,0.81s0.141,0.61,0.141,0.942c0,0.575-0.105,1.082-0.315,1.52c-0.21,0.437-0.502,0.802-0.876,1.096
		c-0.373,0.293-0.816,0.516-1.328,0.668c-0.512,0.152-1.063,0.23-1.656,0.236H85.833z M87.834,702.752h1.909
		c0.299-0.005,0.577-0.045,0.834-0.12c0.257-0.074,0.48-0.186,0.668-0.332s0.337-0.326,0.448-0.539s0.166-0.458,0.166-0.735
		c0-0.304-0.053-0.564-0.158-0.779c-0.105-0.217-0.253-0.394-0.444-0.531c-0.191-0.139-0.417-0.24-0.677-0.304
		s-0.545-0.098-0.855-0.104h-1.893V702.752z M87.834,704.271v3.852h2.175c0.315-0.006,0.603-0.054,0.863-0.146
		c0.26-0.091,0.484-0.217,0.672-0.378c0.188-0.16,0.336-0.356,0.444-0.589c0.107-0.232,0.162-0.492,0.162-0.78
		c0-0.305-0.047-0.577-0.141-0.817c-0.094-0.241-0.229-0.444-0.407-0.61s-0.393-0.295-0.647-0.386
		c-0.254-0.092-0.54-0.14-0.855-0.146H87.834z"/>
</g>
<g>
	<rect x="211.167" y="697" fill="none" width="108.667" height="32"/>
	<path fill="#E15218" d="M236.991,705.592l0.863-7.928h1.859l-1.544,12.086h-1.909l-1.32-8.035l-1.303,8.035h-1.901l-1.544-12.086
		h1.859l0.863,7.886l1.237-7.886h1.561L236.991,705.592z"/>
	<path d="M249.791,699.308h-3.71v10.442h-1.984v-10.442h-3.686v-1.644h9.38V699.308z"/>
	<path d="M255.377,702.163l2.324-4.499h2.349l-3.445,5.993l3.528,6.093h-2.333l-2.391-4.574l-2.391,4.574h-2.357l3.528-6.093
		l-3.437-5.993h2.333L255.377,702.163z"/>
	<path d="M261.902,697.664h7.188v1.652h-2.615v8.79h2.615v1.644h-7.188v-1.644h2.557v-8.79h-2.557V697.664z"/>
	<path d="M271.738,709.75v-12.086h2.955c0.83,0.006,1.576,0.144,2.237,0.415c0.662,0.271,1.223,0.653,1.686,1.146
		c0.462,0.492,0.817,1.08,1.066,1.764s0.376,1.44,0.382,2.271v0.913c-0.005,0.83-0.133,1.587-0.382,2.271s-0.603,1.27-1.062,1.76
		c-0.459,0.489-1.016,0.87-1.668,1.142c-0.653,0.271-1.386,0.406-2.2,0.406H271.738z M273.764,699.274v8.874h0.988
		c0.548-0.006,1.026-0.104,1.436-0.295c0.41-0.191,0.751-0.46,1.025-0.806c0.274-0.346,0.479-0.762,0.614-1.249
		c0.136-0.487,0.207-1.029,0.212-1.627v-0.93c-0.005-0.581-0.076-1.112-0.212-1.594c-0.135-0.481-0.341-0.897-0.618-1.249
		s-0.624-0.626-1.042-0.822c-0.417-0.196-0.909-0.297-1.473-0.303H273.764z"/>
	<path d="M289.668,711.311h-7.62v-1.561h7.62V711.311z"/>
	<path d="M299.994,709.75h-8.118v-1.369l3.935-4.292c0.332-0.371,0.61-0.698,0.834-0.983c0.224-0.285,0.402-0.547,0.535-0.785
		c0.133-0.237,0.227-0.459,0.282-0.664c0.055-0.204,0.083-0.412,0.083-0.622c0-0.276-0.043-0.532-0.129-0.768
		c-0.085-0.235-0.207-0.438-0.365-0.606c-0.157-0.169-0.349-0.3-0.572-0.395c-0.225-0.094-0.475-0.141-0.751-0.141
		c-0.719,0-1.25,0.196-1.589,0.59c-0.341,0.393-0.511,0.935-0.511,1.627h-1.992c0-0.526,0.096-1.022,0.286-1.49
		c0.191-0.468,0.465-0.876,0.822-1.225c0.356-0.349,0.79-0.624,1.299-0.826s1.082-0.303,1.718-0.303
		c0.598,0,1.129,0.086,1.594,0.258c0.465,0.171,0.858,0.41,1.179,0.718c0.321,0.307,0.564,0.671,0.73,1.091
		c0.166,0.421,0.249,0.883,0.249,1.387c0,0.376-0.061,0.74-0.183,1.092s-0.291,0.701-0.506,1.05s-0.473,0.698-0.772,1.05
		s-0.623,0.713-0.971,1.084l-2.739,2.938h5.653V709.75z"/>
</g>
<g>
	<rect x="317.167" y="697" fill="none" width="108.667" height="32"/>
	<path fill="#E15218" d="M342.991,705.592l0.863-7.928h1.859l-1.544,12.086h-1.909l-1.32-8.035l-1.303,8.035h-1.901l-1.544-12.086
		h1.859l0.863,7.886l1.237-7.886h1.561L342.991,705.592z"/>
	<path d="M355.791,699.308h-3.71v10.442h-1.984v-10.442h-3.686v-1.644h9.38V699.308z"/>
	<path d="M361.377,702.163l2.324-4.499h2.349l-3.445,5.993l3.528,6.093h-2.333l-2.391-4.574l-2.391,4.574h-2.357l3.528-6.093
		l-3.437-5.993h2.333L361.377,702.163z"/>
	<path d="M367.902,697.664h7.188v1.652h-2.615v8.79h2.615v1.644h-7.188v-1.644h2.557v-8.79h-2.557V697.664z"/>
	<path d="M377.738,709.75v-12.086h2.955c0.83,0.006,1.576,0.144,2.237,0.415c0.662,0.271,1.223,0.653,1.686,1.146
		c0.462,0.492,0.817,1.08,1.066,1.764s0.376,1.44,0.382,2.271v0.913c-0.005,0.83-0.133,1.587-0.382,2.271s-0.603,1.27-1.062,1.76
		c-0.459,0.489-1.016,0.87-1.668,1.142c-0.653,0.271-1.386,0.406-2.2,0.406H377.738z M379.764,699.274v8.874h0.988
		c0.548-0.006,1.026-0.104,1.436-0.295c0.41-0.191,0.751-0.46,1.025-0.806c0.274-0.346,0.479-0.762,0.614-1.249
		c0.136-0.487,0.207-1.029,0.212-1.627v-0.93c-0.005-0.581-0.076-1.112-0.212-1.594c-0.135-0.481-0.341-0.897-0.618-1.249
		s-0.624-0.626-1.042-0.822c-0.417-0.196-0.909-0.297-1.473-0.303H379.764z"/>
	<path d="M395.668,711.311h-7.62v-1.561h7.62V711.311z"/>
	<path d="M400.358,702.811h1.187c0.349,0,0.653-0.046,0.913-0.137c0.26-0.092,0.476-0.221,0.647-0.387s0.3-0.363,0.386-0.593
		c0.085-0.229,0.128-0.483,0.128-0.76c0-0.587-0.154-1.039-0.46-1.357c-0.308-0.318-0.771-0.478-1.391-0.478
		c-0.271,0-0.521,0.041-0.751,0.121c-0.23,0.08-0.429,0.195-0.598,0.344c-0.169,0.15-0.3,0.33-0.395,0.54s-0.141,0.448-0.141,0.714
		h-1.984c0-0.476,0.096-0.916,0.286-1.32c0.191-0.403,0.457-0.754,0.797-1.05c0.341-0.296,0.746-0.528,1.216-0.697
		s0.985-0.253,1.544-0.253c0.57,0,1.093,0.073,1.569,0.22s0.883,0.364,1.22,0.651c0.337,0.288,0.601,0.646,0.789,1.075
		s0.282,0.926,0.282,1.49c0,0.238-0.036,0.481-0.108,0.73s-0.181,0.489-0.328,0.722c-0.147,0.232-0.332,0.45-0.557,0.652
		c-0.224,0.202-0.488,0.372-0.792,0.51c0.365,0.128,0.672,0.291,0.921,0.49s0.451,0.422,0.606,0.668s0.266,0.511,0.332,0.793
		s0.1,0.57,0.1,0.863c0,0.564-0.103,1.068-0.307,1.511s-0.488,0.814-0.851,1.116c-0.363,0.302-0.79,0.531-1.283,0.689
		c-0.493,0.157-1.024,0.236-1.594,0.236c-0.526,0-1.026-0.072-1.502-0.216s-0.895-0.358-1.258-0.644
		c-0.362-0.285-0.651-0.639-0.867-1.062c-0.216-0.423-0.324-0.914-0.324-1.473h1.984c0,0.266,0.047,0.51,0.141,0.734
		c0.094,0.224,0.228,0.415,0.403,0.572c0.174,0.158,0.383,0.281,0.626,0.369c0.244,0.089,0.518,0.133,0.822,0.133
		c0.631,0,1.127-0.167,1.49-0.502c0.362-0.335,0.543-0.82,0.543-1.457c0-0.348-0.053-0.648-0.158-0.9s-0.256-0.459-0.452-0.622
		c-0.197-0.163-0.433-0.284-0.71-0.361s-0.589-0.116-0.938-0.116h-1.187V702.811z"/>
</g>
<g>
	<rect x="422.167" y="697" fill="none" width="108.667" height="32"/>
	<path fill="#E15218" d="M447.991,705.592l0.863-7.928h1.859l-1.544,12.086h-1.909l-1.32-8.035l-1.303,8.035h-1.901l-1.544-12.086
		h1.859l0.863,7.886l1.237-7.886h1.561L447.991,705.592z"/>
	<path d="M460.791,699.308h-3.71v10.442h-1.984v-10.442h-3.686v-1.644h9.38V699.308z"/>
	<path d="M466.377,702.163l2.324-4.499h2.349l-3.445,5.993l3.528,6.093h-2.333l-2.391-4.574l-2.391,4.574h-2.357l3.528-6.093
		l-3.437-5.993h2.333L466.377,702.163z"/>
	<path d="M472.902,697.664h7.188v1.652h-2.615v8.79h2.615v1.644h-7.188v-1.644h2.557v-8.79h-2.557V697.664z"/>
	<path d="M482.738,709.75v-12.086h2.955c0.83,0.006,1.576,0.144,2.237,0.415c0.662,0.271,1.223,0.653,1.686,1.146
		c0.462,0.492,0.817,1.08,1.066,1.764s0.376,1.44,0.382,2.271v0.913c-0.005,0.83-0.133,1.587-0.382,2.271s-0.603,1.27-1.062,1.76
		c-0.459,0.489-1.016,0.87-1.668,1.142c-0.653,0.271-1.386,0.406-2.2,0.406H482.738z M484.764,699.274v8.874h0.988
		c0.548-0.006,1.026-0.104,1.436-0.295c0.41-0.191,0.751-0.46,1.025-0.806c0.274-0.346,0.479-0.762,0.614-1.249
		c0.136-0.487,0.207-1.029,0.212-1.627v-0.93c-0.005-0.581-0.076-1.112-0.212-1.594c-0.135-0.481-0.341-0.897-0.618-1.249
		s-0.624-0.626-1.042-0.822c-0.417-0.196-0.909-0.297-1.473-0.303H484.764z"/>
	<path d="M500.668,711.311h-7.62v-1.561h7.62V711.311z"/>
	<path d="M509.832,705.459h1.519v1.602h-1.519v2.689h-1.984v-2.689h-5.246l-0.05-1.203l5.229-8.193h2.05V705.459z M504.594,705.459
		h3.254v-5.146l-0.216,0.39L504.594,705.459z"/>
</g>
<g>
	<rect x="252.191" y="189.5" fill="none" width="337.828" height="32"/>
	<path fill="#E15218" d="M315.553,199.607l1.016-9.326h2.188L316.94,204.5h-2.246l-1.553-9.453l-1.533,9.453h-2.236l-1.816-14.219
		h2.188l1.016,9.277l1.455-9.277h1.836L315.553,199.607z"/>
	<path fill="#E15218" d="M321.11,193.934h5.635v8.633h3.135v1.934h-8.77v-1.934h3.281v-6.689h-3.281V193.934z M324.196,191.199
		c0-0.364,0.117-0.666,0.352-0.903s0.563-0.356,0.986-0.356c0.43,0,0.763,0.119,1.001,0.356s0.356,0.539,0.356,0.903
		s-0.119,0.666-0.356,0.903s-0.571,0.356-1.001,0.356c-0.423,0-0.752-0.119-0.986-0.356S324.196,191.563,324.196,191.199z"/>
	<path fill="#E15218" d="M337.282,191.375v2.559h3.994v1.738h-3.994v5.068c0,0.397,0.047,0.726,0.142,0.986s0.226,0.469,0.396,0.625
		s0.368,0.266,0.596,0.327s0.479,0.093,0.752,0.093c0.202,0,0.412-0.012,0.63-0.034s0.43-0.049,0.635-0.078s0.394-0.062,0.566-0.098
		s0.317-0.07,0.435-0.103l0.264,1.611c-0.169,0.098-0.373,0.188-0.61,0.269s-0.497,0.148-0.776,0.2s-0.571,0.093-0.874,0.122
		s-0.601,0.044-0.894,0.044c-0.527,0-1.011-0.073-1.45-0.22s-0.817-0.374-1.133-0.684s-0.563-0.706-0.742-1.191
		s-0.269-1.066-0.269-1.743v-5.195h-2.578v-1.738h2.578v-2.559H337.282z"/>
	<path fill="#E15218" d="M346.715,193.934l0.146,1.465c0.384-0.527,0.848-0.936,1.392-1.226s1.147-0.435,1.812-0.435
		c0.541,0,1.034,0.078,1.479,0.234s0.83,0.4,1.152,0.732s0.573,0.762,0.752,1.289s0.269,1.162,0.269,1.904v6.602h-2.334v-6.562
		c0-0.437-0.05-0.801-0.151-1.094s-0.244-0.527-0.43-0.703s-0.412-0.301-0.679-0.376s-0.57-0.112-0.908-0.112
		c-0.514,0-0.962,0.114-1.343,0.342s-0.688,0.537-0.923,0.928v7.578h-2.344v-10.566H346.715z"/>
	<path fill="#E15218" d="M361.53,204.695c-0.781,0-1.494-0.13-2.139-0.391s-1.196-0.618-1.655-1.074s-0.815-0.994-1.069-1.616
		s-0.381-1.294-0.381-2.017v-0.4c0-0.84,0.135-1.595,0.405-2.266s0.631-1.243,1.084-1.719s0.98-0.84,1.582-1.094
		s1.235-0.381,1.899-0.381c0.768,0,1.445,0.129,2.031,0.386s1.076,0.618,1.47,1.084s0.692,1.018,0.894,1.655s0.303,1.338,0.303,2.1
		v0.986h-7.324c0.039,0.41,0.14,0.791,0.303,1.143s0.376,0.656,0.64,0.913s0.573,0.459,0.928,0.605s0.744,0.22,1.167,0.22
		c0.592,0,1.138-0.117,1.636-0.352s0.903-0.557,1.216-0.967l1.27,1.191c-0.169,0.254-0.387,0.5-0.654,0.737s-0.58,0.449-0.938,0.635
		s-0.76,0.335-1.206,0.449S362.057,204.695,361.53,204.695z M361.247,195.623c-0.326,0-0.628,0.059-0.908,0.176
		s-0.531,0.288-0.752,0.513s-0.409,0.498-0.562,0.82s-0.262,0.688-0.327,1.099h4.951v-0.176c-0.02-0.312-0.08-0.613-0.181-0.903
		s-0.249-0.549-0.444-0.776s-0.441-0.41-0.737-0.547S361.644,195.623,361.247,195.623z"/>
	<path fill="#E15218" d="M375.495,201.639c0-0.176-0.036-0.337-0.107-0.483s-0.2-0.28-0.386-0.4s-0.439-0.232-0.762-0.337
		s-0.734-0.205-1.235-0.303c-0.625-0.13-1.19-0.286-1.694-0.469s-0.938-0.4-1.299-0.654s-0.64-0.549-0.835-0.884
		s-0.293-0.725-0.293-1.167c0-0.43,0.101-0.838,0.303-1.226s0.49-0.728,0.864-1.021s0.83-0.525,1.367-0.698s1.138-0.259,1.802-0.259
		c0.703,0,1.333,0.088,1.89,0.264s1.027,0.415,1.411,0.718s0.679,0.659,0.884,1.069s0.308,0.85,0.308,1.318h-2.334
		c0-0.208-0.045-0.408-0.137-0.601s-0.228-0.363-0.41-0.513s-0.409-0.269-0.679-0.356s-0.581-0.132-0.933-0.132
		s-0.656,0.037-0.913,0.112s-0.47,0.173-0.64,0.293s-0.294,0.262-0.376,0.425s-0.122,0.332-0.122,0.508s0.031,0.335,0.093,0.479
		s0.177,0.273,0.347,0.391s0.404,0.223,0.703,0.317s0.687,0.184,1.162,0.269c0.664,0.117,1.261,0.264,1.792,0.439
		s0.983,0.391,1.357,0.645s0.663,0.555,0.864,0.903s0.303,0.757,0.303,1.226s-0.107,0.898-0.322,1.289s-0.521,0.728-0.918,1.011
		s-0.874,0.503-1.431,0.659s-1.18,0.234-1.87,0.234c-0.768,0-1.445-0.103-2.031-0.308s-1.078-0.474-1.475-0.806
		s-0.698-0.71-0.903-1.133s-0.308-0.853-0.308-1.289h2.266c0.02,0.325,0.104,0.603,0.254,0.83s0.342,0.412,0.576,0.552
		s0.495,0.241,0.781,0.303s0.576,0.093,0.869,0.093c0.723,0,1.273-0.122,1.65-0.366S375.495,202.022,375.495,201.639z"/>
	<path fill="#E15218" d="M387.497,201.639c0-0.176-0.036-0.337-0.107-0.483s-0.2-0.28-0.386-0.4s-0.439-0.232-0.762-0.337
		s-0.734-0.205-1.235-0.303c-0.625-0.13-1.19-0.286-1.694-0.469s-0.938-0.4-1.299-0.654s-0.64-0.549-0.835-0.884
		s-0.293-0.725-0.293-1.167c0-0.43,0.101-0.838,0.303-1.226s0.49-0.728,0.864-1.021s0.83-0.525,1.367-0.698s1.138-0.259,1.802-0.259
		c0.703,0,1.333,0.088,1.89,0.264s1.027,0.415,1.411,0.718s0.679,0.659,0.884,1.069s0.308,0.85,0.308,1.318h-2.334
		c0-0.208-0.045-0.408-0.137-0.601s-0.228-0.363-0.41-0.513s-0.409-0.269-0.679-0.356s-0.581-0.132-0.933-0.132
		s-0.656,0.037-0.913,0.112s-0.47,0.173-0.64,0.293s-0.294,0.262-0.376,0.425s-0.122,0.332-0.122,0.508s0.031,0.335,0.093,0.479
		s0.177,0.273,0.347,0.391s0.404,0.223,0.703,0.317s0.687,0.184,1.162,0.269c0.664,0.117,1.261,0.264,1.792,0.439
		s0.983,0.391,1.357,0.645s0.663,0.555,0.864,0.903s0.303,0.757,0.303,1.226s-0.107,0.898-0.322,1.289s-0.521,0.728-0.918,1.011
		s-0.874,0.503-1.431,0.659s-1.18,0.234-1.87,0.234c-0.768,0-1.445-0.103-2.031-0.308s-1.078-0.474-1.475-0.806
		s-0.698-0.71-0.903-1.133s-0.308-0.853-0.308-1.289h2.266c0.02,0.325,0.104,0.603,0.254,0.83s0.342,0.412,0.576,0.552
		s0.495,0.241,0.781,0.303s0.576,0.093,0.869,0.093c0.723,0,1.273-0.122,1.65-0.366S387.497,202.022,387.497,201.639z"/>
	<path d="M395.504,205.721h-2.129L399,190.281h2.129L395.504,205.721z"/>
	<path d="M407.331,190.281l1.768,6.143l1.953-6.143h2.91V204.5h-2.207v-4.883l0.137-6.23l-2.188,6.816h-1.23l-1.982-6.582
		l0.137,5.996v4.883h-2.207v-14.219H407.331z"/>
	<path d="M421.54,204.695c-0.781,0-1.494-0.13-2.139-0.391s-1.196-0.618-1.655-1.074s-0.815-0.994-1.069-1.616
		s-0.381-1.294-0.381-2.017v-0.4c0-0.84,0.135-1.595,0.405-2.266s0.631-1.243,1.084-1.719s0.98-0.84,1.582-1.094
		s1.235-0.381,1.899-0.381c0.768,0,1.445,0.129,2.031,0.386s1.076,0.618,1.47,1.084s0.692,1.018,0.894,1.655s0.303,1.338,0.303,2.1
		v0.986h-7.324c0.039,0.41,0.14,0.791,0.303,1.143s0.376,0.656,0.64,0.913s0.573,0.459,0.928,0.605s0.744,0.22,1.167,0.22
		c0.592,0,1.138-0.117,1.636-0.352s0.903-0.557,1.216-0.967l1.27,1.191c-0.169,0.254-0.387,0.5-0.654,0.737s-0.58,0.449-0.938,0.635
		s-0.76,0.335-1.206,0.449S422.067,204.695,421.54,204.695z M421.256,195.623c-0.326,0-0.628,0.059-0.908,0.176
		s-0.531,0.288-0.752,0.513s-0.409,0.498-0.562,0.82s-0.262,0.688-0.327,1.099h4.951v-0.176c-0.02-0.312-0.08-0.613-0.181-0.903
		s-0.249-0.549-0.444-0.776s-0.441-0.41-0.737-0.547S421.653,195.623,421.256,195.623z"/>
	<path d="M435.875,193.738c0.189,0,0.377,0.007,0.566,0.02s0.37,0.032,0.542,0.059s0.331,0.054,0.474,0.083s0.264,0.063,0.361,0.103
		l-0.332,2.295c-0.716-0.163-1.422-0.244-2.119-0.244c-0.781,0-1.411,0.163-1.89,0.488s-0.832,0.778-1.06,1.357v6.602h-2.334
		v-10.566h2.188l0.107,1.65c0.43-0.573,0.939-1.023,1.528-1.353S435.153,193.738,435.875,193.738z"/>
	<path d="M444.235,199.881l-1.27,1.211v3.408h-2.334v-15h2.334v8.838l0.986-1.104l3.105-3.301h2.812l-4.082,4.395l4.707,6.172h-2.91
		L444.235,199.881z"/>
	<path d="M453.053,189.5h5.713v13.066h3.223v1.934h-8.936v-1.934h3.359v-11.123h-3.359V189.5z"/>
	<path d="M469.547,204.695c-0.781,0-1.494-0.13-2.139-0.391s-1.196-0.618-1.655-1.074s-0.815-0.994-1.069-1.616
		s-0.381-1.294-0.381-2.017v-0.4c0-0.84,0.135-1.595,0.405-2.266s0.631-1.243,1.084-1.719s0.98-0.84,1.582-1.094
		s1.235-0.381,1.899-0.381c0.768,0,1.445,0.129,2.031,0.386s1.076,0.618,1.47,1.084s0.692,1.018,0.894,1.655s0.303,1.338,0.303,2.1
		v0.986h-7.324c0.039,0.41,0.14,0.791,0.303,1.143s0.376,0.656,0.64,0.913s0.573,0.459,0.928,0.605s0.744,0.22,1.167,0.22
		c0.592,0,1.138-0.117,1.636-0.352s0.903-0.557,1.216-0.967l1.27,1.191c-0.169,0.254-0.387,0.5-0.654,0.737s-0.58,0.449-0.938,0.635
		s-0.76,0.335-1.206,0.449S470.075,204.695,469.547,204.695z M469.264,195.623c-0.326,0-0.628,0.059-0.908,0.176
		s-0.531,0.288-0.752,0.513s-0.409,0.498-0.562,0.82s-0.262,0.688-0.327,1.099h4.951v-0.176c-0.02-0.312-0.08-0.613-0.181-0.903
		s-0.249-0.549-0.444-0.776s-0.441-0.41-0.737-0.547S469.661,195.623,469.264,195.623z"/>
	<path d="M493.336,198.953h-2.383v5.547h-2.344v-14.219h4.492c0.729,0.007,1.401,0.1,2.017,0.278s1.147,0.446,1.597,0.801
		s0.797,0.799,1.045,1.333s0.371,1.159,0.371,1.875c0,0.481-0.063,0.92-0.19,1.313s-0.304,0.75-0.532,1.069s-0.501,0.599-0.82,0.84
		s-0.67,0.446-1.055,0.615l3.008,5.977v0.117h-2.5L493.336,198.953z M490.954,197.059h2.158c0.391,0,0.749-0.056,1.074-0.166
		s0.607-0.269,0.845-0.474s0.421-0.456,0.552-0.752s0.195-0.637,0.195-1.021c0-0.397-0.062-0.749-0.186-1.055
		s-0.301-0.563-0.532-0.771s-0.513-0.366-0.845-0.474s-0.703-0.164-1.113-0.171h-2.148V197.059z"/>
	<path d="M500.202,199.119c0-0.762,0.112-1.472,0.337-2.129s0.547-1.228,0.967-1.709s0.933-0.859,1.538-1.133s1.292-0.41,2.061-0.41
		c0.775,0,1.466,0.137,2.075,0.41s1.123,0.651,1.543,1.133s0.741,1.052,0.962,1.709s0.332,1.367,0.332,2.129v0.205
		c0,0.769-0.111,1.481-0.332,2.139s-0.542,1.226-0.962,1.704s-0.933,0.854-1.538,1.128s-1.292,0.41-2.061,0.41
		c-0.775,0-1.466-0.137-2.075-0.41s-1.123-0.649-1.543-1.128s-0.742-1.047-0.967-1.704s-0.337-1.37-0.337-2.139V199.119z
		 M502.536,199.324c0,0.481,0.05,0.935,0.151,1.357s0.257,0.796,0.469,1.118s0.48,0.576,0.806,0.762s0.713,0.278,1.162,0.278
		c0.436,0,0.815-0.093,1.138-0.278s0.589-0.439,0.801-0.762s0.368-0.695,0.469-1.118s0.151-0.876,0.151-1.357v-0.205
		c0-0.469-0.05-0.915-0.151-1.338s-0.257-0.794-0.469-1.113s-0.479-0.573-0.801-0.762s-0.708-0.283-1.157-0.283
		c-0.443,0-0.827,0.095-1.152,0.283s-0.592,0.442-0.801,0.762s-0.363,0.69-0.464,1.113s-0.151,0.869-0.151,1.338V199.324z"/>
	<path d="M512.204,199.119c0-0.762,0.112-1.472,0.337-2.129s0.547-1.228,0.967-1.709s0.933-0.859,1.538-1.133s1.292-0.41,2.061-0.41
		c0.775,0,1.466,0.137,2.075,0.41s1.123,0.651,1.543,1.133s0.741,1.052,0.962,1.709s0.332,1.367,0.332,2.129v0.205
		c0,0.769-0.111,1.481-0.332,2.139s-0.542,1.226-0.962,1.704s-0.933,0.854-1.538,1.128s-1.292,0.41-2.061,0.41
		c-0.775,0-1.466-0.137-2.075-0.41s-1.123-0.649-1.543-1.128s-0.742-1.047-0.967-1.704s-0.337-1.37-0.337-2.139V199.119z
		 M514.538,199.324c0,0.481,0.05,0.935,0.151,1.357s0.257,0.796,0.469,1.118s0.48,0.576,0.806,0.762s0.713,0.278,1.162,0.278
		c0.436,0,0.815-0.093,1.138-0.278s0.589-0.439,0.801-0.762s0.368-0.695,0.469-1.118s0.151-0.876,0.151-1.357v-0.205
		c0-0.469-0.05-0.915-0.151-1.338s-0.257-0.794-0.469-1.113s-0.479-0.573-0.801-0.762s-0.708-0.283-1.157-0.283
		c-0.443,0-0.827,0.095-1.152,0.283s-0.592,0.442-0.801,0.762s-0.363,0.69-0.464,1.113s-0.151,0.869-0.151,1.338V199.324z"/>
	<path d="M529.313,191.375v2.559h3.994v1.738h-3.994v5.068c0,0.397,0.047,0.726,0.142,0.986s0.226,0.469,0.396,0.625
		s0.368,0.266,0.596,0.327s0.479,0.093,0.752,0.093c0.202,0,0.412-0.012,0.63-0.034s0.43-0.049,0.635-0.078s0.394-0.062,0.566-0.098
		s0.317-0.07,0.435-0.103l0.264,1.611c-0.169,0.098-0.373,0.188-0.61,0.269s-0.497,0.148-0.776,0.2s-0.571,0.093-0.874,0.122
		s-0.601,0.044-0.894,0.044c-0.527,0-1.011-0.073-1.45-0.22s-0.817-0.374-1.133-0.684s-0.563-0.706-0.742-1.191
		s-0.269-1.066-0.269-1.743v-5.195h-2.578v-1.738h2.578v-2.559H529.313z"/>
</g>
<g>
	<rect x="689.166" y="444" fill="none" width="90.668" height="32"/>
	<path d="M722.494,457.5h-2.057v-5.713h-4.351v5.713h-2.048v-12.797h2.048v5.353h4.351v-5.353h2.057V457.5z"/>
	<path d="M733.085,459.152h-8.068V457.5h8.068V459.152z"/>
	<path d="M742.788,452.956h1.608v1.696h-1.608v2.848h-2.101v-2.848h-5.555l-0.053-1.274l5.537-8.675h2.171V452.956z
		 M737.242,452.956h3.445v-5.449l-0.229,0.413L737.242,452.956z"/>
	<path d="M753.59,452.956h1.608v1.696h-1.608v2.848h-2.101v-2.848h-5.555l-0.053-1.274l5.537-8.675h2.171V452.956z M748.044,452.956
		h3.445v-5.449l-0.229,0.413L748.044,452.956z"/>
</g>
<g>
	<rect x="129.833" y="570.5" fill="none" width="57.333" height="32"/>
	<path d="M151.895,584h-2.057v-5.713h-4.351V584h-2.048v-12.797h2.048v5.353h4.351v-5.353h2.057V584z"/>
	<path d="M162.486,585.652h-8.068V584h8.068V585.652z"/>
	<path d="M170.95,584h-2.118v-10.204l-3.27,1.195v-1.846l5.256-1.942h0.132V584z"/>
</g>
<g>
	<rect x="235.333" y="570.5" fill="none" width="57.333" height="32"/>
	<path d="M257.395,584h-2.057v-5.713h-4.351V584h-2.048v-12.797h2.048v5.353h4.351v-5.353h2.057V584z"/>
	<path d="M267.986,585.652h-8.068V584h8.068V585.652z"/>
	<path d="M278.919,584h-8.596v-1.45l4.166-4.544c0.352-0.393,0.646-0.739,0.883-1.041s0.426-0.579,0.567-0.831
		s0.24-0.486,0.299-0.703s0.088-0.437,0.088-0.659c0-0.293-0.045-0.563-0.136-0.812s-0.22-0.463-0.387-0.643
		c-0.167-0.178-0.369-0.317-0.606-0.417s-0.502-0.149-0.795-0.149c-0.762,0-1.323,0.208-1.683,0.624s-0.541,0.99-0.541,1.723h-2.109
		c0-0.557,0.101-1.082,0.303-1.577s0.492-0.928,0.87-1.297s0.836-0.66,1.375-0.875c0.539-0.213,1.146-0.32,1.819-0.32
		c0.633,0,1.195,0.091,1.688,0.272s0.908,0.435,1.248,0.761c0.34,0.324,0.598,0.71,0.773,1.155s0.264,0.935,0.264,1.468
		c0,0.398-0.064,0.784-0.193,1.156s-0.308,0.742-0.536,1.111s-0.501,0.74-0.817,1.111c-0.316,0.373-0.659,0.755-1.028,1.147
		l-2.9,3.111h5.985V584z"/>
</g>
<g>
	<rect x="340.833" y="570.5" fill="none" width="57.333" height="32"/>
	<path d="M362.895,584h-2.057v-5.713h-4.351V584h-2.048v-12.797h2.048v5.353h4.351v-5.353h2.057V584z"/>
	<path d="M373.486,585.652h-8.068V584h8.068V585.652z"/>
	<path d="M378.452,576.652h1.257c0.369,0,0.691-0.049,0.967-0.145c0.275-0.098,0.504-0.233,0.686-0.409s0.318-0.385,0.409-0.628
		s0.136-0.512,0.136-0.805c0-0.621-0.163-1.1-0.488-1.438c-0.325-0.336-0.816-0.505-1.472-0.505c-0.287,0-0.552,0.043-0.795,0.128
		s-0.454,0.206-0.633,0.364s-0.318,0.349-0.417,0.571s-0.149,0.475-0.149,0.756h-2.101c0-0.504,0.101-0.97,0.303-1.397
		s0.483-0.798,0.844-1.112c0.36-0.312,0.79-0.559,1.288-0.738c0.498-0.178,1.043-0.268,1.635-0.268c0.604,0,1.157,0.078,1.661,0.232
		c0.504,0.156,0.935,0.386,1.292,0.69s0.636,0.685,0.835,1.138c0.199,0.455,0.299,0.98,0.299,1.578c0,0.252-0.038,0.51-0.114,0.773
		s-0.192,0.519-0.347,0.765s-0.352,0.477-0.589,0.69s-0.517,0.394-0.839,0.54c0.387,0.135,0.712,0.308,0.976,0.519
		s0.478,0.447,0.642,0.707c0.164,0.262,0.281,0.541,0.352,0.84s0.105,0.604,0.105,0.914c0,0.598-0.108,1.131-0.325,1.6
		s-0.517,0.863-0.901,1.182c-0.384,0.32-0.836,0.562-1.358,0.73c-0.521,0.166-1.084,0.25-1.688,0.25
		c-0.557,0-1.087-0.076-1.591-0.229s-0.948-0.379-1.332-0.682c-0.384-0.301-0.69-0.676-0.918-1.125
		c-0.229-0.447-0.343-0.968-0.343-1.56h2.101c0,0.281,0.05,0.54,0.149,0.778c0.1,0.236,0.242,0.439,0.426,0.605
		c0.185,0.168,0.406,0.298,0.664,0.392s0.548,0.141,0.87,0.141c0.668,0,1.194-0.177,1.578-0.532
		c0.384-0.354,0.576-0.868,0.576-1.542c0-0.369-0.056-0.687-0.167-0.954c-0.111-0.266-0.271-0.485-0.479-0.658
		s-0.458-0.301-0.751-0.383s-0.624-0.123-0.993-0.123h-1.257V576.652z"/>
</g>
<g>
	<rect x="446.333" y="570.5" fill="none" width="57.333" height="32"/>
	<path d="M468.395,584h-2.057v-5.713h-4.351V584h-2.048v-12.797h2.048v5.353h4.351v-5.353h2.057V584z"/>
	<path d="M478.986,585.652h-8.068V584h8.068V585.652z"/>
	<path d="M488.689,579.456h1.608v1.696h-1.608V584h-2.101v-2.848h-5.555l-0.053-1.274l5.537-8.675h2.171V579.456z M483.143,579.456
		h3.445v-5.449l-0.229,0.413L483.143,579.456z"/>
</g>
<g>
	<rect x="551.833" y="570.5" fill="none" width="57.333" height="32"/>
	<path d="M573.895,584h-2.057v-5.713h-4.351V584h-2.048v-12.797h2.048v5.353h4.351v-5.353h2.057V584z"/>
	<path d="M584.486,585.652h-8.068V584h8.068V585.652z"/>
	<path d="M594.189,579.456h1.608v1.696h-1.608V584h-2.101v-2.848h-5.555l-0.053-1.274l5.537-8.675h2.171V579.456z M588.643,579.456
		h3.445v-5.449l-0.229,0.413L588.643,579.456z"/>
</g>
<g enable-background="new    ">
	<g>
		<line fill="none" stroke="#2D4E6E" stroke-width="2" stroke-miterlimit="10" x1="51" y1="678" x2="51" y2="614"/>
		<g>
			<polygon fill="#2D4E6E" points="51,603 57.261,618.322 51,614.687 44.741,618.322 			"/>
		</g>
	</g>
</g>
<g enable-background="new    ">
	<g>
		<line fill="none" stroke="#2D4E6E" stroke-width="2" stroke-miterlimit="10" x1="159" y1="678" x2="159" y2="614"/>
		<g>
			<polygon fill="#2D4E6E" points="159,603 165.261,618.322 159,614.687 152.741,618.322 			"/>
		</g>
	</g>
</g>
<g enable-background="new    ">
	<g>
		<line fill="none" stroke="#2D4E6E" stroke-width="2" stroke-miterlimit="10" x1="264" y1="678" x2="264" y2="614"/>
		<g>
			<polygon fill="#2D4E6E" points="264,603 270.261,618.322 264,614.687 257.741,618.322 			"/>
		</g>
	</g>
</g>
<g enable-background="new    ">
	<g>
		<line fill="none" stroke="#2D4E6E" stroke-width="2" stroke-miterlimit="10" x1="370" y1="678" x2="370" y2="614"/>
		<g>
			<polygon fill="#2D4E6E" points="370,603 376.261,618.322 370,614.687 363.741,618.322 			"/>
		</g>
	</g>
</g>
<g enable-background="new    ">
	<g>
		<line fill="none" stroke="#2D4E6E" stroke-width="2" stroke-miterlimit="10" x1="476" y1="678" x2="476" y2="614"/>
		<g>
			<polygon fill="#2D4E6E" points="476,603 482.261,618.322 476,614.687 469.741,618.322 			"/>
		</g>
	</g>
</g>
<g enable-background="new    ">
	<g>
		<path fill="none" stroke="#2D4E6E" stroke-width="2" stroke-miterlimit="10" d="M50,554v-29c0-2.75,2.25-5,5-5h45
			c2.75,0,5-2.25,5-5v-26"/>
		<g>
			<polygon fill="#2D4E6E" points="105,478 111.261,493.322 105,489.687 98.741,493.322 			"/>
		</g>
	</g>
</g>
<g enable-background="new    ">
	<path fill="none" stroke="#2D4E6E" stroke-width="2" stroke-miterlimit="10" d="M160,554v-29c0-2.75-2.25-5-5-5h-45
		c-2.75,0-5-2.25-5-5v-18"/>
</g>
<g enable-background="new    ">
	<g>
		<path fill="none" stroke="#2D4E6E" stroke-width="2" stroke-miterlimit="10" d="M262,554v-29c0-2.75,2.25-5,5-5h45
			c2.75,0,5-2.25,5-5v-26"/>
		<g>
			<polygon fill="#2D4E6E" points="317,478 323.261,493.322 317,489.687 310.741,493.322 			"/>
		</g>
	</g>
</g>
<g enable-background="new    ">
	<path fill="none" stroke="#2D4E6E" stroke-width="2" stroke-miterlimit="10" d="M372,554v-29c0-2.75-2.25-5-5-5h-45
		c-2.75,0-5-2.25-5-5v-18"/>
</g>
<g enable-background="new    ">
	<g>
		<path fill="none" stroke="#2D4E6E" stroke-width="2" stroke-miterlimit="10" d="M262,554v-29c0-2.75,2.25-5,5-5h45
			c2.75,0,5-2.25,5-5v-26"/>
		<g>
			<polygon fill="#2D4E6E" points="317,478 323.261,493.322 317,489.687 310.741,493.322 			"/>
		</g>
	</g>
</g>
<g enable-background="new    ">
	<path fill="none" stroke="#2D4E6E" stroke-width="2" stroke-miterlimit="10" d="M372,554v-29c0-2.75-2.25-5-5-5h-45
		c-2.75,0-5-2.25-5-5v-18"/>
</g>
<g enable-background="new    ">
	<g>
		<path fill="none" stroke="#2D4E6E" stroke-width="2" stroke-miterlimit="10" d="M105,429v-33c0-2.75,2.25-5,5-5h91
			c2.75,0,5-2.25,5-5v-26"/>
		<g>
			<polygon fill="#2D4E6E" points="206,349 212.261,364.322 206,360.686 199.741,364.322 			"/>
		</g>
	</g>
</g>
<g enable-background="new    ">
	<path fill="none" stroke="#2D4E6E" stroke-width="2" stroke-miterlimit="10" d="M317,429v-33c0-2.75-2.25-5-5-5H211
		c-2.75,0-5-2.25-5-5v-18"/>
</g>
<g enable-background="new    ">
	<g>
		<path fill="none" stroke="#2D4E6E" stroke-width="2" stroke-miterlimit="10" d="M206.5,301.063l-0.434-33.032
			C206.03,265.282,208.25,263,211,263h205c2.75,0,5-2.25,5-5v-26"/>
		<g>
			<polygon fill="#2D4E6E" points="421,221 427.261,236.322 421,232.686 414.741,236.322 			"/>
		</g>
	</g>
</g>
<g enable-background="new    ">
	<path fill="none" stroke="#2D4E6E" stroke-width="2" stroke-miterlimit="10" d="M629,301l0.217-33c0.018-2.75-2.217-5-4.967-5H426
		c-2.75,0-5-2.25-5-5v-18"/>
</g>
<g enable-background="new    ">
	<g>
		<path fill="none" stroke="#2D4E6E" stroke-width="2" stroke-miterlimit="10" d="M528,429v-33c0-2.75,2.25-5,5-5h91
			c2.75,0,5-2.25,5-5v-26"/>
		<g>
			<polygon fill="#2D4E6E" points="629,349 635.261,364.322 629,360.686 622.741,364.322 			"/>
		</g>
	</g>
</g>
<g enable-background="new    ">
	<path fill="none" stroke="#2D4E6E" stroke-width="2" stroke-miterlimit="10" d="M735,429v-33c0-2.75-2.25-5-5-5h-96
		c-2.75,0-5-2.25-5-5v-18"/>
</g>
<g enable-background="new    ">
	<g>
		<path fill="none" stroke="#2D4E6E" stroke-width="2" stroke-miterlimit="10" d="M473,554v-29c0-2.75,2.25-5,5-5h45
			c2.75,0,5-2.25,5-5v-26"/>
		<g>
			<polygon fill="#2D4E6E" points="528,478 534.261,493.322 528,489.687 521.741,493.322 			"/>
		</g>
	</g>
</g>
<g enable-background="new    ">
	<path fill="none" stroke="#2D4E6E" stroke-width="2" stroke-miterlimit="10" d="M583,554v-29c0-2.75-2.25-5-5-5h-45
		c-2.75,0-5-2.25-5-5v-18"/>
</g>
<g enable-background="new    ">
	<g>
		<path fill="none" stroke="#2D4E6E" stroke-width="2" stroke-miterlimit="10" d="M473,554v-29c0-2.75,2.25-5,5-5h45
			c2.75,0,5-2.25,5-5v-26"/>
		<g>
			<polygon fill="#2D4E6E" points="528,478 534.261,493.322 528,489.687 521.741,493.322 			"/>
		</g>
	</g>
</g>
<g enable-background="new    ">
	<path fill="none" stroke="#2D4E6E" stroke-width="2" stroke-miterlimit="10" d="M583,554v-29c0-2.75-2.25-5-5-5h-45
		c-2.75,0-5-2.25-5-5v-18"/>
</g>
<g>
</g>
<g>
</g>
<g>
</g>
<g>
</g>
<g>
</g>
<g>
</g>
<g>
</g>
<g>
</g>
<g>
</g>
<g>
</g>
<g>
</g>
<g>
</g>
<g>
</g>
<g>
</g>
<g>
</g>
<g>
</g>
</svg>
