<?xml version="1.0" encoding="utf-8"?>
<!-- Generator: Adobe Illustrator 16.0.4, SVG Export Plug-In . SVG Version: 6.00 Build 0)  -->
<!DOCTYPE svg PUBLIC "-//W3C//DTD SVG 1.1//EN" "http://www.w3.org/Graphics/SVG/1.1/DTD/svg11.dtd">
<svg version="1.1" id="Layer_13" xmlns="http://www.w3.org/2000/svg" xmlns:xlink="http://www.w3.org/1999/xlink" x="0px" y="0px"
	 width="1366px" height="768px" viewBox="0 0 1366 768" enable-background="new 0 0 1366 768" xml:space="preserve">
<rect x="-1" y="1" fill="#FFFFFF" width="1366" height="768"/>
<g>
	<rect x="830.305" y="833.317" fill="none" width="197.391" height="66.365"/>
	<path d="M857.572,834.021l1.213,4.808l1.379-4.808h3.068v12.797h-2.268v-3.788l0.105-5.985l-1.68,5.555h-1.221l-1.504-5.317
		l0.105,5.748v3.788h-2.268v-12.797H857.572z"/>
	<path d="M871.371,846.817c-0.059-0.117-0.109-0.252-0.15-0.404s-0.076-0.313-0.105-0.483c-0.135,0.146-0.289,0.284-0.465,0.413
		s-0.371,0.241-0.586,0.339c-0.213,0.096-0.449,0.172-0.707,0.229c-0.258,0.055-0.535,0.083-0.834,0.083
		c-0.486,0-0.934-0.07-1.342-0.211c-0.406-0.141-0.756-0.337-1.049-0.589s-0.521-0.553-0.686-0.9
		c-0.164-0.35-0.246-0.729-0.246-1.139c0-1.002,0.373-1.777,1.119-2.324c0.748-0.549,1.863-0.822,3.346-0.822h1.361v-0.562
		c0-0.457-0.148-0.818-0.447-1.086c-0.299-0.266-0.73-0.399-1.293-0.399c-0.498,0-0.861,0.106-1.09,0.321
		c-0.229,0.213-0.342,0.499-0.342,0.856h-2.443c0-0.404,0.088-0.788,0.268-1.151c0.178-0.363,0.439-0.683,0.781-0.958
		c0.344-0.275,0.762-0.493,1.258-0.655c0.494-0.16,1.062-0.241,1.701-0.241c0.574,0,1.107,0.07,1.604,0.211
		c0.494,0.141,0.924,0.349,1.287,0.624s0.648,0.623,0.854,1.041c0.205,0.42,0.307,0.904,0.307,1.455v4.078
		c0,0.51,0.033,0.932,0.098,1.266s0.158,0.621,0.281,0.861v0.149H871.371z M869.041,845.104c0.246,0,0.475-0.029,0.686-0.088
		s0.402-0.135,0.572-0.229s0.316-0.201,0.439-0.32c0.123-0.121,0.219-0.242,0.289-0.365v-1.635h-1.248
		c-0.381,0-0.705,0.037-0.975,0.109c-0.27,0.074-0.49,0.176-0.66,0.309c-0.17,0.131-0.295,0.289-0.377,0.475
		c-0.082,0.184-0.123,0.385-0.123,0.602c0,0.328,0.115,0.601,0.346,0.817C868.223,844.995,868.572,845.104,869.041,845.104z"/>
	<path d="M880.582,840.278l2.092-2.971h2.627l-3.189,4.667l3.305,4.843h-2.637l-2.189-3.111l-2.17,3.111h-2.646l3.305-4.843
		l-3.182-4.667h2.629L880.582,840.278z"/>
	<path d="M904.004,841.729l0.932-7.708h2.268l-1.775,12.797h-2.232l-1.213-7.559l-1.168,7.559h-2.232l-1.758-12.797h2.258
		l0.914,7.655l1.09-7.655h1.768L904.004,841.729z"/>
	<path d="M913.25,846.993c-0.732,0-1.396-0.12-1.994-0.36s-1.111-0.566-1.539-0.98c-0.428-0.412-0.758-0.898-0.988-1.459
		c-0.232-0.559-0.348-1.158-0.348-1.797v-0.352c0-0.727,0.115-1.391,0.344-1.99c0.229-0.602,0.547-1.118,0.957-1.552
		s0.896-0.771,1.459-1.011s1.176-0.36,1.838-0.36c0.686,0,1.295,0.112,1.832,0.339c0.535,0.225,0.99,0.543,1.361,0.953
		c0.373,0.41,0.656,0.904,0.85,1.48c0.193,0.578,0.289,1.215,0.289,1.912v1.037h-6.451c0.047,0.322,0.143,0.617,0.285,0.883
		c0.145,0.268,0.328,0.497,0.551,0.69s0.477,0.343,0.764,0.448s0.602,0.158,0.941,0.158c0.24,0,0.479-0.023,0.715-0.07
		c0.238-0.047,0.465-0.115,0.682-0.207c0.217-0.09,0.42-0.203,0.607-0.338s0.352-0.293,0.492-0.475l1.221,1.318
		c-0.152,0.217-0.35,0.43-0.594,0.637c-0.242,0.209-0.529,0.393-0.861,0.555c-0.33,0.16-0.697,0.291-1.102,0.391
		S913.719,846.993,913.25,846.993z M912.961,839.109c-0.275,0-0.527,0.049-0.756,0.145c-0.229,0.098-0.43,0.236-0.604,0.418
		c-0.172,0.182-0.316,0.398-0.434,0.65s-0.205,0.533-0.264,0.844h4.008v-0.193c-0.012-0.258-0.062-0.501-0.15-0.729
		s-0.213-0.427-0.377-0.593c-0.164-0.168-0.365-0.299-0.604-0.396C913.545,839.158,913.271,839.109,912.961,839.109z"/>
	<path d="M920.088,837.308h5.178v7.523h2.574v1.986h-7.752v-1.986h2.707v-5.528h-2.707V837.308z M922.619,834.873
		c0-0.188,0.033-0.361,0.102-0.523c0.066-0.16,0.162-0.299,0.285-0.412c0.123-0.115,0.271-0.204,0.445-0.269
		c0.172-0.064,0.363-0.097,0.574-0.097c0.434,0,0.779,0.121,1.033,0.365c0.256,0.242,0.383,0.555,0.383,0.936
		s-0.127,0.693-0.383,0.936c-0.254,0.244-0.6,0.365-1.033,0.365c-0.211,0-0.402-0.032-0.574-0.097
		c-0.174-0.064-0.322-0.153-0.445-0.269c-0.123-0.113-0.219-0.252-0.285-0.412C922.652,835.234,922.619,835.061,922.619,834.873z"/>
	<path d="M929.994,841.992c0-0.721,0.088-1.38,0.268-1.978c0.178-0.598,0.436-1.11,0.77-1.538s0.738-0.759,1.213-0.993
		s1.01-0.352,1.607-0.352c0.557,0,1.035,0.094,1.434,0.281s0.738,0.454,1.02,0.8l0.096-0.905h2.225v9.202
		c0,0.645-0.111,1.219-0.33,1.723c-0.221,0.504-0.527,0.929-0.924,1.274c-0.395,0.346-0.869,0.608-1.424,0.786
		c-0.553,0.18-1.164,0.269-1.832,0.269c-0.287,0-0.594-0.029-0.922-0.088s-0.654-0.149-0.977-0.272s-0.627-0.279-0.914-0.471
		c-0.287-0.189-0.533-0.417-0.738-0.681l1.1-1.485c0.311,0.352,0.662,0.619,1.055,0.805c0.393,0.184,0.816,0.276,1.273,0.276
		c0.686,0,1.221-0.183,1.604-0.55c0.385-0.365,0.576-0.886,0.576-1.56v-0.545c-0.287,0.316-0.623,0.562-1.006,0.738
		c-0.385,0.176-0.828,0.264-1.332,0.264c-0.592,0-1.123-0.122-1.596-0.364c-0.471-0.244-0.873-0.579-1.207-1.007
		s-0.592-0.937-0.77-1.524c-0.18-0.59-0.268-1.229-0.268-1.921V841.992z M932.445,842.177c0,0.398,0.039,0.769,0.119,1.112
		c0.078,0.342,0.201,0.641,0.365,0.896c0.164,0.254,0.371,0.455,0.623,0.602s0.551,0.22,0.896,0.22c0.428,0,0.781-0.082,1.059-0.246
		c0.279-0.164,0.5-0.393,0.664-0.686v-4.025c-0.164-0.299-0.385-0.528-0.664-0.69c-0.277-0.16-0.625-0.241-1.041-0.241
		c-0.346,0-0.645,0.075-0.896,0.224c-0.252,0.15-0.461,0.355-0.629,0.615c-0.166,0.262-0.291,0.566-0.373,0.914
		c-0.082,0.35-0.123,0.723-0.123,1.121V842.177z"/>
	<path d="M943.484,838.617c0.316-0.463,0.701-0.826,1.156-1.09c0.453-0.264,0.963-0.396,1.525-0.396
		c0.498,0,0.955,0.075,1.371,0.224c0.416,0.15,0.773,0.383,1.072,0.699s0.531,0.723,0.699,1.217c0.166,0.496,0.25,1.092,0.25,1.789
		v5.757h-2.443v-5.774c0-0.34-0.043-0.633-0.127-0.879c-0.086-0.246-0.207-0.445-0.365-0.598s-0.35-0.266-0.572-0.338
		c-0.223-0.074-0.475-0.11-0.756-0.11c-0.41,0-0.766,0.073-1.066,0.22c-0.303,0.146-0.551,0.352-0.744,0.615v6.864h-2.443v-13.5
		h2.443V838.617z"/>
	<path d="M956.326,834.979v2.329h3.551v1.802h-3.551v4.087c0,0.346,0.039,0.634,0.117,0.866c0.08,0.23,0.193,0.416,0.34,0.553
		c0.146,0.139,0.322,0.236,0.531,0.295c0.207,0.059,0.441,0.088,0.699,0.088c0.188,0,0.379-0.009,0.574-0.026
		c0.197-0.018,0.385-0.04,0.562-0.065c0.18-0.027,0.346-0.055,0.502-0.084c0.154-0.029,0.289-0.059,0.4-0.088l0.236,1.679
		c-0.17,0.1-0.369,0.187-0.598,0.259c-0.229,0.074-0.471,0.134-0.729,0.181s-0.527,0.083-0.805,0.11
		c-0.279,0.025-0.553,0.039-0.822,0.039c-0.521,0-0.994-0.068-1.42-0.207c-0.424-0.137-0.787-0.352-1.09-0.641
		c-0.301-0.291-0.533-0.66-0.697-1.107c-0.164-0.449-0.246-0.986-0.246-1.613v-4.324h-2.172v-1.802h2.172v-2.329H956.326z"/>
	<path d="M965.238,838.143c0-0.229,0.037-0.441,0.113-0.637c0.076-0.197,0.188-0.367,0.334-0.51
		c0.146-0.145,0.326-0.258,0.537-0.344c0.211-0.084,0.447-0.127,0.711-0.127s0.502,0.043,0.713,0.127
		c0.211,0.086,0.387,0.199,0.531,0.344c0.143,0.143,0.256,0.312,0.334,0.51c0.08,0.195,0.119,0.408,0.119,0.637
		c0,0.223-0.039,0.431-0.119,0.624c-0.078,0.193-0.191,0.362-0.334,0.505c-0.145,0.145-0.32,0.257-0.531,0.339
		s-0.449,0.123-0.713,0.123s-0.5-0.041-0.711-0.123s-0.391-0.194-0.537-0.339c-0.146-0.143-0.258-0.312-0.334-0.505
		S965.238,838.365,965.238,838.143z M965.238,845.402c0-0.229,0.037-0.441,0.113-0.637c0.076-0.197,0.188-0.367,0.334-0.51
		c0.146-0.145,0.326-0.258,0.537-0.344c0.211-0.084,0.447-0.127,0.711-0.127s0.502,0.043,0.713,0.127
		c0.211,0.086,0.387,0.199,0.531,0.344c0.143,0.143,0.256,0.312,0.334,0.51c0.08,0.195,0.119,0.408,0.119,0.637
		c0,0.223-0.039,0.431-0.119,0.624c-0.078,0.193-0.191,0.362-0.334,0.505c-0.145,0.145-0.32,0.257-0.531,0.339
		s-0.449,0.123-0.713,0.123s-0.5-0.041-0.711-0.123s-0.391-0.194-0.537-0.339c-0.146-0.143-0.258-0.312-0.334-0.505
		S965.238,845.625,965.238,845.402z"/>
	<path d="M991.385,842.062h1.486v1.978h-1.486v2.777h-2.443v-2.777h-5.316l-0.098-1.529l5.379-8.49h2.479V842.062z M985.928,842.062
		h3.014v-4.755l-0.236,0.422L985.928,842.062z"/>
	<path d="M997.994,834.021l1.213,4.808l1.381-4.808h3.066v12.797h-2.268v-3.788l0.105-5.985l-1.678,5.555h-1.223l-1.502-5.317
		l0.105,5.748v3.788h-2.268v-12.797H997.994z"/>
</g>
<rect x="682" y="835" fill="#FF3600" width="133" height="110"/>
<rect x="51" y="220" fill="#C8D7E3" enable-background="new    " width="76" height="354"/>
<rect x="127" y="397" fill="#C8D7E3" enable-background="new    " width="77" height="177"/>
<rect x="204" y="486" fill="#C8D7E3" enable-background="new    " width="77" height="88"/>
<rect x="281" y="530" fill="#C8D7E3" enable-background="new    " width="76" height="44"/>
<rect x="357" y="552" fill="#C8D7E3" enable-background="new    " width="77" height="22"/>
<rect x="434" y="563" fill="#C8D7E3" enable-background="new    " width="77" height="11"/>
<rect x="511" y="568" fill="#C8D7E3" enable-background="new    " width="76" height="6"/>
<g>
	<rect x="51.843" y="383.979" fill="none" width="76.686" height="62.079"/>
	<path d="M80.352,391.719l0.751-6.979h7.408v2.035h-5.525l-0.352,3.28c0.222-0.126,0.517-0.25,0.884-0.37s0.792-0.181,1.274-0.181
		c0.653,0,1.238,0.107,1.754,0.323s0.953,0.524,1.308,0.927s0.628,0.891,0.818,1.465c0.19,0.574,0.285,1.223,0.285,1.945
		c0,0.64-0.09,1.24-0.271,1.801c-0.181,0.562-0.456,1.05-0.827,1.465c-0.371,0.416-0.838,0.744-1.403,0.984
		c-0.564,0.241-1.23,0.361-1.997,0.361c-0.577,0-1.13-0.084-1.659-0.252s-1-0.415-1.412-0.742c-0.413-0.326-0.75-0.732-1.013-1.221
		c-0.263-0.488-0.414-1.057-0.452-1.703h2.197c0.089,0.686,0.339,1.207,0.751,1.564c0.412,0.358,0.941,0.537,1.588,0.537
		c0.374,0,0.701-0.069,0.979-0.209c0.279-0.139,0.51-0.334,0.694-0.585c0.184-0.25,0.322-0.552,0.414-0.903s0.138-0.736,0.138-1.155
		c0-0.399-0.052-0.767-0.157-1.103c-0.104-0.336-0.261-0.627-0.471-0.871c-0.209-0.244-0.469-0.436-0.78-0.575
		s-0.669-0.209-1.075-0.209c-0.272,0-0.507,0.021-0.704,0.062c-0.196,0.041-0.373,0.099-0.528,0.172
		c-0.155,0.072-0.296,0.16-0.423,0.262c-0.127,0.101-0.254,0.209-0.38,0.322L80.352,391.719z"/>
	<path d="M100.55,393.316c0,0.895-0.104,1.683-0.309,2.363c-0.206,0.682-0.502,1.253-0.889,1.713
		c-0.387,0.459-0.859,0.807-1.417,1.041c-0.558,0.234-1.186,0.352-1.883,0.352c-0.691,0-1.316-0.117-1.874-0.352
		c-0.558-0.234-1.032-0.582-1.422-1.041c-0.39-0.46-0.691-1.031-0.903-1.713c-0.212-0.681-0.318-1.469-0.318-2.363v-3.309
		c0-0.895,0.104-1.682,0.313-2.363c0.209-0.682,0.509-1.252,0.899-1.712c0.39-0.46,0.862-0.807,1.417-1.041
		c0.555-0.234,1.177-0.352,1.869-0.352c0.697,0,1.325,0.118,1.883,0.352c0.558,0.234,1.032,0.581,1.421,1.041
		c0.39,0.46,0.689,1.03,0.899,1.712c0.209,0.682,0.314,1.469,0.314,2.363V393.316z M93.817,392.451l4.431-3.299
		c-0.051-0.945-0.258-1.645-0.623-2.098c-0.365-0.453-0.896-0.68-1.593-0.68c-0.742,0-1.297,0.264-1.665,0.789
		c-0.368,0.526-0.551,1.335-0.551,2.426V392.451z M98.268,390.939l-4.431,3.301c0.114,1.812,0.853,2.719,2.216,2.719
		c1.477,0,2.215-1.08,2.215-3.242V390.939z"/>
</g>
<g>
	<rect x="128.528" y="472.837" fill="none" width="76.687" height="62.079"/>
	<path d="M165.482,487.443h-9.3v-1.569l4.507-4.916c0.381-0.425,0.699-0.801,0.956-1.127s0.461-0.626,0.613-0.898
		s0.26-0.526,0.323-0.761c0.063-0.235,0.095-0.473,0.095-0.714c0-0.316-0.049-0.61-0.147-0.88c-0.098-0.269-0.238-0.5-0.418-0.693
		s-0.399-0.345-0.656-0.452s-0.543-0.162-0.86-0.162c-0.824,0-1.431,0.226-1.821,0.676c-0.39,0.45-0.585,1.071-0.585,1.863h-2.282
		c0-0.602,0.109-1.171,0.328-1.706c0.219-0.536,0.533-1.004,0.941-1.403c0.409-0.399,0.905-0.715,1.488-0.946
		s1.239-0.347,1.969-0.347c0.685,0,1.293,0.099,1.826,0.295s0.982,0.471,1.351,0.822c0.367,0.352,0.646,0.769,0.836,1.251
		c0.19,0.481,0.286,1.011,0.286,1.588c0,0.431-0.07,0.848-0.209,1.25c-0.139,0.403-0.333,0.804-0.58,1.203
		c-0.247,0.399-0.542,0.801-0.884,1.203s-0.713,0.816-1.113,1.241l-3.138,3.366h6.476V487.443z"/>
	<path d="M168.726,480.577l0.751-6.979h7.408v2.035h-5.525l-0.352,3.28c0.222-0.127,0.517-0.25,0.884-0.371
		c0.368-0.12,0.792-0.181,1.274-0.181c0.653,0,1.238,0.108,1.754,0.323c0.517,0.216,0.953,0.525,1.308,0.928
		s0.628,0.891,0.818,1.464c0.19,0.574,0.285,1.223,0.285,1.945c0,0.641-0.09,1.241-0.271,1.802c-0.181,0.562-0.456,1.05-0.827,1.465
		s-0.838,0.743-1.403,0.984c-0.564,0.24-1.23,0.361-1.997,0.361c-0.577,0-1.13-0.084-1.659-0.252s-1-0.415-1.412-0.742
		c-0.413-0.326-0.75-0.733-1.013-1.222c-0.263-0.488-0.414-1.056-0.452-1.702h2.197c0.089,0.685,0.339,1.206,0.751,1.564
		c0.412,0.357,0.941,0.537,1.588,0.537c0.374,0,0.701-0.07,0.979-0.209c0.279-0.14,0.51-0.335,0.694-0.585
		c0.184-0.251,0.322-0.552,0.414-0.903c0.092-0.353,0.138-0.737,0.138-1.156c0-0.399-0.052-0.767-0.157-1.103
		c-0.104-0.336-0.261-0.626-0.471-0.87c-0.209-0.244-0.469-0.436-0.78-0.575s-0.669-0.21-1.075-0.21
		c-0.272,0-0.507,0.021-0.704,0.062c-0.196,0.041-0.373,0.098-0.528,0.171s-0.296,0.16-0.423,0.262
		c-0.127,0.102-0.254,0.209-0.38,0.323L168.726,480.577z"/>
</g>
<g>
	<rect x="90.186" y="593.258" fill="none" width="76.686" height="62.079"/>
	<path d="M115.072,607.863h-8.682v-0.875l4.536-5.145c0.336-0.381,0.645-0.745,0.927-1.094c0.282-0.349,0.526-0.692,0.732-1.032
		c0.206-0.339,0.366-0.68,0.48-1.021c0.114-0.343,0.171-0.694,0.171-1.056c0-0.419-0.07-0.802-0.209-1.151
		c-0.14-0.348-0.337-0.647-0.594-0.898c-0.257-0.25-0.563-0.445-0.918-0.585c-0.355-0.139-0.751-0.209-1.188-0.209
		c-0.488,0-0.922,0.083-1.303,0.247c-0.38,0.165-0.703,0.391-0.965,0.676c-0.263,0.285-0.466,0.623-0.609,1.013
		c-0.143,0.39-0.217,0.816-0.223,1.279h-1.141c0.006-0.571,0.111-1.109,0.313-1.617c0.203-0.507,0.488-0.951,0.856-1.331
		c0.368-0.381,0.81-0.682,1.327-0.903s1.098-0.333,1.745-0.333c0.608,0,1.162,0.09,1.659,0.271c0.498,0.181,0.924,0.438,1.279,0.771
		s0.629,0.732,0.823,1.198c0.193,0.466,0.29,0.981,0.29,1.546c0,0.456-0.081,0.899-0.243,1.331
		c-0.162,0.431-0.371,0.853-0.627,1.265c-0.257,0.412-0.549,0.812-0.875,1.198c-0.327,0.387-0.651,0.764-0.975,1.132l-3.87,4.364
		h7.284V607.863z"/>
	<path d="M123.897,607.863h-1.141v-12.41l-3.833,1.646v-1.075l4.812-2.006h0.162V607.863z"/>
	<path d="M138.751,602.386c0,0.773-0.086,1.504-0.257,2.192c-0.171,0.688-0.435,1.288-0.79,1.802s-0.805,0.921-1.35,1.222
		c-0.545,0.301-1.195,0.452-1.95,0.452c-0.748,0-1.396-0.151-1.945-0.452s-1.001-0.708-1.36-1.222
		c-0.358-0.514-0.625-1.114-0.799-1.802c-0.174-0.688-0.265-1.419-0.271-2.192v-2.882c0.006-0.773,0.095-1.504,0.267-2.191
		c0.171-0.688,0.436-1.292,0.794-1.812c0.358-0.521,0.81-0.931,1.355-1.231c0.545-0.302,1.192-0.452,1.94-0.452
		c0.754,0,1.406,0.15,1.954,0.452c0.548,0.301,1,0.71,1.355,1.227c0.355,0.517,0.62,1.12,0.794,1.812s0.262,1.423,0.262,2.196
		V602.386z M131.172,602.557c0,0.261,0.01,0.508,0.029,0.742l6.248-5.658c-0.089-0.406-0.212-0.783-0.371-1.132
		c-0.159-0.349-0.363-0.649-0.613-0.903c-0.25-0.254-0.547-0.453-0.889-0.6c-0.343-0.146-0.739-0.219-1.189-0.219
		c-0.589,0-1.089,0.124-1.498,0.371c-0.409,0.247-0.74,0.58-0.994,0.999c-0.253,0.418-0.437,0.9-0.551,1.445
		s-0.171,1.115-0.171,1.712V602.557z M137.61,599.314c0-0.21-0.009-0.416-0.028-0.618l-6.219,5.648
		c0.095,0.394,0.225,0.758,0.39,1.094c0.165,0.336,0.371,0.626,0.618,0.87c0.248,0.244,0.539,0.436,0.875,0.575
		s0.723,0.209,1.16,0.209c0.59,0,1.089-0.125,1.498-0.375c0.409-0.251,0.739-0.585,0.989-1.004c0.25-0.418,0.433-0.9,0.547-1.445
		s0.171-1.115,0.171-1.712V599.314z"/>
	<path d="M144.875,602.661l-1.455,1.303v3.899h-1.15v-14.606h1.15v9.396l1.227-1.208l4.175-3.87h1.455l-4.593,4.336l5.068,5.953
		h-1.464L144.875,602.661z"/>
</g>
<g>
	<rect x="13.499" y="593.258" fill="none" width="76.687" height="62.079"/>
	<path d="M56.221,602.386c0,0.773-0.086,1.504-0.257,2.192c-0.171,0.688-0.435,1.288-0.79,1.802s-0.805,0.921-1.35,1.222
		c-0.545,0.301-1.195,0.452-1.95,0.452c-0.748,0-1.396-0.151-1.945-0.452s-1.001-0.708-1.36-1.222
		c-0.358-0.514-0.625-1.114-0.799-1.802c-0.174-0.688-0.265-1.419-0.271-2.192v-2.882c0.006-0.773,0.095-1.504,0.267-2.191
		c0.171-0.688,0.436-1.292,0.794-1.812c0.358-0.521,0.81-0.931,1.355-1.231c0.545-0.302,1.192-0.452,1.94-0.452
		c0.754,0,1.406,0.15,1.954,0.452c0.548,0.301,1,0.71,1.355,1.227c0.355,0.517,0.62,1.12,0.794,1.812s0.262,1.423,0.262,2.196
		V602.386z M48.642,602.557c0,0.261,0.01,0.508,0.029,0.742l6.248-5.658c-0.089-0.406-0.212-0.783-0.371-1.132
		c-0.159-0.349-0.363-0.649-0.613-0.903c-0.25-0.254-0.547-0.453-0.889-0.6c-0.343-0.146-0.739-0.219-1.189-0.219
		c-0.589,0-1.089,0.124-1.498,0.371c-0.409,0.247-0.74,0.58-0.994,0.999c-0.253,0.418-0.437,0.9-0.551,1.445
		s-0.171,1.115-0.171,1.712V602.557z M55.08,599.314c0-0.21-0.009-0.416-0.028-0.618l-6.219,5.648
		c0.095,0.394,0.225,0.758,0.39,1.094c0.165,0.336,0.371,0.626,0.618,0.87c0.248,0.244,0.539,0.436,0.875,0.575
		s0.723,0.209,1.16,0.209c0.59,0,1.089-0.125,1.498-0.375c0.409-0.251,0.739-0.585,0.989-1.004c0.25-0.418,0.433-0.9,0.547-1.445
		s0.171-1.115,0.171-1.712V599.314z"/>
</g>
<g>
	<rect x="166.871" y="593.258" fill="none" width="76.687" height="62.079"/>
	<path d="M190.284,603.403h2.168v0.96h-2.168v3.5h-1.132v-3.5h-6.514v-0.646l6.4-9.699h1.246V603.403z M184.007,603.403h5.145v-7.95
		l-0.542,0.961L184.007,603.403z"/>
	<path d="M203.445,607.863h-8.682v-0.875l4.536-5.145c0.336-0.381,0.645-0.745,0.927-1.094c0.282-0.349,0.526-0.692,0.732-1.032
		c0.206-0.339,0.366-0.68,0.48-1.021c0.114-0.343,0.171-0.694,0.171-1.056c0-0.419-0.07-0.802-0.209-1.151
		c-0.14-0.348-0.337-0.647-0.594-0.898c-0.257-0.25-0.563-0.445-0.918-0.585c-0.355-0.139-0.751-0.209-1.188-0.209
		c-0.488,0-0.922,0.083-1.303,0.247c-0.38,0.165-0.703,0.391-0.965,0.676c-0.263,0.285-0.466,0.623-0.609,1.013
		c-0.143,0.39-0.217,0.816-0.223,1.279h-1.141c0.006-0.571,0.111-1.109,0.313-1.617c0.203-0.507,0.488-0.951,0.856-1.331
		c0.368-0.381,0.81-0.682,1.327-0.903s1.098-0.333,1.745-0.333c0.608,0,1.162,0.09,1.659,0.271c0.498,0.181,0.924,0.438,1.279,0.771
		s0.629,0.732,0.823,1.198c0.193,0.466,0.29,0.981,0.29,1.546c0,0.456-0.081,0.899-0.243,1.331
		c-0.162,0.431-0.371,0.853-0.627,1.265c-0.257,0.412-0.549,0.812-0.875,1.198c-0.327,0.387-0.651,0.764-0.975,1.132l-3.87,4.364
		h7.284V607.863z"/>
	<path d="M215.437,602.386c0,0.773-0.086,1.504-0.257,2.192c-0.171,0.688-0.435,1.288-0.79,1.802s-0.805,0.921-1.35,1.222
		c-0.545,0.301-1.195,0.452-1.95,0.452c-0.748,0-1.396-0.151-1.945-0.452s-1.001-0.708-1.36-1.222
		c-0.358-0.514-0.625-1.114-0.799-1.802c-0.174-0.688-0.265-1.419-0.271-2.192v-2.882c0.006-0.773,0.095-1.504,0.267-2.191
		c0.171-0.688,0.436-1.292,0.794-1.812c0.358-0.521,0.81-0.931,1.355-1.231c0.545-0.302,1.192-0.452,1.94-0.452
		c0.754,0,1.406,0.15,1.954,0.452c0.548,0.301,1,0.71,1.355,1.227c0.355,0.517,0.62,1.12,0.794,1.812s0.262,1.423,0.262,2.196
		V602.386z M207.857,602.557c0,0.261,0.01,0.508,0.029,0.742l6.248-5.658c-0.089-0.406-0.212-0.783-0.371-1.132
		c-0.159-0.349-0.363-0.649-0.613-0.903c-0.25-0.254-0.547-0.453-0.889-0.6c-0.343-0.146-0.739-0.219-1.189-0.219
		c-0.589,0-1.089,0.124-1.498,0.371c-0.409,0.247-0.74,0.58-0.994,0.999c-0.253,0.418-0.437,0.9-0.551,1.445
		s-0.171,1.115-0.171,1.712V602.557z M214.295,599.314c0-0.21-0.009-0.416-0.028-0.618l-6.219,5.648
		c0.095,0.394,0.225,0.758,0.39,1.094c0.165,0.336,0.371,0.626,0.618,0.87c0.248,0.244,0.539,0.436,0.875,0.575
		s0.723,0.209,1.16,0.209c0.59,0,1.089-0.125,1.498-0.375c0.409-0.251,0.739-0.585,0.989-1.004c0.25-0.418,0.433-0.9,0.547-1.445
		s0.171-1.115,0.171-1.712V599.314z"/>
	<path d="M221.561,602.661l-1.455,1.303v3.899h-1.15v-14.606h1.15v9.396l1.227-1.208l4.175-3.87h1.455l-4.593,4.336l5.068,5.953
		h-1.464L221.561,602.661z"/>
</g>
<g>
	<rect x="242.949" y="593.258" fill="none" width="76.686" height="62.079"/>
	<path d="M266.123,593.912v1.037h-0.171c-0.926,0.006-1.721,0.161-2.387,0.466c-0.666,0.305-1.217,0.712-1.655,1.222
		c-0.438,0.511-0.771,1.102-0.999,1.774c-0.229,0.672-0.365,1.372-0.409,2.102c0.178-0.254,0.39-0.488,0.637-0.704
		c0.248-0.216,0.519-0.399,0.813-0.552c0.295-0.152,0.61-0.271,0.946-0.356s0.682-0.128,1.037-0.128
		c0.666,0,1.248,0.128,1.745,0.385s0.913,0.596,1.246,1.018c0.333,0.422,0.582,0.906,0.747,1.455
		c0.165,0.548,0.248,1.114,0.248,1.697c0,0.608-0.087,1.196-0.262,1.764s-0.435,1.07-0.78,1.508
		c-0.346,0.438-0.773,0.789-1.284,1.056c-0.511,0.266-1.102,0.399-1.774,0.399c-0.723,0-1.361-0.145-1.916-0.433
		c-0.555-0.289-1.022-0.669-1.403-1.142c-0.38-0.472-0.669-1.013-0.865-1.621s-0.298-1.236-0.304-1.883v-1.227
		c0-0.66,0.051-1.312,0.152-1.955c0.101-0.643,0.26-1.253,0.475-1.83c0.216-0.577,0.495-1.112,0.837-1.607
		c0.342-0.494,0.758-0.921,1.246-1.279c0.488-0.357,1.055-0.64,1.702-0.846c0.646-0.206,1.382-0.312,2.206-0.319H266.123z
		 M263.755,599.752c-0.361,0-0.715,0.057-1.06,0.171c-0.346,0.114-0.665,0.272-0.956,0.476s-0.547,0.448-0.766,0.736
		c-0.218,0.289-0.382,0.607-0.49,0.956v0.903c0,0.596,0.083,1.146,0.248,1.65c0.165,0.504,0.395,0.937,0.689,1.298
		s0.646,0.644,1.056,0.847c0.409,0.202,0.857,0.301,1.345,0.294c0.482,0,0.908-0.104,1.279-0.313s0.682-0.486,0.932-0.832
		c0.25-0.346,0.44-0.741,0.57-1.188s0.195-0.908,0.195-1.384s-0.065-0.931-0.195-1.364c-0.13-0.435-0.323-0.818-0.58-1.151
		s-0.574-0.599-0.951-0.799C264.695,599.852,264.256,599.752,263.755,599.752z"/>
	<path d="M273.426,600.322h1.151c0.444-0.007,0.862-0.07,1.255-0.19c0.393-0.12,0.737-0.295,1.032-0.523
		c0.295-0.228,0.528-0.507,0.699-0.836c0.171-0.33,0.257-0.71,0.257-1.142c0-0.45-0.07-0.852-0.209-1.203
		c-0.14-0.352-0.336-0.648-0.59-0.889c-0.253-0.241-0.56-0.425-0.917-0.552c-0.358-0.127-0.756-0.19-1.193-0.19
		c-0.438,0-0.84,0.068-1.208,0.204c-0.368,0.137-0.687,0.328-0.956,0.576c-0.27,0.247-0.482,0.547-0.637,0.898
		s-0.236,0.743-0.243,1.174h-1.141c0.013-0.545,0.125-1.051,0.338-1.517c0.212-0.466,0.502-0.87,0.87-1.212
		c0.367-0.343,0.805-0.61,1.312-0.804s1.062-0.29,1.665-0.29c0.589,0,1.131,0.087,1.626,0.262c0.495,0.174,0.921,0.425,1.279,0.751
		c0.358,0.326,0.637,0.728,0.837,1.203s0.3,1.018,0.3,1.626c0,0.343-0.056,0.67-0.167,0.984c-0.111,0.313-0.271,0.605-0.48,0.875
		c-0.209,0.27-0.463,0.51-0.761,0.723c-0.298,0.212-0.631,0.385-0.999,0.519c0.862,0.24,1.521,0.654,1.978,1.24
		c0.457,0.587,0.685,1.286,0.685,2.098c0,0.621-0.109,1.176-0.328,1.664s-0.52,0.9-0.904,1.236c-0.383,0.336-0.833,0.594-1.35,0.774
		s-1.073,0.271-1.669,0.271c-0.609,0-1.179-0.091-1.712-0.271c-0.532-0.181-0.999-0.44-1.398-0.779s-0.716-0.753-0.951-1.241
		c-0.235-0.488-0.358-1.04-0.371-1.654h1.132c0.013,0.456,0.104,0.868,0.276,1.235c0.171,0.368,0.404,0.682,0.699,0.942
		c0.295,0.26,0.64,0.459,1.037,0.599c0.396,0.14,0.826,0.209,1.289,0.209c0.45,0,0.867-0.063,1.25-0.19
		c0.383-0.126,0.713-0.313,0.989-0.561c0.276-0.247,0.491-0.555,0.647-0.923c0.155-0.367,0.233-0.792,0.233-1.274
		c0-0.507-0.094-0.939-0.281-1.298c-0.187-0.357-0.439-0.651-0.756-0.88c-0.317-0.228-0.688-0.396-1.113-0.504
		c-0.425-0.107-0.875-0.164-1.35-0.171h-1.151V600.322z"/>
	<path d="M291.514,602.386c0,0.773-0.086,1.504-0.257,2.192c-0.171,0.688-0.435,1.288-0.79,1.802s-0.805,0.921-1.35,1.222
		c-0.545,0.301-1.195,0.452-1.95,0.452c-0.748,0-1.396-0.151-1.945-0.452s-1.001-0.708-1.36-1.222
		c-0.358-0.514-0.625-1.114-0.799-1.802c-0.174-0.688-0.265-1.419-0.271-2.192v-2.882c0.006-0.773,0.095-1.504,0.267-2.191
		c0.171-0.688,0.436-1.292,0.794-1.812c0.358-0.521,0.81-0.931,1.355-1.231c0.545-0.302,1.192-0.452,1.94-0.452
		c0.754,0,1.406,0.15,1.954,0.452c0.548,0.301,1,0.71,1.355,1.227c0.355,0.517,0.62,1.12,0.794,1.812s0.262,1.423,0.262,2.196
		V602.386z M283.935,602.557c0,0.261,0.01,0.508,0.029,0.742l6.248-5.658c-0.089-0.406-0.212-0.783-0.371-1.132
		c-0.159-0.349-0.363-0.649-0.613-0.903c-0.25-0.254-0.547-0.453-0.889-0.6c-0.343-0.146-0.739-0.219-1.189-0.219
		c-0.589,0-1.089,0.124-1.498,0.371c-0.409,0.247-0.74,0.58-0.994,0.999c-0.253,0.418-0.437,0.9-0.551,1.445
		s-0.171,1.115-0.171,1.712V602.557z M290.373,599.314c0-0.21-0.009-0.416-0.028-0.618l-6.219,5.648
		c0.095,0.394,0.225,0.758,0.39,1.094c0.165,0.336,0.371,0.626,0.618,0.87c0.248,0.244,0.539,0.436,0.875,0.575
		s0.723,0.209,1.16,0.209c0.59,0,1.089-0.125,1.498-0.375c0.409-0.251,0.739-0.585,0.989-1.004c0.25-0.418,0.433-0.9,0.547-1.445
		s0.171-1.115,0.171-1.712V599.314z"/>
	<path d="M297.638,602.661l-1.455,1.303v3.899h-1.15v-14.606h1.15v9.396l1.227-1.208l4.175-3.87h1.455l-4.593,4.336l5.068,5.953
		h-1.464L297.638,602.661z"/>
</g>
<g>
	<rect x="319.635" y="593.258" fill="none" width="76.687" height="62.079"/>
	<path d="M344.74,597.583c0,0.374-0.059,0.727-0.176,1.056c-0.117,0.33-0.277,0.63-0.48,0.898c-0.203,0.27-0.445,0.508-0.728,0.714
		c-0.282,0.206-0.591,0.375-0.927,0.509c0.38,0.133,0.733,0.308,1.06,0.522c0.327,0.216,0.609,0.47,0.847,0.761
		c0.237,0.292,0.423,0.618,0.556,0.979s0.2,0.752,0.2,1.17c0,0.628-0.118,1.183-0.352,1.664c-0.234,0.482-0.553,0.885-0.956,1.208
		c-0.403,0.323-0.87,0.569-1.403,0.737c-0.532,0.168-1.093,0.252-1.683,0.252c-0.596,0-1.162-0.083-1.697-0.247
		c-0.536-0.165-1.005-0.411-1.408-0.737s-0.721-0.73-0.956-1.213c-0.235-0.481-0.352-1.036-0.352-1.664
		c0-0.418,0.065-0.809,0.195-1.17s0.312-0.686,0.547-0.975c0.235-0.288,0.512-0.542,0.832-0.761c0.32-0.219,0.671-0.395,1.051-0.527
		c-0.336-0.134-0.642-0.303-0.918-0.509s-0.515-0.444-0.718-0.714c-0.203-0.269-0.36-0.568-0.471-0.898
		c-0.111-0.329-0.167-0.682-0.167-1.056c0-0.589,0.103-1.115,0.309-1.578s0.49-0.856,0.851-1.18s0.786-0.57,1.274-0.741
		c0.488-0.172,1.018-0.257,1.588-0.257c0.564,0,1.095,0.085,1.593,0.257c0.498,0.171,0.931,0.418,1.298,0.741s0.658,0.717,0.87,1.18
		S344.74,596.994,344.74,597.583z M343.951,604.202c0-0.457-0.089-0.868-0.267-1.236c-0.177-0.367-0.417-0.679-0.718-0.932
		c-0.301-0.254-0.65-0.449-1.046-0.585c-0.396-0.137-0.81-0.205-1.241-0.205c-0.438,0-0.854,0.068-1.25,0.205
		c-0.396,0.136-0.742,0.331-1.037,0.585c-0.295,0.253-0.529,0.564-0.704,0.932c-0.174,0.368-0.262,0.779-0.262,1.236
		c0,0.469,0.087,0.885,0.262,1.246s0.409,0.664,0.704,0.908s0.64,0.428,1.037,0.551c0.396,0.124,0.819,0.186,1.27,0.186
		c0.438,0,0.853-0.063,1.246-0.19c0.393-0.126,0.739-0.312,1.037-0.556s0.534-0.545,0.708-0.903S343.951,604.671,343.951,604.202z
		 M343.599,597.574c0-0.412-0.079-0.79-0.238-1.132c-0.158-0.343-0.373-0.636-0.642-0.88c-0.27-0.244-0.582-0.433-0.937-0.565
		c-0.355-0.134-0.729-0.2-1.122-0.2c-0.399,0-0.773,0.065-1.122,0.195s-0.655,0.313-0.917,0.552
		c-0.263,0.237-0.469,0.529-0.618,0.874c-0.149,0.346-0.224,0.731-0.224,1.156s0.078,0.803,0.233,1.136s0.365,0.615,0.627,0.847
		c0.263,0.231,0.571,0.409,0.923,0.532c0.352,0.124,0.724,0.186,1.117,0.186s0.766-0.062,1.117-0.186
		c0.352-0.123,0.661-0.301,0.927-0.532c0.267-0.231,0.479-0.515,0.637-0.852C343.52,598.369,343.599,597.992,343.599,597.574z"/>
	<path d="M354.735,603.403h2.168v0.96h-2.168v3.5h-1.132v-3.5h-6.514v-0.646l6.4-9.699h1.246V603.403z M348.458,603.403h5.145v-7.95
		l-0.542,0.961L348.458,603.403z"/>
	<path d="M368.201,602.386c0,0.773-0.086,1.504-0.257,2.192c-0.171,0.688-0.435,1.288-0.79,1.802s-0.805,0.921-1.35,1.222
		c-0.545,0.301-1.195,0.452-1.95,0.452c-0.748,0-1.396-0.151-1.945-0.452s-1.001-0.708-1.36-1.222
		c-0.358-0.514-0.625-1.114-0.799-1.802c-0.174-0.688-0.265-1.419-0.271-2.192v-2.882c0.006-0.773,0.095-1.504,0.267-2.191
		c0.171-0.688,0.436-1.292,0.794-1.812c0.358-0.521,0.81-0.931,1.355-1.231c0.545-0.302,1.192-0.452,1.94-0.452
		c0.754,0,1.406,0.15,1.954,0.452c0.548,0.301,1,0.71,1.355,1.227c0.355,0.517,0.62,1.12,0.794,1.812s0.262,1.423,0.262,2.196
		V602.386z M360.621,602.557c0,0.261,0.01,0.508,0.029,0.742l6.248-5.658c-0.089-0.406-0.212-0.783-0.371-1.132
		c-0.159-0.349-0.363-0.649-0.613-0.903c-0.25-0.254-0.547-0.453-0.889-0.6c-0.343-0.146-0.739-0.219-1.189-0.219
		c-0.589,0-1.089,0.124-1.498,0.371c-0.409,0.247-0.74,0.58-0.994,0.999c-0.253,0.418-0.437,0.9-0.551,1.445
		s-0.171,1.115-0.171,1.712V602.557z M367.059,599.314c0-0.21-0.009-0.416-0.028-0.618l-6.219,5.648
		c0.095,0.394,0.225,0.758,0.39,1.094c0.165,0.336,0.371,0.626,0.618,0.87c0.248,0.244,0.539,0.436,0.875,0.575
		s0.723,0.209,1.16,0.209c0.59,0,1.089-0.125,1.498-0.375c0.409-0.251,0.739-0.585,0.989-1.004c0.25-0.418,0.433-0.9,0.547-1.445
		s0.171-1.115,0.171-1.712V599.314z"/>
	<path d="M374.325,602.661l-1.455,1.303v3.899h-1.15v-14.606h1.15v9.396l1.227-1.208l4.175-3.87h1.455l-4.593,4.336l5.068,5.953
		h-1.464L374.325,602.661z"/>
</g>
<g>
	<rect x="396.321" y="593.258" fill="none" width="76.686" height="62.079"/>
	<path d="M412.501,607.863h-1.141v-12.41l-3.833,1.646v-1.075l4.812-2.006h0.162V607.863z"/>
	<path d="M427.355,602.386c0,0.773-0.086,1.504-0.257,2.192c-0.171,0.688-0.435,1.288-0.79,1.802s-0.805,0.921-1.35,1.222
		c-0.545,0.301-1.195,0.452-1.95,0.452c-0.748,0-1.396-0.151-1.945-0.452s-1.001-0.708-1.36-1.222
		c-0.358-0.514-0.625-1.114-0.799-1.802c-0.174-0.688-0.265-1.419-0.271-2.192v-2.882c0.006-0.773,0.095-1.504,0.267-2.191
		c0.171-0.688,0.436-1.292,0.794-1.812c0.358-0.521,0.81-0.931,1.355-1.231c0.545-0.302,1.192-0.452,1.94-0.452
		c0.754,0,1.406,0.15,1.954,0.452c0.548,0.301,1,0.71,1.355,1.227c0.355,0.517,0.62,1.12,0.794,1.812s0.262,1.423,0.262,2.196
		V602.386z M419.776,602.557c0,0.261,0.01,0.508,0.029,0.742l6.248-5.658c-0.089-0.406-0.212-0.783-0.371-1.132
		c-0.159-0.349-0.363-0.649-0.613-0.903c-0.25-0.254-0.547-0.453-0.889-0.6c-0.343-0.146-0.739-0.219-1.189-0.219
		c-0.589,0-1.089,0.124-1.498,0.371c-0.409,0.247-0.74,0.58-0.994,0.999c-0.253,0.418-0.437,0.9-0.551,1.445
		s-0.171,1.115-0.171,1.712V602.557z M426.214,599.314c0-0.21-0.009-0.416-0.028-0.618l-6.219,5.648
		c0.095,0.394,0.225,0.758,0.39,1.094c0.165,0.336,0.371,0.626,0.618,0.87c0.248,0.244,0.539,0.436,0.875,0.575
		s0.723,0.209,1.16,0.209c0.59,0,1.089-0.125,1.498-0.375c0.409-0.251,0.739-0.585,0.989-1.004c0.25-0.418,0.433-0.9,0.547-1.445
		s0.171-1.115,0.171-1.712V599.314z"/>
	<path d="M431.292,600.77l0.675-6.752h6.923v1.103h-5.953l-0.476,4.632c0.342-0.235,0.735-0.42,1.179-0.557s0.919-0.204,1.427-0.204
		c0.627,0,1.195,0.109,1.702,0.327c0.507,0.219,0.938,0.526,1.293,0.923s0.628,0.869,0.818,1.417
		c0.19,0.549,0.286,1.146,0.286,1.793c0,0.64-0.083,1.239-0.248,1.797c-0.165,0.558-0.417,1.045-0.756,1.46
		c-0.339,0.415-0.767,0.743-1.284,0.984c-0.517,0.24-1.127,0.361-1.831,0.361c-0.577,0-1.111-0.086-1.603-0.257
		s-0.922-0.422-1.293-0.751c-0.371-0.33-0.672-0.732-0.903-1.208s-0.379-1.015-0.442-1.617h1.104
		c0.057,0.45,0.168,0.854,0.333,1.208c0.165,0.355,0.38,0.656,0.647,0.903c0.266,0.247,0.58,0.437,0.941,0.566
		s0.767,0.194,1.217,0.194c0.507,0,0.948-0.092,1.322-0.275s0.685-0.439,0.932-0.766c0.248-0.326,0.43-0.71,0.547-1.15
		s0.176-0.918,0.176-1.432c0-0.481-0.071-0.932-0.214-1.351c-0.143-0.418-0.35-0.782-0.623-1.094
		c-0.273-0.311-0.604-0.555-0.994-0.731c-0.39-0.178-0.832-0.267-1.326-0.267c-0.292,0-0.56,0.019-0.804,0.057
		s-0.472,0.101-0.685,0.186c-0.213,0.086-0.416,0.19-0.609,0.314c-0.193,0.123-0.385,0.271-0.575,0.441L431.292,600.77z"/>
	<path d="M450.73,602.386c0,0.773-0.086,1.504-0.257,2.192c-0.171,0.688-0.435,1.288-0.79,1.802s-0.805,0.921-1.35,1.222
		c-0.545,0.301-1.195,0.452-1.95,0.452c-0.748,0-1.396-0.151-1.945-0.452s-1.001-0.708-1.36-1.222
		c-0.358-0.514-0.625-1.114-0.799-1.802c-0.174-0.688-0.265-1.419-0.271-2.192v-2.882c0.006-0.773,0.095-1.504,0.267-2.191
		c0.171-0.688,0.436-1.292,0.794-1.812c0.358-0.521,0.81-0.931,1.355-1.231c0.545-0.302,1.192-0.452,1.94-0.452
		c0.754,0,1.406,0.15,1.954,0.452c0.548,0.301,1,0.71,1.355,1.227c0.355,0.517,0.62,1.12,0.794,1.812s0.262,1.423,0.262,2.196
		V602.386z M443.151,602.557c0,0.261,0.01,0.508,0.029,0.742l6.248-5.658c-0.089-0.406-0.212-0.783-0.371-1.132
		c-0.159-0.349-0.363-0.649-0.613-0.903c-0.25-0.254-0.547-0.453-0.889-0.6c-0.343-0.146-0.739-0.219-1.189-0.219
		c-0.589,0-1.089,0.124-1.498,0.371c-0.409,0.247-0.74,0.58-0.994,0.999c-0.253,0.418-0.437,0.9-0.551,1.445
		s-0.171,1.115-0.171,1.712V602.557z M449.589,599.314c0-0.21-0.009-0.416-0.028-0.618l-6.219,5.648
		c0.095,0.394,0.225,0.758,0.39,1.094c0.165,0.336,0.371,0.626,0.618,0.87c0.248,0.244,0.539,0.436,0.875,0.575
		s0.723,0.209,1.16,0.209c0.59,0,1.089-0.125,1.498-0.375c0.409-0.251,0.739-0.585,0.989-1.004c0.25-0.418,0.433-0.9,0.547-1.445
		s0.171-1.115,0.171-1.712V599.314z"/>
	<path d="M456.854,602.661l-1.455,1.303v3.899h-1.15v-14.606h1.15v9.396l1.227-1.208l4.175-3.87h1.455l-4.593,4.336l5.068,5.953
		h-1.464L456.854,602.661z"/>
</g>
<g>
	<rect x="473.007" y="593.258" fill="none" width="76.687" height="62.079"/>
	<path d="M489.188,607.863h-1.141v-12.41l-3.833,1.646v-1.075l4.812-2.006h0.162V607.863z"/>
	<path d="M503.737,607.863h-8.682v-0.875l4.536-5.145c0.336-0.381,0.645-0.745,0.927-1.094c0.282-0.349,0.526-0.692,0.732-1.032
		c0.206-0.339,0.366-0.68,0.48-1.021c0.114-0.343,0.171-0.694,0.171-1.056c0-0.419-0.07-0.802-0.209-1.151
		c-0.14-0.348-0.337-0.647-0.594-0.898c-0.257-0.25-0.563-0.445-0.918-0.585c-0.355-0.139-0.751-0.209-1.188-0.209
		c-0.488,0-0.922,0.083-1.303,0.247c-0.38,0.165-0.703,0.391-0.965,0.676c-0.263,0.285-0.466,0.623-0.609,1.013
		c-0.143,0.39-0.217,0.816-0.223,1.279h-1.141c0.006-0.571,0.111-1.109,0.313-1.617c0.203-0.507,0.488-0.951,0.856-1.331
		c0.368-0.381,0.81-0.682,1.327-0.903s1.098-0.333,1.745-0.333c0.608,0,1.162,0.09,1.659,0.271c0.498,0.181,0.924,0.438,1.279,0.771
		s0.629,0.732,0.823,1.198c0.193,0.466,0.29,0.981,0.29,1.546c0,0.456-0.081,0.899-0.243,1.331
		c-0.162,0.431-0.371,0.853-0.627,1.265c-0.257,0.412-0.549,0.812-0.875,1.198c-0.327,0.387-0.651,0.764-0.975,1.132l-3.87,4.364
		h7.284V607.863z"/>
	<path d="M513.713,593.912v1.037h-0.171c-0.926,0.006-1.721,0.161-2.387,0.466c-0.666,0.305-1.217,0.712-1.655,1.222
		c-0.438,0.511-0.771,1.102-0.999,1.774c-0.229,0.672-0.365,1.372-0.409,2.102c0.178-0.254,0.39-0.488,0.637-0.704
		c0.248-0.216,0.519-0.399,0.813-0.552c0.295-0.152,0.61-0.271,0.946-0.356s0.682-0.128,1.037-0.128
		c0.666,0,1.248,0.128,1.745,0.385s0.913,0.596,1.246,1.018c0.333,0.422,0.582,0.906,0.747,1.455
		c0.165,0.548,0.248,1.114,0.248,1.697c0,0.608-0.087,1.196-0.262,1.764s-0.435,1.07-0.78,1.508
		c-0.346,0.438-0.773,0.789-1.284,1.056c-0.511,0.266-1.102,0.399-1.774,0.399c-0.723,0-1.361-0.145-1.916-0.433
		c-0.555-0.289-1.022-0.669-1.403-1.142c-0.38-0.472-0.669-1.013-0.865-1.621s-0.298-1.236-0.304-1.883v-1.227
		c0-0.66,0.051-1.312,0.152-1.955c0.101-0.643,0.26-1.253,0.475-1.83c0.216-0.577,0.495-1.112,0.837-1.607
		c0.342-0.494,0.758-0.921,1.246-1.279c0.488-0.357,1.055-0.64,1.702-0.846c0.646-0.206,1.382-0.312,2.206-0.319H513.713z
		 M511.345,599.752c-0.361,0-0.715,0.057-1.06,0.171c-0.346,0.114-0.665,0.272-0.956,0.476s-0.547,0.448-0.766,0.736
		c-0.218,0.289-0.382,0.607-0.49,0.956v0.903c0,0.596,0.083,1.146,0.248,1.65c0.165,0.504,0.395,0.937,0.689,1.298
		s0.646,0.644,1.056,0.847c0.409,0.202,0.857,0.301,1.345,0.294c0.482,0,0.908-0.104,1.279-0.313s0.682-0.486,0.932-0.832
		c0.25-0.346,0.44-0.741,0.57-1.188s0.195-0.908,0.195-1.384s-0.065-0.931-0.195-1.364c-0.13-0.435-0.323-0.818-0.58-1.151
		s-0.574-0.599-0.951-0.799C512.285,599.852,511.846,599.752,511.345,599.752z"/>
	<path d="M527.417,602.386c0,0.773-0.086,1.504-0.257,2.192c-0.171,0.688-0.435,1.288-0.79,1.802s-0.805,0.921-1.35,1.222
		c-0.545,0.301-1.195,0.452-1.95,0.452c-0.748,0-1.396-0.151-1.945-0.452s-1.001-0.708-1.36-1.222
		c-0.358-0.514-0.625-1.114-0.799-1.802c-0.174-0.688-0.265-1.419-0.271-2.192v-2.882c0.006-0.773,0.095-1.504,0.267-2.191
		c0.171-0.688,0.436-1.292,0.794-1.812c0.358-0.521,0.81-0.931,1.355-1.231c0.545-0.302,1.192-0.452,1.94-0.452
		c0.754,0,1.406,0.15,1.954,0.452c0.548,0.301,1,0.71,1.355,1.227c0.355,0.517,0.62,1.12,0.794,1.812s0.262,1.423,0.262,2.196
		V602.386z M519.837,602.557c0,0.261,0.01,0.508,0.029,0.742l6.248-5.658c-0.089-0.406-0.212-0.783-0.371-1.132
		c-0.159-0.349-0.363-0.649-0.613-0.903c-0.25-0.254-0.547-0.453-0.889-0.6c-0.343-0.146-0.739-0.219-1.189-0.219
		c-0.589,0-1.089,0.124-1.498,0.371c-0.409,0.247-0.74,0.58-0.994,0.999c-0.253,0.418-0.437,0.9-0.551,1.445
		s-0.171,1.115-0.171,1.712V602.557z M526.275,599.314c0-0.21-0.009-0.416-0.028-0.618l-6.219,5.648
		c0.095,0.394,0.225,0.758,0.39,1.094c0.165,0.336,0.371,0.626,0.618,0.87c0.248,0.244,0.539,0.436,0.875,0.575
		s0.723,0.209,1.16,0.209c0.59,0,1.089-0.125,1.498-0.375c0.409-0.251,0.739-0.585,0.989-1.004c0.25-0.418,0.433-0.9,0.547-1.445
		s0.171-1.115,0.171-1.712V599.314z"/>
	<path d="M533.541,602.661l-1.455,1.303v3.899h-1.15v-14.606h1.15v9.396l1.227-1.208l4.175-3.87h1.455l-4.593,4.336l5.068,5.953
		h-1.464L533.541,602.661z"/>
</g>
<g>
	<rect x="90.186" y="624.298" fill="none" width="76.686" height="62.079"/>
	<path d="M115.072,638.903h-8.682v-0.875l4.536-5.145c0.336-0.381,0.645-0.745,0.927-1.094c0.282-0.349,0.526-0.692,0.732-1.032
		c0.206-0.339,0.366-0.68,0.48-1.021c0.114-0.343,0.171-0.694,0.171-1.056c0-0.419-0.07-0.802-0.209-1.151
		c-0.14-0.348-0.337-0.647-0.594-0.898c-0.257-0.25-0.563-0.445-0.918-0.585c-0.355-0.139-0.751-0.209-1.188-0.209
		c-0.488,0-0.922,0.083-1.303,0.247c-0.38,0.165-0.703,0.391-0.965,0.676c-0.263,0.285-0.466,0.623-0.609,1.013
		c-0.143,0.39-0.217,0.816-0.223,1.279h-1.141c0.006-0.571,0.111-1.109,0.313-1.617c0.203-0.507,0.488-0.951,0.856-1.331
		c0.368-0.381,0.81-0.682,1.327-0.903s1.098-0.333,1.745-0.333c0.608,0,1.162,0.09,1.659,0.271c0.498,0.181,0.924,0.438,1.279,0.771
		s0.629,0.732,0.823,1.198c0.193,0.466,0.29,0.981,0.29,1.546c0,0.456-0.081,0.899-0.243,1.331
		c-0.162,0.431-0.371,0.853-0.627,1.265c-0.257,0.412-0.549,0.812-0.875,1.198c-0.327,0.387-0.651,0.764-0.975,1.132l-3.87,4.364
		h7.284V638.903z"/>
	<path d="M127.064,633.426c0,0.773-0.086,1.504-0.257,2.192c-0.171,0.688-0.435,1.288-0.79,1.802s-0.805,0.921-1.35,1.222
		c-0.545,0.301-1.195,0.452-1.95,0.452c-0.748,0-1.396-0.151-1.945-0.452s-1.001-0.708-1.36-1.222
		c-0.358-0.514-0.625-1.114-0.799-1.802c-0.174-0.688-0.265-1.419-0.271-2.192v-2.882c0.006-0.773,0.095-1.504,0.267-2.191
		c0.171-0.688,0.436-1.292,0.794-1.812c0.358-0.521,0.81-0.931,1.355-1.231c0.545-0.302,1.192-0.452,1.94-0.452
		c0.754,0,1.406,0.15,1.954,0.452c0.548,0.301,1,0.71,1.355,1.227c0.355,0.517,0.62,1.12,0.794,1.812s0.262,1.423,0.262,2.196
		V633.426z M119.484,633.597c0,0.261,0.01,0.508,0.029,0.742l6.248-5.658c-0.089-0.406-0.212-0.783-0.371-1.132
		c-0.159-0.349-0.363-0.649-0.613-0.903c-0.25-0.254-0.547-0.453-0.889-0.6c-0.343-0.146-0.739-0.219-1.189-0.219
		c-0.589,0-1.089,0.124-1.498,0.371c-0.409,0.247-0.74,0.58-0.994,0.999c-0.253,0.418-0.437,0.9-0.551,1.445
		s-0.171,1.115-0.171,1.712V633.597z M125.922,630.354c0-0.21-0.009-0.416-0.028-0.618l-6.219,5.648
		c0.095,0.394,0.225,0.758,0.39,1.094c0.165,0.336,0.371,0.626,0.618,0.87c0.248,0.244,0.539,0.436,0.875,0.575
		s0.723,0.209,1.16,0.209c0.59,0,1.089-0.125,1.498-0.375c0.409-0.251,0.739-0.585,0.989-1.004c0.25-0.418,0.433-0.9,0.547-1.445
		s0.171-1.115,0.171-1.712V630.354z"/>
	<path d="M135.584,638.903h-1.141v-12.41l-3.833,1.646v-1.075l4.812-2.006h0.162V638.903z"/>
	<path d="M144.039,631.362h1.151c0.444-0.007,0.862-0.07,1.255-0.19c0.393-0.12,0.737-0.295,1.032-0.523
		c0.295-0.228,0.528-0.507,0.699-0.836c0.171-0.33,0.257-0.71,0.257-1.142c0-0.45-0.07-0.852-0.209-1.203
		c-0.14-0.352-0.336-0.648-0.59-0.889c-0.253-0.241-0.56-0.425-0.917-0.552c-0.358-0.127-0.756-0.19-1.193-0.19
		c-0.438,0-0.84,0.068-1.208,0.204c-0.368,0.137-0.687,0.328-0.956,0.576c-0.27,0.247-0.482,0.547-0.637,0.898
		s-0.236,0.743-0.243,1.174h-1.141c0.013-0.545,0.125-1.051,0.338-1.517c0.212-0.466,0.502-0.87,0.87-1.212
		c0.367-0.343,0.805-0.61,1.312-0.804s1.062-0.29,1.665-0.29c0.589,0,1.131,0.087,1.626,0.262c0.495,0.174,0.921,0.425,1.279,0.751
		c0.358,0.326,0.637,0.728,0.837,1.203s0.3,1.018,0.3,1.626c0,0.343-0.056,0.67-0.167,0.984c-0.111,0.313-0.271,0.605-0.48,0.875
		c-0.209,0.27-0.463,0.51-0.761,0.723c-0.298,0.212-0.631,0.385-0.999,0.519c0.862,0.24,1.521,0.654,1.978,1.24
		c0.457,0.587,0.685,1.286,0.685,2.098c0,0.621-0.109,1.176-0.328,1.664s-0.52,0.9-0.904,1.236c-0.383,0.336-0.833,0.594-1.35,0.774
		s-1.073,0.271-1.669,0.271c-0.609,0-1.179-0.091-1.712-0.271c-0.532-0.181-0.999-0.44-1.398-0.779s-0.716-0.753-0.951-1.241
		c-0.235-0.488-0.358-1.04-0.371-1.654h1.132c0.013,0.456,0.104,0.868,0.276,1.235c0.171,0.368,0.404,0.682,0.699,0.942
		c0.295,0.26,0.64,0.459,1.037,0.599c0.396,0.14,0.826,0.209,1.289,0.209c0.45,0,0.867-0.063,1.25-0.19
		c0.383-0.126,0.713-0.313,0.989-0.561c0.276-0.247,0.491-0.555,0.647-0.923c0.155-0.367,0.233-0.792,0.233-1.274
		c0-0.507-0.094-0.939-0.281-1.298c-0.187-0.357-0.439-0.651-0.756-0.88c-0.317-0.228-0.688-0.396-1.113-0.504
		c-0.425-0.107-0.875-0.164-1.35-0.171h-1.151V631.362z"/>
</g>
<g>
	<rect x="13.499" y="624.298" fill="none" width="76.687" height="62.079"/>
	<path d="M38.385,638.903h-8.682v-0.875l4.536-5.145c0.336-0.381,0.645-0.745,0.927-1.094c0.282-0.349,0.526-0.692,0.732-1.032
		c0.206-0.339,0.366-0.68,0.48-1.021c0.114-0.343,0.171-0.694,0.171-1.056c0-0.419-0.07-0.802-0.209-1.151
		c-0.14-0.348-0.337-0.647-0.594-0.898c-0.257-0.25-0.563-0.445-0.918-0.585c-0.355-0.139-0.751-0.209-1.188-0.209
		c-0.488,0-0.922,0.083-1.303,0.247c-0.38,0.165-0.703,0.391-0.965,0.676c-0.263,0.285-0.466,0.623-0.609,1.013
		c-0.143,0.39-0.217,0.816-0.223,1.279h-1.141c0.006-0.571,0.111-1.109,0.313-1.617c0.203-0.507,0.488-0.951,0.856-1.331
		c0.368-0.381,0.81-0.682,1.327-0.903s1.098-0.333,1.745-0.333c0.608,0,1.162,0.09,1.659,0.271c0.498,0.181,0.924,0.438,1.279,0.771
		s0.629,0.732,0.823,1.198c0.193,0.466,0.29,0.981,0.29,1.546c0,0.456-0.081,0.899-0.243,1.331
		c-0.162,0.431-0.371,0.853-0.627,1.265c-0.257,0.412-0.549,0.812-0.875,1.198c-0.327,0.387-0.651,0.764-0.975,1.132l-3.87,4.364
		h7.284V638.903z"/>
	<path d="M50.377,633.426c0,0.773-0.086,1.504-0.257,2.192c-0.171,0.688-0.435,1.288-0.79,1.802s-0.805,0.921-1.35,1.222
		c-0.545,0.301-1.195,0.452-1.95,0.452c-0.748,0-1.396-0.151-1.945-0.452s-1.001-0.708-1.36-1.222
		c-0.358-0.514-0.625-1.114-0.799-1.802c-0.174-0.688-0.265-1.419-0.271-2.192v-2.882c0.006-0.773,0.095-1.504,0.267-2.191
		c0.171-0.688,0.436-1.292,0.794-1.812c0.358-0.521,0.81-0.931,1.355-1.231c0.545-0.302,1.192-0.452,1.94-0.452
		c0.754,0,1.406,0.15,1.954,0.452c0.548,0.301,1,0.71,1.355,1.227c0.355,0.517,0.62,1.12,0.794,1.812s0.262,1.423,0.262,2.196
		V633.426z M42.798,633.597c0,0.261,0.01,0.508,0.029,0.742l6.248-5.658c-0.089-0.406-0.212-0.783-0.371-1.132
		c-0.159-0.349-0.363-0.649-0.613-0.903c-0.25-0.254-0.547-0.453-0.889-0.6c-0.343-0.146-0.739-0.219-1.189-0.219
		c-0.589,0-1.089,0.124-1.498,0.371c-0.409,0.247-0.74,0.58-0.994,0.999c-0.253,0.418-0.437,0.9-0.551,1.445
		s-0.171,1.115-0.171,1.712V633.597z M49.236,630.354c0-0.21-0.009-0.416-0.028-0.618l-6.219,5.648
		c0.095,0.394,0.225,0.758,0.39,1.094c0.165,0.336,0.371,0.626,0.618,0.87c0.248,0.244,0.539,0.436,0.875,0.575
		s0.723,0.209,1.16,0.209c0.59,0,1.089-0.125,1.498-0.375c0.409-0.251,0.739-0.585,0.989-1.004c0.25-0.418,0.433-0.9,0.547-1.445
		s0.171-1.115,0.171-1.712V630.354z"/>
	<path d="M62.065,633.426c0,0.773-0.086,1.504-0.257,2.192c-0.171,0.688-0.435,1.288-0.79,1.802s-0.805,0.921-1.35,1.222
		c-0.545,0.301-1.195,0.452-1.95,0.452c-0.748,0-1.396-0.151-1.945-0.452s-1.001-0.708-1.36-1.222
		c-0.358-0.514-0.625-1.114-0.799-1.802c-0.174-0.688-0.265-1.419-0.271-2.192v-2.882c0.006-0.773,0.095-1.504,0.267-2.191
		c0.171-0.688,0.436-1.292,0.794-1.812c0.358-0.521,0.81-0.931,1.355-1.231c0.545-0.302,1.192-0.452,1.94-0.452
		c0.754,0,1.406,0.15,1.954,0.452c0.548,0.301,1,0.71,1.355,1.227c0.355,0.517,0.62,1.12,0.794,1.812s0.262,1.423,0.262,2.196
		V633.426z M54.485,633.597c0,0.261,0.01,0.508,0.029,0.742l6.248-5.658c-0.089-0.406-0.212-0.783-0.371-1.132
		c-0.159-0.349-0.363-0.649-0.613-0.903c-0.25-0.254-0.547-0.453-0.889-0.6c-0.343-0.146-0.739-0.219-1.189-0.219
		c-0.589,0-1.089,0.124-1.498,0.371c-0.409,0.247-0.74,0.58-0.994,0.999c-0.253,0.418-0.437,0.9-0.551,1.445
		s-0.171,1.115-0.171,1.712V633.597z M60.923,630.354c0-0.21-0.009-0.416-0.028-0.618l-6.219,5.648
		c0.095,0.394,0.225,0.758,0.39,1.094c0.165,0.336,0.371,0.626,0.618,0.87c0.248,0.244,0.539,0.436,0.875,0.575
		s0.723,0.209,1.16,0.209c0.59,0,1.089-0.125,1.498-0.375c0.409-0.251,0.739-0.585,0.989-1.004c0.25-0.418,0.433-0.9,0.547-1.445
		s0.171-1.115,0.171-1.712V630.354z"/>
	<path d="M67.162,637.98c0.97-0.006,1.786-0.156,2.449-0.451c0.662-0.295,1.201-0.692,1.617-1.193
		c0.415-0.501,0.718-1.084,0.908-1.75c0.19-0.666,0.294-1.376,0.313-2.13c-0.165,0.278-0.363,0.534-0.594,0.766
		s-0.493,0.433-0.785,0.604s-0.612,0.305-0.96,0.399s-0.726,0.143-1.131,0.143c-0.66,0-1.236-0.135-1.731-0.404
		s-0.908-0.623-1.241-1.061c-0.333-0.438-0.583-0.933-0.751-1.488c-0.168-0.555-0.252-1.117-0.252-1.688
		c0-0.621,0.09-1.222,0.271-1.802s0.447-1.097,0.799-1.551c0.352-0.453,0.788-0.815,1.308-1.089c0.52-0.272,1.122-0.412,1.807-0.418
		c0.799,0,1.476,0.157,2.03,0.471s1.008,0.73,1.36,1.25c0.352,0.521,0.609,1.111,0.771,1.774c0.162,0.662,0.242,1.339,0.242,2.03
		v1.103c0,0.634-0.042,1.259-0.128,1.874c-0.085,0.614-0.227,1.199-0.423,1.754c-0.197,0.555-0.455,1.068-0.775,1.541
		c-0.32,0.472-0.718,0.881-1.194,1.227c-0.475,0.346-1.037,0.616-1.683,0.813c-0.646,0.196-1.388,0.298-2.225,0.304h-0.257
		l0.009-1.027H67.162z M69.121,633.388c0.38,0,0.747-0.062,1.098-0.186c0.352-0.123,0.675-0.298,0.97-0.522
		c0.295-0.226,0.551-0.491,0.77-0.799s0.385-0.646,0.5-1.014v-0.58c0-0.614-0.07-1.191-0.209-1.73
		c-0.139-0.539-0.345-1.01-0.618-1.412c-0.272-0.402-0.612-0.72-1.018-0.951s-0.875-0.347-1.407-0.347
		c-0.495,0-0.932,0.109-1.312,0.328s-0.702,0.506-0.965,0.86c-0.263,0.355-0.463,0.763-0.599,1.222
		c-0.137,0.46-0.205,0.934-0.205,1.422c0,0.457,0.063,0.907,0.19,1.351c0.127,0.443,0.317,0.84,0.571,1.188s0.567,0.631,0.941,0.847
		S68.633,633.388,69.121,633.388z"/>
</g>
<g>
	<rect x="166.871" y="624.298" fill="none" width="76.687" height="62.079"/>
	<path d="M191.757,638.903h-8.682v-0.875l4.536-5.145c0.336-0.381,0.645-0.745,0.927-1.094c0.282-0.349,0.526-0.692,0.732-1.032
		c0.206-0.339,0.366-0.68,0.48-1.021c0.114-0.343,0.171-0.694,0.171-1.056c0-0.419-0.07-0.802-0.209-1.151
		c-0.14-0.348-0.337-0.647-0.594-0.898c-0.257-0.25-0.563-0.445-0.918-0.585c-0.355-0.139-0.751-0.209-1.188-0.209
		c-0.488,0-0.922,0.083-1.303,0.247c-0.38,0.165-0.703,0.391-0.965,0.676c-0.263,0.285-0.466,0.623-0.609,1.013
		c-0.143,0.39-0.217,0.816-0.223,1.279h-1.141c0.006-0.571,0.111-1.109,0.313-1.617c0.203-0.507,0.488-0.951,0.856-1.331
		c0.368-0.381,0.81-0.682,1.327-0.903s1.098-0.333,1.745-0.333c0.608,0,1.162,0.09,1.659,0.271c0.498,0.181,0.924,0.438,1.279,0.771
		s0.629,0.732,0.823,1.198c0.193,0.466,0.29,0.981,0.29,1.546c0,0.456-0.081,0.899-0.243,1.331
		c-0.162,0.431-0.371,0.853-0.627,1.265c-0.257,0.412-0.549,0.812-0.875,1.198c-0.327,0.387-0.651,0.764-0.975,1.132l-3.87,4.364
		h7.284V638.903z"/>
	<path d="M203.75,633.426c0,0.773-0.086,1.504-0.257,2.192c-0.171,0.688-0.435,1.288-0.79,1.802s-0.805,0.921-1.35,1.222
		c-0.545,0.301-1.195,0.452-1.95,0.452c-0.748,0-1.396-0.151-1.945-0.452s-1.001-0.708-1.36-1.222
		c-0.358-0.514-0.625-1.114-0.799-1.802c-0.174-0.688-0.265-1.419-0.271-2.192v-2.882c0.006-0.773,0.095-1.504,0.267-2.191
		c0.171-0.688,0.436-1.292,0.794-1.812c0.358-0.521,0.81-0.931,1.355-1.231c0.545-0.302,1.192-0.452,1.94-0.452
		c0.754,0,1.406,0.15,1.954,0.452c0.548,0.301,1,0.71,1.355,1.227c0.355,0.517,0.62,1.12,0.794,1.812s0.262,1.423,0.262,2.196
		V633.426z M196.17,633.597c0,0.261,0.01,0.508,0.029,0.742l6.248-5.658c-0.089-0.406-0.212-0.783-0.371-1.132
		c-0.159-0.349-0.363-0.649-0.613-0.903c-0.25-0.254-0.547-0.453-0.889-0.6c-0.343-0.146-0.739-0.219-1.189-0.219
		c-0.589,0-1.089,0.124-1.498,0.371c-0.409,0.247-0.74,0.58-0.994,0.999c-0.253,0.418-0.437,0.9-0.551,1.445
		s-0.171,1.115-0.171,1.712V633.597z M202.608,630.354c0-0.21-0.009-0.416-0.028-0.618l-6.219,5.648
		c0.095,0.394,0.225,0.758,0.39,1.094c0.165,0.336,0.371,0.626,0.618,0.87c0.248,0.244,0.539,0.436,0.875,0.575
		s0.723,0.209,1.16,0.209c0.59,0,1.089-0.125,1.498-0.375c0.409-0.251,0.739-0.585,0.989-1.004c0.25-0.418,0.433-0.9,0.547-1.445
		s0.171-1.115,0.171-1.712V630.354z"/>
	<path d="M212.27,638.903h-1.141v-12.41l-3.833,1.646v-1.075l4.812-2.006h0.162V638.903z"/>
	<path d="M227.191,625.714l-5.915,13.189h-1.189l5.877-12.828h-7.874v-1.018h9.101V625.714z"/>
</g>
<g>
	<rect x="242.949" y="624.298" fill="none" width="76.686" height="62.079"/>
	<path d="M267.834,638.903h-8.682v-0.875l4.536-5.145c0.336-0.381,0.645-0.745,0.927-1.094c0.282-0.349,0.526-0.692,0.732-1.032
		c0.206-0.339,0.366-0.68,0.48-1.021c0.114-0.343,0.171-0.694,0.171-1.056c0-0.419-0.07-0.802-0.209-1.151
		c-0.14-0.348-0.337-0.647-0.594-0.898c-0.257-0.25-0.563-0.445-0.918-0.585c-0.355-0.139-0.751-0.209-1.188-0.209
		c-0.488,0-0.922,0.083-1.303,0.247c-0.38,0.165-0.703,0.391-0.965,0.676c-0.263,0.285-0.466,0.623-0.609,1.013
		c-0.143,0.39-0.217,0.816-0.223,1.279h-1.141c0.006-0.571,0.111-1.109,0.313-1.617c0.203-0.507,0.488-0.951,0.856-1.331
		c0.368-0.381,0.81-0.682,1.327-0.903s1.098-0.333,1.745-0.333c0.608,0,1.162,0.09,1.659,0.271c0.498,0.181,0.924,0.438,1.279,0.771
		s0.629,0.732,0.823,1.198c0.193,0.466,0.29,0.981,0.29,1.546c0,0.456-0.081,0.899-0.243,1.331
		c-0.162,0.431-0.371,0.853-0.627,1.265c-0.257,0.412-0.549,0.812-0.875,1.198c-0.327,0.387-0.651,0.764-0.975,1.132l-3.87,4.364
		h7.284V638.903z"/>
	<path d="M279.827,633.426c0,0.773-0.086,1.504-0.257,2.192c-0.171,0.688-0.435,1.288-0.79,1.802s-0.805,0.921-1.35,1.222
		c-0.545,0.301-1.195,0.452-1.95,0.452c-0.748,0-1.396-0.151-1.945-0.452s-1.001-0.708-1.36-1.222
		c-0.358-0.514-0.625-1.114-0.799-1.802c-0.174-0.688-0.265-1.419-0.271-2.192v-2.882c0.006-0.773,0.095-1.504,0.267-2.191
		c0.171-0.688,0.436-1.292,0.794-1.812c0.358-0.521,0.81-0.931,1.355-1.231c0.545-0.302,1.192-0.452,1.94-0.452
		c0.754,0,1.406,0.15,1.954,0.452c0.548,0.301,1,0.71,1.355,1.227c0.355,0.517,0.62,1.12,0.794,1.812s0.262,1.423,0.262,2.196
		V633.426z M272.247,633.597c0,0.261,0.01,0.508,0.029,0.742l6.248-5.658c-0.089-0.406-0.212-0.783-0.371-1.132
		c-0.159-0.349-0.363-0.649-0.613-0.903c-0.25-0.254-0.547-0.453-0.889-0.6c-0.343-0.146-0.739-0.219-1.189-0.219
		c-0.589,0-1.089,0.124-1.498,0.371c-0.409,0.247-0.74,0.58-0.994,0.999c-0.253,0.418-0.437,0.9-0.551,1.445
		s-0.171,1.115-0.171,1.712V633.597z M278.685,630.354c0-0.21-0.009-0.416-0.028-0.618l-6.219,5.648
		c0.095,0.394,0.225,0.758,0.39,1.094c0.165,0.336,0.371,0.626,0.618,0.87c0.248,0.244,0.539,0.436,0.875,0.575
		s0.723,0.209,1.16,0.209c0.59,0,1.089-0.125,1.498-0.375c0.409-0.251,0.739-0.585,0.989-1.004c0.25-0.418,0.433-0.9,0.547-1.445
		s0.171-1.115,0.171-1.712V630.354z"/>
	<path d="M291.209,638.903h-8.682v-0.875l4.536-5.145c0.336-0.381,0.645-0.745,0.927-1.094c0.282-0.349,0.526-0.692,0.732-1.032
		c0.206-0.339,0.366-0.68,0.48-1.021c0.114-0.343,0.171-0.694,0.171-1.056c0-0.419-0.07-0.802-0.209-1.151
		c-0.14-0.348-0.337-0.647-0.594-0.898c-0.257-0.25-0.563-0.445-0.918-0.585c-0.355-0.139-0.751-0.209-1.188-0.209
		c-0.488,0-0.922,0.083-1.303,0.247c-0.38,0.165-0.703,0.391-0.965,0.676c-0.263,0.285-0.466,0.623-0.609,1.013
		c-0.143,0.39-0.217,0.816-0.223,1.279h-1.141c0.006-0.571,0.111-1.109,0.313-1.617c0.203-0.507,0.488-0.951,0.856-1.331
		c0.368-0.381,0.81-0.682,1.327-0.903s1.098-0.333,1.745-0.333c0.608,0,1.162,0.09,1.659,0.271c0.498,0.181,0.924,0.438,1.279,0.771
		s0.629,0.732,0.823,1.198c0.193,0.466,0.29,0.981,0.29,1.546c0,0.456-0.081,0.899-0.243,1.331
		c-0.162,0.431-0.371,0.853-0.627,1.265c-0.257,0.412-0.549,0.812-0.875,1.198c-0.327,0.387-0.651,0.764-0.975,1.132l-3.87,4.364
		h7.284V638.903z"/>
	<path d="M300.035,638.903h-1.141v-12.41l-3.833,1.646v-1.075l4.812-2.006h0.162V638.903z"/>
</g>
<g>
	<rect x="319.635" y="624.298" fill="none" width="76.687" height="62.079"/>
	<path d="M344.521,638.903h-8.682v-0.875l4.536-5.145c0.336-0.381,0.645-0.745,0.927-1.094c0.282-0.349,0.526-0.692,0.732-1.032
		c0.206-0.339,0.366-0.68,0.48-1.021c0.114-0.343,0.171-0.694,0.171-1.056c0-0.419-0.07-0.802-0.209-1.151
		c-0.14-0.348-0.337-0.647-0.594-0.898c-0.257-0.25-0.563-0.445-0.918-0.585c-0.355-0.139-0.751-0.209-1.188-0.209
		c-0.488,0-0.922,0.083-1.303,0.247c-0.38,0.165-0.703,0.391-0.965,0.676c-0.263,0.285-0.466,0.623-0.609,1.013
		c-0.143,0.39-0.217,0.816-0.223,1.279h-1.141c0.006-0.571,0.111-1.109,0.313-1.617c0.203-0.507,0.488-0.951,0.856-1.331
		c0.368-0.381,0.81-0.682,1.327-0.903s1.098-0.333,1.745-0.333c0.608,0,1.162,0.09,1.659,0.271c0.498,0.181,0.924,0.438,1.279,0.771
		s0.629,0.732,0.823,1.198c0.193,0.466,0.29,0.981,0.29,1.546c0,0.456-0.081,0.899-0.243,1.331
		c-0.162,0.431-0.371,0.853-0.627,1.265c-0.257,0.412-0.549,0.812-0.875,1.198c-0.327,0.387-0.651,0.764-0.975,1.132l-3.87,4.364
		h7.284V638.903z"/>
	<path d="M356.513,633.426c0,0.773-0.086,1.504-0.257,2.192c-0.171,0.688-0.435,1.288-0.79,1.802s-0.805,0.921-1.35,1.222
		c-0.545,0.301-1.195,0.452-1.95,0.452c-0.748,0-1.396-0.151-1.945-0.452s-1.001-0.708-1.36-1.222
		c-0.358-0.514-0.625-1.114-0.799-1.802c-0.174-0.688-0.265-1.419-0.271-2.192v-2.882c0.006-0.773,0.095-1.504,0.267-2.191
		c0.171-0.688,0.436-1.292,0.794-1.812c0.358-0.521,0.81-0.931,1.355-1.231c0.545-0.302,1.192-0.452,1.94-0.452
		c0.754,0,1.406,0.15,1.954,0.452c0.548,0.301,1,0.71,1.355,1.227c0.355,0.517,0.62,1.12,0.794,1.812s0.262,1.423,0.262,2.196
		V633.426z M348.934,633.597c0,0.261,0.01,0.508,0.029,0.742l6.248-5.658c-0.089-0.406-0.212-0.783-0.371-1.132
		c-0.159-0.349-0.363-0.649-0.613-0.903c-0.25-0.254-0.547-0.453-0.889-0.6c-0.343-0.146-0.739-0.219-1.189-0.219
		c-0.589,0-1.089,0.124-1.498,0.371c-0.409,0.247-0.74,0.58-0.994,0.999c-0.253,0.418-0.437,0.9-0.551,1.445
		s-0.171,1.115-0.171,1.712V633.597z M355.372,630.354c0-0.21-0.009-0.416-0.028-0.618l-6.219,5.648
		c0.095,0.394,0.225,0.758,0.39,1.094c0.165,0.336,0.371,0.626,0.618,0.87c0.248,0.244,0.539,0.436,0.875,0.575
		s0.723,0.209,1.16,0.209c0.59,0,1.089-0.125,1.498-0.375c0.409-0.251,0.739-0.585,0.989-1.004c0.25-0.418,0.433-0.9,0.547-1.445
		s0.171-1.115,0.171-1.712V630.354z"/>
	<path d="M367.896,638.903h-8.682v-0.875l4.536-5.145c0.336-0.381,0.645-0.745,0.927-1.094c0.282-0.349,0.526-0.692,0.732-1.032
		c0.206-0.339,0.366-0.68,0.48-1.021c0.114-0.343,0.171-0.694,0.171-1.056c0-0.419-0.07-0.802-0.209-1.151
		c-0.14-0.348-0.337-0.647-0.594-0.898c-0.257-0.25-0.563-0.445-0.918-0.585c-0.355-0.139-0.751-0.209-1.188-0.209
		c-0.488,0-0.922,0.083-1.303,0.247c-0.38,0.165-0.703,0.391-0.965,0.676c-0.263,0.285-0.466,0.623-0.609,1.013
		c-0.143,0.39-0.217,0.816-0.223,1.279h-1.141c0.006-0.571,0.111-1.109,0.313-1.617c0.203-0.507,0.488-0.951,0.856-1.331
		c0.368-0.381,0.81-0.682,1.327-0.903s1.098-0.333,1.745-0.333c0.608,0,1.162,0.09,1.659,0.271c0.498,0.181,0.924,0.438,1.279,0.771
		s0.629,0.732,0.823,1.198c0.193,0.466,0.29,0.981,0.29,1.546c0,0.456-0.081,0.899-0.243,1.331
		c-0.162,0.431-0.371,0.853-0.627,1.265c-0.257,0.412-0.549,0.812-0.875,1.198c-0.327,0.387-0.651,0.764-0.975,1.132l-3.87,4.364
		h7.284V638.903z"/>
	<path d="M372.138,631.81l0.675-6.752h6.923v1.103h-5.953l-0.476,4.632c0.342-0.235,0.735-0.42,1.179-0.557s0.919-0.204,1.427-0.204
		c0.627,0,1.195,0.109,1.702,0.327c0.507,0.219,0.938,0.526,1.293,0.923s0.628,0.869,0.818,1.417
		c0.19,0.549,0.286,1.146,0.286,1.793c0,0.64-0.083,1.239-0.248,1.797c-0.165,0.558-0.417,1.045-0.756,1.46
		c-0.339,0.415-0.767,0.743-1.284,0.984c-0.517,0.24-1.127,0.361-1.831,0.361c-0.577,0-1.111-0.086-1.603-0.257
		s-0.922-0.422-1.293-0.751c-0.371-0.33-0.672-0.732-0.903-1.208s-0.379-1.015-0.442-1.617h1.104
		c0.057,0.45,0.168,0.854,0.333,1.208c0.165,0.355,0.38,0.656,0.647,0.903c0.266,0.247,0.58,0.437,0.941,0.566
		s0.767,0.194,1.217,0.194c0.507,0,0.948-0.092,1.322-0.275s0.685-0.439,0.932-0.766c0.248-0.326,0.43-0.71,0.547-1.15
		s0.176-0.918,0.176-1.432c0-0.481-0.071-0.932-0.214-1.351c-0.143-0.418-0.35-0.782-0.623-1.094
		c-0.273-0.311-0.604-0.555-0.994-0.731c-0.39-0.178-0.832-0.267-1.326-0.267c-0.292,0-0.56,0.019-0.804,0.057
		s-0.472,0.101-0.685,0.186c-0.213,0.086-0.416,0.19-0.609,0.314c-0.193,0.123-0.385,0.271-0.575,0.441L372.138,631.81z"/>
</g>
<g>
	<rect x="396.321" y="624.298" fill="none" width="76.686" height="62.079"/>
	<path d="M421.207,638.903h-8.682v-0.875l4.536-5.145c0.336-0.381,0.645-0.745,0.927-1.094c0.282-0.349,0.526-0.692,0.732-1.032
		c0.206-0.339,0.366-0.68,0.48-1.021c0.114-0.343,0.171-0.694,0.171-1.056c0-0.419-0.07-0.802-0.209-1.151
		c-0.14-0.348-0.337-0.647-0.594-0.898c-0.257-0.25-0.563-0.445-0.918-0.585c-0.355-0.139-0.751-0.209-1.188-0.209
		c-0.488,0-0.922,0.083-1.303,0.247c-0.38,0.165-0.703,0.391-0.965,0.676c-0.263,0.285-0.466,0.623-0.609,1.013
		c-0.143,0.39-0.217,0.816-0.223,1.279h-1.141c0.006-0.571,0.111-1.109,0.313-1.617c0.203-0.507,0.488-0.951,0.856-1.331
		c0.368-0.381,0.81-0.682,1.327-0.903s1.098-0.333,1.745-0.333c0.608,0,1.162,0.09,1.659,0.271c0.498,0.181,0.924,0.438,1.279,0.771
		s0.629,0.732,0.823,1.198c0.193,0.466,0.29,0.981,0.29,1.546c0,0.456-0.081,0.899-0.243,1.331
		c-0.162,0.431-0.371,0.853-0.627,1.265c-0.257,0.412-0.549,0.812-0.875,1.198c-0.327,0.387-0.651,0.764-0.975,1.132l-3.87,4.364
		h7.284V638.903z"/>
	<path d="M433.199,633.426c0,0.773-0.086,1.504-0.257,2.192c-0.171,0.688-0.435,1.288-0.79,1.802s-0.805,0.921-1.35,1.222
		c-0.545,0.301-1.195,0.452-1.95,0.452c-0.748,0-1.396-0.151-1.945-0.452s-1.001-0.708-1.36-1.222
		c-0.358-0.514-0.625-1.114-0.799-1.802c-0.174-0.688-0.265-1.419-0.271-2.192v-2.882c0.006-0.773,0.095-1.504,0.267-2.191
		c0.171-0.688,0.436-1.292,0.794-1.812c0.358-0.521,0.81-0.931,1.355-1.231c0.545-0.302,1.192-0.452,1.94-0.452
		c0.754,0,1.406,0.15,1.954,0.452c0.548,0.301,1,0.71,1.355,1.227c0.355,0.517,0.62,1.12,0.794,1.812s0.262,1.423,0.262,2.196
		V633.426z M425.619,633.597c0,0.261,0.01,0.508,0.029,0.742l6.248-5.658c-0.089-0.406-0.212-0.783-0.371-1.132
		c-0.159-0.349-0.363-0.649-0.613-0.903c-0.25-0.254-0.547-0.453-0.889-0.6c-0.343-0.146-0.739-0.219-1.189-0.219
		c-0.589,0-1.089,0.124-1.498,0.371c-0.409,0.247-0.74,0.58-0.994,0.999c-0.253,0.418-0.437,0.9-0.551,1.445
		s-0.171,1.115-0.171,1.712V633.597z M432.057,630.354c0-0.21-0.009-0.416-0.028-0.618l-6.219,5.648
		c0.095,0.394,0.225,0.758,0.39,1.094c0.165,0.336,0.371,0.626,0.618,0.87c0.248,0.244,0.539,0.436,0.875,0.575
		s0.723,0.209,1.16,0.209c0.59,0,1.089-0.125,1.498-0.375c0.409-0.251,0.739-0.585,0.989-1.004c0.25-0.418,0.433-0.9,0.547-1.445
		s0.171-1.115,0.171-1.712V630.354z"/>
	<path d="M444.582,638.903h-8.682v-0.875l4.536-5.145c0.336-0.381,0.645-0.745,0.927-1.094c0.282-0.349,0.526-0.692,0.732-1.032
		c0.206-0.339,0.366-0.68,0.48-1.021c0.114-0.343,0.171-0.694,0.171-1.056c0-0.419-0.07-0.802-0.209-1.151
		c-0.14-0.348-0.337-0.647-0.594-0.898c-0.257-0.25-0.563-0.445-0.918-0.585c-0.355-0.139-0.751-0.209-1.188-0.209
		c-0.488,0-0.922,0.083-1.303,0.247c-0.38,0.165-0.703,0.391-0.965,0.676c-0.263,0.285-0.466,0.623-0.609,1.013
		c-0.143,0.39-0.217,0.816-0.223,1.279h-1.141c0.006-0.571,0.111-1.109,0.313-1.617c0.203-0.507,0.488-0.951,0.856-1.331
		c0.368-0.381,0.81-0.682,1.327-0.903s1.098-0.333,1.745-0.333c0.608,0,1.162,0.09,1.659,0.271c0.498,0.181,0.924,0.438,1.279,0.771
		s0.629,0.732,0.823,1.198c0.193,0.466,0.29,0.981,0.29,1.546c0,0.456-0.081,0.899-0.243,1.331
		c-0.162,0.431-0.371,0.853-0.627,1.265c-0.257,0.412-0.549,0.812-0.875,1.198c-0.327,0.387-0.651,0.764-0.975,1.132l-3.87,4.364
		h7.284V638.903z"/>
	<path d="M449.983,637.98c0.97-0.006,1.786-0.156,2.449-0.451c0.662-0.295,1.201-0.692,1.617-1.193
		c0.415-0.501,0.718-1.084,0.908-1.75c0.19-0.666,0.294-1.376,0.313-2.13c-0.165,0.278-0.363,0.534-0.594,0.766
		s-0.493,0.433-0.785,0.604s-0.612,0.305-0.96,0.399s-0.726,0.143-1.131,0.143c-0.66,0-1.236-0.135-1.731-0.404
		s-0.908-0.623-1.241-1.061c-0.333-0.438-0.583-0.933-0.751-1.488c-0.168-0.555-0.252-1.117-0.252-1.688
		c0-0.621,0.09-1.222,0.271-1.802s0.447-1.097,0.799-1.551c0.352-0.453,0.788-0.815,1.308-1.089c0.52-0.272,1.122-0.412,1.807-0.418
		c0.799,0,1.476,0.157,2.03,0.471s1.008,0.73,1.36,1.25c0.352,0.521,0.609,1.111,0.771,1.774c0.162,0.662,0.242,1.339,0.242,2.03
		v1.103c0,0.634-0.042,1.259-0.128,1.874c-0.085,0.614-0.227,1.199-0.423,1.754c-0.197,0.555-0.455,1.068-0.775,1.541
		c-0.32,0.472-0.718,0.881-1.194,1.227c-0.475,0.346-1.037,0.616-1.683,0.813c-0.646,0.196-1.388,0.298-2.225,0.304h-0.257
		l0.009-1.027H449.983z M451.942,633.388c0.38,0,0.747-0.062,1.098-0.186c0.352-0.123,0.675-0.298,0.97-0.522
		c0.295-0.226,0.551-0.491,0.77-0.799s0.385-0.646,0.5-1.014v-0.58c0-0.614-0.07-1.191-0.209-1.73
		c-0.139-0.539-0.345-1.01-0.618-1.412c-0.272-0.402-0.612-0.72-1.018-0.951s-0.875-0.347-1.407-0.347
		c-0.495,0-0.932,0.109-1.312,0.328s-0.702,0.506-0.965,0.86c-0.263,0.355-0.463,0.763-0.599,1.222
		c-0.137,0.46-0.205,0.934-0.205,1.422c0,0.457,0.063,0.907,0.19,1.351c0.127,0.443,0.317,0.84,0.571,1.188s0.567,0.631,0.941,0.847
		S451.454,633.388,451.942,633.388z"/>
</g>
<g>
	<rect x="473.007" y="624.298" fill="none" width="76.687" height="62.079"/>
	<path d="M497.893,638.903h-8.682v-0.875l4.536-5.145c0.336-0.381,0.645-0.745,0.927-1.094c0.282-0.349,0.526-0.692,0.732-1.032
		c0.206-0.339,0.366-0.68,0.48-1.021c0.114-0.343,0.171-0.694,0.171-1.056c0-0.419-0.07-0.802-0.209-1.151
		c-0.14-0.348-0.337-0.647-0.594-0.898c-0.257-0.25-0.563-0.445-0.918-0.585c-0.355-0.139-0.751-0.209-1.188-0.209
		c-0.488,0-0.922,0.083-1.303,0.247c-0.38,0.165-0.703,0.391-0.965,0.676c-0.263,0.285-0.466,0.623-0.609,1.013
		c-0.143,0.39-0.217,0.816-0.223,1.279h-1.141c0.006-0.571,0.111-1.109,0.313-1.617c0.203-0.507,0.488-0.951,0.856-1.331
		c0.368-0.381,0.81-0.682,1.327-0.903s1.098-0.333,1.745-0.333c0.608,0,1.162,0.09,1.659,0.271c0.498,0.181,0.924,0.438,1.279,0.771
		s0.629,0.732,0.823,1.198c0.193,0.466,0.29,0.981,0.29,1.546c0,0.456-0.081,0.899-0.243,1.331
		c-0.162,0.431-0.371,0.853-0.627,1.265c-0.257,0.412-0.549,0.812-0.875,1.198c-0.327,0.387-0.651,0.764-0.975,1.132l-3.87,4.364
		h7.284V638.903z"/>
	<path d="M509.885,633.426c0,0.773-0.086,1.504-0.257,2.192c-0.171,0.688-0.435,1.288-0.79,1.802s-0.805,0.921-1.35,1.222
		c-0.545,0.301-1.195,0.452-1.95,0.452c-0.748,0-1.396-0.151-1.945-0.452s-1.001-0.708-1.36-1.222
		c-0.358-0.514-0.625-1.114-0.799-1.802c-0.174-0.688-0.265-1.419-0.271-2.192v-2.882c0.006-0.773,0.095-1.504,0.267-2.191
		c0.171-0.688,0.436-1.292,0.794-1.812c0.358-0.521,0.81-0.931,1.355-1.231c0.545-0.302,1.192-0.452,1.94-0.452
		c0.754,0,1.406,0.15,1.954,0.452c0.548,0.301,1,0.71,1.355,1.227c0.355,0.517,0.62,1.12,0.794,1.812s0.262,1.423,0.262,2.196
		V633.426z M502.306,633.597c0,0.261,0.01,0.508,0.029,0.742l6.248-5.658c-0.089-0.406-0.212-0.783-0.371-1.132
		c-0.159-0.349-0.363-0.649-0.613-0.903c-0.25-0.254-0.547-0.453-0.889-0.6c-0.343-0.146-0.739-0.219-1.189-0.219
		c-0.589,0-1.089,0.124-1.498,0.371c-0.409,0.247-0.74,0.58-0.994,0.999c-0.253,0.418-0.437,0.9-0.551,1.445
		s-0.171,1.115-0.171,1.712V633.597z M508.744,630.354c0-0.21-0.009-0.416-0.028-0.618l-6.219,5.648
		c0.095,0.394,0.225,0.758,0.39,1.094c0.165,0.336,0.371,0.626,0.618,0.87c0.248,0.244,0.539,0.436,0.875,0.575
		s0.723,0.209,1.16,0.209c0.59,0,1.089-0.125,1.498-0.375c0.409-0.251,0.739-0.585,0.989-1.004c0.25-0.418,0.433-0.9,0.547-1.445
		s0.171-1.115,0.171-1.712V630.354z"/>
	<path d="M515.172,631.362h1.151c0.444-0.007,0.862-0.07,1.255-0.19c0.393-0.12,0.737-0.295,1.032-0.523
		c0.295-0.228,0.528-0.507,0.699-0.836c0.171-0.33,0.257-0.71,0.257-1.142c0-0.45-0.07-0.852-0.209-1.203
		c-0.14-0.352-0.336-0.648-0.59-0.889c-0.253-0.241-0.56-0.425-0.917-0.552c-0.358-0.127-0.756-0.19-1.193-0.19
		c-0.438,0-0.84,0.068-1.208,0.204c-0.368,0.137-0.687,0.328-0.956,0.576c-0.27,0.247-0.482,0.547-0.637,0.898
		s-0.236,0.743-0.243,1.174h-1.141c0.013-0.545,0.125-1.051,0.338-1.517c0.212-0.466,0.502-0.87,0.87-1.212
		c0.367-0.343,0.805-0.61,1.312-0.804s1.062-0.29,1.665-0.29c0.589,0,1.131,0.087,1.626,0.262c0.495,0.174,0.921,0.425,1.279,0.751
		c0.358,0.326,0.637,0.728,0.837,1.203s0.3,1.018,0.3,1.626c0,0.343-0.056,0.67-0.167,0.984c-0.111,0.313-0.271,0.605-0.48,0.875
		c-0.209,0.27-0.463,0.51-0.761,0.723c-0.298,0.212-0.631,0.385-0.999,0.519c0.862,0.24,1.521,0.654,1.978,1.24
		c0.457,0.587,0.685,1.286,0.685,2.098c0,0.621-0.109,1.176-0.328,1.664s-0.52,0.9-0.904,1.236c-0.383,0.336-0.833,0.594-1.35,0.774
		s-1.073,0.271-1.669,0.271c-0.609,0-1.179-0.091-1.712-0.271c-0.532-0.181-0.999-0.44-1.398-0.779s-0.716-0.753-0.951-1.241
		c-0.235-0.488-0.358-1.04-0.371-1.654h1.132c0.013,0.456,0.104,0.868,0.276,1.235c0.171,0.368,0.404,0.682,0.699,0.942
		c0.295,0.26,0.64,0.459,1.037,0.599c0.396,0.14,0.826,0.209,1.289,0.209c0.45,0,0.867-0.063,1.25-0.19
		c0.383-0.126,0.713-0.313,0.989-0.561c0.276-0.247,0.491-0.555,0.647-0.923c0.155-0.367,0.233-0.792,0.233-1.274
		c0-0.507-0.094-0.939-0.281-1.298c-0.187-0.357-0.439-0.651-0.756-0.88c-0.317-0.228-0.688-0.396-1.113-0.504
		c-0.425-0.107-0.875-0.164-1.35-0.171h-1.151V631.362z"/>
	<path d="M526.86,631.362h1.151c0.444-0.007,0.862-0.07,1.255-0.19c0.393-0.12,0.737-0.295,1.032-0.523
		c0.295-0.228,0.528-0.507,0.699-0.836c0.171-0.33,0.257-0.71,0.257-1.142c0-0.45-0.07-0.852-0.209-1.203
		c-0.14-0.352-0.336-0.648-0.59-0.889c-0.253-0.241-0.56-0.425-0.917-0.552c-0.358-0.127-0.756-0.19-1.193-0.19
		c-0.438,0-0.84,0.068-1.208,0.204c-0.368,0.137-0.687,0.328-0.956,0.576c-0.27,0.247-0.482,0.547-0.637,0.898
		s-0.236,0.743-0.243,1.174h-1.141c0.013-0.545,0.125-1.051,0.338-1.517c0.212-0.466,0.502-0.87,0.87-1.212
		c0.367-0.343,0.805-0.61,1.312-0.804s1.062-0.29,1.665-0.29c0.589,0,1.131,0.087,1.626,0.262c0.495,0.174,0.921,0.425,1.279,0.751
		c0.358,0.326,0.637,0.728,0.837,1.203s0.3,1.018,0.3,1.626c0,0.343-0.056,0.67-0.167,0.984c-0.111,0.313-0.271,0.605-0.48,0.875
		c-0.209,0.27-0.463,0.51-0.761,0.723c-0.298,0.212-0.631,0.385-0.999,0.519c0.862,0.24,1.521,0.654,1.978,1.24
		c0.457,0.587,0.685,1.286,0.685,2.098c0,0.621-0.109,1.176-0.328,1.664s-0.52,0.9-0.904,1.236c-0.383,0.336-0.833,0.594-1.35,0.774
		s-1.073,0.271-1.669,0.271c-0.609,0-1.179-0.091-1.712-0.271c-0.532-0.181-0.999-0.44-1.398-0.779s-0.716-0.753-0.951-1.241
		c-0.235-0.488-0.358-1.04-0.371-1.654h1.132c0.013,0.456,0.104,0.868,0.276,1.235c0.171,0.368,0.404,0.682,0.699,0.942
		c0.295,0.26,0.64,0.459,1.037,0.599c0.396,0.14,0.826,0.209,1.289,0.209c0.45,0,0.867-0.063,1.25-0.19
		c0.383-0.126,0.713-0.313,0.989-0.561c0.276-0.247,0.491-0.555,0.647-0.923c0.155-0.367,0.233-0.792,0.233-1.274
		c0-0.507-0.094-0.939-0.281-1.298c-0.187-0.357-0.439-0.651-0.756-0.88c-0.317-0.228-0.688-0.396-1.113-0.504
		c-0.425-0.107-0.875-0.164-1.35-0.171h-1.151V631.362z"/>
</g>
<g>
	<rect x="204.605" y="525.179" fill="none" width="76.687" height="31.039"/>
	<path d="M229.872,539.784h-9.3v-1.569l4.507-4.916c0.381-0.425,0.699-0.801,0.956-1.127s0.461-0.626,0.613-0.898
		s0.26-0.526,0.323-0.761c0.063-0.235,0.095-0.473,0.095-0.714c0-0.316-0.049-0.61-0.147-0.88c-0.098-0.269-0.238-0.5-0.418-0.693
		s-0.399-0.345-0.656-0.452s-0.543-0.162-0.86-0.162c-0.824,0-1.431,0.226-1.821,0.676c-0.39,0.45-0.585,1.071-0.585,1.863h-2.282
		c0-0.602,0.109-1.171,0.328-1.706c0.219-0.536,0.533-1.004,0.941-1.403c0.409-0.399,0.905-0.715,1.488-0.946
		s1.239-0.347,1.969-0.347c0.685,0,1.293,0.099,1.826,0.295s0.982,0.471,1.351,0.822c0.367,0.352,0.646,0.769,0.836,1.251
		c0.19,0.481,0.286,1.011,0.286,1.588c0,0.431-0.07,0.848-0.209,1.25c-0.139,0.403-0.333,0.804-0.58,1.203
		c-0.247,0.399-0.542,0.801-0.884,1.203s-0.713,0.816-1.113,1.241l-3.138,3.366h6.476V539.784z"/>
	<path d="M241.56,539.784h-9.3v-1.569l4.507-4.916c0.381-0.425,0.699-0.801,0.956-1.127s0.461-0.626,0.613-0.898
		s0.26-0.526,0.323-0.761c0.063-0.235,0.095-0.473,0.095-0.714c0-0.316-0.049-0.61-0.147-0.88c-0.098-0.269-0.238-0.5-0.418-0.693
		s-0.399-0.345-0.656-0.452s-0.543-0.162-0.86-0.162c-0.824,0-1.431,0.226-1.821,0.676c-0.39,0.45-0.585,1.071-0.585,1.863h-2.282
		c0-0.602,0.109-1.171,0.328-1.706c0.219-0.536,0.533-1.004,0.941-1.403c0.409-0.399,0.905-0.715,1.488-0.946
		s1.239-0.347,1.969-0.347c0.685,0,1.293,0.099,1.826,0.295s0.982,0.471,1.351,0.822c0.367,0.352,0.646,0.769,0.836,1.251
		c0.19,0.481,0.286,1.011,0.286,1.588c0,0.431-0.07,0.848-0.209,1.25c-0.139,0.403-0.333,0.804-0.58,1.203
		c-0.247,0.399-0.542,0.801-0.884,1.203s-0.713,0.816-1.113,1.241l-3.138,3.366h6.476V539.784z"/>
	<path d="M247.266,538.424c0-0.222,0.037-0.431,0.109-0.627s0.179-0.366,0.318-0.509c0.14-0.143,0.312-0.255,0.519-0.338
		c0.206-0.082,0.442-0.123,0.708-0.123c0.266,0,0.502,0.041,0.708,0.123c0.206,0.083,0.38,0.195,0.523,0.338s0.25,0.312,0.323,0.509
		s0.109,0.405,0.109,0.627c0,0.223-0.037,0.427-0.109,0.614c-0.073,0.187-0.181,0.35-0.323,0.489s-0.317,0.249-0.523,0.328
		s-0.442,0.119-0.708,0.119c-0.267,0-0.502-0.04-0.708-0.119s-0.379-0.188-0.519-0.328c-0.139-0.14-0.246-0.303-0.318-0.489
		C247.302,538.851,247.266,538.646,247.266,538.424z"/>
	<path d="M256.49,532.918l0.751-6.979h7.408v2.035h-5.525l-0.352,3.28c0.222-0.127,0.517-0.25,0.884-0.371
		c0.368-0.12,0.792-0.181,1.274-0.181c0.653,0,1.238,0.108,1.754,0.323c0.517,0.216,0.953,0.525,1.308,0.928
		s0.628,0.891,0.818,1.464c0.19,0.574,0.285,1.223,0.285,1.945c0,0.641-0.09,1.241-0.271,1.802c-0.181,0.562-0.456,1.05-0.827,1.465
		s-0.838,0.743-1.403,0.984c-0.564,0.24-1.23,0.361-1.997,0.361c-0.577,0-1.13-0.084-1.659-0.252s-1-0.415-1.412-0.742
		c-0.413-0.326-0.75-0.733-1.013-1.222c-0.263-0.488-0.414-1.056-0.452-1.702h2.197c0.089,0.685,0.339,1.206,0.751,1.564
		c0.412,0.357,0.941,0.537,1.588,0.537c0.374,0,0.701-0.07,0.979-0.209c0.279-0.14,0.51-0.335,0.694-0.585
		c0.184-0.251,0.322-0.552,0.414-0.903c0.092-0.353,0.138-0.737,0.138-1.156c0-0.399-0.052-0.767-0.157-1.103
		c-0.104-0.336-0.261-0.626-0.471-0.87c-0.209-0.244-0.469-0.436-0.78-0.575s-0.669-0.21-1.075-0.21
		c-0.272,0-0.507,0.021-0.704,0.062c-0.196,0.041-0.373,0.098-0.528,0.171s-0.296,0.16-0.423,0.262
		c-0.127,0.102-0.254,0.209-0.38,0.323L256.49,532.918z"/>
</g>
<g>
	<rect x="281.292" y="542.22" fill="none" width="76.686" height="31.039"/>
	<path d="M298.043,556.826h-2.292v-11.041l-3.538,1.294v-1.997l5.687-2.102h0.143V556.826z"/>
	<path d="M309.73,556.826h-2.292v-11.041l-3.538,1.294v-1.997l5.687-2.102h0.143V556.826z"/>
	<path d="M318.108,555.466c0-0.222,0.037-0.431,0.109-0.627s0.179-0.366,0.318-0.509c0.14-0.143,0.312-0.255,0.519-0.338
		c0.206-0.082,0.442-0.123,0.708-0.123c0.266,0,0.502,0.041,0.708,0.123c0.206,0.083,0.38,0.195,0.523,0.338s0.25,0.312,0.323,0.509
		s0.109,0.405,0.109,0.627c0,0.223-0.037,0.427-0.109,0.614c-0.073,0.187-0.181,0.35-0.323,0.489s-0.317,0.249-0.523,0.328
		s-0.442,0.119-0.708,0.119c-0.267,0-0.502-0.04-0.708-0.119s-0.379-0.188-0.519-0.328c-0.139-0.14-0.246-0.303-0.318-0.489
		C318.145,555.893,318.108,555.688,318.108,555.466z"/>
	<path d="M335.777,556.826h-9.3v-1.569l4.507-4.916c0.381-0.425,0.699-0.801,0.956-1.127s0.461-0.626,0.613-0.898
		s0.26-0.526,0.323-0.761c0.063-0.235,0.095-0.473,0.095-0.714c0-0.316-0.049-0.61-0.147-0.88c-0.098-0.269-0.238-0.5-0.418-0.693
		s-0.399-0.345-0.656-0.452s-0.543-0.162-0.86-0.162c-0.824,0-1.431,0.226-1.821,0.676c-0.39,0.45-0.585,1.071-0.585,1.863h-2.282
		c0-0.602,0.109-1.171,0.328-1.706c0.219-0.536,0.533-1.004,0.941-1.403c0.409-0.399,0.905-0.715,1.488-0.946
		s1.239-0.347,1.969-0.347c0.685,0,1.293,0.099,1.826,0.295s0.982,0.471,1.351,0.822c0.367,0.352,0.646,0.769,0.836,1.251
		c0.19,0.481,0.286,1.011,0.286,1.588c0,0.431-0.07,0.848-0.209,1.25c-0.139,0.403-0.333,0.804-0.58,1.203
		c-0.247,0.399-0.542,0.801-0.884,1.203s-0.713,0.816-1.113,1.241l-3.138,3.366h6.476V556.826z"/>
	<path d="M339.021,549.96l0.751-6.979h7.408v2.035h-5.525l-0.352,3.28c0.222-0.127,0.517-0.25,0.884-0.371
		c0.368-0.12,0.792-0.181,1.274-0.181c0.653,0,1.238,0.108,1.754,0.323c0.517,0.216,0.953,0.525,1.308,0.928
		s0.628,0.891,0.818,1.464c0.19,0.574,0.285,1.223,0.285,1.945c0,0.641-0.09,1.241-0.271,1.802c-0.181,0.562-0.456,1.05-0.827,1.465
		s-0.838,0.743-1.403,0.984c-0.564,0.24-1.23,0.361-1.997,0.361c-0.577,0-1.13-0.084-1.659-0.252s-1-0.415-1.412-0.742
		c-0.413-0.326-0.75-0.733-1.013-1.222c-0.263-0.488-0.414-1.056-0.452-1.702h2.197c0.089,0.685,0.339,1.206,0.751,1.564
		c0.412,0.357,0.941,0.537,1.588,0.537c0.374,0,0.701-0.07,0.979-0.209c0.279-0.14,0.51-0.335,0.694-0.585
		c0.184-0.251,0.322-0.552,0.414-0.903c0.092-0.353,0.138-0.737,0.138-1.156c0-0.399-0.052-0.767-0.157-1.103
		c-0.104-0.336-0.261-0.626-0.471-0.87c-0.209-0.244-0.469-0.436-0.78-0.575s-0.669-0.21-1.075-0.21
		c-0.272,0-0.507,0.021-0.704,0.062c-0.196,0.041-0.373,0.098-0.528,0.171s-0.296,0.16-0.423,0.262
		c-0.127,0.102-0.254,0.209-0.38,0.323L339.021,549.96z"/>
</g>
<g>
	<rect x="357.978" y="525.179" fill="none" width="76.687" height="62.079"/>
	<path d="M380.644,532.918l0.751-6.979h7.408v2.035h-5.525l-0.352,3.28c0.222-0.127,0.517-0.25,0.884-0.371
		c0.368-0.12,0.792-0.181,1.274-0.181c0.653,0,1.238,0.108,1.754,0.323c0.517,0.216,0.953,0.525,1.308,0.928
		s0.628,0.891,0.818,1.464c0.19,0.574,0.285,1.223,0.285,1.945c0,0.641-0.09,1.241-0.271,1.802c-0.181,0.562-0.456,1.05-0.827,1.465
		s-0.838,0.743-1.403,0.984c-0.564,0.24-1.23,0.361-1.997,0.361c-0.577,0-1.13-0.084-1.659-0.252s-1-0.415-1.412-0.742
		c-0.413-0.326-0.75-0.733-1.013-1.222c-0.263-0.488-0.414-1.056-0.452-1.702h2.197c0.089,0.685,0.339,1.206,0.751,1.564
		c0.412,0.357,0.941,0.537,1.588,0.537c0.374,0,0.701-0.07,0.979-0.209c0.279-0.14,0.51-0.335,0.694-0.585
		c0.184-0.251,0.322-0.552,0.414-0.903c0.092-0.353,0.138-0.737,0.138-1.156c0-0.399-0.052-0.767-0.157-1.103
		c-0.104-0.336-0.261-0.626-0.471-0.87c-0.209-0.244-0.469-0.436-0.78-0.575s-0.669-0.21-1.075-0.21
		c-0.272,0-0.507,0.021-0.704,0.062c-0.196,0.041-0.373,0.098-0.528,0.171s-0.296,0.16-0.423,0.262
		c-0.127,0.102-0.254,0.209-0.38,0.323L380.644,532.918z"/>
	<path d="M394.794,538.424c0-0.222,0.037-0.431,0.109-0.627s0.179-0.366,0.318-0.509c0.14-0.143,0.312-0.255,0.519-0.338
		c0.206-0.082,0.442-0.123,0.708-0.123c0.266,0,0.502,0.041,0.708,0.123c0.206,0.083,0.38,0.195,0.523,0.338s0.25,0.312,0.323,0.509
		s0.109,0.405,0.109,0.627c0,0.223-0.037,0.427-0.109,0.614c-0.073,0.187-0.181,0.35-0.323,0.489s-0.317,0.249-0.523,0.328
		s-0.442,0.119-0.708,0.119c-0.267,0-0.502-0.04-0.708-0.119s-0.379-0.188-0.519-0.328c-0.139-0.14-0.246-0.303-0.318-0.489
		C394.831,538.851,394.794,538.646,394.794,538.424z"/>
	<path d="M410.409,525.881v1.94h-0.152c-0.78,0-1.45,0.109-2.011,0.328s-1.027,0.515-1.398,0.889
		c-0.371,0.374-0.653,0.811-0.847,1.308c-0.193,0.498-0.315,1.028-0.366,1.593c0.152-0.171,0.326-0.334,0.523-0.489
		c0.196-0.155,0.415-0.295,0.656-0.419c0.241-0.123,0.5-0.222,0.78-0.295c0.279-0.072,0.577-0.109,0.894-0.109
		c0.679,0,1.267,0.131,1.764,0.391s0.908,0.604,1.231,1.031s0.564,0.92,0.723,1.475c0.159,0.555,0.238,1.13,0.238,1.726
		c0,0.666-0.1,1.285-0.299,1.859c-0.2,0.573-0.49,1.073-0.87,1.497c-0.38,0.426-0.85,0.76-1.408,1.004
		c-0.558,0.244-1.192,0.366-1.902,0.366c-0.754,0-1.42-0.149-1.997-0.447c-0.577-0.298-1.06-0.695-1.45-1.193
		c-0.39-0.498-0.686-1.073-0.889-1.726c-0.203-0.653-0.304-1.338-0.304-2.055v-0.884c0-0.679,0.051-1.343,0.152-1.993
		c0.101-0.649,0.265-1.263,0.49-1.84c0.225-0.577,0.517-1.107,0.875-1.593c0.358-0.485,0.79-0.901,1.293-1.25
		s1.089-0.622,1.754-0.818c0.666-0.196,1.42-0.295,2.264-0.295H410.409z M407.946,532.462c-0.26,0-0.51,0.039-0.751,0.119
		c-0.241,0.079-0.463,0.189-0.666,0.332c-0.203,0.143-0.383,0.315-0.542,0.519c-0.158,0.203-0.285,0.425-0.38,0.666v0.646
		c0,0.564,0.062,1.057,0.186,1.479s0.293,0.775,0.509,1.061c0.215,0.285,0.463,0.499,0.742,0.642s0.577,0.214,0.894,0.214
		c0.355,0,0.672-0.069,0.951-0.209c0.279-0.14,0.515-0.334,0.708-0.585c0.193-0.25,0.341-0.548,0.442-0.894s0.152-0.725,0.152-1.137
		c0-0.387-0.048-0.753-0.143-1.099c-0.095-0.345-0.237-0.647-0.428-0.908c-0.19-0.26-0.425-0.466-0.704-0.617
		C408.637,532.538,408.313,532.462,407.946,532.462z"/>
</g>
<g>
	<rect x="436.009" y="536.134" fill="none" width="76.687" height="62.079"/>
	<path d="M467.119,550.739h-9.3v-1.569l4.507-4.916c0.381-0.425,0.699-0.801,0.956-1.127s0.461-0.626,0.613-0.898
		s0.26-0.526,0.323-0.761c0.063-0.235,0.095-0.473,0.095-0.714c0-0.316-0.049-0.61-0.147-0.88c-0.098-0.269-0.238-0.5-0.418-0.693
		s-0.399-0.345-0.656-0.452s-0.543-0.162-0.86-0.162c-0.824,0-1.431,0.226-1.821,0.676c-0.39,0.45-0.585,1.071-0.585,1.863h-2.282
		c0-0.602,0.109-1.171,0.328-1.706c0.219-0.536,0.533-1.004,0.941-1.403c0.409-0.399,0.905-0.715,1.488-0.946
		s1.239-0.347,1.969-0.347c0.685,0,1.293,0.099,1.826,0.295s0.982,0.471,1.351,0.822c0.367,0.352,0.646,0.769,0.836,1.251
		c0.19,0.481,0.286,1.011,0.286,1.588c0,0.431-0.07,0.848-0.209,1.25c-0.139,0.403-0.333,0.804-0.58,1.203
		c-0.247,0.399-0.542,0.801-0.884,1.203s-0.713,0.816-1.113,1.241l-3.138,3.366h6.476V550.739z"/>
	<path d="M472.825,549.379c0-0.222,0.037-0.431,0.109-0.627s0.179-0.366,0.318-0.509c0.14-0.143,0.312-0.255,0.519-0.338
		c0.206-0.082,0.442-0.123,0.708-0.123c0.266,0,0.502,0.041,0.708,0.123c0.206,0.083,0.38,0.195,0.523,0.338s0.25,0.312,0.323,0.509
		s0.109,0.405,0.109,0.627c0,0.223-0.037,0.427-0.109,0.614c-0.073,0.187-0.181,0.35-0.323,0.489s-0.317,0.249-0.523,0.328
		s-0.442,0.119-0.708,0.119c-0.267,0-0.502-0.04-0.708-0.119s-0.379-0.188-0.519-0.328c-0.139-0.14-0.246-0.303-0.318-0.489
		C472.862,549.806,472.825,549.602,472.825,549.379z"/>
	<path d="M490.304,540.545c0,0.679-0.174,1.282-0.523,1.812c-0.349,0.529-0.824,0.946-1.427,1.251
		c0.342,0.158,0.651,0.352,0.927,0.58c0.276,0.228,0.512,0.484,0.708,0.77c0.196,0.285,0.347,0.598,0.452,0.938
		c0.104,0.339,0.157,0.698,0.157,1.079c0,0.641-0.118,1.208-0.352,1.702c-0.235,0.494-0.555,0.908-0.96,1.241
		c-0.406,0.332-0.883,0.585-1.431,0.756s-1.137,0.257-1.764,0.257c-0.641,0-1.238-0.086-1.792-0.257s-1.035-0.424-1.441-0.756
		c-0.406-0.333-0.724-0.747-0.956-1.241s-0.347-1.062-0.347-1.702c0-0.381,0.052-0.742,0.157-1.084
		c0.105-0.343,0.254-0.656,0.447-0.941c0.193-0.286,0.428-0.542,0.704-0.771s0.585-0.419,0.927-0.57
		c-0.596-0.305-1.065-0.722-1.408-1.251c-0.342-0.529-0.513-1.133-0.513-1.812c0-0.615,0.104-1.162,0.313-1.641
		c0.209-0.479,0.5-0.881,0.87-1.208c0.371-0.326,0.813-0.573,1.327-0.741c0.514-0.168,1.075-0.252,1.684-0.252
		c0.608,0,1.171,0.084,1.688,0.252c0.517,0.168,0.965,0.415,1.345,0.741c0.38,0.327,0.677,0.729,0.889,1.208
		S490.304,539.93,490.304,540.545z M488.326,546.859c0-0.349-0.054-0.666-0.162-0.951c-0.108-0.285-0.26-0.529-0.457-0.732
		c-0.197-0.202-0.433-0.359-0.708-0.471c-0.276-0.11-0.585-0.166-0.927-0.166s-0.651,0.056-0.927,0.166
		c-0.276,0.111-0.51,0.269-0.704,0.471c-0.193,0.203-0.342,0.447-0.447,0.732c-0.105,0.285-0.157,0.603-0.157,0.951
		c0,0.71,0.2,1.264,0.599,1.659c0.399,0.396,0.951,0.595,1.655,0.595c0.33,0,0.632-0.051,0.908-0.152s0.512-0.25,0.708-0.447
		c0.196-0.196,0.349-0.433,0.457-0.708C488.272,547.529,488.326,547.215,488.326,546.859z M488.031,540.621
		c0-0.305-0.047-0.585-0.143-0.842s-0.228-0.477-0.399-0.661c-0.171-0.184-0.379-0.326-0.623-0.428s-0.512-0.152-0.803-0.152
		c-0.298,0-0.566,0.048-0.804,0.143c-0.238,0.096-0.439,0.233-0.604,0.414s-0.292,0.399-0.38,0.656s-0.133,0.547-0.133,0.87
		c0,0.317,0.046,0.604,0.138,0.86c0.092,0.257,0.222,0.476,0.39,0.656s0.373,0.322,0.614,0.423c0.241,0.102,0.51,0.152,0.808,0.152
		c0.292,0,0.558-0.051,0.799-0.152c0.241-0.101,0.445-0.242,0.613-0.423s0.298-0.399,0.39-0.656
		C487.985,541.225,488.031,540.938,488.031,540.621z"/>
</g>
<g>
	<rect x="511.35" y="542.22" fill="none" width="76.687" height="62.079"/>
	<path d="M539.788,556.826h-2.292v-11.041l-3.538,1.294v-1.997l5.687-2.102h0.143V556.826z"/>
	<path d="M548.166,555.466c0-0.222,0.037-0.431,0.109-0.627s0.179-0.366,0.318-0.509c0.14-0.143,0.312-0.255,0.519-0.338
		c0.206-0.082,0.442-0.123,0.708-0.123c0.266,0,0.502,0.041,0.708,0.123c0.206,0.083,0.38,0.195,0.523,0.338s0.25,0.312,0.323,0.509
		s0.109,0.405,0.109,0.627c0,0.223-0.037,0.427-0.109,0.614c-0.073,0.187-0.181,0.35-0.323,0.489s-0.317,0.249-0.523,0.328
		s-0.442,0.119-0.708,0.119c-0.267,0-0.502-0.04-0.708-0.119s-0.379-0.188-0.519-0.328c-0.139-0.14-0.246-0.303-0.318-0.489
		C548.203,555.893,548.166,555.688,548.166,555.466z"/>
	<path d="M564.504,551.91h1.74v1.835h-1.74v3.081h-2.273v-3.081h-6.01l-0.057-1.379l5.991-9.386h2.349V551.91z M558.503,551.91
		h3.728v-5.896l-0.247,0.447L558.503,551.91z"/>
</g>
<g>
	<rect x="203.997" y="662.881" fill="none" width="216.039" height="62.079"/>
	<path d="M245.796,663.896h4.888c2.227,0,3.844,0.316,4.85,0.951c1.006,0.633,1.509,1.642,1.509,3.023
		c0,0.938-0.22,1.708-0.661,2.31s-1.026,0.963-1.756,1.085v0.107c0.995,0.222,1.713,0.638,2.154,1.246s0.661,1.418,0.661,2.428
		c0,1.433-0.518,2.55-1.552,3.352c-1.035,0.802-2.44,1.203-4.216,1.203h-5.876V663.896z M249.126,670.115h1.934
		c0.902,0,1.556-0.14,1.96-0.419c0.404-0.279,0.607-0.741,0.607-1.386c0-0.602-0.22-1.033-0.661-1.294
		c-0.44-0.262-1.137-0.393-2.089-0.393h-1.751V670.115z M249.126,672.758v4.093h2.17c0.917,0,1.593-0.176,2.03-0.526
		c0.437-0.351,0.655-0.888,0.655-1.611c0-1.304-0.931-1.955-2.793-1.955H249.126z"/>
	<path d="M260.578,679.601v-15.705h3.33v12.955h6.37v2.75H260.578z"/>
	<path d="M283.663,673.574c0,1.955-0.516,3.484-1.547,4.587s-2.467,1.654-4.308,1.654c-1.153,0-2.17-0.252-3.051-0.758
		c-0.881-0.504-1.558-1.229-2.03-2.175s-0.709-2.048-0.709-3.309c0-1.962,0.512-3.487,1.536-4.576
		c1.024-1.089,2.463-1.633,4.318-1.633c1.153,0,2.17,0.251,3.051,0.752s1.558,1.221,2.03,2.159S283.663,672.313,283.663,673.574z
		 M275.359,673.574c0,1.188,0.195,2.088,0.585,2.696c0.39,0.608,1.026,0.913,1.907,0.913c0.874,0,1.502-0.303,1.885-0.907
		c0.383-0.605,0.575-1.506,0.575-2.702c0-1.188-0.193-2.08-0.58-2.675s-1.021-0.892-1.901-0.892c-0.874,0-1.504,0.296-1.891,0.886
		C275.552,671.485,275.359,672.378,275.359,673.574z"/>
	<path d="M291.247,679.815c-3.738,0-5.607-2.052-5.607-6.155c0-2.041,0.508-3.601,1.525-4.679c1.017-1.077,2.474-1.616,4.372-1.616
		c1.389,0,2.635,0.272,3.738,0.816l-0.967,2.535c-0.516-0.208-0.996-0.378-1.439-0.511c-0.444-0.132-0.888-0.198-1.332-0.198
		c-1.705,0-2.557,1.21-2.557,3.631c0,2.349,0.852,3.523,2.557,3.523c0.63,0,1.214-0.084,1.751-0.253
		c0.537-0.168,1.074-0.431,1.611-0.789v2.804c-0.53,0.337-1.065,0.569-1.606,0.698C292.752,679.751,292.07,679.815,291.247,679.815z
		"/>
	<path d="M300.829,673.069l1.429-1.826l3.362-3.652h3.695l-4.77,5.21l5.06,6.8h-3.781l-3.459-4.866l-1.407,1.128v3.738h-3.276
		v-16.715h3.276v7.455l-0.172,2.729H300.829z"/>
	<path d="M322.41,679.601h-3.276v-7.015c0-1.733-0.645-2.6-1.934-2.6c-0.917,0-1.579,0.312-1.987,0.935s-0.612,1.633-0.612,3.029
		v5.65h-3.276v-16.715h3.276v3.405c0,0.265-0.025,0.888-0.075,1.869l-0.075,0.967h0.172c0.73-1.175,1.891-1.762,3.48-1.762
		c1.411,0,2.481,0.38,3.212,1.139s1.096,1.848,1.096,3.266V679.601z"/>
	<path d="M331.218,679.815c-1.934,0-3.445-0.533-4.533-1.601c-1.089-1.067-1.633-2.578-1.633-4.533c0-2.013,0.503-3.568,1.509-4.667
		c1.006-1.1,2.397-1.649,4.173-1.649c1.697,0,3.019,0.483,3.964,1.45s1.418,2.303,1.418,4.007v1.59h-7.745
		c0.036,0.931,0.312,1.658,0.827,2.181s1.239,0.784,2.17,0.784c0.723,0,1.407-0.075,2.052-0.226s1.317-0.391,2.02-0.72v2.535
		c-0.573,0.286-1.186,0.499-1.837,0.64C332.951,679.745,332.156,679.815,331.218,679.815z M330.756,669.696
		c-0.695,0-1.239,0.221-1.633,0.66c-0.394,0.441-0.62,1.065-0.677,1.875h4.598c-0.015-0.81-0.226-1.434-0.634-1.875
		C332.002,669.917,331.451,669.696,330.756,669.696z"/>
	<path d="M338.641,664.486c0-1.067,0.594-1.601,1.783-1.601c1.188,0,1.783,0.533,1.783,1.601c0,0.509-0.149,0.904-0.446,1.187
		c-0.297,0.283-0.743,0.425-1.337,0.425C339.235,666.098,338.641,665.561,338.641,664.486z M342.057,679.601h-3.276v-12.01h3.276
		V679.601z"/>
	<path d="M355.947,667.591v1.665l-1.88,0.483c0.344,0.537,0.516,1.139,0.516,1.805c0,1.289-0.45,2.293-1.348,3.014
		c-0.899,0.719-2.147,1.079-3.744,1.079l-0.591-0.032l-0.483-0.054c-0.337,0.258-0.505,0.544-0.505,0.859
		c0,0.473,0.602,0.709,1.805,0.709h2.041c1.317,0,2.322,0.283,3.013,0.849c0.691,0.565,1.037,1.396,1.037,2.492
		c0,1.403-0.585,2.492-1.756,3.266s-2.852,1.16-5.043,1.16c-1.676,0-2.956-0.292-3.84-0.875c-0.885-0.584-1.327-1.402-1.327-2.455
		c0-0.724,0.226-1.328,0.677-1.815s1.113-0.834,1.987-1.042c-0.337-0.144-0.63-0.378-0.881-0.703
		c-0.251-0.326-0.376-0.672-0.376-1.037c0-0.458,0.132-0.84,0.397-1.145c0.265-0.304,0.648-0.603,1.149-0.896
		c-0.63-0.272-1.13-0.709-1.499-1.311c-0.369-0.602-0.553-1.311-0.553-2.127c0-1.311,0.426-2.324,1.278-3.04
		c0.852-0.716,2.069-1.074,3.652-1.074c0.336,0,0.736,0.03,1.198,0.091c0.462,0.062,0.757,0.106,0.886,0.135H355.947z
		 M346.676,681.298c0,0.451,0.216,0.806,0.65,1.063c0.433,0.258,1.04,0.387,1.821,0.387c1.174,0,2.095-0.161,2.761-0.483
		s0.999-0.763,0.999-1.321c0-0.451-0.197-0.763-0.591-0.935c-0.394-0.172-1.003-0.258-1.826-0.258h-1.697
		c-0.602,0-1.105,0.142-1.509,0.424C346.878,680.458,346.676,680.832,346.676,681.298z M347.869,671.522
		c0,0.651,0.148,1.167,0.446,1.547c0.297,0.38,0.75,0.569,1.359,0.569c0.616,0,1.067-0.189,1.354-0.569
		c0.286-0.38,0.43-0.896,0.43-1.547c0-1.446-0.595-2.17-1.783-2.17C348.47,669.353,347.869,670.076,347.869,671.522z"/>
	<path d="M369.009,679.601h-3.276v-7.015c0-1.733-0.645-2.6-1.934-2.6c-0.917,0-1.579,0.312-1.987,0.935s-0.612,1.633-0.612,3.029
		v5.65h-3.276v-16.715h3.276v3.405c0,0.265-0.025,0.888-0.075,1.869l-0.075,0.967h0.172c0.73-1.175,1.891-1.762,3.48-1.762
		c1.411,0,2.481,0.38,3.212,1.139s1.096,1.848,1.096,3.266V679.601z"/>
	<path d="M377.442,677.205c0.573,0,1.26-0.125,2.062-0.376v2.438c-0.816,0.365-1.819,0.548-3.008,0.548
		c-1.311,0-2.265-0.331-2.863-0.994c-0.598-0.662-0.897-1.655-0.897-2.98v-5.79h-1.568v-1.386l1.805-1.096l0.945-2.535h2.095v2.557
		h3.362v2.46h-3.362v5.79c0,0.466,0.13,0.81,0.392,1.031C376.667,677.094,377.012,677.205,377.442,677.205z"/>
</g>
<g>
	<rect x="203.997" y="693.921" fill="none" width="216.039" height="62.079"/>
	<path d="M293.878,701.402l3.276-6.467h3.588l-5.21,9.593v6.112h-3.309v-6.005l-5.21-9.7h3.609L293.878,701.402z"/>
	<path d="M307.897,710.855c-1.934,0-3.445-0.533-4.533-1.601c-1.089-1.067-1.633-2.578-1.633-4.533c0-2.013,0.503-3.568,1.509-4.667
		c1.006-1.1,2.397-1.649,4.173-1.649c1.697,0,3.019,0.483,3.964,1.45s1.418,2.303,1.418,4.007v1.59h-7.745
		c0.036,0.931,0.312,1.658,0.827,2.181s1.239,0.784,2.17,0.784c0.723,0,1.407-0.075,2.052-0.226s1.317-0.391,2.02-0.72v2.535
		c-0.573,0.286-1.186,0.499-1.837,0.64C309.63,710.785,308.835,710.855,307.897,710.855z M307.435,700.736
		c-0.695,0-1.239,0.221-1.633,0.66c-0.394,0.441-0.62,1.065-0.677,1.875h4.598c-0.015-0.81-0.226-1.434-0.634-1.875
		C308.681,700.957,308.129,700.736,307.435,700.736z"/>
	<path d="M323.086,710.641l-0.634-1.633h-0.086c-0.552,0.694-1.119,1.176-1.703,1.445c-0.584,0.268-1.345,0.402-2.283,0.402
		c-1.153,0-2.061-0.329-2.723-0.988c-0.663-0.659-0.994-1.597-0.994-2.814c0-1.274,0.446-2.215,1.337-2.82
		c0.892-0.604,2.236-0.939,4.034-1.004l2.084-0.064v-0.526c0-1.218-0.623-1.826-1.869-1.826c-0.96,0-2.088,0.29-3.384,0.87
		l-1.085-2.213c1.382-0.724,2.915-1.085,4.598-1.085c1.611,0,2.847,0.351,3.706,1.053s1.289,1.769,1.289,3.201v8.003H323.086z
		 M322.12,705.076l-1.268,0.043c-0.953,0.028-1.662,0.2-2.127,0.516c-0.466,0.315-0.698,0.795-0.698,1.439
		c0,0.924,0.53,1.386,1.59,1.386c0.759,0,1.366-0.219,1.821-0.655c0.455-0.437,0.682-1.017,0.682-1.74V705.076z"/>
	<path d="M335.451,698.405c0.444,0,0.812,0.032,1.106,0.097l-0.247,3.072c-0.265-0.071-0.587-0.107-0.967-0.107
		c-1.046,0-1.86,0.269-2.444,0.806c-0.584,0.537-0.875,1.289-0.875,2.256v6.112h-3.276v-12.01h2.481l0.483,2.02h0.161
		c0.372-0.673,0.875-1.216,1.509-1.627C334.017,698.611,334.706,698.405,335.451,698.405z"/>
</g>
<g>
	<rect x="50.625" y="174.004" fill="none" width="345.087" height="62.079"/>
	<path d="M52.602,175.019h4.888c2.227,0,3.844,0.317,4.85,0.951c1.006,0.634,1.509,1.642,1.509,3.024c0,0.938-0.22,1.708-0.661,2.31
		s-1.026,0.963-1.756,1.085v0.107c0.995,0.222,1.713,0.638,2.154,1.246c0.44,0.609,0.661,1.418,0.661,2.428
		c0,1.433-0.518,2.55-1.552,3.352c-1.035,0.802-2.44,1.203-4.216,1.203h-5.876V175.019z M55.932,181.238h1.934
		c0.902,0,1.556-0.14,1.96-0.419c0.404-0.279,0.607-0.741,0.607-1.386c0-0.602-0.22-1.033-0.661-1.294
		c-0.44-0.261-1.137-0.392-2.089-0.392h-1.751V181.238z M55.932,183.881v4.093h2.17c0.917,0,1.593-0.175,2.03-0.526
		c0.437-0.351,0.655-0.888,0.655-1.611c0-1.303-0.931-1.955-2.793-1.955H55.932z"/>
	<path d="M70.401,190.724h-3.276v-16.715h3.276V190.724z"/>
	<path d="M84.753,184.697c0,1.955-0.516,3.484-1.547,4.587c-1.031,1.103-2.467,1.654-4.308,1.654c-1.153,0-2.17-0.252-3.051-0.757
		s-1.558-1.23-2.03-2.175s-0.709-2.048-0.709-3.309c0-1.962,0.512-3.487,1.536-4.576c1.024-1.088,2.463-1.633,4.318-1.633
		c1.153,0,2.17,0.251,3.051,0.752c0.881,0.501,1.558,1.221,2.03,2.159C84.517,182.338,84.753,183.437,84.753,184.697z
		 M76.449,184.697c0,1.189,0.195,2.088,0.585,2.696c0.39,0.609,1.026,0.913,1.907,0.913c0.874,0,1.502-0.302,1.885-0.908
		c0.383-0.605,0.575-1.505,0.575-2.702c0-1.188-0.193-2.08-0.58-2.675c-0.387-0.594-1.021-0.892-1.901-0.892
		c-0.874,0-1.504,0.295-1.891,0.886S76.449,183.501,76.449,184.697z"/>
	<path d="M92.337,190.938c-3.738,0-5.607-2.052-5.607-6.155c0-2.041,0.508-3.6,1.525-4.678c1.017-1.078,2.474-1.617,4.372-1.617
		c1.389,0,2.635,0.272,3.738,0.816l-0.967,2.535c-0.516-0.208-0.996-0.377-1.439-0.51c-0.444-0.132-0.888-0.199-1.332-0.199
		c-1.705,0-2.557,1.21-2.557,3.631c0,2.349,0.852,3.523,2.557,3.523c0.63,0,1.214-0.084,1.751-0.252
		c0.537-0.168,1.074-0.431,1.611-0.79v2.804c-0.53,0.337-1.065,0.569-1.606,0.698C93.842,190.874,93.16,190.938,92.337,190.938z"/>
	<path d="M101.919,184.192l1.429-1.826l3.362-3.652h3.695l-4.77,5.21l5.06,6.8h-3.781l-3.459-4.866l-1.407,1.128v3.738h-3.276
		v-16.715h3.276v7.455l-0.172,2.729H101.919z"/>
	<path d="M121.717,184.697v6.026h-3.33v-15.705h4.576c2.134,0,3.713,0.389,4.737,1.166c1.024,0.777,1.536,1.957,1.536,3.54
		c0,0.924-0.254,1.746-0.763,2.465c-0.509,0.72-1.229,1.284-2.159,1.692c2.363,3.531,3.903,5.812,4.619,6.843h-3.695l-3.749-6.026
		H121.717z M121.717,181.99h1.074c1.053,0,1.83-0.175,2.331-0.526c0.501-0.351,0.752-0.902,0.752-1.654
		c0-0.745-0.256-1.274-0.768-1.59c-0.512-0.315-1.305-0.473-2.379-0.473h-1.01V181.99z"/>
	<path d="M138.088,190.938c-1.934,0-3.445-0.533-4.533-1.601c-1.089-1.067-1.633-2.578-1.633-4.533c0-2.012,0.503-3.568,1.509-4.667
		c1.006-1.099,2.397-1.649,4.173-1.649c1.697,0,3.019,0.483,3.964,1.45s1.418,2.303,1.418,4.007v1.59h-7.745
		c0.036,0.931,0.312,1.658,0.827,2.181c0.516,0.523,1.239,0.784,2.17,0.784c0.723,0,1.407-0.075,2.052-0.226s1.317-0.39,2.02-0.72
		v2.535c-0.573,0.287-1.186,0.5-1.837,0.639C139.821,190.869,139.026,190.938,138.088,190.938z M137.626,180.819
		c-0.695,0-1.239,0.22-1.633,0.661c-0.394,0.44-0.62,1.065-0.677,1.875h4.598c-0.015-0.809-0.226-1.434-0.634-1.875
		S138.32,180.819,137.626,180.819z"/>
	<path d="M155.522,190.724l-0.924-4.2l-1.246-5.307h-0.075l-2.191,9.507h-3.523l-3.416-12.01h3.266l1.386,5.317
		c0.222,0.953,0.447,2.267,0.677,3.942h0.064c0.028-0.544,0.154-1.407,0.376-2.589l0.172-0.913l1.482-5.758h3.609l1.407,5.758
		c0.028,0.158,0.073,0.391,0.134,0.698c0.061,0.308,0.12,0.636,0.177,0.983c0.057,0.348,0.109,0.688,0.156,1.021
		c0.046,0.333,0.073,0.6,0.081,0.8h0.064c0.064-0.516,0.179-1.223,0.344-2.122c0.165-0.898,0.283-1.505,0.354-1.821l1.439-5.317
		h3.212l-3.459,12.01H155.522z"/>
	<path d="M172.108,190.724l-0.634-1.633h-0.086c-0.552,0.695-1.119,1.176-1.703,1.445c-0.584,0.269-1.345,0.403-2.283,0.403
		c-1.153,0-2.061-0.329-2.723-0.988c-0.663-0.659-0.994-1.597-0.994-2.814c0-1.274,0.446-2.214,1.337-2.82
		c0.892-0.605,2.236-0.94,4.034-1.004l2.084-0.064v-0.526c0-1.217-0.623-1.826-1.869-1.826c-0.96,0-2.088,0.29-3.384,0.87
		l-1.085-2.213c1.382-0.723,2.915-1.085,4.598-1.085c1.611,0,2.847,0.351,3.706,1.053c0.859,0.702,1.289,1.769,1.289,3.201v8.003
		H172.108z M171.142,185.159l-1.268,0.043c-0.953,0.029-1.662,0.201-2.127,0.516c-0.466,0.315-0.698,0.795-0.698,1.439
		c0,0.924,0.53,1.386,1.59,1.386c0.759,0,1.366-0.218,1.821-0.655c0.455-0.437,0.682-1.017,0.682-1.74V185.159z"/>
	<path d="M184.473,178.488c0.444,0,0.812,0.032,1.106,0.097l-0.247,3.072c-0.265-0.071-0.587-0.107-0.967-0.107
		c-1.046,0-1.86,0.269-2.444,0.806c-0.584,0.537-0.875,1.289-0.875,2.256v6.112h-3.276v-12.01h2.481l0.483,2.02h0.161
		c0.372-0.673,0.875-1.215,1.509-1.627C183.039,178.694,183.728,178.488,184.473,178.488z"/>
	<path d="M191.562,190.938c-1.411,0-2.519-0.548-3.325-1.644s-1.208-2.614-1.208-4.555c0-1.969,0.41-3.503,1.23-4.603
		c0.82-1.099,1.95-1.649,3.389-1.649c1.511,0,2.664,0.587,3.459,1.762h0.107c-0.165-0.895-0.247-1.693-0.247-2.396v-3.846h3.287
		v16.715h-2.514l-0.634-1.558h-0.14C194.223,190.348,193.088,190.938,191.562,190.938z M192.712,188.328
		c0.838,0,1.452-0.243,1.842-0.73c0.39-0.487,0.603-1.314,0.639-2.481v-0.354c0-1.289-0.199-2.213-0.596-2.771
		s-1.044-0.838-1.939-0.838c-0.73,0-1.298,0.31-1.703,0.929c-0.405,0.62-0.607,1.52-0.607,2.702s0.204,2.068,0.612,2.659
		S191.953,188.328,192.712,188.328z"/>
	<path d="M206.559,184.697c0-1.897,0.277-3.674,0.833-5.328c0.555-1.654,1.355-3.104,2.401-4.351h2.686
		c-1.01,1.382-1.772,2.9-2.288,4.555s-0.773,3.355-0.773,5.103c0,1.755,0.263,3.45,0.79,5.086s1.276,3.117,2.25,4.442h-2.664
		c-1.053-1.218-1.855-2.639-2.406-4.265C206.834,188.314,206.559,186.566,206.559,184.697z"/>
	<path d="M215.109,175.019h4.888c2.227,0,3.844,0.317,4.85,0.951c1.006,0.634,1.509,1.642,1.509,3.024
		c0,0.938-0.22,1.708-0.661,2.31s-1.026,0.963-1.756,1.085v0.107c0.995,0.222,1.713,0.638,2.154,1.246
		c0.44,0.609,0.661,1.418,0.661,2.428c0,1.433-0.518,2.55-1.552,3.352c-1.035,0.802-2.44,1.203-4.216,1.203h-5.876V175.019z
		 M218.439,181.238h1.934c0.902,0,1.556-0.14,1.96-0.419c0.404-0.279,0.607-0.741,0.607-1.386c0-0.602-0.22-1.033-0.661-1.294
		c-0.44-0.261-1.137-0.392-2.089-0.392h-1.751V181.238z M218.439,183.881v4.093h2.17c0.917,0,1.593-0.175,2.03-0.526
		c0.437-0.351,0.655-0.888,0.655-1.611c0-1.303-0.931-1.955-2.793-1.955H218.439z"/>
	<path d="M235.949,190.724h-3.33V177.79h-4.265v-2.771h11.859v2.771h-4.265V190.724z"/>
	<path d="M249.302,177.564c-1.253,0-2.224,0.471-2.911,1.413c-0.688,0.942-1.031,2.254-1.031,3.937c0,3.502,1.314,5.253,3.942,5.253
		c1.103,0,2.438-0.275,4.007-0.827v2.793c-1.289,0.537-2.729,0.806-4.318,0.806c-2.285,0-4.032-0.693-5.242-2.079
		c-1.21-1.386-1.815-3.375-1.815-5.967c0-1.633,0.297-3.063,0.892-4.292c0.594-1.228,1.448-2.17,2.562-2.825
		c1.113-0.655,2.418-0.983,3.916-0.983c1.525,0,3.058,0.369,4.598,1.106l-1.074,2.707c-0.587-0.279-1.178-0.522-1.772-0.73
		C250.458,177.668,249.875,177.564,249.302,177.564z"/>
	<path d="M261.247,184.697c0,1.884-0.278,3.638-0.833,5.264c-0.555,1.625-1.355,3.04-2.401,4.243h-2.664
		c0.967-1.318,1.715-2.795,2.245-4.431c0.53-1.636,0.795-3.335,0.795-5.097c0-1.747-0.258-3.448-0.773-5.103
		s-1.278-3.172-2.288-4.555h2.686c1.053,1.253,1.854,2.709,2.406,4.367C260.971,181.043,261.247,182.814,261.247,184.697z"/>
</g>
<g>
</g>
<g>
</g>
<g>
</g>
<g>
</g>
<g>
</g>
<g>
</g>
<g>
</g>
<g>
</g>
<g>
</g>
<g>
</g>
<g>
</g>
<g>
</g>
<g>
</g>
<g>
</g>
<g>
</g>
</svg>
