<?xml version="1.0" encoding="utf-8"?>
<!-- Generator: Adobe Illustrator 16.0.4, SVG Export Plug-In . SVG Version: 6.00 Build 0)  -->
<!DOCTYPE svg PUBLIC "-//W3C//DTD SVG 1.1//EN" "http://www.w3.org/Graphics/SVG/1.1/DTD/svg11.dtd">
<svg version="1.1" id="Journaling" xmlns="http://www.w3.org/2000/svg" xmlns:xlink="http://www.w3.org/1999/xlink" x="0px" y="0px"
	 width="1366px" height="768px" viewBox="0 0 1366 768" enable-background="new 0 0 1366 768" xml:space="preserve">
<rect fill="#FFFFFF" width="1366" height="768"/>
<polyline opacity="0.44" fill="#C8D7E3" enable-background="new    " points="81.526,309.779 81.526,564.5 1283.534,564.5 
	1283.535,309.779 "/>
<g enable-background="new    ">
	<path fill="#C8D7E3" d="M1288.167,334.31c0,3.85-3.149,6.986-7,6.969L82.495,335.998c-3.85-0.018-7-3.182-7-7.031l-0.003-41.719
		c0-3.85,3.149-7,7-7h1198.677c3.85,0,7,3.15,7,7V334.31z"/>
</g>
<rect x="81.526" y="529.576" fill="#2D4E6E" stroke="#000000" stroke-miterlimit="10" width="10.935" height="34.924"/>
<rect x="99.835" y="529.576" fill="#2D4E6E" stroke="#000000" stroke-miterlimit="10" width="10.935" height="34.924"/>
<rect x="118.144" y="529.576" fill="#2D4E6E" stroke="#000000" stroke-miterlimit="10" width="10.935" height="34.924"/>
<rect x="136.452" y="529.576" fill="#2D4E6E" stroke="#000000" stroke-miterlimit="10" width="10.936" height="34.924"/>
<rect x="154.761" y="529.576" fill="#2D4E6E" stroke="#000000" stroke-miterlimit="10" width="10.936" height="34.924"/>
<rect x="173.069" y="529.576" fill="#2D4E6E" stroke="#000000" stroke-miterlimit="10" width="10.936" height="34.924"/>
<rect x="191.378" y="529.576" fill="#2D4E6E" stroke="#000000" stroke-miterlimit="10" width="10.936" height="34.924"/>
<rect x="209.687" y="529.576" fill="#2D4E6E" stroke="#000000" stroke-miterlimit="10" width="10.936" height="34.924"/>
<rect x="227.995" y="529.576" fill="#2D4E6E" stroke="#000000" stroke-miterlimit="10" width="10.936" height="34.924"/>
<rect x="246.304" y="529.576" fill="#2D4E6E" stroke="#000000" stroke-miterlimit="10" width="10.936" height="34.924"/>
<rect x="264.612" y="529.576" fill="#2D4E6E" stroke="#000000" stroke-miterlimit="10" width="10.936" height="34.924"/>
<rect x="282.921" y="529.576" fill="#2D4E6E" stroke="#000000" stroke-miterlimit="10" width="10.936" height="34.924"/>
<rect x="301.23" y="529.576" fill="#2D4E6E" stroke="#000000" stroke-miterlimit="10" width="10.935" height="34.924"/>
<rect x="319.539" y="529.576" fill="#2D4E6E" stroke="#000000" stroke-miterlimit="10" width="10.935" height="34.924"/>
<rect x="338.526" y="529.576" fill="#2D4E6E" stroke="#000000" stroke-miterlimit="10" width="10.935" height="34.924"/>
<rect x="356.835" y="529.576" fill="#2D4E6E" stroke="#000000" stroke-miterlimit="10" width="10.935" height="34.924"/>
<rect x="375.144" y="529.576" fill="#2D4E6E" stroke="#000000" stroke-miterlimit="10" width="10.935" height="34.924"/>
<rect x="393.452" y="529.576" fill="#2D4E6E" stroke="#000000" stroke-miterlimit="10" width="10.936" height="34.924"/>
<rect x="411.761" y="529.576" fill="#2D4E6E" stroke="#000000" stroke-miterlimit="10" width="10.936" height="34.924"/>
<rect x="430.069" y="529.576" fill="#2D4E6E" stroke="#000000" stroke-miterlimit="10" width="10.936" height="34.924"/>
<rect x="448.378" y="529.576" fill="#2D4E6E" stroke="#000000" stroke-miterlimit="10" width="10.936" height="34.924"/>
<rect x="466.687" y="529.576" fill="#2D4E6E" stroke="#000000" stroke-miterlimit="10" width="10.936" height="34.924"/>
<rect x="484.995" y="529.576" fill="#2D4E6E" stroke="#000000" stroke-miterlimit="10" width="10.936" height="34.924"/>
<rect x="503.304" y="529.576" fill="#2D4E6E" stroke="#000000" stroke-miterlimit="10" width="10.936" height="34.924"/>
<rect x="521.612" y="529.576" fill="#2D4E6E" stroke="#000000" stroke-miterlimit="10" width="10.936" height="34.924"/>
<rect x="539.921" y="529.576" fill="#2D4E6E" stroke="#000000" stroke-miterlimit="10" width="10.936" height="34.924"/>
<rect x="558.23" y="529.576" fill="#2D4E6E" stroke="#000000" stroke-miterlimit="10" width="10.935" height="34.924"/>
<rect x="576.539" y="529.576" fill="#2D4E6E" stroke="#000000" stroke-miterlimit="10" width="10.935" height="34.924"/>
<path fill="#2D4E6E" d="M351.82,572.566"/>
<rect x="594.847" y="529.576" fill="#2D4E6E" stroke="#000000" stroke-miterlimit="10" width="10.935" height="34.924"/>
<rect x="613.155" y="529.576" fill="#2D4E6E" stroke="#000000" stroke-miterlimit="10" width="10.935" height="34.924"/>
<rect x="631.464" y="529.576" fill="#2D4E6E" stroke="#000000" stroke-miterlimit="10" width="10.936" height="34.924"/>
<rect x="649.772" y="529.576" fill="#2D4E6E" stroke="#000000" stroke-miterlimit="10" width="10.936" height="34.924"/>
<rect x="668.081" y="529.576" fill="#2D4E6E" stroke="#000000" stroke-miterlimit="10" width="10.936" height="34.924"/>
<rect x="686.389" y="529.576" fill="#2D4E6E" stroke="#000000" stroke-miterlimit="10" width="10.936" height="34.924"/>
<rect x="704.697" y="529.576" fill="#2D4E6E" stroke="#000000" stroke-miterlimit="10" width="10.936" height="34.924"/>
<rect x="723.006" y="529.576" fill="#2D4E6E" stroke="#000000" stroke-miterlimit="10" width="10.936" height="34.924"/>
<rect x="741.314" y="529.576" fill="#2D4E6E" stroke="#000000" stroke-miterlimit="10" width="10.936" height="34.924"/>
<rect x="759.623" y="529.576" fill="#2D4E6E" stroke="#000000" stroke-miterlimit="10" width="10.936" height="34.924"/>
<rect x="777.932" y="529.576" fill="#2D4E6E" stroke="#000000" stroke-miterlimit="10" width="10.936" height="34.924"/>
<rect x="796.242" y="529.576" fill="#2D4E6E" stroke="#000000" stroke-miterlimit="10" width="10.934" height="34.924"/>
<rect x="814.551" y="529.576" fill="#2D4E6E" stroke="#000000" stroke-miterlimit="10" width="10.934" height="34.924"/>
<rect x="833.193" y="529.576" fill="#2D4E6E" stroke="#000000" stroke-miterlimit="10" width="10.935" height="34.924"/>
<rect x="851.502" y="529.576" fill="#2D4E6E" stroke="#000000" stroke-miterlimit="10" width="10.936" height="34.924"/>
<rect x="869.811" y="529.576" fill="#2D4E6E" stroke="#000000" stroke-miterlimit="10" width="10.936" height="34.924"/>
<rect x="888.119" y="529.576" fill="#2D4E6E" stroke="#000000" stroke-miterlimit="10" width="10.936" height="34.924"/>
<rect x="906.428" y="529.576" fill="#2D4E6E" stroke="#000000" stroke-miterlimit="10" width="10.936" height="34.924"/>
<rect x="924.736" y="529.576" fill="#2D4E6E" stroke="#000000" stroke-miterlimit="10" width="10.936" height="34.924"/>
<rect x="943.045" y="529.576" fill="#2D4E6E" stroke="#000000" stroke-miterlimit="10" width="10.936" height="34.924"/>
<rect x="961.354" y="529.576" fill="#FFFFFF" stroke="#000000" stroke-miterlimit="10" width="10.936" height="34.924"/>
<rect x="979.662" y="529.576" fill="#FFFFFF" stroke="#000000" stroke-miterlimit="10" width="10.936" height="34.924"/>
<rect x="997.971" y="529.576" fill="#FFFFFF" stroke="#000000" stroke-miterlimit="10" width="10.936" height="34.924"/>
<rect x="1016.28" y="529.576" fill="#FFFFFF" stroke="#000000" stroke-miterlimit="10" width="10.935" height="34.924"/>
<rect x="1034.589" y="529.576" fill="#FFFFFF" stroke="#000000" stroke-miterlimit="10" width="10.935" height="34.924"/>
<rect x="1052.896" y="529.576" fill="#FFFFFF" stroke="#000000" stroke-miterlimit="10" width="10.935" height="34.924"/>
<rect x="1071.205" y="529.576" fill="#FFFFFF" stroke="#000000" stroke-miterlimit="10" width="10.935" height="34.924"/>
<rect x="1089.514" y="529.576" fill="#FFFFFF" stroke="#000000" stroke-miterlimit="10" width="10.936" height="34.924"/>
<rect x="1107.822" y="529.576" fill="#FFFFFF" stroke="#000000" stroke-miterlimit="10" width="10.936" height="34.924"/>
<rect x="1126.131" y="529.576" fill="#FFFFFF" stroke="#000000" stroke-miterlimit="10" width="10.936" height="34.924"/>
<rect x="1144.439" y="529.576" fill="#FFFFFF" stroke="#000000" stroke-miterlimit="10" width="10.935" height="34.924"/>
<rect x="1162.747" y="529.576" fill="#FFFFFF" stroke="#000000" stroke-miterlimit="10" width="10.936" height="34.924"/>
<rect x="1181.056" y="529.576" fill="#FFFFFF" stroke="#000000" stroke-miterlimit="10" width="10.936" height="34.924"/>
<rect x="1199.364" y="529.576" fill="#FFFFFF" stroke="#000000" stroke-miterlimit="10" width="10.936" height="34.924"/>
<rect x="1217.673" y="529.576" fill="#FFFFFF" stroke="#000000" stroke-miterlimit="10" width="10.936" height="34.924"/>
<rect x="1235.981" y="529.576" fill="#FFFFFF" stroke="#000000" stroke-miterlimit="10" width="10.936" height="34.924"/>
<rect x="1254.292" y="529.576" fill="#FFFFFF" stroke="#000000" stroke-miterlimit="10" width="10.934" height="34.924"/>
<rect x="1272.601" y="529.576" fill="#FFFFFF" stroke="#000000" stroke-miterlimit="10" width="10.934" height="34.924"/>
<polyline opacity="0.33" fill="none" stroke="#000000" stroke-miterlimit="10" points="319.445,492.068 136.545,326.318 
	136.545,291.394 "/>
<polyline opacity="0.33" fill="none" stroke="#000000" stroke-miterlimit="10" points="374.371,492.068 191.471,326.318 
	191.471,291.394 "/>
<polyline opacity="0.33" fill="none" stroke="#000000" stroke-miterlimit="10" points="429.854,492.068 246.953,326.318 
	246.953,291.394 "/>
<polyline opacity="0.33" fill="none" stroke="#000000" stroke-miterlimit="10" points="594.754,492.068 411.854,326.318 
	411.854,291.394 "/>
<polyline opacity="0.33" fill="none" stroke="#000000" stroke-miterlimit="10" points="704.605,492.068 521.705,326.318 
	521.705,291.394 "/>
<polyline opacity="0.33" fill="none" stroke="#000000" stroke-miterlimit="10" points="814.456,492.068 631.556,326.318 
	631.556,291.394 "/>
<polyline opacity="0.33" fill="none" stroke="#000000" stroke-miterlimit="10" points="924.644,492.068 741.744,326.318 
	741.744,291.394 "/>
<polyline opacity="0.33" fill="none" stroke="#000000" stroke-miterlimit="10" points="1034.494,492.068 851.595,326.318 
	851.595,291.394 "/>
<polyline fill="none" stroke="#000000" stroke-width="2" stroke-miterlimit="10" points="1145.347,493.068 962.447,327.318 
	962.447,292.394 "/>
<polyline fill="none" stroke="#000000" stroke-width="2" stroke-miterlimit="10" points="484.902,492.068 302.002,326.318 
	302.002,291.394 "/>
<polyline fill="none" stroke="#000000" stroke-width="2" stroke-miterlimit="10" points="263.598,490.146 82.541,326.241 
	82.541,291.317 "/>
<g>
	<rect x="81.526" y="292.317" fill="#97B2C3" stroke="#000000" stroke-miterlimit="10" width="10.935" height="34.924"/>
	<rect x="99.835" y="292.317" fill="#97B2C3" stroke="#000000" stroke-miterlimit="10" width="10.935" height="34.924"/>
	<rect x="118.144" y="292.317" fill="#97B2C3" stroke="#000000" stroke-miterlimit="10" width="10.935" height="34.924"/>
	<rect x="136.452" y="292.317" fill="#97B2C3" stroke="#000000" stroke-miterlimit="10" width="10.936" height="34.924"/>
	<rect x="154.761" y="292.317" fill="#97B2C3" stroke="#000000" stroke-miterlimit="10" width="10.936" height="34.924"/>
	<rect x="173.069" y="292.317" fill="#97B2C3" stroke="#000000" stroke-miterlimit="10" width="10.936" height="34.924"/>
	<rect x="191.378" y="292.317" fill="#97B2C3" stroke="#000000" stroke-miterlimit="10" width="10.936" height="34.924"/>
	<rect x="209.687" y="292.317" fill="#97B2C3" stroke="#000000" stroke-miterlimit="10" width="10.936" height="34.924"/>
	<rect x="227.995" y="292.317" fill="#97B2C3" stroke="#000000" stroke-miterlimit="10" width="10.936" height="34.924"/>
	<rect x="246.304" y="292.317" fill="#97B2C3" stroke="#000000" stroke-miterlimit="10" width="10.936" height="34.924"/>
	<rect x="264.612" y="292.317" fill="#97B2C3" stroke="#000000" stroke-miterlimit="10" width="10.936" height="34.924"/>
	<rect x="282.921" y="292.317" fill="#97B2C3" stroke="#000000" stroke-miterlimit="10" width="10.936" height="34.924"/>
	<rect x="301.23" y="292.317" fill="#97B2C3" stroke="#000000" stroke-miterlimit="10" width="10.935" height="34.924"/>
	<rect x="319.539" y="292.317" fill="#97B2C3" stroke="#000000" stroke-miterlimit="10" width="10.935" height="34.924"/>
	<rect x="338.526" y="292.317" fill="#97B2C3" stroke="#000000" stroke-miterlimit="10" width="10.935" height="34.924"/>
	<rect x="356.835" y="292.317" fill="#97B2C3" stroke="#000000" stroke-miterlimit="10" width="10.935" height="34.924"/>
	<rect x="375.144" y="292.317" fill="#97B2C3" stroke="#000000" stroke-miterlimit="10" width="10.935" height="34.924"/>
	<rect x="393.452" y="292.317" fill="#97B2C3" stroke="#000000" stroke-miterlimit="10" width="10.936" height="34.924"/>
	<rect x="411.761" y="292.317" fill="#97B2C3" stroke="#000000" stroke-miterlimit="10" width="10.936" height="34.924"/>
	<rect x="430.069" y="292.317" fill="#97B2C3" stroke="#000000" stroke-miterlimit="10" width="10.936" height="34.924"/>
	<rect x="448.378" y="292.317" fill="#97B2C3" stroke="#000000" stroke-miterlimit="10" width="10.936" height="34.924"/>
	<rect x="466.687" y="292.317" fill="#97B2C3" stroke="#000000" stroke-miterlimit="10" width="10.936" height="34.924"/>
	<rect x="484.995" y="292.317" fill="#97B2C3" stroke="#000000" stroke-miterlimit="10" width="10.936" height="34.924"/>
	<rect x="503.304" y="292.317" fill="#97B2C3" stroke="#000000" stroke-miterlimit="10" width="10.936" height="34.924"/>
	<rect x="521.612" y="292.317" fill="#97B2C3" stroke="#000000" stroke-miterlimit="10" width="10.936" height="34.924"/>
	<rect x="539.921" y="292.317" fill="#97B2C3" stroke="#000000" stroke-miterlimit="10" width="10.936" height="34.924"/>
	<rect x="558.23" y="292.317" fill="#97B2C3" stroke="#000000" stroke-miterlimit="10" width="10.935" height="34.924"/>
	<rect x="576.539" y="292.317" fill="#97B2C3" stroke="#000000" stroke-miterlimit="10" width="10.935" height="34.924"/>
	<rect x="594.847" y="292.317" fill="#97B2C3" stroke="#000000" stroke-miterlimit="10" width="10.935" height="34.924"/>
	<rect x="613.155" y="292.317" fill="#97B2C3" stroke="#000000" stroke-miterlimit="10" width="10.935" height="34.924"/>
	<rect x="631.464" y="292.317" fill="#97B2C3" stroke="#000000" stroke-miterlimit="10" width="10.936" height="34.924"/>
	<rect x="649.772" y="292.317" fill="#97B2C3" stroke="#000000" stroke-miterlimit="10" width="10.936" height="34.924"/>
	<rect x="668.081" y="292.317" fill="#97B2C3" stroke="#000000" stroke-miterlimit="10" width="10.936" height="34.924"/>
	<rect x="686.389" y="292.317" fill="#97B2C3" stroke="#000000" stroke-miterlimit="10" width="10.936" height="34.924"/>
	<rect x="704.697" y="292.317" fill="#97B2C3" stroke="#000000" stroke-miterlimit="10" width="10.936" height="34.924"/>
	<rect x="723.006" y="292.317" fill="#97B2C3" stroke="#000000" stroke-miterlimit="10" width="10.936" height="34.924"/>
	<rect x="741.314" y="292.317" fill="#97B2C3" stroke="#000000" stroke-miterlimit="10" width="10.936" height="34.924"/>
	<rect x="759.623" y="292.317" fill="#97B2C3" stroke="#000000" stroke-miterlimit="10" width="10.936" height="34.924"/>
	<rect x="777.932" y="292.317" fill="#97B2C3" stroke="#000000" stroke-miterlimit="10" width="10.936" height="34.924"/>
	<rect x="796.242" y="292.317" fill="#97B2C3" stroke="#000000" stroke-miterlimit="10" width="10.934" height="34.924"/>
	<rect x="814.551" y="292.317" fill="#97B2C3" stroke="#000000" stroke-miterlimit="10" width="10.934" height="34.924"/>
	<rect x="833.193" y="292.317" fill="#97B2C3" stroke="#000000" stroke-miterlimit="10" width="10.935" height="34.924"/>
	<rect x="851.502" y="292.317" fill="#97B2C3" stroke="#000000" stroke-miterlimit="10" width="10.936" height="34.924"/>
	<rect x="869.811" y="292.317" fill="#97B2C3" stroke="#000000" stroke-miterlimit="10" width="10.936" height="34.924"/>
	<rect x="888.119" y="292.317" fill="#97B2C3" stroke="#000000" stroke-miterlimit="10" width="10.936" height="34.924"/>
	<rect x="906.428" y="292.317" fill="#97B2C3" stroke="#000000" stroke-miterlimit="10" width="10.936" height="34.924"/>
	<rect x="924.736" y="292.317" fill="#97B2C3" stroke="#000000" stroke-miterlimit="10" width="10.936" height="34.924"/>
	<rect x="943.045" y="292.317" fill="#97B2C3" stroke="#000000" stroke-miterlimit="10" width="10.936" height="34.924"/>
	<rect x="961.354" y="292.317" fill="#FFFFFF" stroke="#000000" stroke-miterlimit="10" width="10.936" height="34.924"/>
	<rect x="979.662" y="292.317" fill="#FFFFFF" stroke="#000000" stroke-miterlimit="10" width="10.936" height="34.924"/>
	<rect x="997.971" y="292.317" fill="#FFFFFF" stroke="#000000" stroke-miterlimit="10" width="10.936" height="34.924"/>
	<rect x="1016.28" y="292.317" fill="#FFFFFF" stroke="#000000" stroke-miterlimit="10" width="10.935" height="34.924"/>
	<rect x="1034.589" y="292.317" fill="#FFFFFF" stroke="#000000" stroke-miterlimit="10" width="10.935" height="34.924"/>
	<rect x="1052.896" y="292.317" fill="#FFFFFF" stroke="#000000" stroke-miterlimit="10" width="10.935" height="34.924"/>
	<rect x="1071.205" y="292.317" fill="#FFFFFF" stroke="#000000" stroke-miterlimit="10" width="10.935" height="34.924"/>
	<rect x="1089.514" y="292.317" fill="#FFFFFF" stroke="#000000" stroke-miterlimit="10" width="10.936" height="34.924"/>
	<rect x="1107.822" y="292.317" fill="#FFFFFF" stroke="#000000" stroke-miterlimit="10" width="10.936" height="34.924"/>
	<rect x="1126.131" y="292.317" fill="#FFFFFF" stroke="#000000" stroke-miterlimit="10" width="10.936" height="34.924"/>
	<rect x="1144.439" y="292.317" fill="#FFFFFF" stroke="#000000" stroke-miterlimit="10" width="10.935" height="34.924"/>
	<rect x="1162.747" y="292.317" fill="#FFFFFF" stroke="#000000" stroke-miterlimit="10" width="10.936" height="34.924"/>
	<rect x="1181.056" y="292.317" fill="#FFFFFF" stroke="#000000" stroke-miterlimit="10" width="10.936" height="34.924"/>
	<rect x="1199.364" y="292.317" fill="#FFFFFF" stroke="#000000" stroke-miterlimit="10" width="10.936" height="34.924"/>
	<rect x="1217.673" y="292.317" fill="#FFFFFF" stroke="#000000" stroke-miterlimit="10" width="10.936" height="34.924"/>
	<rect x="1235.981" y="292.317" fill="#FFFFFF" stroke="#000000" stroke-miterlimit="10" width="10.936" height="34.924"/>
	<rect x="1254.292" y="292.317" fill="#FFFFFF" stroke="#000000" stroke-miterlimit="10" width="10.934" height="34.924"/>
	<rect x="1272.601" y="292.317" fill="#FFFFFF" stroke="#000000" stroke-miterlimit="10" width="10.934" height="34.924"/>
</g>
<g>
	<rect x="121.229" y="234.313" fill="none" width="145.552" height="26.125"/>
	<path d="M171.124,249.513h-3.018v-6.162h-5.654v6.162h-3.027v-14.277h3.027v5.596h5.654v-5.596h3.018V249.513z"/>
	<path d="M179.435,249.708c-1.758,0-3.131-0.485-4.121-1.455s-1.484-2.344-1.484-4.121c0-1.829,0.458-3.244,1.372-4.243
		s2.179-1.499,3.794-1.499c1.543,0,2.744,0.439,3.604,1.318s1.289,2.093,1.289,3.643v1.445h-7.041
		c0.033,0.847,0.283,1.507,0.752,1.982s1.126,0.713,1.973,0.713c0.658,0,1.279-0.068,1.865-0.205s1.198-0.354,1.836-0.654v2.305
		c-0.521,0.261-1.078,0.454-1.67,0.581S180.288,249.708,179.435,249.708z M179.015,240.509c-0.631,0-1.126,0.2-1.484,0.601
		s-0.563,0.969-0.615,1.704h4.18c-0.013-0.735-0.205-1.304-0.576-1.704S179.646,240.509,179.015,240.509z"/>
	<path d="M193.243,249.513l-0.576-1.484h-0.078c-0.501,0.632-1.017,1.069-1.548,1.313s-1.222,0.366-2.075,0.366
		c-1.048,0-1.874-0.3-2.476-0.898s-0.903-1.452-0.903-2.559c0-1.159,0.405-2.014,1.216-2.563s2.033-0.854,3.667-0.913l1.895-0.059
		v-0.479c0-1.106-0.566-1.66-1.699-1.66c-0.873,0-1.898,0.264-3.076,0.791l-0.986-2.012c1.256-0.657,2.65-0.986,4.18-0.986
		c1.465,0,2.588,0.319,3.369,0.957s1.172,1.608,1.172,2.91v7.275H193.243z M192.364,244.455l-1.152,0.039
		c-0.866,0.026-1.51,0.183-1.934,0.469s-0.635,0.723-0.635,1.309c0,0.84,0.482,1.26,1.445,1.26c0.69,0,1.242-0.198,1.655-0.596
		s0.62-0.925,0.62-1.582V244.455z"/>
	<path d="M201.847,249.708c-1.283,0-2.29-0.498-3.022-1.494s-1.099-2.376-1.099-4.141c0-1.79,0.373-3.186,1.118-4.185
		s1.772-1.499,3.081-1.499c1.374,0,2.422,0.534,3.145,1.602h0.098c-0.15-0.813-0.225-1.54-0.225-2.178v-3.496h2.988v15.195h-2.285
		l-0.576-1.416h-0.127C204.265,249.171,203.233,249.708,201.847,249.708z M202.892,247.335c0.762,0,1.32-0.222,1.675-0.664
		s0.548-1.194,0.581-2.256v-0.322c0-1.172-0.181-2.012-0.542-2.52s-0.949-0.762-1.763-0.762c-0.664,0-1.18,0.281-1.548,0.845
		s-0.552,1.382-0.552,2.456s0.186,1.88,0.557,2.417S202.202,247.335,202.892,247.335z"/>
	<path d="M215.987,249.708c-1.758,0-3.131-0.485-4.121-1.455s-1.484-2.344-1.484-4.121c0-1.829,0.458-3.244,1.372-4.243
		s2.179-1.499,3.794-1.499c1.543,0,2.744,0.439,3.604,1.318s1.289,2.093,1.289,3.643v1.445h-7.041
		c0.033,0.847,0.283,1.507,0.752,1.982s1.126,0.713,1.973,0.713c0.658,0,1.279-0.068,1.865-0.205s1.198-0.354,1.836-0.654v2.305
		c-0.521,0.261-1.078,0.454-1.67,0.581S216.84,249.708,215.987,249.708z M215.567,240.509c-0.631,0-1.126,0.2-1.484,0.601
		s-0.563,0.969-0.615,1.704h4.18c-0.013-0.735-0.205-1.304-0.576-1.704S216.199,240.509,215.567,240.509z"/>
	<path d="M228.956,238.39c0.404,0,0.739,0.029,1.006,0.088l-0.225,2.793c-0.241-0.065-0.534-0.098-0.879-0.098
		c-0.951,0-1.691,0.244-2.222,0.732s-0.796,1.172-0.796,2.051v5.557h-2.979v-10.918h2.256l0.439,1.836h0.146
		c0.338-0.612,0.796-1.105,1.372-1.479S228.279,238.39,228.956,238.39z"/>
</g>
<g enable-background="new    ">
	<rect x="121.229" y="140.109" fill="none" width="145.552" height="75.288"/>
	<path fill="#E15218" d="M180.743,155.31h-3.438l-3.74-6.016l-1.279,0.918v5.098h-3.027v-14.277h3.027v6.533l1.191-1.68l3.867-4.854
		h3.359l-4.98,6.318L180.743,155.31z"/>
	<path fill="#E15218" d="M187.247,155.505c-1.758,0-3.131-0.485-4.121-1.455s-1.484-2.344-1.484-4.121
		c0-1.829,0.458-3.244,1.372-4.243s2.179-1.499,3.794-1.499c1.543,0,2.744,0.439,3.604,1.318s1.289,2.093,1.289,3.643v1.445h-7.041
		c0.033,0.847,0.283,1.507,0.752,1.982s1.126,0.713,1.973,0.713c0.658,0,1.279-0.068,1.865-0.205s1.198-0.354,1.836-0.654v2.305
		c-0.521,0.261-1.078,0.454-1.67,0.581S188.1,155.505,187.247,155.505z M186.827,146.306c-0.631,0-1.126,0.2-1.484,0.601
		s-0.563,0.969-0.615,1.704h4.18c-0.013-0.735-0.205-1.304-0.576-1.704S187.458,146.306,186.827,146.306z"/>
	<path fill="#E15218" d="M192.56,144.392h3.262l2.061,6.143c0.176,0.534,0.296,1.165,0.361,1.895h0.059
		c0.072-0.671,0.211-1.302,0.42-1.895l2.021-6.143h3.193l-4.619,12.314c-0.423,1.14-1.027,1.992-1.812,2.559s-1.701,0.85-2.749,0.85
		c-0.514,0-1.019-0.056-1.514-0.166v-2.363c0.358,0.085,0.749,0.127,1.172,0.127c0.527,0,0.988-0.161,1.382-0.483
		s0.702-0.809,0.923-1.46l0.176-0.537L192.56,144.392z"/>
	<path fill="#E15218" d="M217.394,155.31h-3.018v-8.262l0.029-1.357l0.049-1.484c-0.501,0.501-0.85,0.83-1.045,0.986l-1.641,1.318
		l-1.455-1.816l4.6-3.662h2.48V155.31z"/>
	<path fill="#E15218" d="M158.668,179.31v-14.277h3.027v11.777h5.791v2.5H158.668z"/>
	<path fill="#E15218" d="M179.654,173.831c0,1.777-0.469,3.167-1.406,4.17s-2.243,1.504-3.916,1.504
		c-1.048,0-1.973-0.229-2.773-0.688s-1.416-1.118-1.846-1.978s-0.645-1.862-0.645-3.008c0-1.784,0.465-3.171,1.396-4.16
		s2.24-1.484,3.926-1.484c1.048,0,1.973,0.228,2.773,0.684s1.416,1.11,1.846,1.963S179.654,172.686,179.654,173.831z
		 M172.105,173.831c0,1.081,0.177,1.897,0.532,2.451s0.933,0.83,1.733,0.83c0.794,0,1.366-0.275,1.714-0.825
		s0.522-1.369,0.522-2.456c0-1.081-0.176-1.892-0.527-2.432s-0.928-0.811-1.729-0.811c-0.794,0-1.367,0.269-1.719,0.806
		S172.105,172.744,172.105,173.831z"/>
	<path fill="#E15218" d="M192.037,173.831c0,1.777-0.469,3.167-1.406,4.17s-2.243,1.504-3.916,1.504
		c-1.048,0-1.973-0.229-2.773-0.688s-1.416-1.118-1.846-1.978s-0.645-1.862-0.645-3.008c0-1.784,0.465-3.171,1.396-4.16
		s2.24-1.484,3.926-1.484c1.048,0,1.973,0.228,2.773,0.684s1.416,1.11,1.846,1.963S192.037,172.686,192.037,173.831z
		 M184.488,173.831c0,1.081,0.177,1.897,0.532,2.451s0.933,0.83,1.733,0.83c0.794,0,1.366-0.275,1.714-0.825
		s0.522-1.369,0.522-2.456c0-1.081-0.176-1.892-0.527-2.432s-0.928-0.811-1.729-0.811c-0.794,0-1.367,0.269-1.719,0.806
		S184.488,172.744,184.488,173.831z"/>
	<path fill="#E15218" d="M197.359,173.372l1.299-1.66l3.057-3.32h3.359l-4.336,4.736l4.6,6.182H201.9l-3.145-4.424l-1.279,1.025
		v3.398h-2.979v-15.195h2.979v6.777l-0.156,2.48H197.359z"/>
	<path fill="#E15218" d="M214.635,179.31l-0.4-1.396h-0.156c-0.319,0.508-0.771,0.9-1.357,1.177s-1.253,0.415-2.002,0.415
		c-1.283,0-2.25-0.344-2.9-1.03s-0.977-1.675-0.977-2.964v-7.119h2.979v6.377c0,0.788,0.14,1.379,0.42,1.772
		s0.726,0.591,1.338,0.591c0.833,0,1.436-0.278,1.807-0.835s0.557-1.479,0.557-2.769v-5.137h2.979v10.918H214.635z"/>
	<path fill="#E15218" d="M226.041,179.505c-1.283,0-2.289-0.466-3.018-1.396h-0.156c0.104,0.911,0.156,1.438,0.156,1.582v4.424
		h-2.979v-15.723h2.422l0.42,1.416h0.137c0.697-1.081,1.729-1.621,3.096-1.621c1.289,0,2.298,0.498,3.027,1.494
		s1.094,2.38,1.094,4.15c0,1.165-0.171,2.178-0.513,3.037s-0.829,1.514-1.46,1.963S226.894,179.505,226.041,179.505z
		 M225.162,170.569c-0.736,0-1.273,0.227-1.611,0.679s-0.514,1.199-0.527,2.241v0.322c0,1.172,0.174,2.012,0.522,2.52
		s0.9,0.762,1.655,0.762c1.334,0,2.002-1.101,2.002-3.301c0-1.074-0.165-1.88-0.493-2.417S225.865,170.569,225.162,170.569z"/>
</g>
<g>
	<path fill="none" stroke="#000000" stroke-miterlimit="10" d="M81.526,285.317v-13.879c0-2.75,2.25-5,5-5H296.23c2.75,0,5,2.25,5,5
		v13.879"/>
</g>
<g>
	<g>
		<path fill="none" stroke="#000000" stroke-miterlimit="10" d="M133.471,147.312H36.938c-2.2,0-2.807,1.348-1.349,2.995
			l79.904,90.278c1.458,1.647,4.451,2.995,6.651,2.995h18.586"/>
		<g>
			<polygon points="139.562,247.569 146.471,243.58 139.562,239.591 			"/>
		</g>
	</g>
</g>
<g>
	<g>
		<path fill="none" stroke="#000000" stroke-miterlimit="10" d="M253.09,147.312h96.533c2.2,0,2.807,1.348,1.349,2.995
			l-79.904,90.278c-1.458,1.647-4.451,2.995-6.651,2.995h-18.586"/>
		<g>
			<polygon points="246.999,239.591 240.09,243.58 246.999,247.569 			"/>
		</g>
	</g>
</g>
<g>
	<g>
		<path fill="#E15218" d="M141.852,360.785l3.959,3.565l-1.187,1.317l-5.597-5.039l7.611-8.453l1.638,1.474L141.852,360.785z"/>
		<path fill="#E15218" d="M152.196,361.111l3.42,3.079l-4.475,4.97l1.701,1.532l-1.181,1.312l-5.121-4.61l1.181-1.312l1.789,1.61
			l3.288-3.651l-1.789-1.611L152.196,361.111z M155.316,361.008c0.112-0.124,0.237-0.219,0.378-0.285
			c0.14-0.067,0.285-0.101,0.434-0.104c0.149-0.002,0.3,0.027,0.453,0.087c0.153,0.061,0.299,0.153,0.438,0.279
			c0.287,0.258,0.441,0.543,0.465,0.854c0.024,0.312-0.077,0.594-0.304,0.846s-0.497,0.383-0.81,0.392
			c-0.312,0.009-0.612-0.116-0.899-0.374c-0.139-0.125-0.248-0.26-0.323-0.406c-0.076-0.145-0.12-0.292-0.133-0.44
			c-0.013-0.149,0.005-0.297,0.057-0.442C155.124,361.266,155.205,361.133,155.316,361.008z"/>
		<path fill="#E15218" d="M160.365,368.466l-0.685,0.96c0.506-0.112,0.998-0.109,1.475,0.008c0.476,0.117,0.91,0.352,1.301,0.703
			c0.317,0.286,0.565,0.594,0.746,0.924c0.179,0.33,0.273,0.684,0.282,1.059c0.008,0.375-0.078,0.771-0.259,1.187
			c-0.182,0.415-0.477,0.851-0.888,1.308l-3.481,3.867l-1.614-1.453l3.46-3.844c0.223-0.248,0.379-0.479,0.467-0.689
			c0.088-0.21,0.122-0.409,0.102-0.596c-0.021-0.188-0.089-0.365-0.203-0.535c-0.113-0.169-0.264-0.338-0.449-0.505
			c-0.275-0.247-0.559-0.403-0.852-0.467c-0.293-0.063-0.586-0.054-0.881,0.032l-4.02,4.465l-1.62-1.459l5.656-6.281
			L160.365,368.466z"/>
		<path fill="#E15218" d="M165.081,379.387l-1.343,0.021l-1.725,1.916l-1.614-1.453l8.029-8.918l1.614,1.453l-4.59,5.098l0.99-0.119
			l3.45-0.341l1.939,1.746l-4.726,0.485l-0.599,6.095l-1.98-1.783L165.081,379.387z"/>
		<path fill="#E15218" d="M183.052,394.443c-0.492,0.547-0.988,0.971-1.488,1.273c-0.5,0.303-0.995,0.488-1.484,0.557
			c-0.489,0.068-0.969,0.02-1.438-0.145c-0.47-0.162-0.917-0.436-1.343-0.818c-0.422-0.381-0.739-0.797-0.951-1.246
			s-0.311-0.922-0.295-1.416c0.015-0.496,0.145-1.01,0.389-1.543s0.613-1.072,1.105-1.617l1.819-2.021
			c0.492-0.545,0.989-0.969,1.491-1.27c0.502-0.301,0.999-0.484,1.49-0.551c0.491-0.066,0.97-0.02,1.438,0.143
			s0.912,0.434,1.334,0.812c0.426,0.383,0.745,0.801,0.956,1.25c0.212,0.449,0.311,0.922,0.296,1.418
			c-0.015,0.494-0.146,1.008-0.392,1.539c-0.247,0.531-0.616,1.07-1.108,1.615L183.052,394.443z M182.576,391.703l-3.758-0.355
			c-0.482,0.574-0.752,1.08-0.809,1.516c-0.057,0.438,0.097,0.818,0.461,1.146c0.379,0.342,0.793,0.447,1.242,0.318
			c0.448-0.129,0.947-0.496,1.494-1.104L182.576,391.703z M179.8,390.256l3.764,0.35c0.501-0.58,0.782-1.09,0.843-1.531
			c0.062-0.443-0.093-0.832-0.464-1.166c-0.375-0.338-0.787-0.445-1.234-0.322c-0.447,0.123-0.943,0.486-1.487,1.09L179.8,390.256z"
			/>
	</g>
</g>
<g enable-background="new    ">
	
		<rect x="163.107" y="422.681" transform="matrix(0.7431 0.6691 -0.6691 0.7431 361.8626 -71.184)" fill="none" width="221.088" height="26.125"/>
	<path d="M195.874,361.88l3.959,3.565l-1.187,1.317l-5.597-5.039l7.611-8.453l1.638,1.474L195.874,361.88z"/>
	<path d="M206.218,362.207l3.42,3.079l-4.475,4.97l1.701,1.532l-1.181,1.312l-5.121-4.61l1.181-1.312l1.789,1.61l3.288-3.651
		l-1.789-1.611L206.218,362.207z M209.338,362.104c0.112-0.124,0.237-0.219,0.378-0.285c0.14-0.067,0.285-0.101,0.434-0.104
		c0.149-0.002,0.3,0.027,0.453,0.087c0.153,0.061,0.299,0.153,0.438,0.279c0.287,0.258,0.441,0.543,0.465,0.854
		c0.024,0.312-0.077,0.594-0.304,0.846s-0.497,0.383-0.81,0.392c-0.312,0.009-0.612-0.116-0.899-0.374
		c-0.139-0.125-0.248-0.26-0.323-0.406c-0.076-0.145-0.12-0.292-0.133-0.44c-0.013-0.149,0.005-0.297,0.057-0.442
		C209.146,362.362,209.227,362.229,209.338,362.104z"/>
	<path d="M214.387,369.562l-0.685,0.96c0.506-0.112,0.998-0.109,1.475,0.008c0.476,0.117,0.91,0.352,1.301,0.703
		c0.317,0.286,0.565,0.594,0.746,0.924c0.179,0.33,0.273,0.684,0.282,1.059c0.008,0.375-0.078,0.771-0.259,1.187
		c-0.182,0.415-0.477,0.851-0.888,1.308l-3.481,3.867l-1.614-1.453l3.46-3.844c0.223-0.248,0.379-0.479,0.467-0.689
		c0.088-0.21,0.122-0.409,0.102-0.596c-0.021-0.188-0.089-0.365-0.203-0.535c-0.113-0.169-0.264-0.338-0.449-0.505
		c-0.275-0.247-0.559-0.403-0.852-0.467c-0.293-0.063-0.586-0.054-0.881,0.032l-4.02,4.465l-1.62-1.459l5.656-6.281L214.387,369.562
		z"/>
	<path d="M219.103,380.483l-1.343,0.021l-1.725,1.916l-1.614-1.453l8.029-8.918l1.614,1.453l-4.59,5.098l0.99-0.119l3.45-0.341
		l1.939,1.746l-4.726,0.485l-0.599,6.095l-1.98-1.783L219.103,380.483z"/>
	<path d="M232.627,397.359l-1.631-1.469l5.839-6.484l-2.827-1.158l1.265-1.404l4.878,1.984l0.087,0.078L232.627,397.359z"/>
</g>
<g enable-background="new    ">
	
		<rect x="219.93" y="422.681" transform="matrix(0.7431 0.6691 -0.6691 0.7431 376.4583 -109.2065)" fill="none" width="221.088" height="26.125"/>
	<path d="M252.697,361.88l3.959,3.565l-1.187,1.317l-5.597-5.039l7.611-8.453l1.638,1.474L252.697,361.88z"/>
	<path d="M263.041,362.207l3.42,3.079l-4.475,4.97l1.701,1.532l-1.181,1.312l-5.121-4.61l1.181-1.312l1.789,1.61l3.288-3.651
		l-1.789-1.611L263.041,362.207z M266.162,362.104c0.112-0.124,0.237-0.219,0.378-0.285c0.14-0.067,0.285-0.101,0.434-0.104
		c0.149-0.002,0.3,0.027,0.453,0.087c0.153,0.061,0.299,0.153,0.438,0.279c0.287,0.258,0.441,0.543,0.465,0.854
		c0.024,0.312-0.077,0.594-0.304,0.846s-0.497,0.383-0.81,0.392c-0.312,0.009-0.612-0.116-0.899-0.374
		c-0.139-0.125-0.248-0.26-0.323-0.406c-0.076-0.145-0.12-0.292-0.133-0.44c-0.013-0.149,0.005-0.297,0.057-0.442
		C265.969,362.362,266.05,362.229,266.162,362.104z"/>
	<path d="M271.21,369.562l-0.685,0.96c0.506-0.112,0.998-0.109,1.475,0.008c0.476,0.117,0.91,0.352,1.301,0.703
		c0.317,0.286,0.565,0.594,0.746,0.924c0.179,0.33,0.273,0.684,0.282,1.059c0.008,0.375-0.078,0.771-0.259,1.187
		c-0.182,0.415-0.477,0.851-0.888,1.308l-3.481,3.867l-1.614-1.453l3.46-3.844c0.223-0.248,0.379-0.479,0.467-0.689
		c0.088-0.21,0.122-0.409,0.102-0.596c-0.021-0.188-0.089-0.365-0.203-0.535c-0.113-0.169-0.264-0.338-0.449-0.505
		c-0.275-0.247-0.559-0.403-0.852-0.467c-0.293-0.063-0.586-0.054-0.881,0.032l-4.02,4.465l-1.62-1.459l5.656-6.281L271.21,369.562z
		"/>
	<path d="M275.926,380.483l-1.343,0.021l-1.725,1.916l-1.614-1.453l8.029-8.918l1.614,1.453l-4.59,5.098l0.99-0.119l3.45-0.341
		l1.939,1.746l-4.726,0.485l-0.599,6.095l-1.98-1.783L275.926,380.483z"/>
	<path d="M291.024,398.777l-5.766-5.191l0.993-1.104l5.38-0.475c0.421-0.041,0.792-0.09,1.11-0.146
		c0.317-0.059,0.592-0.125,0.825-0.199c0.232-0.074,0.429-0.16,0.592-0.26c0.163-0.1,0.302-0.213,0.417-0.34
		c0.171-0.189,0.295-0.383,0.374-0.578c0.079-0.197,0.115-0.391,0.108-0.582c-0.006-0.191-0.054-0.375-0.142-0.555
		c-0.089-0.178-0.217-0.342-0.383-0.49c-0.445-0.4-0.889-0.576-1.33-0.525c-0.442,0.051-0.863,0.299-1.264,0.744l-1.62-1.459
		c0.338-0.375,0.729-0.666,1.174-0.871c0.444-0.207,0.91-0.316,1.398-0.334c0.488-0.016,0.982,0.068,1.482,0.258
		c0.5,0.188,0.975,0.482,1.424,0.887c0.43,0.387,0.756,0.791,0.979,1.207c0.223,0.418,0.348,0.836,0.375,1.254
		c0.027,0.416-0.038,0.83-0.195,1.238c-0.157,0.408-0.401,0.795-0.732,1.164c-0.251,0.277-0.534,0.506-0.85,0.68
		c-0.315,0.176-0.665,0.314-1.049,0.418c-0.383,0.104-0.803,0.182-1.26,0.238c-0.457,0.055-0.949,0.1-1.478,0.135l-3.107,0.252
		l3.71,3.34L291.024,398.777z"/>
</g>
<g enable-background="new    ">
	
		<rect x="275.534" y="422.681" transform="matrix(0.7431 0.6691 -0.6691 0.7431 390.7409 -146.4136)" fill="none" width="221.088" height="26.125"/>
	<path d="M308.301,361.88l3.959,3.565l-1.187,1.317l-5.597-5.039l7.611-8.453l1.638,1.474L308.301,361.88z"/>
	<path d="M318.646,362.207l3.42,3.079l-4.475,4.97l1.701,1.532l-1.181,1.312l-5.121-4.61l1.181-1.312l1.789,1.61l3.288-3.651
		l-1.789-1.611L318.646,362.207z M321.766,362.104c0.112-0.124,0.237-0.219,0.378-0.285c0.14-0.067,0.285-0.101,0.434-0.104
		c0.149-0.002,0.3,0.027,0.453,0.087c0.153,0.061,0.299,0.153,0.438,0.279c0.287,0.258,0.441,0.543,0.465,0.854
		c0.024,0.312-0.077,0.594-0.304,0.846s-0.497,0.383-0.81,0.392c-0.312,0.009-0.612-0.116-0.899-0.374
		c-0.139-0.125-0.248-0.26-0.323-0.406c-0.076-0.145-0.12-0.292-0.133-0.44c-0.013-0.149,0.005-0.297,0.057-0.442
		C321.573,362.362,321.654,362.229,321.766,362.104z"/>
	<path d="M326.814,369.562l-0.685,0.96c0.506-0.112,0.998-0.109,1.475,0.008c0.476,0.117,0.91,0.352,1.301,0.703
		c0.317,0.286,0.565,0.594,0.746,0.924c0.179,0.33,0.273,0.684,0.282,1.059c0.008,0.375-0.078,0.771-0.259,1.187
		c-0.182,0.415-0.477,0.851-0.888,1.308l-3.481,3.867l-1.614-1.453l3.46-3.844c0.223-0.248,0.379-0.479,0.467-0.689
		c0.088-0.21,0.122-0.409,0.102-0.596c-0.021-0.188-0.089-0.365-0.203-0.535c-0.113-0.169-0.264-0.338-0.449-0.505
		c-0.275-0.247-0.559-0.403-0.852-0.467c-0.293-0.063-0.586-0.054-0.881,0.032l-4.02,4.465l-1.62-1.459l5.656-6.281L326.814,369.562
		z"/>
	<path d="M331.53,380.483l-1.343,0.021l-1.725,1.916l-1.614-1.453l8.029-8.918l1.614,1.453l-4.59,5.098l0.99-0.119l3.45-0.341
		l1.939,1.746l-4.726,0.485l-0.599,6.095l-1.98-1.783L331.53,380.483z"/>
	<path d="M347.17,390.33l0.877,0.789c0.441,0.396,0.868,0.58,1.281,0.549s0.782-0.227,1.106-0.586
		c0.149-0.166,0.262-0.34,0.337-0.521s0.109-0.365,0.102-0.551c-0.008-0.186-0.062-0.373-0.162-0.561
		c-0.101-0.189-0.249-0.371-0.447-0.549c-0.163-0.146-0.335-0.26-0.519-0.342c-0.183-0.08-0.367-0.125-0.552-0.133
		c-0.185-0.01-0.364,0.02-0.537,0.088c-0.174,0.068-0.33,0.18-0.469,0.336l-1.614-1.455c0.31-0.344,0.663-0.594,1.059-0.75
		c0.396-0.154,0.809-0.223,1.24-0.203c0.43,0.02,0.864,0.125,1.3,0.314s0.847,0.457,1.234,0.807
		c0.418,0.377,0.755,0.773,1.011,1.189c0.256,0.416,0.417,0.838,0.481,1.264s0.031,0.852-0.102,1.273
		c-0.132,0.424-0.376,0.834-0.731,1.229c-0.164,0.182-0.352,0.336-0.565,0.465c-0.213,0.127-0.442,0.223-0.69,0.287
		s-0.509,0.094-0.784,0.088s-0.557-0.051-0.845-0.135c0.159,0.297,0.266,0.59,0.319,0.875c0.054,0.287,0.061,0.566,0.022,0.836
		c-0.04,0.268-0.123,0.527-0.25,0.779c-0.127,0.248-0.292,0.486-0.494,0.711c-0.355,0.395-0.748,0.678-1.178,0.854
		c-0.43,0.174-0.871,0.246-1.324,0.221c-0.453-0.025-0.91-0.146-1.371-0.363c-0.462-0.215-0.901-0.51-1.319-0.887
		c-0.36-0.324-0.667-0.689-0.92-1.098c-0.254-0.406-0.424-0.83-0.512-1.27s-0.076-0.883,0.035-1.33s0.352-0.875,0.721-1.285
		l1.614,1.453c-0.146,0.164-0.25,0.342-0.312,0.533c-0.062,0.193-0.08,0.391-0.055,0.594c0.025,0.201,0.09,0.398,0.194,0.594
		s0.25,0.379,0.435,0.545c0.41,0.369,0.829,0.551,1.256,0.543c0.428-0.008,0.809-0.197,1.144-0.568
		c0.206-0.229,0.348-0.455,0.429-0.676c0.081-0.223,0.105-0.441,0.074-0.66c-0.032-0.217-0.113-0.432-0.244-0.639
		c-0.131-0.209-0.306-0.414-0.527-0.611l-0.877-0.789L347.17,390.33z"/>
</g>
<g>
	<g>
		<path d="M396.337,360.466l-1.777,0.177l-2.243,2.49l-1.637-1.475l7.611-8.453l1.637,1.475l-3.487,3.872l1.697-0.343l4.611-0.989
			l1.997,1.798l-6.211,1.178l-1.295,7.371l-1.939-1.746L396.337,360.466z"/>
		<path d="M400.828,371.006c-0.484-0.436-0.852-0.91-1.104-1.424c-0.251-0.516-0.397-1.035-0.434-1.562s0.035-1.045,0.215-1.553
			c0.179-0.506,0.459-0.971,0.839-1.393l0.209-0.232c0.432-0.479,0.902-0.85,1.411-1.111s1.026-0.412,1.556-0.455
			c0.528-0.043,1.05,0.025,1.565,0.2c0.514,0.176,0.99,0.461,1.428,0.854c0.453,0.408,0.789,0.846,1.009,1.313
			c0.22,0.468,0.33,0.948,0.333,1.44c0.002,0.492-0.105,0.986-0.321,1.482c-0.215,0.496-0.531,0.975-0.945,1.436l-0.617,0.686
			l-4.261-3.838c-0.161,0.241-0.273,0.492-0.337,0.754s-0.08,0.521-0.047,0.782c0.032,0.261,0.111,0.511,0.238,0.751
			c0.126,0.24,0.302,0.462,0.527,0.664c0.159,0.143,0.33,0.27,0.515,0.379c0.185,0.11,0.375,0.201,0.573,0.27
			c0.197,0.068,0.397,0.114,0.602,0.137c0.204,0.022,0.407,0.016,0.607-0.021l0.023,1.598c-0.23,0.053-0.487,0.076-0.771,0.068
			s-0.584-0.057-0.898-0.146c-0.315-0.09-0.635-0.223-0.961-0.397C401.456,371.512,401.138,371.286,400.828,371.006z
			 M405.326,365.626c-0.182-0.163-0.377-0.282-0.586-0.354c-0.208-0.072-0.424-0.1-0.646-0.083
			c-0.222,0.018-0.448,0.074-0.674,0.172c-0.228,0.096-0.453,0.229-0.676,0.4l2.647,2.383l0.115-0.127
			c0.146-0.178,0.258-0.367,0.335-0.57s0.112-0.41,0.104-0.617c-0.009-0.208-0.063-0.414-0.163-0.619
			C405.683,366.006,405.531,365.811,405.326,365.626z"/>
		<path d="M410.069,374.344l-0.42,0.842l5.562-2.814l1.782,1.605l-9.69,4.352c-0.213,0.097-0.458,0.188-0.735,0.274
			c-0.278,0.087-0.571,0.134-0.88,0.143c-0.31,0.009-0.632-0.04-0.968-0.146c-0.335-0.106-0.666-0.305-0.991-0.598
			c-0.078-0.07-0.146-0.137-0.207-0.203c-0.061-0.064-0.117-0.13-0.17-0.195c-0.053-0.064-0.104-0.132-0.152-0.199
			c-0.047-0.068-0.098-0.143-0.15-0.225l1.306-1.053c0.066,0.059,0.147,0.138,0.245,0.236c0.097,0.098,0.177,0.175,0.239,0.23
			c0.127,0.115,0.275,0.178,0.444,0.189s0.33,0.002,0.483-0.027c0.153-0.031,0.286-0.065,0.398-0.104s0.176-0.052,0.192-0.038
			l1.047-0.381l2.757-8.409l1.765,1.589L410.069,374.344z"/>
		<path d="M427.69,389.16c-0.491,0.545-0.988,0.969-1.488,1.271s-0.995,0.488-1.484,0.557c-0.489,0.068-0.968,0.021-1.438-0.143
			c-0.47-0.164-0.917-0.438-1.343-0.82c-0.422-0.381-0.739-0.795-0.95-1.244c-0.212-0.451-0.311-0.922-0.296-1.418
			c0.015-0.496,0.145-1.01,0.389-1.541c0.245-0.533,0.614-1.072,1.105-1.619l1.819-2.02c0.491-0.547,0.988-0.97,1.49-1.271
			c0.502-0.302,0.999-0.485,1.49-0.552c0.491-0.066,0.97-0.019,1.438,0.145c0.467,0.161,0.912,0.432,1.334,0.812
			c0.426,0.384,0.744,0.8,0.956,1.25c0.212,0.449,0.311,0.922,0.295,1.417c-0.015,0.496-0.146,1.007-0.392,1.539
			c-0.247,0.531-0.616,1.07-1.107,1.615L427.69,389.16z M427.215,386.418l-3.758-0.355c-0.482,0.574-0.751,1.08-0.808,1.516
			c-0.057,0.438,0.097,0.818,0.461,1.146c0.379,0.342,0.793,0.447,1.242,0.318c0.448-0.127,0.947-0.496,1.494-1.104L427.215,386.418
			z M424.439,384.971l3.764,0.35c0.5-0.578,0.781-1.088,0.843-1.531c0.062-0.443-0.093-0.83-0.465-1.166
			c-0.375-0.338-0.787-0.445-1.234-0.322c-0.447,0.123-0.943,0.486-1.486,1.09L424.439,384.971z"/>
		<path d="M434.704,405.609l-1.01-0.91l9.755-10.834l1.01,0.91L434.704,405.609z"/>
		<path d="M447.739,413.035l7.611-8.453l2.189,1.971c0.561,0.506,0.982,1.059,1.265,1.66c0.282,0.6,0.431,1.217,0.445,1.852
			c0.015,0.633-0.104,1.268-0.356,1.902c-0.253,0.635-0.635,1.236-1.147,1.805l-0.627,0.697c-0.512,0.568-1.071,1.012-1.673,1.326
			c-0.603,0.316-1.218,0.502-1.843,0.559s-1.247-0.02-1.862-0.23s-1.193-0.559-1.731-1.043L447.739,413.035z M455.801,407.385
			l-5.238,5.818l0.627,0.564c0.306,0.275,0.632,0.463,0.979,0.564c0.346,0.102,0.703,0.119,1.07,0.049
			c0.367-0.068,0.737-0.221,1.11-0.455c0.373-0.236,0.74-0.555,1.103-0.957l0.638-0.709c0.342-0.379,0.609-0.764,0.803-1.154
			c0.193-0.389,0.305-0.775,0.335-1.154c0.029-0.379-0.027-0.744-0.168-1.098c-0.142-0.352-0.379-0.678-0.712-0.977L455.801,407.385
			z"/>
		<path d="M458.892,423.078c0.031-0.113,0.078-0.232,0.142-0.355c0.064-0.127,0.136-0.254,0.218-0.383
			c-0.176,0.016-0.361,0.016-0.554-0.004c-0.192-0.021-0.388-0.062-0.587-0.125c-0.199-0.062-0.4-0.152-0.604-0.27
			c-0.204-0.117-0.404-0.264-0.601-0.441c-0.321-0.289-0.575-0.602-0.76-0.938c-0.186-0.334-0.3-0.672-0.344-1.014
			c-0.044-0.34-0.016-0.674,0.083-1.002c0.099-0.328,0.271-0.627,0.515-0.898c0.596-0.662,1.303-0.951,2.123-0.869
			s1.719,0.564,2.698,1.447l0.9,0.809l0.334-0.371c0.271-0.301,0.388-0.629,0.349-0.982c-0.039-0.355-0.244-0.699-0.616-1.033
			c-0.329-0.297-0.632-0.441-0.911-0.436c-0.278,0.004-0.524,0.125-0.736,0.361l-1.614-1.453c0.241-0.268,0.527-0.469,0.862-0.602
			c0.334-0.135,0.696-0.189,1.086-0.168c0.39,0.021,0.796,0.127,1.219,0.316c0.423,0.188,0.846,0.471,1.268,0.852
			c0.379,0.342,0.69,0.705,0.934,1.094c0.243,0.387,0.403,0.779,0.479,1.178c0.076,0.396,0.057,0.795-0.057,1.195
			c-0.114,0.396-0.334,0.779-0.662,1.143l-2.425,2.693c-0.303,0.338-0.533,0.635-0.689,0.895c-0.156,0.258-0.265,0.504-0.327,0.736
			l-0.089,0.1L458.892,423.078z M458.373,420.561c0.162,0.146,0.332,0.262,0.505,0.35c0.173,0.086,0.345,0.148,0.513,0.188
			c0.167,0.041,0.329,0.057,0.481,0.051c0.153-0.006,0.289-0.029,0.409-0.068l0.972-1.08l-0.825-0.742
			c-0.251-0.227-0.488-0.396-0.709-0.508s-0.428-0.176-0.618-0.189c-0.191-0.014-0.369,0.016-0.532,0.09
			c-0.164,0.072-0.311,0.18-0.439,0.324c-0.195,0.217-0.281,0.465-0.256,0.746C457.896,420.002,458.062,420.281,458.373,420.561z"/>
		<path d="M472.105,420.814l-1.385,1.537l2.345,2.113l-1.072,1.189l-2.345-2.111l-2.431,2.699c-0.206,0.229-0.351,0.441-0.437,0.643
			c-0.085,0.201-0.121,0.389-0.105,0.566c0.015,0.178,0.073,0.35,0.176,0.512s0.239,0.32,0.41,0.473
			c0.124,0.111,0.255,0.221,0.396,0.326c0.14,0.105,0.276,0.201,0.41,0.291c0.134,0.088,0.261,0.17,0.381,0.242
			s0.225,0.133,0.316,0.18l-0.842,1.25c-0.172-0.035-0.354-0.096-0.549-0.184c-0.194-0.088-0.391-0.193-0.589-0.314
			c-0.199-0.123-0.397-0.258-0.597-0.406c-0.2-0.148-0.389-0.303-0.566-0.463c-0.345-0.311-0.616-0.637-0.814-0.98
			c-0.199-0.344-0.312-0.701-0.339-1.072s0.039-0.754,0.197-1.146c0.158-0.395,0.423-0.797,0.797-1.213l2.572-2.855l-1.434-1.291
			l1.072-1.191l1.434,1.291l1.385-1.537L472.105,420.814z"/>
		<path d="M473.163,435.928c0.031-0.113,0.078-0.232,0.142-0.357c0.063-0.125,0.136-0.252,0.218-0.381
			c-0.176,0.016-0.361,0.016-0.553-0.004c-0.193-0.021-0.389-0.062-0.587-0.125c-0.199-0.064-0.4-0.154-0.604-0.27
			c-0.204-0.117-0.404-0.264-0.601-0.441c-0.321-0.291-0.575-0.602-0.76-0.938c-0.186-0.334-0.3-0.672-0.344-1.014
			c-0.044-0.34-0.016-0.674,0.083-1.002c0.099-0.328,0.271-0.629,0.515-0.898c0.596-0.662,1.303-0.951,2.123-0.869
			s1.719,0.564,2.698,1.445l0.9,0.811l0.334-0.371c0.271-0.301,0.388-0.629,0.35-0.982c-0.039-0.355-0.244-0.699-0.616-1.033
			c-0.329-0.297-0.633-0.441-0.911-0.438c-0.278,0.006-0.523,0.127-0.736,0.363l-1.614-1.453c0.241-0.268,0.527-0.469,0.862-0.602
			c0.334-0.135,0.696-0.189,1.086-0.168s0.796,0.127,1.219,0.316c0.423,0.188,0.846,0.471,1.268,0.852
			c0.379,0.342,0.69,0.705,0.934,1.092c0.244,0.389,0.403,0.781,0.479,1.18c0.076,0.396,0.057,0.795-0.057,1.193
			c-0.114,0.398-0.334,0.781-0.662,1.145l-2.425,2.693c-0.303,0.338-0.533,0.635-0.689,0.895c-0.156,0.258-0.265,0.504-0.326,0.736
			L474.8,437.4L473.163,435.928z M472.643,433.41c0.163,0.146,0.332,0.262,0.505,0.35c0.174,0.086,0.345,0.148,0.513,0.188
			c0.168,0.041,0.329,0.057,0.481,0.051c0.152-0.006,0.289-0.029,0.408-0.068l0.972-1.08l-0.824-0.742
			c-0.252-0.227-0.488-0.396-0.71-0.508c-0.222-0.113-0.428-0.176-0.618-0.189c-0.191-0.014-0.369,0.016-0.532,0.09
			c-0.165,0.072-0.311,0.18-0.44,0.324c-0.195,0.217-0.281,0.465-0.256,0.746C472.167,432.85,472.333,433.131,472.643,433.41z"/>
	</g>
</g>
<g enable-background="new    ">
	
		<rect x="467.911" y="432.25" transform="matrix(0.7431 0.6691 -0.6691 0.7431 450.229 -282.2503)" fill="none" width="249.687" height="26.125"/>
	<path fill="#E15218" d="M507.096,360.466l-1.777,0.177l-2.243,2.49l-1.637-1.475l7.611-8.453l1.637,1.475l-3.487,3.872l1.697-0.343
		l4.611-0.989l1.997,1.798l-6.211,1.178l-1.295,7.371l-1.939-1.746L507.096,360.466z"/>
	<path fill="#E15218" d="M511.587,371.006c-0.484-0.436-0.852-0.91-1.104-1.424c-0.251-0.516-0.397-1.035-0.434-1.562
		s0.035-1.045,0.215-1.553c0.179-0.506,0.459-0.971,0.839-1.393l0.209-0.232c0.432-0.479,0.902-0.85,1.411-1.111
		s1.026-0.412,1.556-0.455c0.528-0.043,1.05,0.025,1.565,0.2c0.514,0.176,0.99,0.461,1.428,0.854
		c0.453,0.408,0.789,0.846,1.009,1.313c0.22,0.468,0.33,0.948,0.333,1.44c0.002,0.492-0.105,0.986-0.321,1.482
		c-0.215,0.496-0.531,0.975-0.945,1.436l-0.617,0.686l-4.261-3.838c-0.161,0.241-0.273,0.492-0.337,0.754s-0.08,0.521-0.047,0.782
		c0.032,0.261,0.111,0.511,0.238,0.751c0.126,0.24,0.302,0.462,0.527,0.664c0.159,0.143,0.33,0.27,0.515,0.379
		c0.185,0.11,0.375,0.201,0.573,0.27c0.197,0.068,0.397,0.114,0.602,0.137c0.204,0.022,0.407,0.016,0.607-0.021l0.023,1.598
		c-0.23,0.053-0.487,0.076-0.771,0.068s-0.584-0.057-0.898-0.146c-0.315-0.09-0.635-0.223-0.961-0.397
		C512.214,371.512,511.896,371.286,511.587,371.006z M516.084,365.626c-0.182-0.163-0.377-0.282-0.586-0.354
		c-0.208-0.072-0.424-0.1-0.646-0.083c-0.222,0.018-0.448,0.074-0.674,0.172c-0.228,0.096-0.453,0.229-0.676,0.4l2.647,2.383
		l0.115-0.127c0.146-0.178,0.258-0.367,0.335-0.57s0.112-0.41,0.104-0.617c-0.009-0.208-0.063-0.414-0.163-0.619
		C516.442,366.006,516.29,365.811,516.084,365.626z"/>
	<path fill="#E15218" d="M520.828,374.344l-0.42,0.842l5.562-2.814l1.782,1.605l-9.69,4.352c-0.213,0.097-0.458,0.188-0.735,0.274
		c-0.278,0.087-0.571,0.134-0.88,0.143c-0.31,0.009-0.632-0.04-0.968-0.146c-0.335-0.106-0.666-0.305-0.991-0.598
		c-0.078-0.07-0.146-0.137-0.207-0.203c-0.061-0.064-0.117-0.13-0.17-0.195c-0.053-0.064-0.104-0.132-0.152-0.199
		c-0.047-0.068-0.098-0.143-0.15-0.225l1.306-1.053c0.066,0.059,0.147,0.138,0.245,0.236c0.097,0.098,0.177,0.175,0.239,0.23
		c0.127,0.115,0.275,0.178,0.444,0.189s0.33,0.002,0.483-0.027c0.153-0.031,0.286-0.065,0.398-0.104s0.176-0.052,0.192-0.038
		l1.047-0.381l2.757-8.409l1.765,1.589L520.828,374.344z"/>
	<path fill="#E15218" d="M534.003,390.98l-1.631-1.469l5.839-6.486l-2.826-1.156l1.265-1.406l4.878,1.985l0.087,0.078
		L534.003,390.98z"/>
	<path fill="#E15218" d="M545.462,405.609l-1.01-0.91l9.755-10.834l1.01,0.91L545.462,405.609z"/>
	<path fill="#E15218" d="M558.498,413.035l7.611-8.453l2.189,1.971c0.561,0.506,0.982,1.059,1.265,1.66
		c0.282,0.6,0.431,1.217,0.445,1.852c0.015,0.633-0.104,1.268-0.356,1.902c-0.253,0.635-0.635,1.236-1.147,1.805l-0.627,0.697
		c-0.512,0.568-1.071,1.012-1.673,1.326c-0.603,0.316-1.218,0.502-1.843,0.559s-1.247-0.02-1.862-0.23s-1.193-0.559-1.731-1.043
		L558.498,413.035z M566.56,407.385l-5.238,5.818l0.627,0.564c0.306,0.275,0.632,0.463,0.979,0.564
		c0.346,0.102,0.703,0.119,1.07,0.049c0.367-0.068,0.737-0.221,1.11-0.455c0.373-0.236,0.74-0.555,1.103-0.957l0.638-0.709
		c0.342-0.379,0.609-0.764,0.803-1.154c0.193-0.389,0.305-0.775,0.335-1.154c0.029-0.379-0.027-0.744-0.168-1.098
		c-0.142-0.352-0.379-0.678-0.712-0.977L566.56,407.385z"/>
	<path fill="#E15218" d="M569.65,423.078c0.031-0.113,0.078-0.232,0.142-0.355c0.064-0.127,0.136-0.254,0.218-0.383
		c-0.176,0.016-0.361,0.016-0.554-0.004c-0.192-0.021-0.388-0.062-0.587-0.125c-0.199-0.062-0.4-0.152-0.604-0.27
		c-0.204-0.117-0.404-0.264-0.601-0.441c-0.321-0.289-0.575-0.602-0.76-0.938c-0.186-0.334-0.3-0.672-0.344-1.014
		c-0.044-0.34-0.016-0.674,0.083-1.002c0.099-0.328,0.271-0.627,0.515-0.898c0.596-0.662,1.303-0.951,2.123-0.869
		s1.719,0.564,2.698,1.447l0.9,0.809l0.334-0.371c0.271-0.301,0.388-0.629,0.349-0.982c-0.039-0.355-0.244-0.699-0.616-1.033
		c-0.329-0.297-0.632-0.441-0.911-0.436c-0.278,0.004-0.524,0.125-0.736,0.361l-1.614-1.453c0.241-0.268,0.527-0.469,0.862-0.602
		c0.334-0.135,0.696-0.189,1.086-0.168c0.39,0.021,0.796,0.127,1.219,0.316c0.423,0.188,0.846,0.471,1.268,0.852
		c0.379,0.342,0.69,0.705,0.934,1.094c0.243,0.387,0.403,0.779,0.479,1.178c0.076,0.396,0.057,0.795-0.057,1.195
		c-0.114,0.396-0.334,0.779-0.662,1.143l-2.425,2.693c-0.303,0.338-0.533,0.635-0.689,0.895c-0.156,0.258-0.265,0.504-0.327,0.736
		l-0.089,0.1L569.65,423.078z M569.131,420.561c0.162,0.146,0.332,0.262,0.505,0.35c0.173,0.086,0.345,0.148,0.513,0.188
		c0.167,0.041,0.329,0.057,0.481,0.051c0.153-0.006,0.289-0.029,0.409-0.068l0.972-1.08l-0.825-0.742
		c-0.251-0.227-0.488-0.396-0.709-0.508s-0.428-0.176-0.618-0.189c-0.191-0.014-0.369,0.016-0.532,0.09
		c-0.164,0.072-0.311,0.18-0.439,0.324c-0.195,0.217-0.281,0.465-0.256,0.746C568.655,420.002,568.821,420.281,569.131,420.561z"/>
	<path fill="#E15218" d="M582.864,420.814l-1.385,1.537l2.345,2.113l-1.072,1.189l-2.345-2.111l-2.431,2.699
		c-0.206,0.229-0.351,0.441-0.437,0.643c-0.085,0.201-0.121,0.389-0.105,0.566c0.015,0.178,0.073,0.35,0.176,0.512
		s0.239,0.32,0.41,0.473c0.124,0.111,0.255,0.221,0.396,0.326c0.14,0.105,0.276,0.201,0.41,0.291
		c0.134,0.088,0.261,0.17,0.381,0.242s0.225,0.133,0.316,0.18l-0.842,1.25c-0.172-0.035-0.354-0.096-0.549-0.184
		c-0.194-0.088-0.391-0.193-0.589-0.314c-0.199-0.123-0.397-0.258-0.597-0.406c-0.2-0.148-0.389-0.303-0.566-0.463
		c-0.345-0.311-0.616-0.637-0.814-0.98c-0.199-0.344-0.312-0.701-0.339-1.072s0.039-0.754,0.197-1.146
		c0.158-0.395,0.423-0.797,0.797-1.213l2.572-2.855l-1.434-1.291l1.072-1.191l1.434,1.291l1.385-1.537L582.864,420.814z"/>
	<path fill="#E15218" d="M583.921,435.928c0.031-0.113,0.078-0.232,0.142-0.357c0.063-0.125,0.136-0.252,0.218-0.381
		c-0.176,0.016-0.361,0.016-0.553-0.004c-0.193-0.021-0.389-0.062-0.587-0.125c-0.199-0.064-0.4-0.154-0.604-0.27
		c-0.204-0.117-0.404-0.264-0.601-0.441c-0.321-0.291-0.575-0.602-0.76-0.938c-0.186-0.334-0.3-0.672-0.344-1.014
		c-0.044-0.34-0.016-0.674,0.083-1.002c0.099-0.328,0.271-0.629,0.515-0.898c0.596-0.662,1.303-0.951,2.123-0.869
		s1.719,0.564,2.698,1.445l0.9,0.811l0.334-0.371c0.271-0.301,0.388-0.629,0.35-0.982c-0.039-0.355-0.244-0.699-0.616-1.033
		c-0.329-0.297-0.633-0.441-0.911-0.438c-0.278,0.006-0.523,0.127-0.736,0.363l-1.614-1.453c0.241-0.268,0.527-0.469,0.862-0.602
		c0.334-0.135,0.696-0.189,1.086-0.168s0.796,0.127,1.219,0.316c0.423,0.188,0.846,0.471,1.268,0.852
		c0.379,0.342,0.69,0.705,0.934,1.092c0.244,0.389,0.403,0.781,0.479,1.18c0.076,0.396,0.057,0.795-0.057,1.193
		c-0.114,0.398-0.334,0.781-0.662,1.145l-2.425,2.693c-0.303,0.338-0.533,0.635-0.689,0.895c-0.156,0.258-0.265,0.504-0.326,0.736
		l-0.089,0.098L583.921,435.928z M583.402,433.41c0.163,0.146,0.332,0.262,0.505,0.35c0.174,0.086,0.345,0.148,0.513,0.188
		c0.168,0.041,0.329,0.057,0.481,0.051c0.152-0.006,0.289-0.029,0.408-0.068l0.972-1.08l-0.824-0.742
		c-0.252-0.227-0.488-0.396-0.71-0.508c-0.222-0.113-0.428-0.176-0.618-0.189c-0.191-0.014-0.369,0.016-0.532,0.09
		c-0.165,0.072-0.311,0.18-0.44,0.324c-0.195,0.217-0.281,0.465-0.256,0.746C582.926,432.85,583.092,433.131,583.402,433.41z"/>
</g>
<g>
	<g>
		<path d="M611.666,360.466l-1.777,0.177l-2.243,2.49l-1.637-1.475l7.611-8.453l1.637,1.475l-3.487,3.872l1.697-0.343l4.611-0.989
			l1.997,1.798l-6.211,1.178l-1.295,7.371l-1.939-1.746L611.666,360.466z"/>
		<path d="M616.157,371.006c-0.484-0.436-0.852-0.91-1.104-1.424c-0.251-0.516-0.397-1.035-0.434-1.562s0.035-1.045,0.215-1.553
			c0.179-0.506,0.459-0.971,0.839-1.393l0.209-0.232c0.432-0.479,0.902-0.85,1.411-1.111s1.026-0.412,1.556-0.455
			c0.528-0.043,1.05,0.025,1.565,0.2c0.514,0.176,0.99,0.461,1.428,0.854c0.453,0.408,0.789,0.846,1.009,1.313
			c0.22,0.468,0.33,0.948,0.333,1.44c0.002,0.492-0.105,0.986-0.321,1.482c-0.215,0.496-0.531,0.975-0.945,1.436l-0.617,0.686
			l-4.261-3.838c-0.161,0.241-0.273,0.492-0.337,0.754s-0.08,0.521-0.047,0.782c0.032,0.261,0.111,0.511,0.238,0.751
			c0.126,0.24,0.302,0.462,0.527,0.664c0.159,0.143,0.33,0.27,0.515,0.379c0.185,0.11,0.375,0.201,0.573,0.27
			c0.197,0.068,0.397,0.114,0.602,0.137c0.204,0.022,0.407,0.016,0.607-0.021l0.023,1.598c-0.23,0.053-0.487,0.076-0.771,0.068
			s-0.584-0.057-0.898-0.146c-0.315-0.09-0.635-0.223-0.961-0.397C616.785,371.512,616.467,371.286,616.157,371.006z
			 M620.655,365.626c-0.182-0.163-0.377-0.282-0.586-0.354c-0.208-0.072-0.424-0.1-0.646-0.083
			c-0.222,0.018-0.448,0.074-0.674,0.172c-0.228,0.096-0.453,0.229-0.676,0.4l2.647,2.383l0.115-0.127
			c0.146-0.178,0.258-0.367,0.335-0.57s0.112-0.41,0.104-0.617c-0.009-0.208-0.063-0.414-0.163-0.619
			C621.012,366.006,620.86,365.811,620.655,365.626z"/>
		<path d="M625.398,374.344l-0.42,0.842l5.562-2.814l1.782,1.605l-9.69,4.352c-0.213,0.097-0.458,0.188-0.735,0.274
			c-0.278,0.087-0.571,0.134-0.88,0.143c-0.31,0.009-0.632-0.04-0.968-0.146c-0.335-0.106-0.666-0.305-0.991-0.598
			c-0.078-0.07-0.146-0.137-0.207-0.203c-0.061-0.064-0.117-0.13-0.17-0.195c-0.053-0.064-0.104-0.132-0.152-0.199
			c-0.047-0.068-0.098-0.143-0.15-0.225l1.306-1.053c0.066,0.059,0.147,0.138,0.245,0.236c0.097,0.098,0.177,0.175,0.239,0.23
			c0.127,0.115,0.275,0.178,0.444,0.189s0.33,0.002,0.483-0.027c0.153-0.031,0.286-0.065,0.398-0.104s0.176-0.052,0.192-0.038
			l1.047-0.381l2.757-8.409l1.765,1.589L625.398,374.344z"/>
		<path d="M640.147,392.396l-5.765-5.191l0.993-1.104l5.379-0.475c0.421-0.041,0.792-0.09,1.11-0.146
			c0.317-0.057,0.592-0.123,0.825-0.197c0.232-0.076,0.429-0.162,0.592-0.262c0.163-0.1,0.301-0.213,0.417-0.34
			c0.17-0.189,0.294-0.382,0.374-0.578c0.078-0.197,0.114-0.39,0.108-0.581c-0.007-0.19-0.054-0.376-0.143-0.554
			c-0.088-0.179-0.216-0.342-0.383-0.492c-0.445-0.4-0.889-0.576-1.33-0.525c-0.441,0.051-0.863,0.299-1.264,0.744l-1.62-1.459
			c0.337-0.375,0.729-0.666,1.174-0.871c0.444-0.206,0.911-0.316,1.398-0.334c0.488-0.016,0.982,0.07,1.482,0.258
			c0.5,0.188,0.975,0.483,1.424,0.889c0.43,0.387,0.756,0.789,0.979,1.206c0.223,0.418,0.348,0.835,0.375,1.253
			c0.027,0.417-0.038,0.83-0.195,1.238c-0.158,0.408-0.401,0.797-0.733,1.164c-0.251,0.279-0.534,0.506-0.849,0.682
			c-0.315,0.174-0.666,0.314-1.048,0.416c-0.384,0.104-0.804,0.182-1.26,0.238c-0.457,0.055-0.95,0.1-1.479,0.135l-3.107,0.252
			l3.71,3.34L640.147,392.396z"/>
		<path d="M650.033,405.609l-1.01-0.91l9.755-10.834l1.01,0.91L650.033,405.609z"/>
		<path d="M663.068,413.035l7.611-8.453l2.189,1.971c0.561,0.506,0.982,1.059,1.265,1.66c0.282,0.6,0.431,1.217,0.445,1.852
			c0.015,0.633-0.104,1.268-0.356,1.902c-0.253,0.635-0.635,1.236-1.147,1.805l-0.627,0.697c-0.512,0.568-1.071,1.012-1.673,1.326
			c-0.603,0.316-1.218,0.502-1.843,0.559s-1.247-0.02-1.862-0.23s-1.193-0.559-1.731-1.043L663.068,413.035z M671.13,407.385
			l-5.238,5.818l0.627,0.564c0.306,0.275,0.632,0.463,0.979,0.564c0.346,0.102,0.703,0.119,1.07,0.049
			c0.367-0.068,0.737-0.221,1.11-0.455c0.373-0.236,0.74-0.555,1.103-0.957l0.638-0.709c0.342-0.379,0.609-0.764,0.803-1.154
			c0.193-0.389,0.305-0.775,0.335-1.154c0.029-0.379-0.027-0.744-0.168-1.098c-0.142-0.352-0.379-0.678-0.712-0.977L671.13,407.385z
			"/>
		<path d="M674.221,423.078c0.031-0.113,0.078-0.232,0.142-0.355c0.064-0.127,0.136-0.254,0.218-0.383
			c-0.176,0.016-0.361,0.016-0.554-0.004c-0.192-0.021-0.388-0.062-0.587-0.125c-0.199-0.062-0.4-0.152-0.604-0.27
			c-0.204-0.117-0.404-0.264-0.601-0.441c-0.321-0.289-0.575-0.602-0.76-0.938c-0.186-0.334-0.3-0.672-0.344-1.014
			c-0.044-0.34-0.016-0.674,0.083-1.002c0.099-0.328,0.271-0.627,0.515-0.898c0.596-0.662,1.303-0.951,2.123-0.869
			s1.719,0.564,2.698,1.447l0.9,0.809l0.334-0.371c0.271-0.301,0.388-0.629,0.349-0.982c-0.039-0.355-0.244-0.699-0.616-1.033
			c-0.329-0.297-0.632-0.441-0.911-0.436c-0.278,0.004-0.524,0.125-0.736,0.361l-1.614-1.453c0.241-0.268,0.527-0.469,0.862-0.602
			c0.334-0.135,0.696-0.189,1.086-0.168c0.39,0.021,0.796,0.127,1.219,0.316c0.423,0.188,0.846,0.471,1.268,0.852
			c0.379,0.342,0.69,0.705,0.934,1.094c0.243,0.387,0.403,0.779,0.479,1.178c0.076,0.396,0.057,0.795-0.057,1.195
			c-0.114,0.396-0.334,0.779-0.662,1.143l-2.425,2.693c-0.303,0.338-0.533,0.635-0.689,0.895c-0.156,0.258-0.265,0.504-0.327,0.736
			l-0.089,0.1L674.221,423.078z M673.702,420.561c0.162,0.146,0.332,0.262,0.505,0.35c0.173,0.086,0.345,0.148,0.513,0.188
			c0.167,0.041,0.329,0.057,0.481,0.051c0.153-0.006,0.289-0.029,0.409-0.068l0.972-1.08l-0.825-0.742
			c-0.251-0.227-0.488-0.396-0.709-0.508s-0.428-0.176-0.618-0.189c-0.191-0.014-0.369,0.016-0.532,0.09
			c-0.164,0.072-0.311,0.18-0.439,0.324c-0.195,0.217-0.281,0.465-0.256,0.746C673.226,420.002,673.392,420.281,673.702,420.561z"/>
		<path d="M687.434,420.814l-1.385,1.537l2.346,2.113l-1.072,1.189l-2.346-2.111l-2.43,2.699c-0.206,0.229-0.351,0.441-0.437,0.643
			c-0.085,0.201-0.121,0.389-0.105,0.566c0.015,0.178,0.073,0.35,0.176,0.512s0.239,0.32,0.41,0.473
			c0.124,0.111,0.255,0.221,0.396,0.326c0.14,0.105,0.276,0.201,0.41,0.291c0.134,0.088,0.261,0.17,0.381,0.242
			s0.226,0.133,0.316,0.18l-0.842,1.25c-0.172-0.035-0.354-0.096-0.549-0.184c-0.194-0.088-0.391-0.193-0.589-0.314
			c-0.199-0.123-0.397-0.258-0.597-0.406c-0.2-0.148-0.389-0.303-0.566-0.463c-0.345-0.311-0.616-0.637-0.814-0.98
			c-0.199-0.344-0.312-0.701-0.339-1.072s0.039-0.754,0.197-1.146c0.158-0.395,0.423-0.797,0.797-1.213l2.572-2.855l-1.434-1.291
			l1.072-1.191l1.434,1.291l1.386-1.537L687.434,420.814z"/>
		<path d="M688.492,435.928c0.03-0.113,0.077-0.232,0.141-0.357c0.064-0.125,0.137-0.252,0.219-0.381
			c-0.177,0.016-0.361,0.016-0.554-0.004c-0.192-0.021-0.389-0.062-0.587-0.125c-0.199-0.064-0.4-0.154-0.604-0.27
			c-0.204-0.117-0.404-0.264-0.602-0.441c-0.321-0.291-0.574-0.602-0.76-0.938c-0.186-0.334-0.301-0.672-0.344-1.014
			c-0.045-0.34-0.016-0.674,0.083-1.002s0.271-0.629,0.515-0.898c0.596-0.662,1.303-0.951,2.123-0.869
			c0.818,0.082,1.719,0.564,2.697,1.445l0.9,0.811l0.334-0.371c0.271-0.301,0.389-0.629,0.35-0.982
			c-0.039-0.355-0.244-0.699-0.615-1.033c-0.329-0.297-0.633-0.441-0.911-0.438c-0.278,0.006-0.523,0.127-0.735,0.363l-1.615-1.453
			c0.241-0.268,0.527-0.469,0.863-0.602c0.334-0.135,0.695-0.189,1.086-0.168s0.797,0.127,1.219,0.316
			c0.424,0.188,0.846,0.471,1.268,0.852c0.38,0.342,0.691,0.705,0.935,1.092c0.243,0.389,0.403,0.781,0.479,1.18
			c0.076,0.396,0.057,0.795-0.057,1.193s-0.334,0.781-0.662,1.145l-2.426,2.693c-0.303,0.338-0.532,0.635-0.688,0.895
			c-0.156,0.258-0.265,0.504-0.326,0.736l-0.089,0.098L688.492,435.928z M687.973,433.41c0.162,0.146,0.331,0.262,0.505,0.35
			c0.174,0.086,0.345,0.148,0.513,0.188c0.168,0.041,0.329,0.057,0.482,0.051c0.152-0.006,0.288-0.029,0.408-0.068l0.972-1.08
			l-0.824-0.742c-0.252-0.227-0.488-0.396-0.71-0.508c-0.222-0.113-0.428-0.176-0.618-0.189s-0.368,0.016-0.532,0.09
			c-0.164,0.072-0.311,0.18-0.439,0.324c-0.195,0.217-0.281,0.465-0.256,0.746C687.496,432.85,687.662,433.131,687.973,433.41z"/>
	</g>
</g>
<g>
	<g>
		<path d="M726.518,360.466l-1.777,0.177l-2.243,2.49l-1.638-1.475l7.611-8.453l1.638,1.475l-3.487,3.872l1.697-0.343l4.611-0.989
			l1.998,1.798l-6.212,1.178l-1.296,7.371l-1.938-1.746L726.518,360.466z"/>
		<path d="M731.008,371.006c-0.483-0.436-0.852-0.91-1.104-1.424c-0.251-0.516-0.396-1.035-0.434-1.562
			c-0.036-0.527,0.035-1.045,0.216-1.553c0.179-0.506,0.46-0.971,0.839-1.393l0.209-0.232c0.433-0.479,0.902-0.85,1.411-1.111
			s1.026-0.412,1.556-0.455c0.528-0.043,1.051,0.025,1.564,0.2c0.515,0.176,0.99,0.461,1.428,0.854
			c0.453,0.408,0.789,0.846,1.01,1.313c0.22,0.468,0.33,0.948,0.332,1.44s-0.104,0.986-0.32,1.482
			c-0.215,0.496-0.531,0.975-0.945,1.436l-0.617,0.686l-4.262-3.838c-0.16,0.241-0.272,0.492-0.336,0.754
			c-0.064,0.262-0.08,0.521-0.047,0.782c0.031,0.261,0.11,0.511,0.238,0.751c0.126,0.24,0.302,0.462,0.526,0.664
			c0.159,0.143,0.33,0.27,0.515,0.379c0.186,0.11,0.375,0.201,0.573,0.27c0.197,0.068,0.397,0.114,0.603,0.137
			c0.203,0.022,0.406,0.016,0.607-0.021l0.022,1.598c-0.229,0.053-0.487,0.076-0.771,0.068c-0.285-0.008-0.584-0.057-0.898-0.146
			c-0.315-0.09-0.635-0.223-0.961-0.397C731.636,371.512,731.318,371.286,731.008,371.006z M735.506,365.626
			c-0.182-0.163-0.377-0.282-0.586-0.354c-0.208-0.072-0.424-0.1-0.646-0.083c-0.222,0.018-0.448,0.074-0.675,0.172
			c-0.227,0.096-0.452,0.229-0.676,0.4l2.647,2.383l0.114-0.127c0.146-0.178,0.258-0.367,0.336-0.57s0.111-0.41,0.104-0.617
			c-0.01-0.208-0.062-0.414-0.162-0.619S735.711,365.811,735.506,365.626z"/>
		<path d="M740.25,374.344l-0.421,0.842l5.562-2.814l1.782,1.605l-9.69,4.352c-0.213,0.097-0.457,0.188-0.734,0.274
			c-0.278,0.087-0.572,0.134-0.881,0.143c-0.31,0.009-0.633-0.04-0.968-0.146c-0.335-0.106-0.666-0.305-0.991-0.598
			c-0.078-0.07-0.146-0.137-0.207-0.203c-0.061-0.064-0.117-0.13-0.17-0.195c-0.054-0.064-0.104-0.132-0.152-0.199
			c-0.047-0.068-0.098-0.143-0.15-0.225l1.307-1.053c0.065,0.059,0.146,0.138,0.244,0.236c0.098,0.098,0.178,0.175,0.239,0.23
			c0.128,0.115,0.275,0.178,0.444,0.189c0.168,0.012,0.329,0.002,0.482-0.027c0.152-0.031,0.285-0.065,0.398-0.104
			c0.111-0.039,0.176-0.052,0.191-0.038l1.047-0.381l2.758-8.409l1.765,1.589L740.25,374.344z"/>
		<path d="M755.539,383.95l0.877,0.789c0.441,0.396,0.869,0.58,1.282,0.549s0.782-0.225,1.106-0.586
			c0.148-0.166,0.262-0.339,0.338-0.521c0.074-0.181,0.107-0.363,0.101-0.549c-0.009-0.187-0.062-0.373-0.162-0.562
			c-0.101-0.188-0.249-0.371-0.446-0.549c-0.162-0.146-0.336-0.26-0.519-0.34c-0.184-0.082-0.367-0.127-0.552-0.135
			c-0.186-0.01-0.364,0.021-0.537,0.089c-0.174,0.068-0.33,0.18-0.47,0.335l-1.614-1.453c0.311-0.346,0.663-0.596,1.059-0.75
			c0.396-0.155,0.809-0.224,1.24-0.204c0.43,0.021,0.863,0.125,1.299,0.313c0.437,0.189,0.848,0.459,1.234,0.807
			c0.418,0.377,0.756,0.773,1.012,1.189s0.416,0.838,0.48,1.264s0.031,0.852-0.102,1.275c-0.133,0.424-0.377,0.832-0.732,1.227
			c-0.164,0.184-0.352,0.338-0.564,0.465s-0.442,0.223-0.689,0.287c-0.248,0.066-0.51,0.094-0.785,0.088
			c-0.274-0.006-0.557-0.051-0.845-0.135c0.159,0.297,0.267,0.59,0.32,0.877c0.054,0.285,0.06,0.564,0.021,0.834
			c-0.04,0.27-0.124,0.529-0.249,0.779c-0.127,0.25-0.293,0.488-0.494,0.711c-0.355,0.396-0.748,0.68-1.178,0.854
			c-0.431,0.174-0.871,0.248-1.325,0.223c-0.453-0.027-0.91-0.148-1.371-0.363c-0.462-0.217-0.901-0.512-1.319-0.889
			c-0.359-0.324-0.666-0.689-0.92-1.096c-0.254-0.408-0.425-0.832-0.512-1.271c-0.088-0.439-0.076-0.883,0.035-1.328
			c0.111-0.447,0.352-0.875,0.721-1.285l1.614,1.453c-0.146,0.162-0.251,0.34-0.312,0.533c-0.062,0.191-0.08,0.391-0.055,0.592
			c0.024,0.201,0.089,0.4,0.193,0.596s0.25,0.377,0.436,0.543c0.41,0.371,0.829,0.551,1.256,0.543
			c0.428-0.008,0.809-0.197,1.144-0.568c0.206-0.229,0.349-0.453,0.429-0.676c0.08-0.221,0.105-0.441,0.074-0.658
			c-0.032-0.219-0.113-0.432-0.244-0.641s-0.307-0.412-0.527-0.611l-0.877-0.789L755.539,383.95z"/>
		<path d="M764.884,405.609l-1.011-0.91l9.756-10.834l1.01,0.91L764.884,405.609z"/>
		<path d="M777.919,413.035l7.611-8.453l2.188,1.971c0.562,0.506,0.982,1.059,1.266,1.66c0.282,0.6,0.431,1.217,0.445,1.852
			c0.015,0.633-0.104,1.268-0.356,1.902s-0.635,1.236-1.147,1.805l-0.627,0.697c-0.512,0.568-1.07,1.012-1.674,1.326
			c-0.602,0.316-1.217,0.502-1.843,0.559s-1.247-0.02-1.862-0.23s-1.193-0.559-1.73-1.043L777.919,413.035z M785.981,407.385
			l-5.238,5.818l0.627,0.564c0.306,0.275,0.632,0.463,0.979,0.564c0.346,0.102,0.702,0.119,1.069,0.049
			c0.367-0.068,0.737-0.221,1.11-0.455c0.373-0.236,0.74-0.555,1.104-0.957l0.637-0.709c0.342-0.379,0.609-0.764,0.803-1.154
			c0.193-0.389,0.305-0.775,0.336-1.154c0.029-0.379-0.027-0.744-0.169-1.098c-0.142-0.352-0.38-0.678-0.712-0.977L785.981,407.385z
			"/>
		<path d="M789.072,423.078c0.031-0.113,0.077-0.232,0.141-0.355c0.064-0.127,0.137-0.254,0.219-0.383
			c-0.176,0.016-0.361,0.016-0.554-0.004c-0.192-0.021-0.388-0.062-0.587-0.125s-0.4-0.152-0.604-0.27
			c-0.204-0.117-0.404-0.264-0.602-0.441c-0.32-0.289-0.574-0.602-0.76-0.938c-0.186-0.334-0.3-0.672-0.344-1.014
			c-0.044-0.34-0.016-0.674,0.083-1.002s0.271-0.627,0.515-0.898c0.596-0.662,1.304-0.951,2.123-0.869s1.719,0.564,2.698,1.447
			l0.899,0.809l0.335-0.371c0.271-0.301,0.388-0.629,0.349-0.982c-0.038-0.355-0.244-0.699-0.615-1.033
			c-0.329-0.297-0.633-0.441-0.91-0.436c-0.279,0.004-0.524,0.125-0.736,0.361l-1.614-1.453c0.241-0.268,0.527-0.469,0.862-0.602
			c0.334-0.135,0.695-0.189,1.086-0.168s0.797,0.127,1.22,0.316c0.423,0.188,0.846,0.471,1.268,0.852
			c0.379,0.342,0.69,0.705,0.935,1.094c0.242,0.387,0.402,0.779,0.479,1.178c0.076,0.396,0.057,0.795-0.057,1.195
			c-0.113,0.396-0.334,0.779-0.662,1.143l-2.425,2.693c-0.304,0.338-0.533,0.635-0.688,0.895c-0.156,0.258-0.266,0.504-0.327,0.736
			l-0.089,0.1L789.072,423.078z M788.553,420.561c0.162,0.146,0.332,0.262,0.506,0.35c0.173,0.086,0.344,0.148,0.513,0.188
			c0.167,0.041,0.329,0.057,0.481,0.051s0.289-0.029,0.408-0.068l0.973-1.08l-0.825-0.742c-0.251-0.227-0.487-0.396-0.71-0.508
			c-0.221-0.111-0.428-0.176-0.617-0.189c-0.191-0.014-0.369,0.016-0.533,0.09c-0.164,0.072-0.311,0.18-0.439,0.324
			c-0.195,0.217-0.281,0.465-0.256,0.746C788.076,420.002,788.242,420.281,788.553,420.561z"/>
		<path d="M802.285,420.814l-1.385,1.537l2.345,2.113l-1.071,1.189l-2.346-2.111l-2.431,2.699c-0.206,0.229-0.351,0.441-0.437,0.643
			s-0.121,0.389-0.105,0.566c0.014,0.178,0.072,0.35,0.176,0.512c0.102,0.162,0.238,0.32,0.409,0.473
			c0.124,0.111,0.255,0.221,0.396,0.326s0.277,0.201,0.41,0.291c0.135,0.088,0.262,0.17,0.381,0.242
			c0.121,0.072,0.226,0.133,0.316,0.18l-0.842,1.25c-0.172-0.035-0.354-0.096-0.549-0.184c-0.193-0.088-0.391-0.193-0.588-0.314
			c-0.199-0.123-0.398-0.258-0.598-0.406s-0.389-0.303-0.566-0.463c-0.344-0.311-0.615-0.637-0.814-0.98s-0.312-0.701-0.338-1.072
			c-0.027-0.371,0.039-0.754,0.197-1.146c0.158-0.395,0.423-0.797,0.797-1.213l2.571-2.855l-1.435-1.291l1.072-1.191l1.434,1.291
			l1.386-1.537L802.285,420.814z"/>
		<path d="M803.343,435.928c0.03-0.113,0.077-0.232,0.142-0.357c0.063-0.125,0.136-0.252,0.218-0.381
			c-0.177,0.016-0.361,0.016-0.554-0.004c-0.192-0.021-0.389-0.062-0.587-0.125c-0.199-0.064-0.399-0.154-0.604-0.27
			c-0.204-0.117-0.403-0.264-0.601-0.441c-0.322-0.291-0.575-0.602-0.76-0.938c-0.186-0.334-0.301-0.672-0.344-1.014
			c-0.045-0.34-0.017-0.674,0.082-1.002c0.1-0.328,0.271-0.629,0.516-0.898c0.596-0.662,1.303-0.951,2.122-0.869
			s1.719,0.564,2.698,1.445l0.9,0.811l0.334-0.371c0.271-0.301,0.389-0.629,0.35-0.982c-0.039-0.355-0.244-0.699-0.615-1.033
			c-0.33-0.297-0.633-0.441-0.912-0.438c-0.277,0.006-0.523,0.127-0.735,0.363l-1.614-1.453c0.24-0.268,0.527-0.469,0.862-0.602
			c0.334-0.135,0.696-0.189,1.087-0.168s0.796,0.127,1.219,0.316c0.424,0.188,0.846,0.471,1.268,0.852
			c0.379,0.342,0.69,0.705,0.934,1.092c0.244,0.389,0.404,0.781,0.48,1.18c0.075,0.396,0.057,0.795-0.057,1.193
			c-0.114,0.398-0.335,0.781-0.662,1.145l-2.426,2.693c-0.303,0.338-0.533,0.635-0.689,0.895c-0.156,0.258-0.264,0.504-0.326,0.736
			l-0.088,0.098L803.343,435.928z M802.823,433.41c0.163,0.146,0.331,0.262,0.505,0.35c0.174,0.086,0.346,0.148,0.514,0.188
			c0.168,0.041,0.328,0.057,0.481,0.051c0.152-0.006,0.288-0.029,0.408-0.068l0.972-1.08l-0.824-0.742
			c-0.252-0.227-0.488-0.396-0.709-0.508c-0.223-0.113-0.428-0.176-0.619-0.189c-0.19-0.014-0.368,0.016-0.531,0.09
			c-0.164,0.072-0.311,0.18-0.439,0.324c-0.195,0.217-0.281,0.465-0.257,0.746C802.348,432.85,802.514,433.131,802.823,433.41z"/>
	</g>
</g>
<g>
	<g>
		<path d="M838.986,360.466l-1.777,0.177l-2.242,2.49l-1.637-1.475l7.611-8.453l1.637,1.475l-3.486,3.872l1.697-0.343l4.611-0.989
			l1.996,1.798l-6.211,1.178l-1.295,7.371l-1.939-1.746L838.986,360.466z"/>
		<path d="M843.479,371.006c-0.484-0.436-0.852-0.91-1.104-1.424c-0.252-0.516-0.397-1.035-0.434-1.562
			c-0.037-0.527,0.035-1.045,0.215-1.553c0.18-0.506,0.459-0.971,0.84-1.393l0.209-0.232c0.432-0.479,0.902-0.85,1.41-1.111
			s1.026-0.412,1.556-0.455c0.528-0.043,1.05,0.025,1.565,0.2c0.514,0.176,0.989,0.461,1.428,0.854
			c0.452,0.408,0.788,0.846,1.009,1.313c0.22,0.468,0.33,0.948,0.333,1.44c0.002,0.492-0.105,0.986-0.321,1.482
			c-0.215,0.496-0.53,0.975-0.945,1.436l-0.617,0.686l-4.261-3.838c-0.161,0.241-0.273,0.492-0.338,0.754
			c-0.063,0.262-0.079,0.521-0.047,0.782s0.111,0.511,0.238,0.751s0.303,0.462,0.527,0.664c0.158,0.143,0.33,0.27,0.516,0.379
			c0.184,0.11,0.375,0.201,0.572,0.27s0.397,0.114,0.602,0.137c0.205,0.022,0.407,0.016,0.607-0.021l0.023,1.598
			c-0.23,0.053-0.486,0.076-0.771,0.068c-0.283-0.008-0.584-0.057-0.898-0.146s-0.635-0.223-0.961-0.397
			S843.787,371.286,843.479,371.006z M847.976,365.626c-0.183-0.163-0.378-0.282-0.586-0.354c-0.208-0.072-0.424-0.1-0.646-0.083
			c-0.223,0.018-0.447,0.074-0.674,0.172c-0.229,0.096-0.453,0.229-0.677,0.4l2.647,2.383l0.115-0.127
			c0.146-0.178,0.258-0.367,0.335-0.57s0.112-0.41,0.104-0.617c-0.009-0.208-0.063-0.414-0.163-0.619
			C848.333,366.006,848.181,365.811,847.976,365.626z"/>
		<path d="M852.719,374.344l-0.42,0.842l5.562-2.814l1.782,1.605l-9.69,4.352c-0.213,0.097-0.458,0.188-0.735,0.274
			s-0.57,0.134-0.88,0.143s-0.632-0.04-0.968-0.146c-0.335-0.106-0.666-0.305-0.991-0.598c-0.077-0.07-0.146-0.137-0.207-0.203
			c-0.061-0.064-0.117-0.13-0.171-0.195c-0.053-0.064-0.104-0.132-0.151-0.199c-0.048-0.068-0.098-0.143-0.149-0.225l1.305-1.053
			c0.066,0.059,0.148,0.138,0.245,0.236c0.097,0.098,0.177,0.175,0.239,0.23c0.127,0.115,0.275,0.178,0.443,0.189
			c0.169,0.012,0.33,0.002,0.483-0.027c0.153-0.031,0.286-0.065,0.397-0.104c0.113-0.039,0.177-0.052,0.192-0.038l1.048-0.381
			l2.757-8.409l1.765,1.589L852.719,374.344z"/>
		<path d="M869.482,388.523l0.981,0.885l-1.177,1.305l-0.98-0.883l-1.652,1.836l-1.613-1.455l1.652-1.834l-3.514-3.162l0.846-1.068
			l8.604-2.409l1.637,1.474L869.482,388.523z M865.877,385.277l1.992,1.793l2.828-3.14l-0.408,0.137L865.877,385.277z"/>
		<path d="M877.354,405.609l-1.01-0.91l9.754-10.834l1.011,0.91L877.354,405.609z"/>
		<path d="M890.389,413.035l7.611-8.453l2.189,1.971c0.561,0.506,0.982,1.059,1.265,1.66c0.282,0.6,0.431,1.217,0.445,1.852
			c0.015,0.633-0.104,1.268-0.356,1.902c-0.253,0.635-0.635,1.236-1.147,1.805l-0.627,0.697c-0.513,0.568-1.071,1.012-1.673,1.326
			c-0.604,0.316-1.219,0.502-1.844,0.559s-1.246-0.02-1.862-0.23s-1.192-0.559-1.731-1.043L890.389,413.035z M898.451,407.385
			l-5.238,5.818l0.627,0.564c0.306,0.275,0.632,0.463,0.979,0.564s0.703,0.119,1.07,0.049c0.367-0.068,0.736-0.221,1.11-0.455
			c0.373-0.236,0.74-0.555,1.103-0.957l0.639-0.709c0.342-0.379,0.609-0.764,0.803-1.154c0.193-0.389,0.305-0.775,0.334-1.154
			s-0.026-0.744-0.168-1.098c-0.142-0.352-0.379-0.678-0.712-0.977L898.451,407.385z"/>
		<path d="M901.541,423.078c0.031-0.113,0.078-0.232,0.143-0.355c0.063-0.127,0.136-0.254,0.218-0.383
			c-0.177,0.016-0.361,0.016-0.554-0.004c-0.192-0.021-0.389-0.062-0.587-0.125c-0.199-0.062-0.399-0.152-0.604-0.27
			s-0.403-0.264-0.601-0.441c-0.322-0.289-0.576-0.602-0.76-0.938c-0.187-0.334-0.301-0.672-0.344-1.014
			c-0.045-0.34-0.017-0.674,0.082-1.002c0.1-0.328,0.271-0.627,0.516-0.898c0.596-0.662,1.303-0.951,2.122-0.869
			s1.719,0.564,2.698,1.447l0.9,0.809l0.334-0.371c0.271-0.301,0.389-0.629,0.35-0.982c-0.039-0.355-0.244-0.699-0.616-1.033
			c-0.329-0.297-0.632-0.441-0.911-0.436c-0.277,0.004-0.523,0.125-0.736,0.361l-1.613-1.453c0.24-0.268,0.527-0.469,0.862-0.602
			c0.334-0.135,0.696-0.189,1.087-0.168c0.39,0.021,0.796,0.127,1.219,0.316c0.424,0.188,0.846,0.471,1.268,0.852
			c0.379,0.342,0.689,0.705,0.934,1.094c0.244,0.387,0.404,0.779,0.48,1.178c0.075,0.396,0.057,0.795-0.057,1.195
			c-0.114,0.396-0.335,0.779-0.662,1.143l-2.426,2.693c-0.303,0.338-0.533,0.635-0.689,0.895c-0.156,0.258-0.264,0.504-0.326,0.736
			l-0.089,0.1L901.541,423.078z M901.022,420.561c0.162,0.146,0.331,0.262,0.505,0.35c0.174,0.086,0.346,0.148,0.514,0.188
			c0.168,0.041,0.328,0.057,0.48,0.051c0.153-0.006,0.289-0.029,0.409-0.068l0.972-1.08l-0.824-0.742
			c-0.252-0.227-0.488-0.396-0.709-0.508c-0.223-0.111-0.429-0.176-0.619-0.189c-0.191-0.014-0.368,0.016-0.531,0.09
			c-0.164,0.072-0.311,0.18-0.439,0.324c-0.195,0.217-0.281,0.465-0.257,0.746S900.713,420.281,901.022,420.561z"/>
		<path d="M914.755,420.814l-1.386,1.537l2.346,2.113l-1.072,1.189l-2.345-2.111l-2.431,2.699c-0.206,0.229-0.352,0.441-0.438,0.643
			c-0.085,0.201-0.12,0.389-0.105,0.566c0.016,0.178,0.074,0.35,0.176,0.512c0.104,0.162,0.239,0.32,0.41,0.473
			c0.123,0.111,0.256,0.221,0.396,0.326c0.139,0.105,0.275,0.201,0.41,0.291c0.133,0.088,0.26,0.17,0.381,0.242
			c0.119,0.072,0.225,0.133,0.316,0.18l-0.842,1.25c-0.172-0.035-0.354-0.096-0.549-0.184c-0.195-0.088-0.391-0.193-0.59-0.314
			c-0.198-0.123-0.396-0.258-0.596-0.406c-0.2-0.148-0.389-0.303-0.566-0.463c-0.346-0.311-0.617-0.637-0.814-0.98
			c-0.199-0.344-0.312-0.701-0.34-1.072c-0.026-0.371,0.039-0.754,0.197-1.146c0.158-0.395,0.424-0.797,0.797-1.213l2.572-2.855
			l-1.434-1.291l1.071-1.191l1.435,1.291l1.385-1.537L914.755,420.814z"/>
		<path d="M915.812,435.928c0.031-0.113,0.078-0.232,0.142-0.357s0.136-0.252,0.218-0.381c-0.176,0.016-0.361,0.016-0.553-0.004
			c-0.193-0.021-0.389-0.062-0.588-0.125c-0.199-0.064-0.4-0.154-0.604-0.27c-0.203-0.117-0.404-0.264-0.602-0.441
			c-0.32-0.291-0.574-0.602-0.76-0.938c-0.186-0.334-0.3-0.672-0.344-1.014c-0.044-0.34-0.016-0.674,0.084-1.002
			c0.098-0.328,0.271-0.629,0.514-0.898c0.596-0.662,1.304-0.951,2.123-0.869s1.719,0.564,2.698,1.445l0.899,0.811l0.335-0.371
			c0.271-0.301,0.388-0.629,0.35-0.982c-0.039-0.355-0.244-0.699-0.616-1.033c-0.328-0.297-0.633-0.441-0.91-0.438
			c-0.279,0.006-0.523,0.127-0.736,0.363l-1.614-1.453c0.241-0.268,0.527-0.469,0.862-0.602c0.334-0.135,0.695-0.189,1.086-0.168
			s0.797,0.127,1.22,0.316c0.423,0.188,0.846,0.471,1.268,0.852c0.38,0.342,0.69,0.705,0.935,1.092
			c0.243,0.389,0.402,0.781,0.479,1.18c0.076,0.396,0.057,0.795-0.057,1.193s-0.334,0.781-0.662,1.145l-2.425,2.693
			c-0.304,0.338-0.532,0.635-0.688,0.895c-0.156,0.258-0.266,0.504-0.326,0.736l-0.09,0.098L915.812,435.928z M915.293,433.41
			c0.162,0.146,0.332,0.262,0.506,0.35c0.174,0.086,0.345,0.148,0.513,0.188c0.168,0.041,0.329,0.057,0.481,0.051
			s0.289-0.029,0.408-0.068l0.973-1.08l-0.824-0.742c-0.252-0.227-0.488-0.396-0.711-0.508c-0.221-0.113-0.428-0.176-0.617-0.189
			c-0.191-0.014-0.369,0.016-0.532,0.09c-0.165,0.072-0.312,0.18-0.44,0.324c-0.195,0.217-0.281,0.465-0.256,0.746
			C914.816,432.85,914.982,433.131,915.293,433.41z"/>
	</g>
</g>
<g>
	<g>
		<path d="M941.557,360.466l-1.777,0.177l-2.242,2.49l-1.637-1.475l7.611-8.453l1.637,1.475l-3.486,3.872l1.697-0.343l4.611-0.989
			l1.996,1.798l-6.211,1.178l-1.295,7.371l-1.939-1.746L941.557,360.466z"/>
		<path d="M946.049,371.006c-0.484-0.436-0.852-0.91-1.104-1.424c-0.252-0.516-0.397-1.035-0.434-1.562
			c-0.037-0.527,0.035-1.045,0.215-1.553c0.18-0.506,0.459-0.971,0.84-1.393l0.209-0.232c0.432-0.479,0.902-0.85,1.41-1.111
			s1.026-0.412,1.556-0.455c0.528-0.043,1.05,0.025,1.565,0.2c0.514,0.176,0.989,0.461,1.428,0.854
			c0.452,0.408,0.788,0.846,1.009,1.313c0.22,0.468,0.33,0.948,0.333,1.44c0.002,0.492-0.105,0.986-0.321,1.482
			c-0.215,0.496-0.53,0.975-0.945,1.436l-0.617,0.686l-4.261-3.838c-0.161,0.241-0.273,0.492-0.338,0.754
			c-0.063,0.262-0.079,0.521-0.047,0.782s0.111,0.511,0.238,0.751s0.303,0.462,0.527,0.664c0.158,0.143,0.33,0.27,0.516,0.379
			c0.184,0.11,0.375,0.201,0.572,0.27s0.397,0.114,0.602,0.137c0.205,0.022,0.407,0.016,0.607-0.021l0.023,1.598
			c-0.23,0.053-0.486,0.076-0.771,0.068c-0.283-0.008-0.584-0.057-0.898-0.146s-0.635-0.223-0.961-0.397
			S946.357,371.286,946.049,371.006z M950.546,365.626c-0.183-0.163-0.378-0.282-0.586-0.354c-0.208-0.072-0.424-0.1-0.646-0.083
			c-0.223,0.018-0.447,0.074-0.674,0.172c-0.229,0.096-0.453,0.229-0.677,0.4l2.647,2.383l0.115-0.127
			c0.146-0.178,0.258-0.367,0.335-0.57s0.112-0.41,0.104-0.617c-0.009-0.208-0.063-0.414-0.163-0.619
			C950.903,366.006,950.751,365.811,950.546,365.626z"/>
		<path d="M955.289,374.344l-0.42,0.842l5.562-2.814l1.782,1.605l-9.69,4.352c-0.213,0.097-0.458,0.188-0.735,0.274
			s-0.57,0.134-0.88,0.143s-0.632-0.04-0.968-0.146c-0.335-0.106-0.666-0.305-0.991-0.598c-0.077-0.07-0.146-0.137-0.207-0.203
			c-0.061-0.064-0.117-0.13-0.171-0.195c-0.053-0.064-0.104-0.132-0.151-0.199c-0.048-0.068-0.098-0.143-0.149-0.225l1.305-1.053
			c0.066,0.059,0.148,0.138,0.245,0.236c0.097,0.098,0.177,0.175,0.239,0.23c0.127,0.115,0.275,0.178,0.443,0.189
			c0.169,0.012,0.33,0.002,0.483-0.027c0.153-0.031,0.286-0.065,0.397-0.104c0.113-0.039,0.177-0.052,0.192-0.038l1.048-0.381
			l2.757-8.409l1.765,1.589L955.289,374.344z"/>
		<path d="M968.34,383.331l4.346-3.856l4.691,4.224l-1.234,1.371l-3.361-3.027l-1.877,1.675c0.184,0.038,0.418,0.12,0.705,0.245
			s0.573,0.316,0.859,0.574c0.406,0.367,0.712,0.758,0.914,1.176c0.203,0.418,0.303,0.846,0.303,1.287
			c-0.002,0.439-0.103,0.889-0.303,1.346c-0.201,0.457-0.502,0.908-0.902,1.354c-0.342,0.379-0.723,0.688-1.142,0.928
			c-0.419,0.238-0.861,0.385-1.327,0.434c-0.465,0.051-0.942-0.008-1.431-0.174s-0.972-0.465-1.452-0.896
			c-0.363-0.328-0.666-0.699-0.907-1.111c-0.241-0.414-0.399-0.844-0.474-1.289c-0.076-0.447-0.059-0.895,0.051-1.348
			c0.109-0.451,0.334-0.877,0.674-1.279l1.592,1.432c-0.294,0.402-0.417,0.807-0.371,1.213c0.045,0.404,0.243,0.766,0.596,1.082
			c0.217,0.195,0.438,0.322,0.664,0.377c0.227,0.057,0.451,0.057,0.675-0.002c0.224-0.057,0.446-0.164,0.669-0.322
			s0.436-0.35,0.643-0.578c0.201-0.225,0.358-0.455,0.473-0.693c0.112-0.24,0.172-0.479,0.178-0.719s-0.045-0.475-0.153-0.705
			s-0.28-0.453-0.517-0.664c-0.158-0.145-0.309-0.254-0.449-0.332c-0.14-0.076-0.273-0.135-0.4-0.172
			c-0.129-0.037-0.252-0.059-0.372-0.066c-0.12-0.006-0.239-0.006-0.356,0L968.34,383.331z"/>
		<path d="M979.924,405.609l-1.01-0.91l9.754-10.834l1.011,0.91L979.924,405.609z"/>
		<path d="M992.959,413.035l7.611-8.453l2.189,1.971c0.561,0.506,0.982,1.059,1.265,1.66c0.282,0.6,0.431,1.217,0.445,1.852
			c0.015,0.633-0.104,1.268-0.356,1.902c-0.253,0.635-0.635,1.236-1.147,1.805l-0.627,0.697c-0.513,0.568-1.071,1.012-1.673,1.326
			c-0.604,0.316-1.219,0.502-1.844,0.559s-1.246-0.02-1.862-0.23s-1.192-0.559-1.731-1.043L992.959,413.035z M1001.021,407.385
			l-5.238,5.818l0.627,0.564c0.306,0.275,0.632,0.463,0.979,0.564s0.703,0.119,1.07,0.049c0.367-0.068,0.736-0.221,1.11-0.455
			c0.373-0.236,0.74-0.555,1.103-0.957l0.639-0.709c0.342-0.379,0.609-0.764,0.803-1.154c0.193-0.389,0.305-0.775,0.334-1.154
			s-0.026-0.744-0.168-1.098c-0.142-0.352-0.379-0.678-0.712-0.977L1001.021,407.385z"/>
		<path d="M1004.111,423.078c0.031-0.113,0.078-0.232,0.143-0.355c0.063-0.127,0.136-0.254,0.218-0.383
			c-0.177,0.016-0.361,0.016-0.554-0.004c-0.192-0.021-0.389-0.062-0.587-0.125c-0.199-0.062-0.399-0.152-0.604-0.27
			s-0.403-0.264-0.601-0.441c-0.322-0.289-0.576-0.602-0.76-0.938c-0.187-0.334-0.301-0.672-0.344-1.014
			c-0.045-0.34-0.017-0.674,0.082-1.002c0.1-0.328,0.271-0.627,0.516-0.898c0.596-0.662,1.303-0.951,2.122-0.869
			s1.719,0.564,2.698,1.447l0.9,0.809l0.334-0.371c0.271-0.301,0.389-0.629,0.35-0.982c-0.039-0.355-0.244-0.699-0.616-1.033
			c-0.329-0.297-0.632-0.441-0.911-0.436c-0.277,0.004-0.523,0.125-0.736,0.361l-1.613-1.453c0.24-0.268,0.527-0.469,0.862-0.602
			c0.334-0.135,0.696-0.189,1.087-0.168c0.39,0.021,0.796,0.127,1.219,0.316c0.424,0.188,0.846,0.471,1.268,0.852
			c0.379,0.342,0.689,0.705,0.934,1.094c0.244,0.387,0.404,0.779,0.48,1.178c0.075,0.396,0.057,0.795-0.057,1.195
			c-0.114,0.396-0.335,0.779-0.662,1.143l-2.426,2.693c-0.303,0.338-0.533,0.635-0.689,0.895c-0.156,0.258-0.264,0.504-0.326,0.736
			l-0.089,0.1L1004.111,423.078z M1003.593,420.561c0.162,0.146,0.331,0.262,0.505,0.35c0.174,0.086,0.346,0.148,0.514,0.188
			c0.168,0.041,0.328,0.057,0.48,0.051c0.153-0.006,0.289-0.029,0.409-0.068l0.972-1.08l-0.824-0.742
			c-0.252-0.227-0.488-0.396-0.709-0.508c-0.223-0.111-0.429-0.176-0.619-0.189c-0.191-0.014-0.368,0.016-0.531,0.09
			c-0.164,0.072-0.311,0.18-0.439,0.324c-0.195,0.217-0.281,0.465-0.257,0.746S1003.283,420.281,1003.593,420.561z"/>
		<path d="M1017.325,420.814l-1.386,1.537l2.346,2.113l-1.072,1.189l-2.345-2.111l-2.431,2.699
			c-0.206,0.229-0.352,0.441-0.438,0.643c-0.085,0.201-0.12,0.389-0.105,0.566c0.016,0.178,0.074,0.35,0.176,0.512
			c0.104,0.162,0.239,0.32,0.41,0.473c0.123,0.111,0.256,0.221,0.396,0.326c0.139,0.105,0.275,0.201,0.41,0.291
			c0.133,0.088,0.26,0.17,0.381,0.242c0.119,0.072,0.225,0.133,0.316,0.18l-0.842,1.25c-0.172-0.035-0.354-0.096-0.549-0.184
			c-0.195-0.088-0.391-0.193-0.59-0.314c-0.198-0.123-0.396-0.258-0.596-0.406c-0.2-0.148-0.389-0.303-0.566-0.463
			c-0.346-0.311-0.617-0.637-0.814-0.98c-0.199-0.344-0.312-0.701-0.34-1.072c-0.026-0.371,0.039-0.754,0.197-1.146
			c0.158-0.395,0.424-0.797,0.797-1.213l2.572-2.855l-1.434-1.291l1.071-1.191l1.435,1.291l1.385-1.537L1017.325,420.814z"/>
		<path d="M1018.383,435.928c0.031-0.113,0.078-0.232,0.142-0.357s0.136-0.252,0.218-0.381c-0.176,0.016-0.361,0.016-0.553-0.004
			c-0.193-0.021-0.389-0.062-0.588-0.125c-0.199-0.064-0.4-0.154-0.604-0.27c-0.203-0.117-0.404-0.264-0.602-0.441
			c-0.32-0.291-0.574-0.602-0.76-0.938c-0.186-0.334-0.3-0.672-0.344-1.014c-0.044-0.34-0.016-0.674,0.084-1.002
			c0.098-0.328,0.271-0.629,0.514-0.898c0.596-0.662,1.304-0.951,2.123-0.869s1.719,0.564,2.698,1.445l0.899,0.811l0.335-0.371
			c0.271-0.301,0.388-0.629,0.35-0.982c-0.039-0.355-0.244-0.699-0.616-1.033c-0.328-0.297-0.633-0.441-0.91-0.438
			c-0.279,0.006-0.523,0.127-0.736,0.363l-1.614-1.453c0.241-0.268,0.527-0.469,0.862-0.602c0.334-0.135,0.695-0.189,1.086-0.168
			s0.797,0.127,1.22,0.316c0.423,0.188,0.846,0.471,1.268,0.852c0.38,0.342,0.69,0.705,0.935,1.092
			c0.243,0.389,0.402,0.781,0.479,1.18c0.076,0.396,0.057,0.795-0.057,1.193s-0.334,0.781-0.662,1.145l-2.425,2.693
			c-0.304,0.338-0.532,0.635-0.688,0.895c-0.156,0.258-0.266,0.504-0.326,0.736l-0.09,0.098L1018.383,435.928z M1017.863,433.41
			c0.162,0.146,0.332,0.262,0.506,0.35c0.174,0.086,0.345,0.148,0.513,0.188c0.168,0.041,0.329,0.057,0.481,0.051
			s0.289-0.029,0.408-0.068l0.973-1.08l-0.824-0.742c-0.252-0.227-0.488-0.396-0.711-0.508c-0.221-0.113-0.428-0.176-0.617-0.189
			c-0.191-0.014-0.369,0.016-0.532,0.09c-0.165,0.072-0.312,0.18-0.44,0.324c-0.195,0.217-0.281,0.465-0.256,0.746
			C1017.387,432.85,1017.553,433.131,1017.863,433.41z"/>
	</g>
</g>
<g>
	<rect x="323.117" y="234.313" fill="none" width="235.775" height="26.125"/>
	<path d="M362.582,242.238c0,2.351-0.669,4.15-2.007,5.4s-3.27,1.875-5.796,1.875h-4.043v-14.277h4.482
		c2.331,0,4.141,0.615,5.43,1.846S362.582,240.031,362.582,242.238z M359.438,242.316c0-3.066-1.354-4.6-4.062-4.6h-1.611v9.297
		h1.299C357.979,247.013,359.438,245.448,359.438,242.316z"/>
	<path d="M370.248,249.708c-1.758,0-3.131-0.485-4.121-1.455s-1.484-2.344-1.484-4.121c0-1.829,0.458-3.244,1.372-4.243
		s2.179-1.499,3.794-1.499c1.543,0,2.744,0.439,3.604,1.318s1.289,2.093,1.289,3.643v1.445h-7.041
		c0.033,0.847,0.283,1.507,0.752,1.982s1.126,0.713,1.973,0.713c0.658,0,1.279-0.068,1.865-0.205s1.198-0.354,1.836-0.654v2.305
		c-0.521,0.261-1.078,0.454-1.67,0.581S371.101,249.708,370.248,249.708z M369.828,240.509c-0.631,0-1.126,0.2-1.484,0.601
		s-0.563,0.969-0.615,1.704h4.18c-0.013-0.735-0.205-1.304-0.576-1.704S370.459,240.509,369.828,240.509z"/>
	<path d="M381.557,249.708c-3.398,0-5.098-1.865-5.098-5.596c0-1.855,0.462-3.273,1.387-4.253s2.25-1.47,3.975-1.47
		c1.263,0,2.396,0.247,3.398,0.742l-0.879,2.305c-0.469-0.188-0.905-0.344-1.309-0.464s-0.807-0.181-1.211-0.181
		c-1.549,0-2.324,1.101-2.324,3.301c0,2.136,0.775,3.203,2.324,3.203c0.573,0,1.104-0.076,1.592-0.229s0.977-0.393,1.465-0.718
		v2.549c-0.482,0.306-0.968,0.518-1.46,0.635S382.305,249.708,381.557,249.708z"/>
	<path d="M397.328,244.035c0,1.777-0.469,3.167-1.406,4.17s-2.243,1.504-3.916,1.504c-1.048,0-1.973-0.229-2.773-0.688
		s-1.416-1.118-1.846-1.978s-0.645-1.862-0.645-3.008c0-1.784,0.465-3.171,1.396-4.16s2.24-1.484,3.926-1.484
		c1.048,0,1.973,0.228,2.773,0.684s1.416,1.11,1.846,1.963S397.328,242.889,397.328,244.035z M389.779,244.035
		c0,1.081,0.177,1.897,0.532,2.451s0.933,0.83,1.733,0.83c0.794,0,1.366-0.275,1.714-0.825s0.522-1.369,0.522-2.456
		c0-1.081-0.176-1.892-0.527-2.432s-0.928-0.811-1.729-0.811c-0.794,0-1.367,0.269-1.719,0.806S389.779,242.948,389.779,244.035z"/>
	<path d="M409.867,249.513h-2.979v-6.377c0-0.788-0.14-1.379-0.42-1.772s-0.726-0.591-1.338-0.591c-0.833,0-1.436,0.278-1.807,0.835
		s-0.557,1.479-0.557,2.769v5.137h-2.979v-10.918h2.275l0.4,1.396h0.166c0.332-0.527,0.79-0.926,1.372-1.196
		s1.245-0.405,1.987-0.405c1.27,0,2.233,0.344,2.891,1.03s0.986,1.678,0.986,2.974V249.513z"/>
	<path d="M418.969,240.832h-2.578v8.682h-2.979v-8.682h-1.641v-1.436l1.641-0.801v-0.801c0-1.243,0.306-2.151,0.918-2.725
		s1.592-0.859,2.939-0.859c1.029,0,1.943,0.153,2.744,0.459l-0.762,2.188c-0.599-0.188-1.152-0.283-1.66-0.283
		c-0.423,0-0.729,0.125-0.918,0.376s-0.283,0.571-0.283,0.962v0.684h2.578V240.832z M423.656,249.513h-2.979v-15.195h2.979V249.513z
		"/>
	<path d="M426.645,235.773c0-0.97,0.541-1.455,1.621-1.455s1.621,0.485,1.621,1.455c0,0.462-0.135,0.822-0.405,1.079
		s-0.675,0.386-1.216,0.386C427.185,237.238,426.645,236.75,426.645,235.773z M429.75,249.513h-2.979v-10.918h2.979V249.513z"/>
	<path d="M437.309,249.708c-3.398,0-5.098-1.865-5.098-5.596c0-1.855,0.462-3.273,1.387-4.253s2.25-1.47,3.975-1.47
		c1.263,0,2.396,0.247,3.398,0.742l-0.879,2.305c-0.469-0.188-0.905-0.344-1.309-0.464s-0.807-0.181-1.211-0.181
		c-1.549,0-2.324,1.101-2.324,3.301c0,2.136,0.775,3.203,2.324,3.203c0.573,0,1.104-0.076,1.592-0.229s0.977-0.393,1.465-0.718
		v2.549c-0.482,0.306-0.968,0.518-1.46,0.635S438.057,249.708,437.309,249.708z"/>
	<path d="M447.758,247.335c0.521,0,1.146-0.114,1.875-0.342v2.217c-0.742,0.332-1.654,0.498-2.734,0.498
		c-1.191,0-2.059-0.301-2.603-0.903s-0.815-1.506-0.815-2.71v-5.264h-1.426v-1.26l1.641-0.996l0.859-2.305h1.904v2.324h3.057v2.236
		h-3.057v5.264c0,0.423,0.119,0.735,0.356,0.938S447.367,247.335,447.758,247.335z"/>
	<path d="M451.713,235.773c0-0.97,0.541-1.455,1.621-1.455s1.621,0.485,1.621,1.455c0,0.462-0.135,0.822-0.405,1.079
		s-0.675,0.386-1.216,0.386C452.253,237.238,451.713,236.75,451.713,235.773z M454.818,249.513h-2.979v-10.918h2.979V249.513z"/>
	<path d="M467.865,244.035c0,1.777-0.469,3.167-1.406,4.17s-2.243,1.504-3.916,1.504c-1.048,0-1.973-0.229-2.773-0.688
		s-1.416-1.118-1.846-1.978s-0.645-1.862-0.645-3.008c0-1.784,0.465-3.171,1.396-4.16s2.24-1.484,3.926-1.484
		c1.048,0,1.973,0.228,2.773,0.684s1.416,1.11,1.846,1.963S467.865,242.889,467.865,244.035z M460.316,244.035
		c0,1.081,0.177,1.897,0.532,2.451s0.933,0.83,1.733,0.83c0.794,0,1.366-0.275,1.714-0.825s0.522-1.369,0.522-2.456
		c0-1.081-0.176-1.892-0.527-2.432s-0.928-0.811-1.729-0.811c-0.794,0-1.367,0.269-1.719,0.806S460.316,242.948,460.316,244.035z"/>
	<path d="M480.404,249.513h-2.979v-6.377c0-0.788-0.14-1.379-0.42-1.772s-0.726-0.591-1.338-0.591c-0.833,0-1.436,0.278-1.807,0.835
		s-0.557,1.479-0.557,2.769v5.137h-2.979v-10.918h2.275l0.4,1.396h0.166c0.332-0.527,0.79-0.926,1.372-1.196
		s1.245-0.405,1.987-0.405c1.27,0,2.233,0.344,2.891,1.03s0.986,1.678,0.986,2.974V249.513z"/>
	<path d="M488.9,249.513v-14.277h3.027v11.777h5.791v2.5H488.9z"/>
	<path d="M499.838,235.773c0-0.97,0.541-1.455,1.621-1.455s1.621,0.485,1.621,1.455c0,0.462-0.135,0.822-0.405,1.079
		s-0.675,0.386-1.216,0.386C500.378,237.238,499.838,236.75,499.838,235.773z M502.943,249.513h-2.979v-10.918h2.979V249.513z"/>
	<path d="M513.686,246.271c0,1.12-0.389,1.973-1.167,2.559s-1.942,0.879-3.491,0.879c-0.794,0-1.471-0.054-2.031-0.161
		s-1.084-0.266-1.572-0.474v-2.461c0.553,0.261,1.177,0.479,1.87,0.654s1.304,0.264,1.831,0.264c1.081,0,1.621-0.312,1.621-0.938
		c0-0.234-0.072-0.425-0.215-0.571s-0.391-0.312-0.742-0.498s-0.82-0.402-1.406-0.649c-0.84-0.352-1.457-0.677-1.851-0.977
		s-0.68-0.643-0.859-1.03s-0.269-0.864-0.269-1.431c0-0.97,0.376-1.721,1.128-2.251s1.818-0.796,3.198-0.796
		c1.315,0,2.594,0.286,3.838,0.859l-0.898,2.148c-0.547-0.234-1.058-0.427-1.533-0.576s-0.96-0.225-1.455-0.225
		c-0.879,0-1.318,0.237-1.318,0.713c0,0.267,0.142,0.498,0.425,0.693s0.903,0.485,1.86,0.869c0.853,0.345,1.478,0.667,1.875,0.967
		s0.69,0.645,0.879,1.035S513.686,245.731,513.686,246.271z"/>
	<path d="M520.609,247.335c0.521,0,1.146-0.114,1.875-0.342v2.217c-0.742,0.332-1.654,0.498-2.734,0.498
		c-1.191,0-2.059-0.301-2.603-0.903s-0.815-1.506-0.815-2.71v-5.264h-1.426v-1.26l1.641-0.996l0.859-2.305h1.904v2.324h3.057v2.236
		h-3.057v5.264c0,0.423,0.119,0.735,0.356,0.938S520.219,247.335,520.609,247.335z"/>
	<path d="M532.309,246.271c0,1.12-0.389,1.973-1.167,2.559s-1.942,0.879-3.491,0.879c-0.794,0-1.471-0.054-2.031-0.161
		s-1.084-0.266-1.572-0.474v-2.461c0.553,0.261,1.177,0.479,1.87,0.654s1.304,0.264,1.831,0.264c1.081,0,1.621-0.312,1.621-0.938
		c0-0.234-0.072-0.425-0.215-0.571s-0.391-0.312-0.742-0.498s-0.82-0.402-1.406-0.649c-0.84-0.352-1.457-0.677-1.851-0.977
		s-0.68-0.643-0.859-1.03s-0.269-0.864-0.269-1.431c0-0.97,0.376-1.721,1.128-2.251s1.818-0.796,3.198-0.796
		c1.315,0,2.594,0.286,3.838,0.859l-0.898,2.148c-0.547-0.234-1.058-0.427-1.533-0.576s-0.96-0.225-1.455-0.225
		c-0.879,0-1.318,0.237-1.318,0.713c0,0.267,0.142,0.498,0.425,0.693s0.903,0.485,1.86,0.869c0.853,0.345,1.478,0.667,1.875,0.967
		s0.69,0.645,0.879,1.035S532.309,245.731,532.309,246.271z"/>
</g>
<g>
	<g>
		<path fill="none" stroke="#000000" stroke-miterlimit="10" d="M320.217,285.317v-13.879c0-2.75,2.25-5,5-5h903.587"/>
		<g>
			<polygon points="1227.346,271.424 1235.981,266.438 1227.346,261.452 			"/>
		</g>
	</g>
</g>
<g>
	<g>
		<path fill="none" stroke="#E15218" stroke-width="1.5" stroke-miterlimit="10" d="M1081.901,480.747l24.604,21.977
			c1.641,1.466,1.184,2.665-1.017,2.665H892.947c-2.2,0-5.343-1.199-6.983-2.665l-19.929-17.801"/>
		<g>
			<polygon fill="#E15218" points="870.825,483.987 867.003,485.787 865.645,489.787 861.36,480.747 			"/>
		</g>
	</g>
</g>
<g>
	<g>
		<path fill="none" stroke="#E15218" stroke-width="1.5" stroke-miterlimit="10" d="M845.365,480.747l24.604,21.977
			c1.641,1.466,1.184,2.665-1.017,2.665H664.708c-2.2,0-5.334-1.208-6.964-2.686l-19.592-17.748"/>
		<g>
			<polygon fill="#E15218" points="642.948,484.054 639.113,485.826 637.727,489.817 633.506,480.747 			"/>
		</g>
	</g>
</g>
<g>
	<g>
		<path fill="#E15218" d="M866.408,233.021h5.328v1.773h-7.531v-11.375h2.203V233.021z"/>
		<path fill="#E15218" d="M874.314,226.341h4.602v6.688h2.289v1.766h-6.891v-1.766h2.406v-4.914h-2.406V226.341z M876.564,224.177
			c0-0.167,0.029-0.321,0.09-0.465c0.06-0.144,0.145-0.266,0.254-0.367s0.24-0.181,0.395-0.238c0.153-0.058,0.324-0.086,0.512-0.086
			c0.385,0,0.691,0.108,0.918,0.324s0.34,0.493,0.34,0.832s-0.113,0.616-0.34,0.832s-0.533,0.324-0.918,0.324
			c-0.188,0-0.358-0.028-0.512-0.086c-0.154-0.058-0.285-0.137-0.395-0.238s-0.194-0.224-0.254-0.367
			C876.594,224.498,876.564,224.344,876.564,224.177z"/>
		<path fill="#E15218" d="M885.307,226.341l0.133,1.172c0.302-0.422,0.669-0.749,1.102-0.98c0.432-0.231,0.911-0.348,1.438-0.348
			c0.427,0,0.817,0.062,1.172,0.188c0.354,0.125,0.66,0.324,0.918,0.598s0.458,0.625,0.602,1.055
			c0.143,0.43,0.215,0.952,0.215,1.566v5.203h-2.172v-5.172c0-0.333-0.038-0.608-0.113-0.824c-0.076-0.216-0.184-0.387-0.324-0.512
			s-0.311-0.212-0.508-0.262c-0.198-0.05-0.422-0.074-0.672-0.074c-0.37,0-0.686,0.074-0.945,0.223
			c-0.261,0.148-0.472,0.353-0.633,0.613v6.008h-2.18v-8.453H885.307z"/>
		<path fill="#E15218" d="M896.119,231.302l-0.984,0.914v2.578h-2.172v-12h2.172v6.859l0.656-0.75l2.336-2.562h2.609l-3.188,3.523
			l3.633,4.93h-2.664L896.119,231.302z"/>
		<path fill="#E15218" d="M919.549,230.466c0,0.734-0.085,1.382-0.254,1.941c-0.17,0.56-0.413,1.028-0.73,1.406
			c-0.318,0.378-0.706,0.663-1.164,0.855c-0.459,0.192-0.975,0.289-1.547,0.289c-0.568,0-1.081-0.097-1.539-0.289
			c-0.459-0.192-0.848-0.478-1.168-0.855s-0.568-0.847-0.742-1.406c-0.175-0.56-0.262-1.207-0.262-1.941v-2.719
			c0-0.734,0.086-1.382,0.258-1.941s0.418-1.028,0.738-1.406s0.708-0.663,1.164-0.855c0.455-0.192,0.967-0.289,1.535-0.289
			c0.572,0,1.088,0.097,1.547,0.289c0.458,0.192,0.848,0.478,1.168,0.855s0.566,0.847,0.738,1.406s0.258,1.207,0.258,1.941V230.466z
			 M914.33,229.528l3.031-2.258c-0.016-0.766-0.148-1.333-0.398-1.703s-0.625-0.555-1.125-0.555c-0.506,0-0.883,0.195-1.133,0.586
			s-0.375,0.992-0.375,1.805V229.528z M917.361,228.747l-3.031,2.25c0.025,0.75,0.164,1.306,0.414,1.668s0.619,0.543,1.109,0.543
			c0.51,0,0.889-0.198,1.137-0.594c0.247-0.396,0.371-1.003,0.371-1.82V228.747z"/>
	</g>
</g>
<g>
	<g>
		
			<line fill="none" stroke="#E15218" stroke-width="1.5" stroke-miterlimit="10" x1="856.429" y1="283.04" x2="856.429" y2="222.901"/>
		<g>
			<polygon fill="#E15218" points="861.664,281.508 856.429,290.575 851.193,281.508 			"/>
		</g>
		<g>
			<polygon fill="#E15218" points="856.504,222.923 856.429,222.794 856.354,222.923 			"/>
		</g>
	</g>
</g>
<g>
</g>
<g>
</g>
</svg>
