<?xml version="1.0" encoding="utf-8"?>
<!-- Generator: Adobe Illustrator 16.0.4, SVG Export Plug-In . SVG Version: 6.00 Build 0)  -->
<!DOCTYPE svg PUBLIC "-//W3C//DTD SVG 1.1//EN" "http://www.w3.org/Graphics/SVG/1.1/DTD/svg11.dtd">
<svg version="1.1" id="Journaling" xmlns="http://www.w3.org/2000/svg" xmlns:xlink="http://www.w3.org/1999/xlink" x="0px" y="0px"
	 width="1366px" height="768px" viewBox="0 0 1366 768" enable-background="new 0 0 1366 768" xml:space="preserve">
<rect fill="#FFFFFF" width="1366" height="768"/>
<polyline opacity="0.44" fill="#C8D7E3" enable-background="new    " points="81.526,218.013 81.526,543.058 1283.534,543.058 
	1283.535,218.013 "/>
<g enable-background="new    ">
	<path fill="#C8D7E3" d="M1288.167,242.544c0,3.85-3.149,6.986-7,6.969L82.495,244.231c-3.85-0.018-7-3.182-7-7.031l-0.003-41.719
		c0-3.85,3.149-7,7-7h1198.677c3.85,0,7,3.15,7,7V242.544z"/>
</g>
<g>
	<rect x="609.592" y="153.8" fill="none" width="145.552" height="26.125"/>
	<path d="M622.016,169l-3.438-11.201h-0.088c0.124,2.278,0.186,3.799,0.186,4.561V169h-2.705v-14.277h4.121l3.379,10.918h0.059
		l3.584-10.918h4.121V169h-2.822v-6.758c0-0.319,0.005-0.687,0.015-1.104s0.054-1.523,0.132-3.32h-0.088L624.79,169H622.016z"/>
	<path d="M639.536,169.196c-1.758,0-3.131-0.485-4.121-1.455s-1.484-2.344-1.484-4.121c0-1.829,0.458-3.244,1.372-4.243
		s2.179-1.499,3.794-1.499c1.543,0,2.744,0.439,3.604,1.318s1.289,2.093,1.289,3.643v1.445h-7.041
		c0.033,0.847,0.283,1.507,0.752,1.982s1.126,0.713,1.973,0.713c0.658,0,1.279-0.068,1.865-0.205s1.198-0.354,1.836-0.654v2.305
		c-0.521,0.261-1.078,0.454-1.67,0.581S640.389,169.196,639.536,169.196z M639.116,159.997c-0.631,0-1.126,0.2-1.484,0.601
		s-0.563,0.969-0.615,1.704h4.18c-0.013-0.735-0.205-1.304-0.576-1.704S639.747,159.997,639.116,159.997z"/>
	<path d="M656.186,169h-2.979v-6.377c0-0.788-0.132-1.379-0.396-1.772s-0.679-0.591-1.245-0.591c-0.762,0-1.315,0.28-1.66,0.84
		s-0.518,1.481-0.518,2.764V169h-2.979v-10.918h2.275l0.4,1.396h0.166c0.293-0.501,0.716-0.894,1.27-1.177s1.188-0.425,1.904-0.425
		c1.634,0,2.741,0.534,3.32,1.602h0.264c0.293-0.508,0.724-0.901,1.294-1.182s1.212-0.42,1.929-0.42
		c1.237,0,2.173,0.317,2.808,0.952s0.952,1.652,0.952,3.052V169h-2.988v-6.377c0-0.788-0.132-1.379-0.396-1.772
		s-0.679-0.591-1.245-0.591c-0.729,0-1.274,0.261-1.636,0.781s-0.542,1.348-0.542,2.48V169z"/>
	<path d="M675.971,163.522c0,1.777-0.469,3.167-1.406,4.17s-2.243,1.504-3.916,1.504c-1.048,0-1.973-0.229-2.773-0.688
		s-1.416-1.118-1.846-1.978s-0.645-1.862-0.645-3.008c0-1.784,0.465-3.171,1.396-4.16s2.24-1.484,3.926-1.484
		c1.048,0,1.973,0.228,2.773,0.684s1.416,1.11,1.846,1.963S675.971,162.376,675.971,163.522z M668.422,163.522
		c0,1.081,0.177,1.897,0.532,2.451s0.933,0.83,1.733,0.83c0.794,0,1.366-0.275,1.714-0.825s0.522-1.369,0.522-2.456
		c0-1.081-0.176-1.892-0.527-2.432s-0.928-0.811-1.729-0.811c-0.794,0-1.367,0.269-1.719,0.806S668.422,162.435,668.422,163.522z"/>
	<path d="M684.525,157.877c0.404,0,0.739,0.029,1.006,0.088l-0.225,2.793c-0.24-0.065-0.533-0.098-0.879-0.098
		c-0.95,0-1.69,0.244-2.221,0.732s-0.796,1.172-0.796,2.051V169h-2.979v-10.918h2.256l0.439,1.836h0.146
		c0.338-0.612,0.796-1.105,1.372-1.479S683.849,157.877,684.525,157.877z"/>
	<path d="M685.951,158.083h3.262l2.061,6.143c0.176,0.534,0.297,1.165,0.361,1.895h0.059c0.072-0.671,0.212-1.302,0.42-1.895
		l2.021-6.143h3.193l-4.619,12.314c-0.423,1.14-1.026,1.992-1.811,2.559c-0.785,0.566-1.701,0.85-2.75,0.85
		c-0.514,0-1.019-0.056-1.514-0.166v-2.363c0.358,0.085,0.749,0.127,1.172,0.127c0.527,0,0.988-0.161,1.383-0.483
		c0.394-0.322,0.701-0.809,0.922-1.46l0.176-0.537L685.951,158.083z"/>
	<path d="M712.465,154.723h3.057L710.668,169h-3.301l-4.844-14.277h3.057l2.686,8.496c0.15,0.501,0.305,1.086,0.465,1.753
		c0.159,0.667,0.258,1.131,0.297,1.392c0.072-0.599,0.316-1.647,0.732-3.145L712.465,154.723z"/>
	<path d="M716.957,155.26c0-0.97,0.541-1.455,1.621-1.455c1.081,0,1.621,0.485,1.621,1.455c0,0.462-0.135,0.822-0.404,1.079
		c-0.271,0.257-0.676,0.386-1.217,0.386C717.498,156.725,716.957,156.237,716.957,155.26z M720.062,169h-2.979v-10.918h2.979V169z"
		/>
	<path d="M728.129,169.196c-1.758,0-3.131-0.485-4.121-1.455c-0.989-0.97-1.484-2.344-1.484-4.121c0-1.829,0.458-3.244,1.373-4.243
		c0.914-0.999,2.179-1.499,3.793-1.499c1.543,0,2.744,0.439,3.604,1.318s1.289,2.093,1.289,3.643v1.445h-7.041
		c0.033,0.847,0.283,1.507,0.752,1.982s1.127,0.713,1.973,0.713c0.658,0,1.279-0.068,1.865-0.205s1.198-0.354,1.836-0.654v2.305
		c-0.521,0.261-1.077,0.454-1.67,0.581C729.705,169.132,728.982,169.196,728.129,169.196z M727.709,159.997
		c-0.631,0-1.126,0.2-1.484,0.601c-0.357,0.4-0.562,0.969-0.615,1.704h4.18c-0.013-0.735-0.205-1.304-0.576-1.704
		S728.341,159.997,727.709,159.997z"/>
	<path d="M743.979,169l-0.84-3.818l-1.133-4.824h-0.068L739.945,169h-3.203l-3.105-10.918h2.969l1.26,4.834
		c0.202,0.866,0.407,2.061,0.615,3.584h0.059c0.026-0.495,0.141-1.279,0.342-2.354l0.156-0.83l1.348-5.234h3.281l1.279,5.234
		c0.026,0.144,0.067,0.354,0.123,0.635c0.055,0.28,0.108,0.578,0.16,0.894c0.053,0.315,0.1,0.625,0.143,0.928
		c0.042,0.303,0.066,0.545,0.072,0.728h0.059c0.059-0.469,0.163-1.111,0.312-1.929c0.15-0.817,0.258-1.369,0.322-1.655l1.309-4.834
		h2.92L747.221,169H743.979z"/>
</g>
<g>
	<rect x="610.225" y="559.966" fill="none" width="145.552" height="26.125"/>
	<path d="M634.241,567.89c0,2.351-0.669,4.15-2.007,5.4s-3.27,1.875-5.796,1.875h-4.043v-14.277h4.482
		c2.331,0,4.141,0.615,5.43,1.846S634.241,565.683,634.241,567.89z M631.096,567.968c0-3.066-1.354-4.6-4.062-4.6h-1.611v9.297
		h1.299C629.638,572.665,631.096,571.1,631.096,567.968z"/>
	<path d="M636.838,561.425c0-0.97,0.541-1.455,1.621-1.455s1.621,0.485,1.621,1.455c0,0.462-0.135,0.822-0.405,1.079
		s-0.675,0.386-1.216,0.386C637.379,562.89,636.838,562.401,636.838,561.425z M639.944,575.165h-2.979v-10.918h2.979V575.165z"/>
	<path d="M650.686,571.923c0,1.12-0.389,1.973-1.167,2.559s-1.942,0.879-3.491,0.879c-0.794,0-1.471-0.054-2.031-0.161
		s-1.084-0.266-1.572-0.474v-2.461c0.553,0.261,1.177,0.479,1.87,0.654s1.304,0.264,1.831,0.264c1.081,0,1.621-0.312,1.621-0.938
		c0-0.234-0.072-0.425-0.215-0.571s-0.391-0.312-0.742-0.498s-0.82-0.402-1.406-0.649c-0.84-0.352-1.457-0.677-1.851-0.977
		s-0.68-0.643-0.859-1.03s-0.269-0.864-0.269-1.431c0-0.97,0.376-1.721,1.128-2.251s1.818-0.796,3.198-0.796
		c1.315,0,2.594,0.286,3.838,0.859l-0.898,2.148c-0.547-0.234-1.058-0.427-1.533-0.576s-0.96-0.225-1.455-0.225
		c-0.879,0-1.318,0.237-1.318,0.713c0,0.267,0.142,0.498,0.425,0.693s0.903,0.485,1.86,0.869c0.853,0.345,1.478,0.667,1.875,0.967
		s0.69,0.645,0.879,1.035S650.686,571.383,650.686,571.923z"/>
	<path d="M655.872,569.228l1.299-1.66l3.057-3.32h3.359l-4.336,4.736l4.6,6.182h-3.438l-3.145-4.424l-1.279,1.025v3.398h-2.979
		V559.97h2.979v6.777l-0.156,2.48H655.872z"/>
	<path d="M679.27,571.2c0,1.289-0.464,2.305-1.392,3.047s-2.218,1.113-3.872,1.113c-1.523,0-2.871-0.286-4.043-0.859v-2.812
		c0.963,0.43,1.779,0.732,2.446,0.908s1.278,0.264,1.831,0.264c0.664,0,1.173-0.127,1.528-0.381s0.532-0.632,0.532-1.133
		c0-0.28-0.078-0.529-0.234-0.747s-0.386-0.428-0.688-0.63s-0.919-0.524-1.851-0.967c-0.873-0.41-1.527-0.804-1.963-1.182
		s-0.785-0.817-1.045-1.318s-0.391-1.087-0.391-1.758c0-1.263,0.428-2.256,1.284-2.979s2.04-1.084,3.55-1.084
		c0.742,0,1.45,0.088,2.124,0.264s1.378,0.423,2.114,0.742l-0.977,2.354c-0.762-0.312-1.392-0.53-1.89-0.654
		s-0.988-0.186-1.47-0.186c-0.573,0-1.012,0.134-1.318,0.4s-0.459,0.615-0.459,1.045c0,0.267,0.062,0.5,0.186,0.698
		s0.321,0.391,0.591,0.576s0.91,0.52,1.919,1.001c1.334,0.638,2.25,1.277,2.744,1.919S679.27,570.27,679.27,571.2z"/>
	<path d="M686.223,572.987c0.521,0,1.146-0.114,1.875-0.342v2.217c-0.742,0.332-1.653,0.498-2.734,0.498
		c-1.191,0-2.059-0.301-2.602-0.903s-0.815-1.506-0.815-2.71v-5.264h-1.426v-1.26l1.641-0.996l0.859-2.305h1.904v2.324h3.057v2.236
		h-3.057v5.264c0,0.423,0.119,0.735,0.357,0.938C685.519,572.887,685.832,572.987,686.223,572.987z"/>
	<path d="M700.227,569.687c0,1.777-0.469,3.167-1.406,4.17s-2.242,1.504-3.916,1.504c-1.048,0-1.973-0.229-2.773-0.688
		s-1.416-1.118-1.846-1.978s-0.645-1.862-0.645-3.008c0-1.784,0.466-3.171,1.396-4.16c0.932-0.989,2.24-1.484,3.926-1.484
		c1.049,0,1.973,0.228,2.773,0.684s1.416,1.11,1.846,1.963S700.227,568.541,700.227,569.687z M692.678,569.687
		c0,1.081,0.178,1.897,0.533,2.451c0.354,0.554,0.932,0.83,1.732,0.83c0.795,0,1.366-0.275,1.715-0.825
		c0.348-0.55,0.521-1.369,0.521-2.456c0-1.081-0.176-1.892-0.527-2.432s-0.928-0.811-1.729-0.811c-0.794,0-1.367,0.269-1.719,0.806
		S692.678,568.6,692.678,569.687z"/>
	<path d="M708.781,564.042c0.404,0,0.739,0.029,1.006,0.088l-0.225,2.793c-0.24-0.065-0.533-0.098-0.879-0.098
		c-0.95,0-1.69,0.244-2.221,0.732c-0.531,0.488-0.797,1.172-0.797,2.051v5.557h-2.979v-10.918h2.256l0.439,1.836h0.146
		c0.339-0.612,0.797-1.105,1.373-1.479S708.104,564.042,708.781,564.042z"/>
	<path d="M718.703,575.165l-0.576-1.484h-0.078c-0.501,0.632-1.017,1.069-1.547,1.313c-0.531,0.244-1.223,0.366-2.076,0.366
		c-1.048,0-1.873-0.3-2.475-0.898c-0.603-0.599-0.904-1.452-0.904-2.559c0-1.159,0.406-2.014,1.217-2.563s2.032-0.854,3.666-0.913
		l1.895-0.059v-0.479c0-1.106-0.566-1.66-1.699-1.66c-0.872,0-1.897,0.264-3.076,0.791l-0.986-2.012
		c1.257-0.657,2.65-0.986,4.18-0.986c1.465,0,2.588,0.319,3.369,0.957s1.172,1.608,1.172,2.91v7.275H718.703z M717.824,570.106
		l-1.152,0.039c-0.865,0.026-1.51,0.183-1.934,0.469c-0.423,0.286-0.635,0.723-0.635,1.309c0,0.84,0.482,1.26,1.445,1.26
		c0.69,0,1.242-0.198,1.656-0.596c0.413-0.397,0.619-0.925,0.619-1.582V570.106z"/>
	<path d="M733.352,564.247v1.514l-1.709,0.439c0.312,0.488,0.469,1.035,0.469,1.641c0,1.172-0.408,2.085-1.225,2.739
		c-0.817,0.654-1.952,0.981-3.404,0.981l-0.537-0.029l-0.439-0.049c-0.306,0.234-0.459,0.495-0.459,0.781
		c0,0.43,0.547,0.645,1.641,0.645h1.855c1.198,0,2.111,0.257,2.74,0.771c0.628,0.515,0.941,1.27,0.941,2.266
		c0,1.276-0.531,2.266-1.596,2.969s-2.594,1.055-4.586,1.055c-1.523,0-2.687-0.266-3.49-0.796c-0.805-0.53-1.207-1.274-1.207-2.231
		c0-0.657,0.205-1.208,0.615-1.65s1.013-0.759,1.807-0.947c-0.306-0.13-0.572-0.344-0.801-0.64c-0.228-0.296-0.342-0.61-0.342-0.942
		c0-0.417,0.121-0.764,0.361-1.04c0.241-0.276,0.59-0.549,1.045-0.815c-0.572-0.247-1.026-0.645-1.361-1.191
		c-0.336-0.547-0.504-1.191-0.504-1.934c0-1.191,0.388-2.112,1.162-2.764c0.775-0.651,1.882-0.977,3.32-0.977
		c0.307,0,0.67,0.027,1.09,0.083s0.688,0.096,0.805,0.122H733.352z M724.924,576.708c0,0.41,0.197,0.732,0.592,0.967
		c0.394,0.234,0.945,0.352,1.654,0.352c1.068,0,1.904-0.146,2.51-0.439s0.908-0.693,0.908-1.201c0-0.41-0.179-0.693-0.537-0.85
		c-0.357-0.156-0.911-0.234-1.66-0.234h-1.543c-0.547,0-1.004,0.129-1.371,0.386C725.108,575.944,724.924,576.285,724.924,576.708z
		 M726.008,567.821c0,0.593,0.136,1.062,0.406,1.406c0.27,0.345,0.682,0.518,1.234,0.518c0.561,0,0.971-0.173,1.23-0.518
		c0.261-0.345,0.391-0.813,0.391-1.406c0-1.315-0.54-1.973-1.621-1.973C726.555,565.849,726.008,566.506,726.008,567.821z"/>
	<path d="M740.09,575.36c-1.758,0-3.131-0.485-4.121-1.455c-0.989-0.97-1.484-2.344-1.484-4.121c0-1.829,0.458-3.244,1.373-4.243
		c0.914-0.999,2.179-1.499,3.793-1.499c1.543,0,2.744,0.439,3.604,1.318s1.289,2.093,1.289,3.643v1.445h-7.041
		c0.033,0.847,0.283,1.507,0.752,1.982s1.127,0.713,1.973,0.713c0.658,0,1.279-0.068,1.865-0.205s1.198-0.354,1.836-0.654v2.305
		c-0.521,0.261-1.077,0.454-1.67,0.581C741.666,575.297,740.943,575.36,740.09,575.36z M739.67,566.161
		c-0.631,0-1.126,0.2-1.484,0.601c-0.357,0.4-0.562,0.969-0.615,1.704h4.18c-0.013-0.735-0.205-1.304-0.576-1.704
		S740.302,566.161,739.67,566.161z"/>
</g>
<rect x="81.526" y="508.134" fill="#2D4E6E" stroke="#000000" stroke-miterlimit="10" width="10.935" height="34.924"/>
<rect x="99.835" y="508.134" fill="#2D4E6E" stroke="#000000" stroke-miterlimit="10" width="10.935" height="34.924"/>
<rect x="118.144" y="508.134" fill="#2D4E6E" stroke="#000000" stroke-miterlimit="10" width="10.935" height="34.924"/>
<rect x="136.452" y="508.134" fill="#2D4E6E" stroke="#000000" stroke-miterlimit="10" width="10.936" height="34.924"/>
<rect x="154.761" y="508.134" fill="#2D4E6E" stroke="#000000" stroke-miterlimit="10" width="10.936" height="34.924"/>
<rect x="173.069" y="508.134" fill="#2D4E6E" stroke="#000000" stroke-miterlimit="10" width="10.936" height="34.924"/>
<rect x="191.378" y="508.134" fill="#2D4E6E" stroke="#000000" stroke-miterlimit="10" width="10.936" height="34.924"/>
<rect x="209.687" y="508.134" fill="#2D4E6E" stroke="#000000" stroke-miterlimit="10" width="10.936" height="34.924"/>
<rect x="227.995" y="508.134" fill="#2D4E6E" stroke="#000000" stroke-miterlimit="10" width="10.936" height="34.924"/>
<rect x="246.304" y="508.134" fill="#2D4E6E" stroke="#000000" stroke-miterlimit="10" width="10.936" height="34.924"/>
<rect x="264.612" y="508.134" fill="#2D4E6E" stroke="#000000" stroke-miterlimit="10" width="10.936" height="34.924"/>
<rect x="282.921" y="508.134" fill="#2D4E6E" stroke="#000000" stroke-miterlimit="10" width="10.936" height="34.924"/>
<rect x="301.23" y="508.134" fill="#FFFFFF" stroke="#000000" stroke-miterlimit="10" width="10.935" height="34.924"/>
<rect x="319.539" y="508.134" fill="#FFFFFF" stroke="#000000" stroke-miterlimit="10" width="10.935" height="34.924"/>
<rect x="338.526" y="508.134" fill="#FFFFFF" stroke="#000000" stroke-miterlimit="10" width="10.935" height="34.924"/>
<rect x="356.835" y="508.134" fill="#FFFFFF" stroke="#000000" stroke-miterlimit="10" width="10.935" height="34.924"/>
<rect x="375.144" y="508.134" fill="#FFFFFF" stroke="#000000" stroke-miterlimit="10" width="10.935" height="34.924"/>
<rect x="393.452" y="508.134" fill="#FFFFFF" stroke="#000000" stroke-miterlimit="10" width="10.936" height="34.924"/>
<rect x="411.761" y="508.134" fill="#FFFFFF" stroke="#000000" stroke-miterlimit="10" width="10.936" height="34.924"/>
<rect x="430.069" y="508.134" fill="#FFFFFF" stroke="#000000" stroke-miterlimit="10" width="10.936" height="34.924"/>
<rect x="448.378" y="508.134" fill="#FFFFFF" stroke="#000000" stroke-miterlimit="10" width="10.936" height="34.924"/>
<rect x="466.687" y="508.134" fill="#FFFFFF" stroke="#000000" stroke-miterlimit="10" width="10.936" height="34.924"/>
<rect x="484.995" y="508.134" fill="#FFFFFF" stroke="#000000" stroke-miterlimit="10" width="10.936" height="34.924"/>
<rect x="503.304" y="508.134" fill="#FFFFFF" stroke="#000000" stroke-miterlimit="10" width="10.936" height="34.924"/>
<rect x="521.612" y="508.134" fill="#FFFFFF" stroke="#000000" stroke-miterlimit="10" width="10.936" height="34.924"/>
<rect x="539.921" y="508.134" fill="#FFFFFF" stroke="#000000" stroke-miterlimit="10" width="10.936" height="34.924"/>
<rect x="558.23" y="508.134" fill="#FFFFFF" stroke="#000000" stroke-miterlimit="10" width="10.935" height="34.924"/>
<rect x="576.539" y="508.134" fill="#FFFFFF" stroke="#000000" stroke-miterlimit="10" width="10.935" height="34.924"/>
<path d="M351.82,551.124"/>
<polyline opacity="0.33" fill="none" stroke="#000000" stroke-miterlimit="10" points="337.789,366.15 191.471,233.552 
	191.471,198.628 "/>
<polyline fill="none" stroke="#000000" stroke-width="2" stroke-miterlimit="10" points="448.611,367.15 302.293,234.552 
	302.293,199.628 "/>
<rect x="594.847" y="508.134" fill="#FFFFFF" stroke="#000000" stroke-miterlimit="10" width="10.935" height="34.924"/>
<rect x="613.155" y="508.134" fill="#FFFFFF" stroke="#000000" stroke-miterlimit="10" width="10.935" height="34.924"/>
<rect x="631.464" y="508.134" fill="#FFFFFF" stroke="#000000" stroke-miterlimit="10" width="10.936" height="34.924"/>
<rect x="649.772" y="508.134" fill="#FFFFFF" stroke="#000000" stroke-miterlimit="10" width="10.936" height="34.924"/>
<rect x="668.081" y="508.134" fill="#FFFFFF" stroke="#000000" stroke-miterlimit="10" width="10.936" height="34.924"/>
<rect x="686.389" y="508.134" fill="#FFFFFF" stroke="#000000" stroke-miterlimit="10" width="10.936" height="34.924"/>
<rect x="704.697" y="508.134" fill="#FFFFFF" stroke="#000000" stroke-miterlimit="10" width="10.936" height="34.924"/>
<rect x="723.006" y="508.134" fill="#FFFFFF" stroke="#000000" stroke-miterlimit="10" width="10.936" height="34.924"/>
<rect x="741.314" y="508.134" fill="#FFFFFF" stroke="#000000" stroke-miterlimit="10" width="10.936" height="34.924"/>
<rect x="759.623" y="508.134" fill="#FFFFFF" stroke="#000000" stroke-miterlimit="10" width="10.936" height="34.924"/>
<rect x="777.932" y="508.134" fill="#FFFFFF" stroke="#000000" stroke-miterlimit="10" width="10.936" height="34.924"/>
<rect x="796.242" y="508.134" fill="#FFFFFF" stroke="#000000" stroke-miterlimit="10" width="10.934" height="34.924"/>
<rect x="814.551" y="508.134" fill="#FFFFFF" stroke="#000000" stroke-miterlimit="10" width="10.934" height="34.924"/>
<rect x="833.193" y="508.134" fill="#FFFFFF" stroke="#000000" stroke-miterlimit="10" width="10.935" height="34.924"/>
<rect x="851.502" y="508.134" fill="#FFFFFF" stroke="#000000" stroke-miterlimit="10" width="10.936" height="34.924"/>
<rect x="869.811" y="508.134" fill="#FFFFFF" stroke="#000000" stroke-miterlimit="10" width="10.936" height="34.924"/>
<rect x="888.119" y="508.134" fill="#FFFFFF" stroke="#000000" stroke-miterlimit="10" width="10.936" height="34.924"/>
<rect x="906.428" y="508.134" fill="#FFFFFF" stroke="#000000" stroke-miterlimit="10" width="10.936" height="34.924"/>
<rect x="924.736" y="508.134" fill="#FFFFFF" stroke="#000000" stroke-miterlimit="10" width="10.936" height="34.924"/>
<rect x="943.045" y="508.134" fill="#FFFFFF" stroke="#000000" stroke-miterlimit="10" width="10.936" height="34.924"/>
<rect x="961.354" y="508.134" fill="#FFFFFF" stroke="#000000" stroke-miterlimit="10" width="10.936" height="34.924"/>
<rect x="979.662" y="508.134" fill="#FFFFFF" stroke="#000000" stroke-miterlimit="10" width="10.936" height="34.924"/>
<rect x="997.971" y="508.134" fill="#FFFFFF" stroke="#000000" stroke-miterlimit="10" width="10.936" height="34.924"/>
<rect x="1016.28" y="508.134" fill="#FFFFFF" stroke="#000000" stroke-miterlimit="10" width="10.935" height="34.924"/>
<rect x="1034.589" y="508.134" fill="#FFFFFF" stroke="#000000" stroke-miterlimit="10" width="10.935" height="34.924"/>
<rect x="1052.896" y="508.134" fill="#FFFFFF" stroke="#000000" stroke-miterlimit="10" width="10.935" height="34.924"/>
<rect x="1071.205" y="508.134" fill="#FFFFFF" stroke="#000000" stroke-miterlimit="10" width="10.935" height="34.924"/>
<rect x="1089.514" y="508.134" fill="#FFFFFF" stroke="#000000" stroke-miterlimit="10" width="10.936" height="34.924"/>
<rect x="1107.822" y="508.134" fill="#FFFFFF" stroke="#000000" stroke-miterlimit="10" width="10.936" height="34.924"/>
<rect x="1126.131" y="508.134" fill="#FFFFFF" stroke="#000000" stroke-miterlimit="10" width="10.936" height="34.924"/>
<rect x="1144.439" y="508.134" fill="#FFFFFF" stroke="#000000" stroke-miterlimit="10" width="10.935" height="34.924"/>
<rect x="1162.747" y="508.134" fill="#FFFFFF" stroke="#000000" stroke-miterlimit="10" width="10.936" height="34.924"/>
<rect x="1181.056" y="508.134" fill="#FFFFFF" stroke="#000000" stroke-miterlimit="10" width="10.936" height="34.924"/>
<rect x="1199.364" y="508.134" fill="#FFFFFF" stroke="#000000" stroke-miterlimit="10" width="10.936" height="34.924"/>
<rect x="1217.673" y="508.134" fill="#FFFFFF" stroke="#000000" stroke-miterlimit="10" width="10.936" height="34.924"/>
<rect x="1235.981" y="508.134" fill="#FFFFFF" stroke="#000000" stroke-miterlimit="10" width="10.936" height="34.924"/>
<rect x="1254.292" y="508.134" fill="#FFFFFF" stroke="#000000" stroke-miterlimit="10" width="10.934" height="34.924"/>
<rect x="1272.601" y="508.134" fill="#FFFFFF" stroke="#000000" stroke-miterlimit="10" width="10.934" height="34.924"/>
<polyline fill="none" stroke="#000000" stroke-width="2" stroke-miterlimit="10" points="227.995,366.15 82.541,234.475 
	82.541,199.551 "/>
<g>
	<g>
		<path d="M163.9,266.492l7.611-8.454l2.189,1.971c0.561,0.506,0.982,1.059,1.265,1.66c0.282,0.602,0.431,1.219,0.445,1.852
			c0.015,0.634-0.104,1.268-0.356,1.902c-0.253,0.635-0.635,1.237-1.147,1.807l-0.627,0.696c-0.512,0.569-1.071,1.011-1.673,1.326
			s-1.217,0.502-1.843,0.559c-0.625,0.058-1.247-0.021-1.862-0.231s-1.193-0.559-1.73-1.043L163.9,266.492z M171.962,260.842
			l-5.238,5.817l0.627,0.564c0.305,0.275,0.631,0.464,0.979,0.566c0.346,0.102,0.703,0.117,1.07,0.049
			c0.367-0.07,0.737-0.222,1.11-0.457c0.373-0.235,0.741-0.554,1.104-0.957l0.638-0.708c0.342-0.38,0.609-0.765,0.802-1.153
			c0.193-0.391,0.305-0.775,0.335-1.154c0.029-0.38-0.027-0.746-0.168-1.098c-0.142-0.354-0.379-0.679-0.712-0.979L171.962,260.842z
			"/>
		<path d="M175.053,276.534c0.031-0.112,0.077-0.23,0.141-0.355c0.064-0.126,0.136-0.253,0.218-0.383
			c-0.176,0.016-0.361,0.016-0.553-0.004c-0.193-0.02-0.389-0.061-0.587-0.125c-0.199-0.062-0.4-0.152-0.604-0.27
			c-0.204-0.116-0.404-0.264-0.601-0.441c-0.321-0.289-0.575-0.602-0.76-0.936c-0.186-0.336-0.3-0.674-0.344-1.014
			c-0.044-0.342-0.016-0.676,0.083-1.004c0.099-0.328,0.271-0.627,0.515-0.897c0.596-0.662,1.303-0.951,2.123-0.869
			s1.719,0.563,2.698,1.446l0.9,0.811l0.334-0.372c0.271-0.302,0.388-0.63,0.349-0.983c-0.039-0.354-0.244-0.698-0.615-1.033
			c-0.329-0.296-0.633-0.441-0.911-0.436s-0.523,0.126-0.736,0.361l-1.614-1.453c0.241-0.267,0.527-0.467,0.862-0.602
			c0.334-0.133,0.696-0.189,1.086-0.167s0.796,0.127,1.219,0.315c0.423,0.188,0.846,0.472,1.268,0.852
			c0.379,0.342,0.69,0.706,0.934,1.094c0.244,0.387,0.403,0.779,0.479,1.178c0.076,0.398,0.057,0.797-0.057,1.195
			c-0.114,0.398-0.334,0.779-0.662,1.144l-2.425,2.694c-0.303,0.336-0.533,0.634-0.689,0.893c-0.156,0.26-0.265,0.505-0.326,0.736
			l-0.089,0.1L175.053,276.534z M174.534,274.017c0.163,0.146,0.332,0.263,0.505,0.35c0.173,0.087,0.345,0.149,0.513,0.189
			c0.168,0.039,0.329,0.055,0.481,0.049c0.152-0.006,0.289-0.029,0.408-0.068l0.972-1.08l-0.825-0.742
			c-0.251-0.227-0.488-0.396-0.709-0.508s-0.428-0.175-0.618-0.188c-0.191-0.015-0.369,0.016-0.532,0.089
			c-0.165,0.072-0.311,0.182-0.44,0.324c-0.195,0.217-0.281,0.465-0.256,0.746C174.058,273.458,174.224,273.737,174.534,274.017z"/>
		<path d="M188.266,274.271l-1.385,1.539l2.346,2.111l-1.072,1.19l-2.346-2.112l-2.431,2.7c-0.206,0.229-0.351,0.442-0.437,0.642
			c-0.085,0.201-0.121,0.39-0.105,0.568c0.015,0.178,0.073,0.348,0.176,0.51c0.102,0.162,0.239,0.32,0.409,0.474
			c0.124,0.112,0.256,0.22,0.396,0.325c0.14,0.105,0.276,0.202,0.411,0.291c0.133,0.089,0.26,0.17,0.38,0.243
			c0.12,0.072,0.226,0.133,0.316,0.18l-0.842,1.25c-0.172-0.035-0.354-0.097-0.549-0.185c-0.194-0.087-0.39-0.192-0.589-0.314
			c-0.199-0.123-0.397-0.258-0.597-0.406c-0.2-0.148-0.389-0.303-0.566-0.463c-0.345-0.311-0.616-0.637-0.814-0.98
			c-0.199-0.344-0.312-0.701-0.338-1.071c-0.027-0.372,0.039-0.754,0.197-1.147c0.158-0.395,0.423-0.797,0.797-1.211l2.572-2.857
			l-1.434-1.291l1.072-1.19l1.434,1.292l1.385-1.539L188.266,274.271z"/>
		<path d="M189.324,289.384c0.031-0.113,0.078-0.231,0.142-0.355c0.063-0.126,0.136-0.253,0.218-0.383
			c-0.176,0.016-0.361,0.016-0.553-0.004c-0.193-0.02-0.389-0.062-0.587-0.125c-0.199-0.062-0.4-0.152-0.604-0.27
			c-0.204-0.116-0.403-0.264-0.601-0.441c-0.321-0.289-0.575-0.602-0.76-0.937c-0.186-0.335-0.3-0.673-0.344-1.014
			c-0.044-0.341-0.016-0.675,0.083-1.003s0.271-0.627,0.515-0.898c0.596-0.662,1.303-0.951,2.123-0.869
			c0.82,0.082,1.719,0.564,2.698,1.447l0.9,0.81l0.334-0.372c0.271-0.301,0.388-0.629,0.35-0.982
			c-0.039-0.354-0.244-0.698-0.616-1.033c-0.329-0.296-0.632-0.441-0.911-0.436c-0.278,0.006-0.523,0.125-0.736,0.361l-1.614-1.453
			c0.241-0.268,0.528-0.467,0.862-0.602c0.334-0.134,0.696-0.189,1.086-0.167c0.391,0.021,0.796,0.127,1.219,0.315
			c0.423,0.188,0.846,0.472,1.268,0.852c0.379,0.342,0.69,0.705,0.934,1.094c0.244,0.387,0.403,0.779,0.479,1.178
			c0.076,0.398,0.057,0.797-0.057,1.195c-0.113,0.397-0.334,0.779-0.662,1.144l-2.425,2.694c-0.303,0.336-0.533,0.633-0.689,0.893
			s-0.265,0.504-0.326,0.736l-0.089,0.1L189.324,289.384z M188.804,286.866c0.163,0.146,0.332,0.263,0.505,0.35
			s0.345,0.148,0.513,0.189c0.168,0.039,0.329,0.055,0.481,0.049c0.152-0.006,0.289-0.029,0.408-0.068l0.972-1.08l-0.824-0.742
			c-0.252-0.227-0.488-0.396-0.71-0.508s-0.428-0.175-0.618-0.188c-0.191-0.015-0.368,0.015-0.532,0.089
			c-0.165,0.072-0.311,0.181-0.44,0.324c-0.195,0.217-0.281,0.465-0.256,0.746C188.328,286.308,188.494,286.587,188.804,286.866z"/>
		<path d="M208.069,300.438c-0.491,0.545-0.988,0.97-1.488,1.273c-0.5,0.302-0.995,0.486-1.484,0.556
			c-0.489,0.068-0.968,0.021-1.438-0.144s-0.917-0.438-1.343-0.82c-0.422-0.38-0.739-0.795-0.95-1.244
			c-0.212-0.449-0.311-0.922-0.296-1.418c0.015-0.494,0.145-1.008,0.39-1.541s0.613-1.072,1.104-1.618l1.819-2.021
			c0.491-0.545,0.988-0.969,1.491-1.27c0.502-0.301,0.999-0.484,1.489-0.551c0.491-0.067,0.97-0.02,1.438,0.143
			c0.467,0.162,0.912,0.433,1.334,0.812c0.426,0.383,0.744,0.801,0.957,1.25c0.211,0.449,0.31,0.922,0.295,1.417
			c-0.015,0.495-0.146,1.009-0.392,1.539c-0.247,0.531-0.616,1.069-1.107,1.615L208.069,300.438z M207.594,297.698l-3.758-0.357
			c-0.482,0.574-0.751,1.08-0.808,1.518c-0.057,0.436,0.097,0.817,0.461,1.145c0.379,0.342,0.793,0.448,1.242,0.32
			c0.448-0.129,0.947-0.497,1.494-1.104L207.594,297.698z M204.818,296.25l3.764,0.351c0.5-0.58,0.781-1.09,0.844-1.533
			c0.062-0.441-0.094-0.83-0.465-1.164c-0.375-0.338-0.787-0.446-1.234-0.322c-0.447,0.122-0.943,0.486-1.486,1.09L204.818,296.25z"
			/>
		<path d="M215.083,316.888l-1.01-0.91l9.755-10.834l1.01,0.91L215.083,316.888z"/>
		<path d="M230.684,324.933c0.136-0.151,0.287-0.27,0.455-0.354c0.167-0.085,0.341-0.131,0.524-0.138
			c0.182-0.009,0.368,0.022,0.558,0.093c0.189,0.068,0.372,0.182,0.546,0.338c0.174,0.157,0.305,0.326,0.395,0.508
			c0.089,0.182,0.138,0.362,0.147,0.543c0.009,0.18-0.018,0.358-0.083,0.535c-0.065,0.178-0.165,0.341-0.301,0.492
			c-0.132,0.146-0.282,0.261-0.449,0.342c-0.167,0.08-0.341,0.125-0.521,0.135c-0.181,0.01-0.364-0.021-0.552-0.093
			c-0.189-0.071-0.37-0.186-0.543-0.343c-0.174-0.156-0.307-0.324-0.397-0.504c-0.091-0.18-0.143-0.36-0.153-0.543
			c-0.011-0.182,0.015-0.359,0.08-0.532C230.453,325.239,230.551,325.079,230.684,324.933z"/>
		<path d="M237.819,331.356c0.136-0.15,0.287-0.268,0.455-0.353c0.167-0.085,0.341-0.13,0.524-0.138
			c0.182-0.009,0.368,0.022,0.558,0.092c0.189,0.069,0.372,0.182,0.546,0.34c0.174,0.156,0.305,0.326,0.395,0.508
			c0.089,0.181,0.138,0.361,0.147,0.543c0.009,0.18-0.018,0.357-0.083,0.534c-0.065,0.177-0.165,0.341-0.301,0.491
			c-0.132,0.148-0.282,0.262-0.45,0.342c-0.167,0.081-0.341,0.125-0.521,0.136c-0.181,0.009-0.364-0.022-0.552-0.093
			c-0.189-0.071-0.37-0.186-0.543-0.342c-0.174-0.158-0.307-0.326-0.397-0.506c-0.091-0.18-0.143-0.359-0.153-0.542
			c-0.011-0.183,0.015-0.359,0.08-0.532C237.588,331.664,237.687,331.504,237.819,331.356z"/>
		<path d="M244.954,337.781c0.136-0.151,0.287-0.269,0.455-0.353c0.167-0.085,0.341-0.131,0.523-0.139
			c0.182-0.008,0.368,0.023,0.558,0.093c0.189,0.069,0.372,0.183,0.546,0.339c0.174,0.157,0.306,0.326,0.395,0.508
			s0.138,0.362,0.147,0.543c0.009,0.18-0.018,0.358-0.083,0.535c-0.065,0.178-0.165,0.341-0.301,0.492
			c-0.132,0.146-0.282,0.261-0.45,0.341c-0.167,0.081-0.341,0.126-0.521,0.136c-0.181,0.01-0.364-0.021-0.552-0.093
			c-0.188-0.071-0.369-0.186-0.543-0.343c-0.174-0.156-0.307-0.324-0.397-0.504c-0.091-0.181-0.143-0.361-0.153-0.543
			c-0.011-0.182,0.015-0.359,0.08-0.533C244.723,338.089,244.822,337.929,244.954,337.781z"/>
		<path d="M252.089,344.206c0.136-0.15,0.287-0.269,0.455-0.354c0.167-0.084,0.341-0.13,0.524-0.137
			c0.182-0.009,0.368,0.021,0.558,0.092c0.189,0.069,0.372,0.182,0.546,0.339s0.306,0.326,0.395,0.508
			c0.089,0.181,0.138,0.362,0.147,0.543c0.009,0.181-0.018,0.358-0.083,0.535c-0.065,0.177-0.165,0.341-0.301,0.491
			c-0.132,0.147-0.282,0.262-0.45,0.342c-0.167,0.081-0.341,0.125-0.521,0.135c-0.181,0.01-0.364-0.021-0.552-0.092
			c-0.188-0.072-0.369-0.186-0.543-0.343s-0.307-0.325-0.397-0.505c-0.091-0.18-0.143-0.359-0.153-0.542
			c-0.012-0.183,0.015-0.36,0.08-0.532C251.858,344.513,251.957,344.354,252.089,344.206z"/>
	</g>
</g>
<g>
	<g>
		<path d="M276.43,266.492l7.611-8.454l2.189,1.971c0.561,0.506,0.982,1.059,1.265,1.66c0.282,0.602,0.431,1.219,0.445,1.852
			c0.015,0.634-0.104,1.268-0.356,1.902c-0.253,0.635-0.635,1.237-1.147,1.807l-0.627,0.696c-0.512,0.569-1.071,1.011-1.673,1.326
			s-1.217,0.502-1.843,0.559c-0.625,0.058-1.247-0.021-1.862-0.231s-1.193-0.559-1.73-1.043L276.43,266.492z M284.493,260.842
			l-5.238,5.817l0.627,0.564c0.305,0.275,0.631,0.464,0.979,0.566c0.346,0.102,0.703,0.117,1.07,0.049
			c0.367-0.07,0.737-0.222,1.11-0.457c0.373-0.235,0.741-0.554,1.104-0.957l0.638-0.708c0.342-0.38,0.609-0.765,0.802-1.153
			c0.193-0.391,0.305-0.775,0.335-1.154c0.029-0.38-0.027-0.746-0.168-1.098c-0.142-0.354-0.379-0.679-0.712-0.979L284.493,260.842z
			"/>
		<path d="M287.583,276.534c0.031-0.112,0.077-0.23,0.141-0.355c0.064-0.126,0.136-0.253,0.218-0.383
			c-0.176,0.016-0.361,0.016-0.553-0.004c-0.193-0.02-0.389-0.061-0.587-0.125c-0.199-0.062-0.4-0.152-0.604-0.27
			c-0.204-0.116-0.404-0.264-0.601-0.441c-0.321-0.289-0.575-0.602-0.76-0.936c-0.186-0.336-0.3-0.674-0.344-1.014
			c-0.044-0.342-0.016-0.676,0.083-1.004c0.099-0.328,0.271-0.627,0.515-0.897c0.596-0.662,1.303-0.951,2.123-0.869
			s1.719,0.563,2.698,1.446l0.9,0.811l0.334-0.372c0.271-0.302,0.388-0.63,0.349-0.983c-0.039-0.354-0.244-0.698-0.615-1.033
			c-0.329-0.296-0.633-0.441-0.911-0.436s-0.523,0.126-0.736,0.361l-1.614-1.453c0.241-0.267,0.527-0.467,0.862-0.602
			c0.334-0.133,0.696-0.189,1.086-0.167s0.796,0.127,1.219,0.315c0.423,0.188,0.846,0.472,1.268,0.852
			c0.379,0.342,0.69,0.706,0.934,1.094c0.244,0.387,0.403,0.779,0.479,1.178c0.076,0.398,0.057,0.797-0.057,1.195
			c-0.114,0.398-0.334,0.779-0.662,1.144l-2.425,2.694c-0.303,0.336-0.533,0.634-0.689,0.893c-0.156,0.26-0.265,0.505-0.326,0.736
			l-0.089,0.1L287.583,276.534z M287.064,274.017c0.163,0.146,0.332,0.263,0.505,0.35c0.173,0.087,0.345,0.149,0.513,0.189
			c0.168,0.039,0.329,0.055,0.481,0.049c0.152-0.006,0.289-0.029,0.408-0.068l0.972-1.08l-0.825-0.742
			c-0.251-0.227-0.488-0.396-0.709-0.508s-0.428-0.175-0.618-0.188c-0.191-0.015-0.369,0.016-0.532,0.089
			c-0.165,0.072-0.311,0.182-0.44,0.324c-0.195,0.217-0.281,0.465-0.256,0.746C286.588,273.458,286.754,273.737,287.064,274.017z"/>
		<path d="M300.796,274.271l-1.385,1.539l2.346,2.111l-1.072,1.19l-2.346-2.112l-2.431,2.7c-0.206,0.229-0.351,0.442-0.437,0.642
			c-0.085,0.201-0.121,0.39-0.105,0.568c0.015,0.178,0.073,0.348,0.176,0.51c0.102,0.162,0.239,0.32,0.409,0.474
			c0.124,0.112,0.256,0.22,0.396,0.325c0.14,0.105,0.276,0.202,0.411,0.291c0.133,0.089,0.26,0.17,0.38,0.243
			c0.12,0.072,0.226,0.133,0.316,0.18l-0.842,1.25c-0.172-0.035-0.354-0.097-0.549-0.185c-0.194-0.087-0.39-0.192-0.589-0.314
			c-0.199-0.123-0.397-0.258-0.597-0.406c-0.2-0.148-0.389-0.303-0.566-0.463c-0.345-0.311-0.616-0.637-0.814-0.98
			c-0.199-0.344-0.312-0.701-0.338-1.071c-0.027-0.372,0.039-0.754,0.197-1.147c0.158-0.395,0.423-0.797,0.797-1.211l2.572-2.857
			l-1.434-1.291l1.072-1.19l1.434,1.292l1.385-1.539L300.796,274.271z"/>
		<path d="M301.854,289.384c0.031-0.113,0.078-0.231,0.142-0.355c0.063-0.126,0.136-0.253,0.218-0.383
			c-0.176,0.016-0.361,0.016-0.553-0.004c-0.193-0.02-0.389-0.062-0.587-0.125c-0.199-0.062-0.4-0.152-0.604-0.27
			c-0.204-0.116-0.403-0.264-0.601-0.441c-0.321-0.289-0.575-0.602-0.76-0.937c-0.186-0.335-0.3-0.673-0.344-1.014
			c-0.044-0.341-0.016-0.675,0.083-1.003s0.271-0.627,0.515-0.898c0.596-0.662,1.303-0.951,2.123-0.869
			c0.82,0.082,1.719,0.564,2.698,1.447l0.9,0.81l0.334-0.372c0.271-0.301,0.388-0.629,0.35-0.982
			c-0.039-0.354-0.244-0.698-0.616-1.033c-0.329-0.296-0.632-0.441-0.911-0.436c-0.278,0.006-0.523,0.125-0.736,0.361l-1.614-1.453
			c0.241-0.268,0.528-0.467,0.862-0.602c0.334-0.134,0.696-0.189,1.086-0.167c0.391,0.021,0.796,0.127,1.219,0.315
			c0.423,0.188,0.846,0.472,1.268,0.852c0.379,0.342,0.69,0.705,0.934,1.094c0.244,0.387,0.403,0.779,0.479,1.178
			c0.076,0.398,0.057,0.797-0.057,1.195c-0.113,0.397-0.334,0.779-0.662,1.144l-2.425,2.694c-0.303,0.336-0.533,0.633-0.689,0.893
			s-0.265,0.504-0.326,0.736l-0.089,0.1L301.854,289.384z M301.334,286.866c0.163,0.146,0.332,0.263,0.505,0.35
			s0.345,0.148,0.513,0.189c0.168,0.039,0.329,0.055,0.481,0.049c0.152-0.006,0.289-0.029,0.408-0.068l0.972-1.08l-0.824-0.742
			c-0.252-0.227-0.488-0.396-0.71-0.508s-0.428-0.175-0.618-0.188c-0.191-0.015-0.368,0.015-0.532,0.089
			c-0.165,0.072-0.311,0.181-0.44,0.324c-0.195,0.217-0.281,0.465-0.256,0.746C300.858,286.308,301.024,286.587,301.334,286.866z"/>
		<path d="M316.153,302.259l-1.631-1.469l5.839-6.484l-2.826-1.158l1.265-1.404l4.878,1.984l0.087,0.078L316.153,302.259z"/>
		<path d="M327.613,316.888l-1.01-0.91l9.755-10.834l1.01,0.91L327.613,316.888z"/>
		<path d="M343.214,324.933c0.136-0.151,0.287-0.27,0.455-0.354c0.167-0.085,0.341-0.131,0.524-0.138
			c0.182-0.009,0.368,0.022,0.558,0.093c0.189,0.068,0.372,0.182,0.546,0.338c0.174,0.157,0.305,0.326,0.395,0.508
			c0.089,0.182,0.138,0.362,0.147,0.543c0.009,0.18-0.018,0.358-0.083,0.535c-0.065,0.178-0.165,0.341-0.301,0.492
			c-0.132,0.146-0.282,0.261-0.449,0.342c-0.167,0.08-0.341,0.125-0.521,0.135c-0.181,0.01-0.364-0.021-0.552-0.093
			c-0.189-0.071-0.37-0.186-0.543-0.343c-0.174-0.156-0.307-0.324-0.397-0.504c-0.091-0.18-0.143-0.36-0.153-0.543
			c-0.011-0.182,0.015-0.359,0.08-0.532C342.983,325.239,343.082,325.079,343.214,324.933z"/>
		<path d="M350.349,331.356c0.136-0.15,0.287-0.268,0.455-0.353c0.167-0.085,0.341-0.13,0.524-0.138
			c0.182-0.009,0.368,0.022,0.558,0.092c0.189,0.069,0.372,0.182,0.546,0.34c0.174,0.156,0.305,0.326,0.395,0.508
			c0.089,0.181,0.138,0.361,0.147,0.543c0.009,0.18-0.018,0.357-0.083,0.534c-0.065,0.177-0.165,0.341-0.301,0.491
			c-0.132,0.148-0.282,0.262-0.45,0.342c-0.167,0.081-0.341,0.125-0.521,0.136c-0.181,0.009-0.364-0.022-0.552-0.093
			c-0.189-0.071-0.37-0.186-0.543-0.342c-0.174-0.158-0.307-0.326-0.397-0.506c-0.091-0.18-0.143-0.359-0.153-0.542
			c-0.011-0.183,0.015-0.359,0.08-0.532C350.118,331.664,350.217,331.504,350.349,331.356z"/>
		<path d="M357.484,337.781c0.136-0.151,0.287-0.269,0.455-0.353c0.167-0.085,0.341-0.131,0.523-0.139
			c0.182-0.008,0.368,0.023,0.558,0.093c0.189,0.069,0.372,0.183,0.546,0.339c0.174,0.157,0.306,0.326,0.395,0.508
			s0.138,0.362,0.147,0.543c0.009,0.18-0.018,0.358-0.083,0.535c-0.065,0.178-0.165,0.341-0.301,0.492
			c-0.132,0.146-0.282,0.261-0.45,0.341c-0.167,0.081-0.341,0.126-0.521,0.136c-0.181,0.01-0.364-0.021-0.552-0.093
			c-0.188-0.071-0.369-0.186-0.543-0.343c-0.174-0.156-0.307-0.324-0.397-0.504c-0.091-0.181-0.143-0.361-0.153-0.543
			c-0.011-0.182,0.015-0.359,0.08-0.533C357.253,338.089,357.352,337.929,357.484,337.781z"/>
		<path d="M364.62,344.206c0.136-0.15,0.287-0.269,0.455-0.354c0.167-0.084,0.341-0.13,0.524-0.137
			c0.182-0.009,0.368,0.021,0.558,0.092c0.189,0.069,0.372,0.182,0.546,0.339s0.306,0.326,0.395,0.508
			c0.089,0.181,0.138,0.362,0.147,0.543c0.009,0.181-0.018,0.358-0.083,0.535c-0.065,0.177-0.165,0.341-0.301,0.491
			c-0.132,0.147-0.282,0.262-0.45,0.342c-0.167,0.081-0.341,0.125-0.521,0.135c-0.181,0.01-0.364-0.021-0.552-0.092
			c-0.188-0.072-0.369-0.186-0.543-0.343s-0.307-0.325-0.397-0.505c-0.091-0.18-0.143-0.359-0.153-0.542
			c-0.012-0.183,0.015-0.36,0.08-0.532C364.389,344.513,364.487,344.354,364.62,344.206z"/>
	</g>
</g>
<g>
	<rect x="81.526" y="199.551" fill="#97B2C3" stroke="#000000" stroke-miterlimit="10" width="10.935" height="34.924"/>
	<rect x="99.835" y="199.551" fill="#97B2C3" stroke="#000000" stroke-miterlimit="10" width="10.935" height="34.924"/>
	<rect x="118.144" y="199.551" fill="#97B2C3" stroke="#000000" stroke-miterlimit="10" width="10.935" height="34.924"/>
	<rect x="136.452" y="199.551" fill="#97B2C3" stroke="#000000" stroke-miterlimit="10" width="10.936" height="34.924"/>
	<rect x="154.761" y="199.551" fill="#97B2C3" stroke="#000000" stroke-miterlimit="10" width="10.936" height="34.924"/>
	<rect x="173.069" y="199.551" fill="#97B2C3" stroke="#000000" stroke-miterlimit="10" width="10.936" height="34.924"/>
	<rect x="191.378" y="199.551" fill="#97B2C3" stroke="#000000" stroke-miterlimit="10" width="10.936" height="34.924"/>
	<rect x="209.687" y="199.551" fill="#97B2C3" stroke="#000000" stroke-miterlimit="10" width="10.936" height="34.924"/>
	<rect x="227.995" y="199.551" fill="#97B2C3" stroke="#000000" stroke-miterlimit="10" width="10.936" height="34.924"/>
	<rect x="246.304" y="199.551" fill="#97B2C3" stroke="#000000" stroke-miterlimit="10" width="10.936" height="34.924"/>
	<rect x="264.612" y="199.551" fill="#97B2C3" stroke="#000000" stroke-miterlimit="10" width="10.936" height="34.924"/>
	<rect x="282.921" y="199.551" fill="#97B2C3" stroke="#000000" stroke-miterlimit="10" width="10.936" height="34.924"/>
	<rect x="301.23" y="199.551" fill="#FFFFFF" stroke="#000000" stroke-miterlimit="10" width="10.935" height="34.924"/>
	<rect x="319.539" y="199.551" fill="#FFFFFF" stroke="#000000" stroke-miterlimit="10" width="10.935" height="34.924"/>
	<rect x="338.526" y="199.551" fill="#FFFFFF" stroke="#000000" stroke-miterlimit="10" width="10.935" height="34.924"/>
	<rect x="356.835" y="199.551" fill="#FFFFFF" stroke="#000000" stroke-miterlimit="10" width="10.935" height="34.924"/>
	<rect x="375.144" y="199.551" fill="#FFFFFF" stroke="#000000" stroke-miterlimit="10" width="10.935" height="34.924"/>
	<rect x="393.452" y="199.551" fill="#FFFFFF" stroke="#000000" stroke-miterlimit="10" width="10.936" height="34.924"/>
	<rect x="411.761" y="199.551" fill="#FFFFFF" stroke="#000000" stroke-miterlimit="10" width="10.936" height="34.924"/>
	<rect x="430.069" y="199.551" fill="#FFFFFF" stroke="#000000" stroke-miterlimit="10" width="10.936" height="34.924"/>
	<rect x="448.378" y="199.551" fill="#FFFFFF" stroke="#000000" stroke-miterlimit="10" width="10.936" height="34.924"/>
	<rect x="466.687" y="199.551" fill="#FFFFFF" stroke="#000000" stroke-miterlimit="10" width="10.936" height="34.924"/>
	<rect x="484.995" y="199.551" fill="#FFFFFF" stroke="#000000" stroke-miterlimit="10" width="10.936" height="34.924"/>
	<rect x="503.304" y="199.551" fill="#FFFFFF" stroke="#000000" stroke-miterlimit="10" width="10.936" height="34.924"/>
	<rect x="521.612" y="199.551" fill="#FFFFFF" stroke="#000000" stroke-miterlimit="10" width="10.936" height="34.924"/>
	<rect x="539.921" y="199.551" fill="#FFFFFF" stroke="#000000" stroke-miterlimit="10" width="10.936" height="34.924"/>
	<rect x="558.23" y="199.551" fill="#FFFFFF" stroke="#000000" stroke-miterlimit="10" width="10.935" height="34.924"/>
	<rect x="576.539" y="199.551" fill="#FFFFFF" stroke="#000000" stroke-miterlimit="10" width="10.935" height="34.924"/>
	<rect x="594.847" y="199.551" fill="#FFFFFF" stroke="#000000" stroke-miterlimit="10" width="10.935" height="34.924"/>
	<rect x="613.155" y="199.551" fill="#FFFFFF" stroke="#000000" stroke-miterlimit="10" width="10.935" height="34.924"/>
	<rect x="631.464" y="199.551" fill="#FFFFFF" stroke="#000000" stroke-miterlimit="10" width="10.936" height="34.924"/>
	<rect x="649.772" y="199.551" fill="#FFFFFF" stroke="#000000" stroke-miterlimit="10" width="10.936" height="34.924"/>
	<rect x="668.081" y="199.551" fill="#FFFFFF" stroke="#000000" stroke-miterlimit="10" width="10.936" height="34.924"/>
	<rect x="686.389" y="199.551" fill="#FFFFFF" stroke="#000000" stroke-miterlimit="10" width="10.936" height="34.924"/>
	<rect x="704.697" y="199.551" fill="#FFFFFF" stroke="#000000" stroke-miterlimit="10" width="10.936" height="34.924"/>
	<rect x="723.006" y="199.551" fill="#FFFFFF" stroke="#000000" stroke-miterlimit="10" width="10.936" height="34.924"/>
	<rect x="741.314" y="199.551" fill="#FFFFFF" stroke="#000000" stroke-miterlimit="10" width="10.936" height="34.924"/>
	<rect x="759.623" y="199.551" fill="#FFFFFF" stroke="#000000" stroke-miterlimit="10" width="10.936" height="34.924"/>
	<rect x="777.932" y="199.551" fill="#FFFFFF" stroke="#000000" stroke-miterlimit="10" width="10.936" height="34.924"/>
	<rect x="796.242" y="199.551" fill="#FFFFFF" stroke="#000000" stroke-miterlimit="10" width="10.934" height="34.924"/>
	<rect x="814.551" y="199.551" fill="#FFFFFF" stroke="#000000" stroke-miterlimit="10" width="10.934" height="34.924"/>
	<rect x="833.193" y="199.551" fill="#FFFFFF" stroke="#000000" stroke-miterlimit="10" width="10.935" height="34.924"/>
	<rect x="851.502" y="199.551" fill="#FFFFFF" stroke="#000000" stroke-miterlimit="10" width="10.936" height="34.924"/>
	<rect x="869.811" y="199.551" fill="#FFFFFF" stroke="#000000" stroke-miterlimit="10" width="10.936" height="34.924"/>
	<rect x="888.119" y="199.551" fill="#FFFFFF" stroke="#000000" stroke-miterlimit="10" width="10.936" height="34.924"/>
	<rect x="906.428" y="199.551" fill="#FFFFFF" stroke="#000000" stroke-miterlimit="10" width="10.936" height="34.924"/>
	<rect x="924.736" y="199.551" fill="#FFFFFF" stroke="#000000" stroke-miterlimit="10" width="10.936" height="34.924"/>
	<rect x="943.045" y="199.551" fill="#FFFFFF" stroke="#000000" stroke-miterlimit="10" width="10.936" height="34.924"/>
	<rect x="961.354" y="199.551" fill="#FFFFFF" stroke="#000000" stroke-miterlimit="10" width="10.936" height="34.924"/>
	<rect x="979.662" y="199.551" fill="#FFFFFF" stroke="#000000" stroke-miterlimit="10" width="10.936" height="34.924"/>
	<rect x="997.971" y="199.551" fill="#FFFFFF" stroke="#000000" stroke-miterlimit="10" width="10.936" height="34.924"/>
	<rect x="1016.28" y="199.551" fill="#FFFFFF" stroke="#000000" stroke-miterlimit="10" width="10.935" height="34.924"/>
	<rect x="1034.589" y="199.551" fill="#FFFFFF" stroke="#000000" stroke-miterlimit="10" width="10.935" height="34.924"/>
	<rect x="1052.896" y="199.551" fill="#FFFFFF" stroke="#000000" stroke-miterlimit="10" width="10.935" height="34.924"/>
	<rect x="1071.205" y="199.551" fill="#FFFFFF" stroke="#000000" stroke-miterlimit="10" width="10.935" height="34.924"/>
	<rect x="1089.514" y="199.551" fill="#FFFFFF" stroke="#000000" stroke-miterlimit="10" width="10.936" height="34.924"/>
	<rect x="1107.822" y="199.551" fill="#FFFFFF" stroke="#000000" stroke-miterlimit="10" width="10.936" height="34.924"/>
	<rect x="1126.131" y="199.551" fill="#FFFFFF" stroke="#000000" stroke-miterlimit="10" width="10.936" height="34.924"/>
	<rect x="1144.439" y="199.551" fill="#FFFFFF" stroke="#000000" stroke-miterlimit="10" width="10.935" height="34.924"/>
	<rect x="1162.747" y="199.551" fill="#FFFFFF" stroke="#000000" stroke-miterlimit="10" width="10.936" height="34.924"/>
	<rect x="1181.056" y="199.551" fill="#FFFFFF" stroke="#000000" stroke-miterlimit="10" width="10.936" height="34.924"/>
	<rect x="1199.364" y="199.551" fill="#FFFFFF" stroke="#000000" stroke-miterlimit="10" width="10.936" height="34.924"/>
	<rect x="1217.673" y="199.551" fill="#FFFFFF" stroke="#000000" stroke-miterlimit="10" width="10.936" height="34.924"/>
	<rect x="1235.981" y="199.551" fill="#FFFFFF" stroke="#000000" stroke-miterlimit="10" width="10.936" height="34.924"/>
	<rect x="1254.292" y="199.551" fill="#FFFFFF" stroke="#000000" stroke-miterlimit="10" width="10.934" height="34.924"/>
	<rect x="1272.601" y="199.551" fill="#FFFFFF" stroke="#000000" stroke-miterlimit="10" width="10.934" height="34.924"/>
</g>
<g>
	<g>
		<path fill="none" stroke="#000000" stroke-miterlimit="10" d="M800.082,409.09"/>
	</g>
</g>
</svg>
