<?xml version="1.0" encoding="utf-8"?>
<!-- Generator: Adobe Illustrator 16.0.4, SVG Export Plug-In . SVG Version: 6.00 Build 0)  -->
<!DOCTYPE svg PUBLIC "-//W3C//DTD SVG 1.1//EN" "http://www.w3.org/Graphics/SVG/1.1/DTD/svg11.dtd">
<svg version="1.1" id="Layer_1" xmlns="http://www.w3.org/2000/svg" xmlns:xlink="http://www.w3.org/1999/xlink" x="0px" y="0px"
	 width="1366px" height="768px" viewBox="0 0 1366 768" enable-background="new 0 0 1366 768" xml:space="preserve">
<rect x="-1" y="1" fill="#FFFFFF" width="1366" height="768"/>
<circle fill="#2D4E6E" cx="180.948" cy="175.641" r="5.339"/>
<circle fill="#2D4E6E" cx="251.928" cy="176.374" r="5.34"/>
<circle fill="#2D4E6E" cx="461.305" cy="315.571" r="5.34"/>
<circle fill="#2D4E6E" cx="321.72" cy="176.25" r="5.34"/>
<circle fill="#2D4E6E" cx="391.513" cy="176.25" r="5.34"/>
<circle fill="#2D4E6E" cx="461.305" cy="176.25" r="5.34"/>
<circle fill="#2D4E6E" cx="531.097" cy="176.25" r="5.34"/>
<circle fill="#2D4E6E" cx="531.097" cy="246.043" r="5.34"/>
<circle fill="#2D4E6E" cx="531.097" cy="315.835" r="5.34"/>
<g>
	<g>
		<path d="M214.245,169.298h-1.613v2.777h-2.768v-2.777h-5.719v-1.97l5.875-8.652h2.612v8.423h1.613V169.298z M209.863,167.099
			v-2.273c0-0.379,0.015-0.929,0.046-1.65c0.031-0.721,0.055-1.14,0.073-1.255h-0.073c-0.226,0.501-0.498,0.99-0.816,1.466
			l-2.456,3.712H209.863z"/>
		<path d="M224.959,169.298h-1.613v2.777h-2.768v-2.777h-5.719v-1.97l5.875-8.652h2.612v8.423h1.613V169.298z M220.578,167.099
			v-2.273c0-0.379,0.015-0.929,0.046-1.65c0.031-0.721,0.055-1.14,0.073-1.255h-0.073c-0.226,0.501-0.498,0.99-0.816,1.466
			l-2.456,3.712H220.578z"/>
		<path d="M228.973,158.676l0.128,0.202c-0.306,1.204-0.843,2.667-1.613,4.39h-2.007c0.422-1.809,0.727-3.339,0.917-4.592H228.973z"
			/>
	</g>
</g>
<g>
	<g>
		<path d="M289.581,165.375c0,2.34-0.383,4.073-1.15,5.197c-0.767,1.124-1.947,1.686-3.542,1.686c-1.546,0-2.711-0.58-3.497-1.741
			s-1.178-2.875-1.178-5.142c0-2.365,0.382-4.107,1.146-5.229c0.764-1.121,1.94-1.682,3.529-1.682c1.546,0,2.715,0.586,3.506,1.76
			C289.186,161.398,289.581,163.115,289.581,165.375z M283.028,165.375c0,1.644,0.142,2.822,0.426,3.534s0.762,1.067,1.434,1.067
			c0.66,0,1.137-0.36,1.43-1.082c0.293-0.721,0.44-1.894,0.44-3.52c0-1.644-0.148-2.824-0.445-3.542
			c-0.296-0.718-0.771-1.077-1.425-1.077c-0.666,0-1.143,0.359-1.43,1.077C283.171,162.551,283.028,163.732,283.028,165.375z"/>
		<path d="M293.971,158.676l0.128,0.202c-0.306,1.204-0.843,2.667-1.613,4.39h-2.007c0.422-1.809,0.727-3.339,0.917-4.592H293.971z"
			/>
	</g>
</g>
<g>
	<g>
		<path d="M358.811,165.375c0,2.34-0.383,4.073-1.15,5.197c-0.767,1.124-1.947,1.686-3.542,1.686c-1.546,0-2.711-0.58-3.497-1.741
			s-1.178-2.875-1.178-5.142c0-2.365,0.382-4.107,1.146-5.229c0.764-1.121,1.94-1.682,3.529-1.682c1.546,0,2.715,0.586,3.506,1.76
			C358.415,161.398,358.811,163.115,358.811,165.375z M352.257,165.375c0,1.644,0.142,2.822,0.426,3.534s0.762,1.067,1.434,1.067
			c0.66,0,1.137-0.36,1.43-1.082c0.293-0.721,0.44-1.894,0.44-3.52c0-1.644-0.148-2.824-0.445-3.542
			c-0.296-0.718-0.771-1.077-1.425-1.077c-0.666,0-1.143,0.359-1.43,1.077C352.401,162.551,352.257,163.732,352.257,165.375z"/>
		<path d="M363.201,158.676l0.128,0.202c-0.306,1.204-0.843,2.667-1.613,4.39h-2.007c0.422-1.809,0.727-3.339,0.917-4.592H363.201z"
			/>
	</g>
</g>
<g>
	<g>
		<path d="M429.512,165.375c0,2.34-0.383,4.073-1.15,5.197c-0.767,1.124-1.947,1.686-3.542,1.686c-1.546,0-2.711-0.58-3.497-1.741
			s-1.178-2.875-1.178-5.142c0-2.365,0.382-4.107,1.146-5.229c0.764-1.121,1.94-1.682,3.529-1.682c1.546,0,2.715,0.586,3.506,1.76
			C429.116,161.398,429.512,163.115,429.512,165.375z M422.958,165.375c0,1.644,0.142,2.822,0.426,3.534s0.762,1.067,1.434,1.067
			c0.66,0,1.137-0.36,1.43-1.082c0.293-0.721,0.44-1.894,0.44-3.52c0-1.644-0.148-2.824-0.445-3.542
			c-0.296-0.718-0.771-1.077-1.425-1.077c-0.666,0-1.143,0.359-1.43,1.077C423.102,162.551,422.958,163.732,422.958,165.375z"/>
	</g>
</g>
<g>
	<g>
		<path d="M427.22,309.02h-2.832v-7.754l0.027-1.274l0.046-1.393c-0.471,0.471-0.797,0.779-0.98,0.926l-1.54,1.237l-1.366-1.705
			l4.317-3.437h2.328V309.02z"/>
	</g>
</g>
<g>
	<rect x="83.74" y="167.532" fill="none" width="75.049" height="60.467"/>
	<path d="M109.448,179.509l-2.708-8.826h-0.069c0.097,1.795,0.146,2.993,0.146,3.594v5.232h-2.131v-11.25h3.247l2.663,8.603h0.046
		l2.824-8.603h3.248v11.25h-2.224v-5.325c0-0.251,0.004-0.541,0.012-0.869c0.008-0.329,0.042-1.201,0.104-2.617h-0.069l-2.901,8.811
		H109.448z"/>
	<path d="M124.823,179.509l-0.454-1.169h-0.062c-0.395,0.498-0.802,0.842-1.22,1.035s-0.963,0.289-1.635,0.289
		c-0.826,0-1.476-0.236-1.951-0.708c-0.475-0.472-0.712-1.144-0.712-2.016c0-0.913,0.319-1.586,0.958-2.02
		c0.639-0.433,1.602-0.673,2.89-0.719l1.493-0.046v-0.377c0-0.872-0.446-1.308-1.339-1.308c-0.688,0-1.495,0.208-2.424,0.624
		l-0.777-1.585c0.99-0.518,2.088-0.777,3.293-0.777c1.154,0,2.04,0.251,2.655,0.754c0.616,0.503,0.924,1.267,0.924,2.293v5.733
		H124.823z M124.13,175.523l-0.908,0.031c-0.683,0.021-1.19,0.144-1.524,0.369c-0.333,0.226-0.5,0.569-0.5,1.031
		c0,0.662,0.379,0.993,1.139,0.993c0.544,0,0.979-0.157,1.305-0.47c0.326-0.312,0.488-0.728,0.488-1.247V175.523z"/>
	<path d="M134.881,176.955c0,0.882-0.307,1.554-0.919,2.016c-0.613,0.461-1.53,0.692-2.751,0.692c-0.626,0-1.16-0.042-1.601-0.127
		c-0.441-0.084-0.854-0.209-1.239-0.373v-1.939c0.436,0.206,0.927,0.377,1.474,0.516c0.546,0.139,1.027,0.208,1.443,0.208
		c0.852,0,1.277-0.246,1.277-0.739c0-0.185-0.056-0.335-0.169-0.45c-0.113-0.115-0.308-0.246-0.585-0.393
		c-0.277-0.146-0.646-0.316-1.108-0.512c-0.662-0.277-1.148-0.533-1.458-0.77c-0.311-0.236-0.536-0.506-0.677-0.812
		s-0.211-0.681-0.211-1.127c0-0.764,0.296-1.355,0.889-1.774c0.593-0.418,1.433-0.627,2.52-0.627c1.036,0,2.044,0.226,3.024,0.677
		l-0.708,1.693c-0.431-0.185-0.833-0.336-1.208-0.454s-0.757-0.177-1.146-0.177c-0.693,0-1.039,0.187-1.039,0.562
		c0,0.21,0.112,0.393,0.335,0.546s0.711,0.382,1.466,0.685c0.672,0.272,1.165,0.526,1.478,0.762
		c0.312,0.236,0.543,0.508,0.692,0.815C134.807,176.162,134.881,176.529,134.881,176.955z"/>
	<path d="M140.336,177.793c0.411,0,0.903-0.09,1.478-0.27v1.747c-0.585,0.262-1.303,0.393-2.155,0.393
		c-0.938,0-1.622-0.237-2.05-0.712c-0.429-0.474-0.643-1.186-0.643-2.135v-4.147h-1.124v-0.993l1.292-0.785l0.677-1.816h1.5v1.832
		h2.409v1.762h-2.409v4.147c0,0.333,0.094,0.58,0.281,0.739C139.781,177.714,140.029,177.793,140.336,177.793z"/>
	<path d="M147.447,179.663c-1.385,0-2.468-0.382-3.248-1.146c-0.78-0.764-1.169-1.847-1.169-3.247c0-1.442,0.36-2.556,1.081-3.344
		s1.717-1.181,2.99-1.181c1.216,0,2.162,0.346,2.839,1.039c0.677,0.693,1.016,1.649,1.016,2.871v1.139h-5.548
		c0.025,0.667,0.223,1.188,0.592,1.562c0.37,0.375,0.888,0.562,1.554,0.562c0.519,0,1.008-0.054,1.47-0.162
		c0.461-0.108,0.944-0.28,1.446-0.516v1.816c-0.41,0.206-0.849,0.358-1.316,0.458S148.119,179.663,147.447,179.663z
		 M147.116,172.415c-0.498,0-0.888,0.158-1.169,0.473c-0.282,0.315-0.444,0.763-0.485,1.343h3.293
		c-0.01-0.58-0.162-1.027-0.454-1.343S147.613,172.415,147.116,172.415z"/>
	<path d="M157.666,170.745c0.318,0,0.583,0.023,0.793,0.069l-0.177,2.201c-0.19-0.051-0.42-0.077-0.692-0.077
		c-0.749,0-1.333,0.192-1.75,0.577c-0.418,0.385-0.627,0.923-0.627,1.616v4.378h-2.347v-8.603h1.777l0.346,1.447h0.116
		c0.267-0.482,0.627-0.871,1.081-1.166S157.132,170.745,157.666,170.745z"/>
	<path d="M132.68,198.421h-2.708l-2.947-4.74l-1.008,0.724v4.017h-2.385v-11.25h2.385v5.148l0.939-1.324l3.047-3.824h2.647
		l-3.924,4.979L132.68,198.421z"/>
	<path d="M137.805,198.575c-1.385,0-2.468-0.382-3.248-1.146c-0.78-0.764-1.169-1.847-1.169-3.247c0-1.442,0.36-2.556,1.081-3.344
		s1.717-1.181,2.99-1.181c1.216,0,2.162,0.346,2.839,1.039c0.677,0.693,1.016,1.649,1.016,2.871v1.139h-5.548
		c0.025,0.667,0.223,1.188,0.592,1.562c0.37,0.375,0.888,0.562,1.554,0.562c0.519,0,1.008-0.054,1.47-0.162
		c0.461-0.108,0.944-0.28,1.446-0.516v1.816c-0.41,0.206-0.849,0.358-1.316,0.458S138.477,198.575,137.805,198.575z
		 M137.474,191.326c-0.498,0-0.888,0.158-1.169,0.473c-0.282,0.315-0.444,0.763-0.485,1.343h3.293
		c-0.01-0.58-0.162-1.027-0.454-1.343S137.971,191.326,137.474,191.326z"/>
	<path d="M141.991,189.818h2.57l1.624,4.84c0.139,0.42,0.233,0.918,0.285,1.493h0.046c0.056-0.528,0.167-1.026,0.331-1.493
		l1.593-4.84h2.517l-3.64,9.704c-0.333,0.897-0.81,1.57-1.428,2.016s-1.34,0.669-2.166,0.669c-0.405,0-0.803-0.044-1.193-0.131
		v-1.862c0.282,0.066,0.59,0.1,0.923,0.1c0.416,0,0.778-0.127,1.089-0.381s0.553-0.638,0.728-1.15l0.138-0.423L141.991,189.818z"/>
	<path d="M158.189,195.866c0,0.882-0.307,1.554-0.919,2.016c-0.613,0.461-1.53,0.692-2.751,0.692c-0.626,0-1.16-0.042-1.601-0.127
		c-0.441-0.084-0.854-0.209-1.239-0.373v-1.939c0.436,0.206,0.927,0.377,1.474,0.516c0.546,0.139,1.027,0.208,1.443,0.208
		c0.852,0,1.277-0.246,1.277-0.739c0-0.185-0.056-0.335-0.169-0.45c-0.113-0.115-0.308-0.246-0.585-0.393
		c-0.277-0.146-0.646-0.316-1.108-0.512c-0.662-0.277-1.148-0.533-1.458-0.77c-0.311-0.236-0.536-0.506-0.677-0.812
		s-0.211-0.681-0.211-1.127c0-0.764,0.296-1.355,0.889-1.774c0.593-0.418,1.433-0.627,2.52-0.627c1.036,0,2.044,0.226,3.024,0.677
		l-0.708,1.693c-0.431-0.185-0.833-0.336-1.208-0.454s-0.757-0.177-1.146-0.177c-0.693,0-1.039,0.187-1.039,0.562
		c0,0.21,0.112,0.393,0.335,0.546s0.711,0.382,1.466,0.685c0.672,0.272,1.165,0.526,1.478,0.762
		c0.312,0.236,0.543,0.508,0.692,0.815C158.115,195.074,158.189,195.44,158.189,195.866z"/>
</g>
<g>
	<g>
		<path d="M500.43,165.375c0,2.34-0.383,4.073-1.15,5.197c-0.767,1.124-1.947,1.686-3.542,1.686c-1.546,0-2.711-0.58-3.497-1.741
			s-1.178-2.875-1.178-5.142c0-2.365,0.382-4.107,1.146-5.229c0.764-1.121,1.94-1.682,3.529-1.682c1.546,0,2.715,0.586,3.506,1.76
			C500.034,161.398,500.43,163.115,500.43,165.375z M493.876,165.375c0,1.644,0.142,2.822,0.426,3.534s0.762,1.067,1.434,1.067
			c0.66,0,1.137-0.36,1.43-1.082c0.293-0.721,0.44-1.894,0.44-3.52c0-1.644-0.148-2.824-0.445-3.542
			c-0.296-0.718-0.771-1.077-1.425-1.077c-0.666,0-1.143,0.359-1.43,1.077C494.02,162.551,493.876,163.732,493.876,165.375z"/>
	</g>
</g>
<g>
	<g>
		<path d="M500.43,302.583c0,2.34-0.383,4.073-1.15,5.197c-0.767,1.124-1.947,1.686-3.542,1.686c-1.546,0-2.711-0.58-3.497-1.741
			s-1.178-2.875-1.178-5.142c0-2.365,0.382-4.107,1.146-5.229c0.764-1.121,1.94-1.682,3.529-1.682c1.546,0,2.715,0.586,3.506,1.76
			C500.034,298.606,500.43,300.323,500.43,302.583z M493.876,302.583c0,1.644,0.142,2.822,0.426,3.534s0.762,1.067,1.434,1.067
			c0.66,0,1.137-0.36,1.43-1.082c0.293-0.721,0.44-1.894,0.44-3.52c0-1.644-0.148-2.824-0.445-3.542
			c-0.296-0.718-0.771-1.077-1.425-1.077c-0.666,0-1.143,0.359-1.43,1.077C494.02,299.759,493.876,300.94,493.876,302.583z"/>
	</g>
</g>
<g>
	<g>
		<path d="M498.138,239.492h-2.832v-7.754l0.027-1.274l0.046-1.393c-0.471,0.471-0.797,0.779-0.98,0.926l-1.54,1.237l-1.366-1.705
			l4.317-3.437h2.328V239.492z"/>
	</g>
</g>
<circle fill="#2D4E6E" cx="180.948" cy="383.53" r="5.339"/>
<path fill="#2D4E6E" d="M257.268,384.264c0,2.95-2.391,5.342-5.339,5.342s-5.34-2.392-5.34-5.342c0-2.947,2.392-5.34,5.34-5.34
	S257.268,381.316,257.268,384.264z"/>
<circle fill="#2D4E6E" cx="461.305" cy="663.046" r="5.34"/>
<circle fill="#2D4E6E" cx="321.72" cy="384.142" r="5.34"/>
<circle fill="#2D4E6E" cx="391.513" cy="384.142" r="5.34"/>
<circle fill="#2D4E6E" cx="461.305" cy="384.142" r="5.34"/>
<circle fill="#2D4E6E" cx="531.097" cy="384.142" r="5.34"/>
<circle fill="#2D4E6E" cx="531.097" cy="453.934" r="5.34"/>
<path fill="#2D4E6E" d="M536.437,523.727c0,2.947-2.392,5.338-5.34,5.338c-2.948,0-5.34-2.391-5.34-5.338
	c0-2.951,2.392-5.341,5.34-5.341C534.045,518.386,536.437,520.775,536.437,523.727z"/>
<circle fill="#2D4E6E" cx="531.097" cy="593.519" r="5.34"/>
<circle fill="#2D4E6E" cx="531.097" cy="663.309" r="5.34"/>
<circle fill="#2D4E6E" cx="531.097" cy="731.977" r="5.34"/>
<g>
	<rect x="198.937" y="363.7" fill="none" width="35.271" height="30.953"/>
	<path d="M214.245,375.188h-1.613v2.777h-2.768v-2.777h-5.719v-1.971l5.875-8.652h2.612v8.423h1.613V375.188z M209.863,372.989
		v-2.273c0-0.379,0.015-0.929,0.046-1.65c0.031-0.721,0.055-1.14,0.073-1.255h-0.073c-0.226,0.501-0.498,0.99-0.816,1.466
		l-2.456,3.712H209.863z"/>
	<path d="M224.959,375.188h-1.613v2.777h-2.768v-2.777h-5.719v-1.971l5.875-8.652h2.612v8.423h1.613V375.188z M220.578,372.989
		v-2.273c0-0.379,0.015-0.929,0.046-1.65c0.031-0.721,0.055-1.14,0.073-1.255h-0.073c-0.226,0.501-0.498,0.99-0.816,1.466
		l-2.456,3.712H220.578z"/>
	<path d="M228.973,364.566l0.128,0.202c-0.306,1.204-0.843,2.667-1.613,4.39h-2.007c0.422-1.809,0.727-3.339,0.917-4.592H228.973z"
		/>
</g>
<g>
	<rect x="269.292" y="363.7" fill="none" width="35.272" height="30.953"/>
	<path d="M289.581,371.266c0,2.341-0.383,4.073-1.15,5.197c-0.767,1.124-1.947,1.687-3.542,1.687c-1.546,0-2.711-0.581-3.497-1.742
		c-0.785-1.16-1.178-2.874-1.178-5.142c0-2.365,0.382-4.107,1.146-5.229c0.764-1.121,1.94-1.682,3.529-1.682
		c1.546,0,2.715,0.586,3.506,1.76C289.186,367.288,289.581,369.005,289.581,371.266z M283.028,371.266
		c0,1.644,0.142,2.821,0.426,3.533s0.762,1.068,1.434,1.068c0.66,0,1.137-0.36,1.43-1.082c0.293-0.721,0.44-1.894,0.44-3.52
		c0-1.644-0.148-2.824-0.445-3.542c-0.296-0.718-0.771-1.077-1.425-1.077c-0.666,0-1.143,0.359-1.43,1.077
		C283.171,368.441,283.028,369.622,283.028,371.266z"/>
	<path d="M293.971,364.566l0.128,0.202c-0.306,1.204-0.843,2.667-1.613,4.39h-2.007c0.422-1.809,0.727-3.339,0.917-4.592H293.971z"
		/>
</g>
<g>
	<rect x="338.521" y="363.7" fill="none" width="35.271" height="30.953"/>
	<path d="M358.811,371.266c0,2.341-0.383,4.073-1.15,5.197c-0.767,1.124-1.947,1.687-3.542,1.687c-1.546,0-2.711-0.581-3.497-1.742
		c-0.785-1.16-1.178-2.874-1.178-5.142c0-2.365,0.382-4.107,1.146-5.229c0.764-1.121,1.94-1.682,3.529-1.682
		c1.546,0,2.715,0.586,3.506,1.76C358.415,367.288,358.811,369.005,358.811,371.266z M352.257,371.266
		c0,1.644,0.142,2.821,0.426,3.533s0.762,1.068,1.434,1.068c0.66,0,1.137-0.36,1.43-1.082c0.293-0.721,0.44-1.894,0.44-3.52
		c0-1.644-0.148-2.824-0.445-3.542c-0.296-0.718-0.771-1.077-1.425-1.077c-0.666,0-1.143,0.359-1.43,1.077
		C352.401,368.441,352.257,369.622,352.257,371.266z"/>
	<path d="M363.201,364.566l0.128,0.202c-0.306,1.204-0.843,2.667-1.613,4.39h-2.007c0.422-1.809,0.727-3.339,0.917-4.592H363.201z"
		/>
</g>
<g>
	<rect x="407.188" y="363.7" fill="none" width="35.271" height="30.953"/>
	<path d="M429.512,371.266c0,2.341-0.383,4.073-1.15,5.197c-0.767,1.124-1.947,1.687-3.542,1.687c-1.546,0-2.711-0.581-3.497-1.742
		c-0.785-1.16-1.178-2.874-1.178-5.142c0-2.365,0.382-4.107,1.146-5.229c0.764-1.121,1.94-1.682,3.529-1.682
		c1.546,0,2.715,0.586,3.506,1.76C429.116,367.288,429.512,369.005,429.512,371.266z M422.958,371.266
		c0,1.644,0.142,2.821,0.426,3.533s0.762,1.068,1.434,1.068c0.66,0,1.137-0.36,1.43-1.082c0.293-0.721,0.44-1.894,0.44-3.52
		c0-1.644-0.148-2.824-0.445-3.542c-0.296-0.718-0.771-1.077-1.425-1.077c-0.666,0-1.143,0.359-1.43,1.077
		C423.102,368.441,422.958,369.622,422.958,371.266z"/>
</g>
<g>
	<rect x="407.188" y="642.491" fill="none" width="35.271" height="30.957"/>
	<path d="M427.22,656.757h-2.832v-7.754l0.027-1.274l0.046-1.393c-0.471,0.471-0.797,0.778-0.98,0.926l-1.54,1.237l-1.366-1.705
		l4.317-3.438h2.328V656.757z"/>
</g>
<g>
	<rect x="478.106" y="572.437" fill="none" width="35.271" height="30.955"/>
	<path d="M499.98,576.299c0,0.838-0.253,1.55-0.761,2.136c-0.507,0.587-1.219,0.99-2.135,1.21v0.055
		c1.082,0.135,1.9,0.463,2.456,0.985s0.834,1.228,0.834,2.113c0,1.289-0.468,2.293-1.402,3.011
		c-0.935,0.718-2.271,1.077-4.005,1.077c-1.455,0-2.744-0.241-3.868-0.725v-2.41c0.52,0.263,1.091,0.477,1.714,0.642
		c0.624,0.165,1.241,0.247,1.852,0.247c0.935,0,1.625-0.158,2.071-0.477c0.446-0.317,0.669-0.828,0.669-1.53
		c0-0.63-0.257-1.075-0.77-1.338s-1.332-0.395-2.457-0.395h-1.017v-2.172h1.036c1.039,0,1.798-0.137,2.277-0.408
		c0.48-0.271,0.72-0.738,0.72-1.397c0-1.015-0.636-1.521-1.906-1.521c-0.44,0-0.888,0.073-1.343,0.22
		c-0.456,0.146-0.961,0.4-1.517,0.761l-1.311-1.952c1.222-0.88,2.679-1.32,4.372-1.32c1.387,0,2.482,0.281,3.286,0.844
		C499.579,574.515,499.98,575.297,499.98,576.299z"/>
</g>
<g>
	<rect x="478.106" y="642.491" fill="none" width="35.271" height="30.957"/>
	<path d="M500.43,650.057c0,2.341-0.383,4.073-1.15,5.197c-0.767,1.124-1.947,1.687-3.542,1.687c-1.546,0-2.711-0.581-3.497-1.742
		c-0.785-1.16-1.178-2.874-1.178-5.142c0-2.364,0.382-4.107,1.146-5.229c0.764-1.121,1.94-1.683,3.529-1.683
		c1.546,0,2.715,0.587,3.506,1.76C500.034,646.079,500.43,647.796,500.43,650.057z M493.876,650.057
		c0,1.644,0.142,2.821,0.426,3.533s0.762,1.068,1.434,1.068c0.66,0,1.137-0.36,1.43-1.082c0.293-0.721,0.44-1.894,0.44-3.52
		c0-1.644-0.148-2.824-0.445-3.542c-0.296-0.719-0.771-1.077-1.425-1.077c-0.666,0-1.143,0.358-1.43,1.077
		C494.02,647.232,493.876,648.413,493.876,650.057z"/>
</g>
<g>
	<rect x="478.106" y="710.846" fill="none" width="35.271" height="30.956"/>
	<path d="M498.138,725.111h-2.832v-7.754l0.027-1.274l0.046-1.393c-0.471,0.471-0.797,0.778-0.98,0.926l-1.54,1.237l-1.366-1.705
		l4.317-3.438h2.328V725.111z"/>
</g>
<g>
	<rect x="83.74" y="377.191" fill="none" width="75.049" height="60.467"/>
	<path d="M109.448,389.168l-2.708-8.826h-0.069c0.097,1.795,0.146,2.993,0.146,3.594v5.232h-2.131v-11.25h3.247l2.663,8.603h0.046
		l2.824-8.603h3.248v11.25h-2.224v-5.325c0-0.251,0.004-0.541,0.012-0.869c0.008-0.329,0.042-1.201,0.104-2.617h-0.069l-2.901,8.811
		H109.448z"/>
	<path d="M124.823,389.168l-0.454-1.169h-0.062c-0.395,0.497-0.802,0.843-1.22,1.034c-0.418,0.193-0.963,0.289-1.635,0.289
		c-0.826,0-1.476-0.236-1.951-0.708s-0.712-1.144-0.712-2.017c0-0.912,0.319-1.586,0.958-2.02c0.639-0.433,1.602-0.673,2.89-0.719
		l1.493-0.046v-0.377c0-0.872-0.446-1.308-1.339-1.308c-0.688,0-1.495,0.208-2.424,0.624l-0.777-1.585
		c0.99-0.518,2.088-0.777,3.293-0.777c1.154,0,2.04,0.251,2.655,0.754c0.616,0.503,0.924,1.267,0.924,2.293v5.732H124.823z
		 M124.13,385.183l-0.908,0.03c-0.683,0.021-1.19,0.145-1.524,0.369c-0.333,0.227-0.5,0.57-0.5,1.031
		c0,0.662,0.379,0.993,1.139,0.993c0.544,0,0.979-0.157,1.305-0.47c0.326-0.312,0.488-0.729,0.488-1.246V385.183z"/>
	<path d="M134.881,386.613c0,0.883-0.307,1.555-0.919,2.017c-0.613,0.462-1.53,0.692-2.751,0.692c-0.626,0-1.16-0.042-1.601-0.127
		c-0.441-0.084-0.854-0.209-1.239-0.373v-1.939c0.436,0.205,0.927,0.377,1.474,0.516s1.027,0.208,1.443,0.208
		c0.852,0,1.277-0.246,1.277-0.739c0-0.184-0.056-0.334-0.169-0.449c-0.113-0.115-0.308-0.246-0.585-0.393s-0.646-0.316-1.108-0.512
		c-0.662-0.277-1.148-0.534-1.458-0.77c-0.311-0.236-0.536-0.506-0.677-0.812s-0.211-0.681-0.211-1.127
		c0-0.764,0.296-1.355,0.889-1.774c0.593-0.418,1.433-0.627,2.52-0.627c1.036,0,2.044,0.226,3.024,0.677l-0.708,1.693
		c-0.431-0.185-0.833-0.336-1.208-0.454s-0.757-0.177-1.146-0.177c-0.693,0-1.039,0.187-1.039,0.562c0,0.21,0.112,0.393,0.335,0.546
		s0.711,0.382,1.466,0.685c0.672,0.272,1.165,0.526,1.478,0.762c0.312,0.236,0.543,0.507,0.692,0.816
		C134.807,385.821,134.881,386.188,134.881,386.613z"/>
	<path d="M140.336,387.453c0.411,0,0.903-0.09,1.478-0.27v1.746c-0.585,0.262-1.303,0.393-2.155,0.393
		c-0.938,0-1.622-0.237-2.05-0.712c-0.429-0.474-0.643-1.187-0.643-2.136v-4.147h-1.124v-0.993l1.292-0.785l0.677-1.816h1.5v1.832
		h2.409v1.762h-2.409v4.147c0,0.334,0.094,0.58,0.281,0.739C139.781,387.373,140.029,387.453,140.336,387.453z"/>
	<path d="M147.447,389.322c-1.385,0-2.468-0.382-3.248-1.146c-0.78-0.764-1.169-1.847-1.169-3.247c0-1.442,0.36-2.556,1.081-3.344
		s1.717-1.181,2.99-1.181c1.216,0,2.162,0.346,2.839,1.039c0.677,0.693,1.016,1.649,1.016,2.871v1.138h-5.548
		c0.025,0.668,0.223,1.188,0.592,1.562c0.37,0.375,0.888,0.562,1.554,0.562c0.519,0,1.008-0.055,1.47-0.162
		c0.461-0.107,0.944-0.279,1.446-0.516v1.816c-0.41,0.205-0.849,0.357-1.316,0.457C148.688,389.272,148.119,389.322,147.447,389.322
		z M147.116,382.074c-0.498,0-0.888,0.158-1.169,0.473c-0.282,0.315-0.444,0.763-0.485,1.343h3.293
		c-0.01-0.58-0.162-1.027-0.454-1.343S147.613,382.074,147.116,382.074z"/>
	<path d="M157.666,380.404c0.318,0,0.583,0.023,0.793,0.069l-0.177,2.201c-0.19-0.051-0.42-0.077-0.692-0.077
		c-0.749,0-1.333,0.192-1.75,0.577c-0.418,0.385-0.627,0.923-0.627,1.616v4.378h-2.347v-8.603h1.777l0.346,1.447h0.116
		c0.267-0.482,0.627-0.871,1.081-1.166S157.132,380.404,157.666,380.404z"/>
	<path d="M132.68,408.08h-2.708l-2.947-4.74l-1.008,0.723v4.018h-2.385v-11.25h2.385v5.146l0.939-1.322l3.047-3.824h2.647
		l-3.924,4.979L132.68,408.08z"/>
	<path d="M137.805,408.234c-1.385,0-2.468-0.383-3.248-1.146c-0.78-0.766-1.169-1.848-1.169-3.248c0-1.441,0.36-2.557,1.081-3.344
		s1.717-1.182,2.99-1.182c1.216,0,2.162,0.348,2.839,1.039c0.677,0.693,1.016,1.65,1.016,2.871v1.139h-5.548
		c0.025,0.666,0.223,1.188,0.592,1.562c0.37,0.373,0.888,0.561,1.554,0.561c0.519,0,1.008-0.053,1.47-0.162
		c0.461-0.107,0.944-0.279,1.446-0.516v1.816c-0.41,0.205-0.849,0.359-1.316,0.459S138.477,408.234,137.805,408.234z
		 M137.474,400.984c-0.498,0-0.888,0.158-1.169,0.473c-0.282,0.316-0.444,0.764-0.485,1.344h3.293
		c-0.01-0.58-0.162-1.027-0.454-1.344C138.366,401.143,137.971,400.984,137.474,400.984z"/>
	<path d="M141.991,399.477h2.57l1.624,4.84c0.139,0.422,0.233,0.918,0.285,1.492h0.046c0.056-0.527,0.167-1.025,0.331-1.492
		l1.593-4.84h2.517l-3.64,9.703c-0.333,0.898-0.81,1.57-1.428,2.016c-0.618,0.447-1.34,0.67-2.166,0.67
		c-0.405,0-0.803-0.043-1.193-0.131v-1.861c0.282,0.066,0.59,0.1,0.923,0.1c0.416,0,0.778-0.127,1.089-0.381s0.553-0.637,0.728-1.15
		l0.138-0.424L141.991,399.477z"/>
	<path d="M158.189,405.525c0,0.883-0.307,1.555-0.919,2.016c-0.613,0.461-1.53,0.693-2.751,0.693c-0.626,0-1.16-0.043-1.601-0.127
		c-0.441-0.086-0.854-0.209-1.239-0.375v-1.938c0.436,0.205,0.927,0.377,1.474,0.516c0.546,0.137,1.027,0.207,1.443,0.207
		c0.852,0,1.277-0.246,1.277-0.738c0-0.186-0.056-0.336-0.169-0.451c-0.113-0.115-0.308-0.246-0.585-0.393s-0.646-0.316-1.108-0.512
		c-0.662-0.277-1.148-0.533-1.458-0.77c-0.311-0.234-0.536-0.506-0.677-0.811c-0.141-0.307-0.211-0.682-0.211-1.129
		c0-0.764,0.296-1.355,0.889-1.773c0.593-0.418,1.433-0.627,2.52-0.627c1.036,0,2.044,0.227,3.024,0.678l-0.708,1.693
		c-0.431-0.186-0.833-0.336-1.208-0.455c-0.375-0.117-0.757-0.176-1.146-0.176c-0.693,0-1.039,0.188-1.039,0.561
		c0,0.211,0.112,0.393,0.335,0.547s0.711,0.383,1.466,0.686c0.672,0.271,1.165,0.525,1.478,0.762
		c0.312,0.236,0.543,0.508,0.692,0.814C158.115,404.732,158.189,405.1,158.189,405.525z"/>
</g>
<g>
	<rect x="478.106" y="363.7" fill="none" width="35.271" height="30.953"/>
	<path d="M500.43,371.266c0,2.341-0.383,4.073-1.15,5.197c-0.767,1.124-1.947,1.687-3.542,1.687c-1.546,0-2.711-0.581-3.497-1.742
		c-0.785-1.16-1.178-2.874-1.178-5.142c0-2.365,0.382-4.107,1.146-5.229c0.764-1.121,1.94-1.682,3.529-1.682
		c1.546,0,2.715,0.586,3.506,1.76C500.034,367.288,500.43,369.005,500.43,371.266z M493.876,371.266
		c0,1.644,0.142,2.821,0.426,3.533s0.762,1.068,1.434,1.068c0.66,0,1.137-0.36,1.43-1.082c0.293-0.721,0.44-1.894,0.44-3.52
		c0-1.644-0.148-2.824-0.445-3.542c-0.296-0.718-0.771-1.077-1.425-1.077c-0.666,0-1.143,0.359-1.43,1.077
		C494.02,368.441,493.876,369.622,493.876,371.266z"/>
</g>
<g>
	<rect x="478.106" y="433.115" fill="none" width="35.271" height="30.956"/>
	<path d="M498.138,447.381h-2.832v-7.754l0.027-1.274l0.046-1.393c-0.471,0.471-0.797,0.778-0.98,0.926l-1.54,1.237l-1.366-1.705
		l4.317-3.438h2.328V447.381z"/>
</g>
<g>
	<rect x="478.106" y="502.906" fill="none" width="35.271" height="30.957"/>
	<path d="M500.503,517.173h-9.367v-1.971l3.364-3.4c0.996-1.021,1.647-1.728,1.952-2.122c0.306-0.394,0.526-0.759,0.66-1.095
		s0.202-0.685,0.202-1.045c0-0.538-0.148-0.938-0.444-1.201c-0.297-0.263-0.692-0.394-1.187-0.394c-0.52,0-1.023,0.119-1.513,0.357
		c-0.489,0.238-0.999,0.577-1.53,1.018l-1.54-1.824c0.66-0.562,1.207-0.959,1.641-1.191s0.908-0.411,1.421-0.536
		c0.513-0.126,1.087-0.188,1.723-0.188c0.837,0,1.576,0.153,2.218,0.458c0.642,0.306,1.14,0.733,1.494,1.283
		c0.354,0.551,0.532,1.18,0.532,1.889c0,0.617-0.109,1.196-0.326,1.736c-0.217,0.541-0.553,1.096-1.008,1.664
		c-0.456,0.568-1.257,1.378-2.406,2.429l-1.723,1.622v0.129h5.838V517.173z"/>
</g>
<g>
	<g>
		<line fill="none" stroke="#000000" stroke-miterlimit="10" stroke-dasharray="7,7" x1="574.5" y1="454" x2="574.5" y2="586"/>
		<g>
			<polygon points="574.539,593.519 569.963,582.319 574.539,584.977 579.114,582.319 			"/>
		</g>
	</g>
</g>
<g>
	<g>
		<line fill="none" stroke="#000000" stroke-miterlimit="10" stroke-dasharray="7,7" x1="574.5" y1="663" x2="574.5" y2="730"/>
		<g>
			<polygon points="574.539,737.604 569.963,726.405 574.539,729.062 579.114,726.405 			"/>
		</g>
	</g>
</g>
<g>
	<rect x="590.597" y="494.865" fill="none" width="142.493" height="77.996"/>
	<path d="M600.608,508.545h-1.591l-4.043-10.749h-0.053c-0.188,1.295-0.404,2.52-0.65,3.674l-1.512,7.075h-1.424l2.716-12.85h1.582
		l4.034,10.723h0.053c0.176-1.312,0.387-2.499,0.633-3.56l1.529-7.163h1.441L600.608,508.545z"/>
	<path d="M607.56,508.721c-1.078,0-1.925-0.319-2.54-0.958s-0.923-1.523-0.923-2.654c0-1.102,0.218-2.157,0.655-3.169
		c0.437-1.01,1.015-1.797,1.736-2.359s1.515-0.844,2.382-0.844c0.896,0,1.57,0.195,2.021,0.584c0.451,0.391,0.677,0.934,0.677,1.631
		c0,1.055-0.486,1.883-1.459,2.482c-0.973,0.602-2.364,0.901-4.175,0.901h-0.29l-0.035,0.703c0,0.768,0.18,1.366,0.541,1.798
		c0.36,0.43,0.918,0.646,1.674,0.646c0.369,0,0.749-0.053,1.138-0.158s0.875-0.299,1.455-0.58v1.283
		c-0.551,0.258-1.037,0.438-1.459,0.54C608.536,508.67,608.07,508.721,607.56,508.721z M608.782,499.993
		c-0.604,0-1.17,0.275-1.701,0.826s-0.936,1.315-1.217,2.294h0.105c1.336,0,2.36-0.174,3.072-0.523
		c0.712-0.348,1.068-0.854,1.068-1.516c0-0.311-0.107-0.568-0.321-0.773S609.239,499.993,608.782,499.993z"/>
	<path d="M619.417,508.545l-0.281-5.291c-0.023-0.551-0.035-1.055-0.035-1.512v-1.371h-0.079l-0.439,1.037l-0.729,1.661
		l-2.558,5.476h-1.775l-0.378-9.633h1.441l0.158,5.221v0.773c0,0.861-0.023,1.649-0.07,2.364h0.053
		c0.275-0.727,0.677-1.67,1.204-2.83l2.593-5.528h1.6l0.325,5.221c0.035,0.984,0.053,1.752,0.053,2.303v0.466l-0.018,0.369h0.053
		c0.164-0.504,0.407-1.144,0.729-1.921c0.322-0.775,1.269-2.922,2.839-6.438h1.564l-4.447,9.633H619.417z"/>
	<path d="M633.075,503.201l-1.134,5.344h-1.494l2.716-12.85h2.812c2.613,0,3.92,1.072,3.92,3.217c0,2.039-1.078,3.354-3.234,3.946
		l2.101,5.687h-1.635l-1.837-5.344H633.075z M634.367,497.005c-0.598,2.895-0.938,4.532-1.02,4.913h1.477
		c1.131,0,2.001-0.249,2.61-0.747s0.914-1.213,0.914-2.145c0-0.709-0.198-1.224-0.593-1.542c-0.396-0.32-1.039-0.479-1.929-0.479
		H634.367z"/>
	<path d="M644.254,508.721c-1.078,0-1.925-0.319-2.54-0.958s-0.923-1.523-0.923-2.654c0-1.102,0.218-2.157,0.655-3.169
		c0.437-1.01,1.015-1.797,1.736-2.359s1.515-0.844,2.382-0.844c0.896,0,1.57,0.195,2.021,0.584c0.451,0.391,0.677,0.934,0.677,1.631
		c0,1.055-0.486,1.883-1.459,2.482c-0.973,0.602-2.364,0.901-4.175,0.901h-0.29l-0.035,0.703c0,0.768,0.18,1.366,0.541,1.798
		c0.36,0.43,0.918,0.646,1.674,0.646c0.369,0,0.749-0.053,1.138-0.158s0.875-0.299,1.455-0.58v1.283
		c-0.551,0.258-1.037,0.438-1.459,0.54C645.23,508.67,644.764,508.721,644.254,508.721z M645.476,499.993
		c-0.604,0-1.17,0.275-1.701,0.826s-0.936,1.315-1.217,2.294h0.105c1.336,0,2.36-0.174,3.072-0.523
		c0.712-0.348,1.068-0.854,1.068-1.516c0-0.311-0.107-0.568-0.321-0.773S645.933,499.993,645.476,499.993z"/>
	<path d="M653.254,508.721c-1.137,0-2.019-0.313-2.646-0.94s-0.94-1.512-0.94-2.654c0-1.172,0.217-2.253,0.65-3.243
		s1.033-1.762,1.797-2.316c0.765-0.553,1.625-0.83,2.58-0.83c0.803,0,1.588,0.149,2.355,0.448l-0.413,1.239
		c-0.703-0.299-1.345-0.448-1.925-0.448c-0.656,0-1.255,0.224-1.797,0.673c-0.542,0.447-0.967,1.072-1.274,1.871
		c-0.308,0.801-0.461,1.669-0.461,2.606c0,0.75,0.195,1.333,0.584,1.749s0.927,0.624,1.613,0.624c0.422,0,0.82-0.059,1.195-0.176
		s0.744-0.255,1.107-0.413v1.257C654.954,508.536,654.145,508.721,653.254,508.721z"/>
	<path d="M661.235,508.721c-1.078,0-1.925-0.319-2.54-0.958s-0.923-1.523-0.923-2.654c0-1.102,0.218-2.157,0.655-3.169
		c0.437-1.01,1.015-1.797,1.736-2.359s1.515-0.844,2.382-0.844c0.896,0,1.57,0.195,2.021,0.584c0.451,0.391,0.677,0.934,0.677,1.631
		c0,1.055-0.486,1.883-1.459,2.482c-0.973,0.602-2.364,0.901-4.175,0.901h-0.29l-0.035,0.703c0,0.768,0.18,1.366,0.541,1.798
		c0.36,0.43,0.918,0.646,1.674,0.646c0.369,0,0.749-0.053,1.138-0.158s0.875-0.299,1.455-0.58v1.283
		c-0.551,0.258-1.037,0.438-1.459,0.54C662.21,508.67,661.745,508.721,661.235,508.721z M662.457,499.993
		c-0.604,0-1.17,0.275-1.701,0.826s-0.936,1.315-1.217,2.294h0.105c1.336,0,2.36-0.174,3.072-0.523
		c0.712-0.348,1.068-0.854,1.068-1.516c0-0.311-0.107-0.568-0.321-0.773S662.914,499.993,662.457,499.993z"/>
	<path d="M667.783,508.545h-1.477l2.057-9.633h1.477L667.783,508.545z M668.776,496.451c0-0.328,0.094-0.596,0.281-0.805
		c0.188-0.207,0.431-0.312,0.729-0.312c0.516,0,0.773,0.264,0.773,0.791c0,0.322-0.098,0.595-0.294,0.817s-0.423,0.334-0.681,0.334
		c-0.234,0-0.428-0.072-0.58-0.215C668.852,496.918,668.776,496.715,668.776,496.451z"/>
	<path d="M672.318,508.545l-1.099-9.633h1.477l0.562,5.388c0.141,1.512,0.211,2.572,0.211,3.182h0.053
		c0.744-1.611,1.269-2.698,1.573-3.261l2.856-5.309h1.564l-5.194,9.633H672.318z"/>
	<path d="M680.667,508.545h-1.477l2.057-9.633h1.477L680.667,508.545z M681.661,496.451c0-0.328,0.094-0.596,0.281-0.805
		c0.188-0.207,0.431-0.312,0.729-0.312c0.516,0,0.773,0.264,0.773,0.791c0,0.322-0.098,0.595-0.294,0.817s-0.423,0.334-0.681,0.334
		c-0.234,0-0.428-0.072-0.58-0.215C681.737,496.918,681.661,496.715,681.661,496.451z"/>
	<path d="M689.65,508.545l1.301-6.082c0.117-0.609,0.176-1.031,0.176-1.266c0-0.369-0.104-0.665-0.312-0.888
		s-0.541-0.334-0.998-0.334c-0.521,0-1.029,0.176-1.524,0.527s-0.932,0.853-1.31,1.503s-0.664,1.438-0.857,2.364l-0.887,4.175
		h-1.477l2.057-9.633h1.221l-0.193,1.784h0.088c0.562-0.715,1.106-1.22,1.631-1.517c0.524-0.295,1.068-0.443,1.631-0.443
		c0.744,0,1.331,0.203,1.762,0.611c0.431,0.406,0.646,0.977,0.646,1.709c0,0.463-0.068,0.99-0.203,1.582l-1.256,5.906H689.65z"/>
	<path d="M703.299,498.912l-0.219,0.94l-1.855,0.211c0.24,0.363,0.361,0.826,0.361,1.389c0,1.119-0.342,2.011-1.024,2.677
		c-0.683,0.664-1.595,0.997-2.737,0.997c-0.322,0-0.568-0.023-0.738-0.07c-0.814,0.311-1.223,0.694-1.223,1.151
		c0,0.24,0.098,0.4,0.291,0.479c0.193,0.08,0.475,0.143,0.844,0.189l1.027,0.123c1.061,0.129,1.83,0.387,2.308,0.773
		s0.716,0.955,0.716,1.705c0,1.078-0.428,1.913-1.283,2.505s-2.059,0.888-3.611,0.888c-1.137,0-2.027-0.215-2.672-0.646
		c-0.645-0.43-0.967-1.038-0.967-1.823c0-0.615,0.211-1.148,0.633-1.6s1.104-0.835,2.047-1.151c-0.457-0.24-0.686-0.595-0.686-1.063
		c0-0.404,0.15-0.751,0.449-1.042c0.299-0.289,0.715-0.561,1.248-0.812c-0.369-0.188-0.672-0.465-0.906-0.83
		c-0.234-0.367-0.352-0.793-0.352-1.279c0-1.137,0.351-2.068,1.051-2.795s1.596-1.09,2.686-1.09c0.457,0,0.908,0.059,1.354,0.176
		H703.299z M693.939,510.259c0,0.451,0.189,0.809,0.57,1.072s0.947,0.396,1.697,0.396c1.066,0,1.899-0.186,2.5-0.559
		c0.601-0.371,0.9-0.897,0.9-1.577c0-0.363-0.158-0.65-0.475-0.861s-0.855-0.357-1.617-0.439l-1.396-0.141
		c-0.703,0.146-1.242,0.404-1.617,0.773S693.939,509.737,693.939,510.259z M696.383,502.568c0,0.498,0.131,0.877,0.395,1.139
		c0.264,0.26,0.631,0.391,1.1,0.391c0.463,0,0.867-0.123,1.213-0.369s0.61-0.584,0.795-1.016c0.185-0.43,0.277-0.897,0.277-1.401
		c0-0.48-0.129-0.847-0.387-1.099s-0.627-0.378-1.107-0.378c-0.457,0-0.857,0.118-1.2,0.356c-0.343,0.236-0.609,0.568-0.8,0.992
		C696.478,501.609,696.383,502.07,696.383,502.568z"/>
	<path d="M597.743,526.059h-4.359l-2.153,4.086h-1.661l7.022-12.85h1.529l1.617,12.85h-1.494L597.743,526.059z M597.584,524.688
		l-0.308-2.629c-0.141-1.049-0.226-2.074-0.255-3.076c-0.217,0.516-0.453,1.029-0.708,1.539s-0.986,1.898-2.193,4.166H597.584z"/>
	<path d="M606.207,520.354c1.137,0,1.96,0.557,2.47,1.67h0.088c0.1-0.908,0.231-1.711,0.396-2.408l0.686-3.146h1.459l-2.9,13.676
		h-1.222l0.193-1.836h-0.07c-0.592,0.732-1.146,1.25-1.661,1.555s-1.049,0.457-1.6,0.457c-0.814,0-1.45-0.287-1.907-0.861
		s-0.686-1.371-0.686-2.391c0-1.254,0.211-2.402,0.633-3.445s0.992-1.848,1.709-2.416S605.316,520.354,606.207,520.354z
		 M604.537,529.1c0.551,0,1.119-0.274,1.705-0.822s1.05-1.248,1.393-2.101s0.514-1.722,0.514-2.606c0-0.65-0.158-1.145-0.475-1.484
		s-0.776-0.51-1.38-0.51c-0.592,0-1.141,0.241-1.648,0.725s-0.914,1.163-1.222,2.039s-0.461,1.797-0.461,2.764
		C602.963,528.434,603.488,529.1,604.537,529.1z"/>
	<path d="M616.595,520.354c1.137,0,1.96,0.557,2.47,1.67h0.088c0.1-0.908,0.231-1.711,0.396-2.408l0.686-3.146h1.459l-2.9,13.676
		h-1.222l0.193-1.836h-0.07c-0.592,0.732-1.146,1.25-1.661,1.555s-1.049,0.457-1.6,0.457c-0.814,0-1.45-0.287-1.907-0.861
		s-0.686-1.371-0.686-2.391c0-1.254,0.211-2.402,0.633-3.445s0.992-1.848,1.709-2.416S615.705,520.354,616.595,520.354z
		 M614.925,529.1c0.551,0,1.119-0.274,1.705-0.822s1.05-1.248,1.393-2.101s0.514-1.722,0.514-2.606c0-0.65-0.158-1.145-0.475-1.484
		s-0.776-0.51-1.38-0.51c-0.592,0-1.141,0.241-1.648,0.725s-0.914,1.163-1.222,2.039s-0.461,1.797-0.461,2.764
		C613.352,528.434,613.876,529.1,614.925,529.1z"/>
	<path d="M627.977,520.336c0.404,0,0.756,0.041,1.055,0.123l-0.316,1.318c-0.311-0.076-0.618-0.113-0.923-0.113
		c-0.533,0-1.033,0.176-1.499,0.527s-0.873,0.839-1.222,1.463s-0.605,1.316-0.769,2.078l-0.94,4.412h-1.477l2.057-9.633h1.222
		l-0.193,1.785h0.088c0.422-0.557,0.771-0.957,1.046-1.2s0.564-0.431,0.866-0.562S627.608,520.336,627.977,520.336z"/>
	<path d="M632.82,530.32c-1.078,0-1.925-0.318-2.54-0.957s-0.923-1.523-0.923-2.654c0-1.102,0.218-2.158,0.655-3.169
		s1.015-1.798,1.736-2.36s1.515-0.844,2.382-0.844c0.896,0,1.57,0.195,2.021,0.585s0.677,0.933,0.677,1.63
		c0,1.055-0.486,1.883-1.459,2.483s-2.364,0.901-4.175,0.901h-0.29l-0.035,0.703c0,0.768,0.18,1.366,0.541,1.797
		s0.918,0.646,1.674,0.646c0.369,0,0.749-0.053,1.138-0.158s0.875-0.299,1.455-0.58v1.283c-0.551,0.258-1.037,0.438-1.459,0.54
		S633.33,530.32,632.82,530.32z M634.042,521.594c-0.604,0-1.17,0.275-1.701,0.826s-0.936,1.314-1.217,2.293h0.105
		c1.336,0,2.36-0.174,3.072-0.522s1.068-0.854,1.068-1.517c0-0.311-0.107-0.568-0.321-0.773S634.499,521.594,634.042,521.594z"/>
	<path d="M643.833,527.412c0,0.914-0.324,1.627-0.971,2.14s-1.56,0.769-2.738,0.769c-0.99,0-1.884-0.201-2.681-0.605v-1.389
		c0.41,0.246,0.853,0.436,1.327,0.57s0.914,0.203,1.318,0.203c0.738,0,1.295-0.146,1.67-0.439s0.562-0.668,0.562-1.125
		c0-0.334-0.103-0.615-0.308-0.844s-0.647-0.543-1.327-0.941c-0.762-0.428-1.301-0.846-1.617-1.256s-0.475-0.896-0.475-1.459
		c0-0.809,0.296-1.461,0.888-1.956s1.371-0.743,2.338-0.743c1.002,0,1.969,0.217,2.9,0.65l-0.475,1.205l-0.492-0.221
		c-0.592-0.252-1.236-0.377-1.934-0.377c-0.545,0-0.973,0.127-1.283,0.382s-0.466,0.585-0.466,0.989
		c0,0.328,0.104,0.609,0.312,0.844s0.637,0.535,1.288,0.904c0.627,0.352,1.077,0.654,1.349,0.906s0.476,0.522,0.611,0.812
		S643.833,527.049,643.833,527.412z"/>
	<path d="M651.541,527.412c0,0.914-0.324,1.627-0.971,2.14s-1.56,0.769-2.738,0.769c-0.99,0-1.884-0.201-2.681-0.605v-1.389
		c0.41,0.246,0.853,0.436,1.327,0.57s0.914,0.203,1.318,0.203c0.738,0,1.295-0.146,1.67-0.439s0.562-0.668,0.562-1.125
		c0-0.334-0.103-0.615-0.308-0.844s-0.647-0.543-1.327-0.941c-0.762-0.428-1.301-0.846-1.617-1.256s-0.475-0.896-0.475-1.459
		c0-0.809,0.296-1.461,0.888-1.956s1.371-0.743,2.338-0.743c1.002,0,1.969,0.217,2.9,0.65l-0.475,1.205l-0.492-0.221
		c-0.592-0.252-1.236-0.377-1.934-0.377c-0.545,0-0.973,0.127-1.283,0.382s-0.466,0.585-0.466,0.989
		c0,0.328,0.104,0.609,0.312,0.844s0.637,0.535,1.288,0.904c0.627,0.352,1.077,0.654,1.349,0.906s0.476,0.522,0.611,0.812
		S651.541,527.049,651.541,527.412z"/>
	<path d="M657.113,530.32c-1.078,0-1.925-0.318-2.54-0.957s-0.923-1.523-0.923-2.654c0-1.102,0.218-2.158,0.655-3.169
		s1.015-1.798,1.736-2.36s1.515-0.844,2.382-0.844c0.896,0,1.57,0.195,2.021,0.585s0.677,0.933,0.677,1.63
		c0,1.055-0.486,1.883-1.459,2.483s-2.364,0.901-4.175,0.901h-0.29l-0.035,0.703c0,0.768,0.18,1.366,0.541,1.797
		s0.918,0.646,1.674,0.646c0.369,0,0.749-0.053,1.138-0.158s0.875-0.299,1.455-0.58v1.283c-0.551,0.258-1.037,0.438-1.459,0.54
		S657.623,530.32,657.113,530.32z M658.334,521.594c-0.604,0-1.17,0.275-1.701,0.826s-0.936,1.314-1.217,2.293h0.105
		c1.336,0,2.36-0.174,3.072-0.522s1.068-0.854,1.068-1.517c0-0.311-0.107-0.568-0.321-0.773S658.792,521.594,658.334,521.594z"/>
	<path d="M668.125,527.412c0,0.914-0.324,1.627-0.971,2.14s-1.56,0.769-2.738,0.769c-0.99,0-1.884-0.201-2.681-0.605v-1.389
		c0.41,0.246,0.853,0.436,1.327,0.57s0.914,0.203,1.318,0.203c0.738,0,1.295-0.146,1.67-0.439s0.562-0.668,0.562-1.125
		c0-0.334-0.103-0.615-0.308-0.844s-0.647-0.543-1.327-0.941c-0.762-0.428-1.301-0.846-1.617-1.256s-0.475-0.896-0.475-1.459
		c0-0.809,0.296-1.461,0.888-1.956s1.371-0.743,2.338-0.743c1.002,0,1.969,0.217,2.9,0.65l-0.475,1.205l-0.492-0.221
		c-0.592-0.252-1.236-0.377-1.934-0.377c-0.545,0-0.973,0.127-1.283,0.382s-0.466,0.585-0.466,0.989
		c0,0.328,0.104,0.609,0.312,0.844s0.637,0.535,1.288,0.904c0.627,0.352,1.077,0.654,1.349,0.906s0.476,0.522,0.611,0.812
		S668.125,527.049,668.125,527.412z"/>
</g>
<g>
	<rect x="590.597" y="681.326" fill="none" width="142.493" height="77.996"/>
	<path d="M600.608,695.006h-1.591l-4.043-10.749h-0.053c-0.188,1.295-0.404,2.52-0.65,3.674l-1.512,7.075h-1.424l2.716-12.85h1.582
		l4.034,10.723h0.053c0.176-1.312,0.387-2.499,0.633-3.56l1.529-7.163h1.441L600.608,695.006z"/>
	<path d="M607.56,695.182c-1.078,0-1.925-0.319-2.54-0.958s-0.923-1.523-0.923-2.654c0-1.102,0.218-2.157,0.655-3.169
		c0.437-1.01,1.015-1.797,1.736-2.359s1.515-0.844,2.382-0.844c0.896,0,1.57,0.195,2.021,0.584c0.451,0.391,0.677,0.934,0.677,1.631
		c0,1.055-0.486,1.883-1.459,2.482c-0.973,0.602-2.364,0.901-4.175,0.901h-0.29l-0.035,0.703c0,0.768,0.18,1.366,0.541,1.798
		c0.36,0.43,0.918,0.646,1.674,0.646c0.369,0,0.749-0.053,1.138-0.158s0.875-0.299,1.455-0.58v1.283
		c-0.551,0.258-1.037,0.438-1.459,0.54C608.536,695.131,608.07,695.182,607.56,695.182z M608.782,686.454
		c-0.604,0-1.17,0.275-1.701,0.826s-0.936,1.315-1.217,2.294h0.105c1.336,0,2.36-0.174,3.072-0.523
		c0.712-0.348,1.068-0.854,1.068-1.516c0-0.311-0.107-0.568-0.321-0.773S609.239,686.454,608.782,686.454z"/>
	<path d="M619.417,695.006l-0.281-5.291c-0.023-0.551-0.035-1.055-0.035-1.512v-1.371h-0.079l-0.439,1.037l-0.729,1.661
		l-2.558,5.476h-1.775l-0.378-9.633h1.441l0.158,5.221v0.773c0,0.861-0.023,1.649-0.07,2.364h0.053
		c0.275-0.727,0.677-1.67,1.204-2.83l2.593-5.528h1.6l0.325,5.221c0.035,0.984,0.053,1.752,0.053,2.303v0.466l-0.018,0.369h0.053
		c0.164-0.504,0.407-1.144,0.729-1.921c0.322-0.775,1.269-2.922,2.839-6.438h1.564l-4.447,9.633H619.417z"/>
	<path d="M637.97,683.308c-1.02,0-1.932,0.284-2.738,0.853s-1.444,1.402-1.916,2.5c-0.472,1.1-0.708,2.296-0.708,3.591
		c0,1.096,0.286,1.97,0.857,2.624c0.571,0.652,1.358,0.979,2.36,0.979c0.814,0,1.758-0.167,2.83-0.501v1.31
		c-0.504,0.182-0.984,0.313-1.441,0.396s-1.008,0.123-1.652,0.123c-1.418,0-2.531-0.438-3.34-1.314
		c-0.809-0.875-1.213-2.069-1.213-3.581c0-1.529,0.309-2.952,0.927-4.267c0.618-1.316,1.449-2.319,2.492-3.011
		s2.224-1.037,3.542-1.037c1.154,0,2.174,0.234,3.059,0.703l-0.606,1.239C639.614,683.51,638.796,683.308,637.97,683.308z"/>
	<path d="M646.627,695.006l1.301-6.082c0.105-0.551,0.158-0.946,0.158-1.187c0-0.867-0.431-1.301-1.292-1.301
		c-0.521,0-1.03,0.173-1.525,0.519s-0.932,0.848-1.31,1.508c-0.378,0.658-0.664,1.454-0.857,2.386l-0.888,4.157h-1.477l2.9-13.676
		h1.477c-0.105,0.48-0.207,0.946-0.303,1.397s-0.196,0.909-0.299,1.376c-0.103,0.465-0.214,0.953-0.334,1.463
		s-0.259,1.063-0.417,1.661h0.097c0.551-0.721,1.094-1.236,1.63-1.547s1.097-0.466,1.683-0.466c0.768,0,1.361,0.211,1.78,0.633
		s0.628,1.02,0.628,1.793c0,0.363-0.067,0.85-0.202,1.459c-0.229,1.131-0.653,3.1-1.274,5.906H646.627z"/>
	<path d="M656.225,685.197c0.539,0,1.02,0.145,1.441,0.436c0.422,0.289,0.75,0.707,0.984,1.252h0.097l0.589-1.512h1.116
		l-2.048,9.633h-1.169l0.229-1.837h-0.07c-1.049,1.342-2.153,2.013-3.313,2.013c-0.814,0-1.453-0.29-1.916-0.87
		s-0.694-1.374-0.694-2.382c0-1.219,0.208-2.35,0.624-3.393s0.99-1.86,1.723-2.452S655.352,685.197,656.225,685.197z
		 M654.555,693.96c0.568,0,1.134-0.271,1.696-0.813c0.562-0.541,1.02-1.248,1.371-2.117c0.352-0.871,0.527-1.742,0.527-2.615
		c0-0.604-0.164-1.084-0.492-1.441s-0.759-0.536-1.292-0.536c-0.609,0-1.176,0.252-1.701,0.756s-0.936,1.187-1.235,2.048
		s-0.448,1.77-0.448,2.725c0,0.668,0.138,1.168,0.413,1.498C653.67,693.795,654.057,693.96,654.555,693.96z"/>
	<path d="M667.185,695.006l1.301-6.082c0.117-0.609,0.176-1.031,0.176-1.266c0-0.369-0.104-0.665-0.312-0.888
		s-0.541-0.334-0.998-0.334c-0.521,0-1.03,0.176-1.525,0.527s-0.932,0.853-1.31,1.503s-0.664,1.438-0.857,2.364l-0.888,4.175h-1.477
		l2.057-9.633h1.222l-0.193,1.784h0.088c0.562-0.715,1.106-1.22,1.63-1.517c0.524-0.295,1.068-0.443,1.63-0.443
		c0.744,0,1.332,0.203,1.762,0.611c0.431,0.406,0.646,0.977,0.646,1.709c0,0.463-0.067,0.99-0.202,1.582l-1.257,5.906H667.185z"/>
	<path d="M680.834,685.373l-0.22,0.94l-1.854,0.211c0.24,0.363,0.36,0.826,0.36,1.389c0,1.119-0.341,2.011-1.024,2.677
		c-0.683,0.664-1.595,0.997-2.738,0.997c-0.322,0-0.568-0.023-0.738-0.07c-0.814,0.311-1.222,0.694-1.222,1.151
		c0,0.24,0.097,0.4,0.29,0.479c0.193,0.08,0.475,0.143,0.844,0.189l1.028,0.123c1.061,0.129,1.83,0.387,2.307,0.773
		s0.716,0.955,0.716,1.705c0,1.078-0.428,1.913-1.283,2.505s-2.06,0.888-3.612,0.888c-1.137,0-2.027-0.215-2.672-0.646
		c-0.645-0.43-0.967-1.038-0.967-1.823c0-0.615,0.211-1.148,0.633-1.6s1.104-0.835,2.048-1.151c-0.457-0.24-0.686-0.595-0.686-1.063
		c0-0.404,0.149-0.751,0.448-1.042c0.299-0.289,0.715-0.561,1.248-0.812c-0.369-0.188-0.671-0.465-0.905-0.83
		c-0.234-0.367-0.352-0.793-0.352-1.279c0-1.137,0.35-2.068,1.05-2.795s1.595-1.09,2.685-1.09c0.457,0,0.908,0.059,1.354,0.176
		H680.834z M671.474,696.72c0,0.451,0.19,0.809,0.571,1.072s0.946,0.396,1.696,0.396c1.066,0,1.9-0.186,2.5-0.559
		c0.601-0.371,0.901-0.897,0.901-1.577c0-0.363-0.158-0.65-0.475-0.861s-0.855-0.357-1.617-0.439l-1.397-0.141
		c-0.703,0.146-1.242,0.404-1.617,0.773S671.474,696.198,671.474,696.72z M673.917,689.029c0,0.498,0.132,0.877,0.396,1.139
		c0.264,0.26,0.63,0.391,1.099,0.391c0.463,0,0.867-0.123,1.213-0.369s0.611-0.584,0.795-1.016c0.185-0.43,0.277-0.897,0.277-1.401
		c0-0.48-0.129-0.847-0.387-1.099s-0.627-0.378-1.107-0.378c-0.457,0-0.857,0.118-1.2,0.356c-0.343,0.236-0.609,0.568-0.8,0.992
		C674.013,688.07,673.917,688.531,673.917,689.029z"/>
	<path d="M684.508,695.182c-1.078,0-1.924-0.319-2.54-0.958s-0.923-1.523-0.923-2.654c0-1.102,0.218-2.157,0.655-3.169
		c0.437-1.01,1.015-1.797,1.736-2.359c0.72-0.562,1.515-0.844,2.382-0.844c0.896,0,1.57,0.195,2.021,0.584
		c0.451,0.391,0.676,0.934,0.676,1.631c0,1.055-0.486,1.883-1.459,2.482c-0.973,0.602-2.363,0.901-4.174,0.901h-0.29l-0.035,0.703
		c0,0.768,0.18,1.366,0.541,1.798c0.36,0.43,0.918,0.646,1.674,0.646c0.369,0,0.749-0.053,1.139-0.158s0.875-0.299,1.455-0.58v1.283
		c-0.551,0.258-1.037,0.438-1.459,0.54C685.484,695.131,685.018,695.182,684.508,695.182z M685.73,686.454
		c-0.604,0-1.171,0.275-1.701,0.826s-0.936,1.315-1.217,2.294h0.105c1.336,0,2.36-0.174,3.072-0.523
		c0.712-0.348,1.067-0.854,1.067-1.516c0-0.311-0.106-0.568-0.32-0.773S686.188,686.454,685.73,686.454z"/>
	<path d="M597.743,712.52h-4.359l-2.153,4.086h-1.661l7.022-12.85h1.529l1.617,12.85h-1.494L597.743,712.52z M597.584,711.148
		l-0.308-2.629c-0.141-1.049-0.226-2.074-0.255-3.076c-0.217,0.516-0.453,1.029-0.708,1.539s-0.986,1.898-2.193,4.166H597.584z"/>
	<path d="M606.207,706.814c1.137,0,1.96,0.557,2.47,1.67h0.088c0.1-0.908,0.231-1.711,0.396-2.408l0.686-3.146h1.459l-2.9,13.676
		h-1.222l0.193-1.836h-0.07c-0.592,0.732-1.146,1.25-1.661,1.555s-1.049,0.457-1.6,0.457c-0.814,0-1.45-0.287-1.907-0.861
		s-0.686-1.371-0.686-2.391c0-1.254,0.211-2.402,0.633-3.445s0.992-1.848,1.709-2.416S605.316,706.814,606.207,706.814z
		 M604.537,715.561c0.551,0,1.119-0.274,1.705-0.822s1.05-1.248,1.393-2.101s0.514-1.722,0.514-2.606
		c0-0.65-0.158-1.145-0.475-1.484s-0.776-0.51-1.38-0.51c-0.592,0-1.141,0.241-1.648,0.725s-0.914,1.163-1.222,2.039
		s-0.461,1.797-0.461,2.764C602.963,714.895,603.488,715.561,604.537,715.561z"/>
	<path d="M616.595,706.814c1.137,0,1.96,0.557,2.47,1.67h0.088c0.1-0.908,0.231-1.711,0.396-2.408l0.686-3.146h1.459l-2.9,13.676
		h-1.222l0.193-1.836h-0.07c-0.592,0.732-1.146,1.25-1.661,1.555s-1.049,0.457-1.6,0.457c-0.814,0-1.45-0.287-1.907-0.861
		s-0.686-1.371-0.686-2.391c0-1.254,0.211-2.402,0.633-3.445s0.992-1.848,1.709-2.416S615.705,706.814,616.595,706.814z
		 M614.925,715.561c0.551,0,1.119-0.274,1.705-0.822s1.05-1.248,1.393-2.101s0.514-1.722,0.514-2.606
		c0-0.65-0.158-1.145-0.475-1.484s-0.776-0.51-1.38-0.51c-0.592,0-1.141,0.241-1.648,0.725s-0.914,1.163-1.222,2.039
		s-0.461,1.797-0.461,2.764C613.352,714.895,613.876,715.561,614.925,715.561z"/>
	<path d="M627.977,706.797c0.404,0,0.756,0.041,1.055,0.123l-0.316,1.318c-0.311-0.076-0.618-0.113-0.923-0.113
		c-0.533,0-1.033,0.176-1.499,0.527s-0.873,0.839-1.222,1.463s-0.605,1.316-0.769,2.078l-0.94,4.412h-1.477l2.057-9.633h1.222
		l-0.193,1.785h0.088c0.422-0.557,0.771-0.957,1.046-1.2s0.564-0.431,0.866-0.562S627.608,706.797,627.977,706.797z"/>
	<path d="M632.82,716.781c-1.078,0-1.925-0.318-2.54-0.957s-0.923-1.523-0.923-2.654c0-1.102,0.218-2.158,0.655-3.169
		s1.015-1.798,1.736-2.36s1.515-0.844,2.382-0.844c0.896,0,1.57,0.195,2.021,0.585s0.677,0.933,0.677,1.63
		c0,1.055-0.486,1.883-1.459,2.483s-2.364,0.901-4.175,0.901h-0.29l-0.035,0.703c0,0.768,0.18,1.366,0.541,1.797
		s0.918,0.646,1.674,0.646c0.369,0,0.749-0.053,1.138-0.158s0.875-0.299,1.455-0.58v1.283c-0.551,0.258-1.037,0.438-1.459,0.54
		S633.33,716.781,632.82,716.781z M634.042,708.055c-0.604,0-1.17,0.275-1.701,0.826s-0.936,1.314-1.217,2.293h0.105
		c1.336,0,2.36-0.174,3.072-0.522s1.068-0.854,1.068-1.517c0-0.311-0.107-0.568-0.321-0.773S634.499,708.055,634.042,708.055z"/>
	<path d="M643.833,713.873c0,0.914-0.324,1.627-0.971,2.14s-1.56,0.769-2.738,0.769c-0.99,0-1.884-0.201-2.681-0.605v-1.389
		c0.41,0.246,0.853,0.436,1.327,0.57s0.914,0.203,1.318,0.203c0.738,0,1.295-0.146,1.67-0.439s0.562-0.668,0.562-1.125
		c0-0.334-0.103-0.615-0.308-0.844s-0.647-0.543-1.327-0.941c-0.762-0.428-1.301-0.846-1.617-1.256s-0.475-0.896-0.475-1.459
		c0-0.809,0.296-1.461,0.888-1.956s1.371-0.743,2.338-0.743c1.002,0,1.969,0.217,2.9,0.65l-0.475,1.205l-0.492-0.221
		c-0.592-0.252-1.236-0.377-1.934-0.377c-0.545,0-0.973,0.127-1.283,0.382s-0.466,0.585-0.466,0.989
		c0,0.328,0.104,0.609,0.312,0.844s0.637,0.535,1.288,0.904c0.627,0.352,1.077,0.654,1.349,0.906s0.476,0.522,0.611,0.812
		S643.833,713.51,643.833,713.873z"/>
	<path d="M651.541,713.873c0,0.914-0.324,1.627-0.971,2.14s-1.56,0.769-2.738,0.769c-0.99,0-1.884-0.201-2.681-0.605v-1.389
		c0.41,0.246,0.853,0.436,1.327,0.57s0.914,0.203,1.318,0.203c0.738,0,1.295-0.146,1.67-0.439s0.562-0.668,0.562-1.125
		c0-0.334-0.103-0.615-0.308-0.844s-0.647-0.543-1.327-0.941c-0.762-0.428-1.301-0.846-1.617-1.256s-0.475-0.896-0.475-1.459
		c0-0.809,0.296-1.461,0.888-1.956s1.371-0.743,2.338-0.743c1.002,0,1.969,0.217,2.9,0.65l-0.475,1.205l-0.492-0.221
		c-0.592-0.252-1.236-0.377-1.934-0.377c-0.545,0-0.973,0.127-1.283,0.382s-0.466,0.585-0.466,0.989
		c0,0.328,0.104,0.609,0.312,0.844s0.637,0.535,1.288,0.904c0.627,0.352,1.077,0.654,1.349,0.906s0.476,0.522,0.611,0.812
		S651.541,713.51,651.541,713.873z"/>
	<path d="M657.113,716.781c-1.078,0-1.925-0.318-2.54-0.957s-0.923-1.523-0.923-2.654c0-1.102,0.218-2.158,0.655-3.169
		s1.015-1.798,1.736-2.36s1.515-0.844,2.382-0.844c0.896,0,1.57,0.195,2.021,0.585s0.677,0.933,0.677,1.63
		c0,1.055-0.486,1.883-1.459,2.483s-2.364,0.901-4.175,0.901h-0.29l-0.035,0.703c0,0.768,0.18,1.366,0.541,1.797
		s0.918,0.646,1.674,0.646c0.369,0,0.749-0.053,1.138-0.158s0.875-0.299,1.455-0.58v1.283c-0.551,0.258-1.037,0.438-1.459,0.54
		S657.623,716.781,657.113,716.781z M658.334,708.055c-0.604,0-1.17,0.275-1.701,0.826s-0.936,1.314-1.217,2.293h0.105
		c1.336,0,2.36-0.174,3.072-0.522s1.068-0.854,1.068-1.517c0-0.311-0.107-0.568-0.321-0.773S658.792,708.055,658.334,708.055z"/>
	<path d="M668.125,713.873c0,0.914-0.324,1.627-0.971,2.14s-1.56,0.769-2.738,0.769c-0.99,0-1.884-0.201-2.681-0.605v-1.389
		c0.41,0.246,0.853,0.436,1.327,0.57s0.914,0.203,1.318,0.203c0.738,0,1.295-0.146,1.67-0.439s0.562-0.668,0.562-1.125
		c0-0.334-0.103-0.615-0.308-0.844s-0.647-0.543-1.327-0.941c-0.762-0.428-1.301-0.846-1.617-1.256s-0.475-0.896-0.475-1.459
		c0-0.809,0.296-1.461,0.888-1.956s1.371-0.743,2.338-0.743c1.002,0,1.969,0.217,2.9,0.65l-0.475,1.205l-0.492-0.221
		c-0.592-0.252-1.236-0.377-1.934-0.377c-0.545,0-0.973,0.127-1.283,0.382s-0.466,0.585-0.466,0.989
		c0,0.328,0.104,0.609,0.312,0.844s0.637,0.535,1.288,0.904c0.627,0.352,1.077,0.654,1.349,0.906s0.476,0.522,0.611,0.812
		S668.125,713.51,668.125,713.873z"/>
</g>
<line fill="none" stroke="#2D4E6E" stroke-width="2" stroke-miterlimit="10" x1="181" y1="176" x2="531" y2="176"/>
<line fill="none" stroke="#2D4E6E" stroke-width="2" stroke-miterlimit="10" x1="181" y1="385" x2="531" y2="385"/>
<g>
	<path fill="none" stroke="#2D4E6E" stroke-width="2" stroke-miterlimit="10" d="M531,247h-64.5c-2.75,0-5.5-2.75-5.5-5.5V176"/>
</g>
<g>
	<path fill="none" stroke="#2D4E6E" stroke-width="2" stroke-miterlimit="10" d="M531,455h-64.5c-2.75,0-5.5-2.75-5.5-5.5V384"/>
</g>
<g>
	<path fill="none" stroke="#2D4E6E" stroke-width="2" stroke-miterlimit="10" d="M531,732h-64.5c-2.75,0-5.5-2.75-5.5-5.5V661"/>
</g>
<g>
	<path fill="none" stroke="#2D4E6E" stroke-width="2" stroke-miterlimit="10" d="M531,525h-64.5c-2.75,0-5.5-2.75-5.5-5.5V384"/>
</g>
<g>
	<path fill="none" stroke="#2D4E6E" stroke-width="2" stroke-miterlimit="10" d="M531,594h-64.5c-2.75,0-5.5-2.75-5.5-5.5V453"/>
</g>
<g>
	<path fill="none" stroke="#2D4E6E" stroke-width="2" stroke-miterlimit="10" d="M531,664H396.5c-2.75,0-5.5-2.75-5.5-5.5V384"/>
</g>
<g>
	<path fill="none" stroke="#2D4E6E" stroke-width="2" stroke-miterlimit="10" d="M531,317H396.513c-2.75,0-4.513-2.75-4.513-5.5V176
		"/>
</g>
<line fill="none" stroke="#000000" stroke-miterlimit="10" x1="79" y1="347.5" x2="703" y2="347.5"/>
<g>
</g>
<g>
</g>
<g>
</g>
<g>
</g>
<g>
</g>
<g>
</g>
<g>
</g>
<g>
</g>
<g>
</g>
<g>
</g>
<g>
</g>
<g>
</g>
<g>
</g>
<g>
</g>
<g>
</g>
<g>
</g>
</svg>
