<?xml version="1.0" encoding="utf-8"?>
<!-- Generator: Adobe Illustrator 16.0.4, SVG Export Plug-In . SVG Version: 6.00 Build 0)  -->
<!DOCTYPE svg PUBLIC "-//W3C//DTD SVG 1.1//EN" "http://www.w3.org/Graphics/SVG/1.1/DTD/svg11.dtd">
<svg version="1.1" id="Layer_1" xmlns="http://www.w3.org/2000/svg" xmlns:xlink="http://www.w3.org/1999/xlink" x="0px" y="0px"
	 width="1366px" height="768px" viewBox="0 0 1366 768" enable-background="new 0 0 1366 768" xml:space="preserve">
<rect x="-1" y="1" fill="#FFFFFF" width="1366" height="768"/>
<g>
	<path fill="#FFFFFF" d="M226,290c0,2.75-2.25,5-5,5H9c-2.75,0-5-2.25-5-5v-97c0-2.75,2.25-5,5-5h212c2.75,0,5,2.25,5,5V290z"/>
	<path fill="none" stroke="#2D4E6E" stroke-width="2" stroke-miterlimit="10" d="M226,290c0,2.75-2.25,5-5,5H9c-2.75,0-5-2.25-5-5
		v-97c0-2.75,2.25-5,5-5h212c2.75,0,5,2.25,5,5V290z"/>
</g>
<g>
	<rect x="9.555" y="221.09" fill="none" width="99.891" height="17.25"/>
	<path d="M35.485,221.637h6.016v1.101h-2.386v7.759h2.386v1.094h-6.016v-1.094h2.331v-7.759h-2.331V221.637z"/>
	<path d="M45.021,224.193l0.089,1.094c0.269-0.383,0.599-0.683,0.991-0.898c0.392-0.217,0.83-0.327,1.312-0.332
		c0.387,0,0.739,0.055,1.056,0.164s0.587,0.28,0.81,0.513s0.396,0.527,0.516,0.886c0.121,0.357,0.181,0.782,0.181,1.274v4.696
		h-1.265v-4.669c0-0.328-0.037-0.606-0.109-0.834s-0.181-0.412-0.325-0.554s-0.319-0.244-0.526-0.308s-0.445-0.096-0.714-0.096
		c-0.424,0-0.796,0.106-1.118,0.317c-0.321,0.213-0.578,0.491-0.769,0.838v5.305h-1.265v-7.396H45.021z"/>
	<path d="M58.529,227.974c0,0.528-0.064,1.022-0.191,1.479c-0.127,0.459-0.314,0.856-0.561,1.193s-0.55,0.602-0.913,0.793
		s-0.776,0.287-1.241,0.287c-0.451,0-0.849-0.073-1.193-0.219s-0.639-0.355-0.885-0.629v3.555h-1.265v-10.24h1.155L53.498,225
		c0.246-0.306,0.543-0.539,0.892-0.701c0.349-0.161,0.753-0.242,1.213-0.242c0.474,0,0.893,0.094,1.258,0.28s0.67,0.446,0.916,0.779
		s0.433,0.73,0.561,1.192c0.127,0.463,0.191,0.97,0.191,1.521V227.974z M57.265,227.83c0-0.36-0.04-0.703-0.12-1.029
		c-0.08-0.325-0.203-0.612-0.369-0.861c-0.167-0.248-0.377-0.445-0.632-0.591s-0.561-0.219-0.916-0.219
		c-0.406,0-0.746,0.095-1.022,0.284c-0.276,0.188-0.496,0.432-0.66,0.728v3.562c0.164,0.292,0.383,0.529,0.656,0.715
		c0.273,0.184,0.62,0.276,1.039,0.276c0.351,0,0.654-0.074,0.909-0.222c0.255-0.148,0.465-0.348,0.629-0.599s0.286-0.54,0.366-0.868
		s0.12-0.672,0.12-1.032V227.83z"/>
	<path d="M65.488,230.571c-0.246,0.364-0.554,0.648-0.923,0.851c-0.369,0.203-0.795,0.305-1.278,0.305
		c-0.387,0-0.738-0.061-1.053-0.182c-0.314-0.12-0.583-0.309-0.807-0.563s-0.396-0.58-0.516-0.974
		c-0.121-0.395-0.181-0.867-0.181-1.419v-4.396h1.265v4.409c0,0.401,0.032,0.733,0.096,0.998s0.16,0.476,0.287,0.632
		c0.127,0.158,0.284,0.269,0.468,0.332s0.397,0.096,0.639,0.096c0.515,0,0.931-0.104,1.248-0.314s0.553-0.492,0.708-0.848v-5.305
		h1.271v7.396h-1.148L65.488,230.571z"/>
	<path d="M72.085,222.402v1.791h2.816v0.978h-2.816v4.02c0,0.287,0.037,0.524,0.109,0.711s0.173,0.336,0.301,0.448
		c0.127,0.111,0.274,0.189,0.441,0.235s0.343,0.068,0.53,0.068c0.137,0,0.278-0.008,0.424-0.024
		c0.146-0.016,0.288-0.035,0.427-0.058s0.269-0.047,0.39-0.071c0.121-0.025,0.22-0.047,0.297-0.065l0.178,0.896
		c-0.105,0.063-0.232,0.119-0.383,0.168c-0.15,0.047-0.314,0.088-0.492,0.123c-0.178,0.033-0.366,0.06-0.564,0.078
		s-0.396,0.027-0.591,0.027c-0.328,0-0.635-0.047-0.919-0.141c-0.285-0.093-0.532-0.241-0.742-0.443
		c-0.209-0.203-0.375-0.465-0.496-0.787c-0.121-0.32-0.181-0.709-0.181-1.165v-4.02h-1.941v-0.978h1.941v-1.791H72.085z"/>
	<path d="M82.407,229.628c0-0.15-0.03-0.286-0.089-0.407c-0.059-0.12-0.16-0.23-0.301-0.331s-0.328-0.192-0.561-0.276
		c-0.232-0.085-0.522-0.161-0.868-0.229c-0.424-0.087-0.81-0.191-1.159-0.314s-0.647-0.271-0.896-0.44
		c-0.249-0.172-0.441-0.372-0.578-0.602c-0.137-0.23-0.205-0.498-0.205-0.804c0-0.301,0.071-0.582,0.212-0.845
		c0.141-0.262,0.339-0.49,0.595-0.687s0.56-0.351,0.913-0.465s0.742-0.171,1.166-0.171c0.456,0,0.866,0.06,1.23,0.178
		s0.674,0.282,0.93,0.492s0.452,0.455,0.591,0.734c0.139,0.281,0.208,0.583,0.208,0.906h-1.265c0-0.159-0.041-0.315-0.123-0.469
		c-0.082-0.152-0.196-0.288-0.342-0.406s-0.322-0.214-0.53-0.287s-0.441-0.109-0.701-0.109c-0.269,0-0.505,0.029-0.708,0.089
		s-0.372,0.139-0.506,0.239s-0.236,0.217-0.304,0.349s-0.103,0.269-0.103,0.41c0,0.146,0.027,0.275,0.082,0.39
		s0.149,0.217,0.284,0.308s0.314,0.173,0.54,0.246s0.512,0.144,0.858,0.212c0.456,0.096,0.864,0.206,1.224,0.332
		c0.36,0.125,0.663,0.275,0.909,0.451c0.246,0.175,0.434,0.379,0.564,0.611s0.195,0.501,0.195,0.807
		c0,0.328-0.074,0.627-0.222,0.896s-0.354,0.499-0.619,0.69s-0.581,0.34-0.95,0.444s-0.772,0.157-1.21,0.157
		c-0.501,0-0.948-0.067-1.34-0.201c-0.392-0.135-0.724-0.312-0.995-0.533c-0.271-0.222-0.479-0.478-0.622-0.77
		s-0.215-0.595-0.215-0.909h1.265c0.018,0.26,0.088,0.479,0.208,0.656s0.271,0.321,0.451,0.431s0.379,0.187,0.598,0.232
		s0.435,0.068,0.649,0.068c0.533,0,0.955-0.098,1.265-0.294S82.403,229.951,82.407,229.628z"/>
</g>
<g>
	<rect x="116.214" y="221.09" fill="none" width="99.891" height="17.25"/>
	<path d="M144.418,227.188c-0.004,0.355-0.035,0.715-0.092,1.076c-0.057,0.363-0.145,0.713-0.263,1.05s-0.27,0.651-0.455,0.943
		s-0.404,0.547-0.66,0.766s-0.548,0.391-0.878,0.517c-0.331,0.125-0.701,0.188-1.111,0.188s-0.78-0.062-1.111-0.188
		c-0.331-0.126-0.623-0.298-0.878-0.517s-0.476-0.476-0.663-0.769c-0.187-0.295-0.341-0.61-0.461-0.947s-0.211-0.686-0.27-1.046
		s-0.091-0.718-0.096-1.073v-1.135c0.004-0.355,0.035-0.715,0.092-1.076c0.057-0.363,0.146-0.713,0.267-1.05
		s0.273-0.653,0.458-0.946c0.185-0.295,0.404-0.552,0.66-0.773c0.255-0.221,0.548-0.394,0.878-0.52
		c0.331-0.125,0.701-0.188,1.111-0.188s0.782,0.062,1.114,0.188c0.333,0.126,0.626,0.298,0.882,0.517s0.475,0.476,0.66,0.769
		c0.185,0.295,0.337,0.61,0.458,0.947s0.209,0.688,0.267,1.053s0.088,0.725,0.092,1.08V227.188z M143.167,226.039
		c-0.004-0.237-0.021-0.484-0.048-0.742c-0.027-0.257-0.074-0.512-0.14-0.766c-0.066-0.252-0.154-0.494-0.263-0.725
		c-0.109-0.229-0.246-0.433-0.41-0.607c-0.164-0.176-0.358-0.314-0.581-0.418c-0.223-0.102-0.483-0.153-0.779-0.153
		c-0.292,0-0.549,0.053-0.772,0.157s-0.417,0.245-0.581,0.42c-0.164,0.176-0.301,0.379-0.41,0.609
		c-0.109,0.229-0.197,0.471-0.263,0.725c-0.066,0.252-0.114,0.508-0.144,0.766c-0.03,0.257-0.047,0.502-0.051,0.734v1.148
		c0.004,0.232,0.021,0.479,0.051,0.738s0.079,0.516,0.147,0.77c0.068,0.252,0.157,0.495,0.267,0.728s0.246,0.437,0.41,0.612
		c0.164,0.175,0.358,0.315,0.581,0.42s0.483,0.157,0.779,0.157s0.557-0.053,0.783-0.157s0.419-0.245,0.581-0.42
		c0.162-0.176,0.296-0.379,0.403-0.609c0.107-0.229,0.194-0.471,0.26-0.725c0.066-0.252,0.112-0.509,0.137-0.769
		s0.04-0.508,0.044-0.745V226.039z"/>
	<path d="M151.145,230.571c-0.246,0.364-0.554,0.648-0.923,0.851c-0.369,0.203-0.795,0.305-1.278,0.305
		c-0.387,0-0.738-0.061-1.053-0.182c-0.314-0.12-0.583-0.309-0.807-0.563s-0.396-0.58-0.516-0.974
		c-0.121-0.395-0.181-0.867-0.181-1.419v-4.396h1.265v4.409c0,0.401,0.032,0.733,0.096,0.998s0.16,0.476,0.287,0.632
		c0.127,0.158,0.284,0.269,0.468,0.332s0.397,0.096,0.639,0.096c0.515,0,0.931-0.104,1.248-0.314s0.553-0.492,0.708-0.848v-5.305
		h1.271v7.396h-1.148L151.145,230.571z"/>
	<path d="M157.741,222.402v1.791h2.816v0.978h-2.816v4.02c0,0.287,0.037,0.524,0.109,0.711s0.173,0.336,0.301,0.448
		c0.127,0.111,0.274,0.189,0.441,0.235s0.343,0.068,0.53,0.068c0.137,0,0.278-0.008,0.424-0.024
		c0.146-0.016,0.288-0.035,0.427-0.058s0.269-0.047,0.39-0.071c0.121-0.025,0.22-0.047,0.297-0.065l0.178,0.896
		c-0.105,0.063-0.232,0.119-0.383,0.168c-0.15,0.047-0.314,0.088-0.492,0.123c-0.178,0.033-0.366,0.06-0.564,0.078
		s-0.396,0.027-0.591,0.027c-0.328,0-0.635-0.047-0.919-0.141c-0.285-0.093-0.532-0.241-0.742-0.443
		c-0.209-0.203-0.375-0.465-0.496-0.787c-0.121-0.32-0.181-0.709-0.181-1.165v-4.02h-1.941v-0.978h1.941v-1.791H157.741z"/>
	<path d="M169.39,227.974c0,0.528-0.064,1.022-0.191,1.479c-0.127,0.459-0.314,0.856-0.561,1.193s-0.55,0.602-0.913,0.793
		s-0.776,0.287-1.241,0.287c-0.451,0-0.849-0.073-1.193-0.219s-0.639-0.355-0.885-0.629v3.555h-1.265v-10.24h1.155l0.062,0.807
		c0.246-0.306,0.543-0.539,0.892-0.701c0.349-0.161,0.753-0.242,1.213-0.242c0.474,0,0.893,0.094,1.258,0.28s0.67,0.446,0.916,0.779
		s0.433,0.73,0.561,1.192c0.127,0.463,0.191,0.97,0.191,1.521V227.974z M168.125,227.83c0-0.36-0.04-0.703-0.12-1.029
		c-0.08-0.325-0.203-0.612-0.369-0.861c-0.167-0.248-0.377-0.445-0.632-0.591s-0.561-0.219-0.916-0.219
		c-0.406,0-0.746,0.095-1.022,0.284c-0.276,0.188-0.496,0.432-0.66,0.728v3.562c0.164,0.292,0.383,0.529,0.656,0.715
		c0.273,0.184,0.62,0.276,1.039,0.276c0.351,0,0.654-0.074,0.909-0.222c0.255-0.148,0.465-0.348,0.629-0.599s0.286-0.54,0.366-0.868
		s0.12-0.672,0.12-1.032V227.83z"/>
	<path d="M176.349,230.571c-0.246,0.364-0.554,0.648-0.923,0.851c-0.369,0.203-0.795,0.305-1.278,0.305
		c-0.387,0-0.738-0.061-1.053-0.182c-0.314-0.12-0.583-0.309-0.807-0.563s-0.396-0.58-0.516-0.974
		c-0.121-0.395-0.181-0.867-0.181-1.419v-4.396h1.265v4.409c0,0.401,0.032,0.733,0.096,0.998s0.16,0.476,0.287,0.632
		c0.127,0.158,0.284,0.269,0.468,0.332s0.397,0.096,0.639,0.096c0.515,0,0.931-0.104,1.248-0.314s0.553-0.492,0.708-0.848v-5.305
		h1.271v7.396h-1.148L176.349,230.571z"/>
	<path d="M182.945,222.402v1.791h2.816v0.978h-2.816v4.02c0,0.287,0.037,0.524,0.109,0.711s0.173,0.336,0.301,0.448
		c0.127,0.111,0.274,0.189,0.441,0.235s0.343,0.068,0.53,0.068c0.137,0,0.278-0.008,0.424-0.024
		c0.146-0.016,0.288-0.035,0.427-0.058s0.269-0.047,0.39-0.071c0.121-0.025,0.22-0.047,0.297-0.065l0.178,0.896
		c-0.105,0.063-0.232,0.119-0.383,0.168c-0.15,0.047-0.314,0.088-0.492,0.123c-0.178,0.033-0.366,0.06-0.564,0.078
		s-0.396,0.027-0.591,0.027c-0.328,0-0.635-0.047-0.919-0.141c-0.285-0.093-0.532-0.241-0.742-0.443
		c-0.209-0.203-0.375-0.465-0.496-0.787c-0.121-0.32-0.181-0.709-0.181-1.165v-4.02h-1.941v-0.978h1.941v-1.791H182.945z"/>
	<path d="M193.268,229.628c0-0.15-0.03-0.286-0.089-0.407c-0.059-0.12-0.16-0.23-0.301-0.331s-0.328-0.192-0.561-0.276
		c-0.232-0.085-0.522-0.161-0.868-0.229c-0.424-0.087-0.81-0.191-1.159-0.314s-0.647-0.271-0.896-0.44
		c-0.249-0.172-0.441-0.372-0.578-0.602c-0.137-0.23-0.205-0.498-0.205-0.804c0-0.301,0.071-0.582,0.212-0.845
		c0.141-0.262,0.339-0.49,0.595-0.687s0.56-0.351,0.913-0.465s0.742-0.171,1.166-0.171c0.456,0,0.866,0.06,1.23,0.178
		s0.674,0.282,0.93,0.492s0.452,0.455,0.591,0.734c0.139,0.281,0.208,0.583,0.208,0.906h-1.265c0-0.159-0.041-0.315-0.123-0.469
		c-0.082-0.152-0.196-0.288-0.342-0.406s-0.322-0.214-0.53-0.287s-0.441-0.109-0.701-0.109c-0.269,0-0.505,0.029-0.708,0.089
		s-0.372,0.139-0.506,0.239s-0.236,0.217-0.304,0.349s-0.103,0.269-0.103,0.41c0,0.146,0.027,0.275,0.082,0.39
		s0.149,0.217,0.284,0.308s0.314,0.173,0.54,0.246s0.512,0.144,0.858,0.212c0.456,0.096,0.864,0.206,1.224,0.332
		c0.36,0.125,0.663,0.275,0.909,0.451c0.246,0.175,0.434,0.379,0.564,0.611s0.195,0.501,0.195,0.807
		c0,0.328-0.074,0.627-0.222,0.896s-0.354,0.499-0.619,0.69s-0.581,0.34-0.95,0.444s-0.772,0.157-1.21,0.157
		c-0.501,0-0.948-0.067-1.34-0.201c-0.392-0.135-0.724-0.312-0.995-0.533c-0.271-0.222-0.479-0.478-0.622-0.77
		s-0.215-0.595-0.215-0.909h1.265c0.018,0.26,0.088,0.479,0.208,0.656s0.271,0.321,0.451,0.431s0.379,0.187,0.598,0.232
		s0.435,0.068,0.649,0.068c0.533,0,0.955-0.098,1.265-0.294S193.263,229.951,193.268,229.628z"/>
</g>
<g>
	<rect x="62.388" y="194.09" fill="none" width="99.891" height="17.25"/>
	<path d="M77.538,200.468h-4.266v4.122h-1.928v-9.953h6.727v1.565h-4.799v2.707h4.266V200.468z"/>
	<path d="M84.408,203.551c-0.25,0.369-0.553,0.658-0.906,0.868s-0.739,0.314-1.159,0.314c-0.383,0-0.734-0.06-1.053-0.178
		s-0.592-0.307-0.82-0.563c-0.228-0.258-0.404-0.586-0.53-0.984c-0.125-0.399-0.188-0.879-0.188-1.439v-4.375h1.9v4.389
		c0,0.301,0.021,0.554,0.065,0.759s0.113,0.37,0.208,0.495c0.096,0.126,0.221,0.216,0.376,0.271s0.344,0.082,0.567,0.082
		c0.378,0,0.686-0.071,0.923-0.216c0.237-0.143,0.417-0.34,0.54-0.591v-5.188h1.907v7.396h-1.723L84.408,203.551z"/>
	<path d="M89.815,197.193l0.116,1.025c0.264-0.369,0.585-0.655,0.964-0.857c0.378-0.203,0.797-0.305,1.258-0.305
		c0.374,0,0.715,0.055,1.025,0.164s0.578,0.283,0.803,0.523c0.226,0.238,0.401,0.547,0.526,0.922
		c0.125,0.377,0.188,0.833,0.188,1.371v4.553h-1.9v-4.525c0-0.292-0.033-0.532-0.099-0.721c-0.066-0.189-0.161-0.339-0.284-0.448
		s-0.271-0.186-0.444-0.229c-0.173-0.043-0.369-0.064-0.588-0.064c-0.324,0-0.599,0.064-0.827,0.195
		c-0.228,0.129-0.413,0.309-0.554,0.536v5.257h-1.907v-7.396H89.815z"/>
	<path d="M96.296,200.837c0-0.561,0.065-1.073,0.195-1.538s0.32-0.863,0.571-1.196s0.555-0.59,0.913-0.772s0.767-0.273,1.227-0.273
		c0.387,0,0.728,0.069,1.022,0.209c0.294,0.139,0.555,0.336,0.783,0.591v-3.767h1.907v10.5h-1.716l-0.096-0.772
		c-0.232,0.287-0.506,0.511-0.82,0.67s-0.679,0.239-1.094,0.239c-0.451,0-0.855-0.095-1.213-0.283
		c-0.358-0.189-0.661-0.45-0.909-0.783s-0.438-0.729-0.571-1.186c-0.132-0.459-0.198-0.956-0.198-1.494V200.837z M98.196,200.98
		c0,0.31,0.026,0.598,0.079,0.865c0.052,0.266,0.138,0.498,0.256,0.697c0.119,0.197,0.271,0.354,0.458,0.468
		s0.415,0.171,0.684,0.171c0.328,0,0.601-0.07,0.817-0.212s0.389-0.335,0.516-0.581v-2.994c-0.127-0.251-0.298-0.445-0.513-0.584
		c-0.214-0.14-0.483-0.209-0.807-0.209c-0.269,0-0.498,0.059-0.687,0.174c-0.189,0.117-0.343,0.276-0.461,0.479
		c-0.119,0.203-0.205,0.44-0.26,0.711c-0.055,0.271-0.082,0.562-0.082,0.872V200.98z"/>
	<path d="M105.401,197.193h4.026v5.852h2.003v1.545h-6.029v-1.545h2.105v-4.3h-2.105V197.193z M107.37,195.3
		c0-0.146,0.026-0.281,0.079-0.407c0.052-0.125,0.126-0.232,0.222-0.32c0.096-0.09,0.211-0.159,0.345-0.209s0.284-0.075,0.448-0.075
		c0.337,0,0.605,0.095,0.803,0.284c0.198,0.188,0.297,0.432,0.297,0.728s-0.099,0.539-0.297,0.728
		c-0.198,0.189-0.466,0.284-0.803,0.284c-0.164,0-0.313-0.025-0.448-0.075s-0.25-0.119-0.345-0.209
		c-0.096-0.088-0.17-0.195-0.222-0.32C107.396,195.581,107.37,195.445,107.37,195.3z"/>
	<path d="M115.02,197.193l0.116,1.025c0.264-0.369,0.585-0.655,0.964-0.857c0.378-0.203,0.797-0.305,1.258-0.305
		c0.374,0,0.715,0.055,1.025,0.164s0.578,0.283,0.803,0.523c0.226,0.238,0.401,0.547,0.526,0.922
		c0.125,0.377,0.188,0.833,0.188,1.371v4.553H118v-4.525c0-0.292-0.033-0.532-0.099-0.721c-0.066-0.189-0.161-0.339-0.284-0.448
		s-0.271-0.186-0.444-0.229c-0.173-0.043-0.369-0.064-0.588-0.064c-0.324,0-0.599,0.064-0.827,0.195
		c-0.228,0.129-0.413,0.309-0.554,0.536v5.257h-1.907v-7.396H115.02z"/>
	<path d="M121.507,200.837c0-0.561,0.069-1.073,0.208-1.538s0.338-0.863,0.598-1.196s0.574-0.59,0.943-0.772
		s0.786-0.273,1.251-0.273c0.433,0,0.804,0.073,1.114,0.219s0.574,0.354,0.793,0.622l0.075-0.704h1.729v7.157
		c0,0.501-0.085,0.948-0.256,1.34s-0.41,0.723-0.718,0.991s-0.677,0.473-1.107,0.611c-0.431,0.14-0.906,0.209-1.425,0.209
		c-0.223,0-0.462-0.022-0.718-0.068s-0.508-0.116-0.759-0.212s-0.488-0.218-0.711-0.366c-0.223-0.147-0.415-0.324-0.574-0.529
		l0.854-1.155c0.242,0.273,0.515,0.481,0.82,0.626c0.305,0.143,0.636,0.215,0.991,0.215c0.533,0,0.949-0.143,1.248-0.428
		c0.298-0.284,0.448-0.688,0.448-1.213v-0.424c-0.223,0.246-0.484,0.438-0.783,0.574s-0.644,0.205-1.036,0.205
		c-0.46,0-0.874-0.095-1.241-0.283c-0.367-0.189-0.68-0.45-0.94-0.783s-0.459-0.729-0.598-1.186
		c-0.139-0.459-0.208-0.956-0.208-1.494V200.837z M123.414,200.98c0,0.31,0.031,0.598,0.092,0.865
		c0.062,0.266,0.156,0.498,0.284,0.697c0.127,0.197,0.29,0.354,0.485,0.468s0.428,0.171,0.697,0.171
		c0.333,0,0.607-0.063,0.824-0.191s0.389-0.306,0.516-0.533v-3.131c-0.127-0.232-0.3-0.411-0.516-0.537
		c-0.216-0.125-0.486-0.188-0.81-0.188c-0.269,0-0.501,0.059-0.697,0.174c-0.196,0.117-0.359,0.276-0.489,0.479
		c-0.13,0.203-0.227,0.44-0.291,0.711c-0.064,0.271-0.096,0.562-0.096,0.872V200.98z"/>
	<path d="M145.747,196.202h-3.069v8.388h-1.928v-8.388h-3.028v-1.565h8.025V196.202z"/>
	<path d="M150.204,198.205l1.771-3.568h2.256l-2.803,4.936l2.871,5.018h-2.242l-1.825-3.623l-1.818,3.623h-2.27l2.871-5.018
		l-2.796-4.936h2.242L150.204,198.205z"/>
</g>
<rect x="9.5" y="237.5" fill="#FFFFFF" stroke="#000000" stroke-miterlimit="10" width="96" height="24"/>
<rect x="111.5" y="237.5" fill="#FFFFFF" stroke="#000000" stroke-miterlimit="10" width="108" height="24"/>
<g>
	<rect x="9.843" y="243.732" fill="none" width="95.098" height="17.25"/>
	<path d="M46.987,251.717c0-0.306-0.069-0.562-0.208-0.772s-0.318-0.386-0.537-0.53c-0.219-0.143-0.459-0.263-0.721-0.358
		s-0.514-0.183-0.755-0.26c-0.351-0.114-0.708-0.251-1.07-0.41s-0.693-0.355-0.991-0.588s-0.542-0.507-0.731-0.823
		c-0.189-0.317-0.284-0.689-0.284-1.118s0.095-0.812,0.284-1.148s0.437-0.622,0.742-0.854s0.652-0.409,1.039-0.529
		c0.387-0.121,0.777-0.182,1.169-0.182c0.433,0,0.85,0.072,1.251,0.215c0.401,0.145,0.756,0.346,1.066,0.605
		s0.558,0.574,0.745,0.943s0.285,0.781,0.294,1.237H46.98c-0.037-0.287-0.107-0.548-0.212-0.782
		c-0.105-0.235-0.244-0.437-0.417-0.605s-0.379-0.3-0.619-0.393c-0.239-0.094-0.509-0.141-0.81-0.141
		c-0.242,0-0.478,0.034-0.708,0.103s-0.435,0.171-0.615,0.308s-0.324,0.306-0.431,0.506s-0.161,0.433-0.161,0.697
		c0.004,0.287,0.078,0.529,0.219,0.729c0.141,0.197,0.32,0.365,0.537,0.502s0.451,0.251,0.704,0.342s0.491,0.171,0.714,0.239
		c0.246,0.077,0.495,0.165,0.745,0.263c0.25,0.099,0.492,0.211,0.725,0.339s0.449,0.271,0.649,0.431s0.376,0.341,0.526,0.543
		c0.15,0.203,0.268,0.427,0.352,0.67c0.084,0.244,0.126,0.515,0.126,0.811c0,0.446-0.099,0.836-0.297,1.169
		s-0.455,0.609-0.769,0.831c-0.314,0.221-0.67,0.387-1.066,0.498c-0.396,0.112-0.793,0.168-1.189,0.168
		c-0.442,0-0.875-0.068-1.299-0.205s-0.803-0.334-1.138-0.592c-0.335-0.257-0.607-0.571-0.817-0.943
		c-0.209-0.371-0.321-0.794-0.335-1.268h1.292c0.041,0.31,0.125,0.584,0.253,0.824c0.127,0.238,0.292,0.441,0.492,0.607
		c0.201,0.167,0.432,0.292,0.694,0.377c0.262,0.084,0.548,0.126,0.858,0.126c0.246,0,0.489-0.03,0.728-0.093
		c0.239-0.061,0.452-0.156,0.639-0.287c0.187-0.129,0.339-0.293,0.458-0.492C46.928,252.227,46.987,251.99,46.987,251.717z"/>
	<path d="M50.378,246.836h3.78v6.303h2.413v1.094h-6.193v-1.094h2.516v-5.202h-2.516V246.836z M52.729,244.895
		c0-0.21,0.062-0.387,0.188-0.529c0.125-0.145,0.315-0.216,0.571-0.216c0.25,0,0.44,0.071,0.567,0.216
		c0.127,0.143,0.191,0.319,0.191,0.529c0,0.205-0.064,0.376-0.191,0.513s-0.317,0.205-0.567,0.205c-0.255,0-0.445-0.068-0.571-0.205
		S52.729,245.1,52.729,244.895z"/>
	<path d="M58.349,250.473c0-0.552,0.067-1.059,0.202-1.521c0.134-0.462,0.329-0.859,0.584-1.192s0.565-0.593,0.93-0.779
		s0.777-0.28,1.237-0.28c0.456,0,0.855,0.081,1.2,0.242c0.344,0.162,0.637,0.396,0.878,0.701l0.062-0.807h1.148v7.239
		c0,0.487-0.076,0.921-0.229,1.299s-0.367,0.699-0.643,0.964s-0.605,0.465-0.988,0.602s-0.807,0.205-1.271,0.205
		c-0.191,0-0.41-0.021-0.656-0.064c-0.246-0.044-0.496-0.114-0.749-0.213c-0.253-0.098-0.497-0.229-0.731-0.393
		s-0.437-0.367-0.605-0.608l0.656-0.759c0.155,0.187,0.314,0.346,0.479,0.475c0.164,0.131,0.331,0.234,0.499,0.312
		s0.337,0.134,0.506,0.167c0.168,0.035,0.337,0.052,0.506,0.052c0.301,0,0.572-0.043,0.813-0.13s0.448-0.213,0.619-0.379
		c0.171-0.167,0.302-0.373,0.393-0.619s0.137-0.528,0.137-0.848v-0.636c-0.246,0.282-0.537,0.498-0.872,0.646
		c-0.335,0.148-0.724,0.223-1.166,0.223c-0.451,0-0.859-0.096-1.224-0.287s-0.673-0.456-0.926-0.793s-0.448-0.734-0.584-1.193
		c-0.137-0.457-0.205-0.951-0.205-1.479V250.473z M59.613,250.616c0,0.36,0.038,0.702,0.113,1.025s0.194,0.608,0.355,0.854
		s0.368,0.441,0.619,0.584c0.25,0.145,0.551,0.216,0.902,0.216c0.219,0,0.416-0.026,0.591-0.079
		c0.175-0.052,0.333-0.126,0.472-0.222s0.263-0.21,0.373-0.342s0.205-0.278,0.287-0.438v-3.391
		c-0.082-0.155-0.178-0.296-0.287-0.424s-0.235-0.238-0.376-0.331c-0.141-0.094-0.298-0.167-0.472-0.219
		c-0.173-0.053-0.365-0.079-0.574-0.079c-0.355,0-0.66,0.073-0.913,0.219s-0.46,0.343-0.622,0.591
		c-0.162,0.249-0.28,0.536-0.355,0.861c-0.075,0.326-0.113,0.669-0.113,1.029V250.616z"/>
	<path d="M71.733,251.655h-3.322l-0.8,2.577h-1.265l3.213-9.953h1.06l3.158,9.953H72.52L71.733,251.655z M68.753,250.555h2.646
		l-1.312-4.32L68.753,250.555z"/>
</g>
<g>
	<rect x="177.192" y="243.732" fill="none" width="36.617" height="16.875"/>
	<path d="M194.224,254.232h-1.921v-7.636l-2.516,0.902v-1.654l4.334-1.565h0.103V254.232z"/>
	<path d="M199.891,253.132c0-0.178,0.03-0.343,0.089-0.495c0.059-0.153,0.146-0.285,0.26-0.396c0.114-0.112,0.253-0.201,0.417-0.268
		c0.164-0.065,0.349-0.099,0.554-0.099s0.39,0.033,0.554,0.099c0.164,0.066,0.302,0.155,0.414,0.268
		c0.112,0.111,0.198,0.243,0.26,0.396c0.062,0.152,0.092,0.317,0.092,0.495c0,0.173-0.031,0.335-0.092,0.485
		s-0.148,0.281-0.26,0.393c-0.112,0.112-0.25,0.2-0.414,0.264s-0.349,0.096-0.554,0.096s-0.39-0.032-0.554-0.096
		s-0.303-0.151-0.417-0.264c-0.114-0.111-0.201-0.242-0.26-0.393S199.891,253.305,199.891,253.132z"/>
	<path d="M212.852,250.445c0,0.643-0.074,1.209-0.222,1.699c-0.148,0.489-0.361,0.899-0.639,1.23
		c-0.278,0.33-0.618,0.579-1.019,0.748s-0.852,0.253-1.354,0.253c-0.497,0-0.946-0.084-1.347-0.253s-0.742-0.418-1.022-0.748
		c-0.28-0.331-0.497-0.741-0.649-1.23c-0.153-0.49-0.229-1.057-0.229-1.699v-2.379c0-0.643,0.075-1.209,0.226-1.699
		c0.15-0.489,0.366-0.899,0.646-1.23c0.28-0.33,0.62-0.579,1.019-0.748s0.847-0.253,1.343-0.253c0.501,0,0.953,0.084,1.354,0.253
		s0.742,0.418,1.022,0.748c0.28,0.331,0.496,0.741,0.646,1.23c0.15,0.49,0.226,1.057,0.226,1.699V250.445z M208.285,249.625
		l2.652-1.976c-0.014-0.67-0.13-1.167-0.349-1.49s-0.547-0.485-0.984-0.485c-0.442,0-0.772,0.171-0.991,0.513
		s-0.328,0.868-0.328,1.579V249.625z M210.938,248.941l-2.652,1.969c0.023,0.656,0.144,1.143,0.362,1.459
		c0.219,0.317,0.542,0.476,0.971,0.476c0.447,0,0.778-0.173,0.995-0.52s0.325-0.877,0.325-1.593V248.941z"/>
</g>
<g>
	<rect x="115.5" y="243.732" fill="none" width="78.958" height="16.875"/>
	<path d="M121.44,251.655h-3.322l-0.8,2.577h-1.265l3.213-9.953h1.06l3.158,9.953h-1.258L121.44,251.655z M118.46,250.555h2.646
		l-1.312-4.32L118.46,250.555z"/>
	<path d="M128.755,248.894h2.782v1.258h-2.782v3.083h-1.265v-3.083h-2.775v-1.258h2.775v-2.905h1.265V248.894z"/>
	<path d="M133.479,254.232v-9.953h2.96c0.41,0.005,0.811,0.059,1.203,0.16c0.392,0.104,0.741,0.262,1.046,0.476
		s0.549,0.487,0.731,0.82s0.271,0.731,0.267,1.196c-0.004,0.26-0.047,0.497-0.126,0.711s-0.189,0.406-0.328,0.578
		c-0.139,0.17-0.302,0.319-0.489,0.447s-0.385,0.237-0.595,0.328c0.264,0.077,0.507,0.188,0.728,0.332
		c0.221,0.143,0.411,0.316,0.571,0.52c0.16,0.202,0.284,0.432,0.373,0.687s0.133,0.531,0.133,0.827
		c0.004,0.465-0.084,0.875-0.267,1.23s-0.426,0.652-0.731,0.893c-0.305,0.238-0.657,0.422-1.056,0.55s-0.81,0.193-1.234,0.198
		H133.479z M134.75,248.524h1.764c0.237-0.005,0.469-0.042,0.697-0.112c0.228-0.071,0.431-0.174,0.608-0.309
		c0.178-0.134,0.321-0.299,0.431-0.495s0.164-0.424,0.164-0.684c0-0.278-0.054-0.515-0.161-0.711s-0.25-0.356-0.431-0.481
		c-0.18-0.126-0.387-0.218-0.622-0.277s-0.475-0.091-0.721-0.096h-1.729V248.524z M134.75,249.577v3.582h1.948
		c0.264-0.005,0.515-0.049,0.752-0.134c0.237-0.084,0.447-0.201,0.629-0.352s0.327-0.335,0.434-0.554s0.161-0.467,0.161-0.745
		c0.004-0.282-0.042-0.533-0.14-0.752s-0.233-0.404-0.407-0.557c-0.173-0.153-0.376-0.271-0.608-0.353s-0.483-0.128-0.752-0.137
		H134.75z"/>
</g>
<line fill="none" stroke="#000000" stroke-width="2" stroke-miterlimit="10" x1="4" y1="515" x2="720" y2="515"/>
<g>
	<g>
		<line fill="none" stroke="#000000" stroke-miterlimit="10" x1="4" y1="332.5" x2="10" y2="332.5"/>
		<line fill="none" stroke="#000000" stroke-miterlimit="10" stroke-dasharray="12,12" x1="22" y1="332.5" x2="708" y2="332.5"/>
		<line fill="none" stroke="#000000" stroke-miterlimit="10" x1="714" y1="332.5" x2="720" y2="332.5"/>
	</g>
</g>
<g>
	<rect x="9.5" y="310" fill="none" width="227.988" height="43.498"/>
	<path d="M14.791,318.422h-2.892l-0.93,2.078h-2.03l4.888-9.953h1.702l1.381,9.953h-1.921L14.791,318.422z M12.645,316.788h1.989
		l-0.349-3.644L12.645,316.788z"/>
	<path d="M20.144,310h4.02l-1.552,8.955h2.058l-0.273,1.545h-6.077l0.273-1.545h2.146l1.285-7.403H19.87L20.144,310z"/>
	<path d="M27.93,313.104h3.917l-1.019,5.852h1.948l-0.273,1.545h-5.858l0.267-1.545h2.044l0.745-4.3h-2.044L27.93,313.104z
		 M30.165,311.244c0-0.155,0.027-0.296,0.082-0.424s0.131-0.238,0.229-0.332s0.212-0.167,0.342-0.219s0.27-0.079,0.42-0.079
		c0.146-0.004,0.283,0.016,0.41,0.062s0.239,0.112,0.335,0.198s0.172,0.191,0.229,0.314s0.085,0.26,0.085,0.41
		c0,0.155-0.027,0.296-0.082,0.424s-0.13,0.238-0.226,0.332s-0.209,0.167-0.342,0.219s-0.273,0.079-0.424,0.079
		c-0.146,0.004-0.283-0.016-0.41-0.062s-0.239-0.112-0.335-0.198s-0.172-0.191-0.229-0.314S30.165,311.395,30.165,311.244z"/>
	<path d="M37.78,319.126c0.182,0.004,0.356-0.018,0.523-0.068s0.317-0.124,0.451-0.222s0.249-0.22,0.342-0.366
		s0.154-0.31,0.181-0.492l1.736-0.014c-0.023,0.419-0.134,0.796-0.335,1.131s-0.457,0.619-0.769,0.851s-0.661,0.409-1.046,0.53
		s-0.776,0.177-1.172,0.167c-0.533-0.009-0.99-0.116-1.371-0.321s-0.688-0.478-0.923-0.817s-0.397-0.731-0.489-1.176
		s-0.112-0.91-0.062-1.398l0.021-0.212c0.064-0.515,0.198-1.002,0.403-1.463s0.474-0.862,0.807-1.207s0.724-0.614,1.172-0.81
		s0.947-0.287,1.494-0.273c0.424,0.009,0.807,0.084,1.148,0.226s0.632,0.338,0.872,0.591s0.419,0.554,0.54,0.902
		s0.17,0.735,0.147,1.159l-1.743-0.007c0.014-0.182,0-0.354-0.041-0.516s-0.109-0.302-0.205-0.42s-0.216-0.213-0.362-0.284
		s-0.317-0.11-0.513-0.12c-0.314-0.009-0.582,0.052-0.803,0.185s-0.404,0.307-0.55,0.523s-0.26,0.458-0.342,0.725
		s-0.139,0.53-0.171,0.79l-0.027,0.205c-0.023,0.219-0.034,0.456-0.034,0.711s0.034,0.491,0.103,0.708s0.181,0.399,0.338,0.547
		S37.484,319.117,37.78,319.126z"/>
	<path d="M46.168,320.637c-0.506-0.009-0.963-0.106-1.371-0.291s-0.752-0.435-1.032-0.752s-0.486-0.689-0.619-1.118
		s-0.175-0.893-0.13-1.395l0.027-0.28c0.059-0.52,0.198-1.014,0.417-1.483s0.502-0.879,0.851-1.23s0.755-0.629,1.22-0.834
		s0.971-0.301,1.518-0.287c0.515,0.014,0.959,0.121,1.333,0.321s0.676,0.468,0.906,0.803s0.387,0.719,0.472,1.152
		s0.097,0.889,0.038,1.367l-0.123,0.807h-4.833c-0.009,0.237,0.021,0.457,0.089,0.66s0.167,0.379,0.297,0.53s0.291,0.27,0.482,0.359
		s0.41,0.136,0.656,0.14c0.387,0.014,0.753-0.054,1.097-0.202s0.648-0.359,0.913-0.632l0.841,1.032
		c-0.164,0.237-0.363,0.44-0.598,0.608s-0.488,0.308-0.759,0.417s-0.553,0.189-0.844,0.239S46.441,320.641,46.168,320.637z
		 M46.913,314.498c-0.246-0.009-0.467,0.032-0.663,0.123s-0.37,0.214-0.523,0.369s-0.286,0.331-0.4,0.526s-0.214,0.394-0.301,0.595
		h3.015l0.034-0.171c0.032-0.201,0.027-0.387-0.014-0.561s-0.113-0.324-0.215-0.451s-0.232-0.229-0.39-0.304
		S47.118,314.507,46.913,314.498z"/>
	<path d="M61.159,316.487c0.064-0.447,0.156-0.906,0.277-1.377s0.269-0.94,0.444-1.405s0.382-0.916,0.619-1.354
		s0.503-0.85,0.8-1.237s0.625-0.738,0.988-1.053s0.76-0.581,1.193-0.8l0.185,0.848c-0.501,0.369-0.936,0.796-1.302,1.282
		s-0.68,1.002-0.94,1.552s-0.472,1.122-0.636,1.719s-0.292,1.194-0.383,1.791l-0.014,0.103c-0.05,0.328-0.091,0.679-0.123,1.053
		s-0.045,0.756-0.041,1.148s0.03,0.784,0.075,1.176s0.123,0.77,0.232,1.135s0.255,0.708,0.438,1.029s0.41,0.605,0.684,0.851
		l-0.321,0.766c-0.355-0.25-0.664-0.547-0.926-0.889s-0.483-0.712-0.663-1.111s-0.322-0.817-0.427-1.254s-0.179-0.878-0.222-1.323
		s-0.059-0.885-0.048-1.323s0.044-0.854,0.099-1.251L61.159,316.487z"/>
	<path d="M74.517,316.091c-0.059,0.351-0.143,0.708-0.25,1.07s-0.242,0.713-0.403,1.053s-0.352,0.66-0.571,0.96
		s-0.468,0.561-0.749,0.779s-0.592,0.39-0.937,0.513s-0.721,0.18-1.131,0.171c-0.392-0.009-0.737-0.083-1.036-0.222
		s-0.555-0.322-0.769-0.55s-0.39-0.492-0.526-0.793s-0.239-0.618-0.308-0.95s-0.106-0.672-0.113-1.019s0.013-0.681,0.058-1.005
		l0.178-1.135c0.059-0.351,0.143-0.708,0.25-1.07s0.242-0.713,0.403-1.053s0.353-0.66,0.574-0.96s0.472-0.562,0.752-0.783
		s0.592-0.393,0.937-0.516s0.721-0.18,1.131-0.171c0.396,0.009,0.744,0.083,1.042,0.222s0.555,0.322,0.769,0.55
		s0.389,0.492,0.523,0.793s0.235,0.619,0.301,0.954s0.103,0.677,0.109,1.025s-0.013,0.685-0.058,1.008L74.517,316.091z
		 M73.471,314.936c0.027-0.209,0.049-0.438,0.065-0.684s0.014-0.493-0.007-0.742s-0.062-0.49-0.126-0.725s-0.158-0.443-0.284-0.625
		s-0.285-0.331-0.479-0.444s-0.432-0.175-0.714-0.185c-0.296-0.009-0.564,0.035-0.803,0.133s-0.454,0.235-0.643,0.41
		s-0.355,0.378-0.499,0.608s-0.268,0.474-0.373,0.731s-0.191,0.519-0.26,0.783s-0.123,0.515-0.164,0.752l-0.191,1.155
		c-0.027,0.205-0.048,0.431-0.062,0.677s-0.009,0.495,0.014,0.745s0.066,0.495,0.13,0.731s0.16,0.448,0.287,0.632
		s0.288,0.335,0.482,0.451s0.432,0.179,0.714,0.188c0.296,0.009,0.565-0.035,0.807-0.133s0.456-0.235,0.643-0.41
		s0.351-0.379,0.492-0.612s0.263-0.478,0.366-0.735s0.188-0.519,0.256-0.783s0.123-0.517,0.164-0.759L73.471,314.936z"/>
	<path d="M77.504,320.5l1.114-6.419h-1.982l0.178-0.978h1.969l0.075-0.52c0.059-0.438,0.177-0.835,0.352-1.193
		s0.401-0.663,0.677-0.916s0.599-0.447,0.971-0.581s0.785-0.199,1.241-0.195c0.296,0.004,0.587,0.034,0.872,0.089
		s0.571,0.119,0.858,0.191l-0.253,1.039c-0.223-0.078-0.45-0.139-0.68-0.185s-0.464-0.071-0.701-0.075
		c-0.296-0.004-0.563,0.034-0.8,0.116s-0.444,0.202-0.622,0.359s-0.322,0.349-0.434,0.574s-0.19,0.482-0.236,0.769l-0.075,0.526
		h2.769l-0.171,0.978h-2.762l-1.114,6.419H77.504z"/>
	<path d="M85.728,320.5l1.114-6.419h-1.982l0.178-0.978h1.969l0.075-0.52c0.059-0.438,0.177-0.835,0.352-1.193
		s0.401-0.663,0.677-0.916s0.599-0.447,0.971-0.581s0.785-0.199,1.241-0.195c0.296,0.004,0.587,0.034,0.872,0.089
		s0.571,0.119,0.858,0.191l-0.253,1.039c-0.223-0.078-0.45-0.139-0.68-0.185s-0.464-0.071-0.701-0.075
		c-0.296-0.004-0.563,0.034-0.8,0.116s-0.444,0.202-0.622,0.359s-0.322,0.349-0.434,0.574s-0.19,0.482-0.236,0.769l-0.075,0.526
		h2.769l-0.171,0.978h-2.762l-1.114,6.419H85.728z"/>
	<path d="M98.155,316.665h-5.079l0.185-1.039h5.079L98.155,316.665z"/>
	<path d="M107.056,317.492c-0.091,0.451-0.242,0.872-0.451,1.261s-0.471,0.726-0.783,1.008s-0.67,0.502-1.073,0.66
		s-0.844,0.229-1.323,0.215c-0.392-0.009-0.739-0.079-1.042-0.208s-0.565-0.303-0.786-0.52s-0.402-0.468-0.543-0.755
		s-0.25-0.592-0.325-0.916s-0.117-0.657-0.126-1.001s0.009-0.683,0.055-1.015l0.219-1.388c0.059-0.36,0.145-0.72,0.256-1.08
		s0.25-0.705,0.417-1.036s0.361-0.638,0.584-0.923s0.478-0.531,0.762-0.738s0.601-0.369,0.947-0.485s0.727-0.17,1.142-0.161
		c0.469,0.009,0.877,0.099,1.224,0.27s0.636,0.4,0.868,0.687s0.409,0.622,0.53,1.005s0.19,0.793,0.208,1.23h-1.224
		c-0.014-0.273-0.05-0.538-0.109-0.793s-0.154-0.483-0.284-0.684s-0.298-0.363-0.506-0.489s-0.466-0.192-0.776-0.202
		c-0.301-0.009-0.573,0.034-0.817,0.13s-0.462,0.227-0.656,0.393s-0.362,0.363-0.506,0.591s-0.269,0.468-0.376,0.721
		s-0.196,0.513-0.267,0.779s-0.126,0.523-0.167,0.769l-0.232,1.408c-0.032,0.214-0.055,0.445-0.068,0.694s-0.009,0.496,0.014,0.742
		s0.067,0.484,0.133,0.714s0.163,0.435,0.291,0.615s0.292,0.326,0.492,0.438s0.444,0.172,0.731,0.181
		c0.328,0.014,0.621-0.034,0.878-0.144s0.484-0.26,0.68-0.451s0.361-0.417,0.496-0.677s0.243-0.536,0.325-0.827L107.056,317.492z"/>
	<path d="M110.829,314.211c0.15-0.182,0.313-0.351,0.489-0.506s0.362-0.287,0.561-0.396s0.408-0.195,0.629-0.256
		s0.455-0.09,0.701-0.085c0.419,0.009,0.77,0.093,1.053,0.253s0.506,0.372,0.67,0.636s0.273,0.568,0.328,0.913
		s0.062,0.703,0.021,1.077L114.5,320.5h-1.237l0.786-4.676c0.027-0.242,0.027-0.468,0-0.68s-0.091-0.399-0.191-0.561
		s-0.238-0.29-0.414-0.383s-0.397-0.145-0.667-0.154c-0.209-0.004-0.409,0.02-0.598,0.072s-0.369,0.127-0.54,0.226
		s-0.333,0.213-0.485,0.345s-0.293,0.276-0.42,0.431l-0.937,5.38h-1.237l1.825-10.5h1.237L110.829,314.211z"/>
	<path d="M121.562,320.5c-0.037-0.137-0.055-0.271-0.055-0.403s0.007-0.267,0.021-0.403c-0.324,0.287-0.676,0.517-1.056,0.69
		s-0.792,0.255-1.234,0.246c-0.31-0.004-0.603-0.057-0.878-0.157s-0.515-0.242-0.718-0.424s-0.36-0.403-0.472-0.663
		s-0.158-0.554-0.14-0.882c0.018-0.319,0.083-0.602,0.195-0.848s0.256-0.461,0.434-0.646s0.383-0.341,0.615-0.468
		s0.479-0.231,0.742-0.311s0.533-0.137,0.813-0.171s0.557-0.051,0.831-0.051l1.408,0.007l0.089-0.588
		c0.027-0.232,0.01-0.438-0.051-0.615s-0.156-0.328-0.284-0.451s-0.284-0.216-0.468-0.28s-0.389-0.098-0.612-0.103
		c-0.196-0.004-0.389,0.016-0.578,0.062s-0.362,0.116-0.52,0.212s-0.293,0.218-0.407,0.366s-0.194,0.325-0.239,0.53l-1.237,0.007
		c0.041-0.374,0.162-0.698,0.362-0.974s0.448-0.505,0.742-0.687s0.616-0.318,0.967-0.407s0.695-0.131,1.032-0.126
		c0.374,0.009,0.722,0.068,1.046,0.178s0.601,0.27,0.831,0.482s0.404,0.471,0.523,0.776s0.157,0.656,0.116,1.053l-0.574,3.438
		c-0.041,0.25-0.062,0.501-0.065,0.752s0.026,0.499,0.085,0.745l-0.014,0.116H121.562z M119.477,319.543
		c0.438,0.009,0.845-0.09,1.224-0.297s0.695-0.484,0.95-0.831l0.267-1.504l-1.06-0.007c-0.25,0-0.519,0.016-0.803,0.048
		s-0.553,0.098-0.803,0.198s-0.465,0.244-0.643,0.431s-0.285,0.433-0.321,0.738c-0.023,0.196-0.009,0.369,0.041,0.52
		s0.13,0.277,0.239,0.379s0.242,0.181,0.396,0.236S119.29,319.539,119.477,319.543z"/>
	<path d="M126.47,313.104h3.678l-1.094,6.303h2.345L131.2,320.5h-6.016l0.198-1.094h2.434l0.902-5.202h-2.44L126.47,313.104z
		 M129.088,311.183c0.004-0.219,0.075-0.4,0.212-0.543s0.314-0.22,0.533-0.229c0.109-0.004,0.208,0.011,0.297,0.048
		s0.167,0.086,0.232,0.15s0.116,0.141,0.15,0.232s0.051,0.191,0.051,0.301c0,0.219-0.068,0.396-0.205,0.53s-0.314,0.206-0.533,0.215
		c-0.214,0.009-0.391-0.051-0.53-0.181S129.088,311.401,129.088,311.183z"/>
	<path d="M135.596,313.097l-0.157,1.101c0.15-0.182,0.314-0.351,0.492-0.506s0.367-0.287,0.567-0.396s0.413-0.192,0.636-0.25
		s0.458-0.083,0.704-0.079c0.415,0.009,0.763,0.091,1.046,0.246s0.507,0.361,0.673,0.619s0.278,0.557,0.335,0.899
		s0.065,0.7,0.024,1.073l-0.786,4.696h-1.237l0.786-4.676c0.027-0.25,0.028-0.483,0.003-0.697s-0.086-0.401-0.185-0.561
		s-0.236-0.286-0.414-0.379s-0.403-0.143-0.677-0.147c-0.214-0.004-0.418,0.021-0.612,0.079s-0.375,0.137-0.543,0.239
		s-0.327,0.226-0.475,0.369s-0.284,0.297-0.407,0.461l-0.923,5.312h-1.237l1.285-7.396L135.596,313.097z"/>
	<path d="M146.602,316.501c-0.064,0.447-0.156,0.906-0.277,1.377s-0.269,0.939-0.444,1.401s-0.382,0.914-0.619,1.354
		s-0.505,0.852-0.803,1.237s-0.629,0.736-0.991,1.053s-0.76,0.582-1.193,0.796l-0.191-0.786c0.506-0.369,0.942-0.799,1.309-1.289
		s0.68-1.014,0.94-1.572s0.472-1.138,0.636-1.74s0.292-1.201,0.383-1.798l0.014-0.103c0.045-0.324,0.084-0.672,0.116-1.046
		s0.045-0.756,0.041-1.148s-0.031-0.786-0.079-1.183s-0.126-0.778-0.236-1.145s-0.254-0.71-0.434-1.029s-0.404-0.602-0.673-0.848
		l0.314-0.766c0.36,0.25,0.672,0.547,0.937,0.889s0.486,0.712,0.667,1.111s0.322,0.817,0.427,1.254s0.179,0.879,0.222,1.326
		s0.059,0.889,0.048,1.326s-0.044,0.854-0.099,1.251L146.602,316.501z"/>
</g>
<g>
	<rect x="9.5" y="343.25" fill="none" width="227.988" height="43.499"/>
	<path d="M9.637,353.75l1.729-9.953l3.145,0.007c0.419,0.009,0.825,0.062,1.217,0.161s0.736,0.253,1.032,0.465
		s0.526,0.484,0.69,0.817s0.228,0.738,0.191,1.217c-0.023,0.273-0.082,0.523-0.178,0.749s-0.222,0.427-0.379,0.605
		s-0.339,0.336-0.547,0.475s-0.432,0.259-0.673,0.359c0.228,0.082,0.423,0.196,0.584,0.342s0.293,0.312,0.393,0.499
		s0.171,0.391,0.212,0.612s0.055,0.445,0.041,0.673c-0.037,0.524-0.167,0.975-0.39,1.354s-0.509,0.688-0.858,0.93
		s-0.746,0.418-1.193,0.53s-0.909,0.165-1.388,0.161H9.637z M12.282,349.362l-0.492,2.837l1.565,0.014
		c0.228-0.004,0.448-0.037,0.66-0.096s0.403-0.149,0.574-0.27s0.313-0.27,0.427-0.448s0.189-0.387,0.226-0.629
		c0.064-0.428-0.002-0.765-0.198-1.008s-0.508-0.375-0.937-0.393L12.282,349.362z M12.521,347.974l1.306,0.014
		c0.223,0,0.442-0.025,0.656-0.075s0.409-0.13,0.584-0.239s0.322-0.25,0.441-0.42s0.196-0.379,0.232-0.625
		c0.032-0.228,0.021-0.42-0.034-0.578s-0.141-0.285-0.26-0.383s-0.264-0.171-0.438-0.219s-0.362-0.074-0.567-0.079l-1.463-0.007
		L12.521,347.974z"/>
	<path d="M18.339,350.032c0.064-0.52,0.199-1.013,0.407-1.48s0.478-0.876,0.81-1.227s0.726-0.626,1.179-0.827
		s0.958-0.294,1.514-0.28c0.533,0.009,0.991,0.119,1.374,0.328s0.694,0.486,0.933,0.831s0.404,0.739,0.496,1.186
		s0.112,0.914,0.062,1.401l-0.021,0.15c-0.064,0.52-0.199,1.011-0.407,1.473s-0.478,0.867-0.81,1.213s-0.726,0.619-1.179,0.817
		s-0.956,0.291-1.507,0.277c-0.529-0.009-0.984-0.117-1.367-0.325s-0.694-0.481-0.933-0.82s-0.406-0.731-0.499-1.176
		s-0.115-0.91-0.065-1.398L18.339,350.032z M20.178,350.175c-0.023,0.228-0.032,0.468-0.027,0.721s0.044,0.488,0.12,0.704
		s0.196,0.399,0.362,0.547s0.397,0.227,0.694,0.236c0.31,0.009,0.578-0.056,0.803-0.195s0.415-0.319,0.567-0.54
		s0.271-0.467,0.355-0.738s0.145-0.537,0.181-0.796l0.014-0.144c0.014-0.15,0.024-0.309,0.031-0.475s0-0.331-0.021-0.492
		s-0.055-0.317-0.103-0.465s-0.116-0.279-0.205-0.393s-0.202-0.206-0.338-0.277s-0.303-0.11-0.499-0.12
		c-0.314-0.009-0.584,0.055-0.81,0.191s-0.415,0.317-0.567,0.54s-0.273,0.472-0.362,0.745s-0.149,0.542-0.181,0.807L20.178,350.175z
		"/>
	<path d="M33.255,350.086c-0.037,0.305-0.095,0.614-0.174,0.926s-0.184,0.611-0.311,0.896s-0.28,0.55-0.458,0.796
		s-0.383,0.458-0.615,0.636s-0.496,0.315-0.79,0.414s-0.619,0.143-0.974,0.133c-0.369-0.009-0.708-0.09-1.015-0.243
		s-0.564-0.382-0.769-0.687l-0.273,0.793h-1.682l1.818-10.5h1.859l-0.725,3.78c0.25-0.264,0.529-0.468,0.834-0.612
		s0.643-0.211,1.012-0.202c0.337,0.009,0.632,0.068,0.885,0.178s0.469,0.255,0.649,0.438s0.326,0.396,0.438,0.639
		s0.195,0.502,0.25,0.776s0.085,0.555,0.092,0.844s-0.003,0.573-0.031,0.851L33.255,350.086z M31.416,349.943
		c0.014-0.141,0.025-0.293,0.034-0.455s0.008-0.322-0.003-0.482s-0.037-0.313-0.075-0.461s-0.098-0.279-0.178-0.393
		s-0.184-0.206-0.311-0.277s-0.287-0.108-0.479-0.113c-0.324-0.009-0.604,0.061-0.841,0.208s-0.442,0.35-0.615,0.605l-0.513,2.967
		c0.091,0.273,0.235,0.475,0.431,0.605s0.438,0.199,0.725,0.208c0.319,0.009,0.587-0.055,0.803-0.191s0.394-0.314,0.533-0.533
		s0.245-0.465,0.318-0.738s0.125-0.542,0.157-0.807L31.416,349.943z"/>
	<path d="M44.726,349.738c0.064-0.447,0.156-0.906,0.277-1.377s0.269-0.94,0.444-1.405s0.382-0.916,0.619-1.354
		s0.503-0.85,0.8-1.237s0.625-0.738,0.988-1.053s0.76-0.581,1.193-0.8l0.185,0.848c-0.501,0.369-0.936,0.796-1.302,1.282
		s-0.68,1.002-0.94,1.552s-0.472,1.122-0.636,1.719s-0.292,1.194-0.383,1.791l-0.014,0.103c-0.05,0.328-0.091,0.679-0.123,1.053
		s-0.045,0.756-0.041,1.148s0.03,0.784,0.075,1.176s0.123,0.77,0.232,1.135s0.255,0.708,0.438,1.029s0.41,0.605,0.684,0.851
		l-0.321,0.766c-0.355-0.25-0.664-0.547-0.926-0.889s-0.483-0.712-0.663-1.111s-0.322-0.817-0.427-1.254s-0.179-0.878-0.222-1.323
		s-0.059-0.885-0.048-1.323s0.044-0.854,0.099-1.251L44.726,349.738z"/>
	<path d="M58.083,349.341c-0.059,0.351-0.143,0.708-0.25,1.07s-0.242,0.713-0.403,1.053s-0.352,0.66-0.571,0.96
		s-0.468,0.561-0.749,0.779s-0.592,0.39-0.937,0.513s-0.721,0.18-1.131,0.171c-0.392-0.009-0.737-0.083-1.036-0.222
		s-0.555-0.322-0.769-0.55s-0.39-0.492-0.526-0.793s-0.239-0.618-0.308-0.95s-0.106-0.672-0.113-1.019s0.013-0.681,0.058-1.005
		l0.178-1.135c0.059-0.351,0.143-0.708,0.25-1.07s0.242-0.713,0.403-1.053s0.353-0.66,0.574-0.96s0.472-0.562,0.752-0.783
		s0.592-0.393,0.937-0.516s0.721-0.18,1.131-0.171c0.396,0.009,0.744,0.083,1.042,0.222s0.555,0.322,0.769,0.55
		s0.389,0.492,0.523,0.793s0.235,0.619,0.301,0.954s0.103,0.677,0.109,1.025s-0.013,0.685-0.058,1.008L58.083,349.341z
		 M57.037,348.186c0.027-0.209,0.049-0.438,0.065-0.684s0.014-0.493-0.007-0.742s-0.062-0.49-0.126-0.725s-0.158-0.443-0.284-0.625
		s-0.285-0.331-0.479-0.444s-0.432-0.175-0.714-0.185c-0.296-0.009-0.564,0.035-0.803,0.133s-0.454,0.235-0.643,0.41
		s-0.355,0.378-0.499,0.608s-0.268,0.474-0.373,0.731s-0.191,0.519-0.26,0.783s-0.123,0.515-0.164,0.752l-0.191,1.155
		c-0.027,0.205-0.048,0.431-0.062,0.677s-0.009,0.495,0.014,0.745s0.066,0.495,0.13,0.731s0.16,0.448,0.287,0.632
		s0.288,0.335,0.482,0.451s0.432,0.179,0.714,0.188c0.296,0.009,0.565-0.035,0.807-0.133s0.456-0.235,0.643-0.41
		s0.351-0.379,0.492-0.612s0.263-0.478,0.366-0.735s0.188-0.519,0.256-0.783s0.123-0.517,0.164-0.759L57.037,348.186z"/>
	<path d="M61.07,353.75l1.114-6.419h-1.982l0.178-0.978h1.969l0.075-0.52c0.059-0.438,0.177-0.835,0.352-1.193
		s0.401-0.663,0.677-0.916s0.599-0.447,0.971-0.581s0.785-0.199,1.241-0.195c0.296,0.004,0.587,0.034,0.872,0.089
		s0.571,0.119,0.858,0.191l-0.253,1.039c-0.223-0.078-0.45-0.139-0.68-0.185s-0.464-0.071-0.701-0.075
		c-0.296-0.004-0.563,0.034-0.8,0.116s-0.444,0.202-0.622,0.359s-0.322,0.349-0.434,0.574s-0.19,0.482-0.236,0.769l-0.075,0.526
		h2.769l-0.171,0.978h-2.762l-1.114,6.419H61.07z"/>
	<path d="M69.294,353.75l1.114-6.419h-1.982l0.178-0.978h1.969l0.075-0.52c0.059-0.438,0.177-0.835,0.352-1.193
		s0.401-0.663,0.677-0.916s0.599-0.447,0.971-0.581s0.785-0.199,1.241-0.195c0.296,0.004,0.587,0.034,0.872,0.089
		s0.571,0.119,0.858,0.191l-0.253,1.039c-0.223-0.078-0.45-0.139-0.68-0.185s-0.464-0.071-0.701-0.075
		c-0.296-0.004-0.563,0.034-0.8,0.116s-0.444,0.202-0.622,0.359s-0.322,0.349-0.434,0.574s-0.19,0.482-0.236,0.769l-0.075,0.526
		h2.769l-0.171,0.978h-2.762l-1.114,6.419H69.294z"/>
	<path d="M81.722,349.916h-5.079l0.185-1.039h5.079L81.722,349.916z"/>
	<path d="M90.622,350.743c-0.091,0.451-0.242,0.872-0.451,1.261s-0.471,0.726-0.783,1.008s-0.67,0.502-1.073,0.66
		s-0.844,0.229-1.323,0.215c-0.392-0.009-0.739-0.079-1.042-0.208s-0.565-0.303-0.786-0.52s-0.402-0.468-0.543-0.755
		s-0.25-0.592-0.325-0.916s-0.117-0.657-0.126-1.001s0.009-0.683,0.055-1.015l0.219-1.388c0.059-0.36,0.145-0.72,0.256-1.08
		s0.25-0.705,0.417-1.036s0.361-0.638,0.584-0.923s0.478-0.531,0.762-0.738s0.601-0.369,0.947-0.485s0.727-0.17,1.142-0.161
		c0.469,0.009,0.877,0.099,1.224,0.27s0.636,0.4,0.868,0.687s0.409,0.622,0.53,1.005s0.19,0.793,0.208,1.23h-1.224
		c-0.014-0.273-0.05-0.538-0.109-0.793s-0.154-0.483-0.284-0.684s-0.298-0.363-0.506-0.489s-0.466-0.192-0.776-0.202
		c-0.301-0.009-0.573,0.034-0.817,0.13s-0.462,0.227-0.656,0.393s-0.362,0.363-0.506,0.591s-0.269,0.468-0.376,0.721
		s-0.196,0.513-0.267,0.779s-0.126,0.523-0.167,0.769l-0.232,1.408c-0.032,0.214-0.055,0.445-0.068,0.694s-0.009,0.496,0.014,0.742
		s0.067,0.484,0.133,0.714s0.163,0.435,0.291,0.615s0.292,0.326,0.492,0.438s0.444,0.172,0.731,0.181
		c0.328,0.014,0.621-0.034,0.878-0.144s0.484-0.26,0.68-0.451s0.361-0.417,0.496-0.677s0.243-0.536,0.325-0.827L90.622,350.743z"/>
	<path d="M94.396,347.461c0.15-0.182,0.313-0.351,0.489-0.506s0.362-0.287,0.561-0.396s0.408-0.195,0.629-0.256
		s0.455-0.09,0.701-0.085c0.419,0.009,0.77,0.093,1.053,0.253s0.506,0.372,0.67,0.636s0.273,0.568,0.328,0.913
		s0.062,0.703,0.021,1.077l-0.779,4.655h-1.237l0.786-4.676c0.027-0.242,0.027-0.468,0-0.68s-0.091-0.399-0.191-0.561
		s-0.238-0.29-0.414-0.383s-0.397-0.145-0.667-0.154c-0.209-0.004-0.409,0.02-0.598,0.072s-0.369,0.127-0.54,0.226
		s-0.333,0.213-0.485,0.345s-0.293,0.276-0.42,0.431l-0.937,5.38h-1.237l1.825-10.5h1.237L94.396,347.461z"/>
	<path d="M105.128,353.75c-0.037-0.137-0.055-0.271-0.055-0.403s0.007-0.267,0.021-0.403c-0.324,0.287-0.676,0.517-1.056,0.69
		s-0.792,0.255-1.234,0.246c-0.31-0.004-0.603-0.057-0.878-0.157s-0.515-0.242-0.718-0.424s-0.36-0.403-0.472-0.663
		s-0.158-0.554-0.14-0.882c0.018-0.319,0.083-0.602,0.195-0.848s0.256-0.461,0.434-0.646s0.383-0.341,0.615-0.468
		s0.479-0.231,0.742-0.311s0.533-0.137,0.813-0.171s0.557-0.051,0.831-0.051l1.408,0.007l0.089-0.588
		c0.027-0.232,0.01-0.438-0.051-0.615s-0.156-0.328-0.284-0.451s-0.284-0.216-0.468-0.28s-0.389-0.098-0.612-0.103
		c-0.196-0.004-0.389,0.016-0.578,0.062s-0.362,0.116-0.52,0.212s-0.293,0.218-0.407,0.366s-0.194,0.325-0.239,0.53l-1.237,0.007
		c0.041-0.374,0.162-0.698,0.362-0.974s0.448-0.505,0.742-0.687s0.616-0.318,0.967-0.407s0.695-0.131,1.032-0.126
		c0.374,0.009,0.722,0.068,1.046,0.178s0.601,0.27,0.831,0.482s0.404,0.471,0.523,0.776s0.157,0.656,0.116,1.053l-0.574,3.438
		c-0.041,0.25-0.062,0.501-0.065,0.752s0.026,0.499,0.085,0.745l-0.014,0.116H105.128z M103.043,352.793
		c0.438,0.009,0.845-0.09,1.224-0.297s0.695-0.484,0.95-0.831l0.267-1.504l-1.06-0.007c-0.25,0-0.519,0.016-0.803,0.048
		s-0.553,0.098-0.803,0.198s-0.465,0.244-0.643,0.431s-0.285,0.433-0.321,0.738c-0.023,0.196-0.009,0.369,0.041,0.52
		s0.13,0.277,0.239,0.379s0.242,0.181,0.396,0.236S102.856,352.789,103.043,352.793z"/>
	<path d="M110.036,346.354h3.678l-1.094,6.303h2.345l-0.198,1.094h-6.016l0.198-1.094h2.434l0.902-5.202h-2.44L110.036,346.354z
		 M112.654,344.433c0.004-0.219,0.075-0.4,0.212-0.543s0.314-0.22,0.533-0.229c0.109-0.004,0.208,0.011,0.297,0.048
		s0.167,0.086,0.232,0.15s0.116,0.141,0.15,0.232s0.051,0.191,0.051,0.301c0,0.219-0.068,0.396-0.205,0.53s-0.314,0.206-0.533,0.215
		c-0.214,0.009-0.391-0.051-0.53-0.181S112.654,344.652,112.654,344.433z"/>
	<path d="M119.162,346.347l-0.157,1.101c0.15-0.182,0.314-0.351,0.492-0.506s0.367-0.287,0.567-0.396s0.413-0.192,0.636-0.25
		s0.458-0.083,0.704-0.079c0.415,0.009,0.763,0.091,1.046,0.246s0.507,0.361,0.673,0.619s0.278,0.557,0.335,0.899
		s0.065,0.7,0.024,1.073l-0.786,4.696h-1.237l0.786-4.676c0.027-0.25,0.028-0.483,0.003-0.697s-0.086-0.401-0.185-0.561
		s-0.236-0.286-0.414-0.379s-0.403-0.143-0.677-0.147c-0.214-0.004-0.418,0.021-0.612,0.079s-0.375,0.137-0.543,0.239
		s-0.327,0.226-0.475,0.369s-0.284,0.297-0.407,0.461l-0.923,5.312h-1.237l1.285-7.396L119.162,346.347z"/>
	<path d="M130.168,349.751c-0.064,0.447-0.156,0.906-0.277,1.377s-0.269,0.939-0.444,1.401s-0.382,0.914-0.619,1.354
		s-0.505,0.852-0.803,1.237s-0.629,0.736-0.991,1.053s-0.76,0.582-1.193,0.796l-0.191-0.786c0.506-0.369,0.942-0.799,1.309-1.289
		s0.68-1.014,0.94-1.572s0.472-1.138,0.636-1.74s0.292-1.201,0.383-1.798l0.014-0.103c0.045-0.324,0.084-0.672,0.116-1.046
		s0.045-0.756,0.041-1.148s-0.031-0.786-0.079-1.183s-0.126-0.778-0.236-1.145s-0.254-0.71-0.434-1.029s-0.404-0.602-0.673-0.848
		l0.314-0.766c0.36,0.25,0.672,0.547,0.937,0.889s0.486,0.712,0.667,1.111s0.322,0.817,0.427,1.254s0.179,0.879,0.222,1.326
		s0.059,0.889,0.048,1.326s-0.044,0.854-0.099,1.251L130.168,349.751z"/>
</g>
<g>
	<rect x="9.5" y="528" fill="none" width="285.113" height="21.749"/>
	<path d="M16.849,535.376c-0.068,0.501-0.214,0.954-0.438,1.36s-0.506,0.752-0.848,1.039s-0.734,0.507-1.176,0.66
		c-0.442,0.152-0.914,0.222-1.415,0.208c-0.406-0.009-0.766-0.076-1.08-0.202c-0.314-0.125-0.587-0.293-0.817-0.506
		c-0.23-0.211-0.42-0.46-0.571-0.744c-0.15-0.285-0.266-0.591-0.345-0.916c-0.08-0.326-0.125-0.666-0.137-1.02
		c-0.011-0.353,0.006-0.705,0.051-1.056l0.198-1.34c0.055-0.369,0.14-0.738,0.256-1.107s0.261-0.72,0.434-1.053
		s0.377-0.642,0.612-0.927c0.235-0.284,0.5-0.529,0.796-0.734s0.623-0.365,0.981-0.479s0.746-0.166,1.166-0.157
		c0.51,0.009,0.955,0.099,1.333,0.271c0.378,0.17,0.691,0.404,0.94,0.7s0.437,0.647,0.564,1.053s0.198,0.851,0.212,1.333
		l-1.859-0.007c0-0.241-0.017-0.47-0.051-0.684s-0.1-0.401-0.198-0.561s-0.233-0.288-0.407-0.386
		c-0.173-0.099-0.396-0.152-0.67-0.161c-0.26-0.009-0.49,0.028-0.69,0.112c-0.201,0.085-0.377,0.199-0.53,0.342
		c-0.153,0.145-0.285,0.314-0.396,0.51s-0.206,0.402-0.284,0.619c-0.078,0.216-0.141,0.436-0.191,0.659s-0.089,0.438-0.116,0.643
		l-0.191,1.36c-0.023,0.168-0.043,0.355-0.062,0.561s-0.026,0.412-0.024,0.622s0.021,0.415,0.058,0.615s0.1,0.38,0.191,0.536
		c0.091,0.158,0.214,0.285,0.369,0.383c0.155,0.099,0.353,0.152,0.595,0.161c0.273,0.014,0.517-0.021,0.731-0.103
		s0.399-0.198,0.554-0.349s0.283-0.331,0.383-0.544c0.1-0.211,0.175-0.445,0.226-0.7L16.849,535.376z"/>
	<path d="M18.339,534.781c0.064-0.52,0.199-1.013,0.407-1.48c0.208-0.467,0.478-0.875,0.81-1.227s0.726-0.627,1.179-0.827
		s0.958-0.294,1.514-0.28c0.533,0.01,0.991,0.119,1.374,0.328s0.694,0.486,0.933,0.83c0.239,0.345,0.404,0.74,0.496,1.187
		s0.112,0.913,0.062,1.401l-0.021,0.15c-0.064,0.52-0.199,1.011-0.407,1.473c-0.208,0.463-0.478,0.867-0.81,1.214
		s-0.726,0.618-1.179,0.817c-0.454,0.197-0.956,0.29-1.507,0.276c-0.529-0.009-0.984-0.117-1.367-0.325
		c-0.383-0.207-0.694-0.48-0.933-0.82c-0.239-0.339-0.406-0.73-0.499-1.176c-0.093-0.443-0.115-0.91-0.065-1.397L18.339,534.781z
		 M20.178,534.925c-0.023,0.228-0.032,0.468-0.027,0.722c0.004,0.252,0.044,0.487,0.12,0.703c0.075,0.217,0.196,0.399,0.362,0.547
		c0.167,0.148,0.397,0.227,0.694,0.236c0.31,0.01,0.578-0.056,0.803-0.195c0.226-0.139,0.415-0.318,0.567-0.539
		c0.153-0.222,0.271-0.468,0.355-0.738c0.084-0.271,0.145-0.537,0.181-0.797l0.014-0.144c0.014-0.15,0.024-0.309,0.031-0.476
		c0.007-0.166,0-0.33-0.021-0.492c-0.021-0.161-0.055-0.316-0.103-0.465c-0.048-0.147-0.116-0.279-0.205-0.393
		s-0.202-0.206-0.338-0.277c-0.137-0.07-0.303-0.109-0.499-0.119c-0.314-0.01-0.584,0.055-0.81,0.191s-0.415,0.316-0.567,0.54
		s-0.273,0.472-0.362,0.745s-0.149,0.543-0.181,0.807L20.178,534.925z"/>
	<path d="M29.105,531.097l-0.123,1.039c0.292-0.355,0.628-0.642,1.008-0.858c0.38-0.216,0.81-0.32,1.289-0.311
		c0.428,0.01,0.783,0.098,1.063,0.267s0.5,0.392,0.66,0.67s0.264,0.594,0.314,0.946c0.05,0.354,0.055,0.719,0.014,1.098
		l-0.759,4.553h-1.853l0.752-4.532c0.023-0.214,0.024-0.409,0.003-0.585c-0.021-0.175-0.071-0.326-0.15-0.454
		s-0.194-0.228-0.342-0.301s-0.338-0.112-0.571-0.116c-0.305-0.004-0.579,0.059-0.82,0.188c-0.242,0.131-0.46,0.309-0.656,0.537
		l-0.923,5.264h-1.859l1.285-7.396L29.105,531.097z"/>
	<path d="M36.153,538.5l1.039-5.995h-1.887l0.253-1.401l1.832,0.007l0.075-0.417c0.082-0.482,0.228-0.912,0.438-1.289
		c0.209-0.375,0.473-0.691,0.79-0.946s0.681-0.448,1.094-0.581s0.865-0.195,1.357-0.191c0.296,0.004,0.59,0.027,0.882,0.068
		s0.583,0.086,0.875,0.137l-0.287,1.49c-0.214-0.051-0.43-0.088-0.646-0.113c-0.216-0.024-0.434-0.037-0.653-0.037
		c-0.506-0.004-0.936,0.11-1.289,0.346c-0.353,0.234-0.584,0.607-0.694,1.117l-0.089,0.417l2.646-0.007l-0.253,1.401h-2.577
		l-1.046,5.995H36.153z"/>
	<path d="M44.363,531.104h3.917l-1.019,5.852h1.948l-0.273,1.545h-5.858l0.267-1.545h2.044l0.745-4.3H44.09L44.363,531.104z
		 M46.599,529.244c0-0.154,0.027-0.297,0.082-0.424s0.131-0.238,0.229-0.332c0.098-0.093,0.212-0.166,0.342-0.219
		c0.13-0.052,0.27-0.078,0.42-0.078c0.146-0.004,0.283,0.016,0.41,0.062s0.239,0.112,0.335,0.198s0.172,0.191,0.229,0.314
		s0.085,0.26,0.085,0.41c0,0.154-0.027,0.297-0.082,0.424s-0.13,0.238-0.226,0.332c-0.096,0.093-0.209,0.166-0.342,0.219
		c-0.132,0.052-0.273,0.078-0.424,0.078c-0.146,0.004-0.283-0.016-0.41-0.062s-0.239-0.112-0.335-0.198s-0.172-0.191-0.229-0.314
		S46.599,529.395,46.599,529.244z"/>
	<path d="M57.16,530.953c0.237,0.004,0.471,0.023,0.701,0.059c0.23,0.033,0.461,0.08,0.694,0.14l-0.506,1.894
		c-0.237-0.059-0.474-0.105-0.711-0.141c-0.237-0.033-0.479-0.053-0.725-0.058c-0.966-0.009-1.705,0.392-2.215,1.203l-0.772,4.45
		h-1.853l1.285-7.396h1.723l-0.191,1.217c0.164-0.201,0.339-0.385,0.526-0.554s0.387-0.313,0.602-0.435
		c0.214-0.12,0.441-0.214,0.68-0.279C56.637,530.986,56.891,530.953,57.16,530.953z"/>
	<path d="M61.453,531.097l-0.171,0.909c0.086-0.15,0.181-0.289,0.284-0.417s0.216-0.238,0.342-0.331
		c0.125-0.094,0.264-0.167,0.417-0.219c0.153-0.053,0.32-0.079,0.502-0.079c0.273,0.005,0.502,0.069,0.687,0.194
		c0.185,0.126,0.307,0.325,0.366,0.599c0.182-0.232,0.386-0.423,0.612-0.571c0.226-0.147,0.493-0.219,0.803-0.215
		c0.201,0.004,0.373,0.041,0.516,0.109s0.264,0.16,0.362,0.277c0.098,0.115,0.177,0.249,0.236,0.399s0.103,0.309,0.13,0.476
		c0.027,0.166,0.041,0.334,0.041,0.506c0,0.17-0.007,0.334-0.021,0.488l-0.875,5.277h-1.688l0.896-5.298
		c0.009-0.073,0.014-0.149,0.014-0.229c0-0.079-0.011-0.153-0.034-0.222s-0.061-0.126-0.113-0.171s-0.126-0.068-0.222-0.068
		c-0.132,0-0.244,0.033-0.335,0.1c-0.091,0.065-0.178,0.145-0.26,0.235L62.95,538.5h-1.634l0.896-5.305
		c0.004-0.072,0.008-0.15,0.01-0.232s-0.007-0.156-0.027-0.223c-0.021-0.065-0.057-0.12-0.109-0.164
		c-0.052-0.043-0.129-0.064-0.229-0.064c-0.15,0-0.273,0.045-0.369,0.133c-0.096,0.09-0.18,0.193-0.253,0.312l-0.964,5.544h-1.688
		l1.285-7.396L61.453,531.097z"/>
	<path d="M70.818,538.637c-0.506-0.01-0.963-0.105-1.371-0.291c-0.408-0.184-0.752-0.435-1.032-0.752
		c-0.28-0.316-0.486-0.689-0.619-1.117s-0.175-0.893-0.13-1.395l0.027-0.28c0.059-0.52,0.198-1.015,0.417-1.483
		s0.502-0.879,0.851-1.23s0.755-0.629,1.22-0.834s0.971-0.301,1.518-0.287c0.515,0.014,0.959,0.121,1.333,0.321
		s0.676,0.468,0.906,0.804c0.23,0.334,0.387,0.719,0.472,1.151s0.097,0.889,0.038,1.367l-0.123,0.807h-4.833
		c-0.009,0.237,0.021,0.457,0.089,0.659c0.068,0.203,0.167,0.38,0.297,0.53s0.291,0.271,0.482,0.358
		c0.191,0.09,0.41,0.137,0.656,0.141c0.387,0.014,0.753-0.054,1.097-0.201c0.344-0.148,0.648-0.359,0.913-0.633l0.841,1.032
		c-0.164,0.237-0.363,0.44-0.598,0.608s-0.488,0.308-0.759,0.417s-0.553,0.188-0.844,0.239S71.092,538.641,70.818,538.637z
		 M71.563,532.498c-0.246-0.01-0.467,0.031-0.663,0.123s-0.37,0.215-0.523,0.369s-0.286,0.33-0.4,0.526s-0.214,0.394-0.301,0.595
		h3.015l0.034-0.171c0.032-0.2,0.027-0.388-0.014-0.561s-0.113-0.323-0.215-0.451s-0.232-0.229-0.39-0.304
		C71.95,532.549,71.769,532.508,71.563,532.498z"/>
	<path d="M75.918,534.788c0.037-0.306,0.096-0.612,0.178-0.923s0.188-0.608,0.318-0.896s0.285-0.555,0.465-0.804
		c0.18-0.248,0.389-0.462,0.625-0.643c0.237-0.18,0.501-0.32,0.793-0.42s0.615-0.146,0.971-0.137
		c0.342,0.01,0.653,0.081,0.933,0.215c0.28,0.135,0.527,0.334,0.742,0.599l0.711-3.78h1.859l-1.818,10.5h-1.661l0.096-0.772
		c-0.26,0.287-0.55,0.513-0.872,0.677s-0.683,0.242-1.083,0.232c-0.328-0.01-0.615-0.069-0.861-0.182
		c-0.246-0.111-0.458-0.26-0.636-0.443c-0.178-0.186-0.324-0.398-0.438-0.64s-0.201-0.498-0.26-0.769
		c-0.059-0.271-0.095-0.55-0.106-0.834c-0.011-0.285-0.003-0.562,0.024-0.831L75.918,534.788z M77.757,534.938
		c-0.023,0.205-0.035,0.431-0.038,0.677s0.028,0.478,0.092,0.693c0.064,0.217,0.17,0.399,0.318,0.547
		c0.148,0.148,0.361,0.227,0.639,0.236c0.314,0.01,0.588-0.061,0.82-0.209c0.232-0.147,0.438-0.34,0.615-0.577l0.533-3.008
		c-0.191-0.511-0.567-0.776-1.128-0.8c-0.31-0.004-0.574,0.064-0.793,0.205s-0.401,0.324-0.547,0.547s-0.257,0.472-0.335,0.745
		s-0.132,0.54-0.164,0.8L77.757,534.938z"/>
	<path d="M100.377,530.112h-2.974l-1.456,8.388h-1.88l1.456-8.388h-2.939l0.273-1.565h7.8L100.377,530.112z"/>
	<path d="M104.342,532.102l2.27-3.555h2.283l-3.548,5.018l1.969,4.936h-2.099l-1.203-3.609l-2.324,3.609h-2.297l3.63-5.1
		l-1.914-4.854h2.105L104.342,532.102z"/>
</g>
<g>
</g>
<g>
</g>
<g>
</g>
<g>
</g>
<g>
</g>
<g>
</g>
<g>
</g>
<g>
</g>
<g>
</g>
<g>
</g>
<g>
</g>
<g>
</g>
<g>
</g>
<g>
</g>
<g>
</g>
</svg>
